<?xml version="1.0" encoding="UTF-8" standalone="no"?><svg xmlns="http://www.w3.org/2000/svg" xmlns:xlink="http://www.w3.org/1999/xlink" contentStyleType="text/css" height="942px" preserveAspectRatio="none" style="width:1258px;height:942px;background:#FFFFFF;" version="1.1" viewBox="0 0 1258 942" width="1258px" zoomAndPan="magnify"><defs/><g><rect fill="#FFFFFF" height="749.625" style="stroke:#181818;stroke-width:1.0;" width="10" x="17.5" y="92.6094"/><rect fill="#FFFFFF" height="195.2031" style="stroke:#181818;stroke-width:1.0;" width="10" x="377.5" y="114.9609"/><rect fill="#FFFFFF" height="91.0547" style="stroke:#181818;stroke-width:1.0;" width="10" x="377.5" y="340.5156"/><rect fill="#FFFFFF" height="258.9063" style="stroke:#181818;stroke-width:1.0;" width="10" x="377.5" y="461.9219"/><rect fill="#FFFFFF" height="91.0547" style="stroke:#181818;stroke-width:1.0;" width="10" x="377.5" y="751.1797"/><rect fill="#FFFFFF" height="91.8906" style="stroke:#181818;stroke-width:1.0;" width="10" x="606.5" y="187.9219"/><rect fill="#FFFFFF" height="30.3516" style="stroke:#181818;stroke-width:1.0;" width="10" x="606.5" y="370.8672"/><rect fill="#FFFFFF" height="198.2031" style="stroke:#181818;stroke-width:1.0;" width="10" x="606.5" y="492.2734"/><rect fill="#FFFFFF" height="30.3516" style="stroke:#181818;stroke-width:1.0;" width="10" x="606.5" y="781.5313"/><rect fill="#FFFFFF" height="30.3516" style="stroke:#181818;stroke-width:1.0;" width="10" x="879" y="522.625"/><rect fill="#FFFFFF" height="76.7969" style="stroke:#181818;stroke-width:1.0;" width="10" x="1161" y="583.3281"/><line style="stroke:#181818;stroke-width:0.5;stroke-dasharray:5.0,5.0;" x1="22" x2="22" y1="82.6094" y2="860.2344"/><line style="stroke:#181818;stroke-width:0.5;stroke-dasharray:5.0,5.0;" x1="382.5" x2="382.5" y1="82.6094" y2="860.2344"/><line style="stroke:#181818;stroke-width:0.5;stroke-dasharray:5.0,5.0;" x1="611.5" x2="611.5" y1="154.2656" y2="860.2344"/><line style="stroke:#181818;stroke-width:0.5;stroke-dasharray:5.0,5.0;" x1="776.5" x2="776.5" y1="82.6094" y2="860.2344"/><line style="stroke:#181818;stroke-width:0.5;stroke-dasharray:5.0,5.0;" x1="883.5" x2="883.5" y1="82.6094" y2="860.2344"/><line style="stroke:#181818;stroke-width:0.5;stroke-dasharray:5.0,5.0;" x1="1007.5" x2="1007.5" y1="82.6094" y2="860.2344"/><line style="stroke:#181818;stroke-width:0.5;stroke-dasharray:5.0,5.0;" x1="1165.5" x2="1165.5" y1="82.6094" y2="860.2344"/><text fill="#000000" font-family="sans-serif" font-size="14" lengthAdjust="spacing" textLength="29" x="5" y="79.5332">VFM</text><ellipse cx="22.5" cy="13.5" fill="#E3E3E3" rx="8" ry="8" style="stroke:#181818;stroke-width:0.5;"/><path d="M22.5,21.5 L22.5,48.5 M9.5,29.5 L35.5,29.5 M22.5,48.5 L9.5,63.5 M22.5,48.5 L35.5,63.5 " fill="none" style="stroke:#181818;stroke-width:0.5;"/><text fill="#000000" font-family="sans-serif" font-size="14" lengthAdjust="spacing" textLength="29" x="5" y="873.7676">VFM</text><ellipse cx="22.5" cy="885.3438" fill="#E3E3E3" rx="8" ry="8" style="stroke:#181818;stroke-width:0.5;"/><path d="M22.5,893.3438 L22.5,920.3438 M9.5,901.3438 L35.5,901.3438 M22.5,920.3438 L9.5,935.3438 M22.5,920.3438 L35.5,935.3438 " fill="none" style="stroke:#181818;stroke-width:0.5;"/><rect fill="#E3E3E3" height="31.6094" rx="2.5" ry="2.5" style="stroke:#181818;stroke-width:0.5;" width="164" x="300.5" y="50"/><text fill="#000000" font-family="sans-serif" font-size="14" lengthAdjust="spacing" textLength="150" x="307.5" y="71.5332">:RegisterMaintenanceUI</text><rect fill="#E3E3E3" height="31.6094" rx="2.5" ry="2.5" style="stroke:#181818;stroke-width:0.5;" width="164" x="300.5" y="859.2344"/><text fill="#000000" font-family="sans-serif" font-size="14" lengthAdjust="spacing" textLength="150" x="307.5" y="880.7676">:RegisterMaintenanceUI</text><rect fill="#E3E3E3" height="31.6094" rx="2.5" ry="2.5" style="stroke:#181818;stroke-width:0.5;" width="214" x="504.5" y="859.2344"/><text fill="#000000" font-family="sans-serif" font-size="14" lengthAdjust="spacing" textLength="200" x="511.5" y="880.7676">:RegisterMaintenanceController</text><rect fill="#E3E3E3" height="31.6094" rx="2.5" ry="2.5" style="stroke:#181818;stroke-width:0.5;" width="97" x="728.5" y="50"/><text fill="#000000" font-family="sans-serif" font-size="14" lengthAdjust="spacing" textLength="83" x="735.5" y="71.5332">:Repositories</text><rect fill="#E3E3E3" height="31.6094" rx="2.5" ry="2.5" style="stroke:#181818;stroke-width:0.5;" width="97" x="728.5" y="859.2344"/><text fill="#000000" font-family="sans-serif" font-size="14" lengthAdjust="spacing" textLength="83" x="735.5" y="880.7676">:Repositories</text><rect fill="#E3E3E3" height="49.2188" rx="2.5" ry="2.5" style="stroke:#181818;stroke-width:0.5;" width="97" x="835.5" y="32.3906"/><text fill="#000000" font-family="sans-serif" font-size="14" lengthAdjust="spacing" textLength="74" x="847" y="53.9238">repositories</text><text fill="#000000" font-family="sans-serif" font-size="14" lengthAdjust="spacing" textLength="83" x="842.5" y="71.5332">:Repositories</text><rect fill="#E3E3E3" height="49.2188" rx="2.5" ry="2.5" style="stroke:#181818;stroke-width:0.5;" width="97" x="835.5" y="859.2344"/><text fill="#000000" font-family="sans-serif" font-size="14" lengthAdjust="spacing" textLength="74" x="847" y="880.7676">repositories</text><text fill="#000000" font-family="sans-serif" font-size="14" lengthAdjust="spacing" textLength="83" x="842.5" y="898.377">:Repositories</text><rect fill="#E3E3E3" height="49.2188" rx="2.5" ry="2.5" style="stroke:#181818;stroke-width:0.5;" width="130" x="942.5" y="32.3906"/><text fill="#000000" font-family="sans-serif" font-size="14" lengthAdjust="spacing" textLength="116" x="949.5" y="53.9238">vehicleRepository:</text><text fill="#000000" font-family="sans-serif" font-size="14" lengthAdjust="spacing" textLength="114" x="950.5" y="71.5332">VehicleRepository</text><rect fill="#E3E3E3" height="49.2188" rx="2.5" ry="2.5" style="stroke:#181818;stroke-width:0.5;" width="130" x="942.5" y="859.2344"/><text fill="#000000" font-family="sans-serif" font-size="14" lengthAdjust="spacing" textLength="116" x="949.5" y="880.7676">vehicleRepository:</text><text fill="#000000" font-family="sans-serif" font-size="14" lengthAdjust="spacing" textLength="114" x="950.5" y="898.377">VehicleRepository</text><rect fill="#E3E3E3" height="49.2188" rx="2.5" ry="2.5" style="stroke:#181818;stroke-width:0.5;" width="167" x="1082.5" y="32.3906"/><text fill="#000000" font-family="sans-serif" font-size="14" lengthAdjust="spacing" textLength="153" x="1089.5" y="53.9238">maintenanceRepository:</text><text fill="#000000" font-family="sans-serif" font-size="14" lengthAdjust="spacing" textLength="149" x="1091.5" y="71.5332">MaintenanceRepository</text><rect fill="#E3E3E3" height="49.2188" rx="2.5" ry="2.5" style="stroke:#181818;stroke-width:0.5;" width="167" x="1082.5" y="859.2344"/><text fill="#000000" font-family="sans-serif" font-size="14" lengthAdjust="spacing" textLength="153" x="1089.5" y="880.7676">maintenanceRepository:</text><text fill="#000000" font-family="sans-serif" font-size="14" lengthAdjust="spacing" textLength="149" x="1091.5" y="898.377">MaintenanceRepository</text><rect fill="#FFFFFF" height="749.625" style="stroke:#181818;stroke-width:1.0;" width="10" x="17.5" y="92.6094"/><rect fill="#FFFFFF" height="195.2031" style="stroke:#181818;stroke-width:1.0;" width="10" x="377.5" y="114.9609"/><rect fill="#FFFFFF" height="91.0547" style="stroke:#181818;stroke-width:1.0;" width="10" x="377.5" y="340.5156"/><rect fill="#FFFFFF" height="258.9063" style="stroke:#181818;stroke-width:1.0;" width="10" x="377.5" y="461.9219"/><rect fill="#FFFFFF" height="91.0547" style="stroke:#181818;stroke-width:1.0;" width="10" x="377.5" y="751.1797"/><rect fill="#FFFFFF" height="91.8906" style="stroke:#181818;stroke-width:1.0;" width="10" x="606.5" y="187.9219"/><rect fill="#FFFFFF" height="30.3516" style="stroke:#181818;stroke-width:1.0;" width="10" x="606.5" y="370.8672"/><rect fill="#FFFFFF" height="198.2031" style="stroke:#181818;stroke-width:1.0;" width="10" x="606.5" y="492.2734"/><rect fill="#FFFFFF" height="30.3516" style="stroke:#181818;stroke-width:1.0;" width="10" x="606.5" y="781.5313"/><rect fill="#FFFFFF" height="30.3516" style="stroke:#181818;stroke-width:1.0;" width="10" x="879" y="522.625"/><rect fill="#FFFFFF" height="76.7969" style="stroke:#181818;stroke-width:1.0;" width="10" x="1161" y="583.3281"/><polygon fill="#181818" points="365.5,110.9609,375.5,114.9609,365.5,118.9609,369.5,114.9609" style="stroke:#181818;stroke-width:1.0;"/><line style="stroke:#181818;stroke-width:1.0;" x1="27.5" x2="371.5" y1="114.9609" y2="114.9609"/><text fill="#000000" font-family="sans-serif" font-size="13" font-weight="bold" lengthAdjust="spacing" textLength="7" x="34.5" y="110.1045">1</text><text fill="#000000" font-family="sans-serif" font-size="13" lengthAdjust="spacing" textLength="263" x="45.5" y="110.1045">requests to list vehicles needing maintenance</text><polygon fill="#181818" points="492.5,141.3125,502.5,145.3125,492.5,149.3125,496.5,145.3125" style="stroke:#181818;stroke-width:1.0;"/><line style="stroke:#181818;stroke-width:1.0;" x1="387.5" x2="498.5" y1="145.3125" y2="145.3125"/><text fill="#000000" font-family="sans-serif" font-size="13" font-weight="bold" lengthAdjust="spacing" textLength="7" x="394.5" y="140.4561">2</text><text fill="#000000" font-family="sans-serif" font-size="13" lengthAdjust="spacing" textLength="36" x="405.5" y="140.4561">create</text><rect fill="#E3E3E3" height="31.6094" rx="2.5" ry="2.5" style="stroke:#181818;stroke-width:0.5;" width="214" x="504.5" y="122.9609"/><text fill="#000000" font-family="sans-serif" font-size="14" lengthAdjust="spacing" textLength="200" x="511.5" y="144.4941">:RegisterMaintenanceController</text><polygon fill="#181818" points="594.5,183.9219,604.5,187.9219,594.5,191.9219,598.5,187.9219" style="stroke:#181818;stroke-width:1.0;"/><line style="stroke:#181818;stroke-width:1.0;" x1="387.5" x2="600.5" y1="187.9219" y2="187.9219"/><text fill="#000000" font-family="sans-serif" font-size="13" font-weight="bold" lengthAdjust="spacing" textLength="7" x="394.5" y="183.0654">3</text><text fill="#000000" font-family="sans-serif" font-size="13" lengthAdjust="spacing" textLength="97" x="405.5" y="183.0654">getVehiclesList()</text><rect fill="none" height="56.5391" style="stroke:#000000;stroke-width:1.5;" width="220" x="501.5" y="195.9219"/><path d="M501.5,195.9219 L563.5,195.9219 L563.5,203.9219 L553.5,213.9219 L501.5,213.9219 L501.5,195.9219 " fill="#EEEEEE" style="stroke:#000000;stroke-width:2.0;"/><text fill="#000000" font-family="sans-serif" font-size="13" font-weight="bold" lengthAdjust="spacing" textLength="17" x="514.5" y="211.417">ref</text><text fill="#000000" font-family="sans-serif" font-size="12" lengthAdjust="spacing" textLength="85" x="569" y="230.3789">Get Vehicle List</text><text fill="#000000" font-family="sans-serif" font-size="12" lengthAdjust="spacing" textLength="3" x="610" y="245.4727"> </text><polygon fill="#181818" points="398.5,275.8125,388.5,279.8125,398.5,283.8125,394.5,279.8125" style="stroke:#181818;stroke-width:1.0;"/><line style="stroke:#181818;stroke-width:1.0;stroke-dasharray:2.0,2.0;" x1="392.5" x2="610.5" y1="279.8125" y2="279.8125"/><text fill="#000000" font-family="sans-serif" font-size="13" font-weight="bold" lengthAdjust="spacing" textLength="7" x="404.5" y="274.9561">4</text><text fill="#000000" font-family="sans-serif" font-size="13" lengthAdjust="spacing" textLength="60" x="415.5" y="274.9561">vehicleList</text><polygon fill="#181818" points="38.5,306.1641,28.5,310.1641,38.5,314.1641,34.5,310.1641" style="stroke:#181818;stroke-width:1.0;"/><line style="stroke:#181818;stroke-width:1.0;stroke-dasharray:2.0,2.0;" x1="32.5" x2="381.5" y1="310.1641" y2="310.1641"/><text fill="#000000" font-family="sans-serif" font-size="13" font-weight="bold" lengthAdjust="spacing" textLength="7" x="44.5" y="305.3076">5</text><text fill="#000000" font-family="sans-serif" font-size="13" lengthAdjust="spacing" textLength="116" x="55.5" y="305.3076">displays vehicle List</text><polygon fill="#181818" points="365.5,336.5156,375.5,340.5156,365.5,344.5156,369.5,340.5156" style="stroke:#181818;stroke-width:1.0;"/><line style="stroke:#181818;stroke-width:1.0;" x1="27.5" x2="371.5" y1="340.5156" y2="340.5156"/><text fill="#000000" font-family="sans-serif" font-size="13" font-weight="bold" lengthAdjust="spacing" textLength="7" x="34.5" y="335.6592">6</text><text fill="#000000" font-family="sans-serif" font-size="13" lengthAdjust="spacing" textLength="92" x="45.5" y="335.6592">chooses vehicle</text><polygon fill="#181818" points="594.5,366.8672,604.5,370.8672,594.5,374.8672,598.5,370.8672" style="stroke:#181818;stroke-width:1.0;"/><line style="stroke:#181818;stroke-width:1.0;" x1="387.5" x2="600.5" y1="370.8672" y2="370.8672"/><text fill="#000000" font-family="sans-serif" font-size="13" font-weight="bold" lengthAdjust="spacing" textLength="7" x="394.5" y="366.0107">7</text><text fill="#000000" font-family="sans-serif" font-size="13" lengthAdjust="spacing" textLength="39" x="405.5" y="366.0107">vehicle</text><polygon fill="#181818" points="398.5,397.2188,388.5,401.2188,398.5,405.2188,394.5,401.2188" style="stroke:#181818;stroke-width:1.0;"/><line style="stroke:#181818;stroke-width:1.0;stroke-dasharray:2.0,2.0;" x1="392.5" x2="610.5" y1="401.2188" y2="401.2188"/><text fill="#000000" font-family="sans-serif" font-size="13" font-weight="bold" lengthAdjust="spacing" textLength="7" x="404.5" y="396.3623">8</text><text fill="#000000" font-family="sans-serif" font-size="13" lengthAdjust="spacing" textLength="184" x="415.5" y="396.3623">requests data(date, current Km)</text><polygon fill="#181818" points="38.5,427.5703,28.5,431.5703,38.5,435.5703,34.5,431.5703" style="stroke:#181818;stroke-width:1.0;"/><line style="stroke:#181818;stroke-width:1.0;stroke-dasharray:2.0,2.0;" x1="32.5" x2="381.5" y1="431.5703" y2="431.5703"/><text fill="#000000" font-family="sans-serif" font-size="13" font-weight="bold" lengthAdjust="spacing" textLength="7" x="44.5" y="426.7139">9</text><text fill="#000000" font-family="sans-serif" font-size="13" lengthAdjust="spacing" textLength="188" x="55.5" y="426.7139">requests data (date, current Km)</text><polygon fill="#181818" points="365.5,457.9219,375.5,461.9219,365.5,465.9219,369.5,461.9219" style="stroke:#181818;stroke-width:1.0;"/><line style="stroke:#181818;stroke-width:1.0;" x1="27.5" x2="371.5" y1="461.9219" y2="461.9219"/><text fill="#000000" font-family="sans-serif" font-size="13" font-weight="bold" lengthAdjust="spacing" textLength="14" x="34.5" y="457.0654">10</text><text fill="#000000" font-family="sans-serif" font-size="13" lengthAdjust="spacing" textLength="170" x="52.5" y="457.0654">types data (date, current Km)</text><polygon fill="#181818" points="594.5,488.2734,604.5,492.2734,594.5,496.2734,598.5,492.2734" style="stroke:#181818;stroke-width:1.0;"/><line style="stroke:#181818;stroke-width:1.0;" x1="387.5" x2="600.5" y1="492.2734" y2="492.2734"/><text fill="#000000" font-family="sans-serif" font-size="13" font-weight="bold" lengthAdjust="spacing" textLength="14" x="394.5" y="487.417">11</text><text fill="#000000" font-family="sans-serif" font-size="13" lengthAdjust="spacing" textLength="134" x="412.5" y="487.417">data (date, current Km)</text><polygon fill="#181818" points="867,518.625,877,522.625,867,526.625,871,522.625" style="stroke:#181818;stroke-width:1.0;"/><line style="stroke:#181818;stroke-width:1.0;" x1="616.5" x2="873" y1="522.625" y2="522.625"/><text fill="#000000" font-family="sans-serif" font-size="13" font-weight="bold" lengthAdjust="spacing" textLength="14" x="623.5" y="517.7686">12</text><text fill="#000000" font-family="sans-serif" font-size="13" lengthAdjust="spacing" textLength="162" x="641.5" y="517.7686">getMaintenanceRepository()</text><polygon fill="#181818" points="627.5,548.9766,617.5,552.9766,627.5,556.9766,623.5,552.9766" style="stroke:#181818;stroke-width:1.0;"/><line style="stroke:#181818;stroke-width:1.0;stroke-dasharray:2.0,2.0;" x1="621.5" x2="883" y1="552.9766" y2="552.9766"/><text fill="#000000" font-family="sans-serif" font-size="13" font-weight="bold" lengthAdjust="spacing" textLength="14" x="633.5" y="548.1201">13</text><text fill="#000000" font-family="sans-serif" font-size="13" lengthAdjust="spacing" textLength="136" x="651.5" y="548.1201">MaintenanceRepository</text><polygon fill="#181818" points="1149,579.3281,1159,583.3281,1149,587.3281,1153,583.3281" style="stroke:#181818;stroke-width:1.0;"/><line style="stroke:#181818;stroke-width:1.0;" x1="616.5" x2="1155" y1="583.3281" y2="583.3281"/><text fill="#000000" font-family="sans-serif" font-size="13" font-weight="bold" lengthAdjust="spacing" textLength="14" x="623.5" y="578.4717">14</text><text fill="#000000" font-family="sans-serif" font-size="13" lengthAdjust="spacing" textLength="121" x="641.5" y="578.4717">register maintenance</text><rect fill="none" height="41.4453" style="stroke:#000000;stroke-width:1.5;" width="173" x="1079.5" y="591.3281"/><path d="M1079.5,591.3281 L1141.5,591.3281 L1141.5,599.3281 L1131.5,609.3281 L1079.5,609.3281 L1079.5,591.3281 " fill="#EEEEEE" style="stroke:#000000;stroke-width:2.0;"/><text fill="#000000" font-family="sans-serif" font-size="13" font-weight="bold" lengthAdjust="spacing" textLength="17" x="1092.5" y="606.8232">ref</text><text fill="#000000" font-family="sans-serif" font-size="12" lengthAdjust="spacing" textLength="110" x="1111" y="625.7852">Create Maintenance</text><polygon fill="#181818" points="627.5,656.125,617.5,660.125,627.5,664.125,623.5,660.125" style="stroke:#181818;stroke-width:1.0;"/><line style="stroke:#181818;stroke-width:1.0;stroke-dasharray:2.0,2.0;" x1="621.5" x2="1165" y1="660.125" y2="660.125"/><text fill="#000000" font-family="sans-serif" font-size="13" font-weight="bold" lengthAdjust="spacing" textLength="14" x="633.5" y="655.2686">15</text><text fill="#000000" font-family="sans-serif" font-size="13" lengthAdjust="spacing" textLength="74" x="651.5" y="655.2686">maintenance</text><polygon fill="#181818" points="398.5,686.4766,388.5,690.4766,398.5,694.4766,394.5,690.4766" style="stroke:#181818;stroke-width:1.0;"/><line style="stroke:#181818;stroke-width:1.0;stroke-dasharray:2.0,2.0;" x1="392.5" x2="610.5" y1="690.4766" y2="690.4766"/><text fill="#000000" font-family="sans-serif" font-size="13" font-weight="bold" lengthAdjust="spacing" textLength="14" x="404.5" y="685.6201">16</text><text fill="#000000" font-family="sans-serif" font-size="13" lengthAdjust="spacing" textLength="74" x="422.5" y="685.6201">maintenance</text><polygon fill="#181818" points="38.5,716.8281,28.5,720.8281,38.5,724.8281,34.5,720.8281" style="stroke:#181818;stroke-width:1.0;"/><line style="stroke:#181818;stroke-width:1.0;stroke-dasharray:2.0,2.0;" x1="32.5" x2="381.5" y1="720.8281" y2="720.8281"/><text fill="#000000" font-family="sans-serif" font-size="13" font-weight="bold" lengthAdjust="spacing" textLength="14" x="44.5" y="715.9717">17</text><text fill="#000000" font-family="sans-serif" font-size="13" lengthAdjust="spacing" textLength="308" x="62.5" y="715.9717">displays maintenance data and requests confirmation</text><polygon fill="#181818" points="365.5,747.1797,375.5,751.1797,365.5,755.1797,369.5,751.1797" style="stroke:#181818;stroke-width:1.0;"/><line style="stroke:#181818;stroke-width:1.0;" x1="27.5" x2="371.5" y1="751.1797" y2="751.1797"/><text fill="#000000" font-family="sans-serif" font-size="13" font-weight="bold" lengthAdjust="spacing" textLength="14" x="34.5" y="746.3232">18</text><text fill="#000000" font-family="sans-serif" font-size="13" lengthAdjust="spacing" textLength="78" x="52.5" y="746.3232">confirms data</text><polygon fill="#181818" points="594.5,777.5313,604.5,781.5313,594.5,785.5313,598.5,781.5313" style="stroke:#181818;stroke-width:1.0;"/><line style="stroke:#181818;stroke-width:1.0;" x1="387.5" x2="600.5" y1="781.5313" y2="781.5313"/><text fill="#000000" font-family="sans-serif" font-size="13" font-weight="bold" lengthAdjust="spacing" textLength="14" x="394.5" y="776.6748">19</text><text fill="#000000" font-family="sans-serif" font-size="13" lengthAdjust="spacing" textLength="70" x="412.5" y="776.6748">confirmation</text><polygon fill="#181818" points="398.5,807.8828,388.5,811.8828,398.5,815.8828,394.5,811.8828" style="stroke:#181818;stroke-width:1.0;"/><line style="stroke:#181818;stroke-width:1.0;stroke-dasharray:2.0,2.0;" x1="392.5" x2="610.5" y1="811.8828" y2="811.8828"/><text fill="#000000" font-family="sans-serif" font-size="13" font-weight="bold" lengthAdjust="spacing" textLength="14" x="404.5" y="807.0264">20</text><text fill="#000000" font-family="sans-serif" font-size="13" lengthAdjust="spacing" textLength="106" x="422.5" y="807.0264">operation success</text><polygon fill="#181818" points="33.5,838.2344,23.5,842.2344,33.5,846.2344,29.5,842.2344" style="stroke:#181818;stroke-width:1.0;"/><line style="stroke:#181818;stroke-width:1.0;stroke-dasharray:2.0,2.0;" x1="27.5" x2="381.5" y1="842.2344" y2="842.2344"/><text fill="#000000" font-family="sans-serif" font-size="13" font-weight="bold" lengthAdjust="spacing" textLength="14" x="39.5" y="837.3779">21</text><text fill="#000000" font-family="sans-serif" font-size="13" lengthAdjust="spacing" textLength="158" x="57.5" y="837.3779">displays operation success</text><!--SRC=[fPNDRjim3CVlUWeYbwN5yW8v51WAR2YM04E_JhseCkC8jILFahFbxKVBYMB97tKx7HA38dyc_n9f-oPLnGqleTHAYxtH9O8pDJ8RTYektdYE3-vO81WKZgkyw3hOFS_q7wbosF728cEyTbhLvIiQnhxiPOQmqzgzwh-C2wSDB9w_RnV0BT0_8uQJGbPSELYixp6Nrg7PSgaSAgu4FjrvtwUxzrrljN965mKQ7tBxUB_f1LNQIaf2elK-mN1ya4rTb7aSOZeHBweF-BNvzXX7770lHO4Nylf5FQUsjlxK6eFAIsKHR3jazy317SOQtUM1E_IACw153x2w8LLXJOVwkqRhB3WD1MaAfmeiACIiETXE9ZuwyEXKlA5Pn29Y8_hrDL65GV8OsgRD7DsfUBkXDowlWbj0-zCBPhyCxa0VqBHxaAmVwCwAGWDDWb5b3I2s-dHMPo5ETVlWhbU64rarTH6W4NGDcRHLmO_sZ88fLbUyz4p4NckBWHFvZG8YYISZ-sN4IeGhaN77b_I3Nq7KnY3Tov_brIVLYQWm6pkkaZjME8ysJxCFaSOqlF4peRtaWmsv707wKH9jUT3gajzmVyzHxPpQ8C4VJJjDUwtUot9angJT67hr_Pn3ZdvYT0DwRjJ4gMsueevevJYlerQQIzGEdq8C3uOEghrktC-bKsC8hNRIbDn9-WxDVbCqE5f2snMfusWNf8qmbSVKX4w5qnKQ3m5R2u7M_gzy7m6ERxNVmNy0]--></g></svg>