<?xml version="1.0" encoding="UTF-8" standalone="no"?><svg xmlns="http://www.w3.org/2000/svg" xmlns:xlink="http://www.w3.org/1999/xlink" contentStyleType="text/css" height="468px" preserveAspectRatio="none" style="width:675px;height:468px;background:#FFFFFF;" version="1.1" viewBox="0 0 675 468" width="675px" zoomAndPan="magnify"><defs/><g><rect fill="#FFFFFF" height="309.0703" style="stroke:#181818;stroke-width:1.0;" width="10" x="158" y="87.5703"/><rect fill="#FFFFFF" height="206.0156" style="stroke:#181818;stroke-width:1.0;" width="10" x="395.5" y="153.2734"/><rect fill="#FFFFFF" height="128.0547" style="stroke:#181818;stroke-width:1.0;" width="10" x="400.5" y="193.8828"/><rect fill="#FFFFFF" height="41.3516" style="stroke:#181818;stroke-width:1.0;" width="10" x="405.5" y="237.2344"/><rect fill="none" height="264.7188" style="stroke:#000000;stroke-width:1.5;" width="600" x="69.5" y="102.5703"/><line style="stroke:#181818;stroke-width:0.5;stroke-dasharray:5.0,5.0;" x1="162.5" x2="162.5" y1="55.2188" y2="414.6406"/><line style="stroke:#181818;stroke-width:0.5;stroke-dasharray:5.0,5.0;" x1="400" x2="400" y1="152.2266" y2="414.6406"/><rect fill="#E3E3E3" height="49.2188" rx="2.5" ry="2.5" style="stroke:#181818;stroke-width:0.5;" width="167" x="79.5" y="5"/><text fill="#000000" font-family="sans-serif" font-size="14" lengthAdjust="spacing" textLength="153" x="86.5" y="26.5332">maintenanceRepository:</text><text fill="#000000" font-family="sans-serif" font-size="14" lengthAdjust="spacing" textLength="149" x="88.5" y="44.1426">MaintenanceRepository</text><rect fill="#E3E3E3" height="49.2188" rx="2.5" ry="2.5" style="stroke:#181818;stroke-width:0.5;" width="167" x="79.5" y="413.6406"/><text fill="#000000" font-family="sans-serif" font-size="14" lengthAdjust="spacing" textLength="153" x="86.5" y="435.1738">maintenanceRepository:</text><text fill="#000000" font-family="sans-serif" font-size="14" lengthAdjust="spacing" textLength="149" x="88.5" y="452.7832">MaintenanceRepository</text><rect fill="#E3E3E3" height="31.6094" rx="2.5" ry="2.5" style="stroke:#181818;stroke-width:0.5;" width="99" x="351" y="413.6406"/><text fill="#000000" font-family="sans-serif" font-size="14" lengthAdjust="spacing" textLength="85" x="358" y="435.1738">:Maintenance</text><rect fill="#FFFFFF" height="309.0703" style="stroke:#181818;stroke-width:1.0;" width="10" x="158" y="87.5703"/><rect fill="#FFFFFF" height="206.0156" style="stroke:#181818;stroke-width:1.0;" width="10" x="395.5" y="153.2734"/><rect fill="#FFFFFF" height="128.0547" style="stroke:#181818;stroke-width:1.0;" width="10" x="400.5" y="193.8828"/><rect fill="#FFFFFF" height="41.3516" style="stroke:#181818;stroke-width:1.0;" width="10" x="405.5" y="237.2344"/><polygon fill="#181818" points="146,83.5703,156,87.5703,146,91.5703,150,87.5703" style="stroke:#181818;stroke-width:1.0;"/><line style="stroke:#181818;stroke-width:1.0;" x1="0" x2="152" y1="87.5703" y2="87.5703"/><text fill="#000000" font-family="sans-serif" font-size="13" font-weight="bold" lengthAdjust="spacing" textLength="14" x="7" y="82.7139">20</text><text fill="#000000" font-family="sans-serif" font-size="13" lengthAdjust="spacing" textLength="121" x="25" y="82.7139">register maintenance</text><path d="M69.5,102.5703 L253.5,102.5703 L253.5,110.9219 L243.5,120.9219 L69.5,120.9219 L69.5,102.5703 " fill="#EEEEEE" style="stroke:#000000;stroke-width:1.5;"/><rect fill="none" height="264.7188" style="stroke:#000000;stroke-width:1.5;" width="600" x="69.5" y="102.5703"/><text fill="#000000" font-family="sans-serif" font-size="13" font-weight="bold" lengthAdjust="spacing" textLength="139" x="84.5" y="117.0654">Register maintenance</text><polygon fill="#181818" points="339,139.2734,349,143.2734,339,147.2734,343,143.2734" style="stroke:#181818;stroke-width:1.0;"/><line style="stroke:#181818;stroke-width:1.0;" x1="168" x2="345" y1="143.2734" y2="143.2734"/><text fill="#000000" font-family="sans-serif" font-size="13" font-weight="bold" lengthAdjust="spacing" textLength="14" x="175" y="138.417">21</text><text fill="#000000" font-family="sans-serif" font-size="13" lengthAdjust="spacing" textLength="141" x="193" y="138.417">create(date, current Km)</text><rect fill="#E3E3E3" height="31.6094" rx="2.5" ry="2.5" style="stroke:#181818;stroke-width:0.5;" width="99" x="351" y="120.9219"/><text fill="#000000" font-family="sans-serif" font-size="14" lengthAdjust="spacing" textLength="85" x="358" y="142.4551">:Maintenance</text><line style="stroke:#181818;stroke-width:1.0;" x1="405.5" x2="452.5" y1="180.8828" y2="180.8828"/><line style="stroke:#181818;stroke-width:1.0;" x1="452.5" x2="452.5" y1="180.8828" y2="193.8828"/><line style="stroke:#181818;stroke-width:1.0;" x1="411.5" x2="452.5" y1="193.8828" y2="193.8828"/><polygon fill="#181818" points="421.5,189.8828,411.5,193.8828,421.5,197.8828,417.5,193.8828" style="stroke:#181818;stroke-width:1.0;"/><text fill="#000000" font-family="sans-serif" font-size="13" font-weight="bold" lengthAdjust="spacing" textLength="14" x="417.5" y="176.0264">22</text><text fill="#000000" font-family="sans-serif" font-size="13" lengthAdjust="spacing" textLength="142" x="435.5" y="176.0264">verifyFilled(maintenance)</text><line style="stroke:#181818;stroke-width:1.0;" x1="410.5" x2="457.5" y1="224.2344" y2="224.2344"/><line style="stroke:#181818;stroke-width:1.0;" x1="457.5" x2="457.5" y1="224.2344" y2="237.2344"/><line style="stroke:#181818;stroke-width:1.0;" x1="416.5" x2="457.5" y1="237.2344" y2="237.2344"/><polygon fill="#181818" points="426.5,233.2344,416.5,237.2344,426.5,241.2344,422.5,237.2344" style="stroke:#181818;stroke-width:1.0;"/><text fill="#000000" font-family="sans-serif" font-size="13" font-weight="bold" lengthAdjust="spacing" textLength="14" x="422.5" y="219.3779">23</text><text fill="#000000" font-family="sans-serif" font-size="13" lengthAdjust="spacing" textLength="217" x="440.5" y="219.3779">verifySpecialCharacters(maintenance)</text><line style="stroke:#181818;stroke-width:1.0;stroke-dasharray:2.0,2.0;" x1="415.5" x2="457.5" y1="277.5859" y2="277.5859"/><line style="stroke:#181818;stroke-width:1.0;stroke-dasharray:2.0,2.0;" x1="457.5" x2="457.5" y1="277.5859" y2="290.5859"/><line style="stroke:#181818;stroke-width:1.0;stroke-dasharray:2.0,2.0;" x1="410.5" x2="457.5" y1="290.5859" y2="290.5859"/><polygon fill="#181818" points="420.5,286.5859,410.5,290.5859,420.5,294.5859,416.5,290.5859" style="stroke:#181818;stroke-width:1.0;"/><text fill="#000000" font-family="sans-serif" font-size="13" font-weight="bold" lengthAdjust="spacing" textLength="14" x="422.5" y="272.7295">24</text><text fill="#000000" font-family="sans-serif" font-size="13" lengthAdjust="spacing" textLength="4" x="440.5" y="272.7295"> </text><line style="stroke:#181818;stroke-width:1.0;stroke-dasharray:2.0,2.0;" x1="410.5" x2="452.5" y1="320.9375" y2="320.9375"/><line style="stroke:#181818;stroke-width:1.0;stroke-dasharray:2.0,2.0;" x1="452.5" x2="452.5" y1="320.9375" y2="333.9375"/><line style="stroke:#181818;stroke-width:1.0;stroke-dasharray:2.0,2.0;" x1="405.5" x2="452.5" y1="333.9375" y2="333.9375"/><polygon fill="#181818" points="415.5,329.9375,405.5,333.9375,415.5,337.9375,411.5,333.9375" style="stroke:#181818;stroke-width:1.0;"/><text fill="#000000" font-family="sans-serif" font-size="13" font-weight="bold" lengthAdjust="spacing" textLength="14" x="417.5" y="316.0811">25</text><text fill="#000000" font-family="sans-serif" font-size="13" lengthAdjust="spacing" textLength="4" x="435.5" y="316.0811"> </text><polygon fill="#181818" points="179,355.2891,169,359.2891,179,363.2891,175,359.2891" style="stroke:#181818;stroke-width:1.0;"/><line style="stroke:#181818;stroke-width:1.0;stroke-dasharray:2.0,2.0;" x1="173" x2="399.5" y1="359.2891" y2="359.2891"/><text fill="#000000" font-family="sans-serif" font-size="13" font-weight="bold" lengthAdjust="spacing" textLength="14" x="185" y="354.4326">26</text><text fill="#000000" font-family="sans-serif" font-size="13" lengthAdjust="spacing" textLength="74" x="203" y="354.4326">maintenance</text><polygon fill="#181818" points="11,392.6406,1,396.6406,11,400.6406,7,396.6406" style="stroke:#181818;stroke-width:1.0;"/><line style="stroke:#181818;stroke-width:1.0;stroke-dasharray:2.0,2.0;" x1="5" x2="162" y1="396.6406" y2="396.6406"/><text fill="#000000" font-family="sans-serif" font-size="13" font-weight="bold" lengthAdjust="spacing" textLength="14" x="17" y="391.7842">27</text><text fill="#000000" font-family="sans-serif" font-size="13" lengthAdjust="spacing" textLength="74" x="35" y="391.7842">maintenance</text><!--SRC=[pPC_QyCm4CLtVOeZKn9gA1rDwLBe4heaQvUhTB6Fw1-IdE9lNqt5ScMdK2ZLe47tzDxln2bUs7eCQC0uwsGVd258OI0HloeUvGKxEgLH4mII2MsdfuBOet8VR3iueuua10x9sS6yKu27Uo6oAh5aZpR1nY3RH1Qjf2Dv5pcvCBPlzhLslW6CKAsKfkr4CxyZX6YUwYRGvduwZYc3JhW4bAiBRl1mlAL4cVYAYHQ02sqTf-JSxpEV39GjjoflTo2742ZtUp2xcybYtWKivCzIS-QL0f_75zQQr7RIxMxLiWhnIuQJ9yced_iyPpA_VVmhd99dzPwY_nQrOb_C_ih8BoJDPMJLj_J7flbHOZrYyc4-0G00]--></g></svg>