<?xml version="1.0" encoding="UTF-8" standalone="no"?><svg xmlns="http://www.w3.org/2000/svg" xmlns:xlink="http://www.w3.org/1999/xlink" contentStyleType="text/css" height="573px" preserveAspectRatio="none" style="width:605px;height:573px;background:#FFFFFF;" version="1.1" viewBox="0 0 605 573" width="605px" zoomAndPan="magnify"><defs/><g><!--class FleetManager--><g id="elem_FleetManager"><rect codeLine="9" fill="#F1F1F1" height="48" id="FleetManager" rx="2.5" ry="2.5" style="stroke:#181818;stroke-width:0.5;" width="120" x="450" y="518"/><ellipse cx="465" cy="534" fill="#ADD1B2" rx="11" ry="11" style="stroke:#181818;stroke-width:1.0;"/><path d="M467.7656,529.875 Q467.9219,529.6563 468.1094,529.5469 Q468.2969,529.4375 468.5156,529.4375 Q468.8906,529.4375 469.125,529.7031 Q469.3594,529.9531 469.3594,530.5625 L469.3594,532.0156 Q469.3594,532.625 469.125,532.8906 Q468.8906,533.1563 468.5156,533.1563 Q468.1719,533.1563 467.9688,532.9531 Q467.7656,532.7656 467.6563,532.25 Q467.6094,531.8906 467.4219,531.7031 Q467.0938,531.3281 466.4844,531.1094 Q465.875,530.8906 465.25,530.8906 Q464.4844,530.8906 463.8438,531.2188 Q463.2188,531.5469 462.7188,532.2969 Q462.2344,533.0469 462.2344,534.0781 L462.2344,535.1719 Q462.2344,536.4063 463.125,537.2344 Q464.0156,538.0469 465.6094,538.0469 Q466.5469,538.0469 467.2031,537.7969 Q467.5938,537.6406 468.0156,537.2031 Q468.2813,536.9375 468.4219,536.8594 Q468.5781,536.7813 468.7813,536.7813 Q469.1094,536.7813 469.3594,537.0469 Q469.625,537.2969 469.625,537.6406 Q469.625,537.9844 469.2813,538.3906 Q468.7813,538.9688 467.9844,539.2969 Q466.9063,539.75 465.6094,539.75 Q464.0938,539.75 462.8906,539.125 Q461.9063,538.625 461.2188,537.5625 Q460.5313,536.4844 460.5313,535.2031 L460.5313,534.0469 Q460.5313,532.7188 461.1406,531.5781 Q461.7656,530.4219 462.8594,529.8125 Q463.9531,529.1875 465.1875,529.1875 Q465.9219,529.1875 466.5625,529.3594 Q467.2188,529.5156 467.7656,529.875 Z " fill="#000000"/><text fill="#000000" font-family="sans-serif" font-size="14" lengthAdjust="spacing" textLength="88" x="479" y="539.7285">FleetManager</text><line style="stroke:#181818;stroke-width:0.5;" x1="451" x2="569" y1="550" y2="550"/><line style="stroke:#181818;stroke-width:0.5;" x1="451" x2="569" y1="558" y2="558"/></g><!--class VehicleCheckup--><g id="elem_VehicleCheckup"><rect codeLine="12" fill="#F1F1F1" height="100.8281" id="VehicleCheckup" rx="2.5" ry="2.5" style="stroke:#181818;stroke-width:0.5;" width="145" x="437.5" y="339"/><ellipse cx="457.45" cy="355" fill="#ADD1B2" rx="11" ry="11" style="stroke:#181818;stroke-width:1.0;"/><path d="M460.2156,350.875 Q460.3719,350.6563 460.5594,350.5469 Q460.7469,350.4375 460.9656,350.4375 Q461.3406,350.4375 461.575,350.7031 Q461.8094,350.9531 461.8094,351.5625 L461.8094,353.0156 Q461.8094,353.625 461.575,353.8906 Q461.3406,354.1563 460.9656,354.1563 Q460.6219,354.1563 460.4188,353.9531 Q460.2156,353.7656 460.1063,353.25 Q460.0594,352.8906 459.8719,352.7031 Q459.5438,352.3281 458.9344,352.1094 Q458.325,351.8906 457.7,351.8906 Q456.9344,351.8906 456.2938,352.2188 Q455.6688,352.5469 455.1688,353.2969 Q454.6844,354.0469 454.6844,355.0781 L454.6844,356.1719 Q454.6844,357.4063 455.575,358.2344 Q456.4656,359.0469 458.0594,359.0469 Q458.9969,359.0469 459.6531,358.7969 Q460.0438,358.6406 460.4656,358.2031 Q460.7313,357.9375 460.8719,357.8594 Q461.0281,357.7813 461.2313,357.7813 Q461.5594,357.7813 461.8094,358.0469 Q462.075,358.2969 462.075,358.6406 Q462.075,358.9844 461.7313,359.3906 Q461.2313,359.9688 460.4344,360.2969 Q459.3563,360.75 458.0594,360.75 Q456.5438,360.75 455.3406,360.125 Q454.3563,359.625 453.6688,358.5625 Q452.9813,357.4844 452.9813,356.2031 L452.9813,355.0469 Q452.9813,353.7188 453.5906,352.5781 Q454.2156,351.4219 455.3094,350.8125 Q456.4031,350.1875 457.6375,350.1875 Q458.3719,350.1875 459.0125,350.3594 Q459.6688,350.5156 460.2156,350.875 Z " fill="#000000"/><text fill="#000000" font-family="sans-serif" font-size="14" lengthAdjust="spacing" textLength="102" x="472.55" y="360.7285">VehicleCheckup</text><line style="stroke:#181818;stroke-width:0.5;" x1="438.5" x2="581.5" y1="371" y2="371"/><text fill="#000000" font-family="sans-serif" font-size="14" lengthAdjust="spacing" textLength="126" x="443.5" y="389.5332">-String plateNumber</text><text fill="#000000" font-family="sans-serif" font-size="14" lengthAdjust="spacing" textLength="74" x="443.5" y="407.1426">-String date</text><text fill="#000000" font-family="sans-serif" font-size="14" lengthAdjust="spacing" textLength="133" x="443.5" y="424.752">-String kmAtCheckup</text><line style="stroke:#181818;stroke-width:0.5;" x1="438.5" x2="581.5" y1="431.8281" y2="431.8281"/></g><!--class MaintenenceRepository--><g id="elem_MaintenenceRepository"><rect codeLine="19" fill="#F1F1F1" height="65.6094" id="MaintenenceRepository" rx="2.5" ry="2.5" style="stroke:#181818;stroke-width:0.5;" width="391" x="11.5" y="356.5"/><ellipse cx="128.25" cy="372.5" fill="#ADD1B2" rx="11" ry="11" style="stroke:#181818;stroke-width:1.0;"/><path d="M131.0156,368.375 Q131.1719,368.1563 131.3594,368.0469 Q131.5469,367.9375 131.7656,367.9375 Q132.1406,367.9375 132.375,368.2031 Q132.6094,368.4531 132.6094,369.0625 L132.6094,370.5156 Q132.6094,371.125 132.375,371.3906 Q132.1406,371.6563 131.7656,371.6563 Q131.4219,371.6563 131.2188,371.4531 Q131.0156,371.2656 130.9063,370.75 Q130.8594,370.3906 130.6719,370.2031 Q130.3438,369.8281 129.7344,369.6094 Q129.125,369.3906 128.5,369.3906 Q127.7344,369.3906 127.0938,369.7188 Q126.4688,370.0469 125.9688,370.7969 Q125.4844,371.5469 125.4844,372.5781 L125.4844,373.6719 Q125.4844,374.9063 126.375,375.7344 Q127.2656,376.5469 128.8594,376.5469 Q129.7969,376.5469 130.4531,376.2969 Q130.8438,376.1406 131.2656,375.7031 Q131.5313,375.4375 131.6719,375.3594 Q131.8281,375.2813 132.0313,375.2813 Q132.3594,375.2813 132.6094,375.5469 Q132.875,375.7969 132.875,376.1406 Q132.875,376.4844 132.5313,376.8906 Q132.0313,377.4688 131.2344,377.7969 Q130.1563,378.25 128.8594,378.25 Q127.3438,378.25 126.1406,377.625 Q125.1563,377.125 124.4688,376.0625 Q123.7813,374.9844 123.7813,373.7031 L123.7813,372.5469 Q123.7813,371.2188 124.3906,370.0781 Q125.0156,368.9219 126.1094,368.3125 Q127.2031,367.6875 128.4375,367.6875 Q129.1719,367.6875 129.8125,367.8594 Q130.4688,368.0156 131.0156,368.375 Z " fill="#000000"/><text fill="#000000" font-family="sans-serif" font-size="14" lengthAdjust="spacing" textLength="149" x="148.75" y="378.2285">MaintenenceRepository</text><line style="stroke:#181818;stroke-width:0.5;" x1="12.5" x2="401.5" y1="388.5" y2="388.5"/><line style="stroke:#181818;stroke-width:0.5;" x1="12.5" x2="401.5" y1="396.5" y2="396.5"/><text fill="#000000" font-family="sans-serif" font-size="14" lengthAdjust="spacing" textLength="379" x="17.5" y="415.0332">+registerVehicleCheckup(plateNumber, date, kmAtCheckup)</text></g><!--class Repositories--><g id="elem_Repositories"><rect codeLine="23" fill="#F1F1F1" height="100.8281" id="Repositories" rx="2.5" ry="2.5" style="stroke:#181818;stroke-width:0.5;" width="199" x="107.5" y="208"/><ellipse cx="163.25" cy="224" fill="#ADD1B2" rx="11" ry="11" style="stroke:#181818;stroke-width:1.0;"/><path d="M166.0156,219.875 Q166.1719,219.6563 166.3594,219.5469 Q166.5469,219.4375 166.7656,219.4375 Q167.1406,219.4375 167.375,219.7031 Q167.6094,219.9531 167.6094,220.5625 L167.6094,222.0156 Q167.6094,222.625 167.375,222.8906 Q167.1406,223.1563 166.7656,223.1563 Q166.4219,223.1563 166.2188,222.9531 Q166.0156,222.7656 165.9063,222.25 Q165.8594,221.8906 165.6719,221.7031 Q165.3438,221.3281 164.7344,221.1094 Q164.125,220.8906 163.5,220.8906 Q162.7344,220.8906 162.0938,221.2188 Q161.4688,221.5469 160.9688,222.2969 Q160.4844,223.0469 160.4844,224.0781 L160.4844,225.1719 Q160.4844,226.4063 161.375,227.2344 Q162.2656,228.0469 163.8594,228.0469 Q164.7969,228.0469 165.4531,227.7969 Q165.8438,227.6406 166.2656,227.2031 Q166.5313,226.9375 166.6719,226.8594 Q166.8281,226.7813 167.0313,226.7813 Q167.3594,226.7813 167.6094,227.0469 Q167.875,227.2969 167.875,227.6406 Q167.875,227.9844 167.5313,228.3906 Q167.0313,228.9688 166.2344,229.2969 Q165.1563,229.75 163.8594,229.75 Q162.3438,229.75 161.1406,229.125 Q160.1563,228.625 159.4688,227.5625 Q158.7813,226.4844 158.7813,225.2031 L158.7813,224.0469 Q158.7813,222.7188 159.3906,221.5781 Q160.0156,220.4219 161.1094,219.8125 Q162.2031,219.1875 163.4375,219.1875 Q164.1719,219.1875 164.8125,219.3594 Q165.4688,219.5156 166.0156,219.875 Z " fill="#000000"/><text fill="#000000" font-family="sans-serif" font-size="14" lengthAdjust="spacing" textLength="79" x="183.75" y="229.7285">Repositories</text><line style="stroke:#181818;stroke-width:0.5;" x1="108.5" x2="305.5" y1="240" y2="240"/><line style="stroke:#181818;stroke-width:0.5;" x1="108.5" x2="305.5" y1="248" y2="248"/><text fill="#000000" font-family="sans-serif" font-size="14" lengthAdjust="spacing" textLength="94" x="113.5" y="266.5332">-Repositories()</text><text fill="#000000" font-family="sans-serif" font-size="14" lengthAdjust="spacing" textLength="182" x="113.5" y="284.1426">+getInstance() : Repositories</text><text fill="#000000" font-family="sans-serif" font-size="14" lengthAdjust="spacing" textLength="187" x="113.5" y="301.752">+getMaintenenceRepository()</text></g><!--class RegisterMaintenenceController--><g id="elem_RegisterMaintenenceController"><rect codeLine="29" fill="#F1F1F1" height="171.2656" id="RegisterMaintenenceController" rx="2.5" ry="2.5" style="stroke:#181818;stroke-width:0.5;" width="378" x="220" y="7"/><ellipse cx="306.75" cy="23" fill="#ADD1B2" rx="11" ry="11" style="stroke:#181818;stroke-width:1.0;"/><path d="M309.5156,18.875 Q309.6719,18.6563 309.8594,18.5469 Q310.0469,18.4375 310.2656,18.4375 Q310.6406,18.4375 310.875,18.7031 Q311.1094,18.9531 311.1094,19.5625 L311.1094,21.0156 Q311.1094,21.625 310.875,21.8906 Q310.6406,22.1563 310.2656,22.1563 Q309.9219,22.1563 309.7188,21.9531 Q309.5156,21.7656 309.4063,21.25 Q309.3594,20.8906 309.1719,20.7031 Q308.8438,20.3281 308.2344,20.1094 Q307.625,19.8906 307,19.8906 Q306.2344,19.8906 305.5938,20.2188 Q304.9688,20.5469 304.4688,21.2969 Q303.9844,22.0469 303.9844,23.0781 L303.9844,24.1719 Q303.9844,25.4063 304.875,26.2344 Q305.7656,27.0469 307.3594,27.0469 Q308.2969,27.0469 308.9531,26.7969 Q309.3438,26.6406 309.7656,26.2031 Q310.0313,25.9375 310.1719,25.8594 Q310.3281,25.7813 310.5313,25.7813 Q310.8594,25.7813 311.1094,26.0469 Q311.375,26.2969 311.375,26.6406 Q311.375,26.9844 311.0313,27.3906 Q310.5313,27.9688 309.7344,28.2969 Q308.6563,28.75 307.3594,28.75 Q305.8438,28.75 304.6406,28.125 Q303.6563,27.625 302.9688,26.5625 Q302.2813,25.4844 302.2813,24.2031 L302.2813,23.0469 Q302.2813,21.7188 302.8906,20.5781 Q303.5156,19.4219 304.6094,18.8125 Q305.7031,18.1875 306.9375,18.1875 Q307.6719,18.1875 308.3125,18.3594 Q308.9688,18.5156 309.5156,18.875 Z " fill="#000000"/><text fill="#000000" font-family="sans-serif" font-size="14" lengthAdjust="spacing" textLength="196" x="327.25" y="28.7285">RegisterMaintenenceController</text><line style="stroke:#181818;stroke-width:0.5;" x1="221" x2="597" y1="39" y2="39"/><line style="stroke:#181818;stroke-width:0.5;" x1="221" x2="597" y1="47" y2="47"/><text fill="#000000" font-family="sans-serif" font-size="14" lengthAdjust="spacing" textLength="214" x="226" y="65.5332">+RegisterMaintenenceController()</text><text fill="#000000" font-family="sans-serif" font-size="14" lengthAdjust="spacing" textLength="187" x="226" y="83.1426">+getMaintenenceRepository()</text><text fill="#000000" font-family="sans-serif" font-size="14" lengthAdjust="spacing" textLength="296" x="226" y="100.752">+createTask(userEmail, reference, description,</text><text fill="#000000" font-family="sans-serif" font-size="14" lengthAdjust="spacing" textLength="260" x="226" y="118.3613">informalDescription, technicalDescription,</text><text fill="#000000" font-family="sans-serif" font-size="14" lengthAdjust="spacing" textLength="225" x="226" y="135.9707">duration, cost, categoryDescription)</text><text fill="#000000" font-family="sans-serif" font-size="14" lengthAdjust="spacing" textLength="366" x="226" y="153.5801">-getTaskCategoryByDescription(taskCategoryDescription)</text><text fill="#000000" font-family="sans-serif" font-size="14" lengthAdjust="spacing" textLength="180" x="226" y="171.1895">-getEmployeeFromSession()</text></g><!--class RegisterMaintenenceUI--><g id="elem_RegisterMaintenenceUI"><rect codeLine="37" fill="#F1F1F1" height="48" id="RegisterMaintenenceUI" rx="2.5" ry="2.5" style="stroke:#181818;stroke-width:0.5;" width="178" x="7" y="68.5"/><ellipse cx="22" cy="84.5" fill="#ADD1B2" rx="11" ry="11" style="stroke:#181818;stroke-width:1.0;"/><path d="M24.7656,80.375 Q24.9219,80.1563 25.1094,80.0469 Q25.2969,79.9375 25.5156,79.9375 Q25.8906,79.9375 26.125,80.2031 Q26.3594,80.4531 26.3594,81.0625 L26.3594,82.5156 Q26.3594,83.125 26.125,83.3906 Q25.8906,83.6563 25.5156,83.6563 Q25.1719,83.6563 24.9688,83.4531 Q24.7656,83.2656 24.6563,82.75 Q24.6094,82.3906 24.4219,82.2031 Q24.0938,81.8281 23.4844,81.6094 Q22.875,81.3906 22.25,81.3906 Q21.4844,81.3906 20.8438,81.7188 Q20.2188,82.0469 19.7188,82.7969 Q19.2344,83.5469 19.2344,84.5781 L19.2344,85.6719 Q19.2344,86.9063 20.125,87.7344 Q21.0156,88.5469 22.6094,88.5469 Q23.5469,88.5469 24.2031,88.2969 Q24.5938,88.1406 25.0156,87.7031 Q25.2813,87.4375 25.4219,87.3594 Q25.5781,87.2813 25.7813,87.2813 Q26.1094,87.2813 26.3594,87.5469 Q26.625,87.7969 26.625,88.1406 Q26.625,88.4844 26.2813,88.8906 Q25.7813,89.4688 24.9844,89.7969 Q23.9063,90.25 22.6094,90.25 Q21.0938,90.25 19.8906,89.625 Q18.9063,89.125 18.2188,88.0625 Q17.5313,86.9844 17.5313,85.7031 L17.5313,84.5469 Q17.5313,83.2188 18.1406,82.0781 Q18.7656,80.9219 19.8594,80.3125 Q20.9531,79.6875 22.1875,79.6875 Q22.9219,79.6875 23.5625,79.8594 Q24.2188,80.0156 24.7656,80.375 Z " fill="#000000"/><text fill="#000000" font-family="sans-serif" font-size="14" lengthAdjust="spacing" textLength="146" x="36" y="90.2285">RegisterMaintenenceUI</text><line style="stroke:#181818;stroke-width:0.5;" x1="8" x2="184" y1="100.5" y2="100.5"/><line style="stroke:#181818;stroke-width:0.5;" x1="8" x2="184" y1="108.5" y2="108.5"/></g><!--link Repositories to Repositories--><g id="link_Repositories_Repositories"><path codeLine="40" d="M306.71,235.05 C326.98,237.61 341.5,245.42 341.5,258.5 C341.5,270.45 329.37,278.01 311.81,281.17 " fill="none" id="Repositories-to-Repositories" style="stroke:#181818;stroke-width:1.0;"/><polygon fill="#181818" points="306.71,281.95,316.2119,284.5412,311.6524,281.1929,315.0006,276.6334,306.71,281.95" style="stroke:#181818;stroke-width:1.0;"/><text fill="#000000" font-family="sans-serif" font-size="13" lengthAdjust="spacing" textLength="49" x="347.5" y="263.9951">instance</text></g><!--link RegisterMaintenenceUI to RegisterMaintenenceController--><g id="link_RegisterMaintenenceUI_RegisterMaintenenceController"><path codeLine="42" d="M185.38,92.5 C194.41,92.5 200.33,92.5 200.33,92.5 C200.33,92.5 206.05,92.5 214.8,92.5 " fill="none" id="RegisterMaintenenceUI-to-RegisterMaintenenceController" style="stroke:#181818;stroke-width:1.0;stroke-dasharray:7.0,7.0;"/><polygon fill="#181818" points="219.96,92.5,210.96,88.5,214.96,92.5,210.96,96.5,219.96,92.5" style="stroke:#181818;stroke-width:1.0;"/></g><!--link RegisterMaintenenceController to Repositories--><g id="link_RegisterMaintenenceController_Repositories"><path codeLine="44" d="M304.75,178.14 C293.67,187.13 282.66,196.08 272.22,204.55 " fill="none" id="RegisterMaintenenceController-to-Repositories" style="stroke:#181818;stroke-width:1.0;stroke-dasharray:7.0,7.0;"/><polygon fill="#181818" points="268.1,207.9,277.6085,205.3331,271.9819,204.7487,272.5663,199.1221,268.1,207.9" style="stroke:#181818;stroke-width:1.0;"/></g><!--link RegisterMaintenenceController to MaintenenceRepository--><g id="link_RegisterMaintenenceController_MaintenenceRepository"><path codeLine="46" d="M400.37,178.05 C394.2,238.43 387,309 387,309 C387,309 333.18,332.77 284.4,354.32 " fill="none" id="RegisterMaintenenceController-to-MaintenenceRepository" style="stroke:#181818;stroke-width:1.0;stroke-dasharray:7.0,7.0;"/><polygon fill="#181818" points="279.69,356.39,289.5388,356.4215,284.2655,354.3739,286.3131,349.1006,279.69,356.39" style="stroke:#181818;stroke-width:1.0;"/></g><!--link Repositories to MaintenenceRepository--><g id="link_Repositories_MaintenenceRepository"><path codeLine="48" d="M207,309.01 C207,323.06 207,338.11 207,351.3 " fill="none" id="Repositories-to-MaintenenceRepository" style="stroke:#181818;stroke-width:1.0;"/><polygon fill="#181818" points="207,356.45,211,347.45,207,351.45,203,347.45,207,356.45" style="stroke:#181818;stroke-width:1.0;"/><text fill="#000000" font-family="sans-serif" font-size="13" lengthAdjust="spacing" textLength="7" x="199.2781" y="345.5551">1</text></g><!--link MaintenenceRepository to VehicleCheckup--><g id="link_MaintenenceRepository_VehicleCheckup"><path codeLine="50" d="M402.68,389.5 C406.66,389.5 409,389.5 409,389.5 C409,389.5 418.79,389.5 432.28,389.5 " fill="none" id="MaintenenceRepository-to-VehicleCheckup" style="stroke:#181818;stroke-width:1.0;"/><polygon fill="#181818" points="437.4,389.5,428.4,385.5,432.4,389.5,428.4,393.5,437.4,389.5" style="stroke:#181818;stroke-width:1.0;"/><text fill="#000000" font-family="sans-serif" font-size="13" lengthAdjust="spacing" textLength="7" x="410.4605" y="386.6971">1</text><text fill="#000000" font-family="sans-serif" font-size="13" lengthAdjust="spacing" textLength="5" x="424.6553" y="386.1971">*</text></g><!--link RegisterMaintenenceController to VehicleCheckup--><g id="link_RegisterMaintenenceController_VehicleCheckup"><path codeLine="53" d="M437.94,178.04 C455.06,228.04 476.25,289.92 491.21,333.61 " fill="none" id="RegisterMaintenenceController-to-VehicleCheckup" style="stroke:#181818;stroke-width:1.0;stroke-dasharray:7.0,7.0;"/><polygon fill="#181818" points="492.91,338.58,493.7878,328.7703,491.2946,333.8481,486.2168,331.355,492.91,338.58" style="stroke:#181818;stroke-width:1.0;"/></g><!--link VehicleCheckup to FleetManager--><g id="link_VehicleCheckup_FleetManager"><path codeLine="55" d="M510,440.2 C510,464.35 510,492.49 510,512.89 " fill="none" id="VehicleCheckup-to-FleetManager" style="stroke:#181818;stroke-width:1.0;"/><polygon fill="#181818" points="510,517.9,514,508.9,510,512.9,506,508.9,510,517.9" style="stroke:#181818;stroke-width:1.0;"/><text fill="#000000" font-family="sans-serif" font-size="13" lengthAdjust="spacing" textLength="75" x="511" y="484.4951">registered by</text><text fill="#000000" font-family="sans-serif" font-size="13" lengthAdjust="spacing" textLength="5" x="504.6797" y="461.2496">*</text><text fill="#000000" font-family="sans-serif" font-size="13" lengthAdjust="spacing" textLength="5" x="504.3594" y="507.2145">*</text></g><!--SRC=[ZLInRi8m4Dtp5HPJqW9gLmOaIa5Ye4DfEx4OvqYiE7PaNrIbLV-zDad1fe4sGwJSlNll-IvdKt1PKKrBOdAQgdSkCxAdma1aZXd19M1J0QcKQDn757bP9gWnCqJDTpN2YYcvuHz0xYmeEkJ8KW3WcagQWIQVqTTF_0ropWJCSs15NTaCiS-8R2oLTL49Yl1KbplGOIAryJ1Ib3FiM1nxHx-cN298a0oUeLA6ez9Dft9BD6JS8EZGHEof3WzAGvyzEPa_Kd8mH-j-C4uwfGnm9GrIwoDEo2G0dI2zRkD0i3Ni0UTAebP27DhQCbr5-POkwRK0fi6U_OMQ8guDw4L9kHZQdkr1kmhR6Z1CymgvaiEjv7AlT4d5enSb22oNd8NHhKnhJLi0KmRjsmfbLjj39LqxhKrdOTuX7dnCZ5wcltPHLa8r04kjoWqOuwgkD_HrrVwVmN17qt3O4yAxSJfW7yTuUdqElNNUCCUXufzmY-yTv- -33Eu7bw3zw-8ANDtDu6nTe_-uEYyvstZ7EkhOWqjYSbnFICckYRu1]--></g></svg>