<?xml version="1.0" encoding="UTF-8" standalone="no"?><svg xmlns="http://www.w3.org/2000/svg" xmlns:xlink="http://www.w3.org/1999/xlink" contentStyleType="text/css" height="1206px" preserveAspectRatio="none" style="width:1607px;height:1206px;background:#FFFFFF;" version="1.1" viewBox="0 0 1607 1206" width="1607px" zoomAndPan="magnify"><defs/><g><rect fill="#FFFFFF" height="1013.7656" style="stroke:#181818;stroke-width:1.0;" width="10" x="17.5" y="92.6094"/><rect fill="#FFFFFF" height="315.7734" style="stroke:#181818;stroke-width:1.0;" width="10" x="320.5" y="114.9609"/><rect fill="#FFFFFF" height="91.0547" style="stroke:#181818;stroke-width:1.0;" width="10" x="320.5" y="461.0859"/><rect fill="#FFFFFF" height="402.4766" style="stroke:#181818;stroke-width:1.0;" width="10" x="320.5" y="582.4922"/><rect fill="#FFFFFF" height="91.0547" style="stroke:#181818;stroke-width:1.0;" width="10" x="320.5" y="1015.3203"/><rect fill="#FFFFFF" height="212.4609" style="stroke:#181818;stroke-width:1.0;" width="10" x="556.5" y="187.9219"/><rect fill="#FFFFFF" height="30.3516" style="stroke:#181818;stroke-width:1.0;" width="10" x="556.5" y="491.4375"/><rect fill="#FFFFFF" height="311.4219" style="stroke:#181818;stroke-width:1.0;" width="10" x="556.5" y="612.8438"/><rect fill="#FFFFFF" height="30.3516" style="stroke:#181818;stroke-width:1.0;" width="10" x="556.5" y="1045.6719"/><rect fill="#FFFFFF" height="30.3516" style="stroke:#181818;stroke-width:1.0;" width="10" x="722" y="218.2734"/><rect fill="#FFFFFF" height="30.3516" style="stroke:#181818;stroke-width:1.0;" width="10" x="829" y="278.9766"/><rect fill="#FFFFFF" height="30.3516" style="stroke:#181818;stroke-width:1.0;" width="10" x="829" y="643.1953"/><rect fill="#FFFFFF" height="30.3516" style="stroke:#181818;stroke-width:1.0;" width="10" x="952.5" y="339.6797"/><rect fill="#FFFFFF" height="190.0156" style="stroke:#181818;stroke-width:1.0;" width="10" x="1111" y="703.8984"/><rect fill="#FFFFFF" height="119.3125" style="stroke:#181818;stroke-width:1.0;" width="10" x="1348.5" y="744.25"/><line style="stroke:#181818;stroke-width:0.5;stroke-dasharray:5.0,5.0;" x1="22" x2="22" y1="82.6094" y2="1124.375"/><line style="stroke:#181818;stroke-width:0.5;stroke-dasharray:5.0,5.0;" x1="325.5" x2="325.5" y1="82.6094" y2="1124.375"/><line style="stroke:#181818;stroke-width:0.5;stroke-dasharray:5.0,5.0;" x1="561.5" x2="561.5" y1="154.2656" y2="1124.375"/><line style="stroke:#181818;stroke-width:0.5;stroke-dasharray:5.0,5.0;" x1="726.5" x2="726.5" y1="82.6094" y2="1124.375"/><line style="stroke:#181818;stroke-width:0.5;stroke-dasharray:5.0,5.0;" x1="833.5" x2="833.5" y1="82.6094" y2="1124.375"/><line style="stroke:#181818;stroke-width:0.5;stroke-dasharray:5.0,5.0;" x1="957.5" x2="957.5" y1="82.6094" y2="1124.375"/><line style="stroke:#181818;stroke-width:0.5;stroke-dasharray:5.0,5.0;" x1="1115.5" x2="1115.5" y1="82.6094" y2="1124.375"/><line style="stroke:#181818;stroke-width:0.5;stroke-dasharray:5.0,5.0;" x1="1353" x2="1353" y1="743.2031" y2="1124.375"/><text fill="#000000" font-family="sans-serif" font-size="14" lengthAdjust="spacing" textLength="29" x="5" y="79.5332">VFM</text><ellipse cx="22.5" cy="13.5" fill="#E3E3E3" rx="8" ry="8" style="stroke:#181818;stroke-width:0.5;"/><path d="M22.5,21.5 L22.5,48.5 M9.5,29.5 L35.5,29.5 M22.5,48.5 L9.5,63.5 M22.5,48.5 L35.5,63.5 " fill="none" style="stroke:#181818;stroke-width:0.5;"/><text fill="#000000" font-family="sans-serif" font-size="14" lengthAdjust="spacing" textLength="29" x="5" y="1137.9082">VFM</text><ellipse cx="22.5" cy="1149.4844" fill="#E3E3E3" rx="8" ry="8" style="stroke:#181818;stroke-width:0.5;"/><path d="M22.5,1157.4844 L22.5,1184.4844 M9.5,1165.4844 L35.5,1165.4844 M22.5,1184.4844 L9.5,1199.4844 M22.5,1184.4844 L35.5,1199.4844 " fill="none" style="stroke:#181818;stroke-width:0.5;"/><rect fill="#E3E3E3" height="31.6094" rx="2.5" ry="2.5" style="stroke:#181818;stroke-width:0.5;" width="164" x="243.5" y="50"/><text fill="#000000" font-family="sans-serif" font-size="14" lengthAdjust="spacing" textLength="150" x="250.5" y="71.5332">:RegisterMaintenanceUI</text><rect fill="#E3E3E3" height="31.6094" rx="2.5" ry="2.5" style="stroke:#181818;stroke-width:0.5;" width="164" x="243.5" y="1123.375"/><text fill="#000000" font-family="sans-serif" font-size="14" lengthAdjust="spacing" textLength="150" x="250.5" y="1144.9082">:RegisterMaintenanceUI</text><rect fill="#E3E3E3" height="31.6094" rx="2.5" ry="2.5" style="stroke:#181818;stroke-width:0.5;" width="214" x="454.5" y="1123.375"/><text fill="#000000" font-family="sans-serif" font-size="14" lengthAdjust="spacing" textLength="200" x="461.5" y="1144.9082">:RegisterMaintenanceController</text><rect fill="#E3E3E3" height="31.6094" rx="2.5" ry="2.5" style="stroke:#181818;stroke-width:0.5;" width="97" x="678.5" y="50"/><text fill="#000000" font-family="sans-serif" font-size="14" lengthAdjust="spacing" textLength="83" x="685.5" y="71.5332">:Repositories</text><rect fill="#E3E3E3" height="31.6094" rx="2.5" ry="2.5" style="stroke:#181818;stroke-width:0.5;" width="97" x="678.5" y="1123.375"/><text fill="#000000" font-family="sans-serif" font-size="14" lengthAdjust="spacing" textLength="83" x="685.5" y="1144.9082">:Repositories</text><rect fill="#E3E3E3" height="49.2188" rx="2.5" ry="2.5" style="stroke:#181818;stroke-width:0.5;" width="97" x="785.5" y="32.3906"/><text fill="#000000" font-family="sans-serif" font-size="14" lengthAdjust="spacing" textLength="74" x="797" y="53.9238">repositories</text><text fill="#000000" font-family="sans-serif" font-size="14" lengthAdjust="spacing" textLength="83" x="792.5" y="71.5332">:Repositories</text><rect fill="#E3E3E3" height="49.2188" rx="2.5" ry="2.5" style="stroke:#181818;stroke-width:0.5;" width="97" x="785.5" y="1123.375"/><text fill="#000000" font-family="sans-serif" font-size="14" lengthAdjust="spacing" textLength="74" x="797" y="1144.9082">repositories</text><text fill="#000000" font-family="sans-serif" font-size="14" lengthAdjust="spacing" textLength="83" x="792.5" y="1162.5176">:Repositories</text><rect fill="#E3E3E3" height="49.2188" rx="2.5" ry="2.5" style="stroke:#181818;stroke-width:0.5;" width="130" x="892.5" y="32.3906"/><text fill="#000000" font-family="sans-serif" font-size="14" lengthAdjust="spacing" textLength="116" x="899.5" y="53.9238">vehicleRepository:</text><text fill="#000000" font-family="sans-serif" font-size="14" lengthAdjust="spacing" textLength="114" x="900.5" y="71.5332">VehicleRepository</text><rect fill="#E3E3E3" height="49.2188" rx="2.5" ry="2.5" style="stroke:#181818;stroke-width:0.5;" width="130" x="892.5" y="1123.375"/><text fill="#000000" font-family="sans-serif" font-size="14" lengthAdjust="spacing" textLength="116" x="899.5" y="1144.9082">vehicleRepository:</text><text fill="#000000" font-family="sans-serif" font-size="14" lengthAdjust="spacing" textLength="114" x="900.5" y="1162.5176">VehicleRepository</text><rect fill="#E3E3E3" height="49.2188" rx="2.5" ry="2.5" style="stroke:#181818;stroke-width:0.5;" width="167" x="1032.5" y="32.3906"/><text fill="#000000" font-family="sans-serif" font-size="14" lengthAdjust="spacing" textLength="153" x="1039.5" y="53.9238">maintenanceRepository:</text><text fill="#000000" font-family="sans-serif" font-size="14" lengthAdjust="spacing" textLength="149" x="1041.5" y="71.5332">MaintenanceRepository</text><rect fill="#E3E3E3" height="49.2188" rx="2.5" ry="2.5" style="stroke:#181818;stroke-width:0.5;" width="167" x="1032.5" y="1123.375"/><text fill="#000000" font-family="sans-serif" font-size="14" lengthAdjust="spacing" textLength="153" x="1039.5" y="1144.9082">maintenanceRepository:</text><text fill="#000000" font-family="sans-serif" font-size="14" lengthAdjust="spacing" textLength="149" x="1041.5" y="1162.5176">MaintenanceRepository</text><rect fill="#E3E3E3" height="31.6094" rx="2.5" ry="2.5" style="stroke:#181818;stroke-width:0.5;" width="99" x="1304" y="1123.375"/><text fill="#000000" font-family="sans-serif" font-size="14" lengthAdjust="spacing" textLength="85" x="1311" y="1144.9082">:Maintenance</text><rect fill="#FFFFFF" height="1013.7656" style="stroke:#181818;stroke-width:1.0;" width="10" x="17.5" y="92.6094"/><rect fill="#FFFFFF" height="315.7734" style="stroke:#181818;stroke-width:1.0;" width="10" x="320.5" y="114.9609"/><rect fill="#FFFFFF" height="91.0547" style="stroke:#181818;stroke-width:1.0;" width="10" x="320.5" y="461.0859"/><rect fill="#FFFFFF" height="402.4766" style="stroke:#181818;stroke-width:1.0;" width="10" x="320.5" y="582.4922"/><rect fill="#FFFFFF" height="91.0547" style="stroke:#181818;stroke-width:1.0;" width="10" x="320.5" y="1015.3203"/><rect fill="#FFFFFF" height="212.4609" style="stroke:#181818;stroke-width:1.0;" width="10" x="556.5" y="187.9219"/><rect fill="#FFFFFF" height="30.3516" style="stroke:#181818;stroke-width:1.0;" width="10" x="556.5" y="491.4375"/><rect fill="#FFFFFF" height="311.4219" style="stroke:#181818;stroke-width:1.0;" width="10" x="556.5" y="612.8438"/><rect fill="#FFFFFF" height="30.3516" style="stroke:#181818;stroke-width:1.0;" width="10" x="556.5" y="1045.6719"/><rect fill="#FFFFFF" height="30.3516" style="stroke:#181818;stroke-width:1.0;" width="10" x="722" y="218.2734"/><rect fill="#FFFFFF" height="30.3516" style="stroke:#181818;stroke-width:1.0;" width="10" x="829" y="278.9766"/><rect fill="#FFFFFF" height="30.3516" style="stroke:#181818;stroke-width:1.0;" width="10" x="829" y="643.1953"/><rect fill="#FFFFFF" height="30.3516" style="stroke:#181818;stroke-width:1.0;" width="10" x="952.5" y="339.6797"/><rect fill="#FFFFFF" height="190.0156" style="stroke:#181818;stroke-width:1.0;" width="10" x="1111" y="703.8984"/><rect fill="#FFFFFF" height="119.3125" style="stroke:#181818;stroke-width:1.0;" width="10" x="1348.5" y="744.25"/><polygon fill="#181818" points="308.5,110.9609,318.5,114.9609,308.5,118.9609,312.5,114.9609" style="stroke:#181818;stroke-width:1.0;"/><line style="stroke:#181818;stroke-width:1.0;" x1="27.5" x2="314.5" y1="114.9609" y2="114.9609"/><text fill="#000000" font-family="sans-serif" font-size="13" font-weight="bold" lengthAdjust="spacing" textLength="7" x="34.5" y="110.1045">1</text><text fill="#000000" font-family="sans-serif" font-size="13" lengthAdjust="spacing" textLength="263" x="45.5" y="110.1045">requests to list vehicles needing maintenance</text><polygon fill="#181818" points="442.5,141.3125,452.5,145.3125,442.5,149.3125,446.5,145.3125" style="stroke:#181818;stroke-width:1.0;"/><line style="stroke:#181818;stroke-width:1.0;" x1="330.5" x2="448.5" y1="145.3125" y2="145.3125"/><text fill="#000000" font-family="sans-serif" font-size="13" font-weight="bold" lengthAdjust="spacing" textLength="7" x="337.5" y="140.4561">2</text><text fill="#000000" font-family="sans-serif" font-size="13" lengthAdjust="spacing" textLength="36" x="348.5" y="140.4561">create</text><rect fill="#E3E3E3" height="31.6094" rx="2.5" ry="2.5" style="stroke:#181818;stroke-width:0.5;" width="214" x="454.5" y="122.9609"/><text fill="#000000" font-family="sans-serif" font-size="14" lengthAdjust="spacing" textLength="200" x="461.5" y="144.4941">:RegisterMaintenanceController</text><polygon fill="#181818" points="544.5,183.9219,554.5,187.9219,544.5,191.9219,548.5,187.9219" style="stroke:#181818;stroke-width:1.0;"/><line style="stroke:#181818;stroke-width:1.0;" x1="330.5" x2="550.5" y1="187.9219" y2="187.9219"/><text fill="#000000" font-family="sans-serif" font-size="13" font-weight="bold" lengthAdjust="spacing" textLength="7" x="337.5" y="183.0654">3</text><text fill="#000000" font-family="sans-serif" font-size="13" lengthAdjust="spacing" textLength="97" x="348.5" y="183.0654">getVehiclesList()</text><polygon fill="#181818" points="710,214.2734,720,218.2734,710,222.2734,714,218.2734" style="stroke:#181818;stroke-width:1.0;"/><line style="stroke:#181818;stroke-width:1.0;" x1="566.5" x2="716" y1="218.2734" y2="218.2734"/><text fill="#000000" font-family="sans-serif" font-size="13" font-weight="bold" lengthAdjust="spacing" textLength="7" x="573.5" y="213.417">4</text><text fill="#000000" font-family="sans-serif" font-size="13" lengthAdjust="spacing" textLength="75" x="584.5" y="213.417">getInstance()</text><polygon fill="#181818" points="577.5,244.625,567.5,248.625,577.5,252.625,573.5,248.625" style="stroke:#181818;stroke-width:1.0;"/><line style="stroke:#181818;stroke-width:1.0;stroke-dasharray:2.0,2.0;" x1="571.5" x2="726" y1="248.625" y2="248.625"/><text fill="#000000" font-family="sans-serif" font-size="13" font-weight="bold" lengthAdjust="spacing" textLength="7" x="583.5" y="243.7686">5</text><text fill="#000000" font-family="sans-serif" font-size="13" lengthAdjust="spacing" textLength="67" x="594.5" y="243.7686">repositories</text><polygon fill="#181818" points="817,274.9766,827,278.9766,817,282.9766,821,278.9766" style="stroke:#181818;stroke-width:1.0;"/><line style="stroke:#181818;stroke-width:1.0;" x1="566.5" x2="823" y1="278.9766" y2="278.9766"/><text fill="#000000" font-family="sans-serif" font-size="13" font-weight="bold" lengthAdjust="spacing" textLength="7" x="573.5" y="274.1201">6</text><text fill="#000000" font-family="sans-serif" font-size="13" lengthAdjust="spacing" textLength="131" x="584.5" y="274.1201">getVehicleRepository()</text><polygon fill="#181818" points="577.5,305.3281,567.5,309.3281,577.5,313.3281,573.5,309.3281" style="stroke:#181818;stroke-width:1.0;"/><line style="stroke:#181818;stroke-width:1.0;stroke-dasharray:2.0,2.0;" x1="571.5" x2="833" y1="309.3281" y2="309.3281"/><text fill="#000000" font-family="sans-serif" font-size="13" font-weight="bold" lengthAdjust="spacing" textLength="7" x="583.5" y="304.4717">7</text><text fill="#000000" font-family="sans-serif" font-size="13" lengthAdjust="spacing" textLength="105" x="594.5" y="304.4717">VehicleRepository</text><polygon fill="#181818" points="940.5,335.6797,950.5,339.6797,940.5,343.6797,944.5,339.6797" style="stroke:#181818;stroke-width:1.0;"/><line style="stroke:#181818;stroke-width:1.0;" x1="566.5" x2="946.5" y1="339.6797" y2="339.6797"/><text fill="#000000" font-family="sans-serif" font-size="13" font-weight="bold" lengthAdjust="spacing" textLength="7" x="573.5" y="334.8232">8</text><text fill="#000000" font-family="sans-serif" font-size="13" lengthAdjust="spacing" textLength="97" x="584.5" y="334.8232">getVehiclesList()</text><polygon fill="#181818" points="577.5,366.0313,567.5,370.0313,577.5,374.0313,573.5,370.0313" style="stroke:#181818;stroke-width:1.0;"/><line style="stroke:#181818;stroke-width:1.0;stroke-dasharray:2.0,2.0;" x1="571.5" x2="956.5" y1="370.0313" y2="370.0313"/><text fill="#000000" font-family="sans-serif" font-size="13" font-weight="bold" lengthAdjust="spacing" textLength="7" x="583.5" y="365.1748">9</text><text fill="#000000" font-family="sans-serif" font-size="13" lengthAdjust="spacing" textLength="60" x="594.5" y="365.1748">vehicleList</text><polygon fill="#181818" points="341.5,396.3828,331.5,400.3828,341.5,404.3828,337.5,400.3828" style="stroke:#181818;stroke-width:1.0;"/><line style="stroke:#181818;stroke-width:1.0;stroke-dasharray:2.0,2.0;" x1="335.5" x2="560.5" y1="400.3828" y2="400.3828"/><text fill="#000000" font-family="sans-serif" font-size="13" font-weight="bold" lengthAdjust="spacing" textLength="14" x="347.5" y="395.5264">10</text><text fill="#000000" font-family="sans-serif" font-size="13" lengthAdjust="spacing" textLength="60" x="365.5" y="395.5264">vehicleList</text><polygon fill="#181818" points="38.5,426.7344,28.5,430.7344,38.5,434.7344,34.5,430.7344" style="stroke:#181818;stroke-width:1.0;"/><line style="stroke:#181818;stroke-width:1.0;stroke-dasharray:2.0,2.0;" x1="32.5" x2="324.5" y1="430.7344" y2="430.7344"/><text fill="#000000" font-family="sans-serif" font-size="13" font-weight="bold" lengthAdjust="spacing" textLength="14" x="44.5" y="425.8779">11</text><text fill="#000000" font-family="sans-serif" font-size="13" lengthAdjust="spacing" textLength="116" x="62.5" y="425.8779">displays vehicle List</text><polygon fill="#181818" points="308.5,457.0859,318.5,461.0859,308.5,465.0859,312.5,461.0859" style="stroke:#181818;stroke-width:1.0;"/><line style="stroke:#181818;stroke-width:1.0;" x1="27.5" x2="314.5" y1="461.0859" y2="461.0859"/><text fill="#000000" font-family="sans-serif" font-size="13" font-weight="bold" lengthAdjust="spacing" textLength="14" x="34.5" y="456.2295">12</text><text fill="#000000" font-family="sans-serif" font-size="13" lengthAdjust="spacing" textLength="92" x="52.5" y="456.2295">chooses vehicle</text><polygon fill="#181818" points="544.5,487.4375,554.5,491.4375,544.5,495.4375,548.5,491.4375" style="stroke:#181818;stroke-width:1.0;"/><line style="stroke:#181818;stroke-width:1.0;" x1="330.5" x2="550.5" y1="491.4375" y2="491.4375"/><text fill="#000000" font-family="sans-serif" font-size="13" font-weight="bold" lengthAdjust="spacing" textLength="14" x="337.5" y="486.5811">13</text><text fill="#000000" font-family="sans-serif" font-size="13" lengthAdjust="spacing" textLength="39" x="355.5" y="486.5811">vehicle</text><polygon fill="#181818" points="341.5,517.7891,331.5,521.7891,341.5,525.7891,337.5,521.7891" style="stroke:#181818;stroke-width:1.0;"/><line style="stroke:#181818;stroke-width:1.0;stroke-dasharray:2.0,2.0;" x1="335.5" x2="560.5" y1="521.7891" y2="521.7891"/><text fill="#000000" font-family="sans-serif" font-size="13" font-weight="bold" lengthAdjust="spacing" textLength="14" x="347.5" y="516.9326">14</text><text fill="#000000" font-family="sans-serif" font-size="13" lengthAdjust="spacing" textLength="184" x="365.5" y="516.9326">requests data(date, current Km)</text><polygon fill="#181818" points="38.5,548.1406,28.5,552.1406,38.5,556.1406,34.5,552.1406" style="stroke:#181818;stroke-width:1.0;"/><line style="stroke:#181818;stroke-width:1.0;stroke-dasharray:2.0,2.0;" x1="32.5" x2="324.5" y1="552.1406" y2="552.1406"/><text fill="#000000" font-family="sans-serif" font-size="13" font-weight="bold" lengthAdjust="spacing" textLength="14" x="44.5" y="547.2842">15</text><text fill="#000000" font-family="sans-serif" font-size="13" lengthAdjust="spacing" textLength="188" x="62.5" y="547.2842">requests data (date, current Km)</text><polygon fill="#181818" points="308.5,578.4922,318.5,582.4922,308.5,586.4922,312.5,582.4922" style="stroke:#181818;stroke-width:1.0;"/><line style="stroke:#181818;stroke-width:1.0;" x1="27.5" x2="314.5" y1="582.4922" y2="582.4922"/><text fill="#000000" font-family="sans-serif" font-size="13" font-weight="bold" lengthAdjust="spacing" textLength="14" x="34.5" y="577.6357">16</text><text fill="#000000" font-family="sans-serif" font-size="13" lengthAdjust="spacing" textLength="170" x="52.5" y="577.6357">types data (date, current Km)</text><polygon fill="#181818" points="544.5,608.8438,554.5,612.8438,544.5,616.8438,548.5,612.8438" style="stroke:#181818;stroke-width:1.0;"/><line style="stroke:#181818;stroke-width:1.0;" x1="330.5" x2="550.5" y1="612.8438" y2="612.8438"/><text fill="#000000" font-family="sans-serif" font-size="13" font-weight="bold" lengthAdjust="spacing" textLength="14" x="337.5" y="607.9873">17</text><text fill="#000000" font-family="sans-serif" font-size="13" lengthAdjust="spacing" textLength="134" x="355.5" y="607.9873">data (date, current Km)</text><polygon fill="#181818" points="817,639.1953,827,643.1953,817,647.1953,821,643.1953" style="stroke:#181818;stroke-width:1.0;"/><line style="stroke:#181818;stroke-width:1.0;" x1="566.5" x2="823" y1="643.1953" y2="643.1953"/><text fill="#000000" font-family="sans-serif" font-size="13" font-weight="bold" lengthAdjust="spacing" textLength="14" x="573.5" y="638.3389">18</text><text fill="#000000" font-family="sans-serif" font-size="13" lengthAdjust="spacing" textLength="162" x="591.5" y="638.3389">getMaintenanceRepository()</text><polygon fill="#181818" points="577.5,669.5469,567.5,673.5469,577.5,677.5469,573.5,673.5469" style="stroke:#181818;stroke-width:1.0;"/><line style="stroke:#181818;stroke-width:1.0;stroke-dasharray:2.0,2.0;" x1="571.5" x2="833" y1="673.5469" y2="673.5469"/><text fill="#000000" font-family="sans-serif" font-size="13" font-weight="bold" lengthAdjust="spacing" textLength="14" x="583.5" y="668.6904">19</text><text fill="#000000" font-family="sans-serif" font-size="13" lengthAdjust="spacing" textLength="136" x="601.5" y="668.6904">MaintenanceRepository</text><polygon fill="#181818" points="1099,699.8984,1109,703.8984,1099,707.8984,1103,703.8984" style="stroke:#181818;stroke-width:1.0;"/><line style="stroke:#181818;stroke-width:1.0;" x1="566.5" x2="1105" y1="703.8984" y2="703.8984"/><text fill="#000000" font-family="sans-serif" font-size="13" font-weight="bold" lengthAdjust="spacing" textLength="14" x="573.5" y="699.042">20</text><text fill="#000000" font-family="sans-serif" font-size="13" lengthAdjust="spacing" textLength="121" x="591.5" y="699.042">register maintenance</text><polygon fill="#181818" points="1292,730.25,1302,734.25,1292,738.25,1296,734.25" style="stroke:#181818;stroke-width:1.0;"/><line style="stroke:#181818;stroke-width:1.0;" x1="1121" x2="1298" y1="734.25" y2="734.25"/><text fill="#000000" font-family="sans-serif" font-size="13" font-weight="bold" lengthAdjust="spacing" textLength="14" x="1128" y="729.3936">21</text><text fill="#000000" font-family="sans-serif" font-size="13" lengthAdjust="spacing" textLength="141" x="1146" y="729.3936">create(date, current Km)</text><rect fill="#E3E3E3" height="31.6094" rx="2.5" ry="2.5" style="stroke:#181818;stroke-width:0.5;" width="99" x="1304" y="711.8984"/><text fill="#000000" font-family="sans-serif" font-size="14" lengthAdjust="spacing" textLength="85" x="1311" y="733.4316">:Maintenance</text><line style="stroke:#181818;stroke-width:1.0;" x1="1358.5" x2="1400.5" y1="776.8594" y2="776.8594"/><line style="stroke:#181818;stroke-width:1.0;" x1="1400.5" x2="1400.5" y1="776.8594" y2="789.8594"/><line style="stroke:#181818;stroke-width:1.0;" x1="1359.5" x2="1400.5" y1="789.8594" y2="789.8594"/><polygon fill="#181818" points="1369.5,785.8594,1359.5,789.8594,1369.5,793.8594,1365.5,789.8594" style="stroke:#181818;stroke-width:1.0;"/><text fill="#000000" font-family="sans-serif" font-size="13" font-weight="bold" lengthAdjust="spacing" textLength="14" x="1365.5" y="772.0029">22</text><text fill="#000000" font-family="sans-serif" font-size="13" lengthAdjust="spacing" textLength="142" x="1383.5" y="772.0029">verifyFilled(maintenance)</text><line style="stroke:#181818;stroke-width:1.0;" x1="1358.5" x2="1400.5" y1="820.2109" y2="820.2109"/><line style="stroke:#181818;stroke-width:1.0;" x1="1400.5" x2="1400.5" y1="820.2109" y2="833.2109"/><line style="stroke:#181818;stroke-width:1.0;" x1="1359.5" x2="1400.5" y1="833.2109" y2="833.2109"/><polygon fill="#181818" points="1369.5,829.2109,1359.5,833.2109,1369.5,837.2109,1365.5,833.2109" style="stroke:#181818;stroke-width:1.0;"/><text fill="#000000" font-family="sans-serif" font-size="13" font-weight="bold" lengthAdjust="spacing" textLength="14" x="1365.5" y="815.3545">23</text><text fill="#000000" font-family="sans-serif" font-size="13" lengthAdjust="spacing" textLength="217" x="1383.5" y="815.3545">verifySpecialCharacters(maintenance)</text><polygon fill="#181818" points="1132,859.5625,1122,863.5625,1132,867.5625,1128,863.5625" style="stroke:#181818;stroke-width:1.0;"/><line style="stroke:#181818;stroke-width:1.0;stroke-dasharray:2.0,2.0;" x1="1126" x2="1352.5" y1="863.5625" y2="863.5625"/><text fill="#000000" font-family="sans-serif" font-size="13" font-weight="bold" lengthAdjust="spacing" textLength="14" x="1138" y="858.7061">24</text><text fill="#000000" font-family="sans-serif" font-size="13" lengthAdjust="spacing" textLength="74" x="1156" y="858.7061">maintenance</text><polygon fill="#181818" points="577.5,889.9141,567.5,893.9141,577.5,897.9141,573.5,893.9141" style="stroke:#181818;stroke-width:1.0;"/><line style="stroke:#181818;stroke-width:1.0;stroke-dasharray:2.0,2.0;" x1="571.5" x2="1115" y1="893.9141" y2="893.9141"/><text fill="#000000" font-family="sans-serif" font-size="13" font-weight="bold" lengthAdjust="spacing" textLength="14" x="583.5" y="889.0576">25</text><text fill="#000000" font-family="sans-serif" font-size="13" lengthAdjust="spacing" textLength="74" x="601.5" y="889.0576">maintenance</text><polygon fill="#181818" points="341.5,920.2656,331.5,924.2656,341.5,928.2656,337.5,924.2656" style="stroke:#181818;stroke-width:1.0;"/><line style="stroke:#181818;stroke-width:1.0;stroke-dasharray:2.0,2.0;" x1="335.5" x2="560.5" y1="924.2656" y2="924.2656"/><text fill="#000000" font-family="sans-serif" font-size="13" font-weight="bold" lengthAdjust="spacing" textLength="14" x="347.5" y="919.4092">26</text><text fill="#000000" font-family="sans-serif" font-size="13" lengthAdjust="spacing" textLength="74" x="365.5" y="919.4092">maintenance</text><polygon fill="#181818" points="38.5,950.6172,28.5,954.6172,38.5,958.6172,34.5,954.6172" style="stroke:#181818;stroke-width:1.0;"/><line style="stroke:#181818;stroke-width:1.0;stroke-dasharray:2.0,2.0;" x1="32.5" x2="319.5" y1="954.6172" y2="954.6172"/><text fill="#000000" font-family="sans-serif" font-size="13" font-weight="bold" lengthAdjust="spacing" textLength="14" x="44.5" y="949.7607">27</text><text fill="#000000" font-family="sans-serif" font-size="13" lengthAdjust="spacing" textLength="155" x="62.5" y="949.7607">displays maintenance data</text><polygon fill="#181818" points="38.5,980.9688,28.5,984.9688,38.5,988.9688,34.5,984.9688" style="stroke:#181818;stroke-width:1.0;"/><line style="stroke:#181818;stroke-width:1.0;stroke-dasharray:2.0,2.0;" x1="32.5" x2="324.5" y1="984.9688" y2="984.9688"/><text fill="#000000" font-family="sans-serif" font-size="13" font-weight="bold" lengthAdjust="spacing" textLength="14" x="44.5" y="980.1123">28</text><text fill="#000000" font-family="sans-serif" font-size="13" lengthAdjust="spacing" textLength="124" x="62.5" y="980.1123">requests confirmation</text><polygon fill="#181818" points="308.5,1011.3203,318.5,1015.3203,308.5,1019.3203,312.5,1015.3203" style="stroke:#181818;stroke-width:1.0;"/><line style="stroke:#181818;stroke-width:1.0;" x1="27.5" x2="314.5" y1="1015.3203" y2="1015.3203"/><text fill="#000000" font-family="sans-serif" font-size="13" font-weight="bold" lengthAdjust="spacing" textLength="14" x="34.5" y="1010.4639">29</text><text fill="#000000" font-family="sans-serif" font-size="13" lengthAdjust="spacing" textLength="78" x="52.5" y="1010.4639">confirms data</text><polygon fill="#181818" points="544.5,1041.6719,554.5,1045.6719,544.5,1049.6719,548.5,1045.6719" style="stroke:#181818;stroke-width:1.0;"/><line style="stroke:#181818;stroke-width:1.0;" x1="330.5" x2="550.5" y1="1045.6719" y2="1045.6719"/><text fill="#000000" font-family="sans-serif" font-size="13" font-weight="bold" lengthAdjust="spacing" textLength="14" x="337.5" y="1040.8154">30</text><text fill="#000000" font-family="sans-serif" font-size="13" lengthAdjust="spacing" textLength="70" x="355.5" y="1040.8154">confirmation</text><polygon fill="#181818" points="341.5,1072.0234,331.5,1076.0234,341.5,1080.0234,337.5,1076.0234" style="stroke:#181818;stroke-width:1.0;"/><line style="stroke:#181818;stroke-width:1.0;stroke-dasharray:2.0,2.0;" x1="335.5" x2="560.5" y1="1076.0234" y2="1076.0234"/><text fill="#000000" font-family="sans-serif" font-size="13" font-weight="bold" lengthAdjust="spacing" textLength="14" x="347.5" y="1071.167">31</text><text fill="#000000" font-family="sans-serif" font-size="13" lengthAdjust="spacing" textLength="106" x="365.5" y="1071.167">operation success</text><polygon fill="#181818" points="33.5,1102.375,23.5,1106.375,33.5,1110.375,29.5,1106.375" style="stroke:#181818;stroke-width:1.0;"/><line style="stroke:#181818;stroke-width:1.0;" x1="27.5" x2="324.5" y1="1106.375" y2="1106.375"/><text fill="#000000" font-family="sans-serif" font-size="13" font-weight="bold" lengthAdjust="spacing" textLength="14" x="39.5" y="1101.5186">32</text><text fill="#000000" font-family="sans-serif" font-size="13" lengthAdjust="spacing" textLength="158" x="57.5" y="1101.5186">displays operation success</text><!--SRC=[dPRDRgCm4CVlF8MLooRLvWLoM6aLgLAqYRHgsfvwSSq4h8BDsgQxUViTcmGmDfI4GnlPdj-C__C1-eEBYYfQab8AoN8bIo16rP3eTgUYx8DcS3Jd0eW2PgZ8Ylu1dTDK_kKY8oTQQ4WIMXifwl8TL99yotaAv2IbUPV_4igCL6Jn-dXO4Ae9_a-GOJZZ5HM6B3PFa75jG1qe5mO45GnUTkxio-xherifZ9950SgPR9-Vze5H9JN783XeTwPTE1-vlHT6xfkediMR206_zp-VVOjFo3ahe2DltiJhSAsv_t3L1vNTpJpO8RRkWD6TWGIzCqERn2Q8Vr83BZK9mGT_aFKFb9ziCFj_Qj164oD9WUAJorKr4G2fhO1UoCwwvM7wt89za8L4cvs71wGo1NWYjesR6PYBIdgF7fUhzbYBTcbkb-tZR94HIMw3t0bjR8mzd8UCLOLtqZun-leIkTMgAnJFD8NvRguNiKNcYT5PZbt1rMKGimDrGOO5E19fIBk65Y0ca-Q567eFuWtfwwusBjLdNOp5_OMBvXBNyfx12slDLgkL0TjaGrAkguAUzHL5fbZzbXXs6ikbrD1ouleD0LxZJ5gEjKpGw2arT8b_u3jXjLA04-HNkRfJ7OzAPcF7LJBd2kRHvcbs4sbyx7JT6ft7yplMwrOaniVx7DMkeKK9BZNDopGOu46KyHYyit4dllVUv9yhkFUY6WwAtkR0a-i5nK_dHuvV1kcoTyFLFPXZ1OpJOflZnmz3oVGDn8aCZ0dl9tKS7X-HTr7zMN0N8ZuLUoZNQvDMxRHWKfouAgdX-7gS7O4tJHk2ZZeT7Gt3wJ0LnyHK20IL5IW78Rfc3BI-JTP0rLjuurlD5zz_]--></g></svg>