<?xml version="1.0" encoding="UTF-8" standalone="no"?><svg xmlns="http://www.w3.org/2000/svg" xmlns:xlink="http://www.w3.org/1999/xlink" contentStyleType="text/css" height="382px" preserveAspectRatio="none" style="width:665px;height:382px;background:#FFFFFF;" version="1.1" viewBox="0 0 665 382" width="665px" zoomAndPan="magnify"><defs/><g><rect fill="#FFFFFF" height="231.3672" style="stroke:#181818;stroke-width:1.0;" width="10" x="158" y="87.5703"/><rect fill="#FFFFFF" height="119.3125" style="stroke:#181818;stroke-width:1.0;" width="10" x="395.5" y="153.2734"/><rect fill="none" height="178.0156" style="stroke:#000000;stroke-width:1.5;" width="590" x="69.5" y="102.5703"/><line style="stroke:#181818;stroke-width:0.5;stroke-dasharray:5.0,5.0;" x1="162.5" x2="162.5" y1="55.2188" y2="327.9375"/><line style="stroke:#181818;stroke-width:0.5;stroke-dasharray:5.0,5.0;" x1="400" x2="400" y1="152.2266" y2="327.9375"/><rect fill="#E3E3E3" height="49.2188" rx="2.5" ry="2.5" style="stroke:#181818;stroke-width:0.5;" width="167" x="79.5" y="5"/><text fill="#000000" font-family="sans-serif" font-size="14" lengthAdjust="spacing" textLength="153" x="86.5" y="26.5332">maintenanceRepository:</text><text fill="#000000" font-family="sans-serif" font-size="14" lengthAdjust="spacing" textLength="149" x="88.5" y="44.1426">MaintenanceRepository</text><rect fill="#E3E3E3" height="49.2188" rx="2.5" ry="2.5" style="stroke:#181818;stroke-width:0.5;" width="167" x="79.5" y="326.9375"/><text fill="#000000" font-family="sans-serif" font-size="14" lengthAdjust="spacing" textLength="153" x="86.5" y="348.4707">maintenanceRepository:</text><text fill="#000000" font-family="sans-serif" font-size="14" lengthAdjust="spacing" textLength="149" x="88.5" y="366.0801">MaintenanceRepository</text><rect fill="#E3E3E3" height="31.6094" rx="2.5" ry="2.5" style="stroke:#181818;stroke-width:0.5;" width="99" x="351" y="326.9375"/><text fill="#000000" font-family="sans-serif" font-size="14" lengthAdjust="spacing" textLength="85" x="358" y="348.4707">:Maintenance</text><rect fill="#FFFFFF" height="231.3672" style="stroke:#181818;stroke-width:1.0;" width="10" x="158" y="87.5703"/><rect fill="#FFFFFF" height="119.3125" style="stroke:#181818;stroke-width:1.0;" width="10" x="395.5" y="153.2734"/><polygon fill="#181818" points="146,83.5703,156,87.5703,146,91.5703,150,87.5703" style="stroke:#181818;stroke-width:1.0;"/><line style="stroke:#181818;stroke-width:1.0;" x1="0" x2="152" y1="87.5703" y2="87.5703"/><text fill="#000000" font-family="sans-serif" font-size="13" font-weight="bold" lengthAdjust="spacing" textLength="14" x="7" y="82.7139">20</text><text fill="#000000" font-family="sans-serif" font-size="13" lengthAdjust="spacing" textLength="121" x="25" y="82.7139">register maintenance</text><path d="M69.5,102.5703 L253.5,102.5703 L253.5,110.9219 L243.5,120.9219 L69.5,120.9219 L69.5,102.5703 " fill="#EEEEEE" style="stroke:#000000;stroke-width:1.5;"/><rect fill="none" height="178.0156" style="stroke:#000000;stroke-width:1.5;" width="590" x="69.5" y="102.5703"/><text fill="#000000" font-family="sans-serif" font-size="13" font-weight="bold" lengthAdjust="spacing" textLength="139" x="84.5" y="117.0654">Register maintenance</text><polygon fill="#181818" points="339,139.2734,349,143.2734,339,147.2734,343,143.2734" style="stroke:#181818;stroke-width:1.0;"/><line style="stroke:#181818;stroke-width:1.0;" x1="168" x2="345" y1="143.2734" y2="143.2734"/><text fill="#000000" font-family="sans-serif" font-size="13" font-weight="bold" lengthAdjust="spacing" textLength="14" x="175" y="138.417">21</text><text fill="#000000" font-family="sans-serif" font-size="13" lengthAdjust="spacing" textLength="141" x="193" y="138.417">create(date, current Km)</text><rect fill="#E3E3E3" height="31.6094" rx="2.5" ry="2.5" style="stroke:#181818;stroke-width:0.5;" width="99" x="351" y="120.9219"/><text fill="#000000" font-family="sans-serif" font-size="14" lengthAdjust="spacing" textLength="85" x="358" y="142.4551">:Maintenance</text><line style="stroke:#181818;stroke-width:1.0;" x1="405.5" x2="447.5" y1="185.8828" y2="185.8828"/><line style="stroke:#181818;stroke-width:1.0;" x1="447.5" x2="447.5" y1="185.8828" y2="198.8828"/><line style="stroke:#181818;stroke-width:1.0;" x1="406.5" x2="447.5" y1="198.8828" y2="198.8828"/><polygon fill="#181818" points="416.5,194.8828,406.5,198.8828,416.5,202.8828,412.5,198.8828" style="stroke:#181818;stroke-width:1.0;"/><text fill="#000000" font-family="sans-serif" font-size="13" font-weight="bold" lengthAdjust="spacing" textLength="14" x="412.5" y="181.0264">22</text><text fill="#000000" font-family="sans-serif" font-size="13" lengthAdjust="spacing" textLength="142" x="430.5" y="181.0264">verifyFilled(maintenance)</text><line style="stroke:#181818;stroke-width:1.0;" x1="405.5" x2="447.5" y1="229.2344" y2="229.2344"/><line style="stroke:#181818;stroke-width:1.0;" x1="447.5" x2="447.5" y1="229.2344" y2="242.2344"/><line style="stroke:#181818;stroke-width:1.0;" x1="406.5" x2="447.5" y1="242.2344" y2="242.2344"/><polygon fill="#181818" points="416.5,238.2344,406.5,242.2344,416.5,246.2344,412.5,242.2344" style="stroke:#181818;stroke-width:1.0;"/><text fill="#000000" font-family="sans-serif" font-size="13" font-weight="bold" lengthAdjust="spacing" textLength="14" x="412.5" y="224.3779">23</text><text fill="#000000" font-family="sans-serif" font-size="13" lengthAdjust="spacing" textLength="217" x="430.5" y="224.3779">verifySpecialCharacters(maintenance)</text><polygon fill="#181818" points="179,268.5859,169,272.5859,179,276.5859,175,272.5859" style="stroke:#181818;stroke-width:1.0;"/><line style="stroke:#181818;stroke-width:1.0;stroke-dasharray:2.0,2.0;" x1="173" x2="399.5" y1="272.5859" y2="272.5859"/><text fill="#000000" font-family="sans-serif" font-size="13" font-weight="bold" lengthAdjust="spacing" textLength="14" x="185" y="267.7295">24</text><text fill="#000000" font-family="sans-serif" font-size="13" lengthAdjust="spacing" textLength="74" x="203" y="267.7295">maintenance</text><polygon fill="#181818" points="11,305.9375,1,309.9375,11,313.9375,7,309.9375" style="stroke:#181818;stroke-width:1.0;"/><line style="stroke:#181818;stroke-width:1.0;stroke-dasharray:2.0,2.0;" x1="5" x2="157" y1="309.9375" y2="309.9375"/><text fill="#000000" font-family="sans-serif" font-size="13" font-weight="bold" lengthAdjust="spacing" textLength="14" x="17" y="305.0811">25</text><text fill="#000000" font-family="sans-serif" font-size="13" lengthAdjust="spacing" textLength="74" x="35" y="305.0811">maintenance</text><!--SRC=[dL8zJyCm4DtlLvmwjHMH46E4M91O44kxTZcSQtAgltHsYlBlwmMKXD027ZpuFR-FizD9V2GbXoxuO3eDZZ5hpv2-a4ZcH2tlys0PbKqctzen8NNKX0_nBHx99WQWFWVVktTMVBW7AAmiHYBvZ2j7uZDxyePt74EI77Ie3_vjwNo5b70HcOhM8yxy3W1KJyiYM9S-hQHSWevo0KvNgw6FkBl599FbJ9b_23pXBiUPvjnkIpwZN2JNJTdkqFIgNFg-kirDPvYt68Cpf-9pPfNZy2BMShCUDTpyHsOVsGZPvwvy3rD6blwWUEMjhZnHmvypc2Fics-6ZrNrAnEu0000]--></g></svg>