<?xml version="1.0" encoding="UTF-8" standalone="no"?><svg xmlns="http://www.w3.org/2000/svg" xmlns:xlink="http://www.w3.org/1999/xlink" contentStyleType="text/css" height="393px" preserveAspectRatio="none" style="width:719px;height:393px;background:#FFFFFF;" version="1.1" viewBox="0 0 719 393" width="719px" zoomAndPan="magnify"><defs/><g><!--class VehicleCheckup--><g id="elem_VehicleCheckup"><rect codeLine="6" fill="#F1F1F1" height="100.8281" id="VehicleCheckup" rx="2.5" ry="2.5" style="stroke:#181818;stroke-width:0.5;" width="155" x="557" y="286"/><ellipse cx="581.45" cy="302" fill="#ADD1B2" rx="11" ry="11" style="stroke:#181818;stroke-width:1.0;"/><path d="M584.2156,297.875 Q584.3719,297.6563 584.5594,297.5469 Q584.7469,297.4375 584.9656,297.4375 Q585.3406,297.4375 585.575,297.7031 Q585.8094,297.9531 585.8094,298.5625 L585.8094,300.0156 Q585.8094,300.625 585.575,300.8906 Q585.3406,301.1563 584.9656,301.1563 Q584.6219,301.1563 584.4188,300.9531 Q584.2156,300.7656 584.1063,300.25 Q584.0594,299.8906 583.8719,299.7031 Q583.5438,299.3281 582.9344,299.1094 Q582.325,298.8906 581.7,298.8906 Q580.9344,298.8906 580.2938,299.2188 Q579.6688,299.5469 579.1688,300.2969 Q578.6844,301.0469 578.6844,302.0781 L578.6844,303.1719 Q578.6844,304.4063 579.575,305.2344 Q580.4656,306.0469 582.0594,306.0469 Q582.9969,306.0469 583.6531,305.7969 Q584.0438,305.6406 584.4656,305.2031 Q584.7313,304.9375 584.8719,304.8594 Q585.0281,304.7813 585.2313,304.7813 Q585.5594,304.7813 585.8094,305.0469 Q586.075,305.2969 586.075,305.6406 Q586.075,305.9844 585.7313,306.3906 Q585.2313,306.9688 584.4344,307.2969 Q583.3563,307.75 582.0594,307.75 Q580.5438,307.75 579.3406,307.125 Q578.3563,306.625 577.6688,305.5625 Q576.9813,304.4844 576.9813,303.2031 L576.9813,302.0469 Q576.9813,300.7188 577.5906,299.5781 Q578.2156,298.4219 579.3094,297.8125 Q580.4031,297.1875 581.6375,297.1875 Q582.3719,297.1875 583.0125,297.3594 Q583.6688,297.5156 584.2156,297.875 Z " fill="#000000"/><text fill="#000000" font-family="sans-serif" font-size="14" lengthAdjust="spacing" textLength="102" x="597.55" y="307.7285">VehicleCheckup</text><line style="stroke:#181818;stroke-width:0.5;" x1="558" x2="711" y1="318" y2="318"/><rect fill="none" height="6" style="stroke:#C82930;stroke-width:1.0;" width="6" x="565" y="329.3047"/><text fill="#000000" font-family="sans-serif" font-size="14" lengthAdjust="spacing" textLength="129" x="577" y="336.5332">plateNumber : String</text><rect fill="none" height="6" style="stroke:#C82930;stroke-width:1.0;" width="6" x="565" y="346.9141"/><text fill="#000000" font-family="sans-serif" font-size="14" lengthAdjust="spacing" textLength="70" x="577" y="354.1426">date : Date</text><rect fill="none" height="6" style="stroke:#C82930;stroke-width:1.0;" width="6" x="565" y="364.5234"/><text fill="#000000" font-family="sans-serif" font-size="14" lengthAdjust="spacing" textLength="114" x="577" y="371.752">kmAtCheckup : int</text><line style="stroke:#181818;stroke-width:0.5;" x1="558" x2="711" y1="378.8281" y2="378.8281"/></g><!--class MaintenanceRepository--><g id="elem_MaintenanceRepository"><rect codeLine="13" fill="#F1F1F1" height="65.6094" id="MaintenanceRepository" rx="2.5" ry="2.5" style="stroke:#181818;stroke-width:0.5;" width="515" x="7" y="303.5"/><ellipse cx="185.75" cy="319.5" fill="#ADD1B2" rx="11" ry="11" style="stroke:#181818;stroke-width:1.0;"/><path d="M188.5156,315.375 Q188.6719,315.1563 188.8594,315.0469 Q189.0469,314.9375 189.2656,314.9375 Q189.6406,314.9375 189.875,315.2031 Q190.1094,315.4531 190.1094,316.0625 L190.1094,317.5156 Q190.1094,318.125 189.875,318.3906 Q189.6406,318.6563 189.2656,318.6563 Q188.9219,318.6563 188.7188,318.4531 Q188.5156,318.2656 188.4063,317.75 Q188.3594,317.3906 188.1719,317.2031 Q187.8438,316.8281 187.2344,316.6094 Q186.625,316.3906 186,316.3906 Q185.2344,316.3906 184.5938,316.7188 Q183.9688,317.0469 183.4688,317.7969 Q182.9844,318.5469 182.9844,319.5781 L182.9844,320.6719 Q182.9844,321.9063 183.875,322.7344 Q184.7656,323.5469 186.3594,323.5469 Q187.2969,323.5469 187.9531,323.2969 Q188.3438,323.1406 188.7656,322.7031 Q189.0313,322.4375 189.1719,322.3594 Q189.3281,322.2813 189.5313,322.2813 Q189.8594,322.2813 190.1094,322.5469 Q190.375,322.7969 190.375,323.1406 Q190.375,323.4844 190.0313,323.8906 Q189.5313,324.4688 188.7344,324.7969 Q187.6563,325.25 186.3594,325.25 Q184.8438,325.25 183.6406,324.625 Q182.6563,324.125 181.9688,323.0625 Q181.2813,321.9844 181.2813,320.7031 L181.2813,319.5469 Q181.2813,318.2188 181.8906,317.0781 Q182.5156,315.9219 183.6094,315.3125 Q184.7031,314.6875 185.9375,314.6875 Q186.6719,314.6875 187.3125,314.8594 Q187.9688,315.0156 188.5156,315.375 Z " fill="#000000"/><text fill="#000000" font-family="sans-serif" font-size="14" lengthAdjust="spacing" textLength="149" x="206.25" y="325.2285">MaintenanceRepository</text><line style="stroke:#181818;stroke-width:0.5;" x1="8" x2="521" y1="335.5" y2="335.5"/><line style="stroke:#181818;stroke-width:0.5;" x1="8" x2="521" y1="343.5" y2="343.5"/><ellipse cx="18" cy="357.8047" fill="#84BE84" rx="3" ry="3" style="stroke:#038048;stroke-width:1.0;"/><text fill="#000000" font-family="sans-serif" font-size="14" lengthAdjust="spacing" textLength="489" x="27" y="362.0332">registerVehicleCheckup(plateNumber : String, date : Date, kmAtCheckup : int)</text></g><!--class Repositories--><g id="elem_Repositories"><rect codeLine="17" fill="#F1F1F1" height="136.0469" id="Repositories" rx="2.5" ry="2.5" style="stroke:#181818;stroke-width:0.5;" width="336" x="96.5" y="120"/><ellipse cx="220.75" cy="136" fill="#ADD1B2" rx="11" ry="11" style="stroke:#181818;stroke-width:1.0;"/><path d="M223.5156,131.875 Q223.6719,131.6563 223.8594,131.5469 Q224.0469,131.4375 224.2656,131.4375 Q224.6406,131.4375 224.875,131.7031 Q225.1094,131.9531 225.1094,132.5625 L225.1094,134.0156 Q225.1094,134.625 224.875,134.8906 Q224.6406,135.1563 224.2656,135.1563 Q223.9219,135.1563 223.7188,134.9531 Q223.5156,134.7656 223.4063,134.25 Q223.3594,133.8906 223.1719,133.7031 Q222.8438,133.3281 222.2344,133.1094 Q221.625,132.8906 221,132.8906 Q220.2344,132.8906 219.5938,133.2188 Q218.9688,133.5469 218.4688,134.2969 Q217.9844,135.0469 217.9844,136.0781 L217.9844,137.1719 Q217.9844,138.4063 218.875,139.2344 Q219.7656,140.0469 221.3594,140.0469 Q222.2969,140.0469 222.9531,139.7969 Q223.3438,139.6406 223.7656,139.2031 Q224.0313,138.9375 224.1719,138.8594 Q224.3281,138.7813 224.5313,138.7813 Q224.8594,138.7813 225.1094,139.0469 Q225.375,139.2969 225.375,139.6406 Q225.375,139.9844 225.0313,140.3906 Q224.5313,140.9688 223.7344,141.2969 Q222.6563,141.75 221.3594,141.75 Q219.8438,141.75 218.6406,141.125 Q217.6563,140.625 216.9688,139.5625 Q216.2813,138.4844 216.2813,137.2031 L216.2813,136.0469 Q216.2813,134.7188 216.8906,133.5781 Q217.5156,132.4219 218.6094,131.8125 Q219.7031,131.1875 220.9375,131.1875 Q221.6719,131.1875 222.3125,131.3594 Q222.9688,131.5156 223.5156,131.875 Z " fill="#000000"/><text fill="#000000" font-family="sans-serif" font-size="14" lengthAdjust="spacing" textLength="79" x="241.25" y="141.7285">Repositories</text><line style="stroke:#181818;stroke-width:0.5;" x1="97.5" x2="431.5" y1="152" y2="152"/><rect fill="none" height="6" style="stroke:#C82930;stroke-width:1.0;" width="6" x="104.5" y="163.3047"/><text fill="#000000" font-family="sans-serif" font-size="14" lengthAdjust="spacing" textLength="310" x="116.5" y="170.5332">maintenanceRepository : MaintenanceRepository</text><rect fill="none" height="6" style="stroke:#C82930;stroke-width:1.0;" width="6" x="104.5" y="180.9141"/><text fill="#000000" font-family="sans-serif" font-size="14" lengthAdjust="spacing" textLength="144" x="116.5" y="188.1426">instance : Repositories</text><line style="stroke:#181818;stroke-width:0.5;" x1="97.5" x2="431.5" y1="195.2188" y2="195.2188"/><rect fill="#F24D5C" height="6" style="stroke:#C82930;stroke-width:1.0;" width="6" x="104.5" y="206.5234"/><text fill="#000000" font-family="sans-serif" font-size="14" lengthAdjust="spacing" textLength="89" x="116.5" y="213.752">Repositories()</text><ellipse cx="107.5" cy="227.1328" fill="#84BE84" rx="3" ry="3" style="stroke:#038048;stroke-width:1.0;"/><text fill="#000000" font-family="sans-serif" font-size="14" lengthAdjust="spacing" textLength="174" x="116.5" y="231.3613">getInstance() : Repositories</text><ellipse cx="107.5" cy="244.7422" fill="#84BE84" rx="3" ry="3" style="stroke:#038048;stroke-width:1.0;"/><text fill="#000000" font-family="sans-serif" font-size="14" lengthAdjust="spacing" textLength="179" x="116.5" y="248.9707">getMaintenanceRepository()</text></g><!--class RegisterMaintenanceController--><g id="elem_RegisterMaintenanceController"><rect codeLine="25" fill="#F1F1F1" height="83.2188" id="RegisterMaintenanceController" rx="2.5" ry="2.5" style="stroke:#181818;stroke-width:0.5;" width="232" x="418.5" y="7"/><ellipse cx="435.3" cy="23" fill="#ADD1B2" rx="11" ry="11" style="stroke:#181818;stroke-width:1.0;"/><path d="M438.0656,18.875 Q438.2219,18.6563 438.4094,18.5469 Q438.5969,18.4375 438.8156,18.4375 Q439.1906,18.4375 439.425,18.7031 Q439.6594,18.9531 439.6594,19.5625 L439.6594,21.0156 Q439.6594,21.625 439.425,21.8906 Q439.1906,22.1563 438.8156,22.1563 Q438.4719,22.1563 438.2688,21.9531 Q438.0656,21.7656 437.9563,21.25 Q437.9094,20.8906 437.7219,20.7031 Q437.3938,20.3281 436.7844,20.1094 Q436.175,19.8906 435.55,19.8906 Q434.7844,19.8906 434.1438,20.2188 Q433.5188,20.5469 433.0188,21.2969 Q432.5344,22.0469 432.5344,23.0781 L432.5344,24.1719 Q432.5344,25.4063 433.425,26.2344 Q434.3156,27.0469 435.9094,27.0469 Q436.8469,27.0469 437.5031,26.7969 Q437.8938,26.6406 438.3156,26.2031 Q438.5813,25.9375 438.7219,25.8594 Q438.8781,25.7813 439.0813,25.7813 Q439.4094,25.7813 439.6594,26.0469 Q439.925,26.2969 439.925,26.6406 Q439.925,26.9844 439.5813,27.3906 Q439.0813,27.9688 438.2844,28.2969 Q437.2063,28.75 435.9094,28.75 Q434.3938,28.75 433.1906,28.125 Q432.2063,27.625 431.5188,26.5625 Q430.8313,25.4844 430.8313,24.2031 L430.8313,23.0469 Q430.8313,21.7188 431.4406,20.5781 Q432.0656,19.4219 433.1594,18.8125 Q434.2531,18.1875 435.4875,18.1875 Q436.2219,18.1875 436.8625,18.3594 Q437.5188,18.5156 438.0656,18.875 Z " fill="#000000"/><text fill="#000000" font-family="sans-serif" font-size="14" lengthAdjust="spacing" textLength="196" x="449.7" y="28.7285">RegisterMaintenanceController</text><line style="stroke:#181818;stroke-width:0.5;" x1="419.5" x2="649.5" y1="39" y2="39"/><line style="stroke:#181818;stroke-width:0.5;" x1="419.5" x2="649.5" y1="47" y2="47"/><ellipse cx="429.5" cy="61.3047" fill="#84BE84" rx="3" ry="3" style="stroke:#038048;stroke-width:1.0;"/><text fill="#000000" font-family="sans-serif" font-size="14" lengthAdjust="spacing" textLength="206" x="438.5" y="65.5332">RegisterMaintenanceController()</text><ellipse cx="429.5" cy="78.9141" fill="#84BE84" rx="3" ry="3" style="stroke:#038048;stroke-width:1.0;"/><text fill="#000000" font-family="sans-serif" font-size="14" lengthAdjust="spacing" textLength="179" x="438.5" y="83.1426">getMaintenanceRepository()</text></g><!--class RegisterMaintenanceUI--><g id="elem_RegisterMaintenanceUI"><rect codeLine="30" fill="#F1F1F1" height="48" id="RegisterMaintenanceUI" rx="2.5" ry="2.5" style="stroke:#181818;stroke-width:0.5;" width="178" x="205.5" y="24.5"/><ellipse cx="220.5" cy="40.5" fill="#ADD1B2" rx="11" ry="11" style="stroke:#181818;stroke-width:1.0;"/><path d="M223.2656,36.375 Q223.4219,36.1563 223.6094,36.0469 Q223.7969,35.9375 224.0156,35.9375 Q224.3906,35.9375 224.625,36.2031 Q224.8594,36.4531 224.8594,37.0625 L224.8594,38.5156 Q224.8594,39.125 224.625,39.3906 Q224.3906,39.6563 224.0156,39.6563 Q223.6719,39.6563 223.4688,39.4531 Q223.2656,39.2656 223.1563,38.75 Q223.1094,38.3906 222.9219,38.2031 Q222.5938,37.8281 221.9844,37.6094 Q221.375,37.3906 220.75,37.3906 Q219.9844,37.3906 219.3438,37.7188 Q218.7188,38.0469 218.2188,38.7969 Q217.7344,39.5469 217.7344,40.5781 L217.7344,41.6719 Q217.7344,42.9063 218.625,43.7344 Q219.5156,44.5469 221.1094,44.5469 Q222.0469,44.5469 222.7031,44.2969 Q223.0938,44.1406 223.5156,43.7031 Q223.7813,43.4375 223.9219,43.3594 Q224.0781,43.2813 224.2813,43.2813 Q224.6094,43.2813 224.8594,43.5469 Q225.125,43.7969 225.125,44.1406 Q225.125,44.4844 224.7813,44.8906 Q224.2813,45.4688 223.4844,45.7969 Q222.4063,46.25 221.1094,46.25 Q219.5938,46.25 218.3906,45.625 Q217.4063,45.125 216.7188,44.0625 Q216.0313,42.9844 216.0313,41.7031 L216.0313,40.5469 Q216.0313,39.2188 216.6406,38.0781 Q217.2656,36.9219 218.3594,36.3125 Q219.4531,35.6875 220.6875,35.6875 Q221.4219,35.6875 222.0625,35.8594 Q222.7188,36.0156 223.2656,36.375 Z " fill="#000000"/><text fill="#000000" font-family="sans-serif" font-size="14" lengthAdjust="spacing" textLength="146" x="234.5" y="46.2285">RegisterMaintenanceUI</text><line style="stroke:#181818;stroke-width:0.5;" x1="206.5" x2="382.5" y1="56.5" y2="56.5"/><line style="stroke:#181818;stroke-width:0.5;" x1="206.5" x2="382.5" y1="64.5" y2="64.5"/></g><!--link Repositories to Repositories--><g id="link_Repositories_Repositories"><path codeLine="33" d="M432.52,165.47 C453.61,169.44 467.5,176.95 467.5,188 C467.5,198.1 455.9,205.24 437.79,209.43 " fill="none" id="Repositories-to-Repositories" style="stroke:#181818;stroke-width:1.0;"/><polygon fill="#181818" points="432.52,210.53,442.151,212.5901,437.4127,209.4999,440.5029,204.7617,432.52,210.53" style="stroke:#181818;stroke-width:1.0;"/><text fill="#000000" font-family="sans-serif" font-size="13" lengthAdjust="spacing" textLength="49" x="473.5" y="193.4951">instance</text></g><!--link RegisterMaintenanceUI to RegisterMaintenanceController--><g id="link_RegisterMaintenanceUI_RegisterMaintenanceController"><path codeLine="35" d="M383.56,48.5 C393.44,48.5 403.31,48.5 413.19,48.5 " fill="none" id="RegisterMaintenanceUI-to-RegisterMaintenanceController" style="stroke:#181818;stroke-width:1.0;stroke-dasharray:7.0,7.0;"/><polygon fill="#181818" points="418.35,48.5,409.35,44.5,413.35,48.5,409.35,52.5,418.35,48.5" style="stroke:#181818;stroke-width:1.0;"/></g><!--link RegisterMaintenanceController to Repositories--><g id="link_RegisterMaintenanceController_Repositories"><path codeLine="37" d="M454.95,90.01 C437.89,98.7 419.39,108.12 400.86,117.56 " fill="none" id="RegisterMaintenanceController-to-Repositories" style="stroke:#181818;stroke-width:1.0;stroke-dasharray:7.0,7.0;"/><polygon fill="#181818" points="396.15,119.96,405.985,119.4374,400.6049,117.6897,402.3526,112.3096,396.15,119.96" style="stroke:#181818;stroke-width:1.0;"/></g><!--link RegisterMaintenanceController to MaintenanceRepository--><g id="link_RegisterMaintenanceController_MaintenanceRepository"><path codeLine="39" d="M542.16,90.09 C548.3,135.66 550.52,209.31 512.5,256 C496.71,275.39 476.16,290.12 453.66,301.28 " fill="none" id="RegisterMaintenanceController-to-MaintenanceRepository" style="stroke:#181818;stroke-width:1.0;stroke-dasharray:7.0,7.0;"/><polygon fill="#181818" points="449.13,303.47,458.974,303.1612,453.6331,301.2971,455.4973,295.9562,449.13,303.47" style="stroke:#181818;stroke-width:1.0;"/></g><!--link Repositories to MaintenanceRepository--><g id="link_Repositories_MaintenanceRepository"><path codeLine="41" d="M264.5,256.25 C264.5,270.6 264.5,285.25 264.5,298 " fill="none" id="Repositories-to-MaintenanceRepository" style="stroke:#181818;stroke-width:1.0;"/><polygon fill="#181818" points="264.5,303.34,268.5,294.34,264.5,298.34,260.5,294.34,264.5,303.34" style="stroke:#181818;stroke-width:1.0;"/><text fill="#000000" font-family="sans-serif" font-size="13" lengthAdjust="spacing" textLength="7" x="256.7781" y="292.4224">1</text></g><!--link MaintenanceRepository to VehicleCheckup--><g id="link_MaintenanceRepository_VehicleCheckup"><path codeLine="43" d="M522.13,336.5 C531.97,336.5 541.81,336.5 551.66,336.5 " fill="none" id="MaintenanceRepository-to-VehicleCheckup" style="stroke:#181818;stroke-width:1.0;"/><polygon fill="#181818" points="556.8,336.5,547.8,332.5,551.8,336.5,547.8,340.5,556.8,336.5" style="stroke:#181818;stroke-width:1.0;"/><text fill="#000000" font-family="sans-serif" font-size="13" lengthAdjust="spacing" textLength="7" x="529.8823" y="333.7686">1</text><text fill="#000000" font-family="sans-serif" font-size="13" lengthAdjust="spacing" textLength="5" x="543.9053" y="333.2334">*</text></g><!--link RegisterMaintenanceController to VehicleCheckup--><g id="link_RegisterMaintenanceController_VehicleCheckup"><path codeLine="46" d="M549.64,90.08 C553.24,99.86 557.04,110.29 560.5,120 C579.92,174.54 601.32,237.16 616.09,280.79 " fill="none" id="RegisterMaintenanceController-to-VehicleCheckup" style="stroke:#181818;stroke-width:1.0;stroke-dasharray:7.0,7.0;"/><polygon fill="#181818" points="617.77,285.75,618.6743,275.9427,616.1674,281.0138,611.0964,278.5069,617.77,285.75" style="stroke:#181818;stroke-width:1.0;"/></g><!--SRC=[dPDDJyCm38Rl-HLMBxImJkBQmoGqBZl00GJtq7fjr3If4a-eGlntqlL3wHR6H2zHxDT-NhkjhOLgkU4Ds8eN-bEe4lPSMcHspaYX4AXh4Lejk_x6s8t4FG5fCAAi20fXC2UX5MEvvDR2ErOYbxYjCAyFBNmnS4yAhUI4puVc0mray4h6ySPKuJ8kzkYECL8t3pGro40eOjziwl_4tHqLLpc-OAkj86sw4NC71ajX2StIHHoYhtpmwfoPzD21EOC4MeTAcw27BEpjw6oOIoXBVT99_PQUmW_7oJXKYRGRA-CaL7kK1E7nOefXDvvmgnKPBQLRoxJ1YohVqdzuRpl7SOB5GjFDSi7PlATU6Egntbos6QppPbqlYN_AdJxyQiy6YUwZtwJX3xSlwEjkevC_XrtZwhJa1m00]--></g></svg>