<?xml version="1.0" encoding="UTF-8" standalone="no"?><svg xmlns="http://www.w3.org/2000/svg" xmlns:xlink="http://www.w3.org/1999/xlink" contentStyleType="text/css" height="205px" preserveAspectRatio="none" style="width:355px;height:205px;background:#FFFFFF;" version="1.1" viewBox="0 0 355 205" width="355px" zoomAndPan="magnify"><defs/><g><!--class RunTestsUI--><g id="elem_RunTestsUI"><rect codeLine="6" fill="#F1F1F1" height="48" id="RunTestsUI" rx="2.5" ry="2.5" style="stroke:#181818;stroke-width:0.5;" width="105" x="38.5" y="7"/><ellipse cx="53.5" cy="23" fill="#ADD1B2" rx="11" ry="11" style="stroke:#181818;stroke-width:1.0;"/><path d="M56.2656,18.875 Q56.4219,18.6563 56.6094,18.5469 Q56.7969,18.4375 57.0156,18.4375 Q57.3906,18.4375 57.625,18.7031 Q57.8594,18.9531 57.8594,19.5625 L57.8594,21.0156 Q57.8594,21.625 57.625,21.8906 Q57.3906,22.1563 57.0156,22.1563 Q56.6719,22.1563 56.4688,21.9531 Q56.2656,21.7656 56.1563,21.25 Q56.1094,20.8906 55.9219,20.7031 Q55.5938,20.3281 54.9844,20.1094 Q54.375,19.8906 53.75,19.8906 Q52.9844,19.8906 52.3438,20.2188 Q51.7188,20.5469 51.2188,21.2969 Q50.7344,22.0469 50.7344,23.0781 L50.7344,24.1719 Q50.7344,25.4063 51.625,26.2344 Q52.5156,27.0469 54.1094,27.0469 Q55.0469,27.0469 55.7031,26.7969 Q56.0938,26.6406 56.5156,26.2031 Q56.7813,25.9375 56.9219,25.8594 Q57.0781,25.7813 57.2813,25.7813 Q57.6094,25.7813 57.8594,26.0469 Q58.125,26.2969 58.125,26.6406 Q58.125,26.9844 57.7813,27.3906 Q57.2813,27.9688 56.4844,28.2969 Q55.4063,28.75 54.1094,28.75 Q52.5938,28.75 51.3906,28.125 Q50.4063,27.625 49.7188,26.5625 Q49.0313,25.4844 49.0313,24.2031 L49.0313,23.0469 Q49.0313,21.7188 49.6406,20.5781 Q50.2656,19.4219 51.3594,18.8125 Q52.4531,18.1875 53.6875,18.1875 Q54.4219,18.1875 55.0625,18.3594 Q55.7188,18.5156 56.2656,18.875 Z " fill="#000000"/><text fill="#000000" font-family="sans-serif" font-size="14" lengthAdjust="spacing" textLength="73" x="67.5" y="28.7285">RunTestsUI</text><line style="stroke:#181818;stroke-width:0.5;" x1="39.5" x2="142.5" y1="39" y2="39"/><line style="stroke:#181818;stroke-width:0.5;" x1="39.5" x2="142.5" y1="47" y2="47"/></g><!--class RunTestsController--><g id="elem_RunTestsController"><rect codeLine="9" fill="#F1F1F1" height="48" id="RunTestsController" rx="2.5" ry="2.5" style="stroke:#181818;stroke-width:0.5;" width="155" x="178.5" y="7"/><ellipse cx="193.5" cy="23" fill="#ADD1B2" rx="11" ry="11" style="stroke:#181818;stroke-width:1.0;"/><path d="M196.2656,18.875 Q196.4219,18.6563 196.6094,18.5469 Q196.7969,18.4375 197.0156,18.4375 Q197.3906,18.4375 197.625,18.7031 Q197.8594,18.9531 197.8594,19.5625 L197.8594,21.0156 Q197.8594,21.625 197.625,21.8906 Q197.3906,22.1563 197.0156,22.1563 Q196.6719,22.1563 196.4688,21.9531 Q196.2656,21.7656 196.1563,21.25 Q196.1094,20.8906 195.9219,20.7031 Q195.5938,20.3281 194.9844,20.1094 Q194.375,19.8906 193.75,19.8906 Q192.9844,19.8906 192.3438,20.2188 Q191.7188,20.5469 191.2188,21.2969 Q190.7344,22.0469 190.7344,23.0781 L190.7344,24.1719 Q190.7344,25.4063 191.625,26.2344 Q192.5156,27.0469 194.1094,27.0469 Q195.0469,27.0469 195.7031,26.7969 Q196.0938,26.6406 196.5156,26.2031 Q196.7813,25.9375 196.9219,25.8594 Q197.0781,25.7813 197.2813,25.7813 Q197.6094,25.7813 197.8594,26.0469 Q198.125,26.2969 198.125,26.6406 Q198.125,26.9844 197.7813,27.3906 Q197.2813,27.9688 196.4844,28.2969 Q195.4063,28.75 194.1094,28.75 Q192.5938,28.75 191.3906,28.125 Q190.4063,27.625 189.7188,26.5625 Q189.0313,25.4844 189.0313,24.2031 L189.0313,23.0469 Q189.0313,21.7188 189.6406,20.5781 Q190.2656,19.4219 191.3594,18.8125 Q192.4531,18.1875 193.6875,18.1875 Q194.4219,18.1875 195.0625,18.3594 Q195.7188,18.5156 196.2656,18.875 Z " fill="#000000"/><text fill="#000000" font-family="sans-serif" font-size="14" lengthAdjust="spacing" textLength="123" x="207.5" y="28.7285">RunTestsController</text><line style="stroke:#181818;stroke-width:0.5;" x1="179.5" x2="332.5" y1="39" y2="39"/><line style="stroke:#181818;stroke-width:0.5;" x1="179.5" x2="332.5" y1="47" y2="47"/></g><!--class RunGraphWaterPoint--><g id="elem_RunGraphWaterPoint"><rect codeLine="12" fill="#F1F1F1" height="65.6094" id="RunGraphWaterPoint" rx="2.5" ry="2.5" style="stroke:#181818;stroke-width:0.5;" width="168" x="7" y="123.5"/><ellipse cx="22" cy="139.5" fill="#ADD1B2" rx="11" ry="11" style="stroke:#181818;stroke-width:1.0;"/><path d="M24.7656,135.375 Q24.9219,135.1563 25.1094,135.0469 Q25.2969,134.9375 25.5156,134.9375 Q25.8906,134.9375 26.125,135.2031 Q26.3594,135.4531 26.3594,136.0625 L26.3594,137.5156 Q26.3594,138.125 26.125,138.3906 Q25.8906,138.6563 25.5156,138.6563 Q25.1719,138.6563 24.9688,138.4531 Q24.7656,138.2656 24.6563,137.75 Q24.6094,137.3906 24.4219,137.2031 Q24.0938,136.8281 23.4844,136.6094 Q22.875,136.3906 22.25,136.3906 Q21.4844,136.3906 20.8438,136.7188 Q20.2188,137.0469 19.7188,137.7969 Q19.2344,138.5469 19.2344,139.5781 L19.2344,140.6719 Q19.2344,141.9063 20.125,142.7344 Q21.0156,143.5469 22.6094,143.5469 Q23.5469,143.5469 24.2031,143.2969 Q24.5938,143.1406 25.0156,142.7031 Q25.2813,142.4375 25.4219,142.3594 Q25.5781,142.2813 25.7813,142.2813 Q26.1094,142.2813 26.3594,142.5469 Q26.625,142.7969 26.625,143.1406 Q26.625,143.4844 26.2813,143.8906 Q25.7813,144.4688 24.9844,144.7969 Q23.9063,145.25 22.6094,145.25 Q21.0938,145.25 19.8906,144.625 Q18.9063,144.125 18.2188,143.0625 Q17.5313,141.9844 17.5313,140.7031 L17.5313,139.5469 Q17.5313,138.2188 18.1406,137.0781 Q18.7656,135.9219 19.8594,135.3125 Q20.9531,134.6875 22.1875,134.6875 Q22.9219,134.6875 23.5625,134.8594 Q24.2188,135.0156 24.7656,135.375 Z " fill="#000000"/><text fill="#000000" font-family="sans-serif" font-size="14" lengthAdjust="spacing" textLength="136" x="36" y="145.2285">RunGraphWaterPoint</text><line style="stroke:#181818;stroke-width:0.5;" x1="8" x2="174" y1="155.5" y2="155.5"/><line style="stroke:#181818;stroke-width:0.5;" x1="8" x2="174" y1="163.5" y2="163.5"/><ellipse cx="18" cy="177.8047" fill="#84BE84" rx="3" ry="3" style="stroke:#038048;stroke-width:1.0;"/><text fill="#000000" font-family="sans-serif" font-size="14" lengthAdjust="spacing" textLength="85" x="27" y="182.0332">runCalculus()</text></g><!--class GraphTest--><g id="elem_GraphTest"><rect codeLine="16" fill="#F1F1F1" height="83.2188" id="GraphTest" rx="2.5" ry="2.5" style="stroke:#181818;stroke-width:0.5;" width="138" x="210" y="115"/><ellipse cx="242.1" cy="131" fill="#ADD1B2" rx="11" ry="11" style="stroke:#181818;stroke-width:1.0;"/><path d="M244.8656,126.875 Q245.0219,126.6563 245.2094,126.5469 Q245.3969,126.4375 245.6156,126.4375 Q245.9906,126.4375 246.225,126.7031 Q246.4594,126.9531 246.4594,127.5625 L246.4594,129.0156 Q246.4594,129.625 246.225,129.8906 Q245.9906,130.1563 245.6156,130.1563 Q245.2719,130.1563 245.0688,129.9531 Q244.8656,129.7656 244.7563,129.25 Q244.7094,128.8906 244.5219,128.7031 Q244.1938,128.3281 243.5844,128.1094 Q242.975,127.8906 242.35,127.8906 Q241.5844,127.8906 240.9438,128.2188 Q240.3188,128.5469 239.8188,129.2969 Q239.3344,130.0469 239.3344,131.0781 L239.3344,132.1719 Q239.3344,133.4063 240.225,134.2344 Q241.1156,135.0469 242.7094,135.0469 Q243.6469,135.0469 244.3031,134.7969 Q244.6938,134.6406 245.1156,134.2031 Q245.3813,133.9375 245.5219,133.8594 Q245.6781,133.7813 245.8813,133.7813 Q246.2094,133.7813 246.4594,134.0469 Q246.725,134.2969 246.725,134.6406 Q246.725,134.9844 246.3813,135.3906 Q245.8813,135.9688 245.0844,136.2969 Q244.0063,136.75 242.7094,136.75 Q241.1938,136.75 239.9906,136.125 Q239.0063,135.625 238.3188,134.5625 Q237.6313,133.4844 237.6313,132.2031 L237.6313,131.0469 Q237.6313,129.7188 238.2406,128.5781 Q238.8656,127.4219 239.9594,126.8125 Q241.0531,126.1875 242.2875,126.1875 Q243.0219,126.1875 243.6625,126.3594 Q244.3188,126.5156 244.8656,126.875 Z " fill="#000000"/><text fill="#000000" font-family="sans-serif" font-size="14" lengthAdjust="spacing" textLength="68" x="259.9" y="136.7285">GraphTest</text><line style="stroke:#181818;stroke-width:0.5;" x1="211" x2="347" y1="147" y2="147"/><text fill="#000000" font-family="sans-serif" font-size="14" lengthAdjust="spacing" textLength="109" x="216" y="165.5332">arrayList&lt;Route&gt;</text><line style="stroke:#181818;stroke-width:0.5;" x1="211" x2="347" y1="172.6094" y2="172.6094"/><ellipse cx="221" cy="186.9141" fill="#84BE84" rx="3" ry="3" style="stroke:#038048;stroke-width:1.0;"/><text fill="#000000" font-family="sans-serif" font-size="14" lengthAdjust="spacing" textLength="112" x="230" y="191.1426">compareResults()</text></g><!--SRC=[NOxD2i8m48JlUOeS5Lz1lFGWWWUfYkSbhcteDWcx6oGKtzrMYdzpsvblXfNEXmGClKtWEcZmg8NGCZg5q10QUGFImZNUVMZi3KY-4_81jIIqALAP3cEC8n2nTGud59NpRZ2FVxEAGJaI8V-6MuRKNa2H3z47jOEnerQMSwY0NAOiY-MdySAdmHa4PYXxBxgkOrRSp6qN-_5Rh54owJpm1000]--></g></svg>