<?xml version="1.0" encoding="UTF-8" standalone="no"?><svg xmlns="http://www.w3.org/2000/svg" xmlns:xlink="http://www.w3.org/1999/xlink" contentStyleType="text/css" height="526px" preserveAspectRatio="none" style="width:774px;height:526px;background:#FFFFFF;" version="1.1" viewBox="0 0 774 526" width="774px" zoomAndPan="magnify"><defs/><g><rect fill="#FFFFFF" height="333.7734" style="stroke:#181818;stroke-width:1.0;" width="10" x="18.5" y="92.6094"/><rect fill="#FFFFFF" height="311.4219" style="stroke:#181818;stroke-width:1.0;" width="10" x="248.5" y="114.9609"/><rect fill="#FFFFFF" height="240.7188" style="stroke:#181818;stroke-width:1.0;" width="10" x="395" y="155.3125"/><rect fill="#FFFFFF" height="177.7578" style="stroke:#181818;stroke-width:1.0;" width="10" x="518.5" y="187.9219"/><rect fill="#FFFFFF" height="73.7031" style="stroke:#181818;stroke-width:1.0;" width="10" x="663.5" y="218.2734"/><line style="stroke:#181818;stroke-width:0.5;stroke-dasharray:5.0,5.0;" x1="23" x2="23" y1="82.6094" y2="444.3828"/><line style="stroke:#181818;stroke-width:0.5;stroke-dasharray:5.0,5.0;" x1="253" x2="253" y1="82.6094" y2="444.3828"/><line style="stroke:#181818;stroke-width:0.5;stroke-dasharray:5.0,5.0;" x1="399.5" x2="399.5" y1="154.2656" y2="444.3828"/><line style="stroke:#181818;stroke-width:0.5;stroke-dasharray:5.0,5.0;" x1="523.5" x2="523.5" y1="82.6094" y2="444.3828"/><line style="stroke:#181818;stroke-width:0.5;stroke-dasharray:5.0,5.0;" x1="668.5" x2="668.5" y1="82.6094" y2="444.3828"/><text fill="#000000" font-family="sans-serif" font-size="14" lengthAdjust="spacing" textLength="31" x="5" y="79.5332">QAM</text><ellipse cx="23.5" cy="13.5" fill="#E3E3E3" rx="8" ry="8" style="stroke:#181818;stroke-width:0.5;"/><path d="M23.5,21.5 L23.5,48.5 M10.5,29.5 L36.5,29.5 M23.5,48.5 L10.5,63.5 M23.5,48.5 L36.5,63.5 " fill="none" style="stroke:#181818;stroke-width:0.5;"/><text fill="#000000" font-family="sans-serif" font-size="14" lengthAdjust="spacing" textLength="31" x="5" y="457.916">QAM</text><ellipse cx="23.5" cy="469.4922" fill="#E3E3E3" rx="8" ry="8" style="stroke:#181818;stroke-width:0.5;"/><path d="M23.5,477.4922 L23.5,504.4922 M10.5,485.4922 L36.5,485.4922 M23.5,504.4922 L10.5,519.4922 M23.5,504.4922 L36.5,519.4922 " fill="none" style="stroke:#181818;stroke-width:0.5;"/><rect fill="#E3E3E3" height="31.6094" rx="2.5" ry="2.5" style="stroke:#181818;stroke-width:0.5;" width="91" x="208" y="50"/><text fill="#000000" font-family="sans-serif" font-size="14" lengthAdjust="spacing" textLength="77" x="215" y="71.5332">:RunTestsUI</text><rect fill="#E3E3E3" height="31.6094" rx="2.5" ry="2.5" style="stroke:#181818;stroke-width:0.5;" width="91" x="208" y="443.3828"/><text fill="#000000" font-family="sans-serif" font-size="14" lengthAdjust="spacing" textLength="77" x="215" y="464.916">:RunTestsUI</text><rect fill="#E3E3E3" height="31.6094" rx="2.5" ry="2.5" style="stroke:#181818;stroke-width:0.5;" width="141" x="329.5" y="443.3828"/><text fill="#000000" font-family="sans-serif" font-size="14" lengthAdjust="spacing" textLength="127" x="336.5" y="464.916">:RunTestsController</text><rect fill="#E3E3E3" height="31.6094" rx="2.5" ry="2.5" style="stroke:#181818;stroke-width:0.5;" width="86" x="480.5" y="50"/><text fill="#000000" font-family="sans-serif" font-size="14" lengthAdjust="spacing" textLength="72" x="487.5" y="71.5332">:GraphTest</text><rect fill="#E3E3E3" height="31.6094" rx="2.5" ry="2.5" style="stroke:#181818;stroke-width:0.5;" width="86" x="480.5" y="443.3828"/><text fill="#000000" font-family="sans-serif" font-size="14" lengthAdjust="spacing" textLength="72" x="487.5" y="464.916">:GraphTest</text><rect fill="#E3E3E3" height="31.6094" rx="2.5" ry="2.5" style="stroke:#181818;stroke-width:0.5;" width="154" x="591.5" y="50"/><text fill="#000000" font-family="sans-serif" font-size="14" lengthAdjust="spacing" textLength="140" x="598.5" y="71.5332">:RunGraphWaterPoint</text><rect fill="#E3E3E3" height="31.6094" rx="2.5" ry="2.5" style="stroke:#181818;stroke-width:0.5;" width="154" x="591.5" y="443.3828"/><text fill="#000000" font-family="sans-serif" font-size="14" lengthAdjust="spacing" textLength="140" x="598.5" y="464.916">:RunGraphWaterPoint</text><rect fill="#FFFFFF" height="333.7734" style="stroke:#181818;stroke-width:1.0;" width="10" x="18.5" y="92.6094"/><rect fill="#FFFFFF" height="311.4219" style="stroke:#181818;stroke-width:1.0;" width="10" x="248.5" y="114.9609"/><rect fill="#FFFFFF" height="240.7188" style="stroke:#181818;stroke-width:1.0;" width="10" x="395" y="155.3125"/><rect fill="#FFFFFF" height="177.7578" style="stroke:#181818;stroke-width:1.0;" width="10" x="518.5" y="187.9219"/><rect fill="#FFFFFF" height="73.7031" style="stroke:#181818;stroke-width:1.0;" width="10" x="663.5" y="218.2734"/><polygon fill="#181818" points="236.5,110.9609,246.5,114.9609,236.5,118.9609,240.5,114.9609" style="stroke:#181818;stroke-width:1.0;"/><line style="stroke:#181818;stroke-width:1.0;" x1="28.5" x2="242.5" y1="114.9609" y2="114.9609"/><text fill="#000000" font-family="sans-serif" font-size="13" font-weight="bold" lengthAdjust="spacing" textLength="7" x="35.5" y="110.1045">1</text><text fill="#000000" font-family="sans-serif" font-size="13" lengthAdjust="spacing" textLength="102" x="46.5" y="110.1045">asks to run a test</text><polygon fill="#181818" points="317.5,141.3125,327.5,145.3125,317.5,149.3125,321.5,145.3125" style="stroke:#181818;stroke-width:1.0;"/><line style="stroke:#181818;stroke-width:1.0;" x1="258.5" x2="323.5" y1="145.3125" y2="145.3125"/><text fill="#000000" font-family="sans-serif" font-size="13" font-weight="bold" lengthAdjust="spacing" textLength="7" x="265.5" y="140.4561">2</text><text fill="#000000" font-family="sans-serif" font-size="13" lengthAdjust="spacing" textLength="36" x="276.5" y="140.4561">create</text><rect fill="#E3E3E3" height="31.6094" rx="2.5" ry="2.5" style="stroke:#181818;stroke-width:0.5;" width="141" x="329.5" y="122.9609"/><text fill="#000000" font-family="sans-serif" font-size="14" lengthAdjust="spacing" textLength="127" x="336.5" y="144.4941">:RunTestsController</text><polygon fill="#181818" points="506.5,183.9219,516.5,187.9219,506.5,191.9219,510.5,187.9219" style="stroke:#181818;stroke-width:1.0;"/><line style="stroke:#181818;stroke-width:1.0;" x1="405" x2="512.5" y1="187.9219" y2="187.9219"/><text fill="#000000" font-family="sans-serif" font-size="13" font-weight="bold" lengthAdjust="spacing" textLength="7" x="412" y="183.0654">3</text><text fill="#000000" font-family="sans-serif" font-size="13" lengthAdjust="spacing" textLength="25" x="423" y="183.0654">runs</text><polygon fill="#181818" points="651.5,214.2734,661.5,218.2734,651.5,222.2734,655.5,218.2734" style="stroke:#181818;stroke-width:1.0;"/><line style="stroke:#181818;stroke-width:1.0;" x1="528.5" x2="657.5" y1="218.2734" y2="218.2734"/><text fill="#000000" font-family="sans-serif" font-size="13" font-weight="bold" lengthAdjust="spacing" textLength="7" x="535.5" y="213.417">4</text><text fill="#000000" font-family="sans-serif" font-size="13" lengthAdjust="spacing" textLength="105" x="546.5" y="213.417">send inicial values</text><line style="stroke:#181818;stroke-width:1.0;" x1="673.5" x2="715.5" y1="248.625" y2="248.625"/><line style="stroke:#181818;stroke-width:1.0;" x1="715.5" x2="715.5" y1="248.625" y2="261.625"/><line style="stroke:#181818;stroke-width:1.0;" x1="674.5" x2="715.5" y1="261.625" y2="261.625"/><polygon fill="#181818" points="684.5,257.625,674.5,261.625,684.5,265.625,680.5,261.625" style="stroke:#181818;stroke-width:1.0;"/><text fill="#000000" font-family="sans-serif" font-size="13" font-weight="bold" lengthAdjust="spacing" textLength="7" x="680.5" y="243.7686">5</text><text fill="#000000" font-family="sans-serif" font-size="13" lengthAdjust="spacing" textLength="76" x="691.5" y="243.7686">runCalculus()</text><polygon fill="#181818" points="539.5,287.9766,529.5,291.9766,539.5,295.9766,535.5,291.9766" style="stroke:#181818;stroke-width:1.0;"/><line style="stroke:#181818;stroke-width:1.0;stroke-dasharray:2.0,2.0;" x1="533.5" x2="667.5" y1="291.9766" y2="291.9766"/><text fill="#000000" font-family="sans-serif" font-size="13" font-weight="bold" lengthAdjust="spacing" textLength="7" x="545.5" y="287.1201">6</text><text fill="#000000" font-family="sans-serif" font-size="13" lengthAdjust="spacing" textLength="39" x="556.5" y="287.1201">results</text><line style="stroke:#181818;stroke-width:1.0;" x1="528.5" x2="570.5" y1="322.3281" y2="322.3281"/><line style="stroke:#181818;stroke-width:1.0;" x1="570.5" x2="570.5" y1="322.3281" y2="335.3281"/><line style="stroke:#181818;stroke-width:1.0;" x1="529.5" x2="570.5" y1="335.3281" y2="335.3281"/><polygon fill="#181818" points="539.5,331.3281,529.5,335.3281,539.5,339.3281,535.5,335.3281" style="stroke:#181818;stroke-width:1.0;"/><text fill="#000000" font-family="sans-serif" font-size="13" font-weight="bold" lengthAdjust="spacing" textLength="7" x="535.5" y="317.4717">7</text><text fill="#000000" font-family="sans-serif" font-size="13" lengthAdjust="spacing" textLength="102" x="546.5" y="317.4717">compareResults()</text><polygon fill="#181818" points="416,361.6797,406,365.6797,416,369.6797,412,365.6797" style="stroke:#181818;stroke-width:1.0;"/><line style="stroke:#181818;stroke-width:1.0;stroke-dasharray:2.0,2.0;" x1="410" x2="522.5" y1="365.6797" y2="365.6797"/><text fill="#000000" font-family="sans-serif" font-size="13" font-weight="bold" lengthAdjust="spacing" textLength="7" x="422" y="360.8232">8</text><text fill="#000000" font-family="sans-serif" font-size="13" lengthAdjust="spacing" textLength="65" x="433" y="360.8232">test results</text><polygon fill="#181818" points="269.5,392.0313,259.5,396.0313,269.5,400.0313,265.5,396.0313" style="stroke:#181818;stroke-width:1.0;"/><line style="stroke:#181818;stroke-width:1.0;stroke-dasharray:2.0,2.0;" x1="263.5" x2="399" y1="396.0313" y2="396.0313"/><text fill="#000000" font-family="sans-serif" font-size="13" font-weight="bold" lengthAdjust="spacing" textLength="7" x="275.5" y="391.1748">9</text><text fill="#000000" font-family="sans-serif" font-size="13" lengthAdjust="spacing" textLength="65" x="286.5" y="391.1748">test results</text><polygon fill="#181818" points="34.5,422.3828,24.5,426.3828,34.5,430.3828,30.5,426.3828" style="stroke:#181818;stroke-width:1.0;"/><line style="stroke:#181818;stroke-width:1.0;stroke-dasharray:2.0,2.0;" x1="28.5" x2="252.5" y1="426.3828" y2="426.3828"/><text fill="#000000" font-family="sans-serif" font-size="13" font-weight="bold" lengthAdjust="spacing" textLength="14" x="40.5" y="421.5264">10</text><text fill="#000000" font-family="sans-serif" font-size="13" lengthAdjust="spacing" textLength="178" x="58.5" y="421.5264">Displays passed or failed tests</text><!--SRC=[VLDDJyCm3BtdLrWxmIJ-G0z8Q4W82QGnDd4scRT5IvCgJeRsxt7QqO-rp9SsyNlFpud3H-Cg35X2wPtNX-1BWXWIAMup5UeZxkapdYr181tHxMqVm0VS-X_Zzh13owGKfkXTAhyfA5dew0FCFfxUPu0CybL2YqQR2bs4MR5ARaqSUVDQ0pQl_-GNtiNWhQLGunRhrTiLyYLWTSZO6f1_nb8rvWiZXQKtha6ssylirfmaM_jKS0bPmCEZM8D2y4U6w24a1mWn5sbnBLkQw7Pp25K4ikVvN4Hq884D42stRcoGof5tiqJkIWIaEeymhSHwuAeVDLrakfOBO79RC4wE2IsSq2Qw8Tqxgya2NVwwZ5XUeDN99hwxLxTulJQ9aurZErkQCdIhuOkWzgMC1AqQNV6XfWcNon96lk597pqFu_DkhkjlPWOQQaAWk_CyA4BB4rV0i-7Aufdb3JBJ5kGXxT1O-SkAZPsUYanTRvKd-1S0]--></g></svg>