<?xml version="1.0" encoding="UTF-8" standalone="no"?><svg xmlns="http://www.w3.org/2000/svg" xmlns:xlink="http://www.w3.org/1999/xlink" contentStyleType="text/css" height="425px" preserveAspectRatio="none" style="width:568px;height:425px;background:#FFFFFF;" version="1.1" viewBox="0 0 568 425" width="568px" zoomAndPan="magnify"><defs/><g><rect fill="#FFFFFF" height="232.8125" style="stroke:#181818;stroke-width:1.0;" width="10" x="18.5" y="92.6094"/><rect fill="#FFFFFF" height="210.4609" style="stroke:#181818;stroke-width:1.0;" width="10" x="241.5" y="114.9609"/><rect fill="#FFFFFF" height="139.7578" style="stroke:#181818;stroke-width:1.0;" width="10" x="388" y="155.3125"/><rect fill="#FFFFFF" height="76.7969" style="stroke:#181818;stroke-width:1.0;" width="10" x="511.5" y="187.9219"/><line style="stroke:#181818;stroke-width:0.5;stroke-dasharray:5.0,5.0;" x1="23" x2="23" y1="82.6094" y2="343.4219"/><line style="stroke:#181818;stroke-width:0.5;stroke-dasharray:5.0,5.0;" x1="246" x2="246" y1="82.6094" y2="343.4219"/><line style="stroke:#181818;stroke-width:0.5;stroke-dasharray:5.0,5.0;" x1="392.5" x2="392.5" y1="154.2656" y2="343.4219"/><line style="stroke:#181818;stroke-width:0.5;stroke-dasharray:5.0,5.0;" x1="516.5" x2="516.5" y1="82.6094" y2="343.4219"/><text fill="#000000" font-family="sans-serif" font-size="14" lengthAdjust="spacing" textLength="31" x="5" y="79.5332">QAM</text><ellipse cx="23.5" cy="13.5" fill="#E3E3E3" rx="8" ry="8" style="stroke:#181818;stroke-width:0.5;"/><path d="M23.5,21.5 L23.5,48.5 M10.5,29.5 L36.5,29.5 M23.5,48.5 L10.5,63.5 M23.5,48.5 L36.5,63.5 " fill="none" style="stroke:#181818;stroke-width:0.5;"/><text fill="#000000" font-family="sans-serif" font-size="14" lengthAdjust="spacing" textLength="31" x="5" y="356.9551">QAM</text><ellipse cx="23.5" cy="368.5313" fill="#E3E3E3" rx="8" ry="8" style="stroke:#181818;stroke-width:0.5;"/><path d="M23.5,376.5313 L23.5,403.5313 M10.5,384.5313 L36.5,384.5313 M23.5,403.5313 L10.5,418.5313 M23.5,403.5313 L36.5,418.5313 " fill="none" style="stroke:#181818;stroke-width:0.5;"/><rect fill="#E3E3E3" height="31.6094" rx="2.5" ry="2.5" style="stroke:#181818;stroke-width:0.5;" width="91" x="201" y="50"/><text fill="#000000" font-family="sans-serif" font-size="14" lengthAdjust="spacing" textLength="77" x="208" y="71.5332">:RunTestsUI</text><rect fill="#E3E3E3" height="31.6094" rx="2.5" ry="2.5" style="stroke:#181818;stroke-width:0.5;" width="91" x="201" y="342.4219"/><text fill="#000000" font-family="sans-serif" font-size="14" lengthAdjust="spacing" textLength="77" x="208" y="363.9551">:RunTestsUI</text><rect fill="#E3E3E3" height="31.6094" rx="2.5" ry="2.5" style="stroke:#181818;stroke-width:0.5;" width="141" x="322.5" y="342.4219"/><text fill="#000000" font-family="sans-serif" font-size="14" lengthAdjust="spacing" textLength="127" x="329.5" y="363.9551">:RunTestsController</text><rect fill="#E3E3E3" height="31.6094" rx="2.5" ry="2.5" style="stroke:#181818;stroke-width:0.5;" width="86" x="473.5" y="50"/><text fill="#000000" font-family="sans-serif" font-size="14" lengthAdjust="spacing" textLength="72" x="480.5" y="71.5332">:GraphTest</text><rect fill="#E3E3E3" height="31.6094" rx="2.5" ry="2.5" style="stroke:#181818;stroke-width:0.5;" width="86" x="473.5" y="342.4219"/><text fill="#000000" font-family="sans-serif" font-size="14" lengthAdjust="spacing" textLength="72" x="480.5" y="363.9551">:GraphTest</text><rect fill="#FFFFFF" height="232.8125" style="stroke:#181818;stroke-width:1.0;" width="10" x="18.5" y="92.6094"/><rect fill="#FFFFFF" height="210.4609" style="stroke:#181818;stroke-width:1.0;" width="10" x="241.5" y="114.9609"/><rect fill="#FFFFFF" height="139.7578" style="stroke:#181818;stroke-width:1.0;" width="10" x="388" y="155.3125"/><rect fill="#FFFFFF" height="76.7969" style="stroke:#181818;stroke-width:1.0;" width="10" x="511.5" y="187.9219"/><polygon fill="#181818" points="229.5,110.9609,239.5,114.9609,229.5,118.9609,233.5,114.9609" style="stroke:#181818;stroke-width:1.0;"/><line style="stroke:#181818;stroke-width:1.0;" x1="28.5" x2="235.5" y1="114.9609" y2="114.9609"/><text fill="#000000" font-family="sans-serif" font-size="13" font-weight="bold" lengthAdjust="spacing" textLength="7" x="35.5" y="110.1045">1</text><text fill="#000000" font-family="sans-serif" font-size="13" lengthAdjust="spacing" textLength="102" x="46.5" y="110.1045">asks to run a test</text><polygon fill="#181818" points="310.5,141.3125,320.5,145.3125,310.5,149.3125,314.5,145.3125" style="stroke:#181818;stroke-width:1.0;"/><line style="stroke:#181818;stroke-width:1.0;" x1="251.5" x2="316.5" y1="145.3125" y2="145.3125"/><text fill="#000000" font-family="sans-serif" font-size="13" font-weight="bold" lengthAdjust="spacing" textLength="7" x="258.5" y="140.4561">2</text><text fill="#000000" font-family="sans-serif" font-size="13" lengthAdjust="spacing" textLength="36" x="269.5" y="140.4561">create</text><rect fill="#E3E3E3" height="31.6094" rx="2.5" ry="2.5" style="stroke:#181818;stroke-width:0.5;" width="141" x="322.5" y="122.9609"/><text fill="#000000" font-family="sans-serif" font-size="14" lengthAdjust="spacing" textLength="127" x="329.5" y="144.4941">:RunTestsController</text><polygon fill="#181818" points="499.5,183.9219,509.5,187.9219,499.5,191.9219,503.5,187.9219" style="stroke:#181818;stroke-width:1.0;"/><line style="stroke:#181818;stroke-width:1.0;" x1="398" x2="505.5" y1="187.9219" y2="187.9219"/><text fill="#000000" font-family="sans-serif" font-size="13" font-weight="bold" lengthAdjust="spacing" textLength="7" x="405" y="183.0654">3</text><text fill="#000000" font-family="sans-serif" font-size="13" lengthAdjust="spacing" textLength="25" x="416" y="183.0654">runs</text><rect fill="none" height="41.4453" style="stroke:#000000;stroke-width:1.5;" width="92" x="470.5" y="195.9219"/><path d="M470.5,195.9219 L532.5,195.9219 L532.5,203.9219 L522.5,213.9219 L470.5,213.9219 L470.5,195.9219 " fill="#EEEEEE" style="stroke:#000000;stroke-width:2.0;"/><text fill="#000000" font-family="sans-serif" font-size="13" font-weight="bold" lengthAdjust="spacing" textLength="17" x="483.5" y="211.417">ref</text><text fill="#000000" font-family="sans-serif" font-size="12" lengthAdjust="spacing" textLength="57" x="488" y="230.3789">Run Tests</text><polygon fill="#181818" points="409,260.7188,399,264.7188,409,268.7188,405,264.7188" style="stroke:#181818;stroke-width:1.0;"/><line style="stroke:#181818;stroke-width:1.0;stroke-dasharray:2.0,2.0;" x1="403" x2="515.5" y1="264.7188" y2="264.7188"/><text fill="#000000" font-family="sans-serif" font-size="13" font-weight="bold" lengthAdjust="spacing" textLength="7" x="415" y="259.8623">4</text><text fill="#000000" font-family="sans-serif" font-size="13" lengthAdjust="spacing" textLength="65" x="426" y="259.8623">test results</text><polygon fill="#181818" points="262.5,291.0703,252.5,295.0703,262.5,299.0703,258.5,295.0703" style="stroke:#181818;stroke-width:1.0;"/><line style="stroke:#181818;stroke-width:1.0;stroke-dasharray:2.0,2.0;" x1="256.5" x2="392" y1="295.0703" y2="295.0703"/><text fill="#000000" font-family="sans-serif" font-size="13" font-weight="bold" lengthAdjust="spacing" textLength="7" x="268.5" y="290.2139">5</text><text fill="#000000" font-family="sans-serif" font-size="13" lengthAdjust="spacing" textLength="65" x="279.5" y="290.2139">test results</text><polygon fill="#181818" points="34.5,321.4219,24.5,325.4219,34.5,329.4219,30.5,325.4219" style="stroke:#181818;stroke-width:1.0;"/><line style="stroke:#181818;stroke-width:1.0;stroke-dasharray:2.0,2.0;" x1="28.5" x2="245.5" y1="325.4219" y2="325.4219"/><text fill="#000000" font-family="sans-serif" font-size="13" font-weight="bold" lengthAdjust="spacing" textLength="7" x="40.5" y="320.5654">6</text><text fill="#000000" font-family="sans-serif" font-size="13" lengthAdjust="spacing" textLength="178" x="51.5" y="320.5654">Displays passed or failed tests</text><!--SRC=[VP9DRW8n38NtEON54eaBiAXKKQb2QXUbS01tna149Xd57YfkNplGOGPelSdVv-SN9tpmiSMC3JGffcgVKqCWkIF7_KcBrG5tz2cdG92f4eoxC0HuZtNwzd47MmnCpc4dANRD5sMdYqfIXid7y_i4a457fsdYAzzY59ZCLrrS4mjlbWNOBFyuNwGeEOL0kN2BzUhjXdpDsEwDBO1DhBe_eb2fw-0Ike3PavQ2kP871acGkmW8OaazrsUhgUkkXQQgW7cOJbMaogJOYEXpYz7HaONjceIvL06jpdTCBx4UkHf4fYsa8-Kp0N-4Th00_8YWMBjxxM9hThcY-hE-Q3NkmerAJV-uF5_ojzCZ3VT0uDefQw-csJlDuSLp6_34-XEPgGRzJblqGMVINsgWecyrMDcx_m00]--></g></svg>