<?xml version="1.0" encoding="UTF-8" standalone="no"?><svg xmlns="http://www.w3.org/2000/svg" xmlns:xlink="http://www.w3.org/1999/xlink" contentStyleType="text/css" height="1467px" preserveAspectRatio="none" style="width:2133px;height:1467px;background:#FFFFFF;" version="1.1" viewBox="0 0 2133 1467" width="2133px" zoomAndPan="magnify"><defs/><g><!--cluster UI--><g id="cluster_UI"><path d="M869.5,6 L884.5,6 A3.75,3.75 0 0 1 887,8.5 L894,29.6094 L1164.5,29.6094 A2.5,2.5 0 0 1 1167,32.1094 L1167,121.5 A2.5,2.5 0 0 1 1164.5,124 L869.5,124 A2.5,2.5 0 0 1 867,121.5 L867,8.5 A2.5,2.5 0 0 1 869.5,6 " fill="none" style="stroke:#000000;stroke-width:1.5;"/><line style="stroke:#000000;stroke-width:1.5;" x1="867" x2="894" y1="29.6094" y2="29.6094"/><text fill="#000000" font-family="sans-serif" font-size="14" font-weight="bold" lengthAdjust="spacing" textLength="14" x="871" y="22.5332">UI</text></g><!--cluster CONTROLLER--><g id="cluster_CONTROLLER"><path d="M837.5,157 L933.5,157 A3.75,3.75 0 0 1 936,159.5 L943,180.6094 L1196.5,180.6094 A2.5,2.5 0 0 1 1199,183.1094 L1199,324.5 A2.5,2.5 0 0 1 1196.5,327 L837.5,327 A2.5,2.5 0 0 1 835,324.5 L835,159.5 A2.5,2.5 0 0 1 837.5,157 " fill="none" style="stroke:#000000;stroke-width:1.5;"/><line style="stroke:#000000;stroke-width:1.5;" x1="835" x2="943" y1="180.6094" y2="180.6094"/><text fill="#000000" font-family="sans-serif" font-size="14" font-weight="bold" lengthAdjust="spacing" textLength="95" x="839" y="173.5332">CONTROLLER</text></g><!--cluster DOMAIN--><g id="cluster_DOMAIN"><path d="M1118.5,377 L1176.5,377 A3.75,3.75 0 0 1 1179,379.5 L1186,400.6094 L1665.5,400.6094 A2.5,2.5 0 0 1 1668,403.1094 L1668,1082.5 A2.5,2.5 0 0 1 1665.5,1085 L1118.5,1085 A2.5,2.5 0 0 1 1116,1082.5 L1116,379.5 A2.5,2.5 0 0 1 1118.5,377 " fill="none" style="stroke:#000000;stroke-width:1.5;"/><line style="stroke:#000000;stroke-width:1.5;" x1="1116" x2="1186" y1="400.6094" y2="400.6094"/><text fill="#000000" font-family="sans-serif" font-size="14" font-weight="bold" lengthAdjust="spacing" textLength="57" x="1120" y="393.5332">DOMAIN</text></g><!--cluster REPOSITORY--><g id="cluster_REPOSITORY"><path d="M1142.5,421 L1234.5,421 A3.75,3.75 0 0 1 1237,423.5 L1244,444.6094 L1641.5,444.6094 A2.5,2.5 0 0 1 1644,447.1094 L1644,820.5 A2.5,2.5 0 0 1 1641.5,823 L1142.5,823 A2.5,2.5 0 0 1 1140,820.5 L1140,423.5 A2.5,2.5 0 0 1 1142.5,421 " fill="none" style="stroke:#000000;stroke-width:1.5;"/><line style="stroke:#000000;stroke-width:1.5;" x1="1140" x2="1244" y1="444.6094" y2="444.6094"/><text fill="#000000" font-family="sans-serif" font-size="14" font-weight="bold" lengthAdjust="spacing" textLength="91" x="1144" y="437.5332">REPOSITORY</text></g><!--cluster MODEL--><g id="cluster_MODEL"><path d="M1297.5,873 L1349.5,873 A3.75,3.75 0 0 1 1352,875.5 L1359,896.6094 L1486.5,896.6094 A2.5,2.5 0 0 1 1489,899.1094 L1489,1058.5 A2.5,2.5 0 0 1 1486.5,1061 L1297.5,1061 A2.5,2.5 0 0 1 1295,1058.5 L1295,875.5 A2.5,2.5 0 0 1 1297.5,873 " fill="none" style="stroke:#000000;stroke-width:1.5;"/><line style="stroke:#000000;stroke-width:1.5;" x1="1295" x2="1359" y1="896.6094" y2="896.6094"/><text fill="#000000" font-family="sans-serif" font-size="14" font-weight="bold" lengthAdjust="spacing" textLength="51" x="1299" y="889.5332">MODEL</text></g><!--cluster EXTERNAL--><g id="cluster_EXTERNAL"><path d="M8.5,890.5 L81.5,890.5 A3.75,3.75 0 0 1 84,893 L91,914.1094 L1089.5,914.1094 A2.5,2.5 0 0 1 1092,916.6094 L1092,1343 A2.5,2.5 0 0 1 1089.5,1345.5 L8.5,1345.5 A2.5,2.5 0 0 1 6,1343 L6,893 A2.5,2.5 0 0 1 8.5,890.5 " fill="none" style="stroke:#000000;stroke-width:1.5;"/><line style="stroke:#000000;stroke-width:1.5;" x1="6" x2="91" y1="914.1094" y2="914.1094"/><text fill="#000000" font-family="sans-serif" font-size="14" font-weight="bold" lengthAdjust="spacing" textLength="72" x="10" y="907.0332">EXTERNAL</text></g><!--cluster DTO--><g id="cluster_DTO"><path d="M1694.5,890.5 L1724.5,890.5 A3.75,3.75 0 0 1 1727,893 L1734,914.1094 L2123.5,914.1094 A2.5,2.5 0 0 1 2126,916.6094 L2126,1457.5 A2.5,2.5 0 0 1 2123.5,1460 L1694.5,1460 A2.5,2.5 0 0 1 1692,1457.5 L1692,893 A2.5,2.5 0 0 1 1694.5,890.5 " fill="none" style="stroke:#000000;stroke-width:1.5;"/><line style="stroke:#000000;stroke-width:1.5;" x1="1692" x2="1734" y1="914.1094" y2="914.1094"/><text fill="#000000" font-family="sans-serif" font-size="14" font-weight="bold" lengthAdjust="spacing" textLength="29" x="1696" y="907.0332">DTO</text></g><!--class ListGreenSpacesUI--><g id="elem_ListGreenSpacesUI"><rect codeLine="6" fill="#F1F1F1" height="65.6094" id="ListGreenSpacesUI" rx="2.5" ry="2.5" style="stroke:#181818;stroke-width:0.5;" width="268" x="883" y="42"/><ellipse cx="952.25" cy="58" fill="#ADD1B2" rx="11" ry="11" style="stroke:#181818;stroke-width:1.0;"/><path d="M955.0156,53.875 Q955.1719,53.6563 955.3594,53.5469 Q955.5469,53.4375 955.7656,53.4375 Q956.1406,53.4375 956.375,53.7031 Q956.6094,53.9531 956.6094,54.5625 L956.6094,56.0156 Q956.6094,56.625 956.375,56.8906 Q956.1406,57.1563 955.7656,57.1563 Q955.4219,57.1563 955.2188,56.9531 Q955.0156,56.7656 954.9063,56.25 Q954.8594,55.8906 954.6719,55.7031 Q954.3438,55.3281 953.7344,55.1094 Q953.125,54.8906 952.5,54.8906 Q951.7344,54.8906 951.0938,55.2188 Q950.4688,55.5469 949.9688,56.2969 Q949.4844,57.0469 949.4844,58.0781 L949.4844,59.1719 Q949.4844,60.4063 950.375,61.2344 Q951.2656,62.0469 952.8594,62.0469 Q953.7969,62.0469 954.4531,61.7969 Q954.8438,61.6406 955.2656,61.2031 Q955.5313,60.9375 955.6719,60.8594 Q955.8281,60.7813 956.0313,60.7813 Q956.3594,60.7813 956.6094,61.0469 Q956.875,61.2969 956.875,61.6406 Q956.875,61.9844 956.5313,62.3906 Q956.0313,62.9688 955.2344,63.2969 Q954.1563,63.75 952.8594,63.75 Q951.3438,63.75 950.1406,63.125 Q949.1563,62.625 948.4688,61.5625 Q947.7813,60.4844 947.7813,59.2031 L947.7813,58.0469 Q947.7813,56.7188 948.3906,55.5781 Q949.0156,54.4219 950.1094,53.8125 Q951.2031,53.1875 952.4375,53.1875 Q953.1719,53.1875 953.8125,53.3594 Q954.4688,53.5156 955.0156,53.875 Z " fill="#000000"/><text fill="#000000" font-family="sans-serif" font-size="14" lengthAdjust="spacing" textLength="121" x="972.75" y="63.7285">ListGreenSpacesUI</text><line style="stroke:#181818;stroke-width:0.5;" x1="884" x2="1150" y1="74" y2="74"/><rect fill="none" height="6" style="stroke:#C82930;stroke-width:1.0;" width="6" x="891" y="85.3047"/><text fill="#000000" font-family="sans-serif" font-size="14" lengthAdjust="spacing" textLength="242" x="903" y="92.5332">controller : ListGreenSpacesController</text><line style="stroke:#181818;stroke-width:0.5;" x1="884" x2="1150" y1="99.6094" y2="99.6094"/></g><!--class ListGreenSpacesController--><g id="elem_ListGreenSpacesController"><rect codeLine="11" fill="#F1F1F1" height="118.4375" id="ListGreenSpacesController" rx="2.5" ry="2.5" style="stroke:#181818;stroke-width:0.5;" width="331" x="851.5" y="193"/><ellipse cx="927.25" cy="209" fill="#ADD1B2" rx="11" ry="11" style="stroke:#181818;stroke-width:1.0;"/><path d="M930.0156,204.875 Q930.1719,204.6563 930.3594,204.5469 Q930.5469,204.4375 930.7656,204.4375 Q931.1406,204.4375 931.375,204.7031 Q931.6094,204.9531 931.6094,205.5625 L931.6094,207.0156 Q931.6094,207.625 931.375,207.8906 Q931.1406,208.1563 930.7656,208.1563 Q930.4219,208.1563 930.2188,207.9531 Q930.0156,207.7656 929.9063,207.25 Q929.8594,206.8906 929.6719,206.7031 Q929.3438,206.3281 928.7344,206.1094 Q928.125,205.8906 927.5,205.8906 Q926.7344,205.8906 926.0938,206.2188 Q925.4688,206.5469 924.9688,207.2969 Q924.4844,208.0469 924.4844,209.0781 L924.4844,210.1719 Q924.4844,211.4063 925.375,212.2344 Q926.2656,213.0469 927.8594,213.0469 Q928.7969,213.0469 929.4531,212.7969 Q929.8438,212.6406 930.2656,212.2031 Q930.5313,211.9375 930.6719,211.8594 Q930.8281,211.7813 931.0313,211.7813 Q931.3594,211.7813 931.6094,212.0469 Q931.875,212.2969 931.875,212.6406 Q931.875,212.9844 931.5313,213.3906 Q931.0313,213.9688 930.2344,214.2969 Q929.1563,214.75 927.8594,214.75 Q926.3438,214.75 925.1406,214.125 Q924.1563,213.625 923.4688,212.5625 Q922.7813,211.4844 922.7813,210.2031 L922.7813,209.0469 Q922.7813,207.7188 923.3906,206.5781 Q924.0156,205.4219 925.1094,204.8125 Q926.2031,204.1875 927.4375,204.1875 Q928.1719,204.1875 928.8125,204.3594 Q929.4688,204.5156 930.0156,204.875 Z " fill="#000000"/><text fill="#000000" font-family="sans-serif" font-size="14" lengthAdjust="spacing" textLength="171" x="947.75" y="214.7285">ListGreenSpacesController</text><line style="stroke:#181818;stroke-width:0.5;" x1="852.5" x2="1181.5" y1="225" y2="225"/><rect fill="none" height="6" style="stroke:#C82930;stroke-width:1.0;" width="6" x="859.5" y="236.3047"/><text fill="#000000" font-family="sans-serif" font-size="14" lengthAdjust="spacing" textLength="161" x="871.5" y="243.5332">repositories: Repositories</text><rect fill="none" height="6" style="stroke:#C82930;stroke-width:1.0;" width="6" x="859.5" y="253.9141"/><text fill="#000000" font-family="sans-serif" font-size="14" lengthAdjust="spacing" textLength="305" x="871.5" y="261.1426">greenSpaceRepository : GreenSpaceRepository</text><line style="stroke:#181818;stroke-width:0.5;" x1="852.5" x2="1181.5" y1="268.2188" y2="268.2188"/><ellipse cx="862.5" cy="282.5234" fill="#84BE84" rx="3" ry="3" style="stroke:#038048;stroke-width:1.0;"/><text fill="#000000" font-family="sans-serif" font-size="14" lengthAdjust="spacing" textLength="181" x="871.5" y="286.752">ListGreenSpacesController()</text><ellipse cx="862.5" cy="300.1328" fill="#84BE84" rx="3" ry="3" style="stroke:#038048;stroke-width:1.0;"/><text fill="#000000" font-family="sans-serif" font-size="14" lengthAdjust="spacing" textLength="204" x="871.5" y="304.3613">getList() : List&lt;GreenSpaceDto&gt;</text></g><!--class Repositories--><g id="elem_Repositories"><rect codeLine="21" fill="#F1F1F1" height="136.0469" id="Repositories" rx="2.5" ry="2.5" style="stroke:#181818;stroke-width:0.5;" width="364" x="1185" y="457"/><ellipse cx="1323.25" cy="473" fill="#ADD1B2" rx="11" ry="11" style="stroke:#181818;stroke-width:1.0;"/><path d="M1326.0156,468.875 Q1326.1719,468.6563 1326.3594,468.5469 Q1326.5469,468.4375 1326.7656,468.4375 Q1327.1406,468.4375 1327.375,468.7031 Q1327.6094,468.9531 1327.6094,469.5625 L1327.6094,471.0156 Q1327.6094,471.625 1327.375,471.8906 Q1327.1406,472.1563 1326.7656,472.1563 Q1326.4219,472.1563 1326.2188,471.9531 Q1326.0156,471.7656 1325.9063,471.25 Q1325.8594,470.8906 1325.6719,470.7031 Q1325.3438,470.3281 1324.7344,470.1094 Q1324.125,469.8906 1323.5,469.8906 Q1322.7344,469.8906 1322.0938,470.2188 Q1321.4688,470.5469 1320.9688,471.2969 Q1320.4844,472.0469 1320.4844,473.0781 L1320.4844,474.1719 Q1320.4844,475.4063 1321.375,476.2344 Q1322.2656,477.0469 1323.8594,477.0469 Q1324.7969,477.0469 1325.4531,476.7969 Q1325.8438,476.6406 1326.2656,476.2031 Q1326.5313,475.9375 1326.6719,475.8594 Q1326.8281,475.7813 1327.0313,475.7813 Q1327.3594,475.7813 1327.6094,476.0469 Q1327.875,476.2969 1327.875,476.6406 Q1327.875,476.9844 1327.5313,477.3906 Q1327.0313,477.9688 1326.2344,478.2969 Q1325.1563,478.75 1323.8594,478.75 Q1322.3438,478.75 1321.1406,478.125 Q1320.1563,477.625 1319.4688,476.5625 Q1318.7813,475.4844 1318.7813,474.2031 L1318.7813,473.0469 Q1318.7813,471.7188 1319.3906,470.5781 Q1320.0156,469.4219 1321.1094,468.8125 Q1322.2031,468.1875 1323.4375,468.1875 Q1324.1719,468.1875 1324.8125,468.3594 Q1325.4688,468.5156 1326.0156,468.875 Z " fill="#000000"/><text fill="#000000" font-family="sans-serif" font-size="14" lengthAdjust="spacing" textLength="79" x="1343.75" y="478.7285">Repositories</text><line style="stroke:#181818;stroke-width:0.5;" x1="1186" x2="1548" y1="489" y2="489"/><rect fill="none" height="6" style="stroke:#C82930;stroke-width:1.0;" width="6" x="1193" y="500.3047"/><text fill="#000000" font-family="sans-serif" font-size="14" lengthAdjust="spacing" textLength="144" x="1205" y="507.5332">instance : Repositories</text><rect fill="none" height="6" style="stroke:#C82930;stroke-width:1.0;" width="6" x="1193" y="517.9141"/><text fill="#000000" font-family="sans-serif" font-size="14" lengthAdjust="spacing" textLength="305" x="1205" y="525.1426">greenSpaceRepository : GreenSpaceRepository</text><line style="stroke:#181818;stroke-width:0.5;" x1="1186" x2="1548" y1="532.2188" y2="532.2188"/><rect fill="#F24D5C" height="6" style="stroke:#C82930;stroke-width:1.0;" width="6" x="1193" y="543.5234"/><text fill="#000000" font-family="sans-serif" font-size="14" lengthAdjust="spacing" textLength="89" x="1205" y="550.752">Repositories()</text><ellipse cx="1196" cy="564.1328" fill="#84BE84" rx="3" ry="3" style="stroke:#038048;stroke-width:1.0;"/><text fill="#000000" font-family="sans-serif" font-size="14" lengthAdjust="spacing" textLength="174" x="1205" y="568.3613">getInstance() : Repositories</text><ellipse cx="1196" cy="581.7422" fill="#84BE84" rx="3" ry="3" style="stroke:#038048;stroke-width:1.0;"/><text fill="#000000" font-family="sans-serif" font-size="14" lengthAdjust="spacing" textLength="338" x="1205" y="585.9707">getGreenSpaceRepository() : GreenSpaceRepository</text></g><!--class GreenSpaceRepository--><g id="elem_GreenSpaceRepository"><rect codeLine="29" fill="#F1F1F1" height="136.0469" id="GreenSpaceRepository" rx="2.5" ry="2.5" style="stroke:#181818;stroke-width:0.5;" width="472" x="1156" y="671"/><ellipse cx="1313.75" cy="687" fill="#ADD1B2" rx="11" ry="11" style="stroke:#181818;stroke-width:1.0;"/><path d="M1316.5156,682.875 Q1316.6719,682.6563 1316.8594,682.5469 Q1317.0469,682.4375 1317.2656,682.4375 Q1317.6406,682.4375 1317.875,682.7031 Q1318.1094,682.9531 1318.1094,683.5625 L1318.1094,685.0156 Q1318.1094,685.625 1317.875,685.8906 Q1317.6406,686.1563 1317.2656,686.1563 Q1316.9219,686.1563 1316.7188,685.9531 Q1316.5156,685.7656 1316.4063,685.25 Q1316.3594,684.8906 1316.1719,684.7031 Q1315.8438,684.3281 1315.2344,684.1094 Q1314.625,683.8906 1314,683.8906 Q1313.2344,683.8906 1312.5938,684.2188 Q1311.9688,684.5469 1311.4688,685.2969 Q1310.9844,686.0469 1310.9844,687.0781 L1310.9844,688.1719 Q1310.9844,689.4063 1311.875,690.2344 Q1312.7656,691.0469 1314.3594,691.0469 Q1315.2969,691.0469 1315.9531,690.7969 Q1316.3438,690.6406 1316.7656,690.2031 Q1317.0313,689.9375 1317.1719,689.8594 Q1317.3281,689.7813 1317.5313,689.7813 Q1317.8594,689.7813 1318.1094,690.0469 Q1318.375,690.2969 1318.375,690.6406 Q1318.375,690.9844 1318.0313,691.3906 Q1317.5313,691.9688 1316.7344,692.2969 Q1315.6563,692.75 1314.3594,692.75 Q1312.8438,692.75 1311.6406,692.125 Q1310.6563,691.625 1309.9688,690.5625 Q1309.2813,689.4844 1309.2813,688.2031 L1309.2813,687.0469 Q1309.2813,685.7188 1309.8906,684.5781 Q1310.5156,683.4219 1311.6094,682.8125 Q1312.7031,682.1875 1313.9375,682.1875 Q1314.6719,682.1875 1315.3125,682.3594 Q1315.9688,682.5156 1316.5156,682.875 Z " fill="#000000"/><text fill="#000000" font-family="sans-serif" font-size="14" lengthAdjust="spacing" textLength="148" x="1334.25" y="692.7285">GreenSpaceRepository</text><line style="stroke:#181818;stroke-width:0.5;" x1="1157" x2="1627" y1="703" y2="703"/><rect fill="none" height="6" style="stroke:#C82930;stroke-width:1.0;" width="6" x="1164" y="714.3047"/><text fill="#000000" font-family="sans-serif" font-size="14" lengthAdjust="spacing" textLength="229" x="1176" y="721.5332">greenSpaceList : List&lt;GreenSpace&gt;</text><line style="stroke:#181818;stroke-width:0.5;" x1="1157" x2="1627" y1="728.6094" y2="728.6094"/><ellipse cx="1167" cy="742.9141" fill="#84BE84" rx="3" ry="3" style="stroke:#038048;stroke-width:1.0;"/><text fill="#000000" font-family="sans-serif" font-size="14" lengthAdjust="spacing" textLength="158" x="1176" y="747.1426">GreenSpaceRepository()</text><ellipse cx="1167" cy="760.5234" fill="#84BE84" rx="3" ry="3" style="stroke:#038048;stroke-width:1.0;"/><text fill="#000000" font-family="sans-serif" font-size="14" lengthAdjust="spacing" textLength="432" x="1176" y="764.752">getOrganizedList(loggedUser : UserSession) : List&lt;GreenSpaceDto&gt;</text><rect fill="#F24D5C" height="6" style="stroke:#C82930;stroke-width:1.0;" width="6" x="1164" y="775.1328"/><text fill="#000000" font-family="sans-serif" font-size="14" lengthAdjust="spacing" textLength="370" x="1176" y="782.3613">verifyEmptyList(listMatched : List&lt;GreenSpace&gt;) : Boolean</text><rect fill="#F24D5C" height="6" style="stroke:#C82930;stroke-width:1.0;" width="6" x="1164" y="792.7422"/><text fill="#000000" font-family="sans-serif" font-size="14" lengthAdjust="spacing" textLength="446" x="1176" y="799.9707">matchWithLoggedUser(loggedUser : UserSession) : List&lt;GreenSpace&gt;</text></g><!--class GreenSpace--><g id="elem_GreenSpace"><rect codeLine="38" fill="#F1F1F1" height="136.0469" id="GreenSpace" rx="2.5" ry="2.5" style="stroke:#181818;stroke-width:0.5;" width="161" x="1311.5" y="909"/><ellipse cx="1348.55" cy="925" fill="#ADD1B2" rx="11" ry="11" style="stroke:#181818;stroke-width:1.0;"/><path d="M1351.3156,920.875 Q1351.4719,920.6563 1351.6594,920.5469 Q1351.8469,920.4375 1352.0656,920.4375 Q1352.4406,920.4375 1352.675,920.7031 Q1352.9094,920.9531 1352.9094,921.5625 L1352.9094,923.0156 Q1352.9094,923.625 1352.675,923.8906 Q1352.4406,924.1563 1352.0656,924.1563 Q1351.7219,924.1563 1351.5188,923.9531 Q1351.3156,923.7656 1351.2063,923.25 Q1351.1594,922.8906 1350.9719,922.7031 Q1350.6438,922.3281 1350.0344,922.1094 Q1349.425,921.8906 1348.8,921.8906 Q1348.0344,921.8906 1347.3938,922.2188 Q1346.7688,922.5469 1346.2688,923.2969 Q1345.7844,924.0469 1345.7844,925.0781 L1345.7844,926.1719 Q1345.7844,927.4063 1346.675,928.2344 Q1347.5656,929.0469 1349.1594,929.0469 Q1350.0969,929.0469 1350.7531,928.7969 Q1351.1438,928.6406 1351.5656,928.2031 Q1351.8313,927.9375 1351.9719,927.8594 Q1352.1281,927.7813 1352.3313,927.7813 Q1352.6594,927.7813 1352.9094,928.0469 Q1353.175,928.2969 1353.175,928.6406 Q1353.175,928.9844 1352.8313,929.3906 Q1352.3313,929.9688 1351.5344,930.2969 Q1350.4563,930.75 1349.1594,930.75 Q1347.6438,930.75 1346.4406,930.125 Q1345.4563,929.625 1344.7688,928.5625 Q1344.0813,927.4844 1344.0813,926.2031 L1344.0813,925.0469 Q1344.0813,923.7188 1344.6906,922.5781 Q1345.3156,921.4219 1346.4094,920.8125 Q1347.5031,920.1875 1348.7375,920.1875 Q1349.4719,920.1875 1350.1125,920.3594 Q1350.7688,920.5156 1351.3156,920.875 Z " fill="#000000"/><text fill="#000000" font-family="sans-serif" font-size="14" lengthAdjust="spacing" textLength="80" x="1367.45" y="930.7285">GreenSpace</text><line style="stroke:#181818;stroke-width:0.5;" x1="1312.5" x2="1471.5" y1="941" y2="941"/><rect fill="none" height="6" style="stroke:#C82930;stroke-width:1.0;" width="6" x="1319.5" y="952.3047"/><text fill="#000000" font-family="sans-serif" font-size="14" lengthAdjust="spacing" textLength="84" x="1331.5" y="959.5332">name : String</text><rect fill="none" height="6" style="stroke:#C82930;stroke-width:1.0;" width="6" x="1319.5" y="969.9141"/><text fill="#000000" font-family="sans-serif" font-size="14" lengthAdjust="spacing" textLength="81" x="1331.5" y="977.1426">size : Double</text><rect fill="none" height="6" style="stroke:#C82930;stroke-width:1.0;" width="6" x="1319.5" y="987.5234"/><text fill="#000000" font-family="sans-serif" font-size="14" lengthAdjust="spacing" textLength="105" x="1331.5" y="994.752">manager : String</text><line style="stroke:#181818;stroke-width:0.5;" x1="1312.5" x2="1471.5" y1="1001.8281" y2="1001.8281"/><ellipse cx="1322.5" cy="1016.1328" fill="#84BE84" rx="3" ry="3" style="stroke:#038048;stroke-width:1.0;"/><text fill="#000000" font-family="sans-serif" font-size="14" lengthAdjust="spacing" textLength="135" x="1331.5" y="1020.3613">getManager() : String</text><ellipse cx="1322.5" cy="1033.7422" fill="#84BE84" rx="3" ry="3" style="stroke:#038048;stroke-width:1.0;"/><text fill="#000000" font-family="sans-serif" font-size="14" lengthAdjust="spacing" textLength="113" x="1331.5" y="1037.9707">getSize() : Double</text></g><!--class ApplicationSession--><g id="elem_ApplicationSession"><rect codeLine="48" fill="#F1F1F1" height="100.8281" id="ApplicationSession" rx="2.5" ry="2.5" style="stroke:#181818;stroke-width:0.5;" width="251" x="382.5" y="926.5"/><ellipse cx="444.25" cy="942.5" fill="#ADD1B2" rx="11" ry="11" style="stroke:#181818;stroke-width:1.0;"/><path d="M447.0156,938.375 Q447.1719,938.1563 447.3594,938.0469 Q447.5469,937.9375 447.7656,937.9375 Q448.1406,937.9375 448.375,938.2031 Q448.6094,938.4531 448.6094,939.0625 L448.6094,940.5156 Q448.6094,941.125 448.375,941.3906 Q448.1406,941.6563 447.7656,941.6563 Q447.4219,941.6563 447.2188,941.4531 Q447.0156,941.2656 446.9063,940.75 Q446.8594,940.3906 446.6719,940.2031 Q446.3438,939.8281 445.7344,939.6094 Q445.125,939.3906 444.5,939.3906 Q443.7344,939.3906 443.0938,939.7188 Q442.4688,940.0469 441.9688,940.7969 Q441.4844,941.5469 441.4844,942.5781 L441.4844,943.6719 Q441.4844,944.9063 442.375,945.7344 Q443.2656,946.5469 444.8594,946.5469 Q445.7969,946.5469 446.4531,946.2969 Q446.8438,946.1406 447.2656,945.7031 Q447.5313,945.4375 447.6719,945.3594 Q447.8281,945.2813 448.0313,945.2813 Q448.3594,945.2813 448.6094,945.5469 Q448.875,945.7969 448.875,946.1406 Q448.875,946.4844 448.5313,946.8906 Q448.0313,947.4688 447.2344,947.7969 Q446.1563,948.25 444.8594,948.25 Q443.3438,948.25 442.1406,947.625 Q441.1563,947.125 440.4688,946.0625 Q439.7813,944.9844 439.7813,943.7031 L439.7813,942.5469 Q439.7813,941.2188 440.3906,940.0781 Q441.0156,938.9219 442.1094,938.3125 Q443.2031,937.6875 444.4375,937.6875 Q445.1719,937.6875 445.8125,937.8594 Q446.4688,938.0156 447.0156,938.375 Z " fill="#000000"/><text fill="#000000" font-family="sans-serif" font-size="14" lengthAdjust="spacing" textLength="119" x="464.75" y="948.2285">ApplicationSession</text><line style="stroke:#181818;stroke-width:0.5;" x1="383.5" x2="632.5" y1="958.5" y2="958.5"/><ellipse cx="393.5" cy="972.8047" fill="none" rx="3" ry="3" style="stroke:#038048;stroke-width:1.0;"/><text fill="#000000" font-family="sans-serif" font-size="14" lengthAdjust="spacing" textLength="204" x="402.5" y="977.0332">getInstance : ApplicationSession</text><ellipse cx="393.5" cy="990.4141" fill="none" rx="3" ry="3" style="stroke:#038048;stroke-width:1.0;"/><text fill="#000000" font-family="sans-serif" font-size="14" lengthAdjust="spacing" textLength="225" x="402.5" y="994.6426">getSortAlgorithmClassName : String</text><ellipse cx="393.5" cy="1008.0234" fill="none" rx="3" ry="3" style="stroke:#038048;stroke-width:1.0;"/><text fill="#000000" font-family="sans-serif" font-size="14" lengthAdjust="spacing" textLength="209" x="402.5" y="1012.252">getCurrentSession : UserSession</text><line style="stroke:#181818;stroke-width:0.5;" x1="383.5" x2="632.5" y1="1019.3281" y2="1019.3281"/></g><!--class Sortable--><g id="elem_Sortable"><rect codeLine="54" fill="#F1F1F1" height="65.6094" id="Sortable" rx="2.5" ry="2.5" style="stroke:#181818;stroke-width:0.5;" width="328" x="748" y="944"/><ellipse cx="881.25" cy="960" fill="#B4A7E5" rx="11" ry="11" style="stroke:#181818;stroke-width:1.0;"/><path d="M882.2031,956.6406 L882.2031,963.2969 L883.9219,963.2969 Q884.5313,963.2969 884.7969,963.5313 Q885.0625,963.7656 885.0625,964.1563 Q885.0625,964.5313 884.7969,964.7656 Q884.5313,965 883.9219,965 L878.7813,965 Q878.1719,965 877.9063,964.7656 Q877.6406,964.5313 877.6406,964.1406 Q877.6406,963.7656 877.9063,963.5313 Q878.1719,963.2969 878.7813,963.2969 L880.5,963.2969 L880.5,956.6406 L878.7813,956.6406 Q878.1719,956.6406 877.9063,956.4063 Q877.6406,956.1719 877.6406,955.7813 Q877.6406,955.4063 877.9063,955.1719 Q878.1719,954.9375 878.7813,954.9375 L883.9219,954.9375 Q884.5313,954.9375 884.7969,955.1719 Q885.0625,955.4063 885.0625,955.7813 Q885.0625,956.1719 884.7969,956.4063 Q884.5313,956.6406 883.9219,956.6406 L882.2031,956.6406 Z " fill="#000000"/><text fill="#000000" font-family="sans-serif" font-size="14" font-style="italic" lengthAdjust="spacing" textLength="53" x="901.75" y="965.7285">Sortable</text><line style="stroke:#181818;stroke-width:0.5;" x1="749" x2="1075" y1="976" y2="976"/><line style="stroke:#181818;stroke-width:0.5;" x1="749" x2="1075" y1="984" y2="984"/><ellipse cx="759" cy="998.3047" fill="#84BE84" rx="3" ry="3" style="stroke:#038048;stroke-width:1.0;"/><text fill="#000000" font-family="sans-serif" font-size="14" lengthAdjust="spacing" textLength="302" x="768" y="1002.5332">sort(g : List&lt;GreenSpace&gt;) : List&lt;GreenSpace&gt;</text></g><!--class SortByAscending--><g id="elem_SortByAscending"><rect codeLine="57" fill="#F1F1F1" height="65.6094" id="SortByAscending" rx="2.5" ry="2.5" style="stroke:#181818;stroke-width:0.5;" width="328" x="22" y="1263.5"/><ellipse cx="127.75" cy="1279.5" fill="#ADD1B2" rx="11" ry="11" style="stroke:#181818;stroke-width:1.0;"/><path d="M130.5156,1275.375 Q130.6719,1275.1563 130.8594,1275.0469 Q131.0469,1274.9375 131.2656,1274.9375 Q131.6406,1274.9375 131.875,1275.2031 Q132.1094,1275.4531 132.1094,1276.0625 L132.1094,1277.5156 Q132.1094,1278.125 131.875,1278.3906 Q131.6406,1278.6563 131.2656,1278.6563 Q130.9219,1278.6563 130.7188,1278.4531 Q130.5156,1278.2656 130.4063,1277.75 Q130.3594,1277.3906 130.1719,1277.2031 Q129.8438,1276.8281 129.2344,1276.6094 Q128.625,1276.3906 128,1276.3906 Q127.2344,1276.3906 126.5938,1276.7188 Q125.9688,1277.0469 125.4688,1277.7969 Q124.9844,1278.5469 124.9844,1279.5781 L124.9844,1280.6719 Q124.9844,1281.9063 125.875,1282.7344 Q126.7656,1283.5469 128.3594,1283.5469 Q129.2969,1283.5469 129.9531,1283.2969 Q130.3438,1283.1406 130.7656,1282.7031 Q131.0313,1282.4375 131.1719,1282.3594 Q131.3281,1282.2813 131.5313,1282.2813 Q131.8594,1282.2813 132.1094,1282.5469 Q132.375,1282.7969 132.375,1283.1406 Q132.375,1283.4844 132.0313,1283.8906 Q131.5313,1284.4688 130.7344,1284.7969 Q129.6563,1285.25 128.3594,1285.25 Q126.8438,1285.25 125.6406,1284.625 Q124.6563,1284.125 123.9688,1283.0625 Q123.2813,1281.9844 123.2813,1280.7031 L123.2813,1279.5469 Q123.2813,1278.2188 123.8906,1277.0781 Q124.5156,1275.9219 125.6094,1275.3125 Q126.7031,1274.6875 127.9375,1274.6875 Q128.6719,1274.6875 129.3125,1274.8594 Q129.9688,1275.0156 130.5156,1275.375 Z " fill="#000000"/><text fill="#000000" font-family="sans-serif" font-size="14" lengthAdjust="spacing" textLength="108" x="148.25" y="1285.2285">SortByAscending</text><line style="stroke:#181818;stroke-width:0.5;" x1="23" x2="349" y1="1295.5" y2="1295.5"/><line style="stroke:#181818;stroke-width:0.5;" x1="23" x2="349" y1="1303.5" y2="1303.5"/><ellipse cx="33" cy="1317.8047" fill="#84BE84" rx="3" ry="3" style="stroke:#038048;stroke-width:1.0;"/><text fill="#000000" font-family="sans-serif" font-size="14" lengthAdjust="spacing" textLength="302" x="42" y="1322.0332">sort(g : List&lt;GreenSpace&gt;) : List&lt;GreenSpace&gt;</text></g><!--class SortByDescending--><g id="elem_SortByDescending"><rect codeLine="60" fill="#F1F1F1" height="65.6094" id="SortByDescending" rx="2.5" ry="2.5" style="stroke:#181818;stroke-width:0.5;" width="328" x="385" y="1263.5"/><ellipse cx="486.25" cy="1279.5" fill="#ADD1B2" rx="11" ry="11" style="stroke:#181818;stroke-width:1.0;"/><path d="M489.0156,1275.375 Q489.1719,1275.1563 489.3594,1275.0469 Q489.5469,1274.9375 489.7656,1274.9375 Q490.1406,1274.9375 490.375,1275.2031 Q490.6094,1275.4531 490.6094,1276.0625 L490.6094,1277.5156 Q490.6094,1278.125 490.375,1278.3906 Q490.1406,1278.6563 489.7656,1278.6563 Q489.4219,1278.6563 489.2188,1278.4531 Q489.0156,1278.2656 488.9063,1277.75 Q488.8594,1277.3906 488.6719,1277.2031 Q488.3438,1276.8281 487.7344,1276.6094 Q487.125,1276.3906 486.5,1276.3906 Q485.7344,1276.3906 485.0938,1276.7188 Q484.4688,1277.0469 483.9688,1277.7969 Q483.4844,1278.5469 483.4844,1279.5781 L483.4844,1280.6719 Q483.4844,1281.9063 484.375,1282.7344 Q485.2656,1283.5469 486.8594,1283.5469 Q487.7969,1283.5469 488.4531,1283.2969 Q488.8438,1283.1406 489.2656,1282.7031 Q489.5313,1282.4375 489.6719,1282.3594 Q489.8281,1282.2813 490.0313,1282.2813 Q490.3594,1282.2813 490.6094,1282.5469 Q490.875,1282.7969 490.875,1283.1406 Q490.875,1283.4844 490.5313,1283.8906 Q490.0313,1284.4688 489.2344,1284.7969 Q488.1563,1285.25 486.8594,1285.25 Q485.3438,1285.25 484.1406,1284.625 Q483.1563,1284.125 482.4688,1283.0625 Q481.7813,1281.9844 481.7813,1280.7031 L481.7813,1279.5469 Q481.7813,1278.2188 482.3906,1277.0781 Q483.0156,1275.9219 484.1094,1275.3125 Q485.2031,1274.6875 486.4375,1274.6875 Q487.1719,1274.6875 487.8125,1274.8594 Q488.4688,1275.0156 489.0156,1275.375 Z " fill="#000000"/><text fill="#000000" font-family="sans-serif" font-size="14" lengthAdjust="spacing" textLength="117" x="506.75" y="1285.2285">SortByDescending</text><line style="stroke:#181818;stroke-width:0.5;" x1="386" x2="712" y1="1295.5" y2="1295.5"/><line style="stroke:#181818;stroke-width:0.5;" x1="386" x2="712" y1="1303.5" y2="1303.5"/><ellipse cx="396" cy="1317.8047" fill="#84BE84" rx="3" ry="3" style="stroke:#038048;stroke-width:1.0;"/><text fill="#000000" font-family="sans-serif" font-size="14" lengthAdjust="spacing" textLength="302" x="405" y="1322.0332">sort(g : List&lt;GreenSpace&gt;) : List&lt;GreenSpace&gt;</text></g><!--class SortByType--><g id="elem_SortByType"><rect codeLine="63" fill="#F1F1F1" height="65.6094" id="SortByType" rx="2.5" ry="2.5" style="stroke:#181818;stroke-width:0.5;" width="328" x="748" y="1263.5"/><ellipse cx="870.75" cy="1279.5" fill="#ADD1B2" rx="11" ry="11" style="stroke:#181818;stroke-width:1.0;"/><path d="M873.5156,1275.375 Q873.6719,1275.1563 873.8594,1275.0469 Q874.0469,1274.9375 874.2656,1274.9375 Q874.6406,1274.9375 874.875,1275.2031 Q875.1094,1275.4531 875.1094,1276.0625 L875.1094,1277.5156 Q875.1094,1278.125 874.875,1278.3906 Q874.6406,1278.6563 874.2656,1278.6563 Q873.9219,1278.6563 873.7188,1278.4531 Q873.5156,1278.2656 873.4063,1277.75 Q873.3594,1277.3906 873.1719,1277.2031 Q872.8438,1276.8281 872.2344,1276.6094 Q871.625,1276.3906 871,1276.3906 Q870.2344,1276.3906 869.5938,1276.7188 Q868.9688,1277.0469 868.4688,1277.7969 Q867.9844,1278.5469 867.9844,1279.5781 L867.9844,1280.6719 Q867.9844,1281.9063 868.875,1282.7344 Q869.7656,1283.5469 871.3594,1283.5469 Q872.2969,1283.5469 872.9531,1283.2969 Q873.3438,1283.1406 873.7656,1282.7031 Q874.0313,1282.4375 874.1719,1282.3594 Q874.3281,1282.2813 874.5313,1282.2813 Q874.8594,1282.2813 875.1094,1282.5469 Q875.375,1282.7969 875.375,1283.1406 Q875.375,1283.4844 875.0313,1283.8906 Q874.5313,1284.4688 873.7344,1284.7969 Q872.6563,1285.25 871.3594,1285.25 Q869.8438,1285.25 868.6406,1284.625 Q867.6563,1284.125 866.9688,1283.0625 Q866.2813,1281.9844 866.2813,1280.7031 L866.2813,1279.5469 Q866.2813,1278.2188 866.8906,1277.0781 Q867.5156,1275.9219 868.6094,1275.3125 Q869.7031,1274.6875 870.9375,1274.6875 Q871.6719,1274.6875 872.3125,1274.8594 Q872.9688,1275.0156 873.5156,1275.375 Z " fill="#000000"/><text fill="#000000" font-family="sans-serif" font-size="14" lengthAdjust="spacing" textLength="74" x="891.25" y="1285.2285">SortByType</text><line style="stroke:#181818;stroke-width:0.5;" x1="749" x2="1075" y1="1295.5" y2="1295.5"/><line style="stroke:#181818;stroke-width:0.5;" x1="749" x2="1075" y1="1303.5" y2="1303.5"/><ellipse cx="759" cy="1317.8047" fill="#84BE84" rx="3" ry="3" style="stroke:#038048;stroke-width:1.0;"/><text fill="#000000" font-family="sans-serif" font-size="14" lengthAdjust="spacing" textLength="302" x="768" y="1322.0332">sort(g : List&lt;GreenSpace&gt;) : List&lt;GreenSpace&gt;</text></g><!--class GreenSpaceDto--><g id="elem_GreenSpaceDto"><rect codeLine="68" fill="#F1F1F1" height="294.5313" id="GreenSpaceDto" rx="2.5" ry="2.5" style="stroke:#181818;stroke-width:0.5;" width="212" x="1803" y="1149"/><ellipse cx="1853.75" cy="1165" fill="#ADD1B2" rx="11" ry="11" style="stroke:#181818;stroke-width:1.0;"/><path d="M1856.5156,1160.875 Q1856.6719,1160.6563 1856.8594,1160.5469 Q1857.0469,1160.4375 1857.2656,1160.4375 Q1857.6406,1160.4375 1857.875,1160.7031 Q1858.1094,1160.9531 1858.1094,1161.5625 L1858.1094,1163.0156 Q1858.1094,1163.625 1857.875,1163.8906 Q1857.6406,1164.1563 1857.2656,1164.1563 Q1856.9219,1164.1563 1856.7188,1163.9531 Q1856.5156,1163.7656 1856.4063,1163.25 Q1856.3594,1162.8906 1856.1719,1162.7031 Q1855.8438,1162.3281 1855.2344,1162.1094 Q1854.625,1161.8906 1854,1161.8906 Q1853.2344,1161.8906 1852.5938,1162.2188 Q1851.9688,1162.5469 1851.4688,1163.2969 Q1850.9844,1164.0469 1850.9844,1165.0781 L1850.9844,1166.1719 Q1850.9844,1167.4063 1851.875,1168.2344 Q1852.7656,1169.0469 1854.3594,1169.0469 Q1855.2969,1169.0469 1855.9531,1168.7969 Q1856.3438,1168.6406 1856.7656,1168.2031 Q1857.0313,1167.9375 1857.1719,1167.8594 Q1857.3281,1167.7813 1857.5313,1167.7813 Q1857.8594,1167.7813 1858.1094,1168.0469 Q1858.375,1168.2969 1858.375,1168.6406 Q1858.375,1168.9844 1858.0313,1169.3906 Q1857.5313,1169.9688 1856.7344,1170.2969 Q1855.6563,1170.75 1854.3594,1170.75 Q1852.8438,1170.75 1851.6406,1170.125 Q1850.6563,1169.625 1849.9688,1168.5625 Q1849.2813,1167.4844 1849.2813,1166.2031 L1849.2813,1165.0469 Q1849.2813,1163.7188 1849.8906,1162.5781 Q1850.5156,1161.4219 1851.6094,1160.8125 Q1852.7031,1160.1875 1853.9375,1160.1875 Q1854.6719,1160.1875 1855.3125,1160.3594 Q1855.9688,1160.5156 1856.5156,1160.875 Z " fill="#000000"/><text fill="#000000" font-family="sans-serif" font-size="14" lengthAdjust="spacing" textLength="102" x="1874.25" y="1170.7285">GreenSpaceDto</text><line style="stroke:#181818;stroke-width:0.5;" x1="1804" x2="2014" y1="1181" y2="1181"/><rect fill="none" height="6" style="stroke:#C82930;stroke-width:1.0;" width="6" x="1811" y="1192.3047"/><text fill="#000000" font-family="sans-serif" font-size="14" lengthAdjust="spacing" textLength="84" x="1823" y="1199.5332">name : String</text><rect fill="none" height="6" style="stroke:#C82930;stroke-width:1.0;" width="6" x="1811" y="1209.9141"/><text fill="#000000" font-family="sans-serif" font-size="14" lengthAdjust="spacing" textLength="151" x="1823" y="1217.1426">type : GreenSpaceType</text><rect fill="none" height="6" style="stroke:#C82930;stroke-width:1.0;" width="6" x="1811" y="1227.5234"/><text fill="#000000" font-family="sans-serif" font-size="14" lengthAdjust="spacing" textLength="86" x="1823" y="1234.752">area : Double</text><rect fill="none" height="6" style="stroke:#C82930;stroke-width:1.0;" width="6" x="1811" y="1245.1328"/><text fill="#000000" font-family="sans-serif" font-size="14" lengthAdjust="spacing" textLength="105" x="1823" y="1252.3613">manager : String</text><rect fill="none" height="6" style="stroke:#C82930;stroke-width:1.0;" width="6" x="1811" y="1262.7422"/><text fill="#000000" font-family="sans-serif" font-size="14" lengthAdjust="spacing" textLength="100" x="1823" y="1269.9707">address : String</text><rect fill="none" height="6" style="stroke:#C82930;stroke-width:1.0;" width="6" x="1811" y="1280.3516"/><text fill="#000000" font-family="sans-serif" font-size="14" lengthAdjust="spacing" textLength="70" x="1823" y="1287.5801">city : String</text><rect fill="none" height="6" style="stroke:#C82930;stroke-width:1.0;" width="6" x="1811" y="1297.9609"/><text fill="#000000" font-family="sans-serif" font-size="14" lengthAdjust="spacing" textLength="100" x="1823" y="1305.1895">zipCode : String</text><line style="stroke:#181818;stroke-width:0.5;" x1="1804" x2="2014" y1="1312.2656" y2="1312.2656"/><ellipse cx="1814" cy="1326.5703" fill="#84BE84" rx="3" ry="3" style="stroke:#038048;stroke-width:1.0;"/><text fill="#000000" font-family="sans-serif" font-size="14" lengthAdjust="spacing" textLength="115" x="1823" y="1330.7988">getName() : String</text><ellipse cx="1814" cy="1344.1797" fill="#84BE84" rx="3" ry="3" style="stroke:#038048;stroke-width:1.0;"/><text fill="#000000" font-family="sans-serif" font-size="14" lengthAdjust="spacing" textLength="186" x="1823" y="1348.4082">getType() : GreenSpaceType</text><ellipse cx="1814" cy="1361.7891" fill="#84BE84" rx="3" ry="3" style="stroke:#038048;stroke-width:1.0;"/><text fill="#000000" font-family="sans-serif" font-size="14" lengthAdjust="spacing" textLength="117" x="1823" y="1366.0176">getArea() : Double</text><ellipse cx="1814" cy="1379.3984" fill="#84BE84" rx="3" ry="3" style="stroke:#038048;stroke-width:1.0;"/><text fill="#000000" font-family="sans-serif" font-size="14" lengthAdjust="spacing" textLength="135" x="1823" y="1383.627">getManager() : String</text><ellipse cx="1814" cy="1397.0078" fill="#84BE84" rx="3" ry="3" style="stroke:#038048;stroke-width:1.0;"/><text fill="#000000" font-family="sans-serif" font-size="14" lengthAdjust="spacing" textLength="131" x="1823" y="1401.2363">getAddress() : String</text><ellipse cx="1814" cy="1414.6172" fill="#84BE84" rx="3" ry="3" style="stroke:#038048;stroke-width:1.0;"/><text fill="#000000" font-family="sans-serif" font-size="14" lengthAdjust="spacing" textLength="103" x="1823" y="1418.8457">getCity() : String</text><ellipse cx="1814" cy="1432.2266" fill="#84BE84" rx="3" ry="3" style="stroke:#038048;stroke-width:1.0;"/><text fill="#000000" font-family="sans-serif" font-size="14" lengthAdjust="spacing" textLength="132" x="1823" y="1436.4551">getZipCode() : String</text></g><!--class GreenSpaceMapper--><g id="elem_GreenSpaceMapper"><rect codeLine="85" fill="#F1F1F1" height="100.8281" id="GreenSpaceMapper" rx="2.5" ry="2.5" style="stroke:#181818;stroke-width:0.5;" width="401" x="1708.5" y="926.5"/><ellipse cx="1840.75" cy="942.5" fill="#ADD1B2" rx="11" ry="11" style="stroke:#181818;stroke-width:1.0;"/><path d="M1843.5156,938.375 Q1843.6719,938.1563 1843.8594,938.0469 Q1844.0469,937.9375 1844.2656,937.9375 Q1844.6406,937.9375 1844.875,938.2031 Q1845.1094,938.4531 1845.1094,939.0625 L1845.1094,940.5156 Q1845.1094,941.125 1844.875,941.3906 Q1844.6406,941.6563 1844.2656,941.6563 Q1843.9219,941.6563 1843.7188,941.4531 Q1843.5156,941.2656 1843.4063,940.75 Q1843.3594,940.3906 1843.1719,940.2031 Q1842.8438,939.8281 1842.2344,939.6094 Q1841.625,939.3906 1841,939.3906 Q1840.2344,939.3906 1839.5938,939.7188 Q1838.9688,940.0469 1838.4688,940.7969 Q1837.9844,941.5469 1837.9844,942.5781 L1837.9844,943.6719 Q1837.9844,944.9063 1838.875,945.7344 Q1839.7656,946.5469 1841.3594,946.5469 Q1842.2969,946.5469 1842.9531,946.2969 Q1843.3438,946.1406 1843.7656,945.7031 Q1844.0313,945.4375 1844.1719,945.3594 Q1844.3281,945.2813 1844.5313,945.2813 Q1844.8594,945.2813 1845.1094,945.5469 Q1845.375,945.7969 1845.375,946.1406 Q1845.375,946.4844 1845.0313,946.8906 Q1844.5313,947.4688 1843.7344,947.7969 Q1842.6563,948.25 1841.3594,948.25 Q1839.8438,948.25 1838.6406,947.625 Q1837.6563,947.125 1836.9688,946.0625 Q1836.2813,944.9844 1836.2813,943.7031 L1836.2813,942.5469 Q1836.2813,941.2188 1836.8906,940.0781 Q1837.5156,938.9219 1838.6094,938.3125 Q1839.7031,937.6875 1840.9375,937.6875 Q1841.6719,937.6875 1842.3125,937.8594 Q1842.9688,938.0156 1843.5156,938.375 Z " fill="#000000"/><text fill="#000000" font-family="sans-serif" font-size="14" lengthAdjust="spacing" textLength="128" x="1861.25" y="948.2285">GreenSpaceMapper</text><line style="stroke:#181818;stroke-width:0.5;" x1="1709.5" x2="2108.5" y1="958.5" y2="958.5"/><line style="stroke:#181818;stroke-width:0.5;" x1="1709.5" x2="2108.5" y1="966.5" y2="966.5"/><ellipse cx="1719.5" cy="980.8047" fill="#84BE84" rx="3" ry="3" style="stroke:#038048;stroke-width:1.0;"/><text fill="#000000" font-family="sans-serif" font-size="14" lengthAdjust="spacing" textLength="327" x="1728.5" y="985.0332">toDto(greenSpace : GreenSpace) : GreenSpaceDto</text><ellipse cx="1719.5" cy="998.4141" fill="#84BE84" rx="3" ry="3" style="stroke:#038048;stroke-width:1.0;"/><text fill="#000000" font-family="sans-serif" font-size="14" lengthAdjust="spacing" textLength="365" x="1728.5" y="1002.6426">toDtoList(list : List&lt;GreenSpace&gt;) : List&lt;GreenSpaceDto&gt;</text><ellipse cx="1719.5" cy="1016.0234" fill="#84BE84" rx="3" ry="3" style="stroke:#038048;stroke-width:1.0;"/><text fill="#000000" font-family="sans-serif" font-size="14" lengthAdjust="spacing" textLength="375" x="1728.5" y="1020.252">toDomain(greenSpaceDto : GreenSpaceDto) : GreenSpace</text></g><!--link ListGreenSpacesUI to ListGreenSpacesController--><g id="link_ListGreenSpacesUI_ListGreenSpacesController"><path codeLine="93" d="M1017,108.1 C1017,130.39 1017,160.84 1017,187.9 " fill="none" id="ListGreenSpacesUI-to-ListGreenSpacesController" style="stroke:#181818;stroke-width:1.0;stroke-dasharray:7.0,7.0;"/><polygon fill="#181818" points="1017,192.91,1021,183.91,1017,187.91,1013,183.91,1017,192.91" style="stroke:#181818;stroke-width:1.0;"/></g><!--link ListGreenSpacesController to Repositories--><g id="link_ListGreenSpacesController_Repositories"><path codeLine="94" d="M1092.08,311.14 C1146.03,352.9 1219.02,409.42 1276.23,453.72 " fill="none" id="ListGreenSpacesController-to-Repositories" style="stroke:#181818;stroke-width:1.0;stroke-dasharray:7.0,7.0;"/><polygon fill="#181818" points="1280.32,456.89,1275.6433,448.2223,1276.3633,453.8332,1270.7524,454.5531,1280.32,456.89" style="stroke:#181818;stroke-width:1.0;"/><text fill="#000000" font-family="sans-serif" font-size="13" lengthAdjust="spacing" textLength="67" x="1151" y="357.4951">repositories</text></g><!--link Repositories to Repositories--><g id="link_Repositories_Repositories"><path codeLine="95" d="M1549.05,508.04 C1570.22,511.17 1584,516.82 1584,525 C1584,532.47 1572.49,537.84 1554.34,541.1 " fill="none" id="Repositories-to-Repositories" style="stroke:#181818;stroke-width:1.0;"/><polygon fill="#181818" points="1549.05,541.96,1558.5746,544.4663,1553.9854,541.1589,1557.2928,536.5697,1549.05,541.96" style="stroke:#181818;stroke-width:1.0;"/><text fill="#000000" font-family="sans-serif" font-size="13" lengthAdjust="spacing" textLength="49" x="1590" y="530.4951">instance</text></g><!--link ListGreenSpacesController to GreenSpaceRepository--><g id="link_ListGreenSpacesController_GreenSpaceRepository"><path codeLine="96" d="M1002.68,311.1 C988.27,384.08 975.76,509.83 1035,593 C1063.8,633.43 1105.9,662.6 1151.16,683.65 " fill="none" id="ListGreenSpacesController-to-GreenSpaceRepository" style="stroke:#181818;stroke-width:1.0;stroke-dasharray:7.0,7.0;"/><polygon fill="#181818" points="1155.84,685.79,1149.3298,678.3996,1151.296,683.7038,1145.9919,685.67,1155.84,685.79" style="stroke:#181818;stroke-width:1.0;"/><text fill="#000000" font-family="sans-serif" font-size="13" lengthAdjust="spacing" textLength="131" x="1036" y="530.4951">greenSpaceRepository</text></g><!--link Repositories to GreenSpaceRepository--><g id="link_Repositories_GreenSpaceRepository"><path codeLine="97" d="M1374.91,593.08 C1377.65,616.29 1380.73,642.4 1383.51,666 " fill="none" id="Repositories-to-GreenSpaceRepository" style="stroke:#181818;stroke-width:1.0;"/><polygon fill="#181818" points="1384.1,670.99,1387.0195,661.5838,1383.515,666.0243,1379.0744,662.5198,1384.1,670.99" style="stroke:#181818;stroke-width:1.0;"/><text fill="#000000" font-family="sans-serif" font-size="13" lengthAdjust="spacing" textLength="131" x="1381" y="637.4951">greenSpaceRepository</text><text fill="#000000" font-family="sans-serif" font-size="13" lengthAdjust="spacing" textLength="7" x="1375.8531" y="660.1882">1</text></g><!--link GreenSpaceRepository to GreenSpace--><g id="link_GreenSpaceRepository_GreenSpace"><path codeLine="98" d="M1392,807.31 C1392,837.32 1392,872.73 1392,903.34 " fill="none" id="GreenSpaceRepository-to-GreenSpace" style="stroke:#181818;stroke-width:1.0;"/><polygon fill="#181818" points="1392,908.6,1396,899.6,1392,903.6,1388,899.6,1392,908.6" style="stroke:#181818;stroke-width:1.0;"/><text fill="#000000" font-family="sans-serif" font-size="13" lengthAdjust="spacing" textLength="5" x="1386.7422" y="898.2321">*</text></g><!--link GreenSpaceRepository to GreenSpaceMapper--><g id="link_GreenSpaceRepository_GreenSpaceMapper"><path codeLine="99" d="M1539.11,807.15 C1620.46,844.29 1720,889.73 1795.32,924.11 " fill="none" id="GreenSpaceRepository-to-GreenSpaceMapper" style="stroke:#181818;stroke-width:1.0;stroke-dasharray:7.0,7.0;"/><polygon fill="#181818" points="1800.25,926.36,1793.7206,918.9866,1795.7006,924.2856,1790.4016,926.2656,1800.25,926.36" style="stroke:#181818;stroke-width:1.0;"/><text fill="#000000" font-family="sans-serif" font-size="13" lengthAdjust="spacing" textLength="52" x="1635" y="853.4951">toDtoList</text></g><!--link GreenSpaceMapper to GreenSpaceDto--><g id="link_GreenSpaceMapper_GreenSpaceDto"><path codeLine="100" d="M1909,1027.61 C1909,1059.12 1909,1101.74 1909,1143.72 " fill="none" id="GreenSpaceMapper-to-GreenSpaceDto" style="stroke:#181818;stroke-width:1.0;stroke-dasharray:7.0,7.0;"/><polygon fill="#181818" points="1909,1148.83,1913,1139.83,1909,1143.83,1905,1139.83,1909,1148.83" style="stroke:#181818;stroke-width:1.0;"/></g><!--link GreenSpaceRepository to Sortable--><g id="link_GreenSpaceRepository_Sortable"><path codeLine="101" d="M1255.41,807.15 C1166.2,851.02 1053.4,906.48 981.95,941.61 " fill="none" id="GreenSpaceRepository-to-Sortable" style="stroke:#181818;stroke-width:1.0;stroke-dasharray:7.0,7.0;"/><polygon fill="#181818" points="977.31,943.89,987.1509,943.4931,981.7935,941.6768,983.6097,936.3195,977.31,943.89" style="stroke:#181818;stroke-width:1.0;"/><text fill="#000000" font-family="sans-serif" font-size="13" lengthAdjust="spacing" textLength="28" x="1181" y="853.4951">uses</text></g><!--link Sortable to SortByAscending--><g id="link_Sortable_SortByAscending"><path codeLine="102" d="M873.21,1010.02 C838.12,1037.07 783.85,1074.3 730,1093 C697.91,1104.14 687.65,1096.41 654,1101 C526.29,1118.42 485.58,1096.21 368,1149 C309.27,1175.37 253.41,1225.35 219.43,1259.54 " fill="none" id="Sortable-to-SortByAscending" style="stroke:#181818;stroke-width:1.0;"/><polygon fill="#181818" points="215.8,1263.21,224.9708,1259.6188,219.314,1259.6531,219.2798,1253.9964,215.8,1263.21" style="stroke:#181818;stroke-width:1.0;"/><text fill="#000000" font-family="sans-serif" font-size="13" lengthAdjust="spacing" textLength="88" x="655" y="1115.4951">is implemented</text></g><!--link Sortable to SortByDescending--><g id="link_Sortable_SortByDescending"><path codeLine="103" d="M875.2,1010.19 C806.89,1069.93 661,1197.53 589.8,1259.82 " fill="none" id="Sortable-to-SortByDescending" style="stroke:#181818;stroke-width:1.0;"/><polygon fill="#181818" points="585.63,1263.46,595.0372,1260.5438,589.3929,1260.1675,589.7692,1254.5232,585.63,1263.46" style="stroke:#181818;stroke-width:1.0;"/><text fill="#000000" font-family="sans-serif" font-size="13" lengthAdjust="spacing" textLength="88" x="764" y="1115.4951">is implemented</text></g><!--link Sortable to SortByType--><g id="link_Sortable_SortByType"><path codeLine="104" d="M912,1010.19 C912,1069.38 912,1195.18 912,1258.07 " fill="none" id="Sortable-to-SortByType" style="stroke:#181818;stroke-width:1.0;"/><polygon fill="#181818" points="912,1263.22,916,1254.22,912,1258.22,908,1254.22,912,1263.22" style="stroke:#181818;stroke-width:1.0;"/><text fill="#000000" font-family="sans-serif" font-size="13" lengthAdjust="spacing" textLength="88" x="913" y="1115.4951">is implemented</text></g><!--link ApplicationSession to ApplicationSession--><g id="link_ApplicationSession_ApplicationSession"><path codeLine="105" d="M633.83,954.79 C654.38,957.97 668.5,965.38 668.5,977 C668.5,987.63 656.7,994.72 638.98,998.29 " fill="none" id="ApplicationSession-to-ApplicationSession" style="stroke:#181818;stroke-width:1.0;"/><polygon fill="#181818" points="633.83,999.21,643.389,1001.5819,638.7536,998.3394,641.9961,993.7041,633.83,999.21" style="stroke:#181818;stroke-width:1.0;"/><text fill="#000000" font-family="sans-serif" font-size="13" lengthAdjust="spacing" textLength="49" x="674.5" y="982.4951">instance</text></g><!--link ListGreenSpacesController to ApplicationSession--><g id="link_ListGreenSpacesController_ApplicationSession"><path codeLine="107" d="M975.99,311.25 C879.57,448.21 639.57,789.12 546.1,921.88 " fill="none" id="ListGreenSpacesController-to-ApplicationSession" style="stroke:#181818;stroke-width:1.0;stroke-dasharray:7.0,7.0;"/><polygon fill="#181818" points="543.11,926.13,551.5694,921.0863,545.9945,922.046,545.0349,916.4711,543.11,926.13" style="stroke:#181818;stroke-width:1.0;"/><text fill="#000000" font-family="sans-serif" font-size="13" lengthAdjust="spacing" textLength="107" x="751" y="637.4951">getCurrentSession</text></g><!--SRC=[hLPDR-8m4BtxLrXSbYvgfRsYLIKAg482iWAg_RXv4nEi9dPakxjA4VzznmaaTkA4LjiS4Zb-ysRUUEonUcOy8vAaM1r89Fuo7kCzIHH5gff96ATOvnd5cKXoCqBeKqBt6ck19OiF6aTCqb0pmL56mcSIK_oqE28CJvWGfV2IAVqeAULRcAVgQO7BMVFSub1mBKMIK8d7JUYqcgiCp7D2fyhLD5ZlDi5oET_W7fyraUDRqamefeLaL8tnnXfPeBYYgG0vXFhe-Oqgir5t1CER6XLJRN33cxFshxN5J8jxr5Gx2rQJnVfOZJVpRy5siGisFstnjX17B-DA4nvI_25YQokRp9Q7GT_YxBFGwFLQm7mU2fDEroTaIVQX7EcrC9FdThhlhN3yiRZn1Z8cdBtIg5Y_HCGnZPvKKSJciwLAmOxeMzSohZzKidq-JpETbqpmMX4T7cZa2TBmFGYHKC8jZjJWlpDzM5PXl2UYIvcLxqjfhOBPV7dqfjX9B2UfgQUjbd1yMFyL90V-pyJBxuGwmNAWbssJ8gshShPOUT_y5bYBIOltr7fVDCn_xEQRzSIHCScoX8N4d5Vdb1oTmsLarIpuQSDRwAsGUfB4KDJwa4wDaxKt9nVyz4LAolMPpbqUkx8PrrJkJRwD1m9ooqX72eR3kACyUXQtJ80XUyWdAgGyWl0-a7D6NT8F8zv1__bFIkiCtGNEYZUh6pQeMn5zTLxF5ptIFgvCq1uSaPIqzyKRzeT54KKIogKF4ZATzys_icmgeXv1nMupTUpRYWx8w6oSr5xf1NW2wflxjmNgEGHSiZ8FLt5JICPLqAyo8rsu4tA6pQ9PaIoZibqt8osWdePrzt7ov6ODW1tsLMTuMyqxBSPc4YbXt0e6WCq8t90QAR2IWTgtkhkx-vuBNFUDpDXjd9kOVIz3pctczhQ9lTnfhZZmzVInzxhJTZZuCdY7kVSg0ZI3pmCxirwO6sbPLB0WLH6WrgHhOKgea_ZIHO3mHK5Ygx7HsEWAW64AipHBQ0gzYaO-T7tUlmc-Aq_81h3TO0kJzczhgQ-ijOToZ5kD5w5_]--></g></svg>