<?xml version="1.0" encoding="UTF-8" standalone="no"?><svg xmlns="http://www.w3.org/2000/svg" xmlns:xlink="http://www.w3.org/1999/xlink" contentStyleType="text/css" height="937px" preserveAspectRatio="none" style="width:649px;height:937px;background:#FFFFFF;" version="1.1" viewBox="0 0 649 937" width="649px" zoomAndPan="magnify"><defs/><g><!--class ListGreenSpacesUI--><g id="elem_ListGreenSpacesUI"><rect codeLine="6" fill="#F1F1F1" height="100.8281" id="ListGreenSpacesUI" rx="2.5" ry="2.5" style="stroke:#181818;stroke-width:0.5;" width="411" x="231.5" y="7"/><ellipse cx="372.25" cy="23" fill="#ADD1B2" rx="11" ry="11" style="stroke:#181818;stroke-width:1.0;"/><path d="M375.0156,18.875 Q375.1719,18.6563 375.3594,18.5469 Q375.5469,18.4375 375.7656,18.4375 Q376.1406,18.4375 376.375,18.7031 Q376.6094,18.9531 376.6094,19.5625 L376.6094,21.0156 Q376.6094,21.625 376.375,21.8906 Q376.1406,22.1563 375.7656,22.1563 Q375.4219,22.1563 375.2188,21.9531 Q375.0156,21.7656 374.9063,21.25 Q374.8594,20.8906 374.6719,20.7031 Q374.3438,20.3281 373.7344,20.1094 Q373.125,19.8906 372.5,19.8906 Q371.7344,19.8906 371.0938,20.2188 Q370.4688,20.5469 369.9688,21.2969 Q369.4844,22.0469 369.4844,23.0781 L369.4844,24.1719 Q369.4844,25.4063 370.375,26.2344 Q371.2656,27.0469 372.8594,27.0469 Q373.7969,27.0469 374.4531,26.7969 Q374.8438,26.6406 375.2656,26.2031 Q375.5313,25.9375 375.6719,25.8594 Q375.8281,25.7813 376.0313,25.7813 Q376.3594,25.7813 376.6094,26.0469 Q376.875,26.2969 376.875,26.6406 Q376.875,26.9844 376.5313,27.3906 Q376.0313,27.9688 375.2344,28.2969 Q374.1563,28.75 372.8594,28.75 Q371.3438,28.75 370.1406,28.125 Q369.1563,27.625 368.4688,26.5625 Q367.7813,25.4844 367.7813,24.2031 L367.7813,23.0469 Q367.7813,21.7188 368.3906,20.5781 Q369.0156,19.4219 370.1094,18.8125 Q371.2031,18.1875 372.4375,18.1875 Q373.1719,18.1875 373.8125,18.3594 Q374.4688,18.5156 375.0156,18.875 Z " fill="#000000"/><text fill="#000000" font-family="sans-serif" font-size="14" lengthAdjust="spacing" textLength="121" x="392.75" y="28.7285">ListGreenSpacesUI</text><line style="stroke:#181818;stroke-width:0.5;" x1="232.5" x2="641.5" y1="39" y2="39"/><rect fill="none" height="6" style="stroke:#C82930;stroke-width:1.0;" width="6" x="239.5" y="50.3047"/><text fill="#000000" font-family="sans-serif" font-size="14" lengthAdjust="spacing" textLength="242" x="251.5" y="57.5332">controller : ListGreenSpacesController</text><line style="stroke:#181818;stroke-width:0.5;" x1="232.5" x2="641.5" y1="64.6094" y2="64.6094"/><ellipse cx="242.5" cy="78.9141" fill="#84BE84" rx="3" ry="3" style="stroke:#038048;stroke-width:1.0;"/><text fill="#000000" font-family="sans-serif" font-size="14" lengthAdjust="spacing" textLength="131" x="251.5" y="83.1426">ListGreenSpacesUI()</text><ellipse cx="242.5" cy="96.5234" fill="#84BE84" rx="3" ry="3" style="stroke:#038048;stroke-width:1.0;"/><text fill="#000000" font-family="sans-serif" font-size="14" lengthAdjust="spacing" textLength="385" x="251.5" y="100.752">getOrganizedList(algorithm, loggedUser) : List&lt;GreenSpace&gt;</text></g><!--class ListGreenSpacesController--><g id="elem_ListGreenSpacesController"><rect codeLine="12" fill="#F1F1F1" height="118.4375" id="ListGreenSpacesController" rx="2.5" ry="2.5" style="stroke:#181818;stroke-width:0.5;" width="346" x="264" y="169"/><ellipse cx="347.25" cy="185" fill="#ADD1B2" rx="11" ry="11" style="stroke:#181818;stroke-width:1.0;"/><path d="M350.0156,180.875 Q350.1719,180.6563 350.3594,180.5469 Q350.5469,180.4375 350.7656,180.4375 Q351.1406,180.4375 351.375,180.7031 Q351.6094,180.9531 351.6094,181.5625 L351.6094,183.0156 Q351.6094,183.625 351.375,183.8906 Q351.1406,184.1563 350.7656,184.1563 Q350.4219,184.1563 350.2188,183.9531 Q350.0156,183.7656 349.9063,183.25 Q349.8594,182.8906 349.6719,182.7031 Q349.3438,182.3281 348.7344,182.1094 Q348.125,181.8906 347.5,181.8906 Q346.7344,181.8906 346.0938,182.2188 Q345.4688,182.5469 344.9688,183.2969 Q344.4844,184.0469 344.4844,185.0781 L344.4844,186.1719 Q344.4844,187.4063 345.375,188.2344 Q346.2656,189.0469 347.8594,189.0469 Q348.7969,189.0469 349.4531,188.7969 Q349.8438,188.6406 350.2656,188.2031 Q350.5313,187.9375 350.6719,187.8594 Q350.8281,187.7813 351.0313,187.7813 Q351.3594,187.7813 351.6094,188.0469 Q351.875,188.2969 351.875,188.6406 Q351.875,188.9844 351.5313,189.3906 Q351.0313,189.9688 350.2344,190.2969 Q349.1563,190.75 347.8594,190.75 Q346.3438,190.75 345.1406,190.125 Q344.1563,189.625 343.4688,188.5625 Q342.7813,187.4844 342.7813,186.2031 L342.7813,185.0469 Q342.7813,183.7188 343.3906,182.5781 Q344.0156,181.4219 345.1094,180.8125 Q346.2031,180.1875 347.4375,180.1875 Q348.1719,180.1875 348.8125,180.3594 Q349.4688,180.5156 350.0156,180.875 Z " fill="#000000"/><text fill="#000000" font-family="sans-serif" font-size="14" lengthAdjust="spacing" textLength="171" x="367.75" y="190.7285">ListGreenSpacesController</text><line style="stroke:#181818;stroke-width:0.5;" x1="265" x2="609" y1="201" y2="201"/><rect fill="none" height="6" style="stroke:#C82930;stroke-width:1.0;" width="6" x="272" y="212.3047"/><text fill="#000000" font-family="sans-serif" font-size="14" lengthAdjust="spacing" textLength="161" x="284" y="219.5332">repositories: Repositories</text><rect fill="none" height="6" style="stroke:#C82930;stroke-width:1.0;" width="6" x="272" y="229.9141"/><text fill="#000000" font-family="sans-serif" font-size="14" lengthAdjust="spacing" textLength="305" x="284" y="237.1426">greenSpaceRepository : GreenSpaceRepository</text><line style="stroke:#181818;stroke-width:0.5;" x1="265" x2="609" y1="244.2188" y2="244.2188"/><ellipse cx="275" cy="258.5234" fill="#84BE84" rx="3" ry="3" style="stroke:#038048;stroke-width:1.0;"/><text fill="#000000" font-family="sans-serif" font-size="14" lengthAdjust="spacing" textLength="181" x="284" y="262.752">ListGreenSpacesController()</text><ellipse cx="275" cy="276.1328" fill="#84BE84" rx="3" ry="3" style="stroke:#038048;stroke-width:1.0;"/><text fill="#000000" font-family="sans-serif" font-size="14" lengthAdjust="spacing" textLength="320" x="284" y="280.3613">getList(algorithm, loggedUser) : List&lt;GreenSpace&gt;</text></g><!--class Repositories--><g id="elem_Repositories"><rect codeLine="20" fill="#F1F1F1" height="136.0469" id="Repositories" rx="2.5" ry="2.5" style="stroke:#181818;stroke-width:0.5;" width="364" x="7" y="365"/><ellipse cx="145.25" cy="381" fill="#ADD1B2" rx="11" ry="11" style="stroke:#181818;stroke-width:1.0;"/><path d="M148.0156,376.875 Q148.1719,376.6563 148.3594,376.5469 Q148.5469,376.4375 148.7656,376.4375 Q149.1406,376.4375 149.375,376.7031 Q149.6094,376.9531 149.6094,377.5625 L149.6094,379.0156 Q149.6094,379.625 149.375,379.8906 Q149.1406,380.1563 148.7656,380.1563 Q148.4219,380.1563 148.2188,379.9531 Q148.0156,379.7656 147.9063,379.25 Q147.8594,378.8906 147.6719,378.7031 Q147.3438,378.3281 146.7344,378.1094 Q146.125,377.8906 145.5,377.8906 Q144.7344,377.8906 144.0938,378.2188 Q143.4688,378.5469 142.9688,379.2969 Q142.4844,380.0469 142.4844,381.0781 L142.4844,382.1719 Q142.4844,383.4063 143.375,384.2344 Q144.2656,385.0469 145.8594,385.0469 Q146.7969,385.0469 147.4531,384.7969 Q147.8438,384.6406 148.2656,384.2031 Q148.5313,383.9375 148.6719,383.8594 Q148.8281,383.7813 149.0313,383.7813 Q149.3594,383.7813 149.6094,384.0469 Q149.875,384.2969 149.875,384.6406 Q149.875,384.9844 149.5313,385.3906 Q149.0313,385.9688 148.2344,386.2969 Q147.1563,386.75 145.8594,386.75 Q144.3438,386.75 143.1406,386.125 Q142.1563,385.625 141.4688,384.5625 Q140.7813,383.4844 140.7813,382.2031 L140.7813,381.0469 Q140.7813,379.7188 141.3906,378.5781 Q142.0156,377.4219 143.1094,376.8125 Q144.2031,376.1875 145.4375,376.1875 Q146.1719,376.1875 146.8125,376.3594 Q147.4688,376.5156 148.0156,376.875 Z " fill="#000000"/><text fill="#000000" font-family="sans-serif" font-size="14" lengthAdjust="spacing" textLength="79" x="165.75" y="386.7285">Repositories</text><line style="stroke:#181818;stroke-width:0.5;" x1="8" x2="370" y1="397" y2="397"/><rect fill="none" height="6" style="stroke:#C82930;stroke-width:1.0;" width="6" x="15" y="408.3047"/><text fill="#000000" font-family="sans-serif" font-size="14" lengthAdjust="spacing" textLength="144" x="27" y="415.5332">instance : Repositories</text><rect fill="none" height="6" style="stroke:#C82930;stroke-width:1.0;" width="6" x="15" y="425.9141"/><text fill="#000000" font-family="sans-serif" font-size="14" lengthAdjust="spacing" textLength="305" x="27" y="433.1426">greenSpaceRepository : GreenSpaceRepository</text><line style="stroke:#181818;stroke-width:0.5;" x1="8" x2="370" y1="440.2188" y2="440.2188"/><rect fill="#F24D5C" height="6" style="stroke:#C82930;stroke-width:1.0;" width="6" x="15" y="451.5234"/><text fill="#000000" font-family="sans-serif" font-size="14" lengthAdjust="spacing" textLength="89" x="27" y="458.752">Repositories()</text><ellipse cx="18" cy="472.1328" fill="#84BE84" rx="3" ry="3" style="stroke:#038048;stroke-width:1.0;"/><text fill="#000000" font-family="sans-serif" font-size="14" lengthAdjust="spacing" textLength="174" x="27" y="476.3613">getInstance() : Repositories</text><ellipse cx="18" cy="489.7422" fill="#84BE84" rx="3" ry="3" style="stroke:#038048;stroke-width:1.0;"/><text fill="#000000" font-family="sans-serif" font-size="14" lengthAdjust="spacing" textLength="338" x="27" y="493.9707">getGreenSpaceRepository() : GreenSpaceRepository</text></g><!--class GreenSpaceRepository--><g id="elem_GreenSpaceRepository"><rect codeLine="28" fill="#F1F1F1" height="153.6563" id="GreenSpaceRepository" rx="2.5" ry="2.5" style="stroke:#181818;stroke-width:0.5;" width="417" x="146.5" y="579"/><ellipse cx="276.75" cy="595" fill="#ADD1B2" rx="11" ry="11" style="stroke:#181818;stroke-width:1.0;"/><path d="M279.5156,590.875 Q279.6719,590.6563 279.8594,590.5469 Q280.0469,590.4375 280.2656,590.4375 Q280.6406,590.4375 280.875,590.7031 Q281.1094,590.9531 281.1094,591.5625 L281.1094,593.0156 Q281.1094,593.625 280.875,593.8906 Q280.6406,594.1563 280.2656,594.1563 Q279.9219,594.1563 279.7188,593.9531 Q279.5156,593.7656 279.4063,593.25 Q279.3594,592.8906 279.1719,592.7031 Q278.8438,592.3281 278.2344,592.1094 Q277.625,591.8906 277,591.8906 Q276.2344,591.8906 275.5938,592.2188 Q274.9688,592.5469 274.4688,593.2969 Q273.9844,594.0469 273.9844,595.0781 L273.9844,596.1719 Q273.9844,597.4063 274.875,598.2344 Q275.7656,599.0469 277.3594,599.0469 Q278.2969,599.0469 278.9531,598.7969 Q279.3438,598.6406 279.7656,598.2031 Q280.0313,597.9375 280.1719,597.8594 Q280.3281,597.7813 280.5313,597.7813 Q280.8594,597.7813 281.1094,598.0469 Q281.375,598.2969 281.375,598.6406 Q281.375,598.9844 281.0313,599.3906 Q280.5313,599.9688 279.7344,600.2969 Q278.6563,600.75 277.3594,600.75 Q275.8438,600.75 274.6406,600.125 Q273.6563,599.625 272.9688,598.5625 Q272.2813,597.4844 272.2813,596.2031 L272.2813,595.0469 Q272.2813,593.7188 272.8906,592.5781 Q273.5156,591.4219 274.6094,590.8125 Q275.7031,590.1875 276.9375,590.1875 Q277.6719,590.1875 278.3125,590.3594 Q278.9688,590.5156 279.5156,590.875 Z " fill="#000000"/><text fill="#000000" font-family="sans-serif" font-size="14" lengthAdjust="spacing" textLength="148" x="297.25" y="600.7285">GreenSpaceRepository</text><line style="stroke:#181818;stroke-width:0.5;" x1="147.5" x2="562.5" y1="611" y2="611"/><rect fill="none" height="6" style="stroke:#C82930;stroke-width:1.0;" width="6" x="154.5" y="622.3047"/><text fill="#000000" font-family="sans-serif" font-size="14" lengthAdjust="spacing" textLength="229" x="166.5" y="629.5332">greenSpaceList : List&lt;GreenSpace&gt;</text><line style="stroke:#181818;stroke-width:0.5;" x1="147.5" x2="562.5" y1="636.6094" y2="636.6094"/><ellipse cx="157.5" cy="650.9141" fill="#84BE84" rx="3" ry="3" style="stroke:#038048;stroke-width:1.0;"/><text fill="#000000" font-family="sans-serif" font-size="14" lengthAdjust="spacing" textLength="158" x="166.5" y="655.1426">GreenSpaceRepository()</text><ellipse cx="157.5" cy="668.5234" fill="#84BE84" rx="3" ry="3" style="stroke:#038048;stroke-width:1.0;"/><text fill="#000000" font-family="sans-serif" font-size="14" lengthAdjust="spacing" textLength="385" x="166.5" y="672.752">getOrganizedList(algorithm, loggedUser) : List&lt;GreenSpace&gt;</text><rect fill="#F24D5C" height="6" style="stroke:#C82930;stroke-width:1.0;" width="6" x="154.5" y="683.1328"/><text fill="#000000" font-family="sans-serif" font-size="14" lengthAdjust="spacing" textLength="370" x="166.5" y="690.3613">verifyEmptyList(listMatched : List&lt;GreenSpace&gt;) : Boolean</text><rect fill="#F24D5C" height="6" style="stroke:#C82930;stroke-width:1.0;" width="6" x="154.5" y="700.7422"/><text fill="#000000" font-family="sans-serif" font-size="14" lengthAdjust="spacing" textLength="355" x="166.5" y="707.9707">matchWithLoggedUser(loggedUser) : List&lt;GreenSpace&gt;</text><rect fill="#F24D5C" height="6" style="stroke:#C82930;stroke-width:1.0;" width="6" x="154.5" y="718.3516"/><text fill="#000000" font-family="sans-serif" font-size="14" lengthAdjust="spacing" textLength="391" x="166.5" y="725.5801">organizeList(algorithm, listMatched : List&lt;GreenSpace&gt;) : void</text></g><!--class GreenSpace--><g id="elem_GreenSpace"><rect codeLine="37" fill="#F1F1F1" height="136.0469" id="GreenSpace" rx="2.5" ry="2.5" style="stroke:#181818;stroke-width:0.5;" width="202" x="254" y="794"/><ellipse cx="310.75" cy="810" fill="#ADD1B2" rx="11" ry="11" style="stroke:#181818;stroke-width:1.0;"/><path d="M313.5156,805.875 Q313.6719,805.6563 313.8594,805.5469 Q314.0469,805.4375 314.2656,805.4375 Q314.6406,805.4375 314.875,805.7031 Q315.1094,805.9531 315.1094,806.5625 L315.1094,808.0156 Q315.1094,808.625 314.875,808.8906 Q314.6406,809.1563 314.2656,809.1563 Q313.9219,809.1563 313.7188,808.9531 Q313.5156,808.7656 313.4063,808.25 Q313.3594,807.8906 313.1719,807.7031 Q312.8438,807.3281 312.2344,807.1094 Q311.625,806.8906 311,806.8906 Q310.2344,806.8906 309.5938,807.2188 Q308.9688,807.5469 308.4688,808.2969 Q307.9844,809.0469 307.9844,810.0781 L307.9844,811.1719 Q307.9844,812.4063 308.875,813.2344 Q309.7656,814.0469 311.3594,814.0469 Q312.2969,814.0469 312.9531,813.7969 Q313.3438,813.6406 313.7656,813.2031 Q314.0313,812.9375 314.1719,812.8594 Q314.3281,812.7813 314.5313,812.7813 Q314.8594,812.7813 315.1094,813.0469 Q315.375,813.2969 315.375,813.6406 Q315.375,813.9844 315.0313,814.3906 Q314.5313,814.9688 313.7344,815.2969 Q312.6563,815.75 311.3594,815.75 Q309.8438,815.75 308.6406,815.125 Q307.6563,814.625 306.9688,813.5625 Q306.2813,812.4844 306.2813,811.2031 L306.2813,810.0469 Q306.2813,808.7188 306.8906,807.5781 Q307.5156,806.4219 308.6094,805.8125 Q309.7031,805.1875 310.9375,805.1875 Q311.6719,805.1875 312.3125,805.3594 Q312.9688,805.5156 313.5156,805.875 Z " fill="#000000"/><text fill="#000000" font-family="sans-serif" font-size="14" lengthAdjust="spacing" textLength="80" x="331.25" y="815.7285">GreenSpace</text><line style="stroke:#181818;stroke-width:0.5;" x1="255" x2="455" y1="826" y2="826"/><rect fill="none" height="6" style="stroke:#C82930;stroke-width:1.0;" width="6" x="262" y="837.3047"/><text fill="#000000" font-family="sans-serif" font-size="14" lengthAdjust="spacing" textLength="84" x="274" y="844.5332">name : String</text><rect fill="none" height="6" style="stroke:#C82930;stroke-width:1.0;" width="6" x="262" y="854.9141"/><text fill="#000000" font-family="sans-serif" font-size="14" lengthAdjust="spacing" textLength="81" x="274" y="862.1426">size : Double</text><rect fill="none" height="6" style="stroke:#C82930;stroke-width:1.0;" width="6" x="262" y="872.5234"/><text fill="#000000" font-family="sans-serif" font-size="14" lengthAdjust="spacing" textLength="146" x="274" y="879.752">manager : Collaborator</text><line style="stroke:#181818;stroke-width:0.5;" x1="255" x2="455" y1="886.8281" y2="886.8281"/><ellipse cx="265" cy="901.1328" fill="#84BE84" rx="3" ry="3" style="stroke:#038048;stroke-width:1.0;"/><text fill="#000000" font-family="sans-serif" font-size="14" lengthAdjust="spacing" textLength="176" x="274" y="905.3613">getManager() : Collaborator</text><ellipse cx="265" cy="918.7422" fill="#84BE84" rx="3" ry="3" style="stroke:#038048;stroke-width:1.0;"/><text fill="#000000" font-family="sans-serif" font-size="14" lengthAdjust="spacing" textLength="113" x="274" y="922.9707">getSize() : Double</text></g><!--link ListGreenSpacesUI to ListGreenSpacesController--><g id="link_ListGreenSpacesUI_ListGreenSpacesController"><path codeLine="45" d="M437,108.14 C437,125.54 437,145.31 437,163.67 " fill="none" id="ListGreenSpacesUI-to-ListGreenSpacesController" style="stroke:#181818;stroke-width:1.0;stroke-dasharray:7.0,7.0;"/><polygon fill="#181818" points="437,168.81,441,159.81,437,163.81,433,159.81,437,168.81" style="stroke:#181818;stroke-width:1.0;"/></g><!--link ListGreenSpacesController to Repositories--><g id="link_ListGreenSpacesController_Repositories"><path codeLine="46" d="M365.93,287.17 C337.58,310.38 304.68,337.31 274.99,361.61 " fill="none" id="ListGreenSpacesController-to-Repositories" style="stroke:#181818;stroke-width:1.0;stroke-dasharray:7.0,7.0;"/><polygon fill="#181818" points="271.01,364.87,280.5023,362.2438,274.8721,361.6945,275.4214,356.0643,271.01,364.87" style="stroke:#181818;stroke-width:1.0;"/><text fill="#000000" font-family="sans-serif" font-size="13" lengthAdjust="spacing" textLength="67" x="329" y="331.4951">repositories</text></g><!--link Repositories to Repositories--><g id="link_Repositories_Repositories"><path codeLine="47" d="M371.05,416.04 C392.22,419.17 406,424.82 406,433 C406,440.47 394.49,445.84 376.34,449.1 " fill="none" id="Repositories-to-Repositories" style="stroke:#181818;stroke-width:1.0;"/><polygon fill="#181818" points="371.05,449.96,380.5746,452.4663,375.9854,449.1589,379.2928,444.5697,371.05,449.96" style="stroke:#181818;stroke-width:1.0;"/><text fill="#000000" font-family="sans-serif" font-size="13" lengthAdjust="spacing" textLength="49" x="412" y="438.4951">instance</text></g><!--link ListGreenSpacesController to GreenSpaceRepository--><g id="link_ListGreenSpacesController_GreenSpaceRepository"><path codeLine="48" d="M457.58,287.22 C474.2,343.3 491.3,429.86 468,501 C459.45,527.11 444.6,552.45 428.42,574.78 " fill="none" id="ListGreenSpacesController-to-GreenSpaceRepository" style="stroke:#181818;stroke-width:1.0;stroke-dasharray:7.0,7.0;"/><polygon fill="#181818" points="425.39,578.91,433.9319,574.0073,428.3419,574.8744,427.4748,569.2843,425.39,578.91" style="stroke:#181818;stroke-width:1.0;"/><text fill="#000000" font-family="sans-serif" font-size="13" lengthAdjust="spacing" textLength="131" x="480" y="438.4951">greenSpaceRepository</text></g><!--link Repositories to GreenSpaceRepository--><g id="link_Repositories_GreenSpaceRepository"><path codeLine="49" d="M239.48,501.21 C256.88,524.38 276.55,550.56 294.66,574.67 " fill="none" id="Repositories-to-GreenSpaceRepository" style="stroke:#181818;stroke-width:1.0;"/><polygon fill="#181818" points="297.79,578.83,295.5681,569.235,294.7809,574.8369,289.1791,574.0496,297.79,578.83" style="stroke:#181818;stroke-width:1.0;"/><text fill="#000000" font-family="sans-serif" font-size="13" lengthAdjust="spacing" textLength="131" x="273" y="545.4951">greenSpaceRepository</text><text fill="#000000" font-family="sans-serif" font-size="13" lengthAdjust="spacing" textLength="7" x="285.0036" y="568.2405">1</text></g><!--link GreenSpaceRepository to GreenSpace--><g id="link_GreenSpaceRepository_GreenSpace"><path codeLine="50" d="M355,733.25 C355,751.46 355,770.84 355,788.85 " fill="none" id="GreenSpaceRepository-to-GreenSpace" style="stroke:#181818;stroke-width:1.0;"/><polygon fill="#181818" points="355,793.89,359,784.89,355,788.89,351,784.89,355,793.89" style="stroke:#181818;stroke-width:1.0;"/><text fill="#000000" font-family="sans-serif" font-size="13" lengthAdjust="spacing" textLength="5" x="349.7266" y="783.0772">*</text></g><!--SRC=[hLJHJi8m57tVLpIyE5H8V2M61z4G4eW9XFXSjalNsBLBMp7J-E-s0xUMTQ2HFYnPxxdtdDFsNlLAUO4bpf7AS2hUAITeYvc2IDKHHZaWNHQ02i5A-nT5Lmos6cc192MPHYcLa6WgU1GXinA6bK9pglHK0l1LWHDGwndwhA9s3L0Yk9Q2CP1eT0oTrB4wuQPTBkuxKGBwMHBCwGUa5XbZHeIaEijl4HE4GBfM8Fi7hlkcqBWgydL2UAF6Co2X48fgGm9gX9REdmCYTPaQK1eDqy1srEsrKU1wDfR_wzHLxPcZN6dC4q0NSTPakSMExszsu8pxNQmLBCHGfNHIUvP3ACzwOyoUNzSnxkM4jLpkMUuLxK3IRVcK5xgiQZ3pMM2TP9064csn1o4OOExKo2t-nH3FQzRurmB4mKBBmLaXEq7JKtVWdJp7kNrmAotD67BsbQ4s-u_YRSF0yyGngUR7n3G7tWY9pGNufx_OOwe7qerQ6OOAud0OnUq9DXoEJmohxi5XyvRUm737H-JruM1mZFtfnZC4eTSu2ZPgcx1tr_j3Uh29J9dUTSzH4Nq3]--></g></svg>