<?xml version="1.0" encoding="UTF-8" standalone="no"?><svg xmlns="http://www.w3.org/2000/svg" xmlns:xlink="http://www.w3.org/1999/xlink" contentStyleType="text/css" height="525px" preserveAspectRatio="none" style="width:493px;height:525px;background:#FFFFFF;" version="1.1" viewBox="0 0 493 525" width="493px" zoomAndPan="magnify"><defs/><g><rect fill="#FFFFFF" height="359.1641" style="stroke:#181818;stroke-width:1.0;" width="10" x="210" y="87.5703"/><rect fill="#FFFFFF" height="258.1094" style="stroke:#181818;stroke-width:1.0;" width="10" x="215" y="151.2734"/><rect fill="#FFFFFF" height="171.4063" style="stroke:#181818;stroke-width:1.0;" width="10" x="220" y="194.625"/><rect fill="#FFFFFF" height="84.7031" style="stroke:#181818;stroke-width:1.0;" width="10" x="225" y="237.9766"/><rect fill="none" height="352.1641" style="stroke:#000000;stroke-width:1.5;" width="484" x="3" y="102.5703"/><line style="stroke:#181818;stroke-width:0.5;stroke-dasharray:5.0,5.0;" x1="214.5" x2="214.5" y1="55.2188" y2="471.7344"/><rect fill="#E3E3E3" height="49.2188" rx="2.5" ry="2.5" style="stroke:#181818;stroke-width:0.5;" width="163" x="133.5" y="5"/><text fill="#000000" font-family="sans-serif" font-size="14" lengthAdjust="spacing" textLength="149" x="140.5" y="26.5332">greenSpaceRepository:</text><text fill="#000000" font-family="sans-serif" font-size="14" lengthAdjust="spacing" textLength="148" x="141" y="44.1426">GreenSpaceRepository</text><rect fill="#E3E3E3" height="49.2188" rx="2.5" ry="2.5" style="stroke:#181818;stroke-width:0.5;" width="163" x="133.5" y="470.7344"/><text fill="#000000" font-family="sans-serif" font-size="14" lengthAdjust="spacing" textLength="149" x="140.5" y="492.2676">greenSpaceRepository:</text><text fill="#000000" font-family="sans-serif" font-size="14" lengthAdjust="spacing" textLength="148" x="141" y="509.877">GreenSpaceRepository</text><rect fill="#FFFFFF" height="359.1641" style="stroke:#181818;stroke-width:1.0;" width="10" x="210" y="87.5703"/><rect fill="#FFFFFF" height="258.1094" style="stroke:#181818;stroke-width:1.0;" width="10" x="215" y="151.2734"/><rect fill="#FFFFFF" height="171.4063" style="stroke:#181818;stroke-width:1.0;" width="10" x="220" y="194.625"/><rect fill="#FFFFFF" height="84.7031" style="stroke:#181818;stroke-width:1.0;" width="10" x="225" y="237.9766"/><polygon fill="#181818" points="198,83.5703,208,87.5703,198,91.5703,202,87.5703" style="stroke:#181818;stroke-width:1.0;"/><line style="stroke:#181818;stroke-width:1.0;" x1="0" x2="204" y1="87.5703" y2="87.5703"/><text fill="#000000" font-family="sans-serif" font-size="13" font-weight="bold" lengthAdjust="spacing" textLength="7" x="7" y="82.7139">5</text><text fill="#000000" font-family="sans-serif" font-size="13" lengthAdjust="spacing" textLength="173" x="18" y="82.7139">getList(algorithm, loggedUser)</text><path d="M3,102.5703 L183,102.5703 L183,110.9219 L173,120.9219 L3,120.9219 L3,102.5703 " fill="#EEEEEE" style="stroke:#000000;stroke-width:1.5;"/><rect fill="none" height="352.1641" style="stroke:#000000;stroke-width:1.5;" width="484" x="3" y="102.5703"/><text fill="#000000" font-family="sans-serif" font-size="13" font-weight="bold" lengthAdjust="spacing" textLength="135" x="18" y="117.0654">Get Green Space List</text><line style="stroke:#181818;stroke-width:1.0;" x1="220" x2="267" y1="138.2734" y2="138.2734"/><line style="stroke:#181818;stroke-width:1.0;" x1="267" x2="267" y1="138.2734" y2="151.2734"/><line style="stroke:#181818;stroke-width:1.0;" x1="226" x2="267" y1="151.2734" y2="151.2734"/><polygon fill="#181818" points="236,147.2734,226,151.2734,236,155.2734,232,151.2734" style="stroke:#181818;stroke-width:1.0;"/><text fill="#000000" font-family="sans-serif" font-size="13" font-weight="bold" lengthAdjust="spacing" textLength="7" x="232" y="133.417">6</text><text fill="#000000" font-family="sans-serif" font-size="13" lengthAdjust="spacing" textLength="232" x="243" y="133.417">getOrganizedList(algorithm, loggedUser)</text><line style="stroke:#181818;stroke-width:1.0;" x1="225" x2="272" y1="181.625" y2="181.625"/><line style="stroke:#181818;stroke-width:1.0;" x1="272" x2="272" y1="181.625" y2="194.625"/><line style="stroke:#181818;stroke-width:1.0;" x1="231" x2="272" y1="194.625" y2="194.625"/><polygon fill="#181818" points="241,190.625,231,194.625,241,198.625,237,194.625" style="stroke:#181818;stroke-width:1.0;"/><text fill="#000000" font-family="sans-serif" font-size="13" font-weight="bold" lengthAdjust="spacing" textLength="7" x="237" y="176.7686">7</text><text fill="#000000" font-family="sans-serif" font-size="13" lengthAdjust="spacing" textLength="175" x="248" y="176.7686">verifies if the list has any entry</text><line style="stroke:#181818;stroke-width:1.0;" x1="230" x2="277" y1="224.9766" y2="224.9766"/><line style="stroke:#181818;stroke-width:1.0;" x1="277" x2="277" y1="224.9766" y2="237.9766"/><line style="stroke:#181818;stroke-width:1.0;" x1="236" x2="277" y1="237.9766" y2="237.9766"/><polygon fill="#181818" points="246,233.9766,236,237.9766,246,241.9766,242,237.9766" style="stroke:#181818;stroke-width:1.0;"/><text fill="#000000" font-family="sans-serif" font-size="13" font-weight="bold" lengthAdjust="spacing" textLength="7" x="242" y="220.1201">8</text><text fill="#000000" font-family="sans-serif" font-size="13" lengthAdjust="spacing" textLength="205" x="253" y="220.1201">matchWithLoggedUser(loggedUser)</text><line style="stroke:#181818;stroke-width:1.0;" x1="235" x2="277" y1="273.3281" y2="273.3281"/><line style="stroke:#181818;stroke-width:1.0;" x1="277" x2="277" y1="273.3281" y2="286.3281"/><line style="stroke:#181818;stroke-width:1.0;" x1="236" x2="277" y1="286.3281" y2="286.3281"/><polygon fill="#181818" points="246,282.3281,236,286.3281,246,290.3281,242,286.3281" style="stroke:#181818;stroke-width:1.0;"/><text fill="#000000" font-family="sans-serif" font-size="13" font-weight="bold" lengthAdjust="spacing" textLength="7" x="242" y="268.4717">9</text><text fill="#000000" font-family="sans-serif" font-size="13" lengthAdjust="spacing" textLength="131" x="253" y="268.4717">organizeList(algorithm)</text><line style="stroke:#181818;stroke-width:1.0;stroke-dasharray:2.0,2.0;" x1="235" x2="277" y1="321.6797" y2="321.6797"/><line style="stroke:#181818;stroke-width:1.0;stroke-dasharray:2.0,2.0;" x1="277" x2="277" y1="321.6797" y2="334.6797"/><line style="stroke:#181818;stroke-width:1.0;stroke-dasharray:2.0,2.0;" x1="230" x2="277" y1="334.6797" y2="334.6797"/><polygon fill="#181818" points="240,330.6797,230,334.6797,240,338.6797,236,334.6797" style="stroke:#181818;stroke-width:1.0;"/><text fill="#000000" font-family="sans-serif" font-size="13" font-weight="bold" lengthAdjust="spacing" textLength="14" x="242" y="316.8232">10</text><text fill="#000000" font-family="sans-serif" font-size="13" lengthAdjust="spacing" textLength="4" x="260" y="316.8232"> </text><line style="stroke:#181818;stroke-width:1.0;stroke-dasharray:2.0,2.0;" x1="230" x2="272" y1="365.0313" y2="365.0313"/><line style="stroke:#181818;stroke-width:1.0;stroke-dasharray:2.0,2.0;" x1="272" x2="272" y1="365.0313" y2="378.0313"/><line style="stroke:#181818;stroke-width:1.0;stroke-dasharray:2.0,2.0;" x1="225" x2="272" y1="378.0313" y2="378.0313"/><polygon fill="#181818" points="235,374.0313,225,378.0313,235,382.0313,231,378.0313" style="stroke:#181818;stroke-width:1.0;"/><text fill="#000000" font-family="sans-serif" font-size="13" font-weight="bold" lengthAdjust="spacing" textLength="14" x="237" y="360.1748">11</text><text fill="#000000" font-family="sans-serif" font-size="13" lengthAdjust="spacing" textLength="4" x="255" y="360.1748"> </text><line style="stroke:#181818;stroke-width:1.0;stroke-dasharray:2.0,2.0;" x1="225" x2="267" y1="408.3828" y2="408.3828"/><line style="stroke:#181818;stroke-width:1.0;stroke-dasharray:2.0,2.0;" x1="267" x2="267" y1="408.3828" y2="421.3828"/><line style="stroke:#181818;stroke-width:1.0;stroke-dasharray:2.0,2.0;" x1="220" x2="267" y1="421.3828" y2="421.3828"/><polygon fill="#181818" points="230,417.3828,220,421.3828,230,425.3828,226,421.3828" style="stroke:#181818;stroke-width:1.0;"/><text fill="#000000" font-family="sans-serif" font-size="13" font-weight="bold" lengthAdjust="spacing" textLength="14" x="232" y="403.5264">12</text><text fill="#000000" font-family="sans-serif" font-size="13" lengthAdjust="spacing" textLength="4" x="250" y="403.5264"> </text><polygon fill="#181818" points="11,442.7344,1,446.7344,11,450.7344,7,446.7344" style="stroke:#181818;stroke-width:1.0;"/><line style="stroke:#181818;stroke-width:1.0;stroke-dasharray:2.0,2.0;" x1="5" x2="214" y1="446.7344" y2="446.7344"/><text fill="#000000" font-family="sans-serif" font-size="13" font-weight="bold" lengthAdjust="spacing" textLength="14" x="17" y="441.8779">13</text><text fill="#000000" font-family="sans-serif" font-size="13" lengthAdjust="spacing" textLength="17" x="35" y="441.8779">list</text><!--SRC=[lP8zQmCn38Pt_mgHfGdqnYwXTCqIA2IKBbsKEvqjScSTiYxjzTVNIKh8Hmc5b6gpfKVlAzbfpR53nHPQYL86bPR0j2UN3faEopLwMjhG42YLXj4tnmKfO2Nl73tKs2Ho3dkJsBShKkVk0bS4jOYjvCEvJ1YNt64q67abYilSdnRKIM8J7QPlSVR3zGWmmMdYM0SUN0uedivgfk39vfniZ8qNPGljFJJYFLKlYNIIcHnUfUzWHhQdOOV35ijDiJJUeD6v-kdnKXfssi_gCV8dLTTCt22n8UMQAG7NO86WoJ8Gygum3a3HTBYbUujMXjTiU7vmE_uZu_AzcDEzJ2xG2zPLz5lP_s8VY-9yG9XkN-8Ai_zv52ldlW00]--></g></svg>