<?xml version="1.0" encoding="us-ascii" standalone="no"?><svg xmlns="http://www.w3.org/2000/svg" xmlns:xlink="http://www.w3.org/1999/xlink" contentStyleType="text/css" height="915px" preserveAspectRatio="none" style="width:1291px;height:915px;background:#FFFFFF;" version="1.1" viewBox="0 0 1291 915" width="1291px" zoomAndPan="magnify"><defs/><g><rect fill="#FFFFFF" height="721.1504" style="stroke:#181818;stroke-width:1.0;" width="10" x="18.5" y="93.6211"/><rect fill="#FFFFFF" height="262.6582" style="stroke:#181818;stroke-width:1.0;" width="10" x="340.5" y="116.9121"/><rect fill="#FFFFFF" height="31.291" style="stroke:#181818;stroke-width:1.0;" width="10" x="340.5" y="783.4805"/><rect fill="#FFFFFF" height="127.4941" style="stroke:#181818;stroke-width:1.0;" width="10" x="612.5" y="158.2031"/><rect fill="#FFFFFF" height="31.291" style="stroke:#181818;stroke-width:1.0;" width="10" x="612.5" y="379.5703"/><rect fill="#FFFFFF" height="31.291" style="stroke:#181818;stroke-width:1.0;" width="10" x="612.5" y="752.1895"/><rect fill="#FFFFFF" height="31.291" style="stroke:#181818;stroke-width:1.0;" width="10" x="765.5" y="191.8242"/><rect fill="#FFFFFF" height="31.291" style="stroke:#181818;stroke-width:1.0;" width="10" x="872.5" y="254.4063"/><rect fill="#FFFFFF" height="341.3281" style="stroke:#181818;stroke-width:1.0;" width="10" x="1012.5" y="410.8613"/><rect fill="#FFFFFF" height="263.7461" style="stroke:#181818;stroke-width:1.0;" width="10" x="1017.5" y="450.1523"/><rect fill="#FFFFFF" height="42.291" style="stroke:#181818;stroke-width:1.0;" width="10" x="1022.5" y="494.4434"/><rect fill="#FFFFFF" height="86.582" style="stroke:#181818;stroke-width:1.0;" width="10" x="1022.5" y="583.0254"/><line style="stroke:#181818;stroke-width:0.5;stroke-dasharray:5.0,5.0;" x1="23" x2="23" y1="83.6211" y2="832.7715"/><line style="stroke:#181818;stroke-width:0.5;stroke-dasharray:5.0,5.0;" x1="345" x2="345" y1="83.6211" y2="832.7715"/><line style="stroke:#181818;stroke-width:0.5;stroke-dasharray:5.0,5.0;" x1="617" x2="617" y1="156.7227" y2="832.7715"/><line style="stroke:#181818;stroke-width:0.5;stroke-dasharray:5.0,5.0;" x1="770" x2="770" y1="83.6211" y2="832.7715"/><line style="stroke:#181818;stroke-width:0.5;stroke-dasharray:5.0,5.0;" x1="877" x2="877" y1="83.6211" y2="832.7715"/><line style="stroke:#181818;stroke-width:0.5;stroke-dasharray:5.0,5.0;" x1="1017" x2="1017" y1="83.6211" y2="832.7715"/><text fill="#000000" font-family="sans-serif" font-size="14" lengthAdjust="spacing" textLength="31" x="5" y="80.1074">GSM</text><ellipse cx="23.5" cy="13.5" fill="#E3E3E3" rx="8" ry="8" style="stroke:#181818;stroke-width:0.5;"/><path d="M23.5,21.5 L23.5,48.5 M10.5,29.5 L36.5,29.5 M23.5,48.5 L10.5,63.5 M23.5,48.5 L36.5,63.5 " fill="none" style="stroke:#181818;stroke-width:0.5;"/><text fill="#000000" font-family="sans-serif" font-size="14" lengthAdjust="spacing" textLength="31" x="5" y="846.8789">GSM</text><ellipse cx="23.5" cy="858.8926" fill="#E3E3E3" rx="8" ry="8" style="stroke:#181818;stroke-width:0.5;"/><path d="M23.5,866.8926 L23.5,893.8926 M10.5,874.8926 L36.5,874.8926 M23.5,893.8926 L10.5,908.8926 M23.5,893.8926 L36.5,908.8926 " fill="none" style="stroke:#181818;stroke-width:0.5;"/><rect fill="#E3E3E3" height="32.6211" rx="2.5" ry="2.5" style="stroke:#181818;stroke-width:0.5;" width="139" x="276" y="50"/><text fill="#000000" font-family="sans-serif" font-size="14" lengthAdjust="spacing" textLength="125" x="283" y="72.1074">:ListGreenSpacesUI</text><rect fill="#E3E3E3" height="32.6211" rx="2.5" ry="2.5" style="stroke:#181818;stroke-width:0.5;" width="139" x="276" y="831.7715"/><text fill="#000000" font-family="sans-serif" font-size="14" lengthAdjust="spacing" textLength="125" x="283" y="853.8789">:ListGreenSpacesUI</text><rect fill="#E3E3E3" height="32.6211" rx="2.5" ry="2.5" style="stroke:#181818;stroke-width:0.5;" width="189" x="523" y="831.7715"/><text fill="#000000" font-family="sans-serif" font-size="14" lengthAdjust="spacing" textLength="175" x="530" y="853.8789">:ListGreenSpacesController</text><rect fill="#E3E3E3" height="32.6211" rx="2.5" ry="2.5" style="stroke:#181818;stroke-width:0.5;" width="97" x="722" y="50"/><text fill="#000000" font-family="sans-serif" font-size="14" lengthAdjust="spacing" textLength="83" x="729" y="72.1074">:Repositories</text><rect fill="#E3E3E3" height="32.6211" rx="2.5" ry="2.5" style="stroke:#181818;stroke-width:0.5;" width="97" x="722" y="831.7715"/><text fill="#000000" font-family="sans-serif" font-size="14" lengthAdjust="spacing" textLength="83" x="729" y="853.8789">:Repositories</text><rect fill="#E3E3E3" height="51.2422" rx="2.5" ry="2.5" style="stroke:#181818;stroke-width:0.5;" width="97" x="829" y="31.3789"/><text fill="#000000" font-family="sans-serif" font-size="14" lengthAdjust="spacing" textLength="74" x="840.5" y="53.4863">repositories</text><text fill="#000000" font-family="sans-serif" font-size="14" lengthAdjust="spacing" textLength="83" x="836" y="72.1074">:Repositories</text><rect fill="#E3E3E3" height="51.2422" rx="2.5" ry="2.5" style="stroke:#181818;stroke-width:0.5;" width="97" x="829" y="831.7715"/><text fill="#000000" font-family="sans-serif" font-size="14" lengthAdjust="spacing" textLength="74" x="840.5" y="853.8789">repositories</text><text fill="#000000" font-family="sans-serif" font-size="14" lengthAdjust="spacing" textLength="83" x="836" y="872.5">:Repositories</text><rect fill="#E3E3E3" height="51.2422" rx="2.5" ry="2.5" style="stroke:#181818;stroke-width:0.5;" width="163" x="936" y="31.3789"/><text fill="#000000" font-family="sans-serif" font-size="14" lengthAdjust="spacing" textLength="149" x="943" y="53.4863">greenSpaceRepository:</text><text fill="#000000" font-family="sans-serif" font-size="14" lengthAdjust="spacing" textLength="148" x="943.5" y="72.1074">GreenSpaceRepository</text><rect fill="#E3E3E3" height="51.2422" rx="2.5" ry="2.5" style="stroke:#181818;stroke-width:0.5;" width="163" x="936" y="831.7715"/><text fill="#000000" font-family="sans-serif" font-size="14" lengthAdjust="spacing" textLength="149" x="943" y="853.8789">greenSpaceRepository:</text><text fill="#000000" font-family="sans-serif" font-size="14" lengthAdjust="spacing" textLength="148" x="943.5" y="872.5">GreenSpaceRepository</text><rect fill="#FFFFFF" height="721.1504" style="stroke:#181818;stroke-width:1.0;" width="10" x="18.5" y="93.6211"/><rect fill="#FFFFFF" height="262.6582" style="stroke:#181818;stroke-width:1.0;" width="10" x="340.5" y="116.9121"/><rect fill="#FFFFFF" height="31.291" style="stroke:#181818;stroke-width:1.0;" width="10" x="340.5" y="783.4805"/><rect fill="#FFFFFF" height="127.4941" style="stroke:#181818;stroke-width:1.0;" width="10" x="612.5" y="158.2031"/><rect fill="#FFFFFF" height="31.291" style="stroke:#181818;stroke-width:1.0;" width="10" x="612.5" y="379.5703"/><rect fill="#FFFFFF" height="31.291" style="stroke:#181818;stroke-width:1.0;" width="10" x="612.5" y="752.1895"/><rect fill="#FFFFFF" height="31.291" style="stroke:#181818;stroke-width:1.0;" width="10" x="765.5" y="191.8242"/><rect fill="#FFFFFF" height="31.291" style="stroke:#181818;stroke-width:1.0;" width="10" x="872.5" y="254.4063"/><rect fill="#FFFFFF" height="341.3281" style="stroke:#181818;stroke-width:1.0;" width="10" x="1012.5" y="410.8613"/><rect fill="#FFFFFF" height="263.7461" style="stroke:#181818;stroke-width:1.0;" width="10" x="1017.5" y="450.1523"/><rect fill="#FFFFFF" height="42.291" style="stroke:#181818;stroke-width:1.0;" width="10" x="1022.5" y="494.4434"/><rect fill="#FFFFFF" height="86.582" style="stroke:#181818;stroke-width:1.0;" width="10" x="1022.5" y="583.0254"/><polygon fill="#181818" points="328.5,112.9121,338.5,116.9121,328.5,120.9121,332.5,116.9121" style="stroke:#181818;stroke-width:1.0;"/><line style="stroke:#181818;stroke-width:1.0;" x1="28.5" x2="334.5" y1="116.9121" y2="116.9121"/><text fill="#000000" font-family="sans-serif" font-size="13" font-weight="bold" lengthAdjust="spacing" textLength="7" x="35.5" y="111.6494">1</text><text fill="#000000" font-family="sans-serif" font-size="13" lengthAdjust="spacing" textLength="263" x="46.5" y="111.6494">asks to list all green spaces managed by him</text><polygon fill="#181818" points="511,144.2031,521,148.2031,511,152.2031,515,148.2031" style="stroke:#181818;stroke-width:1.0;"/><line style="stroke:#181818;stroke-width:1.0;" x1="350.5" x2="517" y1="148.2031" y2="148.2031"/><text fill="#000000" font-family="sans-serif" font-size="13" font-weight="bold" lengthAdjust="spacing" textLength="7" x="357.5" y="142.9404">2</text><text fill="#000000" font-family="sans-serif" font-size="13" lengthAdjust="spacing" textLength="36" x="368.5" y="142.9404">create</text><rect fill="#E3E3E3" height="32.6211" rx="2.5" ry="2.5" style="stroke:#181818;stroke-width:0.5;" width="189" x="523" y="124.9121"/><text fill="#000000" font-family="sans-serif" font-size="14" lengthAdjust="spacing" textLength="175" x="530" y="147.0195">:ListGreenSpacesController</text><polygon fill="#181818" points="753.5,187.8242,763.5,191.8242,753.5,195.8242,757.5,191.8242" style="stroke:#181818;stroke-width:1.0;"/><line style="stroke:#181818;stroke-width:1.0;" x1="622.5" x2="759.5" y1="191.8242" y2="191.8242"/><text fill="#000000" font-family="sans-serif" font-size="13" font-weight="bold" lengthAdjust="spacing" textLength="7" x="629.5" y="186.5615">3</text><text fill="#000000" font-family="sans-serif" font-size="13" lengthAdjust="spacing" textLength="75" x="640.5" y="186.5615">getInstance()</text><polygon fill="#181818" points="633.5,219.1152,623.5,223.1152,633.5,227.1152,629.5,223.1152" style="stroke:#181818;stroke-width:1.0;"/><line style="stroke:#181818;stroke-width:1.0;stroke-dasharray:2.0,2.0;" x1="627.5" x2="769.5" y1="223.1152" y2="223.1152"/><text fill="#000000" font-family="sans-serif" font-size="13" font-weight="bold" lengthAdjust="spacing" textLength="7" x="639.5" y="217.8525">4</text><text fill="#000000" font-family="sans-serif" font-size="13" lengthAdjust="spacing" textLength="67" x="650.5" y="217.8525">repositories</text><polygon fill="#181818" points="860.5,250.4063,870.5,254.4063,860.5,258.4063,864.5,254.4063" style="stroke:#181818;stroke-width:1.0;"/><line style="stroke:#181818;stroke-width:1.0;" x1="622.5" x2="866.5" y1="254.4063" y2="254.4063"/><text fill="#000000" font-family="sans-serif" font-size="13" font-weight="bold" lengthAdjust="spacing" textLength="7" x="629.5" y="249.1436">5</text><text fill="#000000" font-family="sans-serif" font-size="13" lengthAdjust="spacing" textLength="160" x="640.5" y="249.1436">getGreenSpaceRepository()</text><polygon fill="#181818" points="628.5,281.6973,618.5,285.6973,628.5,289.6973,624.5,285.6973" style="stroke:#181818;stroke-width:1.0;"/><line style="stroke:#181818;stroke-width:1.0;stroke-dasharray:2.0,2.0;" x1="622.5" x2="876.5" y1="285.6973" y2="285.6973"/><text fill="#000000" font-family="sans-serif" font-size="13" font-weight="bold" lengthAdjust="spacing" textLength="7" x="634.5" y="280.4346">6</text><text fill="#000000" font-family="sans-serif" font-size="13" lengthAdjust="spacing" textLength="131" x="645.5" y="280.4346">greenSpaceRepository</text><polygon fill="#181818" points="39.5,312.9883,29.5,316.9883,39.5,320.9883,35.5,316.9883" style="stroke:#181818;stroke-width:1.0;"/><line style="stroke:#181818;stroke-width:1.0;stroke-dasharray:2.0,2.0;" x1="33.5" x2="339.5" y1="316.9883" y2="316.9883"/><text fill="#000000" font-family="sans-serif" font-size="13" font-weight="bold" lengthAdjust="spacing" textLength="7" x="45.5" y="311.7256">7</text><text fill="#000000" font-family="sans-serif" font-size="13" lengthAdjust="spacing" textLength="172" x="56.5" y="311.7256">requests the sorting algorithm</text><polygon fill="#181818" points="328.5,344.2793,338.5,348.2793,328.5,352.2793,332.5,348.2793" style="stroke:#181818;stroke-width:1.0;"/><line style="stroke:#181818;stroke-width:1.0;" x1="28.5" x2="334.5" y1="348.2793" y2="348.2793"/><text fill="#000000" font-family="sans-serif" font-size="13" font-weight="bold" lengthAdjust="spacing" textLength="7" x="35.5" y="343.0166">8</text><text fill="#000000" font-family="sans-serif" font-size="13" lengthAdjust="spacing" textLength="164" x="46.5" y="343.0166">selects the sorting algorithm</text><polygon fill="#181818" points="600.5,375.5703,610.5,379.5703,600.5,383.5703,604.5,379.5703" style="stroke:#181818;stroke-width:1.0;"/><line style="stroke:#181818;stroke-width:1.0;" x1="345.5" x2="606.5" y1="379.5703" y2="379.5703"/><text fill="#000000" font-family="sans-serif" font-size="13" font-weight="bold" lengthAdjust="spacing" textLength="7" x="352.5" y="374.3076">9</text><text fill="#000000" font-family="sans-serif" font-size="13" lengthAdjust="spacing" textLength="232" x="363.5" y="374.3076">getOrganizedList(algorithm, loggedUser)</text><polygon fill="#181818" points="1000.5,406.8613,1010.5,410.8613,1000.5,414.8613,1004.5,410.8613" style="stroke:#181818;stroke-width:1.0;"/><line style="stroke:#181818;stroke-width:1.0;" x1="617.5" x2="1006.5" y1="410.8613" y2="410.8613"/><text fill="#000000" font-family="sans-serif" font-size="13" font-weight="bold" lengthAdjust="spacing" textLength="14" x="624.5" y="405.5986">10</text><text fill="#000000" font-family="sans-serif" font-size="13" lengthAdjust="spacing" textLength="194" x="642.5" y="405.5986">getOrgList(algorithm, loggedUser)</text><line style="stroke:#181818;stroke-width:1.0;" x1="1022.5" x2="1069.5" y1="437.1523" y2="437.1523"/><line style="stroke:#181818;stroke-width:1.0;" x1="1069.5" x2="1069.5" y1="437.1523" y2="450.1523"/><line style="stroke:#181818;stroke-width:1.0;" x1="1028.5" x2="1069.5" y1="450.1523" y2="450.1523"/><polygon fill="#181818" points="1038.5,446.1523,1028.5,450.1523,1038.5,454.1523,1034.5,450.1523" style="stroke:#181818;stroke-width:1.0;"/><text fill="#000000" font-family="sans-serif" font-size="13" font-weight="bold" lengthAdjust="spacing" textLength="14" x="1034.5" y="431.8896">11</text><text fill="#000000" font-family="sans-serif" font-size="13" lengthAdjust="spacing" textLength="232" x="1052.5" y="431.8896">getOrganizedList(algorithm, loggedUser)</text><line style="stroke:#181818;stroke-width:1.0;" x1="1027.5" x2="1074.5" y1="481.4434" y2="481.4434"/><line style="stroke:#181818;stroke-width:1.0;" x1="1074.5" x2="1074.5" y1="481.4434" y2="494.4434"/><line style="stroke:#181818;stroke-width:1.0;" x1="1033.5" x2="1074.5" y1="494.4434" y2="494.4434"/><polygon fill="#181818" points="1043.5,490.4434,1033.5,494.4434,1043.5,498.4434,1039.5,494.4434" style="stroke:#181818;stroke-width:1.0;"/><text fill="#000000" font-family="sans-serif" font-size="13" font-weight="bold" lengthAdjust="spacing" textLength="14" x="1039.5" y="476.1807">12</text><text fill="#000000" font-family="sans-serif" font-size="13" lengthAdjust="spacing" textLength="205" x="1057.5" y="476.1807">matchWithLoggedUser(loggedUser)</text><line style="stroke:#181818;stroke-width:1.0;stroke-dasharray:2.0,2.0;" x1="1032.5" x2="1074.5" y1="535.7344" y2="535.7344"/><line style="stroke:#181818;stroke-width:1.0;stroke-dasharray:2.0,2.0;" x1="1074.5" x2="1074.5" y1="535.7344" y2="548.7344"/><line style="stroke:#181818;stroke-width:1.0;stroke-dasharray:2.0,2.0;" x1="1027.5" x2="1074.5" y1="548.7344" y2="548.7344"/><polygon fill="#181818" points="1037.5,544.7344,1027.5,548.7344,1037.5,552.7344,1033.5,548.7344" style="stroke:#181818;stroke-width:1.0;"/><text fill="#000000" font-family="sans-serif" font-size="13" font-weight="bold" lengthAdjust="spacing" textLength="14" x="1039.5" y="530.4717">13</text><text fill="#000000" font-family="sans-serif" font-size="13" lengthAdjust="spacing" textLength="4" x="1057.5" y="530.4717">&#160;</text><line style="stroke:#181818;stroke-width:1.0;" x1="1027.5" x2="1074.5" y1="570.0254" y2="570.0254"/><line style="stroke:#181818;stroke-width:1.0;" x1="1074.5" x2="1074.5" y1="570.0254" y2="583.0254"/><line style="stroke:#181818;stroke-width:1.0;" x1="1033.5" x2="1074.5" y1="583.0254" y2="583.0254"/><polygon fill="#181818" points="1043.5,579.0254,1033.5,583.0254,1043.5,587.0254,1039.5,583.0254" style="stroke:#181818;stroke-width:1.0;"/><text fill="#000000" font-family="sans-serif" font-size="13" font-weight="bold" lengthAdjust="spacing" textLength="14" x="1039.5" y="564.7627">14</text><text fill="#000000" font-family="sans-serif" font-size="13" lengthAdjust="spacing" textLength="163" x="1057.5" y="564.7627">verifyEmptyList(listMatched)</text><line style="stroke:#181818;stroke-width:1.0;" x1="1032.5" x2="1074.5" y1="619.3164" y2="619.3164"/><line style="stroke:#181818;stroke-width:1.0;" x1="1074.5" x2="1074.5" y1="619.3164" y2="632.3164"/><line style="stroke:#181818;stroke-width:1.0;" x1="1033.5" x2="1074.5" y1="632.3164" y2="632.3164"/><polygon fill="#181818" points="1043.5,628.3164,1033.5,632.3164,1043.5,636.3164,1039.5,632.3164" style="stroke:#181818;stroke-width:1.0;"/><text fill="#000000" font-family="sans-serif" font-size="13" font-weight="bold" lengthAdjust="spacing" textLength="14" x="1039.5" y="614.0537">15</text><text fill="#000000" font-family="sans-serif" font-size="13" lengthAdjust="spacing" textLength="206" x="1057.5" y="614.0537">organizeList(algorithm, listMatched)</text><line style="stroke:#181818;stroke-width:1.0;stroke-dasharray:2.0,2.0;" x1="1032.5" x2="1074.5" y1="668.6074" y2="668.6074"/><line style="stroke:#181818;stroke-width:1.0;stroke-dasharray:2.0,2.0;" x1="1074.5" x2="1074.5" y1="668.6074" y2="681.6074"/><line style="stroke:#181818;stroke-width:1.0;stroke-dasharray:2.0,2.0;" x1="1027.5" x2="1074.5" y1="681.6074" y2="681.6074"/><polygon fill="#181818" points="1037.5,677.6074,1027.5,681.6074,1037.5,685.6074,1033.5,681.6074" style="stroke:#181818;stroke-width:1.0;"/><text fill="#000000" font-family="sans-serif" font-size="13" font-weight="bold" lengthAdjust="spacing" textLength="14" x="1039.5" y="663.3447">16</text><text fill="#000000" font-family="sans-serif" font-size="13" lengthAdjust="spacing" textLength="4" x="1057.5" y="663.3447">&#160;</text><line style="stroke:#181818;stroke-width:1.0;stroke-dasharray:2.0,2.0;" x1="1027.5" x2="1069.5" y1="712.8984" y2="712.8984"/><line style="stroke:#181818;stroke-width:1.0;stroke-dasharray:2.0,2.0;" x1="1069.5" x2="1069.5" y1="712.8984" y2="725.8984"/><line style="stroke:#181818;stroke-width:1.0;stroke-dasharray:2.0,2.0;" x1="1022.5" x2="1069.5" y1="725.8984" y2="725.8984"/><polygon fill="#181818" points="1032.5,721.8984,1022.5,725.8984,1032.5,729.8984,1028.5,725.8984" style="stroke:#181818;stroke-width:1.0;"/><text fill="#000000" font-family="sans-serif" font-size="13" font-weight="bold" lengthAdjust="spacing" textLength="14" x="1034.5" y="707.6357">17</text><text fill="#000000" font-family="sans-serif" font-size="13" lengthAdjust="spacing" textLength="4" x="1052.5" y="707.6357">&#160;</text><polygon fill="#181818" points="633.5,748.1895,623.5,752.1895,633.5,756.1895,629.5,752.1895" style="stroke:#181818;stroke-width:1.0;"/><line style="stroke:#181818;stroke-width:1.0;stroke-dasharray:2.0,2.0;" x1="627.5" x2="1016.5" y1="752.1895" y2="752.1895"/><text fill="#000000" font-family="sans-serif" font-size="13" font-weight="bold" lengthAdjust="spacing" textLength="14" x="639.5" y="746.9268">18</text><text fill="#000000" font-family="sans-serif" font-size="13" lengthAdjust="spacing" textLength="17" x="657.5" y="746.9268">list</text><polygon fill="#181818" points="361.5,779.4805,351.5,783.4805,361.5,787.4805,357.5,783.4805" style="stroke:#181818;stroke-width:1.0;"/><line style="stroke:#181818;stroke-width:1.0;stroke-dasharray:2.0,2.0;" x1="355.5" x2="616.5" y1="783.4805" y2="783.4805"/><text fill="#000000" font-family="sans-serif" font-size="13" font-weight="bold" lengthAdjust="spacing" textLength="14" x="367.5" y="778.2178">19</text><text fill="#000000" font-family="sans-serif" font-size="13" lengthAdjust="spacing" textLength="17" x="385.5" y="778.2178">list</text><polygon fill="#181818" points="34.5,810.7715,24.5,814.7715,34.5,818.7715,30.5,814.7715" style="stroke:#181818;stroke-width:1.0;"/><line style="stroke:#181818;stroke-width:1.0;stroke-dasharray:2.0,2.0;" x1="28.5" x2="344.5" y1="814.7715" y2="814.7715"/><text fill="#000000" font-family="sans-serif" font-size="13" font-weight="bold" lengthAdjust="spacing" textLength="14" x="40.5" y="809.5088">20</text><text fill="#000000" font-family="sans-serif" font-size="13" lengthAdjust="spacing" textLength="270" x="58.5" y="809.5088">displays operation success by showing the list</text><!--SRC=[hLLDRzim3BtxLn2vD2aMeASTSXWmj4CG8CM6ki4klQWsQmkH9K-KEtY_VfJIshBZPEssGpuWypq-FeeqxQMkXHKLL4QRhBIcGd2smOIw9xN8zgB0rBKAmMBcX2vK742boCrFgGju4eemIIukd7GSdBRai88KVpIeCuGRAGeFcAVfpGAMi4klhZucYMYSqKtrY9R_PyvOcAtJsna80lvDE8cJcQo5TZ1RRIMvjKNKAUj2scr2t6vpFkpQQ6UDKcX3-FNztNO4kCFQaEJa4Yd4T0TjAdt1h748iH7YGHyJVDj-lXyYYavGJxvwqEk9uqFrWmV17Fai70PR-0FBJrmvh3XsJ-0CAAuQX58GCW65sg4IclkNmsCBfQnw5ZQDqSpXxRYyP9xC8Z_e8u9F_ij7JHZ2a0BTHXFVYGpdYnuvvTuKmV8bFJF5VYOvdgLwrUGzFeYOCZ4M5BeHmdtAa7C5Kms9KuVwuuF0uarZ3jy0hvelDpcslqGWmztcEH2gu39SMGswHAXuUav5zgqu5FJL5aBBNvZxgppluZw0CWLtSqTe5x4qxkP8T-VIq9kE_et41xB-xWqlvOZxTBO_5_CFAIhXil8xKsuxlldVK1znnqQyNzOpMldKVgbgruR2_NpUUgcOdzRq5cBpukUHdN62_rdSUx1Ju31lNjqPtDJQUPsT03swbUDLrarbBgbMeYKmDLhX96yQQZ9UXkIt89M7rvKVnB4cPeeLygBz3G00]--></g></svg>