<?xml version="1.0" encoding="UTF-8" standalone="no"?><svg xmlns="http://www.w3.org/2000/svg" xmlns:xlink="http://www.w3.org/1999/xlink" contentStyleType="text/css" height="1520px" preserveAspectRatio="none" style="width:2104px;height:1520px;background:#FFFFFF;" version="1.1" viewBox="0 0 2104 1520" width="2104px" zoomAndPan="magnify"><defs/><g><!--cluster UI--><g id="cluster_UI"><path d="M267.5,6 L282.5,6 A3.75,3.75 0 0 1 285,8.5 L292,29.6094 L640.5,29.6094 A2.5,2.5 0 0 1 643,32.1094 L643,156.5 A2.5,2.5 0 0 1 640.5,159 L267.5,159 A2.5,2.5 0 0 1 265,156.5 L265,8.5 A2.5,2.5 0 0 1 267.5,6 " fill="none" style="stroke:#000000;stroke-width:1.5;"/><line style="stroke:#000000;stroke-width:1.5;" x1="265" x2="292" y1="29.6094" y2="29.6094"/><text fill="#000000" font-family="sans-serif" font-size="14" font-weight="bold" lengthAdjust="spacing" textLength="14" x="269" y="22.5332">UI</text></g><!--cluster CONTROLLER--><g id="cluster_CONTROLLER"><path d="M274.5,192 L370.5,192 A3.75,3.75 0 0 1 373,194.5 L380,215.6094 L633.5,215.6094 A2.5,2.5 0 0 1 636,218.1094 L636,359.5 A2.5,2.5 0 0 1 633.5,362 L274.5,362 A2.5,2.5 0 0 1 272,359.5 L272,194.5 A2.5,2.5 0 0 1 274.5,192 " fill="none" style="stroke:#000000;stroke-width:1.5;"/><line style="stroke:#000000;stroke-width:1.5;" x1="272" x2="380" y1="215.6094" y2="215.6094"/><text fill="#000000" font-family="sans-serif" font-size="14" font-weight="bold" lengthAdjust="spacing" textLength="95" x="276" y="208.5332">CONTROLLER</text></g><!--cluster DOMAIN--><g id="cluster_DOMAIN"><path d="M8.5,412 L66.5,412 A3.75,3.75 0 0 1 69,414.5 L76,435.6094 L526.5,435.6094 A2.5,2.5 0 0 1 529,438.1094 L529,1135.5 A2.5,2.5 0 0 1 526.5,1138 L8.5,1138 A2.5,2.5 0 0 1 6,1135.5 L6,414.5 A2.5,2.5 0 0 1 8.5,412 " fill="none" style="stroke:#000000;stroke-width:1.5;"/><line style="stroke:#000000;stroke-width:1.5;" x1="6" x2="76" y1="435.6094" y2="435.6094"/><text fill="#000000" font-family="sans-serif" font-size="14" font-weight="bold" lengthAdjust="spacing" textLength="57" x="10" y="428.5332">DOMAIN</text></g><!--cluster REPOSITORY--><g id="cluster_REPOSITORY"><path d="M32.5,456 L124.5,456 A3.75,3.75 0 0 1 127,458.5 L134,479.6094 L502.5,479.6094 A2.5,2.5 0 0 1 505,482.1094 L505,873.5 A2.5,2.5 0 0 1 502.5,876 L32.5,876 A2.5,2.5 0 0 1 30,873.5 L30,458.5 A2.5,2.5 0 0 1 32.5,456 " fill="none" style="stroke:#000000;stroke-width:1.5;"/><line style="stroke:#000000;stroke-width:1.5;" x1="30" x2="134" y1="479.6094" y2="479.6094"/><text fill="#000000" font-family="sans-serif" font-size="14" font-weight="bold" lengthAdjust="spacing" textLength="91" x="34" y="472.5332">REPOSITORY</text></g><!--cluster MODEL--><g id="cluster_MODEL"><path d="M176.5,926 L228.5,926 A3.75,3.75 0 0 1 231,928.5 L238,949.6094 L405.5,949.6094 A2.5,2.5 0 0 1 408,952.1094 L408,1111.5 A2.5,2.5 0 0 1 405.5,1114 L176.5,1114 A2.5,2.5 0 0 1 174,1111.5 L174,928.5 A2.5,2.5 0 0 1 176.5,926 " fill="none" style="stroke:#000000;stroke-width:1.5;"/><line style="stroke:#000000;stroke-width:1.5;" x1="174" x2="238" y1="949.6094" y2="949.6094"/><text fill="#000000" font-family="sans-serif" font-size="14" font-weight="bold" lengthAdjust="spacing" textLength="51" x="178" y="942.5332">MODEL</text></g><!--cluster EXTERNAL--><g id="cluster_EXTERNAL"><path d="M555.5,961 L628.5,961 A3.75,3.75 0 0 1 631,963.5 L638,984.6094 L1636.5,984.6094 A2.5,2.5 0 0 1 1639,987.1094 L1639,1396 A2.5,2.5 0 0 1 1636.5,1398.5 L555.5,1398.5 A2.5,2.5 0 0 1 553,1396 L553,963.5 A2.5,2.5 0 0 1 555.5,961 " fill="none" style="stroke:#000000;stroke-width:1.5;"/><line style="stroke:#000000;stroke-width:1.5;" x1="553" x2="638" y1="984.6094" y2="984.6094"/><text fill="#000000" font-family="sans-serif" font-size="14" font-weight="bold" lengthAdjust="spacing" textLength="72" x="557" y="977.5332">EXTERNAL</text></g><!--cluster DTO--><g id="cluster_DTO"><path d="M1665.5,952.5 L1695.5,952.5 A3.75,3.75 0 0 1 1698,955 L1705,976.1094 L2094.5,976.1094 A2.5,2.5 0 0 1 2097,978.6094 L2097,1510.5 A2.5,2.5 0 0 1 2094.5,1513 L1665.5,1513 A2.5,2.5 0 0 1 1663,1510.5 L1663,955 A2.5,2.5 0 0 1 1665.5,952.5 " fill="none" style="stroke:#000000;stroke-width:1.5;"/><line style="stroke:#000000;stroke-width:1.5;" x1="1663" x2="1705" y1="976.1094" y2="976.1094"/><text fill="#000000" font-family="sans-serif" font-size="14" font-weight="bold" lengthAdjust="spacing" textLength="29" x="1667" y="969.0332">DTO</text></g><!--class ListGreenSpacesUI--><g id="elem_ListGreenSpacesUI"><rect codeLine="6" fill="#F1F1F1" height="100.8281" id="ListGreenSpacesUI" rx="2.5" ry="2.5" style="stroke:#181818;stroke-width:0.5;" width="345" x="281.5" y="42"/><ellipse cx="389.25" cy="58" fill="#ADD1B2" rx="11" ry="11" style="stroke:#181818;stroke-width:1.0;"/><path d="M392.0156,53.875 Q392.1719,53.6563 392.3594,53.5469 Q392.5469,53.4375 392.7656,53.4375 Q393.1406,53.4375 393.375,53.7031 Q393.6094,53.9531 393.6094,54.5625 L393.6094,56.0156 Q393.6094,56.625 393.375,56.8906 Q393.1406,57.1563 392.7656,57.1563 Q392.4219,57.1563 392.2188,56.9531 Q392.0156,56.7656 391.9063,56.25 Q391.8594,55.8906 391.6719,55.7031 Q391.3438,55.3281 390.7344,55.1094 Q390.125,54.8906 389.5,54.8906 Q388.7344,54.8906 388.0938,55.2188 Q387.4688,55.5469 386.9688,56.2969 Q386.4844,57.0469 386.4844,58.0781 L386.4844,59.1719 Q386.4844,60.4063 387.375,61.2344 Q388.2656,62.0469 389.8594,62.0469 Q390.7969,62.0469 391.4531,61.7969 Q391.8438,61.6406 392.2656,61.2031 Q392.5313,60.9375 392.6719,60.8594 Q392.8281,60.7813 393.0313,60.7813 Q393.3594,60.7813 393.6094,61.0469 Q393.875,61.2969 393.875,61.6406 Q393.875,61.9844 393.5313,62.3906 Q393.0313,62.9688 392.2344,63.2969 Q391.1563,63.75 389.8594,63.75 Q388.3438,63.75 387.1406,63.125 Q386.1563,62.625 385.4688,61.5625 Q384.7813,60.4844 384.7813,59.2031 L384.7813,58.0469 Q384.7813,56.7188 385.3906,55.5781 Q386.0156,54.4219 387.1094,53.8125 Q388.2031,53.1875 389.4375,53.1875 Q390.1719,53.1875 390.8125,53.3594 Q391.4688,53.5156 392.0156,53.875 Z " fill="#000000"/><text fill="#000000" font-family="sans-serif" font-size="14" lengthAdjust="spacing" textLength="121" x="409.75" y="63.7285">ListGreenSpacesUI</text><line style="stroke:#181818;stroke-width:0.5;" x1="282.5" x2="625.5" y1="74" y2="74"/><rect fill="none" height="6" style="stroke:#C82930;stroke-width:1.0;" width="6" x="289.5" y="85.3047"/><text fill="#000000" font-family="sans-serif" font-size="14" lengthAdjust="spacing" textLength="242" x="301.5" y="92.5332">controller : ListGreenSpacesController</text><line style="stroke:#181818;stroke-width:0.5;" x1="282.5" x2="625.5" y1="99.6094" y2="99.6094"/><ellipse cx="292.5" cy="113.9141" fill="#84BE84" rx="3" ry="3" style="stroke:#038048;stroke-width:1.0;"/><text fill="#000000" font-family="sans-serif" font-size="14" lengthAdjust="spacing" textLength="131" x="301.5" y="118.1426">ListGreenSpacesUI()</text><ellipse cx="292.5" cy="131.5234" fill="#84BE84" rx="3" ry="3" style="stroke:#038048;stroke-width:1.0;"/><text fill="#000000" font-family="sans-serif" font-size="14" lengthAdjust="spacing" textLength="319" x="301.5" y="135.752">getOrganizedList(loggedUser) : List&lt;GreenSpace&gt;</text></g><!--class ListGreenSpacesController--><g id="elem_ListGreenSpacesController"><rect codeLine="13" fill="#F1F1F1" height="118.4375" id="ListGreenSpacesController" rx="2.5" ry="2.5" style="stroke:#181818;stroke-width:0.5;" width="331" x="288.5" y="228"/><ellipse cx="364.25" cy="244" fill="#ADD1B2" rx="11" ry="11" style="stroke:#181818;stroke-width:1.0;"/><path d="M367.0156,239.875 Q367.1719,239.6563 367.3594,239.5469 Q367.5469,239.4375 367.7656,239.4375 Q368.1406,239.4375 368.375,239.7031 Q368.6094,239.9531 368.6094,240.5625 L368.6094,242.0156 Q368.6094,242.625 368.375,242.8906 Q368.1406,243.1563 367.7656,243.1563 Q367.4219,243.1563 367.2188,242.9531 Q367.0156,242.7656 366.9063,242.25 Q366.8594,241.8906 366.6719,241.7031 Q366.3438,241.3281 365.7344,241.1094 Q365.125,240.8906 364.5,240.8906 Q363.7344,240.8906 363.0938,241.2188 Q362.4688,241.5469 361.9688,242.2969 Q361.4844,243.0469 361.4844,244.0781 L361.4844,245.1719 Q361.4844,246.4063 362.375,247.2344 Q363.2656,248.0469 364.8594,248.0469 Q365.7969,248.0469 366.4531,247.7969 Q366.8438,247.6406 367.2656,247.2031 Q367.5313,246.9375 367.6719,246.8594 Q367.8281,246.7813 368.0313,246.7813 Q368.3594,246.7813 368.6094,247.0469 Q368.875,247.2969 368.875,247.6406 Q368.875,247.9844 368.5313,248.3906 Q368.0313,248.9688 367.2344,249.2969 Q366.1563,249.75 364.8594,249.75 Q363.3438,249.75 362.1406,249.125 Q361.1563,248.625 360.4688,247.5625 Q359.7813,246.4844 359.7813,245.2031 L359.7813,244.0469 Q359.7813,242.7188 360.3906,241.5781 Q361.0156,240.4219 362.1094,239.8125 Q363.2031,239.1875 364.4375,239.1875 Q365.1719,239.1875 365.8125,239.3594 Q366.4688,239.5156 367.0156,239.875 Z " fill="#000000"/><text fill="#000000" font-family="sans-serif" font-size="14" lengthAdjust="spacing" textLength="171" x="384.75" y="249.7285">ListGreenSpacesController</text><line style="stroke:#181818;stroke-width:0.5;" x1="289.5" x2="618.5" y1="260" y2="260"/><rect fill="none" height="6" style="stroke:#C82930;stroke-width:1.0;" width="6" x="296.5" y="271.3047"/><text fill="#000000" font-family="sans-serif" font-size="14" lengthAdjust="spacing" textLength="161" x="308.5" y="278.5332">repositories: Repositories</text><rect fill="none" height="6" style="stroke:#C82930;stroke-width:1.0;" width="6" x="296.5" y="288.9141"/><text fill="#000000" font-family="sans-serif" font-size="14" lengthAdjust="spacing" textLength="305" x="308.5" y="296.1426">greenSpaceRepository : GreenSpaceRepository</text><line style="stroke:#181818;stroke-width:0.5;" x1="289.5" x2="618.5" y1="303.2188" y2="303.2188"/><ellipse cx="299.5" cy="317.5234" fill="#84BE84" rx="3" ry="3" style="stroke:#038048;stroke-width:1.0;"/><text fill="#000000" font-family="sans-serif" font-size="14" lengthAdjust="spacing" textLength="181" x="308.5" y="321.752">ListGreenSpacesController()</text><ellipse cx="299.5" cy="335.1328" fill="#84BE84" rx="3" ry="3" style="stroke:#038048;stroke-width:1.0;"/><text fill="#000000" font-family="sans-serif" font-size="14" lengthAdjust="spacing" textLength="254" x="308.5" y="339.3613">getList(loggedUser) : List&lt;GreenSpace&gt;</text></g><!--class Repositories--><g id="elem_Repositories"><rect codeLine="23" fill="#F1F1F1" height="136.0469" id="Repositories" rx="2.5" ry="2.5" style="stroke:#181818;stroke-width:0.5;" width="364" x="46" y="492"/><ellipse cx="184.25" cy="508" fill="#ADD1B2" rx="11" ry="11" style="stroke:#181818;stroke-width:1.0;"/><path d="M187.0156,503.875 Q187.1719,503.6563 187.3594,503.5469 Q187.5469,503.4375 187.7656,503.4375 Q188.1406,503.4375 188.375,503.7031 Q188.6094,503.9531 188.6094,504.5625 L188.6094,506.0156 Q188.6094,506.625 188.375,506.8906 Q188.1406,507.1563 187.7656,507.1563 Q187.4219,507.1563 187.2188,506.9531 Q187.0156,506.7656 186.9063,506.25 Q186.8594,505.8906 186.6719,505.7031 Q186.3438,505.3281 185.7344,505.1094 Q185.125,504.8906 184.5,504.8906 Q183.7344,504.8906 183.0938,505.2188 Q182.4688,505.5469 181.9688,506.2969 Q181.4844,507.0469 181.4844,508.0781 L181.4844,509.1719 Q181.4844,510.4063 182.375,511.2344 Q183.2656,512.0469 184.8594,512.0469 Q185.7969,512.0469 186.4531,511.7969 Q186.8438,511.6406 187.2656,511.2031 Q187.5313,510.9375 187.6719,510.8594 Q187.8281,510.7813 188.0313,510.7813 Q188.3594,510.7813 188.6094,511.0469 Q188.875,511.2969 188.875,511.6406 Q188.875,511.9844 188.5313,512.3906 Q188.0313,512.9688 187.2344,513.2969 Q186.1563,513.75 184.8594,513.75 Q183.3438,513.75 182.1406,513.125 Q181.1563,512.625 180.4688,511.5625 Q179.7813,510.4844 179.7813,509.2031 L179.7813,508.0469 Q179.7813,506.7188 180.3906,505.5781 Q181.0156,504.4219 182.1094,503.8125 Q183.2031,503.1875 184.4375,503.1875 Q185.1719,503.1875 185.8125,503.3594 Q186.4688,503.5156 187.0156,503.875 Z " fill="#000000"/><text fill="#000000" font-family="sans-serif" font-size="14" lengthAdjust="spacing" textLength="79" x="204.75" y="513.7285">Repositories</text><line style="stroke:#181818;stroke-width:0.5;" x1="47" x2="409" y1="524" y2="524"/><rect fill="none" height="6" style="stroke:#C82930;stroke-width:1.0;" width="6" x="54" y="535.3047"/><text fill="#000000" font-family="sans-serif" font-size="14" lengthAdjust="spacing" textLength="144" x="66" y="542.5332">instance : Repositories</text><rect fill="none" height="6" style="stroke:#C82930;stroke-width:1.0;" width="6" x="54" y="552.9141"/><text fill="#000000" font-family="sans-serif" font-size="14" lengthAdjust="spacing" textLength="305" x="66" y="560.1426">greenSpaceRepository : GreenSpaceRepository</text><line style="stroke:#181818;stroke-width:0.5;" x1="47" x2="409" y1="567.2188" y2="567.2188"/><rect fill="#F24D5C" height="6" style="stroke:#C82930;stroke-width:1.0;" width="6" x="54" y="578.5234"/><text fill="#000000" font-family="sans-serif" font-size="14" lengthAdjust="spacing" textLength="89" x="66" y="585.752">Repositories()</text><ellipse cx="57" cy="599.1328" fill="#84BE84" rx="3" ry="3" style="stroke:#038048;stroke-width:1.0;"/><text fill="#000000" font-family="sans-serif" font-size="14" lengthAdjust="spacing" textLength="174" x="66" y="603.3613">getInstance() : Repositories</text><ellipse cx="57" cy="616.7422" fill="#84BE84" rx="3" ry="3" style="stroke:#038048;stroke-width:1.0;"/><text fill="#000000" font-family="sans-serif" font-size="14" lengthAdjust="spacing" textLength="338" x="66" y="620.9707">getGreenSpaceRepository() : GreenSpaceRepository</text></g><!--class GreenSpaceRepository--><g id="elem_GreenSpaceRepository"><rect codeLine="31" fill="#F1F1F1" height="153.6563" id="GreenSpaceRepository" rx="2.5" ry="2.5" style="stroke:#181818;stroke-width:0.5;" width="396" x="93" y="706"/><ellipse cx="212.75" cy="722" fill="#ADD1B2" rx="11" ry="11" style="stroke:#181818;stroke-width:1.0;"/><path d="M215.5156,717.875 Q215.6719,717.6563 215.8594,717.5469 Q216.0469,717.4375 216.2656,717.4375 Q216.6406,717.4375 216.875,717.7031 Q217.1094,717.9531 217.1094,718.5625 L217.1094,720.0156 Q217.1094,720.625 216.875,720.8906 Q216.6406,721.1563 216.2656,721.1563 Q215.9219,721.1563 215.7188,720.9531 Q215.5156,720.7656 215.4063,720.25 Q215.3594,719.8906 215.1719,719.7031 Q214.8438,719.3281 214.2344,719.1094 Q213.625,718.8906 213,718.8906 Q212.2344,718.8906 211.5938,719.2188 Q210.9688,719.5469 210.4688,720.2969 Q209.9844,721.0469 209.9844,722.0781 L209.9844,723.1719 Q209.9844,724.4063 210.875,725.2344 Q211.7656,726.0469 213.3594,726.0469 Q214.2969,726.0469 214.9531,725.7969 Q215.3438,725.6406 215.7656,725.2031 Q216.0313,724.9375 216.1719,724.8594 Q216.3281,724.7813 216.5313,724.7813 Q216.8594,724.7813 217.1094,725.0469 Q217.375,725.2969 217.375,725.6406 Q217.375,725.9844 217.0313,726.3906 Q216.5313,726.9688 215.7344,727.2969 Q214.6563,727.75 213.3594,727.75 Q211.8438,727.75 210.6406,727.125 Q209.6563,726.625 208.9688,725.5625 Q208.2813,724.4844 208.2813,723.2031 L208.2813,722.0469 Q208.2813,720.7188 208.8906,719.5781 Q209.5156,718.4219 210.6094,717.8125 Q211.7031,717.1875 212.9375,717.1875 Q213.6719,717.1875 214.3125,717.3594 Q214.9688,717.5156 215.5156,717.875 Z " fill="#000000"/><text fill="#000000" font-family="sans-serif" font-size="14" lengthAdjust="spacing" textLength="148" x="233.25" y="727.7285">GreenSpaceRepository</text><line style="stroke:#181818;stroke-width:0.5;" x1="94" x2="488" y1="738" y2="738"/><rect fill="none" height="6" style="stroke:#C82930;stroke-width:1.0;" width="6" x="101" y="749.3047"/><text fill="#000000" font-family="sans-serif" font-size="14" lengthAdjust="spacing" textLength="229" x="113" y="756.5332">greenSpaceList : List&lt;GreenSpace&gt;</text><line style="stroke:#181818;stroke-width:0.5;" x1="94" x2="488" y1="763.6094" y2="763.6094"/><ellipse cx="104" cy="777.9141" fill="#84BE84" rx="3" ry="3" style="stroke:#038048;stroke-width:1.0;"/><text fill="#000000" font-family="sans-serif" font-size="14" lengthAdjust="spacing" textLength="158" x="113" y="782.1426">GreenSpaceRepository()</text><ellipse cx="104" cy="795.5234" fill="#84BE84" rx="3" ry="3" style="stroke:#038048;stroke-width:1.0;"/><text fill="#000000" font-family="sans-serif" font-size="14" lengthAdjust="spacing" textLength="341" x="113" y="799.752">getOrganizedList(loggedUser) : List&lt;GreenSpaceDto&gt;</text><rect fill="#F24D5C" height="6" style="stroke:#C82930;stroke-width:1.0;" width="6" x="101" y="810.1328"/><text fill="#000000" font-family="sans-serif" font-size="14" lengthAdjust="spacing" textLength="370" x="113" y="817.3613">verifyEmptyList(listMatched : List&lt;GreenSpace&gt;) : Boolean</text><rect fill="#F24D5C" height="6" style="stroke:#C82930;stroke-width:1.0;" width="6" x="101" y="827.7422"/><text fill="#000000" font-family="sans-serif" font-size="14" lengthAdjust="spacing" textLength="355" x="113" y="834.9707">matchWithLoggedUser(loggedUser) : List&lt;GreenSpace&gt;</text><rect fill="#F24D5C" height="6" style="stroke:#C82930;stroke-width:1.0;" width="6" x="101" y="845.3516"/><text fill="#000000" font-family="sans-serif" font-size="14" lengthAdjust="spacing" textLength="325" x="113" y="852.5801">organizeList(listMatched : List&lt;GreenSpace&gt;) : void</text></g><!--class GreenSpace--><g id="elem_GreenSpace"><rect codeLine="41" fill="#F1F1F1" height="136.0469" id="GreenSpace" rx="2.5" ry="2.5" style="stroke:#181818;stroke-width:0.5;" width="202" x="190" y="962"/><ellipse cx="246.75" cy="978" fill="#ADD1B2" rx="11" ry="11" style="stroke:#181818;stroke-width:1.0;"/><path d="M249.5156,973.875 Q249.6719,973.6563 249.8594,973.5469 Q250.0469,973.4375 250.2656,973.4375 Q250.6406,973.4375 250.875,973.7031 Q251.1094,973.9531 251.1094,974.5625 L251.1094,976.0156 Q251.1094,976.625 250.875,976.8906 Q250.6406,977.1563 250.2656,977.1563 Q249.9219,977.1563 249.7188,976.9531 Q249.5156,976.7656 249.4063,976.25 Q249.3594,975.8906 249.1719,975.7031 Q248.8438,975.3281 248.2344,975.1094 Q247.625,974.8906 247,974.8906 Q246.2344,974.8906 245.5938,975.2188 Q244.9688,975.5469 244.4688,976.2969 Q243.9844,977.0469 243.9844,978.0781 L243.9844,979.1719 Q243.9844,980.4063 244.875,981.2344 Q245.7656,982.0469 247.3594,982.0469 Q248.2969,982.0469 248.9531,981.7969 Q249.3438,981.6406 249.7656,981.2031 Q250.0313,980.9375 250.1719,980.8594 Q250.3281,980.7813 250.5313,980.7813 Q250.8594,980.7813 251.1094,981.0469 Q251.375,981.2969 251.375,981.6406 Q251.375,981.9844 251.0313,982.3906 Q250.5313,982.9688 249.7344,983.2969 Q248.6563,983.75 247.3594,983.75 Q245.8438,983.75 244.6406,983.125 Q243.6563,982.625 242.9688,981.5625 Q242.2813,980.4844 242.2813,979.2031 L242.2813,978.0469 Q242.2813,976.7188 242.8906,975.5781 Q243.5156,974.4219 244.6094,973.8125 Q245.7031,973.1875 246.9375,973.1875 Q247.6719,973.1875 248.3125,973.3594 Q248.9688,973.5156 249.5156,973.875 Z " fill="#000000"/><text fill="#000000" font-family="sans-serif" font-size="14" lengthAdjust="spacing" textLength="80" x="267.25" y="983.7285">GreenSpace</text><line style="stroke:#181818;stroke-width:0.5;" x1="191" x2="391" y1="994" y2="994"/><rect fill="none" height="6" style="stroke:#C82930;stroke-width:1.0;" width="6" x="198" y="1005.3047"/><text fill="#000000" font-family="sans-serif" font-size="14" lengthAdjust="spacing" textLength="84" x="210" y="1012.5332">name : String</text><rect fill="none" height="6" style="stroke:#C82930;stroke-width:1.0;" width="6" x="198" y="1022.9141"/><text fill="#000000" font-family="sans-serif" font-size="14" lengthAdjust="spacing" textLength="81" x="210" y="1030.1426">size : Double</text><rect fill="none" height="6" style="stroke:#C82930;stroke-width:1.0;" width="6" x="198" y="1040.5234"/><text fill="#000000" font-family="sans-serif" font-size="14" lengthAdjust="spacing" textLength="146" x="210" y="1047.752">manager : Collaborator</text><line style="stroke:#181818;stroke-width:0.5;" x1="191" x2="391" y1="1054.8281" y2="1054.8281"/><ellipse cx="201" cy="1069.1328" fill="#84BE84" rx="3" ry="3" style="stroke:#038048;stroke-width:1.0;"/><text fill="#000000" font-family="sans-serif" font-size="14" lengthAdjust="spacing" textLength="176" x="210" y="1073.3613">getManager() : Collaborator</text><ellipse cx="201" cy="1086.7422" fill="#84BE84" rx="3" ry="3" style="stroke:#038048;stroke-width:1.0;"/><text fill="#000000" font-family="sans-serif" font-size="14" lengthAdjust="spacing" textLength="113" x="210" y="1090.9707">getSize() : Double</text></g><!--class SortAlgorithms--><g id="elem_SortAlgorithms"><rect codeLine="51" fill="#F1F1F1" height="65.6094" id="SortAlgorithms" rx="2.5" ry="2.5" style="stroke:#181818;stroke-width:0.5;" width="328" x="634" y="997"/><ellipse cx="747.75" cy="1013" fill="#B4A7E5" rx="11" ry="11" style="stroke:#181818;stroke-width:1.0;"/><path d="M748.7031,1009.6406 L748.7031,1016.2969 L750.4219,1016.2969 Q751.0313,1016.2969 751.2969,1016.5313 Q751.5625,1016.7656 751.5625,1017.1563 Q751.5625,1017.5313 751.2969,1017.7656 Q751.0313,1018 750.4219,1018 L745.2813,1018 Q744.6719,1018 744.4063,1017.7656 Q744.1406,1017.5313 744.1406,1017.1406 Q744.1406,1016.7656 744.4063,1016.5313 Q744.6719,1016.2969 745.2813,1016.2969 L747,1016.2969 L747,1009.6406 L745.2813,1009.6406 Q744.6719,1009.6406 744.4063,1009.4063 Q744.1406,1009.1719 744.1406,1008.7813 Q744.1406,1008.4063 744.4063,1008.1719 Q744.6719,1007.9375 745.2813,1007.9375 L750.4219,1007.9375 Q751.0313,1007.9375 751.2969,1008.1719 Q751.5625,1008.4063 751.5625,1008.7813 Q751.5625,1009.1719 751.2969,1009.4063 Q751.0313,1009.6406 750.4219,1009.6406 L748.7031,1009.6406 Z " fill="#000000"/><text fill="#000000" font-family="sans-serif" font-size="14" font-style="italic" lengthAdjust="spacing" textLength="92" x="768.25" y="1018.7285">SortAlgorithms</text><line style="stroke:#181818;stroke-width:0.5;" x1="635" x2="961" y1="1029" y2="1029"/><line style="stroke:#181818;stroke-width:0.5;" x1="635" x2="961" y1="1037" y2="1037"/><ellipse cx="645" cy="1051.3047" fill="#84BE84" rx="3" ry="3" style="stroke:#038048;stroke-width:1.0;"/><text fill="#000000" font-family="sans-serif" font-size="14" lengthAdjust="spacing" textLength="302" x="654" y="1055.5332">sort(g : List&lt;GreenSpace&gt;) : List&lt;GreenSpace&gt;</text></g><!--class SortByAscending--><g id="elem_SortByAscending"><rect codeLine="54" fill="#F1F1F1" height="65.6094" id="SortByAscending" rx="2.5" ry="2.5" style="stroke:#181818;stroke-width:0.5;" width="328" x="569" y="1316.5"/><ellipse cx="674.75" cy="1332.5" fill="#ADD1B2" rx="11" ry="11" style="stroke:#181818;stroke-width:1.0;"/><path d="M677.5156,1328.375 Q677.6719,1328.1563 677.8594,1328.0469 Q678.0469,1327.9375 678.2656,1327.9375 Q678.6406,1327.9375 678.875,1328.2031 Q679.1094,1328.4531 679.1094,1329.0625 L679.1094,1330.5156 Q679.1094,1331.125 678.875,1331.3906 Q678.6406,1331.6563 678.2656,1331.6563 Q677.9219,1331.6563 677.7188,1331.4531 Q677.5156,1331.2656 677.4063,1330.75 Q677.3594,1330.3906 677.1719,1330.2031 Q676.8438,1329.8281 676.2344,1329.6094 Q675.625,1329.3906 675,1329.3906 Q674.2344,1329.3906 673.5938,1329.7188 Q672.9688,1330.0469 672.4688,1330.7969 Q671.9844,1331.5469 671.9844,1332.5781 L671.9844,1333.6719 Q671.9844,1334.9063 672.875,1335.7344 Q673.7656,1336.5469 675.3594,1336.5469 Q676.2969,1336.5469 676.9531,1336.2969 Q677.3438,1336.1406 677.7656,1335.7031 Q678.0313,1335.4375 678.1719,1335.3594 Q678.3281,1335.2813 678.5313,1335.2813 Q678.8594,1335.2813 679.1094,1335.5469 Q679.375,1335.7969 679.375,1336.1406 Q679.375,1336.4844 679.0313,1336.8906 Q678.5313,1337.4688 677.7344,1337.7969 Q676.6563,1338.25 675.3594,1338.25 Q673.8438,1338.25 672.6406,1337.625 Q671.6563,1337.125 670.9688,1336.0625 Q670.2813,1334.9844 670.2813,1333.7031 L670.2813,1332.5469 Q670.2813,1331.2188 670.8906,1330.0781 Q671.5156,1328.9219 672.6094,1328.3125 Q673.7031,1327.6875 674.9375,1327.6875 Q675.6719,1327.6875 676.3125,1327.8594 Q676.9688,1328.0156 677.5156,1328.375 Z " fill="#000000"/><text fill="#000000" font-family="sans-serif" font-size="14" lengthAdjust="spacing" textLength="108" x="695.25" y="1338.2285">SortByAscending</text><line style="stroke:#181818;stroke-width:0.5;" x1="570" x2="896" y1="1348.5" y2="1348.5"/><line style="stroke:#181818;stroke-width:0.5;" x1="570" x2="896" y1="1356.5" y2="1356.5"/><ellipse cx="580" cy="1370.8047" fill="#84BE84" rx="3" ry="3" style="stroke:#038048;stroke-width:1.0;"/><text fill="#000000" font-family="sans-serif" font-size="14" lengthAdjust="spacing" textLength="302" x="589" y="1375.0332">sort(g : List&lt;GreenSpace&gt;) : List&lt;GreenSpace&gt;</text></g><!--class SortByDescending--><g id="elem_SortByDescending"><rect codeLine="57" fill="#F1F1F1" height="65.6094" id="SortByDescending" rx="2.5" ry="2.5" style="stroke:#181818;stroke-width:0.5;" width="328" x="932" y="1316.5"/><ellipse cx="1033.25" cy="1332.5" fill="#ADD1B2" rx="11" ry="11" style="stroke:#181818;stroke-width:1.0;"/><path d="M1036.0156,1328.375 Q1036.1719,1328.1563 1036.3594,1328.0469 Q1036.5469,1327.9375 1036.7656,1327.9375 Q1037.1406,1327.9375 1037.375,1328.2031 Q1037.6094,1328.4531 1037.6094,1329.0625 L1037.6094,1330.5156 Q1037.6094,1331.125 1037.375,1331.3906 Q1037.1406,1331.6563 1036.7656,1331.6563 Q1036.4219,1331.6563 1036.2188,1331.4531 Q1036.0156,1331.2656 1035.9063,1330.75 Q1035.8594,1330.3906 1035.6719,1330.2031 Q1035.3438,1329.8281 1034.7344,1329.6094 Q1034.125,1329.3906 1033.5,1329.3906 Q1032.7344,1329.3906 1032.0938,1329.7188 Q1031.4688,1330.0469 1030.9688,1330.7969 Q1030.4844,1331.5469 1030.4844,1332.5781 L1030.4844,1333.6719 Q1030.4844,1334.9063 1031.375,1335.7344 Q1032.2656,1336.5469 1033.8594,1336.5469 Q1034.7969,1336.5469 1035.4531,1336.2969 Q1035.8438,1336.1406 1036.2656,1335.7031 Q1036.5313,1335.4375 1036.6719,1335.3594 Q1036.8281,1335.2813 1037.0313,1335.2813 Q1037.3594,1335.2813 1037.6094,1335.5469 Q1037.875,1335.7969 1037.875,1336.1406 Q1037.875,1336.4844 1037.5313,1336.8906 Q1037.0313,1337.4688 1036.2344,1337.7969 Q1035.1563,1338.25 1033.8594,1338.25 Q1032.3438,1338.25 1031.1406,1337.625 Q1030.1563,1337.125 1029.4688,1336.0625 Q1028.7813,1334.9844 1028.7813,1333.7031 L1028.7813,1332.5469 Q1028.7813,1331.2188 1029.3906,1330.0781 Q1030.0156,1328.9219 1031.1094,1328.3125 Q1032.2031,1327.6875 1033.4375,1327.6875 Q1034.1719,1327.6875 1034.8125,1327.8594 Q1035.4688,1328.0156 1036.0156,1328.375 Z " fill="#000000"/><text fill="#000000" font-family="sans-serif" font-size="14" lengthAdjust="spacing" textLength="117" x="1053.75" y="1338.2285">SortByDescending</text><line style="stroke:#181818;stroke-width:0.5;" x1="933" x2="1259" y1="1348.5" y2="1348.5"/><line style="stroke:#181818;stroke-width:0.5;" x1="933" x2="1259" y1="1356.5" y2="1356.5"/><ellipse cx="943" cy="1370.8047" fill="#84BE84" rx="3" ry="3" style="stroke:#038048;stroke-width:1.0;"/><text fill="#000000" font-family="sans-serif" font-size="14" lengthAdjust="spacing" textLength="302" x="952" y="1375.0332">sort(g : List&lt;GreenSpace&gt;) : List&lt;GreenSpace&gt;</text></g><!--class SortByType--><g id="elem_SortByType"><rect codeLine="60" fill="#F1F1F1" height="65.6094" id="SortByType" rx="2.5" ry="2.5" style="stroke:#181818;stroke-width:0.5;" width="328" x="1295" y="1316.5"/><ellipse cx="1417.75" cy="1332.5" fill="#ADD1B2" rx="11" ry="11" style="stroke:#181818;stroke-width:1.0;"/><path d="M1420.5156,1328.375 Q1420.6719,1328.1563 1420.8594,1328.0469 Q1421.0469,1327.9375 1421.2656,1327.9375 Q1421.6406,1327.9375 1421.875,1328.2031 Q1422.1094,1328.4531 1422.1094,1329.0625 L1422.1094,1330.5156 Q1422.1094,1331.125 1421.875,1331.3906 Q1421.6406,1331.6563 1421.2656,1331.6563 Q1420.9219,1331.6563 1420.7188,1331.4531 Q1420.5156,1331.2656 1420.4063,1330.75 Q1420.3594,1330.3906 1420.1719,1330.2031 Q1419.8438,1329.8281 1419.2344,1329.6094 Q1418.625,1329.3906 1418,1329.3906 Q1417.2344,1329.3906 1416.5938,1329.7188 Q1415.9688,1330.0469 1415.4688,1330.7969 Q1414.9844,1331.5469 1414.9844,1332.5781 L1414.9844,1333.6719 Q1414.9844,1334.9063 1415.875,1335.7344 Q1416.7656,1336.5469 1418.3594,1336.5469 Q1419.2969,1336.5469 1419.9531,1336.2969 Q1420.3438,1336.1406 1420.7656,1335.7031 Q1421.0313,1335.4375 1421.1719,1335.3594 Q1421.3281,1335.2813 1421.5313,1335.2813 Q1421.8594,1335.2813 1422.1094,1335.5469 Q1422.375,1335.7969 1422.375,1336.1406 Q1422.375,1336.4844 1422.0313,1336.8906 Q1421.5313,1337.4688 1420.7344,1337.7969 Q1419.6563,1338.25 1418.3594,1338.25 Q1416.8438,1338.25 1415.6406,1337.625 Q1414.6563,1337.125 1413.9688,1336.0625 Q1413.2813,1334.9844 1413.2813,1333.7031 L1413.2813,1332.5469 Q1413.2813,1331.2188 1413.8906,1330.0781 Q1414.5156,1328.9219 1415.6094,1328.3125 Q1416.7031,1327.6875 1417.9375,1327.6875 Q1418.6719,1327.6875 1419.3125,1327.8594 Q1419.9688,1328.0156 1420.5156,1328.375 Z " fill="#000000"/><text fill="#000000" font-family="sans-serif" font-size="14" lengthAdjust="spacing" textLength="74" x="1438.25" y="1338.2285">SortByType</text><line style="stroke:#181818;stroke-width:0.5;" x1="1296" x2="1622" y1="1348.5" y2="1348.5"/><line style="stroke:#181818;stroke-width:0.5;" x1="1296" x2="1622" y1="1356.5" y2="1356.5"/><ellipse cx="1306" cy="1370.8047" fill="#84BE84" rx="3" ry="3" style="stroke:#038048;stroke-width:1.0;"/><text fill="#000000" font-family="sans-serif" font-size="14" lengthAdjust="spacing" textLength="302" x="1315" y="1375.0332">sort(g : List&lt;GreenSpace&gt;) : List&lt;GreenSpace&gt;</text></g><!--class GreenSpaceDto--><g id="elem_GreenSpaceDto"><rect codeLine="65" fill="#F1F1F1" height="294.5313" id="GreenSpaceDto" rx="2.5" ry="2.5" style="stroke:#181818;stroke-width:0.5;" width="212" x="1774" y="1202"/><ellipse cx="1824.75" cy="1218" fill="#ADD1B2" rx="11" ry="11" style="stroke:#181818;stroke-width:1.0;"/><path d="M1827.5156,1213.875 Q1827.6719,1213.6563 1827.8594,1213.5469 Q1828.0469,1213.4375 1828.2656,1213.4375 Q1828.6406,1213.4375 1828.875,1213.7031 Q1829.1094,1213.9531 1829.1094,1214.5625 L1829.1094,1216.0156 Q1829.1094,1216.625 1828.875,1216.8906 Q1828.6406,1217.1563 1828.2656,1217.1563 Q1827.9219,1217.1563 1827.7188,1216.9531 Q1827.5156,1216.7656 1827.4063,1216.25 Q1827.3594,1215.8906 1827.1719,1215.7031 Q1826.8438,1215.3281 1826.2344,1215.1094 Q1825.625,1214.8906 1825,1214.8906 Q1824.2344,1214.8906 1823.5938,1215.2188 Q1822.9688,1215.5469 1822.4688,1216.2969 Q1821.9844,1217.0469 1821.9844,1218.0781 L1821.9844,1219.1719 Q1821.9844,1220.4063 1822.875,1221.2344 Q1823.7656,1222.0469 1825.3594,1222.0469 Q1826.2969,1222.0469 1826.9531,1221.7969 Q1827.3438,1221.6406 1827.7656,1221.2031 Q1828.0313,1220.9375 1828.1719,1220.8594 Q1828.3281,1220.7813 1828.5313,1220.7813 Q1828.8594,1220.7813 1829.1094,1221.0469 Q1829.375,1221.2969 1829.375,1221.6406 Q1829.375,1221.9844 1829.0313,1222.3906 Q1828.5313,1222.9688 1827.7344,1223.2969 Q1826.6563,1223.75 1825.3594,1223.75 Q1823.8438,1223.75 1822.6406,1223.125 Q1821.6563,1222.625 1820.9688,1221.5625 Q1820.2813,1220.4844 1820.2813,1219.2031 L1820.2813,1218.0469 Q1820.2813,1216.7188 1820.8906,1215.5781 Q1821.5156,1214.4219 1822.6094,1213.8125 Q1823.7031,1213.1875 1824.9375,1213.1875 Q1825.6719,1213.1875 1826.3125,1213.3594 Q1826.9688,1213.5156 1827.5156,1213.875 Z " fill="#000000"/><text fill="#000000" font-family="sans-serif" font-size="14" lengthAdjust="spacing" textLength="102" x="1845.25" y="1223.7285">GreenSpaceDto</text><line style="stroke:#181818;stroke-width:0.5;" x1="1775" x2="1985" y1="1234" y2="1234"/><rect fill="none" height="6" style="stroke:#C82930;stroke-width:1.0;" width="6" x="1782" y="1245.3047"/><text fill="#000000" font-family="sans-serif" font-size="14" lengthAdjust="spacing" textLength="84" x="1794" y="1252.5332">name : String</text><rect fill="none" height="6" style="stroke:#C82930;stroke-width:1.0;" width="6" x="1782" y="1262.9141"/><text fill="#000000" font-family="sans-serif" font-size="14" lengthAdjust="spacing" textLength="151" x="1794" y="1270.1426">type : GreenSpaceType</text><rect fill="none" height="6" style="stroke:#C82930;stroke-width:1.0;" width="6" x="1782" y="1280.5234"/><text fill="#000000" font-family="sans-serif" font-size="14" lengthAdjust="spacing" textLength="86" x="1794" y="1287.752">area : Double</text><rect fill="none" height="6" style="stroke:#C82930;stroke-width:1.0;" width="6" x="1782" y="1298.1328"/><text fill="#000000" font-family="sans-serif" font-size="14" lengthAdjust="spacing" textLength="147" x="1794" y="1305.3613">manager : UserSession</text><rect fill="none" height="6" style="stroke:#C82930;stroke-width:1.0;" width="6" x="1782" y="1315.7422"/><text fill="#000000" font-family="sans-serif" font-size="14" lengthAdjust="spacing" textLength="100" x="1794" y="1322.9707">address : String</text><rect fill="none" height="6" style="stroke:#C82930;stroke-width:1.0;" width="6" x="1782" y="1333.3516"/><text fill="#000000" font-family="sans-serif" font-size="14" lengthAdjust="spacing" textLength="70" x="1794" y="1340.5801">city : String</text><rect fill="none" height="6" style="stroke:#C82930;stroke-width:1.0;" width="6" x="1782" y="1350.9609"/><text fill="#000000" font-family="sans-serif" font-size="14" lengthAdjust="spacing" textLength="100" x="1794" y="1358.1895">zipCode : String</text><line style="stroke:#181818;stroke-width:0.5;" x1="1775" x2="1985" y1="1365.2656" y2="1365.2656"/><ellipse cx="1785" cy="1379.5703" fill="#84BE84" rx="3" ry="3" style="stroke:#038048;stroke-width:1.0;"/><text fill="#000000" font-family="sans-serif" font-size="14" lengthAdjust="spacing" textLength="115" x="1794" y="1383.7988">getName() : String</text><ellipse cx="1785" cy="1397.1797" fill="#84BE84" rx="3" ry="3" style="stroke:#038048;stroke-width:1.0;"/><text fill="#000000" font-family="sans-serif" font-size="14" lengthAdjust="spacing" textLength="186" x="1794" y="1401.4082">getType() : GreenSpaceType</text><ellipse cx="1785" cy="1414.7891" fill="#84BE84" rx="3" ry="3" style="stroke:#038048;stroke-width:1.0;"/><text fill="#000000" font-family="sans-serif" font-size="14" lengthAdjust="spacing" textLength="117" x="1794" y="1419.0176">getArea() : Double</text><ellipse cx="1785" cy="1432.3984" fill="#84BE84" rx="3" ry="3" style="stroke:#038048;stroke-width:1.0;"/><text fill="#000000" font-family="sans-serif" font-size="14" lengthAdjust="spacing" textLength="177" x="1794" y="1436.627">getManager() : UserSession</text><ellipse cx="1785" cy="1450.0078" fill="#84BE84" rx="3" ry="3" style="stroke:#038048;stroke-width:1.0;"/><text fill="#000000" font-family="sans-serif" font-size="14" lengthAdjust="spacing" textLength="131" x="1794" y="1454.2363">getAddress() : String</text><ellipse cx="1785" cy="1467.6172" fill="#84BE84" rx="3" ry="3" style="stroke:#038048;stroke-width:1.0;"/><text fill="#000000" font-family="sans-serif" font-size="14" lengthAdjust="spacing" textLength="103" x="1794" y="1471.8457">getCity() : String</text><ellipse cx="1785" cy="1485.2266" fill="#84BE84" rx="3" ry="3" style="stroke:#038048;stroke-width:1.0;"/><text fill="#000000" font-family="sans-serif" font-size="14" lengthAdjust="spacing" textLength="132" x="1794" y="1489.4551">getZipCode() : String</text></g><!--class GreenSpaceMapper--><g id="elem_GreenSpaceMapper"><rect codeLine="82" fill="#F1F1F1" height="83.2188" id="GreenSpaceMapper" rx="2.5" ry="2.5" style="stroke:#181818;stroke-width:0.5;" width="401" x="1679.5" y="988.5"/><ellipse cx="1811.75" cy="1004.5" fill="#ADD1B2" rx="11" ry="11" style="stroke:#181818;stroke-width:1.0;"/><path d="M1814.5156,1000.375 Q1814.6719,1000.1563 1814.8594,1000.0469 Q1815.0469,999.9375 1815.2656,999.9375 Q1815.6406,999.9375 1815.875,1000.2031 Q1816.1094,1000.4531 1816.1094,1001.0625 L1816.1094,1002.5156 Q1816.1094,1003.125 1815.875,1003.3906 Q1815.6406,1003.6563 1815.2656,1003.6563 Q1814.9219,1003.6563 1814.7188,1003.4531 Q1814.5156,1003.2656 1814.4063,1002.75 Q1814.3594,1002.3906 1814.1719,1002.2031 Q1813.8438,1001.8281 1813.2344,1001.6094 Q1812.625,1001.3906 1812,1001.3906 Q1811.2344,1001.3906 1810.5938,1001.7188 Q1809.9688,1002.0469 1809.4688,1002.7969 Q1808.9844,1003.5469 1808.9844,1004.5781 L1808.9844,1005.6719 Q1808.9844,1006.9063 1809.875,1007.7344 Q1810.7656,1008.5469 1812.3594,1008.5469 Q1813.2969,1008.5469 1813.9531,1008.2969 Q1814.3438,1008.1406 1814.7656,1007.7031 Q1815.0313,1007.4375 1815.1719,1007.3594 Q1815.3281,1007.2813 1815.5313,1007.2813 Q1815.8594,1007.2813 1816.1094,1007.5469 Q1816.375,1007.7969 1816.375,1008.1406 Q1816.375,1008.4844 1816.0313,1008.8906 Q1815.5313,1009.4688 1814.7344,1009.7969 Q1813.6563,1010.25 1812.3594,1010.25 Q1810.8438,1010.25 1809.6406,1009.625 Q1808.6563,1009.125 1807.9688,1008.0625 Q1807.2813,1006.9844 1807.2813,1005.7031 L1807.2813,1004.5469 Q1807.2813,1003.2188 1807.8906,1002.0781 Q1808.5156,1000.9219 1809.6094,1000.3125 Q1810.7031,999.6875 1811.9375,999.6875 Q1812.6719,999.6875 1813.3125,999.8594 Q1813.9688,1000.0156 1814.5156,1000.375 Z " fill="#000000"/><text fill="#000000" font-family="sans-serif" font-size="14" lengthAdjust="spacing" textLength="128" x="1832.25" y="1010.2285">GreenSpaceMapper</text><line style="stroke:#181818;stroke-width:0.5;" x1="1680.5" x2="2079.5" y1="1020.5" y2="1020.5"/><line style="stroke:#181818;stroke-width:0.5;" x1="1680.5" x2="2079.5" y1="1028.5" y2="1028.5"/><ellipse cx="1690.5" cy="1042.8047" fill="#84BE84" rx="3" ry="3" style="stroke:#038048;stroke-width:1.0;"/><text fill="#000000" font-family="sans-serif" font-size="14" lengthAdjust="spacing" textLength="327" x="1699.5" y="1047.0332">toDto(greenSpace : GreenSpace) : GreenSpaceDto</text><ellipse cx="1690.5" cy="1060.4141" fill="#84BE84" rx="3" ry="3" style="stroke:#038048;stroke-width:1.0;"/><text fill="#000000" font-family="sans-serif" font-size="14" lengthAdjust="spacing" textLength="375" x="1699.5" y="1064.6426">toDomain(greenSpaceDto : GreenSpaceDto) : GreenSpace</text></g><!--link ListGreenSpacesUI to ListGreenSpacesController--><g id="link_ListGreenSpacesUI_ListGreenSpacesController"><path codeLine="89" d="M454,143.07 C454,167.3 454,196.74 454,222.59 " fill="none" id="ListGreenSpacesUI-to-ListGreenSpacesController" style="stroke:#181818;stroke-width:1.0;stroke-dasharray:7.0,7.0;"/><polygon fill="#181818" points="454,227.7,458,218.7,454,222.7,450,218.7,454,227.7" style="stroke:#181818;stroke-width:1.0;"/></g><!--link ListGreenSpacesController to Repositories--><g id="link_ListGreenSpacesController_Repositories"><path codeLine="90" d="M405.52,346.14 C370.89,387.65 324.12,443.74 287.28,487.92 " fill="none" id="ListGreenSpacesController-to-Repositories" style="stroke:#181818;stroke-width:1.0;stroke-dasharray:7.0,7.0;"/><polygon fill="#181818" points="283.97,491.89,292.8109,487.5497,287.1766,488.0536,286.6727,482.4192,283.97,491.89" style="stroke:#181818;stroke-width:1.0;"/><text fill="#000000" font-family="sans-serif" font-size="13" lengthAdjust="spacing" textLength="67" x="375" y="392.4951">repositories</text></g><!--link Repositories to Repositories--><g id="link_Repositories_Repositories"><path codeLine="91" d="M410.05,543.04 C431.22,546.17 445,551.82 445,560 C445,567.47 433.49,572.84 415.34,576.1 " fill="none" id="Repositories-to-Repositories" style="stroke:#181818;stroke-width:1.0;"/><polygon fill="#181818" points="410.05,576.96,419.5746,579.4663,414.9854,576.1589,418.2928,571.5697,410.05,576.96" style="stroke:#181818;stroke-width:1.0;"/><text fill="#000000" font-family="sans-serif" font-size="13" lengthAdjust="spacing" textLength="49" x="451" y="565.4951">instance</text></g><!--link ListGreenSpacesController to GreenSpaceRepository--><g id="link_ListGreenSpacesController_GreenSpaceRepository"><path codeLine="92" d="M486.47,346.21 C494.87,364.19 502.74,384.42 507,404 C528.17,501.28 552.59,539.5 507,628 C491.98,657.15 468.62,681.99 442.7,702.67 " fill="none" id="ListGreenSpacesController-to-GreenSpaceRepository" style="stroke:#181818;stroke-width:1.0;stroke-dasharray:7.0,7.0;"/><polygon fill="#181818" points="438.52,705.96,448.0728,703.5632,442.4575,702.8785,443.1423,697.2632,438.52,705.96" style="stroke:#181818;stroke-width:1.0;"/><text fill="#000000" font-family="sans-serif" font-size="13" lengthAdjust="spacing" textLength="131" x="533" y="565.4951">greenSpaceRepository</text></g><!--link Repositories to GreenSpaceRepository--><g id="link_Repositories_GreenSpaceRepository"><path codeLine="93" d="M247.16,628.21 C253.68,651.09 261.04,676.91 267.84,700.77 " fill="none" id="Repositories-to-GreenSpaceRepository" style="stroke:#181818;stroke-width:1.0;"/><polygon fill="#181818" points="269.29,705.83,270.6713,696.0785,267.9202,701.0213,262.9773,698.2702,269.29,705.83" style="stroke:#181818;stroke-width:1.0;"/><text fill="#000000" font-family="sans-serif" font-size="13" lengthAdjust="spacing" textLength="131" x="260" y="672.4951">greenSpaceRepository</text><text fill="#000000" font-family="sans-serif" font-size="13" lengthAdjust="spacing" textLength="7" x="259.8872" y="695.2405">1</text></g><!--link GreenSpaceRepository to GreenSpace--><g id="link_GreenSpaceRepository_GreenSpace"><path codeLine="94" d="M291,860.18 C291,890.98 291,926.37 291,956.77 " fill="none" id="GreenSpaceRepository-to-GreenSpace" style="stroke:#181818;stroke-width:1.0;"/><polygon fill="#181818" points="291,961.99,295,952.99,291,956.99,287,952.99,291,961.99" style="stroke:#181818;stroke-width:1.0;"/><text fill="#000000" font-family="sans-serif" font-size="13" lengthAdjust="spacing" textLength="5" x="285.7266" y="951.1882">*</text></g><!--link GreenSpaceRepository to GreenSpaceMapper--><g id="link_GreenSpaceRepository_GreenSpaceMapper"><path codeLine="95" d="M489.29,795.61 C809.9,815.74 1427.58,860.55 1639,918 C1696.71,933.68 1757.86,962 1804.12,986.11 " fill="none" id="GreenSpaceRepository-to-GreenSpaceMapper" style="stroke:#181818;stroke-width:1.0;stroke-dasharray:7.0,7.0;"/><polygon fill="#181818" points="1808.55,988.43,1802.4261,980.7165,1804.1186,986.1142,1798.7209,987.8067,1808.55,988.43" style="stroke:#181818;stroke-width:1.0;"/><text fill="#000000" font-family="sans-serif" font-size="13" lengthAdjust="spacing" textLength="31" x="1601" y="906.4951">toDto</text></g><!--link GreenSpaceMapper to GreenSpaceDto--><g id="link_GreenSpaceMapper_GreenSpaceDto"><path codeLine="96" d="M1880,1071.53 C1880,1103.63 1880,1150.61 1880,1196.79 " fill="none" id="GreenSpaceMapper-to-GreenSpaceDto" style="stroke:#181818;stroke-width:1.0;stroke-dasharray:7.0,7.0;"/><polygon fill="#181818" points="1880,1201.83,1884,1192.83,1880,1196.83,1876,1192.83,1880,1201.83" style="stroke:#181818;stroke-width:1.0;"/></g><!--link GreenSpaceRepository to SortAlgorithms--><g id="link_GreenSpaceRepository_SortAlgorithms"><path codeLine="97" d="M448.29,860.01 C541.47,905.04 655.01,959.9 726.91,994.65 " fill="none" id="GreenSpaceRepository-to-SortAlgorithms" style="stroke:#181818;stroke-width:1.0;stroke-dasharray:7.0,7.0;"/><polygon fill="#181818" points="731.59,996.91,725.2227,989.3962,727.0869,994.7371,721.746,996.6012,731.59,996.91" style="stroke:#181818;stroke-width:1.0;"/><text fill="#000000" font-family="sans-serif" font-size="13" lengthAdjust="spacing" textLength="28" x="545" y="906.4951">uses</text></g><!--link SortAlgorithms to SortByAscending--><g id="link_SortAlgorithms_SortByAscending"><path codeLine="98" d="M791.41,1063.19 C779.29,1122.38 753.54,1248.18 740.66,1311.07 " fill="none" id="SortAlgorithms-to-SortByAscending" style="stroke:#181818;stroke-width:1.0;"/><polygon fill="#181818" points="739.61,1316.22,745.3513,1308.2176,740.6235,1311.3238,737.5173,1306.596,739.61,1316.22" style="stroke:#181818;stroke-width:1.0;"/><text fill="#000000" font-family="sans-serif" font-size="13" lengthAdjust="spacing" textLength="88" x="772" y="1168.4951">is implemented</text></g><!--link SortAlgorithms to SortByDescending--><g id="link_SortAlgorithms_SortByDescending"><path codeLine="99" d="M828.21,1063.19 C884.21,1122.86 1003.74,1250.2 1062.28,1312.58 " fill="none" id="SortAlgorithms-to-SortByDescending" style="stroke:#181818;stroke-width:1.0;"/><polygon fill="#181818" points="1065.71,1316.22,1062.4545,1306.9247,1062.2832,1312.579,1056.6289,1312.4077,1065.71,1316.22" style="stroke:#181818;stroke-width:1.0;"/><text fill="#000000" font-family="sans-serif" font-size="13" lengthAdjust="spacing" textLength="88" x="930" y="1168.4951">is implemented</text></g><!--link SortAlgorithms to SortByType--><g id="link_SortAlgorithms_SortByType"><path codeLine="100" d="M923.53,1063.07 C1023.4,1091.51 1164.69,1138.42 1278,1202 C1332.94,1232.83 1388.05,1280.4 1422.78,1312.92 " fill="none" id="SortAlgorithms-to-SortByType" style="stroke:#181818;stroke-width:1.0;"/><polygon fill="#181818" points="1426.49,1316.41,1422.6777,1307.3289,1422.849,1312.9832,1417.1947,1313.1545,1426.49,1316.41" style="stroke:#181818;stroke-width:1.0;"/><text fill="#000000" font-family="sans-serif" font-size="13" lengthAdjust="spacing" textLength="88" x="1217" y="1168.4951">is implemented</text></g><!--SRC=[hLRRQkCm47ttLuYyRBgbXNqjIo5DGWaayPAaxELDjIUEg2qPIUsIblpxZkp4bcpPlMpzO93cp9avez55FJ2UKqapedOq5dyPJyYMfWe2LLbIne7eVGua5-dUZ8BWImfRJRGWaYKxJM8c8T9Cy22dqGDDWDpDNWA2NvHIfSYSANqh0VWQxQ3kPgIqck-2H89hAT8K9BbgGiULhN8uRzCDponh0ZgK2UNi6MA37AOYII2-Ko3FZW6-rzxNXUSXE5IfZyFbPXNEvzCLwT5G9-PeaP0BnRIG3DGLMLaZ2vHKD1LWZvdTUgQ3Rjbr1hPyLFyHqPDmCPejNwhnQleZNCysuUgtNGDRZoERSQKfZu1yYkRQooPhBlBi67DurXMrWFaY52wTeG-19Tc7SgJNmaoHksfTfkFFvSEzEz7Ysiha2IJRxgTPhlUbB_uML4SxY3rf6RuR8LAWtEB83Fudqxjv5VWjhLGwYsFgRup-95XyB7ZvFpNV8fnCvo_UHN1ApsbcEcwj9PvRrhp2771-8XxlKt34SQGtfymOzmsz5vBY2hZbNvIOeaEwKMkCK42i68VM_wHd-cipNIr7HqcCQv1ResKjf1wb2JQjtcMgj9uhd1mc7INhsCTrfGpbpNwa8k0n5kKJEIVWaduQyGQlbl-ajCwnJLXpUVe7junZx-sasbvSV_QHOPBsuAW4skuyNmUQxRG6fSobwU69Oud6lfGYflTzzcUMZqNSewfev2KABngv3sJ4DevCh_u2FC8IDBT62sJlihvAb8nbCLvDSumLUHNqfonB5-uGECDc-onedeDiTz2v5jXPm_ekS8hbbWw1Nd-HKSOj2iGr_LoYHkAMXA3zuBgylEvvMtK_RepVoddKs4-Sm7aHN5mqiQTtmIi1VFVYbVV9q0uu-3PuXxltEaUQmTU1NLalpCsqR0LSa6BfWvR1HRkG1gbx3o3beyBIDcQDriRfZaYc2Clo53B0MoNkzgbFxtSuRSfJhm4F_W40]--></g></svg>