<?xml version="1.0" encoding="UTF-8" standalone="no"?><svg xmlns="http://www.w3.org/2000/svg" xmlns:xlink="http://www.w3.org/1999/xlink" contentStyleType="text/css" height="1165px" preserveAspectRatio="none" style="width:1548px;height:1165px;background:#FFFFFF;" version="1.1" viewBox="0 0 1548 1165" width="1548px" zoomAndPan="magnify"><defs/><g><rect fill="#FFFFFF" height="972.6172" style="stroke:#181818;stroke-width:1.0;" width="10" x="18.5" y="92.6094"/><rect fill="#FFFFFF" height="255.0703" style="stroke:#181818;stroke-width:1.0;" width="10" x="340.5" y="114.9609"/><rect fill="#FFFFFF" height="30.3516" style="stroke:#181818;stroke-width:1.0;" width="10" x="340.5" y="1034.875"/><rect fill="#FFFFFF" height="123.6641" style="stroke:#181818;stroke-width:1.0;" width="10" x="612.5" y="155.3125"/><rect fill="#FFFFFF" height="30.3516" style="stroke:#181818;stroke-width:1.0;" width="10" x="612.5" y="370.0313"/><rect fill="#FFFFFF" height="30.3516" style="stroke:#181818;stroke-width:1.0;" width="10" x="612.5" y="1004.5234"/><rect fill="#FFFFFF" height="30.3516" style="stroke:#181818;stroke-width:1.0;" width="10" x="765.5" y="187.9219"/><rect fill="#FFFFFF" height="30.3516" style="stroke:#181818;stroke-width:1.0;" width="10" x="872.5" y="248.625"/><rect fill="#FFFFFF" height="604.1406" style="stroke:#181818;stroke-width:1.0;" width="10" x="1012.5" y="400.3828"/><rect fill="#FFFFFF" height="528.4375" style="stroke:#181818;stroke-width:1.0;" width="10" x="1017.5" y="438.7344"/><rect fill="#FFFFFF" height="41.3516" style="stroke:#181818;stroke-width:1.0;" width="10" x="1022.5" y="482.0859"/><rect fill="#FFFFFF" height="355.0313" style="stroke:#181818;stroke-width:1.0;" width="10" x="1022.5" y="568.7891"/><rect fill="#FFFFFF" height="268.3281" style="stroke:#181818;stroke-width:1.0;" width="10" x="1027.5" y="612.1406"/><rect fill="#FFFFFF" height="196.625" style="stroke:#181818;stroke-width:1.0;" width="10" x="1286.5" y="647.4922"/><rect fill="#FFFFFF" height="50.2188" style="stroke:#181818;stroke-width:1.0;" width="10" x="1467.5" y="713.1953"/><rect fill="none" height="152.2734" style="stroke:#000000;stroke-width:1.5;" width="334" x="1208.5" y="662.4922"/><line style="stroke:#181818;stroke-width:0.5;stroke-dasharray:5.0,5.0;" x1="23" x2="23" y1="82.6094" y2="1083.2266"/><line style="stroke:#181818;stroke-width:0.5;stroke-dasharray:5.0,5.0;" x1="345" x2="345" y1="82.6094" y2="1083.2266"/><line style="stroke:#181818;stroke-width:0.5;stroke-dasharray:5.0,5.0;" x1="617" x2="617" y1="154.2656" y2="1083.2266"/><line style="stroke:#181818;stroke-width:0.5;stroke-dasharray:5.0,5.0;" x1="770" x2="770" y1="82.6094" y2="1083.2266"/><line style="stroke:#181818;stroke-width:0.5;stroke-dasharray:5.0,5.0;" x1="877" x2="877" y1="82.6094" y2="1083.2266"/><line style="stroke:#181818;stroke-width:0.5;stroke-dasharray:5.0,5.0;" x1="1017" x2="1017" y1="82.6094" y2="1083.2266"/><line style="stroke:#181818;stroke-width:0.5;stroke-dasharray:5.0,5.0;" x1="1291.5" x2="1291.5" y1="82.6094" y2="1083.2266"/><line style="stroke:#181818;stroke-width:0.5;stroke-dasharray:5.0,5.0;" x1="1472.5" x2="1472.5" y1="720.9531" y2="1083.2266"/><text fill="#000000" font-family="sans-serif" font-size="14" lengthAdjust="spacing" textLength="31" x="5" y="79.5332">GSM</text><ellipse cx="23.5" cy="13.5" fill="#E3E3E3" rx="8" ry="8" style="stroke:#181818;stroke-width:0.5;"/><path d="M23.5,21.5 L23.5,48.5 M10.5,29.5 L36.5,29.5 M23.5,48.5 L10.5,63.5 M23.5,48.5 L36.5,63.5 " fill="none" style="stroke:#181818;stroke-width:0.5;"/><text fill="#000000" font-family="sans-serif" font-size="14" lengthAdjust="spacing" textLength="31" x="5" y="1096.7598">GSM</text><ellipse cx="23.5" cy="1108.3359" fill="#E3E3E3" rx="8" ry="8" style="stroke:#181818;stroke-width:0.5;"/><path d="M23.5,1116.3359 L23.5,1143.3359 M10.5,1124.3359 L36.5,1124.3359 M23.5,1143.3359 L10.5,1158.3359 M23.5,1143.3359 L36.5,1158.3359 " fill="none" style="stroke:#181818;stroke-width:0.5;"/><rect fill="#E3E3E3" height="31.6094" rx="2.5" ry="2.5" style="stroke:#181818;stroke-width:0.5;" width="139" x="276" y="50"/><text fill="#000000" font-family="sans-serif" font-size="14" lengthAdjust="spacing" textLength="125" x="283" y="71.5332">:ListGreenSpacesUI</text><rect fill="#E3E3E3" height="31.6094" rx="2.5" ry="2.5" style="stroke:#181818;stroke-width:0.5;" width="139" x="276" y="1082.2266"/><text fill="#000000" font-family="sans-serif" font-size="14" lengthAdjust="spacing" textLength="125" x="283" y="1103.7598">:ListGreenSpacesUI</text><rect fill="#E3E3E3" height="31.6094" rx="2.5" ry="2.5" style="stroke:#181818;stroke-width:0.5;" width="189" x="523" y="1082.2266"/><text fill="#000000" font-family="sans-serif" font-size="14" lengthAdjust="spacing" textLength="175" x="530" y="1103.7598">:ListGreenSpacesController</text><rect fill="#E3E3E3" height="31.6094" rx="2.5" ry="2.5" style="stroke:#181818;stroke-width:0.5;" width="97" x="722" y="50"/><text fill="#000000" font-family="sans-serif" font-size="14" lengthAdjust="spacing" textLength="83" x="729" y="71.5332">:Repositories</text><rect fill="#E3E3E3" height="31.6094" rx="2.5" ry="2.5" style="stroke:#181818;stroke-width:0.5;" width="97" x="722" y="1082.2266"/><text fill="#000000" font-family="sans-serif" font-size="14" lengthAdjust="spacing" textLength="83" x="729" y="1103.7598">:Repositories</text><rect fill="#E3E3E3" height="49.2188" rx="2.5" ry="2.5" style="stroke:#181818;stroke-width:0.5;" width="97" x="829" y="32.3906"/><text fill="#000000" font-family="sans-serif" font-size="14" lengthAdjust="spacing" textLength="74" x="840.5" y="53.9238">repositories</text><text fill="#000000" font-family="sans-serif" font-size="14" lengthAdjust="spacing" textLength="83" x="836" y="71.5332">:Repositories</text><rect fill="#E3E3E3" height="49.2188" rx="2.5" ry="2.5" style="stroke:#181818;stroke-width:0.5;" width="97" x="829" y="1082.2266"/><text fill="#000000" font-family="sans-serif" font-size="14" lengthAdjust="spacing" textLength="74" x="840.5" y="1103.7598">repositories</text><text fill="#000000" font-family="sans-serif" font-size="14" lengthAdjust="spacing" textLength="83" x="836" y="1121.3691">:Repositories</text><rect fill="#E3E3E3" height="49.2188" rx="2.5" ry="2.5" style="stroke:#181818;stroke-width:0.5;" width="163" x="936" y="32.3906"/><text fill="#000000" font-family="sans-serif" font-size="14" lengthAdjust="spacing" textLength="149" x="943" y="53.9238">greenSpaceRepository:</text><text fill="#000000" font-family="sans-serif" font-size="14" lengthAdjust="spacing" textLength="148" x="943.5" y="71.5332">GreenSpaceRepository</text><rect fill="#E3E3E3" height="49.2188" rx="2.5" ry="2.5" style="stroke:#181818;stroke-width:0.5;" width="163" x="936" y="1082.2266"/><text fill="#000000" font-family="sans-serif" font-size="14" lengthAdjust="spacing" textLength="149" x="943" y="1103.7598">greenSpaceRepository:</text><text fill="#000000" font-family="sans-serif" font-size="14" lengthAdjust="spacing" textLength="148" x="943.5" y="1121.3691">GreenSpaceRepository</text><rect fill="#E3E3E3" height="31.6094" rx="2.5" ry="2.5" style="stroke:#181818;stroke-width:0.5;" width="146" x="1218.5" y="50"/><text fill="#000000" font-family="sans-serif" font-size="14" lengthAdjust="spacing" textLength="132" x="1225.5" y="71.5332">:GreenSpaceMapper</text><rect fill="#E3E3E3" height="31.6094" rx="2.5" ry="2.5" style="stroke:#181818;stroke-width:0.5;" width="146" x="1218.5" y="1082.2266"/><text fill="#000000" font-family="sans-serif" font-size="14" lengthAdjust="spacing" textLength="132" x="1225.5" y="1103.7598">:GreenSpaceMapper</text><rect fill="#E3E3E3" height="49.2188" rx="2.5" ry="2.5" style="stroke:#181818;stroke-width:0.5;" width="120" x="1412.5" y="1082.2266"/><text fill="#000000" font-family="sans-serif" font-size="14" lengthAdjust="spacing" textLength="99" x="1423" y="1103.7598">greenSpaceDto</text><text fill="#000000" font-family="sans-serif" font-size="14" lengthAdjust="spacing" textLength="106" x="1419.5" y="1121.3691">:GreenSpaceDto</text><rect fill="#FFFFFF" height="972.6172" style="stroke:#181818;stroke-width:1.0;" width="10" x="18.5" y="92.6094"/><rect fill="#FFFFFF" height="255.0703" style="stroke:#181818;stroke-width:1.0;" width="10" x="340.5" y="114.9609"/><rect fill="#FFFFFF" height="30.3516" style="stroke:#181818;stroke-width:1.0;" width="10" x="340.5" y="1034.875"/><rect fill="#FFFFFF" height="123.6641" style="stroke:#181818;stroke-width:1.0;" width="10" x="612.5" y="155.3125"/><rect fill="#FFFFFF" height="30.3516" style="stroke:#181818;stroke-width:1.0;" width="10" x="612.5" y="370.0313"/><rect fill="#FFFFFF" height="30.3516" style="stroke:#181818;stroke-width:1.0;" width="10" x="612.5" y="1004.5234"/><rect fill="#FFFFFF" height="30.3516" style="stroke:#181818;stroke-width:1.0;" width="10" x="765.5" y="187.9219"/><rect fill="#FFFFFF" height="30.3516" style="stroke:#181818;stroke-width:1.0;" width="10" x="872.5" y="248.625"/><rect fill="#FFFFFF" height="604.1406" style="stroke:#181818;stroke-width:1.0;" width="10" x="1012.5" y="400.3828"/><rect fill="#FFFFFF" height="528.4375" style="stroke:#181818;stroke-width:1.0;" width="10" x="1017.5" y="438.7344"/><rect fill="#FFFFFF" height="41.3516" style="stroke:#181818;stroke-width:1.0;" width="10" x="1022.5" y="482.0859"/><rect fill="#FFFFFF" height="355.0313" style="stroke:#181818;stroke-width:1.0;" width="10" x="1022.5" y="568.7891"/><rect fill="#FFFFFF" height="268.3281" style="stroke:#181818;stroke-width:1.0;" width="10" x="1027.5" y="612.1406"/><rect fill="#FFFFFF" height="196.625" style="stroke:#181818;stroke-width:1.0;" width="10" x="1286.5" y="647.4922"/><rect fill="#FFFFFF" height="50.2188" style="stroke:#181818;stroke-width:1.0;" width="10" x="1467.5" y="713.1953"/><polygon fill="#181818" points="328.5,110.9609,338.5,114.9609,328.5,118.9609,332.5,114.9609" style="stroke:#181818;stroke-width:1.0;"/><line style="stroke:#181818;stroke-width:1.0;" x1="28.5" x2="334.5" y1="114.9609" y2="114.9609"/><text fill="#000000" font-family="sans-serif" font-size="13" font-weight="bold" lengthAdjust="spacing" textLength="7" x="35.5" y="110.1045">1</text><text fill="#000000" font-family="sans-serif" font-size="13" lengthAdjust="spacing" textLength="263" x="46.5" y="110.1045">asks to list all green spaces managed by him</text><polygon fill="#181818" points="511,141.3125,521,145.3125,511,149.3125,515,145.3125" style="stroke:#181818;stroke-width:1.0;"/><line style="stroke:#181818;stroke-width:1.0;" x1="350.5" x2="517" y1="145.3125" y2="145.3125"/><text fill="#000000" font-family="sans-serif" font-size="13" font-weight="bold" lengthAdjust="spacing" textLength="7" x="357.5" y="140.4561">2</text><text fill="#000000" font-family="sans-serif" font-size="13" lengthAdjust="spacing" textLength="36" x="368.5" y="140.4561">create</text><rect fill="#E3E3E3" height="31.6094" rx="2.5" ry="2.5" style="stroke:#181818;stroke-width:0.5;" width="189" x="523" y="122.9609"/><text fill="#000000" font-family="sans-serif" font-size="14" lengthAdjust="spacing" textLength="175" x="530" y="144.4941">:ListGreenSpacesController</text><polygon fill="#181818" points="753.5,183.9219,763.5,187.9219,753.5,191.9219,757.5,187.9219" style="stroke:#181818;stroke-width:1.0;"/><line style="stroke:#181818;stroke-width:1.0;" x1="622.5" x2="759.5" y1="187.9219" y2="187.9219"/><text fill="#000000" font-family="sans-serif" font-size="13" font-weight="bold" lengthAdjust="spacing" textLength="7" x="629.5" y="183.0654">3</text><text fill="#000000" font-family="sans-serif" font-size="13" lengthAdjust="spacing" textLength="75" x="640.5" y="183.0654">getInstance()</text><polygon fill="#181818" points="633.5,214.2734,623.5,218.2734,633.5,222.2734,629.5,218.2734" style="stroke:#181818;stroke-width:1.0;"/><line style="stroke:#181818;stroke-width:1.0;stroke-dasharray:2.0,2.0;" x1="627.5" x2="769.5" y1="218.2734" y2="218.2734"/><text fill="#000000" font-family="sans-serif" font-size="13" font-weight="bold" lengthAdjust="spacing" textLength="7" x="639.5" y="213.417">4</text><text fill="#000000" font-family="sans-serif" font-size="13" lengthAdjust="spacing" textLength="67" x="650.5" y="213.417">repositories</text><polygon fill="#181818" points="860.5,244.625,870.5,248.625,860.5,252.625,864.5,248.625" style="stroke:#181818;stroke-width:1.0;"/><line style="stroke:#181818;stroke-width:1.0;" x1="622.5" x2="866.5" y1="248.625" y2="248.625"/><text fill="#000000" font-family="sans-serif" font-size="13" font-weight="bold" lengthAdjust="spacing" textLength="7" x="629.5" y="243.7686">5</text><text fill="#000000" font-family="sans-serif" font-size="13" lengthAdjust="spacing" textLength="160" x="640.5" y="243.7686">getGreenSpaceRepository()</text><polygon fill="#181818" points="628.5,274.9766,618.5,278.9766,628.5,282.9766,624.5,278.9766" style="stroke:#181818;stroke-width:1.0;"/><line style="stroke:#181818;stroke-width:1.0;stroke-dasharray:2.0,2.0;" x1="622.5" x2="876.5" y1="278.9766" y2="278.9766"/><text fill="#000000" font-family="sans-serif" font-size="13" font-weight="bold" lengthAdjust="spacing" textLength="7" x="634.5" y="274.1201">6</text><text fill="#000000" font-family="sans-serif" font-size="13" lengthAdjust="spacing" textLength="131" x="645.5" y="274.1201">greenSpaceRepository</text><polygon fill="#181818" points="39.5,305.3281,29.5,309.3281,39.5,313.3281,35.5,309.3281" style="stroke:#181818;stroke-width:1.0;"/><line style="stroke:#181818;stroke-width:1.0;stroke-dasharray:2.0,2.0;" x1="33.5" x2="339.5" y1="309.3281" y2="309.3281"/><text fill="#000000" font-family="sans-serif" font-size="13" font-weight="bold" lengthAdjust="spacing" textLength="7" x="45.5" y="304.4717">7</text><text fill="#000000" font-family="sans-serif" font-size="13" lengthAdjust="spacing" textLength="172" x="56.5" y="304.4717">requests the sorting algorithm</text><polygon fill="#181818" points="328.5,335.6797,338.5,339.6797,328.5,343.6797,332.5,339.6797" style="stroke:#181818;stroke-width:1.0;"/><line style="stroke:#181818;stroke-width:1.0;" x1="28.5" x2="334.5" y1="339.6797" y2="339.6797"/><text fill="#000000" font-family="sans-serif" font-size="13" font-weight="bold" lengthAdjust="spacing" textLength="7" x="35.5" y="334.8232">8</text><text fill="#000000" font-family="sans-serif" font-size="13" lengthAdjust="spacing" textLength="164" x="46.5" y="334.8232">selects the sorting algorithm</text><polygon fill="#181818" points="600.5,366.0313,610.5,370.0313,600.5,374.0313,604.5,370.0313" style="stroke:#181818;stroke-width:1.0;"/><line style="stroke:#181818;stroke-width:1.0;" x1="345.5" x2="606.5" y1="370.0313" y2="370.0313"/><text fill="#000000" font-family="sans-serif" font-size="13" font-weight="bold" lengthAdjust="spacing" textLength="7" x="352.5" y="365.1748">9</text><text fill="#000000" font-family="sans-serif" font-size="13" lengthAdjust="spacing" textLength="232" x="363.5" y="365.1748">getOrganizedList(algorithm, loggedUser)</text><polygon fill="#181818" points="1000.5,396.3828,1010.5,400.3828,1000.5,404.3828,1004.5,400.3828" style="stroke:#181818;stroke-width:1.0;"/><line style="stroke:#181818;stroke-width:1.0;" x1="617.5" x2="1006.5" y1="400.3828" y2="400.3828"/><text fill="#000000" font-family="sans-serif" font-size="13" font-weight="bold" lengthAdjust="spacing" textLength="14" x="624.5" y="395.5264">10</text><text fill="#000000" font-family="sans-serif" font-size="13" lengthAdjust="spacing" textLength="194" x="642.5" y="395.5264">getOrgList(algorithm, loggedUser)</text><line style="stroke:#181818;stroke-width:1.0;" x1="1022.5" x2="1069.5" y1="425.7344" y2="425.7344"/><line style="stroke:#181818;stroke-width:1.0;" x1="1069.5" x2="1069.5" y1="425.7344" y2="438.7344"/><line style="stroke:#181818;stroke-width:1.0;" x1="1028.5" x2="1069.5" y1="438.7344" y2="438.7344"/><polygon fill="#181818" points="1038.5,434.7344,1028.5,438.7344,1038.5,442.7344,1034.5,438.7344" style="stroke:#181818;stroke-width:1.0;"/><text fill="#000000" font-family="sans-serif" font-size="13" font-weight="bold" lengthAdjust="spacing" textLength="14" x="1034.5" y="420.8779">11</text><text fill="#000000" font-family="sans-serif" font-size="13" lengthAdjust="spacing" textLength="232" x="1052.5" y="420.8779">getOrganizedList(algorithm, loggedUser)</text><line style="stroke:#181818;stroke-width:1.0;" x1="1027.5" x2="1074.5" y1="469.0859" y2="469.0859"/><line style="stroke:#181818;stroke-width:1.0;" x1="1074.5" x2="1074.5" y1="469.0859" y2="482.0859"/><line style="stroke:#181818;stroke-width:1.0;" x1="1033.5" x2="1074.5" y1="482.0859" y2="482.0859"/><polygon fill="#181818" points="1043.5,478.0859,1033.5,482.0859,1043.5,486.0859,1039.5,482.0859" style="stroke:#181818;stroke-width:1.0;"/><text fill="#000000" font-family="sans-serif" font-size="13" font-weight="bold" lengthAdjust="spacing" textLength="14" x="1039.5" y="464.2295">12</text><text fill="#000000" font-family="sans-serif" font-size="13" lengthAdjust="spacing" textLength="205" x="1057.5" y="464.2295">matchWithLoggedUser(loggedUser)</text><line style="stroke:#181818;stroke-width:1.0;stroke-dasharray:2.0,2.0;" x1="1032.5" x2="1074.5" y1="522.4375" y2="522.4375"/><line style="stroke:#181818;stroke-width:1.0;stroke-dasharray:2.0,2.0;" x1="1074.5" x2="1074.5" y1="522.4375" y2="535.4375"/><line style="stroke:#181818;stroke-width:1.0;stroke-dasharray:2.0,2.0;" x1="1027.5" x2="1074.5" y1="535.4375" y2="535.4375"/><polygon fill="#181818" points="1037.5,531.4375,1027.5,535.4375,1037.5,539.4375,1033.5,535.4375" style="stroke:#181818;stroke-width:1.0;"/><text fill="#000000" font-family="sans-serif" font-size="13" font-weight="bold" lengthAdjust="spacing" textLength="14" x="1039.5" y="517.5811">13</text><text fill="#000000" font-family="sans-serif" font-size="13" lengthAdjust="spacing" textLength="4" x="1057.5" y="517.5811"> </text><line style="stroke:#181818;stroke-width:1.0;" x1="1027.5" x2="1074.5" y1="555.7891" y2="555.7891"/><line style="stroke:#181818;stroke-width:1.0;" x1="1074.5" x2="1074.5" y1="555.7891" y2="568.7891"/><line style="stroke:#181818;stroke-width:1.0;" x1="1033.5" x2="1074.5" y1="568.7891" y2="568.7891"/><polygon fill="#181818" points="1043.5,564.7891,1033.5,568.7891,1043.5,572.7891,1039.5,568.7891" style="stroke:#181818;stroke-width:1.0;"/><text fill="#000000" font-family="sans-serif" font-size="13" font-weight="bold" lengthAdjust="spacing" textLength="14" x="1039.5" y="550.9326">14</text><text fill="#000000" font-family="sans-serif" font-size="13" lengthAdjust="spacing" textLength="163" x="1057.5" y="550.9326">verifyEmptyList(listMatched)</text><line style="stroke:#181818;stroke-width:1.0;" x1="1032.5" x2="1079.5" y1="599.1406" y2="599.1406"/><line style="stroke:#181818;stroke-width:1.0;" x1="1079.5" x2="1079.5" y1="599.1406" y2="612.1406"/><line style="stroke:#181818;stroke-width:1.0;" x1="1038.5" x2="1079.5" y1="612.1406" y2="612.1406"/><polygon fill="#181818" points="1048.5,608.1406,1038.5,612.1406,1048.5,616.1406,1044.5,612.1406" style="stroke:#181818;stroke-width:1.0;"/><text fill="#000000" font-family="sans-serif" font-size="13" font-weight="bold" lengthAdjust="spacing" textLength="14" x="1044.5" y="594.2842">15</text><text fill="#000000" font-family="sans-serif" font-size="13" lengthAdjust="spacing" textLength="206" x="1062.5" y="594.2842">organizeList(algorithm, listMatched)</text><polygon fill="#181818" points="1274.5,643.4922,1284.5,647.4922,1274.5,651.4922,1278.5,647.4922" style="stroke:#181818;stroke-width:1.0;"/><line style="stroke:#181818;stroke-width:1.0;" x1="1037.5" x2="1280.5" y1="647.4922" y2="647.4922"/><text fill="#000000" font-family="sans-serif" font-size="13" font-weight="bold" lengthAdjust="spacing" textLength="14" x="1044.5" y="642.6357">16</text><text fill="#000000" font-family="sans-serif" font-size="13" lengthAdjust="spacing" textLength="136" x="1062.5" y="642.6357">toDtoList(listOrganized)</text><path d="M1208.5,662.4922 L1281.5,662.4922 L1281.5,670.8438 L1271.5,680.8438 L1208.5,680.8438 L1208.5,662.4922 " fill="#EEEEEE" style="stroke:#000000;stroke-width:1.5;"/><rect fill="none" height="152.2734" style="stroke:#000000;stroke-width:1.5;" width="334" x="1208.5" y="662.4922"/><text fill="#000000" font-family="sans-serif" font-size="13" font-weight="bold" lengthAdjust="spacing" textLength="28" x="1223.5" y="676.9873">loop</text><polygon fill="#181818" points="1400.5,699.1953,1410.5,703.1953,1400.5,707.1953,1404.5,703.1953" style="stroke:#181818;stroke-width:1.0;"/><line style="stroke:#181818;stroke-width:1.0;" x1="1296.5" x2="1406.5" y1="703.1953" y2="703.1953"/><text fill="#000000" font-family="sans-serif" font-size="13" font-weight="bold" lengthAdjust="spacing" textLength="14" x="1303.5" y="698.3389">17</text><text fill="#000000" font-family="sans-serif" font-size="13" lengthAdjust="spacing" textLength="36" x="1321.5" y="698.3389">create</text><rect fill="#E3E3E3" height="49.2188" rx="2.5" ry="2.5" style="stroke:#181818;stroke-width:0.5;" width="120" x="1412.5" y="680.8438"/><text fill="#000000" font-family="sans-serif" font-size="14" lengthAdjust="spacing" textLength="99" x="1423" y="702.377">greenSpaceDto</text><text fill="#000000" font-family="sans-serif" font-size="14" lengthAdjust="spacing" textLength="106" x="1419.5" y="719.9863">:GreenSpaceDto</text><polygon fill="#181818" points="1307.5,759.4141,1297.5,763.4141,1307.5,767.4141,1303.5,763.4141" style="stroke:#181818;stroke-width:1.0;"/><line style="stroke:#181818;stroke-width:1.0;stroke-dasharray:2.0,2.0;" x1="1301.5" x2="1471.5" y1="763.4141" y2="763.4141"/><text fill="#000000" font-family="sans-serif" font-size="13" font-weight="bold" lengthAdjust="spacing" textLength="14" x="1313.5" y="758.5576">18</text><text fill="#000000" font-family="sans-serif" font-size="13" lengthAdjust="spacing" textLength="89" x="1331.5" y="758.5576">greenSpaceDto</text><line style="stroke:#181818;stroke-width:1.0;" x1="1296.5" x2="1338.5" y1="793.7656" y2="793.7656"/><line style="stroke:#181818;stroke-width:1.0;" x1="1338.5" x2="1338.5" y1="793.7656" y2="806.7656"/><line style="stroke:#181818;stroke-width:1.0;" x1="1297.5" x2="1338.5" y1="806.7656" y2="806.7656"/><polygon fill="#181818" points="1307.5,802.7656,1297.5,806.7656,1307.5,810.7656,1303.5,806.7656" style="stroke:#181818;stroke-width:1.0;"/><text fill="#000000" font-family="sans-serif" font-size="13" font-weight="bold" lengthAdjust="spacing" textLength="14" x="1303.5" y="788.9092">19</text><text fill="#000000" font-family="sans-serif" font-size="13" lengthAdjust="spacing" textLength="139" x="1321.5" y="788.9092">list.add(greenSpaceDto)</text><polygon fill="#181818" points="1048.5,840.1172,1038.5,844.1172,1048.5,848.1172,1044.5,844.1172" style="stroke:#181818;stroke-width:1.0;"/><line style="stroke:#181818;stroke-width:1.0;stroke-dasharray:2.0,2.0;" x1="1042.5" x2="1290.5" y1="844.1172" y2="844.1172"/><text fill="#000000" font-family="sans-serif" font-size="13" font-weight="bold" lengthAdjust="spacing" textLength="14" x="1054.5" y="839.2607">20</text><text fill="#000000" font-family="sans-serif" font-size="13" lengthAdjust="spacing" textLength="17" x="1072.5" y="839.2607">list</text><line style="stroke:#181818;stroke-width:1.0;stroke-dasharray:2.0,2.0;" x1="1037.5" x2="1079.5" y1="879.4688" y2="879.4688"/><line style="stroke:#181818;stroke-width:1.0;stroke-dasharray:2.0,2.0;" x1="1079.5" x2="1079.5" y1="879.4688" y2="892.4688"/><line style="stroke:#181818;stroke-width:1.0;stroke-dasharray:2.0,2.0;" x1="1032.5" x2="1079.5" y1="892.4688" y2="892.4688"/><polygon fill="#181818" points="1042.5,888.4688,1032.5,892.4688,1042.5,896.4688,1038.5,892.4688" style="stroke:#181818;stroke-width:1.0;"/><text fill="#000000" font-family="sans-serif" font-size="13" font-weight="bold" lengthAdjust="spacing" textLength="14" x="1044.5" y="874.6123">21</text><text fill="#000000" font-family="sans-serif" font-size="13" lengthAdjust="spacing" textLength="4" x="1062.5" y="874.6123"> </text><line style="stroke:#181818;stroke-width:1.0;stroke-dasharray:2.0,2.0;" x1="1032.5" x2="1074.5" y1="922.8203" y2="922.8203"/><line style="stroke:#181818;stroke-width:1.0;stroke-dasharray:2.0,2.0;" x1="1074.5" x2="1074.5" y1="922.8203" y2="935.8203"/><line style="stroke:#181818;stroke-width:1.0;stroke-dasharray:2.0,2.0;" x1="1027.5" x2="1074.5" y1="935.8203" y2="935.8203"/><polygon fill="#181818" points="1037.5,931.8203,1027.5,935.8203,1037.5,939.8203,1033.5,935.8203" style="stroke:#181818;stroke-width:1.0;"/><text fill="#000000" font-family="sans-serif" font-size="13" font-weight="bold" lengthAdjust="spacing" textLength="14" x="1039.5" y="917.9639">22</text><text fill="#000000" font-family="sans-serif" font-size="13" lengthAdjust="spacing" textLength="4" x="1057.5" y="917.9639"> </text><line style="stroke:#181818;stroke-width:1.0;stroke-dasharray:2.0,2.0;" x1="1027.5" x2="1069.5" y1="966.1719" y2="966.1719"/><line style="stroke:#181818;stroke-width:1.0;stroke-dasharray:2.0,2.0;" x1="1069.5" x2="1069.5" y1="966.1719" y2="979.1719"/><line style="stroke:#181818;stroke-width:1.0;stroke-dasharray:2.0,2.0;" x1="1022.5" x2="1069.5" y1="979.1719" y2="979.1719"/><polygon fill="#181818" points="1032.5,975.1719,1022.5,979.1719,1032.5,983.1719,1028.5,979.1719" style="stroke:#181818;stroke-width:1.0;"/><text fill="#000000" font-family="sans-serif" font-size="13" font-weight="bold" lengthAdjust="spacing" textLength="14" x="1034.5" y="961.3154">23</text><text fill="#000000" font-family="sans-serif" font-size="13" lengthAdjust="spacing" textLength="4" x="1052.5" y="961.3154"> </text><polygon fill="#181818" points="633.5,1000.5234,623.5,1004.5234,633.5,1008.5234,629.5,1004.5234" style="stroke:#181818;stroke-width:1.0;"/><line style="stroke:#181818;stroke-width:1.0;stroke-dasharray:2.0,2.0;" x1="627.5" x2="1016.5" y1="1004.5234" y2="1004.5234"/><text fill="#000000" font-family="sans-serif" font-size="13" font-weight="bold" lengthAdjust="spacing" textLength="14" x="639.5" y="999.667">24</text><text fill="#000000" font-family="sans-serif" font-size="13" lengthAdjust="spacing" textLength="17" x="657.5" y="999.667">list</text><polygon fill="#181818" points="361.5,1030.875,351.5,1034.875,361.5,1038.875,357.5,1034.875" style="stroke:#181818;stroke-width:1.0;"/><line style="stroke:#181818;stroke-width:1.0;stroke-dasharray:2.0,2.0;" x1="355.5" x2="616.5" y1="1034.875" y2="1034.875"/><text fill="#000000" font-family="sans-serif" font-size="13" font-weight="bold" lengthAdjust="spacing" textLength="14" x="367.5" y="1030.0186">25</text><text fill="#000000" font-family="sans-serif" font-size="13" lengthAdjust="spacing" textLength="17" x="385.5" y="1030.0186">list</text><polygon fill="#181818" points="34.5,1061.2266,24.5,1065.2266,34.5,1069.2266,30.5,1065.2266" style="stroke:#181818;stroke-width:1.0;"/><line style="stroke:#181818;stroke-width:1.0;stroke-dasharray:2.0,2.0;" x1="28.5" x2="344.5" y1="1065.2266" y2="1065.2266"/><text fill="#000000" font-family="sans-serif" font-size="13" font-weight="bold" lengthAdjust="spacing" textLength="14" x="40.5" y="1060.3701">26</text><text fill="#000000" font-family="sans-serif" font-size="13" lengthAdjust="spacing" textLength="270" x="58.5" y="1060.3701">displays operation success by showing the list</text><!--SRC=[lLOzRzim4DtrAmvUOWTraQc3Xm95N1W6RBI8OdJ9maWNYJ15gYITGltrFL8EHSboudwWWsnPklVktJloQBFdicQQLL0fgR9Igmh1wWCc9hofMRPd1QQs4GWQCyja8U80Kx9S_U2oW2Sc32R9rPNbbeBJnbYi8CNl1vGPmfApmW6cQRgSmHnswStDXoHX1wlaeNf4JVUPLHecgtGx0MQ0lXDAOdd6QoOjJ1ORRknA8ygKTA7PhNtSRlrwsAsILYiXKFlms_kxpG1mXxKod99pD3ucF6XIxWecZNs8ZX0FyfJWw-RJVHzH144T-U91haOUjzNtNWm4To-thAwFXLN-zbpMfLKaT1N_zgZSAkyyVsOMlUTqmVmZsGeB2jWRi0e4MGfC2F24OBonb57IuiZXiO6ILnqBTOJGnE6ylhucdamZlUWYV1FSXuiQSPiW1TgrDBJWCfpEEkHOQyO8viVqn1GtAydnLQeNJQw1hOYn3iM2VAjzk4lfSovWhDjnQbz__C2pEDE8mpN0gQQTOopPNo8OHKsbJSP4GMNOikfroQ2WhNakicj5Mz0NNJ39VsBkziaqnBq3eGhgviwWdiNIg9i3tS6blZU1_aBYbgnRU_qLF-0-d-tjOluYHSLiLduZoatWc_u9zGbtRCJlotf6pP-QprLj6r-usvzR9nNpyvek8LP7Fq_il2J1ANyxauZNAXeuGMheMiHr75-9KAfEZZXYeFaqEa7StABBEnkozCPTxB2BxZX3lDFodkNvj0US9IXpy3e2QCmhXuwJ72lubwt_NzWni9zamne7kB61_ZALFFHalmyFYJ3lScvgmHe3YanabjCCDuUCZXdZpXTJjlyot8WRQYAcM24TORy0]--></g></svg>