<?xml version="1.0" encoding="UTF-8" standalone="no"?><svg xmlns="http://www.w3.org/2000/svg" xmlns:xlink="http://www.w3.org/1999/xlink" contentStyleType="text/css" height="455px" preserveAspectRatio="none" style="width:756px;height:455px;background:#FFFFFF;" version="1.1" viewBox="0 0 756 455" width="756px" zoomAndPan="magnify"><defs/><g><rect fill="#FFFFFF" height="263.1641" style="stroke:#181818;stroke-width:1.0;" width="10" x="18.5" y="92.6094"/><rect fill="#FFFFFF" height="133.6641" style="stroke:#181818;stroke-width:1.0;" width="10" x="337.5" y="114.9609"/><rect fill="#FFFFFF" height="30.3516" style="stroke:#181818;stroke-width:1.0;" width="10" x="337.5" y="325.4219"/><rect fill="#FFFFFF" height="76.7969" style="stroke:#181818;stroke-width:1.0;" width="10" x="602.5" y="248.625"/><line style="stroke:#181818;stroke-width:0.5;stroke-dasharray:5.0,5.0;" x1="23" x2="23" y1="82.6094" y2="373.7734"/><line style="stroke:#181818;stroke-width:0.5;stroke-dasharray:5.0,5.0;" x1="342.5" x2="342.5" y1="82.6094" y2="373.7734"/><line style="stroke:#181818;stroke-width:0.5;stroke-dasharray:5.0,5.0;" x1="607.5" x2="607.5" y1="154.2656" y2="373.7734"/><text fill="#000000" font-family="sans-serif" font-size="14" lengthAdjust="spacing" textLength="31" x="5" y="79.5332">GSM</text><ellipse cx="23.5" cy="13.5" fill="#E3E3E3" rx="8" ry="8" style="stroke:#181818;stroke-width:0.5;"/><path d="M23.5,21.5 L23.5,48.5 M10.5,29.5 L36.5,29.5 M23.5,48.5 L10.5,63.5 M23.5,48.5 L36.5,63.5 " fill="none" style="stroke:#181818;stroke-width:0.5;"/><text fill="#000000" font-family="sans-serif" font-size="14" lengthAdjust="spacing" textLength="31" x="5" y="387.3066">GSM</text><ellipse cx="23.5" cy="398.8828" fill="#E3E3E3" rx="8" ry="8" style="stroke:#181818;stroke-width:0.5;"/><path d="M23.5,406.8828 L23.5,433.8828 M10.5,414.8828 L36.5,414.8828 M23.5,433.8828 L10.5,448.8828 M23.5,433.8828 L36.5,448.8828 " fill="none" style="stroke:#181818;stroke-width:0.5;"/><rect fill="#E3E3E3" height="31.6094" rx="2.5" ry="2.5" style="stroke:#181818;stroke-width:0.5;" width="230" x="227.5" y="50"/><text fill="#000000" font-family="sans-serif" font-size="14" lengthAdjust="spacing" textLength="216" x="234.5" y="71.5332">:AnalyseParkWaterConsumptionUI</text><rect fill="#E3E3E3" height="31.6094" rx="2.5" ry="2.5" style="stroke:#181818;stroke-width:0.5;" width="230" x="227.5" y="372.7734"/><text fill="#000000" font-family="sans-serif" font-size="14" lengthAdjust="spacing" textLength="216" x="234.5" y="394.3066">:AnalyseParkWaterConsumptionUI</text><rect fill="#E3E3E3" height="31.6094" rx="2.5" ry="2.5" style="stroke:#181818;stroke-width:0.5;" width="280" x="467.5" y="372.7734"/><text fill="#000000" font-family="sans-serif" font-size="14" lengthAdjust="spacing" textLength="266" x="474.5" y="394.3066">:AnalyseParkWaterConsumptionController</text><rect fill="#FFFFFF" height="263.1641" style="stroke:#181818;stroke-width:1.0;" width="10" x="18.5" y="92.6094"/><rect fill="#FFFFFF" height="133.6641" style="stroke:#181818;stroke-width:1.0;" width="10" x="337.5" y="114.9609"/><rect fill="#FFFFFF" height="30.3516" style="stroke:#181818;stroke-width:1.0;" width="10" x="337.5" y="325.4219"/><rect fill="#FFFFFF" height="76.7969" style="stroke:#181818;stroke-width:1.0;" width="10" x="602.5" y="248.625"/><polygon fill="#181818" points="325.5,110.9609,335.5,114.9609,325.5,118.9609,329.5,114.9609" style="stroke:#181818;stroke-width:1.0;"/><line style="stroke:#181818;stroke-width:1.0;" x1="28.5" x2="331.5" y1="114.9609" y2="114.9609"/><text fill="#000000" font-family="sans-serif" font-size="13" font-weight="bold" lengthAdjust="spacing" textLength="7" x="35.5" y="110.1045">1</text><text fill="#000000" font-family="sans-serif" font-size="13" lengthAdjust="spacing" textLength="247" x="46.5" y="110.1045">wants to analyze water consumption costs</text><polygon fill="#181818" points="455.5,141.3125,465.5,145.3125,455.5,149.3125,459.5,145.3125" style="stroke:#181818;stroke-width:1.0;"/><line style="stroke:#181818;stroke-width:1.0;" x1="347.5" x2="461.5" y1="145.3125" y2="145.3125"/><text fill="#000000" font-family="sans-serif" font-size="13" font-weight="bold" lengthAdjust="spacing" textLength="7" x="354.5" y="140.4561">2</text><text fill="#000000" font-family="sans-serif" font-size="13" lengthAdjust="spacing" textLength="43" x="365.5" y="140.4561">creates</text><rect fill="#E3E3E3" height="31.6094" rx="2.5" ry="2.5" style="stroke:#181818;stroke-width:0.5;" width="280" x="467.5" y="122.9609"/><text fill="#000000" font-family="sans-serif" font-size="14" lengthAdjust="spacing" textLength="266" x="474.5" y="144.4941">:AnalyseParkWaterConsumptionController</text><polygon fill="#181818" points="39.5,183.9219,29.5,187.9219,39.5,191.9219,35.5,187.9219" style="stroke:#181818;stroke-width:1.0;"/><line style="stroke:#181818;stroke-width:1.0;stroke-dasharray:2.0,2.0;" x1="33.5" x2="336.5" y1="187.9219" y2="187.9219"/><text fill="#000000" font-family="sans-serif" font-size="13" font-weight="bold" lengthAdjust="spacing" textLength="7" x="45.5" y="183.0654">3</text><text fill="#000000" font-family="sans-serif" font-size="13" lengthAdjust="spacing" textLength="274" x="56.5" y="183.0654">asks to upload the file (water_consumption.csv)</text><polygon fill="#181818" points="325.5,214.2734,335.5,218.2734,325.5,222.2734,329.5,218.2734" style="stroke:#181818;stroke-width:1.0;"/><line style="stroke:#181818;stroke-width:1.0;" x1="28.5" x2="331.5" y1="218.2734" y2="218.2734"/><text fill="#000000" font-family="sans-serif" font-size="13" font-weight="bold" lengthAdjust="spacing" textLength="7" x="35.5" y="213.417">4</text><text fill="#000000" font-family="sans-serif" font-size="13" lengthAdjust="spacing" textLength="199" x="46.5" y="213.417">gives the file path (uploads the file)</text><polygon fill="#181818" points="590.5,244.625,600.5,248.625,590.5,252.625,594.5,248.625" style="stroke:#181818;stroke-width:1.0;"/><line style="stroke:#181818;stroke-width:1.0;" x1="342.5" x2="596.5" y1="248.625" y2="248.625"/><text fill="#000000" font-family="sans-serif" font-size="13" font-weight="bold" lengthAdjust="spacing" textLength="7" x="349.5" y="243.7686">5</text><text fill="#000000" font-family="sans-serif" font-size="13" lengthAdjust="spacing" textLength="77" x="360.5" y="243.7686">sends the file</text><rect fill="none" height="41.4453" style="stroke:#000000;stroke-width:1.5;" width="286" x="464.5" y="256.625"/><path d="M464.5,256.625 L526.5,256.625 L526.5,264.625 L516.5,274.625 L464.5,274.625 L464.5,256.625 " fill="#EEEEEE" style="stroke:#000000;stroke-width:2.0;"/><text fill="#000000" font-family="sans-serif" font-size="13" font-weight="bold" lengthAdjust="spacing" textLength="17" x="477.5" y="272.1201">ref</text><text fill="#000000" font-family="sans-serif" font-size="12" lengthAdjust="spacing" textLength="147" x="534" y="291.082">Run the statistical analysis</text><polygon fill="#181818" points="358.5,321.4219,348.5,325.4219,358.5,329.4219,354.5,325.4219" style="stroke:#181818;stroke-width:1.0;"/><line style="stroke:#181818;stroke-width:1.0;stroke-dasharray:2.0,2.0;" x1="352.5" x2="606.5" y1="325.4219" y2="325.4219"/><text fill="#000000" font-family="sans-serif" font-size="13" font-weight="bold" lengthAdjust="spacing" textLength="7" x="364.5" y="320.5654">6</text><text fill="#000000" font-family="sans-serif" font-size="13" lengthAdjust="spacing" textLength="39" x="375.5" y="320.5654">results</text><polygon fill="#181818" points="34.5,351.7734,24.5,355.7734,34.5,359.7734,30.5,355.7734" style="stroke:#181818;stroke-width:1.0;"/><line style="stroke:#181818;stroke-width:1.0;stroke-dasharray:2.0,2.0;" x1="28.5" x2="341.5" y1="355.7734" y2="355.7734"/><text fill="#000000" font-family="sans-serif" font-size="13" font-weight="bold" lengthAdjust="spacing" textLength="7" x="40.5" y="350.917">7</text><text fill="#000000" font-family="sans-serif" font-size="13" lengthAdjust="spacing" textLength="148" x="51.5" y="350.917">shows the results window</text><!--SRC=[ZPB1QiCm38RlUGhHKrlO7g27mUXX53OOxSgEGtFLnCInWwMaT4y_nUqIjwS5GXJP_wVVF-RQ-XOZDj047qmLGqCWiQE2nvKMJOqbxUJi228PGL-wV0DNU0WdwqiuecCg2kma-AxvfgYraH1Xzh9xcm4owBTGbLXZM_G2izMpHtTcUiTOVw9GN0VFNTEA3Nw_IPhzvlyIBIK6voWcwVfZ-veys5utfkdwmiEJGc459-KnI00SY3-a3SM1cNXQi_14K2-gLFr0NYwLOIBf0gUszWVyIaVNYTkrBk01f28uMerldWPyPGCU3VUB6rEbxOadIOjImVm2cjgBp8Pgc7osM1meDppMAGsuFf6E47ezxKrtUBQTJoWM5CkQExfBG6nvtAW31qIH33pyUO_4dTEyCWC9Vv_V61HNuNGnVfM2NYIzJNT7oFvKzmi0]--></g></svg>