<?xml version="1.0" encoding="UTF-8" standalone="no"?><svg xmlns="http://www.w3.org/2000/svg" xmlns:xlink="http://www.w3.org/1999/xlink" contentStyleType="text/css" height="725px" preserveAspectRatio="none" style="width:448px;height:725px;background:#FFFFFF;" version="1.1" viewBox="0 0 448 725" width="448px" zoomAndPan="magnify"><defs/><g><!--class CreateSkillUI--><g id="elem_CreateSkillUI"><rect codeLine="7" fill="#F1F1F1" height="48" id="CreateSkillUI" rx="2.5" ry="2.5" style="stroke:#181818;stroke-width:0.5;" width="112" x="214.5" y="7"/><ellipse cx="229.5" cy="23" fill="#ADD1B2" rx="11" ry="11" style="stroke:#181818;stroke-width:1.0;"/><path d="M232.2656,18.875 Q232.4219,18.6563 232.6094,18.5469 Q232.7969,18.4375 233.0156,18.4375 Q233.3906,18.4375 233.625,18.7031 Q233.8594,18.9531 233.8594,19.5625 L233.8594,21.0156 Q233.8594,21.625 233.625,21.8906 Q233.3906,22.1563 233.0156,22.1563 Q232.6719,22.1563 232.4688,21.9531 Q232.2656,21.7656 232.1563,21.25 Q232.1094,20.8906 231.9219,20.7031 Q231.5938,20.3281 230.9844,20.1094 Q230.375,19.8906 229.75,19.8906 Q228.9844,19.8906 228.3438,20.2188 Q227.7188,20.5469 227.2188,21.2969 Q226.7344,22.0469 226.7344,23.0781 L226.7344,24.1719 Q226.7344,25.4063 227.625,26.2344 Q228.5156,27.0469 230.1094,27.0469 Q231.0469,27.0469 231.7031,26.7969 Q232.0938,26.6406 232.5156,26.2031 Q232.7813,25.9375 232.9219,25.8594 Q233.0781,25.7813 233.2813,25.7813 Q233.6094,25.7813 233.8594,26.0469 Q234.125,26.2969 234.125,26.6406 Q234.125,26.9844 233.7813,27.3906 Q233.2813,27.9688 232.4844,28.2969 Q231.4063,28.75 230.1094,28.75 Q228.5938,28.75 227.3906,28.125 Q226.4063,27.625 225.7188,26.5625 Q225.0313,25.4844 225.0313,24.2031 L225.0313,23.0469 Q225.0313,21.7188 225.6406,20.5781 Q226.2656,19.4219 227.3594,18.8125 Q228.4531,18.1875 229.6875,18.1875 Q230.4219,18.1875 231.0625,18.3594 Q231.7188,18.5156 232.2656,18.875 Z " fill="#000000"/><text fill="#000000" font-family="sans-serif" font-size="14" lengthAdjust="spacing" textLength="80" x="243.5" y="28.7285">CreateSkillUI</text><line style="stroke:#181818;stroke-width:0.5;" x1="215.5" x2="325.5" y1="39" y2="39"/><line style="stroke:#181818;stroke-width:0.5;" x1="215.5" x2="325.5" y1="47" y2="47"/></g><!--class CreateSkillController--><g id="elem_CreateSkillController"><rect codeLine="10" fill="#F1F1F1" height="83.2188" id="CreateSkillController" rx="2.5" ry="2.5" style="stroke:#181818;stroke-width:0.5;" width="214" x="163.5" y="116"/><ellipse cx="201.9" cy="132" fill="#ADD1B2" rx="11" ry="11" style="stroke:#181818;stroke-width:1.0;"/><path d="M204.6656,127.875 Q204.8219,127.6563 205.0094,127.5469 Q205.1969,127.4375 205.4156,127.4375 Q205.7906,127.4375 206.025,127.7031 Q206.2594,127.9531 206.2594,128.5625 L206.2594,130.0156 Q206.2594,130.625 206.025,130.8906 Q205.7906,131.1563 205.4156,131.1563 Q205.0719,131.1563 204.8688,130.9531 Q204.6656,130.7656 204.5563,130.25 Q204.5094,129.8906 204.3219,129.7031 Q203.9938,129.3281 203.3844,129.1094 Q202.775,128.8906 202.15,128.8906 Q201.3844,128.8906 200.7438,129.2188 Q200.1188,129.5469 199.6188,130.2969 Q199.1344,131.0469 199.1344,132.0781 L199.1344,133.1719 Q199.1344,134.4063 200.025,135.2344 Q200.9156,136.0469 202.5094,136.0469 Q203.4469,136.0469 204.1031,135.7969 Q204.4938,135.6406 204.9156,135.2031 Q205.1813,134.9375 205.3219,134.8594 Q205.4781,134.7813 205.6813,134.7813 Q206.0094,134.7813 206.2594,135.0469 Q206.525,135.2969 206.525,135.6406 Q206.525,135.9844 206.1813,136.3906 Q205.6813,136.9688 204.8844,137.2969 Q203.8063,137.75 202.5094,137.75 Q200.9938,137.75 199.7906,137.125 Q198.8063,136.625 198.1188,135.5625 Q197.4313,134.4844 197.4313,133.2031 L197.4313,132.0469 Q197.4313,130.7188 198.0406,129.5781 Q198.6656,128.4219 199.7594,127.8125 Q200.8531,127.1875 202.0875,127.1875 Q202.8219,127.1875 203.4625,127.3594 Q204.1188,127.5156 204.6656,127.875 Z " fill="#000000"/><text fill="#000000" font-family="sans-serif" font-size="14" lengthAdjust="spacing" textLength="130" x="221.1" y="137.7285">CreateSkillController</text><line style="stroke:#181818;stroke-width:0.5;" x1="164.5" x2="376.5" y1="148" y2="148"/><line style="stroke:#181818;stroke-width:0.5;" x1="164.5" x2="376.5" y1="156" y2="156"/><ellipse cx="174.5" cy="170.3047" fill="#84BE84" rx="3" ry="3" style="stroke:#038048;stroke-width:1.0;"/><text fill="#000000" font-family="sans-serif" font-size="14" lengthAdjust="spacing" textLength="184" x="183.5" y="174.5332">createSkill(title : String) : void</text><ellipse cx="174.5" cy="187.9141" fill="#84BE84" rx="3" ry="3" style="stroke:#038048;stroke-width:1.0;"/><text fill="#000000" font-family="sans-serif" font-size="14" lengthAdjust="spacing" textLength="188" x="183.5" y="192.1426">getInstance() : SkillRepository</text></g><!--class Repositories--><g id="elem_Repositories"><rect codeLine="15" fill="#F1F1F1" height="65.6094" id="Repositories" rx="2.5" ry="2.5" style="stroke:#181818;stroke-width:0.5;" width="251" x="7" y="277"/><ellipse cx="88.75" cy="293" fill="#ADD1B2" rx="11" ry="11" style="stroke:#181818;stroke-width:1.0;"/><path d="M91.5156,288.875 Q91.6719,288.6563 91.8594,288.5469 Q92.0469,288.4375 92.2656,288.4375 Q92.6406,288.4375 92.875,288.7031 Q93.1094,288.9531 93.1094,289.5625 L93.1094,291.0156 Q93.1094,291.625 92.875,291.8906 Q92.6406,292.1563 92.2656,292.1563 Q91.9219,292.1563 91.7188,291.9531 Q91.5156,291.7656 91.4063,291.25 Q91.3594,290.8906 91.1719,290.7031 Q90.8438,290.3281 90.2344,290.1094 Q89.625,289.8906 89,289.8906 Q88.2344,289.8906 87.5938,290.2188 Q86.9688,290.5469 86.4688,291.2969 Q85.9844,292.0469 85.9844,293.0781 L85.9844,294.1719 Q85.9844,295.4063 86.875,296.2344 Q87.7656,297.0469 89.3594,297.0469 Q90.2969,297.0469 90.9531,296.7969 Q91.3438,296.6406 91.7656,296.2031 Q92.0313,295.9375 92.1719,295.8594 Q92.3281,295.7813 92.5313,295.7813 Q92.8594,295.7813 93.1094,296.0469 Q93.375,296.2969 93.375,296.6406 Q93.375,296.9844 93.0313,297.3906 Q92.5313,297.9688 91.7344,298.2969 Q90.6563,298.75 89.3594,298.75 Q87.8438,298.75 86.6406,298.125 Q85.6563,297.625 84.9688,296.5625 Q84.2813,295.4844 84.2813,294.2031 L84.2813,293.0469 Q84.2813,291.7188 84.8906,290.5781 Q85.5156,289.4219 86.6094,288.8125 Q87.7031,288.1875 88.9375,288.1875 Q89.6719,288.1875 90.3125,288.3594 Q90.9688,288.5156 91.5156,288.875 Z " fill="#000000"/><text fill="#000000" font-family="sans-serif" font-size="14" lengthAdjust="spacing" textLength="79" x="109.25" y="298.7285">Repositories</text><line style="stroke:#181818;stroke-width:0.5;" x1="8" x2="257" y1="309" y2="309"/><line style="stroke:#181818;stroke-width:0.5;" x1="8" x2="257" y1="317" y2="317"/><ellipse cx="18" cy="331.3047" fill="#84BE84" rx="3" ry="3" style="stroke:#038048;stroke-width:1.0;"/><text fill="#000000" font-family="sans-serif" font-size="14" lengthAdjust="spacing" textLength="225" x="27" y="335.5332">getJobRepository() : SkillRepository</text></g><!--class SkillRepository--><g id="elem_SkillRepository"><rect codeLine="19" fill="#F1F1F1" height="100.8281" id="SkillRepository" rx="2.5" ry="2.5" style="stroke:#181818;stroke-width:0.5;" width="209" x="166" y="421"/><ellipse cx="219.75" cy="437" fill="#ADD1B2" rx="11" ry="11" style="stroke:#181818;stroke-width:1.0;"/><path d="M222.5156,432.875 Q222.6719,432.6563 222.8594,432.5469 Q223.0469,432.4375 223.2656,432.4375 Q223.6406,432.4375 223.875,432.7031 Q224.1094,432.9531 224.1094,433.5625 L224.1094,435.0156 Q224.1094,435.625 223.875,435.8906 Q223.6406,436.1563 223.2656,436.1563 Q222.9219,436.1563 222.7188,435.9531 Q222.5156,435.7656 222.4063,435.25 Q222.3594,434.8906 222.1719,434.7031 Q221.8438,434.3281 221.2344,434.1094 Q220.625,433.8906 220,433.8906 Q219.2344,433.8906 218.5938,434.2188 Q217.9688,434.5469 217.4688,435.2969 Q216.9844,436.0469 216.9844,437.0781 L216.9844,438.1719 Q216.9844,439.4063 217.875,440.2344 Q218.7656,441.0469 220.3594,441.0469 Q221.2969,441.0469 221.9531,440.7969 Q222.3438,440.6406 222.7656,440.2031 Q223.0313,439.9375 223.1719,439.8594 Q223.3281,439.7813 223.5313,439.7813 Q223.8594,439.7813 224.1094,440.0469 Q224.375,440.2969 224.375,440.6406 Q224.375,440.9844 224.0313,441.3906 Q223.5313,441.9688 222.7344,442.2969 Q221.6563,442.75 220.3594,442.75 Q218.8438,442.75 217.6406,442.125 Q216.6563,441.625 215.9688,440.5625 Q215.2813,439.4844 215.2813,438.2031 L215.2813,437.0469 Q215.2813,435.7188 215.8906,434.5781 Q216.5156,433.4219 217.6094,432.8125 Q218.7031,432.1875 219.9375,432.1875 Q220.6719,432.1875 221.3125,432.3594 Q221.9688,432.5156 222.5156,432.875 Z " fill="#000000"/><text fill="#000000" font-family="sans-serif" font-size="14" lengthAdjust="spacing" textLength="93" x="240.25" y="442.7285">SkillRepository</text><line style="stroke:#181818;stroke-width:0.5;" x1="167" x2="374" y1="453" y2="453"/><line style="stroke:#181818;stroke-width:0.5;" x1="167" x2="374" y1="461" y2="461"/><ellipse cx="177" cy="475.3047" fill="#84BE84" rx="3" ry="3" style="stroke:#038048;stroke-width:1.0;"/><text fill="#000000" font-family="sans-serif" font-size="14" lengthAdjust="spacing" textLength="183" x="186" y="479.5332">createSkill(title : String) : Skill</text><ellipse cx="177" cy="492.9141" fill="#84BE84" rx="3" ry="3" style="stroke:#038048;stroke-width:1.0;"/><text fill="#000000" font-family="sans-serif" font-size="14" lengthAdjust="spacing" textLength="173" x="186" y="497.1426">checkForDuplicates() : void</text><ellipse cx="177" cy="510.5234" fill="#84BE84" rx="3" ry="3" style="stroke:#038048;stroke-width:1.0;"/><text fill="#000000" font-family="sans-serif" font-size="14" lengthAdjust="spacing" textLength="116" x="186" y="514.752">addSkill(skill): void</text></g><!--class Skill--><g id="elem_Skill"><rect codeLine="25" fill="#F1F1F1" height="118.4375" id="Skill" rx="2.5" ry="2.5" style="stroke:#181818;stroke-width:0.5;" width="284" x="128.5" y="600"/><ellipse cx="253.75" cy="616" fill="#ADD1B2" rx="11" ry="11" style="stroke:#181818;stroke-width:1.0;"/><path d="M256.5156,611.875 Q256.6719,611.6563 256.8594,611.5469 Q257.0469,611.4375 257.2656,611.4375 Q257.6406,611.4375 257.875,611.7031 Q258.1094,611.9531 258.1094,612.5625 L258.1094,614.0156 Q258.1094,614.625 257.875,614.8906 Q257.6406,615.1563 257.2656,615.1563 Q256.9219,615.1563 256.7188,614.9531 Q256.5156,614.7656 256.4063,614.25 Q256.3594,613.8906 256.1719,613.7031 Q255.8438,613.3281 255.2344,613.1094 Q254.625,612.8906 254,612.8906 Q253.2344,612.8906 252.5938,613.2188 Q251.9688,613.5469 251.4688,614.2969 Q250.9844,615.0469 250.9844,616.0781 L250.9844,617.1719 Q250.9844,618.4063 251.875,619.2344 Q252.7656,620.0469 254.3594,620.0469 Q255.2969,620.0469 255.9531,619.7969 Q256.3438,619.6406 256.7656,619.2031 Q257.0313,618.9375 257.1719,618.8594 Q257.3281,618.7813 257.5313,618.7813 Q257.8594,618.7813 258.1094,619.0469 Q258.375,619.2969 258.375,619.6406 Q258.375,619.9844 258.0313,620.3906 Q257.5313,620.9688 256.7344,621.2969 Q255.6563,621.75 254.3594,621.75 Q252.8438,621.75 251.6406,621.125 Q250.6563,620.625 249.9688,619.5625 Q249.2813,618.4844 249.2813,617.2031 L249.2813,616.0469 Q249.2813,614.7188 249.8906,613.5781 Q250.5156,612.4219 251.6094,611.8125 Q252.7031,611.1875 253.9375,611.1875 Q254.6719,611.1875 255.3125,611.3594 Q255.9688,611.5156 256.5156,611.875 Z " fill="#000000"/><text fill="#000000" font-family="sans-serif" font-size="14" lengthAdjust="spacing" textLength="25" x="274.25" y="621.7285">Skill</text><line style="stroke:#181818;stroke-width:0.5;" x1="129.5" x2="411.5" y1="632" y2="632"/><rect fill="none" height="6" style="stroke:#C82930;stroke-width:1.0;" width="6" x="136.5" y="643.3047"/><text fill="#000000" font-family="sans-serif" font-size="14" lengthAdjust="spacing" textLength="71" x="148.5" y="650.5332">title : String</text><line style="stroke:#181818;stroke-width:0.5;" x1="129.5" x2="411.5" y1="657.6094" y2="657.6094"/><ellipse cx="139.5" cy="671.9141" fill="#84BE84" rx="3" ry="3" style="stroke:#038048;stroke-width:1.0;"/><text fill="#000000" font-family="sans-serif" font-size="14" lengthAdjust="spacing" textLength="106" x="148.5" y="676.1426">Skill(title : String)</text><ellipse cx="139.5" cy="689.5234" fill="#84BE84" rx="3" ry="3" style="stroke:#038048;stroke-width:1.0;"/><text fill="#000000" font-family="sans-serif" font-size="14" lengthAdjust="spacing" textLength="176" x="148.5" y="693.752">verifyFilled(skill : Skill) : void</text><ellipse cx="139.5" cy="707.1328" fill="#84BE84" rx="3" ry="3" style="stroke:#038048;stroke-width:1.0;"/><text fill="#000000" font-family="sans-serif" font-size="14" lengthAdjust="spacing" textLength="258" x="148.5" y="711.3613">verifySpecialCharacters(skill : Skill) : void</text></g><!--link CreateSkillUI to CreateSkillController--><g id="link_CreateSkillUI_CreateSkillController"><path codeLine="32" d="M270.5,55.13 C270.5,70.68 270.5,91.72 270.5,110.6 " fill="none" id="CreateSkillUI-to-CreateSkillController" style="stroke:#181818;stroke-width:1.0;stroke-dasharray:7.0,7.0;"/><polygon fill="#181818" points="270.5,115.86,274.5,106.86,270.5,110.86,266.5,106.86,270.5,115.86" style="stroke:#181818;stroke-width:1.0;"/></g><!--link Repositories to SkillRepository--><g id="link_Repositories_SkillRepository"><path codeLine="33" d="M160.43,343.28 C178.74,364.45 203.13,392.63 224.29,417.09 " fill="none" id="Repositories-to-SkillRepository" style="stroke:#181818;stroke-width:1.0;"/><polygon fill="#181818" points="227.66,420.99,224.7843,411.5703,224.3837,417.213,218.7411,416.8124,227.66,420.99" style="stroke:#181818;stroke-width:1.0;"/><text fill="#000000" font-family="sans-serif" font-size="13" lengthAdjust="spacing" textLength="85" x="202.5" y="387.4951">skillRepository</text><text fill="#000000" font-family="sans-serif" font-size="13" lengthAdjust="spacing" textLength="7" x="214.1434" y="410.294">1</text></g><!--link Repositories to Repositories--><g id="link_Repositories_Repositories"><path codeLine="34" d="M258.33,297.51 C278.88,299.3 293,303.46 293,310 C293,315.98 281.2,319.97 263.48,321.98 " fill="none" id="Repositories-to-Repositories" style="stroke:#181818;stroke-width:1.0;"/><polygon fill="#181818" points="258.33,322.49,267.6842,325.572,263.305,321.9911,266.8859,317.6119,258.33,322.49" style="stroke:#181818;stroke-width:1.0;"/><text fill="#000000" font-family="sans-serif" font-size="13" lengthAdjust="spacing" textLength="49" x="299" y="315.4951">instance</text></g><!--link SkillRepository to Skill--><g id="link_SkillRepository_Skill"><path codeLine="35" d="M270.5,522.21 C270.5,544.55 270.5,571.18 270.5,594.91 " fill="none" id="SkillRepository-to-Skill" style="stroke:#181818;stroke-width:1.0;"/><polygon fill="#181818" points="270.5,599.92,274.5,590.92,270.5,594.92,266.5,590.92,270.5,599.92" style="stroke:#181818;stroke-width:1.0;"/><text fill="#000000" font-family="sans-serif" font-size="13" lengthAdjust="spacing" textLength="30" x="271.5" y="566.4951">skills</text><text fill="#000000" font-family="sans-serif" font-size="13" lengthAdjust="spacing" textLength="5" x="265.1953" y="589.2345">*</text></g><!--link CreateSkillController to Repositories--><g id="link_CreateSkillController_Repositories"><path codeLine="36" d="M233.16,199.23 C212.03,222.27 185.84,250.82 165.48,273.03 " fill="none" id="CreateSkillController-to-Repositories" style="stroke:#181818;stroke-width:1.0;stroke-dasharray:7.0,7.0;"/><polygon fill="#181818" points="162,276.82,171.026,272.879,165.3747,273.1307,165.1231,267.4794,162,276.82" style="stroke:#181818;stroke-width:1.0;"/><text fill="#000000" font-family="sans-serif" font-size="13" lengthAdjust="spacing" textLength="67" x="207.5" y="243.4951">repositories</text></g><!--link CreateSkillController to SkillRepository--><g id="link_CreateSkillController_SkillRepository"><path codeLine="37" d="M299.41,199.28 C323.71,233.56 354.5,277 354.5,277 C354.5,277 354.5,343 354.5,343 C354.5,343 328.92,381.82 306,416.62 " fill="none" id="CreateSkillController-to-SkillRepository" style="stroke:#181818;stroke-width:1.0;stroke-dasharray:7.0,7.0;"/><polygon fill="#181818" points="303.22,420.84,311.5196,415.5374,305.977,416.6688,304.8456,411.1262,303.22,420.84" style="stroke:#181818;stroke-width:1.0;"/><text fill="#000000" font-family="sans-serif" font-size="13" lengthAdjust="spacing" textLength="85" x="355.5" y="315.4951">skillRepository</text></g><!--SRC=[ZLBDJiCm3BxdAQnTs42Rn7M7NOOcZICL3n1IhxKQcYWsGnNYtKdNxYTT6VHGDVxy_JWkLrHx7VGxU6qgNM0cZKK8Q4JNXKN5fmOkTUu-gIvWforV8fPgbCOZU6URzg3KdSMTW3W8L9G2ERMAv6gbZDNCi0we1REAh7tTmfVw7W7MhfRWhCKG6o0-3-OCJeKa1br29Y5cciMllQEywojGjZN72GnEM-J0U47lcCI5vknsgX7oqIIIdztRkVksmW3uNz93lMyiqLGR5vu-l2KJEJnDPz5vtibm-vxrKEhVkyuXjUe4O3H5X-qnqAxPH1pppk2OBWtHzMKU3McxBkFMZM3WNoWnNBhVnM8rlbYLB60-Ny7aSN9rfqlWmVLVqPB24gZVlXfA7IpkUukZCAlnlwwDFH0E5ySRhByd-040]--></g></svg>