<?xml version="1.0" encoding="UTF-8" standalone="no"?><svg xmlns="http://www.w3.org/2000/svg" xmlns:xlink="http://www.w3.org/1999/xlink" contentStyleType="text/css" height="794px" preserveAspectRatio="none" style="width:478px;height:794px;background:#FFFFFF;" version="1.1" viewBox="0 0 478 794" width="478px" zoomAndPan="magnify"><defs/><g><!--class CreateSkillUI--><g id="elem_CreateSkillUI"><rect codeLine="7" fill="#F1F1F1" height="48" id="CreateSkillUI" rx="2.5" ry="2.5" style="stroke:#181818;stroke-width:0.5;" width="112" x="285" y="7"/><ellipse cx="300" cy="23" fill="#ADD1B2" rx="11" ry="11" style="stroke:#181818;stroke-width:1.0;"/><path d="M302.7656,18.875 Q302.9219,18.6563 303.1094,18.5469 Q303.2969,18.4375 303.5156,18.4375 Q303.8906,18.4375 304.125,18.7031 Q304.3594,18.9531 304.3594,19.5625 L304.3594,21.0156 Q304.3594,21.625 304.125,21.8906 Q303.8906,22.1563 303.5156,22.1563 Q303.1719,22.1563 302.9688,21.9531 Q302.7656,21.7656 302.6563,21.25 Q302.6094,20.8906 302.4219,20.7031 Q302.0938,20.3281 301.4844,20.1094 Q300.875,19.8906 300.25,19.8906 Q299.4844,19.8906 298.8438,20.2188 Q298.2188,20.5469 297.7188,21.2969 Q297.2344,22.0469 297.2344,23.0781 L297.2344,24.1719 Q297.2344,25.4063 298.125,26.2344 Q299.0156,27.0469 300.6094,27.0469 Q301.5469,27.0469 302.2031,26.7969 Q302.5938,26.6406 303.0156,26.2031 Q303.2813,25.9375 303.4219,25.8594 Q303.5781,25.7813 303.7813,25.7813 Q304.1094,25.7813 304.3594,26.0469 Q304.625,26.2969 304.625,26.6406 Q304.625,26.9844 304.2813,27.3906 Q303.7813,27.9688 302.9844,28.2969 Q301.9063,28.75 300.6094,28.75 Q299.0938,28.75 297.8906,28.125 Q296.9063,27.625 296.2188,26.5625 Q295.5313,25.4844 295.5313,24.2031 L295.5313,23.0469 Q295.5313,21.7188 296.1406,20.5781 Q296.7656,19.4219 297.8594,18.8125 Q298.9531,18.1875 300.1875,18.1875 Q300.9219,18.1875 301.5625,18.3594 Q302.2188,18.5156 302.7656,18.875 Z " fill="#000000"/><text fill="#000000" font-family="sans-serif" font-size="14" lengthAdjust="spacing" textLength="80" x="314" y="28.7285">CreateSkillUI</text><line style="stroke:#181818;stroke-width:0.5;" x1="286" x2="396" y1="39" y2="39"/><line style="stroke:#181818;stroke-width:0.5;" x1="286" x2="396" y1="47" y2="47"/></g><!--class CreateSkillController--><g id="elem_CreateSkillController"><rect codeLine="10" fill="#F1F1F1" height="83.2188" id="CreateSkillController" rx="2.5" ry="2.5" style="stroke:#181818;stroke-width:0.5;" width="261" x="210.5" y="116"/><ellipse cx="271.75" cy="132" fill="#ADD1B2" rx="11" ry="11" style="stroke:#181818;stroke-width:1.0;"/><path d="M274.5156,127.875 Q274.6719,127.6563 274.8594,127.5469 Q275.0469,127.4375 275.2656,127.4375 Q275.6406,127.4375 275.875,127.7031 Q276.1094,127.9531 276.1094,128.5625 L276.1094,130.0156 Q276.1094,130.625 275.875,130.8906 Q275.6406,131.1563 275.2656,131.1563 Q274.9219,131.1563 274.7188,130.9531 Q274.5156,130.7656 274.4063,130.25 Q274.3594,129.8906 274.1719,129.7031 Q273.8438,129.3281 273.2344,129.1094 Q272.625,128.8906 272,128.8906 Q271.2344,128.8906 270.5938,129.2188 Q269.9688,129.5469 269.4688,130.2969 Q268.9844,131.0469 268.9844,132.0781 L268.9844,133.1719 Q268.9844,134.4063 269.875,135.2344 Q270.7656,136.0469 272.3594,136.0469 Q273.2969,136.0469 273.9531,135.7969 Q274.3438,135.6406 274.7656,135.2031 Q275.0313,134.9375 275.1719,134.8594 Q275.3281,134.7813 275.5313,134.7813 Q275.8594,134.7813 276.1094,135.0469 Q276.375,135.2969 276.375,135.6406 Q276.375,135.9844 276.0313,136.3906 Q275.5313,136.9688 274.7344,137.2969 Q273.6563,137.75 272.3594,137.75 Q270.8438,137.75 269.6406,137.125 Q268.6563,136.625 267.9688,135.5625 Q267.2813,134.4844 267.2813,133.2031 L267.2813,132.0469 Q267.2813,130.7188 267.8906,129.5781 Q268.5156,128.4219 269.6094,127.8125 Q270.7031,127.1875 271.9375,127.1875 Q272.6719,127.1875 273.3125,127.3594 Q273.9688,127.5156 274.5156,127.875 Z " fill="#000000"/><text fill="#000000" font-family="sans-serif" font-size="14" lengthAdjust="spacing" textLength="130" x="292.25" y="137.7285">CreateSkillController</text><line style="stroke:#181818;stroke-width:0.5;" x1="211.5" x2="470.5" y1="148" y2="148"/><line style="stroke:#181818;stroke-width:0.5;" x1="211.5" x2="470.5" y1="156" y2="156"/><ellipse cx="221.5" cy="170.3047" fill="#84BE84" rx="3" ry="3" style="stroke:#038048;stroke-width:1.0;"/><text fill="#000000" font-family="sans-serif" font-size="14" lengthAdjust="spacing" textLength="235" x="230.5" y="174.5332">createSkill(designation : String) : void</text><ellipse cx="221.5" cy="187.9141" fill="#84BE84" rx="3" ry="3" style="stroke:#038048;stroke-width:1.0;"/><text fill="#000000" font-family="sans-serif" font-size="14" lengthAdjust="spacing" textLength="188" x="230.5" y="192.1426">getInstance() : SkillRepository</text></g><!--class Repositories--><g id="elem_Repositories"><rect codeLine="15" fill="#F1F1F1" height="118.4375" id="Repositories" rx="2.5" ry="2.5" style="stroke:#181818;stroke-width:0.5;" width="254" x="7" y="277"/><ellipse cx="90.25" cy="293" fill="#ADD1B2" rx="11" ry="11" style="stroke:#181818;stroke-width:1.0;"/><path d="M93.0156,288.875 Q93.1719,288.6563 93.3594,288.5469 Q93.5469,288.4375 93.7656,288.4375 Q94.1406,288.4375 94.375,288.7031 Q94.6094,288.9531 94.6094,289.5625 L94.6094,291.0156 Q94.6094,291.625 94.375,291.8906 Q94.1406,292.1563 93.7656,292.1563 Q93.4219,292.1563 93.2188,291.9531 Q93.0156,291.7656 92.9063,291.25 Q92.8594,290.8906 92.6719,290.7031 Q92.3438,290.3281 91.7344,290.1094 Q91.125,289.8906 90.5,289.8906 Q89.7344,289.8906 89.0938,290.2188 Q88.4688,290.5469 87.9688,291.2969 Q87.4844,292.0469 87.4844,293.0781 L87.4844,294.1719 Q87.4844,295.4063 88.375,296.2344 Q89.2656,297.0469 90.8594,297.0469 Q91.7969,297.0469 92.4531,296.7969 Q92.8438,296.6406 93.2656,296.2031 Q93.5313,295.9375 93.6719,295.8594 Q93.8281,295.7813 94.0313,295.7813 Q94.3594,295.7813 94.6094,296.0469 Q94.875,296.2969 94.875,296.6406 Q94.875,296.9844 94.5313,297.3906 Q94.0313,297.9688 93.2344,298.2969 Q92.1563,298.75 90.8594,298.75 Q89.3438,298.75 88.1406,298.125 Q87.1563,297.625 86.4688,296.5625 Q85.7813,295.4844 85.7813,294.2031 L85.7813,293.0469 Q85.7813,291.7188 86.3906,290.5781 Q87.0156,289.4219 88.1094,288.8125 Q89.2031,288.1875 90.4375,288.1875 Q91.1719,288.1875 91.8125,288.3594 Q92.4688,288.5156 93.0156,288.875 Z " fill="#000000"/><text fill="#000000" font-family="sans-serif" font-size="14" lengthAdjust="spacing" textLength="79" x="110.75" y="298.7285">Repositories</text><line style="stroke:#181818;stroke-width:0.5;" x1="8" x2="260" y1="309" y2="309"/><rect fill="none" height="6" style="stroke:#C82930;stroke-width:1.0;" width="6" x="15" y="320.3047"/><text fill="#000000" font-family="sans-serif" font-size="14" lengthAdjust="spacing" textLength="196" x="27" y="327.5332">skillRepository : SkillRepository</text><rect fill="none" height="6" style="stroke:#C82930;stroke-width:1.0;" width="6" x="15" y="337.9141"/><text fill="#000000" font-family="sans-serif" font-size="14" lengthAdjust="spacing" textLength="144" x="27" y="345.1426">instance : Repositories</text><line style="stroke:#181818;stroke-width:0.5;" x1="8" x2="260" y1="352.2188" y2="352.2188"/><ellipse cx="18" cy="366.5234" fill="#84BE84" rx="3" ry="3" style="stroke:#038048;stroke-width:1.0;"/><text fill="#000000" font-family="sans-serif" font-size="14" lengthAdjust="spacing" textLength="228" x="27" y="370.752">getSkillRepository() : SkillRepository</text><rect fill="#F24D5C" height="6" style="stroke:#C82930;stroke-width:1.0;" width="6" x="15" y="381.1328"/><text fill="#000000" font-family="sans-serif" font-size="14" lengthAdjust="spacing" textLength="89" x="27" y="388.3613">Repositories()</text></g><!--class SkillRepository--><g id="elem_SkillRepository"><rect codeLine="22" fill="#F1F1F1" height="118.4375" id="SkillRepository" rx="2.5" ry="2.5" style="stroke:#181818;stroke-width:0.5;" width="260" x="142" y="473"/><ellipse cx="221.25" cy="489" fill="#ADD1B2" rx="11" ry="11" style="stroke:#181818;stroke-width:1.0;"/><path d="M224.0156,484.875 Q224.1719,484.6563 224.3594,484.5469 Q224.5469,484.4375 224.7656,484.4375 Q225.1406,484.4375 225.375,484.7031 Q225.6094,484.9531 225.6094,485.5625 L225.6094,487.0156 Q225.6094,487.625 225.375,487.8906 Q225.1406,488.1563 224.7656,488.1563 Q224.4219,488.1563 224.2188,487.9531 Q224.0156,487.7656 223.9063,487.25 Q223.8594,486.8906 223.6719,486.7031 Q223.3438,486.3281 222.7344,486.1094 Q222.125,485.8906 221.5,485.8906 Q220.7344,485.8906 220.0938,486.2188 Q219.4688,486.5469 218.9688,487.2969 Q218.4844,488.0469 218.4844,489.0781 L218.4844,490.1719 Q218.4844,491.4063 219.375,492.2344 Q220.2656,493.0469 221.8594,493.0469 Q222.7969,493.0469 223.4531,492.7969 Q223.8438,492.6406 224.2656,492.2031 Q224.5313,491.9375 224.6719,491.8594 Q224.8281,491.7813 225.0313,491.7813 Q225.3594,491.7813 225.6094,492.0469 Q225.875,492.2969 225.875,492.6406 Q225.875,492.9844 225.5313,493.3906 Q225.0313,493.9688 224.2344,494.2969 Q223.1563,494.75 221.8594,494.75 Q220.3438,494.75 219.1406,494.125 Q218.1563,493.625 217.4688,492.5625 Q216.7813,491.4844 216.7813,490.2031 L216.7813,489.0469 Q216.7813,487.7188 217.3906,486.5781 Q218.0156,485.4219 219.1094,484.8125 Q220.2031,484.1875 221.4375,484.1875 Q222.1719,484.1875 222.8125,484.3594 Q223.4688,484.5156 224.0156,484.875 Z " fill="#000000"/><text fill="#000000" font-family="sans-serif" font-size="14" lengthAdjust="spacing" textLength="93" x="241.75" y="494.7285">SkillRepository</text><line style="stroke:#181818;stroke-width:0.5;" x1="143" x2="401" y1="505" y2="505"/><rect fill="none" height="6" style="stroke:#C82930;stroke-width:1.0;" width="6" x="150" y="516.3047"/><text fill="#000000" font-family="sans-serif" font-size="14" lengthAdjust="spacing" textLength="120" x="162" y="523.5332">skillList : List&lt;Skill&gt;</text><line style="stroke:#181818;stroke-width:0.5;" x1="143" x2="401" y1="530.6094" y2="530.6094"/><ellipse cx="153" cy="544.9141" fill="#84BE84" rx="3" ry="3" style="stroke:#038048;stroke-width:1.0;"/><text fill="#000000" font-family="sans-serif" font-size="14" lengthAdjust="spacing" textLength="234" x="162" y="549.1426">createSkill(designation : String) : Skill</text><ellipse cx="153" cy="562.5234" fill="#84BE84" rx="3" ry="3" style="stroke:#038048;stroke-width:1.0;"/><text fill="#000000" font-family="sans-serif" font-size="14" lengthAdjust="spacing" textLength="173" x="162" y="566.752">checkForDuplicates() : void</text><ellipse cx="153" cy="580.1328" fill="#84BE84" rx="3" ry="3" style="stroke:#038048;stroke-width:1.0;"/><text fill="#000000" font-family="sans-serif" font-size="14" lengthAdjust="spacing" textLength="116" x="162" y="584.3613">addSkill(skill): void</text></g><!--class Skill--><g id="elem_Skill"><rect codeLine="29" fill="#F1F1F1" height="118.4375" id="Skill" rx="2.5" ry="2.5" style="stroke:#181818;stroke-width:0.5;" width="284" x="130" y="669"/><ellipse cx="255.25" cy="685" fill="#ADD1B2" rx="11" ry="11" style="stroke:#181818;stroke-width:1.0;"/><path d="M258.0156,680.875 Q258.1719,680.6563 258.3594,680.5469 Q258.5469,680.4375 258.7656,680.4375 Q259.1406,680.4375 259.375,680.7031 Q259.6094,680.9531 259.6094,681.5625 L259.6094,683.0156 Q259.6094,683.625 259.375,683.8906 Q259.1406,684.1563 258.7656,684.1563 Q258.4219,684.1563 258.2188,683.9531 Q258.0156,683.7656 257.9063,683.25 Q257.8594,682.8906 257.6719,682.7031 Q257.3438,682.3281 256.7344,682.1094 Q256.125,681.8906 255.5,681.8906 Q254.7344,681.8906 254.0938,682.2188 Q253.4688,682.5469 252.9688,683.2969 Q252.4844,684.0469 252.4844,685.0781 L252.4844,686.1719 Q252.4844,687.4063 253.375,688.2344 Q254.2656,689.0469 255.8594,689.0469 Q256.7969,689.0469 257.4531,688.7969 Q257.8438,688.6406 258.2656,688.2031 Q258.5313,687.9375 258.6719,687.8594 Q258.8281,687.7813 259.0313,687.7813 Q259.3594,687.7813 259.6094,688.0469 Q259.875,688.2969 259.875,688.6406 Q259.875,688.9844 259.5313,689.3906 Q259.0313,689.9688 258.2344,690.2969 Q257.1563,690.75 255.8594,690.75 Q254.3438,690.75 253.1406,690.125 Q252.1563,689.625 251.4688,688.5625 Q250.7813,687.4844 250.7813,686.2031 L250.7813,685.0469 Q250.7813,683.7188 251.3906,682.5781 Q252.0156,681.4219 253.1094,680.8125 Q254.2031,680.1875 255.4375,680.1875 Q256.1719,680.1875 256.8125,680.3594 Q257.4688,680.5156 258.0156,680.875 Z " fill="#000000"/><text fill="#000000" font-family="sans-serif" font-size="14" lengthAdjust="spacing" textLength="25" x="275.75" y="690.7285">Skill</text><line style="stroke:#181818;stroke-width:0.5;" x1="131" x2="413" y1="701" y2="701"/><rect fill="none" height="6" style="stroke:#C82930;stroke-width:1.0;" width="6" x="138" y="712.3047"/><text fill="#000000" font-family="sans-serif" font-size="14" lengthAdjust="spacing" textLength="71" x="150" y="719.5332">title : String</text><line style="stroke:#181818;stroke-width:0.5;" x1="131" x2="413" y1="726.6094" y2="726.6094"/><ellipse cx="141" cy="740.9141" fill="#84BE84" rx="3" ry="3" style="stroke:#038048;stroke-width:1.0;"/><text fill="#000000" font-family="sans-serif" font-size="14" lengthAdjust="spacing" textLength="157" x="150" y="745.1426">Skill(designation : String)</text><ellipse cx="141" cy="758.5234" fill="#84BE84" rx="3" ry="3" style="stroke:#038048;stroke-width:1.0;"/><text fill="#000000" font-family="sans-serif" font-size="14" lengthAdjust="spacing" textLength="176" x="150" y="762.752">verifyFilled(skill : Skill) : void</text><ellipse cx="141" cy="776.1328" fill="#84BE84" rx="3" ry="3" style="stroke:#038048;stroke-width:1.0;"/><text fill="#000000" font-family="sans-serif" font-size="14" lengthAdjust="spacing" textLength="258" x="150" y="780.3613">verifySpecialCharacters(skill : Skill) : void</text></g><!--link CreateSkillUI to CreateSkillController--><g id="link_CreateSkillUI_CreateSkillController"><path codeLine="36" d="M341,55.13 C341,70.68 341,91.72 341,110.6 " fill="none" id="CreateSkillUI-to-CreateSkillController" style="stroke:#181818;stroke-width:1.0;stroke-dasharray:7.0,7.0;"/><polygon fill="#181818" points="341,115.86,345,106.86,341,110.86,337,106.86,341,115.86" style="stroke:#181818;stroke-width:1.0;"/></g><!--link Repositories to SkillRepository--><g id="link_Repositories_SkillRepository"><path codeLine="37" d="M175.4,395.21 C191.85,418.32 210.79,444.96 227.53,468.48 " fill="none" id="Repositories-to-SkillRepository" style="stroke:#181818;stroke-width:1.0;"/><polygon fill="#181818" points="230.62,472.83,228.6791,463.1743,227.7287,468.7507,222.1523,467.8003,230.62,472.83" style="stroke:#181818;stroke-width:1.0;"/><text fill="#000000" font-family="sans-serif" font-size="13" lengthAdjust="spacing" textLength="85" x="209" y="439.4951">skillRepository</text><text fill="#000000" font-family="sans-serif" font-size="13" lengthAdjust="spacing" textLength="7" x="218.1503" y="462.1335">1</text></g><!--link Repositories to Repositories--><g id="link_Repositories_Repositories"><path codeLine="38" d="M261.01,319 C281.75,321.43 296,327.1 296,336 C296,344.14 284.09,349.57 266.21,352.3 " fill="none" id="Repositories-to-Repositories" style="stroke:#181818;stroke-width:1.0;"/><polygon fill="#181818" points="261.01,353,270.4654,355.7558,265.9648,352.3289,269.3917,347.8282,261.01,353" style="stroke:#181818;stroke-width:1.0;"/><text fill="#000000" font-family="sans-serif" font-size="13" lengthAdjust="spacing" textLength="49" x="302" y="341.4951">instance</text></g><!--link SkillRepository to Skill--><g id="link_SkillRepository_Skill"><path codeLine="39" d="M272,591.21 C272,614.03 272,640.29 272,663.6 " fill="none" id="SkillRepository-to-Skill" style="stroke:#181818;stroke-width:1.0;"/><polygon fill="#181818" points="272,668.83,276,659.83,272,663.83,268,659.83,272,668.83" style="stroke:#181818;stroke-width:1.0;"/><text fill="#000000" font-family="sans-serif" font-size="13" lengthAdjust="spacing" textLength="30" x="273" y="635.4951">skills</text><text fill="#000000" font-family="sans-serif" font-size="13" lengthAdjust="spacing" textLength="5" x="266.6953" y="658.1335">*</text></g><!--link CreateSkillController to Repositories--><g id="link_CreateSkillController_Repositories"><path codeLine="40" d="M293.25,199.21 C267.43,221.23 235,248.88 206.16,273.47 " fill="none" id="CreateSkillController-to-Repositories" style="stroke:#181818;stroke-width:1.0;stroke-dasharray:7.0,7.0;"/><polygon fill="#181818" points="202.3,276.76,211.7426,273.9604,206.1033,273.5143,206.5494,267.8751,202.3,276.76" style="stroke:#181818;stroke-width:1.0;"/><text fill="#000000" font-family="sans-serif" font-size="13" lengthAdjust="spacing" textLength="67" x="258" y="243.4951">repositories</text></g><!--link CreateSkillController to SkillRepository--><g id="link_CreateSkillController_SkillRepository"><path codeLine="41" d="M346.85,199.28 C351.77,233.56 358,277 358,277 C358,277 358,395 358,395 C358,395 334.08,432.83 311.47,468.58 " fill="none" id="CreateSkillController-to-SkillRepository" style="stroke:#181818;stroke-width:1.0;stroke-dasharray:7.0,7.0;"/><polygon fill="#181818" points="308.72,472.93,316.9086,467.4576,311.3905,468.7029,310.1452,463.1848,308.72,472.93" style="stroke:#181818;stroke-width:1.0;"/><text fill="#000000" font-family="sans-serif" font-size="13" lengthAdjust="spacing" textLength="85" x="359" y="341.4951">skillRepository</text></g><!--SRC=[ZLFBReCm4BpxArQvbBGYKgzHbKkgI95wAke7M6O3ArmRsTjKgEg_rpm3XBJr1TYPdHdRYo_8bDB9ToYbAcI62LSQmQ5YQJADmWy4dylKVfB9u2Ir7oEQ379L8fHML_M747SQJmnimL6MCwHKAv8rGYWjlOUzGycO5AJrsn6-nFS2iBU6dTKQNI10M0_g0aOfUigCh4LX2mcxa6mTtiwMqfQT8H-D3_jG6DL8q_UAfVN4rbKNpw56w7khq3pZBshKtDXFYpTe_Og1kbI1EBQUiSPGjBwadMbtWMDeKhoGvo1RFvuQukx_9zUW7Jr7LHoiU_ueDQdGwQFfsSeqRSKQrtK7JJCEoPXOus3L2i0lMLh66HsTgaDWOThQz1cdKLfUKg8YgVTvc4Z5wFoDbX1nEdkRpMvvwCHaBE9u1wl7rTNfRs5s-zTjay9sk7qnbseixZkBNjYBvJ-YZZqJTkDPkjtrzmv-0000]--></g></svg>