<?xml version="1.0" encoding="UTF-8" standalone="no"?><svg xmlns="http://www.w3.org/2000/svg" xmlns:xlink="http://www.w3.org/1999/xlink" contentStyleType="text/css" height="563px" preserveAspectRatio="none" style="width:747px;height:563px;background:#FFFFFF;" version="1.1" viewBox="0 0 747 563" width="747px" zoomAndPan="magnify"><defs/><g><rect fill="#FFFFFF" height="370.3125" style="stroke:#181818;stroke-width:1.0;" width="10" x="18" y="92.6094"/><rect fill="#FFFFFF" height="133.6641" style="stroke:#181818;stroke-width:1.0;" width="10" x="329" y="114.9609"/><rect fill="#FFFFFF" height="30.3516" style="stroke:#181818;stroke-width:1.0;" width="10" x="329" y="432.5703"/><rect fill="#FFFFFF" height="183.9453" style="stroke:#181818;stroke-width:1.0;" width="10" x="504" y="248.625"/><rect fill="#FFFFFF" height="76.7969" style="stroke:#181818;stroke-width:1.0;" width="10" x="679" y="325.4219"/><line style="stroke:#181818;stroke-width:0.5;stroke-dasharray:5.0,5.0;" x1="23" x2="23" y1="82.6094" y2="480.9219"/><line style="stroke:#181818;stroke-width:0.5;stroke-dasharray:5.0,5.0;" x1="334" x2="334" y1="82.6094" y2="480.9219"/><line style="stroke:#181818;stroke-width:0.5;stroke-dasharray:5.0,5.0;" x1="509" x2="509" y1="154.2656" y2="480.9219"/><line style="stroke:#181818;stroke-width:0.5;stroke-dasharray:5.0,5.0;" x1="683.5" x2="683.5" y1="82.6094" y2="480.9219"/><text fill="#000000" font-family="sans-serif" font-size="14" lengthAdjust="spacing" textLength="30" x="5" y="79.5332">HRM</text><ellipse cx="23" cy="13.5" fill="#E3E3E3" rx="8" ry="8" style="stroke:#181818;stroke-width:0.5;"/><path d="M23,21.5 L23,48.5 M10,29.5 L36,29.5 M23,48.5 L10,63.5 M23,48.5 L36,63.5 " fill="none" style="stroke:#181818;stroke-width:0.5;"/><text fill="#000000" font-family="sans-serif" font-size="14" lengthAdjust="spacing" textLength="30" x="5" y="494.4551">HRM</text><ellipse cx="23" cy="506.0313" fill="#E3E3E3" rx="8" ry="8" style="stroke:#181818;stroke-width:0.5;"/><path d="M23,514.0313 L23,541.0313 M10,522.0313 L36,522.0313 M23,541.0313 L10,556.0313 M23,541.0313 L36,556.0313 " fill="none" style="stroke:#181818;stroke-width:0.5;"/><rect fill="#E3E3E3" height="31.6094" rx="2.5" ry="2.5" style="stroke:#181818;stroke-width:0.5;" width="98" x="285" y="50"/><text fill="#000000" font-family="sans-serif" font-size="14" lengthAdjust="spacing" textLength="84" x="292" y="71.5332">:CreateSkillUI</text><rect fill="#E3E3E3" height="31.6094" rx="2.5" ry="2.5" style="stroke:#181818;stroke-width:0.5;" width="98" x="285" y="479.9219"/><text fill="#000000" font-family="sans-serif" font-size="14" lengthAdjust="spacing" textLength="84" x="292" y="501.4551">:CreateSkillUI</text><rect fill="#E3E3E3" height="31.6094" rx="2.5" ry="2.5" style="stroke:#181818;stroke-width:0.5;" width="148" x="435" y="479.9219"/><text fill="#000000" font-family="sans-serif" font-size="14" lengthAdjust="spacing" textLength="134" x="442" y="501.4551">:CreateSkillController</text><rect fill="#E3E3E3" height="49.2188" rx="2.5" ry="2.5" style="stroke:#181818;stroke-width:0.5;" width="109" x="629.5" y="32.3906"/><text fill="#000000" font-family="sans-serif" font-size="14" lengthAdjust="spacing" textLength="95" x="636.5" y="53.9238">skillRepository:</text><text fill="#000000" font-family="sans-serif" font-size="14" lengthAdjust="spacing" textLength="91" x="638.5" y="71.5332">skillRepository</text><rect fill="#E3E3E3" height="49.2188" rx="2.5" ry="2.5" style="stroke:#181818;stroke-width:0.5;" width="109" x="629.5" y="479.9219"/><text fill="#000000" font-family="sans-serif" font-size="14" lengthAdjust="spacing" textLength="95" x="636.5" y="501.4551">skillRepository:</text><text fill="#000000" font-family="sans-serif" font-size="14" lengthAdjust="spacing" textLength="91" x="638.5" y="519.0645">skillRepository</text><rect fill="#FFFFFF" height="370.3125" style="stroke:#181818;stroke-width:1.0;" width="10" x="18" y="92.6094"/><rect fill="#FFFFFF" height="133.6641" style="stroke:#181818;stroke-width:1.0;" width="10" x="329" y="114.9609"/><rect fill="#FFFFFF" height="30.3516" style="stroke:#181818;stroke-width:1.0;" width="10" x="329" y="432.5703"/><rect fill="#FFFFFF" height="183.9453" style="stroke:#181818;stroke-width:1.0;" width="10" x="504" y="248.625"/><rect fill="#FFFFFF" height="76.7969" style="stroke:#181818;stroke-width:1.0;" width="10" x="679" y="325.4219"/><polygon fill="#181818" points="317,110.9609,327,114.9609,317,118.9609,321,114.9609" style="stroke:#181818;stroke-width:1.0;"/><line style="stroke:#181818;stroke-width:1.0;" x1="28" x2="323" y1="114.9609" y2="114.9609"/><text fill="#000000" font-family="sans-serif" font-size="13" font-weight="bold" lengthAdjust="spacing" textLength="7" x="35" y="110.1045">1</text><text fill="#000000" font-family="sans-serif" font-size="13" lengthAdjust="spacing" textLength="121" x="46" y="110.1045">asks to create a skill</text><polygon fill="#181818" points="423,141.3125,433,145.3125,423,149.3125,427,145.3125" style="stroke:#181818;stroke-width:1.0;"/><line style="stroke:#181818;stroke-width:1.0;" x1="339" x2="429" y1="145.3125" y2="145.3125"/><text fill="#000000" font-family="sans-serif" font-size="13" font-weight="bold" lengthAdjust="spacing" textLength="7" x="346" y="140.4561">2</text><text fill="#000000" font-family="sans-serif" font-size="13" lengthAdjust="spacing" textLength="36" x="357" y="140.4561">create</text><rect fill="#E3E3E3" height="31.6094" rx="2.5" ry="2.5" style="stroke:#181818;stroke-width:0.5;" width="148" x="435" y="122.9609"/><text fill="#000000" font-family="sans-serif" font-size="14" lengthAdjust="spacing" textLength="134" x="442" y="144.4941">:CreateSkillController</text><polygon fill="#181818" points="39,183.9219,29,187.9219,39,191.9219,35,187.9219" style="stroke:#181818;stroke-width:1.0;"/><line style="stroke:#181818;stroke-width:1.0;stroke-dasharray:2.0,2.0;" x1="33" x2="328" y1="187.9219" y2="187.9219"/><text fill="#000000" font-family="sans-serif" font-size="13" font-weight="bold" lengthAdjust="spacing" textLength="7" x="45" y="183.0654">3</text><text fill="#000000" font-family="sans-serif" font-size="13" lengthAdjust="spacing" textLength="154" x="56" y="183.0654">asks for a skill designation</text><polygon fill="#181818" points="317,214.2734,327,218.2734,317,222.2734,321,218.2734" style="stroke:#181818;stroke-width:1.0;"/><line style="stroke:#181818;stroke-width:1.0;" x1="28" x2="323" y1="218.2734" y2="218.2734"/><text fill="#000000" font-family="sans-serif" font-size="13" font-weight="bold" lengthAdjust="spacing" textLength="7" x="35" y="213.417">4</text><text fill="#000000" font-family="sans-serif" font-size="13" lengthAdjust="spacing" textLength="144" x="46" y="213.417">enters a skill designation</text><polygon fill="#181818" points="492,244.625,502,248.625,492,252.625,496,248.625" style="stroke:#181818;stroke-width:1.0;"/><line style="stroke:#181818;stroke-width:1.0;" x1="334" x2="498" y1="248.625" y2="248.625"/><text fill="#000000" font-family="sans-serif" font-size="13" font-weight="bold" lengthAdjust="spacing" textLength="7" x="341" y="243.7686">5</text><text fill="#000000" font-family="sans-serif" font-size="13" lengthAdjust="spacing" textLength="135" x="352" y="243.7686">createSkill(designation)</text><rect fill="none" height="41.4453" style="stroke:#000000;stroke-width:1.5;" width="154" x="432" y="256.625"/><path d="M432,256.625 L494,256.625 L494,264.625 L484,274.625 L432,274.625 L432,256.625 " fill="#EEEEEE" style="stroke:#000000;stroke-width:2.0;"/><text fill="#000000" font-family="sans-serif" font-size="13" font-weight="bold" lengthAdjust="spacing" textLength="17" x="445" y="272.1201">ref</text><text fill="#000000" font-family="sans-serif" font-size="12" lengthAdjust="spacing" textLength="107" x="455.5" y="291.082">Get Skill Repository</text><polygon fill="#181818" points="667,321.4219,677,325.4219,667,329.4219,671,325.4219" style="stroke:#181818;stroke-width:1.0;"/><line style="stroke:#181818;stroke-width:1.0;" x1="514" x2="673" y1="325.4219" y2="325.4219"/><text fill="#000000" font-family="sans-serif" font-size="13" font-weight="bold" lengthAdjust="spacing" textLength="7" x="521" y="320.5654">6</text><text fill="#000000" font-family="sans-serif" font-size="13" lengthAdjust="spacing" textLength="135" x="532" y="320.5654">createSkill(designation)</text><rect fill="none" height="41.4453" style="stroke:#000000;stroke-width:1.5;" width="115" x="626.5" y="333.4219"/><path d="M626.5,333.4219 L688.5,333.4219 L688.5,341.4219 L678.5,351.4219 L626.5,351.4219 L626.5,333.4219 " fill="#EEEEEE" style="stroke:#000000;stroke-width:2.0;"/><text fill="#000000" font-family="sans-serif" font-size="13" font-weight="bold" lengthAdjust="spacing" textLength="17" x="639.5" y="348.917">ref</text><text fill="#000000" font-family="sans-serif" font-size="12" lengthAdjust="spacing" textLength="63" x="652.5" y="367.8789">Create Skill</text><polygon fill="#181818" points="525,398.2188,515,402.2188,525,406.2188,521,402.2188" style="stroke:#181818;stroke-width:1.0;"/><line style="stroke:#181818;stroke-width:1.0;stroke-dasharray:2.0,2.0;" x1="519" x2="683" y1="402.2188" y2="402.2188"/><text fill="#000000" font-family="sans-serif" font-size="13" font-weight="bold" lengthAdjust="spacing" textLength="7" x="531" y="397.3623">7</text><text fill="#000000" font-family="sans-serif" font-size="13" lengthAdjust="spacing" textLength="23" x="542" y="397.3623">skill</text><polygon fill="#181818" points="350,428.5703,340,432.5703,350,436.5703,346,432.5703" style="stroke:#181818;stroke-width:1.0;"/><line style="stroke:#181818;stroke-width:1.0;stroke-dasharray:2.0,2.0;" x1="344" x2="508" y1="432.5703" y2="432.5703"/><text fill="#000000" font-family="sans-serif" font-size="13" font-weight="bold" lengthAdjust="spacing" textLength="7" x="356" y="427.7139">8</text><text fill="#000000" font-family="sans-serif" font-size="13" lengthAdjust="spacing" textLength="23" x="367" y="427.7139">skill</text><polygon fill="#181818" points="34,458.9219,24,462.9219,34,466.9219,30,462.9219" style="stroke:#181818;stroke-width:1.0;"/><line style="stroke:#181818;stroke-width:1.0;stroke-dasharray:2.0,2.0;" x1="28" x2="333" y1="462.9219" y2="462.9219"/><text fill="#000000" font-family="sans-serif" font-size="13" font-weight="bold" lengthAdjust="spacing" textLength="7" x="40" y="458.0654">9</text><text fill="#000000" font-family="sans-serif" font-size="13" lengthAdjust="spacing" textLength="266" x="51" y="458.0654">displays successful or unsuccessful operation</text><!--SRC=[VL91ReCm4Bpx5QkSsaXy8AfooQ55QYz9kVNYceLQ61lP9bL-tsMT48UcvG3sUdPdc77ej1sabptqpZhrvLsF4Fs88imdWrITRF4GJmR1euhIjYO7X2zPkszjMsYa2IY47AEpO_-9djOgEW-hb_tR2cG0-WhgYbhfGTe8gytEeunuwBGnLScOglmRidCsUcSCUeRktlUlj-0meVOukA29-BJvi8iAzorgB5CVYOG52df1iQrAs12u2n0TADO0ChLUyIHM4B3OifRrcbeID9MfFWqxpsd8YlC4g37erigedRqG0ZEYZUZ3VLnL5jk9PsPXKnuopAEeCHSthzaguR41TqIVjiyOWIT0vWNQcc9kX60YKhKmwp_kAztIuPbuUP32JJAkt40FypyLnHq1AOG9bFtjhr2pCSN5tRkTRCPKkuarjT-aMEim67cY2pGgXI4qem7ATBJvVa2VubgmqCniHmD_0000]--></g></svg>