<?xml version="1.0" encoding="UTF-8" standalone="no"?><svg xmlns="http://www.w3.org/2000/svg" xmlns:xlink="http://www.w3.org/1999/xlink" contentStyleType="text/css" height="598px" preserveAspectRatio="none" style="width:579px;height:598px;background:#FFFFFF;" version="1.1" viewBox="0 0 579 598" width="579px" zoomAndPan="magnify"><defs/><g><rect fill="#FFFFFF" height="55.7031" style="stroke:#181818;stroke-width:1.0;" width="10" x="172" y="87.5703"/><rect fill="#FFFFFF" height="176.4063" style="stroke:#181818;stroke-width:1.0;" width="10" x="172" y="359.2891"/><rect fill="#FFFFFF" height="41.3516" style="stroke:#181818;stroke-width:1.0;" width="10" x="177" y="397.6406"/><rect fill="#FFFFFF" height="206.0156" style="stroke:#181818;stroke-width:1.0;" width="10" x="350.5" y="153.2734"/><rect fill="#FFFFFF" height="128.0547" style="stroke:#181818;stroke-width:1.0;" width="10" x="355.5" y="193.8828"/><rect fill="#FFFFFF" height="41.3516" style="stroke:#181818;stroke-width:1.0;" width="10" x="360.5" y="237.2344"/><rect fill="none" height="394.7734" style="stroke:#000000;stroke-width:1.5;" width="461" x="112.5" y="102.5703"/><line style="stroke:#181818;stroke-width:0.5;stroke-dasharray:5.0,5.0;" x1="176.5" x2="176.5" y1="55.2188" y2="544.6953"/><line style="stroke:#181818;stroke-width:0.5;stroke-dasharray:5.0,5.0;" x1="355" x2="355" y1="152.2266" y2="544.6953"/><rect fill="#E3E3E3" height="49.2188" rx="2.5" ry="2.5" style="stroke:#181818;stroke-width:0.5;" width="109" x="122.5" y="5"/><text fill="#000000" font-family="sans-serif" font-size="14" lengthAdjust="spacing" textLength="95" x="129.5" y="26.5332">skillRepository:</text><text fill="#000000" font-family="sans-serif" font-size="14" lengthAdjust="spacing" textLength="91" x="131.5" y="44.1426">skillRepository</text><rect fill="#E3E3E3" height="49.2188" rx="2.5" ry="2.5" style="stroke:#181818;stroke-width:0.5;" width="109" x="122.5" y="543.6953"/><text fill="#000000" font-family="sans-serif" font-size="14" lengthAdjust="spacing" textLength="95" x="129.5" y="565.2285">skillRepository:</text><text fill="#000000" font-family="sans-serif" font-size="14" lengthAdjust="spacing" textLength="91" x="131.5" y="582.8379">skillRepository</text><rect fill="#E3E3E3" height="31.6094" rx="2.5" ry="2.5" style="stroke:#181818;stroke-width:0.5;" width="43" x="334" y="543.6953"/><text fill="#000000" font-family="sans-serif" font-size="14" lengthAdjust="spacing" textLength="29" x="341" y="565.2285">:Skill</text><rect fill="#FFFFFF" height="55.7031" style="stroke:#181818;stroke-width:1.0;" width="10" x="172" y="87.5703"/><rect fill="#FFFFFF" height="176.4063" style="stroke:#181818;stroke-width:1.0;" width="10" x="172" y="359.2891"/><rect fill="#FFFFFF" height="41.3516" style="stroke:#181818;stroke-width:1.0;" width="10" x="177" y="397.6406"/><rect fill="#FFFFFF" height="206.0156" style="stroke:#181818;stroke-width:1.0;" width="10" x="350.5" y="153.2734"/><rect fill="#FFFFFF" height="128.0547" style="stroke:#181818;stroke-width:1.0;" width="10" x="355.5" y="193.8828"/><rect fill="#FFFFFF" height="41.3516" style="stroke:#181818;stroke-width:1.0;" width="10" x="360.5" y="237.2344"/><polygon fill="#181818" points="160,83.5703,170,87.5703,160,91.5703,164,87.5703" style="stroke:#181818;stroke-width:1.0;"/><line style="stroke:#181818;stroke-width:1.0;" x1="0" x2="166" y1="87.5703" y2="87.5703"/><text fill="#000000" font-family="sans-serif" font-size="13" font-weight="bold" lengthAdjust="spacing" textLength="14" x="7" y="82.7139">10</text><text fill="#000000" font-family="sans-serif" font-size="13" lengthAdjust="spacing" textLength="135" x="25" y="82.7139">createSkill(designation)</text><path d="M112.5,102.5703 L231.5,102.5703 L231.5,110.9219 L221.5,120.9219 L112.5,120.9219 L112.5,102.5703 " fill="#EEEEEE" style="stroke:#000000;stroke-width:1.5;"/><rect fill="none" height="394.7734" style="stroke:#000000;stroke-width:1.5;" width="461" x="112.5" y="102.5703"/><text fill="#000000" font-family="sans-serif" font-size="13" font-weight="bold" lengthAdjust="spacing" textLength="74" x="127.5" y="117.0654">Create Skill</text><polygon fill="#181818" points="322,139.2734,332,143.2734,322,147.2734,326,143.2734" style="stroke:#181818;stroke-width:1.0;"/><line style="stroke:#181818;stroke-width:1.0;" x1="177" x2="328" y1="143.2734" y2="143.2734"/><text fill="#000000" font-family="sans-serif" font-size="13" font-weight="bold" lengthAdjust="spacing" textLength="14" x="184" y="138.417">11</text><text fill="#000000" font-family="sans-serif" font-size="13" lengthAdjust="spacing" textLength="110" x="202" y="138.417">create(designation)</text><rect fill="#E3E3E3" height="31.6094" rx="2.5" ry="2.5" style="stroke:#181818;stroke-width:0.5;" width="43" x="334" y="120.9219"/><text fill="#000000" font-family="sans-serif" font-size="14" lengthAdjust="spacing" textLength="29" x="341" y="142.4551">:Skill</text><line style="stroke:#181818;stroke-width:1.0;" x1="360.5" x2="407.5" y1="180.8828" y2="180.8828"/><line style="stroke:#181818;stroke-width:1.0;" x1="407.5" x2="407.5" y1="180.8828" y2="193.8828"/><line style="stroke:#181818;stroke-width:1.0;" x1="366.5" x2="407.5" y1="193.8828" y2="193.8828"/><polygon fill="#181818" points="376.5,189.8828,366.5,193.8828,376.5,197.8828,372.5,193.8828" style="stroke:#181818;stroke-width:1.0;"/><text fill="#000000" font-family="sans-serif" font-size="13" font-weight="bold" lengthAdjust="spacing" textLength="14" x="372.5" y="176.0264">12</text><text fill="#000000" font-family="sans-serif" font-size="13" lengthAdjust="spacing" textLength="91" x="390.5" y="176.0264">verifyFilled(skill)</text><line style="stroke:#181818;stroke-width:1.0;" x1="365.5" x2="412.5" y1="224.2344" y2="224.2344"/><line style="stroke:#181818;stroke-width:1.0;" x1="412.5" x2="412.5" y1="224.2344" y2="237.2344"/><line style="stroke:#181818;stroke-width:1.0;" x1="371.5" x2="412.5" y1="237.2344" y2="237.2344"/><polygon fill="#181818" points="381.5,233.2344,371.5,237.2344,381.5,241.2344,377.5,237.2344" style="stroke:#181818;stroke-width:1.0;"/><text fill="#000000" font-family="sans-serif" font-size="13" font-weight="bold" lengthAdjust="spacing" textLength="14" x="377.5" y="219.3779">13</text><text fill="#000000" font-family="sans-serif" font-size="13" lengthAdjust="spacing" textLength="166" x="395.5" y="219.3779">verifySpecialCharacters(skill)</text><line style="stroke:#181818;stroke-width:1.0;stroke-dasharray:2.0,2.0;" x1="370.5" x2="412.5" y1="277.5859" y2="277.5859"/><line style="stroke:#181818;stroke-width:1.0;stroke-dasharray:2.0,2.0;" x1="412.5" x2="412.5" y1="277.5859" y2="290.5859"/><line style="stroke:#181818;stroke-width:1.0;stroke-dasharray:2.0,2.0;" x1="365.5" x2="412.5" y1="290.5859" y2="290.5859"/><polygon fill="#181818" points="375.5,286.5859,365.5,290.5859,375.5,294.5859,371.5,290.5859" style="stroke:#181818;stroke-width:1.0;"/><text fill="#000000" font-family="sans-serif" font-size="13" font-weight="bold" lengthAdjust="spacing" textLength="14" x="377.5" y="272.7295">14</text><text fill="#000000" font-family="sans-serif" font-size="13" lengthAdjust="spacing" textLength="4" x="395.5" y="272.7295"> </text><line style="stroke:#181818;stroke-width:1.0;stroke-dasharray:2.0,2.0;" x1="365.5" x2="407.5" y1="320.9375" y2="320.9375"/><line style="stroke:#181818;stroke-width:1.0;stroke-dasharray:2.0,2.0;" x1="407.5" x2="407.5" y1="320.9375" y2="333.9375"/><line style="stroke:#181818;stroke-width:1.0;stroke-dasharray:2.0,2.0;" x1="360.5" x2="407.5" y1="333.9375" y2="333.9375"/><polygon fill="#181818" points="370.5,329.9375,360.5,333.9375,370.5,337.9375,366.5,333.9375" style="stroke:#181818;stroke-width:1.0;"/><text fill="#000000" font-family="sans-serif" font-size="13" font-weight="bold" lengthAdjust="spacing" textLength="14" x="372.5" y="316.0811">15</text><text fill="#000000" font-family="sans-serif" font-size="13" lengthAdjust="spacing" textLength="4" x="390.5" y="316.0811"> </text><polygon fill="#181818" points="193,355.2891,183,359.2891,193,363.2891,189,359.2891" style="stroke:#181818;stroke-width:1.0;"/><line style="stroke:#181818;stroke-width:1.0;stroke-dasharray:2.0,2.0;" x1="187" x2="354.5" y1="359.2891" y2="359.2891"/><text fill="#000000" font-family="sans-serif" font-size="13" font-weight="bold" lengthAdjust="spacing" textLength="14" x="199" y="354.4326">16</text><text fill="#000000" font-family="sans-serif" font-size="13" lengthAdjust="spacing" textLength="23" x="217" y="354.4326">skill</text><line style="stroke:#181818;stroke-width:1.0;" x1="182" x2="229" y1="384.6406" y2="384.6406"/><line style="stroke:#181818;stroke-width:1.0;" x1="229" x2="229" y1="384.6406" y2="397.6406"/><line style="stroke:#181818;stroke-width:1.0;" x1="188" x2="229" y1="397.6406" y2="397.6406"/><polygon fill="#181818" points="198,393.6406,188,397.6406,198,401.6406,194,397.6406" style="stroke:#181818;stroke-width:1.0;"/><text fill="#000000" font-family="sans-serif" font-size="13" font-weight="bold" lengthAdjust="spacing" textLength="14" x="194" y="379.7842">17</text><text fill="#000000" font-family="sans-serif" font-size="13" lengthAdjust="spacing" textLength="116" x="212" y="379.7842">check for duplicates</text><line style="stroke:#181818;stroke-width:1.0;stroke-dasharray:2.0,2.0;" x1="187" x2="229" y1="437.9922" y2="437.9922"/><line style="stroke:#181818;stroke-width:1.0;stroke-dasharray:2.0,2.0;" x1="229" x2="229" y1="437.9922" y2="450.9922"/><line style="stroke:#181818;stroke-width:1.0;stroke-dasharray:2.0,2.0;" x1="182" x2="229" y1="450.9922" y2="450.9922"/><polygon fill="#181818" points="192,446.9922,182,450.9922,192,454.9922,188,450.9922" style="stroke:#181818;stroke-width:1.0;"/><text fill="#000000" font-family="sans-serif" font-size="13" font-weight="bold" lengthAdjust="spacing" textLength="14" x="194" y="433.1357">18</text><text fill="#000000" font-family="sans-serif" font-size="13" lengthAdjust="spacing" textLength="4" x="212" y="433.1357"> </text><line style="stroke:#181818;stroke-width:1.0;" x1="182" x2="224" y1="476.3438" y2="476.3438"/><line style="stroke:#181818;stroke-width:1.0;" x1="224" x2="224" y1="476.3438" y2="489.3438"/><line style="stroke:#181818;stroke-width:1.0;" x1="183" x2="224" y1="489.3438" y2="489.3438"/><polygon fill="#181818" points="193,485.3438,183,489.3438,193,493.3438,189,489.3438" style="stroke:#181818;stroke-width:1.0;"/><text fill="#000000" font-family="sans-serif" font-size="13" font-weight="bold" lengthAdjust="spacing" textLength="14" x="189" y="471.4873">19</text><text fill="#000000" font-family="sans-serif" font-size="13" lengthAdjust="spacing" textLength="77" x="207" y="471.4873">addSkill(skill)</text><polygon fill="#181818" points="11,522.6953,1,526.6953,11,530.6953,7,526.6953" style="stroke:#181818;stroke-width:1.0;"/><line style="stroke:#181818;stroke-width:1.0;" x1="5" x2="171" y1="526.6953" y2="526.6953"/><text fill="#000000" font-family="sans-serif" font-size="13" font-weight="bold" lengthAdjust="spacing" textLength="14" x="17" y="521.8389">20</text><text fill="#000000" font-family="sans-serif" font-size="13" lengthAdjust="spacing" textLength="23" x="35" y="521.8389">skill</text><!--SRC=[bPB1ReCm38RlUGghfxOIqdP5Ko-LzW3ZkekN68W8IPI4JhpzGWfiXL9rEGNxy_yJsxwHsgB35bgZ3Q-TQGc2wuZvEMEHDrXH4Nf5u8W7r9Nw2_WQXVcMke8IbIV6i0j6T-qNENXzOInIGN9fKGVOnJAbFiWQBuDnVVwf5v4Te8T5x5OYBuPiujADiUoqh80Sk2CCb8Yz82yhZK4QVM38Wxp4rCgbSgQpS4vrepJ4iy2YMSeTZxF9hVvG8sZJ1SOp0-CZXbYwmkGGzI_aPDc_nmyI-wHqs1AOmXiQXIKkKPthE3CUoFd_oKrwozVz1fy25-HwQlwnoMPNxqqAxkz5JRo1qZWGdLMIHpM_RiBMr5OMsMaBVR03C_FSN-U0GbmtUHmQOwG5WxTiZLux-0C0]--></g></svg>