<?xml version="1.0" encoding="UTF-8" standalone="no"?><svg xmlns="http://www.w3.org/2000/svg" xmlns:xlink="http://www.w3.org/1999/xlink" contentStyleType="text/css" height="496px" preserveAspectRatio="none" style="width:831px;height:496px;background:#FFFFFF;" version="1.1" viewBox="0 0 831 496" width="831px" zoomAndPan="magnify"><defs/><g><text fill="#000000" font-family="sans-serif" font-size="14" font-weight="bold" lengthAdjust="spacing" textLength="284" x="272.75" y="29.5332">System Sequence Diagram (SSD) - US006</text><rect fill="#FFFFFF" height="274.1641" style="stroke:#181818;stroke-width:1.0;" width="10" x="13.5" y="131.2188"/><rect fill="#FFFFFF" height="30.3516" style="stroke:#181818;stroke-width:1.0;" width="10" x="788.5" y="153.5703"/><rect fill="#FFFFFF" height="30.3516" style="stroke:#181818;stroke-width:1.0;" width="10" x="788.5" y="214.2734"/><rect fill="#FFFFFF" height="30.3516" style="stroke:#181818;stroke-width:1.0;" width="10" x="788.5" y="274.9766"/><rect fill="#FFFFFF" height="60.7031" style="stroke:#181818;stroke-width:1.0;" width="10" x="788.5" y="335.6797"/><line style="stroke:#181818;stroke-width:0.5;stroke-dasharray:5.0,5.0;" x1="18" x2="18" y1="121.2188" y2="414.3828"/><line style="stroke:#181818;stroke-width:0.5;stroke-dasharray:5.0,5.0;" x1="793.5" x2="793.5" y1="121.2188" y2="414.3828"/><text fill="#000000" font-family="sans-serif" font-size="14" lengthAdjust="spacing" textLength="20" x="5.5" y="118.1426">FM</text><ellipse cx="18.5" cy="52.1094" fill="#E3E3E3" rx="8" ry="8" style="stroke:#181818;stroke-width:0.5;"/><path d="M18.5,60.1094 L18.5,87.1094 M5.5,68.1094 L31.5,68.1094 M18.5,87.1094 L5.5,102.1094 M18.5,87.1094 L31.5,102.1094 " fill="none" style="stroke:#181818;stroke-width:0.5;"/><text fill="#000000" font-family="sans-serif" font-size="14" lengthAdjust="spacing" textLength="20" x="5.5" y="427.916">FM</text><ellipse cx="18.5" cy="439.4922" fill="#E3E3E3" rx="8" ry="8" style="stroke:#181818;stroke-width:0.5;"/><path d="M18.5,447.4922 L18.5,474.4922 M5.5,455.4922 L31.5,455.4922 M18.5,474.4922 L5.5,489.4922 M18.5,474.4922 L31.5,489.4922 " fill="none" style="stroke:#181818;stroke-width:0.5;"/><rect fill="#E3E3E3" height="31.6094" rx="2.5" ry="2.5" style="stroke:#181818;stroke-width:0.5;" width="64" x="761.5" y="88.6094"/><text fill="#000000" font-family="sans-serif" font-size="14" lengthAdjust="spacing" textLength="50" x="768.5" y="110.1426">:System</text><rect fill="#E3E3E3" height="31.6094" rx="2.5" ry="2.5" style="stroke:#181818;stroke-width:0.5;" width="64" x="761.5" y="413.3828"/><text fill="#000000" font-family="sans-serif" font-size="14" lengthAdjust="spacing" textLength="50" x="768.5" y="434.916">:System</text><rect fill="#FFFFFF" height="274.1641" style="stroke:#181818;stroke-width:1.0;" width="10" x="13.5" y="131.2188"/><rect fill="#FFFFFF" height="30.3516" style="stroke:#181818;stroke-width:1.0;" width="10" x="788.5" y="153.5703"/><rect fill="#FFFFFF" height="30.3516" style="stroke:#181818;stroke-width:1.0;" width="10" x="788.5" y="214.2734"/><rect fill="#FFFFFF" height="30.3516" style="stroke:#181818;stroke-width:1.0;" width="10" x="788.5" y="274.9766"/><rect fill="#FFFFFF" height="60.7031" style="stroke:#181818;stroke-width:1.0;" width="10" x="788.5" y="335.6797"/><polygon fill="#181818" points="776.5,149.5703,786.5,153.5703,776.5,157.5703,780.5,153.5703" style="stroke:#181818;stroke-width:1.0;"/><line style="stroke:#181818;stroke-width:1.0;" x1="23.5" x2="782.5" y1="153.5703" y2="153.5703"/><text fill="#000000" font-family="sans-serif" font-size="13" font-weight="bold" lengthAdjust="spacing" textLength="7" x="30.5" y="148.7139">1</text><text fill="#000000" font-family="sans-serif" font-size="13" lengthAdjust="spacing" textLength="166" x="41.5" y="148.7139">requests to register a vehicle</text><polygon fill="#181818" points="34.5,179.9219,24.5,183.9219,34.5,187.9219,30.5,183.9219" style="stroke:#181818;stroke-width:1.0;"/><line style="stroke:#181818;stroke-width:1.0;stroke-dasharray:2.0,2.0;" x1="28.5" x2="792.5" y1="183.9219" y2="183.9219"/><text fill="#000000" font-family="sans-serif" font-size="13" font-weight="bold" lengthAdjust="spacing" textLength="7" x="40.5" y="179.0654">2</text><text fill="#000000" font-family="sans-serif" font-size="13" lengthAdjust="spacing" textLength="730" x="51.5" y="179.0654">requests vehicle data (VIN, Brand, Model, Tare Weight, Gross Weight, Current Km, Acquisition Date, Maintenance Frequency)</text><polygon fill="#181818" points="776.5,210.2734,786.5,214.2734,776.5,218.2734,780.5,214.2734" style="stroke:#181818;stroke-width:1.0;"/><line style="stroke:#181818;stroke-width:1.0;" x1="23.5" x2="782.5" y1="214.2734" y2="214.2734"/><text fill="#000000" font-family="sans-serif" font-size="13" font-weight="bold" lengthAdjust="spacing" textLength="7" x="30.5" y="209.417">3</text><text fill="#000000" font-family="sans-serif" font-size="13" lengthAdjust="spacing" textLength="104" x="41.5" y="209.417">types vehicle data</text><polygon fill="#181818" points="34.5,240.625,24.5,244.625,34.5,248.625,30.5,244.625" style="stroke:#181818;stroke-width:1.0;"/><line style="stroke:#181818;stroke-width:1.0;stroke-dasharray:2.0,2.0;" x1="28.5" x2="792.5" y1="244.625" y2="244.625"/><text fill="#000000" font-family="sans-serif" font-size="13" font-weight="bold" lengthAdjust="spacing" textLength="7" x="40.5" y="239.7686">4</text><text fill="#000000" font-family="sans-serif" font-size="13" lengthAdjust="spacing" textLength="402" x="51.5" y="239.7686">validates VIN (unique and not existing) and requests more data (Type)</text><polygon fill="#181818" points="776.5,270.9766,786.5,274.9766,776.5,278.9766,780.5,274.9766" style="stroke:#181818;stroke-width:1.0;"/><line style="stroke:#181818;stroke-width:1.0;" x1="23.5" x2="782.5" y1="274.9766" y2="274.9766"/><text fill="#000000" font-family="sans-serif" font-size="13" font-weight="bold" lengthAdjust="spacing" textLength="7" x="30.5" y="270.1201">5</text><text fill="#000000" font-family="sans-serif" font-size="13" lengthAdjust="spacing" textLength="114" x="41.5" y="270.1201">selects vehicle data</text><polygon fill="#181818" points="34.5,301.3281,24.5,305.3281,34.5,309.3281,30.5,305.3281" style="stroke:#181818;stroke-width:1.0;"/><line style="stroke:#181818;stroke-width:1.0;stroke-dasharray:2.0,2.0;" x1="28.5" x2="792.5" y1="305.3281" y2="305.3281"/><text fill="#000000" font-family="sans-serif" font-size="13" font-weight="bold" lengthAdjust="spacing" textLength="7" x="40.5" y="300.4717">6</text><text fill="#000000" font-family="sans-serif" font-size="13" lengthAdjust="spacing" textLength="236" x="51.5" y="300.4717">shows all data and requests confirmation</text><polygon fill="#181818" points="776.5,331.6797,786.5,335.6797,776.5,339.6797,780.5,335.6797" style="stroke:#181818;stroke-width:1.0;"/><line style="stroke:#181818;stroke-width:1.0;" x1="23.5" x2="782.5" y1="335.6797" y2="335.6797"/><text fill="#000000" font-family="sans-serif" font-size="13" font-weight="bold" lengthAdjust="spacing" textLength="7" x="30.5" y="330.8232">7</text><text fill="#000000" font-family="sans-serif" font-size="13" lengthAdjust="spacing" textLength="78" x="41.5" y="330.8232">confirms data</text><polygon fill="#181818" points="34.5,362.0313,24.5,366.0313,34.5,370.0313,30.5,366.0313" style="stroke:#181818;stroke-width:1.0;"/><line style="stroke:#181818;stroke-width:1.0;stroke-dasharray:2.0,2.0;" x1="28.5" x2="787.5" y1="366.0313" y2="366.0313"/><text fill="#000000" font-family="sans-serif" font-size="13" font-weight="bold" lengthAdjust="spacing" textLength="7" x="40.5" y="361.1748">8</text><text fill="#000000" font-family="sans-serif" font-size="13" lengthAdjust="spacing" textLength="174" x="51.5" y="361.1748">vehicle registration information</text><polygon fill="#181818" points="34.5,392.3828,24.5,396.3828,34.5,400.3828,30.5,396.3828" style="stroke:#181818;stroke-width:1.0;"/><line style="stroke:#181818;stroke-width:1.0;stroke-dasharray:2.0,2.0;" x1="28.5" x2="792.5" y1="396.3828" y2="396.3828"/><text fill="#000000" font-family="sans-serif" font-size="13" font-weight="bold" lengthAdjust="spacing" textLength="7" x="40.5" y="391.5264">9</text><text fill="#000000" font-family="sans-serif" font-size="13" lengthAdjust="spacing" textLength="214" x="51.5" y="391.5264">stores vehicle registration information</text><!--SRC=[dL91Rjim4Bph5GEVR406SieXXm9D3GT5uLoKDkSjjPOMaKY7N3drxxkIRC5fZG0EJqjoPtPcoFGYVaUHMhJ11rV7q38qTfobwMP7xeKgBlJGC28x9LyrvmsffZAyYQ-mfIPnbgcejHQ7fDoYuDUElMEiXAg-VLuKgmMM-5dStDnc6NKQVDV-vcYrqn0nMszce8Jr9hC1Aavsv1Mpkv5nk1lB0I5xKkwRCzXQRx3ySffzPtfjUj843LPNOiSHX3tNuin4ZvWeJfmuhYF9qlYCzOphY4P9IfZ_-lwOupwIBtDiGibDZYUAZ6UMgjOS3p6aDEs-TJ6okVdHvlZgNZj9eX8yLgR0y2HUsLEVrpgEoHqMWwAIBmhznwyUTlnUu7KUzzI8eOp3R67UUJ4DC6_mGS5_B41xwCLmCkNHXdWAuydcNwCtSMC_weBYgrIdEhmbKDECAjw9Sy5l9RRKfto5i2CiVIB3oSpuuU8m6kAtuLp6HH_s_S-UxqFy_pR-0W00]--></g></svg>