<?xml version="1.0" encoding="UTF-8" standalone="no"?><svg xmlns="http://www.w3.org/2000/svg" xmlns:xlink="http://www.w3.org/1999/xlink" contentStyleType="text/css" height="587px" preserveAspectRatio="none" style="width:827px;height:587px;background:#FFFFFF;" version="1.1" viewBox="0 0 827 587" width="827px" zoomAndPan="magnify"><defs/><g><text fill="#000000" font-family="sans-serif" font-size="14" font-weight="bold" lengthAdjust="spacing" textLength="284" x="270.75" y="29.5332">System Sequence Diagram (SSD) - US006</text><rect fill="#FFFFFF" height="365.2188" style="stroke:#181818;stroke-width:1.0;" width="10" x="13.5" y="131.2188"/><rect fill="#FFFFFF" height="30.3516" style="stroke:#181818;stroke-width:1.0;" width="10" x="784.5" y="153.5703"/><rect fill="#FFFFFF" height="30.3516" style="stroke:#181818;stroke-width:1.0;" width="10" x="784.5" y="214.2734"/><rect fill="#FFFFFF" height="30.3516" style="stroke:#181818;stroke-width:1.0;" width="10" x="784.5" y="305.3281"/><rect fill="#FFFFFF" height="30.3516" style="stroke:#181818;stroke-width:1.0;" width="10" x="784.5" y="366.0313"/><rect fill="#FFFFFF" height="60.7031" style="stroke:#181818;stroke-width:1.0;" width="10" x="784.5" y="426.7344"/><line style="stroke:#181818;stroke-width:0.5;stroke-dasharray:5.0,5.0;" x1="18" x2="18" y1="121.2188" y2="505.4375"/><line style="stroke:#181818;stroke-width:0.5;stroke-dasharray:5.0,5.0;" x1="789.5" x2="789.5" y1="121.2188" y2="505.4375"/><text fill="#000000" font-family="sans-serif" font-size="14" lengthAdjust="spacing" textLength="20" x="5.5" y="118.1426">FM</text><ellipse cx="18.5" cy="52.1094" fill="#E3E3E3" rx="8" ry="8" style="stroke:#181818;stroke-width:0.5;"/><path d="M18.5,60.1094 L18.5,87.1094 M5.5,68.1094 L31.5,68.1094 M18.5,87.1094 L5.5,102.1094 M18.5,87.1094 L31.5,102.1094 " fill="none" style="stroke:#181818;stroke-width:0.5;"/><text fill="#000000" font-family="sans-serif" font-size="14" lengthAdjust="spacing" textLength="20" x="5.5" y="518.9707">FM</text><ellipse cx="18.5" cy="530.5469" fill="#E3E3E3" rx="8" ry="8" style="stroke:#181818;stroke-width:0.5;"/><path d="M18.5,538.5469 L18.5,565.5469 M5.5,546.5469 L31.5,546.5469 M18.5,565.5469 L5.5,580.5469 M18.5,565.5469 L31.5,580.5469 " fill="none" style="stroke:#181818;stroke-width:0.5;"/><rect fill="#E3E3E3" height="31.6094" rx="2.5" ry="2.5" style="stroke:#181818;stroke-width:0.5;" width="64" x="757.5" y="88.6094"/><text fill="#000000" font-family="sans-serif" font-size="14" lengthAdjust="spacing" textLength="50" x="764.5" y="110.1426">:System</text><rect fill="#E3E3E3" height="31.6094" rx="2.5" ry="2.5" style="stroke:#181818;stroke-width:0.5;" width="64" x="757.5" y="504.4375"/><text fill="#000000" font-family="sans-serif" font-size="14" lengthAdjust="spacing" textLength="50" x="764.5" y="525.9707">:System</text><rect fill="#FFFFFF" height="365.2188" style="stroke:#181818;stroke-width:1.0;" width="10" x="13.5" y="131.2188"/><rect fill="#FFFFFF" height="30.3516" style="stroke:#181818;stroke-width:1.0;" width="10" x="784.5" y="153.5703"/><rect fill="#FFFFFF" height="30.3516" style="stroke:#181818;stroke-width:1.0;" width="10" x="784.5" y="214.2734"/><rect fill="#FFFFFF" height="30.3516" style="stroke:#181818;stroke-width:1.0;" width="10" x="784.5" y="305.3281"/><rect fill="#FFFFFF" height="30.3516" style="stroke:#181818;stroke-width:1.0;" width="10" x="784.5" y="366.0313"/><rect fill="#FFFFFF" height="60.7031" style="stroke:#181818;stroke-width:1.0;" width="10" x="784.5" y="426.7344"/><polygon fill="#181818" points="772.5,149.5703,782.5,153.5703,772.5,157.5703,776.5,153.5703" style="stroke:#181818;stroke-width:1.0;"/><line style="stroke:#181818;stroke-width:1.0;" x1="23.5" x2="778.5" y1="153.5703" y2="153.5703"/><text fill="#000000" font-family="sans-serif" font-size="13" font-weight="bold" lengthAdjust="spacing" textLength="7" x="30.5" y="148.7139">1</text><text fill="#000000" font-family="sans-serif" font-size="13" lengthAdjust="spacing" textLength="166" x="41.5" y="148.7139">requests to register a vehicle</text><polygon fill="#181818" points="34.5,179.9219,24.5,183.9219,34.5,187.9219,30.5,183.9219" style="stroke:#181818;stroke-width:1.0;"/><line style="stroke:#181818;stroke-width:1.0;stroke-dasharray:2.0,2.0;" x1="28.5" x2="788.5" y1="183.9219" y2="183.9219"/><text fill="#000000" font-family="sans-serif" font-size="13" font-weight="bold" lengthAdjust="spacing" textLength="7" x="40.5" y="179.0654">2</text><text fill="#000000" font-family="sans-serif" font-size="13" lengthAdjust="spacing" textLength="726" x="51.5" y="179.0654">requests vehicle data (VIN, Brand, Model Tare Weight, Gross Weight, Current Km, Acquisition Date, Maintenance Frequency)</text><polygon fill="#181818" points="772.5,210.2734,782.5,214.2734,772.5,218.2734,776.5,214.2734" style="stroke:#181818;stroke-width:1.0;"/><line style="stroke:#181818;stroke-width:1.0;" x1="23.5" x2="778.5" y1="214.2734" y2="214.2734"/><text fill="#000000" font-family="sans-serif" font-size="13" font-weight="bold" lengthAdjust="spacing" textLength="7" x="30.5" y="209.417">3</text><text fill="#000000" font-family="sans-serif" font-size="13" lengthAdjust="spacing" textLength="104" x="41.5" y="209.417">types vehicle data</text><polygon fill="#181818" points="34.5,240.625,24.5,244.625,34.5,248.625,30.5,244.625" style="stroke:#181818;stroke-width:1.0;"/><line style="stroke:#181818;stroke-width:1.0;stroke-dasharray:2.0,2.0;" x1="28.5" x2="788.5" y1="244.625" y2="244.625"/><text fill="#000000" font-family="sans-serif" font-size="13" font-weight="bold" lengthAdjust="spacing" textLength="7" x="40.5" y="239.7686">4</text><text fill="#000000" font-family="sans-serif" font-size="13" lengthAdjust="spacing" textLength="268" x="51.5" y="239.7686">informs FM about existing record with that VIN</text><polygon fill="#181818" points="34.5,270.9766,24.5,274.9766,34.5,278.9766,30.5,274.9766" style="stroke:#181818;stroke-width:1.0;"/><line style="stroke:#181818;stroke-width:1.0;stroke-dasharray:2.0,2.0;" x1="28.5" x2="788.5" y1="274.9766" y2="274.9766"/><text fill="#000000" font-family="sans-serif" font-size="13" font-weight="bold" lengthAdjust="spacing" textLength="7" x="40.5" y="270.1201">5</text><text fill="#000000" font-family="sans-serif" font-size="13" lengthAdjust="spacing" textLength="185" x="51.5" y="270.1201">offers options (update or cancel)</text><polygon fill="#181818" points="772.5,301.3281,782.5,305.3281,772.5,309.3281,776.5,305.3281" style="stroke:#181818;stroke-width:1.0;"/><line style="stroke:#181818;stroke-width:1.0;" x1="23.5" x2="778.5" y1="305.3281" y2="305.3281"/><text fill="#000000" font-family="sans-serif" font-size="13" font-weight="bold" lengthAdjust="spacing" textLength="7" x="30.5" y="300.4717">6</text><text fill="#000000" font-family="sans-serif" font-size="13" lengthAdjust="spacing" textLength="81" x="41.5" y="300.4717">selects option</text><polygon fill="#181818" points="34.5,331.6797,24.5,335.6797,34.5,339.6797,30.5,335.6797" style="stroke:#181818;stroke-width:1.0;"/><line style="stroke:#181818;stroke-width:1.0;stroke-dasharray:2.0,2.0;" x1="28.5" x2="788.5" y1="335.6797" y2="335.6797"/><text fill="#000000" font-family="sans-serif" font-size="13" font-weight="bold" lengthAdjust="spacing" textLength="7" x="40.5" y="330.8232">7</text><text fill="#000000" font-family="sans-serif" font-size="13" lengthAdjust="spacing" textLength="205" x="51.5" y="330.8232">shows all data and requests update</text><polygon fill="#181818" points="772.5,362.0313,782.5,366.0313,772.5,370.0313,776.5,366.0313" style="stroke:#181818;stroke-width:1.0;"/><line style="stroke:#181818;stroke-width:1.0;" x1="23.5" x2="778.5" y1="366.0313" y2="366.0313"/><text fill="#000000" font-family="sans-serif" font-size="13" font-weight="bold" lengthAdjust="spacing" textLength="7" x="30.5" y="361.1748">8</text><text fill="#000000" font-family="sans-serif" font-size="13" lengthAdjust="spacing" textLength="118" x="41.5" y="361.1748">update vehicles data</text><polygon fill="#181818" points="34.5,392.3828,24.5,396.3828,34.5,400.3828,30.5,396.3828" style="stroke:#181818;stroke-width:1.0;"/><line style="stroke:#181818;stroke-width:1.0;stroke-dasharray:2.0,2.0;" x1="28.5" x2="788.5" y1="396.3828" y2="396.3828"/><text fill="#000000" font-family="sans-serif" font-size="13" font-weight="bold" lengthAdjust="spacing" textLength="7" x="40.5" y="391.5264">9</text><text fill="#000000" font-family="sans-serif" font-size="13" lengthAdjust="spacing" textLength="236" x="51.5" y="391.5264">shows all data and requests confirmation</text><polygon fill="#181818" points="772.5,422.7344,782.5,426.7344,772.5,430.7344,776.5,426.7344" style="stroke:#181818;stroke-width:1.0;"/><line style="stroke:#181818;stroke-width:1.0;" x1="23.5" x2="778.5" y1="426.7344" y2="426.7344"/><text fill="#000000" font-family="sans-serif" font-size="13" font-weight="bold" lengthAdjust="spacing" textLength="14" x="30.5" y="421.8779">10</text><text fill="#000000" font-family="sans-serif" font-size="13" lengthAdjust="spacing" textLength="78" x="48.5" y="421.8779">confirms data</text><polygon fill="#181818" points="34.5,453.0859,24.5,457.0859,34.5,461.0859,30.5,457.0859" style="stroke:#181818;stroke-width:1.0;"/><line style="stroke:#181818;stroke-width:1.0;stroke-dasharray:2.0,2.0;" x1="28.5" x2="783.5" y1="457.0859" y2="457.0859"/><text fill="#000000" font-family="sans-serif" font-size="13" font-weight="bold" lengthAdjust="spacing" textLength="14" x="40.5" y="452.2295">11</text><text fill="#000000" font-family="sans-serif" font-size="13" lengthAdjust="spacing" textLength="174" x="58.5" y="452.2295">vehicle registration information</text><polygon fill="#181818" points="34.5,483.4375,24.5,487.4375,34.5,491.4375,30.5,487.4375" style="stroke:#181818;stroke-width:1.0;"/><line style="stroke:#181818;stroke-width:1.0;stroke-dasharray:2.0,2.0;" x1="28.5" x2="788.5" y1="487.4375" y2="487.4375"/><text fill="#000000" font-family="sans-serif" font-size="13" font-weight="bold" lengthAdjust="spacing" textLength="14" x="40.5" y="482.5811">12</text><text fill="#000000" font-family="sans-serif" font-size="13" lengthAdjust="spacing" textLength="214" x="58.5" y="482.5811">stores vehicle registration information</text><!--SRC=[bLEnRjj03Dtr5OGd6x21J1ao54Xhk2WAPr7JpCo9aWwHZWgFYkE_By-I5JSDKlicIiVt-1x9Yqy-T2ZOGik1NItS4gZqbCNffaFtX1Nbkcy8X9nYg9hJX5XZmJiVAYYnYPHbwjLIytrKQY6dvvw28rXxh5BwFC_N2rZ1VNvrTPrbs2k7ldqaiTWf2ymssnbWXCqsimBgdUymACnk1iR3tH0U4Fu5bL9o1dOsMrXzETQ-CRrMFMe4POihRxy545wezivC9CH4SUI4yOmaA-CprXEk4Gq5AiByzu-x9NmL3CKIjbnG0xzG21x8LxKkuRjmZDFNjrw4pCpFTWctxhdtqQld06iJO73qGIbWQjT6XiRj5mT11NseyvrTtNVqjxxBBFfGihIfzO2Ft2lGgxKiZTO6prB0pciDMgE2sVvCs7jcBakI2Dmbkn7cVLSaY8tR9RlDOj9qdjD8ZQtYaN02d-qqrhoBW4qpJD6czpRVGTi5RH_DZ7sF_sdy9L8SXz9BYvF9ymIDi4kLJ9ipF1Kvb1sNuat2F_hjqPvitQVO3-HdVm00]--></g></svg>