<?xml version="1.0" encoding="UTF-8" standalone="no"?><svg xmlns="http://www.w3.org/2000/svg" xmlns:xlink="http://www.w3.org/1999/xlink" contentStyleType="text/css" height="153px" preserveAspectRatio="none" style="width:764px;height:153px;background:#FFFFFF;" version="1.1" viewBox="0 0 764 153" width="764px" zoomAndPan="magnify"><defs/><g><!--class HRM--><g id="elem_HRM"><rect codeLine="11" fill="#F1F1F1" height="35.6094" id="HRM" rx="2.5" ry="2.5" style="stroke:#181818;stroke-width:0.5;" width="36" x="7" y="66.5"/><text fill="#000000" font-family="sans-serif" font-size="14" lengthAdjust="spacing" textLength="30" x="10" y="86.0332">HRM</text><line style="stroke:#181818;stroke-width:0.5;" x1="8" x2="42" y1="94.1094" y2="94.1094"/></g><!--class Skill--><g id="elem_Skill"><rect codeLine="14" fill="#F1F1F1" height="53.2188" id="Skill" rx="2.5" ry="2.5" style="stroke:#181818;stroke-width:0.5;" width="85" x="163" y="7"/><text fill="#000000" font-family="sans-serif" font-size="14" lengthAdjust="spacing" textLength="25" x="193" y="26.5332">Skill</text><line style="stroke:#181818;stroke-width:0.5;" x1="164" x2="247" y1="34.6094" y2="34.6094"/><text fill="#000000" font-family="sans-serif" font-size="14" lengthAdjust="spacing" textLength="73" x="169" y="53.1426">designation</text></g><!--class Collaborator--><g id="elem_Collaborator"><rect codeLine="18" fill="#F1F1F1" height="35.6094" id="Collaborator" rx="2.5" ry="2.5" style="stroke:#181818;stroke-width:0.5;" width="84" x="334" y="20.5"/><text fill="#000000" font-family="sans-serif" font-size="14" lengthAdjust="spacing" textLength="78" x="337" y="40.0332">Collaborator</text><line style="stroke:#181818;stroke-width:0.5;" x1="335" x2="417" y1="48.1094" y2="48.1094"/></g><!--class Person--><g id="elem_Person"><rect codeLine="21" fill="#F1F1F1" height="106.0469" id="Person" rx="2.5" ry="2.5" style="stroke:#181818;stroke-width:0.5;" width="68" x="479" y="40.5"/><text fill="#000000" font-family="sans-serif" font-size="14" lengthAdjust="spacing" textLength="45" x="490.5" y="60.0332">Person</text><line style="stroke:#181818;stroke-width:0.5;" x1="480" x2="546" y1="68.1094" y2="68.1094"/><text fill="#000000" font-family="sans-serif" font-size="14" lengthAdjust="spacing" textLength="35" x="485" y="86.6426">name</text><text fill="#000000" font-family="sans-serif" font-size="14" lengthAdjust="spacing" textLength="56" x="485" y="104.252">birthdate</text><text fill="#000000" font-family="sans-serif" font-size="14" lengthAdjust="spacing" textLength="51" x="485" y="121.8613">address</text><text fill="#000000" font-family="sans-serif" font-size="14" lengthAdjust="spacing" textLength="46" x="485" y="139.4707">contact</text></g><!--class IdentificationDocument--><g id="elem_IdentificationDocument"><rect codeLine="29" fill="#F1F1F1" height="70.8281" id="IdentificationDocument" rx="2.5" ry="2.5" style="stroke:#181818;stroke-width:0.5;" width="149" x="608" y="58"/><text fill="#000000" font-family="sans-serif" font-size="14" lengthAdjust="spacing" textLength="143" x="611" y="77.5332">IdentificationDocument</text><line style="stroke:#181818;stroke-width:0.5;" x1="609" x2="756" y1="85.6094" y2="85.6094"/><text fill="#000000" font-family="sans-serif" font-size="14" lengthAdjust="spacing" textLength="128" x="614" y="104.1426">identificationNumber</text><text fill="#000000" font-family="sans-serif" font-size="14" lengthAdjust="spacing" textLength="104" x="614" y="121.752">taxPayerNumber</text></g><!--link HRM to Skill--><g id="link_HRM_Skill"><path codeLine="33" d="M43.12,79.61 C70.43,71.81 124.66,56.31 162.69,45.45 " fill="none" id="HRM-Skill" style="stroke:#181818;stroke-width:1.0;"/><polygon fill="#000000" points="82.8077,44.3023,73.3032,43.9611,74.9179,49.6128,82.8077,44.3023" style="stroke:#000000;stroke-width:1.0;"/><text fill="#000000" font-family="sans-serif" font-size="13" lengthAdjust="spacing" textLength="45" x="87" y="50.9951">assigns</text><text fill="#000000" font-family="sans-serif" font-size="13" lengthAdjust="spacing" textLength="7" x="51.0924" y="94.3888">1</text><text fill="#000000" font-family="sans-serif" font-size="13" lengthAdjust="spacing" textLength="20" x="134.9335" y="61.885">1..*</text></g><!--link HRM to Person--><g id="link_HRM_Person"><path codeLine="34" d="M43.01,84.82 C112.33,86.1 374.51,90.95 473.68,92.79 " fill="none" id="HRM-to-Person" style="stroke:#181818;stroke-width:1.0;"/><polygon fill="#181818" points="478.85,92.89,469.9199,88.7363,473.8507,92.8043,469.7828,96.7351,478.85,92.89" style="stroke:#181818;stroke-width:1.0;"/></g><!--link Collaborator to Person--><g id="link_Collaborator_Person"><path codeLine="35" d="M418.24,55.3 C435.96,62.52 456.54,70.9 473.89,77.98 " fill="none" id="Collaborator-to-Person" style="stroke:#181818;stroke-width:1.0;"/><polygon fill="#181818" points="478.7,79.93,471.8744,72.83,474.0695,78.0435,468.856,80.2387,478.7,79.93" style="stroke:#181818;stroke-width:1.0;"/></g><!--link Person to IdentificationDocument--><g id="link_Person_IdentificationDocument"><path codeLine="36" d="M547.09,93.5 C563.11,93.5 583.08,93.5 602.7,93.5 " fill="none" id="Person-to-IdentificationDocument" style="stroke:#181818;stroke-width:1.0;"/><polygon fill="#181818" points="607.94,93.5,598.94,89.5,602.94,93.5,598.94,97.5,607.94,93.5" style="stroke:#181818;stroke-width:1.0;"/></g><!--link Skill to Collaborator--><g id="link_Skill_Collaborator"><path codeLine="38" d="M248.15,34.74 C274.27,35.51 307.8,36.51 333.83,37.28 " fill="none" id="Skill-Collaborator" style="stroke:#181818;stroke-width:1.0;"/><polygon fill="#000000" points="287.9978,27.8239,279.0438,24.6183,278.8696,30.4936,287.9978,27.8239" style="stroke:#000000;stroke-width:1.0;"/><text fill="#000000" font-family="sans-serif" font-size="13" lengthAdjust="spacing" textLength="11" x="292" y="32.9951">to</text><text fill="#000000" font-family="sans-serif" font-size="13" lengthAdjust="spacing" textLength="5" x="255.9102" y="49.8347">*</text><text fill="#000000" font-family="sans-serif" font-size="13" lengthAdjust="spacing" textLength="20" x="305.8415" y="51.8701">1..*</text></g><!--SRC=[RL7BJWCn3BpdAwmzLce5rnug8JZGGr55ly2RkBjMywWShw2W_ZlP1wKhaKlicSdOe-GJnpCA1WWf9jjA2WGg7PbyOyveJzZGGI-UGCWgniRV2tABBdrmRE28FfEvewp7d9zKXUjEQMjJFF0NmOFnT5JG1C9Dg-2uz-KKZMdP4LWMMqOCTI1jayl635xm-hw3RtFzRGydzhu0K8wZp4t4mUScU4xUOvq4DKdH5MB4zoGvnUbbn413KRDewr373fqJodceo-gALisVyzPHL3wo7IQ-9Dk50lI6F6FUkb2J55ZnSuyNaWcucZvBzLZ1SbckrMfHJN7MKFnBb0oRGLC46vWsDhD0CsQAD6B_RsVCEA5Qt4-TMQxxRzdy0000]--></g></svg>