<?xml version="1.0" encoding="UTF-8" standalone="no"?><svg xmlns="http://www.w3.org/2000/svg" xmlns:xlink="http://www.w3.org/1999/xlink" contentStyleType="text/css" height="1892px" preserveAspectRatio="none" style="width:1972px;height:1892px;background:#FFFFFF;" version="1.1" viewBox="0 0 1972 1892" width="1972px" zoomAndPan="magnify"><defs/><g><rect fill="#FFFFFF" height="1700.2422" style="stroke:#181818;stroke-width:1.0;" width="10" x="17.5" y="92.6094"/><rect fill="#FFFFFF" height="150.0156" style="stroke:#181818;stroke-width:1.0;" width="10" x="472.5" y="114.9609"/><rect fill="#FFFFFF" height="91.0547" style="stroke:#181818;stroke-width:1.0;" width="10" x="472.5" y="832.9531"/><rect fill="#FFFFFF" height="123.7578" style="stroke:#181818;stroke-width:1.0;" width="10" x="472.5" y="1223.1719"/><rect fill="#FFFFFF" height="30.3516" style="stroke:#181818;stroke-width:1.0;" width="10" x="472.5" y="1762.5"/><rect fill="#FFFFFF" height="151.7578" style="stroke:#181818;stroke-width:1.0;" width="10" x="839.5" y="264.9766"/><rect fill="#FFFFFF" height="299.1641" style="stroke:#181818;stroke-width:1.0;" width="10" x="839.5" y="533.7891"/><rect fill="#FFFFFF" height="299.1641" style="stroke:#181818;stroke-width:1.0;" width="10" x="839.5" y="924.0078"/><rect fill="#FFFFFF" height="223.4609" style="stroke:#181818;stroke-width:1.0;" width="10" x="844.5" y="962.3594"/><rect fill="#FFFFFF" height="88.0547" style="stroke:#181818;stroke-width:1.0;" width="10" x="839.5" y="1346.9297"/><rect fill="#FFFFFF" height="30.3516" style="stroke:#181818;stroke-width:1.0;" width="10" x="839.5" y="1732.1484"/><rect fill="#FFFFFF" height="30.3516" style="stroke:#181818;stroke-width:1.0;" width="10" x="1024.5" y="295.3281"/><rect fill="#FFFFFF" height="30.3516" style="stroke:#181818;stroke-width:1.0;" width="10" x="1024.5" y="607.4922"/><rect fill="#FFFFFF" height="30.3516" style="stroke:#181818;stroke-width:1.0;" width="10" x="1024.5" y="997.7109"/><rect fill="#FFFFFF" height="30.3516" style="stroke:#181818;stroke-width:1.0;" width="10" x="1131.5" y="356.0313"/><rect fill="#FFFFFF" height="30.3516" style="stroke:#181818;stroke-width:1.0;" width="10" x="1131.5" y="668.1953"/><rect fill="#FFFFFF" height="30.3516" style="stroke:#181818;stroke-width:1.0;" width="10" x="1131.5" y="1058.4141"/><rect fill="#FFFFFF" height="30.3516" style="stroke:#181818;stroke-width:1.0;" width="10" x="1251.5" y="728.8984"/><rect fill="#FFFFFF" height="30.3516" style="stroke:#181818;stroke-width:1.0;" width="10" x="1251.5" y="1119.1172"/><rect fill="#FFFFFF" height="117.0547" style="stroke:#181818;stroke-width:1.0;" width="10" x="1388" y="416.7344"/><rect fill="#FFFFFF" height="41.3516" style="stroke:#181818;stroke-width:1.0;" width="10" x="1393" y="455.0859"/><rect fill="#FFFFFF" height="63.0547" style="stroke:#181818;stroke-width:1.0;" width="10" x="1388" y="1434.9844"/><rect fill="#FFFFFF" height="30.3516" style="stroke:#181818;stroke-width:1.0;" width="10" x="1388" y="1701.7969"/><rect fill="#FFFFFF" height="193.7578" style="stroke:#181818;stroke-width:1.0;" width="10" x="1787" y="1508.0391"/><rect fill="#FFFFFF" height="128.0547" style="stroke:#181818;stroke-width:1.0;" width="10" x="1792" y="1536.3906"/><rect fill="#FFFFFF" height="41.3516" style="stroke:#181818;stroke-width:1.0;" width="10" x="1797" y="1579.7422"/><line style="stroke:#181818;stroke-width:0.5;stroke-dasharray:5.0,5.0;" x1="22" x2="22" y1="82.6094" y2="1810.8516"/><line style="stroke:#181818;stroke-width:0.5;stroke-dasharray:5.0,5.0;" x1="477" x2="477" y1="82.6094" y2="1810.8516"/><line style="stroke:#181818;stroke-width:0.5;stroke-dasharray:5.0,5.0;" x1="844" x2="844" y1="154.2656" y2="1810.8516"/><line style="stroke:#181818;stroke-width:0.5;stroke-dasharray:5.0,5.0;" x1="1029" x2="1029" y1="82.6094" y2="1810.8516"/><line style="stroke:#181818;stroke-width:0.5;stroke-dasharray:5.0,5.0;" x1="1136" x2="1136" y1="82.6094" y2="1810.8516"/><line style="stroke:#181818;stroke-width:0.5;stroke-dasharray:5.0,5.0;" x1="1256" x2="1256" y1="82.6094" y2="1810.8516"/><line style="stroke:#181818;stroke-width:0.5;stroke-dasharray:5.0,5.0;" x1="1393" x2="1393" y1="82.6094" y2="1810.8516"/><line style="stroke:#181818;stroke-width:0.5;stroke-dasharray:5.0,5.0;" x1="1792" x2="1792" y1="1484.5117" y2="1810.8516"/><text fill="#000000" font-family="sans-serif" font-size="14" lengthAdjust="spacing" textLength="29" x="5" y="79.5332">VFM</text><ellipse cx="22.5" cy="13.5" fill="#E3E3E3" rx="8" ry="8" style="stroke:#181818;stroke-width:0.5;"/><path d="M22.5,21.5 L22.5,48.5 M9.5,29.5 L35.5,29.5 M22.5,48.5 L9.5,63.5 M22.5,48.5 L35.5,63.5 " fill="none" style="stroke:#181818;stroke-width:0.5;"/><text fill="#000000" font-family="sans-serif" font-size="14" lengthAdjust="spacing" textLength="29" x="5" y="1824.3848">VFM</text><ellipse cx="22.5" cy="1835.9609" fill="#E3E3E3" rx="8" ry="8" style="stroke:#181818;stroke-width:0.5;"/><path d="M22.5,1843.9609 L22.5,1870.9609 M9.5,1851.9609 L35.5,1851.9609 M22.5,1870.9609 L9.5,1885.9609 M22.5,1870.9609 L35.5,1885.9609 " fill="none" style="stroke:#181818;stroke-width:0.5;"/><rect fill="#E3E3E3" height="31.6094" rx="2.5" ry="2.5" style="stroke:#181818;stroke-width:0.5;" width="129" x="413" y="50"/><text fill="#000000" font-family="sans-serif" font-size="14" lengthAdjust="spacing" textLength="115" x="420" y="71.5332">:RegisterVehicleUI</text><rect fill="#E3E3E3" height="31.6094" rx="2.5" ry="2.5" style="stroke:#181818;stroke-width:0.5;" width="129" x="413" y="1809.8516"/><text fill="#000000" font-family="sans-serif" font-size="14" lengthAdjust="spacing" textLength="115" x="420" y="1831.3848">:RegisterVehicleUI</text><rect fill="#E3E3E3" height="31.6094" rx="2.5" ry="2.5" style="stroke:#181818;stroke-width:0.5;" width="179" x="755" y="1809.8516"/><text fill="#000000" font-family="sans-serif" font-size="14" lengthAdjust="spacing" textLength="165" x="762" y="1831.3848">:RegisterVehicleController</text><rect fill="#E3E3E3" height="31.6094" rx="2.5" ry="2.5" style="stroke:#181818;stroke-width:0.5;" width="97" x="981" y="50"/><text fill="#000000" font-family="sans-serif" font-size="14" lengthAdjust="spacing" textLength="83" x="988" y="71.5332">:Repositories</text><rect fill="#E3E3E3" height="31.6094" rx="2.5" ry="2.5" style="stroke:#181818;stroke-width:0.5;" width="97" x="981" y="1809.8516"/><text fill="#000000" font-family="sans-serif" font-size="14" lengthAdjust="spacing" textLength="83" x="988" y="1831.3848">:Repositories</text><rect fill="#E3E3E3" height="49.2188" rx="2.5" ry="2.5" style="stroke:#181818;stroke-width:0.5;" width="97" x="1088" y="32.3906"/><text fill="#000000" font-family="sans-serif" font-size="14" lengthAdjust="spacing" textLength="74" x="1099.5" y="53.9238">repositories</text><text fill="#000000" font-family="sans-serif" font-size="14" lengthAdjust="spacing" textLength="83" x="1095" y="71.5332">:Repositories</text><rect fill="#E3E3E3" height="49.2188" rx="2.5" ry="2.5" style="stroke:#181818;stroke-width:0.5;" width="97" x="1088" y="1809.8516"/><text fill="#000000" font-family="sans-serif" font-size="14" lengthAdjust="spacing" textLength="74" x="1099.5" y="1831.3848">repositories</text><text fill="#000000" font-family="sans-serif" font-size="14" lengthAdjust="spacing" textLength="83" x="1095" y="1848.9941">:Repositories</text><rect fill="#E3E3E3" height="49.2188" rx="2.5" ry="2.5" style="stroke:#181818;stroke-width:0.5;" width="123" x="1195" y="32.3906"/><text fill="#000000" font-family="sans-serif" font-size="14" lengthAdjust="spacing" textLength="109" x="1202" y="53.9238">brandRepository:</text><text fill="#000000" font-family="sans-serif" font-size="14" lengthAdjust="spacing" textLength="106" x="1203.5" y="71.5332">BrandRepository</text><rect fill="#E3E3E3" height="49.2188" rx="2.5" ry="2.5" style="stroke:#181818;stroke-width:0.5;" width="123" x="1195" y="1809.8516"/><text fill="#000000" font-family="sans-serif" font-size="14" lengthAdjust="spacing" textLength="109" x="1202" y="1831.3848">brandRepository:</text><text fill="#000000" font-family="sans-serif" font-size="14" lengthAdjust="spacing" textLength="106" x="1203.5" y="1848.9941">BrandRepository</text><rect fill="#E3E3E3" height="49.2188" rx="2.5" ry="2.5" style="stroke:#181818;stroke-width:0.5;" width="130" x="1328" y="32.3906"/><text fill="#000000" font-family="sans-serif" font-size="14" lengthAdjust="spacing" textLength="116" x="1335" y="53.9238">vehicleRepository:</text><text fill="#000000" font-family="sans-serif" font-size="14" lengthAdjust="spacing" textLength="114" x="1336" y="71.5332">VehicleRepository</text><rect fill="#E3E3E3" height="49.2188" rx="2.5" ry="2.5" style="stroke:#181818;stroke-width:0.5;" width="130" x="1328" y="1809.8516"/><text fill="#000000" font-family="sans-serif" font-size="14" lengthAdjust="spacing" textLength="116" x="1335" y="1831.3848">vehicleRepository:</text><text fill="#000000" font-family="sans-serif" font-size="14" lengthAdjust="spacing" textLength="114" x="1336" y="1848.9941">VehicleRepository</text><rect fill="#E3E3E3" height="49.2188" rx="2.5" ry="2.5" style="stroke:#181818;stroke-width:0.5;" width="64" x="1760" y="1809.8516"/><text fill="#000000" font-family="sans-serif" font-size="14" lengthAdjust="spacing" textLength="44" x="1770" y="1831.3848">vehicle</text><text fill="#000000" font-family="sans-serif" font-size="14" lengthAdjust="spacing" textLength="50" x="1767" y="1848.9941">:Vehicle</text><rect fill="#FFFFFF" height="1700.2422" style="stroke:#181818;stroke-width:1.0;" width="10" x="17.5" y="92.6094"/><rect fill="#FFFFFF" height="150.0156" style="stroke:#181818;stroke-width:1.0;" width="10" x="472.5" y="114.9609"/><rect fill="#FFFFFF" height="91.0547" style="stroke:#181818;stroke-width:1.0;" width="10" x="472.5" y="832.9531"/><rect fill="#FFFFFF" height="123.7578" style="stroke:#181818;stroke-width:1.0;" width="10" x="472.5" y="1223.1719"/><rect fill="#FFFFFF" height="30.3516" style="stroke:#181818;stroke-width:1.0;" width="10" x="472.5" y="1762.5"/><rect fill="#FFFFFF" height="151.7578" style="stroke:#181818;stroke-width:1.0;" width="10" x="839.5" y="264.9766"/><rect fill="#FFFFFF" height="299.1641" style="stroke:#181818;stroke-width:1.0;" width="10" x="839.5" y="533.7891"/><rect fill="#FFFFFF" height="299.1641" style="stroke:#181818;stroke-width:1.0;" width="10" x="839.5" y="924.0078"/><rect fill="#FFFFFF" height="223.4609" style="stroke:#181818;stroke-width:1.0;" width="10" x="844.5" y="962.3594"/><rect fill="#FFFFFF" height="88.0547" style="stroke:#181818;stroke-width:1.0;" width="10" x="839.5" y="1346.9297"/><rect fill="#FFFFFF" height="30.3516" style="stroke:#181818;stroke-width:1.0;" width="10" x="839.5" y="1732.1484"/><rect fill="#FFFFFF" height="30.3516" style="stroke:#181818;stroke-width:1.0;" width="10" x="1024.5" y="295.3281"/><rect fill="#FFFFFF" height="30.3516" style="stroke:#181818;stroke-width:1.0;" width="10" x="1024.5" y="607.4922"/><rect fill="#FFFFFF" height="30.3516" style="stroke:#181818;stroke-width:1.0;" width="10" x="1024.5" y="997.7109"/><rect fill="#FFFFFF" height="30.3516" style="stroke:#181818;stroke-width:1.0;" width="10" x="1131.5" y="356.0313"/><rect fill="#FFFFFF" height="30.3516" style="stroke:#181818;stroke-width:1.0;" width="10" x="1131.5" y="668.1953"/><rect fill="#FFFFFF" height="30.3516" style="stroke:#181818;stroke-width:1.0;" width="10" x="1131.5" y="1058.4141"/><rect fill="#FFFFFF" height="30.3516" style="stroke:#181818;stroke-width:1.0;" width="10" x="1251.5" y="728.8984"/><rect fill="#FFFFFF" height="30.3516" style="stroke:#181818;stroke-width:1.0;" width="10" x="1251.5" y="1119.1172"/><rect fill="#FFFFFF" height="117.0547" style="stroke:#181818;stroke-width:1.0;" width="10" x="1388" y="416.7344"/><rect fill="#FFFFFF" height="41.3516" style="stroke:#181818;stroke-width:1.0;" width="10" x="1393" y="455.0859"/><rect fill="#FFFFFF" height="63.0547" style="stroke:#181818;stroke-width:1.0;" width="10" x="1388" y="1434.9844"/><rect fill="#FFFFFF" height="30.3516" style="stroke:#181818;stroke-width:1.0;" width="10" x="1388" y="1701.7969"/><rect fill="#FFFFFF" height="193.7578" style="stroke:#181818;stroke-width:1.0;" width="10" x="1787" y="1508.0391"/><rect fill="#FFFFFF" height="128.0547" style="stroke:#181818;stroke-width:1.0;" width="10" x="1792" y="1536.3906"/><rect fill="#FFFFFF" height="41.3516" style="stroke:#181818;stroke-width:1.0;" width="10" x="1797" y="1579.7422"/><polygon fill="#181818" points="460.5,110.9609,470.5,114.9609,460.5,118.9609,464.5,114.9609" style="stroke:#181818;stroke-width:1.0;"/><line style="stroke:#181818;stroke-width:1.0;" x1="27.5" x2="466.5" y1="114.9609" y2="114.9609"/><text fill="#000000" font-family="sans-serif" font-size="13" font-weight="bold" lengthAdjust="spacing" textLength="7" x="34.5" y="110.1045">1</text><text fill="#000000" font-family="sans-serif" font-size="13" lengthAdjust="spacing" textLength="166" x="45.5" y="110.1045">requests to register a vehicle</text><polygon fill="#181818" points="743,141.3125,753,145.3125,743,149.3125,747,145.3125" style="stroke:#181818;stroke-width:1.0;"/><line style="stroke:#181818;stroke-width:1.0;" x1="482.5" x2="749" y1="145.3125" y2="145.3125"/><text fill="#000000" font-family="sans-serif" font-size="13" font-weight="bold" lengthAdjust="spacing" textLength="7" x="489.5" y="140.4561">2</text><text fill="#000000" font-family="sans-serif" font-size="13" lengthAdjust="spacing" textLength="36" x="500.5" y="140.4561">create</text><rect fill="#E3E3E3" height="31.6094" rx="2.5" ry="2.5" style="stroke:#181818;stroke-width:0.5;" width="179" x="755" y="122.9609"/><text fill="#000000" font-family="sans-serif" font-size="14" lengthAdjust="spacing" textLength="165" x="762" y="144.4941">:RegisterVehicleController</text><polygon fill="#181818" points="38.5,200.2734,28.5,204.2734,38.5,208.2734,34.5,204.2734" style="stroke:#181818;stroke-width:1.0;"/><line style="stroke:#181818;stroke-width:1.0;stroke-dasharray:2.0,2.0;" x1="32.5" x2="471.5" y1="204.2734" y2="204.2734"/><text fill="#000000" font-family="sans-serif" font-size="13" font-weight="bold" lengthAdjust="spacing" textLength="7" x="44.5" y="191.2412">3</text><text fill="#000000" font-family="sans-serif" font-size="13" lengthAdjust="spacing" textLength="410" x="55.5" y="183.0654">requests vehicle data (VIN, Vehicle Platte, Tare Weight, Gross Weight,</text><text fill="#000000" font-family="sans-serif" font-size="13" lengthAdjust="spacing" textLength="320" x="59.5" y="199.417">Current Km, Acquisition Date, Maintenance Frequency)</text><polygon fill="#181818" points="460.5,230.625,470.5,234.625,460.5,238.625,464.5,234.625" style="stroke:#181818;stroke-width:1.0;"/><line style="stroke:#181818;stroke-width:1.0;" x1="27.5" x2="466.5" y1="234.625" y2="234.625"/><text fill="#000000" font-family="sans-serif" font-size="13" font-weight="bold" lengthAdjust="spacing" textLength="7" x="34.5" y="229.7686">4</text><text fill="#000000" font-family="sans-serif" font-size="13" lengthAdjust="spacing" textLength="104" x="45.5" y="229.7686">types vehicle data</text><polygon fill="#181818" points="827.5,260.9766,837.5,264.9766,827.5,268.9766,831.5,264.9766" style="stroke:#181818;stroke-width:1.0;"/><line style="stroke:#181818;stroke-width:1.0;" x1="477.5" x2="833.5" y1="264.9766" y2="264.9766"/><text fill="#000000" font-family="sans-serif" font-size="13" font-weight="bold" lengthAdjust="spacing" textLength="7" x="484.5" y="260.1201">5</text><text fill="#000000" font-family="sans-serif" font-size="13" lengthAdjust="spacing" textLength="111" x="495.5" y="260.1201">submit vehicle data</text><polygon fill="#181818" points="1012.5,291.3281,1022.5,295.3281,1012.5,299.3281,1016.5,295.3281" style="stroke:#181818;stroke-width:1.0;"/><line style="stroke:#181818;stroke-width:1.0;" x1="849.5" x2="1018.5" y1="295.3281" y2="295.3281"/><text fill="#000000" font-family="sans-serif" font-size="13" font-weight="bold" lengthAdjust="spacing" textLength="7" x="856.5" y="290.4717">6</text><text fill="#000000" font-family="sans-serif" font-size="13" lengthAdjust="spacing" textLength="75" x="867.5" y="290.4717">getInstance()</text><polygon fill="#181818" points="860.5,321.6797,850.5,325.6797,860.5,329.6797,856.5,325.6797" style="stroke:#181818;stroke-width:1.0;"/><line style="stroke:#181818;stroke-width:1.0;stroke-dasharray:2.0,2.0;" x1="854.5" x2="1028.5" y1="325.6797" y2="325.6797"/><text fill="#000000" font-family="sans-serif" font-size="13" font-weight="bold" lengthAdjust="spacing" textLength="7" x="866.5" y="320.8232">7</text><text fill="#000000" font-family="sans-serif" font-size="13" lengthAdjust="spacing" textLength="67" x="877.5" y="320.8232">repositories</text><polygon fill="#181818" points="1119.5,352.0313,1129.5,356.0313,1119.5,360.0313,1123.5,356.0313" style="stroke:#181818;stroke-width:1.0;"/><line style="stroke:#181818;stroke-width:1.0;" x1="849.5" x2="1125.5" y1="356.0313" y2="356.0313"/><text fill="#000000" font-family="sans-serif" font-size="13" font-weight="bold" lengthAdjust="spacing" textLength="7" x="856.5" y="351.1748">8</text><text fill="#000000" font-family="sans-serif" font-size="13" lengthAdjust="spacing" textLength="123" x="867.5" y="351.1748">getVehicleRepository</text><polygon fill="#181818" points="860.5,382.3828,850.5,386.3828,860.5,390.3828,856.5,386.3828" style="stroke:#181818;stroke-width:1.0;"/><line style="stroke:#181818;stroke-width:1.0;stroke-dasharray:2.0,2.0;" x1="854.5" x2="1135.5" y1="386.3828" y2="386.3828"/><text fill="#000000" font-family="sans-serif" font-size="13" font-weight="bold" lengthAdjust="spacing" textLength="7" x="866.5" y="381.5264">9</text><text fill="#000000" font-family="sans-serif" font-size="13" lengthAdjust="spacing" textLength="105" x="877.5" y="381.5264">VehicleRepository</text><polygon fill="#181818" points="1376,412.7344,1386,416.7344,1376,420.7344,1380,416.7344" style="stroke:#181818;stroke-width:1.0;"/><line style="stroke:#181818;stroke-width:1.0;" x1="844.5" x2="1382" y1="416.7344" y2="416.7344"/><text fill="#000000" font-family="sans-serif" font-size="13" font-weight="bold" lengthAdjust="spacing" textLength="14" x="851.5" y="411.8779">10</text><text fill="#000000" font-family="sans-serif" font-size="13" lengthAdjust="spacing" textLength="142" x="869.5" y="411.8779">validateVehicleData(VIN)</text><line style="stroke:#181818;stroke-width:1.0;" x1="1398" x2="1445" y1="442.0859" y2="442.0859"/><line style="stroke:#181818;stroke-width:1.0;" x1="1445" x2="1445" y1="442.0859" y2="455.0859"/><line style="stroke:#181818;stroke-width:1.0;" x1="1404" x2="1445" y1="455.0859" y2="455.0859"/><polygon fill="#181818" points="1414,451.0859,1404,455.0859,1414,459.0859,1410,455.0859" style="stroke:#181818;stroke-width:1.0;"/><text fill="#000000" font-family="sans-serif" font-size="13" font-weight="bold" lengthAdjust="spacing" textLength="14" x="1410" y="437.2295">11</text><text fill="#000000" font-family="sans-serif" font-size="13" lengthAdjust="spacing" textLength="142" x="1428" y="437.2295">validateVehicleData(VIN)</text><line style="stroke:#181818;stroke-width:1.0;stroke-dasharray:2.0,2.0;" x1="1403" x2="1445" y1="495.4375" y2="495.4375"/><line style="stroke:#181818;stroke-width:1.0;stroke-dasharray:2.0,2.0;" x1="1445" x2="1445" y1="495.4375" y2="508.4375"/><line style="stroke:#181818;stroke-width:1.0;stroke-dasharray:2.0,2.0;" x1="1398" x2="1445" y1="508.4375" y2="508.4375"/><polygon fill="#181818" points="1408,504.4375,1398,508.4375,1408,512.4375,1404,508.4375" style="stroke:#181818;stroke-width:1.0;"/><text fill="#000000" font-family="sans-serif" font-size="13" font-weight="bold" lengthAdjust="spacing" textLength="14" x="1410" y="490.5811">12</text><text fill="#000000" font-family="sans-serif" font-size="13" lengthAdjust="spacing" textLength="4" x="1428" y="490.5811"> </text><polygon fill="#181818" points="860.5,529.7891,850.5,533.7891,860.5,537.7891,856.5,533.7891" style="stroke:#181818;stroke-width:1.0;"/><line style="stroke:#181818;stroke-width:1.0;stroke-dasharray:2.0,2.0;" x1="854.5" x2="1392" y1="533.7891" y2="533.7891"/><text fill="#000000" font-family="sans-serif" font-size="13" font-weight="bold" lengthAdjust="spacing" textLength="14" x="866.5" y="528.9326">13</text><text fill="#000000" font-family="sans-serif" font-size="13" lengthAdjust="spacing" textLength="66" x="884.5" y="528.9326">vehicleData</text><line style="stroke:#181818;stroke-width:1.0;" x1="849.5" x2="891.5" y1="564.1406" y2="564.1406"/><line style="stroke:#181818;stroke-width:1.0;" x1="891.5" x2="891.5" y1="564.1406" y2="577.1406"/><line style="stroke:#181818;stroke-width:1.0;" x1="850.5" x2="891.5" y1="577.1406" y2="577.1406"/><polygon fill="#181818" points="860.5,573.1406,850.5,577.1406,860.5,581.1406,856.5,577.1406" style="stroke:#181818;stroke-width:1.0;"/><text fill="#000000" font-family="sans-serif" font-size="13" font-weight="bold" lengthAdjust="spacing" textLength="14" x="856.5" y="559.2842">14</text><text fill="#000000" font-family="sans-serif" font-size="13" lengthAdjust="spacing" textLength="60" x="874.5" y="559.2842">getBrand()</text><polygon fill="#181818" points="1012.5,603.4922,1022.5,607.4922,1012.5,611.4922,1016.5,607.4922" style="stroke:#181818;stroke-width:1.0;"/><line style="stroke:#181818;stroke-width:1.0;" x1="849.5" x2="1018.5" y1="607.4922" y2="607.4922"/><text fill="#000000" font-family="sans-serif" font-size="13" font-weight="bold" lengthAdjust="spacing" textLength="14" x="856.5" y="602.6357">15</text><text fill="#000000" font-family="sans-serif" font-size="13" lengthAdjust="spacing" textLength="75" x="874.5" y="602.6357">getInstance()</text><polygon fill="#181818" points="860.5,633.8438,850.5,637.8438,860.5,641.8438,856.5,637.8438" style="stroke:#181818;stroke-width:1.0;"/><line style="stroke:#181818;stroke-width:1.0;stroke-dasharray:2.0,2.0;" x1="854.5" x2="1028.5" y1="637.8438" y2="637.8438"/><text fill="#000000" font-family="sans-serif" font-size="13" font-weight="bold" lengthAdjust="spacing" textLength="14" x="866.5" y="632.9873">16</text><text fill="#000000" font-family="sans-serif" font-size="13" lengthAdjust="spacing" textLength="67" x="884.5" y="632.9873">repositories</text><polygon fill="#181818" points="1119.5,664.1953,1129.5,668.1953,1119.5,672.1953,1123.5,668.1953" style="stroke:#181818;stroke-width:1.0;"/><line style="stroke:#181818;stroke-width:1.0;" x1="849.5" x2="1125.5" y1="668.1953" y2="668.1953"/><text fill="#000000" font-family="sans-serif" font-size="13" font-weight="bold" lengthAdjust="spacing" textLength="14" x="856.5" y="663.3389">17</text><text fill="#000000" font-family="sans-serif" font-size="13" lengthAdjust="spacing" textLength="122" x="874.5" y="663.3389">getBrandRepository()</text><polygon fill="#181818" points="860.5,694.5469,850.5,698.5469,860.5,702.5469,856.5,698.5469" style="stroke:#181818;stroke-width:1.0;"/><line style="stroke:#181818;stroke-width:1.0;stroke-dasharray:2.0,2.0;" x1="854.5" x2="1135.5" y1="698.5469" y2="698.5469"/><text fill="#000000" font-family="sans-serif" font-size="13" font-weight="bold" lengthAdjust="spacing" textLength="14" x="866.5" y="693.6904">18</text><text fill="#000000" font-family="sans-serif" font-size="13" lengthAdjust="spacing" textLength="96" x="884.5" y="693.6904">BrandRepository</text><polygon fill="#181818" points="1239.5,724.8984,1249.5,728.8984,1239.5,732.8984,1243.5,728.8984" style="stroke:#181818;stroke-width:1.0;"/><line style="stroke:#181818;stroke-width:1.0;" x1="849.5" x2="1245.5" y1="728.8984" y2="728.8984"/><text fill="#000000" font-family="sans-serif" font-size="13" font-weight="bold" lengthAdjust="spacing" textLength="14" x="856.5" y="724.042">19</text><text fill="#000000" font-family="sans-serif" font-size="13" lengthAdjust="spacing" textLength="117" x="874.5" y="724.042">getBrandList(brand))</text><polygon fill="#181818" points="860.5,755.25,850.5,759.25,860.5,763.25,856.5,759.25" style="stroke:#181818;stroke-width:1.0;"/><line style="stroke:#181818;stroke-width:1.0;stroke-dasharray:2.0,2.0;" x1="854.5" x2="1255.5" y1="759.25" y2="759.25"/><text fill="#000000" font-family="sans-serif" font-size="13" font-weight="bold" lengthAdjust="spacing" textLength="14" x="866.5" y="754.3936">20</text><text fill="#000000" font-family="sans-serif" font-size="13" lengthAdjust="spacing" textLength="53" x="884.5" y="754.3936">brandList</text><line style="stroke:#181818;stroke-width:1.0;stroke-dasharray:2.0,2.0;" x1="849.5" x2="891.5" y1="789.6016" y2="789.6016"/><line style="stroke:#181818;stroke-width:1.0;stroke-dasharray:2.0,2.0;" x1="891.5" x2="891.5" y1="789.6016" y2="802.6016"/><line style="stroke:#181818;stroke-width:1.0;stroke-dasharray:2.0,2.0;" x1="850.5" x2="891.5" y1="802.6016" y2="802.6016"/><polygon fill="#181818" points="860.5,798.6016,850.5,802.6016,860.5,806.6016,856.5,802.6016" style="stroke:#181818;stroke-width:1.0;"/><text fill="#000000" font-family="sans-serif" font-size="13" font-weight="bold" lengthAdjust="spacing" textLength="14" x="856.5" y="784.7451">21</text><text fill="#000000" font-family="sans-serif" font-size="13" lengthAdjust="spacing" textLength="53" x="874.5" y="784.7451">brandList</text><polygon fill="#181818" points="493.5,828.9531,483.5,832.9531,493.5,836.9531,489.5,832.9531" style="stroke:#181818;stroke-width:1.0;"/><line style="stroke:#181818;stroke-width:1.0;stroke-dasharray:2.0,2.0;" x1="487.5" x2="843.5" y1="832.9531" y2="832.9531"/><text fill="#000000" font-family="sans-serif" font-size="13" font-weight="bold" lengthAdjust="spacing" textLength="14" x="499.5" y="828.0967">22</text><text fill="#000000" font-family="sans-serif" font-size="13" lengthAdjust="spacing" textLength="53" x="517.5" y="828.0967">brandList</text><polygon fill="#181818" points="38.5,859.3047,28.5,863.3047,38.5,867.3047,34.5,863.3047" style="stroke:#181818;stroke-width:1.0;"/><line style="stroke:#181818;stroke-width:1.0;stroke-dasharray:2.0,2.0;" x1="32.5" x2="471.5" y1="863.3047" y2="863.3047"/><text fill="#000000" font-family="sans-serif" font-size="13" font-weight="bold" lengthAdjust="spacing" textLength="14" x="44.5" y="858.4482">23</text><text fill="#000000" font-family="sans-serif" font-size="13" lengthAdjust="spacing" textLength="249" x="62.5" y="858.4482">show brand list and request to select brand</text><polygon fill="#181818" points="460.5,889.6563,470.5,893.6563,460.5,897.6563,464.5,893.6563" style="stroke:#181818;stroke-width:1.0;"/><line style="stroke:#181818;stroke-width:1.0;" x1="27.5" x2="466.5" y1="893.6563" y2="893.6563"/><text fill="#000000" font-family="sans-serif" font-size="13" font-weight="bold" lengthAdjust="spacing" textLength="14" x="34.5" y="888.7998">24</text><text fill="#000000" font-family="sans-serif" font-size="13" lengthAdjust="spacing" textLength="114" x="52.5" y="888.7998">select vehicle brand</text><polygon fill="#181818" points="827.5,920.0078,837.5,924.0078,827.5,928.0078,831.5,924.0078" style="stroke:#181818;stroke-width:1.0;"/><line style="stroke:#181818;stroke-width:1.0;" x1="477.5" x2="833.5" y1="924.0078" y2="924.0078"/><text fill="#000000" font-family="sans-serif" font-size="13" font-weight="bold" lengthAdjust="spacing" textLength="14" x="484.5" y="919.1514">25</text><text fill="#000000" font-family="sans-serif" font-size="13" lengthAdjust="spacing" textLength="61" x="502.5" y="919.1514">getModel()</text><line style="stroke:#181818;stroke-width:1.0;" x1="849.5" x2="896.5" y1="949.3594" y2="949.3594"/><line style="stroke:#181818;stroke-width:1.0;" x1="896.5" x2="896.5" y1="949.3594" y2="962.3594"/><line style="stroke:#181818;stroke-width:1.0;" x1="855.5" x2="896.5" y1="962.3594" y2="962.3594"/><polygon fill="#181818" points="865.5,958.3594,855.5,962.3594,865.5,966.3594,861.5,962.3594" style="stroke:#181818;stroke-width:1.0;"/><text fill="#000000" font-family="sans-serif" font-size="13" font-weight="bold" lengthAdjust="spacing" textLength="14" x="861.5" y="944.5029">26</text><text fill="#000000" font-family="sans-serif" font-size="13" lengthAdjust="spacing" textLength="143" x="879.5" y="944.5029">getModelByBrand(brand)</text><polygon fill="#181818" points="1012.5,993.7109,1022.5,997.7109,1012.5,1001.7109,1016.5,997.7109" style="stroke:#181818;stroke-width:1.0;"/><line style="stroke:#181818;stroke-width:1.0;" x1="854.5" x2="1018.5" y1="997.7109" y2="997.7109"/><text fill="#000000" font-family="sans-serif" font-size="13" font-weight="bold" lengthAdjust="spacing" textLength="14" x="861.5" y="992.8545">27</text><text fill="#000000" font-family="sans-serif" font-size="13" lengthAdjust="spacing" textLength="75" x="879.5" y="992.8545">getInstance()</text><polygon fill="#181818" points="865.5,1024.0625,855.5,1028.0625,865.5,1032.0625,861.5,1028.0625" style="stroke:#181818;stroke-width:1.0;"/><line style="stroke:#181818;stroke-width:1.0;stroke-dasharray:2.0,2.0;" x1="859.5" x2="1028.5" y1="1028.0625" y2="1028.0625"/><text fill="#000000" font-family="sans-serif" font-size="13" font-weight="bold" lengthAdjust="spacing" textLength="14" x="871.5" y="1023.2061">28</text><text fill="#000000" font-family="sans-serif" font-size="13" lengthAdjust="spacing" textLength="67" x="889.5" y="1023.2061">repositories</text><polygon fill="#181818" points="1119.5,1054.4141,1129.5,1058.4141,1119.5,1062.4141,1123.5,1058.4141" style="stroke:#181818;stroke-width:1.0;"/><line style="stroke:#181818;stroke-width:1.0;" x1="854.5" x2="1125.5" y1="1058.4141" y2="1058.4141"/><text fill="#000000" font-family="sans-serif" font-size="13" font-weight="bold" lengthAdjust="spacing" textLength="14" x="861.5" y="1053.5576">29</text><text fill="#000000" font-family="sans-serif" font-size="13" lengthAdjust="spacing" textLength="122" x="879.5" y="1053.5576">getBrandRepository()</text><polygon fill="#181818" points="865.5,1084.7656,855.5,1088.7656,865.5,1092.7656,861.5,1088.7656" style="stroke:#181818;stroke-width:1.0;"/><line style="stroke:#181818;stroke-width:1.0;stroke-dasharray:2.0,2.0;" x1="859.5" x2="1135.5" y1="1088.7656" y2="1088.7656"/><text fill="#000000" font-family="sans-serif" font-size="13" font-weight="bold" lengthAdjust="spacing" textLength="14" x="871.5" y="1083.9092">30</text><text fill="#000000" font-family="sans-serif" font-size="13" lengthAdjust="spacing" textLength="96" x="889.5" y="1083.9092">BrandRepository</text><polygon fill="#181818" points="1239.5,1115.1172,1249.5,1119.1172,1239.5,1123.1172,1243.5,1119.1172" style="stroke:#181818;stroke-width:1.0;"/><line style="stroke:#181818;stroke-width:1.0;" x1="854.5" x2="1245.5" y1="1119.1172" y2="1119.1172"/><text fill="#000000" font-family="sans-serif" font-size="13" font-weight="bold" lengthAdjust="spacing" textLength="14" x="861.5" y="1114.2607">31</text><text fill="#000000" font-family="sans-serif" font-size="13" lengthAdjust="spacing" textLength="143" x="879.5" y="1114.2607">getModelByBrand(brand)</text><polygon fill="#181818" points="865.5,1145.4688,855.5,1149.4688,865.5,1153.4688,861.5,1149.4688" style="stroke:#181818;stroke-width:1.0;"/><line style="stroke:#181818;stroke-width:1.0;stroke-dasharray:2.0,2.0;" x1="859.5" x2="1255.5" y1="1149.4688" y2="1149.4688"/><text fill="#000000" font-family="sans-serif" font-size="13" font-weight="bold" lengthAdjust="spacing" textLength="14" x="871.5" y="1144.6123">32</text><text fill="#000000" font-family="sans-serif" font-size="13" lengthAdjust="spacing" textLength="56" x="889.5" y="1144.6123">modelList</text><line style="stroke:#181818;stroke-width:1.0;stroke-dasharray:2.0,2.0;" x1="854.5" x2="896.5" y1="1184.8203" y2="1184.8203"/><line style="stroke:#181818;stroke-width:1.0;stroke-dasharray:2.0,2.0;" x1="896.5" x2="896.5" y1="1184.8203" y2="1197.8203"/><line style="stroke:#181818;stroke-width:1.0;stroke-dasharray:2.0,2.0;" x1="849.5" x2="896.5" y1="1197.8203" y2="1197.8203"/><polygon fill="#181818" points="859.5,1193.8203,849.5,1197.8203,859.5,1201.8203,855.5,1197.8203" style="stroke:#181818;stroke-width:1.0;"/><text fill="#000000" font-family="sans-serif" font-size="13" font-weight="bold" lengthAdjust="spacing" textLength="14" x="861.5" y="1179.9639">33</text><text fill="#000000" font-family="sans-serif" font-size="13" lengthAdjust="spacing" textLength="56" x="879.5" y="1179.9639">modelList</text><polygon fill="#181818" points="493.5,1219.1719,483.5,1223.1719,493.5,1227.1719,489.5,1223.1719" style="stroke:#181818;stroke-width:1.0;"/><line style="stroke:#181818;stroke-width:1.0;stroke-dasharray:2.0,2.0;" x1="487.5" x2="843.5" y1="1223.1719" y2="1223.1719"/><text fill="#000000" font-family="sans-serif" font-size="13" font-weight="bold" lengthAdjust="spacing" textLength="14" x="499.5" y="1218.3154">34</text><text fill="#000000" font-family="sans-serif" font-size="13" lengthAdjust="spacing" textLength="56" x="517.5" y="1218.3154">modelList</text><polygon fill="#181818" points="38.5,1249.5234,28.5,1253.5234,38.5,1257.5234,34.5,1253.5234" style="stroke:#181818;stroke-width:1.0;"/><line style="stroke:#181818;stroke-width:1.0;stroke-dasharray:2.0,2.0;" x1="32.5" x2="471.5" y1="1253.5234" y2="1253.5234"/><text fill="#000000" font-family="sans-serif" font-size="13" font-weight="bold" lengthAdjust="spacing" textLength="14" x="44.5" y="1248.667">35</text><text fill="#000000" font-family="sans-serif" font-size="13" lengthAdjust="spacing" textLength="140" x="62.5" y="1248.667">shows vehicle modelList</text><polygon fill="#181818" points="460.5,1279.875,470.5,1283.875,460.5,1287.875,464.5,1283.875" style="stroke:#181818;stroke-width:1.0;"/><line style="stroke:#181818;stroke-width:1.0;" x1="27.5" x2="466.5" y1="1283.875" y2="1283.875"/><text fill="#000000" font-family="sans-serif" font-size="13" font-weight="bold" lengthAdjust="spacing" textLength="14" x="34.5" y="1279.0186">36</text><text fill="#000000" font-family="sans-serif" font-size="13" lengthAdjust="spacing" textLength="114" x="52.5" y="1279.0186">select vehicle brand</text><polygon fill="#181818" points="827.5,1342.9297,837.5,1346.9297,827.5,1350.9297,831.5,1346.9297" style="stroke:#181818;stroke-width:1.0;"/><line style="stroke:#181818;stroke-width:1.0;" x1="477.5" x2="833.5" y1="1346.9297" y2="1346.9297"/><text fill="#000000" font-family="sans-serif" font-size="13" font-weight="bold" lengthAdjust="spacing" textLength="14" x="484.5" y="1325.7217">37</text><text fill="#000000" font-family="sans-serif" font-size="13" lengthAdjust="spacing" textLength="200" x="502.5" y="1309.3701">registerVehicle(VIN, Brand, Model,</text><text fill="#000000" font-family="sans-serif" font-size="13" lengthAdjust="spacing" textLength="251" x="502.5" y="1325.7217">Vehicle Platte, Tare Weight, Gross Weight,</text><text fill="#000000" font-family="sans-serif" font-size="13" lengthAdjust="spacing" textLength="320" x="502.5" y="1342.0732">Current Km, Acquisition Date, Maintenance Frequency)</text><polygon fill="#181818" points="1376,1430.9844,1386,1434.9844,1376,1438.9844,1380,1434.9844" style="stroke:#181818;stroke-width:1.0;"/><line style="stroke:#181818;stroke-width:1.0;" x1="844.5" x2="1382" y1="1434.9844" y2="1434.9844"/><text fill="#000000" font-family="sans-serif" font-size="13" font-weight="bold" lengthAdjust="spacing" textLength="14" x="851.5" y="1413.7764">38</text><text fill="#000000" font-family="sans-serif" font-size="13" lengthAdjust="spacing" textLength="200" x="869.5" y="1397.4248">registerVehicle(VIN, Brand, Model,</text><text fill="#000000" font-family="sans-serif" font-size="13" lengthAdjust="spacing" textLength="251" x="869.5" y="1413.7764">Vehicle Platte, Tare Weight, Gross Weight,</text><text fill="#000000" font-family="sans-serif" font-size="13" lengthAdjust="spacing" textLength="320" x="869.5" y="1430.1279">Current Km, Acquisition Date, Maintenance Frequency)</text><polygon fill="#181818" points="1748,1494.0391,1758,1498.0391,1748,1502.0391,1752,1498.0391" style="stroke:#181818;stroke-width:1.0;"/><line style="stroke:#181818;stroke-width:1.0;" x1="1393" x2="1754" y1="1498.0391" y2="1498.0391"/><text fill="#000000" font-family="sans-serif" font-size="13" font-weight="bold" lengthAdjust="spacing" textLength="14" x="1400" y="1476.8311">39</text><text fill="#000000" font-family="sans-serif" font-size="13" lengthAdjust="spacing" textLength="200" x="1418" y="1460.4795">registerVehicle(VIN, Brand, Model,</text><text fill="#000000" font-family="sans-serif" font-size="13" lengthAdjust="spacing" textLength="251" x="1418" y="1476.8311">Vehicle Platte, Tare Weight, Gross Weight,</text><text fill="#000000" font-family="sans-serif" font-size="13" lengthAdjust="spacing" textLength="320" x="1418" y="1493.1826">Current Km, Acquisition Date, Maintenance Frequency)</text><rect fill="#E3E3E3" height="49.2188" rx="2.5" ry="2.5" style="stroke:#181818;stroke-width:0.5;" width="64" x="1760" y="1445.8203"/><text fill="#000000" font-family="sans-serif" font-size="14" lengthAdjust="spacing" textLength="44" x="1770" y="1467.3535">vehicle</text><text fill="#000000" font-family="sans-serif" font-size="14" lengthAdjust="spacing" textLength="50" x="1767" y="1484.9629">:Vehicle</text><line style="stroke:#181818;stroke-width:1.0;" x1="1797" x2="1844" y1="1523.3906" y2="1523.3906"/><line style="stroke:#181818;stroke-width:1.0;" x1="1844" x2="1844" y1="1523.3906" y2="1536.3906"/><line style="stroke:#181818;stroke-width:1.0;" x1="1803" x2="1844" y1="1536.3906" y2="1536.3906"/><polygon fill="#181818" points="1813,1532.3906,1803,1536.3906,1813,1540.3906,1809,1536.3906" style="stroke:#181818;stroke-width:1.0;"/><text fill="#000000" font-family="sans-serif" font-size="13" font-weight="bold" lengthAdjust="spacing" textLength="14" x="1809" y="1518.5342">40</text><text fill="#000000" font-family="sans-serif" font-size="13" lengthAdjust="spacing" textLength="115" x="1827" y="1518.5342">addVehicle (vehicle)</text><line style="stroke:#181818;stroke-width:1.0;" x1="1802" x2="1849" y1="1566.7422" y2="1566.7422"/><line style="stroke:#181818;stroke-width:1.0;" x1="1849" x2="1849" y1="1566.7422" y2="1579.7422"/><line style="stroke:#181818;stroke-width:1.0;" x1="1808" x2="1849" y1="1579.7422" y2="1579.7422"/><polygon fill="#181818" points="1818,1575.7422,1808,1579.7422,1818,1583.7422,1814,1579.7422" style="stroke:#181818;stroke-width:1.0;"/><text fill="#000000" font-family="sans-serif" font-size="13" font-weight="bold" lengthAdjust="spacing" textLength="14" x="1814" y="1561.8857">41</text><text fill="#000000" font-family="sans-serif" font-size="13" lengthAdjust="spacing" textLength="133" x="1832" y="1561.8857">validateVehicle(vehicle)</text><line style="stroke:#181818;stroke-width:1.0;stroke-dasharray:2.0,2.0;" x1="1807" x2="1849" y1="1620.0938" y2="1620.0938"/><line style="stroke:#181818;stroke-width:1.0;stroke-dasharray:2.0,2.0;" x1="1849" x2="1849" y1="1620.0938" y2="1633.0938"/><line style="stroke:#181818;stroke-width:1.0;stroke-dasharray:2.0,2.0;" x1="1802" x2="1849" y1="1633.0938" y2="1633.0938"/><polygon fill="#181818" points="1812,1629.0938,1802,1633.0938,1812,1637.0938,1808,1633.0938" style="stroke:#181818;stroke-width:1.0;"/><text fill="#000000" font-family="sans-serif" font-size="13" font-weight="bold" lengthAdjust="spacing" textLength="14" x="1814" y="1615.2373">42</text><text fill="#000000" font-family="sans-serif" font-size="13" lengthAdjust="spacing" textLength="4" x="1832" y="1615.2373"> </text><line style="stroke:#181818;stroke-width:1.0;stroke-dasharray:2.0,2.0;" x1="1802" x2="1844" y1="1663.4453" y2="1663.4453"/><line style="stroke:#181818;stroke-width:1.0;stroke-dasharray:2.0,2.0;" x1="1844" x2="1844" y1="1663.4453" y2="1676.4453"/><line style="stroke:#181818;stroke-width:1.0;stroke-dasharray:2.0,2.0;" x1="1797" x2="1844" y1="1676.4453" y2="1676.4453"/><polygon fill="#181818" points="1807,1672.4453,1797,1676.4453,1807,1680.4453,1803,1676.4453" style="stroke:#181818;stroke-width:1.0;"/><text fill="#000000" font-family="sans-serif" font-size="13" font-weight="bold" lengthAdjust="spacing" textLength="14" x="1809" y="1658.5889">43</text><text fill="#000000" font-family="sans-serif" font-size="13" lengthAdjust="spacing" textLength="4" x="1827" y="1658.5889"> </text><polygon fill="#181818" points="1409,1697.7969,1399,1701.7969,1409,1705.7969,1405,1701.7969" style="stroke:#181818;stroke-width:1.0;"/><line style="stroke:#181818;stroke-width:1.0;stroke-dasharray:2.0,2.0;" x1="1403" x2="1791" y1="1701.7969" y2="1701.7969"/><text fill="#000000" font-family="sans-serif" font-size="13" font-weight="bold" lengthAdjust="spacing" textLength="14" x="1415" y="1696.9404">44</text><text fill="#000000" font-family="sans-serif" font-size="13" lengthAdjust="spacing" textLength="39" x="1433" y="1696.9404">vehicle</text><polygon fill="#181818" points="860.5,1728.1484,850.5,1732.1484,860.5,1736.1484,856.5,1732.1484" style="stroke:#181818;stroke-width:1.0;"/><line style="stroke:#181818;stroke-width:1.0;stroke-dasharray:2.0,2.0;" x1="854.5" x2="1392" y1="1732.1484" y2="1732.1484"/><text fill="#000000" font-family="sans-serif" font-size="13" font-weight="bold" lengthAdjust="spacing" textLength="14" x="866.5" y="1727.292">45</text><text fill="#000000" font-family="sans-serif" font-size="13" lengthAdjust="spacing" textLength="39" x="884.5" y="1727.292">vehicle</text><polygon fill="#181818" points="493.5,1758.5,483.5,1762.5,493.5,1766.5,489.5,1762.5" style="stroke:#181818;stroke-width:1.0;"/><line style="stroke:#181818;stroke-width:1.0;stroke-dasharray:2.0,2.0;" x1="487.5" x2="843.5" y1="1762.5" y2="1762.5"/><text fill="#000000" font-family="sans-serif" font-size="13" font-weight="bold" lengthAdjust="spacing" textLength="14" x="499.5" y="1757.6436">46</text><text fill="#000000" font-family="sans-serif" font-size="13" lengthAdjust="spacing" textLength="39" x="517.5" y="1757.6436">vehicle</text><polygon fill="#181818" points="33.5,1788.8516,23.5,1792.8516,33.5,1796.8516,29.5,1792.8516" style="stroke:#181818;stroke-width:1.0;"/><line style="stroke:#181818;stroke-width:1.0;stroke-dasharray:2.0,2.0;" x1="27.5" x2="476.5" y1="1792.8516" y2="1792.8516"/><text fill="#000000" font-family="sans-serif" font-size="13" font-weight="bold" lengthAdjust="spacing" textLength="14" x="39.5" y="1787.9951">47</text><text fill="#000000" font-family="sans-serif" font-size="13" lengthAdjust="spacing" textLength="147" x="57.5" y="1787.9951">shows success message</text><!--SRC=[pLZDRjim3BxxAOXUbWJP2-GmeEtQ8LWp5Ft9BhqeZfe8jQLKajC5wCEFakt4icJ7-JdKXzQLo8-an8-agzuONn59KaW55_5IYfI2bXcDr7PdHU8tig2FUfDGa3JMX2-Ige1QahduO7m1hoHHD8eYacd1itH6PHHzMx8vXLSXz4pyYqYiXOIBwUta0eW2_1qXY6OnMn6kuMBqG1TCQIgdTCdYX3wFhTppk5tiMd0jHP9GQSMldnxkF8MLK0oDCwgip7PXyyXCGEYngo8h6Y_S1xY_ktnoDMQIyFaET_J2hzmLgrTRSo7MUJmEoBI-bXzTVJK8X8uNWhdIpJWoTy3MH5Dx-X7WWo_m_GUUCepmXjypghG2BV0zFsKWKE1PyIq0NejTC0yg8uGv-S40OM99KSBTndrZgMAZG8KvqGHwq_6VOHaNt2T4Qpg49o8f_ALiiTH3-2M5KkLVBnokCoafXlix7S9b_9unF0ecEFmaHdL26DUK4nvJkBKsURpf-o7hpOgwleJ2Ga6LpLAcNSbIS4whnrAkRjTiIcwNpMCn4JkGY2DOK3tcIXlNUtr7ROiOIc17CY1Wxy0ODdUmosT7hHB8NXDb38OBrca_AuE-M-uuMsQbubqxJiL57wdqoOF02roJXE6jqM8FquIOhEiteVktjYEFvw4ZvriFkTJHenECXgmsHHj0xm1VS6Ez2w0xVZ38_D2Z1cO5xxhm0HFGLjTUtnNRGpTeuzjXd3k1TuTohyw_IlmxtRPWVEfuH4JCUhjgSJaCMFfO0wguUuTDfcURPx_5tReZdcJTG2M8MMccpVsz1l98GgXHKEnvt6IvMuansPvlETrJBSL7ZWi90eDvAJggQTgA9ZYavG9-hojsonPMaN8w7LxDHCnfKkIFtzmQ_FS9QM6kDZalyqls3dPFfpmNZO-ZynbeVIozJw5vHxeVI_lEzEzK1hecoM45eKDXI8tXO64ufa24YaIxXSP2u1GH7wEkrr8xWlLZD-xki0-e5LwzaExtM3xAs_F2CTnO6CBsGwR3Q8_2HutsHm_Zdv-VdOV8BnPhvvGwP99i7c5lnZ0OVDb3w3njkeTnCmwJsKIR1pq2Cf-NyVGAIkpfP9rWQny0Pu7EiVSLdBDXH8q0WU-TolyHsfvzVfxsIPJtx90l1oLGqwTBupIuB_hkSs5BPLTP75EaLee_o8861hYe6kNj9FeF]--></g></svg>