<?xml version="1.0" encoding="UTF-8" standalone="no"?><svg xmlns="http://www.w3.org/2000/svg" xmlns:xlink="http://www.w3.org/1999/xlink" contentStyleType="text/css" height="325px" preserveAspectRatio="none" style="width:707px;height:325px;background:#FFFFFF;" version="1.1" viewBox="0 0 707 325" width="707px" zoomAndPan="magnify"><defs/><g><rect fill="#FFFFFF" height="149.4063" style="stroke:#181818;stroke-width:1.0;" width="10" x="508" y="103.9219"/><rect fill="#FFFFFF" height="41.3516" style="stroke:#181818;stroke-width:1.0;" width="10" x="513" y="167.625"/><rect fill="none" height="105.0547" style="stroke:#000000;stroke-width:1.5;" width="230" x="471" y="118.9219"/><line style="stroke:#181818;stroke-width:0.5;stroke-dasharray:5.0,5.0;" x1="70" x2="70" y1="55.2188" y2="271.3281"/><line style="stroke:#181818;stroke-width:0.5;stroke-dasharray:5.0,5.0;" x1="513" x2="513" y1="55.2188" y2="271.3281"/><rect fill="#E3E3E3" height="49.2188" rx="2.5" ry="2.5" style="stroke:#181818;stroke-width:0.5;" width="130" x="5" y="5"/><text fill="#000000" font-family="sans-serif" font-size="14" lengthAdjust="spacing" textLength="116" x="12" y="26.5332">vehicleRepository:</text><text fill="#000000" font-family="sans-serif" font-size="14" lengthAdjust="spacing" textLength="114" x="13" y="44.1426">VehicleRepository</text><rect fill="#E3E3E3" height="49.2188" rx="2.5" ry="2.5" style="stroke:#181818;stroke-width:0.5;" width="130" x="5" y="270.3281"/><text fill="#000000" font-family="sans-serif" font-size="14" lengthAdjust="spacing" textLength="116" x="12" y="291.8613">vehicleRepository:</text><text fill="#000000" font-family="sans-serif" font-size="14" lengthAdjust="spacing" textLength="114" x="13" y="309.4707">VehicleRepository</text><rect fill="#E3E3E3" height="49.2188" rx="2.5" ry="2.5" style="stroke:#181818;stroke-width:0.5;" width="64" x="481" y="5"/><text fill="#000000" font-family="sans-serif" font-size="14" lengthAdjust="spacing" textLength="44" x="491" y="26.5332">vehicle</text><text fill="#000000" font-family="sans-serif" font-size="14" lengthAdjust="spacing" textLength="50" x="488" y="44.1426">:Vehicle</text><rect fill="#E3E3E3" height="49.2188" rx="2.5" ry="2.5" style="stroke:#181818;stroke-width:0.5;" width="64" x="481" y="270.3281"/><text fill="#000000" font-family="sans-serif" font-size="14" lengthAdjust="spacing" textLength="44" x="491" y="291.8613">vehicle</text><text fill="#000000" font-family="sans-serif" font-size="14" lengthAdjust="spacing" textLength="50" x="488" y="309.4707">:Vehicle</text><rect fill="#FFFFFF" height="149.4063" style="stroke:#181818;stroke-width:1.0;" width="10" x="508" y="103.9219"/><rect fill="#FFFFFF" height="41.3516" style="stroke:#181818;stroke-width:1.0;" width="10" x="513" y="167.625"/><polygon fill="#181818" points="496,99.9219,506,103.9219,496,107.9219,500,103.9219" style="stroke:#181818;stroke-width:1.0;"/><line style="stroke:#181818;stroke-width:1.0;" x1="70" x2="502" y1="103.9219" y2="103.9219"/><text fill="#000000" font-family="sans-serif" font-size="13" font-weight="bold" lengthAdjust="spacing" textLength="7" x="77" y="90.8896">9</text><text fill="#000000" font-family="sans-serif" font-size="13" lengthAdjust="spacing" textLength="392" x="88" y="82.7139">createVehicle(VIN, Brand, Model, Type, Vehicle Plate, Tare Weight,</text><text fill="#000000" font-family="sans-serif" font-size="13" lengthAdjust="spacing" textLength="408" x="88" y="99.0654">Gross Weight, Current Km, Acquisition Date, Maintenance Frequency)</text><path d="M471,118.9219 L620,118.9219 L620,127.2734 L610,137.2734 L471,137.2734 L471,118.9219 " fill="#EEEEEE" style="stroke:#000000;stroke-width:1.5;"/><rect fill="none" height="105.0547" style="stroke:#000000;stroke-width:1.5;" width="230" x="471" y="118.9219"/><text fill="#000000" font-family="sans-serif" font-size="13" font-weight="bold" lengthAdjust="spacing" textLength="104" x="486" y="133.417">Register Vehicle</text><line style="stroke:#181818;stroke-width:1.0;" x1="518" x2="565" y1="154.625" y2="154.625"/><line style="stroke:#181818;stroke-width:1.0;" x1="565" x2="565" y1="154.625" y2="167.625"/><line style="stroke:#181818;stroke-width:1.0;" x1="524" x2="565" y1="167.625" y2="167.625"/><polygon fill="#181818" points="534,163.625,524,167.625,534,171.625,530,167.625" style="stroke:#181818;stroke-width:1.0;"/><text fill="#000000" font-family="sans-serif" font-size="13" font-weight="bold" lengthAdjust="spacing" textLength="18" x="530" y="149.7686">9.1</text><text fill="#000000" font-family="sans-serif" font-size="13" lengthAdjust="spacing" textLength="137" x="552" y="149.7686">validateVehicle(vehicle))</text><line style="stroke:#181818;stroke-width:1.0;stroke-dasharray:2.0,2.0;" x1="523" x2="565" y1="207.9766" y2="207.9766"/><line style="stroke:#181818;stroke-width:1.0;stroke-dasharray:2.0,2.0;" x1="565" x2="565" y1="207.9766" y2="220.9766"/><line style="stroke:#181818;stroke-width:1.0;stroke-dasharray:2.0,2.0;" x1="518" x2="565" y1="220.9766" y2="220.9766"/><polygon fill="#181818" points="528,216.9766,518,220.9766,528,224.9766,524,220.9766" style="stroke:#181818;stroke-width:1.0;"/><text fill="#000000" font-family="sans-serif" font-size="13" font-weight="bold" lengthAdjust="spacing" textLength="18" x="530" y="203.1201">9.2</text><text fill="#000000" font-family="sans-serif" font-size="13" lengthAdjust="spacing" textLength="4" x="552" y="203.1201"> </text><polygon fill="#181818" points="81,249.3281,71,253.3281,81,257.3281,77,253.3281" style="stroke:#181818;stroke-width:1.0;"/><line style="stroke:#181818;stroke-width:1.0;stroke-dasharray:2.0,2.0;" x1="75" x2="512" y1="253.3281" y2="253.3281"/><text fill="#000000" font-family="sans-serif" font-size="13" font-weight="bold" lengthAdjust="spacing" textLength="14" x="87" y="248.4717">10</text><text fill="#000000" font-family="sans-serif" font-size="13" lengthAdjust="spacing" textLength="39" x="105" y="248.4717">vehicle</text><!--SRC=[ZL9DJyCm3BtdLrWxCQaWTcG79BureI4qqBZiObBJHakTpac7-k_9kZArAzBmBS_Fp-ybyMl39GeMK3XsEXTN40IfIFb3fqIznepUGcq9X7H0pcoNu7DCtRVX3BxGUb8gmi5eKo8766qfDzhIWahdJN1IJrUyFCP6W1u6w9z2AvwsnFtGmqmfh8BZglWaWIi5dHf8mldrRcGAMWW3jVspvUmbWLj1JXEOkvHi0kzrIScl0BpQo8uW2i47cImF2QpuIPptX_DT9KBHwNEHm8tUL2QkD8xXlXcTe-50ZAm97eKs5R6knz6x3cOR6KsIdUTCN5N2WZBZGmpKEcXQtPmN4wLwMOSL5GzvjsXDsadStkPuV4AZP-y_-_OBJp1JwkksKOZJtcDEBbLFT_2Le8sXZWL_0000]--></g></svg>