<?xml version="1.0" encoding="UTF-8" standalone="no"?><svg xmlns="http://www.w3.org/2000/svg" xmlns:xlink="http://www.w3.org/1999/xlink" contentStyleType="text/css" height="491px" preserveAspectRatio="none" style="width:1365px;height:491px;background:#FFFFFF;" version="1.1" viewBox="0 0 1365 491" width="1365px" zoomAndPan="magnify"><defs/><g><rect fill="#FFFFFF" height="331.5156" style="stroke:#181818;stroke-width:1.0;" width="10" x="816" y="87.5703"/><rect fill="#FFFFFF" height="223.4609" style="stroke:#181818;stroke-width:1.0;" width="10" x="821" y="151.2734"/><rect fill="#FFFFFF" height="30.3516" style="stroke:#181818;stroke-width:1.0;" width="10" x="1012" y="247.3281"/><rect fill="#FFFFFF" height="30.3516" style="stroke:#181818;stroke-width:1.0;" width="10" x="1132" y="308.0313"/><rect fill="#FFFFFF" height="30.3516" style="stroke:#181818;stroke-width:1.0;" width="10" x="1274" y="186.625"/><rect fill="none" height="287.1641" style="stroke:#000000;stroke-width:1.5;" width="638" x="721.5" y="102.5703"/><line style="stroke:#181818;stroke-width:0.5;stroke-dasharray:5.0,5.0;" x1="820.5" x2="820.5" y1="55.2188" y2="437.0859"/><line style="stroke:#181818;stroke-width:0.5;stroke-dasharray:5.0,5.0;" x1="1016.5" x2="1016.5" y1="55.2188" y2="437.0859"/><line style="stroke:#181818;stroke-width:0.5;stroke-dasharray:5.0,5.0;" x1="1136.5" x2="1136.5" y1="55.2188" y2="437.0859"/><line style="stroke:#181818;stroke-width:0.5;stroke-dasharray:5.0,5.0;" x1="1278.5" x2="1278.5" y1="55.2188" y2="437.0859"/><rect fill="#E3E3E3" height="31.6094" rx="2.5" ry="2.5" style="stroke:#181818;stroke-width:0.5;" width="179" x="731.5" y="22.6094"/><text fill="#000000" font-family="sans-serif" font-size="14" lengthAdjust="spacing" textLength="165" x="738.5" y="44.1426">:RegisterVehicleController</text><rect fill="#E3E3E3" height="31.6094" rx="2.5" ry="2.5" style="stroke:#181818;stroke-width:0.5;" width="179" x="731.5" y="436.0859"/><text fill="#000000" font-family="sans-serif" font-size="14" lengthAdjust="spacing" textLength="165" x="738.5" y="457.6191">:RegisterVehicleController</text><rect fill="#E3E3E3" height="49.2188" rx="2.5" ry="2.5" style="stroke:#181818;stroke-width:0.5;" width="97" x="968.5" y="5"/><text fill="#000000" font-family="sans-serif" font-size="14" lengthAdjust="spacing" textLength="74" x="980" y="26.5332">repositories</text><text fill="#000000" font-family="sans-serif" font-size="14" lengthAdjust="spacing" textLength="83" x="975.5" y="44.1426">:Repositories</text><rect fill="#E3E3E3" height="49.2188" rx="2.5" ry="2.5" style="stroke:#181818;stroke-width:0.5;" width="97" x="968.5" y="436.0859"/><text fill="#000000" font-family="sans-serif" font-size="14" lengthAdjust="spacing" textLength="74" x="980" y="457.6191">repositories</text><text fill="#000000" font-family="sans-serif" font-size="14" lengthAdjust="spacing" textLength="83" x="975.5" y="475.2285">:Repositories</text><rect fill="#E3E3E3" height="49.2188" rx="2.5" ry="2.5" style="stroke:#181818;stroke-width:0.5;" width="123" x="1075.5" y="5"/><text fill="#000000" font-family="sans-serif" font-size="14" lengthAdjust="spacing" textLength="109" x="1082.5" y="26.5332">brandRepository:</text><text fill="#000000" font-family="sans-serif" font-size="14" lengthAdjust="spacing" textLength="106" x="1084" y="44.1426">BrandRepository</text><rect fill="#E3E3E3" height="49.2188" rx="2.5" ry="2.5" style="stroke:#181818;stroke-width:0.5;" width="123" x="1075.5" y="436.0859"/><text fill="#000000" font-family="sans-serif" font-size="14" lengthAdjust="spacing" textLength="109" x="1082.5" y="457.6191">brandRepository:</text><text fill="#000000" font-family="sans-serif" font-size="14" lengthAdjust="spacing" textLength="106" x="1084" y="475.2285">BrandRepository</text><rect fill="#E3E3E3" height="31.6094" rx="2.5" ry="2.5" style="stroke:#181818;stroke-width:0.5;" width="141" x="1208.5" y="22.6094"/><text fill="#000000" font-family="sans-serif" font-size="14" lengthAdjust="spacing" textLength="127" x="1215.5" y="44.1426">RepositorySingleton</text><rect fill="#E3E3E3" height="31.6094" rx="2.5" ry="2.5" style="stroke:#181818;stroke-width:0.5;" width="141" x="1208.5" y="436.0859"/><text fill="#000000" font-family="sans-serif" font-size="14" lengthAdjust="spacing" textLength="127" x="1215.5" y="457.6191">RepositorySingleton</text><rect fill="#FFFFFF" height="331.5156" style="stroke:#181818;stroke-width:1.0;" width="10" x="816" y="87.5703"/><rect fill="#FFFFFF" height="223.4609" style="stroke:#181818;stroke-width:1.0;" width="10" x="821" y="151.2734"/><rect fill="#FFFFFF" height="30.3516" style="stroke:#181818;stroke-width:1.0;" width="10" x="1012" y="247.3281"/><rect fill="#FFFFFF" height="30.3516" style="stroke:#181818;stroke-width:1.0;" width="10" x="1132" y="308.0313"/><rect fill="#FFFFFF" height="30.3516" style="stroke:#181818;stroke-width:1.0;" width="10" x="1274" y="186.625"/><polygon fill="#181818" points="804,83.5703,814,87.5703,804,91.5703,808,87.5703" style="stroke:#181818;stroke-width:1.0;"/><line style="stroke:#181818;stroke-width:1.0;" x1="0" x2="810" y1="87.5703" y2="87.5703"/><text fill="#000000" font-family="sans-serif" font-size="13" font-weight="bold" lengthAdjust="spacing" textLength="14" x="7" y="82.7139">18</text><text fill="#000000" font-family="sans-serif" font-size="13" lengthAdjust="spacing" textLength="779" x="25" y="82.7139">registerVehicle(VIN, Brand, Model, Vehicle Platte, Tare Weight, Gross Weight, Current Km, Acquisition Date, Maintenance Frequency)</text><path d="M721.5,102.5703 L892.5,102.5703 L892.5,110.9219 L882.5,120.9219 L721.5,120.9219 L721.5,102.5703 " fill="#EEEEEE" style="stroke:#000000;stroke-width:1.5;"/><rect fill="none" height="287.1641" style="stroke:#000000;stroke-width:1.5;" width="638" x="721.5" y="102.5703"/><text fill="#000000" font-family="sans-serif" font-size="13" font-weight="bold" lengthAdjust="spacing" textLength="126" x="736.5" y="117.0654">Get Model by Brand</text><line style="stroke:#181818;stroke-width:1.0;" x1="826" x2="873" y1="138.2734" y2="138.2734"/><line style="stroke:#181818;stroke-width:1.0;" x1="873" x2="873" y1="138.2734" y2="151.2734"/><line style="stroke:#181818;stroke-width:1.0;" x1="832" x2="873" y1="151.2734" y2="151.2734"/><polygon fill="#181818" points="842,147.2734,832,151.2734,842,155.2734,838,151.2734" style="stroke:#181818;stroke-width:1.0;"/><text fill="#000000" font-family="sans-serif" font-size="13" font-weight="bold" lengthAdjust="spacing" textLength="25" x="838" y="133.417">18.1</text><text fill="#000000" font-family="sans-serif" font-size="13" lengthAdjust="spacing" textLength="143" x="867" y="133.417">getModelByBrand(brand)</text><polygon fill="#181818" points="1262,182.625,1272,186.625,1262,190.625,1266,186.625" style="stroke:#181818;stroke-width:1.0;"/><line style="stroke:#181818;stroke-width:1.0;" x1="831" x2="1268" y1="186.625" y2="186.625"/><text fill="#000000" font-family="sans-serif" font-size="13" font-weight="bold" lengthAdjust="spacing" textLength="25" x="838" y="181.7686">18.2</text><text fill="#000000" font-family="sans-serif" font-size="13" lengthAdjust="spacing" textLength="75" x="867" y="181.7686">getInstance()</text><polygon fill="#181818" points="842,212.9766,832,216.9766,842,220.9766,838,216.9766" style="stroke:#181818;stroke-width:1.0;"/><line style="stroke:#181818;stroke-width:1.0;stroke-dasharray:2.0,2.0;" x1="836" x2="1278" y1="216.9766" y2="216.9766"/><text fill="#000000" font-family="sans-serif" font-size="13" font-weight="bold" lengthAdjust="spacing" textLength="25" x="848" y="212.1201">18.3</text><text fill="#000000" font-family="sans-serif" font-size="13" lengthAdjust="spacing" textLength="67" x="877" y="212.1201">repositories</text><polygon fill="#181818" points="1000,243.3281,1010,247.3281,1000,251.3281,1004,247.3281" style="stroke:#181818;stroke-width:1.0;"/><line style="stroke:#181818;stroke-width:1.0;" x1="831" x2="1006" y1="247.3281" y2="247.3281"/><text fill="#000000" font-family="sans-serif" font-size="13" font-weight="bold" lengthAdjust="spacing" textLength="25" x="838" y="242.4717">18.4</text><text fill="#000000" font-family="sans-serif" font-size="13" lengthAdjust="spacing" textLength="122" x="867" y="242.4717">getBrandRepository()</text><polygon fill="#181818" points="842,273.6797,832,277.6797,842,281.6797,838,277.6797" style="stroke:#181818;stroke-width:1.0;"/><line style="stroke:#181818;stroke-width:1.0;stroke-dasharray:2.0,2.0;" x1="836" x2="1016" y1="277.6797" y2="277.6797"/><text fill="#000000" font-family="sans-serif" font-size="13" font-weight="bold" lengthAdjust="spacing" textLength="25" x="848" y="272.8232">18.5</text><text fill="#000000" font-family="sans-serif" font-size="13" lengthAdjust="spacing" textLength="96" x="877" y="272.8232">BrandRepository</text><polygon fill="#181818" points="1120,304.0313,1130,308.0313,1120,312.0313,1124,308.0313" style="stroke:#181818;stroke-width:1.0;"/><line style="stroke:#181818;stroke-width:1.0;" x1="831" x2="1126" y1="308.0313" y2="308.0313"/><text fill="#000000" font-family="sans-serif" font-size="13" font-weight="bold" lengthAdjust="spacing" textLength="25" x="838" y="303.1748">18.6</text><text fill="#000000" font-family="sans-serif" font-size="13" lengthAdjust="spacing" textLength="143" x="867" y="303.1748">getModelByBrand(brand)</text><polygon fill="#181818" points="842,334.3828,832,338.3828,842,342.3828,838,338.3828" style="stroke:#181818;stroke-width:1.0;"/><line style="stroke:#181818;stroke-width:1.0;stroke-dasharray:2.0,2.0;" x1="836" x2="1136" y1="338.3828" y2="338.3828"/><text fill="#000000" font-family="sans-serif" font-size="13" font-weight="bold" lengthAdjust="spacing" textLength="25" x="848" y="333.5264">18.7</text><text fill="#000000" font-family="sans-serif" font-size="13" lengthAdjust="spacing" textLength="56" x="877" y="333.5264">modelList</text><line style="stroke:#181818;stroke-width:1.0;stroke-dasharray:2.0,2.0;" x1="831" x2="873" y1="373.7344" y2="373.7344"/><line style="stroke:#181818;stroke-width:1.0;stroke-dasharray:2.0,2.0;" x1="873" x2="873" y1="373.7344" y2="386.7344"/><line style="stroke:#181818;stroke-width:1.0;stroke-dasharray:2.0,2.0;" x1="826" x2="873" y1="386.7344" y2="386.7344"/><polygon fill="#181818" points="836,382.7344,826,386.7344,836,390.7344,832,386.7344" style="stroke:#181818;stroke-width:1.0;"/><text fill="#000000" font-family="sans-serif" font-size="13" font-weight="bold" lengthAdjust="spacing" textLength="25" x="838" y="368.8779">18.8</text><text fill="#000000" font-family="sans-serif" font-size="13" lengthAdjust="spacing" textLength="56" x="867" y="368.8779">modelList</text><polygon fill="#181818" points="11,415.0859,1,419.0859,11,423.0859,7,419.0859" style="stroke:#181818;stroke-width:1.0;"/><line style="stroke:#181818;stroke-width:1.0;stroke-dasharray:2.0,2.0;" x1="5" x2="820" y1="419.0859" y2="419.0859"/><text fill="#000000" font-family="sans-serif" font-size="13" font-weight="bold" lengthAdjust="spacing" textLength="14" x="17" y="414.2295">19</text><text fill="#000000" font-family="sans-serif" font-size="13" lengthAdjust="spacing" textLength="56" x="35" y="414.2295">model list</text><!--SRC=[bP91J-Cm48Nl-HKZJaLAaBZjLYiaw0g4jgmGL73fPUeEgOLZX_44b7-_ZaEJ9WqIwvl7yvu_Uvv_rRP4nW8APvtQiIi8X2jAV7TIedh5d1wbDWHCIj3cvh31xt3hFhJDuGMDfoG9PT5AbsW5JkOFb6iln4-qqyhGmbbXPmpn2Q27nUfXEHGmbSvhSQp9hssGzzkek5zUheQA3QFTTdtrV6slXfMe6zMI12jnjYesn73-8yak8WlCmni7mBEdsxzfgqxXpct9fF1v1FS6HIY55JB1C-by9odSiFE-soqgPWgKVueKBjLRfSFrsbduZOtm3hKLicWLmJNJMqLMrQSZjhFp19Nezw1e_ml2ojbL9ToGj4omgLl699usApwdVrPE4ZklwjWtYxzssdKFRpWowJ_kKJVp3tYjvwtrqk3F9gmcHBtpb6FsYTiCeHzx9zdIzwptq4rKMihHyATWOwwwSfHc_U-DqpE1D3JOCuo4_p68ey3kEyQM1vX5OxmCyPq2_DAmPVscIvyF2ccBn0TX_Hahlx9iu0McCJio-GS0]--></g></svg>