<?xml version="1.0" encoding="UTF-8" standalone="no"?><svg xmlns="http://www.w3.org/2000/svg" xmlns:xlink="http://www.w3.org/1999/xlink" contentStyleType="text/css" height="1086px" preserveAspectRatio="none" style="width:2557px;height:1086px;background:#FFFFFF;" version="1.1" viewBox="0 0 2557 1086" width="2557px" zoomAndPan="magnify"><defs/><g><text fill="#000000" font-family="sans-serif" font-size="14" font-weight="bold" lengthAdjust="spacing" textLength="414" x="1070.75" y="29.5332">System Sequence Diagram (SSD) - Register Vehicle (US006)</text><rect fill="#FFFFFF" height="854.9453" style="stroke:#181818;stroke-width:1.0;" width="10" x="145" y="131.2188"/><rect fill="#FFFFFF" height="30.3516" style="stroke:#181818;stroke-width:1.0;" width="10" x="924" y="153.5703"/><rect fill="#FFFFFF" height="368.3516" style="stroke:#181818;stroke-width:1.0;" width="10" x="924" y="214.2734"/><rect fill="#FFFFFF" height="30.3516" style="stroke:#181818;stroke-width:1.0;" width="10" x="924" y="612.9766"/><rect fill="#FFFFFF" height="312.4844" style="stroke:#181818;stroke-width:1.0;" width="10" x="924" y="673.6797"/><rect fill="#FFFFFF" height="185.4063" style="stroke:#181818;stroke-width:1.0;" width="10" x="1750" y="244.625"/><rect fill="#FFFFFF" height="41.3516" style="stroke:#181818;stroke-width:1.0;" width="10" x="1755" y="351.3281"/><rect fill="#FFFFFF" height="91.8906" style="stroke:#181818;stroke-width:1.0;" width="10" x="1750" y="460.3828"/><rect fill="#FFFFFF" height="251.7813" style="stroke:#181818;stroke-width:1.0;" width="10" x="1750" y="704.0313"/><line style="stroke:#181818;stroke-width:0.5;stroke-dasharray:5.0,5.0;" x1="150" x2="150" y1="121.2188" y2="1004.1641"/><line style="stroke:#181818;stroke-width:0.5;stroke-dasharray:5.0,5.0;" x1="928.5" x2="928.5" y1="121.2188" y2="1004.1641"/><line style="stroke:#181818;stroke-width:0.5;stroke-dasharray:5.0,5.0;" x1="1754.5" x2="1754.5" y1="121.2188" y2="1004.1641"/><line style="stroke:#181818;stroke-width:0.5;stroke-dasharray:5.0,5.0;" x1="1931.5" x2="1931.5" y1="121.2188" y2="1004.1641"/><line style="stroke:#181818;stroke-width:0.5;stroke-dasharray:5.0,5.0;" x1="2038.5" x2="2038.5" y1="121.2188" y2="1004.1641"/><line style="stroke:#181818;stroke-width:0.5;stroke-dasharray:5.0,5.0;" x1="2158.5" x2="2158.5" y1="121.2188" y2="1004.1641"/><line style="stroke:#181818;stroke-width:0.5;stroke-dasharray:5.0,5.0;" x1="2295.5" x2="2295.5" y1="121.2188" y2="1004.1641"/><line style="stroke:#181818;stroke-width:0.5;stroke-dasharray:5.0,5.0;" x1="2402.5" x2="2402.5" y1="121.2188" y2="1004.1641"/><line style="stroke:#181818;stroke-width:0.5;stroke-dasharray:5.0,5.0;" x1="2497.5" x2="2497.5" y1="121.2188" y2="1004.1641"/><text fill="#000000" font-family="sans-serif" font-size="14" lengthAdjust="spacing" textLength="284" x="5" y="118.1426">Vehicle and Equipment Fleet Manager (VFM)</text><ellipse cx="150" cy="52.1094" fill="#E3E3E3" rx="8" ry="8" style="stroke:#181818;stroke-width:0.5;"/><path d="M150,60.1094 L150,87.1094 M137,68.1094 L163,68.1094 M150,87.1094 L137,102.1094 M150,87.1094 L163,102.1094 " fill="none" style="stroke:#181818;stroke-width:0.5;"/><text fill="#000000" font-family="sans-serif" font-size="14" lengthAdjust="spacing" textLength="284" x="5" y="1017.6973">Vehicle and Equipment Fleet Manager (VFM)</text><ellipse cx="150" cy="1029.2734" fill="#E3E3E3" rx="8" ry="8" style="stroke:#181818;stroke-width:0.5;"/><path d="M150,1037.2734 L150,1064.2734 M137,1045.2734 L163,1045.2734 M150,1064.2734 L137,1079.2734 M150,1064.2734 L163,1079.2734 " fill="none" style="stroke:#181818;stroke-width:0.5;"/><rect fill="#E3E3E3" height="31.6094" rx="2.5" ry="2.5" style="stroke:#181818;stroke-width:0.5;" width="129" x="864.5" y="88.6094"/><text fill="#000000" font-family="sans-serif" font-size="14" lengthAdjust="spacing" textLength="115" x="871.5" y="110.1426">:RegisterVehicleUI</text><rect fill="#E3E3E3" height="31.6094" rx="2.5" ry="2.5" style="stroke:#181818;stroke-width:0.5;" width="129" x="864.5" y="1003.1641"/><text fill="#000000" font-family="sans-serif" font-size="14" lengthAdjust="spacing" textLength="115" x="871.5" y="1024.6973">:RegisterVehicleUI</text><rect fill="#E3E3E3" height="31.6094" rx="2.5" ry="2.5" style="stroke:#181818;stroke-width:0.5;" width="179" x="1665.5" y="88.6094"/><text fill="#000000" font-family="sans-serif" font-size="14" lengthAdjust="spacing" textLength="165" x="1672.5" y="110.1426">:RegisterVehicleController</text><rect fill="#E3E3E3" height="31.6094" rx="2.5" ry="2.5" style="stroke:#181818;stroke-width:0.5;" width="179" x="1665.5" y="1003.1641"/><text fill="#000000" font-family="sans-serif" font-size="14" lengthAdjust="spacing" textLength="165" x="1672.5" y="1024.6973">:RegisterVehicleController</text><rect fill="#E3E3E3" height="31.6094" rx="2.5" ry="2.5" style="stroke:#181818;stroke-width:0.5;" width="97" x="1883.5" y="88.6094"/><text fill="#000000" font-family="sans-serif" font-size="14" lengthAdjust="spacing" textLength="83" x="1890.5" y="110.1426">:Repositories</text><rect fill="#E3E3E3" height="31.6094" rx="2.5" ry="2.5" style="stroke:#181818;stroke-width:0.5;" width="97" x="1883.5" y="1003.1641"/><text fill="#000000" font-family="sans-serif" font-size="14" lengthAdjust="spacing" textLength="83" x="1890.5" y="1024.6973">:Repositories</text><rect fill="#E3E3E3" height="49.2188" rx="2.5" ry="2.5" style="stroke:#181818;stroke-width:0.5;" width="97" x="1990.5" y="71"/><text fill="#000000" font-family="sans-serif" font-size="14" lengthAdjust="spacing" textLength="74" x="2002" y="92.5332">repositories</text><text fill="#000000" font-family="sans-serif" font-size="14" lengthAdjust="spacing" textLength="83" x="1997.5" y="110.1426">:Repositories</text><rect fill="#E3E3E3" height="49.2188" rx="2.5" ry="2.5" style="stroke:#181818;stroke-width:0.5;" width="97" x="1990.5" y="1003.1641"/><text fill="#000000" font-family="sans-serif" font-size="14" lengthAdjust="spacing" textLength="74" x="2002" y="1024.6973">repositories</text><text fill="#000000" font-family="sans-serif" font-size="14" lengthAdjust="spacing" textLength="83" x="1997.5" y="1042.3066">:Repositories</text><rect fill="#E3E3E3" height="49.2188" rx="2.5" ry="2.5" style="stroke:#181818;stroke-width:0.5;" width="123" x="2097.5" y="71"/><text fill="#000000" font-family="sans-serif" font-size="14" lengthAdjust="spacing" textLength="109" x="2104.5" y="92.5332">brandRepository:</text><text fill="#000000" font-family="sans-serif" font-size="14" lengthAdjust="spacing" textLength="106" x="2106" y="110.1426">BrandRepository</text><rect fill="#E3E3E3" height="49.2188" rx="2.5" ry="2.5" style="stroke:#181818;stroke-width:0.5;" width="123" x="2097.5" y="1003.1641"/><text fill="#000000" font-family="sans-serif" font-size="14" lengthAdjust="spacing" textLength="109" x="2104.5" y="1024.6973">brandRepository:</text><text fill="#000000" font-family="sans-serif" font-size="14" lengthAdjust="spacing" textLength="106" x="2106" y="1042.3066">BrandRepository</text><rect fill="#E3E3E3" height="49.2188" rx="2.5" ry="2.5" style="stroke:#181818;stroke-width:0.5;" width="130" x="2230.5" y="71"/><text fill="#000000" font-family="sans-serif" font-size="14" lengthAdjust="spacing" textLength="116" x="2237.5" y="92.5332">vehicleRepository:</text><text fill="#000000" font-family="sans-serif" font-size="14" lengthAdjust="spacing" textLength="114" x="2238.5" y="110.1426">VehicleRepository</text><rect fill="#E3E3E3" height="49.2188" rx="2.5" ry="2.5" style="stroke:#181818;stroke-width:0.5;" width="130" x="2230.5" y="1003.1641"/><text fill="#000000" font-family="sans-serif" font-size="14" lengthAdjust="spacing" textLength="116" x="2237.5" y="1024.6973">vehicleRepository:</text><text fill="#000000" font-family="sans-serif" font-size="14" lengthAdjust="spacing" textLength="114" x="2238.5" y="1042.3066">VehicleRepository</text><rect fill="#E3E3E3" height="49.2188" rx="2.5" ry="2.5" style="stroke:#181818;stroke-width:0.5;" width="64" x="2370.5" y="71"/><text fill="#000000" font-family="sans-serif" font-size="14" lengthAdjust="spacing" textLength="44" x="2380.5" y="92.5332">vehicle</text><text fill="#000000" font-family="sans-serif" font-size="14" lengthAdjust="spacing" textLength="50" x="2377.5" y="110.1426">:Vehicle</text><rect fill="#E3E3E3" height="49.2188" rx="2.5" ry="2.5" style="stroke:#181818;stroke-width:0.5;" width="64" x="2370.5" y="1003.1641"/><text fill="#000000" font-family="sans-serif" font-size="14" lengthAdjust="spacing" textLength="44" x="2380.5" y="1024.6973">vehicle</text><text fill="#000000" font-family="sans-serif" font-size="14" lengthAdjust="spacing" textLength="50" x="2377.5" y="1042.3066">:Vehicle</text><rect fill="#E3E3E3" height="31.6094" rx="2.5" ry="2.5" style="stroke:#181818;stroke-width:0.5;" width="107" x="2444.5" y="88.6094"/><text fill="#000000" font-family="sans-serif" font-size="14" lengthAdjust="spacing" textLength="93" x="2451.5" y="110.1426">SkillRepository</text><rect fill="#E3E3E3" height="31.6094" rx="2.5" ry="2.5" style="stroke:#181818;stroke-width:0.5;" width="107" x="2444.5" y="1003.1641"/><text fill="#000000" font-family="sans-serif" font-size="14" lengthAdjust="spacing" textLength="93" x="2451.5" y="1024.6973">SkillRepository</text><rect fill="#FFFFFF" height="854.9453" style="stroke:#181818;stroke-width:1.0;" width="10" x="145" y="131.2188"/><rect fill="#FFFFFF" height="30.3516" style="stroke:#181818;stroke-width:1.0;" width="10" x="924" y="153.5703"/><rect fill="#FFFFFF" height="368.3516" style="stroke:#181818;stroke-width:1.0;" width="10" x="924" y="214.2734"/><rect fill="#FFFFFF" height="30.3516" style="stroke:#181818;stroke-width:1.0;" width="10" x="924" y="612.9766"/><rect fill="#FFFFFF" height="312.4844" style="stroke:#181818;stroke-width:1.0;" width="10" x="924" y="673.6797"/><rect fill="#FFFFFF" height="185.4063" style="stroke:#181818;stroke-width:1.0;" width="10" x="1750" y="244.625"/><rect fill="#FFFFFF" height="41.3516" style="stroke:#181818;stroke-width:1.0;" width="10" x="1755" y="351.3281"/><rect fill="#FFFFFF" height="91.8906" style="stroke:#181818;stroke-width:1.0;" width="10" x="1750" y="460.3828"/><rect fill="#FFFFFF" height="251.7813" style="stroke:#181818;stroke-width:1.0;" width="10" x="1750" y="704.0313"/><polygon fill="#181818" points="912,149.5703,922,153.5703,912,157.5703,916,153.5703" style="stroke:#181818;stroke-width:1.0;"/><line style="stroke:#181818;stroke-width:1.0;" x1="155" x2="918" y1="153.5703" y2="153.5703"/><text fill="#000000" font-family="sans-serif" font-size="13" font-weight="bold" lengthAdjust="spacing" textLength="7" x="162" y="148.7139">1</text><text fill="#000000" font-family="sans-serif" font-size="13" lengthAdjust="spacing" textLength="166" x="173" y="148.7139">requests to register a vehicle</text><polygon fill="#181818" points="166,179.9219,156,183.9219,166,187.9219,162,183.9219" style="stroke:#181818;stroke-width:1.0;"/><line style="stroke:#181818;stroke-width:1.0;" x1="160" x2="928" y1="183.9219" y2="183.9219"/><text fill="#000000" font-family="sans-serif" font-size="13" font-weight="bold" lengthAdjust="spacing" textLength="7" x="172" y="179.0654">2</text><text fill="#000000" font-family="sans-serif" font-size="13" lengthAdjust="spacing" textLength="734" x="183" y="179.0654">requests vehicle data (VIN, Vehicle Platte, Tare Weight, Gross Weight, Current Km, Acquisition Date, Maintenance Frequency)</text><polygon fill="#181818" points="912,210.2734,922,214.2734,912,218.2734,916,214.2734" style="stroke:#181818;stroke-width:1.0;"/><line style="stroke:#181818;stroke-width:1.0;" x1="155" x2="918" y1="214.2734" y2="214.2734"/><text fill="#000000" font-family="sans-serif" font-size="13" font-weight="bold" lengthAdjust="spacing" textLength="7" x="162" y="209.417">3</text><text fill="#000000" font-family="sans-serif" font-size="13" lengthAdjust="spacing" textLength="104" x="173" y="209.417">types vehicle data</text><polygon fill="#181818" points="1738,240.625,1748,244.625,1738,248.625,1742,244.625" style="stroke:#181818;stroke-width:1.0;"/><line style="stroke:#181818;stroke-width:1.0;" x1="934" x2="1744" y1="244.625" y2="244.625"/><text fill="#000000" font-family="sans-serif" font-size="13" font-weight="bold" lengthAdjust="spacing" textLength="7" x="941" y="239.7686">4</text><text fill="#000000" font-family="sans-serif" font-size="13" lengthAdjust="spacing" textLength="717" x="952" y="239.7686">submitVehicleData(VIN, Vehicle Platte, Tare Weight, Gross Weight, Current Km, Acquisition Date, Maintenance Frequency)</text><line style="stroke:#181818;stroke-width:1.0;" x1="1760" x2="1802" y1="274.9766" y2="274.9766"/><line style="stroke:#181818;stroke-width:1.0;" x1="1802" x2="1802" y1="274.9766" y2="287.9766"/><line style="stroke:#181818;stroke-width:1.0;" x1="1761" x2="1802" y1="287.9766" y2="287.9766"/><polygon fill="#181818" points="1771,283.9766,1761,287.9766,1771,291.9766,1767,287.9766" style="stroke:#181818;stroke-width:1.0;"/><text fill="#000000" font-family="sans-serif" font-size="13" font-weight="bold" lengthAdjust="spacing" textLength="7" x="1767" y="270.1201">5</text><text fill="#000000" font-family="sans-serif" font-size="13" lengthAdjust="spacing" textLength="142" x="1778" y="270.1201">validateVehicleData(VIN)</text><line style="stroke:#181818;stroke-width:1.0;" x1="1760" x2="1807" y1="338.3281" y2="338.3281"/><line style="stroke:#181818;stroke-width:1.0;" x1="1807" x2="1807" y1="338.3281" y2="351.3281"/><line style="stroke:#181818;stroke-width:1.0;" x1="1766" x2="1807" y1="351.3281" y2="351.3281"/><polygon fill="#181818" points="1776,347.3281,1766,351.3281,1776,355.3281,1772,351.3281" style="stroke:#181818;stroke-width:1.0;"/><text fill="#000000" font-family="sans-serif" font-size="13" font-weight="bold" lengthAdjust="spacing" textLength="7" x="1772" y="333.4717">6</text><text fill="#000000" font-family="sans-serif" font-size="13" lengthAdjust="spacing" textLength="142" x="1783" y="333.4717">validateVehicleData(VIN)</text><line style="stroke:#181818;stroke-width:1.0;stroke-dasharray:2.0,2.0;" x1="1765" x2="1807" y1="391.6797" y2="391.6797"/><line style="stroke:#181818;stroke-width:1.0;stroke-dasharray:2.0,2.0;" x1="1807" x2="1807" y1="391.6797" y2="404.6797"/><line style="stroke:#181818;stroke-width:1.0;stroke-dasharray:2.0,2.0;" x1="1760" x2="1807" y1="404.6797" y2="404.6797"/><polygon fill="#181818" points="1770,400.6797,1760,404.6797,1770,408.6797,1766,404.6797" style="stroke:#181818;stroke-width:1.0;"/><text fill="#000000" font-family="sans-serif" font-size="13" font-weight="bold" lengthAdjust="spacing" textLength="7" x="1772" y="386.8232">7</text><text fill="#000000" font-family="sans-serif" font-size="13" lengthAdjust="spacing" textLength="4" x="1783" y="386.8232"> </text><polygon fill="#181818" points="945,426.0313,935,430.0313,945,434.0313,941,430.0313" style="stroke:#181818;stroke-width:1.0;"/><line style="stroke:#181818;stroke-width:1.0;" x1="939" x2="1754" y1="430.0313" y2="430.0313"/><text fill="#000000" font-family="sans-serif" font-size="13" font-weight="bold" lengthAdjust="spacing" textLength="7" x="951" y="425.1748">8</text><text fill="#000000" font-family="sans-serif" font-size="13" lengthAdjust="spacing" textLength="706" x="962" y="425.1748">keep vehicleData(VIN, Vehicle Platte, Tare Weight, Gross Weight, Current Km, Acquisition Date, Maintenance Frequency)</text><polygon fill="#181818" points="1738,456.3828,1748,460.3828,1738,464.3828,1742,460.3828" style="stroke:#181818;stroke-width:1.0;"/><line style="stroke:#181818;stroke-width:1.0;" x1="934" x2="1744" y1="460.3828" y2="460.3828"/><text fill="#000000" font-family="sans-serif" font-size="13" font-weight="bold" lengthAdjust="spacing" textLength="7" x="941" y="455.5264">9</text><text fill="#000000" font-family="sans-serif" font-size="13" lengthAdjust="spacing" textLength="60" x="952" y="455.5264">getBrand()</text><rect fill="none" height="56.5391" style="stroke:#000000;stroke-width:1.5;" width="185" x="1662.5" y="468.3828"/><path d="M1662.5,468.3828 L1724.5,468.3828 L1724.5,476.3828 L1714.5,486.3828 L1662.5,486.3828 L1662.5,468.3828 " fill="#EEEEEE" style="stroke:#000000;stroke-width:2.0;"/><text fill="#000000" font-family="sans-serif" font-size="13" font-weight="bold" lengthAdjust="spacing" textLength="17" x="1675.5" y="483.8779">ref</text><text fill="#000000" font-family="sans-serif" font-size="12" lengthAdjust="spacing" textLength="78" x="1716" y="502.8398">Get Brand List</text><text fill="#000000" font-family="sans-serif" font-size="12" lengthAdjust="spacing" textLength="3" x="1753.5" y="517.9336"> </text><polygon fill="#181818" points="945,548.2734,935,552.2734,945,556.2734,941,552.2734" style="stroke:#181818;stroke-width:1.0;"/><line style="stroke:#181818;stroke-width:1.0;stroke-dasharray:2.0,2.0;" x1="939" x2="1754" y1="552.2734" y2="552.2734"/><text fill="#000000" font-family="sans-serif" font-size="13" font-weight="bold" lengthAdjust="spacing" textLength="14" x="951" y="547.417">10</text><text fill="#000000" font-family="sans-serif" font-size="13" lengthAdjust="spacing" textLength="53" x="969" y="547.417">brandList</text><polygon fill="#181818" points="166,578.625,156,582.625,166,586.625,162,582.625" style="stroke:#181818;stroke-width:1.0;"/><line style="stroke:#181818;stroke-width:1.0;" x1="160" x2="928" y1="582.625" y2="582.625"/><text fill="#000000" font-family="sans-serif" font-size="13" font-weight="bold" lengthAdjust="spacing" textLength="14" x="172" y="577.7686">11</text><text fill="#000000" font-family="sans-serif" font-size="13" lengthAdjust="spacing" textLength="401" x="190" y="577.7686">show brand list and request to select more vehicleData(Brand, Model)</text><polygon fill="#181818" points="912,608.9766,922,612.9766,912,616.9766,916,612.9766" style="stroke:#181818;stroke-width:1.0;"/><line style="stroke:#181818;stroke-width:1.0;" x1="155" x2="918" y1="612.9766" y2="612.9766"/><text fill="#000000" font-family="sans-serif" font-size="13" font-weight="bold" lengthAdjust="spacing" textLength="14" x="162" y="608.1201">12</text><text fill="#000000" font-family="sans-serif" font-size="13" lengthAdjust="spacing" textLength="107" x="180" y="608.1201">select vehicle data</text><polygon fill="#181818" points="166,639.3281,156,643.3281,166,647.3281,162,643.3281" style="stroke:#181818;stroke-width:1.0;"/><line style="stroke:#181818;stroke-width:1.0;" x1="160" x2="928" y1="643.3281" y2="643.3281"/><text fill="#000000" font-family="sans-serif" font-size="13" font-weight="bold" lengthAdjust="spacing" textLength="14" x="172" y="638.4717">13</text><text fill="#000000" font-family="sans-serif" font-size="13" lengthAdjust="spacing" textLength="236" x="190" y="638.4717">shows all data and requests confirmation</text><polygon fill="#181818" points="912,669.6797,922,673.6797,912,677.6797,916,673.6797" style="stroke:#181818;stroke-width:1.0;"/><line style="stroke:#181818;stroke-width:1.0;" x1="155" x2="918" y1="673.6797" y2="673.6797"/><text fill="#000000" font-family="sans-serif" font-size="13" font-weight="bold" lengthAdjust="spacing" textLength="14" x="162" y="668.8232">14</text><text fill="#000000" font-family="sans-serif" font-size="13" lengthAdjust="spacing" textLength="68" x="180" y="668.8232">submit data</text><polygon fill="#181818" points="1738,700.0313,1748,704.0313,1738,708.0313,1742,704.0313" style="stroke:#181818;stroke-width:1.0;"/><line style="stroke:#181818;stroke-width:1.0;" x1="934" x2="1744" y1="704.0313" y2="704.0313"/><text fill="#000000" font-family="sans-serif" font-size="13" font-weight="bold" lengthAdjust="spacing" textLength="14" x="941" y="699.1748">15</text><text fill="#000000" font-family="sans-serif" font-size="13" lengthAdjust="spacing" textLength="779" x="959" y="699.1748">registerVehicle(VIN, Brand, Model, Vehicle Platte, Tare Weight, Gross Weight, Current Km, Acquisition Date, Maintenance Frequency)</text><rect fill="none" height="56.5391" style="stroke:#000000;stroke-width:1.5;" width="185" x="1662.5" y="742.0313"/><path d="M1662.5,742.0313 L1724.5,742.0313 L1724.5,750.0313 L1714.5,760.0313 L1662.5,760.0313 L1662.5,742.0313 " fill="#EEEEEE" style="stroke:#000000;stroke-width:2.0;"/><text fill="#000000" font-family="sans-serif" font-size="13" font-weight="bold" lengthAdjust="spacing" textLength="17" x="1675.5" y="757.5264">ref</text><text fill="#000000" font-family="sans-serif" font-size="12" lengthAdjust="spacing" textLength="107" x="1701.5" y="776.4883">Get Model By Brand</text><text fill="#000000" font-family="sans-serif" font-size="12" lengthAdjust="spacing" textLength="3" x="1753.5" y="791.582"> </text><line style="stroke:#181818;stroke-width:1.0;stroke-dasharray:2.0,2.0;" x1="1760" x2="1802" y1="830.9219" y2="830.9219"/><line style="stroke:#181818;stroke-width:1.0;stroke-dasharray:2.0,2.0;" x1="1802" x2="1802" y1="830.9219" y2="843.9219"/><line style="stroke:#181818;stroke-width:1.0;stroke-dasharray:2.0,2.0;" x1="1755" x2="1802" y1="843.9219" y2="843.9219"/><polygon fill="#181818" points="1765,839.9219,1755,843.9219,1765,847.9219,1761,843.9219" style="stroke:#181818;stroke-width:1.0;"/><text fill="#000000" font-family="sans-serif" font-size="13" font-weight="bold" lengthAdjust="spacing" textLength="14" x="1767" y="826.0654">16</text><text fill="#000000" font-family="sans-serif" font-size="13" lengthAdjust="spacing" textLength="40" x="1785" y="826.0654">(brand)</text><rect fill="none" height="56.5391" style="stroke:#000000;stroke-width:1.5;" width="185" x="1662.5" y="871.9219"/><path d="M1662.5,871.9219 L1724.5,871.9219 L1724.5,879.9219 L1714.5,889.9219 L1662.5,889.9219 L1662.5,871.9219 " fill="#EEEEEE" style="stroke:#000000;stroke-width:2.0;"/><text fill="#000000" font-family="sans-serif" font-size="13" font-weight="bold" lengthAdjust="spacing" textLength="17" x="1675.5" y="887.417">ref</text><text fill="#000000" font-family="sans-serif" font-size="12" lengthAdjust="spacing" textLength="112" x="1699" y="906.3789">Get Register Vehicle</text><text fill="#000000" font-family="sans-serif" font-size="12" lengthAdjust="spacing" textLength="3" x="1753.5" y="921.4727"> </text><polygon fill="#181818" points="945,951.8125,935,955.8125,945,959.8125,941,955.8125" style="stroke:#181818;stroke-width:1.0;"/><line style="stroke:#181818;stroke-width:1.0;" x1="939" x2="1754" y1="955.8125" y2="955.8125"/><text fill="#000000" font-family="sans-serif" font-size="13" font-weight="bold" lengthAdjust="spacing" textLength="14" x="951" y="950.9561">17</text><text fill="#000000" font-family="sans-serif" font-size="13" lengthAdjust="spacing" textLength="39" x="969" y="950.9561">vehicle</text><polygon fill="#181818" points="161,982.1641,151,986.1641,161,990.1641,157,986.1641" style="stroke:#181818;stroke-width:1.0;"/><line style="stroke:#181818;stroke-width:1.0;stroke-dasharray:2.0,2.0;" x1="155" x2="928" y1="986.1641" y2="986.1641"/><text fill="#000000" font-family="sans-serif" font-size="13" font-weight="bold" lengthAdjust="spacing" textLength="14" x="167" y="981.3076">18</text><text fill="#000000" font-family="sans-serif" font-size="13" lengthAdjust="spacing" textLength="177" x="185" y="981.3076">shows success/error message</text><!--SRC=[nLPDR-8m4BtxLunwMP2ejgSzS5YffHz22wkgQRkNNamOWeLZfxP35wa_ViTEe7785hg7hazXCk_nvjEnAw4ARdWEkLOwNHgT8pXJ8hExDmLFLpp3n6qaWi7KSPN9feDTyhb-4Ig31PSM6NF2aMkoiGvpIF2vH9KYN0gUUVTUabpsuHJkC1FaOU0Hbo8bGEyXEJlxrcUCbqwhCf-XOUpBKimH5bgxcVxDUEgqWPCjWgivN3sNeiXHERYMY0wcN95Q0xt7wsd_1BW5Uc2ar8bK59pyJeRRlwvv7iR1xs7yljj8AsUqb6Y2- -Z-Rh87ABGL956W3JuxmoOHFciKLmmn3SIJsYUudPpVnuYPeQZVU8TFwYAs15pB5bEigtWYaiUshKfTszf9HC9hnmfqDMQ-KcBD7ORiCw133t3wdR8CGseZQWhhB3XDptKVSAZvWlkEWCeI3FuGc2WyKuEZHi6SEqvb7_ySx5hgLdBdS03tt23yGf4jtG1kZBPszsjK6kExvqS-WFEKcea25Lh19VV0AHVAeUA-WQzDrSgRVj0pnps9pH3Tfi1Osw6mV4CHq9QpNBWw0bB1Fo-aI63exvtPdo3mJUYQIq5nOKjgFmQzlhx-4qaJ4sk2rgaOQyheRQD4SJHR4Q5IAyHYMwZFp_TVDKPDaQ4B8zqxN2Y32z1hcgVEPFbpGsioiC649e_j-I2z8PQkuczp5hPGGByRHtDUxLA_L3YG10pBkvvXlmOiIhfRw1wYD3UB4OHI5lKSvL63LnDzPFBU15hWKbQRfA7FGghLGfYS-xeU9I8CyKV6tiINJTM4pU3__meuhhE2MBZOLEAFxAv6EfELaB9nux3kGQUKzK8tTUoRo71OTJk2zfS9UnVL6S-7OukMqZ2w2GzkYLO7sp9DqTglQ0nzBENqI1z4NKtR-EblwJy0]--></g></svg>