<?xml version="1.0" encoding="UTF-8" standalone="no"?><svg xmlns="http://www.w3.org/2000/svg" xmlns:xlink="http://www.w3.org/1999/xlink" contentStyleType="text/css" height="935px" preserveAspectRatio="none" style="width:813px;height:935px;background:#FFFFFF;" version="1.1" viewBox="0 0 813 935" width="813px" zoomAndPan="magnify"><defs/><g><!--class RegisterVehicleUI--><g id="elem_RegisterVehicleUI"><rect codeLine="6" fill="#F1F1F1" height="48" id="RegisterVehicleUI" rx="2.5" ry="2.5" style="stroke:#181818;stroke-width:0.5;" width="143" x="335" y="7"/><ellipse cx="350" cy="23" fill="#ADD1B2" rx="11" ry="11" style="stroke:#181818;stroke-width:1.0;"/><path d="M352.7656,18.875 Q352.9219,18.6563 353.1094,18.5469 Q353.2969,18.4375 353.5156,18.4375 Q353.8906,18.4375 354.125,18.7031 Q354.3594,18.9531 354.3594,19.5625 L354.3594,21.0156 Q354.3594,21.625 354.125,21.8906 Q353.8906,22.1563 353.5156,22.1563 Q353.1719,22.1563 352.9688,21.9531 Q352.7656,21.7656 352.6563,21.25 Q352.6094,20.8906 352.4219,20.7031 Q352.0938,20.3281 351.4844,20.1094 Q350.875,19.8906 350.25,19.8906 Q349.4844,19.8906 348.8438,20.2188 Q348.2188,20.5469 347.7188,21.2969 Q347.2344,22.0469 347.2344,23.0781 L347.2344,24.1719 Q347.2344,25.4063 348.125,26.2344 Q349.0156,27.0469 350.6094,27.0469 Q351.5469,27.0469 352.2031,26.7969 Q352.5938,26.6406 353.0156,26.2031 Q353.2813,25.9375 353.4219,25.8594 Q353.5781,25.7813 353.7813,25.7813 Q354.1094,25.7813 354.3594,26.0469 Q354.625,26.2969 354.625,26.6406 Q354.625,26.9844 354.2813,27.3906 Q353.7813,27.9688 352.9844,28.2969 Q351.9063,28.75 350.6094,28.75 Q349.0938,28.75 347.8906,28.125 Q346.9063,27.625 346.2188,26.5625 Q345.5313,25.4844 345.5313,24.2031 L345.5313,23.0469 Q345.5313,21.7188 346.1406,20.5781 Q346.7656,19.4219 347.8594,18.8125 Q348.9531,18.1875 350.1875,18.1875 Q350.9219,18.1875 351.5625,18.3594 Q352.2188,18.5156 352.7656,18.875 Z " fill="#000000"/><text fill="#000000" font-family="sans-serif" font-size="14" lengthAdjust="spacing" textLength="111" x="364" y="28.7285">RegisterVehicleUI</text><line style="stroke:#181818;stroke-width:0.5;" x1="336" x2="477" y1="39" y2="39"/><line style="stroke:#181818;stroke-width:0.5;" x1="336" x2="477" y1="47" y2="47"/></g><!--class RegisterVehicleController--><g id="elem_RegisterVehicleController"><rect codeLine="9" fill="#F1F1F1" height="118.4375" id="RegisterVehicleController" rx="2.5" ry="2.5" style="stroke:#181818;stroke-width:0.5;" width="799" x="7" y="116"/><ellipse cx="321.75" cy="132" fill="#ADD1B2" rx="11" ry="11" style="stroke:#181818;stroke-width:1.0;"/><path d="M324.5156,127.875 Q324.6719,127.6563 324.8594,127.5469 Q325.0469,127.4375 325.2656,127.4375 Q325.6406,127.4375 325.875,127.7031 Q326.1094,127.9531 326.1094,128.5625 L326.1094,130.0156 Q326.1094,130.625 325.875,130.8906 Q325.6406,131.1563 325.2656,131.1563 Q324.9219,131.1563 324.7188,130.9531 Q324.5156,130.7656 324.4063,130.25 Q324.3594,129.8906 324.1719,129.7031 Q323.8438,129.3281 323.2344,129.1094 Q322.625,128.8906 322,128.8906 Q321.2344,128.8906 320.5938,129.2188 Q319.9688,129.5469 319.4688,130.2969 Q318.9844,131.0469 318.9844,132.0781 L318.9844,133.1719 Q318.9844,134.4063 319.875,135.2344 Q320.7656,136.0469 322.3594,136.0469 Q323.2969,136.0469 323.9531,135.7969 Q324.3438,135.6406 324.7656,135.2031 Q325.0313,134.9375 325.1719,134.8594 Q325.3281,134.7813 325.5313,134.7813 Q325.8594,134.7813 326.1094,135.0469 Q326.375,135.2969 326.375,135.6406 Q326.375,135.9844 326.0313,136.3906 Q325.5313,136.9688 324.7344,137.2969 Q323.6563,137.75 322.3594,137.75 Q320.8438,137.75 319.6406,137.125 Q318.6563,136.625 317.9688,135.5625 Q317.2813,134.4844 317.2813,133.2031 L317.2813,132.0469 Q317.2813,130.7188 317.8906,129.5781 Q318.5156,128.4219 319.6094,127.8125 Q320.7031,127.1875 321.9375,127.1875 Q322.6719,127.1875 323.3125,127.3594 Q323.9688,127.5156 324.5156,127.875 Z " fill="#000000"/><text fill="#000000" font-family="sans-serif" font-size="14" lengthAdjust="spacing" textLength="161" x="342.25" y="137.7285">RegisterVehicleController</text><line style="stroke:#181818;stroke-width:0.5;" x1="8" x2="805" y1="148" y2="148"/><rect fill="none" height="6" style="stroke:#C82930;stroke-width:1.0;" width="6" x="15" y="159.3047"/><text fill="#000000" font-family="sans-serif" font-size="14" lengthAdjust="spacing" textLength="238" x="27" y="166.5332">vehicleRepository : VehicleRepository</text><line style="stroke:#181818;stroke-width:0.5;" x1="8" x2="805" y1="173.6094" y2="173.6094"/><ellipse cx="18" cy="196.7188" fill="#84BE84" rx="3" ry="3" style="stroke:#038048;stroke-width:1.0;"/><text fill="#000000" font-family="sans-serif" font-size="14" lengthAdjust="spacing" textLength="559" x="27" y="192.1426">registerVehicle(VIN: String, brand: String, model: String, type: String, vehiclePlate: String,</text><text fill="#000000" font-family="sans-serif" font-size="14" lengthAdjust="spacing" textLength="773" x="27" y="209.752">tareWeight: double, grossWeight: double, currentKm: double, acquisitionDate: Date, maintenanceFrequency: int) : boolean</text><ellipse cx="18" cy="223.1328" fill="#84BE84" rx="3" ry="3" style="stroke:#038048;stroke-width:1.0;"/><text fill="#000000" font-family="sans-serif" font-size="14" lengthAdjust="spacing" textLength="270" x="27" y="227.3613">getVehicleRepository() : VehicleRepository</text></g><!--class Repositories--><g id="elem_Repositories"><rect codeLine="15" fill="#F1F1F1" height="100.8281" id="Repositories" rx="2.5" ry="2.5" style="stroke:#181818;stroke-width:0.5;" width="296" x="36.5" y="312"/><ellipse cx="140.75" cy="328" fill="#ADD1B2" rx="11" ry="11" style="stroke:#181818;stroke-width:1.0;"/><path d="M143.5156,323.875 Q143.6719,323.6563 143.8594,323.5469 Q144.0469,323.4375 144.2656,323.4375 Q144.6406,323.4375 144.875,323.7031 Q145.1094,323.9531 145.1094,324.5625 L145.1094,326.0156 Q145.1094,326.625 144.875,326.8906 Q144.6406,327.1563 144.2656,327.1563 Q143.9219,327.1563 143.7188,326.9531 Q143.5156,326.7656 143.4063,326.25 Q143.3594,325.8906 143.1719,325.7031 Q142.8438,325.3281 142.2344,325.1094 Q141.625,324.8906 141,324.8906 Q140.2344,324.8906 139.5938,325.2188 Q138.9688,325.5469 138.4688,326.2969 Q137.9844,327.0469 137.9844,328.0781 L137.9844,329.1719 Q137.9844,330.4063 138.875,331.2344 Q139.7656,332.0469 141.3594,332.0469 Q142.2969,332.0469 142.9531,331.7969 Q143.3438,331.6406 143.7656,331.2031 Q144.0313,330.9375 144.1719,330.8594 Q144.3281,330.7813 144.5313,330.7813 Q144.8594,330.7813 145.1094,331.0469 Q145.375,331.2969 145.375,331.6406 Q145.375,331.9844 145.0313,332.3906 Q144.5313,332.9688 143.7344,333.2969 Q142.6563,333.75 141.3594,333.75 Q139.8438,333.75 138.6406,333.125 Q137.6563,332.625 136.9688,331.5625 Q136.2813,330.4844 136.2813,329.2031 L136.2813,328.0469 Q136.2813,326.7188 136.8906,325.5781 Q137.5156,324.4219 138.6094,323.8125 Q139.7031,323.1875 140.9375,323.1875 Q141.6719,323.1875 142.3125,323.3594 Q142.9688,323.5156 143.5156,323.875 Z " fill="#000000"/><text fill="#000000" font-family="sans-serif" font-size="14" lengthAdjust="spacing" textLength="79" x="161.25" y="333.7285">Repositories</text><line style="stroke:#181818;stroke-width:0.5;" x1="37.5" x2="331.5" y1="344" y2="344"/><rect fill="none" height="6" style="stroke:#C82930;stroke-width:1.0;" width="6" x="44.5" y="355.3047"/><text fill="#000000" font-family="sans-serif" font-size="14" lengthAdjust="spacing" textLength="238" x="56.5" y="362.5332">vehicleRepository : VehicleRepository</text><line style="stroke:#181818;stroke-width:0.5;" x1="37.5" x2="331.5" y1="369.6094" y2="369.6094"/><ellipse cx="47.5" cy="383.9141" fill="#84BE84" rx="3" ry="3" style="stroke:#038048;stroke-width:1.0;"/><text fill="#000000" font-family="sans-serif" font-size="14" lengthAdjust="spacing" textLength="174" x="56.5" y="388.1426">getInstance() : Repositories</text><ellipse cx="47.5" cy="401.5234" fill="#84BE84" rx="3" ry="3" style="stroke:#038048;stroke-width:1.0;"/><text fill="#000000" font-family="sans-serif" font-size="14" lengthAdjust="spacing" textLength="270" x="56.5" y="405.752">getVehicleRepository() : VehicleRepository</text></g><!--class VehicleRepository--><g id="elem_VehicleRepository"><rect codeLine="21" fill="#F1F1F1" height="83.2188" id="VehicleRepository" rx="2.5" ry="2.5" style="stroke:#181818;stroke-width:0.5;" width="424" x="121.5" y="491"/><ellipse cx="272.25" cy="507" fill="#ADD1B2" rx="11" ry="11" style="stroke:#181818;stroke-width:1.0;"/><path d="M275.0156,502.875 Q275.1719,502.6563 275.3594,502.5469 Q275.5469,502.4375 275.7656,502.4375 Q276.1406,502.4375 276.375,502.7031 Q276.6094,502.9531 276.6094,503.5625 L276.6094,505.0156 Q276.6094,505.625 276.375,505.8906 Q276.1406,506.1563 275.7656,506.1563 Q275.4219,506.1563 275.2188,505.9531 Q275.0156,505.7656 274.9063,505.25 Q274.8594,504.8906 274.6719,504.7031 Q274.3438,504.3281 273.7344,504.1094 Q273.125,503.8906 272.5,503.8906 Q271.7344,503.8906 271.0938,504.2188 Q270.4688,504.5469 269.9688,505.2969 Q269.4844,506.0469 269.4844,507.0781 L269.4844,508.1719 Q269.4844,509.4063 270.375,510.2344 Q271.2656,511.0469 272.8594,511.0469 Q273.7969,511.0469 274.4531,510.7969 Q274.8438,510.6406 275.2656,510.2031 Q275.5313,509.9375 275.6719,509.8594 Q275.8281,509.7813 276.0313,509.7813 Q276.3594,509.7813 276.6094,510.0469 Q276.875,510.2969 276.875,510.6406 Q276.875,510.9844 276.5313,511.3906 Q276.0313,511.9688 275.2344,512.2969 Q274.1563,512.75 272.8594,512.75 Q271.3438,512.75 270.1406,512.125 Q269.1563,511.625 268.4688,510.5625 Q267.7813,509.4844 267.7813,508.2031 L267.7813,507.0469 Q267.7813,505.7188 268.3906,504.5781 Q269.0156,503.4219 270.1094,502.8125 Q271.2031,502.1875 272.4375,502.1875 Q273.1719,502.1875 273.8125,502.3594 Q274.4688,502.5156 275.0156,502.875 Z " fill="#000000"/><text fill="#000000" font-family="sans-serif" font-size="14" lengthAdjust="spacing" textLength="114" x="292.75" y="512.7285">VehicleRepository</text><line style="stroke:#181818;stroke-width:0.5;" x1="122.5" x2="544.5" y1="523" y2="523"/><line style="stroke:#181818;stroke-width:0.5;" x1="122.5" x2="544.5" y1="531" y2="531"/><ellipse cx="132.5" cy="545.3047" fill="#84BE84" rx="3" ry="3" style="stroke:#038048;stroke-width:1.0;"/><text fill="#000000" font-family="sans-serif" font-size="14" lengthAdjust="spacing" textLength="398" x="141.5" y="549.5332">verifyExistingVehicle(VIN: String, VehiclePlate: String) : boolean</text><ellipse cx="132.5" cy="562.9141" fill="#84BE84" rx="3" ry="3" style="stroke:#038048;stroke-width:1.0;"/><text fill="#000000" font-family="sans-serif" font-size="14" lengthAdjust="spacing" textLength="241" x="141.5" y="567.1426">addVehicle(vehicle: Vehicle) : boolean</text></g><!--class Vehicle--><g id="elem_Vehicle"><rect codeLine="26" fill="#F1F1F1" height="276.9219" id="Vehicle" rx="2.5" ry="2.5" style="stroke:#181818;stroke-width:0.5;" width="468" x="99.5" y="652"/><ellipse cx="306.25" cy="668" fill="#ADD1B2" rx="11" ry="11" style="stroke:#181818;stroke-width:1.0;"/><path d="M309.0156,663.875 Q309.1719,663.6563 309.3594,663.5469 Q309.5469,663.4375 309.7656,663.4375 Q310.1406,663.4375 310.375,663.7031 Q310.6094,663.9531 310.6094,664.5625 L310.6094,666.0156 Q310.6094,666.625 310.375,666.8906 Q310.1406,667.1563 309.7656,667.1563 Q309.4219,667.1563 309.2188,666.9531 Q309.0156,666.7656 308.9063,666.25 Q308.8594,665.8906 308.6719,665.7031 Q308.3438,665.3281 307.7344,665.1094 Q307.125,664.8906 306.5,664.8906 Q305.7344,664.8906 305.0938,665.2188 Q304.4688,665.5469 303.9688,666.2969 Q303.4844,667.0469 303.4844,668.0781 L303.4844,669.1719 Q303.4844,670.4063 304.375,671.2344 Q305.2656,672.0469 306.8594,672.0469 Q307.7969,672.0469 308.4531,671.7969 Q308.8438,671.6406 309.2656,671.2031 Q309.5313,670.9375 309.6719,670.8594 Q309.8281,670.7813 310.0313,670.7813 Q310.3594,670.7813 310.6094,671.0469 Q310.875,671.2969 310.875,671.6406 Q310.875,671.9844 310.5313,672.3906 Q310.0313,672.9688 309.2344,673.2969 Q308.1563,673.75 306.8594,673.75 Q305.3438,673.75 304.1406,673.125 Q303.1563,672.625 302.4688,671.5625 Q301.7813,670.4844 301.7813,669.2031 L301.7813,668.0469 Q301.7813,666.7188 302.3906,665.5781 Q303.0156,664.4219 304.1094,663.8125 Q305.2031,663.1875 306.4375,663.1875 Q307.1719,663.1875 307.8125,663.3594 Q308.4688,663.5156 309.0156,663.875 Z " fill="#000000"/><text fill="#000000" font-family="sans-serif" font-size="14" lengthAdjust="spacing" textLength="46" x="326.75" y="673.7285">Vehicle</text><line style="stroke:#181818;stroke-width:0.5;" x1="100.5" x2="566.5" y1="684" y2="684"/><rect fill="none" height="6" style="stroke:#C82930;stroke-width:1.0;" width="6" x="107.5" y="695.3047"/><text fill="#000000" font-family="sans-serif" font-size="14" lengthAdjust="spacing" textLength="70" x="119.5" y="702.5332">VIN : String</text><rect fill="none" height="6" style="stroke:#C82930;stroke-width:1.0;" width="6" x="107.5" y="712.9141"/><text fill="#000000" font-family="sans-serif" font-size="14" lengthAdjust="spacing" textLength="86" x="119.5" y="720.1426">brand : String</text><rect fill="none" height="6" style="stroke:#C82930;stroke-width:1.0;" width="6" x="107.5" y="730.5234"/><text fill="#000000" font-family="sans-serif" font-size="14" lengthAdjust="spacing" textLength="87" x="119.5" y="737.752">model : String</text><rect fill="none" height="6" style="stroke:#C82930;stroke-width:1.0;" width="6" x="107.5" y="748.1328"/><text fill="#000000" font-family="sans-serif" font-size="14" lengthAdjust="spacing" textLength="76" x="119.5" y="755.3613">type : String</text><rect fill="none" height="6" style="stroke:#C82930;stroke-width:1.0;" width="6" x="107.5" y="765.7422"/><text fill="#000000" font-family="sans-serif" font-size="14" lengthAdjust="spacing" textLength="125" x="119.5" y="772.9707">vehiclePlate : String</text><rect fill="none" height="6" style="stroke:#C82930;stroke-width:1.0;" width="6" x="107.5" y="783.3516"/><text fill="#000000" font-family="sans-serif" font-size="14" lengthAdjust="spacing" textLength="124" x="119.5" y="790.5801">tareWeight : double</text><rect fill="none" height="6" style="stroke:#C82930;stroke-width:1.0;" width="6" x="107.5" y="800.9609"/><text fill="#000000" font-family="sans-serif" font-size="14" lengthAdjust="spacing" textLength="134" x="119.5" y="808.1895">grossWeight : double</text><rect fill="none" height="6" style="stroke:#C82930;stroke-width:1.0;" width="6" x="107.5" y="818.5703"/><text fill="#000000" font-family="sans-serif" font-size="14" lengthAdjust="spacing" textLength="120" x="119.5" y="825.7988">currentKm : double</text><rect fill="none" height="6" style="stroke:#C82930;stroke-width:1.0;" width="6" x="107.5" y="836.1797"/><text fill="#000000" font-family="sans-serif" font-size="14" lengthAdjust="spacing" textLength="139" x="119.5" y="843.4082">acquisitionDate : Date</text><rect fill="none" height="6" style="stroke:#C82930;stroke-width:1.0;" width="6" x="107.5" y="853.7891"/><text fill="#000000" font-family="sans-serif" font-size="14" lengthAdjust="spacing" textLength="176" x="119.5" y="861.0176">maintenanceFrequency : int</text><line style="stroke:#181818;stroke-width:0.5;" x1="100.5" x2="566.5" y1="868.0938" y2="868.0938"/><ellipse cx="110.5" cy="882.3984" fill="#84BE84" rx="3" ry="3" style="stroke:#038048;stroke-width:1.0;"/><text fill="#000000" font-family="sans-serif" font-size="14" lengthAdjust="spacing" textLength="266" x="119.5" y="886.627">validateVehicle(vehicle: Vehicle) : boolean</text><ellipse cx="110.5" cy="908.8125" fill="#84BE84" rx="3" ry="3" style="stroke:#038048;stroke-width:1.0;"/><text fill="#000000" font-family="sans-serif" font-size="14" lengthAdjust="spacing" textLength="384" x="119.5" y="904.2363">Vehicle(VIN, Brand, Model, Type, Vehicle Plate, Tare Weight,</text><text fill="#000000" font-family="sans-serif" font-size="14" lengthAdjust="spacing" textLength="442" x="119.5" y="921.8457">Gross Weight, Current Km, Acquisition Date, Maintenance Frequency)</text></g><!--link RegisterVehicleUI to RegisterVehicleController--><g id="link_RegisterVehicleUI_RegisterVehicleController"><path codeLine="42" d="M406.5,55.13 C406.5,70.35 406.5,91.05 406.5,110.92 " fill="none" id="RegisterVehicleUI-to-RegisterVehicleController" style="stroke:#181818;stroke-width:1.0;stroke-dasharray:7.0,7.0;"/><polygon fill="#181818" points="406.5,115.94,410.5,106.94,406.5,110.94,402.5,106.94,406.5,115.94" style="stroke:#181818;stroke-width:1.0;"/></g><!--link RegisterVehicleController to Repositories--><g id="link_RegisterVehicleController_Repositories"><path codeLine="43" d="M336.87,234.18 C308.39,257.98 275.66,285.33 247.86,308.56 " fill="none" id="RegisterVehicleController-to-Repositories" style="stroke:#181818;stroke-width:1.0;stroke-dasharray:7.0,7.0;"/><polygon fill="#181818" points="243.8,311.95,253.2698,309.2439,247.6353,308.7421,248.1371,303.1075,243.8,311.95" style="stroke:#181818;stroke-width:1.0;"/><text fill="#000000" font-family="sans-serif" font-size="13" lengthAdjust="spacing" textLength="67" x="296.5" y="278.4951">repositories</text></g><!--link Repositories to Repositories--><g id="link_Repositories_Repositories"><path codeLine="44" d="M332.77,347.73 C353.57,350.14 367.5,355.07 367.5,362.5 C367.5,369.29 355.86,373.99 337.98,376.59 " fill="none" id="Repositories-to-Repositories" style="stroke:#181818;stroke-width:1.0;"/><polygon fill="#181818" points="332.77,377.27,342.2097,380.0793,337.7285,376.627,341.1808,372.1458,332.77,377.27" style="stroke:#181818;stroke-width:1.0;"/><text fill="#000000" font-family="sans-serif" font-size="13" lengthAdjust="spacing" textLength="49" x="373.5" y="367.9951">instance</text></g><!--link RegisterVehicleController to VehicleRepository--><g id="link_RegisterVehicleController_VehicleRepository"><path codeLine="45" d="M425.71,234.19 C438.75,283.23 450.2,354.55 429.5,413 C419.68,440.72 400.31,466.7 381.52,487.23 " fill="none" id="RegisterVehicleController-to-VehicleRepository" style="stroke:#181818;stroke-width:1.0;stroke-dasharray:7.0,7.0;"/><polygon fill="#181818" points="378.02,490.99,387.0776,487.1221,381.4244,487.3281,381.2185,481.675,378.02,490.99" style="stroke:#181818;stroke-width:1.0;"/><text fill="#000000" font-family="sans-serif" font-size="13" lengthAdjust="spacing" textLength="101" x="441.5" y="367.9951">vehicleRepository</text></g><!--link Repositories to VehicleRepository--><g id="link_Repositories_VehicleRepository"><path codeLine="46" d="M228.8,413.45 C249.48,436.77 273.89,464.29 293.94,486.9 " fill="none" id="Repositories-to-VehicleRepository" style="stroke:#181818;stroke-width:1.0;"/><polygon fill="#181818" points="297.38,490.77,294.4082,481.3802,294.0653,487.0267,288.4188,486.6838,297.38,490.77" style="stroke:#181818;stroke-width:1.0;"/><text fill="#000000" font-family="sans-serif" font-size="13" lengthAdjust="spacing" textLength="101" x="269.5" y="457.4951">vehicleRepository</text><text fill="#000000" font-family="sans-serif" font-size="13" lengthAdjust="spacing" textLength="7" x="283.8179" y="480.0396">1</text></g><!--link VehicleRepository to Vehicle--><g id="link_VehicleRepository_Vehicle"><path codeLine="47" d="M333.5,574.06 C333.5,594.22 333.5,619.92 333.5,646.49 " fill="none" id="VehicleRepository-to-Vehicle" style="stroke:#181818;stroke-width:1.0;"/><polygon fill="#181818" points="333.5,651.82,337.5,642.82,333.5,646.82,329.5,642.82,333.5,651.82" style="stroke:#181818;stroke-width:1.0;"/><text fill="#000000" font-family="sans-serif" font-size="13" lengthAdjust="spacing" textLength="39" x="334.5" y="618.4951">vehicle</text><text fill="#000000" font-family="sans-serif" font-size="13" lengthAdjust="spacing" textLength="7" x="325.9203" y="595.7745">1</text><text fill="#000000" font-family="sans-serif" font-size="13" lengthAdjust="spacing" textLength="5" x="328.3633" y="641.3053">*</text></g><!--SRC=[hLHDRzim3BtxLn2vh6cS0htwKA1hro4eEXHTbrrsKMp64Qf8gQHiCuRzzr7-a1LRMGkqFXWGANwynqUP9ovtJBCjc0qhr2ykIrWpOJ0ntYEuHB3L3c6dHELEIV91uDg2LQ1vkR5GS8svvKec2T2N2sOCF639ZKMzn0tF1NvRm9_Q-_S_bwwKj5e9WRgzxBuv_6oy3xXJXbkbAyXWERJv-pFGXrbFbeil6Norck2biD9C5lrngmeK_T41xKzjuNl1R63z8ItJ-1qTzWmAjLy9JA7KofYXCTzhZTBURdiJov_td5eckgxhjEvFVJ0kBKecSxpH-Bn7cLSPa6rAO5TA2MGoW5YY7J5mCZtAou3qriVHl8bdQc8XZNKzrxN3nE_Kw-XAqF2C6jPyNNtwJTEcoKJ7lOoCC4ufAuekGqk4xt0O46lnW4bg0RfgWRdMNinHgp3cg1SlOW-L6Otp2eLEUe4tq6hCxLKRSmxq2us0GomH9KCjvIGS7HEyeC3NKjv41IDEuQDZCuKxnrqAZyIK7pVKn92HQ806gDlRpmwtFryrCE5scy9bZwfToBiU1dWSqsxyuzVjxEpY-7EM77_echX-SJ9wle8rEbZM-NnubxVxzqA1qHfbusKVbvgSJruLE5vIYgG4azD9Lzc79Vy0]--></g></svg>