<?xml version="1.0" encoding="UTF-8" standalone="no"?><svg xmlns="http://www.w3.org/2000/svg" xmlns:xlink="http://www.w3.org/1999/xlink" contentStyleType="text/css" height="1578px" preserveAspectRatio="none" style="width:2770px;height:1578px;background:#FFFFFF;" version="1.1" viewBox="0 0 2770 1578" width="2770px" zoomAndPan="magnify"><defs/><g><rect fill="#FFFFFF" height="1385.3203" style="stroke:#181818;stroke-width:1.0;" width="10" x="145" y="92.6094"/><rect fill="#FFFFFF" height="72.9609" style="stroke:#181818;stroke-width:1.0;" width="10" x="924" y="114.9609"/><rect fill="#FFFFFF" height="488.9219" style="stroke:#181818;stroke-width:1.0;" width="10" x="924" y="218.2734"/><rect fill="#FFFFFF" height="30.3516" style="stroke:#181818;stroke-width:1.0;" width="10" x="924" y="737.5469"/><rect fill="#FFFFFF" height="679.6797" style="stroke:#181818;stroke-width:1.0;" width="10" x="924" y="798.25"/><rect fill="#FFFFFF" height="1238.3047" style="stroke:#181818;stroke-width:1.0;" width="10" x="1755" y="248.625"/><rect fill="#FFFFFF" height="151.7578" style="stroke:#181818;stroke-width:1.0;" width="10" x="1760" y="525.0859"/><rect fill="#FFFFFF" height="261.8125" style="stroke:#181818;stroke-width:1.0;" width="10" x="1760" y="828.6016"/><rect fill="#FFFFFF" height="223.4609" style="stroke:#181818;stroke-width:1.0;" width="10" x="1765" y="866.9531"/><rect fill="#FFFFFF" height="30.3516" style="stroke:#181818;stroke-width:1.0;" width="10" x="1945" y="902.3047"/><rect fill="#FFFFFF" height="30.3516" style="stroke:#181818;stroke-width:1.0;" width="10" x="2052" y="555.4375"/><rect fill="#FFFFFF" height="30.3516" style="stroke:#181818;stroke-width:1.0;" width="10" x="2052" y="963.0078"/><rect fill="#FFFFFF" height="30.3516" style="stroke:#181818;stroke-width:1.0;" width="10" x="2172" y="616.1406"/><rect fill="#FFFFFF" height="30.3516" style="stroke:#181818;stroke-width:1.0;" width="10" x="2172" y="1023.7109"/><rect fill="#FFFFFF" height="30.3516" style="stroke:#181818;stroke-width:1.0;" width="10" x="2308.5" y="1386.875"/><rect fill="#FFFFFF" height="185.4063" style="stroke:#181818;stroke-width:1.0;" width="10" x="2581" y="278.9766"/><rect fill="#FFFFFF" height="41.3516" style="stroke:#181818;stroke-width:1.0;" width="10" x="2586" y="385.6797"/><rect fill="#FFFFFF" height="203.7578" style="stroke:#181818;stroke-width:1.0;" width="10" x="2581" y="1152.7656"/><rect fill="#FFFFFF" height="128.0547" style="stroke:#181818;stroke-width:1.0;" width="10" x="2586" y="1191.1172"/><rect fill="#FFFFFF" height="41.3516" style="stroke:#181818;stroke-width:1.0;" width="10" x="2591" y="1234.4688"/><line style="stroke:#181818;stroke-width:0.5;stroke-dasharray:5.0,5.0;" x1="150" x2="150" y1="82.6094" y2="1495.9297"/><line style="stroke:#181818;stroke-width:0.5;stroke-dasharray:5.0,5.0;" x1="928.5" x2="928.5" y1="82.6094" y2="1495.9297"/><line style="stroke:#181818;stroke-width:0.5;stroke-dasharray:5.0,5.0;" x1="1759.5" x2="1759.5" y1="154.2656" y2="1495.9297"/><line style="stroke:#181818;stroke-width:0.5;stroke-dasharray:5.0,5.0;" x1="1949.5" x2="1949.5" y1="82.6094" y2="1495.9297"/><line style="stroke:#181818;stroke-width:0.5;stroke-dasharray:5.0,5.0;" x1="2056.5" x2="2056.5" y1="82.6094" y2="1495.9297"/><line style="stroke:#181818;stroke-width:0.5;stroke-dasharray:5.0,5.0;" x1="2176.5" x2="2176.5" y1="82.6094" y2="1495.9297"/><line style="stroke:#181818;stroke-width:0.5;stroke-dasharray:5.0,5.0;" x1="2313.5" x2="2313.5" y1="82.6094" y2="1495.9297"/><line style="stroke:#181818;stroke-width:0.5;stroke-dasharray:5.0,5.0;" x1="2586" x2="2586" y1="82.6094" y2="1495.9297"/><text fill="#000000" font-family="sans-serif" font-size="14" lengthAdjust="spacing" textLength="284" x="5" y="79.5332">Vehicle and Equipment Fleet Manager (VFM)</text><ellipse cx="150" cy="13.5" fill="#E3E3E3" rx="8" ry="8" style="stroke:#181818;stroke-width:0.5;"/><path d="M150,21.5 L150,48.5 M137,29.5 L163,29.5 M150,48.5 L137,63.5 M150,48.5 L163,63.5 " fill="none" style="stroke:#181818;stroke-width:0.5;"/><text fill="#000000" font-family="sans-serif" font-size="14" lengthAdjust="spacing" textLength="284" x="5" y="1509.4629">Vehicle and Equipment Fleet Manager (VFM)</text><ellipse cx="150" cy="1521.0391" fill="#E3E3E3" rx="8" ry="8" style="stroke:#181818;stroke-width:0.5;"/><path d="M150,1529.0391 L150,1556.0391 M137,1537.0391 L163,1537.0391 M150,1556.0391 L137,1571.0391 M150,1556.0391 L163,1571.0391 " fill="none" style="stroke:#181818;stroke-width:0.5;"/><rect fill="#E3E3E3" height="31.6094" rx="2.5" ry="2.5" style="stroke:#181818;stroke-width:0.5;" width="129" x="864.5" y="50"/><text fill="#000000" font-family="sans-serif" font-size="14" lengthAdjust="spacing" textLength="115" x="871.5" y="71.5332">:RegisterVehicleUI</text><rect fill="#E3E3E3" height="31.6094" rx="2.5" ry="2.5" style="stroke:#181818;stroke-width:0.5;" width="129" x="864.5" y="1494.9297"/><text fill="#000000" font-family="sans-serif" font-size="14" lengthAdjust="spacing" textLength="115" x="871.5" y="1516.4629">:RegisterVehicleUI</text><rect fill="#E3E3E3" height="31.6094" rx="2.5" ry="2.5" style="stroke:#181818;stroke-width:0.5;" width="179" x="1670.5" y="1494.9297"/><text fill="#000000" font-family="sans-serif" font-size="14" lengthAdjust="spacing" textLength="165" x="1677.5" y="1516.4629">:RegisterVehicleController</text><rect fill="#E3E3E3" height="31.6094" rx="2.5" ry="2.5" style="stroke:#181818;stroke-width:0.5;" width="97" x="1901.5" y="50"/><text fill="#000000" font-family="sans-serif" font-size="14" lengthAdjust="spacing" textLength="83" x="1908.5" y="71.5332">:Repositories</text><rect fill="#E3E3E3" height="31.6094" rx="2.5" ry="2.5" style="stroke:#181818;stroke-width:0.5;" width="97" x="1901.5" y="1494.9297"/><text fill="#000000" font-family="sans-serif" font-size="14" lengthAdjust="spacing" textLength="83" x="1908.5" y="1516.4629">:Repositories</text><rect fill="#E3E3E3" height="49.2188" rx="2.5" ry="2.5" style="stroke:#181818;stroke-width:0.5;" width="97" x="2008.5" y="32.3906"/><text fill="#000000" font-family="sans-serif" font-size="14" lengthAdjust="spacing" textLength="74" x="2020" y="53.9238">repositories</text><text fill="#000000" font-family="sans-serif" font-size="14" lengthAdjust="spacing" textLength="83" x="2015.5" y="71.5332">:Repositories</text><rect fill="#E3E3E3" height="49.2188" rx="2.5" ry="2.5" style="stroke:#181818;stroke-width:0.5;" width="97" x="2008.5" y="1494.9297"/><text fill="#000000" font-family="sans-serif" font-size="14" lengthAdjust="spacing" textLength="74" x="2020" y="1516.4629">repositories</text><text fill="#000000" font-family="sans-serif" font-size="14" lengthAdjust="spacing" textLength="83" x="2015.5" y="1534.0723">:Repositories</text><rect fill="#E3E3E3" height="49.2188" rx="2.5" ry="2.5" style="stroke:#181818;stroke-width:0.5;" width="123" x="2115.5" y="32.3906"/><text fill="#000000" font-family="sans-serif" font-size="14" lengthAdjust="spacing" textLength="109" x="2122.5" y="53.9238">brandRepository:</text><text fill="#000000" font-family="sans-serif" font-size="14" lengthAdjust="spacing" textLength="106" x="2124" y="71.5332">BrandRepository</text><rect fill="#E3E3E3" height="49.2188" rx="2.5" ry="2.5" style="stroke:#181818;stroke-width:0.5;" width="123" x="2115.5" y="1494.9297"/><text fill="#000000" font-family="sans-serif" font-size="14" lengthAdjust="spacing" textLength="109" x="2122.5" y="1516.4629">brandRepository:</text><text fill="#000000" font-family="sans-serif" font-size="14" lengthAdjust="spacing" textLength="106" x="2124" y="1534.0723">BrandRepository</text><rect fill="#E3E3E3" height="49.2188" rx="2.5" ry="2.5" style="stroke:#181818;stroke-width:0.5;" width="130" x="2248.5" y="32.3906"/><text fill="#000000" font-family="sans-serif" font-size="14" lengthAdjust="spacing" textLength="116" x="2255.5" y="53.9238">vehicleRepository:</text><text fill="#000000" font-family="sans-serif" font-size="14" lengthAdjust="spacing" textLength="114" x="2256.5" y="71.5332">VehicleRepository</text><rect fill="#E3E3E3" height="49.2188" rx="2.5" ry="2.5" style="stroke:#181818;stroke-width:0.5;" width="130" x="2248.5" y="1494.9297"/><text fill="#000000" font-family="sans-serif" font-size="14" lengthAdjust="spacing" textLength="116" x="2255.5" y="1516.4629">vehicleRepository:</text><text fill="#000000" font-family="sans-serif" font-size="14" lengthAdjust="spacing" textLength="114" x="2256.5" y="1534.0723">VehicleRepository</text><rect fill="#E3E3E3" height="49.2188" rx="2.5" ry="2.5" style="stroke:#181818;stroke-width:0.5;" width="64" x="2554" y="32.3906"/><text fill="#000000" font-family="sans-serif" font-size="14" lengthAdjust="spacing" textLength="44" x="2564" y="53.9238">vehicle</text><text fill="#000000" font-family="sans-serif" font-size="14" lengthAdjust="spacing" textLength="50" x="2561" y="71.5332">:Vehicle</text><rect fill="#E3E3E3" height="49.2188" rx="2.5" ry="2.5" style="stroke:#181818;stroke-width:0.5;" width="64" x="2554" y="1494.9297"/><text fill="#000000" font-family="sans-serif" font-size="14" lengthAdjust="spacing" textLength="44" x="2564" y="1516.4629">vehicle</text><text fill="#000000" font-family="sans-serif" font-size="14" lengthAdjust="spacing" textLength="50" x="2561" y="1534.0723">:Vehicle</text><rect fill="#FFFFFF" height="1385.3203" style="stroke:#181818;stroke-width:1.0;" width="10" x="145" y="92.6094"/><rect fill="#FFFFFF" height="72.9609" style="stroke:#181818;stroke-width:1.0;" width="10" x="924" y="114.9609"/><rect fill="#FFFFFF" height="488.9219" style="stroke:#181818;stroke-width:1.0;" width="10" x="924" y="218.2734"/><rect fill="#FFFFFF" height="30.3516" style="stroke:#181818;stroke-width:1.0;" width="10" x="924" y="737.5469"/><rect fill="#FFFFFF" height="679.6797" style="stroke:#181818;stroke-width:1.0;" width="10" x="924" y="798.25"/><rect fill="#FFFFFF" height="1238.3047" style="stroke:#181818;stroke-width:1.0;" width="10" x="1755" y="248.625"/><rect fill="#FFFFFF" height="151.7578" style="stroke:#181818;stroke-width:1.0;" width="10" x="1760" y="525.0859"/><rect fill="#FFFFFF" height="261.8125" style="stroke:#181818;stroke-width:1.0;" width="10" x="1760" y="828.6016"/><rect fill="#FFFFFF" height="223.4609" style="stroke:#181818;stroke-width:1.0;" width="10" x="1765" y="866.9531"/><rect fill="#FFFFFF" height="30.3516" style="stroke:#181818;stroke-width:1.0;" width="10" x="1945" y="902.3047"/><rect fill="#FFFFFF" height="30.3516" style="stroke:#181818;stroke-width:1.0;" width="10" x="2052" y="555.4375"/><rect fill="#FFFFFF" height="30.3516" style="stroke:#181818;stroke-width:1.0;" width="10" x="2052" y="963.0078"/><rect fill="#FFFFFF" height="30.3516" style="stroke:#181818;stroke-width:1.0;" width="10" x="2172" y="616.1406"/><rect fill="#FFFFFF" height="30.3516" style="stroke:#181818;stroke-width:1.0;" width="10" x="2172" y="1023.7109"/><rect fill="#FFFFFF" height="30.3516" style="stroke:#181818;stroke-width:1.0;" width="10" x="2308.5" y="1386.875"/><rect fill="#FFFFFF" height="185.4063" style="stroke:#181818;stroke-width:1.0;" width="10" x="2581" y="278.9766"/><rect fill="#FFFFFF" height="41.3516" style="stroke:#181818;stroke-width:1.0;" width="10" x="2586" y="385.6797"/><rect fill="#FFFFFF" height="203.7578" style="stroke:#181818;stroke-width:1.0;" width="10" x="2581" y="1152.7656"/><rect fill="#FFFFFF" height="128.0547" style="stroke:#181818;stroke-width:1.0;" width="10" x="2586" y="1191.1172"/><rect fill="#FFFFFF" height="41.3516" style="stroke:#181818;stroke-width:1.0;" width="10" x="2591" y="1234.4688"/><polygon fill="#181818" points="912,110.9609,922,114.9609,912,118.9609,916,114.9609" style="stroke:#181818;stroke-width:1.0;"/><line style="stroke:#181818;stroke-width:1.0;" x1="155" x2="918" y1="114.9609" y2="114.9609"/><text fill="#000000" font-family="sans-serif" font-size="13" font-weight="bold" lengthAdjust="spacing" textLength="7" x="162" y="110.1045">1</text><text fill="#000000" font-family="sans-serif" font-size="13" lengthAdjust="spacing" textLength="166" x="173" y="110.1045">requests to register a vehicle</text><polygon fill="#181818" points="1658.5,141.3125,1668.5,145.3125,1658.5,149.3125,1662.5,145.3125" style="stroke:#181818;stroke-width:1.0;"/><line style="stroke:#181818;stroke-width:1.0;" x1="934" x2="1664.5" y1="145.3125" y2="145.3125"/><text fill="#000000" font-family="sans-serif" font-size="13" font-weight="bold" lengthAdjust="spacing" textLength="7" x="941" y="140.4561">2</text><text fill="#000000" font-family="sans-serif" font-size="13" lengthAdjust="spacing" textLength="36" x="952" y="140.4561">create</text><rect fill="#E3E3E3" height="31.6094" rx="2.5" ry="2.5" style="stroke:#181818;stroke-width:0.5;" width="179" x="1670.5" y="122.9609"/><text fill="#000000" font-family="sans-serif" font-size="14" lengthAdjust="spacing" textLength="165" x="1677.5" y="144.4941">:RegisterVehicleController</text><polygon fill="#181818" points="166,183.9219,156,187.9219,166,191.9219,162,187.9219" style="stroke:#181818;stroke-width:1.0;"/><line style="stroke:#181818;stroke-width:1.0;" x1="160" x2="928" y1="187.9219" y2="187.9219"/><text fill="#000000" font-family="sans-serif" font-size="13" font-weight="bold" lengthAdjust="spacing" textLength="7" x="172" y="183.0654">3</text><text fill="#000000" font-family="sans-serif" font-size="13" lengthAdjust="spacing" textLength="734" x="183" y="183.0654">requests vehicle data (VIN, Vehicle Platte, Tare Weight, Gross Weight, Current Km, Acquisition Date, Maintenance Frequency)</text><polygon fill="#181818" points="912,214.2734,922,218.2734,912,222.2734,916,218.2734" style="stroke:#181818;stroke-width:1.0;"/><line style="stroke:#181818;stroke-width:1.0;" x1="155" x2="918" y1="218.2734" y2="218.2734"/><text fill="#000000" font-family="sans-serif" font-size="13" font-weight="bold" lengthAdjust="spacing" textLength="7" x="162" y="213.417">4</text><text fill="#000000" font-family="sans-serif" font-size="13" lengthAdjust="spacing" textLength="104" x="173" y="213.417">types vehicle data</text><polygon fill="#181818" points="1743,244.625,1753,248.625,1743,252.625,1747,248.625" style="stroke:#181818;stroke-width:1.0;"/><line style="stroke:#181818;stroke-width:1.0;" x1="934" x2="1749" y1="248.625" y2="248.625"/><text fill="#000000" font-family="sans-serif" font-size="13" font-weight="bold" lengthAdjust="spacing" textLength="7" x="941" y="243.7686">5</text><text fill="#000000" font-family="sans-serif" font-size="13" lengthAdjust="spacing" textLength="717" x="952" y="243.7686">submitVehicleData(VIN, Vehicle Platte, Tare Weight, Gross Weight, Current Km, Acquisition Date, Maintenance Frequency)</text><polygon fill="#181818" points="2569,274.9766,2579,278.9766,2569,282.9766,2573,278.9766" style="stroke:#181818;stroke-width:1.0;"/><line style="stroke:#181818;stroke-width:1.0;" x1="1765" x2="2575" y1="278.9766" y2="278.9766"/><text fill="#000000" font-family="sans-serif" font-size="13" font-weight="bold" lengthAdjust="spacing" textLength="7" x="1772" y="274.1201">6</text><text fill="#000000" font-family="sans-serif" font-size="13" lengthAdjust="spacing" textLength="142" x="1783" y="274.1201">validateVehicleData(VIN)</text><line style="stroke:#181818;stroke-width:1.0;" x1="2591" x2="2633" y1="309.3281" y2="309.3281"/><line style="stroke:#181818;stroke-width:1.0;" x1="2633" x2="2633" y1="309.3281" y2="322.3281"/><line style="stroke:#181818;stroke-width:1.0;" x1="2592" x2="2633" y1="322.3281" y2="322.3281"/><polygon fill="#181818" points="2602,318.3281,2592,322.3281,2602,326.3281,2598,322.3281" style="stroke:#181818;stroke-width:1.0;"/><text fill="#000000" font-family="sans-serif" font-size="13" font-weight="bold" lengthAdjust="spacing" textLength="7" x="2598" y="304.4717">7</text><text fill="#000000" font-family="sans-serif" font-size="13" lengthAdjust="spacing" textLength="142" x="2609" y="304.4717">validateVehicleData(VIN)</text><line style="stroke:#181818;stroke-width:1.0;" x1="2591" x2="2638" y1="372.6797" y2="372.6797"/><line style="stroke:#181818;stroke-width:1.0;" x1="2638" x2="2638" y1="372.6797" y2="385.6797"/><line style="stroke:#181818;stroke-width:1.0;" x1="2597" x2="2638" y1="385.6797" y2="385.6797"/><polygon fill="#181818" points="2607,381.6797,2597,385.6797,2607,389.6797,2603,385.6797" style="stroke:#181818;stroke-width:1.0;"/><text fill="#000000" font-family="sans-serif" font-size="13" font-weight="bold" lengthAdjust="spacing" textLength="7" x="2603" y="367.8232">8</text><text fill="#000000" font-family="sans-serif" font-size="13" lengthAdjust="spacing" textLength="142" x="2614" y="367.8232">validateVehicleData(VIN)</text><line style="stroke:#181818;stroke-width:1.0;stroke-dasharray:2.0,2.0;" x1="2596" x2="2638" y1="426.0313" y2="426.0313"/><line style="stroke:#181818;stroke-width:1.0;stroke-dasharray:2.0,2.0;" x1="2638" x2="2638" y1="426.0313" y2="439.0313"/><line style="stroke:#181818;stroke-width:1.0;stroke-dasharray:2.0,2.0;" x1="2591" x2="2638" y1="439.0313" y2="439.0313"/><polygon fill="#181818" points="2601,435.0313,2591,439.0313,2601,443.0313,2597,439.0313" style="stroke:#181818;stroke-width:1.0;"/><text fill="#000000" font-family="sans-serif" font-size="13" font-weight="bold" lengthAdjust="spacing" textLength="7" x="2603" y="421.1748">9</text><text fill="#000000" font-family="sans-serif" font-size="13" lengthAdjust="spacing" textLength="4" x="2614" y="421.1748"> </text><polygon fill="#181818" points="1776,460.3828,1766,464.3828,1776,468.3828,1772,464.3828" style="stroke:#181818;stroke-width:1.0;"/><line style="stroke:#181818;stroke-width:1.0;" x1="1770" x2="2585" y1="464.3828" y2="464.3828"/><text fill="#000000" font-family="sans-serif" font-size="13" font-weight="bold" lengthAdjust="spacing" textLength="14" x="1782" y="459.5264">10</text><text fill="#000000" font-family="sans-serif" font-size="13" lengthAdjust="spacing" textLength="66" x="1800" y="459.5264">vehicleData</text><polygon fill="#181818" points="945,490.7344,935,494.7344,945,498.7344,941,494.7344" style="stroke:#181818;stroke-width:1.0;"/><line style="stroke:#181818;stroke-width:1.0;" x1="939" x2="1754" y1="494.7344" y2="494.7344"/><text fill="#000000" font-family="sans-serif" font-size="13" font-weight="bold" lengthAdjust="spacing" textLength="14" x="951" y="489.8779">11</text><text fill="#000000" font-family="sans-serif" font-size="13" lengthAdjust="spacing" textLength="706" x="969" y="489.8779">keep vehicleData(VIN, Vehicle Platte, Tare Weight, Gross Weight, Current Km, Acquisition Date, Maintenance Frequency)</text><polygon fill="#181818" points="1748,521.0859,1758,525.0859,1748,529.0859,1752,525.0859" style="stroke:#181818;stroke-width:1.0;"/><line style="stroke:#181818;stroke-width:1.0;" x1="934" x2="1754" y1="525.0859" y2="525.0859"/><text fill="#000000" font-family="sans-serif" font-size="13" font-weight="bold" lengthAdjust="spacing" textLength="14" x="941" y="520.2295">12</text><text fill="#000000" font-family="sans-serif" font-size="13" lengthAdjust="spacing" textLength="60" x="959" y="520.2295">getBrand()</text><polygon fill="#181818" points="2040,551.4375,2050,555.4375,2040,559.4375,2044,555.4375" style="stroke:#181818;stroke-width:1.0;"/><line style="stroke:#181818;stroke-width:1.0;" x1="1770" x2="2046" y1="555.4375" y2="555.4375"/><text fill="#000000" font-family="sans-serif" font-size="13" font-weight="bold" lengthAdjust="spacing" textLength="14" x="1777" y="550.5811">13</text><text fill="#000000" font-family="sans-serif" font-size="13" lengthAdjust="spacing" textLength="122" x="1795" y="550.5811">getBrandRepository()</text><polygon fill="#181818" points="1781,581.7891,1771,585.7891,1781,589.7891,1777,585.7891" style="stroke:#181818;stroke-width:1.0;"/><line style="stroke:#181818;stroke-width:1.0;stroke-dasharray:2.0,2.0;" x1="1775" x2="2056" y1="585.7891" y2="585.7891"/><text fill="#000000" font-family="sans-serif" font-size="13" font-weight="bold" lengthAdjust="spacing" textLength="14" x="1787" y="580.9326">14</text><text fill="#000000" font-family="sans-serif" font-size="13" lengthAdjust="spacing" textLength="96" x="1805" y="580.9326">BrandRepository</text><polygon fill="#181818" points="2160,612.1406,2170,616.1406,2160,620.1406,2164,616.1406" style="stroke:#181818;stroke-width:1.0;"/><line style="stroke:#181818;stroke-width:1.0;" x1="1770" x2="2166" y1="616.1406" y2="616.1406"/><text fill="#000000" font-family="sans-serif" font-size="13" font-weight="bold" lengthAdjust="spacing" textLength="14" x="1777" y="611.2842">15</text><text fill="#000000" font-family="sans-serif" font-size="13" lengthAdjust="spacing" textLength="67" x="1795" y="611.2842">getBrands()</text><polygon fill="#181818" points="1781,642.4922,1771,646.4922,1781,650.4922,1777,646.4922" style="stroke:#181818;stroke-width:1.0;"/><line style="stroke:#181818;stroke-width:1.0;stroke-dasharray:2.0,2.0;" x1="1775" x2="2176" y1="646.4922" y2="646.4922"/><text fill="#000000" font-family="sans-serif" font-size="13" font-weight="bold" lengthAdjust="spacing" textLength="14" x="1787" y="641.6357">16</text><text fill="#000000" font-family="sans-serif" font-size="13" lengthAdjust="spacing" textLength="53" x="1805" y="641.6357">brandList</text><polygon fill="#181818" points="945,672.8438,935,676.8438,945,680.8438,941,676.8438" style="stroke:#181818;stroke-width:1.0;"/><line style="stroke:#181818;stroke-width:1.0;stroke-dasharray:2.0,2.0;" x1="939" x2="1754" y1="676.8438" y2="676.8438"/><text fill="#000000" font-family="sans-serif" font-size="13" font-weight="bold" lengthAdjust="spacing" textLength="14" x="951" y="671.9873">17</text><text fill="#000000" font-family="sans-serif" font-size="13" lengthAdjust="spacing" textLength="53" x="969" y="671.9873">brandList</text><polygon fill="#181818" points="166,703.1953,156,707.1953,166,711.1953,162,707.1953" style="stroke:#181818;stroke-width:1.0;"/><line style="stroke:#181818;stroke-width:1.0;" x1="160" x2="928" y1="707.1953" y2="707.1953"/><text fill="#000000" font-family="sans-serif" font-size="13" font-weight="bold" lengthAdjust="spacing" textLength="14" x="172" y="702.3389">18</text><text fill="#000000" font-family="sans-serif" font-size="13" lengthAdjust="spacing" textLength="401" x="190" y="702.3389">show brand list and request to select more vehicleData(Brand, Model)</text><polygon fill="#181818" points="912,733.5469,922,737.5469,912,741.5469,916,737.5469" style="stroke:#181818;stroke-width:1.0;"/><line style="stroke:#181818;stroke-width:1.0;" x1="155" x2="918" y1="737.5469" y2="737.5469"/><text fill="#000000" font-family="sans-serif" font-size="13" font-weight="bold" lengthAdjust="spacing" textLength="14" x="162" y="732.6904">19</text><text fill="#000000" font-family="sans-serif" font-size="13" lengthAdjust="spacing" textLength="107" x="180" y="732.6904">select vehicle data</text><polygon fill="#181818" points="166,763.8984,156,767.8984,166,771.8984,162,767.8984" style="stroke:#181818;stroke-width:1.0;"/><line style="stroke:#181818;stroke-width:1.0;" x1="160" x2="928" y1="767.8984" y2="767.8984"/><text fill="#000000" font-family="sans-serif" font-size="13" font-weight="bold" lengthAdjust="spacing" textLength="14" x="172" y="763.042">20</text><text fill="#000000" font-family="sans-serif" font-size="13" lengthAdjust="spacing" textLength="236" x="190" y="763.042">shows all data and requests confirmation</text><polygon fill="#181818" points="912,794.25,922,798.25,912,802.25,916,798.25" style="stroke:#181818;stroke-width:1.0;"/><line style="stroke:#181818;stroke-width:1.0;" x1="155" x2="918" y1="798.25" y2="798.25"/><text fill="#000000" font-family="sans-serif" font-size="13" font-weight="bold" lengthAdjust="spacing" textLength="14" x="162" y="793.3936">21</text><text fill="#000000" font-family="sans-serif" font-size="13" lengthAdjust="spacing" textLength="68" x="180" y="793.3936">submit data</text><polygon fill="#181818" points="1748,824.6016,1758,828.6016,1748,832.6016,1752,828.6016" style="stroke:#181818;stroke-width:1.0;"/><line style="stroke:#181818;stroke-width:1.0;" x1="934" x2="1754" y1="828.6016" y2="828.6016"/><text fill="#000000" font-family="sans-serif" font-size="13" font-weight="bold" lengthAdjust="spacing" textLength="14" x="941" y="823.7451">22</text><text fill="#000000" font-family="sans-serif" font-size="13" lengthAdjust="spacing" textLength="779" x="959" y="823.7451">registerVehicle(VIN, Brand, Model, Vehicle Platte, Tare Weight, Gross Weight, Current Km, Acquisition Date, Maintenance Frequency)</text><line style="stroke:#181818;stroke-width:1.0;" x1="1770" x2="1817" y1="853.9531" y2="853.9531"/><line style="stroke:#181818;stroke-width:1.0;" x1="1817" x2="1817" y1="853.9531" y2="866.9531"/><line style="stroke:#181818;stroke-width:1.0;" x1="1776" x2="1817" y1="866.9531" y2="866.9531"/><polygon fill="#181818" points="1786,862.9531,1776,866.9531,1786,870.9531,1782,866.9531" style="stroke:#181818;stroke-width:1.0;"/><text fill="#000000" font-family="sans-serif" font-size="13" font-weight="bold" lengthAdjust="spacing" textLength="14" x="1782" y="849.0967">23</text><text fill="#000000" font-family="sans-serif" font-size="13" lengthAdjust="spacing" textLength="143" x="1800" y="849.0967">getModelByBrand(brand)</text><polygon fill="#181818" points="1933,898.3047,1943,902.3047,1933,906.3047,1937,902.3047" style="stroke:#181818;stroke-width:1.0;"/><line style="stroke:#181818;stroke-width:1.0;" x1="1775" x2="1939" y1="902.3047" y2="902.3047"/><text fill="#000000" font-family="sans-serif" font-size="13" font-weight="bold" lengthAdjust="spacing" textLength="14" x="1782" y="897.4482">24</text><text fill="#000000" font-family="sans-serif" font-size="13" lengthAdjust="spacing" textLength="75" x="1800" y="897.4482">getInstance()</text><polygon fill="#181818" points="1786,928.6563,1776,932.6563,1786,936.6563,1782,932.6563" style="stroke:#181818;stroke-width:1.0;"/><line style="stroke:#181818;stroke-width:1.0;stroke-dasharray:2.0,2.0;" x1="1780" x2="1949" y1="932.6563" y2="932.6563"/><text fill="#000000" font-family="sans-serif" font-size="13" font-weight="bold" lengthAdjust="spacing" textLength="14" x="1792" y="927.7998">25</text><text fill="#000000" font-family="sans-serif" font-size="13" lengthAdjust="spacing" textLength="67" x="1810" y="927.7998">repositories</text><polygon fill="#181818" points="2040,959.0078,2050,963.0078,2040,967.0078,2044,963.0078" style="stroke:#181818;stroke-width:1.0;"/><line style="stroke:#181818;stroke-width:1.0;" x1="1775" x2="2046" y1="963.0078" y2="963.0078"/><text fill="#000000" font-family="sans-serif" font-size="13" font-weight="bold" lengthAdjust="spacing" textLength="14" x="1782" y="958.1514">26</text><text fill="#000000" font-family="sans-serif" font-size="13" lengthAdjust="spacing" textLength="122" x="1800" y="958.1514">getBrandRepository()</text><polygon fill="#181818" points="1786,989.3594,1776,993.3594,1786,997.3594,1782,993.3594" style="stroke:#181818;stroke-width:1.0;"/><line style="stroke:#181818;stroke-width:1.0;" x1="1780" x2="2056" y1="993.3594" y2="993.3594"/><text fill="#000000" font-family="sans-serif" font-size="13" font-weight="bold" lengthAdjust="spacing" textLength="14" x="1792" y="988.5029">27</text><text fill="#000000" font-family="sans-serif" font-size="13" lengthAdjust="spacing" textLength="96" x="1810" y="988.5029">BrandRepository</text><polygon fill="#181818" points="2160,1019.7109,2170,1023.7109,2160,1027.7109,2164,1023.7109" style="stroke:#181818;stroke-width:1.0;"/><line style="stroke:#181818;stroke-width:1.0;" x1="1775" x2="2166" y1="1023.7109" y2="1023.7109"/><text fill="#000000" font-family="sans-serif" font-size="13" font-weight="bold" lengthAdjust="spacing" textLength="14" x="1782" y="1018.8545">28</text><text fill="#000000" font-family="sans-serif" font-size="13" lengthAdjust="spacing" textLength="147" x="1800" y="1018.8545">getModelByBrand(brand))</text><polygon fill="#181818" points="1786,1050.0625,1776,1054.0625,1786,1058.0625,1782,1054.0625" style="stroke:#181818;stroke-width:1.0;"/><line style="stroke:#181818;stroke-width:1.0;stroke-dasharray:2.0,2.0;" x1="1780" x2="2176" y1="1054.0625" y2="1054.0625"/><text fill="#000000" font-family="sans-serif" font-size="13" font-weight="bold" lengthAdjust="spacing" textLength="14" x="1792" y="1049.2061">29</text><text fill="#000000" font-family="sans-serif" font-size="13" lengthAdjust="spacing" textLength="32" x="1810" y="1049.2061">brand</text><line style="stroke:#181818;stroke-width:1.0;stroke-dasharray:2.0,2.0;" x1="1775" x2="1817" y1="1089.4141" y2="1089.4141"/><line style="stroke:#181818;stroke-width:1.0;stroke-dasharray:2.0,2.0;" x1="1817" x2="1817" y1="1089.4141" y2="1102.4141"/><line style="stroke:#181818;stroke-width:1.0;stroke-dasharray:2.0,2.0;" x1="1770" x2="1817" y1="1102.4141" y2="1102.4141"/><polygon fill="#181818" points="1780,1098.4141,1770,1102.4141,1780,1106.4141,1776,1102.4141" style="stroke:#181818;stroke-width:1.0;"/><text fill="#000000" font-family="sans-serif" font-size="13" font-weight="bold" lengthAdjust="spacing" textLength="14" x="1782" y="1084.5576">30</text><text fill="#000000" font-family="sans-serif" font-size="13" lengthAdjust="spacing" textLength="40" x="1800" y="1084.5576">(brand)</text><polygon fill="#181818" points="2569,1148.7656,2579,1152.7656,2569,1156.7656,2573,1152.7656" style="stroke:#181818;stroke-width:1.0;"/><line style="stroke:#181818;stroke-width:1.0;" x1="1765" x2="2575" y1="1152.7656" y2="1152.7656"/><text fill="#000000" font-family="sans-serif" font-size="13" font-weight="bold" lengthAdjust="spacing" textLength="14" x="1772" y="1147.9092">31</text><text fill="#000000" font-family="sans-serif" font-size="13" lengthAdjust="spacing" textLength="779" x="1790" y="1147.9092">registerVehicle(VIN, Brand, Model, Vehicle Platte, Tare Weight, Gross Weight, Current Km, Acquisition Date, Maintenance Frequency)</text><line style="stroke:#181818;stroke-width:1.0;" x1="2591" x2="2638" y1="1178.1172" y2="1178.1172"/><line style="stroke:#181818;stroke-width:1.0;" x1="2638" x2="2638" y1="1178.1172" y2="1191.1172"/><line style="stroke:#181818;stroke-width:1.0;" x1="2597" x2="2638" y1="1191.1172" y2="1191.1172"/><polygon fill="#181818" points="2607,1187.1172,2597,1191.1172,2607,1195.1172,2603,1191.1172" style="stroke:#181818;stroke-width:1.0;"/><text fill="#000000" font-family="sans-serif" font-size="13" font-weight="bold" lengthAdjust="spacing" textLength="14" x="2603" y="1173.2607">32</text><text fill="#000000" font-family="sans-serif" font-size="13" lengthAdjust="spacing" textLength="115" x="2621" y="1173.2607">addVehicle (vehicle)</text><line style="stroke:#181818;stroke-width:1.0;" x1="2596" x2="2643" y1="1221.4688" y2="1221.4688"/><line style="stroke:#181818;stroke-width:1.0;" x1="2643" x2="2643" y1="1221.4688" y2="1234.4688"/><line style="stroke:#181818;stroke-width:1.0;" x1="2602" x2="2643" y1="1234.4688" y2="1234.4688"/><polygon fill="#181818" points="2612,1230.4688,2602,1234.4688,2612,1238.4688,2608,1234.4688" style="stroke:#181818;stroke-width:1.0;"/><text fill="#000000" font-family="sans-serif" font-size="13" font-weight="bold" lengthAdjust="spacing" textLength="14" x="2608" y="1216.6123">33</text><text fill="#000000" font-family="sans-serif" font-size="13" lengthAdjust="spacing" textLength="137" x="2626" y="1216.6123">validateVehicle(vehicle))</text><line style="stroke:#181818;stroke-width:1.0;stroke-dasharray:2.0,2.0;" x1="2601" x2="2643" y1="1274.8203" y2="1274.8203"/><line style="stroke:#181818;stroke-width:1.0;stroke-dasharray:2.0,2.0;" x1="2643" x2="2643" y1="1274.8203" y2="1287.8203"/><line style="stroke:#181818;stroke-width:1.0;stroke-dasharray:2.0,2.0;" x1="2596" x2="2643" y1="1287.8203" y2="1287.8203"/><polygon fill="#181818" points="2606,1283.8203,2596,1287.8203,2606,1291.8203,2602,1287.8203" style="stroke:#181818;stroke-width:1.0;"/><text fill="#000000" font-family="sans-serif" font-size="13" font-weight="bold" lengthAdjust="spacing" textLength="14" x="2608" y="1269.9639">34</text><text fill="#000000" font-family="sans-serif" font-size="13" lengthAdjust="spacing" textLength="4" x="2626" y="1269.9639"> </text><line style="stroke:#181818;stroke-width:1.0;stroke-dasharray:2.0,2.0;" x1="2596" x2="2638" y1="1318.1719" y2="1318.1719"/><line style="stroke:#181818;stroke-width:1.0;stroke-dasharray:2.0,2.0;" x1="2638" x2="2638" y1="1318.1719" y2="1331.1719"/><line style="stroke:#181818;stroke-width:1.0;stroke-dasharray:2.0,2.0;" x1="2591" x2="2638" y1="1331.1719" y2="1331.1719"/><polygon fill="#181818" points="2601,1327.1719,2591,1331.1719,2601,1335.1719,2597,1331.1719" style="stroke:#181818;stroke-width:1.0;"/><text fill="#000000" font-family="sans-serif" font-size="13" font-weight="bold" lengthAdjust="spacing" textLength="14" x="2603" y="1313.3154">35</text><text fill="#000000" font-family="sans-serif" font-size="13" lengthAdjust="spacing" textLength="4" x="2621" y="1313.3154"> </text><polygon fill="#181818" points="1776,1352.5234,1766,1356.5234,1776,1360.5234,1772,1356.5234" style="stroke:#181818;stroke-width:1.0;"/><line style="stroke:#181818;stroke-width:1.0;" x1="1770" x2="2585" y1="1356.5234" y2="1356.5234"/><text fill="#000000" font-family="sans-serif" font-size="13" font-weight="bold" lengthAdjust="spacing" textLength="14" x="1782" y="1351.667">36</text><text fill="#000000" font-family="sans-serif" font-size="13" lengthAdjust="spacing" textLength="39" x="1800" y="1351.667">vehicle</text><polygon fill="#181818" points="2296.5,1382.875,2306.5,1386.875,2296.5,1390.875,2300.5,1386.875" style="stroke:#181818;stroke-width:1.0;"/><line style="stroke:#181818;stroke-width:1.0;" x1="1765" x2="2302.5" y1="1386.875" y2="1386.875"/><text fill="#000000" font-family="sans-serif" font-size="13" font-weight="bold" lengthAdjust="spacing" textLength="14" x="1772" y="1382.0186">37</text><text fill="#000000" font-family="sans-serif" font-size="13" lengthAdjust="spacing" textLength="116" x="1790" y="1382.0186">saveVehicle(vehicle)</text><polygon fill="#181818" points="1776,1413.2266,1766,1417.2266,1776,1421.2266,1772,1417.2266" style="stroke:#181818;stroke-width:1.0;"/><line style="stroke:#181818;stroke-width:1.0;" x1="1770" x2="2312.5" y1="1417.2266" y2="1417.2266"/><text fill="#000000" font-family="sans-serif" font-size="13" font-weight="bold" lengthAdjust="spacing" textLength="14" x="1782" y="1412.3701">38</text><text fill="#000000" font-family="sans-serif" font-size="13" lengthAdjust="spacing" textLength="39" x="1800" y="1412.3701">vehicle</text><polygon fill="#181818" points="945,1443.5781,935,1447.5781,945,1451.5781,941,1447.5781" style="stroke:#181818;stroke-width:1.0;"/><line style="stroke:#181818;stroke-width:1.0;" x1="939" x2="1754" y1="1447.5781" y2="1447.5781"/><text fill="#000000" font-family="sans-serif" font-size="13" font-weight="bold" lengthAdjust="spacing" textLength="14" x="951" y="1442.7217">39</text><text fill="#000000" font-family="sans-serif" font-size="13" lengthAdjust="spacing" textLength="39" x="969" y="1442.7217">vehicle</text><polygon fill="#181818" points="161,1473.9297,151,1477.9297,161,1481.9297,157,1477.9297" style="stroke:#181818;stroke-width:1.0;"/><line style="stroke:#181818;stroke-width:1.0;stroke-dasharray:2.0,2.0;" x1="155" x2="928" y1="1477.9297" y2="1477.9297"/><text fill="#000000" font-family="sans-serif" font-size="13" font-weight="bold" lengthAdjust="spacing" textLength="14" x="167" y="1473.0732">40</text><text fill="#000000" font-family="sans-serif" font-size="13" lengthAdjust="spacing" textLength="147" x="185" y="1473.0732">shows success message</text><!--SRC=[pLTDJ-Cm4BtdLuouR47m1tfO2TYogXPMYA-zxCLDXjOYiOljbAt4Zz-naoPEd8IKNI5og59dvldDUFmyrazSh9bY6MHIo7YbP8PWL8wHhhwiMVp4bdXhjYc2mjWmiKnz0xrYYNpXOWcFBDKOHH7BZHHvja0LHLzMF45ubD8iv9-8nKOgE7Z05Oy9Zea4PiyvNsSe35oaY0QkcA3f54mUBguE3u1fe9U8fZ8yvcj6TWVJ6rnoRL2LEFTpPtS_7pOxby8ecQQedFdvtSrbuB2McXD5ZjhPL0FRMsx3fhYQBihp-2r2WElBqxkcnq9Hr3NkzBSuQuuulzPO4s9JnDC0UMYF5QbhZtO24V7Ii72QpIExKdp33BhiHq0FlS39LyeoJAaEddFKHeEHz5va6HYKUCwy0g1bSGFs8MU2i9a_EYAOM25Pj3_RYRmfIb18c65K5VEVnxkmu3fbnk0nt365y0lvScMEuRkIMbV_pdEbR77zo8xXDAPQepnmAU0RiuvNZ0k3WeaOuSBDAEBjeUEJO121dm6pNMEJsvYeoL7dYuoRCW9YmJukf0P1L_xLi7qSGPl_cGrmmr9EOM6BwM73fQwIsRm9vl8rcu_02znUNr_VYzNs6i6l00s-USiV-9PSoWNTr2IYCGYxDBioUa9S-mWVMmnz51i5kqJZr6YoLn5PuVESQmMQz5IGKyfW6HpCIKbc6iXYJxv3h1sj5e37KFSHQyyPS6nZdjIvSs9_IVBOntGGl22zAvKGoyEf5yBNKBsIBuKVfEJepjjILwroQqpfFAUpdwhBhq57Yef79fYE4iCIQ1yrh0bgO6bQgBl7JqCinIDN6RFbF8g44zPzf5Wr-uDYx_d1VofPhhUZutQsBNQbMzwUqWt1VC2EvgR0dmjjBD79WA1sTKQ1TTSCzMRsUwSX_HqrrRwwCrfxgiGFQS-R-lEc1dMiwG3XVzQa8VRZDAb4wwg_JbqQ_B0xzdlQaK-rLVVfUwR0acH7R5BguxlQb1AkrVbKa1_L-lodjcdQk2gCSQwgeNsZiShFDa52UfOhk0yr6GRWe_aE0zSzNutKF9HQHwBEunYfOZFweUjmr_ddpqvtjBy0]--></g></svg>