<?xml version="1.0" encoding="UTF-8" standalone="no"?><svg xmlns="http://www.w3.org/2000/svg" xmlns:xlink="http://www.w3.org/1999/xlink" contentStyleType="text/css" height="460px" preserveAspectRatio="none" style="width:562px;height:460px;background:#FFFFFF;" version="1.1" viewBox="0 0 562 460" width="562px" zoomAndPan="magnify"><defs/><g><rect fill="#FFFFFF" height="323.5156" style="stroke:#181818;stroke-width:1.0;" width="10" x="104.5" y="65.2188"/><rect fill="#FFFFFF" height="223.4609" style="stroke:#181818;stroke-width:1.0;" width="10" x="109.5" y="120.9219"/><rect fill="#FFFFFF" height="30.3516" style="stroke:#181818;stroke-width:1.0;" width="10" x="252.5" y="156.2734"/><rect fill="#FFFFFF" height="30.3516" style="stroke:#181818;stroke-width:1.0;" width="10" x="359.5" y="216.9766"/><rect fill="#FFFFFF" height="30.3516" style="stroke:#181818;stroke-width:1.0;" width="10" x="479.5" y="277.6797"/><rect fill="none" height="287.1641" style="stroke:#000000;stroke-width:1.5;" width="546" x="10" y="72.2188"/><line style="stroke:#181818;stroke-width:0.5;stroke-dasharray:5.0,5.0;" x1="109" x2="109" y1="55.2188" y2="406.7344"/><line style="stroke:#181818;stroke-width:0.5;stroke-dasharray:5.0,5.0;" x1="257" x2="257" y1="55.2188" y2="406.7344"/><line style="stroke:#181818;stroke-width:0.5;stroke-dasharray:5.0,5.0;" x1="364" x2="364" y1="55.2188" y2="406.7344"/><line style="stroke:#181818;stroke-width:0.5;stroke-dasharray:5.0,5.0;" x1="484" x2="484" y1="55.2188" y2="406.7344"/><rect fill="#E3E3E3" height="31.6094" rx="2.5" ry="2.5" style="stroke:#181818;stroke-width:0.5;" width="179" x="20" y="22.6094"/><text fill="#000000" font-family="sans-serif" font-size="14" lengthAdjust="spacing" textLength="165" x="27" y="44.1426">:RegisterVehicleController</text><rect fill="#E3E3E3" height="31.6094" rx="2.5" ry="2.5" style="stroke:#181818;stroke-width:0.5;" width="179" x="20" y="405.7344"/><text fill="#000000" font-family="sans-serif" font-size="14" lengthAdjust="spacing" textLength="165" x="27" y="427.2676">:RegisterVehicleController</text><rect fill="#E3E3E3" height="31.6094" rx="2.5" ry="2.5" style="stroke:#181818;stroke-width:0.5;" width="97" x="209" y="22.6094"/><text fill="#000000" font-family="sans-serif" font-size="14" lengthAdjust="spacing" textLength="83" x="216" y="44.1426">:Repositories</text><rect fill="#E3E3E3" height="31.6094" rx="2.5" ry="2.5" style="stroke:#181818;stroke-width:0.5;" width="97" x="209" y="405.7344"/><text fill="#000000" font-family="sans-serif" font-size="14" lengthAdjust="spacing" textLength="83" x="216" y="427.2676">:Repositories</text><rect fill="#E3E3E3" height="49.2188" rx="2.5" ry="2.5" style="stroke:#181818;stroke-width:0.5;" width="97" x="316" y="5"/><text fill="#000000" font-family="sans-serif" font-size="14" lengthAdjust="spacing" textLength="74" x="327.5" y="26.5332">repositories</text><text fill="#000000" font-family="sans-serif" font-size="14" lengthAdjust="spacing" textLength="83" x="323" y="44.1426">:Repositories</text><rect fill="#E3E3E3" height="49.2188" rx="2.5" ry="2.5" style="stroke:#181818;stroke-width:0.5;" width="97" x="316" y="405.7344"/><text fill="#000000" font-family="sans-serif" font-size="14" lengthAdjust="spacing" textLength="74" x="327.5" y="427.2676">repositories</text><text fill="#000000" font-family="sans-serif" font-size="14" lengthAdjust="spacing" textLength="83" x="323" y="444.877">:Repositories</text><rect fill="#E3E3E3" height="49.2188" rx="2.5" ry="2.5" style="stroke:#181818;stroke-width:0.5;" width="123" x="423" y="5"/><text fill="#000000" font-family="sans-serif" font-size="14" lengthAdjust="spacing" textLength="109" x="430" y="26.5332">brandRepository:</text><text fill="#000000" font-family="sans-serif" font-size="14" lengthAdjust="spacing" textLength="106" x="431.5" y="44.1426">BrandRepository</text><rect fill="#E3E3E3" height="49.2188" rx="2.5" ry="2.5" style="stroke:#181818;stroke-width:0.5;" width="123" x="423" y="405.7344"/><text fill="#000000" font-family="sans-serif" font-size="14" lengthAdjust="spacing" textLength="109" x="430" y="427.2676">brandRepository:</text><text fill="#000000" font-family="sans-serif" font-size="14" lengthAdjust="spacing" textLength="106" x="431.5" y="444.877">BrandRepository</text><rect fill="#FFFFFF" height="323.5156" style="stroke:#181818;stroke-width:1.0;" width="10" x="104.5" y="65.2188"/><rect fill="#FFFFFF" height="223.4609" style="stroke:#181818;stroke-width:1.0;" width="10" x="109.5" y="120.9219"/><rect fill="#FFFFFF" height="30.3516" style="stroke:#181818;stroke-width:1.0;" width="10" x="252.5" y="156.2734"/><rect fill="#FFFFFF" height="30.3516" style="stroke:#181818;stroke-width:1.0;" width="10" x="359.5" y="216.9766"/><rect fill="#FFFFFF" height="30.3516" style="stroke:#181818;stroke-width:1.0;" width="10" x="479.5" y="277.6797"/><path d="M10,72.2188 L145,72.2188 L145,80.5703 L135,90.5703 L10,90.5703 L10,72.2188 " fill="#EEEEEE" style="stroke:#000000;stroke-width:1.5;"/><rect fill="none" height="287.1641" style="stroke:#000000;stroke-width:1.5;" width="546" x="10" y="72.2188"/><text fill="#000000" font-family="sans-serif" font-size="13" font-weight="bold" lengthAdjust="spacing" textLength="90" x="25" y="86.7139">Get Brand List</text><line style="stroke:#181818;stroke-width:1.0;" x1="114.5" x2="161.5" y1="107.9219" y2="107.9219"/><line style="stroke:#181818;stroke-width:1.0;" x1="161.5" x2="161.5" y1="107.9219" y2="120.9219"/><line style="stroke:#181818;stroke-width:1.0;" x1="120.5" x2="161.5" y1="120.9219" y2="120.9219"/><polygon fill="#181818" points="130.5,116.9219,120.5,120.9219,130.5,124.9219,126.5,120.9219" style="stroke:#181818;stroke-width:1.0;"/><text fill="#000000" font-family="sans-serif" font-size="13" font-weight="bold" lengthAdjust="spacing" textLength="14" x="126.5" y="103.0654">14</text><text fill="#000000" font-family="sans-serif" font-size="13" lengthAdjust="spacing" textLength="60" x="144.5" y="103.0654">getBrand()</text><polygon fill="#181818" points="240.5,152.2734,250.5,156.2734,240.5,160.2734,244.5,156.2734" style="stroke:#181818;stroke-width:1.0;"/><line style="stroke:#181818;stroke-width:1.0;" x1="119.5" x2="246.5" y1="156.2734" y2="156.2734"/><text fill="#000000" font-family="sans-serif" font-size="13" font-weight="bold" lengthAdjust="spacing" textLength="14" x="126.5" y="151.417">15</text><text fill="#000000" font-family="sans-serif" font-size="13" lengthAdjust="spacing" textLength="75" x="144.5" y="151.417">getInstance()</text><polygon fill="#181818" points="130.5,182.625,120.5,186.625,130.5,190.625,126.5,186.625" style="stroke:#181818;stroke-width:1.0;"/><line style="stroke:#181818;stroke-width:1.0;stroke-dasharray:2.0,2.0;" x1="124.5" x2="256.5" y1="186.625" y2="186.625"/><text fill="#000000" font-family="sans-serif" font-size="13" font-weight="bold" lengthAdjust="spacing" textLength="14" x="136.5" y="181.7686">16</text><text fill="#000000" font-family="sans-serif" font-size="13" lengthAdjust="spacing" textLength="67" x="154.5" y="181.7686">repositories</text><polygon fill="#181818" points="347.5,212.9766,357.5,216.9766,347.5,220.9766,351.5,216.9766" style="stroke:#181818;stroke-width:1.0;"/><line style="stroke:#181818;stroke-width:1.0;" x1="119.5" x2="353.5" y1="216.9766" y2="216.9766"/><text fill="#000000" font-family="sans-serif" font-size="13" font-weight="bold" lengthAdjust="spacing" textLength="14" x="126.5" y="212.1201">17</text><text fill="#000000" font-family="sans-serif" font-size="13" lengthAdjust="spacing" textLength="122" x="144.5" y="212.1201">getBrandRepository()</text><polygon fill="#181818" points="130.5,243.3281,120.5,247.3281,130.5,251.3281,126.5,247.3281" style="stroke:#181818;stroke-width:1.0;"/><line style="stroke:#181818;stroke-width:1.0;stroke-dasharray:2.0,2.0;" x1="124.5" x2="363.5" y1="247.3281" y2="247.3281"/><text fill="#000000" font-family="sans-serif" font-size="13" font-weight="bold" lengthAdjust="spacing" textLength="14" x="136.5" y="242.4717">18</text><text fill="#000000" font-family="sans-serif" font-size="13" lengthAdjust="spacing" textLength="96" x="154.5" y="242.4717">BrandRepository</text><polygon fill="#181818" points="467.5,273.6797,477.5,277.6797,467.5,281.6797,471.5,277.6797" style="stroke:#181818;stroke-width:1.0;"/><line style="stroke:#181818;stroke-width:1.0;" x1="119.5" x2="473.5" y1="277.6797" y2="277.6797"/><text fill="#000000" font-family="sans-serif" font-size="13" font-weight="bold" lengthAdjust="spacing" textLength="14" x="126.5" y="272.8232">19</text><text fill="#000000" font-family="sans-serif" font-size="13" lengthAdjust="spacing" textLength="117" x="144.5" y="272.8232">getBrandList(brand))</text><polygon fill="#181818" points="130.5,304.0313,120.5,308.0313,130.5,312.0313,126.5,308.0313" style="stroke:#181818;stroke-width:1.0;"/><line style="stroke:#181818;stroke-width:1.0;stroke-dasharray:2.0,2.0;" x1="124.5" x2="483.5" y1="308.0313" y2="308.0313"/><text fill="#000000" font-family="sans-serif" font-size="13" font-weight="bold" lengthAdjust="spacing" textLength="14" x="136.5" y="303.1748">20</text><text fill="#000000" font-family="sans-serif" font-size="13" lengthAdjust="spacing" textLength="53" x="154.5" y="303.1748">brandList</text><line style="stroke:#181818;stroke-width:1.0;stroke-dasharray:2.0,2.0;" x1="119.5" x2="161.5" y1="343.3828" y2="343.3828"/><line style="stroke:#181818;stroke-width:1.0;stroke-dasharray:2.0,2.0;" x1="161.5" x2="161.5" y1="343.3828" y2="356.3828"/><line style="stroke:#181818;stroke-width:1.0;stroke-dasharray:2.0,2.0;" x1="114.5" x2="161.5" y1="356.3828" y2="356.3828"/><polygon fill="#181818" points="124.5,352.3828,114.5,356.3828,124.5,360.3828,120.5,356.3828" style="stroke:#181818;stroke-width:1.0;"/><text fill="#000000" font-family="sans-serif" font-size="13" font-weight="bold" lengthAdjust="spacing" textLength="14" x="126.5" y="338.5264">21</text><text fill="#000000" font-family="sans-serif" font-size="13" lengthAdjust="spacing" textLength="53" x="144.5" y="338.5264">brandList</text><polygon fill="#181818" points="11,384.7344,1,388.7344,11,392.7344,7,388.7344" style="stroke:#181818;stroke-width:1.0;"/><line style="stroke:#181818;stroke-width:1.0;stroke-dasharray:2.0,2.0;" x1="5" x2="108.5" y1="388.7344" y2="388.7344"/><text fill="#000000" font-family="sans-serif" font-size="13" font-weight="bold" lengthAdjust="spacing" textLength="14" x="17" y="383.8779">22</text><text fill="#000000" font-family="sans-serif" font-size="13" lengthAdjust="spacing" textLength="53" x="35" y="383.8779">brandList</text><!--SRC=[fPCnRuCm48Lt_ufJbYO3GwLEKLMfpL1Lob0bKQSi1YvW1Mna7stpxskC04CGfQaN9FlUU_xEXpaBMN3DSyYLL56gLOv0kaHcsfE2HsUUu9uk6OB6YBXCCh_0f3nMNq8cSEAPGSPuIKgMUOYQiRjKn0WdfIXKtunP1Ob855mIBDOxJ8GXr1-OYYZ3ZPAaLPQXNW0ti3dijbU2GXb1IWiqhgRTkEn5TIqRt9TeJt6KrmRls-T3Nn5gBkFETtsKB_qTfnliUSnm_y1i3o8Idvomfc1WLw9LMS0hKYs6hMMlJwfLrK7mvBvhI91SqNBL5emu3hKZtG3dzIQDVRO8FRknrKQCjNLIEPOSj3J-8qpQn7Zx5PecL2yANGSxdxdmRYGcIrr4WsUpXiCm4_7te8Pf4E3XLKEqT2ExceatlEoaQXZiGOTD_5pSFmNNvFz8w_uIbB7xFWP1xTQpkvBy0000]--></g></svg>