<?xml version="1.0" encoding="UTF-8" standalone="no"?><svg xmlns="http://www.w3.org/2000/svg" xmlns:xlink="http://www.w3.org/1999/xlink" contentStyleType="text/css" height="1699px" preserveAspectRatio="none" style="width:3591px;height:1699px;background:#FFFFFF;" version="1.1" viewBox="0 0 3591 1699" width="3591px" zoomAndPan="magnify"><defs/><g><rect fill="#FFFFFF" height="1506.7266" style="stroke:#181818;stroke-width:1.0;" width="10" x="145" y="92.6094"/><rect fill="#FFFFFF" height="72.9609" style="stroke:#181818;stroke-width:1.0;" width="10" x="924" y="114.9609"/><rect fill="#FFFFFF" height="549.625" style="stroke:#181818;stroke-width:1.0;" width="10" x="924" y="218.2734"/><rect fill="#FFFFFF" height="359.8672" style="stroke:#181818;stroke-width:1.0;" width="10" x="924" y="798.25"/><rect fill="#FFFFFF" height="410.8672" style="stroke:#181818;stroke-width:1.0;" width="10" x="924" y="1188.4688"/><rect fill="#FFFFFF" height="306.8125" style="stroke:#181818;stroke-width:1.0;" width="10" x="1750" y="248.625"/><rect fill="#FFFFFF" height="151.7578" style="stroke:#181818;stroke-width:1.0;" width="10" x="1750" y="585.7891"/><rect fill="#FFFFFF" height="299.1641" style="stroke:#181818;stroke-width:1.0;" width="10" x="1750" y="828.6016"/><rect fill="#FFFFFF" height="223.4609" style="stroke:#181818;stroke-width:1.0;" width="10" x="1755" y="866.9531"/><rect fill="#FFFFFF" height="389.5156" style="stroke:#181818;stroke-width:1.0;" width="10" x="1750" y="1218.8203"/><rect fill="#FFFFFF" height="30.3516" style="stroke:#181818;stroke-width:1.0;" width="10" x="1935" y="902.3047"/><rect fill="#FFFFFF" height="30.3516" style="stroke:#181818;stroke-width:1.0;" width="10" x="2042" y="616.1406"/><rect fill="#FFFFFF" height="30.3516" style="stroke:#181818;stroke-width:1.0;" width="10" x="2042" y="963.0078"/><rect fill="#FFFFFF" height="30.3516" style="stroke:#181818;stroke-width:1.0;" width="10" x="2162" y="676.8438"/><rect fill="#FFFFFF" height="30.3516" style="stroke:#181818;stroke-width:1.0;" width="10" x="2162" y="1023.7109"/><rect fill="#FFFFFF" height="246.1094" style="stroke:#181818;stroke-width:1.0;" width="10" x="2576" y="278.9766"/><rect fill="#FFFFFF" height="264.4609" style="stroke:#181818;stroke-width:1.0;" width="10" x="2576" y="1274.1719"/><rect fill="#FFFFFF" height="185.4063" style="stroke:#181818;stroke-width:1.0;" width="10" x="3402" y="309.3281"/><rect fill="#FFFFFF" height="41.3516" style="stroke:#181818;stroke-width:1.0;" width="10" x="3407" y="416.0313"/><rect fill="#FFFFFF" height="203.7578" style="stroke:#181818;stroke-width:1.0;" width="10" x="3402" y="1304.5234"/><rect fill="#FFFFFF" height="128.0547" style="stroke:#181818;stroke-width:1.0;" width="10" x="3407" y="1342.875"/><rect fill="#FFFFFF" height="41.3516" style="stroke:#181818;stroke-width:1.0;" width="10" x="3412" y="1386.2266"/><line style="stroke:#181818;stroke-width:0.5;stroke-dasharray:5.0,5.0;" x1="150" x2="150" y1="82.6094" y2="1617.3359"/><line style="stroke:#181818;stroke-width:0.5;stroke-dasharray:5.0,5.0;" x1="928.5" x2="928.5" y1="82.6094" y2="1617.3359"/><line style="stroke:#181818;stroke-width:0.5;stroke-dasharray:5.0,5.0;" x1="1754.5" x2="1754.5" y1="154.2656" y2="1617.3359"/><line style="stroke:#181818;stroke-width:0.5;stroke-dasharray:5.0,5.0;" x1="1939.5" x2="1939.5" y1="82.6094" y2="1617.3359"/><line style="stroke:#181818;stroke-width:0.5;stroke-dasharray:5.0,5.0;" x1="2046.5" x2="2046.5" y1="82.6094" y2="1617.3359"/><line style="stroke:#181818;stroke-width:0.5;stroke-dasharray:5.0,5.0;" x1="2166.5" x2="2166.5" y1="82.6094" y2="1617.3359"/><line style="stroke:#181818;stroke-width:0.5;stroke-dasharray:5.0,5.0;" x1="2581" x2="2581" y1="82.6094" y2="1617.3359"/><line style="stroke:#181818;stroke-width:0.5;stroke-dasharray:5.0,5.0;" x1="3407" x2="3407" y1="82.6094" y2="1617.3359"/><text fill="#000000" font-family="sans-serif" font-size="14" lengthAdjust="spacing" textLength="284" x="5" y="79.5332">Vehicle and Equipment Fleet Manager (VFM)</text><ellipse cx="150" cy="13.5" fill="#E3E3E3" rx="8" ry="8" style="stroke:#181818;stroke-width:0.5;"/><path d="M150,21.5 L150,48.5 M137,29.5 L163,29.5 M150,48.5 L137,63.5 M150,48.5 L163,63.5 " fill="none" style="stroke:#181818;stroke-width:0.5;"/><text fill="#000000" font-family="sans-serif" font-size="14" lengthAdjust="spacing" textLength="284" x="5" y="1630.8691">Vehicle and Equipment Fleet Manager (VFM)</text><ellipse cx="150" cy="1642.4453" fill="#E3E3E3" rx="8" ry="8" style="stroke:#181818;stroke-width:0.5;"/><path d="M150,1650.4453 L150,1677.4453 M137,1658.4453 L163,1658.4453 M150,1677.4453 L137,1692.4453 M150,1677.4453 L163,1692.4453 " fill="none" style="stroke:#181818;stroke-width:0.5;"/><rect fill="#E3E3E3" height="31.6094" rx="2.5" ry="2.5" style="stroke:#181818;stroke-width:0.5;" width="129" x="864.5" y="50"/><text fill="#000000" font-family="sans-serif" font-size="14" lengthAdjust="spacing" textLength="115" x="871.5" y="71.5332">:RegisterVehicleUI</text><rect fill="#E3E3E3" height="31.6094" rx="2.5" ry="2.5" style="stroke:#181818;stroke-width:0.5;" width="129" x="864.5" y="1616.3359"/><text fill="#000000" font-family="sans-serif" font-size="14" lengthAdjust="spacing" textLength="115" x="871.5" y="1637.8691">:RegisterVehicleUI</text><rect fill="#E3E3E3" height="31.6094" rx="2.5" ry="2.5" style="stroke:#181818;stroke-width:0.5;" width="179" x="1665.5" y="1616.3359"/><text fill="#000000" font-family="sans-serif" font-size="14" lengthAdjust="spacing" textLength="165" x="1672.5" y="1637.8691">:RegisterVehicleController</text><rect fill="#E3E3E3" height="31.6094" rx="2.5" ry="2.5" style="stroke:#181818;stroke-width:0.5;" width="97" x="1891.5" y="50"/><text fill="#000000" font-family="sans-serif" font-size="14" lengthAdjust="spacing" textLength="83" x="1898.5" y="71.5332">:Repositories</text><rect fill="#E3E3E3" height="31.6094" rx="2.5" ry="2.5" style="stroke:#181818;stroke-width:0.5;" width="97" x="1891.5" y="1616.3359"/><text fill="#000000" font-family="sans-serif" font-size="14" lengthAdjust="spacing" textLength="83" x="1898.5" y="1637.8691">:Repositories</text><rect fill="#E3E3E3" height="49.2188" rx="2.5" ry="2.5" style="stroke:#181818;stroke-width:0.5;" width="97" x="1998.5" y="32.3906"/><text fill="#000000" font-family="sans-serif" font-size="14" lengthAdjust="spacing" textLength="74" x="2010" y="53.9238">repositories</text><text fill="#000000" font-family="sans-serif" font-size="14" lengthAdjust="spacing" textLength="83" x="2005.5" y="71.5332">:Repositories</text><rect fill="#E3E3E3" height="49.2188" rx="2.5" ry="2.5" style="stroke:#181818;stroke-width:0.5;" width="97" x="1998.5" y="1616.3359"/><text fill="#000000" font-family="sans-serif" font-size="14" lengthAdjust="spacing" textLength="74" x="2010" y="1637.8691">repositories</text><text fill="#000000" font-family="sans-serif" font-size="14" lengthAdjust="spacing" textLength="83" x="2005.5" y="1655.4785">:Repositories</text><rect fill="#E3E3E3" height="49.2188" rx="2.5" ry="2.5" style="stroke:#181818;stroke-width:0.5;" width="123" x="2105.5" y="32.3906"/><text fill="#000000" font-family="sans-serif" font-size="14" lengthAdjust="spacing" textLength="109" x="2112.5" y="53.9238">brandRepository:</text><text fill="#000000" font-family="sans-serif" font-size="14" lengthAdjust="spacing" textLength="106" x="2114" y="71.5332">BrandRepository</text><rect fill="#E3E3E3" height="49.2188" rx="2.5" ry="2.5" style="stroke:#181818;stroke-width:0.5;" width="123" x="2105.5" y="1616.3359"/><text fill="#000000" font-family="sans-serif" font-size="14" lengthAdjust="spacing" textLength="109" x="2112.5" y="1637.8691">brandRepository:</text><text fill="#000000" font-family="sans-serif" font-size="14" lengthAdjust="spacing" textLength="106" x="2114" y="1655.4785">BrandRepository</text><rect fill="#E3E3E3" height="49.2188" rx="2.5" ry="2.5" style="stroke:#181818;stroke-width:0.5;" width="130" x="2516" y="32.3906"/><text fill="#000000" font-family="sans-serif" font-size="14" lengthAdjust="spacing" textLength="116" x="2523" y="53.9238">vehicleRepository:</text><text fill="#000000" font-family="sans-serif" font-size="14" lengthAdjust="spacing" textLength="114" x="2524" y="71.5332">VehicleRepository</text><rect fill="#E3E3E3" height="49.2188" rx="2.5" ry="2.5" style="stroke:#181818;stroke-width:0.5;" width="130" x="2516" y="1616.3359"/><text fill="#000000" font-family="sans-serif" font-size="14" lengthAdjust="spacing" textLength="116" x="2523" y="1637.8691">vehicleRepository:</text><text fill="#000000" font-family="sans-serif" font-size="14" lengthAdjust="spacing" textLength="114" x="2524" y="1655.4785">VehicleRepository</text><rect fill="#E3E3E3" height="49.2188" rx="2.5" ry="2.5" style="stroke:#181818;stroke-width:0.5;" width="64" x="3375" y="32.3906"/><text fill="#000000" font-family="sans-serif" font-size="14" lengthAdjust="spacing" textLength="44" x="3385" y="53.9238">vehicle</text><text fill="#000000" font-family="sans-serif" font-size="14" lengthAdjust="spacing" textLength="50" x="3382" y="71.5332">:Vehicle</text><rect fill="#E3E3E3" height="49.2188" rx="2.5" ry="2.5" style="stroke:#181818;stroke-width:0.5;" width="64" x="3375" y="1616.3359"/><text fill="#000000" font-family="sans-serif" font-size="14" lengthAdjust="spacing" textLength="44" x="3385" y="1637.8691">vehicle</text><text fill="#000000" font-family="sans-serif" font-size="14" lengthAdjust="spacing" textLength="50" x="3382" y="1655.4785">:Vehicle</text><rect fill="#FFFFFF" height="1506.7266" style="stroke:#181818;stroke-width:1.0;" width="10" x="145" y="92.6094"/><rect fill="#FFFFFF" height="72.9609" style="stroke:#181818;stroke-width:1.0;" width="10" x="924" y="114.9609"/><rect fill="#FFFFFF" height="549.625" style="stroke:#181818;stroke-width:1.0;" width="10" x="924" y="218.2734"/><rect fill="#FFFFFF" height="359.8672" style="stroke:#181818;stroke-width:1.0;" width="10" x="924" y="798.25"/><rect fill="#FFFFFF" height="410.8672" style="stroke:#181818;stroke-width:1.0;" width="10" x="924" y="1188.4688"/><rect fill="#FFFFFF" height="306.8125" style="stroke:#181818;stroke-width:1.0;" width="10" x="1750" y="248.625"/><rect fill="#FFFFFF" height="151.7578" style="stroke:#181818;stroke-width:1.0;" width="10" x="1750" y="585.7891"/><rect fill="#FFFFFF" height="299.1641" style="stroke:#181818;stroke-width:1.0;" width="10" x="1750" y="828.6016"/><rect fill="#FFFFFF" height="223.4609" style="stroke:#181818;stroke-width:1.0;" width="10" x="1755" y="866.9531"/><rect fill="#FFFFFF" height="389.5156" style="stroke:#181818;stroke-width:1.0;" width="10" x="1750" y="1218.8203"/><rect fill="#FFFFFF" height="30.3516" style="stroke:#181818;stroke-width:1.0;" width="10" x="1935" y="902.3047"/><rect fill="#FFFFFF" height="30.3516" style="stroke:#181818;stroke-width:1.0;" width="10" x="2042" y="616.1406"/><rect fill="#FFFFFF" height="30.3516" style="stroke:#181818;stroke-width:1.0;" width="10" x="2042" y="963.0078"/><rect fill="#FFFFFF" height="30.3516" style="stroke:#181818;stroke-width:1.0;" width="10" x="2162" y="676.8438"/><rect fill="#FFFFFF" height="30.3516" style="stroke:#181818;stroke-width:1.0;" width="10" x="2162" y="1023.7109"/><rect fill="#FFFFFF" height="246.1094" style="stroke:#181818;stroke-width:1.0;" width="10" x="2576" y="278.9766"/><rect fill="#FFFFFF" height="264.4609" style="stroke:#181818;stroke-width:1.0;" width="10" x="2576" y="1274.1719"/><rect fill="#FFFFFF" height="185.4063" style="stroke:#181818;stroke-width:1.0;" width="10" x="3402" y="309.3281"/><rect fill="#FFFFFF" height="41.3516" style="stroke:#181818;stroke-width:1.0;" width="10" x="3407" y="416.0313"/><rect fill="#FFFFFF" height="203.7578" style="stroke:#181818;stroke-width:1.0;" width="10" x="3402" y="1304.5234"/><rect fill="#FFFFFF" height="128.0547" style="stroke:#181818;stroke-width:1.0;" width="10" x="3407" y="1342.875"/><rect fill="#FFFFFF" height="41.3516" style="stroke:#181818;stroke-width:1.0;" width="10" x="3412" y="1386.2266"/><polygon fill="#181818" points="912,110.9609,922,114.9609,912,118.9609,916,114.9609" style="stroke:#181818;stroke-width:1.0;"/><line style="stroke:#181818;stroke-width:1.0;" x1="155" x2="918" y1="114.9609" y2="114.9609"/><text fill="#000000" font-family="sans-serif" font-size="13" font-weight="bold" lengthAdjust="spacing" textLength="7" x="162" y="110.1045">1</text><text fill="#000000" font-family="sans-serif" font-size="13" lengthAdjust="spacing" textLength="166" x="173" y="110.1045">requests to register a vehicle</text><polygon fill="#181818" points="1653.5,141.3125,1663.5,145.3125,1653.5,149.3125,1657.5,145.3125" style="stroke:#181818;stroke-width:1.0;"/><line style="stroke:#181818;stroke-width:1.0;" x1="934" x2="1659.5" y1="145.3125" y2="145.3125"/><text fill="#000000" font-family="sans-serif" font-size="13" font-weight="bold" lengthAdjust="spacing" textLength="7" x="941" y="140.4561">2</text><text fill="#000000" font-family="sans-serif" font-size="13" lengthAdjust="spacing" textLength="36" x="952" y="140.4561">create</text><rect fill="#E3E3E3" height="31.6094" rx="2.5" ry="2.5" style="stroke:#181818;stroke-width:0.5;" width="179" x="1665.5" y="122.9609"/><text fill="#000000" font-family="sans-serif" font-size="14" lengthAdjust="spacing" textLength="165" x="1672.5" y="144.4941">:RegisterVehicleController</text><polygon fill="#181818" points="166,183.9219,156,187.9219,166,191.9219,162,187.9219" style="stroke:#181818;stroke-width:1.0;"/><line style="stroke:#181818;stroke-width:1.0;" x1="160" x2="928" y1="187.9219" y2="187.9219"/><text fill="#000000" font-family="sans-serif" font-size="13" font-weight="bold" lengthAdjust="spacing" textLength="7" x="172" y="183.0654">3</text><text fill="#000000" font-family="sans-serif" font-size="13" lengthAdjust="spacing" textLength="734" x="183" y="183.0654">requests vehicle data (VIN, Vehicle Platte, Tare Weight, Gross Weight, Current Km, Acquisition Date, Maintenance Frequency)</text><polygon fill="#181818" points="912,214.2734,922,218.2734,912,222.2734,916,218.2734" style="stroke:#181818;stroke-width:1.0;"/><line style="stroke:#181818;stroke-width:1.0;" x1="155" x2="918" y1="218.2734" y2="218.2734"/><text fill="#000000" font-family="sans-serif" font-size="13" font-weight="bold" lengthAdjust="spacing" textLength="7" x="162" y="213.417">4</text><text fill="#000000" font-family="sans-serif" font-size="13" lengthAdjust="spacing" textLength="104" x="173" y="213.417">types vehicle data</text><polygon fill="#181818" points="1738,244.625,1748,248.625,1738,252.625,1742,248.625" style="stroke:#181818;stroke-width:1.0;"/><line style="stroke:#181818;stroke-width:1.0;" x1="934" x2="1744" y1="248.625" y2="248.625"/><text fill="#000000" font-family="sans-serif" font-size="13" font-weight="bold" lengthAdjust="spacing" textLength="7" x="941" y="243.7686">5</text><text fill="#000000" font-family="sans-serif" font-size="13" lengthAdjust="spacing" textLength="717" x="952" y="243.7686">submitVehicleData(VIN, Vehicle Platte, Tare Weight, Gross Weight, Current Km, Acquisition Date, Maintenance Frequency)</text><polygon fill="#181818" points="2564,274.9766,2574,278.9766,2564,282.9766,2568,278.9766" style="stroke:#181818;stroke-width:1.0;"/><line style="stroke:#181818;stroke-width:1.0;" x1="1760" x2="2570" y1="278.9766" y2="278.9766"/><text fill="#000000" font-family="sans-serif" font-size="13" font-weight="bold" lengthAdjust="spacing" textLength="7" x="1767" y="274.1201">6</text><text fill="#000000" font-family="sans-serif" font-size="13" lengthAdjust="spacing" textLength="142" x="1778" y="274.1201">validateVehicleData(VIN)</text><polygon fill="#181818" points="3390,305.3281,3400,309.3281,3390,313.3281,3394,309.3281" style="stroke:#181818;stroke-width:1.0;"/><line style="stroke:#181818;stroke-width:1.0;" x1="2586" x2="3396" y1="309.3281" y2="309.3281"/><text fill="#000000" font-family="sans-serif" font-size="13" font-weight="bold" lengthAdjust="spacing" textLength="7" x="2593" y="304.4717">7</text><text fill="#000000" font-family="sans-serif" font-size="13" lengthAdjust="spacing" textLength="115" x="2604" y="304.4717">validateVehicle(VIN)</text><line style="stroke:#181818;stroke-width:1.0;" x1="3412" x2="3454" y1="339.6797" y2="339.6797"/><line style="stroke:#181818;stroke-width:1.0;" x1="3454" x2="3454" y1="339.6797" y2="352.6797"/><line style="stroke:#181818;stroke-width:1.0;" x1="3413" x2="3454" y1="352.6797" y2="352.6797"/><polygon fill="#181818" points="3423,348.6797,3413,352.6797,3423,356.6797,3419,352.6797" style="stroke:#181818;stroke-width:1.0;"/><text fill="#000000" font-family="sans-serif" font-size="13" font-weight="bold" lengthAdjust="spacing" textLength="7" x="3419" y="334.8232">8</text><text fill="#000000" font-family="sans-serif" font-size="13" lengthAdjust="spacing" textLength="142" x="3430" y="334.8232">validateVehicleData(VIN)</text><line style="stroke:#181818;stroke-width:1.0;" x1="3412" x2="3459" y1="403.0313" y2="403.0313"/><line style="stroke:#181818;stroke-width:1.0;" x1="3459" x2="3459" y1="403.0313" y2="416.0313"/><line style="stroke:#181818;stroke-width:1.0;" x1="3418" x2="3459" y1="416.0313" y2="416.0313"/><polygon fill="#181818" points="3428,412.0313,3418,416.0313,3428,420.0313,3424,416.0313" style="stroke:#181818;stroke-width:1.0;"/><text fill="#000000" font-family="sans-serif" font-size="13" font-weight="bold" lengthAdjust="spacing" textLength="7" x="3424" y="398.1748">9</text><text fill="#000000" font-family="sans-serif" font-size="13" lengthAdjust="spacing" textLength="142" x="3435" y="398.1748">validateVehicleData(VIN)</text><line style="stroke:#181818;stroke-width:1.0;stroke-dasharray:2.0,2.0;" x1="3417" x2="3459" y1="456.3828" y2="456.3828"/><line style="stroke:#181818;stroke-width:1.0;stroke-dasharray:2.0,2.0;" x1="3459" x2="3459" y1="456.3828" y2="469.3828"/><line style="stroke:#181818;stroke-width:1.0;stroke-dasharray:2.0,2.0;" x1="3412" x2="3459" y1="469.3828" y2="469.3828"/><polygon fill="#181818" points="3422,465.3828,3412,469.3828,3422,473.3828,3418,469.3828" style="stroke:#181818;stroke-width:1.0;"/><text fill="#000000" font-family="sans-serif" font-size="13" font-weight="bold" lengthAdjust="spacing" textLength="14" x="3424" y="451.5264">10</text><text fill="#000000" font-family="sans-serif" font-size="13" lengthAdjust="spacing" textLength="4" x="3442" y="451.5264"> </text><polygon fill="#181818" points="2597,490.7344,2587,494.7344,2597,498.7344,2593,494.7344" style="stroke:#181818;stroke-width:1.0;"/><line style="stroke:#181818;stroke-width:1.0;" x1="2591" x2="3406" y1="494.7344" y2="494.7344"/><text fill="#000000" font-family="sans-serif" font-size="13" font-weight="bold" lengthAdjust="spacing" textLength="14" x="2603" y="489.8779">11</text><text fill="#000000" font-family="sans-serif" font-size="13" lengthAdjust="spacing" textLength="66" x="2621" y="489.8779">vehicleData</text><polygon fill="#181818" points="1771,521.0859,1761,525.0859,1771,529.0859,1767,525.0859" style="stroke:#181818;stroke-width:1.0;"/><line style="stroke:#181818;stroke-width:1.0;" x1="1765" x2="2580" y1="525.0859" y2="525.0859"/><text fill="#000000" font-family="sans-serif" font-size="13" font-weight="bold" lengthAdjust="spacing" textLength="14" x="1777" y="520.2295">12</text><text fill="#000000" font-family="sans-serif" font-size="13" lengthAdjust="spacing" textLength="66" x="1795" y="520.2295">vehicleData</text><polygon fill="#181818" points="945,551.4375,935,555.4375,945,559.4375,941,555.4375" style="stroke:#181818;stroke-width:1.0;"/><line style="stroke:#181818;stroke-width:1.0;" x1="939" x2="1754" y1="555.4375" y2="555.4375"/><text fill="#000000" font-family="sans-serif" font-size="13" font-weight="bold" lengthAdjust="spacing" textLength="14" x="951" y="550.5811">13</text><text fill="#000000" font-family="sans-serif" font-size="13" lengthAdjust="spacing" textLength="706" x="969" y="550.5811">keep vehicleData(VIN, Vehicle Platte, Tare Weight, Gross Weight, Current Km, Acquisition Date, Maintenance Frequency)</text><polygon fill="#181818" points="1738,581.7891,1748,585.7891,1738,589.7891,1742,585.7891" style="stroke:#181818;stroke-width:1.0;"/><line style="stroke:#181818;stroke-width:1.0;" x1="934" x2="1744" y1="585.7891" y2="585.7891"/><text fill="#000000" font-family="sans-serif" font-size="13" font-weight="bold" lengthAdjust="spacing" textLength="14" x="941" y="580.9326">14</text><text fill="#000000" font-family="sans-serif" font-size="13" lengthAdjust="spacing" textLength="60" x="959" y="580.9326">getBrand()</text><polygon fill="#181818" points="2030,612.1406,2040,616.1406,2030,620.1406,2034,616.1406" style="stroke:#181818;stroke-width:1.0;"/><line style="stroke:#181818;stroke-width:1.0;" x1="1760" x2="2036" y1="616.1406" y2="616.1406"/><text fill="#000000" font-family="sans-serif" font-size="13" font-weight="bold" lengthAdjust="spacing" textLength="14" x="1767" y="611.2842">15</text><text fill="#000000" font-family="sans-serif" font-size="13" lengthAdjust="spacing" textLength="122" x="1785" y="611.2842">getBrandRepository()</text><polygon fill="#181818" points="1771,642.4922,1761,646.4922,1771,650.4922,1767,646.4922" style="stroke:#181818;stroke-width:1.0;"/><line style="stroke:#181818;stroke-width:1.0;stroke-dasharray:2.0,2.0;" x1="1765" x2="2046" y1="646.4922" y2="646.4922"/><text fill="#000000" font-family="sans-serif" font-size="13" font-weight="bold" lengthAdjust="spacing" textLength="14" x="1777" y="641.6357">16</text><text fill="#000000" font-family="sans-serif" font-size="13" lengthAdjust="spacing" textLength="96" x="1795" y="641.6357">BrandRepository</text><polygon fill="#181818" points="2150,672.8438,2160,676.8438,2150,680.8438,2154,676.8438" style="stroke:#181818;stroke-width:1.0;"/><line style="stroke:#181818;stroke-width:1.0;" x1="1760" x2="2156" y1="676.8438" y2="676.8438"/><text fill="#000000" font-family="sans-serif" font-size="13" font-weight="bold" lengthAdjust="spacing" textLength="14" x="1767" y="671.9873">17</text><text fill="#000000" font-family="sans-serif" font-size="13" lengthAdjust="spacing" textLength="67" x="1785" y="671.9873">getBrands()</text><polygon fill="#181818" points="1771,703.1953,1761,707.1953,1771,711.1953,1767,707.1953" style="stroke:#181818;stroke-width:1.0;"/><line style="stroke:#181818;stroke-width:1.0;stroke-dasharray:2.0,2.0;" x1="1765" x2="2166" y1="707.1953" y2="707.1953"/><text fill="#000000" font-family="sans-serif" font-size="13" font-weight="bold" lengthAdjust="spacing" textLength="14" x="1777" y="702.3389">18</text><text fill="#000000" font-family="sans-serif" font-size="13" lengthAdjust="spacing" textLength="53" x="1795" y="702.3389">brandList</text><polygon fill="#181818" points="945,733.5469,935,737.5469,945,741.5469,941,737.5469" style="stroke:#181818;stroke-width:1.0;"/><line style="stroke:#181818;stroke-width:1.0;stroke-dasharray:2.0,2.0;" x1="939" x2="1754" y1="737.5469" y2="737.5469"/><text fill="#000000" font-family="sans-serif" font-size="13" font-weight="bold" lengthAdjust="spacing" textLength="14" x="951" y="732.6904">19</text><text fill="#000000" font-family="sans-serif" font-size="13" lengthAdjust="spacing" textLength="53" x="969" y="732.6904">brandList</text><polygon fill="#181818" points="166,763.8984,156,767.8984,166,771.8984,162,767.8984" style="stroke:#181818;stroke-width:1.0;"/><line style="stroke:#181818;stroke-width:1.0;" x1="160" x2="928" y1="767.8984" y2="767.8984"/><text fill="#000000" font-family="sans-serif" font-size="13" font-weight="bold" lengthAdjust="spacing" textLength="14" x="172" y="763.042">20</text><text fill="#000000" font-family="sans-serif" font-size="13" lengthAdjust="spacing" textLength="249" x="190" y="763.042">show brand list and request to select brand</text><polygon fill="#181818" points="912,794.25,922,798.25,912,802.25,916,798.25" style="stroke:#181818;stroke-width:1.0;"/><line style="stroke:#181818;stroke-width:1.0;" x1="155" x2="918" y1="798.25" y2="798.25"/><text fill="#000000" font-family="sans-serif" font-size="13" font-weight="bold" lengthAdjust="spacing" textLength="14" x="162" y="793.3936">21</text><text fill="#000000" font-family="sans-serif" font-size="13" lengthAdjust="spacing" textLength="114" x="180" y="793.3936">select vehicle brand</text><polygon fill="#181818" points="1738,824.6016,1748,828.6016,1738,832.6016,1742,828.6016" style="stroke:#181818;stroke-width:1.0;"/><line style="stroke:#181818;stroke-width:1.0;" x1="934" x2="1744" y1="828.6016" y2="828.6016"/><text fill="#000000" font-family="sans-serif" font-size="13" font-weight="bold" lengthAdjust="spacing" textLength="14" x="941" y="823.7451">22</text><text fill="#000000" font-family="sans-serif" font-size="13" lengthAdjust="spacing" textLength="61" x="959" y="823.7451">getModel()</text><line style="stroke:#181818;stroke-width:1.0;" x1="1760" x2="1807" y1="853.9531" y2="853.9531"/><line style="stroke:#181818;stroke-width:1.0;" x1="1807" x2="1807" y1="853.9531" y2="866.9531"/><line style="stroke:#181818;stroke-width:1.0;" x1="1766" x2="1807" y1="866.9531" y2="866.9531"/><polygon fill="#181818" points="1776,862.9531,1766,866.9531,1776,870.9531,1772,866.9531" style="stroke:#181818;stroke-width:1.0;"/><text fill="#000000" font-family="sans-serif" font-size="13" font-weight="bold" lengthAdjust="spacing" textLength="14" x="1772" y="849.0967">23</text><text fill="#000000" font-family="sans-serif" font-size="13" lengthAdjust="spacing" textLength="143" x="1790" y="849.0967">getModelByBrand(brand)</text><polygon fill="#181818" points="1923,898.3047,1933,902.3047,1923,906.3047,1927,902.3047" style="stroke:#181818;stroke-width:1.0;"/><line style="stroke:#181818;stroke-width:1.0;" x1="1765" x2="1929" y1="902.3047" y2="902.3047"/><text fill="#000000" font-family="sans-serif" font-size="13" font-weight="bold" lengthAdjust="spacing" textLength="14" x="1772" y="897.4482">24</text><text fill="#000000" font-family="sans-serif" font-size="13" lengthAdjust="spacing" textLength="75" x="1790" y="897.4482">getInstance()</text><polygon fill="#181818" points="1776,928.6563,1766,932.6563,1776,936.6563,1772,932.6563" style="stroke:#181818;stroke-width:1.0;"/><line style="stroke:#181818;stroke-width:1.0;stroke-dasharray:2.0,2.0;" x1="1770" x2="1939" y1="932.6563" y2="932.6563"/><text fill="#000000" font-family="sans-serif" font-size="13" font-weight="bold" lengthAdjust="spacing" textLength="14" x="1782" y="927.7998">25</text><text fill="#000000" font-family="sans-serif" font-size="13" lengthAdjust="spacing" textLength="67" x="1800" y="927.7998">repositories</text><polygon fill="#181818" points="2030,959.0078,2040,963.0078,2030,967.0078,2034,963.0078" style="stroke:#181818;stroke-width:1.0;"/><line style="stroke:#181818;stroke-width:1.0;" x1="1765" x2="2036" y1="963.0078" y2="963.0078"/><text fill="#000000" font-family="sans-serif" font-size="13" font-weight="bold" lengthAdjust="spacing" textLength="14" x="1772" y="958.1514">26</text><text fill="#000000" font-family="sans-serif" font-size="13" lengthAdjust="spacing" textLength="122" x="1790" y="958.1514">getBrandRepository()</text><polygon fill="#181818" points="1776,989.3594,1766,993.3594,1776,997.3594,1772,993.3594" style="stroke:#181818;stroke-width:1.0;"/><line style="stroke:#181818;stroke-width:1.0;" x1="1770" x2="2046" y1="993.3594" y2="993.3594"/><text fill="#000000" font-family="sans-serif" font-size="13" font-weight="bold" lengthAdjust="spacing" textLength="14" x="1782" y="988.5029">27</text><text fill="#000000" font-family="sans-serif" font-size="13" lengthAdjust="spacing" textLength="96" x="1800" y="988.5029">BrandRepository</text><polygon fill="#181818" points="2150,1019.7109,2160,1023.7109,2150,1027.7109,2154,1023.7109" style="stroke:#181818;stroke-width:1.0;"/><line style="stroke:#181818;stroke-width:1.0;" x1="1765" x2="2156" y1="1023.7109" y2="1023.7109"/><text fill="#000000" font-family="sans-serif" font-size="13" font-weight="bold" lengthAdjust="spacing" textLength="14" x="1772" y="1018.8545">28</text><text fill="#000000" font-family="sans-serif" font-size="13" lengthAdjust="spacing" textLength="147" x="1790" y="1018.8545">getModelByBrand(brand))</text><polygon fill="#181818" points="1776,1050.0625,1766,1054.0625,1776,1058.0625,1772,1054.0625" style="stroke:#181818;stroke-width:1.0;"/><line style="stroke:#181818;stroke-width:1.0;stroke-dasharray:2.0,2.0;" x1="1770" x2="2166" y1="1054.0625" y2="1054.0625"/><text fill="#000000" font-family="sans-serif" font-size="13" font-weight="bold" lengthAdjust="spacing" textLength="14" x="1782" y="1049.2061">29</text><text fill="#000000" font-family="sans-serif" font-size="13" lengthAdjust="spacing" textLength="35" x="1800" y="1049.2061">model</text><line style="stroke:#181818;stroke-width:1.0;stroke-dasharray:2.0,2.0;" x1="1765" x2="1807" y1="1089.4141" y2="1089.4141"/><line style="stroke:#181818;stroke-width:1.0;stroke-dasharray:2.0,2.0;" x1="1807" x2="1807" y1="1089.4141" y2="1102.4141"/><line style="stroke:#181818;stroke-width:1.0;stroke-dasharray:2.0,2.0;" x1="1760" x2="1807" y1="1102.4141" y2="1102.4141"/><polygon fill="#181818" points="1770,1098.4141,1760,1102.4141,1770,1106.4141,1766,1102.4141" style="stroke:#181818;stroke-width:1.0;"/><text fill="#000000" font-family="sans-serif" font-size="13" font-weight="bold" lengthAdjust="spacing" textLength="14" x="1772" y="1084.5576">30</text><text fill="#000000" font-family="sans-serif" font-size="13" lengthAdjust="spacing" textLength="35" x="1790" y="1084.5576">model</text><polygon fill="#181818" points="945,1123.7656,935,1127.7656,945,1131.7656,941,1127.7656" style="stroke:#181818;stroke-width:1.0;"/><line style="stroke:#181818;stroke-width:1.0;" x1="939" x2="1754" y1="1127.7656" y2="1127.7656"/><text fill="#000000" font-family="sans-serif" font-size="13" font-weight="bold" lengthAdjust="spacing" textLength="14" x="951" y="1122.9092">31</text><text fill="#000000" font-family="sans-serif" font-size="13" lengthAdjust="spacing" textLength="56" x="969" y="1122.9092">modelList</text><polygon fill="#181818" points="166,1154.1172,156,1158.1172,166,1162.1172,162,1158.1172" style="stroke:#181818;stroke-width:1.0;"/><line style="stroke:#181818;stroke-width:1.0;" x1="160" x2="928" y1="1158.1172" y2="1158.1172"/><text fill="#000000" font-family="sans-serif" font-size="13" font-weight="bold" lengthAdjust="spacing" textLength="14" x="172" y="1153.2607">32</text><text fill="#000000" font-family="sans-serif" font-size="13" lengthAdjust="spacing" textLength="119" x="190" y="1153.2607">shows vehicle model</text><polygon fill="#181818" points="912,1184.4688,922,1188.4688,912,1192.4688,916,1188.4688" style="stroke:#181818;stroke-width:1.0;"/><line style="stroke:#181818;stroke-width:1.0;" x1="155" x2="918" y1="1188.4688" y2="1188.4688"/><text fill="#000000" font-family="sans-serif" font-size="13" font-weight="bold" lengthAdjust="spacing" textLength="14" x="162" y="1183.6123">33</text><text fill="#000000" font-family="sans-serif" font-size="13" lengthAdjust="spacing" textLength="114" x="180" y="1183.6123">select vehicle brand</text><polygon fill="#181818" points="1738,1214.8203,1748,1218.8203,1738,1222.8203,1742,1218.8203" style="stroke:#181818;stroke-width:1.0;"/><line style="stroke:#181818;stroke-width:1.0;" x1="934" x2="1744" y1="1218.8203" y2="1218.8203"/><text fill="#000000" font-family="sans-serif" font-size="13" font-weight="bold" lengthAdjust="spacing" textLength="14" x="941" y="1213.9639">34</text><text fill="#000000" font-family="sans-serif" font-size="13" lengthAdjust="spacing" textLength="779" x="959" y="1213.9639">registerVehicle(VIN, Brand, Model, Vehicle Platte, Tare Weight, Gross Weight, Current Km, Acquisition Date, Maintenance Frequency)</text><polygon fill="#181818" points="2564,1270.1719,2574,1274.1719,2564,1278.1719,2568,1274.1719" style="stroke:#181818;stroke-width:1.0;"/><line style="stroke:#181818;stroke-width:1.0;" x1="1760" x2="2570" y1="1274.1719" y2="1274.1719"/><text fill="#000000" font-family="sans-serif" font-size="13" font-weight="bold" lengthAdjust="spacing" textLength="14" x="1767" y="1269.3154">35</text><text fill="#000000" font-family="sans-serif" font-size="13" lengthAdjust="spacing" textLength="779" x="1785" y="1269.3154">registerVehicle(VIN, Brand, Model, Vehicle Platte, Tare Weight, Gross Weight, Current Km, Acquisition Date, Maintenance Frequency)</text><polygon fill="#181818" points="3390,1300.5234,3400,1304.5234,3390,1308.5234,3394,1304.5234" style="stroke:#181818;stroke-width:1.0;"/><line style="stroke:#181818;stroke-width:1.0;" x1="2586" x2="3396" y1="1304.5234" y2="1304.5234"/><text fill="#000000" font-family="sans-serif" font-size="13" font-weight="bold" lengthAdjust="spacing" textLength="14" x="2593" y="1299.667">36</text><text fill="#000000" font-family="sans-serif" font-size="13" lengthAdjust="spacing" textLength="779" x="2611" y="1299.667">registerVehicle(VIN, Brand, Model, Vehicle Platte, Tare Weight, Gross Weight, Current Km, Acquisition Date, Maintenance Frequency)</text><line style="stroke:#181818;stroke-width:1.0;" x1="3412" x2="3459" y1="1329.875" y2="1329.875"/><line style="stroke:#181818;stroke-width:1.0;" x1="3459" x2="3459" y1="1329.875" y2="1342.875"/><line style="stroke:#181818;stroke-width:1.0;" x1="3418" x2="3459" y1="1342.875" y2="1342.875"/><polygon fill="#181818" points="3428,1338.875,3418,1342.875,3428,1346.875,3424,1342.875" style="stroke:#181818;stroke-width:1.0;"/><text fill="#000000" font-family="sans-serif" font-size="13" font-weight="bold" lengthAdjust="spacing" textLength="14" x="3424" y="1325.0186">37</text><text fill="#000000" font-family="sans-serif" font-size="13" lengthAdjust="spacing" textLength="115" x="3442" y="1325.0186">addVehicle (vehicle)</text><line style="stroke:#181818;stroke-width:1.0;" x1="3417" x2="3464" y1="1373.2266" y2="1373.2266"/><line style="stroke:#181818;stroke-width:1.0;" x1="3464" x2="3464" y1="1373.2266" y2="1386.2266"/><line style="stroke:#181818;stroke-width:1.0;" x1="3423" x2="3464" y1="1386.2266" y2="1386.2266"/><polygon fill="#181818" points="3433,1382.2266,3423,1386.2266,3433,1390.2266,3429,1386.2266" style="stroke:#181818;stroke-width:1.0;"/><text fill="#000000" font-family="sans-serif" font-size="13" font-weight="bold" lengthAdjust="spacing" textLength="14" x="3429" y="1368.3701">38</text><text fill="#000000" font-family="sans-serif" font-size="13" lengthAdjust="spacing" textLength="137" x="3447" y="1368.3701">validateVehicle(vehicle))</text><line style="stroke:#181818;stroke-width:1.0;stroke-dasharray:2.0,2.0;" x1="3422" x2="3464" y1="1426.5781" y2="1426.5781"/><line style="stroke:#181818;stroke-width:1.0;stroke-dasharray:2.0,2.0;" x1="3464" x2="3464" y1="1426.5781" y2="1439.5781"/><line style="stroke:#181818;stroke-width:1.0;stroke-dasharray:2.0,2.0;" x1="3417" x2="3464" y1="1439.5781" y2="1439.5781"/><polygon fill="#181818" points="3427,1435.5781,3417,1439.5781,3427,1443.5781,3423,1439.5781" style="stroke:#181818;stroke-width:1.0;"/><text fill="#000000" font-family="sans-serif" font-size="13" font-weight="bold" lengthAdjust="spacing" textLength="14" x="3429" y="1421.7217">39</text><text fill="#000000" font-family="sans-serif" font-size="13" lengthAdjust="spacing" textLength="4" x="3447" y="1421.7217"> </text><line style="stroke:#181818;stroke-width:1.0;stroke-dasharray:2.0,2.0;" x1="3417" x2="3459" y1="1469.9297" y2="1469.9297"/><line style="stroke:#181818;stroke-width:1.0;stroke-dasharray:2.0,2.0;" x1="3459" x2="3459" y1="1469.9297" y2="1482.9297"/><line style="stroke:#181818;stroke-width:1.0;stroke-dasharray:2.0,2.0;" x1="3412" x2="3459" y1="1482.9297" y2="1482.9297"/><polygon fill="#181818" points="3422,1478.9297,3412,1482.9297,3422,1486.9297,3418,1482.9297" style="stroke:#181818;stroke-width:1.0;"/><text fill="#000000" font-family="sans-serif" font-size="13" font-weight="bold" lengthAdjust="spacing" textLength="14" x="3424" y="1465.0732">40</text><text fill="#000000" font-family="sans-serif" font-size="13" lengthAdjust="spacing" textLength="4" x="3442" y="1465.0732"> </text><polygon fill="#181818" points="2597,1504.2813,2587,1508.2813,2597,1512.2813,2593,1508.2813" style="stroke:#181818;stroke-width:1.0;"/><line style="stroke:#181818;stroke-width:1.0;" x1="2591" x2="3406" y1="1508.2813" y2="1508.2813"/><text fill="#000000" font-family="sans-serif" font-size="13" font-weight="bold" lengthAdjust="spacing" textLength="14" x="2603" y="1503.4248">41</text><text fill="#000000" font-family="sans-serif" font-size="13" lengthAdjust="spacing" textLength="39" x="2621" y="1503.4248">vehicle</text><polygon fill="#181818" points="1771,1534.6328,1761,1538.6328,1771,1542.6328,1767,1538.6328" style="stroke:#181818;stroke-width:1.0;"/><line style="stroke:#181818;stroke-width:1.0;" x1="1765" x2="2580" y1="1538.6328" y2="1538.6328"/><text fill="#000000" font-family="sans-serif" font-size="13" font-weight="bold" lengthAdjust="spacing" textLength="14" x="1777" y="1533.7764">42</text><text fill="#000000" font-family="sans-serif" font-size="13" lengthAdjust="spacing" textLength="39" x="1795" y="1533.7764">vehicle</text><polygon fill="#181818" points="945,1564.9844,935,1568.9844,945,1572.9844,941,1568.9844" style="stroke:#181818;stroke-width:1.0;"/><line style="stroke:#181818;stroke-width:1.0;" x1="939" x2="1749" y1="1568.9844" y2="1568.9844"/><text fill="#000000" font-family="sans-serif" font-size="13" font-weight="bold" lengthAdjust="spacing" textLength="14" x="951" y="1564.1279">43</text><text fill="#000000" font-family="sans-serif" font-size="13" lengthAdjust="spacing" textLength="39" x="969" y="1564.1279">vehicle</text><polygon fill="#181818" points="161,1595.3359,151,1599.3359,161,1603.3359,157,1599.3359" style="stroke:#181818;stroke-width:1.0;"/><line style="stroke:#181818;stroke-width:1.0;stroke-dasharray:2.0,2.0;" x1="155" x2="928" y1="1599.3359" y2="1599.3359"/><text fill="#000000" font-family="sans-serif" font-size="13" font-weight="bold" lengthAdjust="spacing" textLength="14" x="167" y="1594.4795">44</text><text fill="#000000" font-family="sans-serif" font-size="13" lengthAdjust="spacing" textLength="147" x="185" y="1594.4795">shows success message</text><!--SRC=[pLTBJ-Cm4BxdLrXSjaNb3_Im4h1b5IrT8LvxuU8cGskHsCLsOIlnutViF1qx9HKia0Cgpimttupd5VN0-9fAcfDSS96ifCY1QBc1IDLlrZHve4kuqjiCY8H4KxxCsW9gHLFnpFYItDDCGHH5TAC5t-GBa57qRSLI8FT2w8Nu6z542qaERc754eIZF2MpnmrRvy0rESi0D9bJZkOa6TsUpSS7X2g2Fo8qfLd2rXJb3gQNi6HAWonnRc8hTnFl5ZiLN4kHPI2j-EdrvRcdi1QA8KK6oihK1zihPjn6lrmLsTAuupx0nVdnjQknaEXrWpkzuoVkYTNhdBaGJuK_3iXjzwm8NVSq28J4Iy52QHP7vgRO4zLWenyHVF07EVgEKIPJp8F73IYjY1RukuWoeQJ4i-8r05wBFJ0FAYE4YVpX8S8a4b2Y-zeOQfaeGKbADSMiY7zFAhV8HKQrXWcvfXB87s3BbPwGdr8eLVztkf7I9DUlV4AE4ymrZ0CJdFoWHd5E6TV0AK-0d5cBFDcEBPyKF0_Q4T3RDRZSXdYDYcgpo9akFK0MzEDSSWZQzA-FpMC9clXtamPPFz6CePFGuJrs09gSyTBEaREnz8mOoxFOj-NRSMtDOX_TMfZ5lPWD_w3goylBMp13cWFv5k31zws4369Kt4Atrp2Cze4DNbAPntsORRp-DAXopTRI0y2wZVUn5T4YxDQ4KxPBqBOdZ_Og9TF-MyfD94OzbMFdXNT75kQe93FrXaDF-7siYbO7eCLGzH7hslGuTZ6FcjZPaNUEGwAFwKxmWdILApvMyFxQaqIjn7EXHp9Kj5j7ELtC_5AGuLPJ20pf_ALyrVeRFK-hcq1paK9M1hWdUQeRwYYTR8laiyPUQJ1-DePI8B3P5FPYhhGfbT6u5wCs5LgFUhL25fkSRYzIlH2jczdBzBxbk4TfkYLQNzok4XrSheDBDv0Z0nnwjQG7b7PkB0_nRf2nkjHVHUzjsirWATLtzuhWwcaQHhFRDIJUhJ5upK6wNoh50BGXm_5bx7_QWXXrzwAX6-CNSkczTjClvzI-Y_2Kq3Ij28xAH7tJlbh2TbVs2lgpTk7_kKzFdS_SDw_IORXXMtItuLL8RfVfz3MrIHB0BCpn3rr2gBErhUFd_py0]--></g></svg>