<?xml version="1.0" encoding="UTF-8" standalone="no"?><svg xmlns="http://www.w3.org/2000/svg" xmlns:xlink="http://www.w3.org/1999/xlink" contentStyleType="text/css" height="1059px" preserveAspectRatio="none" style="width:1047px;height:1059px;background:#FFFFFF;" version="1.1" viewBox="0 0 1047 1059" width="1047px" zoomAndPan="magnify"><defs/><g><!--class RegisterVehicleUI--><g id="elem_RegisterVehicleUI"><rect codeLine="6" fill="#F1F1F1" height="65.6094" id="RegisterVehicleUI" rx="2.5" ry="2.5" style="stroke:#181818;stroke-width:0.5;" width="168" x="476" y="7"/><ellipse cx="502.25" cy="23" fill="#ADD1B2" rx="11" ry="11" style="stroke:#181818;stroke-width:1.0;"/><path d="M505.0156,18.875 Q505.1719,18.6563 505.3594,18.5469 Q505.5469,18.4375 505.7656,18.4375 Q506.1406,18.4375 506.375,18.7031 Q506.6094,18.9531 506.6094,19.5625 L506.6094,21.0156 Q506.6094,21.625 506.375,21.8906 Q506.1406,22.1563 505.7656,22.1563 Q505.4219,22.1563 505.2188,21.9531 Q505.0156,21.7656 504.9063,21.25 Q504.8594,20.8906 504.6719,20.7031 Q504.3438,20.3281 503.7344,20.1094 Q503.125,19.8906 502.5,19.8906 Q501.7344,19.8906 501.0938,20.2188 Q500.4688,20.5469 499.9688,21.2969 Q499.4844,22.0469 499.4844,23.0781 L499.4844,24.1719 Q499.4844,25.4063 500.375,26.2344 Q501.2656,27.0469 502.8594,27.0469 Q503.7969,27.0469 504.4531,26.7969 Q504.8438,26.6406 505.2656,26.2031 Q505.5313,25.9375 505.6719,25.8594 Q505.8281,25.7813 506.0313,25.7813 Q506.3594,25.7813 506.6094,26.0469 Q506.875,26.2969 506.875,26.6406 Q506.875,26.9844 506.5313,27.3906 Q506.0313,27.9688 505.2344,28.2969 Q504.1563,28.75 502.8594,28.75 Q501.3438,28.75 500.1406,28.125 Q499.1563,27.625 498.4688,26.5625 Q497.7813,25.4844 497.7813,24.2031 L497.7813,23.0469 Q497.7813,21.7188 498.3906,20.5781 Q499.0156,19.4219 500.1094,18.8125 Q501.2031,18.1875 502.4375,18.1875 Q503.1719,18.1875 503.8125,18.3594 Q504.4688,18.5156 505.0156,18.875 Z " fill="#000000"/><text fill="#000000" font-family="sans-serif" font-size="14" lengthAdjust="spacing" textLength="111" x="518.75" y="28.7285">RegisterVehicleUI</text><line style="stroke:#181818;stroke-width:0.5;" x1="477" x2="643" y1="39" y2="39"/><line style="stroke:#181818;stroke-width:0.5;" x1="477" x2="643" y1="47" y2="47"/><ellipse cx="487" cy="61.3047" fill="#84BE84" rx="3" ry="3" style="stroke:#038048;stroke-width:1.0;"/><text fill="#000000" font-family="sans-serif" font-size="14" lengthAdjust="spacing" textLength="142" x="496" y="65.5332">registerVehicle() : void</text></g><!--class RegisterVehicleController--><g id="elem_RegisterVehicleController"><rect codeLine="10" fill="#F1F1F1" height="118.4375" id="RegisterVehicleController" rx="2.5" ry="2.5" style="stroke:#181818;stroke-width:0.5;" width="960" x="80" y="134"/><ellipse cx="475.25" cy="150" fill="#ADD1B2" rx="11" ry="11" style="stroke:#181818;stroke-width:1.0;"/><path d="M478.0156,145.875 Q478.1719,145.6563 478.3594,145.5469 Q478.5469,145.4375 478.7656,145.4375 Q479.1406,145.4375 479.375,145.7031 Q479.6094,145.9531 479.6094,146.5625 L479.6094,148.0156 Q479.6094,148.625 479.375,148.8906 Q479.1406,149.1563 478.7656,149.1563 Q478.4219,149.1563 478.2188,148.9531 Q478.0156,148.7656 477.9063,148.25 Q477.8594,147.8906 477.6719,147.7031 Q477.3438,147.3281 476.7344,147.1094 Q476.125,146.8906 475.5,146.8906 Q474.7344,146.8906 474.0938,147.2188 Q473.4688,147.5469 472.9688,148.2969 Q472.4844,149.0469 472.4844,150.0781 L472.4844,151.1719 Q472.4844,152.4063 473.375,153.2344 Q474.2656,154.0469 475.8594,154.0469 Q476.7969,154.0469 477.4531,153.7969 Q477.8438,153.6406 478.2656,153.2031 Q478.5313,152.9375 478.6719,152.8594 Q478.8281,152.7813 479.0313,152.7813 Q479.3594,152.7813 479.6094,153.0469 Q479.875,153.2969 479.875,153.6406 Q479.875,153.9844 479.5313,154.3906 Q479.0313,154.9688 478.2344,155.2969 Q477.1563,155.75 475.8594,155.75 Q474.3438,155.75 473.1406,155.125 Q472.1563,154.625 471.4688,153.5625 Q470.7813,152.4844 470.7813,151.2031 L470.7813,150.0469 Q470.7813,148.7188 471.3906,147.5781 Q472.0156,146.4219 473.1094,145.8125 Q474.2031,145.1875 475.4375,145.1875 Q476.1719,145.1875 476.8125,145.3594 Q477.4688,145.5156 478.0156,145.875 Z " fill="#000000"/><text fill="#000000" font-family="sans-serif" font-size="14" lengthAdjust="spacing" textLength="161" x="495.75" y="155.7285">RegisterVehicleController</text><line style="stroke:#181818;stroke-width:0.5;" x1="81" x2="1039" y1="166" y2="166"/><rect fill="none" height="6" style="stroke:#C82930;stroke-width:1.0;" width="6" x="88" y="177.3047"/><text fill="#000000" font-family="sans-serif" font-size="14" lengthAdjust="spacing" textLength="238" x="100" y="184.5332">vehicleRepository : VehicleRepository</text><line style="stroke:#181818;stroke-width:0.5;" x1="81" x2="1039" y1="191.6094" y2="191.6094"/><ellipse cx="91" cy="214.7188" fill="#84BE84" rx="3" ry="3" style="stroke:#038048;stroke-width:1.0;"/><text fill="#000000" font-family="sans-serif" font-size="14" lengthAdjust="spacing" textLength="559" x="100" y="210.1426">registerVehicle(VIN: String, brand: String, model: String, type: String, vehiclePlate: String,</text><text fill="#000000" font-family="sans-serif" font-size="14" lengthAdjust="spacing" textLength="934" x="100" y="227.752">tareWeight: double, grossWeight: double, currentKm: double, registrationDate: String, acquisitionDate: String, maintenanceFrequency: int) : boolean</text><ellipse cx="91" cy="241.1328" fill="#84BE84" rx="3" ry="3" style="stroke:#038048;stroke-width:1.0;"/><text fill="#000000" font-family="sans-serif" font-size="14" lengthAdjust="spacing" textLength="171" x="100" y="245.3613">RegisterVehicleController()</text></g><!--class Repositories--><g id="elem_Repositories"><rect codeLine="16" fill="#F1F1F1" height="118.4375" id="Repositories" rx="2.5" ry="2.5" style="stroke:#181818;stroke-width:0.5;" width="296" x="190" y="330"/><ellipse cx="294.25" cy="346" fill="#ADD1B2" rx="11" ry="11" style="stroke:#181818;stroke-width:1.0;"/><path d="M297.0156,341.875 Q297.1719,341.6563 297.3594,341.5469 Q297.5469,341.4375 297.7656,341.4375 Q298.1406,341.4375 298.375,341.7031 Q298.6094,341.9531 298.6094,342.5625 L298.6094,344.0156 Q298.6094,344.625 298.375,344.8906 Q298.1406,345.1563 297.7656,345.1563 Q297.4219,345.1563 297.2188,344.9531 Q297.0156,344.7656 296.9063,344.25 Q296.8594,343.8906 296.6719,343.7031 Q296.3438,343.3281 295.7344,343.1094 Q295.125,342.8906 294.5,342.8906 Q293.7344,342.8906 293.0938,343.2188 Q292.4688,343.5469 291.9688,344.2969 Q291.4844,345.0469 291.4844,346.0781 L291.4844,347.1719 Q291.4844,348.4063 292.375,349.2344 Q293.2656,350.0469 294.8594,350.0469 Q295.7969,350.0469 296.4531,349.7969 Q296.8438,349.6406 297.2656,349.2031 Q297.5313,348.9375 297.6719,348.8594 Q297.8281,348.7813 298.0313,348.7813 Q298.3594,348.7813 298.6094,349.0469 Q298.875,349.2969 298.875,349.6406 Q298.875,349.9844 298.5313,350.3906 Q298.0313,350.9688 297.2344,351.2969 Q296.1563,351.75 294.8594,351.75 Q293.3438,351.75 292.1406,351.125 Q291.1563,350.625 290.4688,349.5625 Q289.7813,348.4844 289.7813,347.2031 L289.7813,346.0469 Q289.7813,344.7188 290.3906,343.5781 Q291.0156,342.4219 292.1094,341.8125 Q293.2031,341.1875 294.4375,341.1875 Q295.1719,341.1875 295.8125,341.3594 Q296.4688,341.5156 297.0156,341.875 Z " fill="#000000"/><text fill="#000000" font-family="sans-serif" font-size="14" lengthAdjust="spacing" textLength="79" x="314.75" y="351.7285">Repositories</text><line style="stroke:#181818;stroke-width:0.5;" x1="191" x2="485" y1="362" y2="362"/><rect fill="none" height="6" style="stroke:#C82930;stroke-width:1.0;" width="6" x="198" y="373.3047"/><text fill="#000000" font-family="sans-serif" font-size="14" lengthAdjust="spacing" textLength="144" x="210" y="380.5332">instance : Repositories</text><rect fill="none" height="6" style="stroke:#C82930;stroke-width:1.0;" width="6" x="198" y="390.9141"/><text fill="#000000" font-family="sans-serif" font-size="14" lengthAdjust="spacing" textLength="238" x="210" y="398.1426">vehicleRepository : VehicleRepository</text><line style="stroke:#181818;stroke-width:0.5;" x1="191" x2="485" y1="405.2188" y2="405.2188"/><ellipse cx="201" cy="419.5234" fill="#84BE84" rx="3" ry="3" style="stroke:#038048;stroke-width:1.0;"/><text fill="#000000" font-family="sans-serif" font-size="14" lengthAdjust="spacing" textLength="174" x="210" y="423.752">getInstance() : Repositories</text><ellipse cx="201" cy="437.1328" fill="#84BE84" rx="3" ry="3" style="stroke:#038048;stroke-width:1.0;"/><text fill="#000000" font-family="sans-serif" font-size="14" lengthAdjust="spacing" textLength="270" x="210" y="441.3613">getVehicleRepository() : VehicleRepository</text></g><!--class VehicleRepository--><g id="elem_VehicleRepository"><rect codeLine="23" fill="#F1F1F1" height="153.6563" id="VehicleRepository" rx="2.5" ry="2.5" style="stroke:#181818;stroke-width:0.5;" width="960" x="7" y="526"/><ellipse cx="425.75" cy="542" fill="#ADD1B2" rx="11" ry="11" style="stroke:#181818;stroke-width:1.0;"/><path d="M428.5156,537.875 Q428.6719,537.6563 428.8594,537.5469 Q429.0469,537.4375 429.2656,537.4375 Q429.6406,537.4375 429.875,537.7031 Q430.1094,537.9531 430.1094,538.5625 L430.1094,540.0156 Q430.1094,540.625 429.875,540.8906 Q429.6406,541.1563 429.2656,541.1563 Q428.9219,541.1563 428.7188,540.9531 Q428.5156,540.7656 428.4063,540.25 Q428.3594,539.8906 428.1719,539.7031 Q427.8438,539.3281 427.2344,539.1094 Q426.625,538.8906 426,538.8906 Q425.2344,538.8906 424.5938,539.2188 Q423.9688,539.5469 423.4688,540.2969 Q422.9844,541.0469 422.9844,542.0781 L422.9844,543.1719 Q422.9844,544.4063 423.875,545.2344 Q424.7656,546.0469 426.3594,546.0469 Q427.2969,546.0469 427.9531,545.7969 Q428.3438,545.6406 428.7656,545.2031 Q429.0313,544.9375 429.1719,544.8594 Q429.3281,544.7813 429.5313,544.7813 Q429.8594,544.7813 430.1094,545.0469 Q430.375,545.2969 430.375,545.6406 Q430.375,545.9844 430.0313,546.3906 Q429.5313,546.9688 428.7344,547.2969 Q427.6563,547.75 426.3594,547.75 Q424.8438,547.75 423.6406,547.125 Q422.6563,546.625 421.9688,545.5625 Q421.2813,544.4844 421.2813,543.2031 L421.2813,542.0469 Q421.2813,540.7188 421.8906,539.5781 Q422.5156,538.4219 423.6094,537.8125 Q424.7031,537.1875 425.9375,537.1875 Q426.6719,537.1875 427.3125,537.3594 Q427.9688,537.5156 428.5156,537.875 Z " fill="#000000"/><text fill="#000000" font-family="sans-serif" font-size="14" lengthAdjust="spacing" textLength="114" x="446.25" y="547.7285">VehicleRepository</text><line style="stroke:#181818;stroke-width:0.5;" x1="8" x2="966" y1="558" y2="558"/><rect fill="none" height="6" style="stroke:#C82930;stroke-width:1.0;" width="6" x="15" y="569.3047"/><text fill="#000000" font-family="sans-serif" font-size="14" lengthAdjust="spacing" textLength="162" x="27" y="576.5332">vehicleList : List&lt;Vehicle&gt;</text><ellipse cx="18" cy="589.9141" fill="none" rx="3" ry="3" style="stroke:#038048;stroke-width:1.0;"/><text fill="#000000" font-family="sans-serif" font-size="14" lengthAdjust="spacing" textLength="191" x="27" y="594.1426">getVehicleList : List&lt;Vehicles&gt;</text><line style="stroke:#181818;stroke-width:0.5;" x1="8" x2="966" y1="601.2188" y2="601.2188"/><ellipse cx="18" cy="615.5234" fill="#84BE84" rx="3" ry="3" style="stroke:#038048;stroke-width:1.0;"/><text fill="#000000" font-family="sans-serif" font-size="14" lengthAdjust="spacing" textLength="216" x="27" y="619.752">addVehicle(vehicle: Vehicle) : void</text><ellipse cx="18" cy="641.9375" fill="#84BE84" rx="3" ry="3" style="stroke:#038048;stroke-width:1.0;"/><text fill="#000000" font-family="sans-serif" font-size="14" lengthAdjust="spacing" textLength="559" x="27" y="637.3613">registerVehicle(VIN: String, brand: String, model: String, type: String, vehiclePlate: String,</text><text fill="#000000" font-family="sans-serif" font-size="14" lengthAdjust="spacing" textLength="934" x="27" y="654.9707">tareWeight: double, grossWeight: double, currentKm: double, registrationDate: String, acquisitionDate: String, maintenanceFrequency: int) : boolean</text><ellipse cx="18" cy="668.3516" fill="#84BE84" rx="3" ry="3" style="stroke:#038048;stroke-width:1.0;"/><text fill="#000000" font-family="sans-serif" font-size="14" lengthAdjust="spacing" textLength="398" x="27" y="672.5801">verifyExistingVehicle(VIN: String, VehiclePlate: String) : boolean</text></g><!--class Vehicle--><g id="elem_Vehicle"><rect codeLine="31" fill="#F1F1F1" height="294.5313" id="Vehicle" rx="2.5" ry="2.5" style="stroke:#181818;stroke-width:0.5;" width="897" x="38.5" y="758"/><ellipse cx="459.75" cy="774" fill="#ADD1B2" rx="11" ry="11" style="stroke:#181818;stroke-width:1.0;"/><path d="M462.5156,769.875 Q462.6719,769.6563 462.8594,769.5469 Q463.0469,769.4375 463.2656,769.4375 Q463.6406,769.4375 463.875,769.7031 Q464.1094,769.9531 464.1094,770.5625 L464.1094,772.0156 Q464.1094,772.625 463.875,772.8906 Q463.6406,773.1563 463.2656,773.1563 Q462.9219,773.1563 462.7188,772.9531 Q462.5156,772.7656 462.4063,772.25 Q462.3594,771.8906 462.1719,771.7031 Q461.8438,771.3281 461.2344,771.1094 Q460.625,770.8906 460,770.8906 Q459.2344,770.8906 458.5938,771.2188 Q457.9688,771.5469 457.4688,772.2969 Q456.9844,773.0469 456.9844,774.0781 L456.9844,775.1719 Q456.9844,776.4063 457.875,777.2344 Q458.7656,778.0469 460.3594,778.0469 Q461.2969,778.0469 461.9531,777.7969 Q462.3438,777.6406 462.7656,777.2031 Q463.0313,776.9375 463.1719,776.8594 Q463.3281,776.7813 463.5313,776.7813 Q463.8594,776.7813 464.1094,777.0469 Q464.375,777.2969 464.375,777.6406 Q464.375,777.9844 464.0313,778.3906 Q463.5313,778.9688 462.7344,779.2969 Q461.6563,779.75 460.3594,779.75 Q458.8438,779.75 457.6406,779.125 Q456.6563,778.625 455.9688,777.5625 Q455.2813,776.4844 455.2813,775.2031 L455.2813,774.0469 Q455.2813,772.7188 455.8906,771.5781 Q456.5156,770.4219 457.6094,769.8125 Q458.7031,769.1875 459.9375,769.1875 Q460.6719,769.1875 461.3125,769.3594 Q461.9688,769.5156 462.5156,769.875 Z " fill="#000000"/><text fill="#000000" font-family="sans-serif" font-size="14" lengthAdjust="spacing" textLength="46" x="480.25" y="779.7285">Vehicle</text><line style="stroke:#181818;stroke-width:0.5;" x1="39.5" x2="934.5" y1="790" y2="790"/><rect fill="none" height="6" style="stroke:#C82930;stroke-width:1.0;" width="6" x="46.5" y="801.3047"/><text fill="#000000" font-family="sans-serif" font-size="14" lengthAdjust="spacing" textLength="70" x="58.5" y="808.5332">VIN : String</text><rect fill="none" height="6" style="stroke:#C82930;stroke-width:1.0;" width="6" x="46.5" y="818.9141"/><text fill="#000000" font-family="sans-serif" font-size="14" lengthAdjust="spacing" textLength="86" x="58.5" y="826.1426">brand : String</text><rect fill="none" height="6" style="stroke:#C82930;stroke-width:1.0;" width="6" x="46.5" y="836.5234"/><text fill="#000000" font-family="sans-serif" font-size="14" lengthAdjust="spacing" textLength="87" x="58.5" y="843.752">model : String</text><rect fill="none" height="6" style="stroke:#C82930;stroke-width:1.0;" width="6" x="46.5" y="854.1328"/><text fill="#000000" font-family="sans-serif" font-size="14" lengthAdjust="spacing" textLength="76" x="58.5" y="861.3613">type : String</text><rect fill="none" height="6" style="stroke:#C82930;stroke-width:1.0;" width="6" x="46.5" y="871.7422"/><text fill="#000000" font-family="sans-serif" font-size="14" lengthAdjust="spacing" textLength="125" x="58.5" y="878.9707">vehiclePlate : String</text><rect fill="none" height="6" style="stroke:#C82930;stroke-width:1.0;" width="6" x="46.5" y="889.3516"/><text fill="#000000" font-family="sans-serif" font-size="14" lengthAdjust="spacing" textLength="124" x="58.5" y="896.5801">tareWeight : double</text><rect fill="none" height="6" style="stroke:#C82930;stroke-width:1.0;" width="6" x="46.5" y="906.9609"/><text fill="#000000" font-family="sans-serif" font-size="14" lengthAdjust="spacing" textLength="134" x="58.5" y="914.1895">grossWeight : double</text><rect fill="none" height="6" style="stroke:#C82930;stroke-width:1.0;" width="6" x="46.5" y="924.5703"/><text fill="#000000" font-family="sans-serif" font-size="14" lengthAdjust="spacing" textLength="120" x="58.5" y="931.7988">currentKm : double</text><rect fill="none" height="6" style="stroke:#C82930;stroke-width:1.0;" width="6" x="46.5" y="942.1797"/><text fill="#000000" font-family="sans-serif" font-size="14" lengthAdjust="spacing" textLength="146" x="58.5" y="949.4082">registrationDate: String</text><rect fill="none" height="6" style="stroke:#C82930;stroke-width:1.0;" width="6" x="46.5" y="959.7891"/><text fill="#000000" font-family="sans-serif" font-size="14" lengthAdjust="spacing" textLength="146" x="58.5" y="967.0176">acquisitionDate : String</text><rect fill="none" height="6" style="stroke:#C82930;stroke-width:1.0;" width="6" x="46.5" y="977.3984"/><text fill="#000000" font-family="sans-serif" font-size="14" lengthAdjust="spacing" textLength="176" x="58.5" y="984.627">maintenanceFrequency : int</text><line style="stroke:#181818;stroke-width:0.5;" x1="39.5" x2="934.5" y1="991.7031" y2="991.7031"/><ellipse cx="49.5" cy="1006.0078" fill="#84BE84" rx="3" ry="3" style="stroke:#038048;stroke-width:1.0;"/><text fill="#000000" font-family="sans-serif" font-size="14" lengthAdjust="spacing" textLength="266" x="58.5" y="1010.2363">validateVehicle(vehicle: Vehicle) : boolean</text><ellipse cx="49.5" cy="1032.4219" fill="#84BE84" rx="3" ry="3" style="stroke:#038048;stroke-width:1.0;"/><text fill="#000000" font-family="sans-serif" font-size="14" lengthAdjust="spacing" textLength="511" x="58.5" y="1027.8457">Vehicle(VIN: String, brand: String, model: String, type: String, vehiclePlate: String,</text><text fill="#000000" font-family="sans-serif" font-size="14" lengthAdjust="spacing" textLength="871" x="58.5" y="1045.4551">tareWeight: double, grossWeight: double, currentKm: double, registrationDate: String, acquisitionDate: String, maintenanceFrequency: int)</text></g><!--link RegisterVehicleUI to RegisterVehicleController--><g id="link_RegisterVehicleUI_RegisterVehicleController"><path codeLine="48" d="M560,73.02 C560,89.17 560,109.33 560,128.45 " fill="none" id="RegisterVehicleUI-to-RegisterVehicleController" style="stroke:#181818;stroke-width:1.0;stroke-dasharray:7.0,7.0;"/><polygon fill="#181818" points="560,133.81,564,124.81,560,128.81,556,124.81,560,133.81" style="stroke:#181818;stroke-width:1.0;"/></g><!--link RegisterVehicleController to Repositories--><g id="link_RegisterVehicleController_Repositories"><path codeLine="49" d="M493.39,252.21 C466.61,275.61 435.7,302.62 408.54,326.36 " fill="none" id="RegisterVehicleController-to-Repositories" style="stroke:#181818;stroke-width:1.0;stroke-dasharray:7.0,7.0;"/><polygon fill="#181818" points="404.56,329.83,413.9617,326.8961,408.3167,326.5304,408.6824,320.8854,404.56,329.83" style="stroke:#181818;stroke-width:1.0;"/><text fill="#000000" font-family="sans-serif" font-size="13" lengthAdjust="spacing" textLength="67" x="457" y="296.4951">repositories</text></g><!--link Repositories to Repositories--><g id="link_Repositories_Repositories"><path codeLine="50" d="M486.27,372.56 C507.07,375.24 521,380.72 521,389 C521,396.57 509.36,401.8 491.48,404.69 " fill="none" id="Repositories-to-Repositories" style="stroke:#181818;stroke-width:1.0;"/><polygon fill="#181818" points="486.27,405.44,495.7485,408.1155,491.2189,404.7269,494.6075,400.1973,486.27,405.44" style="stroke:#181818;stroke-width:1.0;"/><text fill="#000000" font-family="sans-serif" font-size="13" lengthAdjust="spacing" textLength="49" x="527" y="394.4951">instance</text></g><!--link RegisterVehicleController to VehicleRepository--><g id="link_RegisterVehicleController_VehicleRepository"><path codeLine="51" d="M577.1,252.12 C589.7,304.35 601.7,382.66 583,448 C575.73,473.41 562.91,498.71 548.96,521.24 " fill="none" id="RegisterVehicleController-to-VehicleRepository" style="stroke:#181818;stroke-width:1.0;stroke-dasharray:7.0,7.0;"/><polygon fill="#181818" points="546.16,525.71,554.327,520.2054,548.8138,521.4724,547.5468,515.9593,546.16,525.71" style="stroke:#181818;stroke-width:1.0;"/><text fill="#000000" font-family="sans-serif" font-size="13" lengthAdjust="spacing" textLength="101" x="593" y="394.4951">vehicleRepository</text></g><!--link Repositories to VehicleRepository--><g id="link_Repositories_VehicleRepository"><path codeLine="52" d="M378.91,448.21 C394.79,470.81 413.25,497.07 430.37,521.42 " fill="none" id="Repositories-to-VehicleRepository" style="stroke:#181818;stroke-width:1.0;"/><polygon fill="#181818" points="433.32,525.63,431.3951,515.9711,430.4355,521.546,424.8606,520.5863,433.32,525.63" style="stroke:#181818;stroke-width:1.0;"/><text fill="#000000" font-family="sans-serif" font-size="13" lengthAdjust="spacing" textLength="101" x="414" y="492.4951">vehicleRepository</text><text fill="#000000" font-family="sans-serif" font-size="13" lengthAdjust="spacing" textLength="7" x="420.87" y="515.0214">1</text></g><!--link VehicleRepository to Vehicle--><g id="link_VehicleRepository_Vehicle"><path codeLine="53" d="M487,680.22 C487,702.47 487,727.61 487,752.8 " fill="none" id="VehicleRepository-to-Vehicle" style="stroke:#181818;stroke-width:1.0;"/><polygon fill="#181818" points="487,757.84,491,748.84,487,752.84,483,748.84,487,757.84" style="stroke:#181818;stroke-width:1.0;"/><text fill="#000000" font-family="sans-serif" font-size="13" lengthAdjust="spacing" textLength="39" x="488" y="724.4951">vehicle</text><text fill="#000000" font-family="sans-serif" font-size="13" lengthAdjust="spacing" textLength="7" x="479.6992" y="701.0686">1</text><text fill="#000000" font-family="sans-serif" font-size="13" lengthAdjust="spacing" textLength="5" x="481.8711" y="747.33">*</text></g><!--SRC=[xLLDJnin4BtlhnZb0XI2rEkgujA2555L5HNffHTdFTbOE7QmdS2gwd-lrzaFxteIaBWXzhBoVBpnl3SQsmUXDiomDTWLu_f9g1AMJ5hCREUHGY6uQeEmqRAgJrbs8d7fm6amebmvuC9WuOHMMGR-AoIp5kwm5DQXcUDA51BlP_0tUEll7CpGUte6EUoqu27atn6ShrevewL44-5DORVttk56M-6qgJpUV6mxKdy- -v73BsSy0nUmC4pn_hZM76L_hBdeJqtXdvAvoFf7EMRmDzRqvC3rTY7n0agZhHqRYwqngDpjkZVjBsTOJUct0Iuh7hV2DvCurameXugf0cyCFcvH5LKEtbOJkz1Q8bDH-mT9FJsZ56W856W7f0jbNLtHbuXZtY1BYMxMW8QH8653M88IucdiGJT923L7tpqx7gx-VMaIhiZwHA2D8nddxOWrqDqb1oF_CPM-_HqQiQokdtqPdqwIC2SQ6uDHSWz4zeZG9aVcG33b25HJZh0M2NjCFvdNoG0jlv4t4eHoTz9GpaCYHI4ZjSY62TqW29V5SZ4fk4SuDk2foEz_jjiXJ5_0oykhmwitE_pIxVFwLPZx2qUBSR2WfzDnRBkcNoYGBCOyNTzfgSddoQiIqxNhCpt0vDEahTobPVy1]--></g></svg>