<?xml version="1.0" encoding="UTF-8" standalone="no"?><svg xmlns="http://www.w3.org/2000/svg" xmlns:xlink="http://www.w3.org/1999/xlink" contentStyleType="text/css" height="1129px" preserveAspectRatio="none" style="width:1005px;height:1129px;background:#FFFFFF;" version="1.1" viewBox="0 0 1005 1129" width="1005px" zoomAndPan="magnify"><defs/><g><!--class RegisterVehicleUI--><g id="elem_RegisterVehicleUI"><rect codeLine="6" fill="#F1F1F1" height="83.2188" id="RegisterVehicleUI" rx="2.5" ry="2.5" style="stroke:#181818;stroke-width:0.5;" width="258" x="410" y="7"/><ellipse cx="479.25" cy="23" fill="#ADD1B2" rx="11" ry="11" style="stroke:#181818;stroke-width:1.0;"/><path d="M482.0156,18.875 Q482.1719,18.6563 482.3594,18.5469 Q482.5469,18.4375 482.7656,18.4375 Q483.1406,18.4375 483.375,18.7031 Q483.6094,18.9531 483.6094,19.5625 L483.6094,21.0156 Q483.6094,21.625 483.375,21.8906 Q483.1406,22.1563 482.7656,22.1563 Q482.4219,22.1563 482.2188,21.9531 Q482.0156,21.7656 481.9063,21.25 Q481.8594,20.8906 481.6719,20.7031 Q481.3438,20.3281 480.7344,20.1094 Q480.125,19.8906 479.5,19.8906 Q478.7344,19.8906 478.0938,20.2188 Q477.4688,20.5469 476.9688,21.2969 Q476.4844,22.0469 476.4844,23.0781 L476.4844,24.1719 Q476.4844,25.4063 477.375,26.2344 Q478.2656,27.0469 479.8594,27.0469 Q480.7969,27.0469 481.4531,26.7969 Q481.8438,26.6406 482.2656,26.2031 Q482.5313,25.9375 482.6719,25.8594 Q482.8281,25.7813 483.0313,25.7813 Q483.3594,25.7813 483.6094,26.0469 Q483.875,26.2969 483.875,26.6406 Q483.875,26.9844 483.5313,27.3906 Q483.0313,27.9688 482.2344,28.2969 Q481.1563,28.75 479.8594,28.75 Q478.3438,28.75 477.1406,28.125 Q476.1563,27.625 475.4688,26.5625 Q474.7813,25.4844 474.7813,24.2031 L474.7813,23.0469 Q474.7813,21.7188 475.3906,20.5781 Q476.0156,19.4219 477.1094,18.8125 Q478.2031,18.1875 479.4375,18.1875 Q480.1719,18.1875 480.8125,18.3594 Q481.4688,18.5156 482.0156,18.875 Z " fill="#000000"/><text fill="#000000" font-family="sans-serif" font-size="14" lengthAdjust="spacing" textLength="111" x="499.75" y="28.7285">RegisterVehicleUI</text><line style="stroke:#181818;stroke-width:0.5;" x1="411" x2="667" y1="39" y2="39"/><rect fill="none" height="6" style="stroke:#C82930;stroke-width:1.0;" width="6" x="418" y="50.3047"/><text fill="#000000" font-family="sans-serif" font-size="14" lengthAdjust="spacing" textLength="232" x="430" y="57.5332">controller : RegisterVehicleController</text><line style="stroke:#181818;stroke-width:0.5;" x1="411" x2="667" y1="64.6094" y2="64.6094"/><ellipse cx="421" cy="78.9141" fill="#84BE84" rx="3" ry="3" style="stroke:#038048;stroke-width:1.0;"/><text fill="#000000" font-family="sans-serif" font-size="14" lengthAdjust="spacing" textLength="142" x="430" y="83.1426">registerVehicle() : void</text></g><!--class RegisterVehicleController--><g id="elem_RegisterVehicleController"><rect codeLine="11" fill="#F1F1F1" height="136.0469" id="RegisterVehicleController" rx="2.5" ry="2.5" style="stroke:#181818;stroke-width:0.5;" width="918" x="80" y="151"/><ellipse cx="454.25" cy="167" fill="#ADD1B2" rx="11" ry="11" style="stroke:#181818;stroke-width:1.0;"/><path d="M457.0156,162.875 Q457.1719,162.6563 457.3594,162.5469 Q457.5469,162.4375 457.7656,162.4375 Q458.1406,162.4375 458.375,162.7031 Q458.6094,162.9531 458.6094,163.5625 L458.6094,165.0156 Q458.6094,165.625 458.375,165.8906 Q458.1406,166.1563 457.7656,166.1563 Q457.4219,166.1563 457.2188,165.9531 Q457.0156,165.7656 456.9063,165.25 Q456.8594,164.8906 456.6719,164.7031 Q456.3438,164.3281 455.7344,164.1094 Q455.125,163.8906 454.5,163.8906 Q453.7344,163.8906 453.0938,164.2188 Q452.4688,164.5469 451.9688,165.2969 Q451.4844,166.0469 451.4844,167.0781 L451.4844,168.1719 Q451.4844,169.4063 452.375,170.2344 Q453.2656,171.0469 454.8594,171.0469 Q455.7969,171.0469 456.4531,170.7969 Q456.8438,170.6406 457.2656,170.2031 Q457.5313,169.9375 457.6719,169.8594 Q457.8281,169.7813 458.0313,169.7813 Q458.3594,169.7813 458.6094,170.0469 Q458.875,170.2969 458.875,170.6406 Q458.875,170.9844 458.5313,171.3906 Q458.0313,171.9688 457.2344,172.2969 Q456.1563,172.75 454.8594,172.75 Q453.3438,172.75 452.1406,172.125 Q451.1563,171.625 450.4688,170.5625 Q449.7813,169.4844 449.7813,168.2031 L449.7813,167.0469 Q449.7813,165.7188 450.3906,164.5781 Q451.0156,163.4219 452.1094,162.8125 Q453.2031,162.1875 454.4375,162.1875 Q455.1719,162.1875 455.8125,162.3594 Q456.4688,162.5156 457.0156,162.875 Z " fill="#000000"/><text fill="#000000" font-family="sans-serif" font-size="14" lengthAdjust="spacing" textLength="161" x="474.75" y="172.7285">RegisterVehicleController</text><line style="stroke:#181818;stroke-width:0.5;" x1="81" x2="997" y1="183" y2="183"/><rect fill="none" height="6" style="stroke:#C82930;stroke-width:1.0;" width="6" x="88" y="194.3047"/><text fill="#000000" font-family="sans-serif" font-size="14" lengthAdjust="spacing" textLength="161" x="100" y="201.5332">repositories: Repositories</text><rect fill="none" height="6" style="stroke:#C82930;stroke-width:1.0;" width="6" x="88" y="211.9141"/><text fill="#000000" font-family="sans-serif" font-size="14" lengthAdjust="spacing" textLength="238" x="100" y="219.1426">vehicleRepository : VehicleRepository</text><line style="stroke:#181818;stroke-width:0.5;" x1="81" x2="997" y1="226.2188" y2="226.2188"/><ellipse cx="91" cy="240.5234" fill="#84BE84" rx="3" ry="3" style="stroke:#038048;stroke-width:1.0;"/><text fill="#000000" font-family="sans-serif" font-size="14" lengthAdjust="spacing" textLength="171" x="100" y="244.752">RegisterVehicleController()</text><ellipse cx="91" cy="266.9375" fill="#84BE84" rx="3" ry="3" style="stroke:#038048;stroke-width:1.0;"/><text fill="#000000" font-family="sans-serif" font-size="14" lengthAdjust="spacing" textLength="559" x="100" y="262.3613">registerVehicle(VIN: String, brand: String, model: String, type: String, vehiclePlate: String,</text><text fill="#000000" font-family="sans-serif" font-size="14" lengthAdjust="spacing" textLength="892" x="100" y="279.9707">tareWeight: double, grossWeight: double, currentKm: int, registrationDate: Date, acquisitionDate: Date, maintenanceFrequency: int) : boolean</text></g><!--class Repositories--><g id="elem_Repositories"><rect codeLine="19" fill="#F1F1F1" height="136.0469" id="Repositories" rx="2.5" ry="2.5" style="stroke:#181818;stroke-width:0.5;" width="296" x="169" y="365"/><ellipse cx="273.25" cy="381" fill="#ADD1B2" rx="11" ry="11" style="stroke:#181818;stroke-width:1.0;"/><path d="M276.0156,376.875 Q276.1719,376.6563 276.3594,376.5469 Q276.5469,376.4375 276.7656,376.4375 Q277.1406,376.4375 277.375,376.7031 Q277.6094,376.9531 277.6094,377.5625 L277.6094,379.0156 Q277.6094,379.625 277.375,379.8906 Q277.1406,380.1563 276.7656,380.1563 Q276.4219,380.1563 276.2188,379.9531 Q276.0156,379.7656 275.9063,379.25 Q275.8594,378.8906 275.6719,378.7031 Q275.3438,378.3281 274.7344,378.1094 Q274.125,377.8906 273.5,377.8906 Q272.7344,377.8906 272.0938,378.2188 Q271.4688,378.5469 270.9688,379.2969 Q270.4844,380.0469 270.4844,381.0781 L270.4844,382.1719 Q270.4844,383.4063 271.375,384.2344 Q272.2656,385.0469 273.8594,385.0469 Q274.7969,385.0469 275.4531,384.7969 Q275.8438,384.6406 276.2656,384.2031 Q276.5313,383.9375 276.6719,383.8594 Q276.8281,383.7813 277.0313,383.7813 Q277.3594,383.7813 277.6094,384.0469 Q277.875,384.2969 277.875,384.6406 Q277.875,384.9844 277.5313,385.3906 Q277.0313,385.9688 276.2344,386.2969 Q275.1563,386.75 273.8594,386.75 Q272.3438,386.75 271.1406,386.125 Q270.1563,385.625 269.4688,384.5625 Q268.7813,383.4844 268.7813,382.2031 L268.7813,381.0469 Q268.7813,379.7188 269.3906,378.5781 Q270.0156,377.4219 271.1094,376.8125 Q272.2031,376.1875 273.4375,376.1875 Q274.1719,376.1875 274.8125,376.3594 Q275.4688,376.5156 276.0156,376.875 Z " fill="#000000"/><text fill="#000000" font-family="sans-serif" font-size="14" lengthAdjust="spacing" textLength="79" x="293.75" y="386.7285">Repositories</text><line style="stroke:#181818;stroke-width:0.5;" x1="170" x2="464" y1="397" y2="397"/><rect fill="none" height="6" style="stroke:#C82930;stroke-width:1.0;" width="6" x="177" y="408.3047"/><text fill="#000000" font-family="sans-serif" font-size="14" lengthAdjust="spacing" textLength="144" x="189" y="415.5332">instance : Repositories</text><rect fill="none" height="6" style="stroke:#C82930;stroke-width:1.0;" width="6" x="177" y="425.9141"/><text fill="#000000" font-family="sans-serif" font-size="14" lengthAdjust="spacing" textLength="238" x="189" y="433.1426">vehicleRepository : VehicleRepository</text><line style="stroke:#181818;stroke-width:0.5;" x1="170" x2="464" y1="440.2188" y2="440.2188"/><rect fill="#F24D5C" height="6" style="stroke:#C82930;stroke-width:1.0;" width="6" x="177" y="451.5234"/><text fill="#000000" font-family="sans-serif" font-size="14" lengthAdjust="spacing" textLength="89" x="189" y="458.752">Repositories()</text><ellipse cx="180" cy="472.1328" fill="#84BE84" rx="3" ry="3" style="stroke:#038048;stroke-width:1.0;"/><text fill="#000000" font-family="sans-serif" font-size="14" lengthAdjust="spacing" textLength="174" x="189" y="476.3613">getInstance() : Repositories</text><ellipse cx="180" cy="489.7422" fill="#84BE84" rx="3" ry="3" style="stroke:#038048;stroke-width:1.0;"/><text fill="#000000" font-family="sans-serif" font-size="14" lengthAdjust="spacing" textLength="270" x="189" y="493.9707">getVehicleRepository() : VehicleRepository</text></g><!--class VehicleRepository--><g id="elem_VehicleRepository"><rect codeLine="27" fill="#F1F1F1" height="171.2656" id="VehicleRepository" rx="2.5" ry="2.5" style="stroke:#181818;stroke-width:0.5;" width="918" x="7" y="579"/><ellipse cx="404.75" cy="595" fill="#ADD1B2" rx="11" ry="11" style="stroke:#181818;stroke-width:1.0;"/><path d="M407.5156,590.875 Q407.6719,590.6563 407.8594,590.5469 Q408.0469,590.4375 408.2656,590.4375 Q408.6406,590.4375 408.875,590.7031 Q409.1094,590.9531 409.1094,591.5625 L409.1094,593.0156 Q409.1094,593.625 408.875,593.8906 Q408.6406,594.1563 408.2656,594.1563 Q407.9219,594.1563 407.7188,593.9531 Q407.5156,593.7656 407.4063,593.25 Q407.3594,592.8906 407.1719,592.7031 Q406.8438,592.3281 406.2344,592.1094 Q405.625,591.8906 405,591.8906 Q404.2344,591.8906 403.5938,592.2188 Q402.9688,592.5469 402.4688,593.2969 Q401.9844,594.0469 401.9844,595.0781 L401.9844,596.1719 Q401.9844,597.4063 402.875,598.2344 Q403.7656,599.0469 405.3594,599.0469 Q406.2969,599.0469 406.9531,598.7969 Q407.3438,598.6406 407.7656,598.2031 Q408.0313,597.9375 408.1719,597.8594 Q408.3281,597.7813 408.5313,597.7813 Q408.8594,597.7813 409.1094,598.0469 Q409.375,598.2969 409.375,598.6406 Q409.375,598.9844 409.0313,599.3906 Q408.5313,599.9688 407.7344,600.2969 Q406.6563,600.75 405.3594,600.75 Q403.8438,600.75 402.6406,600.125 Q401.6563,599.625 400.9688,598.5625 Q400.2813,597.4844 400.2813,596.2031 L400.2813,595.0469 Q400.2813,593.7188 400.8906,592.5781 Q401.5156,591.4219 402.6094,590.8125 Q403.7031,590.1875 404.9375,590.1875 Q405.6719,590.1875 406.3125,590.3594 Q406.9688,590.5156 407.5156,590.875 Z " fill="#000000"/><text fill="#000000" font-family="sans-serif" font-size="14" lengthAdjust="spacing" textLength="114" x="425.25" y="600.7285">VehicleRepository</text><line style="stroke:#181818;stroke-width:0.5;" x1="8" x2="924" y1="611" y2="611"/><rect fill="none" height="6" style="stroke:#C82930;stroke-width:1.0;" width="6" x="15" y="622.3047"/><text fill="#000000" font-family="sans-serif" font-size="14" lengthAdjust="spacing" textLength="162" x="27" y="629.5332">vehicleList : List&lt;Vehicle&gt;</text><line style="stroke:#181818;stroke-width:0.5;" x1="8" x2="924" y1="636.6094" y2="636.6094"/><ellipse cx="18" cy="650.9141" fill="#84BE84" rx="3" ry="3" style="stroke:#038048;stroke-width:1.0;"/><text fill="#000000" font-family="sans-serif" font-size="14" lengthAdjust="spacing" textLength="124" x="27" y="655.1426">VehicleRepository()</text><ellipse cx="18" cy="668.5234" fill="#84BE84" rx="3" ry="3" style="stroke:#038048;stroke-width:1.0;"/><text fill="#000000" font-family="sans-serif" font-size="14" lengthAdjust="spacing" textLength="205" x="27" y="672.752">getVehicleList () : List&lt;Vehicles&gt;</text><ellipse cx="18" cy="694.9375" fill="#84BE84" rx="3" ry="3" style="stroke:#038048;stroke-width:1.0;"/><text fill="#000000" font-family="sans-serif" font-size="14" lengthAdjust="spacing" textLength="559" x="27" y="690.3613">registerVehicle(VIN: String, brand: String, model: String, type: String, vehiclePlate: String,</text><text fill="#000000" font-family="sans-serif" font-size="14" lengthAdjust="spacing" textLength="892" x="27" y="707.9707">tareWeight: double, grossWeight: double, currentKm: int, registrationDate: Date, acquisitionDate: Date, maintenanceFrequency: int) : boolean</text><ellipse cx="18" cy="721.3516" fill="#84BE84" rx="3" ry="3" style="stroke:#038048;stroke-width:1.0;"/><text fill="#000000" font-family="sans-serif" font-size="14" lengthAdjust="spacing" textLength="216" x="27" y="725.5801">addVehicle(vehicle: Vehicle) : void</text><ellipse cx="18" cy="738.9609" fill="#84BE84" rx="3" ry="3" style="stroke:#038048;stroke-width:1.0;"/><text fill="#000000" font-family="sans-serif" font-size="14" lengthAdjust="spacing" textLength="398" x="27" y="743.1895">verifyExistingVehicle(VIN: String, VehiclePlate: String) : boolean</text></g><!--class Vehicle--><g id="elem_Vehicle"><rect codeLine="37" fill="#F1F1F1" height="294.5313" id="Vehicle" rx="2.5" ry="2.5" style="stroke:#181818;stroke-width:0.5;" width="855" x="38.5" y="828"/><ellipse cx="438.75" cy="844" fill="#ADD1B2" rx="11" ry="11" style="stroke:#181818;stroke-width:1.0;"/><path d="M441.5156,839.875 Q441.6719,839.6563 441.8594,839.5469 Q442.0469,839.4375 442.2656,839.4375 Q442.6406,839.4375 442.875,839.7031 Q443.1094,839.9531 443.1094,840.5625 L443.1094,842.0156 Q443.1094,842.625 442.875,842.8906 Q442.6406,843.1563 442.2656,843.1563 Q441.9219,843.1563 441.7188,842.9531 Q441.5156,842.7656 441.4063,842.25 Q441.3594,841.8906 441.1719,841.7031 Q440.8438,841.3281 440.2344,841.1094 Q439.625,840.8906 439,840.8906 Q438.2344,840.8906 437.5938,841.2188 Q436.9688,841.5469 436.4688,842.2969 Q435.9844,843.0469 435.9844,844.0781 L435.9844,845.1719 Q435.9844,846.4063 436.875,847.2344 Q437.7656,848.0469 439.3594,848.0469 Q440.2969,848.0469 440.9531,847.7969 Q441.3438,847.6406 441.7656,847.2031 Q442.0313,846.9375 442.1719,846.8594 Q442.3281,846.7813 442.5313,846.7813 Q442.8594,846.7813 443.1094,847.0469 Q443.375,847.2969 443.375,847.6406 Q443.375,847.9844 443.0313,848.3906 Q442.5313,848.9688 441.7344,849.2969 Q440.6563,849.75 439.3594,849.75 Q437.8438,849.75 436.6406,849.125 Q435.6563,848.625 434.9688,847.5625 Q434.2813,846.4844 434.2813,845.2031 L434.2813,844.0469 Q434.2813,842.7188 434.8906,841.5781 Q435.5156,840.4219 436.6094,839.8125 Q437.7031,839.1875 438.9375,839.1875 Q439.6719,839.1875 440.3125,839.3594 Q440.9688,839.5156 441.5156,839.875 Z " fill="#000000"/><text fill="#000000" font-family="sans-serif" font-size="14" lengthAdjust="spacing" textLength="46" x="459.25" y="849.7285">Vehicle</text><line style="stroke:#181818;stroke-width:0.5;" x1="39.5" x2="892.5" y1="860" y2="860"/><rect fill="none" height="6" style="stroke:#C82930;stroke-width:1.0;" width="6" x="46.5" y="871.3047"/><text fill="#000000" font-family="sans-serif" font-size="14" lengthAdjust="spacing" textLength="70" x="58.5" y="878.5332">VIN : String</text><rect fill="none" height="6" style="stroke:#C82930;stroke-width:1.0;" width="6" x="46.5" y="888.9141"/><text fill="#000000" font-family="sans-serif" font-size="14" lengthAdjust="spacing" textLength="86" x="58.5" y="896.1426">brand : String</text><rect fill="none" height="6" style="stroke:#C82930;stroke-width:1.0;" width="6" x="46.5" y="906.5234"/><text fill="#000000" font-family="sans-serif" font-size="14" lengthAdjust="spacing" textLength="87" x="58.5" y="913.752">model : String</text><rect fill="none" height="6" style="stroke:#C82930;stroke-width:1.0;" width="6" x="46.5" y="924.1328"/><text fill="#000000" font-family="sans-serif" font-size="14" lengthAdjust="spacing" textLength="76" x="58.5" y="931.3613">type : String</text><rect fill="none" height="6" style="stroke:#C82930;stroke-width:1.0;" width="6" x="46.5" y="941.7422"/><text fill="#000000" font-family="sans-serif" font-size="14" lengthAdjust="spacing" textLength="125" x="58.5" y="948.9707">vehiclePlate : String</text><rect fill="none" height="6" style="stroke:#C82930;stroke-width:1.0;" width="6" x="46.5" y="959.3516"/><text fill="#000000" font-family="sans-serif" font-size="14" lengthAdjust="spacing" textLength="124" x="58.5" y="966.5801">tareWeight : double</text><rect fill="none" height="6" style="stroke:#C82930;stroke-width:1.0;" width="6" x="46.5" y="976.9609"/><text fill="#000000" font-family="sans-serif" font-size="14" lengthAdjust="spacing" textLength="134" x="58.5" y="984.1895">grossWeight : double</text><rect fill="none" height="6" style="stroke:#C82930;stroke-width:1.0;" width="6" x="46.5" y="994.5703"/><text fill="#000000" font-family="sans-serif" font-size="14" lengthAdjust="spacing" textLength="92" x="58.5" y="1001.7988">currentKm : int</text><rect fill="none" height="6" style="stroke:#C82930;stroke-width:1.0;" width="6" x="46.5" y="1012.1797"/><text fill="#000000" font-family="sans-serif" font-size="14" lengthAdjust="spacing" textLength="139" x="58.5" y="1019.4082">registrationDate: Date</text><rect fill="none" height="6" style="stroke:#C82930;stroke-width:1.0;" width="6" x="46.5" y="1029.7891"/><text fill="#000000" font-family="sans-serif" font-size="14" lengthAdjust="spacing" textLength="139" x="58.5" y="1037.0176">acquisitionDate : Date</text><rect fill="none" height="6" style="stroke:#C82930;stroke-width:1.0;" width="6" x="46.5" y="1047.3984"/><text fill="#000000" font-family="sans-serif" font-size="14" lengthAdjust="spacing" textLength="176" x="58.5" y="1054.627">maintenanceFrequency : int</text><line style="stroke:#181818;stroke-width:0.5;" x1="39.5" x2="892.5" y1="1061.7031" y2="1061.7031"/><ellipse cx="49.5" cy="1076.0078" fill="#84BE84" rx="3" ry="3" style="stroke:#038048;stroke-width:1.0;"/><text fill="#000000" font-family="sans-serif" font-size="14" lengthAdjust="spacing" textLength="266" x="58.5" y="1080.2363">validateVehicle(vehicle: Vehicle) : boolean</text><ellipse cx="49.5" cy="1102.4219" fill="#84BE84" rx="3" ry="3" style="stroke:#038048;stroke-width:1.0;"/><text fill="#000000" font-family="sans-serif" font-size="14" lengthAdjust="spacing" textLength="511" x="58.5" y="1097.8457">Vehicle(VIN: String, brand: String, model: String, type: String, vehiclePlate: String,</text><text fill="#000000" font-family="sans-serif" font-size="14" lengthAdjust="spacing" textLength="829" x="58.5" y="1115.4551">tareWeight: double, grossWeight: double, currentKm: int, registrationDate: Date, acquisitionDate: Date, maintenanceFrequency: int)</text></g><!--link RegisterVehicleUI to RegisterVehicleController--><g id="link_RegisterVehicleUI_RegisterVehicleController"><path codeLine="54" d="M539,90.29 C539,106.94 539,126.7 539,145.65 " fill="none" id="RegisterVehicleUI-to-RegisterVehicleController" style="stroke:#181818;stroke-width:1.0;stroke-dasharray:7.0,7.0;"/><polygon fill="#181818" points="539,150.97,543,141.97,539,145.97,535,141.97,539,150.97" style="stroke:#181818;stroke-width:1.0;"/></g><!--link RegisterVehicleController to Repositories--><g id="link_RegisterVehicleController_Repositories"><path codeLine="55" d="M468.76,287.08 C443.94,310.78 415.96,337.5 390.85,361.48 " fill="none" id="RegisterVehicleController-to-Repositories" style="stroke:#181818;stroke-width:1.0;stroke-dasharray:7.0,7.0;"/><polygon fill="#181818" points="387.17,364.99,396.4387,361.6596,390.7832,361.5339,390.9089,355.8784,387.17,364.99" style="stroke:#181818;stroke-width:1.0;"/><text fill="#000000" font-family="sans-serif" font-size="13" lengthAdjust="spacing" textLength="67" x="436" y="331.4951">repositories</text></g><!--link Repositories to Repositories--><g id="link_Repositories_Repositories"><path codeLine="56" d="M465.27,415.21 C486.07,418.12 500,424.05 500,433 C500,441.18 488.36,446.84 470.48,449.97 " fill="none" id="Repositories-to-Repositories" style="stroke:#181818;stroke-width:1.0;"/><polygon fill="#181818" points="465.27,450.79,474.7792,453.3543,470.2102,450.019,473.5455,445.45,465.27,450.79" style="stroke:#181818;stroke-width:1.0;"/><text fill="#000000" font-family="sans-serif" font-size="13" lengthAdjust="spacing" textLength="49" x="506" y="438.4951">instance</text></g><!--link RegisterVehicleController to VehicleRepository--><g id="link_RegisterVehicleController_VehicleRepository"><path codeLine="57" d="M557.27,287.06 C569.98,344.75 581.49,429.7 562,501 C555.12,526.19 543.22,551.44 530.09,574.28 " fill="none" id="RegisterVehicleController-to-VehicleRepository" style="stroke:#181818;stroke-width:1.0;stroke-dasharray:7.0,7.0;"/><polygon fill="#181818" points="527.45,578.81,535.4293,573.0367,529.9614,574.4865,528.5116,569.0185,527.45,578.81" style="stroke:#181818;stroke-width:1.0;"/><text fill="#000000" font-family="sans-serif" font-size="13" lengthAdjust="spacing" textLength="101" x="573" y="438.4951">vehicleRepository</text></g><!--link Repositories to VehicleRepository--><g id="link_Repositories_VehicleRepository"><path codeLine="58" d="M360.7,501.31 C375.55,524.19 392.39,550.12 408.18,574.44 " fill="none" id="Repositories-to-VehicleRepository" style="stroke:#181818;stroke-width:1.0;"/><polygon fill="#181818" points="410.9,578.64,409.3512,568.9137,408.1761,574.4471,402.6426,573.272,410.9,578.64" style="stroke:#181818;stroke-width:1.0;"/><text fill="#000000" font-family="sans-serif" font-size="13" lengthAdjust="spacing" textLength="101" x="393" y="545.4951">vehicleRepository</text><text fill="#000000" font-family="sans-serif" font-size="13" lengthAdjust="spacing" textLength="7" x="398.8641" y="568.0727">1</text></g><!--link VehicleRepository to Vehicle--><g id="link_VehicleRepository_Vehicle"><path codeLine="59" d="M466,750.34 C466,772.78 466,797.69 466,822.52 " fill="none" id="VehicleRepository-to-Vehicle" style="stroke:#181818;stroke-width:1.0;"/><polygon fill="#181818" points="466,827.81,470,818.81,466,822.81,462,818.81,466,827.81" style="stroke:#181818;stroke-width:1.0;"/><text fill="#000000" font-family="sans-serif" font-size="13" lengthAdjust="spacing" textLength="39" x="467" y="794.4951">vehicle</text><text fill="#000000" font-family="sans-serif" font-size="13" lengthAdjust="spacing" textLength="5" x="460.8711" y="817.2985">*</text></g><!--SRC=[vLLDZzCm4BtdLunwOHVQbRX6g9S5f0g448XouUB6qzJ2jRjZjn0X_ZkscmyxyGOaRf13Ay-yDnz-ex7vAjI94Jk2EJ2klmbLmvv9WuNfFL8e1DkS44vQDlvK54yaxYrO3IJgWmKk22ihj2eAS5ybcJ7m0MjXBD8M3wAI-6a3FuBNVokejBAafKI2SWozxtqzuHbGYhcvTRoB5Zn0Viua7g8b1H2Uj15Maq3ZAnXE4UXo3T5x6vTqExOLKPMFvhwvdUbbktbNmaTBxlgNi2Ec-70yQevoE7eXXbDRttl9R6JzeYmZ_8nUcnAuFkyaBg4cRSpOM9s9KDatnnA4iiksCc9Up9SXgFzT0giUpiArEp8VcMEXOgh2ruGFPrHL4o9vTNPQIsGg9z1msOacGXdhOy5V2ZBWup2913NQJPijZ58sNu1DmWTyFcdIvWIIzDfsyjPTjmld_rwqX7KyK9disV92d51P7Cgi_-kfk_RDEEzQRYllvKkMo1LzGHBxvjLtLv1hAtjNsqp_imFV4XBzNKJeo94vw91p14LoZh2QC_POfIolLmiwPI9lf5lEtIi8uUAJlPhJCWACH8K982TlcoRMYKd17N5Eskai_CEptutTzDszkrlFFB6FFvTNNlnCnezcaQpnrMgCxPRvRn9C5bmvNVBJL8ldYpyYJdUmOo-UBhgqFQVu1G00]--></g></svg>