<?xml version="1.0" encoding="UTF-8" standalone="no"?><svg xmlns="http://www.w3.org/2000/svg" xmlns:xlink="http://www.w3.org/1999/xlink" contentStyleType="text/css" height="1512px" preserveAspectRatio="none" style="width:2768px;height:1512px;background:#FFFFFF;" version="1.1" viewBox="0 0 2768 1512" width="2768px" zoomAndPan="magnify"><defs/><g><text fill="#000000" font-family="sans-serif" font-size="14" font-weight="bold" lengthAdjust="spacing" textLength="414" x="1176" y="29.5332">System Sequence Diagram (SSD) - Register Vehicle (US006)</text><rect fill="#FFFFFF" height="1281.5234" style="stroke:#181818;stroke-width:1.0;" width="10" x="145" y="131.2188"/><rect fill="#FFFFFF" height="30.3516" style="stroke:#181818;stroke-width:1.0;" width="10" x="924" y="153.5703"/><rect fill="#FFFFFF" height="428.2188" style="stroke:#181818;stroke-width:1.0;" width="10" x="924" y="214.2734"/><rect fill="#FFFFFF" height="30.3516" style="stroke:#181818;stroke-width:1.0;" width="10" x="924" y="672.8438"/><rect fill="#FFFFFF" height="679.1953" style="stroke:#181818;stroke-width:1.0;" width="10" x="924" y="733.5469"/><rect fill="#FFFFFF" height="185.4063" style="stroke:#181818;stroke-width:1.0;" width="10" x="1750" y="244.625"/><rect fill="#FFFFFF" height="41.3516" style="stroke:#181818;stroke-width:1.0;" width="10" x="1755" y="351.3281"/><rect fill="#FFFFFF" height="151.7578" style="stroke:#181818;stroke-width:1.0;" width="10" x="1750" y="460.3828"/><rect fill="#FFFFFF" height="618.4922" style="stroke:#181818;stroke-width:1.0;" width="10" x="1750" y="763.8984"/><rect fill="#FFFFFF" height="223.4609" style="stroke:#181818;stroke-width:1.0;" width="10" x="1755" y="802.25"/><rect fill="#FFFFFF" height="188.7578" style="stroke:#181818;stroke-width:1.0;" width="10" x="1755" y="1156.2813"/><rect fill="#FFFFFF" height="41.3516" style="stroke:#181818;stroke-width:1.0;" width="10" x="1760" y="1260.3359"/><rect fill="#FFFFFF" height="30.3516" style="stroke:#181818;stroke-width:1.0;" width="10" x="1935" y="837.6016"/><rect fill="#FFFFFF" height="30.3516" style="stroke:#181818;stroke-width:1.0;" width="10" x="2042" y="490.7344"/><rect fill="#FFFFFF" height="30.3516" style="stroke:#181818;stroke-width:1.0;" width="10" x="2042" y="898.3047"/><rect fill="#FFFFFF" height="30.3516" style="stroke:#181818;stroke-width:1.0;" width="10" x="2162" y="551.4375"/><rect fill="#FFFFFF" height="30.3516" style="stroke:#181818;stroke-width:1.0;" width="10" x="2298.5" y="1191.6328"/><rect fill="#FFFFFF" height="30.3516" style="stroke:#181818;stroke-width:1.0;" width="10" x="2703.5" y="959.0078"/><line style="stroke:#181818;stroke-width:0.5;stroke-dasharray:5.0,5.0;" x1="150" x2="150" y1="121.2188" y2="1430.7422"/><line style="stroke:#181818;stroke-width:0.5;stroke-dasharray:5.0,5.0;" x1="928.5" x2="928.5" y1="121.2188" y2="1430.7422"/><line style="stroke:#181818;stroke-width:0.5;stroke-dasharray:5.0,5.0;" x1="1754.5" x2="1754.5" y1="121.2188" y2="1430.7422"/><line style="stroke:#181818;stroke-width:0.5;stroke-dasharray:5.0,5.0;" x1="1939.5" x2="1939.5" y1="121.2188" y2="1430.7422"/><line style="stroke:#181818;stroke-width:0.5;stroke-dasharray:5.0,5.0;" x1="2046.5" x2="2046.5" y1="121.2188" y2="1430.7422"/><line style="stroke:#181818;stroke-width:0.5;stroke-dasharray:5.0,5.0;" x1="2166.5" x2="2166.5" y1="121.2188" y2="1430.7422"/><line style="stroke:#181818;stroke-width:0.5;stroke-dasharray:5.0,5.0;" x1="2303.5" x2="2303.5" y1="121.2188" y2="1430.7422"/><line style="stroke:#181818;stroke-width:0.5;stroke-dasharray:5.0,5.0;" x1="2613" x2="2613" y1="1105.8203" y2="1430.7422"/><line style="stroke:#181818;stroke-width:0.5;stroke-dasharray:5.0,5.0;" x1="2708" x2="2708" y1="121.2188" y2="1430.7422"/><text fill="#000000" font-family="sans-serif" font-size="14" lengthAdjust="spacing" textLength="284" x="5" y="118.1426">Vehicle and Equipment Fleet Manager (VFM)</text><ellipse cx="150" cy="52.1094" fill="#E3E3E3" rx="8" ry="8" style="stroke:#181818;stroke-width:0.5;"/><path d="M150,60.1094 L150,87.1094 M137,68.1094 L163,68.1094 M150,87.1094 L137,102.1094 M150,87.1094 L163,102.1094 " fill="none" style="stroke:#181818;stroke-width:0.5;"/><text fill="#000000" font-family="sans-serif" font-size="14" lengthAdjust="spacing" textLength="284" x="5" y="1444.2754">Vehicle and Equipment Fleet Manager (VFM)</text><ellipse cx="150" cy="1455.8516" fill="#E3E3E3" rx="8" ry="8" style="stroke:#181818;stroke-width:0.5;"/><path d="M150,1463.8516 L150,1490.8516 M137,1471.8516 L163,1471.8516 M150,1490.8516 L137,1505.8516 M150,1490.8516 L163,1505.8516 " fill="none" style="stroke:#181818;stroke-width:0.5;"/><rect fill="#E3E3E3" height="31.6094" rx="2.5" ry="2.5" style="stroke:#181818;stroke-width:0.5;" width="129" x="864.5" y="88.6094"/><text fill="#000000" font-family="sans-serif" font-size="14" lengthAdjust="spacing" textLength="115" x="871.5" y="110.1426">:RegisterVehicleUI</text><rect fill="#E3E3E3" height="31.6094" rx="2.5" ry="2.5" style="stroke:#181818;stroke-width:0.5;" width="129" x="864.5" y="1429.7422"/><text fill="#000000" font-family="sans-serif" font-size="14" lengthAdjust="spacing" textLength="115" x="871.5" y="1451.2754">:RegisterVehicleUI</text><rect fill="#E3E3E3" height="31.6094" rx="2.5" ry="2.5" style="stroke:#181818;stroke-width:0.5;" width="179" x="1665.5" y="88.6094"/><text fill="#000000" font-family="sans-serif" font-size="14" lengthAdjust="spacing" textLength="165" x="1672.5" y="110.1426">:RegisterVehicleController</text><rect fill="#E3E3E3" height="31.6094" rx="2.5" ry="2.5" style="stroke:#181818;stroke-width:0.5;" width="179" x="1665.5" y="1429.7422"/><text fill="#000000" font-family="sans-serif" font-size="14" lengthAdjust="spacing" textLength="165" x="1672.5" y="1451.2754">:RegisterVehicleController</text><rect fill="#E3E3E3" height="31.6094" rx="2.5" ry="2.5" style="stroke:#181818;stroke-width:0.5;" width="97" x="1891.5" y="88.6094"/><text fill="#000000" font-family="sans-serif" font-size="14" lengthAdjust="spacing" textLength="83" x="1898.5" y="110.1426">:Repositories</text><rect fill="#E3E3E3" height="31.6094" rx="2.5" ry="2.5" style="stroke:#181818;stroke-width:0.5;" width="97" x="1891.5" y="1429.7422"/><text fill="#000000" font-family="sans-serif" font-size="14" lengthAdjust="spacing" textLength="83" x="1898.5" y="1451.2754">:Repositories</text><rect fill="#E3E3E3" height="49.2188" rx="2.5" ry="2.5" style="stroke:#181818;stroke-width:0.5;" width="97" x="1998.5" y="71"/><text fill="#000000" font-family="sans-serif" font-size="14" lengthAdjust="spacing" textLength="74" x="2010" y="92.5332">repositories</text><text fill="#000000" font-family="sans-serif" font-size="14" lengthAdjust="spacing" textLength="83" x="2005.5" y="110.1426">:Repositories</text><rect fill="#E3E3E3" height="49.2188" rx="2.5" ry="2.5" style="stroke:#181818;stroke-width:0.5;" width="97" x="1998.5" y="1429.7422"/><text fill="#000000" font-family="sans-serif" font-size="14" lengthAdjust="spacing" textLength="74" x="2010" y="1451.2754">repositories</text><text fill="#000000" font-family="sans-serif" font-size="14" lengthAdjust="spacing" textLength="83" x="2005.5" y="1468.8848">:Repositories</text><rect fill="#E3E3E3" height="49.2188" rx="2.5" ry="2.5" style="stroke:#181818;stroke-width:0.5;" width="123" x="2105.5" y="71"/><text fill="#000000" font-family="sans-serif" font-size="14" lengthAdjust="spacing" textLength="109" x="2112.5" y="92.5332">brandRepository:</text><text fill="#000000" font-family="sans-serif" font-size="14" lengthAdjust="spacing" textLength="106" x="2114" y="110.1426">BrandRepository</text><rect fill="#E3E3E3" height="49.2188" rx="2.5" ry="2.5" style="stroke:#181818;stroke-width:0.5;" width="123" x="2105.5" y="1429.7422"/><text fill="#000000" font-family="sans-serif" font-size="14" lengthAdjust="spacing" textLength="109" x="2112.5" y="1451.2754">brandRepository:</text><text fill="#000000" font-family="sans-serif" font-size="14" lengthAdjust="spacing" textLength="106" x="2114" y="1468.8848">BrandRepository</text><rect fill="#E3E3E3" height="49.2188" rx="2.5" ry="2.5" style="stroke:#181818;stroke-width:0.5;" width="130" x="2238.5" y="71"/><text fill="#000000" font-family="sans-serif" font-size="14" lengthAdjust="spacing" textLength="116" x="2245.5" y="92.5332">vehicleRepository:</text><text fill="#000000" font-family="sans-serif" font-size="14" lengthAdjust="spacing" textLength="114" x="2246.5" y="110.1426">VehicleRepository</text><rect fill="#E3E3E3" height="49.2188" rx="2.5" ry="2.5" style="stroke:#181818;stroke-width:0.5;" width="130" x="2238.5" y="1429.7422"/><text fill="#000000" font-family="sans-serif" font-size="14" lengthAdjust="spacing" textLength="116" x="2245.5" y="1451.2754">vehicleRepository:</text><text fill="#000000" font-family="sans-serif" font-size="14" lengthAdjust="spacing" textLength="114" x="2246.5" y="1468.8848">VehicleRepository</text><rect fill="#E3E3E3" height="49.2188" rx="2.5" ry="2.5" style="stroke:#181818;stroke-width:0.5;" width="64" x="2581" y="1429.7422"/><text fill="#000000" font-family="sans-serif" font-size="14" lengthAdjust="spacing" textLength="44" x="2591" y="1451.2754">vehicle</text><text fill="#000000" font-family="sans-serif" font-size="14" lengthAdjust="spacing" textLength="50" x="2588" y="1468.8848">:Vehicle</text><rect fill="#E3E3E3" height="31.6094" rx="2.5" ry="2.5" style="stroke:#181818;stroke-width:0.5;" width="107" x="2655" y="88.6094"/><text fill="#000000" font-family="sans-serif" font-size="14" lengthAdjust="spacing" textLength="93" x="2662" y="110.1426">SkillRepository</text><rect fill="#E3E3E3" height="31.6094" rx="2.5" ry="2.5" style="stroke:#181818;stroke-width:0.5;" width="107" x="2655" y="1429.7422"/><text fill="#000000" font-family="sans-serif" font-size="14" lengthAdjust="spacing" textLength="93" x="2662" y="1451.2754">SkillRepository</text><rect fill="#FFFFFF" height="1281.5234" style="stroke:#181818;stroke-width:1.0;" width="10" x="145" y="131.2188"/><rect fill="#FFFFFF" height="30.3516" style="stroke:#181818;stroke-width:1.0;" width="10" x="924" y="153.5703"/><rect fill="#FFFFFF" height="428.2188" style="stroke:#181818;stroke-width:1.0;" width="10" x="924" y="214.2734"/><rect fill="#FFFFFF" height="30.3516" style="stroke:#181818;stroke-width:1.0;" width="10" x="924" y="672.8438"/><rect fill="#FFFFFF" height="679.1953" style="stroke:#181818;stroke-width:1.0;" width="10" x="924" y="733.5469"/><rect fill="#FFFFFF" height="185.4063" style="stroke:#181818;stroke-width:1.0;" width="10" x="1750" y="244.625"/><rect fill="#FFFFFF" height="41.3516" style="stroke:#181818;stroke-width:1.0;" width="10" x="1755" y="351.3281"/><rect fill="#FFFFFF" height="151.7578" style="stroke:#181818;stroke-width:1.0;" width="10" x="1750" y="460.3828"/><rect fill="#FFFFFF" height="618.4922" style="stroke:#181818;stroke-width:1.0;" width="10" x="1750" y="763.8984"/><rect fill="#FFFFFF" height="223.4609" style="stroke:#181818;stroke-width:1.0;" width="10" x="1755" y="802.25"/><rect fill="#FFFFFF" height="188.7578" style="stroke:#181818;stroke-width:1.0;" width="10" x="1755" y="1156.2813"/><rect fill="#FFFFFF" height="41.3516" style="stroke:#181818;stroke-width:1.0;" width="10" x="1760" y="1260.3359"/><rect fill="#FFFFFF" height="30.3516" style="stroke:#181818;stroke-width:1.0;" width="10" x="1935" y="837.6016"/><rect fill="#FFFFFF" height="30.3516" style="stroke:#181818;stroke-width:1.0;" width="10" x="2042" y="490.7344"/><rect fill="#FFFFFF" height="30.3516" style="stroke:#181818;stroke-width:1.0;" width="10" x="2042" y="898.3047"/><rect fill="#FFFFFF" height="30.3516" style="stroke:#181818;stroke-width:1.0;" width="10" x="2162" y="551.4375"/><rect fill="#FFFFFF" height="30.3516" style="stroke:#181818;stroke-width:1.0;" width="10" x="2298.5" y="1191.6328"/><rect fill="#FFFFFF" height="30.3516" style="stroke:#181818;stroke-width:1.0;" width="10" x="2703.5" y="959.0078"/><polygon fill="#181818" points="912,149.5703,922,153.5703,912,157.5703,916,153.5703" style="stroke:#181818;stroke-width:1.0;"/><line style="stroke:#181818;stroke-width:1.0;" x1="155" x2="918" y1="153.5703" y2="153.5703"/><text fill="#000000" font-family="sans-serif" font-size="13" font-weight="bold" lengthAdjust="spacing" textLength="7" x="162" y="148.7139">1</text><text fill="#000000" font-family="sans-serif" font-size="13" lengthAdjust="spacing" textLength="166" x="173" y="148.7139">requests to register a vehicle</text><polygon fill="#181818" points="166,179.9219,156,183.9219,166,187.9219,162,183.9219" style="stroke:#181818;stroke-width:1.0;"/><line style="stroke:#181818;stroke-width:1.0;" x1="160" x2="928" y1="183.9219" y2="183.9219"/><text fill="#000000" font-family="sans-serif" font-size="13" font-weight="bold" lengthAdjust="spacing" textLength="7" x="172" y="179.0654">2</text><text fill="#000000" font-family="sans-serif" font-size="13" lengthAdjust="spacing" textLength="734" x="183" y="179.0654">requests vehicle data (VIN, Vehicle Platte, Tare Weight, Gross Weight, Current Km, Acquisition Date, Maintenance Frequency)</text><polygon fill="#181818" points="912,210.2734,922,214.2734,912,218.2734,916,214.2734" style="stroke:#181818;stroke-width:1.0;"/><line style="stroke:#181818;stroke-width:1.0;" x1="155" x2="918" y1="214.2734" y2="214.2734"/><text fill="#000000" font-family="sans-serif" font-size="13" font-weight="bold" lengthAdjust="spacing" textLength="7" x="162" y="209.417">3</text><text fill="#000000" font-family="sans-serif" font-size="13" lengthAdjust="spacing" textLength="104" x="173" y="209.417">types vehicle data</text><polygon fill="#181818" points="1738,240.625,1748,244.625,1738,248.625,1742,244.625" style="stroke:#181818;stroke-width:1.0;"/><line style="stroke:#181818;stroke-width:1.0;" x1="934" x2="1744" y1="244.625" y2="244.625"/><text fill="#000000" font-family="sans-serif" font-size="13" font-weight="bold" lengthAdjust="spacing" textLength="7" x="941" y="239.7686">4</text><text fill="#000000" font-family="sans-serif" font-size="13" lengthAdjust="spacing" textLength="717" x="952" y="239.7686">submitVehicleData(VIN, Vehicle Platte, Tare Weight, Gross Weight, Current Km, Acquisition Date, Maintenance Frequency)</text><line style="stroke:#181818;stroke-width:1.0;" x1="1760" x2="1802" y1="274.9766" y2="274.9766"/><line style="stroke:#181818;stroke-width:1.0;" x1="1802" x2="1802" y1="274.9766" y2="287.9766"/><line style="stroke:#181818;stroke-width:1.0;" x1="1761" x2="1802" y1="287.9766" y2="287.9766"/><polygon fill="#181818" points="1771,283.9766,1761,287.9766,1771,291.9766,1767,287.9766" style="stroke:#181818;stroke-width:1.0;"/><text fill="#000000" font-family="sans-serif" font-size="13" font-weight="bold" lengthAdjust="spacing" textLength="7" x="1767" y="270.1201">5</text><text fill="#000000" font-family="sans-serif" font-size="13" lengthAdjust="spacing" textLength="142" x="1778" y="270.1201">validateVehicleData(VIN)</text><line style="stroke:#181818;stroke-width:1.0;" x1="1760" x2="1807" y1="338.3281" y2="338.3281"/><line style="stroke:#181818;stroke-width:1.0;" x1="1807" x2="1807" y1="338.3281" y2="351.3281"/><line style="stroke:#181818;stroke-width:1.0;" x1="1766" x2="1807" y1="351.3281" y2="351.3281"/><polygon fill="#181818" points="1776,347.3281,1766,351.3281,1776,355.3281,1772,351.3281" style="stroke:#181818;stroke-width:1.0;"/><text fill="#000000" font-family="sans-serif" font-size="13" font-weight="bold" lengthAdjust="spacing" textLength="7" x="1772" y="333.4717">6</text><text fill="#000000" font-family="sans-serif" font-size="13" lengthAdjust="spacing" textLength="142" x="1783" y="333.4717">validateVehicleData(VIN)</text><line style="stroke:#181818;stroke-width:1.0;stroke-dasharray:2.0,2.0;" x1="1765" x2="1807" y1="391.6797" y2="391.6797"/><line style="stroke:#181818;stroke-width:1.0;stroke-dasharray:2.0,2.0;" x1="1807" x2="1807" y1="391.6797" y2="404.6797"/><line style="stroke:#181818;stroke-width:1.0;stroke-dasharray:2.0,2.0;" x1="1760" x2="1807" y1="404.6797" y2="404.6797"/><polygon fill="#181818" points="1770,400.6797,1760,404.6797,1770,408.6797,1766,404.6797" style="stroke:#181818;stroke-width:1.0;"/><text fill="#000000" font-family="sans-serif" font-size="13" font-weight="bold" lengthAdjust="spacing" textLength="7" x="1772" y="386.8232">7</text><text fill="#000000" font-family="sans-serif" font-size="13" lengthAdjust="spacing" textLength="4" x="1783" y="386.8232"> </text><polygon fill="#181818" points="945,426.0313,935,430.0313,945,434.0313,941,430.0313" style="stroke:#181818;stroke-width:1.0;"/><line style="stroke:#181818;stroke-width:1.0;" x1="939" x2="1754" y1="430.0313" y2="430.0313"/><text fill="#000000" font-family="sans-serif" font-size="13" font-weight="bold" lengthAdjust="spacing" textLength="7" x="951" y="425.1748">8</text><text fill="#000000" font-family="sans-serif" font-size="13" lengthAdjust="spacing" textLength="706" x="962" y="425.1748">keep vehicleData(VIN, Vehicle Platte, Tare Weight, Gross Weight, Current Km, Acquisition Date, Maintenance Frequency)</text><polygon fill="#181818" points="1738,456.3828,1748,460.3828,1738,464.3828,1742,460.3828" style="stroke:#181818;stroke-width:1.0;"/><line style="stroke:#181818;stroke-width:1.0;" x1="934" x2="1744" y1="460.3828" y2="460.3828"/><text fill="#000000" font-family="sans-serif" font-size="13" font-weight="bold" lengthAdjust="spacing" textLength="7" x="941" y="455.5264">9</text><text fill="#000000" font-family="sans-serif" font-size="13" lengthAdjust="spacing" textLength="60" x="952" y="455.5264">getBrand()</text><polygon fill="#181818" points="2030,486.7344,2040,490.7344,2030,494.7344,2034,490.7344" style="stroke:#181818;stroke-width:1.0;"/><line style="stroke:#181818;stroke-width:1.0;" x1="1760" x2="2036" y1="490.7344" y2="490.7344"/><text fill="#000000" font-family="sans-serif" font-size="13" font-weight="bold" lengthAdjust="spacing" textLength="14" x="1767" y="485.8779">10</text><text fill="#000000" font-family="sans-serif" font-size="13" lengthAdjust="spacing" textLength="122" x="1785" y="485.8779">getBrandRepository()</text><polygon fill="#181818" points="1771,517.0859,1761,521.0859,1771,525.0859,1767,521.0859" style="stroke:#181818;stroke-width:1.0;"/><line style="stroke:#181818;stroke-width:1.0;stroke-dasharray:2.0,2.0;" x1="1765" x2="2046" y1="521.0859" y2="521.0859"/><text fill="#000000" font-family="sans-serif" font-size="13" font-weight="bold" lengthAdjust="spacing" textLength="14" x="1777" y="516.2295">11</text><text fill="#000000" font-family="sans-serif" font-size="13" lengthAdjust="spacing" textLength="96" x="1795" y="516.2295">BrandRepository</text><polygon fill="#181818" points="2150,547.4375,2160,551.4375,2150,555.4375,2154,551.4375" style="stroke:#181818;stroke-width:1.0;"/><line style="stroke:#181818;stroke-width:1.0;" x1="1760" x2="2156" y1="551.4375" y2="551.4375"/><text fill="#000000" font-family="sans-serif" font-size="13" font-weight="bold" lengthAdjust="spacing" textLength="14" x="1767" y="546.5811">12</text><text fill="#000000" font-family="sans-serif" font-size="13" lengthAdjust="spacing" textLength="67" x="1785" y="546.5811">getBrands()</text><polygon fill="#181818" points="1771,577.7891,1761,581.7891,1771,585.7891,1767,581.7891" style="stroke:#181818;stroke-width:1.0;"/><line style="stroke:#181818;stroke-width:1.0;stroke-dasharray:2.0,2.0;" x1="1765" x2="2166" y1="581.7891" y2="581.7891"/><text fill="#000000" font-family="sans-serif" font-size="13" font-weight="bold" lengthAdjust="spacing" textLength="14" x="1777" y="576.9326">13</text><text fill="#000000" font-family="sans-serif" font-size="13" lengthAdjust="spacing" textLength="53" x="1795" y="576.9326">brandList</text><polygon fill="#181818" points="945,608.1406,935,612.1406,945,616.1406,941,612.1406" style="stroke:#181818;stroke-width:1.0;"/><line style="stroke:#181818;stroke-width:1.0;stroke-dasharray:2.0,2.0;" x1="939" x2="1754" y1="612.1406" y2="612.1406"/><text fill="#000000" font-family="sans-serif" font-size="13" font-weight="bold" lengthAdjust="spacing" textLength="14" x="951" y="607.2842">14</text><text fill="#000000" font-family="sans-serif" font-size="13" lengthAdjust="spacing" textLength="53" x="969" y="607.2842">brandList</text><polygon fill="#181818" points="166,638.4922,156,642.4922,166,646.4922,162,642.4922" style="stroke:#181818;stroke-width:1.0;"/><line style="stroke:#181818;stroke-width:1.0;" x1="160" x2="928" y1="642.4922" y2="642.4922"/><text fill="#000000" font-family="sans-serif" font-size="13" font-weight="bold" lengthAdjust="spacing" textLength="14" x="172" y="637.6357">15</text><text fill="#000000" font-family="sans-serif" font-size="13" lengthAdjust="spacing" textLength="401" x="190" y="637.6357">show brand list and request to select more vehicleData(Brand, Model)</text><polygon fill="#181818" points="912,668.8438,922,672.8438,912,676.8438,916,672.8438" style="stroke:#181818;stroke-width:1.0;"/><line style="stroke:#181818;stroke-width:1.0;" x1="155" x2="918" y1="672.8438" y2="672.8438"/><text fill="#000000" font-family="sans-serif" font-size="13" font-weight="bold" lengthAdjust="spacing" textLength="14" x="162" y="667.9873">16</text><text fill="#000000" font-family="sans-serif" font-size="13" lengthAdjust="spacing" textLength="107" x="180" y="667.9873">select vehicle data</text><polygon fill="#181818" points="166,699.1953,156,703.1953,166,707.1953,162,703.1953" style="stroke:#181818;stroke-width:1.0;"/><line style="stroke:#181818;stroke-width:1.0;" x1="160" x2="928" y1="703.1953" y2="703.1953"/><text fill="#000000" font-family="sans-serif" font-size="13" font-weight="bold" lengthAdjust="spacing" textLength="14" x="172" y="698.3389">17</text><text fill="#000000" font-family="sans-serif" font-size="13" lengthAdjust="spacing" textLength="236" x="190" y="698.3389">shows all data and requests confirmation</text><polygon fill="#181818" points="912,729.5469,922,733.5469,912,737.5469,916,733.5469" style="stroke:#181818;stroke-width:1.0;"/><line style="stroke:#181818;stroke-width:1.0;" x1="155" x2="918" y1="733.5469" y2="733.5469"/><text fill="#000000" font-family="sans-serif" font-size="13" font-weight="bold" lengthAdjust="spacing" textLength="14" x="162" y="728.6904">18</text><text fill="#000000" font-family="sans-serif" font-size="13" lengthAdjust="spacing" textLength="68" x="180" y="728.6904">submit data</text><polygon fill="#181818" points="1738,759.8984,1748,763.8984,1738,767.8984,1742,763.8984" style="stroke:#181818;stroke-width:1.0;"/><line style="stroke:#181818;stroke-width:1.0;" x1="934" x2="1744" y1="763.8984" y2="763.8984"/><text fill="#000000" font-family="sans-serif" font-size="13" font-weight="bold" lengthAdjust="spacing" textLength="14" x="941" y="759.042">19</text><text fill="#000000" font-family="sans-serif" font-size="13" lengthAdjust="spacing" textLength="779" x="959" y="759.042">registerVehicle(VIN, Brand, Model, Vehicle Platte, Tare Weight, Gross Weight, Current Km, Acquisition Date, Maintenance Frequency)</text><line style="stroke:#181818;stroke-width:1.0;" x1="1760" x2="1807" y1="789.25" y2="789.25"/><line style="stroke:#181818;stroke-width:1.0;" x1="1807" x2="1807" y1="789.25" y2="802.25"/><line style="stroke:#181818;stroke-width:1.0;" x1="1766" x2="1807" y1="802.25" y2="802.25"/><polygon fill="#181818" points="1776,798.25,1766,802.25,1776,806.25,1772,802.25" style="stroke:#181818;stroke-width:1.0;"/><text fill="#000000" font-family="sans-serif" font-size="13" font-weight="bold" lengthAdjust="spacing" textLength="14" x="1772" y="784.3936">20</text><text fill="#000000" font-family="sans-serif" font-size="13" lengthAdjust="spacing" textLength="143" x="1790" y="784.3936">getModelByBrand(brand)</text><polygon fill="#181818" points="1923,833.6016,1933,837.6016,1923,841.6016,1927,837.6016" style="stroke:#181818;stroke-width:1.0;"/><line style="stroke:#181818;stroke-width:1.0;" x1="1765" x2="1929" y1="837.6016" y2="837.6016"/><text fill="#000000" font-family="sans-serif" font-size="13" font-weight="bold" lengthAdjust="spacing" textLength="14" x="1772" y="832.7451">21</text><text fill="#000000" font-family="sans-serif" font-size="13" lengthAdjust="spacing" textLength="75" x="1790" y="832.7451">getInstance()</text><polygon fill="#181818" points="1776,863.9531,1766,867.9531,1776,871.9531,1772,867.9531" style="stroke:#181818;stroke-width:1.0;"/><line style="stroke:#181818;stroke-width:1.0;stroke-dasharray:2.0,2.0;" x1="1770" x2="1939" y1="867.9531" y2="867.9531"/><text fill="#000000" font-family="sans-serif" font-size="13" font-weight="bold" lengthAdjust="spacing" textLength="14" x="1782" y="863.0967">22</text><text fill="#000000" font-family="sans-serif" font-size="13" lengthAdjust="spacing" textLength="67" x="1800" y="863.0967">repositories</text><polygon fill="#181818" points="2030,894.3047,2040,898.3047,2030,902.3047,2034,898.3047" style="stroke:#181818;stroke-width:1.0;"/><line style="stroke:#181818;stroke-width:1.0;" x1="1765" x2="2036" y1="898.3047" y2="898.3047"/><text fill="#000000" font-family="sans-serif" font-size="13" font-weight="bold" lengthAdjust="spacing" textLength="14" x="1772" y="893.4482">23</text><text fill="#000000" font-family="sans-serif" font-size="13" lengthAdjust="spacing" textLength="122" x="1790" y="893.4482">getBrandRepository()</text><polygon fill="#181818" points="1776,924.6563,1766,928.6563,1776,932.6563,1772,928.6563" style="stroke:#181818;stroke-width:1.0;"/><line style="stroke:#181818;stroke-width:1.0;" x1="1770" x2="2046" y1="928.6563" y2="928.6563"/><text fill="#000000" font-family="sans-serif" font-size="13" font-weight="bold" lengthAdjust="spacing" textLength="14" x="1782" y="923.7998">24</text><text fill="#000000" font-family="sans-serif" font-size="13" lengthAdjust="spacing" textLength="96" x="1800" y="923.7998">BrandRepository</text><polygon fill="#181818" points="2691.5,955.0078,2701.5,959.0078,2691.5,963.0078,2695.5,959.0078" style="stroke:#181818;stroke-width:1.0;"/><line style="stroke:#181818;stroke-width:1.0;" x1="1765" x2="2697.5" y1="959.0078" y2="959.0078"/><text fill="#000000" font-family="sans-serif" font-size="13" font-weight="bold" lengthAdjust="spacing" textLength="14" x="1772" y="954.1514">25</text><text fill="#000000" font-family="sans-serif" font-size="13" lengthAdjust="spacing" textLength="147" x="1790" y="954.1514">getModelByBrand(brand))</text><polygon fill="#181818" points="1776,985.3594,1766,989.3594,1776,993.3594,1772,989.3594" style="stroke:#181818;stroke-width:1.0;"/><line style="stroke:#181818;stroke-width:1.0;stroke-dasharray:2.0,2.0;" x1="1770" x2="2707.5" y1="989.3594" y2="989.3594"/><text fill="#000000" font-family="sans-serif" font-size="13" font-weight="bold" lengthAdjust="spacing" textLength="14" x="1782" y="984.5029">26</text><text fill="#000000" font-family="sans-serif" font-size="13" lengthAdjust="spacing" textLength="32" x="1800" y="984.5029">brand</text><line style="stroke:#181818;stroke-width:1.0;stroke-dasharray:2.0,2.0;" x1="1765" x2="1807" y1="1024.7109" y2="1024.7109"/><line style="stroke:#181818;stroke-width:1.0;stroke-dasharray:2.0,2.0;" x1="1807" x2="1807" y1="1024.7109" y2="1037.7109"/><line style="stroke:#181818;stroke-width:1.0;stroke-dasharray:2.0,2.0;" x1="1760" x2="1807" y1="1037.7109" y2="1037.7109"/><polygon fill="#181818" points="1770,1033.7109,1760,1037.7109,1770,1041.7109,1766,1037.7109" style="stroke:#181818;stroke-width:1.0;"/><text fill="#000000" font-family="sans-serif" font-size="13" font-weight="bold" lengthAdjust="spacing" textLength="14" x="1772" y="1019.8545">27</text><text fill="#000000" font-family="sans-serif" font-size="13" lengthAdjust="spacing" textLength="40" x="1790" y="1019.8545">(brand)</text><polygon fill="#181818" points="2569,1084.0625,2579,1088.0625,2569,1092.0625,2573,1088.0625" style="stroke:#181818;stroke-width:1.0;"/><line style="stroke:#181818;stroke-width:1.0;" x1="1760" x2="2575" y1="1088.0625" y2="1088.0625"/><text fill="#000000" font-family="sans-serif" font-size="13" font-weight="bold" lengthAdjust="spacing" textLength="14" x="1767" y="1083.2061">28</text><text fill="#000000" font-family="sans-serif" font-size="13" lengthAdjust="spacing" textLength="779" x="1785" y="1083.2061">registerVehicle(VIN, Brand, Model, Vehicle Platte, Tare Weight, Gross Weight, Current Km, Acquisition Date, Maintenance Frequency)</text><rect fill="#E3E3E3" height="49.2188" rx="2.5" ry="2.5" style="stroke:#181818;stroke-width:0.5;" width="64" x="2581" y="1065.7109"/><text fill="#000000" font-family="sans-serif" font-size="14" lengthAdjust="spacing" textLength="44" x="2591" y="1087.2441">vehicle</text><text fill="#000000" font-family="sans-serif" font-size="14" lengthAdjust="spacing" textLength="50" x="2588" y="1104.8535">:Vehicle</text><line style="stroke:#181818;stroke-width:1.0;" x1="1760" x2="1807" y1="1143.2813" y2="1143.2813"/><line style="stroke:#181818;stroke-width:1.0;" x1="1807" x2="1807" y1="1143.2813" y2="1156.2813"/><line style="stroke:#181818;stroke-width:1.0;" x1="1766" x2="1807" y1="1156.2813" y2="1156.2813"/><polygon fill="#181818" points="1776,1152.2813,1766,1156.2813,1776,1160.2813,1772,1156.2813" style="stroke:#181818;stroke-width:1.0;"/><text fill="#000000" font-family="sans-serif" font-size="13" font-weight="bold" lengthAdjust="spacing" textLength="14" x="1772" y="1138.4248">29</text><text fill="#000000" font-family="sans-serif" font-size="13" lengthAdjust="spacing" textLength="115" x="1790" y="1138.4248">addVehicle (vehicle)</text><polygon fill="#181818" points="2286.5,1187.6328,2296.5,1191.6328,2286.5,1195.6328,2290.5,1191.6328" style="stroke:#181818;stroke-width:1.0;"/><line style="stroke:#181818;stroke-width:1.0;" x1="1765" x2="2292.5" y1="1191.6328" y2="1191.6328"/><text fill="#000000" font-family="sans-serif" font-size="13" font-weight="bold" lengthAdjust="spacing" textLength="14" x="1772" y="1186.7764">30</text><text fill="#000000" font-family="sans-serif" font-size="13" lengthAdjust="spacing" textLength="116" x="1790" y="1186.7764">saveVehicle(vehicle)</text><polygon fill="#181818" points="1776,1217.9844,1766,1221.9844,1776,1225.9844,1772,1221.9844" style="stroke:#181818;stroke-width:1.0;"/><line style="stroke:#181818;stroke-width:1.0;stroke-dasharray:2.0,2.0;" x1="1770" x2="2302.5" y1="1221.9844" y2="1221.9844"/><text fill="#000000" font-family="sans-serif" font-size="13" font-weight="bold" lengthAdjust="spacing" textLength="14" x="1782" y="1217.1279">31</text><text fill="#000000" font-family="sans-serif" font-size="13" lengthAdjust="spacing" textLength="39" x="1800" y="1217.1279">vehicle</text><line style="stroke:#181818;stroke-width:1.0;" x1="1765" x2="1812" y1="1247.3359" y2="1247.3359"/><line style="stroke:#181818;stroke-width:1.0;" x1="1812" x2="1812" y1="1247.3359" y2="1260.3359"/><line style="stroke:#181818;stroke-width:1.0;" x1="1771" x2="1812" y1="1260.3359" y2="1260.3359"/><polygon fill="#181818" points="1781,1256.3359,1771,1260.3359,1781,1264.3359,1777,1260.3359" style="stroke:#181818;stroke-width:1.0;"/><text fill="#000000" font-family="sans-serif" font-size="13" font-weight="bold" lengthAdjust="spacing" textLength="14" x="1777" y="1242.4795">32</text><text fill="#000000" font-family="sans-serif" font-size="13" lengthAdjust="spacing" textLength="137" x="1795" y="1242.4795">validateVehicle(vehicle))</text><line style="stroke:#181818;stroke-width:1.0;stroke-dasharray:2.0,2.0;" x1="1770" x2="1812" y1="1300.6875" y2="1300.6875"/><line style="stroke:#181818;stroke-width:1.0;stroke-dasharray:2.0,2.0;" x1="1812" x2="1812" y1="1300.6875" y2="1313.6875"/><line style="stroke:#181818;stroke-width:1.0;stroke-dasharray:2.0,2.0;" x1="1765" x2="1812" y1="1313.6875" y2="1313.6875"/><polygon fill="#181818" points="1775,1309.6875,1765,1313.6875,1775,1317.6875,1771,1313.6875" style="stroke:#181818;stroke-width:1.0;"/><text fill="#000000" font-family="sans-serif" font-size="13" font-weight="bold" lengthAdjust="spacing" textLength="14" x="1777" y="1295.8311">33</text><text fill="#000000" font-family="sans-serif" font-size="13" lengthAdjust="spacing" textLength="4" x="1795" y="1295.8311"> </text><line style="stroke:#181818;stroke-width:1.0;stroke-dasharray:2.0,2.0;" x1="1765" x2="1807" y1="1344.0391" y2="1344.0391"/><line style="stroke:#181818;stroke-width:1.0;stroke-dasharray:2.0,2.0;" x1="1807" x2="1807" y1="1344.0391" y2="1357.0391"/><line style="stroke:#181818;stroke-width:1.0;stroke-dasharray:2.0,2.0;" x1="1760" x2="1807" y1="1357.0391" y2="1357.0391"/><polygon fill="#181818" points="1770,1353.0391,1760,1357.0391,1770,1361.0391,1766,1357.0391" style="stroke:#181818;stroke-width:1.0;"/><text fill="#000000" font-family="sans-serif" font-size="13" font-weight="bold" lengthAdjust="spacing" textLength="14" x="1772" y="1339.1826">34</text><text fill="#000000" font-family="sans-serif" font-size="13" lengthAdjust="spacing" textLength="4" x="1790" y="1339.1826"> </text><polygon fill="#181818" points="945,1378.3906,935,1382.3906,945,1386.3906,941,1382.3906" style="stroke:#181818;stroke-width:1.0;"/><line style="stroke:#181818;stroke-width:1.0;" x1="939" x2="1754" y1="1382.3906" y2="1382.3906"/><text fill="#000000" font-family="sans-serif" font-size="13" font-weight="bold" lengthAdjust="spacing" textLength="14" x="951" y="1377.5342">35</text><text fill="#000000" font-family="sans-serif" font-size="13" lengthAdjust="spacing" textLength="39" x="969" y="1377.5342">vehicle</text><polygon fill="#181818" points="161,1408.7422,151,1412.7422,161,1416.7422,157,1412.7422" style="stroke:#181818;stroke-width:1.0;"/><line style="stroke:#181818;stroke-width:1.0;stroke-dasharray:2.0,2.0;" x1="155" x2="928" y1="1412.7422" y2="1412.7422"/><text fill="#000000" font-family="sans-serif" font-size="13" font-weight="bold" lengthAdjust="spacing" textLength="14" x="167" y="1407.8857">36</text><text fill="#000000" font-family="sans-serif" font-size="13" lengthAdjust="spacing" textLength="177" x="185" y="1407.8857">shows success/error message</text><!--SRC=[pLTBJ-Cm4BxdLuouR8kAbjCUUa3YkQeMLeW2U-7Y9aDhDR6BxS1MuiVln7dKSHvjqGhXK-fwFd_pyEUnNdAnOeeba4WXmuMI2O9HAGQw-cV5mYMRuzIiOmI5eM5Y7hiBz895yesBEJopM6CG66vewNIj3IOmnPSKHOXmmTayMpwOJY-6S0HtEEUqGi4ZBdX81eE7wV7nZs4GiDH8aIOpL47mRS4ZX6SfpKp-3LXef8A3qeA922vVKhvAK1YuYX4Dt311R1KC7gzkXWV0DD17G4mD3_cAqRg3SRbrWVCmiUiU9ltBpgKmIiOnAhly_Fxkkc6mafeJHOxQhgacrbEUHOtygfien-99D05khq_lwnOpHLvlSCTFugm-O-sykJh4Q-vF3UJHdyj3vy-s0X7nOc5kT3a9iapnLsRGHZy06lG1HoSKPHXJ6L5HQAF1IFekwe11WMUNLm2K5ZkH3J8cY0p9mIYi86A6KTedlqTLITt6p1WSmJrJ27-GpnTc13-LrBhwTPugbLNFhsG4fo4L4pdAfO0BbXdUC2uC2fOLy9NAItazj7mYR51qNJJh5TQvRNChAoWorEaiuQRmW5YmptEfHj3MTpMT3KjmG_ILnPpyGe_gi6xq_lx-8H3Nfiu9l94Z5f2rVvqKrRqfITXCBH5NPQ8-FzwT76j5CKTZZ_HWhqHbwk4ORuxne2E-LcuQ0ROmPO373MtfY7WJgwJb0JWCTHSnVyy6Hn_pQ1CxgvZNf35TJ7l1g-gojTB4QisVgrDw8TzoEuZ9q5vQXNPbygSnfZkLxbygBxS8BIcg7XbXl9FW543xACw6e0OMnxc2ElmqX58ySvMmh9vt8c75Qn-vK_LBDZzyhlDVKVgeNYstitL-Acrw-pIhGxHEsZg477yYjCc8UYUYRLHRjRKRMwspqSPYS-3T9cKhd5CW7wAphtRr1gHTpzf6hd5LWliqRelNk-rPkZbTyZZsjR2bjlPmseFSpN-VXw-V-qJ09x3B_hLBd3PjEr8zM-Q7RAV6WzhJmyCleJkT2ZC65aNLiwXGz0_9IwE1ppIQlPRjrWOxw2odvXkWDIdDdPnikerzHmPtsAOU8gzph5mPThlIsZxsjv1jTVOV6j1w4zeCK6zNwDtSEWr3rFexAaMFuuG-wG7STbcxqQPNsJy0]--></g></svg>