<?xml version="1.0" encoding="UTF-8" standalone="no"?><svg xmlns="http://www.w3.org/2000/svg" xmlns:xlink="http://www.w3.org/1999/xlink" contentStyleType="text/css" height="516px" preserveAspectRatio="none" style="width:2003px;height:516px;background:#FFFFFF;" version="1.1" viewBox="0 0 2003 516" width="2003px" zoomAndPan="magnify"><defs/><g><rect fill="#FFFFFF" height="357.0313" style="stroke:#181818;stroke-width:1.0;" width="10" x="816" y="87.5703"/><rect fill="#FFFFFF" height="203.7578" style="stroke:#181818;stroke-width:1.0;" width="10" x="1792" y="203.4922"/><rect fill="#FFFFFF" height="128.0547" style="stroke:#181818;stroke-width:1.0;" width="10" x="1797" y="241.8438"/><rect fill="#FFFFFF" height="41.3516" style="stroke:#181818;stroke-width:1.0;" width="10" x="1802" y="285.1953"/><rect fill="none" height="312.6797" style="stroke:#000000;stroke-width:1.5;" width="1275.5" x="721.5" y="102.5703"/><line style="stroke:#181818;stroke-width:0.5;stroke-dasharray:5.0,5.0;" x1="820.5" x2="820.5" y1="55.2188" y2="462.6016"/><line style="stroke:#181818;stroke-width:0.5;stroke-dasharray:5.0,5.0;" x1="1690" x2="1690" y1="161.0313" y2="462.6016"/><line style="stroke:#181818;stroke-width:0.5;stroke-dasharray:5.0,5.0;" x1="1797" x2="1797" y1="55.2188" y2="462.6016"/><rect fill="#E3E3E3" height="31.6094" rx="2.5" ry="2.5" style="stroke:#181818;stroke-width:0.5;" width="179" x="731.5" y="22.6094"/><text fill="#000000" font-family="sans-serif" font-size="14" lengthAdjust="spacing" textLength="165" x="738.5" y="44.1426">:RegisterVehicleController</text><rect fill="#E3E3E3" height="31.6094" rx="2.5" ry="2.5" style="stroke:#181818;stroke-width:0.5;" width="179" x="731.5" y="461.6016"/><text fill="#000000" font-family="sans-serif" font-size="14" lengthAdjust="spacing" textLength="165" x="738.5" y="483.1348">:RegisterVehicleController</text><rect fill="#E3E3E3" height="49.2188" rx="2.5" ry="2.5" style="stroke:#181818;stroke-width:0.5;" width="64" x="1658" y="461.6016"/><text fill="#000000" font-family="sans-serif" font-size="14" lengthAdjust="spacing" textLength="44" x="1668" y="483.1348">vehicle</text><text fill="#000000" font-family="sans-serif" font-size="14" lengthAdjust="spacing" textLength="50" x="1665" y="500.7441">:Vehicle</text><rect fill="#E3E3E3" height="49.2188" rx="2.5" ry="2.5" style="stroke:#181818;stroke-width:0.5;" width="130" x="1732" y="5"/><text fill="#000000" font-family="sans-serif" font-size="14" lengthAdjust="spacing" textLength="116" x="1739" y="26.5332">vehicleRepository:</text><text fill="#000000" font-family="sans-serif" font-size="14" lengthAdjust="spacing" textLength="114" x="1740" y="44.1426">VehicleRepository</text><rect fill="#E3E3E3" height="49.2188" rx="2.5" ry="2.5" style="stroke:#181818;stroke-width:0.5;" width="130" x="1732" y="461.6016"/><text fill="#000000" font-family="sans-serif" font-size="14" lengthAdjust="spacing" textLength="116" x="1739" y="483.1348">vehicleRepository:</text><text fill="#000000" font-family="sans-serif" font-size="14" lengthAdjust="spacing" textLength="114" x="1740" y="500.7441">VehicleRepository</text><rect fill="#FFFFFF" height="357.0313" style="stroke:#181818;stroke-width:1.0;" width="10" x="816" y="87.5703"/><rect fill="#FFFFFF" height="203.7578" style="stroke:#181818;stroke-width:1.0;" width="10" x="1792" y="203.4922"/><rect fill="#FFFFFF" height="128.0547" style="stroke:#181818;stroke-width:1.0;" width="10" x="1797" y="241.8438"/><rect fill="#FFFFFF" height="41.3516" style="stroke:#181818;stroke-width:1.0;" width="10" x="1802" y="285.1953"/><polygon fill="#181818" points="804,83.5703,814,87.5703,804,91.5703,808,87.5703" style="stroke:#181818;stroke-width:1.0;"/><line style="stroke:#181818;stroke-width:1.0;" x1="0" x2="810" y1="87.5703" y2="87.5703"/><text fill="#000000" font-family="sans-serif" font-size="13" font-weight="bold" lengthAdjust="spacing" textLength="14" x="7" y="82.7139">28</text><text fill="#000000" font-family="sans-serif" font-size="13" lengthAdjust="spacing" textLength="779" x="25" y="82.7139">registerVehicle(VIN, Brand, Model, Vehicle Platte, Tare Weight, Gross Weight, Current Km, Acquisition Date, Maintenance Frequency)</text><path d="M721.5,102.5703 L870.5,102.5703 L870.5,110.9219 L860.5,120.9219 L721.5,120.9219 L721.5,102.5703 " fill="#EEEEEE" style="stroke:#000000;stroke-width:1.5;"/><rect fill="none" height="312.6797" style="stroke:#000000;stroke-width:1.5;" width="1275.5" x="721.5" y="102.5703"/><text fill="#000000" font-family="sans-serif" font-size="13" font-weight="bold" lengthAdjust="spacing" textLength="104" x="736.5" y="117.0654">Register Vehicle</text><polygon fill="#181818" points="1646,139.2734,1656,143.2734,1646,147.2734,1650,143.2734" style="stroke:#181818;stroke-width:1.0;"/><line style="stroke:#181818;stroke-width:1.0;" x1="826" x2="1652" y1="143.2734" y2="143.2734"/><text fill="#000000" font-family="sans-serif" font-size="13" font-weight="bold" lengthAdjust="spacing" textLength="25" x="833" y="138.417">28.1</text><text fill="#000000" font-family="sans-serif" font-size="13" lengthAdjust="spacing" textLength="779" x="862" y="138.417">registerVehicle(VIN, Brand, Model, Vehicle Platte, Tare Weight, Gross Weight, Current Km, Acquisition Date, Maintenance Frequency)</text><rect fill="#E3E3E3" height="49.2188" rx="2.5" ry="2.5" style="stroke:#181818;stroke-width:0.5;" width="64" x="1658" y="120.9219"/><text fill="#000000" font-family="sans-serif" font-size="14" lengthAdjust="spacing" textLength="44" x="1668" y="142.4551">vehicle</text><text fill="#000000" font-family="sans-serif" font-size="14" lengthAdjust="spacing" textLength="50" x="1665" y="160.0645">:Vehicle</text><polygon fill="#181818" points="1780,199.4922,1790,203.4922,1780,207.4922,1784,203.4922" style="stroke:#181818;stroke-width:1.0;"/><line style="stroke:#181818;stroke-width:1.0;" x1="826" x2="1786" y1="203.4922" y2="203.4922"/><text fill="#000000" font-family="sans-serif" font-size="13" font-weight="bold" lengthAdjust="spacing" textLength="25" x="833" y="198.6357">28.2</text><text fill="#000000" font-family="sans-serif" font-size="13" lengthAdjust="spacing" textLength="116" x="862" y="198.6357">saveVehicle(vehicle)</text><line style="stroke:#181818;stroke-width:1.0;" x1="1802" x2="1849" y1="228.8438" y2="228.8438"/><line style="stroke:#181818;stroke-width:1.0;" x1="1849" x2="1849" y1="228.8438" y2="241.8438"/><line style="stroke:#181818;stroke-width:1.0;" x1="1808" x2="1849" y1="241.8438" y2="241.8438"/><polygon fill="#181818" points="1818,237.8438,1808,241.8438,1818,245.8438,1814,241.8438" style="stroke:#181818;stroke-width:1.0;"/><text fill="#000000" font-family="sans-serif" font-size="13" font-weight="bold" lengthAdjust="spacing" textLength="25" x="1814" y="223.9873">28.3</text><text fill="#000000" font-family="sans-serif" font-size="13" lengthAdjust="spacing" textLength="115" x="1843" y="223.9873">addVehicle (vehicle)</text><line style="stroke:#181818;stroke-width:1.0;" x1="1807" x2="1854" y1="272.1953" y2="272.1953"/><line style="stroke:#181818;stroke-width:1.0;" x1="1854" x2="1854" y1="272.1953" y2="285.1953"/><line style="stroke:#181818;stroke-width:1.0;" x1="1813" x2="1854" y1="285.1953" y2="285.1953"/><polygon fill="#181818" points="1823,281.1953,1813,285.1953,1823,289.1953,1819,285.1953" style="stroke:#181818;stroke-width:1.0;"/><text fill="#000000" font-family="sans-serif" font-size="13" font-weight="bold" lengthAdjust="spacing" textLength="25" x="1819" y="267.3389">28.4</text><text fill="#000000" font-family="sans-serif" font-size="13" lengthAdjust="spacing" textLength="137" x="1848" y="267.3389">validateVehicle(vehicle))</text><line style="stroke:#181818;stroke-width:1.0;stroke-dasharray:2.0,2.0;" x1="1812" x2="1854" y1="325.5469" y2="325.5469"/><line style="stroke:#181818;stroke-width:1.0;stroke-dasharray:2.0,2.0;" x1="1854" x2="1854" y1="325.5469" y2="338.5469"/><line style="stroke:#181818;stroke-width:1.0;stroke-dasharray:2.0,2.0;" x1="1807" x2="1854" y1="338.5469" y2="338.5469"/><polygon fill="#181818" points="1817,334.5469,1807,338.5469,1817,342.5469,1813,338.5469" style="stroke:#181818;stroke-width:1.0;"/><text fill="#000000" font-family="sans-serif" font-size="13" font-weight="bold" lengthAdjust="spacing" textLength="25" x="1819" y="320.6904">28.5</text><text fill="#000000" font-family="sans-serif" font-size="13" lengthAdjust="spacing" textLength="4" x="1848" y="320.6904"> </text><line style="stroke:#181818;stroke-width:1.0;stroke-dasharray:2.0,2.0;" x1="1807" x2="1849" y1="368.8984" y2="368.8984"/><line style="stroke:#181818;stroke-width:1.0;stroke-dasharray:2.0,2.0;" x1="1849" x2="1849" y1="368.8984" y2="381.8984"/><line style="stroke:#181818;stroke-width:1.0;stroke-dasharray:2.0,2.0;" x1="1802" x2="1849" y1="381.8984" y2="381.8984"/><polygon fill="#181818" points="1812,377.8984,1802,381.8984,1812,385.8984,1808,381.8984" style="stroke:#181818;stroke-width:1.0;"/><text fill="#000000" font-family="sans-serif" font-size="13" font-weight="bold" lengthAdjust="spacing" textLength="25" x="1814" y="364.042">28.6</text><text fill="#000000" font-family="sans-serif" font-size="13" lengthAdjust="spacing" textLength="4" x="1843" y="364.042"> </text><polygon fill="#181818" points="837,403.25,827,407.25,837,411.25,833,407.25" style="stroke:#181818;stroke-width:1.0;"/><line style="stroke:#181818;stroke-width:1.0;" x1="831" x2="1796" y1="407.25" y2="407.25"/><text fill="#000000" font-family="sans-serif" font-size="13" font-weight="bold" lengthAdjust="spacing" textLength="25" x="843" y="402.3936">28.7</text><text fill="#000000" font-family="sans-serif" font-size="13" lengthAdjust="spacing" textLength="39" x="872" y="402.3936">vehicle</text><polygon fill="#181818" points="11,440.6016,1,444.6016,11,448.6016,7,444.6016" style="stroke:#181818;stroke-width:1.0;"/><line style="stroke:#181818;stroke-width:1.0;stroke-dasharray:2.0,2.0;" x1="5" x2="820" y1="444.6016" y2="444.6016"/><text fill="#000000" font-family="sans-serif" font-size="13" font-weight="bold" lengthAdjust="spacing" textLength="14" x="17" y="439.7451">29</text><text fill="#000000" font-family="sans-serif" font-size="13" lengthAdjust="spacing" textLength="25" x="35" y="439.7451">task</text><!--SRC=[pLHDJyCm3BtdLrWxiQb3WXDK20d6XoOOGcCgbrrCQjfeQT8bQT7-FLctLbtf1Gca-TGwVdxFpsdjIgWS3MQGQQLvQdH6u4n1p3OdEV8L9lJcDfB047Ue4jaki2d6-ake13vHMcBCfvtW8aVbO13EAH7MaOae5LpIH2jdj9Ha1e0M9elvyo6WtDKjLRX7L7NH_RItR4wvji9fimcNAkhcTj1kbZ4id5P5za46pY_O-BgI0Q4Vxq3hIJHz2U3Me8e3cEcOP51tWrU9pb402pG4xoIIr0NmQBIrpTkaC8QyrgSiW1k-BeId5rh17Mw1CnJAaKB52HuChGjIV3FiQ3izOyYTA3rYPnNuI8mkSgXzhHMnwcmRrJ1-AE_PQ7GSGq4h6ddTlVW5M2ofrhdVyF00tBZHirNen4-2FjOGC8vh0_f9_ukuH2bYtxCxyP-pzz7_mCLqN2ozBculZpTkV-L_rvXKl7jeVsANLUPgFAx_0GxjYhMQLPyT-mO0]--></g></svg>