<?xml version="1.0" encoding="UTF-8" standalone="no"?><svg xmlns="http://www.w3.org/2000/svg" xmlns:xlink="http://www.w3.org/1999/xlink" contentStyleType="text/css" height="791px" preserveAspectRatio="none" style="width:1174px;height:791px;background:#FFFFFF;" version="1.1" viewBox="0 0 1174 791" width="1174px" zoomAndPan="magnify"><defs/><g><!--class RegisterVehicleUI--><g id="elem_RegisterVehicleUI"><rect codeLine="5" fill="#F1F1F1" height="48" id="RegisterVehicleUI" rx="2.5" ry="2.5" style="stroke:#181818;stroke-width:0.5;" width="143" x="333" y="7"/><ellipse cx="348" cy="23" fill="#ADD1B2" rx="11" ry="11" style="stroke:#181818;stroke-width:1.0;"/><path d="M350.7656,18.875 Q350.9219,18.6563 351.1094,18.5469 Q351.2969,18.4375 351.5156,18.4375 Q351.8906,18.4375 352.125,18.7031 Q352.3594,18.9531 352.3594,19.5625 L352.3594,21.0156 Q352.3594,21.625 352.125,21.8906 Q351.8906,22.1563 351.5156,22.1563 Q351.1719,22.1563 350.9688,21.9531 Q350.7656,21.7656 350.6563,21.25 Q350.6094,20.8906 350.4219,20.7031 Q350.0938,20.3281 349.4844,20.1094 Q348.875,19.8906 348.25,19.8906 Q347.4844,19.8906 346.8438,20.2188 Q346.2188,20.5469 345.7188,21.2969 Q345.2344,22.0469 345.2344,23.0781 L345.2344,24.1719 Q345.2344,25.4063 346.125,26.2344 Q347.0156,27.0469 348.6094,27.0469 Q349.5469,27.0469 350.2031,26.7969 Q350.5938,26.6406 351.0156,26.2031 Q351.2813,25.9375 351.4219,25.8594 Q351.5781,25.7813 351.7813,25.7813 Q352.1094,25.7813 352.3594,26.0469 Q352.625,26.2969 352.625,26.6406 Q352.625,26.9844 352.2813,27.3906 Q351.7813,27.9688 350.9844,28.2969 Q349.9063,28.75 348.6094,28.75 Q347.0938,28.75 345.8906,28.125 Q344.9063,27.625 344.2188,26.5625 Q343.5313,25.4844 343.5313,24.2031 L343.5313,23.0469 Q343.5313,21.7188 344.1406,20.5781 Q344.7656,19.4219 345.8594,18.8125 Q346.9531,18.1875 348.1875,18.1875 Q348.9219,18.1875 349.5625,18.3594 Q350.2188,18.5156 350.7656,18.875 Z " fill="#000000"/><text fill="#000000" font-family="sans-serif" font-size="14" lengthAdjust="spacing" textLength="111" x="362" y="28.7285">RegisterVehicleUI</text><line style="stroke:#181818;stroke-width:0.5;" x1="334" x2="475" y1="39" y2="39"/><line style="stroke:#181818;stroke-width:0.5;" x1="334" x2="475" y1="47" y2="47"/></g><!--class RegisterVehicleController--><g id="elem_RegisterVehicleController"><rect codeLine="8" fill="#F1F1F1" height="100.8281" id="RegisterVehicleController" rx="2.5" ry="2.5" style="stroke:#181818;stroke-width:0.5;" width="795" x="7" y="133"/><ellipse cx="319.75" cy="149" fill="#ADD1B2" rx="11" ry="11" style="stroke:#181818;stroke-width:1.0;"/><path d="M322.5156,144.875 Q322.6719,144.6563 322.8594,144.5469 Q323.0469,144.4375 323.2656,144.4375 Q323.6406,144.4375 323.875,144.7031 Q324.1094,144.9531 324.1094,145.5625 L324.1094,147.0156 Q324.1094,147.625 323.875,147.8906 Q323.6406,148.1563 323.2656,148.1563 Q322.9219,148.1563 322.7188,147.9531 Q322.5156,147.7656 322.4063,147.25 Q322.3594,146.8906 322.1719,146.7031 Q321.8438,146.3281 321.2344,146.1094 Q320.625,145.8906 320,145.8906 Q319.2344,145.8906 318.5938,146.2188 Q317.9688,146.5469 317.4688,147.2969 Q316.9844,148.0469 316.9844,149.0781 L316.9844,150.1719 Q316.9844,151.4063 317.875,152.2344 Q318.7656,153.0469 320.3594,153.0469 Q321.2969,153.0469 321.9531,152.7969 Q322.3438,152.6406 322.7656,152.2031 Q323.0313,151.9375 323.1719,151.8594 Q323.3281,151.7813 323.5313,151.7813 Q323.8594,151.7813 324.1094,152.0469 Q324.375,152.2969 324.375,152.6406 Q324.375,152.9844 324.0313,153.3906 Q323.5313,153.9688 322.7344,154.2969 Q321.6563,154.75 320.3594,154.75 Q318.8438,154.75 317.6406,154.125 Q316.6563,153.625 315.9688,152.5625 Q315.2813,151.4844 315.2813,150.2031 L315.2813,149.0469 Q315.2813,147.7188 315.8906,146.5781 Q316.5156,145.4219 317.6094,144.8125 Q318.7031,144.1875 319.9375,144.1875 Q320.6719,144.1875 321.3125,144.3594 Q321.9688,144.5156 322.5156,144.875 Z " fill="#000000"/><text fill="#000000" font-family="sans-serif" font-size="14" lengthAdjust="spacing" textLength="161" x="340.25" y="154.7285">RegisterVehicleController</text><line style="stroke:#181818;stroke-width:0.5;" x1="8" x2="801" y1="165" y2="165"/><rect fill="none" height="6" style="stroke:#C82930;stroke-width:1.0;" width="6" x="15" y="176.3047"/><text fill="#000000" font-family="sans-serif" font-size="14" lengthAdjust="spacing" textLength="234" x="27" y="183.5332">vehicleRepository: VehicleRepository</text><line style="stroke:#181818;stroke-width:0.5;" x1="8" x2="801" y1="190.6094" y2="190.6094"/><ellipse cx="18" cy="213.7188" fill="#84BE84" rx="3" ry="3" style="stroke:#038048;stroke-width:1.0;"/><text fill="#000000" font-family="sans-serif" font-size="14" lengthAdjust="spacing" textLength="559" x="27" y="209.1426">registerVehicle(VIN: String, brand: String, model: String, type: String, vehiclePlate: String,</text><text fill="#000000" font-family="sans-serif" font-size="14" lengthAdjust="spacing" textLength="769" x="27" y="226.752">tareWeight: double, grossWeight: double, currentKm: double, acquisitionDate: Date, maintenanceFrequency: int): boolean</text></g><!--class Repositories--><g id="elem_Repositories"><rect codeLine="13" fill="#F1F1F1" height="118.4375" id="Repositories" rx="2.5" ry="2.5" style="stroke:#181818;stroke-width:0.5;" width="292" x="540.5" y="312"/><ellipse cx="642.75" cy="328" fill="#ADD1B2" rx="11" ry="11" style="stroke:#181818;stroke-width:1.0;"/><path d="M645.5156,323.875 Q645.6719,323.6563 645.8594,323.5469 Q646.0469,323.4375 646.2656,323.4375 Q646.6406,323.4375 646.875,323.7031 Q647.1094,323.9531 647.1094,324.5625 L647.1094,326.0156 Q647.1094,326.625 646.875,326.8906 Q646.6406,327.1563 646.2656,327.1563 Q645.9219,327.1563 645.7188,326.9531 Q645.5156,326.7656 645.4063,326.25 Q645.3594,325.8906 645.1719,325.7031 Q644.8438,325.3281 644.2344,325.1094 Q643.625,324.8906 643,324.8906 Q642.2344,324.8906 641.5938,325.2188 Q640.9688,325.5469 640.4688,326.2969 Q639.9844,327.0469 639.9844,328.0781 L639.9844,329.1719 Q639.9844,330.4063 640.875,331.2344 Q641.7656,332.0469 643.3594,332.0469 Q644.2969,332.0469 644.9531,331.7969 Q645.3438,331.6406 645.7656,331.2031 Q646.0313,330.9375 646.1719,330.8594 Q646.3281,330.7813 646.5313,330.7813 Q646.8594,330.7813 647.1094,331.0469 Q647.375,331.2969 647.375,331.6406 Q647.375,331.9844 647.0313,332.3906 Q646.5313,332.9688 645.7344,333.2969 Q644.6563,333.75 643.3594,333.75 Q641.8438,333.75 640.6406,333.125 Q639.6563,332.625 638.9688,331.5625 Q638.2813,330.4844 638.2813,329.2031 L638.2813,328.0469 Q638.2813,326.7188 638.8906,325.5781 Q639.5156,324.4219 640.6094,323.8125 Q641.7031,323.1875 642.9375,323.1875 Q643.6719,323.1875 644.3125,323.3594 Q644.9688,323.5156 645.5156,323.875 Z " fill="#000000"/><text fill="#000000" font-family="sans-serif" font-size="14" lengthAdjust="spacing" textLength="79" x="663.25" y="333.7285">Repositories</text><line style="stroke:#181818;stroke-width:0.5;" x1="541.5" x2="831.5" y1="344" y2="344"/><rect fill="none" height="6" style="stroke:#C82930;stroke-width:1.0;" width="6" x="548.5" y="355.3047"/><text fill="#000000" font-family="sans-serif" font-size="14" lengthAdjust="spacing" textLength="140" x="560.5" y="362.5332">instance: Repositories</text><rect fill="none" height="6" style="stroke:#C82930;stroke-width:1.0;" width="6" x="548.5" y="372.9141"/><text fill="#000000" font-family="sans-serif" font-size="14" lengthAdjust="spacing" textLength="234" x="560.5" y="380.1426">vehicleRepository: VehicleRepository</text><line style="stroke:#181818;stroke-width:0.5;" x1="541.5" x2="831.5" y1="387.2188" y2="387.2188"/><ellipse cx="551.5" cy="401.5234" fill="#84BE84" rx="3" ry="3" style="stroke:#038048;stroke-width:1.0;"/><text fill="#000000" font-family="sans-serif" font-size="14" lengthAdjust="spacing" textLength="170" x="560.5" y="405.752">getInstance(): Repositories</text><ellipse cx="551.5" cy="419.1328" fill="#84BE84" rx="3" ry="3" style="stroke:#038048;stroke-width:1.0;"/><text fill="#000000" font-family="sans-serif" font-size="14" lengthAdjust="spacing" textLength="266" x="560.5" y="423.3613">getVehicleRepository(): VehicleRepository</text></g><!--class VehicleRepository--><g id="elem_VehicleRepository"><rect codeLine="20" fill="#F1F1F1" height="83.2188" id="VehicleRepository" rx="2.5" ry="2.5" style="stroke:#181818;stroke-width:0.5;" width="420" x="194.5" y="605"/><ellipse cx="343.25" cy="621" fill="#ADD1B2" rx="11" ry="11" style="stroke:#181818;stroke-width:1.0;"/><path d="M346.0156,616.875 Q346.1719,616.6563 346.3594,616.5469 Q346.5469,616.4375 346.7656,616.4375 Q347.1406,616.4375 347.375,616.7031 Q347.6094,616.9531 347.6094,617.5625 L347.6094,619.0156 Q347.6094,619.625 347.375,619.8906 Q347.1406,620.1563 346.7656,620.1563 Q346.4219,620.1563 346.2188,619.9531 Q346.0156,619.7656 345.9063,619.25 Q345.8594,618.8906 345.6719,618.7031 Q345.3438,618.3281 344.7344,618.1094 Q344.125,617.8906 343.5,617.8906 Q342.7344,617.8906 342.0938,618.2188 Q341.4688,618.5469 340.9688,619.2969 Q340.4844,620.0469 340.4844,621.0781 L340.4844,622.1719 Q340.4844,623.4063 341.375,624.2344 Q342.2656,625.0469 343.8594,625.0469 Q344.7969,625.0469 345.4531,624.7969 Q345.8438,624.6406 346.2656,624.2031 Q346.5313,623.9375 346.6719,623.8594 Q346.8281,623.7813 347.0313,623.7813 Q347.3594,623.7813 347.6094,624.0469 Q347.875,624.2969 347.875,624.6406 Q347.875,624.9844 347.5313,625.3906 Q347.0313,625.9688 346.2344,626.2969 Q345.1563,626.75 343.8594,626.75 Q342.3438,626.75 341.1406,626.125 Q340.1563,625.625 339.4688,624.5625 Q338.7813,623.4844 338.7813,622.2031 L338.7813,621.0469 Q338.7813,619.7188 339.3906,618.5781 Q340.0156,617.4219 341.1094,616.8125 Q342.2031,616.1875 343.4375,616.1875 Q344.1719,616.1875 344.8125,616.3594 Q345.4688,616.5156 346.0156,616.875 Z " fill="#000000"/><text fill="#000000" font-family="sans-serif" font-size="14" lengthAdjust="spacing" textLength="114" x="363.75" y="626.7285">VehicleRepository</text><line style="stroke:#181818;stroke-width:0.5;" x1="195.5" x2="613.5" y1="637" y2="637"/><line style="stroke:#181818;stroke-width:0.5;" x1="195.5" x2="613.5" y1="645" y2="645"/><ellipse cx="205.5" cy="659.3047" fill="#84BE84" rx="3" ry="3" style="stroke:#038048;stroke-width:1.0;"/><text fill="#000000" font-family="sans-serif" font-size="14" lengthAdjust="spacing" textLength="394" x="214.5" y="663.5332">verifyExistingVehicle(VIN: String, VehiclePlate: String): boolean</text><ellipse cx="205.5" cy="676.9141" fill="#84BE84" rx="3" ry="3" style="stroke:#038048;stroke-width:1.0;"/><text fill="#000000" font-family="sans-serif" font-size="14" lengthAdjust="spacing" textLength="237" x="214.5" y="681.1426">addVehicle(vehicle: Vehicle): boolean</text></g><!--class Vehicle--><g id="elem_Vehicle"><rect codeLine="25" fill="#F1F1F1" height="276.9219" id="Vehicle" rx="2.5" ry="2.5" style="stroke:#181818;stroke-width:0.5;" width="468" x="699.5" y="508"/><ellipse cx="906.25" cy="524" fill="#ADD1B2" rx="11" ry="11" style="stroke:#181818;stroke-width:1.0;"/><path d="M909.0156,519.875 Q909.1719,519.6563 909.3594,519.5469 Q909.5469,519.4375 909.7656,519.4375 Q910.1406,519.4375 910.375,519.7031 Q910.6094,519.9531 910.6094,520.5625 L910.6094,522.0156 Q910.6094,522.625 910.375,522.8906 Q910.1406,523.1563 909.7656,523.1563 Q909.4219,523.1563 909.2188,522.9531 Q909.0156,522.7656 908.9063,522.25 Q908.8594,521.8906 908.6719,521.7031 Q908.3438,521.3281 907.7344,521.1094 Q907.125,520.8906 906.5,520.8906 Q905.7344,520.8906 905.0938,521.2188 Q904.4688,521.5469 903.9688,522.2969 Q903.4844,523.0469 903.4844,524.0781 L903.4844,525.1719 Q903.4844,526.4063 904.375,527.2344 Q905.2656,528.0469 906.8594,528.0469 Q907.7969,528.0469 908.4531,527.7969 Q908.8438,527.6406 909.2656,527.2031 Q909.5313,526.9375 909.6719,526.8594 Q909.8281,526.7813 910.0313,526.7813 Q910.3594,526.7813 910.6094,527.0469 Q910.875,527.2969 910.875,527.6406 Q910.875,527.9844 910.5313,528.3906 Q910.0313,528.9688 909.2344,529.2969 Q908.1563,529.75 906.8594,529.75 Q905.3438,529.75 904.1406,529.125 Q903.1563,528.625 902.4688,527.5625 Q901.7813,526.4844 901.7813,525.2031 L901.7813,524.0469 Q901.7813,522.7188 902.3906,521.5781 Q903.0156,520.4219 904.1094,519.8125 Q905.2031,519.1875 906.4375,519.1875 Q907.1719,519.1875 907.8125,519.3594 Q908.4688,519.5156 909.0156,519.875 Z " fill="#000000"/><text fill="#000000" font-family="sans-serif" font-size="14" lengthAdjust="spacing" textLength="46" x="926.75" y="529.7285">Vehicle</text><line style="stroke:#181818;stroke-width:0.5;" x1="700.5" x2="1166.5" y1="540" y2="540"/><rect fill="none" height="6" style="stroke:#C82930;stroke-width:1.0;" width="6" x="707.5" y="551.3047"/><text fill="#000000" font-family="sans-serif" font-size="14" lengthAdjust="spacing" textLength="66" x="719.5" y="558.5332">VIN: String</text><rect fill="none" height="6" style="stroke:#C82930;stroke-width:1.0;" width="6" x="707.5" y="568.9141"/><text fill="#000000" font-family="sans-serif" font-size="14" lengthAdjust="spacing" textLength="82" x="719.5" y="576.1426">brand: String</text><rect fill="none" height="6" style="stroke:#C82930;stroke-width:1.0;" width="6" x="707.5" y="586.5234"/><text fill="#000000" font-family="sans-serif" font-size="14" lengthAdjust="spacing" textLength="83" x="719.5" y="593.752">model: String</text><rect fill="none" height="6" style="stroke:#C82930;stroke-width:1.0;" width="6" x="707.5" y="604.1328"/><text fill="#000000" font-family="sans-serif" font-size="14" lengthAdjust="spacing" textLength="72" x="719.5" y="611.3613">type: String</text><rect fill="none" height="6" style="stroke:#C82930;stroke-width:1.0;" width="6" x="707.5" y="621.7422"/><text fill="#000000" font-family="sans-serif" font-size="14" lengthAdjust="spacing" textLength="121" x="719.5" y="628.9707">vehiclePlate: String</text><rect fill="none" height="6" style="stroke:#C82930;stroke-width:1.0;" width="6" x="707.5" y="639.3516"/><text fill="#000000" font-family="sans-serif" font-size="14" lengthAdjust="spacing" textLength="120" x="719.5" y="646.5801">tareWeight: double</text><rect fill="none" height="6" style="stroke:#C82930;stroke-width:1.0;" width="6" x="707.5" y="656.9609"/><text fill="#000000" font-family="sans-serif" font-size="14" lengthAdjust="spacing" textLength="130" x="719.5" y="664.1895">grossWeight: double</text><rect fill="none" height="6" style="stroke:#C82930;stroke-width:1.0;" width="6" x="707.5" y="674.5703"/><text fill="#000000" font-family="sans-serif" font-size="14" lengthAdjust="spacing" textLength="116" x="719.5" y="681.7988">currentKm: double</text><rect fill="none" height="6" style="stroke:#C82930;stroke-width:1.0;" width="6" x="707.5" y="692.1797"/><text fill="#000000" font-family="sans-serif" font-size="14" lengthAdjust="spacing" textLength="135" x="719.5" y="699.4082">acquisitionDate: Date</text><rect fill="none" height="6" style="stroke:#C82930;stroke-width:1.0;" width="6" x="707.5" y="709.7891"/><text fill="#000000" font-family="sans-serif" font-size="14" lengthAdjust="spacing" textLength="172" x="719.5" y="717.0176">maintenanceFrequency: int</text><line style="stroke:#181818;stroke-width:0.5;" x1="700.5" x2="1166.5" y1="724.0938" y2="724.0938"/><ellipse cx="710.5" cy="738.3984" fill="#84BE84" rx="3" ry="3" style="stroke:#038048;stroke-width:1.0;"/><text fill="#000000" font-family="sans-serif" font-size="14" lengthAdjust="spacing" textLength="262" x="719.5" y="742.627">validateVehicle(vehicle: Vehicle): boolean</text><ellipse cx="710.5" cy="764.8125" fill="#84BE84" rx="3" ry="3" style="stroke:#038048;stroke-width:1.0;"/><text fill="#000000" font-family="sans-serif" font-size="14" lengthAdjust="spacing" textLength="424" x="719.5" y="760.2363">createVehicle(VIN, Brand, Model, Type, Vehicle Plate, Tare Weight,</text><text fill="#000000" font-family="sans-serif" font-size="14" lengthAdjust="spacing" textLength="442" x="719.5" y="777.8457">Gross Weight, Current Km, Acquisition Date, Maintenance Frequency)</text></g><!--link RegisterVehicleUI to RegisterVehicleController--><g id="link_RegisterVehicleUI_RegisterVehicleController"><path codeLine="41" d="M404.5,55.19 C404.5,74.43 404.5,102.59 404.5,127.53 " fill="none" id="RegisterVehicleUI-to-RegisterVehicleController" style="stroke:#181818;stroke-width:1.0;"/><polygon fill="#181818" points="404.5,132.8,408.5,123.8,404.5,127.8,400.5,123.8,404.5,132.8" style="stroke:#181818;stroke-width:1.0;"/><text fill="#000000" font-family="sans-serif" font-size="13" lengthAdjust="spacing" textLength="113" x="405.5" y="99.4951">Submit vehicle data</text></g><!--link RegisterVehicleController to Repositories--><g id="link_RegisterVehicleController_Repositories"><path codeLine="42" d="M480.07,234.21 C515.03,257.21 556.89,284.74 593.74,308.99 " fill="none" id="RegisterVehicleController-to-Repositories" style="stroke:#181818;stroke-width:1.0;"/><polygon fill="#181818" points="598.21,311.92,592.8944,303.6288,594.0345,309.1696,588.4937,310.3096,598.21,311.92" style="stroke:#181818;stroke-width:1.0;"/><text fill="#000000" font-family="sans-serif" font-size="13" lengthAdjust="spacing" textLength="18" x="546.5" y="278.4951">get</text></g><!--link RegisterVehicleController to VehicleRepository--><g id="link_RegisterVehicleController_VehicleRepository"><path codeLine="43" d="M399.22,234.09 C396.97,257.66 394.61,286.25 393.5,312 C389.08,414.74 396.08,535.35 400.78,599.65 " fill="none" id="RegisterVehicleController-to-VehicleRepository" style="stroke:#181818;stroke-width:1.0;"/><polygon fill="#181818" points="401.18,604.93,404.5003,595.6577,400.8085,599.9438,396.5224,596.252,401.18,604.93" style="stroke:#181818;stroke-width:1.0;"/><text fill="#000000" font-family="sans-serif" font-size="13" lengthAdjust="spacing" textLength="128" x="394.5" y="376.4951">Verify Existed Vehicle</text></g><!--link Repositories to VehicleRepository--><g id="link_Repositories_VehicleRepository"><path codeLine="44" d="M626.7,430 C573.91,481.2 498.09,554.73 450.08,601.29 " fill="none" id="Repositories-to-VehicleRepository" style="stroke:#181818;stroke-width:1.0;"/><polygon fill="#181818" points="446.39,604.88,455.6384,601.4938,449.9823,601.4022,450.0739,595.7461,446.39,604.88" style="stroke:#181818;stroke-width:1.0;"/><text fill="#000000" font-family="sans-serif" font-size="13" lengthAdjust="spacing" textLength="21" x="595.5" y="474.4951">Get</text></g><!--link VehicleRepository to Vehicle--><g id="link_VehicleRepository_Vehicle"><path codeLine="45" d="M614.71,646.5 C640.8,646.5 667.61,646.5 694.09,646.5 " fill="none" id="VehicleRepository-to-Vehicle" style="stroke:#181818;stroke-width:1.0;"/><polygon fill="#181818" points="699.38,646.5,690.38,642.5,694.38,646.5,690.38,650.5,699.38,646.5" style="stroke:#181818;stroke-width:1.0;"/><text fill="#000000" font-family="sans-serif" font-size="13" lengthAdjust="spacing" textLength="48" x="633" y="639.9951">Register</text></g><!--SRC=[dLHDRvmm4BtpA-QOLTW_mA5IchRHAaeL9Iszz38B4zQAiObjsgAg_xqsU65Os2WA1oJFn_EyDpEspq8rQB261ejdhEZHTPB0KE5GLP8IEmRO0vRwjr0LFA6qt2E58d1TGz1esOLJae3_2edMmWDLmZeoEHr48Udx3lxstd-l15rhvOoMaamC3jyMVWtU1sgq5KwRBeFyr3I6NteMCz2BVFSrWqTdF8SKzWPLEHrhNPASZe7DT8httajqpFfJEJJqWqHrS1cKkjrBIg4osjfJOz4QGyhTrfC9YvTM-9A5LfzwsF3tTQ1GZXIgWhuOUcb95Pwbjsqos6ij2TMQUf6z83iJJ2Zh0bGs2tc_eXMvNOIys9m1xQCM825y7Nd6P172w5pwQeruwZx_yLtr7LXjQxxIgXFf1YmiooD0564iy3MfOyXCPLO0iyu6ZDbdayRiVEIM7PeHubcB4MJEbLbatiLGCj_gT78IvyOquUr2AKgVzqQTXwJ244lnqgRmCIYPmbqGBeLlNgUnpz3huerU1XYOXiMy2SJ7y_L056xh5AucOd7ZxYOgC7BPyCulNx3jziFv9yjtgTtNmXrR1ru3N0DYhzm0E6rJ5fRe3Jdvslw69O5-IwWyHaGizawSIR-9zoutSOhFnggIv3y0]--></g></svg>