<?xml version="1.0" encoding="UTF-8" standalone="no"?><svg xmlns="http://www.w3.org/2000/svg" xmlns:xlink="http://www.w3.org/1999/xlink" contentStyleType="text/css" height="935px" preserveAspectRatio="none" style="width:809px;height:935px;background:#FFFFFF;" version="1.1" viewBox="0 0 809 935" width="809px" zoomAndPan="magnify"><defs/><g><!--class RegisterVehicleUI--><g id="elem_RegisterVehicleUI"><rect codeLine="6" fill="#F1F1F1" height="48" id="RegisterVehicleUI" rx="2.5" ry="2.5" style="stroke:#181818;stroke-width:0.5;" width="143" x="333" y="7"/><ellipse cx="348" cy="23" fill="#ADD1B2" rx="11" ry="11" style="stroke:#181818;stroke-width:1.0;"/><path d="M350.7656,18.875 Q350.9219,18.6563 351.1094,18.5469 Q351.2969,18.4375 351.5156,18.4375 Q351.8906,18.4375 352.125,18.7031 Q352.3594,18.9531 352.3594,19.5625 L352.3594,21.0156 Q352.3594,21.625 352.125,21.8906 Q351.8906,22.1563 351.5156,22.1563 Q351.1719,22.1563 350.9688,21.9531 Q350.7656,21.7656 350.6563,21.25 Q350.6094,20.8906 350.4219,20.7031 Q350.0938,20.3281 349.4844,20.1094 Q348.875,19.8906 348.25,19.8906 Q347.4844,19.8906 346.8438,20.2188 Q346.2188,20.5469 345.7188,21.2969 Q345.2344,22.0469 345.2344,23.0781 L345.2344,24.1719 Q345.2344,25.4063 346.125,26.2344 Q347.0156,27.0469 348.6094,27.0469 Q349.5469,27.0469 350.2031,26.7969 Q350.5938,26.6406 351.0156,26.2031 Q351.2813,25.9375 351.4219,25.8594 Q351.5781,25.7813 351.7813,25.7813 Q352.1094,25.7813 352.3594,26.0469 Q352.625,26.2969 352.625,26.6406 Q352.625,26.9844 352.2813,27.3906 Q351.7813,27.9688 350.9844,28.2969 Q349.9063,28.75 348.6094,28.75 Q347.0938,28.75 345.8906,28.125 Q344.9063,27.625 344.2188,26.5625 Q343.5313,25.4844 343.5313,24.2031 L343.5313,23.0469 Q343.5313,21.7188 344.1406,20.5781 Q344.7656,19.4219 345.8594,18.8125 Q346.9531,18.1875 348.1875,18.1875 Q348.9219,18.1875 349.5625,18.3594 Q350.2188,18.5156 350.7656,18.875 Z " fill="#000000"/><text fill="#000000" font-family="sans-serif" font-size="14" lengthAdjust="spacing" textLength="111" x="362" y="28.7285">RegisterVehicleUI</text><line style="stroke:#181818;stroke-width:0.5;" x1="334" x2="475" y1="39" y2="39"/><line style="stroke:#181818;stroke-width:0.5;" x1="334" x2="475" y1="47" y2="47"/></g><!--class RegisterVehicleController--><g id="elem_RegisterVehicleController"><rect codeLine="9" fill="#F1F1F1" height="100.8281" id="RegisterVehicleController" rx="2.5" ry="2.5" style="stroke:#181818;stroke-width:0.5;" width="795" x="7" y="116"/><ellipse cx="319.75" cy="132" fill="#ADD1B2" rx="11" ry="11" style="stroke:#181818;stroke-width:1.0;"/><path d="M322.5156,127.875 Q322.6719,127.6563 322.8594,127.5469 Q323.0469,127.4375 323.2656,127.4375 Q323.6406,127.4375 323.875,127.7031 Q324.1094,127.9531 324.1094,128.5625 L324.1094,130.0156 Q324.1094,130.625 323.875,130.8906 Q323.6406,131.1563 323.2656,131.1563 Q322.9219,131.1563 322.7188,130.9531 Q322.5156,130.7656 322.4063,130.25 Q322.3594,129.8906 322.1719,129.7031 Q321.8438,129.3281 321.2344,129.1094 Q320.625,128.8906 320,128.8906 Q319.2344,128.8906 318.5938,129.2188 Q317.9688,129.5469 317.4688,130.2969 Q316.9844,131.0469 316.9844,132.0781 L316.9844,133.1719 Q316.9844,134.4063 317.875,135.2344 Q318.7656,136.0469 320.3594,136.0469 Q321.2969,136.0469 321.9531,135.7969 Q322.3438,135.6406 322.7656,135.2031 Q323.0313,134.9375 323.1719,134.8594 Q323.3281,134.7813 323.5313,134.7813 Q323.8594,134.7813 324.1094,135.0469 Q324.375,135.2969 324.375,135.6406 Q324.375,135.9844 324.0313,136.3906 Q323.5313,136.9688 322.7344,137.2969 Q321.6563,137.75 320.3594,137.75 Q318.8438,137.75 317.6406,137.125 Q316.6563,136.625 315.9688,135.5625 Q315.2813,134.4844 315.2813,133.2031 L315.2813,132.0469 Q315.2813,130.7188 315.8906,129.5781 Q316.5156,128.4219 317.6094,127.8125 Q318.7031,127.1875 319.9375,127.1875 Q320.6719,127.1875 321.3125,127.3594 Q321.9688,127.5156 322.5156,127.875 Z " fill="#000000"/><text fill="#000000" font-family="sans-serif" font-size="14" lengthAdjust="spacing" textLength="161" x="340.25" y="137.7285">RegisterVehicleController</text><line style="stroke:#181818;stroke-width:0.5;" x1="8" x2="801" y1="148" y2="148"/><rect fill="none" height="6" style="stroke:#C82930;stroke-width:1.0;" width="6" x="15" y="159.3047"/><text fill="#000000" font-family="sans-serif" font-size="14" lengthAdjust="spacing" textLength="234" x="27" y="166.5332">vehicleRepository: VehicleRepository</text><line style="stroke:#181818;stroke-width:0.5;" x1="8" x2="801" y1="173.6094" y2="173.6094"/><ellipse cx="18" cy="196.7188" fill="#84BE84" rx="3" ry="3" style="stroke:#038048;stroke-width:1.0;"/><text fill="#000000" font-family="sans-serif" font-size="14" lengthAdjust="spacing" textLength="559" x="27" y="192.1426">registerVehicle(VIN: String, brand: String, model: String, type: String, vehiclePlate: String,</text><text fill="#000000" font-family="sans-serif" font-size="14" lengthAdjust="spacing" textLength="769" x="27" y="209.752">tareWeight: double, grossWeight: double, currentKm: double, acquisitionDate: Date, maintenanceFrequency: int): boolean</text></g><!--class Repositories--><g id="elem_Repositories"><rect codeLine="14" fill="#F1F1F1" height="118.4375" id="Repositories" rx="2.5" ry="2.5" style="stroke:#181818;stroke-width:0.5;" width="292" x="37.5" y="295"/><ellipse cx="139.75" cy="311" fill="#ADD1B2" rx="11" ry="11" style="stroke:#181818;stroke-width:1.0;"/><path d="M142.5156,306.875 Q142.6719,306.6563 142.8594,306.5469 Q143.0469,306.4375 143.2656,306.4375 Q143.6406,306.4375 143.875,306.7031 Q144.1094,306.9531 144.1094,307.5625 L144.1094,309.0156 Q144.1094,309.625 143.875,309.8906 Q143.6406,310.1563 143.2656,310.1563 Q142.9219,310.1563 142.7188,309.9531 Q142.5156,309.7656 142.4063,309.25 Q142.3594,308.8906 142.1719,308.7031 Q141.8438,308.3281 141.2344,308.1094 Q140.625,307.8906 140,307.8906 Q139.2344,307.8906 138.5938,308.2188 Q137.9688,308.5469 137.4688,309.2969 Q136.9844,310.0469 136.9844,311.0781 L136.9844,312.1719 Q136.9844,313.4063 137.875,314.2344 Q138.7656,315.0469 140.3594,315.0469 Q141.2969,315.0469 141.9531,314.7969 Q142.3438,314.6406 142.7656,314.2031 Q143.0313,313.9375 143.1719,313.8594 Q143.3281,313.7813 143.5313,313.7813 Q143.8594,313.7813 144.1094,314.0469 Q144.375,314.2969 144.375,314.6406 Q144.375,314.9844 144.0313,315.3906 Q143.5313,315.9688 142.7344,316.2969 Q141.6563,316.75 140.3594,316.75 Q138.8438,316.75 137.6406,316.125 Q136.6563,315.625 135.9688,314.5625 Q135.2813,313.4844 135.2813,312.2031 L135.2813,311.0469 Q135.2813,309.7188 135.8906,308.5781 Q136.5156,307.4219 137.6094,306.8125 Q138.7031,306.1875 139.9375,306.1875 Q140.6719,306.1875 141.3125,306.3594 Q141.9688,306.5156 142.5156,306.875 Z " fill="#000000"/><text fill="#000000" font-family="sans-serif" font-size="14" lengthAdjust="spacing" textLength="79" x="160.25" y="316.7285">Repositories</text><line style="stroke:#181818;stroke-width:0.5;" x1="38.5" x2="328.5" y1="327" y2="327"/><rect fill="none" height="6" style="stroke:#C82930;stroke-width:1.0;" width="6" x="45.5" y="338.3047"/><text fill="#000000" font-family="sans-serif" font-size="14" lengthAdjust="spacing" textLength="140" x="57.5" y="345.5332">instance: Repositories</text><rect fill="none" height="6" style="stroke:#C82930;stroke-width:1.0;" width="6" x="45.5" y="355.9141"/><text fill="#000000" font-family="sans-serif" font-size="14" lengthAdjust="spacing" textLength="234" x="57.5" y="363.1426">vehicleRepository: VehicleRepository</text><line style="stroke:#181818;stroke-width:0.5;" x1="38.5" x2="328.5" y1="370.2188" y2="370.2188"/><ellipse cx="48.5" cy="384.5234" fill="#84BE84" rx="3" ry="3" style="stroke:#038048;stroke-width:1.0;"/><text fill="#000000" font-family="sans-serif" font-size="14" lengthAdjust="spacing" textLength="170" x="57.5" y="388.752">getInstance(): Repositories</text><ellipse cx="48.5" cy="402.1328" fill="#84BE84" rx="3" ry="3" style="stroke:#038048;stroke-width:1.0;"/><text fill="#000000" font-family="sans-serif" font-size="14" lengthAdjust="spacing" textLength="266" x="57.5" y="406.3613">getVehicleRepository(): VehicleRepository</text></g><!--class VehicleRepository--><g id="elem_VehicleRepository"><rect codeLine="21" fill="#F1F1F1" height="83.2188" id="VehicleRepository" rx="2.5" ry="2.5" style="stroke:#181818;stroke-width:0.5;" width="420" x="121.5" y="491"/><ellipse cx="270.25" cy="507" fill="#ADD1B2" rx="11" ry="11" style="stroke:#181818;stroke-width:1.0;"/><path d="M273.0156,502.875 Q273.1719,502.6563 273.3594,502.5469 Q273.5469,502.4375 273.7656,502.4375 Q274.1406,502.4375 274.375,502.7031 Q274.6094,502.9531 274.6094,503.5625 L274.6094,505.0156 Q274.6094,505.625 274.375,505.8906 Q274.1406,506.1563 273.7656,506.1563 Q273.4219,506.1563 273.2188,505.9531 Q273.0156,505.7656 272.9063,505.25 Q272.8594,504.8906 272.6719,504.7031 Q272.3438,504.3281 271.7344,504.1094 Q271.125,503.8906 270.5,503.8906 Q269.7344,503.8906 269.0938,504.2188 Q268.4688,504.5469 267.9688,505.2969 Q267.4844,506.0469 267.4844,507.0781 L267.4844,508.1719 Q267.4844,509.4063 268.375,510.2344 Q269.2656,511.0469 270.8594,511.0469 Q271.7969,511.0469 272.4531,510.7969 Q272.8438,510.6406 273.2656,510.2031 Q273.5313,509.9375 273.6719,509.8594 Q273.8281,509.7813 274.0313,509.7813 Q274.3594,509.7813 274.6094,510.0469 Q274.875,510.2969 274.875,510.6406 Q274.875,510.9844 274.5313,511.3906 Q274.0313,511.9688 273.2344,512.2969 Q272.1563,512.75 270.8594,512.75 Q269.3438,512.75 268.1406,512.125 Q267.1563,511.625 266.4688,510.5625 Q265.7813,509.4844 265.7813,508.2031 L265.7813,507.0469 Q265.7813,505.7188 266.3906,504.5781 Q267.0156,503.4219 268.1094,502.8125 Q269.2031,502.1875 270.4375,502.1875 Q271.1719,502.1875 271.8125,502.3594 Q272.4688,502.5156 273.0156,502.875 Z " fill="#000000"/><text fill="#000000" font-family="sans-serif" font-size="14" lengthAdjust="spacing" textLength="114" x="290.75" y="512.7285">VehicleRepository</text><line style="stroke:#181818;stroke-width:0.5;" x1="122.5" x2="540.5" y1="523" y2="523"/><line style="stroke:#181818;stroke-width:0.5;" x1="122.5" x2="540.5" y1="531" y2="531"/><ellipse cx="132.5" cy="545.3047" fill="#84BE84" rx="3" ry="3" style="stroke:#038048;stroke-width:1.0;"/><text fill="#000000" font-family="sans-serif" font-size="14" lengthAdjust="spacing" textLength="394" x="141.5" y="549.5332">verifyExistingVehicle(VIN: String, VehiclePlate: String): boolean</text><ellipse cx="132.5" cy="562.9141" fill="#84BE84" rx="3" ry="3" style="stroke:#038048;stroke-width:1.0;"/><text fill="#000000" font-family="sans-serif" font-size="14" lengthAdjust="spacing" textLength="237" x="141.5" y="567.1426">addVehicle(vehicle: Vehicle): boolean</text></g><!--class Vehicle--><g id="elem_Vehicle"><rect codeLine="26" fill="#F1F1F1" height="276.9219" id="Vehicle" rx="2.5" ry="2.5" style="stroke:#181818;stroke-width:0.5;" width="468" x="97.5" y="652"/><ellipse cx="304.25" cy="668" fill="#ADD1B2" rx="11" ry="11" style="stroke:#181818;stroke-width:1.0;"/><path d="M307.0156,663.875 Q307.1719,663.6563 307.3594,663.5469 Q307.5469,663.4375 307.7656,663.4375 Q308.1406,663.4375 308.375,663.7031 Q308.6094,663.9531 308.6094,664.5625 L308.6094,666.0156 Q308.6094,666.625 308.375,666.8906 Q308.1406,667.1563 307.7656,667.1563 Q307.4219,667.1563 307.2188,666.9531 Q307.0156,666.7656 306.9063,666.25 Q306.8594,665.8906 306.6719,665.7031 Q306.3438,665.3281 305.7344,665.1094 Q305.125,664.8906 304.5,664.8906 Q303.7344,664.8906 303.0938,665.2188 Q302.4688,665.5469 301.9688,666.2969 Q301.4844,667.0469 301.4844,668.0781 L301.4844,669.1719 Q301.4844,670.4063 302.375,671.2344 Q303.2656,672.0469 304.8594,672.0469 Q305.7969,672.0469 306.4531,671.7969 Q306.8438,671.6406 307.2656,671.2031 Q307.5313,670.9375 307.6719,670.8594 Q307.8281,670.7813 308.0313,670.7813 Q308.3594,670.7813 308.6094,671.0469 Q308.875,671.2969 308.875,671.6406 Q308.875,671.9844 308.5313,672.3906 Q308.0313,672.9688 307.2344,673.2969 Q306.1563,673.75 304.8594,673.75 Q303.3438,673.75 302.1406,673.125 Q301.1563,672.625 300.4688,671.5625 Q299.7813,670.4844 299.7813,669.2031 L299.7813,668.0469 Q299.7813,666.7188 300.3906,665.5781 Q301.0156,664.4219 302.1094,663.8125 Q303.2031,663.1875 304.4375,663.1875 Q305.1719,663.1875 305.8125,663.3594 Q306.4688,663.5156 307.0156,663.875 Z " fill="#000000"/><text fill="#000000" font-family="sans-serif" font-size="14" lengthAdjust="spacing" textLength="46" x="324.75" y="673.7285">Vehicle</text><line style="stroke:#181818;stroke-width:0.5;" x1="98.5" x2="564.5" y1="684" y2="684"/><rect fill="none" height="6" style="stroke:#C82930;stroke-width:1.0;" width="6" x="105.5" y="695.3047"/><text fill="#000000" font-family="sans-serif" font-size="14" lengthAdjust="spacing" textLength="66" x="117.5" y="702.5332">VIN: String</text><rect fill="none" height="6" style="stroke:#C82930;stroke-width:1.0;" width="6" x="105.5" y="712.9141"/><text fill="#000000" font-family="sans-serif" font-size="14" lengthAdjust="spacing" textLength="82" x="117.5" y="720.1426">brand: String</text><rect fill="none" height="6" style="stroke:#C82930;stroke-width:1.0;" width="6" x="105.5" y="730.5234"/><text fill="#000000" font-family="sans-serif" font-size="14" lengthAdjust="spacing" textLength="83" x="117.5" y="737.752">model: String</text><rect fill="none" height="6" style="stroke:#C82930;stroke-width:1.0;" width="6" x="105.5" y="748.1328"/><text fill="#000000" font-family="sans-serif" font-size="14" lengthAdjust="spacing" textLength="72" x="117.5" y="755.3613">type: String</text><rect fill="none" height="6" style="stroke:#C82930;stroke-width:1.0;" width="6" x="105.5" y="765.7422"/><text fill="#000000" font-family="sans-serif" font-size="14" lengthAdjust="spacing" textLength="121" x="117.5" y="772.9707">vehiclePlate: String</text><rect fill="none" height="6" style="stroke:#C82930;stroke-width:1.0;" width="6" x="105.5" y="783.3516"/><text fill="#000000" font-family="sans-serif" font-size="14" lengthAdjust="spacing" textLength="120" x="117.5" y="790.5801">tareWeight: double</text><rect fill="none" height="6" style="stroke:#C82930;stroke-width:1.0;" width="6" x="105.5" y="800.9609"/><text fill="#000000" font-family="sans-serif" font-size="14" lengthAdjust="spacing" textLength="130" x="117.5" y="808.1895">grossWeight: double</text><rect fill="none" height="6" style="stroke:#C82930;stroke-width:1.0;" width="6" x="105.5" y="818.5703"/><text fill="#000000" font-family="sans-serif" font-size="14" lengthAdjust="spacing" textLength="116" x="117.5" y="825.7988">currentKm: double</text><rect fill="none" height="6" style="stroke:#C82930;stroke-width:1.0;" width="6" x="105.5" y="836.1797"/><text fill="#000000" font-family="sans-serif" font-size="14" lengthAdjust="spacing" textLength="135" x="117.5" y="843.4082">acquisitionDate: Date</text><rect fill="none" height="6" style="stroke:#C82930;stroke-width:1.0;" width="6" x="105.5" y="853.7891"/><text fill="#000000" font-family="sans-serif" font-size="14" lengthAdjust="spacing" textLength="172" x="117.5" y="861.0176">maintenanceFrequency: int</text><line style="stroke:#181818;stroke-width:0.5;" x1="98.5" x2="564.5" y1="868.0938" y2="868.0938"/><ellipse cx="108.5" cy="882.3984" fill="#84BE84" rx="3" ry="3" style="stroke:#038048;stroke-width:1.0;"/><text fill="#000000" font-family="sans-serif" font-size="14" lengthAdjust="spacing" textLength="262" x="117.5" y="886.627">validateVehicle(vehicle: Vehicle): boolean</text><ellipse cx="108.5" cy="908.8125" fill="#84BE84" rx="3" ry="3" style="stroke:#038048;stroke-width:1.0;"/><text fill="#000000" font-family="sans-serif" font-size="14" lengthAdjust="spacing" textLength="424" x="117.5" y="904.2363">createVehicle(VIN, Brand, Model, Type, Vehicle Plate, Tare Weight,</text><text fill="#000000" font-family="sans-serif" font-size="14" lengthAdjust="spacing" textLength="442" x="117.5" y="921.8457">Gross Weight, Current Km, Acquisition Date, Maintenance Frequency)</text></g><!--link RegisterVehicleUI to RegisterVehicleController--><g id="link_RegisterVehicleUI_RegisterVehicleController"><path codeLine="42" d="M404.5,55.25 C404.5,70.55 404.5,91.24 404.5,110.57 " fill="none" id="RegisterVehicleUI-to-RegisterVehicleController" style="stroke:#181818;stroke-width:1.0;stroke-dasharray:7.0,7.0;"/><polygon fill="#181818" points="404.5,115.98,408.5,106.98,404.5,110.98,400.5,106.98,404.5,115.98" style="stroke:#181818;stroke-width:1.0;"/></g><!--link RegisterVehicleController to Repositories--><g id="link_RegisterVehicleController_Repositories"><path codeLine="43" d="M345.28,217.21 C317.99,240.11 285.34,267.52 256.54,291.69 " fill="none" id="RegisterVehicleController-to-Repositories" style="stroke:#181818;stroke-width:1.0;stroke-dasharray:7.0,7.0;"/><polygon fill="#181818" points="252.69,294.92,262.1548,292.1966,256.5194,291.705,257.0109,286.0696,252.69,294.92" style="stroke:#181818;stroke-width:1.0;"/><text fill="#000000" font-family="sans-serif" font-size="13" lengthAdjust="spacing" textLength="67" x="308.5" y="261.4951">repositories</text></g><!--link Repositories to Repositories--><g id="link_Repositories_Repositories"><path codeLine="44" d="M329.8,337.51 C350.56,340.18 364.5,345.67 364.5,354 C364.5,361.61 352.86,366.86 334.99,369.74 " fill="none" id="Repositories-to-Repositories" style="stroke:#181818;stroke-width:1.0;"/><polygon fill="#181818" points="329.8,370.49,339.2785,373.1655,334.7489,369.7769,338.1375,365.2473,329.8,370.49" style="stroke:#181818;stroke-width:1.0;"/><text fill="#000000" font-family="sans-serif" font-size="13" lengthAdjust="spacing" textLength="49" x="370.5" y="359.4951">instance</text></g><!--link RegisterVehicleController to VehicleRepository--><g id="link_RegisterVehicleController_VehicleRepository"><path codeLine="45" d="M413.07,217.16 C419.25,252.96 426.5,295 426.5,295 C426.5,295 426.5,413 426.5,413 C426.5,413 394.34,453.11 367.45,486.66 " fill="none" id="RegisterVehicleController-to-VehicleRepository" style="stroke:#181818;stroke-width:1.0;stroke-dasharray:7.0,7.0;"/><polygon fill="#181818" points="364.19,490.72,372.9418,486.2027,367.3187,486.8198,366.7015,481.1968,364.19,490.72" style="stroke:#181818;stroke-width:1.0;"/><text fill="#000000" font-family="sans-serif" font-size="13" lengthAdjust="spacing" textLength="101" x="427.5" y="359.4951">vehicleRepository</text></g><!--link Repositories to VehicleRepository--><g id="link_Repositories_VehicleRepository"><path codeLine="46" d="M232.37,413.28 C252.42,437.2 275.27,464.44 293.98,486.75 " fill="none" id="Repositories-to-VehicleRepository" style="stroke:#181818;stroke-width:1.0;"/><polygon fill="#181818" points="297.42,490.85,294.7139,481.3802,294.2121,487.0147,288.5775,486.5129,297.42,490.85" style="stroke:#181818;stroke-width:1.0;"/><text fill="#000000" font-family="sans-serif" font-size="13" lengthAdjust="spacing" textLength="101" x="272.5" y="457.4951">vehicleRepository</text><text fill="#000000" font-family="sans-serif" font-size="13" lengthAdjust="spacing" textLength="7" x="284.1958" y="480.1328">1</text></g><!--link VehicleRepository to Vehicle--><g id="link_VehicleRepository_Vehicle"><path codeLine="47" d="M331.5,574.06 C331.5,594.22 331.5,619.92 331.5,646.49 " fill="none" id="VehicleRepository-to-Vehicle" style="stroke:#181818;stroke-width:1.0;"/><polygon fill="#181818" points="331.5,651.82,335.5,642.82,331.5,646.82,327.5,642.82,331.5,651.82" style="stroke:#181818;stroke-width:1.0;"/><text fill="#000000" font-family="sans-serif" font-size="13" lengthAdjust="spacing" textLength="39" x="332.5" y="618.4951">vehicle</text><text fill="#000000" font-family="sans-serif" font-size="13" lengthAdjust="spacing" textLength="7" x="323.9203" y="595.7745">1</text><text fill="#000000" font-family="sans-serif" font-size="13" lengthAdjust="spacing" textLength="5" x="326.3633" y="641.3053">*</text></g><!--SRC=[dLHDRzim3BtxLn2vh5cT0hlwC61jjo8eMWpTvbrsKMp64QP8AQLi2uRzzr6nOqkHqnRrmO3uySJtICh-b7eZIAp1haHjValTm58eYvdjFKfgTBiDmiQedJzasHk5ImVE0CbcvQ2MX9MJHcSPy5SfOIqyO2EjGofn9Ik5t-RmT-_zzqJGbT6EZ598NR3_Pl2hzJxWnbZf3EqAA8zDVVWvK0nwLixl2_ZYYCdbi22Xw-6uDZMguUXv3gVktizAkC3wGpj1-1qzzG9girqepA4XO-sniTeIeNQtwy4agiUjv99PhUizhFzp7K9gXrhe2ZyHFcvHLyoIRTC25iOe57fClOwzH1i99hLr7gg8GbwlQ8Dkta6UJK-0xgCI41y-ZXmnIK82EkTSBSdbxkCVxYftOBIjvKYhZgHhiKHT7m0w4Ve2dvAw2ubK3We8hD601VPeqW9xE79fXo92OLOoWe5pP1O3RpAKWMzqEaCIfyOq2zibbAmvxuKwjqaLOP32qkPmwPNCuSuBbyDNrgdlC-nrOIFB02rJlvWtddX_lcg9mkqwXmy3iMxZxWOgq7EP7ZgVlbuN5-zFFrVPwOUipHiMfk3tALYVQ8Tdi-FOmoO_Sq6PxdEoukbLatUJ5oMcsycP331vEpdStATb_m40]--></g></svg>