<?xml version="1.0" encoding="UTF-8" standalone="no"?><svg xmlns="http://www.w3.org/2000/svg" xmlns:xlink="http://www.w3.org/1999/xlink" contentStyleType="text/css" height="1087px" preserveAspectRatio="none" style="width:1721px;height:1087px;background:#FFFFFF;" version="1.1" viewBox="0 0 1721 1087" width="1721px" zoomAndPan="magnify"><defs/><g><text fill="#000000" font-family="sans-serif" font-size="14" font-weight="bold" lengthAdjust="spacing" textLength="284" x="718.25" y="29.5332">System Sequence Diagram (SSD) - US006</text><rect fill="#FFFFFF" height="856.5625" style="stroke:#181818;stroke-width:1.0;" width="10" x="17.5" y="131.2188"/><rect fill="#FFFFFF" height="89.3125" style="stroke:#181818;stroke-width:1.0;" width="10" x="505.5" y="153.5703"/><rect fill="#FFFFFF" height="30.3516" style="stroke:#181818;stroke-width:1.0;" width="10" x="505.5" y="273.2344"/><rect fill="#FFFFFF" height="30.3516" style="stroke:#181818;stroke-width:1.0;" width="10" x="505.5" y="333.9375"/><rect fill="#FFFFFF" height="30.3516" style="stroke:#181818;stroke-width:1.0;" width="10" x="505.5" y="957.4297"/><rect fill="#FFFFFF" height="151.7578" style="stroke:#181818;stroke-width:1.0;" width="10" x="671" y="364.2891"/><rect fill="#FFFFFF" height="60.3516" style="stroke:#181818;stroke-width:1.0;" width="10" x="671" y="897.0781"/><rect fill="#FFFFFF" height="30.3516" style="stroke:#181818;stroke-width:1.0;" width="10" x="819" y="394.6406"/><rect fill="#FFFFFF" height="30.3516" style="stroke:#181818;stroke-width:1.0;" width="10" x="926" y="455.3438"/><rect fill="#FFFFFF" height="133.4063" style="stroke:#181818;stroke-width:1.0;" width="10" x="1049.5" y="516.0469"/><rect fill="#FFFFFF" height="41.3516" style="stroke:#181818;stroke-width:1.0;" width="10" x="1054.5" y="554.3984"/><rect fill="#FFFFFF" height="60.3516" style="stroke:#181818;stroke-width:1.0;" width="10" x="1049.5" y="866.7266"/><rect fill="#FFFFFF" height="207.2734" style="stroke:#181818;stroke-width:1.0;" width="10" x="1536.5" y="659.4531"/><rect fill="#FFFFFF" height="128.0547" style="stroke:#181818;stroke-width:1.0;" width="10" x="1541.5" y="701.3203"/><rect fill="#FFFFFF" height="41.3516" style="stroke:#181818;stroke-width:1.0;" width="10" x="1546.5" y="744.6719"/><line style="stroke:#181818;stroke-width:0.5;stroke-dasharray:5.0,5.0;" x1="22" x2="22" y1="121.2188" y2="1005.7813"/><line style="stroke:#181818;stroke-width:0.5;stroke-dasharray:5.0,5.0;" x1="510" x2="510" y1="121.2188" y2="1005.7813"/><line style="stroke:#181818;stroke-width:0.5;stroke-dasharray:5.0,5.0;" x1="675.5" x2="675.5" y1="192.875" y2="1005.7813"/><line style="stroke:#181818;stroke-width:0.5;stroke-dasharray:5.0,5.0;" x1="823.5" x2="823.5" y1="121.2188" y2="1005.7813"/><line style="stroke:#181818;stroke-width:0.5;stroke-dasharray:5.0,5.0;" x1="930.5" x2="930.5" y1="121.2188" y2="1005.7813"/><line style="stroke:#181818;stroke-width:0.5;stroke-dasharray:5.0,5.0;" x1="1054.5" x2="1054.5" y1="121.2188" y2="1005.7813"/><line style="stroke:#181818;stroke-width:0.5;stroke-dasharray:5.0,5.0;" x1="1541.5" x2="1541.5" y1="650.8594" y2="1005.7813"/><text fill="#000000" font-family="sans-serif" font-size="14" lengthAdjust="spacing" textLength="29" x="5" y="118.1426">VFM</text><ellipse cx="22.5" cy="52.1094" fill="#E3E3E3" rx="8" ry="8" style="stroke:#181818;stroke-width:0.5;"/><path d="M22.5,60.1094 L22.5,87.1094 M9.5,68.1094 L35.5,68.1094 M22.5,87.1094 L9.5,102.1094 M22.5,87.1094 L35.5,102.1094 " fill="none" style="stroke:#181818;stroke-width:0.5;"/><text fill="#000000" font-family="sans-serif" font-size="14" lengthAdjust="spacing" textLength="29" x="5" y="1019.3145">VFM</text><ellipse cx="22.5" cy="1030.8906" fill="#E3E3E3" rx="8" ry="8" style="stroke:#181818;stroke-width:0.5;"/><path d="M22.5,1038.8906 L22.5,1065.8906 M9.5,1046.8906 L35.5,1046.8906 M22.5,1065.8906 L9.5,1080.8906 M22.5,1065.8906 L35.5,1080.8906 " fill="none" style="stroke:#181818;stroke-width:0.5;"/><rect fill="#E3E3E3" height="31.6094" rx="2.5" ry="2.5" style="stroke:#181818;stroke-width:0.5;" width="129" x="446" y="88.6094"/><text fill="#000000" font-family="sans-serif" font-size="14" lengthAdjust="spacing" textLength="115" x="453" y="110.1426">:RegisterVehicleUI</text><rect fill="#E3E3E3" height="31.6094" rx="2.5" ry="2.5" style="stroke:#181818;stroke-width:0.5;" width="129" x="446" y="1004.7813"/><text fill="#000000" font-family="sans-serif" font-size="14" lengthAdjust="spacing" textLength="115" x="453" y="1026.3145">:RegisterVehicleUI</text><rect fill="#E3E3E3" height="31.6094" rx="2.5" ry="2.5" style="stroke:#181818;stroke-width:0.5;" width="179" x="586.5" y="1004.7813"/><text fill="#000000" font-family="sans-serif" font-size="14" lengthAdjust="spacing" textLength="165" x="593.5" y="1026.3145">:RegisterVehicleController</text><rect fill="#E3E3E3" height="31.6094" rx="2.5" ry="2.5" style="stroke:#181818;stroke-width:0.5;" width="97" x="775.5" y="88.6094"/><text fill="#000000" font-family="sans-serif" font-size="14" lengthAdjust="spacing" textLength="83" x="782.5" y="110.1426">:Repositories</text><rect fill="#E3E3E3" height="31.6094" rx="2.5" ry="2.5" style="stroke:#181818;stroke-width:0.5;" width="97" x="775.5" y="1004.7813"/><text fill="#000000" font-family="sans-serif" font-size="14" lengthAdjust="spacing" textLength="83" x="782.5" y="1026.3145">:Repositories</text><rect fill="#E3E3E3" height="49.2188" rx="2.5" ry="2.5" style="stroke:#181818;stroke-width:0.5;" width="97" x="882.5" y="71"/><text fill="#000000" font-family="sans-serif" font-size="14" lengthAdjust="spacing" textLength="74" x="894" y="92.5332">repositories</text><text fill="#000000" font-family="sans-serif" font-size="14" lengthAdjust="spacing" textLength="83" x="889.5" y="110.1426">:Repositories</text><rect fill="#E3E3E3" height="49.2188" rx="2.5" ry="2.5" style="stroke:#181818;stroke-width:0.5;" width="97" x="882.5" y="1004.7813"/><text fill="#000000" font-family="sans-serif" font-size="14" lengthAdjust="spacing" textLength="74" x="894" y="1026.3145">repositories</text><text fill="#000000" font-family="sans-serif" font-size="14" lengthAdjust="spacing" textLength="83" x="889.5" y="1043.9238">:Repositories</text><rect fill="#E3E3E3" height="49.2188" rx="2.5" ry="2.5" style="stroke:#181818;stroke-width:0.5;" width="130" x="989.5" y="71"/><text fill="#000000" font-family="sans-serif" font-size="14" lengthAdjust="spacing" textLength="116" x="996.5" y="92.5332">vehicleRepository:</text><text fill="#000000" font-family="sans-serif" font-size="14" lengthAdjust="spacing" textLength="114" x="997.5" y="110.1426">VehicleRepository</text><rect fill="#E3E3E3" height="49.2188" rx="2.5" ry="2.5" style="stroke:#181818;stroke-width:0.5;" width="130" x="989.5" y="1004.7813"/><text fill="#000000" font-family="sans-serif" font-size="14" lengthAdjust="spacing" textLength="116" x="996.5" y="1026.3145">vehicleRepository:</text><text fill="#000000" font-family="sans-serif" font-size="14" lengthAdjust="spacing" textLength="114" x="997.5" y="1043.9238">VehicleRepository</text><rect fill="#E3E3E3" height="49.2188" rx="2.5" ry="2.5" style="stroke:#181818;stroke-width:0.5;" width="64" x="1509.5" y="1004.7813"/><text fill="#000000" font-family="sans-serif" font-size="14" lengthAdjust="spacing" textLength="44" x="1519.5" y="1026.3145">vehicle</text><text fill="#000000" font-family="sans-serif" font-size="14" lengthAdjust="spacing" textLength="50" x="1516.5" y="1043.9238">:Vehicle</text><rect fill="#FFFFFF" height="856.5625" style="stroke:#181818;stroke-width:1.0;" width="10" x="17.5" y="131.2188"/><rect fill="#FFFFFF" height="89.3125" style="stroke:#181818;stroke-width:1.0;" width="10" x="505.5" y="153.5703"/><rect fill="#FFFFFF" height="30.3516" style="stroke:#181818;stroke-width:1.0;" width="10" x="505.5" y="273.2344"/><rect fill="#FFFFFF" height="30.3516" style="stroke:#181818;stroke-width:1.0;" width="10" x="505.5" y="333.9375"/><rect fill="#FFFFFF" height="30.3516" style="stroke:#181818;stroke-width:1.0;" width="10" x="505.5" y="957.4297"/><rect fill="#FFFFFF" height="151.7578" style="stroke:#181818;stroke-width:1.0;" width="10" x="671" y="364.2891"/><rect fill="#FFFFFF" height="60.3516" style="stroke:#181818;stroke-width:1.0;" width="10" x="671" y="897.0781"/><rect fill="#FFFFFF" height="30.3516" style="stroke:#181818;stroke-width:1.0;" width="10" x="819" y="394.6406"/><rect fill="#FFFFFF" height="30.3516" style="stroke:#181818;stroke-width:1.0;" width="10" x="926" y="455.3438"/><rect fill="#FFFFFF" height="133.4063" style="stroke:#181818;stroke-width:1.0;" width="10" x="1049.5" y="516.0469"/><rect fill="#FFFFFF" height="41.3516" style="stroke:#181818;stroke-width:1.0;" width="10" x="1054.5" y="554.3984"/><rect fill="#FFFFFF" height="60.3516" style="stroke:#181818;stroke-width:1.0;" width="10" x="1049.5" y="866.7266"/><rect fill="#FFFFFF" height="207.2734" style="stroke:#181818;stroke-width:1.0;" width="10" x="1536.5" y="659.4531"/><rect fill="#FFFFFF" height="128.0547" style="stroke:#181818;stroke-width:1.0;" width="10" x="1541.5" y="701.3203"/><rect fill="#FFFFFF" height="41.3516" style="stroke:#181818;stroke-width:1.0;" width="10" x="1546.5" y="744.6719"/><polygon fill="#181818" points="493.5,149.5703,503.5,153.5703,493.5,157.5703,497.5,153.5703" style="stroke:#181818;stroke-width:1.0;"/><line style="stroke:#181818;stroke-width:1.0;" x1="27.5" x2="499.5" y1="153.5703" y2="153.5703"/><text fill="#000000" font-family="sans-serif" font-size="13" font-weight="bold" lengthAdjust="spacing" textLength="7" x="34.5" y="148.7139">1</text><text fill="#000000" font-family="sans-serif" font-size="13" lengthAdjust="spacing" textLength="166" x="45.5" y="148.7139">requests to register a vehicle</text><polygon fill="#181818" points="574.5,179.9219,584.5,183.9219,574.5,187.9219,578.5,183.9219" style="stroke:#181818;stroke-width:1.0;"/><line style="stroke:#181818;stroke-width:1.0;" x1="515.5" x2="580.5" y1="183.9219" y2="183.9219"/><text fill="#000000" font-family="sans-serif" font-size="13" font-weight="bold" lengthAdjust="spacing" textLength="7" x="522.5" y="179.0654">2</text><text fill="#000000" font-family="sans-serif" font-size="13" lengthAdjust="spacing" textLength="36" x="533.5" y="179.0654">create</text><rect fill="#E3E3E3" height="31.6094" rx="2.5" ry="2.5" style="stroke:#181818;stroke-width:0.5;" width="179" x="586.5" y="161.5703"/><text fill="#000000" font-family="sans-serif" font-size="14" lengthAdjust="spacing" textLength="165" x="593.5" y="183.1035">:RegisterVehicleController</text><polygon fill="#181818" points="38.5,238.8828,28.5,242.8828,38.5,246.8828,34.5,242.8828" style="stroke:#181818;stroke-width:1.0;"/><line style="stroke:#181818;stroke-width:1.0;stroke-dasharray:2.0,2.0;" x1="32.5" x2="509.5" y1="242.8828" y2="242.8828"/><text fill="#000000" font-family="sans-serif" font-size="13" font-weight="bold" lengthAdjust="spacing" textLength="7" x="44.5" y="229.8506">3</text><text fill="#000000" font-family="sans-serif" font-size="13" lengthAdjust="spacing" textLength="439" x="55.5" y="221.6748">requests vehicle data (VIN, Brand, Model, Type, Vehicle Plate, Tare Weight,</text><text fill="#000000" font-family="sans-serif" font-size="13" lengthAdjust="spacing" textLength="408" x="55.5" y="238.0264">Gross Weight, Current Km, Acquisition Date, Maintenance Frequency)</text><polygon fill="#181818" points="493.5,269.2344,503.5,273.2344,493.5,277.2344,497.5,273.2344" style="stroke:#181818;stroke-width:1.0;"/><line style="stroke:#181818;stroke-width:1.0;" x1="27.5" x2="499.5" y1="273.2344" y2="273.2344"/><text fill="#000000" font-family="sans-serif" font-size="13" font-weight="bold" lengthAdjust="spacing" textLength="7" x="34.5" y="268.3779">4</text><text fill="#000000" font-family="sans-serif" font-size="13" lengthAdjust="spacing" textLength="104" x="45.5" y="268.3779">types vehicle data</text><polygon fill="#181818" points="38.5,299.5859,28.5,303.5859,38.5,307.5859,34.5,303.5859" style="stroke:#181818;stroke-width:1.0;"/><line style="stroke:#181818;stroke-width:1.0;stroke-dasharray:2.0,2.0;" x1="32.5" x2="509.5" y1="303.5859" y2="303.5859"/><text fill="#000000" font-family="sans-serif" font-size="13" font-weight="bold" lengthAdjust="spacing" textLength="7" x="44.5" y="298.7295">5</text><text fill="#000000" font-family="sans-serif" font-size="13" lengthAdjust="spacing" textLength="236" x="55.5" y="298.7295">shows all data and requests confirmation</text><polygon fill="#181818" points="493.5,329.9375,503.5,333.9375,493.5,337.9375,497.5,333.9375" style="stroke:#181818;stroke-width:1.0;"/><line style="stroke:#181818;stroke-width:1.0;" x1="27.5" x2="499.5" y1="333.9375" y2="333.9375"/><text fill="#000000" font-family="sans-serif" font-size="13" font-weight="bold" lengthAdjust="spacing" textLength="7" x="34.5" y="329.0811">6</text><text fill="#000000" font-family="sans-serif" font-size="13" lengthAdjust="spacing" textLength="80" x="45.5" y="329.0811">confirms Data</text><polygon fill="#181818" points="659,360.2891,669,364.2891,659,368.2891,663,364.2891" style="stroke:#181818;stroke-width:1.0;"/><line style="stroke:#181818;stroke-width:1.0;" x1="510.5" x2="665" y1="364.2891" y2="364.2891"/><text fill="#000000" font-family="sans-serif" font-size="13" font-weight="bold" lengthAdjust="spacing" textLength="7" x="517.5" y="359.4326">7</text><text fill="#000000" font-family="sans-serif" font-size="13" lengthAdjust="spacing" textLength="111" x="528.5" y="359.4326">submit vehicle data</text><polygon fill="#181818" points="807,390.6406,817,394.6406,807,398.6406,811,394.6406" style="stroke:#181818;stroke-width:1.0;"/><line style="stroke:#181818;stroke-width:1.0;" x1="681" x2="813" y1="394.6406" y2="394.6406"/><text fill="#000000" font-family="sans-serif" font-size="13" font-weight="bold" lengthAdjust="spacing" textLength="7" x="688" y="389.7842">8</text><text fill="#000000" font-family="sans-serif" font-size="13" lengthAdjust="spacing" textLength="75" x="699" y="389.7842">getInstance()</text><polygon fill="#181818" points="692,420.9922,682,424.9922,692,428.9922,688,424.9922" style="stroke:#181818;stroke-width:1.0;"/><line style="stroke:#181818;stroke-width:1.0;stroke-dasharray:2.0,2.0;" x1="686" x2="823" y1="424.9922" y2="424.9922"/><text fill="#000000" font-family="sans-serif" font-size="13" font-weight="bold" lengthAdjust="spacing" textLength="7" x="698" y="420.1357">9</text><text fill="#000000" font-family="sans-serif" font-size="13" lengthAdjust="spacing" textLength="67" x="709" y="420.1357">repositories</text><polygon fill="#181818" points="914,451.3438,924,455.3438,914,459.3438,918,455.3438" style="stroke:#181818;stroke-width:1.0;"/><line style="stroke:#181818;stroke-width:1.0;" x1="681" x2="920" y1="455.3438" y2="455.3438"/><text fill="#000000" font-family="sans-serif" font-size="13" font-weight="bold" lengthAdjust="spacing" textLength="14" x="688" y="450.4873">10</text><text fill="#000000" font-family="sans-serif" font-size="13" lengthAdjust="spacing" textLength="123" x="706" y="450.4873">getVehicleRepository</text><polygon fill="#181818" points="692,481.6953,682,485.6953,692,489.6953,688,485.6953" style="stroke:#181818;stroke-width:1.0;"/><line style="stroke:#181818;stroke-width:1.0;stroke-dasharray:2.0,2.0;" x1="686" x2="930" y1="485.6953" y2="485.6953"/><text fill="#000000" font-family="sans-serif" font-size="13" font-weight="bold" lengthAdjust="spacing" textLength="14" x="698" y="480.8389">11</text><text fill="#000000" font-family="sans-serif" font-size="13" lengthAdjust="spacing" textLength="105" x="716" y="480.8389">VehicleRepository</text><polygon fill="#181818" points="1037.5,512.0469,1047.5,516.0469,1037.5,520.0469,1041.5,516.0469" style="stroke:#181818;stroke-width:1.0;"/><line style="stroke:#181818;stroke-width:1.0;" x1="676" x2="1043.5" y1="516.0469" y2="516.0469"/><text fill="#000000" font-family="sans-serif" font-size="13" font-weight="bold" lengthAdjust="spacing" textLength="14" x="683" y="511.1904">12</text><text fill="#000000" font-family="sans-serif" font-size="13" lengthAdjust="spacing" textLength="142" x="701" y="511.1904">validateVehicleData(VIN)</text><line style="stroke:#181818;stroke-width:1.0;" x1="1059.5" x2="1106.5" y1="541.3984" y2="541.3984"/><line style="stroke:#181818;stroke-width:1.0;" x1="1106.5" x2="1106.5" y1="541.3984" y2="554.3984"/><line style="stroke:#181818;stroke-width:1.0;" x1="1065.5" x2="1106.5" y1="554.3984" y2="554.3984"/><polygon fill="#181818" points="1075.5,550.3984,1065.5,554.3984,1075.5,558.3984,1071.5,554.3984" style="stroke:#181818;stroke-width:1.0;"/><text fill="#000000" font-family="sans-serif" font-size="13" font-weight="bold" lengthAdjust="spacing" textLength="14" x="1071.5" y="536.542">13</text><text fill="#000000" font-family="sans-serif" font-size="13" lengthAdjust="spacing" textLength="227" x="1089.5" y="536.542">validateVehicleData(VIN, Vehicle Plate)</text><line style="stroke:#181818;stroke-width:1.0;stroke-dasharray:2.0,2.0;" x1="1064.5" x2="1106.5" y1="594.75" y2="594.75"/><line style="stroke:#181818;stroke-width:1.0;stroke-dasharray:2.0,2.0;" x1="1106.5" x2="1106.5" y1="594.75" y2="607.75"/><line style="stroke:#181818;stroke-width:1.0;stroke-dasharray:2.0,2.0;" x1="1059.5" x2="1106.5" y1="607.75" y2="607.75"/><polygon fill="#181818" points="1069.5,603.75,1059.5,607.75,1069.5,611.75,1065.5,607.75" style="stroke:#181818;stroke-width:1.0;"/><text fill="#000000" font-family="sans-serif" font-size="13" font-weight="bold" lengthAdjust="spacing" textLength="14" x="1071.5" y="589.8936">14</text><text fill="#000000" font-family="sans-serif" font-size="13" lengthAdjust="spacing" textLength="4" x="1089.5" y="589.8936"> </text><polygon fill="#181818" points="1497.5,645.4531,1507.5,649.4531,1497.5,653.4531,1501.5,649.4531" style="stroke:#181818;stroke-width:1.0;"/><line style="stroke:#181818;stroke-width:1.0;" x1="1054.5" x2="1503.5" y1="649.4531" y2="649.4531"/><text fill="#000000" font-family="sans-serif" font-size="13" font-weight="bold" lengthAdjust="spacing" textLength="14" x="1061.5" y="636.4209">15</text><text fill="#000000" font-family="sans-serif" font-size="13" lengthAdjust="spacing" textLength="399" x="1079.5" y="628.2451">registerVehicle(VIN, Brand, Model, Type, Vehicle Plate, Tare Weight,</text><text fill="#000000" font-family="sans-serif" font-size="13" lengthAdjust="spacing" textLength="408" x="1079.5" y="644.5967">Gross Weight, Current Km, Acquisition Date, Maintenance Frequency)</text><rect fill="#E3E3E3" height="49.2188" rx="2.5" ry="2.5" style="stroke:#181818;stroke-width:0.5;" width="64" x="1509.5" y="610.75"/><text fill="#000000" font-family="sans-serif" font-size="14" lengthAdjust="spacing" textLength="44" x="1519.5" y="632.2832">vehicle</text><text fill="#000000" font-family="sans-serif" font-size="14" lengthAdjust="spacing" textLength="50" x="1516.5" y="649.8926">:Vehicle</text><line style="stroke:#181818;stroke-width:1.0;" x1="1546.5" x2="1593.5" y1="688.3203" y2="688.3203"/><line style="stroke:#181818;stroke-width:1.0;" x1="1593.5" x2="1593.5" y1="688.3203" y2="701.3203"/><line style="stroke:#181818;stroke-width:1.0;" x1="1552.5" x2="1593.5" y1="701.3203" y2="701.3203"/><polygon fill="#181818" points="1562.5,697.3203,1552.5,701.3203,1562.5,705.3203,1558.5,701.3203" style="stroke:#181818;stroke-width:1.0;"/><text fill="#000000" font-family="sans-serif" font-size="13" font-weight="bold" lengthAdjust="spacing" textLength="14" x="1558.5" y="683.4639">16</text><text fill="#000000" font-family="sans-serif" font-size="13" lengthAdjust="spacing" textLength="111" x="1576.5" y="683.4639">addVehicle(vehicle)</text><line style="stroke:#181818;stroke-width:1.0;" x1="1551.5" x2="1598.5" y1="731.6719" y2="731.6719"/><line style="stroke:#181818;stroke-width:1.0;" x1="1598.5" x2="1598.5" y1="731.6719" y2="744.6719"/><line style="stroke:#181818;stroke-width:1.0;" x1="1557.5" x2="1598.5" y1="744.6719" y2="744.6719"/><polygon fill="#181818" points="1567.5,740.6719,1557.5,744.6719,1567.5,748.6719,1563.5,744.6719" style="stroke:#181818;stroke-width:1.0;"/><text fill="#000000" font-family="sans-serif" font-size="13" font-weight="bold" lengthAdjust="spacing" textLength="14" x="1563.5" y="726.8154">17</text><text fill="#000000" font-family="sans-serif" font-size="13" lengthAdjust="spacing" textLength="133" x="1581.5" y="726.8154">validateVehicle(vehicle)</text><line style="stroke:#181818;stroke-width:1.0;stroke-dasharray:2.0,2.0;" x1="1556.5" x2="1598.5" y1="785.0234" y2="785.0234"/><line style="stroke:#181818;stroke-width:1.0;stroke-dasharray:2.0,2.0;" x1="1598.5" x2="1598.5" y1="785.0234" y2="798.0234"/><line style="stroke:#181818;stroke-width:1.0;stroke-dasharray:2.0,2.0;" x1="1551.5" x2="1598.5" y1="798.0234" y2="798.0234"/><polygon fill="#181818" points="1561.5,794.0234,1551.5,798.0234,1561.5,802.0234,1557.5,798.0234" style="stroke:#181818;stroke-width:1.0;"/><text fill="#000000" font-family="sans-serif" font-size="13" font-weight="bold" lengthAdjust="spacing" textLength="14" x="1563.5" y="780.167">18</text><text fill="#000000" font-family="sans-serif" font-size="13" lengthAdjust="spacing" textLength="4" x="1581.5" y="780.167"> </text><line style="stroke:#181818;stroke-width:1.0;stroke-dasharray:2.0,2.0;" x1="1551.5" x2="1593.5" y1="828.375" y2="828.375"/><line style="stroke:#181818;stroke-width:1.0;stroke-dasharray:2.0,2.0;" x1="1593.5" x2="1593.5" y1="828.375" y2="841.375"/><line style="stroke:#181818;stroke-width:1.0;stroke-dasharray:2.0,2.0;" x1="1546.5" x2="1593.5" y1="841.375" y2="841.375"/><polygon fill="#181818" points="1556.5,837.375,1546.5,841.375,1556.5,845.375,1552.5,841.375" style="stroke:#181818;stroke-width:1.0;"/><text fill="#000000" font-family="sans-serif" font-size="13" font-weight="bold" lengthAdjust="spacing" textLength="14" x="1558.5" y="823.5186">19</text><text fill="#000000" font-family="sans-serif" font-size="13" lengthAdjust="spacing" textLength="4" x="1576.5" y="823.5186"> </text><polygon fill="#181818" points="1070.5,862.7266,1060.5,866.7266,1070.5,870.7266,1066.5,866.7266" style="stroke:#181818;stroke-width:1.0;"/><line style="stroke:#181818;stroke-width:1.0;stroke-dasharray:2.0,2.0;" x1="1064.5" x2="1540.5" y1="866.7266" y2="866.7266"/><text fill="#000000" font-family="sans-serif" font-size="13" font-weight="bold" lengthAdjust="spacing" textLength="14" x="1076.5" y="861.8701">20</text><text fill="#000000" font-family="sans-serif" font-size="13" lengthAdjust="spacing" textLength="39" x="1094.5" y="861.8701">vehicle</text><polygon fill="#181818" points="692,893.0781,682,897.0781,692,901.0781,688,897.0781" style="stroke:#181818;stroke-width:1.0;"/><line style="stroke:#181818;stroke-width:1.0;stroke-dasharray:2.0,2.0;" x1="686" x2="1048.5" y1="897.0781" y2="897.0781"/><text fill="#000000" font-family="sans-serif" font-size="13" font-weight="bold" lengthAdjust="spacing" textLength="14" x="698" y="892.2217">21</text><text fill="#000000" font-family="sans-serif" font-size="13" lengthAdjust="spacing" textLength="39" x="716" y="892.2217">vehicle</text><polygon fill="#181818" points="526.5,953.4297,516.5,957.4297,526.5,961.4297,522.5,957.4297" style="stroke:#181818;stroke-width:1.0;"/><line style="stroke:#181818;stroke-width:1.0;stroke-dasharray:2.0,2.0;" x1="520.5" x2="675" y1="957.4297" y2="957.4297"/><text fill="#000000" font-family="sans-serif" font-size="13" font-weight="bold" lengthAdjust="spacing" textLength="14" x="532.5" y="952.5732">22</text><text fill="#000000" font-family="sans-serif" font-size="13" lengthAdjust="spacing" textLength="39" x="550.5" y="952.5732">vehicle</text><polygon fill="#181818" points="33.5,983.7813,23.5,987.7813,33.5,991.7813,29.5,987.7813" style="stroke:#181818;stroke-width:1.0;"/><line style="stroke:#181818;stroke-width:1.0;stroke-dasharray:2.0,2.0;" x1="27.5" x2="509.5" y1="987.7813" y2="987.7813"/><text fill="#000000" font-family="sans-serif" font-size="13" font-weight="bold" lengthAdjust="spacing" textLength="14" x="39.5" y="982.9248">23</text><text fill="#000000" font-family="sans-serif" font-size="13" lengthAdjust="spacing" textLength="215" x="57.5" y="982.9248">shows vehicle registration information</text><!--SRC=[pLPDJ-Cm4BtdLunwQgiYSTf33Ykn1LRHmWeHshtqOf9fQf7OnNP0_VSxTZuQDobKg0To8Kncthmt7tRr2nTRfbW1XHGosIXP81XLOg3RBrkMlB0COxFB4HGcXeaixphe3KlbEnSPh5ckCGWCD-GQxxJ10c9yBL4a2DUSPTPz7CVN4xY0HNnv-IC8M6caA8jdLFIU6AbWjBoz7m7JG7y3Ic5umhTC61Y5ZvXnGbLBtF0anqNa_1RHnsvpAOoIUOxAkS-V7kzw0LkfEINdg9rFQzZ5tCebZdw8waIiH1_WuUxgoOzugyZiaSELM1xQAjs7ra4WobexLa4taIiWVsC6NUa2e8TUuE8dbGX2QXwrGXiDHj9xLI9WKECvznQ0QkeCzg5WWh1bcqu99b587lvd-cupTNBKg90oms2yZFxEu9TY8ft1lKmndy7JRekpHYiyv8H9HgOG_Y7FDcO6A_5RIQtR_-UbKaWL-5FCu2fvBJbLXqi1roxqdd5XK30xQxUgchhTf6MPOazRjpQ6sFYaX-lXYTKR-Qw1vNcbajJjzITIhBagc6KOV4OWRDor5SDEQOLDNpuNtFH9zxCrrjRcTg0rsyTX4lR0v8UGeOc4DhQsuuaNrY8EROpdEU3WIcaJsxdPBv0NrX7oQOf6Wrq-Hxg_IOFStR9wdwobm-vZd0v57wdXqmkdvhsnd5F7iFvcsswtP71W-ztQBtgFcUVNppn4voYRW_sSd8l348bZ9Hr0Fq7YJGJJQTWUSxNJzpg7JfnETx9xYc-YMcC8B4qRRVKvCFa2oa7xlmHLOHtjubbZ1WQuSuaTWJhVx5Q7mb1AVsM_ED7LiT7SJ9yewoKwvSfghengFPIxf82BjVpWmkeAe5yN_m40]--></g></svg>