<?xml version="1.0" encoding="UTF-8" standalone="no"?><svg xmlns="http://www.w3.org/2000/svg" xmlns:xlink="http://www.w3.org/1999/xlink" contentStyleType="text/css" height="1953px" preserveAspectRatio="none" style="width:1976px;height:1953px;background:#FFFFFF;" version="1.1" viewBox="0 0 1976 1953" width="1976px" zoomAndPan="magnify"><defs/><g><rect fill="#FFFFFF" height="1760.9453" style="stroke:#181818;stroke-width:1.0;" width="10" x="17.5" y="92.6094"/><rect fill="#FFFFFF" height="1738.5938" style="stroke:#181818;stroke-width:1.0;" width="10" x="472.5" y="114.9609"/><rect fill="#FFFFFF" height="299.1641" style="stroke:#181818;stroke-width:1.0;" width="10" x="839.5" y="264.9766"/><rect fill="#FFFFFF" height="299.1641" style="stroke:#181818;stroke-width:1.0;" width="10" x="839.5" y="594.4922"/><rect fill="#FFFFFF" height="223.4609" style="stroke:#181818;stroke-width:1.0;" width="10" x="844.5" y="632.8438"/><rect fill="#FFFFFF" height="299.1641" style="stroke:#181818;stroke-width:1.0;" width="10" x="839.5" y="984.7109"/><rect fill="#FFFFFF" height="223.4609" style="stroke:#181818;stroke-width:1.0;" width="10" x="844.5" y="1023.0625"/><rect fill="#FFFFFF" height="415.5703" style="stroke:#181818;stroke-width:1.0;" width="10" x="839.5" y="1407.6328"/><rect fill="#FFFFFF" height="30.3516" style="stroke:#181818;stroke-width:1.0;" width="10" x="1024.5" y="295.3281"/><rect fill="#FFFFFF" height="30.3516" style="stroke:#181818;stroke-width:1.0;" width="10" x="1024.5" y="668.1953"/><rect fill="#FFFFFF" height="30.3516" style="stroke:#181818;stroke-width:1.0;" width="10" x="1024.5" y="1058.4141"/><rect fill="#FFFFFF" height="30.3516" style="stroke:#181818;stroke-width:1.0;" width="10" x="1131.5" y="356.0313"/><rect fill="#FFFFFF" height="30.3516" style="stroke:#181818;stroke-width:1.0;" width="10" x="1131.5" y="728.8984"/><rect fill="#FFFFFF" height="30.3516" style="stroke:#181818;stroke-width:1.0;" width="10" x="1131.5" y="1119.1172"/><rect fill="#FFFFFF" height="30.3516" style="stroke:#181818;stroke-width:1.0;" width="10" x="1251.5" y="789.6016"/><rect fill="#FFFFFF" height="30.3516" style="stroke:#181818;stroke-width:1.0;" width="10" x="1251.5" y="1179.8203"/><rect fill="#FFFFFF" height="117.0547" style="stroke:#181818;stroke-width:1.0;" width="10" x="1388" y="416.7344"/><rect fill="#FFFFFF" height="41.3516" style="stroke:#181818;stroke-width:1.0;" width="10" x="1393" y="455.0859"/><rect fill="#FFFFFF" height="297.1641" style="stroke:#181818;stroke-width:1.0;" width="10" x="1388" y="1495.6875"/><rect fill="#FFFFFF" height="193.7578" style="stroke:#181818;stroke-width:1.0;" width="10" x="1787" y="1568.7422"/><rect fill="#FFFFFF" height="128.0547" style="stroke:#181818;stroke-width:1.0;" width="10" x="1792" y="1597.0938"/><rect fill="#FFFFFF" height="41.3516" style="stroke:#181818;stroke-width:1.0;" width="10" x="1797" y="1640.4453"/><line style="stroke:#181818;stroke-width:0.5;stroke-dasharray:5.0,5.0;" x1="22" x2="22" y1="82.6094" y2="1871.5547"/><line style="stroke:#181818;stroke-width:0.5;stroke-dasharray:5.0,5.0;" x1="477" x2="477" y1="82.6094" y2="1871.5547"/><line style="stroke:#181818;stroke-width:0.5;stroke-dasharray:5.0,5.0;" x1="844" x2="844" y1="154.2656" y2="1871.5547"/><line style="stroke:#181818;stroke-width:0.5;stroke-dasharray:5.0,5.0;" x1="1029" x2="1029" y1="82.6094" y2="1871.5547"/><line style="stroke:#181818;stroke-width:0.5;stroke-dasharray:5.0,5.0;" x1="1136" x2="1136" y1="82.6094" y2="1871.5547"/><line style="stroke:#181818;stroke-width:0.5;stroke-dasharray:5.0,5.0;" x1="1256" x2="1256" y1="82.6094" y2="1871.5547"/><line style="stroke:#181818;stroke-width:0.5;stroke-dasharray:5.0,5.0;" x1="1393" x2="1393" y1="82.6094" y2="1871.5547"/><line style="stroke:#181818;stroke-width:0.5;stroke-dasharray:5.0,5.0;" x1="1792" x2="1792" y1="1545.2148" y2="1871.5547"/><text fill="#000000" font-family="sans-serif" font-size="14" lengthAdjust="spacing" textLength="29" x="5" y="79.5332">VFM</text><ellipse cx="22.5" cy="13.5" fill="#E3E3E3" rx="8" ry="8" style="stroke:#181818;stroke-width:0.5;"/><path d="M22.5,21.5 L22.5,48.5 M9.5,29.5 L35.5,29.5 M22.5,48.5 L9.5,63.5 M22.5,48.5 L35.5,63.5 " fill="none" style="stroke:#181818;stroke-width:0.5;"/><text fill="#000000" font-family="sans-serif" font-size="14" lengthAdjust="spacing" textLength="29" x="5" y="1885.0879">VFM</text><ellipse cx="22.5" cy="1896.6641" fill="#E3E3E3" rx="8" ry="8" style="stroke:#181818;stroke-width:0.5;"/><path d="M22.5,1904.6641 L22.5,1931.6641 M9.5,1912.6641 L35.5,1912.6641 M22.5,1931.6641 L9.5,1946.6641 M22.5,1931.6641 L35.5,1946.6641 " fill="none" style="stroke:#181818;stroke-width:0.5;"/><rect fill="#E3E3E3" height="31.6094" rx="2.5" ry="2.5" style="stroke:#181818;stroke-width:0.5;" width="129" x="413" y="50"/><text fill="#000000" font-family="sans-serif" font-size="14" lengthAdjust="spacing" textLength="115" x="420" y="71.5332">:RegisterVehicleUI</text><rect fill="#E3E3E3" height="31.6094" rx="2.5" ry="2.5" style="stroke:#181818;stroke-width:0.5;" width="129" x="413" y="1870.5547"/><text fill="#000000" font-family="sans-serif" font-size="14" lengthAdjust="spacing" textLength="115" x="420" y="1892.0879">:RegisterVehicleUI</text><rect fill="#E3E3E3" height="31.6094" rx="2.5" ry="2.5" style="stroke:#181818;stroke-width:0.5;" width="179" x="755" y="1870.5547"/><text fill="#000000" font-family="sans-serif" font-size="14" lengthAdjust="spacing" textLength="165" x="762" y="1892.0879">:RegisterVehicleController</text><rect fill="#E3E3E3" height="31.6094" rx="2.5" ry="2.5" style="stroke:#181818;stroke-width:0.5;" width="97" x="981" y="50"/><text fill="#000000" font-family="sans-serif" font-size="14" lengthAdjust="spacing" textLength="83" x="988" y="71.5332">:Repositories</text><rect fill="#E3E3E3" height="31.6094" rx="2.5" ry="2.5" style="stroke:#181818;stroke-width:0.5;" width="97" x="981" y="1870.5547"/><text fill="#000000" font-family="sans-serif" font-size="14" lengthAdjust="spacing" textLength="83" x="988" y="1892.0879">:Repositories</text><rect fill="#E3E3E3" height="49.2188" rx="2.5" ry="2.5" style="stroke:#181818;stroke-width:0.5;" width="97" x="1088" y="32.3906"/><text fill="#000000" font-family="sans-serif" font-size="14" lengthAdjust="spacing" textLength="74" x="1099.5" y="53.9238">repositories</text><text fill="#000000" font-family="sans-serif" font-size="14" lengthAdjust="spacing" textLength="83" x="1095" y="71.5332">:Repositories</text><rect fill="#E3E3E3" height="49.2188" rx="2.5" ry="2.5" style="stroke:#181818;stroke-width:0.5;" width="97" x="1088" y="1870.5547"/><text fill="#000000" font-family="sans-serif" font-size="14" lengthAdjust="spacing" textLength="74" x="1099.5" y="1892.0879">repositories</text><text fill="#000000" font-family="sans-serif" font-size="14" lengthAdjust="spacing" textLength="83" x="1095" y="1909.6973">:Repositories</text><rect fill="#E3E3E3" height="49.2188" rx="2.5" ry="2.5" style="stroke:#181818;stroke-width:0.5;" width="123" x="1195" y="32.3906"/><text fill="#000000" font-family="sans-serif" font-size="14" lengthAdjust="spacing" textLength="109" x="1202" y="53.9238">brandRepository:</text><text fill="#000000" font-family="sans-serif" font-size="14" lengthAdjust="spacing" textLength="106" x="1203.5" y="71.5332">BrandRepository</text><rect fill="#E3E3E3" height="49.2188" rx="2.5" ry="2.5" style="stroke:#181818;stroke-width:0.5;" width="123" x="1195" y="1870.5547"/><text fill="#000000" font-family="sans-serif" font-size="14" lengthAdjust="spacing" textLength="109" x="1202" y="1892.0879">brandRepository:</text><text fill="#000000" font-family="sans-serif" font-size="14" lengthAdjust="spacing" textLength="106" x="1203.5" y="1909.6973">BrandRepository</text><rect fill="#E3E3E3" height="49.2188" rx="2.5" ry="2.5" style="stroke:#181818;stroke-width:0.5;" width="130" x="1328" y="32.3906"/><text fill="#000000" font-family="sans-serif" font-size="14" lengthAdjust="spacing" textLength="116" x="1335" y="53.9238">vehicleRepository:</text><text fill="#000000" font-family="sans-serif" font-size="14" lengthAdjust="spacing" textLength="114" x="1336" y="71.5332">VehicleRepository</text><rect fill="#E3E3E3" height="49.2188" rx="2.5" ry="2.5" style="stroke:#181818;stroke-width:0.5;" width="130" x="1328" y="1870.5547"/><text fill="#000000" font-family="sans-serif" font-size="14" lengthAdjust="spacing" textLength="116" x="1335" y="1892.0879">vehicleRepository:</text><text fill="#000000" font-family="sans-serif" font-size="14" lengthAdjust="spacing" textLength="114" x="1336" y="1909.6973">VehicleRepository</text><rect fill="#E3E3E3" height="49.2188" rx="2.5" ry="2.5" style="stroke:#181818;stroke-width:0.5;" width="64" x="1760" y="1870.5547"/><text fill="#000000" font-family="sans-serif" font-size="14" lengthAdjust="spacing" textLength="44" x="1770" y="1892.0879">vehicle</text><text fill="#000000" font-family="sans-serif" font-size="14" lengthAdjust="spacing" textLength="50" x="1767" y="1909.6973">:Vehicle</text><rect fill="#FFFFFF" height="1760.9453" style="stroke:#181818;stroke-width:1.0;" width="10" x="17.5" y="92.6094"/><rect fill="#FFFFFF" height="1738.5938" style="stroke:#181818;stroke-width:1.0;" width="10" x="472.5" y="114.9609"/><rect fill="#FFFFFF" height="299.1641" style="stroke:#181818;stroke-width:1.0;" width="10" x="839.5" y="264.9766"/><rect fill="#FFFFFF" height="299.1641" style="stroke:#181818;stroke-width:1.0;" width="10" x="839.5" y="594.4922"/><rect fill="#FFFFFF" height="223.4609" style="stroke:#181818;stroke-width:1.0;" width="10" x="844.5" y="632.8438"/><rect fill="#FFFFFF" height="299.1641" style="stroke:#181818;stroke-width:1.0;" width="10" x="839.5" y="984.7109"/><rect fill="#FFFFFF" height="223.4609" style="stroke:#181818;stroke-width:1.0;" width="10" x="844.5" y="1023.0625"/><rect fill="#FFFFFF" height="415.5703" style="stroke:#181818;stroke-width:1.0;" width="10" x="839.5" y="1407.6328"/><rect fill="#FFFFFF" height="30.3516" style="stroke:#181818;stroke-width:1.0;" width="10" x="1024.5" y="295.3281"/><rect fill="#FFFFFF" height="30.3516" style="stroke:#181818;stroke-width:1.0;" width="10" x="1024.5" y="668.1953"/><rect fill="#FFFFFF" height="30.3516" style="stroke:#181818;stroke-width:1.0;" width="10" x="1024.5" y="1058.4141"/><rect fill="#FFFFFF" height="30.3516" style="stroke:#181818;stroke-width:1.0;" width="10" x="1131.5" y="356.0313"/><rect fill="#FFFFFF" height="30.3516" style="stroke:#181818;stroke-width:1.0;" width="10" x="1131.5" y="728.8984"/><rect fill="#FFFFFF" height="30.3516" style="stroke:#181818;stroke-width:1.0;" width="10" x="1131.5" y="1119.1172"/><rect fill="#FFFFFF" height="30.3516" style="stroke:#181818;stroke-width:1.0;" width="10" x="1251.5" y="789.6016"/><rect fill="#FFFFFF" height="30.3516" style="stroke:#181818;stroke-width:1.0;" width="10" x="1251.5" y="1179.8203"/><rect fill="#FFFFFF" height="117.0547" style="stroke:#181818;stroke-width:1.0;" width="10" x="1388" y="416.7344"/><rect fill="#FFFFFF" height="41.3516" style="stroke:#181818;stroke-width:1.0;" width="10" x="1393" y="455.0859"/><rect fill="#FFFFFF" height="297.1641" style="stroke:#181818;stroke-width:1.0;" width="10" x="1388" y="1495.6875"/><rect fill="#FFFFFF" height="193.7578" style="stroke:#181818;stroke-width:1.0;" width="10" x="1787" y="1568.7422"/><rect fill="#FFFFFF" height="128.0547" style="stroke:#181818;stroke-width:1.0;" width="10" x="1792" y="1597.0938"/><rect fill="#FFFFFF" height="41.3516" style="stroke:#181818;stroke-width:1.0;" width="10" x="1797" y="1640.4453"/><polygon fill="#181818" points="460.5,110.9609,470.5,114.9609,460.5,118.9609,464.5,114.9609" style="stroke:#181818;stroke-width:1.0;"/><line style="stroke:#181818;stroke-width:1.0;" x1="27.5" x2="466.5" y1="114.9609" y2="114.9609"/><text fill="#000000" font-family="sans-serif" font-size="13" font-weight="bold" lengthAdjust="spacing" textLength="7" x="34.5" y="110.1045">1</text><text fill="#000000" font-family="sans-serif" font-size="13" lengthAdjust="spacing" textLength="166" x="45.5" y="110.1045">requests to register a vehicle</text><polygon fill="#181818" points="743,141.3125,753,145.3125,743,149.3125,747,145.3125" style="stroke:#181818;stroke-width:1.0;"/><line style="stroke:#181818;stroke-width:1.0;" x1="482.5" x2="749" y1="145.3125" y2="145.3125"/><text fill="#000000" font-family="sans-serif" font-size="13" font-weight="bold" lengthAdjust="spacing" textLength="7" x="489.5" y="140.4561">2</text><text fill="#000000" font-family="sans-serif" font-size="13" lengthAdjust="spacing" textLength="36" x="500.5" y="140.4561">create</text><rect fill="#E3E3E3" height="31.6094" rx="2.5" ry="2.5" style="stroke:#181818;stroke-width:0.5;" width="179" x="755" y="122.9609"/><text fill="#000000" font-family="sans-serif" font-size="14" lengthAdjust="spacing" textLength="165" x="762" y="144.4941">:RegisterVehicleController</text><polygon fill="#181818" points="38.5,200.2734,28.5,204.2734,38.5,208.2734,34.5,204.2734" style="stroke:#181818;stroke-width:1.0;"/><line style="stroke:#181818;stroke-width:1.0;stroke-dasharray:2.0,2.0;" x1="32.5" x2="471.5" y1="204.2734" y2="204.2734"/><text fill="#000000" font-family="sans-serif" font-size="13" font-weight="bold" lengthAdjust="spacing" textLength="7" x="44.5" y="191.2412">3</text><text fill="#000000" font-family="sans-serif" font-size="13" lengthAdjust="spacing" textLength="410" x="55.5" y="183.0654">requests vehicle data (VIN, Vehicle Platte, Tare Weight, Gross Weight,</text><text fill="#000000" font-family="sans-serif" font-size="13" lengthAdjust="spacing" textLength="320" x="59.5" y="199.417">Current Km, Acquisition Date, Maintenance Frequency)</text><polygon fill="#181818" points="460.5,230.625,470.5,234.625,460.5,238.625,464.5,234.625" style="stroke:#181818;stroke-width:1.0;"/><line style="stroke:#181818;stroke-width:1.0;" x1="27.5" x2="466.5" y1="234.625" y2="234.625"/><text fill="#000000" font-family="sans-serif" font-size="13" font-weight="bold" lengthAdjust="spacing" textLength="7" x="34.5" y="229.7686">4</text><text fill="#000000" font-family="sans-serif" font-size="13" lengthAdjust="spacing" textLength="104" x="45.5" y="229.7686">types vehicle data</text><polygon fill="#181818" points="827.5,260.9766,837.5,264.9766,827.5,268.9766,831.5,264.9766" style="stroke:#181818;stroke-width:1.0;"/><line style="stroke:#181818;stroke-width:1.0;" x1="482.5" x2="833.5" y1="264.9766" y2="264.9766"/><text fill="#000000" font-family="sans-serif" font-size="13" font-weight="bold" lengthAdjust="spacing" textLength="7" x="489.5" y="260.1201">5</text><text fill="#000000" font-family="sans-serif" font-size="13" lengthAdjust="spacing" textLength="111" x="500.5" y="260.1201">submit vehicle data</text><polygon fill="#181818" points="1012.5,291.3281,1022.5,295.3281,1012.5,299.3281,1016.5,295.3281" style="stroke:#181818;stroke-width:1.0;"/><line style="stroke:#181818;stroke-width:1.0;" x1="849.5" x2="1018.5" y1="295.3281" y2="295.3281"/><text fill="#000000" font-family="sans-serif" font-size="13" font-weight="bold" lengthAdjust="spacing" textLength="7" x="856.5" y="290.4717">6</text><text fill="#000000" font-family="sans-serif" font-size="13" lengthAdjust="spacing" textLength="75" x="867.5" y="290.4717">getInstance()</text><polygon fill="#181818" points="860.5,321.6797,850.5,325.6797,860.5,329.6797,856.5,325.6797" style="stroke:#181818;stroke-width:1.0;"/><line style="stroke:#181818;stroke-width:1.0;stroke-dasharray:2.0,2.0;" x1="854.5" x2="1028.5" y1="325.6797" y2="325.6797"/><text fill="#000000" font-family="sans-serif" font-size="13" font-weight="bold" lengthAdjust="spacing" textLength="7" x="866.5" y="320.8232">7</text><text fill="#000000" font-family="sans-serif" font-size="13" lengthAdjust="spacing" textLength="67" x="877.5" y="320.8232">repositories</text><polygon fill="#181818" points="1119.5,352.0313,1129.5,356.0313,1119.5,360.0313,1123.5,356.0313" style="stroke:#181818;stroke-width:1.0;"/><line style="stroke:#181818;stroke-width:1.0;" x1="849.5" x2="1125.5" y1="356.0313" y2="356.0313"/><text fill="#000000" font-family="sans-serif" font-size="13" font-weight="bold" lengthAdjust="spacing" textLength="7" x="856.5" y="351.1748">8</text><text fill="#000000" font-family="sans-serif" font-size="13" lengthAdjust="spacing" textLength="123" x="867.5" y="351.1748">getVehicleRepository</text><polygon fill="#181818" points="860.5,382.3828,850.5,386.3828,860.5,390.3828,856.5,386.3828" style="stroke:#181818;stroke-width:1.0;"/><line style="stroke:#181818;stroke-width:1.0;stroke-dasharray:2.0,2.0;" x1="854.5" x2="1135.5" y1="386.3828" y2="386.3828"/><text fill="#000000" font-family="sans-serif" font-size="13" font-weight="bold" lengthAdjust="spacing" textLength="7" x="866.5" y="381.5264">9</text><text fill="#000000" font-family="sans-serif" font-size="13" lengthAdjust="spacing" textLength="105" x="877.5" y="381.5264">VehicleRepository</text><polygon fill="#181818" points="1376,412.7344,1386,416.7344,1376,420.7344,1380,416.7344" style="stroke:#181818;stroke-width:1.0;"/><line style="stroke:#181818;stroke-width:1.0;" x1="849.5" x2="1382" y1="416.7344" y2="416.7344"/><text fill="#000000" font-family="sans-serif" font-size="13" font-weight="bold" lengthAdjust="spacing" textLength="14" x="856.5" y="411.8779">10</text><text fill="#000000" font-family="sans-serif" font-size="13" lengthAdjust="spacing" textLength="142" x="874.5" y="411.8779">validateVehicleData(VIN)</text><line style="stroke:#181818;stroke-width:1.0;" x1="1398" x2="1445" y1="442.0859" y2="442.0859"/><line style="stroke:#181818;stroke-width:1.0;" x1="1445" x2="1445" y1="442.0859" y2="455.0859"/><line style="stroke:#181818;stroke-width:1.0;" x1="1404" x2="1445" y1="455.0859" y2="455.0859"/><polygon fill="#181818" points="1414,451.0859,1404,455.0859,1414,459.0859,1410,455.0859" style="stroke:#181818;stroke-width:1.0;"/><text fill="#000000" font-family="sans-serif" font-size="13" font-weight="bold" lengthAdjust="spacing" textLength="14" x="1410" y="437.2295">11</text><text fill="#000000" font-family="sans-serif" font-size="13" lengthAdjust="spacing" textLength="142" x="1428" y="437.2295">validateVehicleData(VIN)</text><line style="stroke:#181818;stroke-width:1.0;stroke-dasharray:2.0,2.0;" x1="1403" x2="1445" y1="495.4375" y2="495.4375"/><line style="stroke:#181818;stroke-width:1.0;stroke-dasharray:2.0,2.0;" x1="1445" x2="1445" y1="495.4375" y2="508.4375"/><line style="stroke:#181818;stroke-width:1.0;stroke-dasharray:2.0,2.0;" x1="1398" x2="1445" y1="508.4375" y2="508.4375"/><polygon fill="#181818" points="1408,504.4375,1398,508.4375,1408,512.4375,1404,508.4375" style="stroke:#181818;stroke-width:1.0;"/><text fill="#000000" font-family="sans-serif" font-size="13" font-weight="bold" lengthAdjust="spacing" textLength="14" x="1410" y="490.5811">12</text><text fill="#000000" font-family="sans-serif" font-size="13" lengthAdjust="spacing" textLength="4" x="1428" y="490.5811"> </text><polygon fill="#181818" points="860.5,529.7891,850.5,533.7891,860.5,537.7891,856.5,533.7891" style="stroke:#181818;stroke-width:1.0;"/><line style="stroke:#181818;stroke-width:1.0;stroke-dasharray:2.0,2.0;" x1="854.5" x2="1392" y1="533.7891" y2="533.7891"/><text fill="#000000" font-family="sans-serif" font-size="13" font-weight="bold" lengthAdjust="spacing" textLength="14" x="866.5" y="528.9326">13</text><text fill="#000000" font-family="sans-serif" font-size="13" lengthAdjust="spacing" textLength="66" x="884.5" y="528.9326">vehicleData</text><polygon fill="#181818" points="493.5,560.1406,483.5,564.1406,493.5,568.1406,489.5,564.1406" style="stroke:#181818;stroke-width:1.0;"/><line style="stroke:#181818;stroke-width:1.0;stroke-dasharray:2.0,2.0;" x1="487.5" x2="843.5" y1="564.1406" y2="564.1406"/><text fill="#000000" font-family="sans-serif" font-size="13" font-weight="bold" lengthAdjust="spacing" textLength="14" x="499.5" y="559.2842">14</text><text fill="#000000" font-family="sans-serif" font-size="13" lengthAdjust="spacing" textLength="100" x="517.5" y="559.2842">keep vehicle data</text><polygon fill="#181818" points="827.5,590.4922,837.5,594.4922,827.5,598.4922,831.5,594.4922" style="stroke:#181818;stroke-width:1.0;"/><line style="stroke:#181818;stroke-width:1.0;" x1="482.5" x2="833.5" y1="594.4922" y2="594.4922"/><text fill="#000000" font-family="sans-serif" font-size="13" font-weight="bold" lengthAdjust="spacing" textLength="14" x="489.5" y="589.6357">15</text><text fill="#000000" font-family="sans-serif" font-size="13" lengthAdjust="spacing" textLength="60" x="507.5" y="589.6357">getBrand()</text><line style="stroke:#181818;stroke-width:1.0;" x1="849.5" x2="896.5" y1="619.8438" y2="619.8438"/><line style="stroke:#181818;stroke-width:1.0;" x1="896.5" x2="896.5" y1="619.8438" y2="632.8438"/><line style="stroke:#181818;stroke-width:1.0;" x1="855.5" x2="896.5" y1="632.8438" y2="632.8438"/><polygon fill="#181818" points="865.5,628.8438,855.5,632.8438,865.5,636.8438,861.5,632.8438" style="stroke:#181818;stroke-width:1.0;"/><text fill="#000000" font-family="sans-serif" font-size="13" font-weight="bold" lengthAdjust="spacing" textLength="14" x="861.5" y="614.9873">16</text><text fill="#000000" font-family="sans-serif" font-size="13" lengthAdjust="spacing" textLength="60" x="879.5" y="614.9873">getBrand()</text><polygon fill="#181818" points="1012.5,664.1953,1022.5,668.1953,1012.5,672.1953,1016.5,668.1953" style="stroke:#181818;stroke-width:1.0;"/><line style="stroke:#181818;stroke-width:1.0;" x1="854.5" x2="1018.5" y1="668.1953" y2="668.1953"/><text fill="#000000" font-family="sans-serif" font-size="13" font-weight="bold" lengthAdjust="spacing" textLength="14" x="861.5" y="663.3389">17</text><text fill="#000000" font-family="sans-serif" font-size="13" lengthAdjust="spacing" textLength="75" x="879.5" y="663.3389">getInstance()</text><polygon fill="#181818" points="865.5,694.5469,855.5,698.5469,865.5,702.5469,861.5,698.5469" style="stroke:#181818;stroke-width:1.0;"/><line style="stroke:#181818;stroke-width:1.0;stroke-dasharray:2.0,2.0;" x1="859.5" x2="1028.5" y1="698.5469" y2="698.5469"/><text fill="#000000" font-family="sans-serif" font-size="13" font-weight="bold" lengthAdjust="spacing" textLength="14" x="871.5" y="693.6904">18</text><text fill="#000000" font-family="sans-serif" font-size="13" lengthAdjust="spacing" textLength="67" x="889.5" y="693.6904">repositories</text><polygon fill="#181818" points="1119.5,724.8984,1129.5,728.8984,1119.5,732.8984,1123.5,728.8984" style="stroke:#181818;stroke-width:1.0;"/><line style="stroke:#181818;stroke-width:1.0;" x1="854.5" x2="1125.5" y1="728.8984" y2="728.8984"/><text fill="#000000" font-family="sans-serif" font-size="13" font-weight="bold" lengthAdjust="spacing" textLength="14" x="861.5" y="724.042">19</text><text fill="#000000" font-family="sans-serif" font-size="13" lengthAdjust="spacing" textLength="122" x="879.5" y="724.042">getBrandRepository()</text><polygon fill="#181818" points="865.5,755.25,855.5,759.25,865.5,763.25,861.5,759.25" style="stroke:#181818;stroke-width:1.0;"/><line style="stroke:#181818;stroke-width:1.0;stroke-dasharray:2.0,2.0;" x1="859.5" x2="1135.5" y1="759.25" y2="759.25"/><text fill="#000000" font-family="sans-serif" font-size="13" font-weight="bold" lengthAdjust="spacing" textLength="14" x="871.5" y="754.3936">20</text><text fill="#000000" font-family="sans-serif" font-size="13" lengthAdjust="spacing" textLength="96" x="889.5" y="754.3936">BrandRepository</text><polygon fill="#181818" points="1239.5,785.6016,1249.5,789.6016,1239.5,793.6016,1243.5,789.6016" style="stroke:#181818;stroke-width:1.0;"/><line style="stroke:#181818;stroke-width:1.0;" x1="854.5" x2="1245.5" y1="789.6016" y2="789.6016"/><text fill="#000000" font-family="sans-serif" font-size="13" font-weight="bold" lengthAdjust="spacing" textLength="14" x="861.5" y="784.7451">21</text><text fill="#000000" font-family="sans-serif" font-size="13" lengthAdjust="spacing" textLength="117" x="879.5" y="784.7451">getBrandList(brand))</text><polygon fill="#181818" points="865.5,815.9531,855.5,819.9531,865.5,823.9531,861.5,819.9531" style="stroke:#181818;stroke-width:1.0;"/><line style="stroke:#181818;stroke-width:1.0;stroke-dasharray:2.0,2.0;" x1="859.5" x2="1255.5" y1="819.9531" y2="819.9531"/><text fill="#000000" font-family="sans-serif" font-size="13" font-weight="bold" lengthAdjust="spacing" textLength="14" x="871.5" y="815.0967">22</text><text fill="#000000" font-family="sans-serif" font-size="13" lengthAdjust="spacing" textLength="53" x="889.5" y="815.0967">brandList</text><line style="stroke:#181818;stroke-width:1.0;stroke-dasharray:2.0,2.0;" x1="854.5" x2="896.5" y1="855.3047" y2="855.3047"/><line style="stroke:#181818;stroke-width:1.0;stroke-dasharray:2.0,2.0;" x1="896.5" x2="896.5" y1="855.3047" y2="868.3047"/><line style="stroke:#181818;stroke-width:1.0;stroke-dasharray:2.0,2.0;" x1="849.5" x2="896.5" y1="868.3047" y2="868.3047"/><polygon fill="#181818" points="859.5,864.3047,849.5,868.3047,859.5,872.3047,855.5,868.3047" style="stroke:#181818;stroke-width:1.0;"/><text fill="#000000" font-family="sans-serif" font-size="13" font-weight="bold" lengthAdjust="spacing" textLength="14" x="861.5" y="850.4482">23</text><text fill="#000000" font-family="sans-serif" font-size="13" lengthAdjust="spacing" textLength="53" x="879.5" y="850.4482">brandList</text><polygon fill="#181818" points="493.5,889.6563,483.5,893.6563,493.5,897.6563,489.5,893.6563" style="stroke:#181818;stroke-width:1.0;"/><line style="stroke:#181818;stroke-width:1.0;stroke-dasharray:2.0,2.0;" x1="487.5" x2="843.5" y1="893.6563" y2="893.6563"/><text fill="#000000" font-family="sans-serif" font-size="13" font-weight="bold" lengthAdjust="spacing" textLength="14" x="499.5" y="888.7998">24</text><text fill="#000000" font-family="sans-serif" font-size="13" lengthAdjust="spacing" textLength="53" x="517.5" y="888.7998">brandList</text><polygon fill="#181818" points="38.5,920.0078,28.5,924.0078,38.5,928.0078,34.5,924.0078" style="stroke:#181818;stroke-width:1.0;"/><line style="stroke:#181818;stroke-width:1.0;stroke-dasharray:2.0,2.0;" x1="32.5" x2="471.5" y1="924.0078" y2="924.0078"/><text fill="#000000" font-family="sans-serif" font-size="13" font-weight="bold" lengthAdjust="spacing" textLength="14" x="44.5" y="919.1514">25</text><text fill="#000000" font-family="sans-serif" font-size="13" lengthAdjust="spacing" textLength="249" x="62.5" y="919.1514">show brand list and request to select brand</text><polygon fill="#181818" points="460.5,950.3594,470.5,954.3594,460.5,958.3594,464.5,954.3594" style="stroke:#181818;stroke-width:1.0;"/><line style="stroke:#181818;stroke-width:1.0;" x1="27.5" x2="466.5" y1="954.3594" y2="954.3594"/><text fill="#000000" font-family="sans-serif" font-size="13" font-weight="bold" lengthAdjust="spacing" textLength="14" x="34.5" y="949.5029">26</text><text fill="#000000" font-family="sans-serif" font-size="13" lengthAdjust="spacing" textLength="114" x="52.5" y="949.5029">select vehicle brand</text><polygon fill="#181818" points="827.5,980.7109,837.5,984.7109,827.5,988.7109,831.5,984.7109" style="stroke:#181818;stroke-width:1.0;"/><line style="stroke:#181818;stroke-width:1.0;" x1="482.5" x2="833.5" y1="984.7109" y2="984.7109"/><text fill="#000000" font-family="sans-serif" font-size="13" font-weight="bold" lengthAdjust="spacing" textLength="14" x="489.5" y="979.8545">27</text><text fill="#000000" font-family="sans-serif" font-size="13" lengthAdjust="spacing" textLength="61" x="507.5" y="979.8545">getModel()</text><line style="stroke:#181818;stroke-width:1.0;" x1="849.5" x2="896.5" y1="1010.0625" y2="1010.0625"/><line style="stroke:#181818;stroke-width:1.0;" x1="896.5" x2="896.5" y1="1010.0625" y2="1023.0625"/><line style="stroke:#181818;stroke-width:1.0;" x1="855.5" x2="896.5" y1="1023.0625" y2="1023.0625"/><polygon fill="#181818" points="865.5,1019.0625,855.5,1023.0625,865.5,1027.0625,861.5,1023.0625" style="stroke:#181818;stroke-width:1.0;"/><text fill="#000000" font-family="sans-serif" font-size="13" font-weight="bold" lengthAdjust="spacing" textLength="14" x="861.5" y="1005.2061">28</text><text fill="#000000" font-family="sans-serif" font-size="13" lengthAdjust="spacing" textLength="143" x="879.5" y="1005.2061">getModelByBrand(brand)</text><polygon fill="#181818" points="1012.5,1054.4141,1022.5,1058.4141,1012.5,1062.4141,1016.5,1058.4141" style="stroke:#181818;stroke-width:1.0;"/><line style="stroke:#181818;stroke-width:1.0;" x1="854.5" x2="1018.5" y1="1058.4141" y2="1058.4141"/><text fill="#000000" font-family="sans-serif" font-size="13" font-weight="bold" lengthAdjust="spacing" textLength="14" x="861.5" y="1053.5576">29</text><text fill="#000000" font-family="sans-serif" font-size="13" lengthAdjust="spacing" textLength="75" x="879.5" y="1053.5576">getInstance()</text><polygon fill="#181818" points="865.5,1084.7656,855.5,1088.7656,865.5,1092.7656,861.5,1088.7656" style="stroke:#181818;stroke-width:1.0;"/><line style="stroke:#181818;stroke-width:1.0;stroke-dasharray:2.0,2.0;" x1="859.5" x2="1028.5" y1="1088.7656" y2="1088.7656"/><text fill="#000000" font-family="sans-serif" font-size="13" font-weight="bold" lengthAdjust="spacing" textLength="14" x="871.5" y="1083.9092">30</text><text fill="#000000" font-family="sans-serif" font-size="13" lengthAdjust="spacing" textLength="67" x="889.5" y="1083.9092">repositories</text><polygon fill="#181818" points="1119.5,1115.1172,1129.5,1119.1172,1119.5,1123.1172,1123.5,1119.1172" style="stroke:#181818;stroke-width:1.0;"/><line style="stroke:#181818;stroke-width:1.0;" x1="854.5" x2="1125.5" y1="1119.1172" y2="1119.1172"/><text fill="#000000" font-family="sans-serif" font-size="13" font-weight="bold" lengthAdjust="spacing" textLength="14" x="861.5" y="1114.2607">31</text><text fill="#000000" font-family="sans-serif" font-size="13" lengthAdjust="spacing" textLength="122" x="879.5" y="1114.2607">getBrandRepository()</text><polygon fill="#181818" points="865.5,1145.4688,855.5,1149.4688,865.5,1153.4688,861.5,1149.4688" style="stroke:#181818;stroke-width:1.0;"/><line style="stroke:#181818;stroke-width:1.0;stroke-dasharray:2.0,2.0;" x1="859.5" x2="1135.5" y1="1149.4688" y2="1149.4688"/><text fill="#000000" font-family="sans-serif" font-size="13" font-weight="bold" lengthAdjust="spacing" textLength="14" x="871.5" y="1144.6123">32</text><text fill="#000000" font-family="sans-serif" font-size="13" lengthAdjust="spacing" textLength="96" x="889.5" y="1144.6123">BrandRepository</text><polygon fill="#181818" points="1239.5,1175.8203,1249.5,1179.8203,1239.5,1183.8203,1243.5,1179.8203" style="stroke:#181818;stroke-width:1.0;"/><line style="stroke:#181818;stroke-width:1.0;" x1="854.5" x2="1245.5" y1="1179.8203" y2="1179.8203"/><text fill="#000000" font-family="sans-serif" font-size="13" font-weight="bold" lengthAdjust="spacing" textLength="14" x="861.5" y="1174.9639">33</text><text fill="#000000" font-family="sans-serif" font-size="13" lengthAdjust="spacing" textLength="143" x="879.5" y="1174.9639">getModelByBrand(brand)</text><polygon fill="#181818" points="865.5,1206.1719,855.5,1210.1719,865.5,1214.1719,861.5,1210.1719" style="stroke:#181818;stroke-width:1.0;"/><line style="stroke:#181818;stroke-width:1.0;stroke-dasharray:2.0,2.0;" x1="859.5" x2="1255.5" y1="1210.1719" y2="1210.1719"/><text fill="#000000" font-family="sans-serif" font-size="13" font-weight="bold" lengthAdjust="spacing" textLength="14" x="871.5" y="1205.3154">34</text><text fill="#000000" font-family="sans-serif" font-size="13" lengthAdjust="spacing" textLength="56" x="889.5" y="1205.3154">modelList</text><line style="stroke:#181818;stroke-width:1.0;stroke-dasharray:2.0,2.0;" x1="854.5" x2="896.5" y1="1245.5234" y2="1245.5234"/><line style="stroke:#181818;stroke-width:1.0;stroke-dasharray:2.0,2.0;" x1="896.5" x2="896.5" y1="1245.5234" y2="1258.5234"/><line style="stroke:#181818;stroke-width:1.0;stroke-dasharray:2.0,2.0;" x1="849.5" x2="896.5" y1="1258.5234" y2="1258.5234"/><polygon fill="#181818" points="859.5,1254.5234,849.5,1258.5234,859.5,1262.5234,855.5,1258.5234" style="stroke:#181818;stroke-width:1.0;"/><text fill="#000000" font-family="sans-serif" font-size="13" font-weight="bold" lengthAdjust="spacing" textLength="14" x="861.5" y="1240.667">35</text><text fill="#000000" font-family="sans-serif" font-size="13" lengthAdjust="spacing" textLength="56" x="879.5" y="1240.667">modelList</text><polygon fill="#181818" points="493.5,1279.875,483.5,1283.875,493.5,1287.875,489.5,1283.875" style="stroke:#181818;stroke-width:1.0;"/><line style="stroke:#181818;stroke-width:1.0;stroke-dasharray:2.0,2.0;" x1="487.5" x2="843.5" y1="1283.875" y2="1283.875"/><text fill="#000000" font-family="sans-serif" font-size="13" font-weight="bold" lengthAdjust="spacing" textLength="14" x="499.5" y="1279.0186">36</text><text fill="#000000" font-family="sans-serif" font-size="13" lengthAdjust="spacing" textLength="56" x="517.5" y="1279.0186">modelList</text><polygon fill="#181818" points="38.5,1310.2266,28.5,1314.2266,38.5,1318.2266,34.5,1314.2266" style="stroke:#181818;stroke-width:1.0;"/><line style="stroke:#181818;stroke-width:1.0;stroke-dasharray:2.0,2.0;" x1="32.5" x2="471.5" y1="1314.2266" y2="1314.2266"/><text fill="#000000" font-family="sans-serif" font-size="13" font-weight="bold" lengthAdjust="spacing" textLength="14" x="44.5" y="1309.3701">37</text><text fill="#000000" font-family="sans-serif" font-size="13" lengthAdjust="spacing" textLength="140" x="62.5" y="1309.3701">shows vehicle modelList</text><polygon fill="#181818" points="460.5,1340.5781,470.5,1344.5781,460.5,1348.5781,464.5,1344.5781" style="stroke:#181818;stroke-width:1.0;"/><line style="stroke:#181818;stroke-width:1.0;" x1="27.5" x2="466.5" y1="1344.5781" y2="1344.5781"/><text fill="#000000" font-family="sans-serif" font-size="13" font-weight="bold" lengthAdjust="spacing" textLength="14" x="34.5" y="1339.7217">38</text><text fill="#000000" font-family="sans-serif" font-size="13" lengthAdjust="spacing" textLength="114" x="52.5" y="1339.7217">select vehicle brand</text><polygon fill="#181818" points="827.5,1403.6328,837.5,1407.6328,827.5,1411.6328,831.5,1407.6328" style="stroke:#181818;stroke-width:1.0;"/><line style="stroke:#181818;stroke-width:1.0;" x1="482.5" x2="833.5" y1="1407.6328" y2="1407.6328"/><text fill="#000000" font-family="sans-serif" font-size="13" font-weight="bold" lengthAdjust="spacing" textLength="14" x="489.5" y="1386.4248">39</text><text fill="#000000" font-family="sans-serif" font-size="13" lengthAdjust="spacing" textLength="200" x="507.5" y="1370.0732">registerVehicle(VIN, Brand, Model,</text><text fill="#000000" font-family="sans-serif" font-size="13" lengthAdjust="spacing" textLength="251" x="507.5" y="1386.4248">Vehicle Platte, Tare Weight, Gross Weight,</text><text fill="#000000" font-family="sans-serif" font-size="13" lengthAdjust="spacing" textLength="320" x="507.5" y="1402.7764">Current Km, Acquisition Date, Maintenance Frequency)</text><polygon fill="#181818" points="1376,1491.6875,1386,1495.6875,1376,1499.6875,1380,1495.6875" style="stroke:#181818;stroke-width:1.0;"/><line style="stroke:#181818;stroke-width:1.0;" x1="849.5" x2="1382" y1="1495.6875" y2="1495.6875"/><text fill="#000000" font-family="sans-serif" font-size="13" font-weight="bold" lengthAdjust="spacing" textLength="14" x="856.5" y="1474.4795">40</text><text fill="#000000" font-family="sans-serif" font-size="13" lengthAdjust="spacing" textLength="200" x="874.5" y="1458.1279">registerVehicle(VIN, Brand, Model,</text><text fill="#000000" font-family="sans-serif" font-size="13" lengthAdjust="spacing" textLength="251" x="874.5" y="1474.4795">Vehicle Platte, Tare Weight, Gross Weight,</text><text fill="#000000" font-family="sans-serif" font-size="13" lengthAdjust="spacing" textLength="320" x="874.5" y="1490.8311">Current Km, Acquisition Date, Maintenance Frequency)</text><polygon fill="#181818" points="1748,1554.7422,1758,1558.7422,1748,1562.7422,1752,1558.7422" style="stroke:#181818;stroke-width:1.0;"/><line style="stroke:#181818;stroke-width:1.0;" x1="1398" x2="1754" y1="1558.7422" y2="1558.7422"/><text fill="#000000" font-family="sans-serif" font-size="13" font-weight="bold" lengthAdjust="spacing" textLength="14" x="1405" y="1537.5342">41</text><text fill="#000000" font-family="sans-serif" font-size="13" lengthAdjust="spacing" textLength="200" x="1423" y="1521.1826">registerVehicle(VIN, Brand, Model,</text><text fill="#000000" font-family="sans-serif" font-size="13" lengthAdjust="spacing" textLength="251" x="1423" y="1537.5342">Vehicle Platte, Tare Weight, Gross Weight,</text><text fill="#000000" font-family="sans-serif" font-size="13" lengthAdjust="spacing" textLength="320" x="1423" y="1553.8857">Current Km, Acquisition Date, Maintenance Frequency)</text><rect fill="#E3E3E3" height="49.2188" rx="2.5" ry="2.5" style="stroke:#181818;stroke-width:0.5;" width="64" x="1760" y="1506.5234"/><text fill="#000000" font-family="sans-serif" font-size="14" lengthAdjust="spacing" textLength="44" x="1770" y="1528.0566">vehicle</text><text fill="#000000" font-family="sans-serif" font-size="14" lengthAdjust="spacing" textLength="50" x="1767" y="1545.666">:Vehicle</text><line style="stroke:#181818;stroke-width:1.0;" x1="1797" x2="1844" y1="1584.0938" y2="1584.0938"/><line style="stroke:#181818;stroke-width:1.0;" x1="1844" x2="1844" y1="1584.0938" y2="1597.0938"/><line style="stroke:#181818;stroke-width:1.0;" x1="1803" x2="1844" y1="1597.0938" y2="1597.0938"/><polygon fill="#181818" points="1813,1593.0938,1803,1597.0938,1813,1601.0938,1809,1597.0938" style="stroke:#181818;stroke-width:1.0;"/><text fill="#000000" font-family="sans-serif" font-size="13" font-weight="bold" lengthAdjust="spacing" textLength="14" x="1809" y="1579.2373">42</text><text fill="#000000" font-family="sans-serif" font-size="13" lengthAdjust="spacing" textLength="115" x="1827" y="1579.2373">addVehicle (vehicle)</text><line style="stroke:#181818;stroke-width:1.0;" x1="1802" x2="1849" y1="1627.4453" y2="1627.4453"/><line style="stroke:#181818;stroke-width:1.0;" x1="1849" x2="1849" y1="1627.4453" y2="1640.4453"/><line style="stroke:#181818;stroke-width:1.0;" x1="1808" x2="1849" y1="1640.4453" y2="1640.4453"/><polygon fill="#181818" points="1818,1636.4453,1808,1640.4453,1818,1644.4453,1814,1640.4453" style="stroke:#181818;stroke-width:1.0;"/><text fill="#000000" font-family="sans-serif" font-size="13" font-weight="bold" lengthAdjust="spacing" textLength="14" x="1814" y="1622.5889">43</text><text fill="#000000" font-family="sans-serif" font-size="13" lengthAdjust="spacing" textLength="137" x="1832" y="1622.5889">validateVehicle(vehicle))</text><line style="stroke:#181818;stroke-width:1.0;stroke-dasharray:2.0,2.0;" x1="1807" x2="1849" y1="1680.7969" y2="1680.7969"/><line style="stroke:#181818;stroke-width:1.0;stroke-dasharray:2.0,2.0;" x1="1849" x2="1849" y1="1680.7969" y2="1693.7969"/><line style="stroke:#181818;stroke-width:1.0;stroke-dasharray:2.0,2.0;" x1="1802" x2="1849" y1="1693.7969" y2="1693.7969"/><polygon fill="#181818" points="1812,1689.7969,1802,1693.7969,1812,1697.7969,1808,1693.7969" style="stroke:#181818;stroke-width:1.0;"/><text fill="#000000" font-family="sans-serif" font-size="13" font-weight="bold" lengthAdjust="spacing" textLength="14" x="1814" y="1675.9404">44</text><text fill="#000000" font-family="sans-serif" font-size="13" lengthAdjust="spacing" textLength="4" x="1832" y="1675.9404"> </text><line style="stroke:#181818;stroke-width:1.0;stroke-dasharray:2.0,2.0;" x1="1802" x2="1844" y1="1724.1484" y2="1724.1484"/><line style="stroke:#181818;stroke-width:1.0;stroke-dasharray:2.0,2.0;" x1="1844" x2="1844" y1="1724.1484" y2="1737.1484"/><line style="stroke:#181818;stroke-width:1.0;stroke-dasharray:2.0,2.0;" x1="1797" x2="1844" y1="1737.1484" y2="1737.1484"/><polygon fill="#181818" points="1807,1733.1484,1797,1737.1484,1807,1741.1484,1803,1737.1484" style="stroke:#181818;stroke-width:1.0;"/><text fill="#000000" font-family="sans-serif" font-size="13" font-weight="bold" lengthAdjust="spacing" textLength="14" x="1809" y="1719.292">45</text><text fill="#000000" font-family="sans-serif" font-size="13" lengthAdjust="spacing" textLength="4" x="1827" y="1719.292"> </text><polygon fill="#181818" points="1409,1758.5,1399,1762.5,1409,1766.5,1405,1762.5" style="stroke:#181818;stroke-width:1.0;"/><line style="stroke:#181818;stroke-width:1.0;stroke-dasharray:2.0,2.0;" x1="1403" x2="1791" y1="1762.5" y2="1762.5"/><text fill="#000000" font-family="sans-serif" font-size="13" font-weight="bold" lengthAdjust="spacing" textLength="14" x="1415" y="1757.6436">46</text><text fill="#000000" font-family="sans-serif" font-size="13" lengthAdjust="spacing" textLength="39" x="1433" y="1757.6436">vehicle</text><polygon fill="#181818" points="860.5,1788.8516,850.5,1792.8516,860.5,1796.8516,856.5,1792.8516" style="stroke:#181818;stroke-width:1.0;"/><line style="stroke:#181818;stroke-width:1.0;stroke-dasharray:2.0,2.0;" x1="854.5" x2="1392" y1="1792.8516" y2="1792.8516"/><text fill="#000000" font-family="sans-serif" font-size="13" font-weight="bold" lengthAdjust="spacing" textLength="14" x="866.5" y="1787.9951">47</text><text fill="#000000" font-family="sans-serif" font-size="13" lengthAdjust="spacing" textLength="39" x="884.5" y="1787.9951">vehicle</text><polygon fill="#181818" points="493.5,1819.2031,483.5,1823.2031,493.5,1827.2031,489.5,1823.2031" style="stroke:#181818;stroke-width:1.0;"/><line style="stroke:#181818;stroke-width:1.0;stroke-dasharray:2.0,2.0;" x1="487.5" x2="843.5" y1="1823.2031" y2="1823.2031"/><text fill="#000000" font-family="sans-serif" font-size="13" font-weight="bold" lengthAdjust="spacing" textLength="14" x="499.5" y="1818.3467">48</text><text fill="#000000" font-family="sans-serif" font-size="13" lengthAdjust="spacing" textLength="39" x="517.5" y="1818.3467">vehicle</text><polygon fill="#181818" points="33.5,1849.5547,23.5,1853.5547,33.5,1857.5547,29.5,1853.5547" style="stroke:#181818;stroke-width:1.0;"/><line style="stroke:#181818;stroke-width:1.0;stroke-dasharray:2.0,2.0;" x1="27.5" x2="476.5" y1="1853.5547" y2="1853.5547"/><text fill="#000000" font-family="sans-serif" font-size="13" font-weight="bold" lengthAdjust="spacing" textLength="14" x="39.5" y="1848.6982">49</text><text fill="#000000" font-family="sans-serif" font-size="13" lengthAdjust="spacing" textLength="147" x="57.5" y="1848.6982">shows success message</text><!--SRC=[pLXBJ-Cm4BxdLuouRAcwVw27bO25LRLqXNXqBrpSP6Wj4hlORjbA_FYrdKVZs4dJ0X8vG71cldbull4O-KpPYWYIGSOPZvU2PmXAh36IrPSLYP_90k_KDaKG62l25cbTG2v9mbyfMy0JIIL6KKJMYhDrDaSHHT-MD45uubpD-R-8n8eBE9bTJK-0ID2_8msYQ4nNX2au6T_YWag5OePB6gVuCB5o3vDkiGlEbE1fYiAANzpVNdiAAowfDavHMfbgONj7JK3QOrT5r3GUcGzmStrsxshC1M793dVyoCxT5QlNM7CXDday3iYikPQdhhaQ1DAE5uAvqkKaCdj0DqIXpNu4-j4lyFs7pZACzGw_h54g2OhhzppBGA30i-8LWDuMks0UhQmXJEQ7GmqJ2zGIxcVztLYgsIXG8I6Am60s-JCguuARb2Y58xWd0k4lqiLIZU2Nu5AMVpqok5WBWJhStza8pkANDTMfe9p1Js9KfuGoXOom6E7AscJnzjGFMMrNwFeI2aiBolKyeygLB0MhfDZYgvRDOxKrIg3anh10DM5I6IS7fuvQXHWgLKSo862pRGoRREygrr5BiB-9CWPJzTPfl_w2lbkME9_CIisxRfoQYpvIwPC7eRTgGrAgzmUBRxeWYAclbWpxJZXole6GrSyt6hBQbgu0UX_yej8tkmWECE1kJ4clPyHLc3CrD9Sr3kjqiTcUMQD73xArA-y1sCDOwABiORHz1tKFfM-JmhNCx7IxWl7Pvt5POpRFjWwNmu2bZmsWchlN-aGQs9FsjCFTfYEUPDD0BOXvQQRB_Rq6AWuSWjfMpfPARHYUVexWdBXooLzpTKYrFfYNuXGs1xt4L0zskO1_FXPVImhNf9eydV84qwACMeBo-McLphSvJVETzNBKWxCVmTtZEFm1N3wMq-_XTa-E7ylrtfplnVs-HN9O5-ZH3J9ZECZROxf2g3DqMsZj3avdy37yhX0SnKrZsCs-EvW3ce3N28HxESldUfiQFPCR2oEeRZKzvdmjVDIStwDllBszzPuelrXKXuoIxJFivGI6moyPcnlVvIJC9HD07iSOI9AKBWwACjrpaFI2RGpr5VIxi7FmVOJ_D8nAFt27gLtq-qAsNoN2UFrk4LwJsmFbNo4QNKwkunXrbMRw1rdaE3Lzyz-CkcTNq-W_]--></g></svg>