<?xml version="1.0" encoding="UTF-8" standalone="no"?><svg xmlns="http://www.w3.org/2000/svg" xmlns:xlink="http://www.w3.org/1999/xlink" contentStyleType="text/css" height="412px" preserveAspectRatio="none" style="width:773px;height:412px;background:#FFFFFF;" version="1.1" viewBox="0 0 773 412" width="773px" zoomAndPan="magnify"><defs/><g><rect fill="#FFFFFF" height="236.1094" style="stroke:#181818;stroke-width:1.0;" width="10" x="562" y="103.9219"/><rect fill="#FFFFFF" height="128.0547" style="stroke:#181818;stroke-width:1.0;" width="10" x="567" y="167.625"/><rect fill="#FFFFFF" height="41.3516" style="stroke:#181818;stroke-width:1.0;" width="10" x="572" y="210.9766"/><rect fill="none" height="191.7578" style="stroke:#000000;stroke-width:1.5;" width="242" x="525" y="118.9219"/><line style="stroke:#181818;stroke-width:0.5;stroke-dasharray:5.0,5.0;" x1="70" x2="70" y1="55.2188" y2="358.0313"/><line style="stroke:#181818;stroke-width:0.5;stroke-dasharray:5.0,5.0;" x1="567" x2="567" y1="55.2188" y2="358.0313"/><rect fill="#E3E3E3" height="49.2188" rx="2.5" ry="2.5" style="stroke:#181818;stroke-width:0.5;" width="130" x="5" y="5"/><text fill="#000000" font-family="sans-serif" font-size="14" lengthAdjust="spacing" textLength="116" x="12" y="26.5332">vehicleRepository:</text><text fill="#000000" font-family="sans-serif" font-size="14" lengthAdjust="spacing" textLength="114" x="13" y="44.1426">VehicleRepository</text><rect fill="#E3E3E3" height="49.2188" rx="2.5" ry="2.5" style="stroke:#181818;stroke-width:0.5;" width="130" x="5" y="357.0313"/><text fill="#000000" font-family="sans-serif" font-size="14" lengthAdjust="spacing" textLength="116" x="12" y="378.5645">vehicleRepository:</text><text fill="#000000" font-family="sans-serif" font-size="14" lengthAdjust="spacing" textLength="114" x="13" y="396.1738">VehicleRepository</text><rect fill="#E3E3E3" height="49.2188" rx="2.5" ry="2.5" style="stroke:#181818;stroke-width:0.5;" width="64" x="535" y="5"/><text fill="#000000" font-family="sans-serif" font-size="14" lengthAdjust="spacing" textLength="44" x="545" y="26.5332">vehicle</text><text fill="#000000" font-family="sans-serif" font-size="14" lengthAdjust="spacing" textLength="50" x="542" y="44.1426">:Vehicle</text><rect fill="#E3E3E3" height="49.2188" rx="2.5" ry="2.5" style="stroke:#181818;stroke-width:0.5;" width="64" x="535" y="357.0313"/><text fill="#000000" font-family="sans-serif" font-size="14" lengthAdjust="spacing" textLength="44" x="545" y="378.5645">vehicle</text><text fill="#000000" font-family="sans-serif" font-size="14" lengthAdjust="spacing" textLength="50" x="542" y="396.1738">:Vehicle</text><rect fill="#FFFFFF" height="236.1094" style="stroke:#181818;stroke-width:1.0;" width="10" x="562" y="103.9219"/><rect fill="#FFFFFF" height="128.0547" style="stroke:#181818;stroke-width:1.0;" width="10" x="567" y="167.625"/><rect fill="#FFFFFF" height="41.3516" style="stroke:#181818;stroke-width:1.0;" width="10" x="572" y="210.9766"/><polygon fill="#181818" points="550,99.9219,560,103.9219,550,107.9219,554,103.9219" style="stroke:#181818;stroke-width:1.0;"/><line style="stroke:#181818;stroke-width:1.0;" x1="70" x2="556" y1="103.9219" y2="103.9219"/><text fill="#000000" font-family="sans-serif" font-size="13" font-weight="bold" lengthAdjust="spacing" textLength="14" x="77" y="90.8896">24</text><text fill="#000000" font-family="sans-serif" font-size="13" lengthAdjust="spacing" textLength="455" x="95" y="82.7139">registerVehicle(VIN, Brand, Model, Vehicle Platte, Tare Weight, Gross Weight,</text><text fill="#000000" font-family="sans-serif" font-size="13" lengthAdjust="spacing" textLength="320" x="95" y="99.0654">Current Km, Acquisition Date, Maintenance Frequency)</text><path d="M525,118.9219 L674,118.9219 L674,127.2734 L664,137.2734 L525,137.2734 L525,118.9219 " fill="#EEEEEE" style="stroke:#000000;stroke-width:1.5;"/><rect fill="none" height="191.7578" style="stroke:#000000;stroke-width:1.5;" width="242" x="525" y="118.9219"/><text fill="#000000" font-family="sans-serif" font-size="13" font-weight="bold" lengthAdjust="spacing" textLength="104" x="540" y="133.417">Register Vehicle</text><line style="stroke:#181818;stroke-width:1.0;" x1="572" x2="619" y1="154.625" y2="154.625"/><line style="stroke:#181818;stroke-width:1.0;" x1="619" x2="619" y1="154.625" y2="167.625"/><line style="stroke:#181818;stroke-width:1.0;" x1="578" x2="619" y1="167.625" y2="167.625"/><polygon fill="#181818" points="588,163.625,578,167.625,588,171.625,584,167.625" style="stroke:#181818;stroke-width:1.0;"/><text fill="#000000" font-family="sans-serif" font-size="13" font-weight="bold" lengthAdjust="spacing" textLength="25" x="584" y="149.7686">24.1</text><text fill="#000000" font-family="sans-serif" font-size="13" lengthAdjust="spacing" textLength="115" x="613" y="149.7686">addVehicle (vehicle)</text><line style="stroke:#181818;stroke-width:1.0;" x1="577" x2="624" y1="197.9766" y2="197.9766"/><line style="stroke:#181818;stroke-width:1.0;" x1="624" x2="624" y1="197.9766" y2="210.9766"/><line style="stroke:#181818;stroke-width:1.0;" x1="583" x2="624" y1="210.9766" y2="210.9766"/><polygon fill="#181818" points="593,206.9766,583,210.9766,593,214.9766,589,210.9766" style="stroke:#181818;stroke-width:1.0;"/><text fill="#000000" font-family="sans-serif" font-size="13" font-weight="bold" lengthAdjust="spacing" textLength="25" x="589" y="193.1201">24.2</text><text fill="#000000" font-family="sans-serif" font-size="13" lengthAdjust="spacing" textLength="137" x="618" y="193.1201">validateVehicle(vehicle))</text><line style="stroke:#181818;stroke-width:1.0;stroke-dasharray:2.0,2.0;" x1="582" x2="624" y1="251.3281" y2="251.3281"/><line style="stroke:#181818;stroke-width:1.0;stroke-dasharray:2.0,2.0;" x1="624" x2="624" y1="251.3281" y2="264.3281"/><line style="stroke:#181818;stroke-width:1.0;stroke-dasharray:2.0,2.0;" x1="577" x2="624" y1="264.3281" y2="264.3281"/><polygon fill="#181818" points="587,260.3281,577,264.3281,587,268.3281,583,264.3281" style="stroke:#181818;stroke-width:1.0;"/><text fill="#000000" font-family="sans-serif" font-size="13" font-weight="bold" lengthAdjust="spacing" textLength="25" x="589" y="246.4717">24.3</text><text fill="#000000" font-family="sans-serif" font-size="13" lengthAdjust="spacing" textLength="4" x="618" y="246.4717"> </text><line style="stroke:#181818;stroke-width:1.0;stroke-dasharray:2.0,2.0;" x1="577" x2="619" y1="294.6797" y2="294.6797"/><line style="stroke:#181818;stroke-width:1.0;stroke-dasharray:2.0,2.0;" x1="619" x2="619" y1="294.6797" y2="307.6797"/><line style="stroke:#181818;stroke-width:1.0;stroke-dasharray:2.0,2.0;" x1="572" x2="619" y1="307.6797" y2="307.6797"/><polygon fill="#181818" points="582,303.6797,572,307.6797,582,311.6797,578,307.6797" style="stroke:#181818;stroke-width:1.0;"/><text fill="#000000" font-family="sans-serif" font-size="13" font-weight="bold" lengthAdjust="spacing" textLength="25" x="584" y="289.8232">24.4</text><text fill="#000000" font-family="sans-serif" font-size="13" lengthAdjust="spacing" textLength="4" x="613" y="289.8232"> </text><polygon fill="#181818" points="81,336.0313,71,340.0313,81,344.0313,77,340.0313" style="stroke:#181818;stroke-width:1.0;"/><line style="stroke:#181818;stroke-width:1.0;stroke-dasharray:2.0,2.0;" x1="75" x2="566" y1="340.0313" y2="340.0313"/><text fill="#000000" font-family="sans-serif" font-size="13" font-weight="bold" lengthAdjust="spacing" textLength="14" x="87" y="335.1748">25</text><text fill="#000000" font-family="sans-serif" font-size="13" lengthAdjust="spacing" textLength="39" x="105" y="335.1748">vehicle</text><!--SRC=[lL9BImCn4BxdLmoUMbW5HIyz2BufKf4gzTBBc8oxeRkJxIIfzD-Rjhkb3wK8Oax9v7lD97vYkKR12Yh7JXVYAe8WaPHVtzIe9vZJIvYN148w8EVb9i0NQDodvHm-iFIaL2e7gssD7E1eHeNL9GsfTju69_FUc4UxjID03tlLRuN6t6k0Az9TNocCmN6itadWx5pjwS3nvGBNI-bpwmD9W-YC-ayPN0kooM3W39LP6mAUImo1CdX58NWZcnSXWmTnthUdCTz44KhH7giChlGqscHd7SCjBfW3j1o8aJN1lT0q4kjvToVioQb27UmiCPQjG5gvk5Z3iCdQ9bfU_RmIUTqc6jEsqMccrZr0tmhn2wiPbjOaNZlHrkxF_LQ61v26_aTt2ISsgytcWrweBUMzlm_DWDIkv1S0]--></g></svg>