<?xml version="1.0" encoding="UTF-8" standalone="no"?><svg xmlns="http://www.w3.org/2000/svg" xmlns:xlink="http://www.w3.org/1999/xlink" contentStyleType="text/css" height="1321px" preserveAspectRatio="none" style="width:1824px;height:1321px;background:#FFFFFF;" version="1.1" viewBox="0 0 1824 1321" width="1824px" zoomAndPan="magnify"><defs/><g><rect fill="#FFFFFF" height="1128.5469" style="stroke:#181818;stroke-width:1.0;" width="10" x="17.5" y="92.6094"/><rect fill="#FFFFFF" height="150.0156" style="stroke:#181818;stroke-width:1.0;" width="10" x="472.5" y="114.9609"/><rect fill="#FFFFFF" height="91.0547" style="stroke:#181818;stroke-width:1.0;" width="10" x="472.5" y="610.5859"/><rect fill="#FFFFFF" height="123.7578" style="stroke:#181818;stroke-width:1.0;" width="10" x="472.5" y="778.4375"/><rect fill="#FFFFFF" height="30.3516" style="stroke:#181818;stroke-width:1.0;" width="10" x="472.5" y="1190.8047"/><rect fill="#FFFFFF" height="151.7578" style="stroke:#181818;stroke-width:1.0;" width="10" x="839.5" y="264.9766"/><rect fill="#FFFFFF" height="76.7969" style="stroke:#181818;stroke-width:1.0;" width="10" x="839.5" y="533.7891"/><rect fill="#FFFFFF" height="76.7969" style="stroke:#181818;stroke-width:1.0;" width="10" x="839.5" y="701.6406"/><rect fill="#FFFFFF" height="88.0547" style="stroke:#181818;stroke-width:1.0;" width="10" x="839.5" y="902.1953"/><rect fill="#FFFFFF" height="30.3516" style="stroke:#181818;stroke-width:1.0;" width="10" x="839.5" y="1160.4531"/><rect fill="#FFFFFF" height="30.3516" style="stroke:#181818;stroke-width:1.0;" width="10" x="987.5" y="295.3281"/><rect fill="#FFFFFF" height="30.3516" style="stroke:#181818;stroke-width:1.0;" width="10" x="1094.5" y="356.0313"/><rect fill="#FFFFFF" height="117.0547" style="stroke:#181818;stroke-width:1.0;" width="10" x="1351" y="416.7344"/><rect fill="#FFFFFF" height="41.3516" style="stroke:#181818;stroke-width:1.0;" width="10" x="1356" y="455.0859"/><rect fill="#FFFFFF" height="63.0547" style="stroke:#181818;stroke-width:1.0;" width="10" x="1351" y="990.25"/><rect fill="#FFFFFF" height="30.3516" style="stroke:#181818;stroke-width:1.0;" width="10" x="1351" y="1130.1016"/><rect fill="#FFFFFF" height="66.7969" style="stroke:#181818;stroke-width:1.0;" width="10" x="1750" y="1063.3047"/><line style="stroke:#181818;stroke-width:0.5;stroke-dasharray:5.0,5.0;" x1="22" x2="22" y1="82.6094" y2="1239.1563"/><line style="stroke:#181818;stroke-width:0.5;stroke-dasharray:5.0,5.0;" x1="477" x2="477" y1="82.6094" y2="1239.1563"/><line style="stroke:#181818;stroke-width:0.5;stroke-dasharray:5.0,5.0;" x1="844" x2="844" y1="154.2656" y2="1239.1563"/><line style="stroke:#181818;stroke-width:0.5;stroke-dasharray:5.0,5.0;" x1="992" x2="992" y1="82.6094" y2="1239.1563"/><line style="stroke:#181818;stroke-width:0.5;stroke-dasharray:5.0,5.0;" x1="1099" x2="1099" y1="82.6094" y2="1239.1563"/><line style="stroke:#181818;stroke-width:0.5;stroke-dasharray:5.0,5.0;" x1="1219" x2="1219" y1="82.6094" y2="1239.1563"/><line style="stroke:#181818;stroke-width:0.5;stroke-dasharray:5.0,5.0;" x1="1356" x2="1356" y1="82.6094" y2="1239.1563"/><line style="stroke:#181818;stroke-width:0.5;stroke-dasharray:5.0,5.0;" x1="1755" x2="1755" y1="1039.7773" y2="1239.1563"/><text fill="#000000" font-family="sans-serif" font-size="14" lengthAdjust="spacing" textLength="29" x="5" y="79.5332">VFM</text><ellipse cx="22.5" cy="13.5" fill="#E3E3E3" rx="8" ry="8" style="stroke:#181818;stroke-width:0.5;"/><path d="M22.5,21.5 L22.5,48.5 M9.5,29.5 L35.5,29.5 M22.5,48.5 L9.5,63.5 M22.5,48.5 L35.5,63.5 " fill="none" style="stroke:#181818;stroke-width:0.5;"/><text fill="#000000" font-family="sans-serif" font-size="14" lengthAdjust="spacing" textLength="29" x="5" y="1252.6895">VFM</text><ellipse cx="22.5" cy="1264.2656" fill="#E3E3E3" rx="8" ry="8" style="stroke:#181818;stroke-width:0.5;"/><path d="M22.5,1272.2656 L22.5,1299.2656 M9.5,1280.2656 L35.5,1280.2656 M22.5,1299.2656 L9.5,1314.2656 M22.5,1299.2656 L35.5,1314.2656 " fill="none" style="stroke:#181818;stroke-width:0.5;"/><rect fill="#E3E3E3" height="31.6094" rx="2.5" ry="2.5" style="stroke:#181818;stroke-width:0.5;" width="129" x="413" y="50"/><text fill="#000000" font-family="sans-serif" font-size="14" lengthAdjust="spacing" textLength="115" x="420" y="71.5332">:RegisterVehicleUI</text><rect fill="#E3E3E3" height="31.6094" rx="2.5" ry="2.5" style="stroke:#181818;stroke-width:0.5;" width="129" x="413" y="1238.1563"/><text fill="#000000" font-family="sans-serif" font-size="14" lengthAdjust="spacing" textLength="115" x="420" y="1259.6895">:RegisterVehicleUI</text><rect fill="#E3E3E3" height="31.6094" rx="2.5" ry="2.5" style="stroke:#181818;stroke-width:0.5;" width="179" x="755" y="1238.1563"/><text fill="#000000" font-family="sans-serif" font-size="14" lengthAdjust="spacing" textLength="165" x="762" y="1259.6895">:RegisterVehicleController</text><rect fill="#E3E3E3" height="31.6094" rx="2.5" ry="2.5" style="stroke:#181818;stroke-width:0.5;" width="97" x="944" y="50"/><text fill="#000000" font-family="sans-serif" font-size="14" lengthAdjust="spacing" textLength="83" x="951" y="71.5332">:Repositories</text><rect fill="#E3E3E3" height="31.6094" rx="2.5" ry="2.5" style="stroke:#181818;stroke-width:0.5;" width="97" x="944" y="1238.1563"/><text fill="#000000" font-family="sans-serif" font-size="14" lengthAdjust="spacing" textLength="83" x="951" y="1259.6895">:Repositories</text><rect fill="#E3E3E3" height="49.2188" rx="2.5" ry="2.5" style="stroke:#181818;stroke-width:0.5;" width="97" x="1051" y="32.3906"/><text fill="#000000" font-family="sans-serif" font-size="14" lengthAdjust="spacing" textLength="74" x="1062.5" y="53.9238">repositories</text><text fill="#000000" font-family="sans-serif" font-size="14" lengthAdjust="spacing" textLength="83" x="1058" y="71.5332">:Repositories</text><rect fill="#E3E3E3" height="49.2188" rx="2.5" ry="2.5" style="stroke:#181818;stroke-width:0.5;" width="97" x="1051" y="1238.1563"/><text fill="#000000" font-family="sans-serif" font-size="14" lengthAdjust="spacing" textLength="74" x="1062.5" y="1259.6895">repositories</text><text fill="#000000" font-family="sans-serif" font-size="14" lengthAdjust="spacing" textLength="83" x="1058" y="1277.2988">:Repositories</text><rect fill="#E3E3E3" height="49.2188" rx="2.5" ry="2.5" style="stroke:#181818;stroke-width:0.5;" width="123" x="1158" y="32.3906"/><text fill="#000000" font-family="sans-serif" font-size="14" lengthAdjust="spacing" textLength="109" x="1165" y="53.9238">brandRepository:</text><text fill="#000000" font-family="sans-serif" font-size="14" lengthAdjust="spacing" textLength="106" x="1166.5" y="71.5332">BrandRepository</text><rect fill="#E3E3E3" height="49.2188" rx="2.5" ry="2.5" style="stroke:#181818;stroke-width:0.5;" width="123" x="1158" y="1238.1563"/><text fill="#000000" font-family="sans-serif" font-size="14" lengthAdjust="spacing" textLength="109" x="1165" y="1259.6895">brandRepository:</text><text fill="#000000" font-family="sans-serif" font-size="14" lengthAdjust="spacing" textLength="106" x="1166.5" y="1277.2988">BrandRepository</text><rect fill="#E3E3E3" height="49.2188" rx="2.5" ry="2.5" style="stroke:#181818;stroke-width:0.5;" width="130" x="1291" y="32.3906"/><text fill="#000000" font-family="sans-serif" font-size="14" lengthAdjust="spacing" textLength="116" x="1298" y="53.9238">vehicleRepository:</text><text fill="#000000" font-family="sans-serif" font-size="14" lengthAdjust="spacing" textLength="114" x="1299" y="71.5332">VehicleRepository</text><rect fill="#E3E3E3" height="49.2188" rx="2.5" ry="2.5" style="stroke:#181818;stroke-width:0.5;" width="130" x="1291" y="1238.1563"/><text fill="#000000" font-family="sans-serif" font-size="14" lengthAdjust="spacing" textLength="116" x="1298" y="1259.6895">vehicleRepository:</text><text fill="#000000" font-family="sans-serif" font-size="14" lengthAdjust="spacing" textLength="114" x="1299" y="1277.2988">VehicleRepository</text><rect fill="#E3E3E3" height="49.2188" rx="2.5" ry="2.5" style="stroke:#181818;stroke-width:0.5;" width="64" x="1723" y="1238.1563"/><text fill="#000000" font-family="sans-serif" font-size="14" lengthAdjust="spacing" textLength="44" x="1733" y="1259.6895">vehicle</text><text fill="#000000" font-family="sans-serif" font-size="14" lengthAdjust="spacing" textLength="50" x="1730" y="1277.2988">:Vehicle</text><rect fill="#FFFFFF" height="1128.5469" style="stroke:#181818;stroke-width:1.0;" width="10" x="17.5" y="92.6094"/><rect fill="#FFFFFF" height="150.0156" style="stroke:#181818;stroke-width:1.0;" width="10" x="472.5" y="114.9609"/><rect fill="#FFFFFF" height="91.0547" style="stroke:#181818;stroke-width:1.0;" width="10" x="472.5" y="610.5859"/><rect fill="#FFFFFF" height="123.7578" style="stroke:#181818;stroke-width:1.0;" width="10" x="472.5" y="778.4375"/><rect fill="#FFFFFF" height="30.3516" style="stroke:#181818;stroke-width:1.0;" width="10" x="472.5" y="1190.8047"/><rect fill="#FFFFFF" height="151.7578" style="stroke:#181818;stroke-width:1.0;" width="10" x="839.5" y="264.9766"/><rect fill="#FFFFFF" height="76.7969" style="stroke:#181818;stroke-width:1.0;" width="10" x="839.5" y="533.7891"/><rect fill="#FFFFFF" height="76.7969" style="stroke:#181818;stroke-width:1.0;" width="10" x="839.5" y="701.6406"/><rect fill="#FFFFFF" height="88.0547" style="stroke:#181818;stroke-width:1.0;" width="10" x="839.5" y="902.1953"/><rect fill="#FFFFFF" height="30.3516" style="stroke:#181818;stroke-width:1.0;" width="10" x="839.5" y="1160.4531"/><rect fill="#FFFFFF" height="30.3516" style="stroke:#181818;stroke-width:1.0;" width="10" x="987.5" y="295.3281"/><rect fill="#FFFFFF" height="30.3516" style="stroke:#181818;stroke-width:1.0;" width="10" x="1094.5" y="356.0313"/><rect fill="#FFFFFF" height="117.0547" style="stroke:#181818;stroke-width:1.0;" width="10" x="1351" y="416.7344"/><rect fill="#FFFFFF" height="41.3516" style="stroke:#181818;stroke-width:1.0;" width="10" x="1356" y="455.0859"/><rect fill="#FFFFFF" height="63.0547" style="stroke:#181818;stroke-width:1.0;" width="10" x="1351" y="990.25"/><rect fill="#FFFFFF" height="30.3516" style="stroke:#181818;stroke-width:1.0;" width="10" x="1351" y="1130.1016"/><rect fill="#FFFFFF" height="66.7969" style="stroke:#181818;stroke-width:1.0;" width="10" x="1750" y="1063.3047"/><polygon fill="#181818" points="460.5,110.9609,470.5,114.9609,460.5,118.9609,464.5,114.9609" style="stroke:#181818;stroke-width:1.0;"/><line style="stroke:#181818;stroke-width:1.0;" x1="27.5" x2="466.5" y1="114.9609" y2="114.9609"/><text fill="#000000" font-family="sans-serif" font-size="13" font-weight="bold" lengthAdjust="spacing" textLength="7" x="34.5" y="110.1045">1</text><text fill="#000000" font-family="sans-serif" font-size="13" lengthAdjust="spacing" textLength="166" x="45.5" y="110.1045">requests to register a vehicle</text><polygon fill="#181818" points="743,141.3125,753,145.3125,743,149.3125,747,145.3125" style="stroke:#181818;stroke-width:1.0;"/><line style="stroke:#181818;stroke-width:1.0;" x1="482.5" x2="749" y1="145.3125" y2="145.3125"/><text fill="#000000" font-family="sans-serif" font-size="13" font-weight="bold" lengthAdjust="spacing" textLength="7" x="489.5" y="140.4561">2</text><text fill="#000000" font-family="sans-serif" font-size="13" lengthAdjust="spacing" textLength="36" x="500.5" y="140.4561">create</text><rect fill="#E3E3E3" height="31.6094" rx="2.5" ry="2.5" style="stroke:#181818;stroke-width:0.5;" width="179" x="755" y="122.9609"/><text fill="#000000" font-family="sans-serif" font-size="14" lengthAdjust="spacing" textLength="165" x="762" y="144.4941">:RegisterVehicleController</text><polygon fill="#181818" points="38.5,200.2734,28.5,204.2734,38.5,208.2734,34.5,204.2734" style="stroke:#181818;stroke-width:1.0;"/><line style="stroke:#181818;stroke-width:1.0;stroke-dasharray:2.0,2.0;" x1="32.5" x2="471.5" y1="204.2734" y2="204.2734"/><text fill="#000000" font-family="sans-serif" font-size="13" font-weight="bold" lengthAdjust="spacing" textLength="7" x="44.5" y="191.2412">3</text><text fill="#000000" font-family="sans-serif" font-size="13" lengthAdjust="spacing" textLength="410" x="55.5" y="183.0654">requests vehicle data (VIN, Vehicle Platte, Tare Weight, Gross Weight,</text><text fill="#000000" font-family="sans-serif" font-size="13" lengthAdjust="spacing" textLength="320" x="59.5" y="199.417">Current Km, Acquisition Date, Maintenance Frequency)</text><polygon fill="#181818" points="460.5,230.625,470.5,234.625,460.5,238.625,464.5,234.625" style="stroke:#181818;stroke-width:1.0;"/><line style="stroke:#181818;stroke-width:1.0;" x1="27.5" x2="466.5" y1="234.625" y2="234.625"/><text fill="#000000" font-family="sans-serif" font-size="13" font-weight="bold" lengthAdjust="spacing" textLength="7" x="34.5" y="229.7686">4</text><text fill="#000000" font-family="sans-serif" font-size="13" lengthAdjust="spacing" textLength="104" x="45.5" y="229.7686">types vehicle data</text><polygon fill="#181818" points="827.5,260.9766,837.5,264.9766,827.5,268.9766,831.5,264.9766" style="stroke:#181818;stroke-width:1.0;"/><line style="stroke:#181818;stroke-width:1.0;" x1="477.5" x2="833.5" y1="264.9766" y2="264.9766"/><text fill="#000000" font-family="sans-serif" font-size="13" font-weight="bold" lengthAdjust="spacing" textLength="7" x="484.5" y="260.1201">5</text><text fill="#000000" font-family="sans-serif" font-size="13" lengthAdjust="spacing" textLength="111" x="495.5" y="260.1201">submit vehicle data</text><polygon fill="#181818" points="975.5,291.3281,985.5,295.3281,975.5,299.3281,979.5,295.3281" style="stroke:#181818;stroke-width:1.0;"/><line style="stroke:#181818;stroke-width:1.0;" x1="849.5" x2="981.5" y1="295.3281" y2="295.3281"/><text fill="#000000" font-family="sans-serif" font-size="13" font-weight="bold" lengthAdjust="spacing" textLength="7" x="856.5" y="290.4717">6</text><text fill="#000000" font-family="sans-serif" font-size="13" lengthAdjust="spacing" textLength="75" x="867.5" y="290.4717">getInstance()</text><polygon fill="#181818" points="860.5,321.6797,850.5,325.6797,860.5,329.6797,856.5,325.6797" style="stroke:#181818;stroke-width:1.0;"/><line style="stroke:#181818;stroke-width:1.0;stroke-dasharray:2.0,2.0;" x1="854.5" x2="991.5" y1="325.6797" y2="325.6797"/><text fill="#000000" font-family="sans-serif" font-size="13" font-weight="bold" lengthAdjust="spacing" textLength="7" x="866.5" y="320.8232">7</text><text fill="#000000" font-family="sans-serif" font-size="13" lengthAdjust="spacing" textLength="67" x="877.5" y="320.8232">repositories</text><polygon fill="#181818" points="1082.5,352.0313,1092.5,356.0313,1082.5,360.0313,1086.5,356.0313" style="stroke:#181818;stroke-width:1.0;"/><line style="stroke:#181818;stroke-width:1.0;" x1="849.5" x2="1088.5" y1="356.0313" y2="356.0313"/><text fill="#000000" font-family="sans-serif" font-size="13" font-weight="bold" lengthAdjust="spacing" textLength="7" x="856.5" y="351.1748">8</text><text fill="#000000" font-family="sans-serif" font-size="13" lengthAdjust="spacing" textLength="123" x="867.5" y="351.1748">getVehicleRepository</text><polygon fill="#181818" points="860.5,382.3828,850.5,386.3828,860.5,390.3828,856.5,386.3828" style="stroke:#181818;stroke-width:1.0;"/><line style="stroke:#181818;stroke-width:1.0;stroke-dasharray:2.0,2.0;" x1="854.5" x2="1098.5" y1="386.3828" y2="386.3828"/><text fill="#000000" font-family="sans-serif" font-size="13" font-weight="bold" lengthAdjust="spacing" textLength="7" x="866.5" y="381.5264">9</text><text fill="#000000" font-family="sans-serif" font-size="13" lengthAdjust="spacing" textLength="105" x="877.5" y="381.5264">VehicleRepository</text><polygon fill="#181818" points="1339,412.7344,1349,416.7344,1339,420.7344,1343,416.7344" style="stroke:#181818;stroke-width:1.0;"/><line style="stroke:#181818;stroke-width:1.0;" x1="844.5" x2="1345" y1="416.7344" y2="416.7344"/><text fill="#000000" font-family="sans-serif" font-size="13" font-weight="bold" lengthAdjust="spacing" textLength="14" x="851.5" y="411.8779">10</text><text fill="#000000" font-family="sans-serif" font-size="13" lengthAdjust="spacing" textLength="142" x="869.5" y="411.8779">validateVehicleData(VIN)</text><line style="stroke:#181818;stroke-width:1.0;" x1="1361" x2="1408" y1="442.0859" y2="442.0859"/><line style="stroke:#181818;stroke-width:1.0;" x1="1408" x2="1408" y1="442.0859" y2="455.0859"/><line style="stroke:#181818;stroke-width:1.0;" x1="1367" x2="1408" y1="455.0859" y2="455.0859"/><polygon fill="#181818" points="1377,451.0859,1367,455.0859,1377,459.0859,1373,455.0859" style="stroke:#181818;stroke-width:1.0;"/><text fill="#000000" font-family="sans-serif" font-size="13" font-weight="bold" lengthAdjust="spacing" textLength="14" x="1373" y="437.2295">11</text><text fill="#000000" font-family="sans-serif" font-size="13" lengthAdjust="spacing" textLength="142" x="1391" y="437.2295">validateVehicleData(VIN)</text><line style="stroke:#181818;stroke-width:1.0;stroke-dasharray:2.0,2.0;" x1="1366" x2="1408" y1="495.4375" y2="495.4375"/><line style="stroke:#181818;stroke-width:1.0;stroke-dasharray:2.0,2.0;" x1="1408" x2="1408" y1="495.4375" y2="508.4375"/><line style="stroke:#181818;stroke-width:1.0;stroke-dasharray:2.0,2.0;" x1="1361" x2="1408" y1="508.4375" y2="508.4375"/><polygon fill="#181818" points="1371,504.4375,1361,508.4375,1371,512.4375,1367,508.4375" style="stroke:#181818;stroke-width:1.0;"/><text fill="#000000" font-family="sans-serif" font-size="13" font-weight="bold" lengthAdjust="spacing" textLength="14" x="1373" y="490.5811">12</text><text fill="#000000" font-family="sans-serif" font-size="13" lengthAdjust="spacing" textLength="4" x="1391" y="490.5811"> </text><polygon fill="#181818" points="860.5,529.7891,850.5,533.7891,860.5,537.7891,856.5,533.7891" style="stroke:#181818;stroke-width:1.0;"/><line style="stroke:#181818;stroke-width:1.0;stroke-dasharray:2.0,2.0;" x1="854.5" x2="1355" y1="533.7891" y2="533.7891"/><text fill="#000000" font-family="sans-serif" font-size="13" font-weight="bold" lengthAdjust="spacing" textLength="14" x="866.5" y="528.9326">13</text><text fill="#000000" font-family="sans-serif" font-size="13" lengthAdjust="spacing" textLength="66" x="884.5" y="528.9326">vehicleData</text><rect fill="none" height="41.4453" style="stroke:#000000;stroke-width:1.5;" width="185" x="752" y="541.7891"/><path d="M752,541.7891 L814,541.7891 L814,549.7891 L804,559.7891 L752,559.7891 L752,541.7891 " fill="#EEEEEE" style="stroke:#000000;stroke-width:2.0;"/><text fill="#000000" font-family="sans-serif" font-size="13" font-weight="bold" lengthAdjust="spacing" textLength="17" x="765" y="557.2842">ref</text><text fill="#000000" font-family="sans-serif" font-size="12" lengthAdjust="spacing" textLength="77" x="806" y="576.2461">Get brand List</text><polygon fill="#181818" points="493.5,606.5859,483.5,610.5859,493.5,614.5859,489.5,610.5859" style="stroke:#181818;stroke-width:1.0;"/><line style="stroke:#181818;stroke-width:1.0;stroke-dasharray:2.0,2.0;" x1="487.5" x2="843.5" y1="610.5859" y2="610.5859"/><text fill="#000000" font-family="sans-serif" font-size="13" font-weight="bold" lengthAdjust="spacing" textLength="14" x="499.5" y="605.7295">14</text><text fill="#000000" font-family="sans-serif" font-size="13" lengthAdjust="spacing" textLength="53" x="517.5" y="605.7295">brandList</text><polygon fill="#181818" points="38.5,636.9375,28.5,640.9375,38.5,644.9375,34.5,640.9375" style="stroke:#181818;stroke-width:1.0;"/><line style="stroke:#181818;stroke-width:1.0;stroke-dasharray:2.0,2.0;" x1="32.5" x2="471.5" y1="640.9375" y2="640.9375"/><text fill="#000000" font-family="sans-serif" font-size="13" font-weight="bold" lengthAdjust="spacing" textLength="14" x="44.5" y="636.0811">15</text><text fill="#000000" font-family="sans-serif" font-size="13" lengthAdjust="spacing" textLength="249" x="62.5" y="636.0811">show brand list and request to select brand</text><polygon fill="#181818" points="460.5,667.2891,470.5,671.2891,460.5,675.2891,464.5,671.2891" style="stroke:#181818;stroke-width:1.0;"/><line style="stroke:#181818;stroke-width:1.0;" x1="27.5" x2="466.5" y1="671.2891" y2="671.2891"/><text fill="#000000" font-family="sans-serif" font-size="13" font-weight="bold" lengthAdjust="spacing" textLength="14" x="34.5" y="666.4326">16</text><text fill="#000000" font-family="sans-serif" font-size="13" lengthAdjust="spacing" textLength="114" x="52.5" y="666.4326">select vehicle brand</text><polygon fill="#181818" points="827.5,697.6406,837.5,701.6406,827.5,705.6406,831.5,701.6406" style="stroke:#181818;stroke-width:1.0;"/><line style="stroke:#181818;stroke-width:1.0;" x1="477.5" x2="833.5" y1="701.6406" y2="701.6406"/><text fill="#000000" font-family="sans-serif" font-size="13" font-weight="bold" lengthAdjust="spacing" textLength="14" x="484.5" y="696.7842">17</text><text fill="#000000" font-family="sans-serif" font-size="13" lengthAdjust="spacing" textLength="61" x="502.5" y="696.7842">getModel()</text><rect fill="none" height="41.4453" style="stroke:#000000;stroke-width:1.5;" width="185" x="752" y="709.6406"/><path d="M752,709.6406 L814,709.6406 L814,717.6406 L804,727.6406 L752,727.6406 L752,709.6406 " fill="#EEEEEE" style="stroke:#000000;stroke-width:2.0;"/><text fill="#000000" font-family="sans-serif" font-size="13" font-weight="bold" lengthAdjust="spacing" textLength="17" x="765" y="725.1357">ref</text><text fill="#000000" font-family="sans-serif" font-size="12" lengthAdjust="spacing" textLength="80" x="804.5" y="744.0977">Get model List</text><polygon fill="#181818" points="493.5,774.4375,483.5,778.4375,493.5,782.4375,489.5,778.4375" style="stroke:#181818;stroke-width:1.0;"/><line style="stroke:#181818;stroke-width:1.0;stroke-dasharray:2.0,2.0;" x1="487.5" x2="843.5" y1="778.4375" y2="778.4375"/><text fill="#000000" font-family="sans-serif" font-size="13" font-weight="bold" lengthAdjust="spacing" textLength="14" x="499.5" y="773.5811">18</text><text fill="#000000" font-family="sans-serif" font-size="13" lengthAdjust="spacing" textLength="56" x="517.5" y="773.5811">modelList</text><polygon fill="#181818" points="38.5,804.7891,28.5,808.7891,38.5,812.7891,34.5,808.7891" style="stroke:#181818;stroke-width:1.0;"/><line style="stroke:#181818;stroke-width:1.0;stroke-dasharray:2.0,2.0;" x1="32.5" x2="471.5" y1="808.7891" y2="808.7891"/><text fill="#000000" font-family="sans-serif" font-size="13" font-weight="bold" lengthAdjust="spacing" textLength="14" x="44.5" y="803.9326">19</text><text fill="#000000" font-family="sans-serif" font-size="13" lengthAdjust="spacing" textLength="144" x="62.5" y="803.9326">shows vehicle model List</text><polygon fill="#181818" points="460.5,835.1406,470.5,839.1406,460.5,843.1406,464.5,839.1406" style="stroke:#181818;stroke-width:1.0;"/><line style="stroke:#181818;stroke-width:1.0;" x1="27.5" x2="466.5" y1="839.1406" y2="839.1406"/><text fill="#000000" font-family="sans-serif" font-size="13" font-weight="bold" lengthAdjust="spacing" textLength="14" x="34.5" y="834.2842">20</text><text fill="#000000" font-family="sans-serif" font-size="13" lengthAdjust="spacing" textLength="114" x="52.5" y="834.2842">select vehicle brand</text><polygon fill="#181818" points="827.5,898.1953,837.5,902.1953,827.5,906.1953,831.5,902.1953" style="stroke:#181818;stroke-width:1.0;"/><line style="stroke:#181818;stroke-width:1.0;" x1="477.5" x2="833.5" y1="902.1953" y2="902.1953"/><text fill="#000000" font-family="sans-serif" font-size="13" font-weight="bold" lengthAdjust="spacing" textLength="14" x="484.5" y="880.9873">21</text><text fill="#000000" font-family="sans-serif" font-size="13" lengthAdjust="spacing" textLength="200" x="502.5" y="864.6357">registerVehicle(VIN, Brand, Model,</text><text fill="#000000" font-family="sans-serif" font-size="13" lengthAdjust="spacing" textLength="251" x="502.5" y="880.9873">Vehicle Platte, Tare Weight, Gross Weight,</text><text fill="#000000" font-family="sans-serif" font-size="13" lengthAdjust="spacing" textLength="320" x="502.5" y="897.3389">Current Km, Acquisition Date, Maintenance Frequency)</text><polygon fill="#181818" points="1339,986.25,1349,990.25,1339,994.25,1343,990.25" style="stroke:#181818;stroke-width:1.0;"/><line style="stroke:#181818;stroke-width:1.0;" x1="844.5" x2="1345" y1="990.25" y2="990.25"/><text fill="#000000" font-family="sans-serif" font-size="13" font-weight="bold" lengthAdjust="spacing" textLength="14" x="851.5" y="969.042">22</text><text fill="#000000" font-family="sans-serif" font-size="13" lengthAdjust="spacing" textLength="200" x="869.5" y="952.6904">registerVehicle(VIN, Brand, Model,</text><text fill="#000000" font-family="sans-serif" font-size="13" lengthAdjust="spacing" textLength="251" x="869.5" y="969.042">Vehicle Platte, Tare Weight, Gross Weight,</text><text fill="#000000" font-family="sans-serif" font-size="13" lengthAdjust="spacing" textLength="320" x="869.5" y="985.3936">Current Km, Acquisition Date, Maintenance Frequency)</text><polygon fill="#181818" points="1711,1049.3047,1721,1053.3047,1711,1057.3047,1715,1053.3047" style="stroke:#181818;stroke-width:1.0;"/><line style="stroke:#181818;stroke-width:1.0;" x1="1356" x2="1717" y1="1053.3047" y2="1053.3047"/><text fill="#000000" font-family="sans-serif" font-size="13" font-weight="bold" lengthAdjust="spacing" textLength="14" x="1363" y="1032.0967">23</text><text fill="#000000" font-family="sans-serif" font-size="13" lengthAdjust="spacing" textLength="200" x="1381" y="1015.7451">registerVehicle(VIN, Brand, Model,</text><text fill="#000000" font-family="sans-serif" font-size="13" lengthAdjust="spacing" textLength="251" x="1381" y="1032.0967">Vehicle Platte, Tare Weight, Gross Weight,</text><text fill="#000000" font-family="sans-serif" font-size="13" lengthAdjust="spacing" textLength="320" x="1381" y="1048.4482">Current Km, Acquisition Date, Maintenance Frequency)</text><rect fill="#E3E3E3" height="49.2188" rx="2.5" ry="2.5" style="stroke:#181818;stroke-width:0.5;" width="64" x="1723" y="1001.0859"/><text fill="#000000" font-family="sans-serif" font-size="14" lengthAdjust="spacing" textLength="44" x="1733" y="1022.6191">vehicle</text><text fill="#000000" font-family="sans-serif" font-size="14" lengthAdjust="spacing" textLength="50" x="1730" y="1040.2285">:Vehicle</text><rect fill="none" height="41.4453" style="stroke:#000000;stroke-width:1.5;" width="98" x="1720" y="1061.3047"/><path d="M1720,1061.3047 L1782,1061.3047 L1782,1069.3047 L1772,1079.3047 L1720,1079.3047 L1720,1061.3047 " fill="#EEEEEE" style="stroke:#000000;stroke-width:2.0;"/><text fill="#000000" font-family="sans-serif" font-size="13" font-weight="bold" lengthAdjust="spacing" textLength="17" x="1733" y="1076.7998">ref</text><text fill="#000000" font-family="sans-serif" font-size="12" lengthAdjust="spacing" textLength="90" x="1724" y="1095.7617">Register Vehicle</text><polygon fill="#181818" points="1372,1126.1016,1362,1130.1016,1372,1134.1016,1368,1130.1016" style="stroke:#181818;stroke-width:1.0;"/><line style="stroke:#181818;stroke-width:1.0;stroke-dasharray:2.0,2.0;" x1="1366" x2="1754" y1="1130.1016" y2="1130.1016"/><text fill="#000000" font-family="sans-serif" font-size="13" font-weight="bold" lengthAdjust="spacing" textLength="14" x="1378" y="1125.2451">24</text><text fill="#000000" font-family="sans-serif" font-size="13" lengthAdjust="spacing" textLength="39" x="1396" y="1125.2451">vehicle</text><polygon fill="#181818" points="860.5,1156.4531,850.5,1160.4531,860.5,1164.4531,856.5,1160.4531" style="stroke:#181818;stroke-width:1.0;"/><line style="stroke:#181818;stroke-width:1.0;stroke-dasharray:2.0,2.0;" x1="854.5" x2="1355" y1="1160.4531" y2="1160.4531"/><text fill="#000000" font-family="sans-serif" font-size="13" font-weight="bold" lengthAdjust="spacing" textLength="14" x="866.5" y="1155.5967">25</text><text fill="#000000" font-family="sans-serif" font-size="13" lengthAdjust="spacing" textLength="39" x="884.5" y="1155.5967">vehicle</text><polygon fill="#181818" points="493.5,1186.8047,483.5,1190.8047,493.5,1194.8047,489.5,1190.8047" style="stroke:#181818;stroke-width:1.0;"/><line style="stroke:#181818;stroke-width:1.0;stroke-dasharray:2.0,2.0;" x1="487.5" x2="843.5" y1="1190.8047" y2="1190.8047"/><text fill="#000000" font-family="sans-serif" font-size="13" font-weight="bold" lengthAdjust="spacing" textLength="14" x="499.5" y="1185.9482">26</text><text fill="#000000" font-family="sans-serif" font-size="13" lengthAdjust="spacing" textLength="39" x="517.5" y="1185.9482">vehicle</text><polygon fill="#181818" points="33.5,1217.1563,23.5,1221.1563,33.5,1225.1563,29.5,1221.1563" style="stroke:#181818;stroke-width:1.0;"/><line style="stroke:#181818;stroke-width:1.0;stroke-dasharray:2.0,2.0;" x1="27.5" x2="476.5" y1="1221.1563" y2="1221.1563"/><text fill="#000000" font-family="sans-serif" font-size="13" font-weight="bold" lengthAdjust="spacing" textLength="14" x="39.5" y="1216.2998">27</text><text fill="#000000" font-family="sans-serif" font-size="13" lengthAdjust="spacing" textLength="147" x="57.5" y="1216.2998">shows success message</text><!--SRC=[pLTBJ-Cm4BxxLuou05Nv0psinBA0eeKLuj6zS77JeRL8x68xPIlnutViF1et3fIM0pb0EvxvvkblKlCiv89hdaEkf4hdMkK8LXV8J7EouEapd-6TNMK86bFBvInhAvWvdwfN8MVmn3E3Z35UM2MBV8AQiSEvc28yAMKdwX_ZgLKQ3iONrmV03T1_HY1Mf6B1fOM3qItEXB6enpWNQOOFYTTxIDvNErFIQfLbgBtwsVtjLSTWeOmWvmADrsa4gplX4gA8GnFTidYKNO2RgzFxq6AYkPokSKUFycSeyNORiX1YMUOJW8mtPMNfDgLH80gyKYoDpXFcUY2MtAAlFWDww0ES_A0gmuWw_5AWiGQieizbbO53XUVL6m1gYnUuXum9mbL-C22OL2DfXCTqxZorV5IeCEMMmz4u-JEiyuARZ5kBGxZd6k4lYjdS3k5IAsFgRuyIpWgjaTBzdG_XD7qf19L2A0c_k3Ezva9Qb5oc21VUfqnNnzsKxMg1OIonj4ZH59DSs52pLfnYkoorj97vaMp4xl6OX1qPn17Cq2RIM1VwqN5WrY361ZZGZ2Zu7ZZ7hWVhUGxCMebywABEmTq57tHtAgEn-xiJ73b9AxhtSLeXTf7gc3eGrC0bpmHr3Qip6XFkfkwu3zrtBPf1Dy10h-iy5j6M0UtXDEQrBzcTqAkRiLp7lpryDCVoeh3GjyOdK4iYeav3FdekqOBdPRWYAjlQ5Cc0dCOcoxF6g0JjO6urEuusI-I05SrSlLQnPeGBtCVWcTAHiS6Cbc-fqEMmwhIcffPMm61qHQ_L5BEALBgarKDO-pKWTovtR40PGr1w3zUWnKeUbZfQwJNXjw9ZdobifxWwV2afzvbVzxIBd9CXDDjyY_r6oZljjvqtqjlRszPC-iro_IhUxkVkymG6Ws-PzwTuDYp6US9wRsHpvPqMVC5JlxFN4UuDkkQ8pf5hrqdFojtIUxkaiJhjlpVZiUowCditrGTEIklUT_eDqZH5cYBDRqv_w5TXP8kmTWBq2-C_]--></g></svg>