<?xml version="1.0" encoding="UTF-8" standalone="no"?><svg xmlns="http://www.w3.org/2000/svg" xmlns:xlink="http://www.w3.org/1999/xlink" contentStyleType="text/css" height="547px" preserveAspectRatio="none" style="width:1896px;height:547px;background:#FFFFFF;" version="1.1" viewBox="0 0 1896 547" width="1896px" zoomAndPan="magnify"><defs/><g><rect fill="#FFFFFF" height="387.3828" style="stroke:#181818;stroke-width:1.0;" width="10" x="816" y="87.5703"/><rect fill="#FFFFFF" height="30.3516" style="stroke:#181818;stroke-width:1.0;" width="10" x="990" y="407.25"/><rect fill="#FFFFFF" height="223.625" style="stroke:#181818;stroke-width:1.0;" width="10" x="1685" y="153.2734"/><rect fill="#FFFFFF" height="128.0547" style="stroke:#181818;stroke-width:1.0;" width="10" x="1690" y="211.4922"/><rect fill="#FFFFFF" height="41.3516" style="stroke:#181818;stroke-width:1.0;" width="10" x="1695" y="254.8438"/><rect fill="none" height="343.0313" style="stroke:#000000;stroke-width:1.5;" width="1168.5" x="721.5" y="102.5703"/><line style="stroke:#181818;stroke-width:0.5;stroke-dasharray:5.0,5.0;" x1="820.5" x2="820.5" y1="55.2188" y2="492.9531"/><line style="stroke:#181818;stroke-width:0.5;stroke-dasharray:5.0,5.0;" x1="995" x2="995" y1="55.2188" y2="492.9531"/><line style="stroke:#181818;stroke-width:0.5;stroke-dasharray:5.0,5.0;" x1="1690" x2="1690" y1="161.0313" y2="492.9531"/><rect fill="#E3E3E3" height="31.6094" rx="2.5" ry="2.5" style="stroke:#181818;stroke-width:0.5;" width="179" x="731.5" y="22.6094"/><text fill="#000000" font-family="sans-serif" font-size="14" lengthAdjust="spacing" textLength="165" x="738.5" y="44.1426">:RegisterVehicleController</text><rect fill="#E3E3E3" height="31.6094" rx="2.5" ry="2.5" style="stroke:#181818;stroke-width:0.5;" width="179" x="731.5" y="491.9531"/><text fill="#000000" font-family="sans-serif" font-size="14" lengthAdjust="spacing" textLength="165" x="738.5" y="513.4863">:RegisterVehicleController</text><rect fill="#E3E3E3" height="49.2188" rx="2.5" ry="2.5" style="stroke:#181818;stroke-width:0.5;" width="130" x="930" y="5"/><text fill="#000000" font-family="sans-serif" font-size="14" lengthAdjust="spacing" textLength="116" x="937" y="26.5332">vehicleRepository:</text><text fill="#000000" font-family="sans-serif" font-size="14" lengthAdjust="spacing" textLength="114" x="938" y="44.1426">VehicleRepository</text><rect fill="#E3E3E3" height="49.2188" rx="2.5" ry="2.5" style="stroke:#181818;stroke-width:0.5;" width="130" x="930" y="491.9531"/><text fill="#000000" font-family="sans-serif" font-size="14" lengthAdjust="spacing" textLength="116" x="937" y="513.4863">vehicleRepository:</text><text fill="#000000" font-family="sans-serif" font-size="14" lengthAdjust="spacing" textLength="114" x="938" y="531.0957">VehicleRepository</text><rect fill="#E3E3E3" height="49.2188" rx="2.5" ry="2.5" style="stroke:#181818;stroke-width:0.5;" width="64" x="1658" y="491.9531"/><text fill="#000000" font-family="sans-serif" font-size="14" lengthAdjust="spacing" textLength="44" x="1668" y="513.4863">vehicle</text><text fill="#000000" font-family="sans-serif" font-size="14" lengthAdjust="spacing" textLength="50" x="1665" y="531.0957">:Vehicle</text><rect fill="#FFFFFF" height="387.3828" style="stroke:#181818;stroke-width:1.0;" width="10" x="816" y="87.5703"/><rect fill="#FFFFFF" height="30.3516" style="stroke:#181818;stroke-width:1.0;" width="10" x="990" y="407.25"/><rect fill="#FFFFFF" height="223.625" style="stroke:#181818;stroke-width:1.0;" width="10" x="1685" y="153.2734"/><rect fill="#FFFFFF" height="128.0547" style="stroke:#181818;stroke-width:1.0;" width="10" x="1690" y="211.4922"/><rect fill="#FFFFFF" height="41.3516" style="stroke:#181818;stroke-width:1.0;" width="10" x="1695" y="254.8438"/><polygon fill="#181818" points="804,83.5703,814,87.5703,804,91.5703,808,87.5703" style="stroke:#181818;stroke-width:1.0;"/><line style="stroke:#181818;stroke-width:1.0;" x1="0" x2="810" y1="87.5703" y2="87.5703"/><text fill="#000000" font-family="sans-serif" font-size="13" font-weight="bold" lengthAdjust="spacing" textLength="14" x="7" y="82.7139">28</text><text fill="#000000" font-family="sans-serif" font-size="13" lengthAdjust="spacing" textLength="779" x="25" y="82.7139">registerVehicle(VIN, Brand, Model, Vehicle Platte, Tare Weight, Gross Weight, Current Km, Acquisition Date, Maintenance Frequency)</text><path d="M721.5,102.5703 L870.5,102.5703 L870.5,110.9219 L860.5,120.9219 L721.5,120.9219 L721.5,102.5703 " fill="#EEEEEE" style="stroke:#000000;stroke-width:1.5;"/><rect fill="none" height="343.0313" style="stroke:#000000;stroke-width:1.5;" width="1168.5" x="721.5" y="102.5703"/><text fill="#000000" font-family="sans-serif" font-size="13" font-weight="bold" lengthAdjust="spacing" textLength="104" x="736.5" y="117.0654">Register Vehicle</text><polygon fill="#181818" points="1646,139.2734,1656,143.2734,1646,147.2734,1650,143.2734" style="stroke:#181818;stroke-width:1.0;"/><line style="stroke:#181818;stroke-width:1.0;" x1="826" x2="1652" y1="143.2734" y2="143.2734"/><text fill="#000000" font-family="sans-serif" font-size="13" font-weight="bold" lengthAdjust="spacing" textLength="25" x="833" y="138.417">28.1</text><text fill="#000000" font-family="sans-serif" font-size="13" lengthAdjust="spacing" textLength="779" x="862" y="138.417">registerVehicle(VIN, Brand, Model, Vehicle Platte, Tare Weight, Gross Weight, Current Km, Acquisition Date, Maintenance Frequency)</text><rect fill="#E3E3E3" height="49.2188" rx="2.5" ry="2.5" style="stroke:#181818;stroke-width:0.5;" width="64" x="1658" y="120.9219"/><text fill="#000000" font-family="sans-serif" font-size="14" lengthAdjust="spacing" textLength="44" x="1668" y="142.4551">vehicle</text><text fill="#000000" font-family="sans-serif" font-size="14" lengthAdjust="spacing" textLength="50" x="1665" y="160.0645">:Vehicle</text><line style="stroke:#181818;stroke-width:1.0;" x1="1695" x2="1742" y1="198.4922" y2="198.4922"/><line style="stroke:#181818;stroke-width:1.0;" x1="1742" x2="1742" y1="198.4922" y2="211.4922"/><line style="stroke:#181818;stroke-width:1.0;" x1="1701" x2="1742" y1="211.4922" y2="211.4922"/><polygon fill="#181818" points="1711,207.4922,1701,211.4922,1711,215.4922,1707,211.4922" style="stroke:#181818;stroke-width:1.0;"/><text fill="#000000" font-family="sans-serif" font-size="13" font-weight="bold" lengthAdjust="spacing" textLength="25" x="1707" y="193.6357">28.2</text><text fill="#000000" font-family="sans-serif" font-size="13" lengthAdjust="spacing" textLength="115" x="1736" y="193.6357">addVehicle (vehicle)</text><line style="stroke:#181818;stroke-width:1.0;" x1="1700" x2="1747" y1="241.8438" y2="241.8438"/><line style="stroke:#181818;stroke-width:1.0;" x1="1747" x2="1747" y1="241.8438" y2="254.8438"/><line style="stroke:#181818;stroke-width:1.0;" x1="1706" x2="1747" y1="254.8438" y2="254.8438"/><polygon fill="#181818" points="1716,250.8438,1706,254.8438,1716,258.8438,1712,254.8438" style="stroke:#181818;stroke-width:1.0;"/><text fill="#000000" font-family="sans-serif" font-size="13" font-weight="bold" lengthAdjust="spacing" textLength="25" x="1712" y="236.9873">28.3</text><text fill="#000000" font-family="sans-serif" font-size="13" lengthAdjust="spacing" textLength="137" x="1741" y="236.9873">validateVehicle(vehicle))</text><line style="stroke:#181818;stroke-width:1.0;stroke-dasharray:2.0,2.0;" x1="1705" x2="1747" y1="295.1953" y2="295.1953"/><line style="stroke:#181818;stroke-width:1.0;stroke-dasharray:2.0,2.0;" x1="1747" x2="1747" y1="295.1953" y2="308.1953"/><line style="stroke:#181818;stroke-width:1.0;stroke-dasharray:2.0,2.0;" x1="1700" x2="1747" y1="308.1953" y2="308.1953"/><polygon fill="#181818" points="1710,304.1953,1700,308.1953,1710,312.1953,1706,308.1953" style="stroke:#181818;stroke-width:1.0;"/><text fill="#000000" font-family="sans-serif" font-size="13" font-weight="bold" lengthAdjust="spacing" textLength="25" x="1712" y="290.3389">28.4</text><text fill="#000000" font-family="sans-serif" font-size="13" lengthAdjust="spacing" textLength="4" x="1741" y="290.3389"> </text><line style="stroke:#181818;stroke-width:1.0;stroke-dasharray:2.0,2.0;" x1="1700" x2="1742" y1="338.5469" y2="338.5469"/><line style="stroke:#181818;stroke-width:1.0;stroke-dasharray:2.0,2.0;" x1="1742" x2="1742" y1="338.5469" y2="351.5469"/><line style="stroke:#181818;stroke-width:1.0;stroke-dasharray:2.0,2.0;" x1="1695" x2="1742" y1="351.5469" y2="351.5469"/><polygon fill="#181818" points="1705,347.5469,1695,351.5469,1705,355.5469,1701,351.5469" style="stroke:#181818;stroke-width:1.0;"/><text fill="#000000" font-family="sans-serif" font-size="13" font-weight="bold" lengthAdjust="spacing" textLength="25" x="1707" y="333.6904">28.5</text><text fill="#000000" font-family="sans-serif" font-size="13" lengthAdjust="spacing" textLength="4" x="1736" y="333.6904"> </text><polygon fill="#181818" points="837,372.8984,827,376.8984,837,380.8984,833,376.8984" style="stroke:#181818;stroke-width:1.0;"/><line style="stroke:#181818;stroke-width:1.0;" x1="831" x2="1689" y1="376.8984" y2="376.8984"/><text fill="#000000" font-family="sans-serif" font-size="13" font-weight="bold" lengthAdjust="spacing" textLength="25" x="843" y="372.042">28.6</text><text fill="#000000" font-family="sans-serif" font-size="13" lengthAdjust="spacing" textLength="39" x="872" y="372.042">vehicle</text><polygon fill="#181818" points="978,403.25,988,407.25,978,411.25,982,407.25" style="stroke:#181818;stroke-width:1.0;"/><line style="stroke:#181818;stroke-width:1.0;" x1="826" x2="984" y1="407.25" y2="407.25"/><text fill="#000000" font-family="sans-serif" font-size="13" font-weight="bold" lengthAdjust="spacing" textLength="25" x="833" y="402.3936">28.7</text><text fill="#000000" font-family="sans-serif" font-size="13" lengthAdjust="spacing" textLength="116" x="862" y="402.3936">saveVehicle(vehicle)</text><polygon fill="#181818" points="837,433.6016,827,437.6016,837,441.6016,833,437.6016" style="stroke:#181818;stroke-width:1.0;"/><line style="stroke:#181818;stroke-width:1.0;" x1="831" x2="994" y1="437.6016" y2="437.6016"/><text fill="#000000" font-family="sans-serif" font-size="13" font-weight="bold" lengthAdjust="spacing" textLength="25" x="843" y="432.7451">28.8</text><text fill="#000000" font-family="sans-serif" font-size="13" lengthAdjust="spacing" textLength="39" x="872" y="432.7451">vehicle</text><polygon fill="#181818" points="11,470.9531,1,474.9531,11,478.9531,7,474.9531" style="stroke:#181818;stroke-width:1.0;"/><line style="stroke:#181818;stroke-width:1.0;stroke-dasharray:2.0,2.0;" x1="5" x2="820" y1="474.9531" y2="474.9531"/><text fill="#000000" font-family="sans-serif" font-size="13" font-weight="bold" lengthAdjust="spacing" textLength="14" x="17" y="470.0967">29</text><text fill="#000000" font-family="sans-serif" font-size="13" lengthAdjust="spacing" textLength="25" x="35" y="470.0967">task</text><!--SRC=[pLDDJm8n4BttLqmy0LbCzAGROwBu4Q8OWmGlNCRkk3HqswNjOlZtblroOS5mCR6dtPbvh-_DTEn2g1GD9f1efVdSw8J0cOoOhJCfyWN6zERMai0GTwXYsIomSupqbr0nVAAqn9WFEy55Yih1IJYcM5X7PafpmIKDj796Iqdc1D32O39-tWQiYhenfTeAfyqwdAdfRYp7jg9xYMOgB0iBqFsGCSoSLbdoGGREBrZ_EfS1eRUtfRKp7Ru4S6jGHG6CT4Gog2w5LudEKG0JD0Jl9EAv2-3HQ6lhlq5c37abJqa0DtoP2QzIQ0Ltk06EK2X72XKdU32qp4ZnTNT7s-aPG-x4oYEALe4_iT5P2bLVAqKipnKdj-DjUREzth-mzQEjzfDF0Xh71qhH8M0KLP8wvI2xMyM7QNQfLYX5v2ihznLTjuKwWhCWRUKY-XjiwMCpJs-a7FInuFeLxEw9V-aMLws67EXlQyiQTMtgNzGsjUud9HKL7yqbkCmZL_r-jQKExO8roFB5ODy0]--></g></svg>