<?xml version="1.0" encoding="UTF-8" standalone="no"?><svg xmlns="http://www.w3.org/2000/svg" xmlns:xlink="http://www.w3.org/1999/xlink" contentStyleType="text/css" height="524px" preserveAspectRatio="none" style="width:914px;height:524px;background:#FFFFFF;" version="1.1" viewBox="0 0 914 524" width="914px" zoomAndPan="magnify"><defs/><g><rect fill="#FFFFFF" height="331.5156" style="stroke:#181818;stroke-width:1.0;" width="10" x="376" y="120.2734"/><rect fill="#FFFFFF" height="223.4609" style="stroke:#181818;stroke-width:1.0;" width="10" x="381" y="183.9766"/><rect fill="#FFFFFF" height="30.3516" style="stroke:#181818;stroke-width:1.0;" width="10" x="561" y="280.0313"/><rect fill="#FFFFFF" height="30.3516" style="stroke:#181818;stroke-width:1.0;" width="10" x="681" y="340.7344"/><rect fill="#FFFFFF" height="30.3516" style="stroke:#181818;stroke-width:1.0;" width="10" x="823" y="219.3281"/><rect fill="none" height="287.1641" style="stroke:#000000;stroke-width:1.5;" width="627" x="281.5" y="135.2734"/><line style="stroke:#181818;stroke-width:0.5;stroke-dasharray:5.0,5.0;" x1="380.5" x2="380.5" y1="55.2188" y2="469.7891"/><line style="stroke:#181818;stroke-width:0.5;stroke-dasharray:5.0,5.0;" x1="565.5" x2="565.5" y1="55.2188" y2="469.7891"/><line style="stroke:#181818;stroke-width:0.5;stroke-dasharray:5.0,5.0;" x1="685.5" x2="685.5" y1="55.2188" y2="469.7891"/><line style="stroke:#181818;stroke-width:0.5;stroke-dasharray:5.0,5.0;" x1="827.5" x2="827.5" y1="55.2188" y2="469.7891"/><rect fill="#E3E3E3" height="31.6094" rx="2.5" ry="2.5" style="stroke:#181818;stroke-width:0.5;" width="179" x="291.5" y="22.6094"/><text fill="#000000" font-family="sans-serif" font-size="14" lengthAdjust="spacing" textLength="165" x="298.5" y="44.1426">:RegisterVehicleController</text><rect fill="#E3E3E3" height="31.6094" rx="2.5" ry="2.5" style="stroke:#181818;stroke-width:0.5;" width="179" x="291.5" y="468.7891"/><text fill="#000000" font-family="sans-serif" font-size="14" lengthAdjust="spacing" textLength="165" x="298.5" y="490.3223">:RegisterVehicleController</text><rect fill="#E3E3E3" height="49.2188" rx="2.5" ry="2.5" style="stroke:#181818;stroke-width:0.5;" width="97" x="517.5" y="5"/><text fill="#000000" font-family="sans-serif" font-size="14" lengthAdjust="spacing" textLength="74" x="529" y="26.5332">repositories</text><text fill="#000000" font-family="sans-serif" font-size="14" lengthAdjust="spacing" textLength="83" x="524.5" y="44.1426">:Repositories</text><rect fill="#E3E3E3" height="49.2188" rx="2.5" ry="2.5" style="stroke:#181818;stroke-width:0.5;" width="97" x="517.5" y="468.7891"/><text fill="#000000" font-family="sans-serif" font-size="14" lengthAdjust="spacing" textLength="74" x="529" y="490.3223">repositories</text><text fill="#000000" font-family="sans-serif" font-size="14" lengthAdjust="spacing" textLength="83" x="524.5" y="507.9316">:Repositories</text><rect fill="#E3E3E3" height="49.2188" rx="2.5" ry="2.5" style="stroke:#181818;stroke-width:0.5;" width="123" x="624.5" y="5"/><text fill="#000000" font-family="sans-serif" font-size="14" lengthAdjust="spacing" textLength="109" x="631.5" y="26.5332">brandRepository:</text><text fill="#000000" font-family="sans-serif" font-size="14" lengthAdjust="spacing" textLength="106" x="633" y="44.1426">BrandRepository</text><rect fill="#E3E3E3" height="49.2188" rx="2.5" ry="2.5" style="stroke:#181818;stroke-width:0.5;" width="123" x="624.5" y="468.7891"/><text fill="#000000" font-family="sans-serif" font-size="14" lengthAdjust="spacing" textLength="109" x="631.5" y="490.3223">brandRepository:</text><text fill="#000000" font-family="sans-serif" font-size="14" lengthAdjust="spacing" textLength="106" x="633" y="507.9316">BrandRepository</text><rect fill="#E3E3E3" height="31.6094" rx="2.5" ry="2.5" style="stroke:#181818;stroke-width:0.5;" width="141" x="757.5" y="22.6094"/><text fill="#000000" font-family="sans-serif" font-size="14" lengthAdjust="spacing" textLength="127" x="764.5" y="44.1426">RepositorySingleton</text><rect fill="#E3E3E3" height="31.6094" rx="2.5" ry="2.5" style="stroke:#181818;stroke-width:0.5;" width="141" x="757.5" y="468.7891"/><text fill="#000000" font-family="sans-serif" font-size="14" lengthAdjust="spacing" textLength="127" x="764.5" y="490.3223">RepositorySingleton</text><rect fill="#FFFFFF" height="331.5156" style="stroke:#181818;stroke-width:1.0;" width="10" x="376" y="120.2734"/><rect fill="#FFFFFF" height="223.4609" style="stroke:#181818;stroke-width:1.0;" width="10" x="381" y="183.9766"/><rect fill="#FFFFFF" height="30.3516" style="stroke:#181818;stroke-width:1.0;" width="10" x="561" y="280.0313"/><rect fill="#FFFFFF" height="30.3516" style="stroke:#181818;stroke-width:1.0;" width="10" x="681" y="340.7344"/><rect fill="#FFFFFF" height="30.3516" style="stroke:#181818;stroke-width:1.0;" width="10" x="823" y="219.3281"/><polygon fill="#181818" points="364,116.2734,374,120.2734,364,124.2734,368,120.2734" style="stroke:#181818;stroke-width:1.0;"/><line style="stroke:#181818;stroke-width:1.0;" x1="0" x2="370" y1="120.2734" y2="120.2734"/><text fill="#000000" font-family="sans-serif" font-size="13" font-weight="bold" lengthAdjust="spacing" textLength="14" x="7" y="99.0654">18</text><text fill="#000000" font-family="sans-serif" font-size="13" lengthAdjust="spacing" textLength="289" x="25" y="82.7139">registerVehicle(VIN, Brand, Model, Vehicle Platte,</text><text fill="#000000" font-family="sans-serif" font-size="13" lengthAdjust="spacing" textLength="339" x="25" y="99.0654">Tare Weight, Gross Weight, Current Km, Acquisition Date,</text><text fill="#000000" font-family="sans-serif" font-size="13" lengthAdjust="spacing" textLength="143" x="25" y="115.417">Maintenance Frequency)</text><path d="M281.5,135.2734 L452.5,135.2734 L452.5,143.625 L442.5,153.625 L281.5,153.625 L281.5,135.2734 " fill="#EEEEEE" style="stroke:#000000;stroke-width:1.5;"/><rect fill="none" height="287.1641" style="stroke:#000000;stroke-width:1.5;" width="627" x="281.5" y="135.2734"/><text fill="#000000" font-family="sans-serif" font-size="13" font-weight="bold" lengthAdjust="spacing" textLength="126" x="296.5" y="149.7686">Get Model by Brand</text><line style="stroke:#181818;stroke-width:1.0;" x1="386" x2="433" y1="170.9766" y2="170.9766"/><line style="stroke:#181818;stroke-width:1.0;" x1="433" x2="433" y1="170.9766" y2="183.9766"/><line style="stroke:#181818;stroke-width:1.0;" x1="392" x2="433" y1="183.9766" y2="183.9766"/><polygon fill="#181818" points="402,179.9766,392,183.9766,402,187.9766,398,183.9766" style="stroke:#181818;stroke-width:1.0;"/><text fill="#000000" font-family="sans-serif" font-size="13" font-weight="bold" lengthAdjust="spacing" textLength="14" x="398" y="166.1201">19</text><text fill="#000000" font-family="sans-serif" font-size="13" lengthAdjust="spacing" textLength="143" x="416" y="166.1201">getModelByBrand(brand)</text><polygon fill="#181818" points="811,215.3281,821,219.3281,811,223.3281,815,219.3281" style="stroke:#181818;stroke-width:1.0;"/><line style="stroke:#181818;stroke-width:1.0;" x1="391" x2="817" y1="219.3281" y2="219.3281"/><text fill="#000000" font-family="sans-serif" font-size="13" font-weight="bold" lengthAdjust="spacing" textLength="14" x="398" y="214.4717">20</text><text fill="#000000" font-family="sans-serif" font-size="13" lengthAdjust="spacing" textLength="75" x="416" y="214.4717">getInstance()</text><polygon fill="#181818" points="402,245.6797,392,249.6797,402,253.6797,398,249.6797" style="stroke:#181818;stroke-width:1.0;"/><line style="stroke:#181818;stroke-width:1.0;stroke-dasharray:2.0,2.0;" x1="396" x2="827" y1="249.6797" y2="249.6797"/><text fill="#000000" font-family="sans-serif" font-size="13" font-weight="bold" lengthAdjust="spacing" textLength="14" x="408" y="244.8232">21</text><text fill="#000000" font-family="sans-serif" font-size="13" lengthAdjust="spacing" textLength="67" x="426" y="244.8232">repositories</text><polygon fill="#181818" points="549,276.0313,559,280.0313,549,284.0313,553,280.0313" style="stroke:#181818;stroke-width:1.0;"/><line style="stroke:#181818;stroke-width:1.0;" x1="391" x2="555" y1="280.0313" y2="280.0313"/><text fill="#000000" font-family="sans-serif" font-size="13" font-weight="bold" lengthAdjust="spacing" textLength="14" x="398" y="275.1748">22</text><text fill="#000000" font-family="sans-serif" font-size="13" lengthAdjust="spacing" textLength="122" x="416" y="275.1748">getBrandRepository()</text><polygon fill="#181818" points="402,306.3828,392,310.3828,402,314.3828,398,310.3828" style="stroke:#181818;stroke-width:1.0;"/><line style="stroke:#181818;stroke-width:1.0;stroke-dasharray:2.0,2.0;" x1="396" x2="565" y1="310.3828" y2="310.3828"/><text fill="#000000" font-family="sans-serif" font-size="13" font-weight="bold" lengthAdjust="spacing" textLength="14" x="408" y="305.5264">23</text><text fill="#000000" font-family="sans-serif" font-size="13" lengthAdjust="spacing" textLength="96" x="426" y="305.5264">BrandRepository</text><polygon fill="#181818" points="669,336.7344,679,340.7344,669,344.7344,673,340.7344" style="stroke:#181818;stroke-width:1.0;"/><line style="stroke:#181818;stroke-width:1.0;" x1="391" x2="675" y1="340.7344" y2="340.7344"/><text fill="#000000" font-family="sans-serif" font-size="13" font-weight="bold" lengthAdjust="spacing" textLength="14" x="398" y="335.8779">24</text><text fill="#000000" font-family="sans-serif" font-size="13" lengthAdjust="spacing" textLength="143" x="416" y="335.8779">getModelByBrand(brand)</text><polygon fill="#181818" points="402,367.0859,392,371.0859,402,375.0859,398,371.0859" style="stroke:#181818;stroke-width:1.0;"/><line style="stroke:#181818;stroke-width:1.0;stroke-dasharray:2.0,2.0;" x1="396" x2="685" y1="371.0859" y2="371.0859"/><text fill="#000000" font-family="sans-serif" font-size="13" font-weight="bold" lengthAdjust="spacing" textLength="14" x="408" y="366.2295">25</text><text fill="#000000" font-family="sans-serif" font-size="13" lengthAdjust="spacing" textLength="56" x="426" y="366.2295">modelList</text><line style="stroke:#181818;stroke-width:1.0;stroke-dasharray:2.0,2.0;" x1="391" x2="433" y1="406.4375" y2="406.4375"/><line style="stroke:#181818;stroke-width:1.0;stroke-dasharray:2.0,2.0;" x1="433" x2="433" y1="406.4375" y2="419.4375"/><line style="stroke:#181818;stroke-width:1.0;stroke-dasharray:2.0,2.0;" x1="386" x2="433" y1="419.4375" y2="419.4375"/><polygon fill="#181818" points="396,415.4375,386,419.4375,396,423.4375,392,419.4375" style="stroke:#181818;stroke-width:1.0;"/><text fill="#000000" font-family="sans-serif" font-size="13" font-weight="bold" lengthAdjust="spacing" textLength="14" x="398" y="401.5811">26</text><text fill="#000000" font-family="sans-serif" font-size="13" lengthAdjust="spacing" textLength="56" x="416" y="401.5811">modelList</text><polygon fill="#181818" points="11,447.7891,1,451.7891,11,455.7891,7,451.7891" style="stroke:#181818;stroke-width:1.0;"/><line style="stroke:#181818;stroke-width:1.0;stroke-dasharray:2.0,2.0;" x1="5" x2="380" y1="451.7891" y2="451.7891"/><text fill="#000000" font-family="sans-serif" font-size="13" font-weight="bold" lengthAdjust="spacing" textLength="14" x="17" y="446.9326">19</text><text fill="#000000" font-family="sans-serif" font-size="13" lengthAdjust="spacing" textLength="56" x="35" y="446.9326">model list</text><!--SRC=[bPF1JkCm48RlUOeHfo8bXxsn5KA2hhP2b1M22YwzkEviQk6CmtZ2Ac-_ZaEJ9WqI-ERn_By_pupzgw5IiIgWSEJqdbs185nXuhkJKkbNbUEJr1Q1KOkYt1ud-BtQkN-6SlYhhCSa2M4nsfIA1CxcZvWRByZFk3VQuiAHiBCM-GoKXyNwSJKKC9RE6t5iq6yeoFjjL3oihjT3nPOLxRgyUhwXcs4awaQn956LEAgABJByk4YogyW2y_360V3i-VPFsgfJk7Sxj2by7C63LIAORcYj6E45JRwN59RilEzsYueP0-PTaSArVgjCkDyuWbygAk-L8K5If15-CxvLIBe-3tHQp7j8QIi4OUNigXAMA2q5REkMAecdpOeFw1-IeyJCcphcpMATphliuGqd9dsfdapJyL2irlEMl3Iuimch2L7lFEMOVU0sPUyRtKbs-3Nh0tGp72tbgDrJi76Ikd2KPdtrnlCoWJGqE32CXDzenCc87ZB6baUOHMEy2WCx1VYfOSlwHPT-FZ1CMoG- -Ze_O-GoomPUO1kp4vF_]--></g></svg>