<?xml version="1.0" encoding="UTF-8" standalone="no"?><svg xmlns="http://www.w3.org/2000/svg" xmlns:xlink="http://www.w3.org/1999/xlink" contentStyleType="text/css" height="538px" preserveAspectRatio="none" style="width:1418px;height:538px;background:#FFFFFF;" version="1.1" viewBox="0 0 1418 538" width="1418px" zoomAndPan="magnify"><defs/><g><rect fill="#FFFFFF" height="237.8125" style="stroke:#181818;stroke-width:1.0;" width="10" x="430" y="87.5703"/><rect fill="#FFFFFF" height="37.3516" style="stroke:#181818;stroke-width:1.0;" width="10" x="430" y="428.6953"/><rect fill="#FFFFFF" height="30.3516" style="stroke:#181818;stroke-width:1.0;" width="10" x="564" y="143.2734"/><rect fill="#FFFFFF" height="30.3516" style="stroke:#181818;stroke-width:1.0;" width="10" x="669" y="203.9766"/><rect fill="#FFFFFF" height="30.3516" style="stroke:#181818;stroke-width:1.0;" width="10" x="669" y="264.6797"/><rect fill="#FFFFFF" height="103.3125" style="stroke:#181818;stroke-width:1.0;" width="10" x="907.5" y="325.3828"/><rect fill="#FFFFFF" height="32.6094" style="stroke:#181818;stroke-width:1.0;" width="10" x="1372.5" y="365.7344"/><rect fill="none" height="334.125" style="stroke:#000000;stroke-width:1.5;" width="1065" x="347.5" y="102.5703"/><line style="stroke:#181818;stroke-width:0.5;stroke-dasharray:5.0,5.0;" x1="434.5" x2="434.5" y1="55.2188" y2="484.0469"/><line style="stroke:#181818;stroke-width:0.5;stroke-dasharray:5.0,5.0;" x1="568.5" x2="568.5" y1="55.2188" y2="484.0469"/><line style="stroke:#181818;stroke-width:0.5;stroke-dasharray:5.0,5.0;" x1="673.5" x2="673.5" y1="55.2188" y2="484.0469"/><line style="stroke:#181818;stroke-width:0.5;stroke-dasharray:5.0,5.0;" x1="787.5" x2="787.5" y1="55.2188" y2="484.0469"/><line style="stroke:#181818;stroke-width:0.5;stroke-dasharray:5.0,5.0;" x1="912.5" x2="912.5" y1="55.2188" y2="484.0469"/><line style="stroke:#181818;stroke-width:0.5;stroke-dasharray:5.0,5.0;" x1="1377.5" x2="1377.5" y1="364.6875" y2="484.0469"/><rect fill="#E3E3E3" height="31.6094" rx="2.5" ry="2.5" style="stroke:#181818;stroke-width:0.5;" width="155" x="357.5" y="22.6094"/><text fill="#000000" font-family="sans-serif" font-size="14" lengthAdjust="spacing" textLength="141" x="364.5" y="44.1426">CreateTeamController</text><rect fill="#E3E3E3" height="31.6094" rx="2.5" ry="2.5" style="stroke:#181818;stroke-width:0.5;" width="155" x="357.5" y="483.0469"/><text fill="#000000" font-family="sans-serif" font-size="14" lengthAdjust="spacing" textLength="141" x="364.5" y="504.5801">CreateTeamController</text><rect fill="#E3E3E3" height="31.6094" rx="2.5" ry="2.5" style="stroke:#181818;stroke-width:0.5;" width="93" x="522.5" y="22.6094"/><text fill="#000000" font-family="sans-serif" font-size="14" lengthAdjust="spacing" textLength="79" x="529.5" y="44.1426">Repositories</text><rect fill="#E3E3E3" height="31.6094" rx="2.5" ry="2.5" style="stroke:#181818;stroke-width:0.5;" width="93" x="522.5" y="483.0469"/><text fill="#000000" font-family="sans-serif" font-size="14" lengthAdjust="spacing" textLength="79" x="529.5" y="504.5801">Repositories</text><rect fill="#E3E3E3" height="49.2188" rx="2.5" ry="2.5" style="stroke:#181818;stroke-width:0.5;" width="97" x="625.5" y="5"/><text fill="#000000" font-family="sans-serif" font-size="14" lengthAdjust="spacing" textLength="74" x="637" y="26.5332">repositories</text><text fill="#000000" font-family="sans-serif" font-size="14" lengthAdjust="spacing" textLength="83" x="632.5" y="44.1426">:Repositories</text><rect fill="#E3E3E3" height="49.2188" rx="2.5" ry="2.5" style="stroke:#181818;stroke-width:0.5;" width="97" x="625.5" y="483.0469"/><text fill="#000000" font-family="sans-serif" font-size="14" lengthAdjust="spacing" textLength="74" x="637" y="504.5801">repositories</text><text fill="#000000" font-family="sans-serif" font-size="14" lengthAdjust="spacing" textLength="83" x="632.5" y="522.1895">:Repositories</text><rect fill="#E3E3E3" height="49.2188" rx="2.5" ry="2.5" style="stroke:#181818;stroke-width:0.5;" width="111" x="732.5" y="5"/><text fill="#000000" font-family="sans-serif" font-size="14" lengthAdjust="spacing" textLength="97" x="739.5" y="26.5332">SkillRepository:</text><text fill="#000000" font-family="sans-serif" font-size="14" lengthAdjust="spacing" textLength="93" x="741.5" y="44.1426">SkillRepository</text><rect fill="#E3E3E3" height="49.2188" rx="2.5" ry="2.5" style="stroke:#181818;stroke-width:0.5;" width="111" x="732.5" y="483.0469"/><text fill="#000000" font-family="sans-serif" font-size="14" lengthAdjust="spacing" textLength="97" x="739.5" y="504.5801">SkillRepository:</text><text fill="#000000" font-family="sans-serif" font-size="14" lengthAdjust="spacing" textLength="93" x="741.5" y="522.1895">SkillRepository</text><rect fill="#E3E3E3" height="31.6094" rx="2.5" ry="2.5" style="stroke:#181818;stroke-width:0.5;" width="118" x="853.5" y="22.6094"/><text fill="#000000" font-family="sans-serif" font-size="14" lengthAdjust="spacing" textLength="104" x="860.5" y="44.1426">TeamRepository</text><rect fill="#E3E3E3" height="31.6094" rx="2.5" ry="2.5" style="stroke:#181818;stroke-width:0.5;" width="118" x="853.5" y="483.0469"/><text fill="#000000" font-family="sans-serif" font-size="14" lengthAdjust="spacing" textLength="104" x="860.5" y="504.5801">TeamRepository</text><rect fill="#E3E3E3" height="31.6094" rx="2.5" ry="2.5" style="stroke:#181818;stroke-width:0.5;" width="50" x="1352.5" y="483.0469"/><text fill="#000000" font-family="sans-serif" font-size="14" lengthAdjust="spacing" textLength="36" x="1359.5" y="504.5801">Team</text><rect fill="#FFFFFF" height="237.8125" style="stroke:#181818;stroke-width:1.0;" width="10" x="430" y="87.5703"/><rect fill="#FFFFFF" height="37.3516" style="stroke:#181818;stroke-width:1.0;" width="10" x="430" y="428.6953"/><rect fill="#FFFFFF" height="30.3516" style="stroke:#181818;stroke-width:1.0;" width="10" x="564" y="143.2734"/><rect fill="#FFFFFF" height="30.3516" style="stroke:#181818;stroke-width:1.0;" width="10" x="669" y="203.9766"/><rect fill="#FFFFFF" height="30.3516" style="stroke:#181818;stroke-width:1.0;" width="10" x="669" y="264.6797"/><rect fill="#FFFFFF" height="103.3125" style="stroke:#181818;stroke-width:1.0;" width="10" x="907.5" y="325.3828"/><rect fill="#FFFFFF" height="32.6094" style="stroke:#181818;stroke-width:1.0;" width="10" x="1372.5" y="365.7344"/><polygon fill="#181818" points="418,83.5703,428,87.5703,418,91.5703,422,87.5703" style="stroke:#181818;stroke-width:1.0;"/><line style="stroke:#181818;stroke-width:1.0;" x1="0" x2="424" y1="87.5703" y2="87.5703"/><text fill="#000000" font-family="sans-serif" font-size="13" font-weight="bold" lengthAdjust="spacing" textLength="14" x="7" y="82.7139">24</text><text fill="#000000" font-family="sans-serif" font-size="13" lengthAdjust="spacing" textLength="393" x="25" y="82.7139">generateProposal(List&lt;Collaborator&gt;, minTeamSize, maxTeamSize)</text><path d="M347.5,102.5703 L511.5,102.5703 L511.5,110.9219 L501.5,120.9219 L347.5,120.9219 L347.5,102.5703 " fill="#EEEEEE" style="stroke:#000000;stroke-width:1.5;"/><rect fill="none" height="334.125" style="stroke:#000000;stroke-width:1.5;" width="1065" x="347.5" y="102.5703"/><text fill="#000000" font-family="sans-serif" font-size="13" font-weight="bold" lengthAdjust="spacing" textLength="119" x="362.5" y="117.0654">Generate Proposal</text><polygon fill="#181818" points="552,139.2734,562,143.2734,552,147.2734,556,143.2734" style="stroke:#181818;stroke-width:1.0;"/><line style="stroke:#181818;stroke-width:1.0;" x1="440" x2="558" y1="143.2734" y2="143.2734"/><text fill="#000000" font-family="sans-serif" font-size="13" font-weight="bold" lengthAdjust="spacing" textLength="14" x="447" y="138.417">25</text><text fill="#000000" font-family="sans-serif" font-size="13" lengthAdjust="spacing" textLength="75" x="465" y="138.417">getInstance()</text><polygon fill="#181818" points="451,169.625,441,173.625,451,177.625,447,173.625" style="stroke:#181818;stroke-width:1.0;"/><line style="stroke:#181818;stroke-width:1.0;stroke-dasharray:2.0,2.0;" x1="445" x2="568" y1="173.625" y2="173.625"/><text fill="#000000" font-family="sans-serif" font-size="13" font-weight="bold" lengthAdjust="spacing" textLength="14" x="457" y="168.7686">26</text><text fill="#000000" font-family="sans-serif" font-size="13" lengthAdjust="spacing" textLength="67" x="475" y="168.7686">repositories</text><polygon fill="#181818" points="657,199.9766,667,203.9766,657,207.9766,661,203.9766" style="stroke:#181818;stroke-width:1.0;"/><line style="stroke:#181818;stroke-width:1.0;" x1="440" x2="663" y1="203.9766" y2="203.9766"/><text fill="#000000" font-family="sans-serif" font-size="13" font-weight="bold" lengthAdjust="spacing" textLength="14" x="447" y="199.1201">27</text><text fill="#000000" font-family="sans-serif" font-size="13" lengthAdjust="spacing" textLength="120" x="465" y="199.1201">getTeamRepository()</text><polygon fill="#181818" points="451,230.3281,441,234.3281,451,238.3281,447,234.3281" style="stroke:#181818;stroke-width:1.0;"/><line style="stroke:#181818;stroke-width:1.0;stroke-dasharray:2.0,2.0;" x1="445" x2="673" y1="234.3281" y2="234.3281"/><text fill="#000000" font-family="sans-serif" font-size="13" font-weight="bold" lengthAdjust="spacing" textLength="14" x="457" y="229.4717">28</text><text fill="#000000" font-family="sans-serif" font-size="13" lengthAdjust="spacing" textLength="91" x="475" y="229.4717">teamRepository</text><polygon fill="#181818" points="657,260.6797,667,264.6797,657,268.6797,661,264.6797" style="stroke:#181818;stroke-width:1.0;"/><line style="stroke:#181818;stroke-width:1.0;" x1="440" x2="663" y1="264.6797" y2="264.6797"/><text fill="#000000" font-family="sans-serif" font-size="13" font-weight="bold" lengthAdjust="spacing" textLength="14" x="447" y="259.8232">29</text><text fill="#000000" font-family="sans-serif" font-size="13" lengthAdjust="spacing" textLength="157" x="465" y="259.8232">getCollaboratorRepository()</text><polygon fill="#181818" points="451,291.0313,441,295.0313,451,299.0313,447,295.0313" style="stroke:#181818;stroke-width:1.0;"/><line style="stroke:#181818;stroke-width:1.0;stroke-dasharray:2.0,2.0;" x1="445" x2="673" y1="295.0313" y2="295.0313"/><text fill="#000000" font-family="sans-serif" font-size="13" font-weight="bold" lengthAdjust="spacing" textLength="14" x="457" y="290.1748">30</text><text fill="#000000" font-family="sans-serif" font-size="13" lengthAdjust="spacing" textLength="129" x="475" y="290.1748">collaboratorRepository</text><polygon fill="#181818" points="895.5,321.3828,905.5,325.3828,895.5,329.3828,899.5,325.3828" style="stroke:#181818;stroke-width:1.0;"/><line style="stroke:#181818;stroke-width:1.0;" x1="435" x2="901.5" y1="325.3828" y2="325.3828"/><text fill="#000000" font-family="sans-serif" font-size="13" font-weight="bold" lengthAdjust="spacing" textLength="14" x="442" y="320.5264">31</text><text fill="#000000" font-family="sans-serif" font-size="13" lengthAdjust="spacing" textLength="393" x="460" y="320.5264">generateProposal(List&lt;Collaborator&gt;, minTeamSize, maxTeamSize)</text><polygon fill="#181818" points="1340.5,351.7344,1350.5,355.7344,1340.5,359.7344,1344.5,355.7344" style="stroke:#181818;stroke-width:1.0;"/><line style="stroke:#181818;stroke-width:1.0;" x1="917.5" x2="1346.5" y1="355.7344" y2="355.7344"/><text fill="#000000" font-family="sans-serif" font-size="13" font-weight="bold" lengthAdjust="spacing" textLength="14" x="924.5" y="350.8779">32</text><text fill="#000000" font-family="sans-serif" font-size="13" lengthAdjust="spacing" textLength="393" x="942.5" y="350.8779">generateProposal(List&lt;Collaborator&gt;, minTeamSize, maxTeamSize)</text><rect fill="#E3E3E3" height="31.6094" rx="2.5" ry="2.5" style="stroke:#181818;stroke-width:0.5;" width="50" x="1352.5" y="333.3828"/><text fill="#000000" font-family="sans-serif" font-size="14" lengthAdjust="spacing" textLength="36" x="1359.5" y="354.916">Team</text><polygon fill="#181818" points="928.5,394.3438,918.5,398.3438,928.5,402.3438,924.5,398.3438" style="stroke:#181818;stroke-width:1.0;"/><line style="stroke:#181818;stroke-width:1.0;stroke-dasharray:2.0,2.0;" x1="922.5" x2="1376.5" y1="398.3438" y2="398.3438"/><text fill="#000000" font-family="sans-serif" font-size="13" font-weight="bold" lengthAdjust="spacing" textLength="14" x="934.5" y="393.4873">33</text><text fill="#000000" font-family="sans-serif" font-size="13" lengthAdjust="spacing" textLength="29" x="952.5" y="393.4873">team</text><polygon fill="#181818" points="451,424.6953,441,428.6953,451,432.6953,447,428.6953" style="stroke:#181818;stroke-width:1.0;"/><line style="stroke:#181818;stroke-width:1.0;stroke-dasharray:2.0,2.0;" x1="445" x2="911.5" y1="428.6953" y2="428.6953"/><text fill="#000000" font-family="sans-serif" font-size="13" font-weight="bold" lengthAdjust="spacing" textLength="14" x="457" y="423.8389">34</text><text fill="#000000" font-family="sans-serif" font-size="13" lengthAdjust="spacing" textLength="29" x="475" y="423.8389">team</text><polygon fill="#181818" points="11,462.0469,1,466.0469,11,470.0469,7,466.0469" style="stroke:#181818;stroke-width:1.0;"/><line style="stroke:#181818;stroke-width:1.0;stroke-dasharray:2.0,2.0;" x1="5" x2="434" y1="466.0469" y2="466.0469"/><text fill="#000000" font-family="sans-serif" font-size="13" font-weight="bold" lengthAdjust="spacing" textLength="14" x="17" y="461.1904">35</text><text fill="#000000" font-family="sans-serif" font-size="13" lengthAdjust="spacing" textLength="29" x="35" y="461.1904">team</text><!--SRC=[hLCzRy8m4DtzAqvT2eWiLIU4a2g6gX830aQM8ro3HM97jcbBVtrjGpuSXwfIyP0evtVlthsxw2CN9Ieie912fWSb2mAZJiHqVLDYUiICrkQS4oXA3OeiRmFq0VVoauiCtZ7Nn9WD6vxo4eM1XxaYDBGXBEPI62NpdDG3e8RvPhK8eIigfUP6AaxQG-h0USrTKID5cA5Q6LinYGYMYvTDcB4-yZnlU2TRqOdul4wCCJpPsgTYHmgUdXc3PERrmmGo4gHiXqibBHppmO9hCvtRFd4dxOLKip4KN3W7rloRx0T-LHz3XgdX7pRzOWVOaobvAk7rIWiLB_ENrV75hOWUXxmcyoQq7LHAWs6GLvVhipP0kjF7dbnRdq3R_21rJtylKpNY9dLHxhnfqcxfzvED17kMHg49g6vfZAbYKUrvtabSsalvkyZWzh6IUTt40arwy9kh1stoIsWCsh_TUWujEbxJVW_2SVn_uLizrIjVHy9YZQ2EYAkiqUX-lvyBCVTm4ufwTelKLbwZswAQINXuPu2RU1TZ8xhc-229lNzFaoGe485_0000]--></g></svg>