<?xml version="1.0" encoding="UTF-8" standalone="no"?><svg xmlns="http://www.w3.org/2000/svg" xmlns:xlink="http://www.w3.org/1999/xlink" contentStyleType="text/css" height="1818px" preserveAspectRatio="none" style="width:834px;height:1818px;background:#FFFFFF;" version="1.1" viewBox="0 0 834 1818" width="834px" zoomAndPan="magnify"><defs/><g><!--class AssignSkillUI--><g id="elem_AssignSkillUI"><rect codeLine="5" fill="#F1F1F1" height="48" id="AssignSkillUI" rx="2.5" ry="2.5" style="stroke:#181818;stroke-width:0.5;" width="111" x="355" y="7"/><ellipse cx="370" cy="23" fill="#ADD1B2" rx="11" ry="11" style="stroke:#181818;stroke-width:1.0;"/><path d="M372.7656,18.875 Q372.9219,18.6563 373.1094,18.5469 Q373.2969,18.4375 373.5156,18.4375 Q373.8906,18.4375 374.125,18.7031 Q374.3594,18.9531 374.3594,19.5625 L374.3594,21.0156 Q374.3594,21.625 374.125,21.8906 Q373.8906,22.1563 373.5156,22.1563 Q373.1719,22.1563 372.9688,21.9531 Q372.7656,21.7656 372.6563,21.25 Q372.6094,20.8906 372.4219,20.7031 Q372.0938,20.3281 371.4844,20.1094 Q370.875,19.8906 370.25,19.8906 Q369.4844,19.8906 368.8438,20.2188 Q368.2188,20.5469 367.7188,21.2969 Q367.2344,22.0469 367.2344,23.0781 L367.2344,24.1719 Q367.2344,25.4063 368.125,26.2344 Q369.0156,27.0469 370.6094,27.0469 Q371.5469,27.0469 372.2031,26.7969 Q372.5938,26.6406 373.0156,26.2031 Q373.2813,25.9375 373.4219,25.8594 Q373.5781,25.7813 373.7813,25.7813 Q374.1094,25.7813 374.3594,26.0469 Q374.625,26.2969 374.625,26.6406 Q374.625,26.9844 374.2813,27.3906 Q373.7813,27.9688 372.9844,28.2969 Q371.9063,28.75 370.6094,28.75 Q369.0938,28.75 367.8906,28.125 Q366.9063,27.625 366.2188,26.5625 Q365.5313,25.4844 365.5313,24.2031 L365.5313,23.0469 Q365.5313,21.7188 366.1406,20.5781 Q366.7656,19.4219 367.8594,18.8125 Q368.9531,18.1875 370.1875,18.1875 Q370.9219,18.1875 371.5625,18.3594 Q372.2188,18.5156 372.7656,18.875 Z " fill="#000000"/><text fill="#000000" font-family="sans-serif" font-size="14" lengthAdjust="spacing" textLength="79" x="384" y="28.7285">AssignSkillUI</text><line style="stroke:#181818;stroke-width:0.5;" x1="356" x2="465" y1="39" y2="39"/><line style="stroke:#181818;stroke-width:0.5;" x1="356" x2="465" y1="47" y2="47"/></g><!--class AssignSkillController--><g id="elem_AssignSkillController"><rect codeLine="8" fill="#F1F1F1" height="136.0469" id="AssignSkillController" rx="2.5" ry="2.5" style="stroke:#181818;stroke-width:0.5;" width="327" x="247" y="116"/><ellipse cx="341.75" cy="132" fill="#ADD1B2" rx="11" ry="11" style="stroke:#181818;stroke-width:1.0;"/><path d="M344.5156,127.875 Q344.6719,127.6563 344.8594,127.5469 Q345.0469,127.4375 345.2656,127.4375 Q345.6406,127.4375 345.875,127.7031 Q346.1094,127.9531 346.1094,128.5625 L346.1094,130.0156 Q346.1094,130.625 345.875,130.8906 Q345.6406,131.1563 345.2656,131.1563 Q344.9219,131.1563 344.7188,130.9531 Q344.5156,130.7656 344.4063,130.25 Q344.3594,129.8906 344.1719,129.7031 Q343.8438,129.3281 343.2344,129.1094 Q342.625,128.8906 342,128.8906 Q341.2344,128.8906 340.5938,129.2188 Q339.9688,129.5469 339.4688,130.2969 Q338.9844,131.0469 338.9844,132.0781 L338.9844,133.1719 Q338.9844,134.4063 339.875,135.2344 Q340.7656,136.0469 342.3594,136.0469 Q343.2969,136.0469 343.9531,135.7969 Q344.3438,135.6406 344.7656,135.2031 Q345.0313,134.9375 345.1719,134.8594 Q345.3281,134.7813 345.5313,134.7813 Q345.8594,134.7813 346.1094,135.0469 Q346.375,135.2969 346.375,135.6406 Q346.375,135.9844 346.0313,136.3906 Q345.5313,136.9688 344.7344,137.2969 Q343.6563,137.75 342.3594,137.75 Q340.8438,137.75 339.6406,137.125 Q338.6563,136.625 337.9688,135.5625 Q337.2813,134.4844 337.2813,133.2031 L337.2813,132.0469 Q337.2813,130.7188 337.8906,129.5781 Q338.5156,128.4219 339.6094,127.8125 Q340.7031,127.1875 341.9375,127.1875 Q342.6719,127.1875 343.3125,127.3594 Q343.9688,127.5156 344.5156,127.875 Z " fill="#000000"/><text fill="#000000" font-family="sans-serif" font-size="14" lengthAdjust="spacing" textLength="129" x="362.25" y="137.7285">AssignSkillController</text><line style="stroke:#181818;stroke-width:0.5;" x1="248" x2="573" y1="148" y2="148"/><rect fill="none" height="6" style="stroke:#C82930;stroke-width:1.0;" width="6" x="255" y="159.3047"/><text fill="#000000" font-family="sans-serif" font-size="14" lengthAdjust="spacing" textLength="196" x="267" y="166.5332">skillRepository : SkillRepository</text><rect fill="none" height="6" style="stroke:#C82930;stroke-width:1.0;" width="6" x="255" y="176.9141"/><text fill="#000000" font-family="sans-serif" font-size="14" lengthAdjust="spacing" textLength="301" x="267" y="184.1426">collaboratorRepository : CollaboratorRepository</text><line style="stroke:#181818;stroke-width:0.5;" x1="248" x2="573" y1="191.2188" y2="191.2188"/><ellipse cx="258" cy="205.5234" fill="#84BE84" rx="3" ry="3" style="stroke:#038048;stroke-width:1.0;"/><text fill="#000000" font-family="sans-serif" font-size="14" lengthAdjust="spacing" textLength="174" x="267" y="209.752">assignSkill(skill : Skill) : void</text><ellipse cx="258" cy="223.1328" fill="#84BE84" rx="3" ry="3" style="stroke:#038048;stroke-width:1.0;"/><text fill="#000000" font-family="sans-serif" font-size="14" lengthAdjust="spacing" textLength="134" x="267" y="227.3613">getSkill () : List&lt;Skill&gt;</text><ellipse cx="258" cy="240.7422" fill="#84BE84" rx="3" ry="3" style="stroke:#038048;stroke-width:1.0;"/><text fill="#000000" font-family="sans-serif" font-size="14" lengthAdjust="spacing" textLength="240" x="267" y="244.9707">getCollaborator () : List&lt;Collaborator&gt;</text></g><!--class Repositories--><g id="elem_Repositories"><rect codeLine="16" fill="#F1F1F1" height="171.2656" id="Repositories" rx="2.5" ry="2.5" style="stroke:#181818;stroke-width:0.5;" width="360" x="230.5" y="330"/><ellipse cx="366.75" cy="346" fill="#ADD1B2" rx="11" ry="11" style="stroke:#181818;stroke-width:1.0;"/><path d="M369.5156,341.875 Q369.6719,341.6563 369.8594,341.5469 Q370.0469,341.4375 370.2656,341.4375 Q370.6406,341.4375 370.875,341.7031 Q371.1094,341.9531 371.1094,342.5625 L371.1094,344.0156 Q371.1094,344.625 370.875,344.8906 Q370.6406,345.1563 370.2656,345.1563 Q369.9219,345.1563 369.7188,344.9531 Q369.5156,344.7656 369.4063,344.25 Q369.3594,343.8906 369.1719,343.7031 Q368.8438,343.3281 368.2344,343.1094 Q367.625,342.8906 367,342.8906 Q366.2344,342.8906 365.5938,343.2188 Q364.9688,343.5469 364.4688,344.2969 Q363.9844,345.0469 363.9844,346.0781 L363.9844,347.1719 Q363.9844,348.4063 364.875,349.2344 Q365.7656,350.0469 367.3594,350.0469 Q368.2969,350.0469 368.9531,349.7969 Q369.3438,349.6406 369.7656,349.2031 Q370.0313,348.9375 370.1719,348.8594 Q370.3281,348.7813 370.5313,348.7813 Q370.8594,348.7813 371.1094,349.0469 Q371.375,349.2969 371.375,349.6406 Q371.375,349.9844 371.0313,350.3906 Q370.5313,350.9688 369.7344,351.2969 Q368.6563,351.75 367.3594,351.75 Q365.8438,351.75 364.6406,351.125 Q363.6563,350.625 362.9688,349.5625 Q362.2813,348.4844 362.2813,347.2031 L362.2813,346.0469 Q362.2813,344.7188 362.8906,343.5781 Q363.5156,342.4219 364.6094,341.8125 Q365.7031,341.1875 366.9375,341.1875 Q367.6719,341.1875 368.3125,341.3594 Q368.9688,341.5156 369.5156,341.875 Z " fill="#000000"/><text fill="#000000" font-family="sans-serif" font-size="14" lengthAdjust="spacing" textLength="79" x="387.25" y="351.7285">Repositories</text><line style="stroke:#181818;stroke-width:0.5;" x1="231.5" x2="589.5" y1="362" y2="362"/><rect fill="none" height="6" style="stroke:#C82930;stroke-width:1.0;" width="6" x="238.5" y="373.3047"/><text fill="#000000" font-family="sans-serif" font-size="14" lengthAdjust="spacing" textLength="144" x="250.5" y="380.5332">instance : Repositories</text><rect fill="none" height="6" style="stroke:#C82930;stroke-width:1.0;" width="6" x="238.5" y="390.9141"/><text fill="#000000" font-family="sans-serif" font-size="14" lengthAdjust="spacing" textLength="196" x="250.5" y="398.1426">skillRepository : SkillRepository</text><rect fill="none" height="6" style="stroke:#C82930;stroke-width:1.0;" width="6" x="238.5" y="408.5234"/><text fill="#000000" font-family="sans-serif" font-size="14" lengthAdjust="spacing" textLength="301" x="250.5" y="415.752">collaboratorRepository : CollaboratorRepository</text><line style="stroke:#181818;stroke-width:0.5;" x1="231.5" x2="589.5" y1="422.8281" y2="422.8281"/><rect fill="#F24D5C" height="6" style="stroke:#C82930;stroke-width:1.0;" width="6" x="238.5" y="434.1328"/><text fill="#000000" font-family="sans-serif" font-size="14" lengthAdjust="spacing" textLength="89" x="250.5" y="441.3613">Repositories()</text><ellipse cx="241.5" cy="454.7422" fill="#84BE84" rx="3" ry="3" style="stroke:#038048;stroke-width:1.0;"/><text fill="#000000" font-family="sans-serif" font-size="14" lengthAdjust="spacing" textLength="174" x="250.5" y="458.9707">getInstance() : Repositories</text><ellipse cx="241.5" cy="472.3516" fill="#84BE84" rx="3" ry="3" style="stroke:#038048;stroke-width:1.0;"/><text fill="#000000" font-family="sans-serif" font-size="14" lengthAdjust="spacing" textLength="334" x="250.5" y="476.5801">getCollaboratorRepository() : CollaboratorRepository</text><ellipse cx="241.5" cy="489.9609" fill="#84BE84" rx="3" ry="3" style="stroke:#038048;stroke-width:1.0;"/><text fill="#000000" font-family="sans-serif" font-size="14" lengthAdjust="spacing" textLength="228" x="250.5" y="494.1895">getSkillRepository() : SkillRepository</text></g><!--class CollaboratorRepository--><g id="elem_CollaboratorRepository"><rect codeLine="26" fill="#F1F1F1" height="206.4844" id="CollaboratorRepository" rx="2.5" ry="2.5" style="stroke:#181818;stroke-width:0.5;" width="409" x="26" y="579"/><ellipse cx="153.25" cy="595" fill="#ADD1B2" rx="11" ry="11" style="stroke:#181818;stroke-width:1.0;"/><path d="M156.0156,590.875 Q156.1719,590.6563 156.3594,590.5469 Q156.5469,590.4375 156.7656,590.4375 Q157.1406,590.4375 157.375,590.7031 Q157.6094,590.9531 157.6094,591.5625 L157.6094,593.0156 Q157.6094,593.625 157.375,593.8906 Q157.1406,594.1563 156.7656,594.1563 Q156.4219,594.1563 156.2188,593.9531 Q156.0156,593.7656 155.9063,593.25 Q155.8594,592.8906 155.6719,592.7031 Q155.3438,592.3281 154.7344,592.1094 Q154.125,591.8906 153.5,591.8906 Q152.7344,591.8906 152.0938,592.2188 Q151.4688,592.5469 150.9688,593.2969 Q150.4844,594.0469 150.4844,595.0781 L150.4844,596.1719 Q150.4844,597.4063 151.375,598.2344 Q152.2656,599.0469 153.8594,599.0469 Q154.7969,599.0469 155.4531,598.7969 Q155.8438,598.6406 156.2656,598.2031 Q156.5313,597.9375 156.6719,597.8594 Q156.8281,597.7813 157.0313,597.7813 Q157.3594,597.7813 157.6094,598.0469 Q157.875,598.2969 157.875,598.6406 Q157.875,598.9844 157.5313,599.3906 Q157.0313,599.9688 156.2344,600.2969 Q155.1563,600.75 153.8594,600.75 Q152.3438,600.75 151.1406,600.125 Q150.1563,599.625 149.4688,598.5625 Q148.7813,597.4844 148.7813,596.2031 L148.7813,595.0469 Q148.7813,593.7188 149.3906,592.5781 Q150.0156,591.4219 151.1094,590.8125 Q152.2031,590.1875 153.4375,590.1875 Q154.1719,590.1875 154.8125,590.3594 Q155.4688,590.5156 156.0156,590.875 Z " fill="#000000"/><text fill="#000000" font-family="sans-serif" font-size="14" lengthAdjust="spacing" textLength="146" x="173.75" y="600.7285">CollaboratorRepository</text><line style="stroke:#181818;stroke-width:0.5;" x1="27" x2="434" y1="611" y2="611"/><rect fill="none" height="6" style="stroke:#C82930;stroke-width:1.0;" width="6" x="34" y="622.3047"/><text fill="#000000" font-family="sans-serif" font-size="14" lengthAdjust="spacing" textLength="225" x="46" y="629.5332">collaboratorList : List&lt;Collaborator&gt;</text><line style="stroke:#181818;stroke-width:0.5;" x1="27" x2="434" y1="636.6094" y2="636.6094"/><ellipse cx="37" cy="650.9141" fill="#84BE84" rx="3" ry="3" style="stroke:#038048;stroke-width:1.0;"/><text fill="#000000" font-family="sans-serif" font-size="14" lengthAdjust="spacing" textLength="156" x="46" y="655.1426">CollaboratorRepository()</text><ellipse cx="37" cy="694.9375" fill="#84BE84" rx="3" ry="3" style="stroke:#038048;stroke-width:1.0;"/><text fill="#000000" font-family="sans-serif" font-size="14" lengthAdjust="spacing" textLength="383" x="46" y="672.752">create(name : String, birthdate : Date, contactMobile : String,</text><text fill="#000000" font-family="sans-serif" font-size="14" lengthAdjust="spacing" textLength="380" x="46" y="690.3613">email : String, address : String, zipCode : String, city : String,</text><text fill="#000000" font-family="sans-serif" font-size="14" lengthAdjust="spacing" textLength="332" x="46" y="707.9707">documentType : String, identificationNumber : String,</text><text fill="#000000" font-family="sans-serif" font-size="14" lengthAdjust="spacing" textLength="339" x="46" y="725.5801">admissionDate : Date, taxpayerNumber : int, job : Job)</text><ellipse cx="37" cy="738.9609" fill="#84BE84" rx="3" ry="3" style="stroke:#038048;stroke-width:1.0;"/><text fill="#000000" font-family="sans-serif" font-size="14" lengthAdjust="spacing" textLength="173" x="46" y="743.1895">checkForDuplicates() : void</text><ellipse cx="37" cy="756.5703" fill="#84BE84" rx="3" ry="3" style="stroke:#038048;stroke-width:1.0;"/><text fill="#000000" font-family="sans-serif" font-size="14" lengthAdjust="spacing" textLength="225" x="46" y="760.7988">addCollaborator(collaborator) : void</text><ellipse cx="37" cy="774.1797" fill="#84BE84" rx="3" ry="3" style="stroke:#038048;stroke-width:1.0;"/><text fill="#000000" font-family="sans-serif" font-size="14" lengthAdjust="spacing" textLength="258" x="46" y="778.4082">getCollaboratorList() : List&lt;Collaborator&gt;</text></g><!--class SkillRepository--><g id="elem_SkillRepository"><rect codeLine="35" fill="#F1F1F1" height="118.4375" id="SkillRepository" rx="2.5" ry="2.5" style="stroke:#181818;stroke-width:0.5;" width="260" x="555.5" y="623"/><ellipse cx="634.75" cy="639" fill="#ADD1B2" rx="11" ry="11" style="stroke:#181818;stroke-width:1.0;"/><path d="M637.5156,634.875 Q637.6719,634.6563 637.8594,634.5469 Q638.0469,634.4375 638.2656,634.4375 Q638.6406,634.4375 638.875,634.7031 Q639.1094,634.9531 639.1094,635.5625 L639.1094,637.0156 Q639.1094,637.625 638.875,637.8906 Q638.6406,638.1563 638.2656,638.1563 Q637.9219,638.1563 637.7188,637.9531 Q637.5156,637.7656 637.4063,637.25 Q637.3594,636.8906 637.1719,636.7031 Q636.8438,636.3281 636.2344,636.1094 Q635.625,635.8906 635,635.8906 Q634.2344,635.8906 633.5938,636.2188 Q632.9688,636.5469 632.4688,637.2969 Q631.9844,638.0469 631.9844,639.0781 L631.9844,640.1719 Q631.9844,641.4063 632.875,642.2344 Q633.7656,643.0469 635.3594,643.0469 Q636.2969,643.0469 636.9531,642.7969 Q637.3438,642.6406 637.7656,642.2031 Q638.0313,641.9375 638.1719,641.8594 Q638.3281,641.7813 638.5313,641.7813 Q638.8594,641.7813 639.1094,642.0469 Q639.375,642.2969 639.375,642.6406 Q639.375,642.9844 639.0313,643.3906 Q638.5313,643.9688 637.7344,644.2969 Q636.6563,644.75 635.3594,644.75 Q633.8438,644.75 632.6406,644.125 Q631.6563,643.625 630.9688,642.5625 Q630.2813,641.4844 630.2813,640.2031 L630.2813,639.0469 Q630.2813,637.7188 630.8906,636.5781 Q631.5156,635.4219 632.6094,634.8125 Q633.7031,634.1875 634.9375,634.1875 Q635.6719,634.1875 636.3125,634.3594 Q636.9688,634.5156 637.5156,634.875 Z " fill="#000000"/><text fill="#000000" font-family="sans-serif" font-size="14" lengthAdjust="spacing" textLength="93" x="655.25" y="644.7285">SkillRepository</text><line style="stroke:#181818;stroke-width:0.5;" x1="556.5" x2="814.5" y1="655" y2="655"/><rect fill="none" height="6" style="stroke:#C82930;stroke-width:1.0;" width="6" x="563.5" y="666.3047"/><text fill="#000000" font-family="sans-serif" font-size="14" lengthAdjust="spacing" textLength="120" x="575.5" y="673.5332">skillList : List&lt;Skill&gt;</text><line style="stroke:#181818;stroke-width:0.5;" x1="556.5" x2="814.5" y1="680.6094" y2="680.6094"/><ellipse cx="566.5" cy="694.9141" fill="#84BE84" rx="3" ry="3" style="stroke:#038048;stroke-width:1.0;"/><text fill="#000000" font-family="sans-serif" font-size="14" lengthAdjust="spacing" textLength="234" x="575.5" y="699.1426">createSkill(designation : String) : Skill</text><ellipse cx="566.5" cy="712.5234" fill="#84BE84" rx="3" ry="3" style="stroke:#038048;stroke-width:1.0;"/><text fill="#000000" font-family="sans-serif" font-size="14" lengthAdjust="spacing" textLength="173" x="575.5" y="716.752">checkForDuplicates() : void</text><ellipse cx="566.5" cy="730.1328" fill="#84BE84" rx="3" ry="3" style="stroke:#038048;stroke-width:1.0;"/><text fill="#000000" font-family="sans-serif" font-size="14" lengthAdjust="spacing" textLength="116" x="575.5" y="734.3613">addSkill(skill): void</text></g><!--class Collaborator--><g id="elem_Collaborator"><rect codeLine="42" fill="#F1F1F1" height="664.3281" id="Collaborator" rx="2.5" ry="2.5" style="stroke:#181818;stroke-width:0.5;" width="447" x="7" y="863"/><ellipse cx="187.25" cy="879" fill="#ADD1B2" rx="11" ry="11" style="stroke:#181818;stroke-width:1.0;"/><path d="M190.0156,874.875 Q190.1719,874.6563 190.3594,874.5469 Q190.5469,874.4375 190.7656,874.4375 Q191.1406,874.4375 191.375,874.7031 Q191.6094,874.9531 191.6094,875.5625 L191.6094,877.0156 Q191.6094,877.625 191.375,877.8906 Q191.1406,878.1563 190.7656,878.1563 Q190.4219,878.1563 190.2188,877.9531 Q190.0156,877.7656 189.9063,877.25 Q189.8594,876.8906 189.6719,876.7031 Q189.3438,876.3281 188.7344,876.1094 Q188.125,875.8906 187.5,875.8906 Q186.7344,875.8906 186.0938,876.2188 Q185.4688,876.5469 184.9688,877.2969 Q184.4844,878.0469 184.4844,879.0781 L184.4844,880.1719 Q184.4844,881.4063 185.375,882.2344 Q186.2656,883.0469 187.8594,883.0469 Q188.7969,883.0469 189.4531,882.7969 Q189.8438,882.6406 190.2656,882.2031 Q190.5313,881.9375 190.6719,881.8594 Q190.8281,881.7813 191.0313,881.7813 Q191.3594,881.7813 191.6094,882.0469 Q191.875,882.2969 191.875,882.6406 Q191.875,882.9844 191.5313,883.3906 Q191.0313,883.9688 190.2344,884.2969 Q189.1563,884.75 187.8594,884.75 Q186.3438,884.75 185.1406,884.125 Q184.1563,883.625 183.4688,882.5625 Q182.7813,881.4844 182.7813,880.2031 L182.7813,879.0469 Q182.7813,877.7188 183.3906,876.5781 Q184.0156,875.4219 185.1094,874.8125 Q186.2031,874.1875 187.4375,874.1875 Q188.1719,874.1875 188.8125,874.3594 Q189.4688,874.5156 190.0156,874.875 Z " fill="#000000"/><text fill="#000000" font-family="sans-serif" font-size="14" lengthAdjust="spacing" textLength="78" x="207.75" y="884.7285">Collaborator</text><line style="stroke:#181818;stroke-width:0.5;" x1="8" x2="453" y1="895" y2="895"/><rect fill="none" height="6" style="stroke:#C82930;stroke-width:1.0;" width="6" x="15" y="906.3047"/><text fill="#000000" font-family="sans-serif" font-size="14" lengthAdjust="spacing" textLength="84" x="27" y="913.5332">name : String</text><rect fill="none" height="6" style="stroke:#C82930;stroke-width:1.0;" width="6" x="15" y="923.9141"/><text fill="#000000" font-family="sans-serif" font-size="14" lengthAdjust="spacing" textLength="98" x="27" y="931.1426">birthdate : Date</text><rect fill="none" height="6" style="stroke:#C82930;stroke-width:1.0;" width="6" x="15" y="941.5234"/><text fill="#000000" font-family="sans-serif" font-size="14" lengthAdjust="spacing" textLength="136" x="27" y="948.752">contactMobile : String</text><rect fill="none" height="6" style="stroke:#C82930;stroke-width:1.0;" width="6" x="15" y="959.1328"/><text fill="#000000" font-family="sans-serif" font-size="14" lengthAdjust="spacing" textLength="82" x="27" y="966.3613">email : String</text><rect fill="none" height="6" style="stroke:#C82930;stroke-width:1.0;" width="6" x="15" y="976.7422"/><text fill="#000000" font-family="sans-serif" font-size="14" lengthAdjust="spacing" textLength="135" x="27" y="983.9707">admissionDate : Date</text><rect fill="none" height="6" style="stroke:#C82930;stroke-width:1.0;" width="6" x="15" y="994.3516"/><text fill="#000000" font-family="sans-serif" font-size="14" lengthAdjust="spacing" textLength="53" x="27" y="1001.5801">job : Job</text><rect fill="none" height="6" style="stroke:#C82930;stroke-width:1.0;" width="6" x="15" y="1011.9609"/><text fill="#000000" font-family="sans-serif" font-size="14" lengthAdjust="spacing" textLength="130" x="27" y="1019.1895">taxpayerNumber : int</text><rect fill="none" height="6" style="stroke:#C82930;stroke-width:1.0;" width="6" x="15" y="1029.5703"/><text fill="#000000" font-family="sans-serif" font-size="14" lengthAdjust="spacing" textLength="143" x="27" y="1036.7988">documentType : String</text><rect fill="none" height="6" style="stroke:#C82930;stroke-width:1.0;" width="6" x="15" y="1047.1797"/><text fill="#000000" font-family="sans-serif" font-size="14" lengthAdjust="spacing" textLength="177" x="27" y="1054.4082">identificationNumber : String</text><line style="stroke:#181818;stroke-width:0.5;" x1="8" x2="453" y1="1061.4844" y2="1061.4844"/><ellipse cx="18" cy="1102.2031" fill="#84BE84" rx="3" ry="3" style="stroke:#038048;stroke-width:1.0;"/><text fill="#000000" font-family="sans-serif" font-size="14" lengthAdjust="spacing" textLength="421" x="27" y="1080.0176">Collaborator(name : String, birthdate : Date, contactMobile : String,</text><text fill="#000000" font-family="sans-serif" font-size="14" lengthAdjust="spacing" textLength="380" x="27" y="1097.627">email : String, address : String, zipCode : String, city : String,</text><text fill="#000000" font-family="sans-serif" font-size="14" lengthAdjust="spacing" textLength="332" x="27" y="1115.2363">documentType : String, identificationNumber : String,</text><text fill="#000000" font-family="sans-serif" font-size="14" lengthAdjust="spacing" textLength="339" x="27" y="1132.8457">admissionDate : Date, taxpayerNumber : int, job : Job)</text><ellipse cx="18" cy="1146.2266" fill="#84BE84" rx="3" ry="3" style="stroke:#038048;stroke-width:1.0;"/><text fill="#000000" font-family="sans-serif" font-size="14" lengthAdjust="spacing" textLength="216" x="27" y="1150.4551">verifyFilled(collaborator) : boolean</text><ellipse cx="18" cy="1163.8359" fill="#84BE84" rx="3" ry="3" style="stroke:#038048;stroke-width:1.0;"/><text fill="#000000" font-family="sans-serif" font-size="14" lengthAdjust="spacing" textLength="245" x="27" y="1168.0645">verifyNineDigits(collaborator) : boolean</text><ellipse cx="18" cy="1181.4453" fill="#84BE84" rx="3" ry="3" style="stroke:#038048;stroke-width:1.0;"/><text fill="#000000" font-family="sans-serif" font-size="14" lengthAdjust="spacing" textLength="216" x="27" y="1185.6738">verifyEmail(collaborator) : boolean</text><ellipse cx="18" cy="1199.0547" fill="#84BE84" rx="3" ry="3" style="stroke:#038048;stroke-width:1.0;"/><text fill="#000000" font-family="sans-serif" font-size="14" lengthAdjust="spacing" textLength="235" x="27" y="1203.2832">verifyZipCode(collaborator) : boolean</text><ellipse cx="18" cy="1216.6641" fill="#84BE84" rx="3" ry="3" style="stroke:#038048;stroke-width:1.0;"/><text fill="#000000" font-family="sans-serif" font-size="14" lengthAdjust="spacing" textLength="211" x="27" y="1220.8926">verifyBirth(collaborator) : boolean</text><ellipse cx="18" cy="1234.2734" fill="#84BE84" rx="3" ry="3" style="stroke:#038048;stroke-width:1.0;"/><text fill="#000000" font-family="sans-serif" font-size="14" lengthAdjust="spacing" textLength="310" x="27" y="1238.502">verifyIdentificationNumber(collaborator) : boolean</text><ellipse cx="18" cy="1251.8828" fill="#84BE84" rx="3" ry="3" style="stroke:#038048;stroke-width:1.0;"/><text fill="#000000" font-family="sans-serif" font-size="14" lengthAdjust="spacing" textLength="276" x="27" y="1256.1113">verifyAdmissionDate(collaborator) : boolean</text><ellipse cx="18" cy="1269.4922" fill="#84BE84" rx="3" ry="3" style="stroke:#038048;stroke-width:1.0;"/><text fill="#000000" font-family="sans-serif" font-size="14" lengthAdjust="spacing" textLength="219" x="27" y="1273.7207">setAddress(address : String) : void</text><ellipse cx="18" cy="1287.1016" fill="#84BE84" rx="3" ry="3" style="stroke:#038048;stroke-width:1.0;"/><text fill="#000000" font-family="sans-serif" font-size="14" lengthAdjust="spacing" textLength="296" x="27" y="1291.3301">setAdmissionDate(admissionDate : Date) : void</text><ellipse cx="18" cy="1304.7109" fill="#84BE84" rx="3" ry="3" style="stroke:#038048;stroke-width:1.0;"/><text fill="#000000" font-family="sans-serif" font-size="14" lengthAdjust="spacing" textLength="222" x="27" y="1308.9395">setBirthdate(birthdate : Date) : void</text><ellipse cx="18" cy="1322.3203" fill="#84BE84" rx="3" ry="3" style="stroke:#038048;stroke-width:1.0;"/><text fill="#000000" font-family="sans-serif" font-size="14" lengthAdjust="spacing" textLength="161" x="27" y="1326.5488">setCity(city : String) : void</text><ellipse cx="18" cy="1339.9297" fill="#84BE84" rx="3" ry="3" style="stroke:#038048;stroke-width:1.0;"/><text fill="#000000" font-family="sans-serif" font-size="14" lengthAdjust="spacing" textLength="225" x="27" y="1344.1582">setContactMobile(mobile : int) : void</text><ellipse cx="18" cy="1357.5391" fill="#84BE84" rx="3" ry="3" style="stroke:#038048;stroke-width:1.0;"/><text fill="#000000" font-family="sans-serif" font-size="14" lengthAdjust="spacing" textLength="306" x="27" y="1361.7676">setDocumentType(documentType : String) : void</text><ellipse cx="18" cy="1375.1484" fill="#84BE84" rx="3" ry="3" style="stroke:#038048;stroke-width:1.0;"/><text fill="#000000" font-family="sans-serif" font-size="14" lengthAdjust="spacing" textLength="183" x="27" y="1379.377">setEmail(email : String) : void</text><ellipse cx="18" cy="1392.7578" fill="#84BE84" rx="3" ry="3" style="stroke:#038048;stroke-width:1.0;"/><text fill="#000000" font-family="sans-serif" font-size="14" lengthAdjust="spacing" textLength="372" x="27" y="1396.9863">setIdentificationNumber(identificationNumber : String) : void</text><ellipse cx="18" cy="1410.3672" fill="#84BE84" rx="3" ry="3" style="stroke:#038048;stroke-width:1.0;"/><text fill="#000000" font-family="sans-serif" font-size="14" lengthAdjust="spacing" textLength="142" x="27" y="1414.5957">setJob(job : Job) : void</text><ellipse cx="18" cy="1427.9766" fill="#84BE84" rx="3" ry="3" style="stroke:#038048;stroke-width:1.0;"/><text fill="#000000" font-family="sans-serif" font-size="14" lengthAdjust="spacing" textLength="187" x="27" y="1432.2051">setName(name : String) : void</text><ellipse cx="18" cy="1445.5859" fill="#84BE84" rx="3" ry="3" style="stroke:#038048;stroke-width:1.0;"/><text fill="#000000" font-family="sans-serif" font-size="14" lengthAdjust="spacing" textLength="305" x="27" y="1449.8145">setTaxpayerNumber(taxpayerNumber : int) : void</text><ellipse cx="18" cy="1463.1953" fill="#84BE84" rx="3" ry="3" style="stroke:#038048;stroke-width:1.0;"/><text fill="#000000" font-family="sans-serif" font-size="14" lengthAdjust="spacing" textLength="217" x="27" y="1467.4238">setZipCode(zipcode : String) : void</text><ellipse cx="18" cy="1480.8047" fill="#84BE84" rx="3" ry="3" style="stroke:#038048;stroke-width:1.0;"/><text fill="#000000" font-family="sans-serif" font-size="14" lengthAdjust="spacing" textLength="165" x="27" y="1485.0332">getTaxpayerNumber() : int</text><ellipse cx="18" cy="1498.4141" fill="#84BE84" rx="3" ry="3" style="stroke:#038048;stroke-width:1.0;"/><text fill="#000000" font-family="sans-serif" font-size="14" lengthAdjust="spacing" textLength="115" x="27" y="1502.6426">getName() : String</text><ellipse cx="18" cy="1516.0234" fill="#84BE84" rx="3" ry="3" style="stroke:#038048;stroke-width:1.0;"/><text fill="#000000" font-family="sans-serif" font-size="14" lengthAdjust="spacing" textLength="129" x="27" y="1520.252">getBirthdate() : Date</text></g><!--class Address--><g id="elem_Address"><rect codeLine="77" fill="#F1F1F1" height="206.4844" id="Address" rx="2.5" ry="2.5" style="stroke:#181818;stroke-width:0.5;" width="158" x="151.5" y="1605"/><ellipse cx="200.25" cy="1621" fill="#ADD1B2" rx="11" ry="11" style="stroke:#181818;stroke-width:1.0;"/><path d="M203.0156,1616.875 Q203.1719,1616.6563 203.3594,1616.5469 Q203.5469,1616.4375 203.7656,1616.4375 Q204.1406,1616.4375 204.375,1616.7031 Q204.6094,1616.9531 204.6094,1617.5625 L204.6094,1619.0156 Q204.6094,1619.625 204.375,1619.8906 Q204.1406,1620.1563 203.7656,1620.1563 Q203.4219,1620.1563 203.2188,1619.9531 Q203.0156,1619.7656 202.9063,1619.25 Q202.8594,1618.8906 202.6719,1618.7031 Q202.3438,1618.3281 201.7344,1618.1094 Q201.125,1617.8906 200.5,1617.8906 Q199.7344,1617.8906 199.0938,1618.2188 Q198.4688,1618.5469 197.9688,1619.2969 Q197.4844,1620.0469 197.4844,1621.0781 L197.4844,1622.1719 Q197.4844,1623.4063 198.375,1624.2344 Q199.2656,1625.0469 200.8594,1625.0469 Q201.7969,1625.0469 202.4531,1624.7969 Q202.8438,1624.6406 203.2656,1624.2031 Q203.5313,1623.9375 203.6719,1623.8594 Q203.8281,1623.7813 204.0313,1623.7813 Q204.3594,1623.7813 204.6094,1624.0469 Q204.875,1624.2969 204.875,1624.6406 Q204.875,1624.9844 204.5313,1625.3906 Q204.0313,1625.9688 203.2344,1626.2969 Q202.1563,1626.75 200.8594,1626.75 Q199.3438,1626.75 198.1406,1626.125 Q197.1563,1625.625 196.4688,1624.5625 Q195.7813,1623.4844 195.7813,1622.2031 L195.7813,1621.0469 Q195.7813,1619.7188 196.3906,1618.5781 Q197.0156,1617.4219 198.1094,1616.8125 Q199.2031,1616.1875 200.4375,1616.1875 Q201.1719,1616.1875 201.8125,1616.3594 Q202.4688,1616.5156 203.0156,1616.875 Z " fill="#000000"/><text fill="#000000" font-family="sans-serif" font-size="14" lengthAdjust="spacing" textLength="52" x="220.75" y="1626.7285">Address</text><line style="stroke:#181818;stroke-width:0.5;" x1="152.5" x2="308.5" y1="1637" y2="1637"/><rect fill="none" height="6" style="stroke:#C82930;stroke-width:1.0;" width="6" x="159.5" y="1648.3047"/><text fill="#000000" font-family="sans-serif" font-size="14" lengthAdjust="spacing" textLength="100" x="171.5" y="1655.5332">address : String</text><rect fill="none" height="6" style="stroke:#C82930;stroke-width:1.0;" width="6" x="159.5" y="1665.9141"/><text fill="#000000" font-family="sans-serif" font-size="14" lengthAdjust="spacing" textLength="70" x="171.5" y="1673.1426">city : String</text><rect fill="none" height="6" style="stroke:#C82930;stroke-width:1.0;" width="6" x="159.5" y="1683.5234"/><text fill="#000000" font-family="sans-serif" font-size="14" lengthAdjust="spacing" textLength="97" x="171.5" y="1690.752">zipcode : String</text><line style="stroke:#181818;stroke-width:0.5;" x1="152.5" x2="308.5" y1="1697.8281" y2="1697.8281"/><ellipse cx="162.5" cy="1712.1328" fill="#84BE84" rx="3" ry="3" style="stroke:#038048;stroke-width:1.0;"/><text fill="#000000" font-family="sans-serif" font-size="14" lengthAdjust="spacing" textLength="119" x="171.5" y="1716.3613">setAddress() : void</text><ellipse cx="162.5" cy="1729.7422" fill="#84BE84" rx="3" ry="3" style="stroke:#038048;stroke-width:1.0;"/><text fill="#000000" font-family="sans-serif" font-size="14" lengthAdjust="spacing" textLength="91" x="171.5" y="1733.9707">setCity() : void</text><ellipse cx="162.5" cy="1747.3516" fill="#84BE84" rx="3" ry="3" style="stroke:#038048;stroke-width:1.0;"/><text fill="#000000" font-family="sans-serif" font-size="14" lengthAdjust="spacing" textLength="120" x="171.5" y="1751.5801">setZipCode() : void</text><ellipse cx="162.5" cy="1764.9609" fill="#84BE84" rx="3" ry="3" style="stroke:#038048;stroke-width:1.0;"/><text fill="#000000" font-family="sans-serif" font-size="14" lengthAdjust="spacing" textLength="131" x="171.5" y="1769.1895">getAddress() : String</text><ellipse cx="162.5" cy="1782.5703" fill="#84BE84" rx="3" ry="3" style="stroke:#038048;stroke-width:1.0;"/><text fill="#000000" font-family="sans-serif" font-size="14" lengthAdjust="spacing" textLength="103" x="171.5" y="1786.7988">getCity() : String</text><ellipse cx="162.5" cy="1800.1797" fill="#84BE84" rx="3" ry="3" style="stroke:#038048;stroke-width:1.0;"/><text fill="#000000" font-family="sans-serif" font-size="14" lengthAdjust="spacing" textLength="132" x="171.5" y="1804.4082">getZipCode() : String</text></g><!--class Skill--><g id="elem_Skill"><rect codeLine="89" fill="#F1F1F1" height="118.4375" id="Skill" rx="2.5" ry="2.5" style="stroke:#181818;stroke-width:0.5;" width="284" x="543.5" y="1136"/><ellipse cx="668.75" cy="1152" fill="#ADD1B2" rx="11" ry="11" style="stroke:#181818;stroke-width:1.0;"/><path d="M671.5156,1147.875 Q671.6719,1147.6563 671.8594,1147.5469 Q672.0469,1147.4375 672.2656,1147.4375 Q672.6406,1147.4375 672.875,1147.7031 Q673.1094,1147.9531 673.1094,1148.5625 L673.1094,1150.0156 Q673.1094,1150.625 672.875,1150.8906 Q672.6406,1151.1563 672.2656,1151.1563 Q671.9219,1151.1563 671.7188,1150.9531 Q671.5156,1150.7656 671.4063,1150.25 Q671.3594,1149.8906 671.1719,1149.7031 Q670.8438,1149.3281 670.2344,1149.1094 Q669.625,1148.8906 669,1148.8906 Q668.2344,1148.8906 667.5938,1149.2188 Q666.9688,1149.5469 666.4688,1150.2969 Q665.9844,1151.0469 665.9844,1152.0781 L665.9844,1153.1719 Q665.9844,1154.4063 666.875,1155.2344 Q667.7656,1156.0469 669.3594,1156.0469 Q670.2969,1156.0469 670.9531,1155.7969 Q671.3438,1155.6406 671.7656,1155.2031 Q672.0313,1154.9375 672.1719,1154.8594 Q672.3281,1154.7813 672.5313,1154.7813 Q672.8594,1154.7813 673.1094,1155.0469 Q673.375,1155.2969 673.375,1155.6406 Q673.375,1155.9844 673.0313,1156.3906 Q672.5313,1156.9688 671.7344,1157.2969 Q670.6563,1157.75 669.3594,1157.75 Q667.8438,1157.75 666.6406,1157.125 Q665.6563,1156.625 664.9688,1155.5625 Q664.2813,1154.4844 664.2813,1153.2031 L664.2813,1152.0469 Q664.2813,1150.7188 664.8906,1149.5781 Q665.5156,1148.4219 666.6094,1147.8125 Q667.7031,1147.1875 668.9375,1147.1875 Q669.6719,1147.1875 670.3125,1147.3594 Q670.9688,1147.5156 671.5156,1147.875 Z " fill="#000000"/><text fill="#000000" font-family="sans-serif" font-size="14" lengthAdjust="spacing" textLength="25" x="689.25" y="1157.7285">Skill</text><line style="stroke:#181818;stroke-width:0.5;" x1="544.5" x2="826.5" y1="1168" y2="1168"/><rect fill="none" height="6" style="stroke:#C82930;stroke-width:1.0;" width="6" x="551.5" y="1179.3047"/><text fill="#000000" font-family="sans-serif" font-size="14" lengthAdjust="spacing" textLength="71" x="563.5" y="1186.5332">title : String</text><line style="stroke:#181818;stroke-width:0.5;" x1="544.5" x2="826.5" y1="1193.6094" y2="1193.6094"/><ellipse cx="554.5" cy="1207.9141" fill="#84BE84" rx="3" ry="3" style="stroke:#038048;stroke-width:1.0;"/><text fill="#000000" font-family="sans-serif" font-size="14" lengthAdjust="spacing" textLength="157" x="563.5" y="1212.1426">Skill(designation : String)</text><ellipse cx="554.5" cy="1225.5234" fill="#84BE84" rx="3" ry="3" style="stroke:#038048;stroke-width:1.0;"/><text fill="#000000" font-family="sans-serif" font-size="14" lengthAdjust="spacing" textLength="176" x="563.5" y="1229.752">verifyFilled(skill : Skill) : void</text><ellipse cx="554.5" cy="1243.1328" fill="#84BE84" rx="3" ry="3" style="stroke:#038048;stroke-width:1.0;"/><text fill="#000000" font-family="sans-serif" font-size="14" lengthAdjust="spacing" textLength="258" x="563.5" y="1247.3613">verifySpecialCharacters(skill : Skill) : void</text></g><!--link AssignSkillUI to AssignSkillController--><g id="link_AssignSkillUI_AssignSkillController"><path codeLine="96" d="M410.5,55.26 C410.5,70.29 410.5,90.72 410.5,110.84 " fill="none" id="AssignSkillUI-to-AssignSkillController" style="stroke:#181818;stroke-width:1.0;stroke-dasharray:7.0,7.0;"/><polygon fill="#181818" points="410.5,115.95,414.5,106.95,410.5,110.95,406.5,106.95,410.5,115.95" style="stroke:#181818;stroke-width:1.0;"/></g><!--link AssignSkillController to Repositories--><g id="link_AssignSkillController_Repositories"><path codeLine="97" d="M410.5,252.31 C410.5,274.9 410.5,300.48 410.5,324.53 " fill="none" id="AssignSkillController-to-Repositories" style="stroke:#181818;stroke-width:1.0;stroke-dasharray:7.0,7.0;"/><polygon fill="#181818" points="410.5,329.64,414.5,320.64,410.5,324.64,406.5,320.64,410.5,329.64" style="stroke:#181818;stroke-width:1.0;"/><text fill="#000000" font-family="sans-serif" font-size="13" lengthAdjust="spacing" textLength="67" x="411.5" y="296.4951">repositories</text></g><!--link Repositories to Repositories--><g id="link_Repositories_Repositories"><path codeLine="98" d="M590.87,395.66 C611.85,399.32 625.5,405.93 625.5,415.5 C625.5,424.24 614.1,430.52 596.11,434.33 " fill="none" id="Repositories-to-Repositories" style="stroke:#181818;stroke-width:1.0;"/><polygon fill="#181818" points="590.87,435.34,600.4625,437.5725,595.7804,434.3979,598.9551,429.7158,590.87,435.34" style="stroke:#181818;stroke-width:1.0;"/><text fill="#000000" font-family="sans-serif" font-size="13" lengthAdjust="spacing" textLength="49" x="631.5" y="420.9951">instance</text></g><!--link Repositories to CollaboratorRepository--><g id="link_Repositories_CollaboratorRepository"><path codeLine="99" d="M352.8,501.28 C336.96,524.56 319.57,550.11 303.01,574.45 " fill="none" id="Repositories-to-CollaboratorRepository" style="stroke:#181818;stroke-width:1.0;"/><polygon fill="#181818" points="300.15,578.66,308.516,573.463,302.9596,574.524,301.8985,568.9676,300.15,578.66" style="stroke:#181818;stroke-width:1.0;"/><text fill="#000000" font-family="sans-serif" font-size="13" lengthAdjust="spacing" textLength="129" x="332.5" y="545.4951">collaboratorRepository</text><text fill="#000000" font-family="sans-serif" font-size="13" lengthAdjust="spacing" textLength="7" x="298.0079" y="567.9737">1</text></g><!--link Repositories to SkillRepository--><g id="link_Repositories_SkillRepository"><path codeLine="100" d="M498.65,501.28 C538.36,539.48 584.41,583.77 620.85,618.82 " fill="none" id="Repositories-to-SkillRepository" style="stroke:#181818;stroke-width:1.0;"/><polygon fill="#181818" points="624.8,622.62,621.0979,613.4934,621.2008,619.1493,615.5449,619.2522,624.8,622.62" style="stroke:#181818;stroke-width:1.0;"/><text fill="#000000" font-family="sans-serif" font-size="13" lengthAdjust="spacing" textLength="85" x="549.5" y="545.4951">skillRepository</text><text fill="#000000" font-family="sans-serif" font-size="13" lengthAdjust="spacing" textLength="7" x="610.3769" y="612.3193">1</text></g><!--link AssignSkillController to CollaboratorRepository--><g id="link_AssignSkillController_CollaboratorRepository"><path codeLine="101" d="M258.04,252.19 C171.98,290.12 81.5,330 81.5,330 C81.5,330 81.5,501 81.5,501 C81.5,501 110.23,535.7 142.45,574.63 " fill="none" id="AssignSkillController-to-CollaboratorRepository" style="stroke:#181818;stroke-width:1.0;stroke-dasharray:7.0,7.0;"/><polygon fill="#181818" points="145.99,578.9,143.3428,569.4136,142.806,575.0449,137.1746,574.508,145.99,578.9" style="stroke:#181818;stroke-width:1.0;"/><text fill="#000000" font-family="sans-serif" font-size="13" lengthAdjust="spacing" textLength="129" x="82.5" y="420.9951">collaboratorRepository</text></g><!--link AssignSkillController to SkillRepository--><g id="link_AssignSkillController_SkillRepository"><path codeLine="102" d="M538.4,252.19 C610.6,290.12 686.5,330 686.5,330 C686.5,330 686.5,501 686.5,501 C686.5,501 686.14,565.49 685.85,617.27 " fill="none" id="AssignSkillController-to-SkillRepository" style="stroke:#181818;stroke-width:1.0;stroke-dasharray:7.0,7.0;"/><polygon fill="#181818" points="685.82,622.56,689.8714,613.583,685.8486,617.5601,681.8715,613.5373,685.82,622.56" style="stroke:#181818;stroke-width:1.0;"/><text fill="#000000" font-family="sans-serif" font-size="13" lengthAdjust="spacing" textLength="85" x="687.5" y="420.9951">skillRepository</text></g><!--link CollaboratorRepository to Collaborator--><g id="link_CollaboratorRepository_Collaborator"><path codeLine="103" d="M230.5,785.18 C230.5,807.3 230.5,831.85 230.5,857.62 " fill="none" id="CollaboratorRepository-to-Collaborator" style="stroke:#181818;stroke-width:1.0;"/><polygon fill="#181818" points="230.5,862.79,234.5,853.79,230.5,857.79,226.5,853.79,230.5,862.79" style="stroke:#181818;stroke-width:1.0;"/><text fill="#000000" font-family="sans-serif" font-size="13" lengthAdjust="spacing" textLength="74" x="231.5" y="829.4951">collaborators</text><text fill="#000000" font-family="sans-serif" font-size="13" lengthAdjust="spacing" textLength="5" x="225.4414" y="852.3117">*</text></g><!--link SkillRepository to Skill--><g id="link_SkillRepository_Skill"><path codeLine="104" d="M685.5,741.12 C685.5,837.75 685.5,1030.68 685.5,1130.66 " fill="none" id="SkillRepository-to-Skill" style="stroke:#181818;stroke-width:1.0;"/><polygon fill="#181818" points="685.5,1135.93,689.5,1126.93,685.5,1130.93,681.5,1126.93,685.5,1135.93" style="stroke:#181818;stroke-width:1.0;"/><text fill="#000000" font-family="sans-serif" font-size="13" lengthAdjust="spacing" textLength="23" x="686.5" y="829.4951">skill</text><text fill="#000000" font-family="sans-serif" font-size="13" lengthAdjust="spacing" textLength="5" x="680.1953" y="1125.2457">*</text></g><!--link Collaborator to Address--><g id="link_Collaborator_Address"><path codeLine="105" d="M230.5,1527.2 C230.5,1552.85 230.5,1577.37 230.5,1599.61 " fill="none" id="Collaborator-to-Address" style="stroke:#181818;stroke-width:1.0;"/><polygon fill="#181818" points="230.5,1604.62,234.5,1595.62,230.5,1599.62,226.5,1595.62,230.5,1604.62" style="stroke:#181818;stroke-width:1.0;"/><text fill="#000000" font-family="sans-serif" font-size="13" lengthAdjust="spacing" textLength="21" x="231.5" y="1571.4951">has</text><text fill="#000000" font-family="sans-serif" font-size="13" lengthAdjust="spacing" textLength="7" x="223.2539" y="1594.279">1</text></g><!--SRC=[vLSxRzim4DxrAuXCScC7w1eK0Hox0LAq6QfqAR9G4YEpfaX1PDAwHVzxJn95yINRxTeiiUw-EzxZknCbzvGtkCKrQd2nnnN9r84Hr992OLunaaW3a3jSYk-KL-WPCsbh6EL47Hg26i4EtKEI50nBYTPIqefdUyhObtlqA_aTKMm4LwrWZBG0GF2tGhAJVoQDa5I9ze2kKUPADAu0CvoB5eFCWM-YYjxg4k7fxBG_QVI_W1-lWfOQLn7LYr7QAJvIgTxrppUJtZx7WjdYcobf4mabqkHAkOHA5mHiRRtMsg9qCGZFhCw_5GUIkjSHzVa4CGLvJovwWrFUlLXx6pz-Kx6uix5sTePTtUFbxq-U2rZ7LRG4Av9oN7Tzo5GBB5-YdBPgLu82P5lujmJ2SOKBzKdab5d89qvgJ9bbYiko9P309Fb9cuqeRVS5LGVRHocAbvfmzTXDqWIZ9SZeCosmee8_lDGvJCgaVkAuh2bGMl2j7Qh2Fnfy8Aqne5mjqJUHmyyF8ZUPxqYnlnFjzgLXtH4TpTmnW5JiwgLsrSE9sNWzEJaKNkzrRySbOBVL6ZxJic6AIz9DT5yVKnd3AsDm8jCXLMijBBGooaOplmvdjCmdZbbNCVPefSiWBOorLgjC9_LphD-wBKxx_aEElvAMFX_keAMa3EYR2y48vWxq0LvXMrfH9S-2l-yASnRowr2Wix2tNMVEGjv7gdUMuTgkwb6B5OfsRdo77MlVSA8aQZtm9VLvuowH7cY75MjzO78xqZZr2Hr0Dq39rE5b2B578At7IG1s1T2jLPOqMgF0PA2BEqq1ADhJetKENC04fDCi-De7s0FkCWWWZyvufR5f2sn6XiCgAEnLu0AhmFd2tbYL3c_XaQYo6xqOz-5qgTJ4qglPvvc-DDYT7qH-h05ZunoQpJt8rVRZvMCyUNBRbrQvhqpp0b9K-M-JItJalHXRYiUkmGCmQqX1CTliuC9VADBA6Hi8qhtqNrtTn6_xIVmReCCx5-Lh-1Ynxg2ERhKAmEDzEWHUlBsOkr1UptnAn9ramGNSkv8VIUrl0vZtT3gAcRFwDDwujV02a8dlVJJATDVxivmJJ7dMPkvsM2R97m00]--></g></svg>