<?xml version="1.0" encoding="UTF-8" standalone="no"?><svg xmlns="http://www.w3.org/2000/svg" xmlns:xlink="http://www.w3.org/1999/xlink" contentStyleType="text/css" height="766px" preserveAspectRatio="none" style="width:1319px;height:766px;background:#FFFFFF;" version="1.1" viewBox="0 0 1319 766" width="1319px" zoomAndPan="magnify"><defs/><g><rect fill="#FFFFFF" height="629.2188" style="stroke:#181818;stroke-width:1.0;" width="10" x="22" y="65.2188"/><rect fill="#FFFFFF" height="30.3516" style="stroke:#181818;stroke-width:1.0;" width="10" x="386" y="87.5703"/><rect fill="#FFFFFF" height="91.0547" style="stroke:#181818;stroke-width:1.0;" width="10" x="386" y="206.9766"/><rect fill="#FFFFFF" height="91.0547" style="stroke:#181818;stroke-width:1.0;" width="10" x="386" y="374.8281"/><rect fill="#FFFFFF" height="30.3516" style="stroke:#181818;stroke-width:1.0;" width="10" x="386" y="664.0859"/><rect fill="#FFFFFF" height="79.0547" style="stroke:#181818;stroke-width:1.0;" width="10" x="539" y="127.9219"/><rect fill="#FFFFFF" height="76.7969" style="stroke:#181818;stroke-width:1.0;" width="10" x="539" y="298.0313"/><rect fill="#FFFFFF" height="30.3516" style="stroke:#181818;stroke-width:1.0;" width="10" x="539" y="465.8828"/><rect fill="#FFFFFF" height="30.3516" style="stroke:#181818;stroke-width:1.0;" width="10" x="539" y="633.7344"/><rect fill="#FFFFFF" height="137.5" style="stroke:#181818;stroke-width:1.0;" width="10" x="920.5" y="496.2344"/><rect fill="#FFFFFF" height="76.7969" style="stroke:#181818;stroke-width:1.0;" width="10" x="1134.5" y="526.5859"/><line style="stroke:#181818;stroke-width:0.5;stroke-dasharray:5.0,5.0;" x1="27" x2="27" y1="55.2188" y2="712.4375"/><line style="stroke:#181818;stroke-width:0.5;stroke-dasharray:5.0,5.0;" x1="391" x2="391" y1="55.2188" y2="712.4375"/><line style="stroke:#181818;stroke-width:0.5;stroke-dasharray:5.0,5.0;" x1="544" x2="544" y1="126.875" y2="712.4375"/><line style="stroke:#181818;stroke-width:0.5;stroke-dasharray:5.0,5.0;" x1="679" x2="679" y1="55.2188" y2="712.4375"/><line style="stroke:#181818;stroke-width:0.5;stroke-dasharray:5.0,5.0;" x1="786" x2="786" y1="55.2188" y2="712.4375"/><line style="stroke:#181818;stroke-width:0.5;stroke-dasharray:5.0,5.0;" x1="925" x2="925" y1="55.2188" y2="712.4375"/><line style="stroke:#181818;stroke-width:0.5;stroke-dasharray:5.0,5.0;" x1="1139.5" x2="1139.5" y1="55.2188" y2="712.4375"/><line style="stroke:#181818;stroke-width:0.5;stroke-dasharray:5.0,5.0;" x1="1255.5" x2="1255.5" y1="55.2188" y2="712.4375"/><rect fill="#E3E3E3" height="31.6094" rx="2.5" ry="2.5" style="stroke:#181818;stroke-width:0.5;" width="44" x="5" y="22.6094"/><text fill="#000000" font-family="sans-serif" font-size="14" lengthAdjust="spacing" textLength="30" x="12" y="44.1426">HRM</text><rect fill="#E3E3E3" height="31.6094" rx="2.5" ry="2.5" style="stroke:#181818;stroke-width:0.5;" width="44" x="5" y="711.4375"/><text fill="#000000" font-family="sans-serif" font-size="14" lengthAdjust="spacing" textLength="30" x="12" y="732.9707">HRM</text><rect fill="#E3E3E3" height="31.6094" rx="2.5" ry="2.5" style="stroke:#181818;stroke-width:0.5;" width="104" x="339" y="22.6094"/><text fill="#000000" font-family="sans-serif" font-size="14" lengthAdjust="spacing" textLength="90" x="346" y="44.1426">:AssignSkillsUI</text><rect fill="#E3E3E3" height="31.6094" rx="2.5" ry="2.5" style="stroke:#181818;stroke-width:0.5;" width="104" x="339" y="711.4375"/><text fill="#000000" font-family="sans-serif" font-size="14" lengthAdjust="spacing" textLength="90" x="346" y="732.9707">:AssignSkillsUI</text><rect fill="#E3E3E3" height="31.6094" rx="2.5" ry="2.5" style="stroke:#181818;stroke-width:0.5;" width="154" x="467" y="711.4375"/><text fill="#000000" font-family="sans-serif" font-size="14" lengthAdjust="spacing" textLength="140" x="474" y="732.9707">:AssignSkillsController</text><rect fill="#E3E3E3" height="31.6094" rx="2.5" ry="2.5" style="stroke:#181818;stroke-width:0.5;" width="97" x="631" y="22.6094"/><text fill="#000000" font-family="sans-serif" font-size="14" lengthAdjust="spacing" textLength="83" x="638" y="44.1426">:Repositories</text><rect fill="#E3E3E3" height="31.6094" rx="2.5" ry="2.5" style="stroke:#181818;stroke-width:0.5;" width="97" x="631" y="711.4375"/><text fill="#000000" font-family="sans-serif" font-size="14" lengthAdjust="spacing" textLength="83" x="638" y="732.9707">:Repositories</text><rect fill="#E3E3E3" height="49.2188" rx="2.5" ry="2.5" style="stroke:#181818;stroke-width:0.5;" width="97" x="738" y="5"/><text fill="#000000" font-family="sans-serif" font-size="14" lengthAdjust="spacing" textLength="74" x="749.5" y="26.5332">repositories</text><text fill="#000000" font-family="sans-serif" font-size="14" lengthAdjust="spacing" textLength="83" x="745" y="44.1426">:Repositories</text><rect fill="#E3E3E3" height="49.2188" rx="2.5" ry="2.5" style="stroke:#181818;stroke-width:0.5;" width="97" x="738" y="711.4375"/><text fill="#000000" font-family="sans-serif" font-size="14" lengthAdjust="spacing" textLength="74" x="749.5" y="732.9707">repositories</text><text fill="#000000" font-family="sans-serif" font-size="14" lengthAdjust="spacing" textLength="83" x="745" y="750.5801">:Repositories</text><rect fill="#E3E3E3" height="49.2188" rx="2.5" ry="2.5" style="stroke:#181818;stroke-width:0.5;" width="161" x="845" y="5"/><text fill="#000000" font-family="sans-serif" font-size="14" lengthAdjust="spacing" textLength="147" x="852" y="26.5332">collaboratorRepository:</text><text fill="#000000" font-family="sans-serif" font-size="14" lengthAdjust="spacing" textLength="146" x="852.5" y="44.1426">CollaboratorRepository</text><rect fill="#E3E3E3" height="49.2188" rx="2.5" ry="2.5" style="stroke:#181818;stroke-width:0.5;" width="161" x="845" y="711.4375"/><text fill="#000000" font-family="sans-serif" font-size="14" lengthAdjust="spacing" textLength="147" x="852" y="732.9707">collaboratorRepository:</text><text fill="#000000" font-family="sans-serif" font-size="14" lengthAdjust="spacing" textLength="146" x="852.5" y="750.5801">CollaboratorRepository</text><rect fill="#E3E3E3" height="31.6094" rx="2.5" ry="2.5" style="stroke:#181818;stroke-width:0.5;" width="96" x="1091.5" y="22.6094"/><text fill="#000000" font-family="sans-serif" font-size="14" lengthAdjust="spacing" textLength="82" x="1098.5" y="44.1426">:Collaborator</text><rect fill="#E3E3E3" height="31.6094" rx="2.5" ry="2.5" style="stroke:#181818;stroke-width:0.5;" width="96" x="1091.5" y="711.4375"/><text fill="#000000" font-family="sans-serif" font-size="14" lengthAdjust="spacing" textLength="82" x="1098.5" y="732.9707">:Collaborator</text><rect fill="#E3E3E3" height="49.2188" rx="2.5" ry="2.5" style="stroke:#181818;stroke-width:0.5;" width="116" x="1197.5" y="5"/><text fill="#000000" font-family="sans-serif" font-size="14" lengthAdjust="spacing" textLength="102" x="1204.5" y="26.5332">skillsRepository:</text><text fill="#000000" font-family="sans-serif" font-size="14" lengthAdjust="spacing" textLength="100" x="1205.5" y="44.1426">SkillsRepository</text><rect fill="#E3E3E3" height="49.2188" rx="2.5" ry="2.5" style="stroke:#181818;stroke-width:0.5;" width="116" x="1197.5" y="711.4375"/><text fill="#000000" font-family="sans-serif" font-size="14" lengthAdjust="spacing" textLength="102" x="1204.5" y="732.9707">skillsRepository:</text><text fill="#000000" font-family="sans-serif" font-size="14" lengthAdjust="spacing" textLength="100" x="1205.5" y="750.5801">SkillsRepository</text><rect fill="#FFFFFF" height="629.2188" style="stroke:#181818;stroke-width:1.0;" width="10" x="22" y="65.2188"/><rect fill="#FFFFFF" height="30.3516" style="stroke:#181818;stroke-width:1.0;" width="10" x="386" y="87.5703"/><rect fill="#FFFFFF" height="91.0547" style="stroke:#181818;stroke-width:1.0;" width="10" x="386" y="206.9766"/><rect fill="#FFFFFF" height="91.0547" style="stroke:#181818;stroke-width:1.0;" width="10" x="386" y="374.8281"/><rect fill="#FFFFFF" height="30.3516" style="stroke:#181818;stroke-width:1.0;" width="10" x="386" y="664.0859"/><rect fill="#FFFFFF" height="79.0547" style="stroke:#181818;stroke-width:1.0;" width="10" x="539" y="127.9219"/><rect fill="#FFFFFF" height="76.7969" style="stroke:#181818;stroke-width:1.0;" width="10" x="539" y="298.0313"/><rect fill="#FFFFFF" height="30.3516" style="stroke:#181818;stroke-width:1.0;" width="10" x="539" y="465.8828"/><rect fill="#FFFFFF" height="30.3516" style="stroke:#181818;stroke-width:1.0;" width="10" x="539" y="633.7344"/><rect fill="#FFFFFF" height="137.5" style="stroke:#181818;stroke-width:1.0;" width="10" x="920.5" y="496.2344"/><rect fill="#FFFFFF" height="76.7969" style="stroke:#181818;stroke-width:1.0;" width="10" x="1134.5" y="526.5859"/><polygon fill="#181818" points="374,83.5703,384,87.5703,374,91.5703,378,87.5703" style="stroke:#181818;stroke-width:1.0;"/><line style="stroke:#181818;stroke-width:1.0;" x1="32" x2="380" y1="87.5703" y2="87.5703"/><text fill="#000000" font-family="sans-serif" font-size="13" font-weight="bold" lengthAdjust="spacing" textLength="7" x="39" y="82.7139">1</text><text fill="#000000" font-family="sans-serif" font-size="13" lengthAdjust="spacing" textLength="222" x="50" y="82.7139">wants to assign skills to a collaborator</text><polygon fill="#181818" points="455,113.9219,465,117.9219,455,121.9219,459,117.9219" style="stroke:#181818;stroke-width:1.0;"/><line style="stroke:#181818;stroke-width:1.0;" x1="391" x2="461" y1="117.9219" y2="117.9219"/><text fill="#000000" font-family="sans-serif" font-size="13" font-weight="bold" lengthAdjust="spacing" textLength="7" x="398" y="113.0654">2</text><text fill="#000000" font-family="sans-serif" font-size="13" lengthAdjust="spacing" textLength="36" x="409" y="113.0654">create</text><rect fill="#E3E3E3" height="31.6094" rx="2.5" ry="2.5" style="stroke:#181818;stroke-width:0.5;" width="154" x="467" y="95.5703"/><text fill="#000000" font-family="sans-serif" font-size="14" lengthAdjust="spacing" textLength="140" x="474" y="117.1035">:AssignSkillsController</text><rect fill="none" height="41.4453" style="stroke:#000000;stroke-width:1.5;" width="160" x="464" y="138.1797"/><path d="M464,138.1797 L526,138.1797 L526,146.1797 L516,156.1797 L464,156.1797 L464,138.1797 " fill="#EEEEEE" style="stroke:#000000;stroke-width:2.0;"/><text fill="#000000" font-family="sans-serif" font-size="13" font-weight="bold" lengthAdjust="spacing" textLength="17" x="477" y="153.6748">ref</text><text fill="#000000" font-family="sans-serif" font-size="12" lengthAdjust="spacing" textLength="152" x="468" y="172.6367">Get Collaborator Repository</text><polygon fill="#181818" points="407,202.9766,397,206.9766,407,210.9766,403,206.9766" style="stroke:#181818;stroke-width:1.0;"/><line style="stroke:#181818;stroke-width:1.0;stroke-dasharray:2.0,2.0;" x1="401" x2="543" y1="206.9766" y2="206.9766"/><text fill="#000000" font-family="sans-serif" font-size="13" font-weight="bold" lengthAdjust="spacing" textLength="7" x="413" y="202.1201">3</text><text fill="#000000" font-family="sans-serif" font-size="13" lengthAdjust="spacing" textLength="88" x="424" y="202.1201">collaboratorList</text><polygon fill="#181818" points="43,233.3281,33,237.3281,43,241.3281,39,237.3281" style="stroke:#181818;stroke-width:1.0;"/><line style="stroke:#181818;stroke-width:1.0;stroke-dasharray:2.0,2.0;" x1="37" x2="385" y1="237.3281" y2="237.3281"/><text fill="#000000" font-family="sans-serif" font-size="13" font-weight="bold" lengthAdjust="spacing" textLength="7" x="49" y="232.4717">4</text><text fill="#000000" font-family="sans-serif" font-size="13" lengthAdjust="spacing" textLength="164" x="60" y="232.4717">asks to select a collaborator</text><polygon fill="#181818" points="374,263.6797,384,267.6797,374,271.6797,378,267.6797" style="stroke:#181818;stroke-width:1.0;"/><line style="stroke:#181818;stroke-width:1.0;" x1="32" x2="380" y1="267.6797" y2="267.6797"/><text fill="#000000" font-family="sans-serif" font-size="13" font-weight="bold" lengthAdjust="spacing" textLength="7" x="39" y="262.8232">5</text><text fill="#000000" font-family="sans-serif" font-size="13" lengthAdjust="spacing" textLength="124" x="50" y="262.8232">selects a collaborator</text><polygon fill="#181818" points="527,294.0313,537,298.0313,527,302.0313,531,298.0313" style="stroke:#181818;stroke-width:1.0;"/><line style="stroke:#181818;stroke-width:1.0;" x1="391" x2="533" y1="298.0313" y2="298.0313"/><text fill="#000000" font-family="sans-serif" font-size="13" font-weight="bold" lengthAdjust="spacing" textLength="7" x="398" y="293.1748">6</text><text fill="#000000" font-family="sans-serif" font-size="13" lengthAdjust="spacing" textLength="67" x="409" y="293.1748">collaborator</text><rect fill="none" height="41.4453" style="stroke:#000000;stroke-width:1.5;" width="160" x="464" y="306.0313"/><path d="M464,306.0313 L526,306.0313 L526,314.0313 L516,324.0313 L464,324.0313 L464,306.0313 " fill="#EEEEEE" style="stroke:#000000;stroke-width:2.0;"/><text fill="#000000" font-family="sans-serif" font-size="13" font-weight="bold" lengthAdjust="spacing" textLength="17" x="477" y="321.5264">ref</text><text fill="#000000" font-family="sans-serif" font-size="12" lengthAdjust="spacing" textLength="75" x="506.5" y="340.4883">Get Skills List</text><polygon fill="#181818" points="407,370.8281,397,374.8281,407,378.8281,403,374.8281" style="stroke:#181818;stroke-width:1.0;"/><line style="stroke:#181818;stroke-width:1.0;stroke-dasharray:2.0,2.0;" x1="401" x2="543" y1="374.8281" y2="374.8281"/><text fill="#000000" font-family="sans-serif" font-size="13" font-weight="bold" lengthAdjust="spacing" textLength="7" x="413" y="369.9717">7</text><text fill="#000000" font-family="sans-serif" font-size="13" lengthAdjust="spacing" textLength="51" x="424" y="369.9717">skillsList</text><polygon fill="#181818" points="43,401.1797,33,405.1797,43,409.1797,39,405.1797" style="stroke:#181818;stroke-width:1.0;"/><line style="stroke:#181818;stroke-width:1.0;stroke-dasharray:2.0,2.0;" x1="37" x2="385" y1="405.1797" y2="405.1797"/><text fill="#000000" font-family="sans-serif" font-size="13" font-weight="bold" lengthAdjust="spacing" textLength="7" x="49" y="400.3232">8</text><text fill="#000000" font-family="sans-serif" font-size="13" lengthAdjust="spacing" textLength="319" x="60" y="400.3232">displays available skills and asks to select one or more</text><polygon fill="#181818" points="374,431.5313,384,435.5313,374,439.5313,378,435.5313" style="stroke:#181818;stroke-width:1.0;"/><line style="stroke:#181818;stroke-width:1.0;" x1="32" x2="380" y1="435.5313" y2="435.5313"/><text fill="#000000" font-family="sans-serif" font-size="13" font-weight="bold" lengthAdjust="spacing" textLength="7" x="39" y="430.6748">9</text><text fill="#000000" font-family="sans-serif" font-size="13" lengthAdjust="spacing" textLength="137" x="50" y="430.6748">select the desired skills</text><polygon fill="#181818" points="527,461.8828,537,465.8828,527,469.8828,531,465.8828" style="stroke:#181818;stroke-width:1.0;"/><line style="stroke:#181818;stroke-width:1.0;" x1="391" x2="533" y1="465.8828" y2="465.8828"/><text fill="#000000" font-family="sans-serif" font-size="13" font-weight="bold" lengthAdjust="spacing" textLength="14" x="398" y="461.0264">10</text><text fill="#000000" font-family="sans-serif" font-size="13" lengthAdjust="spacing" textLength="102" x="416" y="461.0264">selectedSkillsList</text><polygon fill="#181818" points="908.5,492.2344,918.5,496.2344,908.5,500.2344,912.5,496.2344" style="stroke:#181818;stroke-width:1.0;"/><line style="stroke:#181818;stroke-width:1.0;" x1="544" x2="914.5" y1="496.2344" y2="496.2344"/><text fill="#000000" font-family="sans-serif" font-size="13" font-weight="bold" lengthAdjust="spacing" textLength="14" x="551" y="491.3779">11</text><text fill="#000000" font-family="sans-serif" font-size="13" lengthAdjust="spacing" textLength="254" x="569" y="491.3779">assignSkills(collaboratorID, selectedSkills[])</text><polygon fill="#181818" points="1122.5,522.5859,1132.5,526.5859,1122.5,530.5859,1126.5,526.5859" style="stroke:#181818;stroke-width:1.0;"/><line style="stroke:#181818;stroke-width:1.0;" x1="930.5" x2="1128.5" y1="526.5859" y2="526.5859"/><text fill="#000000" font-family="sans-serif" font-size="13" font-weight="bold" lengthAdjust="spacing" textLength="14" x="937.5" y="521.7295">12</text><text fill="#000000" font-family="sans-serif" font-size="13" lengthAdjust="spacing" textLength="167" x="955.5" y="521.7295">assignSkills(selectedSkills[])</text><rect fill="none" height="41.4453" style="stroke:#000000;stroke-width:1.5;" width="145" x="1088.5" y="534.5859"/><path d="M1088.5,534.5859 L1150.5,534.5859 L1150.5,542.5859 L1140.5,552.5859 L1088.5,552.5859 L1088.5,534.5859 " fill="#EEEEEE" style="stroke:#000000;stroke-width:2.0;"/><text fill="#000000" font-family="sans-serif" font-size="13" font-weight="bold" lengthAdjust="spacing" textLength="17" x="1101.5" y="550.0811">ref</text><text fill="#000000" font-family="sans-serif" font-size="12" lengthAdjust="spacing" textLength="137" x="1092.5" y="569.043">Assign the chosen skills.</text><polygon fill="#181818" points="941.5,599.3828,931.5,603.3828,941.5,607.3828,937.5,603.3828" style="stroke:#181818;stroke-width:1.0;"/><line style="stroke:#181818;stroke-width:1.0;stroke-dasharray:2.0,2.0;" x1="935.5" x2="1138.5" y1="603.3828" y2="603.3828"/><text fill="#000000" font-family="sans-serif" font-size="13" font-weight="bold" lengthAdjust="spacing" textLength="14" x="947.5" y="598.5264">13</text><text fill="#000000" font-family="sans-serif" font-size="13" lengthAdjust="spacing" textLength="67" x="965.5" y="598.5264">collaborator</text><polygon fill="#181818" points="560,629.7344,550,633.7344,560,637.7344,556,633.7344" style="stroke:#181818;stroke-width:1.0;"/><line style="stroke:#181818;stroke-width:1.0;stroke-dasharray:2.0,2.0;" x1="554" x2="924.5" y1="633.7344" y2="633.7344"/><text fill="#000000" font-family="sans-serif" font-size="13" font-weight="bold" lengthAdjust="spacing" textLength="14" x="566" y="628.8779">14</text><text fill="#000000" font-family="sans-serif" font-size="13" lengthAdjust="spacing" textLength="67" x="584" y="628.8779">collaborator</text><polygon fill="#181818" points="407,660.0859,397,664.0859,407,668.0859,403,664.0859" style="stroke:#181818;stroke-width:1.0;"/><line style="stroke:#181818;stroke-width:1.0;" x1="401" x2="543" y1="664.0859" y2="664.0859"/><text fill="#000000" font-family="sans-serif" font-size="13" font-weight="bold" lengthAdjust="spacing" textLength="14" x="413" y="659.2295">15</text><text fill="#000000" font-family="sans-serif" font-size="13" lengthAdjust="spacing" textLength="49" x="431" y="659.2295">success</text><polygon fill="#181818" points="38,690.4375,28,694.4375,38,698.4375,34,694.4375" style="stroke:#181818;stroke-width:1.0;"/><line style="stroke:#181818;stroke-width:1.0;stroke-dasharray:2.0,2.0;" x1="32" x2="390" y1="694.4375" y2="694.4375"/><text fill="#000000" font-family="sans-serif" font-size="13" font-weight="bold" lengthAdjust="spacing" textLength="14" x="44" y="689.5811">16</text><text fill="#000000" font-family="sans-serif" font-size="13" lengthAdjust="spacing" textLength="158" x="62" y="689.5811">displays operation success</text><!--SRC=[dLJ1RXen4BtlLunoQgFG3-0GAILHYaIb299JquFnJi32QwyyXeY_xzYx6sopIPHQGWZxlPbvxzdGJfbMED50OusLMsSR1E_sMD7RIIlaJcnmvOyQmQ7qmcnq2g2jgEshCXju4PgmgiJUMxDlrkYgYY5UITKAu-7Yr_Bt1GW2_iuFfZT4QcDMEwKrFSqZw6d-0MPcZNTMQtGHEtjSBWhq4bjBobkda2BcNjjrsCnnBe4zctFMm-BcCMT8RYlMrWb6lS6FqsSp6ptevblyNDuz51Ec-06LGoXgpPgiYgr8B74LPo2zEWYFqMl-mEIQ7OKfl79b0c-P5-pikN43Kccd2Xm4CvaVNBwyv1hI8HzKLOqfwCI8SK2_7Bw0FQ3BTyEwHm-f2P0e631ewb215GKwJ0OPwQWBHJwT9JOgnsTYi67AkdTHBg7corogJgtg45H2JcOKSnH-vFDyxaUmeuiNegBIWjo0BhUlIQyLjLeSMT51A1wR7tGVl-0UXJ7M870cZNKuuWhuBKADf1pMVP7Sc0w6zMfqpdDxUddN_Lk9GPtU-xVKv_djLL7-pz_lxxlGFxw-RjUXB7zUBgMFP9TiXjNzDqLJvDOI3k_gntcAt7oIodpl1eKMmyoVtxTUP6x1O6cNsrvA9FgFss9Rv7xAch4Qp4f-CVCV]--></g></svg>