<?xml version="1.0" encoding="UTF-8" standalone="no"?><svg xmlns="http://www.w3.org/2000/svg" xmlns:xlink="http://www.w3.org/1999/xlink" contentStyleType="text/css" height="1731px" preserveAspectRatio="none" style="width:834px;height:1731px;background:#FFFFFF;" version="1.1" viewBox="0 0 834 1731" width="834px" zoomAndPan="magnify"><defs/><g><!--class AssignSkillUI--><g id="elem_AssignSkillUI"><rect codeLine="5" fill="#F1F1F1" height="48" id="AssignSkillUI" rx="2.5" ry="2.5" style="stroke:#181818;stroke-width:0.5;" width="111" x="355" y="7"/><ellipse cx="370" cy="23" fill="#ADD1B2" rx="11" ry="11" style="stroke:#181818;stroke-width:1.0;"/><path d="M372.7656,18.875 Q372.9219,18.6563 373.1094,18.5469 Q373.2969,18.4375 373.5156,18.4375 Q373.8906,18.4375 374.125,18.7031 Q374.3594,18.9531 374.3594,19.5625 L374.3594,21.0156 Q374.3594,21.625 374.125,21.8906 Q373.8906,22.1563 373.5156,22.1563 Q373.1719,22.1563 372.9688,21.9531 Q372.7656,21.7656 372.6563,21.25 Q372.6094,20.8906 372.4219,20.7031 Q372.0938,20.3281 371.4844,20.1094 Q370.875,19.8906 370.25,19.8906 Q369.4844,19.8906 368.8438,20.2188 Q368.2188,20.5469 367.7188,21.2969 Q367.2344,22.0469 367.2344,23.0781 L367.2344,24.1719 Q367.2344,25.4063 368.125,26.2344 Q369.0156,27.0469 370.6094,27.0469 Q371.5469,27.0469 372.2031,26.7969 Q372.5938,26.6406 373.0156,26.2031 Q373.2813,25.9375 373.4219,25.8594 Q373.5781,25.7813 373.7813,25.7813 Q374.1094,25.7813 374.3594,26.0469 Q374.625,26.2969 374.625,26.6406 Q374.625,26.9844 374.2813,27.3906 Q373.7813,27.9688 372.9844,28.2969 Q371.9063,28.75 370.6094,28.75 Q369.0938,28.75 367.8906,28.125 Q366.9063,27.625 366.2188,26.5625 Q365.5313,25.4844 365.5313,24.2031 L365.5313,23.0469 Q365.5313,21.7188 366.1406,20.5781 Q366.7656,19.4219 367.8594,18.8125 Q368.9531,18.1875 370.1875,18.1875 Q370.9219,18.1875 371.5625,18.3594 Q372.2188,18.5156 372.7656,18.875 Z " fill="#000000"/><text fill="#000000" font-family="sans-serif" font-size="14" lengthAdjust="spacing" textLength="79" x="384" y="28.7285">AssignSkillUI</text><line style="stroke:#181818;stroke-width:0.5;" x1="356" x2="465" y1="39" y2="39"/><line style="stroke:#181818;stroke-width:0.5;" x1="356" x2="465" y1="47" y2="47"/></g><!--class AssignSkillController--><g id="elem_AssignSkillController"><rect codeLine="8" fill="#F1F1F1" height="136.0469" id="AssignSkillController" rx="2.5" ry="2.5" style="stroke:#181818;stroke-width:0.5;" width="327" x="247" y="116"/><ellipse cx="341.75" cy="132" fill="#ADD1B2" rx="11" ry="11" style="stroke:#181818;stroke-width:1.0;"/><path d="M344.5156,127.875 Q344.6719,127.6563 344.8594,127.5469 Q345.0469,127.4375 345.2656,127.4375 Q345.6406,127.4375 345.875,127.7031 Q346.1094,127.9531 346.1094,128.5625 L346.1094,130.0156 Q346.1094,130.625 345.875,130.8906 Q345.6406,131.1563 345.2656,131.1563 Q344.9219,131.1563 344.7188,130.9531 Q344.5156,130.7656 344.4063,130.25 Q344.3594,129.8906 344.1719,129.7031 Q343.8438,129.3281 343.2344,129.1094 Q342.625,128.8906 342,128.8906 Q341.2344,128.8906 340.5938,129.2188 Q339.9688,129.5469 339.4688,130.2969 Q338.9844,131.0469 338.9844,132.0781 L338.9844,133.1719 Q338.9844,134.4063 339.875,135.2344 Q340.7656,136.0469 342.3594,136.0469 Q343.2969,136.0469 343.9531,135.7969 Q344.3438,135.6406 344.7656,135.2031 Q345.0313,134.9375 345.1719,134.8594 Q345.3281,134.7813 345.5313,134.7813 Q345.8594,134.7813 346.1094,135.0469 Q346.375,135.2969 346.375,135.6406 Q346.375,135.9844 346.0313,136.3906 Q345.5313,136.9688 344.7344,137.2969 Q343.6563,137.75 342.3594,137.75 Q340.8438,137.75 339.6406,137.125 Q338.6563,136.625 337.9688,135.5625 Q337.2813,134.4844 337.2813,133.2031 L337.2813,132.0469 Q337.2813,130.7188 337.8906,129.5781 Q338.5156,128.4219 339.6094,127.8125 Q340.7031,127.1875 341.9375,127.1875 Q342.6719,127.1875 343.3125,127.3594 Q343.9688,127.5156 344.5156,127.875 Z " fill="#000000"/><text fill="#000000" font-family="sans-serif" font-size="14" lengthAdjust="spacing" textLength="129" x="362.25" y="137.7285">AssignSkillController</text><line style="stroke:#181818;stroke-width:0.5;" x1="248" x2="573" y1="148" y2="148"/><rect fill="none" height="6" style="stroke:#C82930;stroke-width:1.0;" width="6" x="255" y="159.3047"/><text fill="#000000" font-family="sans-serif" font-size="14" lengthAdjust="spacing" textLength="196" x="267" y="166.5332">skillRepository : SkillRepository</text><rect fill="none" height="6" style="stroke:#C82930;stroke-width:1.0;" width="6" x="255" y="176.9141"/><text fill="#000000" font-family="sans-serif" font-size="14" lengthAdjust="spacing" textLength="301" x="267" y="184.1426">collaboratorRepository : CollaboratorRepository</text><line style="stroke:#181818;stroke-width:0.5;" x1="248" x2="573" y1="191.2188" y2="191.2188"/><ellipse cx="258" cy="205.5234" fill="#84BE84" rx="3" ry="3" style="stroke:#038048;stroke-width:1.0;"/><text fill="#000000" font-family="sans-serif" font-size="14" lengthAdjust="spacing" textLength="174" x="267" y="209.752">assignSkill(skill : Skill) : void</text><ellipse cx="258" cy="223.1328" fill="#84BE84" rx="3" ry="3" style="stroke:#038048;stroke-width:1.0;"/><text fill="#000000" font-family="sans-serif" font-size="14" lengthAdjust="spacing" textLength="134" x="267" y="227.3613">getSkill () : List&lt;Skill&gt;</text><ellipse cx="258" cy="240.7422" fill="#84BE84" rx="3" ry="3" style="stroke:#038048;stroke-width:1.0;"/><text fill="#000000" font-family="sans-serif" font-size="14" lengthAdjust="spacing" textLength="240" x="267" y="244.9707">getCollaborator () : List&lt;Collaborator&gt;</text></g><!--class Repositories--><g id="elem_Repositories"><rect codeLine="16" fill="#F1F1F1" height="100.8281" id="Repositories" rx="2.5" ry="2.5" style="stroke:#181818;stroke-width:0.5;" width="360" x="230.5" y="330"/><ellipse cx="366.75" cy="346" fill="#ADD1B2" rx="11" ry="11" style="stroke:#181818;stroke-width:1.0;"/><path d="M369.5156,341.875 Q369.6719,341.6563 369.8594,341.5469 Q370.0469,341.4375 370.2656,341.4375 Q370.6406,341.4375 370.875,341.7031 Q371.1094,341.9531 371.1094,342.5625 L371.1094,344.0156 Q371.1094,344.625 370.875,344.8906 Q370.6406,345.1563 370.2656,345.1563 Q369.9219,345.1563 369.7188,344.9531 Q369.5156,344.7656 369.4063,344.25 Q369.3594,343.8906 369.1719,343.7031 Q368.8438,343.3281 368.2344,343.1094 Q367.625,342.8906 367,342.8906 Q366.2344,342.8906 365.5938,343.2188 Q364.9688,343.5469 364.4688,344.2969 Q363.9844,345.0469 363.9844,346.0781 L363.9844,347.1719 Q363.9844,348.4063 364.875,349.2344 Q365.7656,350.0469 367.3594,350.0469 Q368.2969,350.0469 368.9531,349.7969 Q369.3438,349.6406 369.7656,349.2031 Q370.0313,348.9375 370.1719,348.8594 Q370.3281,348.7813 370.5313,348.7813 Q370.8594,348.7813 371.1094,349.0469 Q371.375,349.2969 371.375,349.6406 Q371.375,349.9844 371.0313,350.3906 Q370.5313,350.9688 369.7344,351.2969 Q368.6563,351.75 367.3594,351.75 Q365.8438,351.75 364.6406,351.125 Q363.6563,350.625 362.9688,349.5625 Q362.2813,348.4844 362.2813,347.2031 L362.2813,346.0469 Q362.2813,344.7188 362.8906,343.5781 Q363.5156,342.4219 364.6094,341.8125 Q365.7031,341.1875 366.9375,341.1875 Q367.6719,341.1875 368.3125,341.3594 Q368.9688,341.5156 369.5156,341.875 Z " fill="#000000"/><text fill="#000000" font-family="sans-serif" font-size="14" lengthAdjust="spacing" textLength="79" x="387.25" y="351.7285">Repositories</text><line style="stroke:#181818;stroke-width:0.5;" x1="231.5" x2="589.5" y1="362" y2="362"/><line style="stroke:#181818;stroke-width:0.5;" x1="231.5" x2="589.5" y1="370" y2="370"/><ellipse cx="241.5" cy="384.3047" fill="#84BE84" rx="3" ry="3" style="stroke:#038048;stroke-width:1.0;"/><text fill="#000000" font-family="sans-serif" font-size="14" lengthAdjust="spacing" textLength="174" x="250.5" y="388.5332">getInstance() : Repositories</text><ellipse cx="241.5" cy="401.9141" fill="#84BE84" rx="3" ry="3" style="stroke:#038048;stroke-width:1.0;"/><text fill="#000000" font-family="sans-serif" font-size="14" lengthAdjust="spacing" textLength="334" x="250.5" y="406.1426">getCollaboratorRepository() : CollaboratorRepository</text><ellipse cx="241.5" cy="419.5234" fill="#84BE84" rx="3" ry="3" style="stroke:#038048;stroke-width:1.0;"/><text fill="#000000" font-family="sans-serif" font-size="14" lengthAdjust="spacing" textLength="228" x="250.5" y="423.752">getSkillRepository() : SkillRepository</text></g><!--class CollaboratorRepository--><g id="elem_CollaboratorRepository"><rect codeLine="22" fill="#F1F1F1" height="206.4844" id="CollaboratorRepository" rx="2.5" ry="2.5" style="stroke:#181818;stroke-width:0.5;" width="409" x="26" y="509"/><ellipse cx="153.25" cy="525" fill="#ADD1B2" rx="11" ry="11" style="stroke:#181818;stroke-width:1.0;"/><path d="M156.0156,520.875 Q156.1719,520.6563 156.3594,520.5469 Q156.5469,520.4375 156.7656,520.4375 Q157.1406,520.4375 157.375,520.7031 Q157.6094,520.9531 157.6094,521.5625 L157.6094,523.0156 Q157.6094,523.625 157.375,523.8906 Q157.1406,524.1563 156.7656,524.1563 Q156.4219,524.1563 156.2188,523.9531 Q156.0156,523.7656 155.9063,523.25 Q155.8594,522.8906 155.6719,522.7031 Q155.3438,522.3281 154.7344,522.1094 Q154.125,521.8906 153.5,521.8906 Q152.7344,521.8906 152.0938,522.2188 Q151.4688,522.5469 150.9688,523.2969 Q150.4844,524.0469 150.4844,525.0781 L150.4844,526.1719 Q150.4844,527.4063 151.375,528.2344 Q152.2656,529.0469 153.8594,529.0469 Q154.7969,529.0469 155.4531,528.7969 Q155.8438,528.6406 156.2656,528.2031 Q156.5313,527.9375 156.6719,527.8594 Q156.8281,527.7813 157.0313,527.7813 Q157.3594,527.7813 157.6094,528.0469 Q157.875,528.2969 157.875,528.6406 Q157.875,528.9844 157.5313,529.3906 Q157.0313,529.9688 156.2344,530.2969 Q155.1563,530.75 153.8594,530.75 Q152.3438,530.75 151.1406,530.125 Q150.1563,529.625 149.4688,528.5625 Q148.7813,527.4844 148.7813,526.2031 L148.7813,525.0469 Q148.7813,523.7188 149.3906,522.5781 Q150.0156,521.4219 151.1094,520.8125 Q152.2031,520.1875 153.4375,520.1875 Q154.1719,520.1875 154.8125,520.3594 Q155.4688,520.5156 156.0156,520.875 Z " fill="#000000"/><text fill="#000000" font-family="sans-serif" font-size="14" lengthAdjust="spacing" textLength="146" x="173.75" y="530.7285">CollaboratorRepository</text><line style="stroke:#181818;stroke-width:0.5;" x1="27" x2="434" y1="541" y2="541"/><rect fill="none" height="6" style="stroke:#C82930;stroke-width:1.0;" width="6" x="34" y="552.3047"/><text fill="#000000" font-family="sans-serif" font-size="14" lengthAdjust="spacing" textLength="225" x="46" y="559.5332">collaboratorList : List&lt;Collaborator&gt;</text><line style="stroke:#181818;stroke-width:0.5;" x1="27" x2="434" y1="566.6094" y2="566.6094"/><ellipse cx="37" cy="580.9141" fill="#84BE84" rx="3" ry="3" style="stroke:#038048;stroke-width:1.0;"/><text fill="#000000" font-family="sans-serif" font-size="14" lengthAdjust="spacing" textLength="156" x="46" y="585.1426">CollaboratorRepository()</text><ellipse cx="37" cy="624.9375" fill="#84BE84" rx="3" ry="3" style="stroke:#038048;stroke-width:1.0;"/><text fill="#000000" font-family="sans-serif" font-size="14" lengthAdjust="spacing" textLength="383" x="46" y="602.752">create(name : String, birthdate : Date, contactMobile : String,</text><text fill="#000000" font-family="sans-serif" font-size="14" lengthAdjust="spacing" textLength="380" x="46" y="620.3613">email : String, address : String, zipCode : String, city : String,</text><text fill="#000000" font-family="sans-serif" font-size="14" lengthAdjust="spacing" textLength="332" x="46" y="637.9707">documentType : String, identificationNumber : String,</text><text fill="#000000" font-family="sans-serif" font-size="14" lengthAdjust="spacing" textLength="339" x="46" y="655.5801">admissionDate : Date, taxpayerNumber : int, job : Job)</text><ellipse cx="37" cy="668.9609" fill="#84BE84" rx="3" ry="3" style="stroke:#038048;stroke-width:1.0;"/><text fill="#000000" font-family="sans-serif" font-size="14" lengthAdjust="spacing" textLength="173" x="46" y="673.1895">checkForDuplicates() : void</text><ellipse cx="37" cy="686.5703" fill="#84BE84" rx="3" ry="3" style="stroke:#038048;stroke-width:1.0;"/><text fill="#000000" font-family="sans-serif" font-size="14" lengthAdjust="spacing" textLength="225" x="46" y="690.7988">addCollaborator(collaborator) : void</text><ellipse cx="37" cy="704.1797" fill="#84BE84" rx="3" ry="3" style="stroke:#038048;stroke-width:1.0;"/><text fill="#000000" font-family="sans-serif" font-size="14" lengthAdjust="spacing" textLength="258" x="46" y="708.4082">getCollaboratorList() : List&lt;Collaborator&gt;</text></g><!--class SkillRepository--><g id="elem_SkillRepository"><rect codeLine="31" fill="#F1F1F1" height="100.8281" id="SkillRepository" rx="2.5" ry="2.5" style="stroke:#181818;stroke-width:0.5;" width="260" x="555.5" y="561.5"/><ellipse cx="634.75" cy="577.5" fill="#ADD1B2" rx="11" ry="11" style="stroke:#181818;stroke-width:1.0;"/><path d="M637.5156,573.375 Q637.6719,573.1563 637.8594,573.0469 Q638.0469,572.9375 638.2656,572.9375 Q638.6406,572.9375 638.875,573.2031 Q639.1094,573.4531 639.1094,574.0625 L639.1094,575.5156 Q639.1094,576.125 638.875,576.3906 Q638.6406,576.6563 638.2656,576.6563 Q637.9219,576.6563 637.7188,576.4531 Q637.5156,576.2656 637.4063,575.75 Q637.3594,575.3906 637.1719,575.2031 Q636.8438,574.8281 636.2344,574.6094 Q635.625,574.3906 635,574.3906 Q634.2344,574.3906 633.5938,574.7188 Q632.9688,575.0469 632.4688,575.7969 Q631.9844,576.5469 631.9844,577.5781 L631.9844,578.6719 Q631.9844,579.9063 632.875,580.7344 Q633.7656,581.5469 635.3594,581.5469 Q636.2969,581.5469 636.9531,581.2969 Q637.3438,581.1406 637.7656,580.7031 Q638.0313,580.4375 638.1719,580.3594 Q638.3281,580.2813 638.5313,580.2813 Q638.8594,580.2813 639.1094,580.5469 Q639.375,580.7969 639.375,581.1406 Q639.375,581.4844 639.0313,581.8906 Q638.5313,582.4688 637.7344,582.7969 Q636.6563,583.25 635.3594,583.25 Q633.8438,583.25 632.6406,582.625 Q631.6563,582.125 630.9688,581.0625 Q630.2813,579.9844 630.2813,578.7031 L630.2813,577.5469 Q630.2813,576.2188 630.8906,575.0781 Q631.5156,573.9219 632.6094,573.3125 Q633.7031,572.6875 634.9375,572.6875 Q635.6719,572.6875 636.3125,572.8594 Q636.9688,573.0156 637.5156,573.375 Z " fill="#000000"/><text fill="#000000" font-family="sans-serif" font-size="14" lengthAdjust="spacing" textLength="93" x="655.25" y="583.2285">SkillRepository</text><line style="stroke:#181818;stroke-width:0.5;" x1="556.5" x2="814.5" y1="593.5" y2="593.5"/><line style="stroke:#181818;stroke-width:0.5;" x1="556.5" x2="814.5" y1="601.5" y2="601.5"/><ellipse cx="566.5" cy="615.8047" fill="#84BE84" rx="3" ry="3" style="stroke:#038048;stroke-width:1.0;"/><text fill="#000000" font-family="sans-serif" font-size="14" lengthAdjust="spacing" textLength="234" x="575.5" y="620.0332">createSkill(designation : String) : Skill</text><ellipse cx="566.5" cy="633.4141" fill="#84BE84" rx="3" ry="3" style="stroke:#038048;stroke-width:1.0;"/><text fill="#000000" font-family="sans-serif" font-size="14" lengthAdjust="spacing" textLength="173" x="575.5" y="637.6426">checkForDuplicates() : void</text><ellipse cx="566.5" cy="651.0234" fill="#84BE84" rx="3" ry="3" style="stroke:#038048;stroke-width:1.0;"/><text fill="#000000" font-family="sans-serif" font-size="14" lengthAdjust="spacing" textLength="116" x="575.5" y="655.252">addSkill(skill): void</text></g><!--class Collaborator--><g id="elem_Collaborator"><rect codeLine="37" fill="#F1F1F1" height="646.7188" id="Collaborator" rx="2.5" ry="2.5" style="stroke:#181818;stroke-width:0.5;" width="447" x="7" y="793"/><ellipse cx="187.25" cy="809" fill="#ADD1B2" rx="11" ry="11" style="stroke:#181818;stroke-width:1.0;"/><path d="M190.0156,804.875 Q190.1719,804.6563 190.3594,804.5469 Q190.5469,804.4375 190.7656,804.4375 Q191.1406,804.4375 191.375,804.7031 Q191.6094,804.9531 191.6094,805.5625 L191.6094,807.0156 Q191.6094,807.625 191.375,807.8906 Q191.1406,808.1563 190.7656,808.1563 Q190.4219,808.1563 190.2188,807.9531 Q190.0156,807.7656 189.9063,807.25 Q189.8594,806.8906 189.6719,806.7031 Q189.3438,806.3281 188.7344,806.1094 Q188.125,805.8906 187.5,805.8906 Q186.7344,805.8906 186.0938,806.2188 Q185.4688,806.5469 184.9688,807.2969 Q184.4844,808.0469 184.4844,809.0781 L184.4844,810.1719 Q184.4844,811.4063 185.375,812.2344 Q186.2656,813.0469 187.8594,813.0469 Q188.7969,813.0469 189.4531,812.7969 Q189.8438,812.6406 190.2656,812.2031 Q190.5313,811.9375 190.6719,811.8594 Q190.8281,811.7813 191.0313,811.7813 Q191.3594,811.7813 191.6094,812.0469 Q191.875,812.2969 191.875,812.6406 Q191.875,812.9844 191.5313,813.3906 Q191.0313,813.9688 190.2344,814.2969 Q189.1563,814.75 187.8594,814.75 Q186.3438,814.75 185.1406,814.125 Q184.1563,813.625 183.4688,812.5625 Q182.7813,811.4844 182.7813,810.2031 L182.7813,809.0469 Q182.7813,807.7188 183.3906,806.5781 Q184.0156,805.4219 185.1094,804.8125 Q186.2031,804.1875 187.4375,804.1875 Q188.1719,804.1875 188.8125,804.3594 Q189.4688,804.5156 190.0156,804.875 Z " fill="#000000"/><text fill="#000000" font-family="sans-serif" font-size="14" lengthAdjust="spacing" textLength="78" x="207.75" y="814.7285">Collaborator</text><line style="stroke:#181818;stroke-width:0.5;" x1="8" x2="453" y1="825" y2="825"/><rect fill="none" height="6" style="stroke:#C82930;stroke-width:1.0;" width="6" x="15" y="836.3047"/><text fill="#000000" font-family="sans-serif" font-size="14" lengthAdjust="spacing" textLength="84" x="27" y="843.5332">name : String</text><rect fill="none" height="6" style="stroke:#C82930;stroke-width:1.0;" width="6" x="15" y="853.9141"/><text fill="#000000" font-family="sans-serif" font-size="14" lengthAdjust="spacing" textLength="98" x="27" y="861.1426">birthdate : Date</text><rect fill="none" height="6" style="stroke:#C82930;stroke-width:1.0;" width="6" x="15" y="871.5234"/><text fill="#000000" font-family="sans-serif" font-size="14" lengthAdjust="spacing" textLength="136" x="27" y="878.752">contactMobile : String</text><rect fill="none" height="6" style="stroke:#C82930;stroke-width:1.0;" width="6" x="15" y="889.1328"/><text fill="#000000" font-family="sans-serif" font-size="14" lengthAdjust="spacing" textLength="82" x="27" y="896.3613">email : String</text><rect fill="none" height="6" style="stroke:#C82930;stroke-width:1.0;" width="6" x="15" y="906.7422"/><text fill="#000000" font-family="sans-serif" font-size="14" lengthAdjust="spacing" textLength="135" x="27" y="913.9707">admissionDate : Date</text><rect fill="none" height="6" style="stroke:#C82930;stroke-width:1.0;" width="6" x="15" y="924.3516"/><text fill="#000000" font-family="sans-serif" font-size="14" lengthAdjust="spacing" textLength="53" x="27" y="931.5801">job : Job</text><rect fill="none" height="6" style="stroke:#C82930;stroke-width:1.0;" width="6" x="15" y="941.9609"/><text fill="#000000" font-family="sans-serif" font-size="14" lengthAdjust="spacing" textLength="130" x="27" y="949.1895">taxpayerNumber : int</text><rect fill="none" height="6" style="stroke:#C82930;stroke-width:1.0;" width="6" x="15" y="959.5703"/><text fill="#000000" font-family="sans-serif" font-size="14" lengthAdjust="spacing" textLength="143" x="27" y="966.7988">documentType : String</text><rect fill="none" height="6" style="stroke:#C82930;stroke-width:1.0;" width="6" x="15" y="977.1797"/><text fill="#000000" font-family="sans-serif" font-size="14" lengthAdjust="spacing" textLength="177" x="27" y="984.4082">identificationNumber : String</text><line style="stroke:#181818;stroke-width:0.5;" x1="8" x2="453" y1="991.4844" y2="991.4844"/><ellipse cx="18" cy="1032.2031" fill="#84BE84" rx="3" ry="3" style="stroke:#038048;stroke-width:1.0;"/><text fill="#000000" font-family="sans-serif" font-size="14" lengthAdjust="spacing" textLength="421" x="27" y="1010.0176">Collaborator(name : String, birthdate : Date, contactMobile : String,</text><text fill="#000000" font-family="sans-serif" font-size="14" lengthAdjust="spacing" textLength="380" x="27" y="1027.627">email : String, address : String, zipCode : String, city : String,</text><text fill="#000000" font-family="sans-serif" font-size="14" lengthAdjust="spacing" textLength="332" x="27" y="1045.2363">documentType : String, identificationNumber : String,</text><text fill="#000000" font-family="sans-serif" font-size="14" lengthAdjust="spacing" textLength="339" x="27" y="1062.8457">admissionDate : Date, taxpayerNumber : int, job : Job)</text><ellipse cx="18" cy="1076.2266" fill="#84BE84" rx="3" ry="3" style="stroke:#038048;stroke-width:1.0;"/><text fill="#000000" font-family="sans-serif" font-size="14" lengthAdjust="spacing" textLength="216" x="27" y="1080.4551">verifyFilled(collaborator) : boolean</text><ellipse cx="18" cy="1093.8359" fill="#84BE84" rx="3" ry="3" style="stroke:#038048;stroke-width:1.0;"/><text fill="#000000" font-family="sans-serif" font-size="14" lengthAdjust="spacing" textLength="245" x="27" y="1098.0645">verifyNineDigits(collaborator) : boolean</text><ellipse cx="18" cy="1111.4453" fill="#84BE84" rx="3" ry="3" style="stroke:#038048;stroke-width:1.0;"/><text fill="#000000" font-family="sans-serif" font-size="14" lengthAdjust="spacing" textLength="216" x="27" y="1115.6738">verifyEmail(collaborator) : boolean</text><ellipse cx="18" cy="1129.0547" fill="#84BE84" rx="3" ry="3" style="stroke:#038048;stroke-width:1.0;"/><text fill="#000000" font-family="sans-serif" font-size="14" lengthAdjust="spacing" textLength="235" x="27" y="1133.2832">verifyZipCode(collaborator) : boolean</text><ellipse cx="18" cy="1146.6641" fill="#84BE84" rx="3" ry="3" style="stroke:#038048;stroke-width:1.0;"/><text fill="#000000" font-family="sans-serif" font-size="14" lengthAdjust="spacing" textLength="211" x="27" y="1150.8926">verifyBirth(collaborator) : boolean</text><ellipse cx="18" cy="1164.2734" fill="#84BE84" rx="3" ry="3" style="stroke:#038048;stroke-width:1.0;"/><text fill="#000000" font-family="sans-serif" font-size="14" lengthAdjust="spacing" textLength="310" x="27" y="1168.502">verifyIdentificationNumber(collaborator) : boolean</text><ellipse cx="18" cy="1181.8828" fill="#84BE84" rx="3" ry="3" style="stroke:#038048;stroke-width:1.0;"/><text fill="#000000" font-family="sans-serif" font-size="14" lengthAdjust="spacing" textLength="276" x="27" y="1186.1113">verifyAdmissionDate(collaborator) : boolean</text><ellipse cx="18" cy="1199.4922" fill="#84BE84" rx="3" ry="3" style="stroke:#038048;stroke-width:1.0;"/><text fill="#000000" font-family="sans-serif" font-size="14" lengthAdjust="spacing" textLength="219" x="27" y="1203.7207">setAddress(address : String) : void</text><ellipse cx="18" cy="1217.1016" fill="#84BE84" rx="3" ry="3" style="stroke:#038048;stroke-width:1.0;"/><text fill="#000000" font-family="sans-serif" font-size="14" lengthAdjust="spacing" textLength="296" x="27" y="1221.3301">setAdmissionDate(admissionDate : Date) : void</text><ellipse cx="18" cy="1234.7109" fill="#84BE84" rx="3" ry="3" style="stroke:#038048;stroke-width:1.0;"/><text fill="#000000" font-family="sans-serif" font-size="14" lengthAdjust="spacing" textLength="222" x="27" y="1238.9395">setBirthdate(birthdate : Date) : void</text><ellipse cx="18" cy="1252.3203" fill="#84BE84" rx="3" ry="3" style="stroke:#038048;stroke-width:1.0;"/><text fill="#000000" font-family="sans-serif" font-size="14" lengthAdjust="spacing" textLength="161" x="27" y="1256.5488">setCity(city : String) : void</text><ellipse cx="18" cy="1269.9297" fill="#84BE84" rx="3" ry="3" style="stroke:#038048;stroke-width:1.0;"/><text fill="#000000" font-family="sans-serif" font-size="14" lengthAdjust="spacing" textLength="225" x="27" y="1274.1582">setContactMobile(mobile : int) : void</text><ellipse cx="18" cy="1287.5391" fill="#84BE84" rx="3" ry="3" style="stroke:#038048;stroke-width:1.0;"/><text fill="#000000" font-family="sans-serif" font-size="14" lengthAdjust="spacing" textLength="306" x="27" y="1291.7676">setDocumentType(documentType : String) : void</text><ellipse cx="18" cy="1305.1484" fill="#84BE84" rx="3" ry="3" style="stroke:#038048;stroke-width:1.0;"/><text fill="#000000" font-family="sans-serif" font-size="14" lengthAdjust="spacing" textLength="183" x="27" y="1309.377">setEmail(email : String) : void</text><ellipse cx="18" cy="1322.7578" fill="#84BE84" rx="3" ry="3" style="stroke:#038048;stroke-width:1.0;"/><text fill="#000000" font-family="sans-serif" font-size="14" lengthAdjust="spacing" textLength="372" x="27" y="1326.9863">setIdentificationNumber(identificationNumber : String) : void</text><ellipse cx="18" cy="1340.3672" fill="#84BE84" rx="3" ry="3" style="stroke:#038048;stroke-width:1.0;"/><text fill="#000000" font-family="sans-serif" font-size="14" lengthAdjust="spacing" textLength="142" x="27" y="1344.5957">setJob(job : Job) : void</text><ellipse cx="18" cy="1357.9766" fill="#84BE84" rx="3" ry="3" style="stroke:#038048;stroke-width:1.0;"/><text fill="#000000" font-family="sans-serif" font-size="14" lengthAdjust="spacing" textLength="187" x="27" y="1362.2051">setName(name : String) : void</text><ellipse cx="18" cy="1375.5859" fill="#84BE84" rx="3" ry="3" style="stroke:#038048;stroke-width:1.0;"/><text fill="#000000" font-family="sans-serif" font-size="14" lengthAdjust="spacing" textLength="305" x="27" y="1379.8145">setTaxpayerNumber(taxpayerNumber : int) : void</text><ellipse cx="18" cy="1393.1953" fill="#84BE84" rx="3" ry="3" style="stroke:#038048;stroke-width:1.0;"/><text fill="#000000" font-family="sans-serif" font-size="14" lengthAdjust="spacing" textLength="217" x="27" y="1397.4238">setZipCode(zipcode : String) : void</text><ellipse cx="18" cy="1410.8047" fill="#84BE84" rx="3" ry="3" style="stroke:#038048;stroke-width:1.0;"/><text fill="#000000" font-family="sans-serif" font-size="14" lengthAdjust="spacing" textLength="165" x="27" y="1415.0332">getTaxpayerNumber() : int</text><ellipse cx="18" cy="1428.4141" fill="#84BE84" rx="3" ry="3" style="stroke:#038048;stroke-width:1.0;"/><text fill="#000000" font-family="sans-serif" font-size="14" lengthAdjust="spacing" textLength="115" x="27" y="1432.6426">getName() : String</text></g><!--class Address--><g id="elem_Address"><rect codeLine="71" fill="#F1F1F1" height="206.4844" id="Address" rx="2.5" ry="2.5" style="stroke:#181818;stroke-width:0.5;" width="158" x="151.5" y="1518"/><ellipse cx="200.25" cy="1534" fill="#ADD1B2" rx="11" ry="11" style="stroke:#181818;stroke-width:1.0;"/><path d="M203.0156,1529.875 Q203.1719,1529.6563 203.3594,1529.5469 Q203.5469,1529.4375 203.7656,1529.4375 Q204.1406,1529.4375 204.375,1529.7031 Q204.6094,1529.9531 204.6094,1530.5625 L204.6094,1532.0156 Q204.6094,1532.625 204.375,1532.8906 Q204.1406,1533.1563 203.7656,1533.1563 Q203.4219,1533.1563 203.2188,1532.9531 Q203.0156,1532.7656 202.9063,1532.25 Q202.8594,1531.8906 202.6719,1531.7031 Q202.3438,1531.3281 201.7344,1531.1094 Q201.125,1530.8906 200.5,1530.8906 Q199.7344,1530.8906 199.0938,1531.2188 Q198.4688,1531.5469 197.9688,1532.2969 Q197.4844,1533.0469 197.4844,1534.0781 L197.4844,1535.1719 Q197.4844,1536.4063 198.375,1537.2344 Q199.2656,1538.0469 200.8594,1538.0469 Q201.7969,1538.0469 202.4531,1537.7969 Q202.8438,1537.6406 203.2656,1537.2031 Q203.5313,1536.9375 203.6719,1536.8594 Q203.8281,1536.7813 204.0313,1536.7813 Q204.3594,1536.7813 204.6094,1537.0469 Q204.875,1537.2969 204.875,1537.6406 Q204.875,1537.9844 204.5313,1538.3906 Q204.0313,1538.9688 203.2344,1539.2969 Q202.1563,1539.75 200.8594,1539.75 Q199.3438,1539.75 198.1406,1539.125 Q197.1563,1538.625 196.4688,1537.5625 Q195.7813,1536.4844 195.7813,1535.2031 L195.7813,1534.0469 Q195.7813,1532.7188 196.3906,1531.5781 Q197.0156,1530.4219 198.1094,1529.8125 Q199.2031,1529.1875 200.4375,1529.1875 Q201.1719,1529.1875 201.8125,1529.3594 Q202.4688,1529.5156 203.0156,1529.875 Z " fill="#000000"/><text fill="#000000" font-family="sans-serif" font-size="14" lengthAdjust="spacing" textLength="52" x="220.75" y="1539.7285">Address</text><line style="stroke:#181818;stroke-width:0.5;" x1="152.5" x2="308.5" y1="1550" y2="1550"/><rect fill="none" height="6" style="stroke:#C82930;stroke-width:1.0;" width="6" x="159.5" y="1561.3047"/><text fill="#000000" font-family="sans-serif" font-size="14" lengthAdjust="spacing" textLength="100" x="171.5" y="1568.5332">address : String</text><rect fill="none" height="6" style="stroke:#C82930;stroke-width:1.0;" width="6" x="159.5" y="1578.9141"/><text fill="#000000" font-family="sans-serif" font-size="14" lengthAdjust="spacing" textLength="70" x="171.5" y="1586.1426">city : String</text><rect fill="none" height="6" style="stroke:#C82930;stroke-width:1.0;" width="6" x="159.5" y="1596.5234"/><text fill="#000000" font-family="sans-serif" font-size="14" lengthAdjust="spacing" textLength="97" x="171.5" y="1603.752">zipcode : String</text><line style="stroke:#181818;stroke-width:0.5;" x1="152.5" x2="308.5" y1="1610.8281" y2="1610.8281"/><ellipse cx="162.5" cy="1625.1328" fill="#84BE84" rx="3" ry="3" style="stroke:#038048;stroke-width:1.0;"/><text fill="#000000" font-family="sans-serif" font-size="14" lengthAdjust="spacing" textLength="119" x="171.5" y="1629.3613">setAddress() : void</text><ellipse cx="162.5" cy="1642.7422" fill="#84BE84" rx="3" ry="3" style="stroke:#038048;stroke-width:1.0;"/><text fill="#000000" font-family="sans-serif" font-size="14" lengthAdjust="spacing" textLength="91" x="171.5" y="1646.9707">setCity() : void</text><ellipse cx="162.5" cy="1660.3516" fill="#84BE84" rx="3" ry="3" style="stroke:#038048;stroke-width:1.0;"/><text fill="#000000" font-family="sans-serif" font-size="14" lengthAdjust="spacing" textLength="120" x="171.5" y="1664.5801">setZipCode() : void</text><ellipse cx="162.5" cy="1677.9609" fill="#84BE84" rx="3" ry="3" style="stroke:#038048;stroke-width:1.0;"/><text fill="#000000" font-family="sans-serif" font-size="14" lengthAdjust="spacing" textLength="131" x="171.5" y="1682.1895">getAddress() : String</text><ellipse cx="162.5" cy="1695.5703" fill="#84BE84" rx="3" ry="3" style="stroke:#038048;stroke-width:1.0;"/><text fill="#000000" font-family="sans-serif" font-size="14" lengthAdjust="spacing" textLength="103" x="171.5" y="1699.7988">getCity() : String</text><ellipse cx="162.5" cy="1713.1797" fill="#84BE84" rx="3" ry="3" style="stroke:#038048;stroke-width:1.0;"/><text fill="#000000" font-family="sans-serif" font-size="14" lengthAdjust="spacing" textLength="132" x="171.5" y="1717.4082">getZipCode() : String</text></g><!--class Skill--><g id="elem_Skill"><rect codeLine="83" fill="#F1F1F1" height="118.4375" id="Skill" rx="2.5" ry="2.5" style="stroke:#181818;stroke-width:0.5;" width="284" x="543.5" y="1057.5"/><ellipse cx="668.75" cy="1073.5" fill="#ADD1B2" rx="11" ry="11" style="stroke:#181818;stroke-width:1.0;"/><path d="M671.5156,1069.375 Q671.6719,1069.1563 671.8594,1069.0469 Q672.0469,1068.9375 672.2656,1068.9375 Q672.6406,1068.9375 672.875,1069.2031 Q673.1094,1069.4531 673.1094,1070.0625 L673.1094,1071.5156 Q673.1094,1072.125 672.875,1072.3906 Q672.6406,1072.6563 672.2656,1072.6563 Q671.9219,1072.6563 671.7188,1072.4531 Q671.5156,1072.2656 671.4063,1071.75 Q671.3594,1071.3906 671.1719,1071.2031 Q670.8438,1070.8281 670.2344,1070.6094 Q669.625,1070.3906 669,1070.3906 Q668.2344,1070.3906 667.5938,1070.7188 Q666.9688,1071.0469 666.4688,1071.7969 Q665.9844,1072.5469 665.9844,1073.5781 L665.9844,1074.6719 Q665.9844,1075.9063 666.875,1076.7344 Q667.7656,1077.5469 669.3594,1077.5469 Q670.2969,1077.5469 670.9531,1077.2969 Q671.3438,1077.1406 671.7656,1076.7031 Q672.0313,1076.4375 672.1719,1076.3594 Q672.3281,1076.2813 672.5313,1076.2813 Q672.8594,1076.2813 673.1094,1076.5469 Q673.375,1076.7969 673.375,1077.1406 Q673.375,1077.4844 673.0313,1077.8906 Q672.5313,1078.4688 671.7344,1078.7969 Q670.6563,1079.25 669.3594,1079.25 Q667.8438,1079.25 666.6406,1078.625 Q665.6563,1078.125 664.9688,1077.0625 Q664.2813,1075.9844 664.2813,1074.7031 L664.2813,1073.5469 Q664.2813,1072.2188 664.8906,1071.0781 Q665.5156,1069.9219 666.6094,1069.3125 Q667.7031,1068.6875 668.9375,1068.6875 Q669.6719,1068.6875 670.3125,1068.8594 Q670.9688,1069.0156 671.5156,1069.375 Z " fill="#000000"/><text fill="#000000" font-family="sans-serif" font-size="14" lengthAdjust="spacing" textLength="25" x="689.25" y="1079.2285">Skill</text><line style="stroke:#181818;stroke-width:0.5;" x1="544.5" x2="826.5" y1="1089.5" y2="1089.5"/><rect fill="none" height="6" style="stroke:#C82930;stroke-width:1.0;" width="6" x="551.5" y="1100.8047"/><text fill="#000000" font-family="sans-serif" font-size="14" lengthAdjust="spacing" textLength="71" x="563.5" y="1108.0332">title : String</text><line style="stroke:#181818;stroke-width:0.5;" x1="544.5" x2="826.5" y1="1115.1094" y2="1115.1094"/><ellipse cx="554.5" cy="1129.4141" fill="#84BE84" rx="3" ry="3" style="stroke:#038048;stroke-width:1.0;"/><text fill="#000000" font-family="sans-serif" font-size="14" lengthAdjust="spacing" textLength="157" x="563.5" y="1133.6426">Skill(designation : String)</text><ellipse cx="554.5" cy="1147.0234" fill="#84BE84" rx="3" ry="3" style="stroke:#038048;stroke-width:1.0;"/><text fill="#000000" font-family="sans-serif" font-size="14" lengthAdjust="spacing" textLength="176" x="563.5" y="1151.252">verifyFilled(skill : Skill) : void</text><ellipse cx="554.5" cy="1164.6328" fill="#84BE84" rx="3" ry="3" style="stroke:#038048;stroke-width:1.0;"/><text fill="#000000" font-family="sans-serif" font-size="14" lengthAdjust="spacing" textLength="258" x="563.5" y="1168.8613">verifySpecialCharacters(skill : Skill) : void</text></g><!--link AssignSkillUI to AssignSkillController--><g id="link_AssignSkillUI_AssignSkillController"><path codeLine="90" d="M410.5,55.26 C410.5,70.29 410.5,90.72 410.5,110.84 " fill="none" id="AssignSkillUI-to-AssignSkillController" style="stroke:#181818;stroke-width:1.0;stroke-dasharray:7.0,7.0;"/><polygon fill="#181818" points="410.5,115.95,414.5,106.95,410.5,110.95,406.5,106.95,410.5,115.95" style="stroke:#181818;stroke-width:1.0;"/></g><!--link AssignSkillController to Repositories--><g id="link_AssignSkillController_Repositories"><path codeLine="91" d="M410.5,252.21 C410.5,275.89 410.5,302.21 410.5,324.74 " fill="none" id="AssignSkillController-to-Repositories" style="stroke:#181818;stroke-width:1.0;stroke-dasharray:7.0,7.0;"/><polygon fill="#181818" points="410.5,329.79,414.5,320.79,410.5,324.79,406.5,320.79,410.5,329.79" style="stroke:#181818;stroke-width:1.0;"/><text fill="#000000" font-family="sans-serif" font-size="13" lengthAdjust="spacing" textLength="67" x="411.5" y="296.4951">repositories</text></g><!--link Repositories to Repositories--><g id="link_Repositories_Repositories"><path codeLine="92" d="M590.87,366.42 C611.85,369.02 625.5,373.71 625.5,380.5 C625.5,386.71 614.1,391.16 596.11,393.87 " fill="none" id="Repositories-to-Repositories" style="stroke:#181818;stroke-width:1.0;"/><polygon fill="#181818" points="590.87,394.58,600.3254,397.3358,595.8248,393.9089,599.2517,389.4082,590.87,394.58" style="stroke:#181818;stroke-width:1.0;"/><text fill="#000000" font-family="sans-serif" font-size="13" lengthAdjust="spacing" textLength="49" x="631.5" y="385.9951">instance</text></g><!--link Repositories to CollaboratorRepository--><g id="link_Repositories_CollaboratorRepository"><path codeLine="93" d="M368.45,431.4 C354.99,447.37 343.5,461 343.5,461 C343.5,461 329.03,480.2 310.45,504.87 " fill="none" id="Repositories-to-CollaboratorRepository" style="stroke:#181818;stroke-width:1.0;"/><polygon fill="#181818" points="307.44,508.87,316.0482,504.0848,310.4469,504.8752,309.6565,499.2738,307.44,508.87" style="stroke:#181818;stroke-width:1.0;"/><text fill="#000000" font-family="sans-serif" font-size="13" lengthAdjust="spacing" textLength="129" x="344.5" y="475.4951">collaboratorRepository</text><text fill="#000000" font-family="sans-serif" font-size="13" lengthAdjust="spacing" textLength="7" x="305.8333" y="498.1991">1</text></g><!--link Repositories to SkillRepository--><g id="link_Repositories_SkillRepository"><path codeLine="94" d="M469.83,431.02 C514.59,468.37 575.89,519.52 621.7,557.75 " fill="none" id="Repositories-to-SkillRepository" style="stroke:#181818;stroke-width:1.0;"/><polygon fill="#181818" points="625.8,561.18,621.4435,552.347,621.9577,557.9805,616.3243,558.4947,625.8,561.18" style="stroke:#181818;stroke-width:1.0;"/><text fill="#000000" font-family="sans-serif" font-size="13" lengthAdjust="spacing" textLength="85" x="524.5" y="475.4951">skillRepository</text><text fill="#000000" font-family="sans-serif" font-size="13" lengthAdjust="spacing" textLength="7" x="610.3075" y="550.8063">1</text></g><!--link AssignSkillController to CollaboratorRepository--><g id="link_AssignSkillController_CollaboratorRepository"><path codeLine="95" d="M258.04,252.19 C171.98,290.12 81.5,330 81.5,330 C81.5,330 81.5,431 81.5,431 C81.5,431 110.23,465.7 142.45,504.63 " fill="none" id="AssignSkillController-to-CollaboratorRepository" style="stroke:#181818;stroke-width:1.0;stroke-dasharray:7.0,7.0;"/><polygon fill="#181818" points="145.99,508.9,143.3428,499.4136,142.806,505.0449,137.1746,504.508,145.99,508.9" style="stroke:#181818;stroke-width:1.0;"/><text fill="#000000" font-family="sans-serif" font-size="13" lengthAdjust="spacing" textLength="129" x="82.5" y="385.9951">collaboratorRepository</text></g><!--link AssignSkillController to SkillRepository--><g id="link_AssignSkillController_SkillRepository"><path codeLine="96" d="M538.4,252.19 C610.6,290.12 686.5,330 686.5,330 C686.5,330 686.5,431 686.5,431 C686.5,431 686.1,503.32 685.8,556.28 " fill="none" id="AssignSkillController-to-SkillRepository" style="stroke:#181818;stroke-width:1.0;stroke-dasharray:7.0,7.0;"/><polygon fill="#181818" points="685.78,561.34,689.8314,552.363,685.8086,556.3401,681.8315,552.3173,685.78,561.34" style="stroke:#181818;stroke-width:1.0;"/><text fill="#000000" font-family="sans-serif" font-size="13" lengthAdjust="spacing" textLength="85" x="687.5" y="385.9951">skillRepository</text></g><!--link CollaboratorRepository to Collaborator--><g id="link_CollaboratorRepository_Collaborator"><path codeLine="97" d="M230.5,715.29 C230.5,737.42 230.5,761.96 230.5,787.68 " fill="none" id="CollaboratorRepository-to-Collaborator" style="stroke:#181818;stroke-width:1.0;"/><polygon fill="#181818" points="230.5,792.84,234.5,783.84,230.5,787.84,226.5,783.84,230.5,792.84" style="stroke:#181818;stroke-width:1.0;"/><text fill="#000000" font-family="sans-serif" font-size="13" lengthAdjust="spacing" textLength="74" x="231.5" y="759.4951">collaborators</text><text fill="#000000" font-family="sans-serif" font-size="13" lengthAdjust="spacing" textLength="5" x="225.4414" y="782.5693">*</text></g><!--link SkillRepository to Skill--><g id="link_SkillRepository_Skill"><path codeLine="98" d="M685.5,662.56 C685.5,754.35 685.5,950.7 685.5,1052.05 " fill="none" id="SkillRepository-to-Skill" style="stroke:#181818;stroke-width:1.0;"/><polygon fill="#181818" points="685.5,1057.11,689.5,1048.11,685.5,1052.11,681.5,1048.11,685.5,1057.11" style="stroke:#181818;stroke-width:1.0;"/><text fill="#000000" font-family="sans-serif" font-size="13" lengthAdjust="spacing" textLength="23" x="686.5" y="759.4951">skill</text><text fill="#000000" font-family="sans-serif" font-size="13" lengthAdjust="spacing" textLength="5" x="680.2109" y="1046.8082">*</text></g><!--link Collaborator to Address--><g id="link_Collaborator_Address"><path codeLine="99" d="M230.5,1440.01 C230.5,1465.77 230.5,1490.45 230.5,1512.82 " fill="none" id="Collaborator-to-Address" style="stroke:#181818;stroke-width:1.0;"/><polygon fill="#181818" points="230.5,1517.86,234.5,1508.86,230.5,1512.86,226.5,1508.86,230.5,1517.86" style="stroke:#181818;stroke-width:1.0;"/><text fill="#000000" font-family="sans-serif" font-size="13" lengthAdjust="spacing" textLength="21" x="231.5" y="1484.4951">has</text><text fill="#000000" font-family="sans-serif" font-size="13" lengthAdjust="spacing" textLength="7" x="223.243" y="1507.1884">1</text></g><!--SRC=[vLPBJzmm4BxdLrYSieL5wXLLICjkaQXQ3brwgRWuZicwwzYHRMZJgl-zJk8uVYKivt9XC_FDU1xVs2EFX3LGm1eq41rXXVUgfHW8Z1Ha5SMPj01vW2N_ILW5dY2LheOIXbNROD1msdOVMOOeb19if2GLsny9fT_km9_iRqAnvKm9JYaM6W3qtnh8JluLDrmInKKBhi3UbnWSqcQmu09gcGVV9XMzrJc0qzbvVzBeVwL_l71I6bo5LIy6UQVuJAJwq7zVJtht70VcYg-df6qa14kJQ-_bZabTR8Hx1oueVT2KK6-mcEkOGs0JbjE6c7OsDiQjTvTeEj_-vBc0JLn8OAXmpc2Dkt2KqBIw00KHwb1gXPRjzByBtM6c859VU46eWtnak8Q4EgQmB0NM2KoItwJPyj9rZuXgNHybHyyrPkgXe-u48wMMaIU2e2AStJ_NXQRcf7vaiAo9vX1dEpTK1NyriCN26X2cBi0FNkYVdtXXCpzWTBpbOlVSqEu8BFE0TpeLjtgvM_MOejkW9w-oCEYz9UBGac4iIjoDI9-_pTpovYs9E5EsChear-peUummif0MTlfJt31Adnz6c6gSKTa-cUzKDqrQNdF-GmQ_O46UsblTKbn6v2mufnWo3tglNuGTgOYI9y4_TeKv2VbzAD19s9kkCoSXxnBLEybmurPrqM8DafqpkiNs3ITAh3O3N_AGD_uGza0th5Jh8vERaSPvIEW8kjMKp3rUnX1t1F9wd0JDhWYwSygI9siKcGnqyQSf0YLxkbZdo8MUW7oQXL1xh-y1_pA880_UUEMfQOjiHeRhgm2vLu4Fh2BdA_V6ganugub4qo9cs6Fktv1Cvjrtspk8me0YMgQ9CfjWb93hnpsYSZm5SjTNcEUmoOslZ28gV3BEmSBJbxhvbbR70RXlC2AGRWzwIKOA2pbZeuFq5-NBo-lqXfobz-OExosNLtg1TzP8JxTUHs1Y5j0OUFR-R6udl9fPlzDEzj5A7opv2wczDO1vJwz7CNDMdyOxlnP1038BlOz6UzFr_Ypl15kUZPsx0vHPzWy0]--></g></svg>