<?xml version="1.0" encoding="UTF-8" standalone="no"?><svg xmlns="http://www.w3.org/2000/svg" xmlns:xlink="http://www.w3.org/1999/xlink" contentStyleType="text/css" height="374px" preserveAspectRatio="none" style="width:608px;height:374px;background:#FFFFFF;" version="1.1" viewBox="0 0 608 374" width="608px" zoomAndPan="magnify"><defs/><g><rect fill="#FFFFFF" height="236.8125" style="stroke:#181818;stroke-width:1.0;" width="10" x="125" y="65.2188"/><rect fill="#FFFFFF" height="30.3516" style="stroke:#181818;stroke-width:1.0;" width="10" x="260.5" y="112.9219"/><rect fill="#FFFFFF" height="30.3516" style="stroke:#181818;stroke-width:1.0;" width="10" x="367.5" y="173.625"/><rect fill="#FFFFFF" height="30.3516" style="stroke:#181818;stroke-width:1.0;" width="10" x="506.5" y="234.3281"/><rect fill="none" height="200.4609" style="stroke:#000000;stroke-width:1.5;" width="559" x="43" y="72.2188"/><line style="stroke:#181818;stroke-width:0.5;stroke-dasharray:5.0,5.0;" x1="130" x2="130" y1="55.2188" y2="320.0313"/><line style="stroke:#181818;stroke-width:0.5;stroke-dasharray:5.0,5.0;" x1="265" x2="265" y1="55.2188" y2="320.0313"/><line style="stroke:#181818;stroke-width:0.5;stroke-dasharray:5.0,5.0;" x1="372" x2="372" y1="55.2188" y2="320.0313"/><line style="stroke:#181818;stroke-width:0.5;stroke-dasharray:5.0,5.0;" x1="511" x2="511" y1="55.2188" y2="320.0313"/><rect fill="#E3E3E3" height="31.6094" rx="2.5" ry="2.5" style="stroke:#181818;stroke-width:0.5;" width="154" x="53" y="22.6094"/><text fill="#000000" font-family="sans-serif" font-size="14" lengthAdjust="spacing" textLength="140" x="60" y="44.1426">:AssignSkillsController</text><rect fill="#E3E3E3" height="31.6094" rx="2.5" ry="2.5" style="stroke:#181818;stroke-width:0.5;" width="154" x="53" y="319.0313"/><text fill="#000000" font-family="sans-serif" font-size="14" lengthAdjust="spacing" textLength="140" x="60" y="340.5645">:AssignSkillsController</text><rect fill="#E3E3E3" height="31.6094" rx="2.5" ry="2.5" style="stroke:#181818;stroke-width:0.5;" width="97" x="217" y="22.6094"/><text fill="#000000" font-family="sans-serif" font-size="14" lengthAdjust="spacing" textLength="83" x="224" y="44.1426">:Repositories</text><rect fill="#E3E3E3" height="31.6094" rx="2.5" ry="2.5" style="stroke:#181818;stroke-width:0.5;" width="97" x="217" y="319.0313"/><text fill="#000000" font-family="sans-serif" font-size="14" lengthAdjust="spacing" textLength="83" x="224" y="340.5645">:Repositories</text><rect fill="#E3E3E3" height="49.2188" rx="2.5" ry="2.5" style="stroke:#181818;stroke-width:0.5;" width="97" x="324" y="5"/><text fill="#000000" font-family="sans-serif" font-size="14" lengthAdjust="spacing" textLength="74" x="335.5" y="26.5332">repositories</text><text fill="#000000" font-family="sans-serif" font-size="14" lengthAdjust="spacing" textLength="83" x="331" y="44.1426">:Repositories</text><rect fill="#E3E3E3" height="49.2188" rx="2.5" ry="2.5" style="stroke:#181818;stroke-width:0.5;" width="97" x="324" y="319.0313"/><text fill="#000000" font-family="sans-serif" font-size="14" lengthAdjust="spacing" textLength="74" x="335.5" y="340.5645">repositories</text><text fill="#000000" font-family="sans-serif" font-size="14" lengthAdjust="spacing" textLength="83" x="331" y="358.1738">:Repositories</text><rect fill="#E3E3E3" height="49.2188" rx="2.5" ry="2.5" style="stroke:#181818;stroke-width:0.5;" width="161" x="431" y="5"/><text fill="#000000" font-family="sans-serif" font-size="14" lengthAdjust="spacing" textLength="147" x="438" y="26.5332">collaboratorRepository:</text><text fill="#000000" font-family="sans-serif" font-size="14" lengthAdjust="spacing" textLength="146" x="438.5" y="44.1426">CollaboratorRepository</text><rect fill="#E3E3E3" height="49.2188" rx="2.5" ry="2.5" style="stroke:#181818;stroke-width:0.5;" width="161" x="431" y="319.0313"/><text fill="#000000" font-family="sans-serif" font-size="14" lengthAdjust="spacing" textLength="147" x="438" y="340.5645">collaboratorRepository:</text><text fill="#000000" font-family="sans-serif" font-size="14" lengthAdjust="spacing" textLength="146" x="438.5" y="358.1738">CollaboratorRepository</text><rect fill="#FFFFFF" height="236.8125" style="stroke:#181818;stroke-width:1.0;" width="10" x="125" y="65.2188"/><rect fill="#FFFFFF" height="30.3516" style="stroke:#181818;stroke-width:1.0;" width="10" x="260.5" y="112.9219"/><rect fill="#FFFFFF" height="30.3516" style="stroke:#181818;stroke-width:1.0;" width="10" x="367.5" y="173.625"/><rect fill="#FFFFFF" height="30.3516" style="stroke:#181818;stroke-width:1.0;" width="10" x="506.5" y="234.3281"/><path d="M43,72.2188 L219,72.2188 L219,80.5703 L209,90.5703 L43,90.5703 L43,72.2188 " fill="#EEEEEE" style="stroke:#000000;stroke-width:1.5;"/><rect fill="none" height="200.4609" style="stroke:#000000;stroke-width:1.5;" width="559" x="43" y="72.2188"/><text fill="#000000" font-family="sans-serif" font-size="13" font-weight="bold" lengthAdjust="spacing" textLength="131" x="58" y="86.7139">Get Collaborator List</text><polygon fill="#181818" points="248.5,108.9219,258.5,112.9219,248.5,116.9219,252.5,112.9219" style="stroke:#181818;stroke-width:1.0;"/><line style="stroke:#181818;stroke-width:1.0;" x1="135" x2="254.5" y1="112.9219" y2="112.9219"/><text fill="#000000" font-family="sans-serif" font-size="13" font-weight="bold" lengthAdjust="spacing" textLength="14" x="142" y="108.0654">23</text><text fill="#000000" font-family="sans-serif" font-size="13" lengthAdjust="spacing" textLength="75" x="160" y="108.0654">getInstance()</text><polygon fill="#181818" points="146,139.2734,136,143.2734,146,147.2734,142,143.2734" style="stroke:#181818;stroke-width:1.0;"/><line style="stroke:#181818;stroke-width:1.0;stroke-dasharray:2.0,2.0;" x1="140" x2="264.5" y1="143.2734" y2="143.2734"/><text fill="#000000" font-family="sans-serif" font-size="13" font-weight="bold" lengthAdjust="spacing" textLength="14" x="152" y="138.417">24</text><text fill="#000000" font-family="sans-serif" font-size="13" lengthAdjust="spacing" textLength="67" x="170" y="138.417">repositories</text><polygon fill="#181818" points="355.5,169.625,365.5,173.625,355.5,177.625,359.5,173.625" style="stroke:#181818;stroke-width:1.0;"/><line style="stroke:#181818;stroke-width:1.0;" x1="135" x2="361.5" y1="173.625" y2="173.625"/><text fill="#000000" font-family="sans-serif" font-size="13" font-weight="bold" lengthAdjust="spacing" textLength="14" x="142" y="168.7686">25</text><text fill="#000000" font-family="sans-serif" font-size="13" lengthAdjust="spacing" textLength="157" x="160" y="168.7686">getCollaboratorRepository()</text><polygon fill="#181818" points="146,199.9766,136,203.9766,146,207.9766,142,203.9766" style="stroke:#181818;stroke-width:1.0;"/><line style="stroke:#181818;stroke-width:1.0;stroke-dasharray:2.0,2.0;" x1="140" x2="371.5" y1="203.9766" y2="203.9766"/><text fill="#000000" font-family="sans-serif" font-size="13" font-weight="bold" lengthAdjust="spacing" textLength="14" x="152" y="199.1201">26</text><text fill="#000000" font-family="sans-serif" font-size="13" lengthAdjust="spacing" textLength="129" x="170" y="199.1201">collaboratorRepository</text><polygon fill="#181818" points="494.5,230.3281,504.5,234.3281,494.5,238.3281,498.5,234.3281" style="stroke:#181818;stroke-width:1.0;"/><line style="stroke:#181818;stroke-width:1.0;" x1="135" x2="500.5" y1="234.3281" y2="234.3281"/><text fill="#000000" font-family="sans-serif" font-size="13" font-weight="bold" lengthAdjust="spacing" textLength="14" x="142" y="229.4717">27</text><text fill="#000000" font-family="sans-serif" font-size="13" lengthAdjust="spacing" textLength="116" x="160" y="229.4717">getCollaboratorList()</text><polygon fill="#181818" points="146,260.6797,136,264.6797,146,268.6797,142,264.6797" style="stroke:#181818;stroke-width:1.0;"/><line style="stroke:#181818;stroke-width:1.0;stroke-dasharray:2.0,2.0;" x1="140" x2="510.5" y1="264.6797" y2="264.6797"/><text fill="#000000" font-family="sans-serif" font-size="13" font-weight="bold" lengthAdjust="spacing" textLength="14" x="152" y="259.8232">28</text><text fill="#000000" font-family="sans-serif" font-size="13" lengthAdjust="spacing" textLength="88" x="170" y="259.8232">collaboratorList</text><polygon fill="#181818" points="11,298.0313,1,302.0313,11,306.0313,7,302.0313" style="stroke:#181818;stroke-width:1.0;"/><line style="stroke:#181818;stroke-width:1.0;stroke-dasharray:2.0,2.0;" x1="5" x2="129" y1="302.0313" y2="302.0313"/><text fill="#000000" font-family="sans-serif" font-size="13" font-weight="bold" lengthAdjust="spacing" textLength="14" x="17" y="297.1748">29</text><text fill="#000000" font-family="sans-serif" font-size="13" lengthAdjust="spacing" textLength="88" x="35" y="297.1748">collaboratorList</text><!--SRC=[ZP6nReCm48PtFyKfKpkmj1kgAgLH5KLYY4Z6B8Uv4WjZ8_jebRSlXa2TXA6C-FlztVtsjJ8jEcoWiSRAixCD0RkEX9zFMfGrLdJWYoPm91bDfMF0dx6qFyfKy8NQan3OiJLTKv23brSXUegLL2qQXbMwzbvLvb0hhVt66dPMQt8hG0-ROvxTqJcrrYksJf4VcAssHVXvoxa8Evd7r3vR7syJijTYOHtsr8nVqfFPB1wCysKV-UTUz1zALj_8D8vSETkri2M6E0oPyYm20CdxF3UaK17lZEzhbFJq_7VLl9cOsQGF3XUa46yeIbf8JQQmwsXPNYLs3hs88H5SWoo5vMvYwvYRZ6ClZyvGG6oR-hloqNRoBXMxhYaofNXBadybmgFy0W00]--></g></svg>