<?xml version="1.0" encoding="UTF-8" standalone="no"?><svg xmlns="http://www.w3.org/2000/svg" xmlns:xlink="http://www.w3.org/1999/xlink" contentStyleType="text/css" height="524px" preserveAspectRatio="none" style="width:839px;height:524px;background:#FFFFFF;" version="1.1" viewBox="0 0 839 524" width="839px" zoomAndPan="magnify"><defs/><g><!--class HRM--><g id="elem_HRM"><rect codeLine="5" fill="#F1F1F1" height="48" id="HRM" rx="2.5" ry="2.5" style="stroke:#181818;stroke-width:0.5;" width="62" x="110.5" y="16"/><ellipse cx="125.5" cy="32" fill="#ADD1B2" rx="11" ry="11" style="stroke:#181818;stroke-width:1.0;"/><path d="M128.2656,27.875 Q128.4219,27.6563 128.6094,27.5469 Q128.7969,27.4375 129.0156,27.4375 Q129.3906,27.4375 129.625,27.7031 Q129.8594,27.9531 129.8594,28.5625 L129.8594,30.0156 Q129.8594,30.625 129.625,30.8906 Q129.3906,31.1563 129.0156,31.1563 Q128.6719,31.1563 128.4688,30.9531 Q128.2656,30.7656 128.1563,30.25 Q128.1094,29.8906 127.9219,29.7031 Q127.5938,29.3281 126.9844,29.1094 Q126.375,28.8906 125.75,28.8906 Q124.9844,28.8906 124.3438,29.2188 Q123.7188,29.5469 123.2188,30.2969 Q122.7344,31.0469 122.7344,32.0781 L122.7344,33.1719 Q122.7344,34.4063 123.625,35.2344 Q124.5156,36.0469 126.1094,36.0469 Q127.0469,36.0469 127.7031,35.7969 Q128.0938,35.6406 128.5156,35.2031 Q128.7813,34.9375 128.9219,34.8594 Q129.0781,34.7813 129.2813,34.7813 Q129.6094,34.7813 129.8594,35.0469 Q130.125,35.2969 130.125,35.6406 Q130.125,35.9844 129.7813,36.3906 Q129.2813,36.9688 128.4844,37.2969 Q127.4063,37.75 126.1094,37.75 Q124.5938,37.75 123.3906,37.125 Q122.4063,36.625 121.7188,35.5625 Q121.0313,34.4844 121.0313,33.2031 L121.0313,32.0469 Q121.0313,30.7188 121.6406,29.5781 Q122.2656,28.4219 123.3594,27.8125 Q124.4531,27.1875 125.6875,27.1875 Q126.4219,27.1875 127.0625,27.3594 Q127.7188,27.5156 128.2656,27.875 Z " fill="#000000"/><text fill="#000000" font-family="sans-serif" font-size="14" lengthAdjust="spacing" textLength="30" x="139.5" y="37.7285">HRM</text><line style="stroke:#181818;stroke-width:0.5;" x1="111.5" x2="171.5" y1="48" y2="48"/><line style="stroke:#181818;stroke-width:0.5;" x1="111.5" x2="171.5" y1="56" y2="56"/></g><!--class AssignSkillsUI--><g id="elem_AssignSkillsUI"><rect codeLine="9" fill="#F1F1F1" height="48" id="AssignSkillsUI" rx="2.5" ry="2.5" style="stroke:#181818;stroke-width:0.5;" width="118" x="207.5" y="16"/><ellipse cx="222.5" cy="32" fill="#ADD1B2" rx="11" ry="11" style="stroke:#181818;stroke-width:1.0;"/><path d="M225.2656,27.875 Q225.4219,27.6563 225.6094,27.5469 Q225.7969,27.4375 226.0156,27.4375 Q226.3906,27.4375 226.625,27.7031 Q226.8594,27.9531 226.8594,28.5625 L226.8594,30.0156 Q226.8594,30.625 226.625,30.8906 Q226.3906,31.1563 226.0156,31.1563 Q225.6719,31.1563 225.4688,30.9531 Q225.2656,30.7656 225.1563,30.25 Q225.1094,29.8906 224.9219,29.7031 Q224.5938,29.3281 223.9844,29.1094 Q223.375,28.8906 222.75,28.8906 Q221.9844,28.8906 221.3438,29.2188 Q220.7188,29.5469 220.2188,30.2969 Q219.7344,31.0469 219.7344,32.0781 L219.7344,33.1719 Q219.7344,34.4063 220.625,35.2344 Q221.5156,36.0469 223.1094,36.0469 Q224.0469,36.0469 224.7031,35.7969 Q225.0938,35.6406 225.5156,35.2031 Q225.7813,34.9375 225.9219,34.8594 Q226.0781,34.7813 226.2813,34.7813 Q226.6094,34.7813 226.8594,35.0469 Q227.125,35.2969 227.125,35.6406 Q227.125,35.9844 226.7813,36.3906 Q226.2813,36.9688 225.4844,37.2969 Q224.4063,37.75 223.1094,37.75 Q221.5938,37.75 220.3906,37.125 Q219.4063,36.625 218.7188,35.5625 Q218.0313,34.4844 218.0313,33.2031 L218.0313,32.0469 Q218.0313,30.7188 218.6406,29.5781 Q219.2656,28.4219 220.3594,27.8125 Q221.4531,27.1875 222.6875,27.1875 Q223.4219,27.1875 224.0625,27.3594 Q224.7188,27.5156 225.2656,27.875 Z " fill="#000000"/><text fill="#000000" font-family="sans-serif" font-size="14" lengthAdjust="spacing" textLength="86" x="236.5" y="37.7285">AssignSkillsUI</text><line style="stroke:#181818;stroke-width:0.5;" x1="208.5" x2="324.5" y1="48" y2="48"/><line style="stroke:#181818;stroke-width:0.5;" x1="208.5" x2="324.5" y1="56" y2="56"/></g><!--class Repositories--><g id="elem_Repositories"><rect codeLine="12" fill="#F1F1F1" height="65.6094" id="Repositories" rx="2.5" ry="2.5" style="stroke:#181818;stroke-width:0.5;" width="111" x="361" y="7"/><ellipse cx="376" cy="23" fill="#ADD1B2" rx="11" ry="11" style="stroke:#181818;stroke-width:1.0;"/><path d="M378.7656,18.875 Q378.9219,18.6563 379.1094,18.5469 Q379.2969,18.4375 379.5156,18.4375 Q379.8906,18.4375 380.125,18.7031 Q380.3594,18.9531 380.3594,19.5625 L380.3594,21.0156 Q380.3594,21.625 380.125,21.8906 Q379.8906,22.1563 379.5156,22.1563 Q379.1719,22.1563 378.9688,21.9531 Q378.7656,21.7656 378.6563,21.25 Q378.6094,20.8906 378.4219,20.7031 Q378.0938,20.3281 377.4844,20.1094 Q376.875,19.8906 376.25,19.8906 Q375.4844,19.8906 374.8438,20.2188 Q374.2188,20.5469 373.7188,21.2969 Q373.2344,22.0469 373.2344,23.0781 L373.2344,24.1719 Q373.2344,25.4063 374.125,26.2344 Q375.0156,27.0469 376.6094,27.0469 Q377.5469,27.0469 378.2031,26.7969 Q378.5938,26.6406 379.0156,26.2031 Q379.2813,25.9375 379.4219,25.8594 Q379.5781,25.7813 379.7813,25.7813 Q380.1094,25.7813 380.3594,26.0469 Q380.625,26.2969 380.625,26.6406 Q380.625,26.9844 380.2813,27.3906 Q379.7813,27.9688 378.9844,28.2969 Q377.9063,28.75 376.6094,28.75 Q375.0938,28.75 373.8906,28.125 Q372.9063,27.625 372.2188,26.5625 Q371.5313,25.4844 371.5313,24.2031 L371.5313,23.0469 Q371.5313,21.7188 372.1406,20.5781 Q372.7656,19.4219 373.8594,18.8125 Q374.9531,18.1875 376.1875,18.1875 Q376.9219,18.1875 377.5625,18.3594 Q378.2188,18.5156 378.7656,18.875 Z " fill="#000000"/><text fill="#000000" font-family="sans-serif" font-size="14" lengthAdjust="spacing" textLength="79" x="390" y="28.7285">Repositories</text><line style="stroke:#181818;stroke-width:0.5;" x1="362" x2="471" y1="39" y2="39"/><line style="stroke:#181818;stroke-width:0.5;" x1="362" x2="471" y1="47" y2="47"/><ellipse cx="372" cy="61.3047" fill="#84BE84" rx="3" ry="3" style="stroke:#038048;stroke-width:1.0;"/><text fill="#000000" font-family="sans-serif" font-size="14" lengthAdjust="spacing" textLength="83" x="381" y="65.5332">getInstance()</text></g><!--class CollaboratorRepository--><g id="elem_CollaboratorRepository"><rect codeLine="16" fill="#F1F1F1" height="65.6094" id="CollaboratorRepository" rx="2.5" ry="2.5" style="stroke:#181818;stroke-width:0.5;" width="178" x="52.5" y="141.5"/><ellipse cx="67.5" cy="157.5" fill="#ADD1B2" rx="11" ry="11" style="stroke:#181818;stroke-width:1.0;"/><path d="M70.2656,153.375 Q70.4219,153.1563 70.6094,153.0469 Q70.7969,152.9375 71.0156,152.9375 Q71.3906,152.9375 71.625,153.2031 Q71.8594,153.4531 71.8594,154.0625 L71.8594,155.5156 Q71.8594,156.125 71.625,156.3906 Q71.3906,156.6563 71.0156,156.6563 Q70.6719,156.6563 70.4688,156.4531 Q70.2656,156.2656 70.1563,155.75 Q70.1094,155.3906 69.9219,155.2031 Q69.5938,154.8281 68.9844,154.6094 Q68.375,154.3906 67.75,154.3906 Q66.9844,154.3906 66.3438,154.7188 Q65.7188,155.0469 65.2188,155.7969 Q64.7344,156.5469 64.7344,157.5781 L64.7344,158.6719 Q64.7344,159.9063 65.625,160.7344 Q66.5156,161.5469 68.1094,161.5469 Q69.0469,161.5469 69.7031,161.2969 Q70.0938,161.1406 70.5156,160.7031 Q70.7813,160.4375 70.9219,160.3594 Q71.0781,160.2813 71.2813,160.2813 Q71.6094,160.2813 71.8594,160.5469 Q72.125,160.7969 72.125,161.1406 Q72.125,161.4844 71.7813,161.8906 Q71.2813,162.4688 70.4844,162.7969 Q69.4063,163.25 68.1094,163.25 Q66.5938,163.25 65.3906,162.625 Q64.4063,162.125 63.7188,161.0625 Q63.0313,159.9844 63.0313,158.7031 L63.0313,157.5469 Q63.0313,156.2188 63.6406,155.0781 Q64.2656,153.9219 65.3594,153.3125 Q66.4531,152.6875 67.6875,152.6875 Q68.4219,152.6875 69.0625,152.8594 Q69.7188,153.0156 70.2656,153.375 Z " fill="#000000"/><text fill="#000000" font-family="sans-serif" font-size="14" lengthAdjust="spacing" textLength="146" x="81.5" y="163.2285">CollaboratorRepository</text><line style="stroke:#181818;stroke-width:0.5;" x1="53.5" x2="229.5" y1="173.5" y2="173.5"/><ellipse cx="63.5" cy="187.8047" fill="none" rx="3" ry="3" style="stroke:#038048;stroke-width:1.0;"/><text fill="#000000" font-family="sans-serif" font-size="14" lengthAdjust="spacing" textLength="98" x="72.5" y="192.0332">getCollaborator</text><line style="stroke:#181818;stroke-width:0.5;" x1="53.5" x2="229.5" y1="199.1094" y2="199.1094"/></g><!--class SkillsRepository--><g id="elem_SkillsRepository"><rect codeLine="20" fill="#F1F1F1" height="65.6094" id="SkillsRepository" rx="2.5" ry="2.5" style="stroke:#181818;stroke-width:0.5;" width="132" x="265.5" y="141.5"/><ellipse cx="280.5" cy="157.5" fill="#ADD1B2" rx="11" ry="11" style="stroke:#181818;stroke-width:1.0;"/><path d="M283.2656,153.375 Q283.4219,153.1563 283.6094,153.0469 Q283.7969,152.9375 284.0156,152.9375 Q284.3906,152.9375 284.625,153.2031 Q284.8594,153.4531 284.8594,154.0625 L284.8594,155.5156 Q284.8594,156.125 284.625,156.3906 Q284.3906,156.6563 284.0156,156.6563 Q283.6719,156.6563 283.4688,156.4531 Q283.2656,156.2656 283.1563,155.75 Q283.1094,155.3906 282.9219,155.2031 Q282.5938,154.8281 281.9844,154.6094 Q281.375,154.3906 280.75,154.3906 Q279.9844,154.3906 279.3438,154.7188 Q278.7188,155.0469 278.2188,155.7969 Q277.7344,156.5469 277.7344,157.5781 L277.7344,158.6719 Q277.7344,159.9063 278.625,160.7344 Q279.5156,161.5469 281.1094,161.5469 Q282.0469,161.5469 282.7031,161.2969 Q283.0938,161.1406 283.5156,160.7031 Q283.7813,160.4375 283.9219,160.3594 Q284.0781,160.2813 284.2813,160.2813 Q284.6094,160.2813 284.8594,160.5469 Q285.125,160.7969 285.125,161.1406 Q285.125,161.4844 284.7813,161.8906 Q284.2813,162.4688 283.4844,162.7969 Q282.4063,163.25 281.1094,163.25 Q279.5938,163.25 278.3906,162.625 Q277.4063,162.125 276.7188,161.0625 Q276.0313,159.9844 276.0313,158.7031 L276.0313,157.5469 Q276.0313,156.2188 276.6406,155.0781 Q277.2656,153.9219 278.3594,153.3125 Q279.4531,152.6875 280.6875,152.6875 Q281.4219,152.6875 282.0625,152.8594 Q282.7188,153.0156 283.2656,153.375 Z " fill="#000000"/><text fill="#000000" font-family="sans-serif" font-size="14" lengthAdjust="spacing" textLength="100" x="294.5" y="163.2285">SkillsRepository</text><line style="stroke:#181818;stroke-width:0.5;" x1="266.5" x2="396.5" y1="173.5" y2="173.5"/><line style="stroke:#181818;stroke-width:0.5;" x1="266.5" x2="396.5" y1="181.5" y2="181.5"/><ellipse cx="276.5" cy="195.8047" fill="#84BE84" rx="3" ry="3" style="stroke:#038048;stroke-width:1.0;"/><text fill="#000000" font-family="sans-serif" font-size="14" lengthAdjust="spacing" textLength="62" x="285.5" y="200.0332">getSkills()</text></g><!--class AssignSkillsController--><g id="elem_AssignSkillsController"><rect codeLine="24" fill="#F1F1F1" height="83.2188" id="AssignSkillsController" rx="2.5" ry="2.5" style="stroke:#181818;stroke-width:0.5;" width="399" x="433" y="133"/><ellipse cx="560.25" cy="149" fill="#ADD1B2" rx="11" ry="11" style="stroke:#181818;stroke-width:1.0;"/><path d="M563.0156,144.875 Q563.1719,144.6563 563.3594,144.5469 Q563.5469,144.4375 563.7656,144.4375 Q564.1406,144.4375 564.375,144.7031 Q564.6094,144.9531 564.6094,145.5625 L564.6094,147.0156 Q564.6094,147.625 564.375,147.8906 Q564.1406,148.1563 563.7656,148.1563 Q563.4219,148.1563 563.2188,147.9531 Q563.0156,147.7656 562.9063,147.25 Q562.8594,146.8906 562.6719,146.7031 Q562.3438,146.3281 561.7344,146.1094 Q561.125,145.8906 560.5,145.8906 Q559.7344,145.8906 559.0938,146.2188 Q558.4688,146.5469 557.9688,147.2969 Q557.4844,148.0469 557.4844,149.0781 L557.4844,150.1719 Q557.4844,151.4063 558.375,152.2344 Q559.2656,153.0469 560.8594,153.0469 Q561.7969,153.0469 562.4531,152.7969 Q562.8438,152.6406 563.2656,152.2031 Q563.5313,151.9375 563.6719,151.8594 Q563.8281,151.7813 564.0313,151.7813 Q564.3594,151.7813 564.6094,152.0469 Q564.875,152.2969 564.875,152.6406 Q564.875,152.9844 564.5313,153.3906 Q564.0313,153.9688 563.2344,154.2969 Q562.1563,154.75 560.8594,154.75 Q559.3438,154.75 558.1406,154.125 Q557.1563,153.625 556.4688,152.5625 Q555.7813,151.4844 555.7813,150.2031 L555.7813,149.0469 Q555.7813,147.7188 556.3906,146.5781 Q557.0156,145.4219 558.1094,144.8125 Q559.2031,144.1875 560.4375,144.1875 Q561.1719,144.1875 561.8125,144.3594 Q562.4688,144.5156 563.0156,144.875 Z " fill="#000000"/><text fill="#000000" font-family="sans-serif" font-size="14" lengthAdjust="spacing" textLength="136" x="580.75" y="154.7285">AssignSkillsController</text><line style="stroke:#181818;stroke-width:0.5;" x1="434" x2="831" y1="165" y2="165"/><line style="stroke:#181818;stroke-width:0.5;" x1="434" x2="831" y1="173" y2="173"/><ellipse cx="444" cy="187.3047" fill="#84BE84" rx="3" ry="3" style="stroke:#038048;stroke-width:1.0;"/><text fill="#000000" font-family="sans-serif" font-size="14" lengthAdjust="spacing" textLength="373" x="453" y="191.5332">assignSkills(collaboratorId: String, skills: List&lt;String&gt;) : void</text><ellipse cx="444" cy="204.9141" fill="#84BE84" rx="3" ry="3" style="stroke:#038048;stroke-width:1.0;"/><text fill="#000000" font-family="sans-serif" font-size="14" lengthAdjust="spacing" textLength="174" x="453" y="209.1426">getInstance() : Repositories</text></g><!--class Collaborator--><g id="elem_Collaborator"><rect codeLine="29" fill="#F1F1F1" height="241.7031" id="Collaborator" rx="2.5" ry="2.5" style="stroke:#181818;stroke-width:0.5;" width="269" x="7" y="276"/><ellipse cx="98.25" cy="292" fill="#ADD1B2" rx="11" ry="11" style="stroke:#181818;stroke-width:1.0;"/><path d="M101.0156,287.875 Q101.1719,287.6563 101.3594,287.5469 Q101.5469,287.4375 101.7656,287.4375 Q102.1406,287.4375 102.375,287.7031 Q102.6094,287.9531 102.6094,288.5625 L102.6094,290.0156 Q102.6094,290.625 102.375,290.8906 Q102.1406,291.1563 101.7656,291.1563 Q101.4219,291.1563 101.2188,290.9531 Q101.0156,290.7656 100.9063,290.25 Q100.8594,289.8906 100.6719,289.7031 Q100.3438,289.3281 99.7344,289.1094 Q99.125,288.8906 98.5,288.8906 Q97.7344,288.8906 97.0938,289.2188 Q96.4688,289.5469 95.9688,290.2969 Q95.4844,291.0469 95.4844,292.0781 L95.4844,293.1719 Q95.4844,294.4063 96.375,295.2344 Q97.2656,296.0469 98.8594,296.0469 Q99.7969,296.0469 100.4531,295.7969 Q100.8438,295.6406 101.2656,295.2031 Q101.5313,294.9375 101.6719,294.8594 Q101.8281,294.7813 102.0313,294.7813 Q102.3594,294.7813 102.6094,295.0469 Q102.875,295.2969 102.875,295.6406 Q102.875,295.9844 102.5313,296.3906 Q102.0313,296.9688 101.2344,297.2969 Q100.1563,297.75 98.8594,297.75 Q97.3438,297.75 96.1406,297.125 Q95.1563,296.625 94.4688,295.5625 Q93.7813,294.4844 93.7813,293.2031 L93.7813,292.0469 Q93.7813,290.7188 94.3906,289.5781 Q95.0156,288.4219 96.1094,287.8125 Q97.2031,287.1875 98.4375,287.1875 Q99.1719,287.1875 99.8125,287.3594 Q100.4688,287.5156 101.0156,287.875 Z " fill="#000000"/><text fill="#000000" font-family="sans-serif" font-size="14" lengthAdjust="spacing" textLength="78" x="118.75" y="297.7285">Collaborator</text><line style="stroke:#181818;stroke-width:0.5;" x1="8" x2="275" y1="308" y2="308"/><rect fill="none" height="6" style="stroke:#C82930;stroke-width:1.0;" width="6" x="15" y="319.3047"/><text fill="#000000" font-family="sans-serif" font-size="14" lengthAdjust="spacing" textLength="80" x="27" y="326.5332">name: String</text><rect fill="none" height="6" style="stroke:#C82930;stroke-width:1.0;" width="6" x="15" y="336.9141"/><text fill="#000000" font-family="sans-serif" font-size="14" lengthAdjust="spacing" textLength="94" x="27" y="344.1426">birthdate: Date</text><rect fill="none" height="6" style="stroke:#C82930;stroke-width:1.0;" width="6" x="15" y="354.5234"/><text fill="#000000" font-family="sans-serif" font-size="14" lengthAdjust="spacing" textLength="132" x="27" y="361.752">contactMobile: String</text><rect fill="none" height="6" style="stroke:#C82930;stroke-width:1.0;" width="6" x="15" y="372.1328"/><text fill="#000000" font-family="sans-serif" font-size="14" lengthAdjust="spacing" textLength="78" x="27" y="379.3613">email: String</text><rect fill="none" height="6" style="stroke:#C82930;stroke-width:1.0;" width="6" x="15" y="389.7422"/><text fill="#000000" font-family="sans-serif" font-size="14" lengthAdjust="spacing" textLength="96" x="27" y="396.9707">address: String</text><rect fill="none" height="6" style="stroke:#C82930;stroke-width:1.0;" width="6" x="15" y="407.3516"/><text fill="#000000" font-family="sans-serif" font-size="14" lengthAdjust="spacing" textLength="96" x="27" y="414.5801">zipCode: String</text><rect fill="none" height="6" style="stroke:#C82930;stroke-width:1.0;" width="6" x="15" y="424.9609"/><text fill="#000000" font-family="sans-serif" font-size="14" lengthAdjust="spacing" textLength="66" x="27" y="432.1895">city: String</text><rect fill="none" height="6" style="stroke:#C82930;stroke-width:1.0;" width="6" x="15" y="442.5703"/><text fill="#000000" font-family="sans-serif" font-size="14" lengthAdjust="spacing" textLength="243" x="27" y="449.7988">documentTypes: List&lt;DocumentType&gt;</text><rect fill="none" height="6" style="stroke:#C82930;stroke-width:1.0;" width="6" x="15" y="460.1797"/><text fill="#000000" font-family="sans-serif" font-size="14" lengthAdjust="spacing" textLength="131" x="27" y="467.4082">admissionDate: Date</text><rect fill="none" height="6" style="stroke:#C82930;stroke-width:1.0;" width="6" x="15" y="477.7891"/><text fill="#000000" font-family="sans-serif" font-size="14" lengthAdjust="spacing" textLength="49" x="27" y="485.0176">job: Job</text><rect fill="none" height="6" style="stroke:#C82930;stroke-width:1.0;" width="6" x="15" y="495.3984"/><text fill="#000000" font-family="sans-serif" font-size="14" lengthAdjust="spacing" textLength="101" x="27" y="502.627">skills: List&lt;Skill&gt;</text><line style="stroke:#181818;stroke-width:0.5;" x1="8" x2="275" y1="509.7031" y2="509.7031"/></g><!--class Skill--><g id="elem_Skill"><rect codeLine="44" fill="#F1F1F1" height="65.6094" id="Skill" rx="2.5" ry="2.5" style="stroke:#181818;stroke-width:0.5;" width="106" x="311.5" y="364"/><ellipse cx="348.55" cy="380" fill="#ADD1B2" rx="11" ry="11" style="stroke:#181818;stroke-width:1.0;"/><path d="M351.3156,375.875 Q351.4719,375.6563 351.6594,375.5469 Q351.8469,375.4375 352.0656,375.4375 Q352.4406,375.4375 352.675,375.7031 Q352.9094,375.9531 352.9094,376.5625 L352.9094,378.0156 Q352.9094,378.625 352.675,378.8906 Q352.4406,379.1563 352.0656,379.1563 Q351.7219,379.1563 351.5188,378.9531 Q351.3156,378.7656 351.2063,378.25 Q351.1594,377.8906 350.9719,377.7031 Q350.6438,377.3281 350.0344,377.1094 Q349.425,376.8906 348.8,376.8906 Q348.0344,376.8906 347.3938,377.2188 Q346.7688,377.5469 346.2688,378.2969 Q345.7844,379.0469 345.7844,380.0781 L345.7844,381.1719 Q345.7844,382.4063 346.675,383.2344 Q347.5656,384.0469 349.1594,384.0469 Q350.0969,384.0469 350.7531,383.7969 Q351.1438,383.6406 351.5656,383.2031 Q351.8313,382.9375 351.9719,382.8594 Q352.1281,382.7813 352.3313,382.7813 Q352.6594,382.7813 352.9094,383.0469 Q353.175,383.2969 353.175,383.6406 Q353.175,383.9844 352.8313,384.3906 Q352.3313,384.9688 351.5344,385.2969 Q350.4563,385.75 349.1594,385.75 Q347.6438,385.75 346.4406,385.125 Q345.4563,384.625 344.7688,383.5625 Q344.0813,382.4844 344.0813,381.2031 L344.0813,380.0469 Q344.0813,378.7188 344.6906,377.5781 Q345.3156,376.4219 346.4094,375.8125 Q347.5031,375.1875 348.7375,375.1875 Q349.4719,375.1875 350.1125,375.3594 Q350.7688,375.5156 351.3156,375.875 Z " fill="#000000"/><text fill="#000000" font-family="sans-serif" font-size="14" lengthAdjust="spacing" textLength="25" x="367.45" y="385.7285">Skill</text><line style="stroke:#181818;stroke-width:0.5;" x1="312.5" x2="416.5" y1="396" y2="396"/><rect fill="none" height="6" style="stroke:#C82930;stroke-width:1.0;" width="6" x="319.5" y="407.3047"/><text fill="#000000" font-family="sans-serif" font-size="14" lengthAdjust="spacing" textLength="80" x="331.5" y="414.5332">name: String</text><line style="stroke:#181818;stroke-width:0.5;" x1="312.5" x2="416.5" y1="421.6094" y2="421.6094"/></g><!--SRC=[RLB1Ri8m3BttAtm4RVk1QaAQu32cSO7j0zp4AnvfNCNPfcxYtnTeWL2HGoI_vvTdFqLtx5iCs42BPeSrRMBd20APYBvsLEYvGRTevOTz3H_eD6SSUufTIz2Awmv5KHY7gl2yNi5ViIzEzPCgrtwpO-VqVTbJFREcLfIZ12PDEAHp1pN5fTSqYA79zD8x5-Umae2f_QphSbNUST7rlhSLFPUxvBFEnSUGtgHmqc36JancjxGbR698CTs37kaINbdZOm_Efb32jx3jdxdQC35v3BSN7WPu08yDdQm6gE8GjnPZmXVf7b2JXaSJLrAn6okeGNOZ3AqDf3f2VxcTYnth3STk15anNmtv-9O-n6dtHORDpZODfn35ByO3VqfLmejKGtcTug6OPL_g2DmEPL_y0m00]--></g></svg>