<?xml version="1.0" encoding="UTF-8" standalone="no"?><svg xmlns="http://www.w3.org/2000/svg" xmlns:xlink="http://www.w3.org/1999/xlink" contentStyleType="text/css" height="1125px" preserveAspectRatio="none" style="width:1392px;height:1125px;background:#FFFFFF;" version="1.1" viewBox="0 0 1392 1125" width="1392px" zoomAndPan="magnify"><defs/><g><rect fill="#FFFFFF" height="988.5078" style="stroke:#181818;stroke-width:1.0;" width="10" x="22" y="65.2188"/><rect fill="#FFFFFF" height="315.7734" style="stroke:#181818;stroke-width:1.0;" width="10" x="404" y="87.5703"/><rect fill="#FFFFFF" height="30.3516" style="stroke:#181818;stroke-width:1.0;" width="10" x="404" y="433.6953"/><rect fill="#FFFFFF" height="30.3516" style="stroke:#181818;stroke-width:1.0;" width="10" x="404" y="676.5078"/><rect fill="#FFFFFF" height="30.3516" style="stroke:#181818;stroke-width:1.0;" width="10" x="404" y="737.2109"/><rect fill="#FFFFFF" height="30.3516" style="stroke:#181818;stroke-width:1.0;" width="10" x="404" y="797.9141"/><rect fill="#FFFFFF" height="30.3516" style="stroke:#181818;stroke-width:1.0;" width="10" x="404" y="1023.375"/><rect fill="#FFFFFF" height="212.4609" style="stroke:#181818;stroke-width:1.0;" width="10" x="557" y="160.5313"/><rect fill="#FFFFFF" height="212.4609" style="stroke:#181818;stroke-width:1.0;" width="10" x="557" y="464.0469"/><rect fill="#FFFFFF" height="30.3516" style="stroke:#181818;stroke-width:1.0;" width="10" x="557" y="828.2656"/><rect fill="#FFFFFF" height="30.3516" style="stroke:#181818;stroke-width:1.0;" width="10" x="557" y="993.0234"/><rect fill="#FFFFFF" height="30.3516" style="stroke:#181818;stroke-width:1.0;" width="10" x="692.5" y="190.8828"/><rect fill="#FFFFFF" height="30.3516" style="stroke:#181818;stroke-width:1.0;" width="10" x="692.5" y="494.3984"/><rect fill="#FFFFFF" height="30.3516" style="stroke:#181818;stroke-width:1.0;" width="10" x="799.5" y="251.5859"/><rect fill="#FFFFFF" height="30.3516" style="stroke:#181818;stroke-width:1.0;" width="10" x="799.5" y="555.1016"/><rect fill="#FFFFFF" height="30.3516" style="stroke:#181818;stroke-width:1.0;" width="10" x="938.5" y="312.2891"/><rect fill="#FFFFFF" height="30.3516" style="stroke:#181818;stroke-width:1.0;" width="10" x="938.5" y="858.6172"/><rect fill="#FFFFFF" height="30.3516" style="stroke:#181818;stroke-width:1.0;" width="10" x="938.5" y="962.6719"/><rect fill="#FFFFFF" height="30.3516" style="stroke:#181818;stroke-width:1.0;" width="10" x="1087" y="615.8047"/><rect fill="#FFFFFF" height="73.7031" style="stroke:#181818;stroke-width:1.0;" width="10" x="1203" y="888.9688"/><line style="stroke:#181818;stroke-width:0.5;stroke-dasharray:5.0,5.0;" x1="27" x2="27" y1="55.2188" y2="1071.7266"/><line style="stroke:#181818;stroke-width:0.5;stroke-dasharray:5.0,5.0;" x1="409" x2="409" y1="55.2188" y2="1071.7266"/><line style="stroke:#181818;stroke-width:0.5;stroke-dasharray:5.0,5.0;" x1="562" x2="562" y1="126.875" y2="1071.7266"/><line style="stroke:#181818;stroke-width:0.5;stroke-dasharray:5.0,5.0;" x1="697" x2="697" y1="55.2188" y2="1071.7266"/><line style="stroke:#181818;stroke-width:0.5;stroke-dasharray:5.0,5.0;" x1="804" x2="804" y1="55.2188" y2="1071.7266"/><line style="stroke:#181818;stroke-width:0.5;stroke-dasharray:5.0,5.0;" x1="943" x2="943" y1="55.2188" y2="1071.7266"/><line style="stroke:#181818;stroke-width:0.5;stroke-dasharray:5.0,5.0;" x1="1092" x2="1092" y1="55.2188" y2="1071.7266"/><line style="stroke:#181818;stroke-width:0.5;stroke-dasharray:5.0,5.0;" x1="1208" x2="1208" y1="55.2188" y2="1071.7266"/><rect fill="#E3E3E3" height="31.6094" rx="2.5" ry="2.5" style="stroke:#181818;stroke-width:0.5;" width="44" x="5" y="22.6094"/><text fill="#000000" font-family="sans-serif" font-size="14" lengthAdjust="spacing" textLength="30" x="12" y="44.1426">HRM</text><rect fill="#E3E3E3" height="31.6094" rx="2.5" ry="2.5" style="stroke:#181818;stroke-width:0.5;" width="44" x="5" y="1070.7266"/><text fill="#000000" font-family="sans-serif" font-size="14" lengthAdjust="spacing" textLength="30" x="12" y="1092.2598">HRM</text><rect fill="#E3E3E3" height="31.6094" rx="2.5" ry="2.5" style="stroke:#181818;stroke-width:0.5;" width="104" x="357" y="22.6094"/><text fill="#000000" font-family="sans-serif" font-size="14" lengthAdjust="spacing" textLength="90" x="364" y="44.1426">:AssignSkillsUI</text><rect fill="#E3E3E3" height="31.6094" rx="2.5" ry="2.5" style="stroke:#181818;stroke-width:0.5;" width="104" x="357" y="1070.7266"/><text fill="#000000" font-family="sans-serif" font-size="14" lengthAdjust="spacing" textLength="90" x="364" y="1092.2598">:AssignSkillsUI</text><rect fill="#E3E3E3" height="31.6094" rx="2.5" ry="2.5" style="stroke:#181818;stroke-width:0.5;" width="154" x="485" y="1070.7266"/><text fill="#000000" font-family="sans-serif" font-size="14" lengthAdjust="spacing" textLength="140" x="492" y="1092.2598">:AssignSkillsController</text><rect fill="#E3E3E3" height="31.6094" rx="2.5" ry="2.5" style="stroke:#181818;stroke-width:0.5;" width="97" x="649" y="22.6094"/><text fill="#000000" font-family="sans-serif" font-size="14" lengthAdjust="spacing" textLength="83" x="656" y="44.1426">:Repositories</text><rect fill="#E3E3E3" height="31.6094" rx="2.5" ry="2.5" style="stroke:#181818;stroke-width:0.5;" width="97" x="649" y="1070.7266"/><text fill="#000000" font-family="sans-serif" font-size="14" lengthAdjust="spacing" textLength="83" x="656" y="1092.2598">:Repositories</text><rect fill="#E3E3E3" height="49.2188" rx="2.5" ry="2.5" style="stroke:#181818;stroke-width:0.5;" width="97" x="756" y="5"/><text fill="#000000" font-family="sans-serif" font-size="14" lengthAdjust="spacing" textLength="74" x="767.5" y="26.5332">repositories</text><text fill="#000000" font-family="sans-serif" font-size="14" lengthAdjust="spacing" textLength="83" x="763" y="44.1426">:Repositories</text><rect fill="#E3E3E3" height="49.2188" rx="2.5" ry="2.5" style="stroke:#181818;stroke-width:0.5;" width="97" x="756" y="1070.7266"/><text fill="#000000" font-family="sans-serif" font-size="14" lengthAdjust="spacing" textLength="74" x="767.5" y="1092.2598">repositories</text><text fill="#000000" font-family="sans-serif" font-size="14" lengthAdjust="spacing" textLength="83" x="763" y="1109.8691">:Repositories</text><rect fill="#E3E3E3" height="49.2188" rx="2.5" ry="2.5" style="stroke:#181818;stroke-width:0.5;" width="161" x="863" y="5"/><text fill="#000000" font-family="sans-serif" font-size="14" lengthAdjust="spacing" textLength="147" x="870" y="26.5332">collaboratorRepository:</text><text fill="#000000" font-family="sans-serif" font-size="14" lengthAdjust="spacing" textLength="146" x="870.5" y="44.1426">CollaboratorRepository</text><rect fill="#E3E3E3" height="49.2188" rx="2.5" ry="2.5" style="stroke:#181818;stroke-width:0.5;" width="161" x="863" y="1070.7266"/><text fill="#000000" font-family="sans-serif" font-size="14" lengthAdjust="spacing" textLength="147" x="870" y="1092.2598">collaboratorRepository:</text><text fill="#000000" font-family="sans-serif" font-size="14" lengthAdjust="spacing" textLength="146" x="870.5" y="1109.8691">CollaboratorRepository</text><rect fill="#E3E3E3" height="49.2188" rx="2.5" ry="2.5" style="stroke:#181818;stroke-width:0.5;" width="116" x="1034" y="5"/><text fill="#000000" font-family="sans-serif" font-size="14" lengthAdjust="spacing" textLength="102" x="1041" y="26.5332">skillsRepository:</text><text fill="#000000" font-family="sans-serif" font-size="14" lengthAdjust="spacing" textLength="100" x="1042" y="44.1426">SkillsRepository</text><rect fill="#E3E3E3" height="49.2188" rx="2.5" ry="2.5" style="stroke:#181818;stroke-width:0.5;" width="116" x="1034" y="1070.7266"/><text fill="#000000" font-family="sans-serif" font-size="14" lengthAdjust="spacing" textLength="102" x="1041" y="1092.2598">skillsRepository:</text><text fill="#000000" font-family="sans-serif" font-size="14" lengthAdjust="spacing" textLength="100" x="1042" y="1109.8691">SkillsRepository</text><rect fill="#E3E3E3" height="31.6094" rx="2.5" ry="2.5" style="stroke:#181818;stroke-width:0.5;" width="96" x="1160" y="22.6094"/><text fill="#000000" font-family="sans-serif" font-size="14" lengthAdjust="spacing" textLength="82" x="1167" y="44.1426">:Collaborator</text><rect fill="#E3E3E3" height="31.6094" rx="2.5" ry="2.5" style="stroke:#181818;stroke-width:0.5;" width="96" x="1160" y="1070.7266"/><text fill="#000000" font-family="sans-serif" font-size="14" lengthAdjust="spacing" textLength="82" x="1167" y="1092.2598">:Collaborator</text><rect fill="#FFFFFF" height="988.5078" style="stroke:#181818;stroke-width:1.0;" width="10" x="22" y="65.2188"/><rect fill="#FFFFFF" height="315.7734" style="stroke:#181818;stroke-width:1.0;" width="10" x="404" y="87.5703"/><rect fill="#FFFFFF" height="30.3516" style="stroke:#181818;stroke-width:1.0;" width="10" x="404" y="433.6953"/><rect fill="#FFFFFF" height="30.3516" style="stroke:#181818;stroke-width:1.0;" width="10" x="404" y="676.5078"/><rect fill="#FFFFFF" height="30.3516" style="stroke:#181818;stroke-width:1.0;" width="10" x="404" y="737.2109"/><rect fill="#FFFFFF" height="30.3516" style="stroke:#181818;stroke-width:1.0;" width="10" x="404" y="797.9141"/><rect fill="#FFFFFF" height="30.3516" style="stroke:#181818;stroke-width:1.0;" width="10" x="404" y="1023.375"/><rect fill="#FFFFFF" height="212.4609" style="stroke:#181818;stroke-width:1.0;" width="10" x="557" y="160.5313"/><rect fill="#FFFFFF" height="212.4609" style="stroke:#181818;stroke-width:1.0;" width="10" x="557" y="464.0469"/><rect fill="#FFFFFF" height="30.3516" style="stroke:#181818;stroke-width:1.0;" width="10" x="557" y="828.2656"/><rect fill="#FFFFFF" height="30.3516" style="stroke:#181818;stroke-width:1.0;" width="10" x="557" y="993.0234"/><rect fill="#FFFFFF" height="30.3516" style="stroke:#181818;stroke-width:1.0;" width="10" x="692.5" y="190.8828"/><rect fill="#FFFFFF" height="30.3516" style="stroke:#181818;stroke-width:1.0;" width="10" x="692.5" y="494.3984"/><rect fill="#FFFFFF" height="30.3516" style="stroke:#181818;stroke-width:1.0;" width="10" x="799.5" y="251.5859"/><rect fill="#FFFFFF" height="30.3516" style="stroke:#181818;stroke-width:1.0;" width="10" x="799.5" y="555.1016"/><rect fill="#FFFFFF" height="30.3516" style="stroke:#181818;stroke-width:1.0;" width="10" x="938.5" y="312.2891"/><rect fill="#FFFFFF" height="30.3516" style="stroke:#181818;stroke-width:1.0;" width="10" x="938.5" y="858.6172"/><rect fill="#FFFFFF" height="30.3516" style="stroke:#181818;stroke-width:1.0;" width="10" x="938.5" y="962.6719"/><rect fill="#FFFFFF" height="30.3516" style="stroke:#181818;stroke-width:1.0;" width="10" x="1087" y="615.8047"/><rect fill="#FFFFFF" height="73.7031" style="stroke:#181818;stroke-width:1.0;" width="10" x="1203" y="888.9688"/><polygon fill="#181818" points="392,83.5703,402,87.5703,392,91.5703,396,87.5703" style="stroke:#181818;stroke-width:1.0;"/><line style="stroke:#181818;stroke-width:1.0;" x1="32" x2="398" y1="87.5703" y2="87.5703"/><text fill="#000000" font-family="sans-serif" font-size="13" font-weight="bold" lengthAdjust="spacing" textLength="7" x="39" y="82.7139">1</text><text fill="#000000" font-family="sans-serif" font-size="13" lengthAdjust="spacing" textLength="216" x="50" y="82.7139">asks to assign skills to a collaborator</text><polygon fill="#181818" points="473,113.9219,483,117.9219,473,121.9219,477,117.9219" style="stroke:#181818;stroke-width:1.0;"/><line style="stroke:#181818;stroke-width:1.0;" x1="414" x2="479" y1="117.9219" y2="117.9219"/><text fill="#000000" font-family="sans-serif" font-size="13" font-weight="bold" lengthAdjust="spacing" textLength="7" x="421" y="113.0654">2</text><text fill="#000000" font-family="sans-serif" font-size="13" lengthAdjust="spacing" textLength="36" x="432" y="113.0654">create</text><rect fill="#E3E3E3" height="31.6094" rx="2.5" ry="2.5" style="stroke:#181818;stroke-width:0.5;" width="154" x="485" y="95.5703"/><text fill="#000000" font-family="sans-serif" font-size="14" lengthAdjust="spacing" textLength="140" x="492" y="117.1035">:AssignSkillsController</text><polygon fill="#181818" points="545,156.5313,555,160.5313,545,164.5313,549,160.5313" style="stroke:#181818;stroke-width:1.0;"/><line style="stroke:#181818;stroke-width:1.0;" x1="414" x2="551" y1="160.5313" y2="160.5313"/><text fill="#000000" font-family="sans-serif" font-size="13" font-weight="bold" lengthAdjust="spacing" textLength="7" x="421" y="155.6748">3</text><text fill="#000000" font-family="sans-serif" font-size="13" lengthAdjust="spacing" textLength="110" x="432" y="155.6748">get collaboratorList</text><polygon fill="#181818" points="680.5,186.8828,690.5,190.8828,680.5,194.8828,684.5,190.8828" style="stroke:#181818;stroke-width:1.0;"/><line style="stroke:#181818;stroke-width:1.0;" x1="567" x2="686.5" y1="190.8828" y2="190.8828"/><text fill="#000000" font-family="sans-serif" font-size="13" font-weight="bold" lengthAdjust="spacing" textLength="7" x="574" y="186.0264">4</text><text fill="#000000" font-family="sans-serif" font-size="13" lengthAdjust="spacing" textLength="75" x="585" y="186.0264">getInstance()</text><polygon fill="#181818" points="578,217.2344,568,221.2344,578,225.2344,574,221.2344" style="stroke:#181818;stroke-width:1.0;"/><line style="stroke:#181818;stroke-width:1.0;stroke-dasharray:2.0,2.0;" x1="572" x2="696.5" y1="221.2344" y2="221.2344"/><text fill="#000000" font-family="sans-serif" font-size="13" font-weight="bold" lengthAdjust="spacing" textLength="7" x="584" y="216.3779">5</text><text fill="#000000" font-family="sans-serif" font-size="13" lengthAdjust="spacing" textLength="67" x="595" y="216.3779">repositories</text><polygon fill="#181818" points="787.5,247.5859,797.5,251.5859,787.5,255.5859,791.5,251.5859" style="stroke:#181818;stroke-width:1.0;"/><line style="stroke:#181818;stroke-width:1.0;" x1="567" x2="793.5" y1="251.5859" y2="251.5859"/><text fill="#000000" font-family="sans-serif" font-size="13" font-weight="bold" lengthAdjust="spacing" textLength="7" x="574" y="246.7295">6</text><text fill="#000000" font-family="sans-serif" font-size="13" lengthAdjust="spacing" textLength="157" x="585" y="246.7295">getCollaboratorRepository()</text><polygon fill="#181818" points="578,277.9375,568,281.9375,578,285.9375,574,281.9375" style="stroke:#181818;stroke-width:1.0;"/><line style="stroke:#181818;stroke-width:1.0;stroke-dasharray:2.0,2.0;" x1="572" x2="803.5" y1="281.9375" y2="281.9375"/><text fill="#000000" font-family="sans-serif" font-size="13" font-weight="bold" lengthAdjust="spacing" textLength="7" x="584" y="277.0811">7</text><text fill="#000000" font-family="sans-serif" font-size="13" lengthAdjust="spacing" textLength="129" x="595" y="277.0811">collaboratorRepository</text><polygon fill="#181818" points="926.5,308.2891,936.5,312.2891,926.5,316.2891,930.5,312.2891" style="stroke:#181818;stroke-width:1.0;"/><line style="stroke:#181818;stroke-width:1.0;" x1="567" x2="932.5" y1="312.2891" y2="312.2891"/><text fill="#000000" font-family="sans-serif" font-size="13" font-weight="bold" lengthAdjust="spacing" textLength="7" x="574" y="307.4326">8</text><text fill="#000000" font-family="sans-serif" font-size="13" lengthAdjust="spacing" textLength="116" x="585" y="307.4326">getCollaboratorList()</text><polygon fill="#181818" points="578,338.6406,568,342.6406,578,346.6406,574,342.6406" style="stroke:#181818;stroke-width:1.0;"/><line style="stroke:#181818;stroke-width:1.0;stroke-dasharray:2.0,2.0;" x1="572" x2="942.5" y1="342.6406" y2="342.6406"/><text fill="#000000" font-family="sans-serif" font-size="13" font-weight="bold" lengthAdjust="spacing" textLength="7" x="584" y="337.7842">9</text><text fill="#000000" font-family="sans-serif" font-size="13" lengthAdjust="spacing" textLength="88" x="595" y="337.7842">collaboratorList</text><polygon fill="#181818" points="425,368.9922,415,372.9922,425,376.9922,421,372.9922" style="stroke:#181818;stroke-width:1.0;"/><line style="stroke:#181818;stroke-width:1.0;stroke-dasharray:2.0,2.0;" x1="419" x2="561" y1="372.9922" y2="372.9922"/><text fill="#000000" font-family="sans-serif" font-size="13" font-weight="bold" lengthAdjust="spacing" textLength="14" x="431" y="368.1357">10</text><text fill="#000000" font-family="sans-serif" font-size="13" lengthAdjust="spacing" textLength="88" x="449" y="368.1357">collaboratorList</text><polygon fill="#181818" points="43,399.3438,33,403.3438,43,407.3438,39,403.3438" style="stroke:#181818;stroke-width:1.0;"/><line style="stroke:#181818;stroke-width:1.0;stroke-dasharray:2.0,2.0;" x1="37" x2="408" y1="403.3438" y2="403.3438"/><text fill="#000000" font-family="sans-serif" font-size="13" font-weight="bold" lengthAdjust="spacing" textLength="14" x="49" y="398.4873">11</text><text fill="#000000" font-family="sans-serif" font-size="13" lengthAdjust="spacing" textLength="330" x="67" y="398.4873">shows the list of collaborators and requests to select one</text><polygon fill="#181818" points="392,429.6953,402,433.6953,392,437.6953,396,433.6953" style="stroke:#181818;stroke-width:1.0;"/><line style="stroke:#181818;stroke-width:1.0;" x1="32" x2="398" y1="433.6953" y2="433.6953"/><text fill="#000000" font-family="sans-serif" font-size="13" font-weight="bold" lengthAdjust="spacing" textLength="14" x="39" y="428.8389">12</text><text fill="#000000" font-family="sans-serif" font-size="13" lengthAdjust="spacing" textLength="124" x="57" y="428.8389">selects a collaborator</text><polygon fill="#181818" points="545,460.0469,555,464.0469,545,468.0469,549,464.0469" style="stroke:#181818;stroke-width:1.0;"/><line style="stroke:#181818;stroke-width:1.0;" x1="409" x2="551" y1="464.0469" y2="464.0469"/><text fill="#000000" font-family="sans-serif" font-size="13" font-weight="bold" lengthAdjust="spacing" textLength="14" x="416" y="459.1904">13</text><text fill="#000000" font-family="sans-serif" font-size="13" lengthAdjust="spacing" textLength="73" x="434" y="459.1904">get skillsList</text><polygon fill="#181818" points="680.5,490.3984,690.5,494.3984,680.5,498.3984,684.5,494.3984" style="stroke:#181818;stroke-width:1.0;"/><line style="stroke:#181818;stroke-width:1.0;" x1="567" x2="686.5" y1="494.3984" y2="494.3984"/><text fill="#000000" font-family="sans-serif" font-size="13" font-weight="bold" lengthAdjust="spacing" textLength="14" x="574" y="489.542">14</text><text fill="#000000" font-family="sans-serif" font-size="13" lengthAdjust="spacing" textLength="75" x="592" y="489.542">getInstance()</text><polygon fill="#181818" points="578,520.75,568,524.75,578,528.75,574,524.75" style="stroke:#181818;stroke-width:1.0;"/><line style="stroke:#181818;stroke-width:1.0;stroke-dasharray:2.0,2.0;" x1="572" x2="696.5" y1="524.75" y2="524.75"/><text fill="#000000" font-family="sans-serif" font-size="13" font-weight="bold" lengthAdjust="spacing" textLength="14" x="584" y="519.8936">15</text><text fill="#000000" font-family="sans-serif" font-size="13" lengthAdjust="spacing" textLength="67" x="602" y="519.8936">repositories</text><polygon fill="#181818" points="787.5,551.1016,797.5,555.1016,787.5,559.1016,791.5,555.1016" style="stroke:#181818;stroke-width:1.0;"/><line style="stroke:#181818;stroke-width:1.0;" x1="567" x2="793.5" y1="555.1016" y2="555.1016"/><text fill="#000000" font-family="sans-serif" font-size="13" font-weight="bold" lengthAdjust="spacing" textLength="14" x="574" y="550.2451">16</text><text fill="#000000" font-family="sans-serif" font-size="13" lengthAdjust="spacing" textLength="120" x="592" y="550.2451">getSkillsRepository()</text><polygon fill="#181818" points="578,581.4531,568,585.4531,578,589.4531,574,585.4531" style="stroke:#181818;stroke-width:1.0;"/><line style="stroke:#181818;stroke-width:1.0;stroke-dasharray:2.0,2.0;" x1="572" x2="803.5" y1="585.4531" y2="585.4531"/><text fill="#000000" font-family="sans-serif" font-size="13" font-weight="bold" lengthAdjust="spacing" textLength="14" x="584" y="580.5967">17</text><text fill="#000000" font-family="sans-serif" font-size="13" lengthAdjust="spacing" textLength="92" x="602" y="580.5967">skillsRepository</text><polygon fill="#181818" points="1075,611.8047,1085,615.8047,1075,619.8047,1079,615.8047" style="stroke:#181818;stroke-width:1.0;"/><line style="stroke:#181818;stroke-width:1.0;" x1="567" x2="1081" y1="615.8047" y2="615.8047"/><text fill="#000000" font-family="sans-serif" font-size="13" font-weight="bold" lengthAdjust="spacing" textLength="14" x="574" y="610.9482">18</text><text fill="#000000" font-family="sans-serif" font-size="13" lengthAdjust="spacing" textLength="58" x="592" y="610.9482">getSkills()</text><polygon fill="#181818" points="578,642.1563,568,646.1563,578,650.1563,574,646.1563" style="stroke:#181818;stroke-width:1.0;"/><line style="stroke:#181818;stroke-width:1.0;stroke-dasharray:2.0,2.0;" x1="572" x2="1091" y1="646.1563" y2="646.1563"/><text fill="#000000" font-family="sans-serif" font-size="13" font-weight="bold" lengthAdjust="spacing" textLength="14" x="584" y="641.2998">19</text><text fill="#000000" font-family="sans-serif" font-size="13" lengthAdjust="spacing" textLength="51" x="602" y="641.2998">skillsList</text><polygon fill="#181818" points="425,672.5078,415,676.5078,425,680.5078,421,676.5078" style="stroke:#181818;stroke-width:1.0;"/><line style="stroke:#181818;stroke-width:1.0;stroke-dasharray:2.0,2.0;" x1="419" x2="561" y1="676.5078" y2="676.5078"/><text fill="#000000" font-family="sans-serif" font-size="13" font-weight="bold" lengthAdjust="spacing" textLength="14" x="431" y="671.6514">20</text><text fill="#000000" font-family="sans-serif" font-size="13" lengthAdjust="spacing" textLength="51" x="449" y="671.6514">skillsList</text><polygon fill="#181818" points="43,702.8594,33,706.8594,43,710.8594,39,706.8594" style="stroke:#181818;stroke-width:1.0;"/><line style="stroke:#181818;stroke-width:1.0;stroke-dasharray:2.0,2.0;" x1="37" x2="408" y1="706.8594" y2="706.8594"/><text fill="#000000" font-family="sans-serif" font-size="13" font-weight="bold" lengthAdjust="spacing" textLength="14" x="49" y="702.0029">21</text><text fill="#000000" font-family="sans-serif" font-size="13" lengthAdjust="spacing" textLength="286" x="67" y="702.0029">shows the list of skills and requests to select one</text><polygon fill="#181818" points="392,733.2109,402,737.2109,392,741.2109,396,737.2109" style="stroke:#181818;stroke-width:1.0;"/><line style="stroke:#181818;stroke-width:1.0;" x1="32" x2="398" y1="737.2109" y2="737.2109"/><text fill="#000000" font-family="sans-serif" font-size="13" font-weight="bold" lengthAdjust="spacing" textLength="14" x="39" y="732.3545">22</text><text fill="#000000" font-family="sans-serif" font-size="13" lengthAdjust="spacing" textLength="73" x="57" y="732.3545">select a skill</text><polygon fill="#181818" points="43,763.5625,33,767.5625,43,771.5625,39,767.5625" style="stroke:#181818;stroke-width:1.0;"/><line style="stroke:#181818;stroke-width:1.0;stroke-dasharray:2.0,2.0;" x1="37" x2="408" y1="767.5625" y2="767.5625"/><text fill="#000000" font-family="sans-serif" font-size="13" font-weight="bold" lengthAdjust="spacing" textLength="14" x="49" y="762.7061">23</text><text fill="#000000" font-family="sans-serif" font-size="13" lengthAdjust="spacing" textLength="236" x="67" y="762.7061">shows all data and requests confirmation</text><polygon fill="#181818" points="392,793.9141,402,797.9141,392,801.9141,396,797.9141" style="stroke:#181818;stroke-width:1.0;"/><line style="stroke:#181818;stroke-width:1.0;" x1="32" x2="398" y1="797.9141" y2="797.9141"/><text fill="#000000" font-family="sans-serif" font-size="13" font-weight="bold" lengthAdjust="spacing" textLength="14" x="39" y="793.0576">24</text><text fill="#000000" font-family="sans-serif" font-size="13" lengthAdjust="spacing" textLength="78" x="57" y="793.0576">confirms data</text><polygon fill="#181818" points="545,824.2656,555,828.2656,545,832.2656,549,828.2656" style="stroke:#181818;stroke-width:1.0;"/><line style="stroke:#181818;stroke-width:1.0;" x1="409" x2="551" y1="828.2656" y2="828.2656"/><text fill="#000000" font-family="sans-serif" font-size="13" font-weight="bold" lengthAdjust="spacing" textLength="14" x="416" y="823.4092">25</text><text fill="#000000" font-family="sans-serif" font-size="13" lengthAdjust="spacing" textLength="72" x="434" y="823.4092">assign skills</text><polygon fill="#181818" points="926.5,854.6172,936.5,858.6172,926.5,862.6172,930.5,858.6172" style="stroke:#181818;stroke-width:1.0;"/><line style="stroke:#181818;stroke-width:1.0;" x1="562" x2="932.5" y1="858.6172" y2="858.6172"/><text fill="#000000" font-family="sans-serif" font-size="13" font-weight="bold" lengthAdjust="spacing" textLength="14" x="569" y="853.7607">26</text><text fill="#000000" font-family="sans-serif" font-size="13" lengthAdjust="spacing" textLength="242" x="587" y="853.7607">assignSkills(collaborator, selectedSkills[])</text><polygon fill="#181818" points="1191,884.9688,1201,888.9688,1191,892.9688,1195,888.9688" style="stroke:#181818;stroke-width:1.0;"/><line style="stroke:#181818;stroke-width:1.0;" x1="943.5" x2="1197" y1="888.9688" y2="888.9688"/><text fill="#000000" font-family="sans-serif" font-size="13" font-weight="bold" lengthAdjust="spacing" textLength="14" x="950.5" y="884.1123">27</text><text fill="#000000" font-family="sans-serif" font-size="13" lengthAdjust="spacing" textLength="167" x="968.5" y="884.1123">assignSkills(selectedSkills[])</text><line style="stroke:#181818;stroke-width:1.0;" x1="1213" x2="1255" y1="919.3203" y2="919.3203"/><line style="stroke:#181818;stroke-width:1.0;" x1="1255" x2="1255" y1="919.3203" y2="932.3203"/><line style="stroke:#181818;stroke-width:1.0;" x1="1214" x2="1255" y1="932.3203" y2="932.3203"/><polygon fill="#181818" points="1224,928.3203,1214,932.3203,1224,936.3203,1220,932.3203" style="stroke:#181818;stroke-width:1.0;"/><text fill="#000000" font-family="sans-serif" font-size="13" font-weight="bold" lengthAdjust="spacing" textLength="14" x="1220" y="914.4639">28</text><text fill="#000000" font-family="sans-serif" font-size="13" lengthAdjust="spacing" textLength="147" x="1238" y="914.4639">setSkills(selectedSkills[])</text><polygon fill="#181818" points="959.5,958.6719,949.5,962.6719,959.5,966.6719,955.5,962.6719" style="stroke:#181818;stroke-width:1.0;"/><line style="stroke:#181818;stroke-width:1.0;stroke-dasharray:2.0,2.0;" x1="953.5" x2="1207" y1="962.6719" y2="962.6719"/><text fill="#000000" font-family="sans-serif" font-size="13" font-weight="bold" lengthAdjust="spacing" textLength="14" x="965.5" y="957.8154">29</text><text fill="#000000" font-family="sans-serif" font-size="13" lengthAdjust="spacing" textLength="67" x="983.5" y="957.8154">collaborator</text><polygon fill="#181818" points="578,989.0234,568,993.0234,578,997.0234,574,993.0234" style="stroke:#181818;stroke-width:1.0;"/><line style="stroke:#181818;stroke-width:1.0;stroke-dasharray:2.0,2.0;" x1="572" x2="942.5" y1="993.0234" y2="993.0234"/><text fill="#000000" font-family="sans-serif" font-size="13" font-weight="bold" lengthAdjust="spacing" textLength="14" x="584" y="988.167">30</text><text fill="#000000" font-family="sans-serif" font-size="13" lengthAdjust="spacing" textLength="67" x="602" y="988.167">collaborator</text><polygon fill="#181818" points="425,1019.375,415,1023.375,425,1027.375,421,1023.375" style="stroke:#181818;stroke-width:1.0;"/><line style="stroke:#181818;stroke-width:1.0;stroke-dasharray:2.0,2.0;" x1="419" x2="561" y1="1023.375" y2="1023.375"/><text fill="#000000" font-family="sans-serif" font-size="13" font-weight="bold" lengthAdjust="spacing" textLength="14" x="431" y="1018.5186">31</text><text fill="#000000" font-family="sans-serif" font-size="13" lengthAdjust="spacing" textLength="49" x="449" y="1018.5186">success</text><polygon fill="#181818" points="38,1049.7266,28,1053.7266,38,1057.7266,34,1053.7266" style="stroke:#181818;stroke-width:1.0;"/><line style="stroke:#181818;stroke-width:1.0;stroke-dasharray:2.0,2.0;" x1="32" x2="408" y1="1053.7266" y2="1053.7266"/><text fill="#000000" font-family="sans-serif" font-size="13" font-weight="bold" lengthAdjust="spacing" textLength="14" x="44" y="1048.8701">32</text><text fill="#000000" font-family="sans-serif" font-size="13" lengthAdjust="spacing" textLength="307" x="62" y="1048.8701">shows success message (skill assigns successfully)</text><!--SRC=[fLRTRjiW5BxdAL2lacfz0LzKwg9fYvH9LT9UhRiWc3We658ENfMttm7_18pZIUj571c-7pZdWmHEKf-PPJMjZJRyQ4qjgBED833Cd1a_iKhit4K9QWLtJ5Sg1i2HbUP3weeUc09126kSqKsz5vOGX3Z9vPbfH-z-R7_UKGOKlzE9uWb0Ldftaah1wpg0NjSpc9NHpXgbX0tOrSjsCq9lnTc0TCPA0G7pNPcz7qnnDeAzwPprl7bwIHaSRTdUM8Qe0NuftlHgSg9Tt-RhzjjpgWDX8ud2RZGKk6FSQ9-nQ-z5i0VSoJ_CYL1h_D27HwmeBH1n0keCVljgTkfXWCOxkmfW7v28T5_a-tkKu5RW18c62re9b_0t4jnL8_I7-ATdz9sWWRRMW97YOh6yueTU3T27pWavSSj8AN9Ix-DxrtfCjoPs37qE1E_KRMgwrR5de0s6RPjpIr-CsAoBGmUFjfPLCBBgIS6hx-OimHVTzmZ1FW45dbJpWRq-2geGIyqXuGDbkiJglZS2N8W428NddHejObqCH9Ae5WLp0OgYqbQdozruoGZzV6R-BpGJgHaVnomlMM2oitepAcDax1ZxP8eaOqQxdAvghf66Q9eLwfyrSIPBtLNocH1XXeBABT_UbYb5I-POQiQDFaXRCoUDlkbLz3082ZCnJMx8-PJcDm2BVgmMyRduqcrLbEtahz_BhEetRufWC5QVrsi5udVYvQvQCCGk5sgHyRwI8vxwPAl-nmKtkqnVXb5A6yu5m6n49nBQqMYD3_mRGnUXdrq5X-b3ezHbEMfoz8QAVm40]--></g></svg>