<?xml version="1.0" encoding="UTF-8" standalone="no"?><svg xmlns="http://www.w3.org/2000/svg" xmlns:xlink="http://www.w3.org/1999/xlink" contentStyleType="text/css" height="623px" preserveAspectRatio="none" style="width:985px;height:623px;background:#FFFFFF;" version="1.1" viewBox="0 0 985 623" width="985px" zoomAndPan="magnify"><defs/><g><rect fill="#FFFFFF" height="431.0156" style="stroke:#181818;stroke-width:1.0;" width="10" x="18" y="92.6094"/><rect fill="#FFFFFF" height="194.3672" style="stroke:#181818;stroke-width:1.0;" width="10" x="280" y="114.9609"/><rect fill="#FFFFFF" height="30.3516" style="stroke:#181818;stroke-width:1.0;" width="10" x="280" y="493.2734"/><rect fill="#FFFFFF" height="76.7969" style="stroke:#181818;stroke-width:1.0;" width="10" x="513" y="309.3281"/><rect fill="#FFFFFF" height="146.5" style="stroke:#181818;stroke-width:1.0;" width="10" x="873.5" y="386.125"/><rect fill="#FFFFFF" height="76.7969" style="stroke:#181818;stroke-width:1.0;" width="10" x="873.5" y="386.125"/><line style="stroke:#181818;stroke-width:0.5;stroke-dasharray:5.0,5.0;" x1="23" x2="23" y1="82.6094" y2="541.625"/><line style="stroke:#181818;stroke-width:0.5;stroke-dasharray:5.0,5.0;" x1="285" x2="285" y1="82.6094" y2="541.625"/><line style="stroke:#181818;stroke-width:0.5;stroke-dasharray:5.0,5.0;" x1="518" x2="518" y1="154.2656" y2="541.625"/><line style="stroke:#181818;stroke-width:0.5;stroke-dasharray:5.0,5.0;" x1="653" x2="653" y1="82.6094" y2="541.625"/><line style="stroke:#181818;stroke-width:0.5;stroke-dasharray:5.0,5.0;" x1="760" x2="760" y1="82.6094" y2="541.625"/><line style="stroke:#181818;stroke-width:0.5;stroke-dasharray:5.0,5.0;" x1="873" x2="873" y1="82.6094" y2="541.625"/><text fill="#000000" font-family="sans-serif" font-size="14" lengthAdjust="spacing" textLength="30" x="5" y="79.5332">HRM</text><ellipse cx="23" cy="13.5" fill="#E3E3E3" rx="8" ry="8" style="stroke:#181818;stroke-width:0.5;"/><path d="M23,21.5 L23,48.5 M10,29.5 L36,29.5 M23,48.5 L10,63.5 M23,48.5 L36,63.5 " fill="none" style="stroke:#181818;stroke-width:0.5;"/><text fill="#000000" font-family="sans-serif" font-size="14" lengthAdjust="spacing" textLength="30" x="5" y="555.1582">HRM</text><ellipse cx="23" cy="566.7344" fill="#E3E3E3" rx="8" ry="8" style="stroke:#181818;stroke-width:0.5;"/><path d="M23,574.7344 L23,601.7344 M10,582.7344 L36,582.7344 M23,601.7344 L10,616.7344 M23,601.7344 L36,616.7344 " fill="none" style="stroke:#181818;stroke-width:0.5;"/><rect fill="#E3E3E3" height="31.6094" rx="2.5" ry="2.5" style="stroke:#181818;stroke-width:0.5;" width="104" x="233" y="50"/><text fill="#000000" font-family="sans-serif" font-size="14" lengthAdjust="spacing" textLength="90" x="240" y="71.5332">:AssignSkillsUI</text><rect fill="#E3E3E3" height="31.6094" rx="2.5" ry="2.5" style="stroke:#181818;stroke-width:0.5;" width="104" x="233" y="540.625"/><text fill="#000000" font-family="sans-serif" font-size="14" lengthAdjust="spacing" textLength="90" x="240" y="562.1582">:AssignSkillsUI</text><rect fill="#E3E3E3" height="31.6094" rx="2.5" ry="2.5" style="stroke:#181818;stroke-width:0.5;" width="154" x="441" y="540.625"/><text fill="#000000" font-family="sans-serif" font-size="14" lengthAdjust="spacing" textLength="140" x="448" y="562.1582">:AssignSkillsController</text><rect fill="#E3E3E3" height="31.6094" rx="2.5" ry="2.5" style="stroke:#181818;stroke-width:0.5;" width="97" x="605" y="50"/><text fill="#000000" font-family="sans-serif" font-size="14" lengthAdjust="spacing" textLength="83" x="612" y="71.5332">:Repositories</text><rect fill="#E3E3E3" height="31.6094" rx="2.5" ry="2.5" style="stroke:#181818;stroke-width:0.5;" width="97" x="605" y="540.625"/><text fill="#000000" font-family="sans-serif" font-size="14" lengthAdjust="spacing" textLength="83" x="612" y="562.1582">:Repositories</text><rect fill="#E3E3E3" height="49.2188" rx="2.5" ry="2.5" style="stroke:#181818;stroke-width:0.5;" width="97" x="712" y="32.3906"/><text fill="#000000" font-family="sans-serif" font-size="14" lengthAdjust="spacing" textLength="74" x="723.5" y="53.9238">repositories</text><text fill="#000000" font-family="sans-serif" font-size="14" lengthAdjust="spacing" textLength="83" x="719" y="71.5332">:Repositories</text><rect fill="#E3E3E3" height="49.2188" rx="2.5" ry="2.5" style="stroke:#181818;stroke-width:0.5;" width="97" x="712" y="540.625"/><text fill="#000000" font-family="sans-serif" font-size="14" lengthAdjust="spacing" textLength="74" x="723.5" y="562.1582">repositories</text><text fill="#000000" font-family="sans-serif" font-size="14" lengthAdjust="spacing" textLength="83" x="719" y="579.7676">:Repositories</text><rect fill="#E3E3E3" height="49.2188" rx="2.5" ry="2.5" style="stroke:#181818;stroke-width:0.5;" width="109" x="819" y="32.3906"/><text fill="#000000" font-family="sans-serif" font-size="14" lengthAdjust="spacing" textLength="95" x="826" y="53.9238">skillRepository:</text><text fill="#000000" font-family="sans-serif" font-size="14" lengthAdjust="spacing" textLength="93" x="827" y="71.5332">SkillRepository</text><rect fill="#E3E3E3" height="49.2188" rx="2.5" ry="2.5" style="stroke:#181818;stroke-width:0.5;" width="109" x="819" y="540.625"/><text fill="#000000" font-family="sans-serif" font-size="14" lengthAdjust="spacing" textLength="95" x="826" y="562.1582">skillRepository:</text><text fill="#000000" font-family="sans-serif" font-size="14" lengthAdjust="spacing" textLength="93" x="827" y="579.7676">SkillRepository</text><rect fill="#FFFFFF" height="431.0156" style="stroke:#181818;stroke-width:1.0;" width="10" x="18" y="92.6094"/><rect fill="#FFFFFF" height="194.3672" style="stroke:#181818;stroke-width:1.0;" width="10" x="280" y="114.9609"/><rect fill="#FFFFFF" height="30.3516" style="stroke:#181818;stroke-width:1.0;" width="10" x="280" y="493.2734"/><rect fill="#FFFFFF" height="76.7969" style="stroke:#181818;stroke-width:1.0;" width="10" x="513" y="309.3281"/><rect fill="#FFFFFF" height="146.5" style="stroke:#181818;stroke-width:1.0;" width="10" x="873.5" y="386.125"/><rect fill="#FFFFFF" height="76.7969" style="stroke:#181818;stroke-width:1.0;" width="10" x="873.5" y="386.125"/><polygon fill="#181818" points="268,110.9609,278,114.9609,268,118.9609,272,114.9609" style="stroke:#181818;stroke-width:1.0;"/><line style="stroke:#181818;stroke-width:1.0;" x1="28" x2="274" y1="114.9609" y2="114.9609"/><text fill="#000000" font-family="sans-serif" font-size="13" font-weight="bold" lengthAdjust="spacing" textLength="7" x="35" y="110.1045">1</text><text fill="#000000" font-family="sans-serif" font-size="13" lengthAdjust="spacing" textLength="222" x="46" y="110.1045">wants to assign skills to a collaborator</text><polygon fill="#181818" points="429,141.3125,439,145.3125,429,149.3125,433,145.3125" style="stroke:#181818;stroke-width:1.0;"/><line style="stroke:#181818;stroke-width:1.0;" x1="290" x2="435" y1="145.3125" y2="145.3125"/><text fill="#000000" font-family="sans-serif" font-size="13" font-weight="bold" lengthAdjust="spacing" textLength="7" x="297" y="140.4561">2</text><text fill="#000000" font-family="sans-serif" font-size="13" lengthAdjust="spacing" textLength="38" x="308" y="140.4561">assign</text><rect fill="#E3E3E3" height="31.6094" rx="2.5" ry="2.5" style="stroke:#181818;stroke-width:0.5;" width="154" x="441" y="122.9609"/><text fill="#000000" font-family="sans-serif" font-size="14" lengthAdjust="spacing" textLength="140" x="448" y="144.4941">:AssignSkillsController</text><polygon fill="#181818" points="39,183.9219,29,187.9219,39,191.9219,35,187.9219" style="stroke:#181818;stroke-width:1.0;"/><line style="stroke:#181818;stroke-width:1.0;stroke-dasharray:2.0,2.0;" x1="33" x2="279" y1="187.9219" y2="187.9219"/><text fill="#000000" font-family="sans-serif" font-size="13" font-weight="bold" lengthAdjust="spacing" textLength="7" x="45" y="183.0654">3</text><text fill="#000000" font-family="sans-serif" font-size="13" lengthAdjust="spacing" textLength="214" x="56" y="183.0654">asks for the collaborator ID and skills</text><polygon fill="#181818" points="268,214.2734,278,218.2734,268,222.2734,272,218.2734" style="stroke:#181818;stroke-width:1.0;"/><line style="stroke:#181818;stroke-width:1.0;" x1="28" x2="274" y1="218.2734" y2="218.2734"/><text fill="#000000" font-family="sans-serif" font-size="13" font-weight="bold" lengthAdjust="spacing" textLength="7" x="35" y="213.417">4</text><text fill="#000000" font-family="sans-serif" font-size="13" lengthAdjust="spacing" textLength="193" x="46" y="213.417">provides collaborator ID and skills</text><polygon fill="#181818" points="39,244.625,29,248.625,39,252.625,35,248.625" style="stroke:#181818;stroke-width:1.0;"/><line style="stroke:#181818;stroke-width:1.0;stroke-dasharray:2.0,2.0;" x1="33" x2="279" y1="248.625" y2="248.625"/><text fill="#000000" font-family="sans-serif" font-size="13" font-weight="bold" lengthAdjust="spacing" textLength="7" x="45" y="243.7686">5</text><text fill="#000000" font-family="sans-serif" font-size="13" lengthAdjust="spacing" textLength="150" x="56" y="243.7686">shows a verification dialog</text><polygon fill="#181818" points="268,274.9766,278,278.9766,268,282.9766,272,278.9766" style="stroke:#181818;stroke-width:1.0;"/><line style="stroke:#181818;stroke-width:1.0;" x1="28" x2="274" y1="278.9766" y2="278.9766"/><text fill="#000000" font-family="sans-serif" font-size="13" font-weight="bold" lengthAdjust="spacing" textLength="7" x="35" y="274.1201">6</text><text fill="#000000" font-family="sans-serif" font-size="13" lengthAdjust="spacing" textLength="147" x="46" y="274.1201">confirms skill assignment</text><polygon fill="#181818" points="501,305.3281,511,309.3281,501,313.3281,505,309.3281" style="stroke:#181818;stroke-width:1.0;"/><line style="stroke:#181818;stroke-width:1.0;" x1="285" x2="507" y1="309.3281" y2="309.3281"/><text fill="#000000" font-family="sans-serif" font-size="13" font-weight="bold" lengthAdjust="spacing" textLength="7" x="292" y="304.4717">7</text><text fill="#000000" font-family="sans-serif" font-size="13" lengthAdjust="spacing" textLength="193" x="303" y="304.4717">assignSkills(collaboratorId, skills)</text><rect fill="none" height="41.4453" style="stroke:#000000;stroke-width:1.5;" width="493" x="438" y="317.3281"/><path d="M438,317.3281 L500,317.3281 L500,325.3281 L490,335.3281 L438,335.3281 L438,317.3281 " fill="#EEEEEE" style="stroke:#000000;stroke-width:2.0;"/><text fill="#000000" font-family="sans-serif" font-size="13" font-weight="bold" lengthAdjust="spacing" textLength="17" x="451" y="332.8232">ref</text><text fill="#000000" font-family="sans-serif" font-size="12" lengthAdjust="spacing" textLength="107" x="631" y="351.7852">Get Skill Repository</text><polygon fill="#181818" points="861.5,382.125,871.5,386.125,861.5,390.125,865.5,386.125" style="stroke:#181818;stroke-width:1.0;"/><line style="stroke:#181818;stroke-width:1.0;" x1="518" x2="867.5" y1="386.125" y2="386.125"/><text fill="#000000" font-family="sans-serif" font-size="13" font-weight="bold" lengthAdjust="spacing" textLength="7" x="525" y="381.2686">8</text><text fill="#000000" font-family="sans-serif" font-size="13" lengthAdjust="spacing" textLength="193" x="536" y="381.2686">assignSkills(collaboratorId, skills)</text><rect fill="none" height="41.4453" style="stroke:#000000;stroke-width:1.5;" width="163" x="816" y="394.125"/><path d="M816,394.125 L878,394.125 L878,402.125 L868,412.125 L816,412.125 L816,394.125 " fill="#EEEEEE" style="stroke:#000000;stroke-width:2.0;"/><text fill="#000000" font-family="sans-serif" font-size="13" font-weight="bold" lengthAdjust="spacing" textLength="17" x="829" y="409.6201">ref</text><text fill="#000000" font-family="sans-serif" font-size="12" lengthAdjust="spacing" textLength="155" x="820" y="428.582">Assign Skills to Collaborator</text><polygon fill="#181818" points="529,458.9219,519,462.9219,529,466.9219,525,462.9219" style="stroke:#181818;stroke-width:1.0;"/><line style="stroke:#181818;stroke-width:1.0;stroke-dasharray:2.0,2.0;" x1="523" x2="867.5" y1="462.9219" y2="462.9219"/><text fill="#000000" font-family="sans-serif" font-size="13" font-weight="bold" lengthAdjust="spacing" textLength="7" x="535" y="458.0654">9</text><text fill="#000000" font-family="sans-serif" font-size="13" lengthAdjust="spacing" textLength="49" x="546" y="458.0654">success</text><polygon fill="#181818" points="301,489.2734,291,493.2734,301,497.2734,297,493.2734" style="stroke:#181818;stroke-width:1.0;"/><line style="stroke:#181818;stroke-width:1.0;stroke-dasharray:2.0,2.0;" x1="295" x2="517" y1="493.2734" y2="493.2734"/><text fill="#000000" font-family="sans-serif" font-size="13" font-weight="bold" lengthAdjust="spacing" textLength="14" x="307" y="488.417">10</text><text fill="#000000" font-family="sans-serif" font-size="13" lengthAdjust="spacing" textLength="49" x="325" y="488.417">success</text><polygon fill="#181818" points="34,519.625,24,523.625,34,527.625,30,523.625" style="stroke:#181818;stroke-width:1.0;"/><line style="stroke:#181818;stroke-width:1.0;stroke-dasharray:2.0,2.0;" x1="28" x2="284" y1="523.625" y2="523.625"/><text fill="#000000" font-family="sans-serif" font-size="13" font-weight="bold" lengthAdjust="spacing" textLength="14" x="40" y="518.7686">11</text><text fill="#000000" font-family="sans-serif" font-size="13" lengthAdjust="spacing" textLength="158" x="58" y="518.7686">displays operation success</text><!--SRC=[dLD1RkCm3Bph5KGksotI3-HGeCWkkW5Qe4ZRMo-AJDj2PD4GbQJvVMdPSHnxcqDzigdXS8OQyzRwMWTTGKMUJ1ceGeXXXuhxargRhIxmDHuTGa0JjI_S4C2bpkXWVG6vTenAwLqalwis69JwLTeC8IUA6_fKsaGACFktVfw1PlXRrOwEY4g8eZMsrZx2RF70R0l_khNEyVig8TzNLp1ByZ6GSnWITlcsVXgXrrWJMvbjaHFcqT6cALxYmW3suQTTBqyFRvSTt0ZeSSV5HolfN4bz8vHgzc3tEk9v0wSNkBiNix20W_0pH9B-ncdBqHR0Y5czeQ25xSmbEv9EwMyMS7ih76rhgagv7z4SR5ak9K0iyO8DLdz0-woRDbLL1zhBXVArfkauBkd0edkFmURMw6Z9GsQres8wmf3FRQYwhNKUAlHH3Uprvje4t0pbhB9v9-Mtod2udluzHGIw9s0E9D9ITTv7OpwvDXWyZnWXpOR_052M8QnA9QaYUSJq0_L9SVyr2TJ4opNjxR_Joa-9MWxpD37HV7mxkJaSkxixNnBlZ47c11kucUXl5tMAmAdhM_zTr2zJbbckdJuoK8sXpTY9Q9I3mLV_0tu1]--></g></svg>