<?xml version="1.0" encoding="UTF-8" standalone="no"?><svg xmlns="http://www.w3.org/2000/svg" xmlns:xlink="http://www.w3.org/1999/xlink" contentStyleType="text/css" height="326px" preserveAspectRatio="none" style="width:672px;height:326px;background:#FFFFFF;" version="1.1" viewBox="0 0 672 326" width="672px" zoomAndPan="magnify"><defs/><g><rect fill="#FFFFFF" height="166.7578" style="stroke:#181818;stroke-width:1.0;" width="10" x="272" y="87.5703"/><rect fill="#FFFFFF" height="73.7031" style="stroke:#181818;stroke-width:1.0;" width="10" x="479" y="143.2734"/><rect fill="none" height="122.4063" style="stroke:#000000;stroke-width:1.5;" width="479.5" x="186.5" y="102.5703"/><line style="stroke:#181818;stroke-width:0.5;stroke-dasharray:5.0,5.0;" x1="276.5" x2="276.5" y1="55.2188" y2="272.3281"/><line style="stroke:#181818;stroke-width:0.5;stroke-dasharray:5.0,5.0;" x1="484" x2="484" y1="55.2188" y2="272.3281"/><rect fill="#E3E3E3" height="49.2188" rx="2.5" ry="2.5" style="stroke:#181818;stroke-width:0.5;" width="161" x="196.5" y="5"/><text fill="#000000" font-family="sans-serif" font-size="14" lengthAdjust="spacing" textLength="147" x="203.5" y="26.5332">collaboratorRepository:</text><text fill="#000000" font-family="sans-serif" font-size="14" lengthAdjust="spacing" textLength="146" x="204" y="44.1426">CollaboratorRepository</text><rect fill="#E3E3E3" height="49.2188" rx="2.5" ry="2.5" style="stroke:#181818;stroke-width:0.5;" width="161" x="196.5" y="271.3281"/><text fill="#000000" font-family="sans-serif" font-size="14" lengthAdjust="spacing" textLength="147" x="203.5" y="292.8613">collaboratorRepository:</text><text fill="#000000" font-family="sans-serif" font-size="14" lengthAdjust="spacing" textLength="146" x="204" y="310.4707">CollaboratorRepository</text><rect fill="#E3E3E3" height="31.6094" rx="2.5" ry="2.5" style="stroke:#181818;stroke-width:0.5;" width="96" x="436" y="22.6094"/><text fill="#000000" font-family="sans-serif" font-size="14" lengthAdjust="spacing" textLength="82" x="443" y="44.1426">:Collaborator</text><rect fill="#E3E3E3" height="31.6094" rx="2.5" ry="2.5" style="stroke:#181818;stroke-width:0.5;" width="96" x="436" y="271.3281"/><text fill="#000000" font-family="sans-serif" font-size="14" lengthAdjust="spacing" textLength="82" x="443" y="292.8613">:Collaborator</text><rect fill="#FFFFFF" height="166.7578" style="stroke:#181818;stroke-width:1.0;" width="10" x="272" y="87.5703"/><rect fill="#FFFFFF" height="73.7031" style="stroke:#181818;stroke-width:1.0;" width="10" x="479" y="143.2734"/><polygon fill="#181818" points="260,83.5703,270,87.5703,260,91.5703,264,87.5703" style="stroke:#181818;stroke-width:1.0;"/><line style="stroke:#181818;stroke-width:1.0;" x1="0" x2="266" y1="87.5703" y2="87.5703"/><text fill="#000000" font-family="sans-serif" font-size="13" font-weight="bold" lengthAdjust="spacing" textLength="14" x="7" y="82.7139">23</text><text fill="#000000" font-family="sans-serif" font-size="13" lengthAdjust="spacing" textLength="235" x="25" y="82.7139">assignSkill(collaborator, selectedSkills[])</text><path d="M186.5,102.5703 L301.5,102.5703 L301.5,110.9219 L291.5,120.9219 L186.5,120.9219 L186.5,102.5703 " fill="#EEEEEE" style="stroke:#000000;stroke-width:1.5;"/><rect fill="none" height="122.4063" style="stroke:#000000;stroke-width:1.5;" width="479.5" x="186.5" y="102.5703"/><text fill="#000000" font-family="sans-serif" font-size="13" font-weight="bold" lengthAdjust="spacing" textLength="70" x="201.5" y="117.0654">Assign skill</text><polygon fill="#181818" points="467,139.2734,477,143.2734,467,147.2734,471,143.2734" style="stroke:#181818;stroke-width:1.0;"/><line style="stroke:#181818;stroke-width:1.0;" x1="282" x2="473" y1="143.2734" y2="143.2734"/><text fill="#000000" font-family="sans-serif" font-size="13" font-weight="bold" lengthAdjust="spacing" textLength="14" x="289" y="138.417">24</text><text fill="#000000" font-family="sans-serif" font-size="13" lengthAdjust="spacing" textLength="160" x="307" y="138.417">assignSkill(selectedSkills[])</text><line style="stroke:#181818;stroke-width:1.0;" x1="489" x2="531" y1="173.625" y2="173.625"/><line style="stroke:#181818;stroke-width:1.0;" x1="531" x2="531" y1="173.625" y2="186.625"/><line style="stroke:#181818;stroke-width:1.0;" x1="490" x2="531" y1="186.625" y2="186.625"/><polygon fill="#181818" points="500,182.625,490,186.625,500,190.625,496,186.625" style="stroke:#181818;stroke-width:1.0;"/><text fill="#000000" font-family="sans-serif" font-size="13" font-weight="bold" lengthAdjust="spacing" textLength="14" x="496" y="168.7686">25</text><text fill="#000000" font-family="sans-serif" font-size="13" lengthAdjust="spacing" textLength="140" x="514" y="168.7686">setSkill(selectedSkills[])</text><polygon fill="#181818" points="293,212.9766,283,216.9766,293,220.9766,289,216.9766" style="stroke:#181818;stroke-width:1.0;"/><line style="stroke:#181818;stroke-width:1.0;stroke-dasharray:2.0,2.0;" x1="287" x2="483" y1="216.9766" y2="216.9766"/><text fill="#000000" font-family="sans-serif" font-size="13" font-weight="bold" lengthAdjust="spacing" textLength="14" x="299" y="212.1201">26</text><text fill="#000000" font-family="sans-serif" font-size="13" lengthAdjust="spacing" textLength="67" x="317" y="212.1201">collaborator</text><polygon fill="#181818" points="11,250.3281,1,254.3281,11,258.3281,7,254.3281" style="stroke:#181818;stroke-width:1.0;"/><line style="stroke:#181818;stroke-width:1.0;stroke-dasharray:2.0,2.0;" x1="5" x2="276" y1="254.3281" y2="254.3281"/><text fill="#000000" font-family="sans-serif" font-size="13" font-weight="bold" lengthAdjust="spacing" textLength="14" x="17" y="249.4717">27</text><text fill="#000000" font-family="sans-serif" font-size="13" lengthAdjust="spacing" textLength="67" x="35" y="249.4717">collaborator</text><!--SRC=[ZOynJyCm48Nt-nMdJY2H1RO88K7LZG6r8p1SdSErulWitmNKVqyIMaWH83RBxtlltTCsf4o5EkmaYTiLwHYjz0pwgMHoBNdUs3uo5dP6oSSve3jgv2qaZoyKbG6eDqbzj-M2brS00sN1XKp9SE4aHjfA8PEovYmQXiU-VahB7uK5akBo_cwzUZZDgUVyaGAeRWuqriEV1fysROZnR5vxWSfnsC7DfEdZypcGi_1AniSkNwJFU3ibe8uO778_6hx5_nquMhzyolQRQUBc4-PdGyCdePmQkAwgVy7Zf7S0]--></g></svg>