<?xml version="1.0" encoding="UTF-8" standalone="no"?><svg xmlns="http://www.w3.org/2000/svg" xmlns:xlink="http://www.w3.org/1999/xlink" contentStyleType="text/css" height="705px" preserveAspectRatio="none" style="width:1045px;height:705px;background:#FFFFFF;" version="1.1" viewBox="0 0 1045 705" width="1045px" zoomAndPan="magnify"><defs/><g><rect fill="#FFFFFF" height="568.5156" style="stroke:#181818;stroke-width:1.0;" width="10" x="22" y="65.2188"/><rect fill="#FFFFFF" height="210.4609" style="stroke:#181818;stroke-width:1.0;" width="10" x="386" y="87.5703"/><rect fill="#FFFFFF" height="91.0547" style="stroke:#181818;stroke-width:1.0;" width="10" x="386" y="374.8281"/><rect fill="#FFFFFF" height="30.3516" style="stroke:#181818;stroke-width:1.0;" width="10" x="386" y="603.3828"/><rect fill="#FFFFFF" height="79.0547" style="stroke:#181818;stroke-width:1.0;" width="10" x="539" y="127.9219"/><rect fill="#FFFFFF" height="76.7969" style="stroke:#181818;stroke-width:1.0;" width="10" x="539" y="298.0313"/><rect fill="#FFFFFF" height="30.3516" style="stroke:#181818;stroke-width:1.0;" width="10" x="539" y="465.8828"/><rect fill="#FFFFFF" height="30.3516" style="stroke:#181818;stroke-width:1.0;" width="10" x="539" y="573.0313"/><rect fill="#FFFFFF" height="76.7969" style="stroke:#181818;stroke-width:1.0;" width="10" x="828" y="496.2344"/><line style="stroke:#181818;stroke-width:0.5;stroke-dasharray:5.0,5.0;" x1="27" x2="27" y1="55.2188" y2="651.7344"/><line style="stroke:#181818;stroke-width:0.5;stroke-dasharray:5.0,5.0;" x1="391" x2="391" y1="55.2188" y2="651.7344"/><line style="stroke:#181818;stroke-width:0.5;stroke-dasharray:5.0,5.0;" x1="544" x2="544" y1="126.875" y2="651.7344"/><line style="stroke:#181818;stroke-width:0.5;stroke-dasharray:5.0,5.0;" x1="832.5" x2="832.5" y1="55.2188" y2="651.7344"/><line style="stroke:#181818;stroke-width:0.5;stroke-dasharray:5.0,5.0;" x1="981.5" x2="981.5" y1="55.2188" y2="651.7344"/><rect fill="#E3E3E3" height="31.6094" rx="2.5" ry="2.5" style="stroke:#181818;stroke-width:0.5;" width="44" x="5" y="22.6094"/><text fill="#000000" font-family="sans-serif" font-size="14" lengthAdjust="spacing" textLength="30" x="12" y="44.1426">HRM</text><rect fill="#E3E3E3" height="31.6094" rx="2.5" ry="2.5" style="stroke:#181818;stroke-width:0.5;" width="44" x="5" y="650.7344"/><text fill="#000000" font-family="sans-serif" font-size="14" lengthAdjust="spacing" textLength="30" x="12" y="672.2676">HRM</text><rect fill="#E3E3E3" height="31.6094" rx="2.5" ry="2.5" style="stroke:#181818;stroke-width:0.5;" width="104" x="339" y="22.6094"/><text fill="#000000" font-family="sans-serif" font-size="14" lengthAdjust="spacing" textLength="90" x="346" y="44.1426">:AssignSkillsUI</text><rect fill="#E3E3E3" height="31.6094" rx="2.5" ry="2.5" style="stroke:#181818;stroke-width:0.5;" width="104" x="339" y="650.7344"/><text fill="#000000" font-family="sans-serif" font-size="14" lengthAdjust="spacing" textLength="90" x="346" y="672.2676">:AssignSkillsUI</text><rect fill="#E3E3E3" height="31.6094" rx="2.5" ry="2.5" style="stroke:#181818;stroke-width:0.5;" width="154" x="467" y="650.7344"/><text fill="#000000" font-family="sans-serif" font-size="14" lengthAdjust="spacing" textLength="140" x="474" y="672.2676">:AssignSkillsController</text><rect fill="#E3E3E3" height="49.2188" rx="2.5" ry="2.5" style="stroke:#181818;stroke-width:0.5;" width="161" x="752.5" y="5"/><text fill="#000000" font-family="sans-serif" font-size="14" lengthAdjust="spacing" textLength="147" x="759.5" y="26.5332">collaboratorRepository:</text><text fill="#000000" font-family="sans-serif" font-size="14" lengthAdjust="spacing" textLength="146" x="760" y="44.1426">CollaboratorRepository</text><rect fill="#E3E3E3" height="49.2188" rx="2.5" ry="2.5" style="stroke:#181818;stroke-width:0.5;" width="161" x="752.5" y="650.7344"/><text fill="#000000" font-family="sans-serif" font-size="14" lengthAdjust="spacing" textLength="147" x="759.5" y="672.2676">collaboratorRepository:</text><text fill="#000000" font-family="sans-serif" font-size="14" lengthAdjust="spacing" textLength="146" x="760" y="689.877">CollaboratorRepository</text><rect fill="#E3E3E3" height="49.2188" rx="2.5" ry="2.5" style="stroke:#181818;stroke-width:0.5;" width="116" x="923.5" y="5"/><text fill="#000000" font-family="sans-serif" font-size="14" lengthAdjust="spacing" textLength="102" x="930.5" y="26.5332">skillsRepository:</text><text fill="#000000" font-family="sans-serif" font-size="14" lengthAdjust="spacing" textLength="100" x="931.5" y="44.1426">SkillsRepository</text><rect fill="#E3E3E3" height="49.2188" rx="2.5" ry="2.5" style="stroke:#181818;stroke-width:0.5;" width="116" x="923.5" y="650.7344"/><text fill="#000000" font-family="sans-serif" font-size="14" lengthAdjust="spacing" textLength="102" x="930.5" y="672.2676">skillsRepository:</text><text fill="#000000" font-family="sans-serif" font-size="14" lengthAdjust="spacing" textLength="100" x="931.5" y="689.877">SkillsRepository</text><rect fill="#FFFFFF" height="568.5156" style="stroke:#181818;stroke-width:1.0;" width="10" x="22" y="65.2188"/><rect fill="#FFFFFF" height="210.4609" style="stroke:#181818;stroke-width:1.0;" width="10" x="386" y="87.5703"/><rect fill="#FFFFFF" height="91.0547" style="stroke:#181818;stroke-width:1.0;" width="10" x="386" y="374.8281"/><rect fill="#FFFFFF" height="30.3516" style="stroke:#181818;stroke-width:1.0;" width="10" x="386" y="603.3828"/><rect fill="#FFFFFF" height="79.0547" style="stroke:#181818;stroke-width:1.0;" width="10" x="539" y="127.9219"/><rect fill="#FFFFFF" height="76.7969" style="stroke:#181818;stroke-width:1.0;" width="10" x="539" y="298.0313"/><rect fill="#FFFFFF" height="30.3516" style="stroke:#181818;stroke-width:1.0;" width="10" x="539" y="465.8828"/><rect fill="#FFFFFF" height="30.3516" style="stroke:#181818;stroke-width:1.0;" width="10" x="539" y="573.0313"/><rect fill="#FFFFFF" height="76.7969" style="stroke:#181818;stroke-width:1.0;" width="10" x="828" y="496.2344"/><polygon fill="#181818" points="374,83.5703,384,87.5703,374,91.5703,378,87.5703" style="stroke:#181818;stroke-width:1.0;"/><line style="stroke:#181818;stroke-width:1.0;" x1="32" x2="380" y1="87.5703" y2="87.5703"/><text fill="#000000" font-family="sans-serif" font-size="13" font-weight="bold" lengthAdjust="spacing" textLength="7" x="39" y="82.7139">1</text><text fill="#000000" font-family="sans-serif" font-size="13" lengthAdjust="spacing" textLength="222" x="50" y="82.7139">wants to assign skills to a collaborator</text><polygon fill="#181818" points="455,113.9219,465,117.9219,455,121.9219,459,117.9219" style="stroke:#181818;stroke-width:1.0;"/><line style="stroke:#181818;stroke-width:1.0;" x1="396" x2="461" y1="117.9219" y2="117.9219"/><text fill="#000000" font-family="sans-serif" font-size="13" font-weight="bold" lengthAdjust="spacing" textLength="7" x="403" y="113.0654">2</text><text fill="#000000" font-family="sans-serif" font-size="13" lengthAdjust="spacing" textLength="36" x="414" y="113.0654">create</text><rect fill="#E3E3E3" height="31.6094" rx="2.5" ry="2.5" style="stroke:#181818;stroke-width:0.5;" width="154" x="467" y="95.5703"/><text fill="#000000" font-family="sans-serif" font-size="14" lengthAdjust="spacing" textLength="140" x="474" y="117.1035">:AssignSkillsController</text><rect fill="none" height="41.4453" style="stroke:#000000;stroke-width:1.5;" width="160" x="464" y="138.1797"/><path d="M464,138.1797 L526,138.1797 L526,146.1797 L516,156.1797 L464,156.1797 L464,138.1797 " fill="#EEEEEE" style="stroke:#000000;stroke-width:2.0;"/><text fill="#000000" font-family="sans-serif" font-size="13" font-weight="bold" lengthAdjust="spacing" textLength="17" x="477" y="153.6748">ref</text><text fill="#000000" font-family="sans-serif" font-size="12" lengthAdjust="spacing" textLength="113" x="487.5" y="172.6367">Get Collaborator List</text><polygon fill="#181818" points="407,202.9766,397,206.9766,407,210.9766,403,206.9766" style="stroke:#181818;stroke-width:1.0;"/><line style="stroke:#181818;stroke-width:1.0;stroke-dasharray:2.0,2.0;" x1="401" x2="543" y1="206.9766" y2="206.9766"/><text fill="#000000" font-family="sans-serif" font-size="13" font-weight="bold" lengthAdjust="spacing" textLength="7" x="413" y="202.1201">3</text><text fill="#000000" font-family="sans-serif" font-size="13" lengthAdjust="spacing" textLength="88" x="424" y="202.1201">collaboratorList</text><polygon fill="#181818" points="43,233.3281,33,237.3281,43,241.3281,39,237.3281" style="stroke:#181818;stroke-width:1.0;"/><line style="stroke:#181818;stroke-width:1.0;stroke-dasharray:2.0,2.0;" x1="37" x2="385" y1="237.3281" y2="237.3281"/><text fill="#000000" font-family="sans-serif" font-size="13" font-weight="bold" lengthAdjust="spacing" textLength="7" x="49" y="232.4717">4</text><text fill="#000000" font-family="sans-serif" font-size="13" lengthAdjust="spacing" textLength="164" x="60" y="232.4717">asks to select a collaborator</text><polygon fill="#181818" points="374,263.6797,384,267.6797,374,271.6797,378,267.6797" style="stroke:#181818;stroke-width:1.0;"/><line style="stroke:#181818;stroke-width:1.0;" x1="32" x2="380" y1="267.6797" y2="267.6797"/><text fill="#000000" font-family="sans-serif" font-size="13" font-weight="bold" lengthAdjust="spacing" textLength="7" x="39" y="262.8232">5</text><text fill="#000000" font-family="sans-serif" font-size="13" lengthAdjust="spacing" textLength="124" x="50" y="262.8232">selects a collaborator</text><polygon fill="#181818" points="527,294.0313,537,298.0313,527,302.0313,531,298.0313" style="stroke:#181818;stroke-width:1.0;"/><line style="stroke:#181818;stroke-width:1.0;" x1="391" x2="533" y1="298.0313" y2="298.0313"/><text fill="#000000" font-family="sans-serif" font-size="13" font-weight="bold" lengthAdjust="spacing" textLength="7" x="398" y="293.1748">6</text><text fill="#000000" font-family="sans-serif" font-size="13" lengthAdjust="spacing" textLength="67" x="409" y="293.1748">collaborator</text><rect fill="none" height="41.4453" style="stroke:#000000;stroke-width:1.5;" width="160" x="464" y="306.0313"/><path d="M464,306.0313 L526,306.0313 L526,314.0313 L516,324.0313 L464,324.0313 L464,306.0313 " fill="#EEEEEE" style="stroke:#000000;stroke-width:2.0;"/><text fill="#000000" font-family="sans-serif" font-size="13" font-weight="bold" lengthAdjust="spacing" textLength="17" x="477" y="321.5264">ref</text><text fill="#000000" font-family="sans-serif" font-size="12" lengthAdjust="spacing" textLength="75" x="506.5" y="340.4883">Get Skills List</text><polygon fill="#181818" points="407,370.8281,397,374.8281,407,378.8281,403,374.8281" style="stroke:#181818;stroke-width:1.0;"/><line style="stroke:#181818;stroke-width:1.0;stroke-dasharray:2.0,2.0;" x1="401" x2="543" y1="374.8281" y2="374.8281"/><text fill="#000000" font-family="sans-serif" font-size="13" font-weight="bold" lengthAdjust="spacing" textLength="7" x="413" y="369.9717">7</text><text fill="#000000" font-family="sans-serif" font-size="13" lengthAdjust="spacing" textLength="51" x="424" y="369.9717">skillsList</text><polygon fill="#181818" points="43,401.1797,33,405.1797,43,409.1797,39,405.1797" style="stroke:#181818;stroke-width:1.0;"/><line style="stroke:#181818;stroke-width:1.0;stroke-dasharray:2.0,2.0;" x1="37" x2="385" y1="405.1797" y2="405.1797"/><text fill="#000000" font-family="sans-serif" font-size="13" font-weight="bold" lengthAdjust="spacing" textLength="7" x="49" y="400.3232">8</text><text fill="#000000" font-family="sans-serif" font-size="13" lengthAdjust="spacing" textLength="319" x="60" y="400.3232">displays available skills and asks to select one or more</text><polygon fill="#181818" points="374,431.5313,384,435.5313,374,439.5313,378,435.5313" style="stroke:#181818;stroke-width:1.0;"/><line style="stroke:#181818;stroke-width:1.0;" x1="32" x2="380" y1="435.5313" y2="435.5313"/><text fill="#000000" font-family="sans-serif" font-size="13" font-weight="bold" lengthAdjust="spacing" textLength="7" x="39" y="430.6748">9</text><text fill="#000000" font-family="sans-serif" font-size="13" lengthAdjust="spacing" textLength="137" x="50" y="430.6748">select the desired skills</text><polygon fill="#181818" points="527,461.8828,537,465.8828,527,469.8828,531,465.8828" style="stroke:#181818;stroke-width:1.0;"/><line style="stroke:#181818;stroke-width:1.0;" x1="391" x2="533" y1="465.8828" y2="465.8828"/><text fill="#000000" font-family="sans-serif" font-size="13" font-weight="bold" lengthAdjust="spacing" textLength="14" x="398" y="461.0264">10</text><text fill="#000000" font-family="sans-serif" font-size="13" lengthAdjust="spacing" textLength="102" x="416" y="461.0264">selectedSkillsList</text><polygon fill="#181818" points="816,492.2344,826,496.2344,816,500.2344,820,496.2344" style="stroke:#181818;stroke-width:1.0;"/><line style="stroke:#181818;stroke-width:1.0;" x1="544" x2="822" y1="496.2344" y2="496.2344"/><text fill="#000000" font-family="sans-serif" font-size="13" font-weight="bold" lengthAdjust="spacing" textLength="14" x="551" y="491.3779">11</text><text fill="#000000" font-family="sans-serif" font-size="13" lengthAdjust="spacing" textLength="242" x="569" y="491.3779">assignSkills(collaborator, selectedSkills[])</text><rect fill="none" height="41.4453" style="stroke:#000000;stroke-width:1.5;" width="167" x="749.5" y="504.2344"/><path d="M749.5,504.2344 L811.5,504.2344 L811.5,512.2344 L801.5,522.2344 L749.5,522.2344 L749.5,504.2344 " fill="#EEEEEE" style="stroke:#000000;stroke-width:2.0;"/><text fill="#000000" font-family="sans-serif" font-size="13" font-weight="bold" lengthAdjust="spacing" textLength="17" x="762.5" y="519.7295">ref</text><text fill="#000000" font-family="sans-serif" font-size="12" lengthAdjust="spacing" textLength="71" x="797.5" y="538.6914">Assign Skills</text><polygon fill="#181818" points="560,569.0313,550,573.0313,560,577.0313,556,573.0313" style="stroke:#181818;stroke-width:1.0;"/><line style="stroke:#181818;stroke-width:1.0;stroke-dasharray:2.0,2.0;" x1="554" x2="832" y1="573.0313" y2="573.0313"/><text fill="#000000" font-family="sans-serif" font-size="13" font-weight="bold" lengthAdjust="spacing" textLength="14" x="566" y="568.1748">12</text><text fill="#000000" font-family="sans-serif" font-size="13" lengthAdjust="spacing" textLength="67" x="584" y="568.1748">collaborator</text><polygon fill="#181818" points="407,599.3828,397,603.3828,407,607.3828,403,603.3828" style="stroke:#181818;stroke-width:1.0;"/><line style="stroke:#181818;stroke-width:1.0;" x1="401" x2="543" y1="603.3828" y2="603.3828"/><text fill="#000000" font-family="sans-serif" font-size="13" font-weight="bold" lengthAdjust="spacing" textLength="14" x="413" y="598.5264">13</text><text fill="#000000" font-family="sans-serif" font-size="13" lengthAdjust="spacing" textLength="49" x="431" y="598.5264">success</text><polygon fill="#181818" points="38,629.7344,28,633.7344,38,637.7344,34,633.7344" style="stroke:#181818;stroke-width:1.0;"/><line style="stroke:#181818;stroke-width:1.0;stroke-dasharray:2.0,2.0;" x1="32" x2="390" y1="633.7344" y2="633.7344"/><text fill="#000000" font-family="sans-serif" font-size="13" font-weight="bold" lengthAdjust="spacing" textLength="14" x="44" y="628.8779">14</text><text fill="#000000" font-family="sans-serif" font-size="13" lengthAdjust="spacing" textLength="158" x="62" y="628.8779">displays operation success</text><!--SRC=[XLD1Ri8m4Bpx5QkUMbG-m06fHLMBHAKAogdjmJWBM3Xsv3KWVj_53X27b5u8pixEpip6jD6sabwMK3hhrDgx4Y7uBGewLogfDdA5it0m21vLa7PbcW1QoyBjjLt1KXf28UGsEBij5-Y5O4ZGIbVI1hXxcxxVWIJWPruOF17fbPrjj34q7qVGV7m3Ct8sU6SC-eWTVKudELfnKIwSby7vALQEDFyv3BxjgBEGM2RFqvUFd8VYk8nXrdeLUziumJ6ee7SoOBGh-0VwGtO50zWpDK5mt7YqL3V75z0KVg7WC0ItCi7HQg_79CeZLvfpOWeUb-1swDFf5GCq7SD4Kn1e2zxaadkF8EYVT3LdHs21ENdKmEYZcG6htqJHX8O_YxRsp762q1NcugarlZcQpRTaTBXCMsdvo-sbc3kDNGLzDbbegemyiFITr2oFBq6zBibJMX4uYy0XbyvZbty8QuG2INiiQfOyWGJ3OjQfj2E7P71OVxfn9vTBSjyCzB55_lNpy7SAzKsuf9pEwGRMKPzJhcVt_rzaJPCFFLb8EMsLGgAR- -bUZwkGvsbdkpYugt7Ypby0]--></g></svg>