<?xml version="1.0" encoding="UTF-8" standalone="no"?><svg xmlns="http://www.w3.org/2000/svg" xmlns:xlink="http://www.w3.org/1999/xlink" contentStyleType="text/css" height="1733px" preserveAspectRatio="none" style="width:2289px;height:1733px;background:#FFFFFF;" version="1.1" viewBox="0 0 2289 1733" width="2289px" zoomAndPan="magnify"><defs/><g><rect fill="#FFFFFF" height="1540.8984" style="stroke:#181818;stroke-width:1.0;" width="10" x="33.5" y="92.6094"/><rect fill="#FFFFFF" height="30.3516" style="stroke:#181818;stroke-width:1.0;" width="10" x="437.5" y="114.9609"/><rect fill="#FFFFFF" height="305.0313" style="stroke:#181818;stroke-width:1.0;" width="10" x="437.5" y="614.3594"/><rect fill="#FFFFFF" height="55.7031" style="stroke:#181818;stroke-width:1.0;" width="10" x="437.5" y="949.7422"/><rect fill="#FFFFFF" height="37.3516" style="stroke:#181818;stroke-width:1.0;" width="10" x="437.5" y="1035.7969"/><rect fill="#FFFFFF" height="30.3516" style="stroke:#181818;stroke-width:1.0;" width="10" x="437.5" y="1103.5"/><rect fill="#FFFFFF" height="30.3516" style="stroke:#181818;stroke-width:1.0;" width="10" x="437.5" y="1603.1563"/><rect fill="#FFFFFF" height="123.6641" style="stroke:#181818;stroke-width:1.0;" width="10" x="813.5" y="155.3125"/><rect fill="#FFFFFF" height="30.3516" style="stroke:#181818;stroke-width:1.0;" width="10" x="813.5" y="309.3281"/><rect fill="#FFFFFF" height="30.3516" style="stroke:#181818;stroke-width:1.0;" width="10" x="813.5" y="370.0313"/><rect fill="#FFFFFF" height="30.3516" style="stroke:#181818;stroke-width:1.0;" width="10" x="813.5" y="553.6563"/><rect fill="#FFFFFF" height="91.0547" style="stroke:#181818;stroke-width:1.0;" width="10" x="813.5" y="614.3594"/><rect fill="#FFFFFF" height="30.3516" style="stroke:#181818;stroke-width:1.0;" width="10" x="813.5" y="858.6875"/><rect fill="#FFFFFF" height="30.3516" style="stroke:#181818;stroke-width:1.0;" width="10" x="813.5" y="1133.8516"/><rect fill="#FFFFFF" height="30.3516" style="stroke:#181818;stroke-width:1.0;" width="10" x="813.5" y="1285.125"/><rect fill="#FFFFFF" height="30.3516" style="stroke:#181818;stroke-width:1.0;" width="10" x="813.5" y="1468.75"/><rect fill="#FFFFFF" height="30.3516" style="stroke:#181818;stroke-width:1.0;" width="10" x="813.5" y="1572.8047"/><rect fill="#FFFFFF" height="30.3516" style="stroke:#181818;stroke-width:1.0;" width="10" x="959.5" y="187.9219"/><rect fill="#FFFFFF" height="30.3516" style="stroke:#181818;stroke-width:1.0;" width="10" x="1066.5" y="248.625"/><rect fill="#FFFFFF" height="30.3516" style="stroke:#181818;stroke-width:1.0;" width="10" x="1184.5" y="339.6797"/><rect fill="#FFFFFF" height="73.7031" style="stroke:#181818;stroke-width:1.0;" width="10" x="1184.5" y="1499.1016"/><rect fill="#FFFFFF" height="30.3516" style="stroke:#181818;stroke-width:1.0;" width="10" x="1493.5" y="644.7109"/><rect fill="#FFFFFF" height="153.2734" style="stroke:#181818;stroke-width:1.0;" width="10" x="1643.5" y="400.3828"/><rect fill="#FFFFFF" height="120.9219" style="stroke:#181818;stroke-width:1.0;" width="10" x="1643.5" y="1164.2031"/><rect fill="#FFFFFF" height="50.2188" style="stroke:#181818;stroke-width:1.0;" width="10" x="1788.5" y="466.0859"/><rect fill="#FFFFFF" height="50.2188" style="stroke:#181818;stroke-width:1.0;" width="10" x="1909.5" y="1204.5547"/><rect fill="#FFFFFF" height="153.2734" style="stroke:#181818;stroke-width:1.0;" width="10" x="2025.5" y="705.4141"/><rect fill="#FFFFFF" height="153.2734" style="stroke:#181818;stroke-width:1.0;" width="10" x="2025.5" y="1315.4766"/><rect fill="#FFFFFF" height="50.2188" style="stroke:#181818;stroke-width:1.0;" width="10" x="2151.5" y="771.1172"/><rect fill="#FFFFFF" height="50.2188" style="stroke:#181818;stroke-width:1.0;" width="10" x="2236.5" y="1381.1797"/><rect fill="none" height="108.9219" style="stroke:#000000;stroke-width:1.5;" width="300" x="1564.5" y="415.3828"/><rect fill="none" height="108.9219" style="stroke:#000000;stroke-width:1.5;" width="245" x="1964.5" y="720.4141"/><rect fill="none" height="79.0547" style="stroke:#000000;stroke-width:1.5;" width="505" x="10" y="964.7422"/><rect fill="none" height="108.9219" style="stroke:#000000;stroke-width:1.5;" width="319" x="1964.5" y="1330.4766"/><line style="stroke:#181818;stroke-width:0.5;stroke-dasharray:5.0,5.0;" x1="38" x2="38" y1="82.6094" y2="1651.5078"/><line style="stroke:#181818;stroke-width:0.5;stroke-dasharray:5.0,5.0;" x1="442" x2="442" y1="82.6094" y2="1651.5078"/><line style="stroke:#181818;stroke-width:0.5;stroke-dasharray:5.0,5.0;" x1="818" x2="818" y1="154.2656" y2="1651.5078"/><line style="stroke:#181818;stroke-width:0.5;stroke-dasharray:5.0,5.0;" x1="964" x2="964" y1="82.6094" y2="1651.5078"/><line style="stroke:#181818;stroke-width:0.5;stroke-dasharray:5.0,5.0;" x1="1071" x2="1071" y1="82.6094" y2="1651.5078"/><line style="stroke:#181818;stroke-width:0.5;stroke-dasharray:5.0,5.0;" x1="1189" x2="1189" y1="82.6094" y2="1651.5078"/><line style="stroke:#181818;stroke-width:0.5;stroke-dasharray:5.0,5.0;" x1="1498.5" x2="1498.5" y1="82.6094" y2="1651.5078"/><line style="stroke:#181818;stroke-width:0.5;stroke-dasharray:5.0,5.0;" x1="1648.5" x2="1648.5" y1="82.6094" y2="1651.5078"/><line style="stroke:#181818;stroke-width:0.5;stroke-dasharray:5.0,5.0;" x1="1793.5" x2="1793.5" y1="473.8438" y2="1651.5078"/><line style="stroke:#181818;stroke-width:0.5;stroke-dasharray:5.0,5.0;" x1="1914.5" x2="1914.5" y1="1212.3125" y2="1651.5078"/><line style="stroke:#181818;stroke-width:0.5;stroke-dasharray:5.0,5.0;" x1="2030.5" x2="2030.5" y1="82.6094" y2="1651.5078"/><line style="stroke:#181818;stroke-width:0.5;stroke-dasharray:5.0,5.0;" x1="2156.5" x2="2156.5" y1="778.875" y2="1651.5078"/><line style="stroke:#181818;stroke-width:0.5;stroke-dasharray:5.0,5.0;" x1="2241.5" x2="2241.5" y1="1388.9375" y2="1651.5078"/><text fill="#000000" font-family="sans-serif" font-size="14" lengthAdjust="spacing" textLength="31" x="20" y="79.5332">GSM</text><ellipse cx="38.5" cy="13.5" fill="#E3E3E3" rx="8" ry="8" style="stroke:#181818;stroke-width:0.5;"/><path d="M38.5,21.5 L38.5,48.5 M25.5,29.5 L51.5,29.5 M38.5,48.5 L25.5,63.5 M38.5,48.5 L51.5,63.5 " fill="none" style="stroke:#181818;stroke-width:0.5;"/><text fill="#000000" font-family="sans-serif" font-size="14" lengthAdjust="spacing" textLength="31" x="20" y="1665.041">GSM</text><ellipse cx="38.5" cy="1676.6172" fill="#E3E3E3" rx="8" ry="8" style="stroke:#181818;stroke-width:0.5;"/><path d="M38.5,1684.6172 L38.5,1711.6172 M25.5,1692.6172 L51.5,1692.6172 M38.5,1711.6172 L25.5,1726.6172 M38.5,1711.6172 L51.5,1726.6172 " fill="none" style="stroke:#181818;stroke-width:0.5;"/><rect fill="#E3E3E3" height="31.6094" rx="2.5" ry="2.5" style="stroke:#181818;stroke-width:0.5;" width="125" x="380" y="50"/><text fill="#000000" font-family="sans-serif" font-size="14" lengthAdjust="spacing" textLength="111" x="387" y="71.5332">:AssignVehiclesUI</text><rect fill="#E3E3E3" height="31.6094" rx="2.5" ry="2.5" style="stroke:#181818;stroke-width:0.5;" width="125" x="380" y="1650.5078"/><text fill="#000000" font-family="sans-serif" font-size="14" lengthAdjust="spacing" textLength="111" x="387" y="1672.041">:AssignVehiclesUI</text><rect fill="#E3E3E3" height="31.6094" rx="2.5" ry="2.5" style="stroke:#181818;stroke-width:0.5;" width="175" x="731" y="1650.5078"/><text fill="#000000" font-family="sans-serif" font-size="14" lengthAdjust="spacing" textLength="161" x="738" y="1672.041">:AssignVehiclesController</text><rect fill="#E3E3E3" height="31.6094" rx="2.5" ry="2.5" style="stroke:#181818;stroke-width:0.5;" width="97" x="916" y="50"/><text fill="#000000" font-family="sans-serif" font-size="14" lengthAdjust="spacing" textLength="83" x="923" y="71.5332">:Repositories</text><rect fill="#E3E3E3" height="31.6094" rx="2.5" ry="2.5" style="stroke:#181818;stroke-width:0.5;" width="97" x="916" y="1650.5078"/><text fill="#000000" font-family="sans-serif" font-size="14" lengthAdjust="spacing" textLength="83" x="923" y="1672.041">:Repositories</text><rect fill="#E3E3E3" height="49.2188" rx="2.5" ry="2.5" style="stroke:#181818;stroke-width:0.5;" width="97" x="1023" y="32.3906"/><text fill="#000000" font-family="sans-serif" font-size="14" lengthAdjust="spacing" textLength="74" x="1034.5" y="53.9238">repositories</text><text fill="#000000" font-family="sans-serif" font-size="14" lengthAdjust="spacing" textLength="83" x="1030" y="71.5332">:Repositories</text><rect fill="#E3E3E3" height="49.2188" rx="2.5" ry="2.5" style="stroke:#181818;stroke-width:0.5;" width="97" x="1023" y="1650.5078"/><text fill="#000000" font-family="sans-serif" font-size="14" lengthAdjust="spacing" textLength="74" x="1034.5" y="1672.041">repositories</text><text fill="#000000" font-family="sans-serif" font-size="14" lengthAdjust="spacing" textLength="83" x="1030" y="1689.6504">:Repositories</text><rect fill="#E3E3E3" height="49.2188" rx="2.5" ry="2.5" style="stroke:#181818;stroke-width:0.5;" width="119" x="1130" y="32.3906"/><text fill="#000000" font-family="sans-serif" font-size="14" lengthAdjust="spacing" textLength="100" x="1139.5" y="53.9238">entryRepository</text><text fill="#000000" font-family="sans-serif" font-size="14" lengthAdjust="spacing" textLength="105" x="1137" y="71.5332">:EntryRepository</text><rect fill="#E3E3E3" height="49.2188" rx="2.5" ry="2.5" style="stroke:#181818;stroke-width:0.5;" width="119" x="1130" y="1650.5078"/><text fill="#000000" font-family="sans-serif" font-size="14" lengthAdjust="spacing" textLength="100" x="1139.5" y="1672.041">entryRepository</text><text fill="#000000" font-family="sans-serif" font-size="14" lengthAdjust="spacing" textLength="105" x="1137" y="1689.6504">:EntryRepository</text><rect fill="#E3E3E3" height="49.2188" rx="2.5" ry="2.5" style="stroke:#181818;stroke-width:0.5;" width="132" x="1432.5" y="32.3906"/><text fill="#000000" font-family="sans-serif" font-size="14" lengthAdjust="spacing" textLength="112" x="1442.5" y="53.9238">vehicleRepository</text><text fill="#000000" font-family="sans-serif" font-size="14" lengthAdjust="spacing" textLength="118" x="1439.5" y="71.5332">:VehicleRepository</text><rect fill="#E3E3E3" height="49.2188" rx="2.5" ry="2.5" style="stroke:#181818;stroke-width:0.5;" width="132" x="1432.5" y="1650.5078"/><text fill="#000000" font-family="sans-serif" font-size="14" lengthAdjust="spacing" textLength="112" x="1442.5" y="1672.041">vehicleRepository</text><text fill="#000000" font-family="sans-serif" font-size="14" lengthAdjust="spacing" textLength="118" x="1439.5" y="1689.6504">:VehicleRepository</text><rect fill="#E3E3E3" height="31.6094" rx="2.5" ry="2.5" style="stroke:#181818;stroke-width:0.5;" width="148" x="1574.5" y="50"/><text fill="#000000" font-family="sans-serif" font-size="14" lengthAdjust="spacing" textLength="134" x="1581.5" y="71.5332">:AgendaEntryMapper</text><rect fill="#E3E3E3" height="31.6094" rx="2.5" ry="2.5" style="stroke:#181818;stroke-width:0.5;" width="148" x="1574.5" y="1650.5078"/><text fill="#000000" font-family="sans-serif" font-size="14" lengthAdjust="spacing" textLength="134" x="1581.5" y="1672.041">:AgendaEntryMapper</text><rect fill="#E3E3E3" height="49.2188" rx="2.5" ry="2.5" style="stroke:#181818;stroke-width:0.5;" width="122" x="1732.5" y="1650.5078"/><text fill="#000000" font-family="sans-serif" font-size="14" lengthAdjust="spacing" textLength="103" x="1742" y="1672.041">agendaEntryDto</text><text fill="#000000" font-family="sans-serif" font-size="14" lengthAdjust="spacing" textLength="108" x="1739.5" y="1689.6504">:AgendaEntryDto</text><rect fill="#E3E3E3" height="49.2188" rx="2.5" ry="2.5" style="stroke:#181818;stroke-width:0.5;" width="100" x="1864.5" y="1650.5078"/><text fill="#000000" font-family="sans-serif" font-size="14" lengthAdjust="spacing" textLength="81" x="1874" y="1672.041">agendaEntry</text><text fill="#000000" font-family="sans-serif" font-size="14" lengthAdjust="spacing" textLength="86" x="1871.5" y="1689.6504">:AgendaEntry</text><rect fill="#E3E3E3" height="31.6094" rx="2.5" ry="2.5" style="stroke:#181818;stroke-width:0.5;" width="112" x="1974.5" y="50"/><text fill="#000000" font-family="sans-serif" font-size="14" lengthAdjust="spacing" textLength="98" x="1981.5" y="71.5332">:VehicleMapper</text><rect fill="#E3E3E3" height="31.6094" rx="2.5" ry="2.5" style="stroke:#181818;stroke-width:0.5;" width="112" x="1974.5" y="1650.5078"/><text fill="#000000" font-family="sans-serif" font-size="14" lengthAdjust="spacing" textLength="98" x="1981.5" y="1672.041">:VehicleMapper</text><rect fill="#E3E3E3" height="49.2188" rx="2.5" ry="2.5" style="stroke:#181818;stroke-width:0.5;" width="86" x="2113.5" y="1650.5078"/><text fill="#000000" font-family="sans-serif" font-size="14" lengthAdjust="spacing" textLength="66" x="2123.5" y="1672.041">vehicleDto</text><text fill="#000000" font-family="sans-serif" font-size="14" lengthAdjust="spacing" textLength="72" x="2120.5" y="1689.6504">:VehicleDto</text><rect fill="#E3E3E3" height="49.2188" rx="2.5" ry="2.5" style="stroke:#181818;stroke-width:0.5;" width="64" x="2209.5" y="1650.5078"/><text fill="#000000" font-family="sans-serif" font-size="14" lengthAdjust="spacing" textLength="44" x="2219.5" y="1672.041">vehicle</text><text fill="#000000" font-family="sans-serif" font-size="14" lengthAdjust="spacing" textLength="50" x="2216.5" y="1689.6504">:Vehicle</text><rect fill="#FFFFFF" height="1540.8984" style="stroke:#181818;stroke-width:1.0;" width="10" x="33.5" y="92.6094"/><rect fill="#FFFFFF" height="30.3516" style="stroke:#181818;stroke-width:1.0;" width="10" x="437.5" y="114.9609"/><rect fill="#FFFFFF" height="305.0313" style="stroke:#181818;stroke-width:1.0;" width="10" x="437.5" y="614.3594"/><rect fill="#FFFFFF" height="55.7031" style="stroke:#181818;stroke-width:1.0;" width="10" x="437.5" y="949.7422"/><rect fill="#FFFFFF" height="37.3516" style="stroke:#181818;stroke-width:1.0;" width="10" x="437.5" y="1035.7969"/><rect fill="#FFFFFF" height="30.3516" style="stroke:#181818;stroke-width:1.0;" width="10" x="437.5" y="1103.5"/><rect fill="#FFFFFF" height="30.3516" style="stroke:#181818;stroke-width:1.0;" width="10" x="437.5" y="1603.1563"/><rect fill="#FFFFFF" height="123.6641" style="stroke:#181818;stroke-width:1.0;" width="10" x="813.5" y="155.3125"/><rect fill="#FFFFFF" height="30.3516" style="stroke:#181818;stroke-width:1.0;" width="10" x="813.5" y="309.3281"/><rect fill="#FFFFFF" height="30.3516" style="stroke:#181818;stroke-width:1.0;" width="10" x="813.5" y="370.0313"/><rect fill="#FFFFFF" height="30.3516" style="stroke:#181818;stroke-width:1.0;" width="10" x="813.5" y="553.6563"/><rect fill="#FFFFFF" height="91.0547" style="stroke:#181818;stroke-width:1.0;" width="10" x="813.5" y="614.3594"/><rect fill="#FFFFFF" height="30.3516" style="stroke:#181818;stroke-width:1.0;" width="10" x="813.5" y="858.6875"/><rect fill="#FFFFFF" height="30.3516" style="stroke:#181818;stroke-width:1.0;" width="10" x="813.5" y="1133.8516"/><rect fill="#FFFFFF" height="30.3516" style="stroke:#181818;stroke-width:1.0;" width="10" x="813.5" y="1285.125"/><rect fill="#FFFFFF" height="30.3516" style="stroke:#181818;stroke-width:1.0;" width="10" x="813.5" y="1468.75"/><rect fill="#FFFFFF" height="30.3516" style="stroke:#181818;stroke-width:1.0;" width="10" x="813.5" y="1572.8047"/><rect fill="#FFFFFF" height="30.3516" style="stroke:#181818;stroke-width:1.0;" width="10" x="959.5" y="187.9219"/><rect fill="#FFFFFF" height="30.3516" style="stroke:#181818;stroke-width:1.0;" width="10" x="1066.5" y="248.625"/><rect fill="#FFFFFF" height="30.3516" style="stroke:#181818;stroke-width:1.0;" width="10" x="1184.5" y="339.6797"/><rect fill="#FFFFFF" height="73.7031" style="stroke:#181818;stroke-width:1.0;" width="10" x="1184.5" y="1499.1016"/><rect fill="#FFFFFF" height="30.3516" style="stroke:#181818;stroke-width:1.0;" width="10" x="1493.5" y="644.7109"/><rect fill="#FFFFFF" height="153.2734" style="stroke:#181818;stroke-width:1.0;" width="10" x="1643.5" y="400.3828"/><rect fill="#FFFFFF" height="120.9219" style="stroke:#181818;stroke-width:1.0;" width="10" x="1643.5" y="1164.2031"/><rect fill="#FFFFFF" height="50.2188" style="stroke:#181818;stroke-width:1.0;" width="10" x="1788.5" y="466.0859"/><rect fill="#FFFFFF" height="50.2188" style="stroke:#181818;stroke-width:1.0;" width="10" x="1909.5" y="1204.5547"/><rect fill="#FFFFFF" height="153.2734" style="stroke:#181818;stroke-width:1.0;" width="10" x="2025.5" y="705.4141"/><rect fill="#FFFFFF" height="153.2734" style="stroke:#181818;stroke-width:1.0;" width="10" x="2025.5" y="1315.4766"/><rect fill="#FFFFFF" height="50.2188" style="stroke:#181818;stroke-width:1.0;" width="10" x="2151.5" y="771.1172"/><rect fill="#FFFFFF" height="50.2188" style="stroke:#181818;stroke-width:1.0;" width="10" x="2236.5" y="1381.1797"/><polygon fill="#181818" points="425.5,110.9609,435.5,114.9609,425.5,118.9609,429.5,114.9609" style="stroke:#181818;stroke-width:1.0;"/><line style="stroke:#181818;stroke-width:1.0;" x1="43.5" x2="431.5" y1="114.9609" y2="114.9609"/><text fill="#000000" font-family="sans-serif" font-size="13" font-weight="bold" lengthAdjust="spacing" textLength="7" x="50.5" y="110.1045">1</text><text fill="#000000" font-family="sans-serif" font-size="13" lengthAdjust="spacing" textLength="285" x="61.5" y="110.1045">asks to assign vehicles to an entry in the Agenda</text><polygon fill="#181818" points="719,141.3125,729,145.3125,719,149.3125,723,145.3125" style="stroke:#181818;stroke-width:1.0;"/><line style="stroke:#181818;stroke-width:1.0;" x1="442.5" x2="725" y1="145.3125" y2="145.3125"/><text fill="#000000" font-family="sans-serif" font-size="13" font-weight="bold" lengthAdjust="spacing" textLength="7" x="449.5" y="140.4561">2</text><text fill="#000000" font-family="sans-serif" font-size="13" lengthAdjust="spacing" textLength="36" x="460.5" y="140.4561">create</text><rect fill="#E3E3E3" height="31.6094" rx="2.5" ry="2.5" style="stroke:#181818;stroke-width:0.5;" width="175" x="731" y="122.9609"/><text fill="#000000" font-family="sans-serif" font-size="14" lengthAdjust="spacing" textLength="161" x="738" y="144.4941">:AssignVehiclesController</text><polygon fill="#181818" points="947.5,183.9219,957.5,187.9219,947.5,191.9219,951.5,187.9219" style="stroke:#181818;stroke-width:1.0;"/><line style="stroke:#181818;stroke-width:1.0;" x1="823.5" x2="953.5" y1="187.9219" y2="187.9219"/><text fill="#000000" font-family="sans-serif" font-size="13" font-weight="bold" lengthAdjust="spacing" textLength="7" x="830.5" y="183.0654">3</text><text fill="#000000" font-family="sans-serif" font-size="13" lengthAdjust="spacing" textLength="75" x="841.5" y="183.0654">getInstance()</text><polygon fill="#181818" points="834.5,214.2734,824.5,218.2734,834.5,222.2734,830.5,218.2734" style="stroke:#181818;stroke-width:1.0;"/><line style="stroke:#181818;stroke-width:1.0;stroke-dasharray:2.0,2.0;" x1="828.5" x2="963.5" y1="218.2734" y2="218.2734"/><text fill="#000000" font-family="sans-serif" font-size="13" font-weight="bold" lengthAdjust="spacing" textLength="7" x="840.5" y="213.417">4</text><text fill="#000000" font-family="sans-serif" font-size="13" lengthAdjust="spacing" textLength="67" x="851.5" y="213.417">repositories</text><polygon fill="#181818" points="1054.5,244.625,1064.5,248.625,1054.5,252.625,1058.5,248.625" style="stroke:#181818;stroke-width:1.0;"/><line style="stroke:#181818;stroke-width:1.0;" x1="823.5" x2="1060.5" y1="248.625" y2="248.625"/><text fill="#000000" font-family="sans-serif" font-size="13" font-weight="bold" lengthAdjust="spacing" textLength="7" x="830.5" y="243.7686">5</text><text fill="#000000" font-family="sans-serif" font-size="13" lengthAdjust="spacing" textLength="119" x="841.5" y="243.7686">getEntryRepository()</text><polygon fill="#181818" points="829.5,274.9766,819.5,278.9766,829.5,282.9766,825.5,278.9766" style="stroke:#181818;stroke-width:1.0;"/><line style="stroke:#181818;stroke-width:1.0;stroke-dasharray:2.0,2.0;" x1="823.5" x2="1070.5" y1="278.9766" y2="278.9766"/><text fill="#000000" font-family="sans-serif" font-size="13" font-weight="bold" lengthAdjust="spacing" textLength="7" x="835.5" y="274.1201">6</text><text fill="#000000" font-family="sans-serif" font-size="13" lengthAdjust="spacing" textLength="91" x="846.5" y="274.1201">entryRepository</text><polygon fill="#181818" points="801.5,305.3281,811.5,309.3281,801.5,313.3281,805.5,309.3281" style="stroke:#181818;stroke-width:1.0;"/><line style="stroke:#181818;stroke-width:1.0;" x1="442.5" x2="807.5" y1="309.3281" y2="309.3281"/><text fill="#000000" font-family="sans-serif" font-size="13" font-weight="bold" lengthAdjust="spacing" textLength="7" x="449.5" y="304.4717">7</text><text fill="#000000" font-family="sans-serif" font-size="13" lengthAdjust="spacing" textLength="152" x="460.5" y="304.4717">getAgendaEntryList(GSM)</text><polygon fill="#181818" points="1172.5,335.6797,1182.5,339.6797,1172.5,343.6797,1176.5,339.6797" style="stroke:#181818;stroke-width:1.0;"/><line style="stroke:#181818;stroke-width:1.0;" x1="818.5" x2="1178.5" y1="339.6797" y2="339.6797"/><text fill="#000000" font-family="sans-serif" font-size="13" font-weight="bold" lengthAdjust="spacing" textLength="7" x="825.5" y="334.8232">8</text><text fill="#000000" font-family="sans-serif" font-size="13" lengthAdjust="spacing" textLength="198" x="836.5" y="334.8232">getAgendaEntryListByGSM(GSM)</text><polygon fill="#181818" points="834.5,366.0313,824.5,370.0313,834.5,374.0313,830.5,370.0313" style="stroke:#181818;stroke-width:1.0;"/><line style="stroke:#181818;stroke-width:1.0;stroke-dasharray:2.0,2.0;" x1="828.5" x2="1188.5" y1="370.0313" y2="370.0313"/><text fill="#000000" font-family="sans-serif" font-size="13" font-weight="bold" lengthAdjust="spacing" textLength="7" x="840.5" y="365.1748">9</text><text fill="#000000" font-family="sans-serif" font-size="13" lengthAdjust="spacing" textLength="94" x="851.5" y="365.1748">agendaEntryList</text><polygon fill="#181818" points="1631.5,396.3828,1641.5,400.3828,1631.5,404.3828,1635.5,400.3828" style="stroke:#181818;stroke-width:1.0;"/><line style="stroke:#181818;stroke-width:1.0;" x1="818.5" x2="1637.5" y1="400.3828" y2="400.3828"/><text fill="#000000" font-family="sans-serif" font-size="13" font-weight="bold" lengthAdjust="spacing" textLength="14" x="825.5" y="395.5264">10</text><text fill="#000000" font-family="sans-serif" font-size="13" lengthAdjust="spacing" textLength="154" x="843.5" y="395.5264">toDtoList(agendaEntryList)</text><path d="M1564.5,415.3828 L1637.5,415.3828 L1637.5,423.7344 L1627.5,433.7344 L1564.5,433.7344 L1564.5,415.3828 " fill="#EEEEEE" style="stroke:#000000;stroke-width:1.5;"/><rect fill="none" height="108.9219" style="stroke:#000000;stroke-width:1.5;" width="300" x="1564.5" y="415.3828"/><text fill="#000000" font-family="sans-serif" font-size="13" font-weight="bold" lengthAdjust="spacing" textLength="28" x="1579.5" y="429.8779">loop</text><polygon fill="#181818" points="1720.5,452.0859,1730.5,456.0859,1720.5,460.0859,1724.5,456.0859" style="stroke:#181818;stroke-width:1.0;"/><line style="stroke:#181818;stroke-width:1.0;" x1="1653.5" x2="1726.5" y1="456.0859" y2="456.0859"/><text fill="#000000" font-family="sans-serif" font-size="13" font-weight="bold" lengthAdjust="spacing" textLength="14" x="1660.5" y="451.2295">11</text><text fill="#000000" font-family="sans-serif" font-size="13" lengthAdjust="spacing" textLength="36" x="1678.5" y="451.2295">create</text><rect fill="#E3E3E3" height="49.2188" rx="2.5" ry="2.5" style="stroke:#181818;stroke-width:0.5;" width="122" x="1732.5" y="433.7344"/><text fill="#000000" font-family="sans-serif" font-size="14" lengthAdjust="spacing" textLength="103" x="1742" y="455.2676">agendaEntryDto</text><text fill="#000000" font-family="sans-serif" font-size="14" lengthAdjust="spacing" textLength="108" x="1739.5" y="472.877">:AgendaEntryDto</text><polygon fill="#181818" points="1664.5,512.3047,1654.5,516.3047,1664.5,520.3047,1660.5,516.3047" style="stroke:#181818;stroke-width:1.0;"/><line style="stroke:#181818;stroke-width:1.0;stroke-dasharray:2.0,2.0;" x1="1658.5" x2="1792.5" y1="516.3047" y2="516.3047"/><text fill="#000000" font-family="sans-serif" font-size="13" font-weight="bold" lengthAdjust="spacing" textLength="14" x="1670.5" y="511.4482">12</text><text fill="#000000" font-family="sans-serif" font-size="13" lengthAdjust="spacing" textLength="93" x="1688.5" y="511.4482">agendaEntryDto</text><polygon fill="#181818" points="834.5,549.6563,824.5,553.6563,834.5,557.6563,830.5,553.6563" style="stroke:#181818;stroke-width:1.0;"/><line style="stroke:#181818;stroke-width:1.0;stroke-dasharray:2.0,2.0;" x1="828.5" x2="1647.5" y1="553.6563" y2="553.6563"/><text fill="#000000" font-family="sans-serif" font-size="13" font-weight="bold" lengthAdjust="spacing" textLength="14" x="840.5" y="548.7998">13</text><text fill="#000000" font-family="sans-serif" font-size="13" lengthAdjust="spacing" textLength="93" x="858.5" y="548.7998">agendaEntryDto</text><polygon fill="#181818" points="453.5,580.0078,443.5,584.0078,453.5,588.0078,449.5,584.0078" style="stroke:#181818;stroke-width:1.0;"/><line style="stroke:#181818;stroke-width:1.0;stroke-dasharray:2.0,2.0;" x1="447.5" x2="817.5" y1="584.0078" y2="584.0078"/><text fill="#000000" font-family="sans-serif" font-size="13" font-weight="bold" lengthAdjust="spacing" textLength="14" x="459.5" y="579.1514">14</text><text fill="#000000" font-family="sans-serif" font-size="13" lengthAdjust="spacing" textLength="114" x="477.5" y="579.1514">agendaEntryDtoList</text><polygon fill="#181818" points="801.5,610.3594,811.5,614.3594,801.5,618.3594,805.5,614.3594" style="stroke:#181818;stroke-width:1.0;"/><line style="stroke:#181818;stroke-width:1.0;" x1="447.5" x2="807.5" y1="614.3594" y2="614.3594"/><text fill="#000000" font-family="sans-serif" font-size="13" font-weight="bold" lengthAdjust="spacing" textLength="14" x="454.5" y="609.5029">15</text><text fill="#000000" font-family="sans-serif" font-size="13" lengthAdjust="spacing" textLength="97" x="472.5" y="609.5029">getVehiclesList()</text><polygon fill="#181818" points="1481.5,640.7109,1491.5,644.7109,1481.5,648.7109,1485.5,644.7109" style="stroke:#181818;stroke-width:1.0;"/><line style="stroke:#181818;stroke-width:1.0;" x1="823.5" x2="1487.5" y1="644.7109" y2="644.7109"/><text fill="#000000" font-family="sans-serif" font-size="13" font-weight="bold" lengthAdjust="spacing" textLength="14" x="830.5" y="639.8545">16</text><text fill="#000000" font-family="sans-serif" font-size="13" lengthAdjust="spacing" textLength="97" x="848.5" y="639.8545">getVehiclesList()</text><polygon fill="#181818" points="834.5,671.0625,824.5,675.0625,834.5,679.0625,830.5,675.0625" style="stroke:#181818;stroke-width:1.0;"/><line style="stroke:#181818;stroke-width:1.0;" x1="828.5" x2="1497.5" y1="675.0625" y2="675.0625"/><text fill="#000000" font-family="sans-serif" font-size="13" font-weight="bold" lengthAdjust="spacing" textLength="14" x="840.5" y="670.2061">17</text><text fill="#000000" font-family="sans-serif" font-size="13" lengthAdjust="spacing" textLength="67" x="858.5" y="670.2061">vehiclesList</text><polygon fill="#181818" points="2013.5,701.4141,2023.5,705.4141,2013.5,709.4141,2017.5,705.4141" style="stroke:#181818;stroke-width:1.0;"/><line style="stroke:#181818;stroke-width:1.0;" x1="818.5" x2="2019.5" y1="705.4141" y2="705.4141"/><text fill="#000000" font-family="sans-serif" font-size="13" font-weight="bold" lengthAdjust="spacing" textLength="14" x="825.5" y="700.5576">18</text><text fill="#000000" font-family="sans-serif" font-size="13" lengthAdjust="spacing" textLength="52" x="843.5" y="700.5576">toDtoList</text><path d="M1964.5,720.4141 L2037.5,720.4141 L2037.5,728.7656 L2027.5,738.7656 L1964.5,738.7656 L1964.5,720.4141 " fill="#EEEEEE" style="stroke:#000000;stroke-width:1.5;"/><rect fill="none" height="108.9219" style="stroke:#000000;stroke-width:1.5;" width="245" x="1964.5" y="720.4141"/><text fill="#000000" font-family="sans-serif" font-size="13" font-weight="bold" lengthAdjust="spacing" textLength="28" x="1979.5" y="734.9092">loop</text><polygon fill="#181818" points="2101.5,757.1172,2111.5,761.1172,2101.5,765.1172,2105.5,761.1172" style="stroke:#181818;stroke-width:1.0;"/><line style="stroke:#181818;stroke-width:1.0;" x1="2035.5" x2="2107.5" y1="761.1172" y2="761.1172"/><text fill="#000000" font-family="sans-serif" font-size="13" font-weight="bold" lengthAdjust="spacing" textLength="14" x="2042.5" y="756.2607">19</text><text fill="#000000" font-family="sans-serif" font-size="13" lengthAdjust="spacing" textLength="36" x="2060.5" y="756.2607">create</text><rect fill="#E3E3E3" height="49.2188" rx="2.5" ry="2.5" style="stroke:#181818;stroke-width:0.5;" width="86" x="2113.5" y="738.7656"/><text fill="#000000" font-family="sans-serif" font-size="14" lengthAdjust="spacing" textLength="66" x="2123.5" y="760.2988">vehicleDto</text><text fill="#000000" font-family="sans-serif" font-size="14" lengthAdjust="spacing" textLength="72" x="2120.5" y="777.9082">:VehicleDto</text><polygon fill="#181818" points="2046.5,817.3359,2036.5,821.3359,2046.5,825.3359,2042.5,821.3359" style="stroke:#181818;stroke-width:1.0;"/><line style="stroke:#181818;stroke-width:1.0;stroke-dasharray:2.0,2.0;" x1="2040.5" x2="2155.5" y1="821.3359" y2="821.3359"/><text fill="#000000" font-family="sans-serif" font-size="13" font-weight="bold" lengthAdjust="spacing" textLength="14" x="2052.5" y="816.4795">20</text><text fill="#000000" font-family="sans-serif" font-size="13" lengthAdjust="spacing" textLength="59" x="2070.5" y="816.4795">vehicleDto</text><polygon fill="#181818" points="834.5,854.6875,824.5,858.6875,834.5,862.6875,830.5,858.6875" style="stroke:#181818;stroke-width:1.0;"/><line style="stroke:#181818;stroke-width:1.0;stroke-dasharray:2.0,2.0;" x1="828.5" x2="2029.5" y1="858.6875" y2="858.6875"/><text fill="#000000" font-family="sans-serif" font-size="13" font-weight="bold" lengthAdjust="spacing" textLength="14" x="840.5" y="853.8311">21</text><text fill="#000000" font-family="sans-serif" font-size="13" lengthAdjust="spacing" textLength="87" x="858.5" y="853.8311">vehiclesDtoList</text><polygon fill="#181818" points="458.5,885.0391,448.5,889.0391,458.5,893.0391,454.5,889.0391" style="stroke:#181818;stroke-width:1.0;"/><line style="stroke:#181818;stroke-width:1.0;" x1="452.5" x2="817.5" y1="889.0391" y2="889.0391"/><text fill="#000000" font-family="sans-serif" font-size="13" font-weight="bold" lengthAdjust="spacing" textLength="14" x="464.5" y="884.1826">22</text><text fill="#000000" font-family="sans-serif" font-size="13" lengthAdjust="spacing" textLength="87" x="482.5" y="884.1826">vehiclesDtoList</text><polygon fill="#181818" points="54.5,915.3906,44.5,919.3906,54.5,923.3906,50.5,919.3906" style="stroke:#181818;stroke-width:1.0;"/><line style="stroke:#181818;stroke-width:1.0;stroke-dasharray:2.0,2.0;" x1="48.5" x2="441.5" y1="919.3906" y2="919.3906"/><text fill="#000000" font-family="sans-serif" font-size="13" font-weight="bold" lengthAdjust="spacing" textLength="14" x="60.5" y="914.5342">23</text><text fill="#000000" font-family="sans-serif" font-size="13" lengthAdjust="spacing" textLength="320" x="78.5" y="914.5342">shows the entries in the agenda and asks to select one</text><polygon fill="#181818" points="425.5,945.7422,435.5,949.7422,425.5,953.7422,429.5,949.7422" style="stroke:#181818;stroke-width:1.0;"/><line style="stroke:#181818;stroke-width:1.0;" x1="43.5" x2="431.5" y1="949.7422" y2="949.7422"/><text fill="#000000" font-family="sans-serif" font-size="13" font-weight="bold" lengthAdjust="spacing" textLength="14" x="50.5" y="944.8857">24</text><text fill="#000000" font-family="sans-serif" font-size="13" lengthAdjust="spacing" textLength="90" x="68.5" y="944.8857">select the entry</text><path d="M10,964.7422 L83,964.7422 L83,973.0938 L73,983.0938 L10,983.0938 L10,964.7422 " fill="#EEEEEE" style="stroke:#000000;stroke-width:1.5;"/><rect fill="none" height="79.0547" style="stroke:#000000;stroke-width:1.5;" width="505" x="10" y="964.7422"/><text fill="#000000" font-family="sans-serif" font-size="13" font-weight="bold" lengthAdjust="spacing" textLength="28" x="25" y="979.2373">loop</text><polygon fill="#181818" points="54.5,1001.4453,44.5,1005.4453,54.5,1009.4453,50.5,1005.4453" style="stroke:#181818;stroke-width:1.0;"/><line style="stroke:#181818;stroke-width:1.0;stroke-dasharray:2.0,2.0;" x1="48.5" x2="441.5" y1="1005.4453" y2="1005.4453"/><text fill="#000000" font-family="sans-serif" font-size="13" font-weight="bold" lengthAdjust="spacing" textLength="14" x="60.5" y="1000.5889">25</text><text fill="#000000" font-family="sans-serif" font-size="13" lengthAdjust="spacing" textLength="271" x="78.5" y="1000.5889">shows vehicles and asks to select one or more</text><polygon fill="#181818" points="425.5,1031.7969,435.5,1035.7969,425.5,1039.7969,429.5,1035.7969" style="stroke:#181818;stroke-width:1.0;"/><line style="stroke:#181818;stroke-width:1.0;" x1="43.5" x2="431.5" y1="1035.7969" y2="1035.7969"/><text fill="#000000" font-family="sans-serif" font-size="13" font-weight="bold" lengthAdjust="spacing" textLength="14" x="50.5" y="1030.9404">26</text><text fill="#000000" font-family="sans-serif" font-size="13" lengthAdjust="spacing" textLength="92" x="68.5" y="1030.9404">selects vehicles</text><polygon fill="#181818" points="54.5,1069.1484,44.5,1073.1484,54.5,1077.1484,50.5,1073.1484" style="stroke:#181818;stroke-width:1.0;"/><line style="stroke:#181818;stroke-width:1.0;stroke-dasharray:2.0,2.0;" x1="48.5" x2="441.5" y1="1073.1484" y2="1073.1484"/><text fill="#000000" font-family="sans-serif" font-size="13" font-weight="bold" lengthAdjust="spacing" textLength="14" x="60.5" y="1068.292">27</text><text fill="#000000" font-family="sans-serif" font-size="13" lengthAdjust="spacing" textLength="236" x="78.5" y="1068.292">shows all data and requests confirmation</text><polygon fill="#181818" points="425.5,1099.5,435.5,1103.5,425.5,1107.5,429.5,1103.5" style="stroke:#181818;stroke-width:1.0;"/><line style="stroke:#181818;stroke-width:1.0;" x1="43.5" x2="431.5" y1="1103.5" y2="1103.5"/><text fill="#000000" font-family="sans-serif" font-size="13" font-weight="bold" lengthAdjust="spacing" textLength="14" x="50.5" y="1098.6436">28</text><text fill="#000000" font-family="sans-serif" font-size="13" lengthAdjust="spacing" textLength="49" x="68.5" y="1098.6436">confirms</text><polygon fill="#181818" points="801.5,1129.8516,811.5,1133.8516,801.5,1137.8516,805.5,1133.8516" style="stroke:#181818;stroke-width:1.0;"/><line style="stroke:#181818;stroke-width:1.0;" x1="442.5" x2="807.5" y1="1133.8516" y2="1133.8516"/><text fill="#000000" font-family="sans-serif" font-size="13" font-weight="bold" lengthAdjust="spacing" textLength="14" x="449.5" y="1128.9951">29</text><text fill="#000000" font-family="sans-serif" font-size="13" lengthAdjust="spacing" textLength="329" x="467.5" y="1128.9951">assignVehiclesToEntry(agendaEntryDto, vehiclesDtoList)</text><polygon fill="#181818" points="1631.5,1160.2031,1641.5,1164.2031,1631.5,1168.2031,1635.5,1164.2031" style="stroke:#181818;stroke-width:1.0;"/><line style="stroke:#181818;stroke-width:1.0;" x1="818.5" x2="1637.5" y1="1164.2031" y2="1164.2031"/><text fill="#000000" font-family="sans-serif" font-size="13" font-weight="bold" lengthAdjust="spacing" textLength="14" x="825.5" y="1159.3467">30</text><text fill="#000000" font-family="sans-serif" font-size="13" lengthAdjust="spacing" textLength="55" x="843.5" y="1159.3467">toDomain</text><polygon fill="#181818" points="1852.5,1190.5547,1862.5,1194.5547,1852.5,1198.5547,1856.5,1194.5547" style="stroke:#181818;stroke-width:1.0;"/><line style="stroke:#181818;stroke-width:1.0;" x1="1653.5" x2="1858.5" y1="1194.5547" y2="1194.5547"/><text fill="#000000" font-family="sans-serif" font-size="13" font-weight="bold" lengthAdjust="spacing" textLength="14" x="1660.5" y="1189.6982">31</text><text fill="#000000" font-family="sans-serif" font-size="13" lengthAdjust="spacing" textLength="36" x="1678.5" y="1189.6982">create</text><rect fill="#E3E3E3" height="49.2188" rx="2.5" ry="2.5" style="stroke:#181818;stroke-width:0.5;" width="100" x="1864.5" y="1172.2031"/><text fill="#000000" font-family="sans-serif" font-size="14" lengthAdjust="spacing" textLength="81" x="1874" y="1193.7363">agendaEntry</text><text fill="#000000" font-family="sans-serif" font-size="14" lengthAdjust="spacing" textLength="86" x="1871.5" y="1211.3457">:AgendaEntry</text><polygon fill="#181818" points="1664.5,1250.7734,1654.5,1254.7734,1664.5,1258.7734,1660.5,1254.7734" style="stroke:#181818;stroke-width:1.0;"/><line style="stroke:#181818;stroke-width:1.0;stroke-dasharray:2.0,2.0;" x1="1658.5" x2="1913.5" y1="1254.7734" y2="1254.7734"/><text fill="#000000" font-family="sans-serif" font-size="13" font-weight="bold" lengthAdjust="spacing" textLength="14" x="1670.5" y="1249.917">32</text><text fill="#000000" font-family="sans-serif" font-size="13" lengthAdjust="spacing" textLength="73" x="1688.5" y="1249.917">agendaEntry</text><polygon fill="#181818" points="834.5,1281.125,824.5,1285.125,834.5,1289.125,830.5,1285.125" style="stroke:#181818;stroke-width:1.0;"/><line style="stroke:#181818;stroke-width:1.0;stroke-dasharray:2.0,2.0;" x1="828.5" x2="1647.5" y1="1285.125" y2="1285.125"/><text fill="#000000" font-family="sans-serif" font-size="13" font-weight="bold" lengthAdjust="spacing" textLength="14" x="840.5" y="1280.2686">33</text><text fill="#000000" font-family="sans-serif" font-size="13" lengthAdjust="spacing" textLength="73" x="858.5" y="1280.2686">agendaEntry</text><polygon fill="#181818" points="2013.5,1311.4766,2023.5,1315.4766,2013.5,1319.4766,2017.5,1315.4766" style="stroke:#181818;stroke-width:1.0;"/><line style="stroke:#181818;stroke-width:1.0;" x1="818.5" x2="2019.5" y1="1315.4766" y2="1315.4766"/><text fill="#000000" font-family="sans-serif" font-size="13" font-weight="bold" lengthAdjust="spacing" textLength="14" x="825.5" y="1310.6201">34</text><text fill="#000000" font-family="sans-serif" font-size="13" lengthAdjust="spacing" textLength="76" x="843.5" y="1310.6201">toDomainList</text><path d="M1964.5,1330.4766 L2037.5,1330.4766 L2037.5,1338.8281 L2027.5,1348.8281 L1964.5,1348.8281 L1964.5,1330.4766 " fill="#EEEEEE" style="stroke:#000000;stroke-width:1.5;"/><rect fill="none" height="108.9219" style="stroke:#000000;stroke-width:1.5;" width="319" x="1964.5" y="1330.4766"/><text fill="#000000" font-family="sans-serif" font-size="13" font-weight="bold" lengthAdjust="spacing" textLength="28" x="1979.5" y="1344.9717">loop</text><polygon fill="#181818" points="2197.5,1367.1797,2207.5,1371.1797,2197.5,1375.1797,2201.5,1371.1797" style="stroke:#181818;stroke-width:1.0;"/><line style="stroke:#181818;stroke-width:1.0;" x1="2035.5" x2="2203.5" y1="1371.1797" y2="1371.1797"/><text fill="#000000" font-family="sans-serif" font-size="13" font-weight="bold" lengthAdjust="spacing" textLength="14" x="2042.5" y="1366.3232">35</text><text fill="#000000" font-family="sans-serif" font-size="13" lengthAdjust="spacing" textLength="36" x="2060.5" y="1366.3232">create</text><rect fill="#E3E3E3" height="49.2188" rx="2.5" ry="2.5" style="stroke:#181818;stroke-width:0.5;" width="64" x="2209.5" y="1348.8281"/><text fill="#000000" font-family="sans-serif" font-size="14" lengthAdjust="spacing" textLength="44" x="2219.5" y="1370.3613">vehicle</text><text fill="#000000" font-family="sans-serif" font-size="14" lengthAdjust="spacing" textLength="50" x="2216.5" y="1387.9707">:Vehicle</text><polygon fill="#181818" points="2046.5,1427.3984,2036.5,1431.3984,2046.5,1435.3984,2042.5,1431.3984" style="stroke:#181818;stroke-width:1.0;"/><line style="stroke:#181818;stroke-width:1.0;stroke-dasharray:2.0,2.0;" x1="2040.5" x2="2240.5" y1="1431.3984" y2="1431.3984"/><text fill="#000000" font-family="sans-serif" font-size="13" font-weight="bold" lengthAdjust="spacing" textLength="14" x="2052.5" y="1426.542">36</text><text fill="#000000" font-family="sans-serif" font-size="13" lengthAdjust="spacing" textLength="39" x="2070.5" y="1426.542">vehicle</text><polygon fill="#181818" points="834.5,1464.75,824.5,1468.75,834.5,1472.75,830.5,1468.75" style="stroke:#181818;stroke-width:1.0;"/><line style="stroke:#181818;stroke-width:1.0;stroke-dasharray:2.0,2.0;" x1="828.5" x2="2029.5" y1="1468.75" y2="1468.75"/><text fill="#000000" font-family="sans-serif" font-size="13" font-weight="bold" lengthAdjust="spacing" textLength="14" x="840.5" y="1463.8936">37</text><text fill="#000000" font-family="sans-serif" font-size="13" lengthAdjust="spacing" textLength="67" x="858.5" y="1463.8936">vehiclesList</text><polygon fill="#181818" points="1172.5,1495.1016,1182.5,1499.1016,1172.5,1503.1016,1176.5,1499.1016" style="stroke:#181818;stroke-width:1.0;"/><line style="stroke:#181818;stroke-width:1.0;" x1="818.5" x2="1178.5" y1="1499.1016" y2="1499.1016"/><text fill="#000000" font-family="sans-serif" font-size="13" font-weight="bold" lengthAdjust="spacing" textLength="14" x="825.5" y="1494.2451">38</text><text fill="#000000" font-family="sans-serif" font-size="13" lengthAdjust="spacing" textLength="324" x="843.5" y="1494.2451">updateAgendaEntryVehicles(agendaEntry, VehiclesList)</text><line style="stroke:#181818;stroke-width:1.0;" x1="1194.5" x2="1236.5" y1="1529.4531" y2="1529.4531"/><line style="stroke:#181818;stroke-width:1.0;" x1="1236.5" x2="1236.5" y1="1529.4531" y2="1542.4531"/><line style="stroke:#181818;stroke-width:1.0;" x1="1195.5" x2="1236.5" y1="1542.4531" y2="1542.4531"/><polygon fill="#181818" points="1205.5,1538.4531,1195.5,1542.4531,1205.5,1546.4531,1201.5,1542.4531" style="stroke:#181818;stroke-width:1.0;"/><text fill="#000000" font-family="sans-serif" font-size="13" font-weight="bold" lengthAdjust="spacing" textLength="14" x="1201.5" y="1524.5967">39</text><text fill="#000000" font-family="sans-serif" font-size="13" lengthAdjust="spacing" textLength="267" x="1219.5" y="1524.5967">updateEntryVehicles(agendaEntry, Vehicles[])</text><polygon fill="#181818" points="834.5,1568.8047,824.5,1572.8047,834.5,1576.8047,830.5,1572.8047" style="stroke:#181818;stroke-width:1.0;"/><line style="stroke:#181818;stroke-width:1.0;stroke-dasharray:2.0,2.0;" x1="828.5" x2="1188.5" y1="1572.8047" y2="1572.8047"/><text fill="#000000" font-family="sans-serif" font-size="13" font-weight="bold" lengthAdjust="spacing" textLength="14" x="840.5" y="1567.9482">40</text><text fill="#000000" font-family="sans-serif" font-size="13" lengthAdjust="spacing" textLength="49" x="858.5" y="1567.9482">success</text><polygon fill="#181818" points="458.5,1599.1563,448.5,1603.1563,458.5,1607.1563,454.5,1603.1563" style="stroke:#181818;stroke-width:1.0;"/><line style="stroke:#181818;stroke-width:1.0;stroke-dasharray:2.0,2.0;" x1="452.5" x2="817.5" y1="1603.1563" y2="1603.1563"/><text fill="#000000" font-family="sans-serif" font-size="13" font-weight="bold" lengthAdjust="spacing" textLength="14" x="464.5" y="1598.2998">41</text><text fill="#000000" font-family="sans-serif" font-size="13" lengthAdjust="spacing" textLength="49" x="482.5" y="1598.2998">success</text><polygon fill="#181818" points="49.5,1629.5078,39.5,1633.5078,49.5,1637.5078,45.5,1633.5078" style="stroke:#181818;stroke-width:1.0;"/><line style="stroke:#181818;stroke-width:1.0;stroke-dasharray:2.0,2.0;" x1="43.5" x2="441.5" y1="1633.5078" y2="1633.5078"/><text fill="#000000" font-family="sans-serif" font-size="13" font-weight="bold" lengthAdjust="spacing" textLength="14" x="55.5" y="1628.6514">42</text><text fill="#000000" font-family="sans-serif" font-size="13" lengthAdjust="spacing" textLength="352" x="73.5" y="1628.6514">displays success message (Vehicles assigned successfully)</text><!--SRC=[nHXBRzCm-9vVOUr2Ep49SU2m0z9W24qQ4gBRBi31f5vhBR53x6xgl-UpapX-nN6A43vihVsztr_54sKDRd6DQivukMzvJP1i3wGGvgN1vHFUaOqyLWIrf9IOxIeRGEpnbhzGjaEFk1AaA5v9AW5sSnIIr6X3VXy8AmcwfdYdu5URpVKQNQ3xpPktxue27oHdX_eNQU5pANcBpZvllfmXB13yBu27f2LjC9FexF9A2BfZ3sHFoug8-niDTd-JXFh8cMnvLP5MGt-y-tRhmNyZ3HSKM5CYD8ovE6weqXOaT55Q2-C72mbylRswSp48274SwGBI9_T6uvax5_cvKyL1V_3lD87WrZVDZh0jrco-uARfRHBSkbXuVBwM77XVEHS-2RYQn7UHVKnFs5uPIr3d9cgZJi07yyL62mJhSKO46xhGyKYViIGw4Wi41pwWY_SGSkWIG9y4aXp-gt13FR7kYY7jS4GPadlIwwWf69eGjlf27Q07L5Ledfy3vR8b065UjyH6GjunRpgoWsTrr8jY48bhuBOZyeO9oEkIhDPHVCCYbXXH37LYt2vwDO6jdKDH6fRQsNm7JLK2TgfvQJQdeSxSIPKqMKi7Bwldr4WGjw3YVdI3818vMbihcMwfa2k8rr7X18V1RiPQCMeVZa3E9HaJFMhNiR8vx-RQM1NookKwnMkak30RV9s3wWUEbHoAXRQW9yqwIJ9bYicG2wjl4g_Yl4a2g1Fgv2eAsiKgpH9PLJLT8WV0QoV7pErsc5cgbfclyZ41C2rmn6XZgYyGCIvUxziiCwU3jmjSquOSmOACEIKyPsjDLrg72KldIQJCMCrgHhCX5OFn9Sae81vEFm5io65KwTbYawg_6MmyXJhVMsMbMEeQd_bKfT3L8UfO1z6IJPU2P2NmUKzc_lYkmzDJVfpGvlfaYWy4-uIIdeAcdmnkpJ2zQzo5wJduN6Vb0gOZDPLWG40DcPUmL_4NeQT7DMN0a3GCart2muovDIEe81LiPeYppe6H_BK7rnvw87sCpwMZaIDYcM4tBWM2DQxcxRmqWp0ZnRWmhjSZ0k6gGbiiExEqQkSKGBJax96sDPOK1iPvMNfmaJEewmN0tZFlkAx1AxSUl_OZOPrPTV-oHoG775s8U8qf- -_JJCwmCbEUviHO941yH76wx8dZoRGOqtD77j-JveqJuYXiPZg6aYF7oN4qq-Vo-rvE3pmbmipF19bC4ornIKHbivrkb4kQvXBdfhjd8lYAlFWRbyLBT6YWsXCht8SoRDVVryYU7F_1wcPjjVCEiNRTc2uPMdp_kKwp2TTfrI0FPKc4oDK-lbTdbWztDV4vJzauQBLEWzzIqLJuA0Pog8O_O1-qUZ1JYEx4P3k0F1wgwhYETNphg_fHxmy0]--></g></svg>