<?xml version="1.0" encoding="us-ascii" standalone="no"?><svg xmlns="http://www.w3.org/2000/svg" xmlns:xlink="http://www.w3.org/1999/xlink" contentStyleType="text/css" height="843.2px" preserveAspectRatio="none" style="width:1144px;height:843px;background:#FFFFFF;" version="1.1" viewBox="0 0 1144 843" width="1144.8px" zoomAndPan="magnify"><defs/><g><text fill="#000000" font-family="sans-serif" font-size="11.2" font-weight="bold" lengthAdjust="spacing" textLength="227.2" x="458" y="24.0859">System Sequence Diagram (SSD) - US026</text><rect fill="#FFFFFF" height="655.9172" style="stroke:#181818;stroke-width:0.8000000000000002;" width="8" x="26.8" y="106.5938"/><rect fill="#FFFFFF" height="25.0328" style="stroke:#181818;stroke-width:0.8000000000000002;" width="8" x="350" y="125.2266"/><rect fill="#FFFFFF" height="75.0984" style="stroke:#181818;stroke-width:0.8000000000000002;" width="8" x="350" y="285.2875"/><rect fill="#FFFFFF" height="100.1313" style="stroke:#181818;stroke-width:0.8000000000000002;" width="8" x="350" y="385.4188"/><rect fill="#FFFFFF" height="46.0656" style="stroke:#181818;stroke-width:0.8000000000000002;" width="8" x="350" y="510.5828"/><rect fill="#FFFFFF" height="30.6328" style="stroke:#181818;stroke-width:0.8000000000000002;" width="8" x="350" y="581.6813"/><rect fill="#FFFFFF" height="25.0328" style="stroke:#181818;stroke-width:0.8000000000000002;" width="8" x="350" y="637.3469"/><rect fill="#FFFFFF" height="25.0328" style="stroke:#181818;stroke-width:0.8000000000000002;" width="8" x="350" y="737.4781"/><rect fill="#FFFFFF" height="101.9953" style="stroke:#181818;stroke-width:0.8000000000000002;" width="8" x="563.6" y="158.2594"/><rect fill="#FFFFFF" height="75.0984" style="stroke:#181818;stroke-width:0.8000000000000002;" width="8" x="563.6" y="285.2875"/><rect fill="#FFFFFF" height="75.0984" style="stroke:#181818;stroke-width:0.8000000000000002;" width="8" x="563.6" y="385.4188"/><rect fill="#FFFFFF" height="75.0984" style="stroke:#181818;stroke-width:0.8000000000000002;" width="8" x="563.6" y="662.3797"/><rect fill="#FFFFFF" height="25.0328" style="stroke:#181818;stroke-width:0.8000000000000002;" width="8" x="680.4" y="185.1563"/><rect fill="#FFFFFF" height="25.0328" style="stroke:#181818;stroke-width:0.8000000000000002;" width="8" x="766" y="235.2219"/><rect fill="#FFFFFF" height="25.0328" style="stroke:#181818;stroke-width:0.8000000000000002;" width="8" x="860.4" y="310.3203"/><rect fill="#FFFFFF" height="25.0328" style="stroke:#181818;stroke-width:0.8000000000000002;" width="8" x="968" y="410.4516"/><rect fill="#FFFFFF" height="25.0328" style="stroke:#181818;stroke-width:0.8000000000000002;" width="8" x="1082" y="687.4125"/><rect fill="none" height="65.4984" style="stroke:#000000;stroke-width:1.2000000000000002;" width="404" x="8" y="522.5828"/><line style="stroke:#181818;stroke-width:0.4000000000000001;stroke-dasharray:5.0,5.0;" x1="30.4" x2="30.4" y1="98.5938" y2="776.9109"/><line style="stroke:#181818;stroke-width:0.4000000000000001;stroke-dasharray:5.0,5.0;" x1="353.6" x2="353.6" y1="98.5938" y2="776.9109"/><line style="stroke:#181818;stroke-width:0.4000000000000001;stroke-dasharray:5.0,5.0;" x1="567.2" x2="567.2" y1="157.075" y2="776.9109"/><line style="stroke:#181818;stroke-width:0.4000000000000001;stroke-dasharray:5.0,5.0;" x1="684" x2="684" y1="98.5938" y2="776.9109"/><line style="stroke:#181818;stroke-width:0.4000000000000001;stroke-dasharray:5.0,5.0;" x1="769.6" x2="769.6" y1="98.5938" y2="776.9109"/><line style="stroke:#181818;stroke-width:0.4000000000000001;stroke-dasharray:5.0,5.0;" x1="864" x2="864" y1="98.5938" y2="776.9109"/><line style="stroke:#181818;stroke-width:0.4000000000000001;stroke-dasharray:5.0,5.0;" x1="972" x2="972" y1="98.5938" y2="776.9109"/><line style="stroke:#181818;stroke-width:0.4000000000000001;stroke-dasharray:5.0,5.0;" x1="1085.6" x2="1085.6" y1="98.5938" y2="776.9109"/><text fill="#000000" font-family="sans-serif" font-size="11.2" lengthAdjust="spacing" textLength="24.8" x="16" y="95.7828">GSM</text><ellipse cx="30.8" cy="42.4969" fill="#E3E3E3" rx="6.4" ry="6.4" style="stroke:#181818;stroke-width:0.4000000000000001;"/><path d="M30.8,48.8969 L30.8,70.4969 M20.4,55.2969 L41.2,55.2969 M30.8,70.4969 L20.4,82.4969 M30.8,70.4969 L41.2,82.4969 " fill="none" style="stroke:#181818;stroke-width:0.4000000000000001;"/><text fill="#000000" font-family="sans-serif" font-size="11.2" lengthAdjust="spacing" textLength="24.8" x="16" y="788.1969">GSM</text><ellipse cx="30.8" cy="797.8078" fill="#E3E3E3" rx="6.4" ry="6.4" style="stroke:#181818;stroke-width:0.4000000000000001;"/><path d="M30.8,804.2078 L30.8,825.8078 M20.4,810.6078 L41.2,810.6078 M30.8,825.8078 L20.4,837.8078 M30.8,825.8078 L41.2,837.8078 " fill="none" style="stroke:#181818;stroke-width:0.4000000000000001;"/><rect fill="#E3E3E3" height="26.0969" rx="2" ry="2" style="stroke:#181818;stroke-width:0.4000000000000001;" width="100" x="304" y="71.6969"/><text fill="#000000" font-family="sans-serif" font-size="11.2" lengthAdjust="spacing" textLength="88.8" x="309.6" y="89.3828">:AssignVehiclesUI</text><rect fill="#E3E3E3" height="26.0969" rx="2" ry="2" style="stroke:#181818;stroke-width:0.4000000000000001;" width="100" x="304" y="776.1109"/><text fill="#000000" font-family="sans-serif" font-size="11.2" lengthAdjust="spacing" textLength="88.8" x="309.6" y="793.7969">:AssignVehiclesUI</text><rect fill="#E3E3E3" height="26.0969" rx="2" ry="2" style="stroke:#181818;stroke-width:0.4000000000000001;" width="140" x="497.6" y="776.1109"/><text fill="#000000" font-family="sans-serif" font-size="11.2" lengthAdjust="spacing" textLength="128.8" x="503.2" y="793.7969">:AssignVehiclesController</text><rect fill="#E3E3E3" height="26.0969" rx="2" ry="2" style="stroke:#181818;stroke-width:0.4000000000000001;" width="77.6" x="645.6" y="71.6969"/><text fill="#000000" font-family="sans-serif" font-size="11.2" lengthAdjust="spacing" textLength="66.4" x="651.2" y="89.3828">:Repositories</text><rect fill="#E3E3E3" height="26.0969" rx="2" ry="2" style="stroke:#181818;stroke-width:0.4000000000000001;" width="77.6" x="645.6" y="776.1109"/><text fill="#000000" font-family="sans-serif" font-size="11.2" lengthAdjust="spacing" textLength="66.4" x="651.2" y="793.7969">:Repositories</text><rect fill="#E3E3E3" height="40.9938" rx="2" ry="2" style="stroke:#181818;stroke-width:0.4000000000000001;" width="77.6" x="731.2" y="56.8"/><text fill="#000000" font-family="sans-serif" font-size="11.2" lengthAdjust="spacing" textLength="59.2" x="740.4" y="74.4859">repositories</text><text fill="#000000" font-family="sans-serif" font-size="11.2" lengthAdjust="spacing" textLength="66.4" x="736.8" y="89.3828">:Repositories</text><rect fill="#E3E3E3" height="40.9938" rx="2" ry="2" style="stroke:#181818;stroke-width:0.4000000000000001;" width="77.6" x="731.2" y="776.1109"/><text fill="#000000" font-family="sans-serif" font-size="11.2" lengthAdjust="spacing" textLength="59.2" x="740.4" y="793.7969">repositories</text><text fill="#000000" font-family="sans-serif" font-size="11.2" lengthAdjust="spacing" textLength="66.4" x="736.8" y="808.6938">:Repositories</text><rect fill="#E3E3E3" height="40.9938" rx="2" ry="2" style="stroke:#181818;stroke-width:0.4000000000000001;" width="95.2" x="816.8" y="56.8"/><text fill="#000000" font-family="sans-serif" font-size="11.2" lengthAdjust="spacing" textLength="80" x="824.4" y="74.4859">entryRepository</text><text fill="#000000" font-family="sans-serif" font-size="11.2" lengthAdjust="spacing" textLength="84" x="822.4" y="89.3828">:EntryRepository</text><rect fill="#E3E3E3" height="40.9938" rx="2" ry="2" style="stroke:#181818;stroke-width:0.4000000000000001;" width="95.2" x="816.8" y="776.1109"/><text fill="#000000" font-family="sans-serif" font-size="11.2" lengthAdjust="spacing" textLength="80" x="824.4" y="793.7969">entryRepository</text><text fill="#000000" font-family="sans-serif" font-size="11.2" lengthAdjust="spacing" textLength="84" x="822.4" y="808.6938">:EntryRepository</text><rect fill="#E3E3E3" height="40.9938" rx="2" ry="2" style="stroke:#181818;stroke-width:0.4000000000000001;" width="104" x="920" y="56.8"/><text fill="#000000" font-family="sans-serif" font-size="11.2" lengthAdjust="spacing" textLength="92.8" x="925.6" y="74.4859">vehicleRepository:</text><text fill="#000000" font-family="sans-serif" font-size="11.2" lengthAdjust="spacing" textLength="91.2" x="926.4" y="89.3828">VehicleRepository</text><rect fill="#E3E3E3" height="40.9938" rx="2" ry="2" style="stroke:#181818;stroke-width:0.4000000000000001;" width="104" x="920" y="776.1109"/><text fill="#000000" font-family="sans-serif" font-size="11.2" lengthAdjust="spacing" textLength="92.8" x="925.6" y="793.7969">vehicleRepository:</text><text fill="#000000" font-family="sans-serif" font-size="11.2" lengthAdjust="spacing" textLength="91.2" x="926.4" y="808.6938">VehicleRepository</text><rect fill="#E3E3E3" height="40.9938" rx="2" ry="2" style="stroke:#181818;stroke-width:0.4000000000000001;" width="108" x="1032" y="56.8"/><text fill="#000000" font-family="sans-serif" font-size="11.2" lengthAdjust="spacing" textLength="92.8" x="1039.6" y="74.4859">agendaRepository</text><text fill="#000000" font-family="sans-serif" font-size="11.2" lengthAdjust="spacing" textLength="96.8" x="1037.6" y="89.3828">:AgendaRepository</text><rect fill="#E3E3E3" height="40.9938" rx="2" ry="2" style="stroke:#181818;stroke-width:0.4000000000000001;" width="108" x="1032" y="776.1109"/><text fill="#000000" font-family="sans-serif" font-size="11.2" lengthAdjust="spacing" textLength="92.8" x="1039.6" y="793.7969">agendaRepository</text><text fill="#000000" font-family="sans-serif" font-size="11.2" lengthAdjust="spacing" textLength="96.8" x="1037.6" y="808.6938">:AgendaRepository</text><rect fill="#FFFFFF" height="655.9172" style="stroke:#181818;stroke-width:0.8000000000000002;" width="8" x="26.8" y="106.5938"/><rect fill="#FFFFFF" height="25.0328" style="stroke:#181818;stroke-width:0.8000000000000002;" width="8" x="350" y="125.2266"/><rect fill="#FFFFFF" height="75.0984" style="stroke:#181818;stroke-width:0.8000000000000002;" width="8" x="350" y="285.2875"/><rect fill="#FFFFFF" height="100.1313" style="stroke:#181818;stroke-width:0.8000000000000002;" width="8" x="350" y="385.4188"/><rect fill="#FFFFFF" height="46.0656" style="stroke:#181818;stroke-width:0.8000000000000002;" width="8" x="350" y="510.5828"/><rect fill="#FFFFFF" height="30.6328" style="stroke:#181818;stroke-width:0.8000000000000002;" width="8" x="350" y="581.6813"/><rect fill="#FFFFFF" height="25.0328" style="stroke:#181818;stroke-width:0.8000000000000002;" width="8" x="350" y="637.3469"/><rect fill="#FFFFFF" height="25.0328" style="stroke:#181818;stroke-width:0.8000000000000002;" width="8" x="350" y="737.4781"/><rect fill="#FFFFFF" height="101.9953" style="stroke:#181818;stroke-width:0.8000000000000002;" width="8" x="563.6" y="158.2594"/><rect fill="#FFFFFF" height="75.0984" style="stroke:#181818;stroke-width:0.8000000000000002;" width="8" x="563.6" y="285.2875"/><rect fill="#FFFFFF" height="75.0984" style="stroke:#181818;stroke-width:0.8000000000000002;" width="8" x="563.6" y="385.4188"/><rect fill="#FFFFFF" height="75.0984" style="stroke:#181818;stroke-width:0.8000000000000002;" width="8" x="563.6" y="662.3797"/><rect fill="#FFFFFF" height="25.0328" style="stroke:#181818;stroke-width:0.8000000000000002;" width="8" x="680.4" y="185.1563"/><rect fill="#FFFFFF" height="25.0328" style="stroke:#181818;stroke-width:0.8000000000000002;" width="8" x="766" y="235.2219"/><rect fill="#FFFFFF" height="25.0328" style="stroke:#181818;stroke-width:0.8000000000000002;" width="8" x="860.4" y="310.3203"/><rect fill="#FFFFFF" height="25.0328" style="stroke:#181818;stroke-width:0.8000000000000002;" width="8" x="968" y="410.4516"/><rect fill="#FFFFFF" height="25.0328" style="stroke:#181818;stroke-width:0.8000000000000002;" width="8" x="1082" y="687.4125"/><polygon fill="#181818" points="340.4,122.0266,348.4,125.2266,340.4,128.4266,343.6,125.2266" style="stroke:#181818;stroke-width:0.8000000000000002;"/><line style="stroke:#181818;stroke-width:0.8000000000000002;" x1="34.8" x2="345.2" y1="125.2266" y2="125.2266"/><text fill="#000000" font-family="sans-serif" font-size="10.4" font-weight="bold" lengthAdjust="spacing" textLength="5.6" x="40.4" y="121.0164">1</text><text fill="#000000" font-family="sans-serif" font-size="10.4" lengthAdjust="spacing" textLength="228" x="49.2" y="121.0164">asks to assign vehicles to an entry in the Agenda</text><polygon fill="#181818" points="488,147.0594,496,150.2594,488,153.4594,491.2,150.2594" style="stroke:#181818;stroke-width:0.8000000000000002;"/><line style="stroke:#181818;stroke-width:0.8000000000000002;" x1="354" x2="492.8" y1="150.2594" y2="150.2594"/><text fill="#000000" font-family="sans-serif" font-size="10.4" font-weight="bold" lengthAdjust="spacing" textLength="5.6" x="359.6" y="146.0492">2</text><text fill="#000000" font-family="sans-serif" font-size="10.4" lengthAdjust="spacing" textLength="28.8" x="368.4" y="146.0492">create</text><rect fill="#E3E3E3" height="26.0969" rx="2" ry="2" style="stroke:#181818;stroke-width:0.4000000000000001;" width="140" x="497.6" y="131.6266"/><text fill="#000000" font-family="sans-serif" font-size="11.2" lengthAdjust="spacing" textLength="128.8" x="503.2" y="149.3125">:AssignVehiclesController</text><polygon fill="#181818" points="670.8,181.9563,678.8,185.1563,670.8,188.3563,674,185.1563" style="stroke:#181818;stroke-width:0.8000000000000002;"/><line style="stroke:#181818;stroke-width:0.8000000000000002;" x1="571.6" x2="675.6" y1="185.1563" y2="185.1563"/><text fill="#000000" font-family="sans-serif" font-size="10.4" font-weight="bold" lengthAdjust="spacing" textLength="5.6" x="577.2" y="180.9461">3</text><text fill="#000000" font-family="sans-serif" font-size="10.4" lengthAdjust="spacing" textLength="60" x="586" y="180.9461">getInstance()</text><polygon fill="#181818" points="580.4,206.9891,572.4,210.1891,580.4,213.3891,577.2,210.1891" style="stroke:#181818;stroke-width:0.8000000000000002;"/><line style="stroke:#181818;stroke-width:0.8000000000000002;stroke-dasharray:2.0,2.0;" x1="575.6" x2="683.6" y1="210.1891" y2="210.1891"/><text fill="#000000" font-family="sans-serif" font-size="10.4" font-weight="bold" lengthAdjust="spacing" textLength="5.6" x="585.2" y="205.9789">4</text><text fill="#000000" font-family="sans-serif" font-size="10.4" lengthAdjust="spacing" textLength="53.6" x="594" y="205.9789">repositories</text><polygon fill="#181818" points="756.4,232.0219,764.4,235.2219,756.4,238.4219,759.6,235.2219" style="stroke:#181818;stroke-width:0.8000000000000002;"/><line style="stroke:#181818;stroke-width:0.8000000000000002;" x1="571.6" x2="761.2" y1="235.2219" y2="235.2219"/><text fill="#000000" font-family="sans-serif" font-size="10.4" font-weight="bold" lengthAdjust="spacing" textLength="5.6" x="577.2" y="231.0117">5</text><text fill="#000000" font-family="sans-serif" font-size="10.4" lengthAdjust="spacing" textLength="95.2" x="586" y="231.0117">getEntryRepository()</text><polygon fill="#181818" points="576.4,257.0547,568.4,260.2547,576.4,263.4547,573.2,260.2547" style="stroke:#181818;stroke-width:0.8000000000000002;"/><line style="stroke:#181818;stroke-width:0.8000000000000002;stroke-dasharray:2.0,2.0;" x1="571.6" x2="769.2" y1="260.2547" y2="260.2547"/><text fill="#000000" font-family="sans-serif" font-size="10.4" font-weight="bold" lengthAdjust="spacing" textLength="5.6" x="581.2" y="256.0445">6</text><text fill="#000000" font-family="sans-serif" font-size="10.4" lengthAdjust="spacing" textLength="72.8" x="590" y="256.0445">entryRepository</text><polygon fill="#181818" points="554,282.0875,562,285.2875,554,288.4875,557.2,285.2875" style="stroke:#181818;stroke-width:0.8000000000000002;"/><line style="stroke:#181818;stroke-width:0.8000000000000002;" x1="358" x2="558.8" y1="285.2875" y2="285.2875"/><text fill="#000000" font-family="sans-serif" font-size="10.4" font-weight="bold" lengthAdjust="spacing" textLength="5.6" x="363.6" y="281.0773">7</text><text fill="#000000" font-family="sans-serif" font-size="10.4" lengthAdjust="spacing" textLength="88.8" x="372.4" y="281.0773">getAgendaEntries()</text><polygon fill="#181818" points="850.8,307.1203,858.8,310.3203,850.8,313.5203,854,310.3203" style="stroke:#181818;stroke-width:0.8000000000000002;"/><line style="stroke:#181818;stroke-width:0.8000000000000002;" x1="571.6" x2="855.6" y1="310.3203" y2="310.3203"/><text fill="#000000" font-family="sans-serif" font-size="10.4" font-weight="bold" lengthAdjust="spacing" textLength="5.6" x="577.2" y="306.1102">8</text><text fill="#000000" font-family="sans-serif" font-size="10.4" lengthAdjust="spacing" textLength="88.8" x="586" y="306.1102">getAgendaEntries()</text><polygon fill="#181818" points="580.4,332.1531,572.4,335.3531,580.4,338.5531,577.2,335.3531" style="stroke:#181818;stroke-width:0.8000000000000002;"/><line style="stroke:#181818;stroke-width:0.8000000000000002;" x1="575.6" x2="863.6" y1="335.3531" y2="335.3531"/><text fill="#000000" font-family="sans-serif" font-size="10.4" font-weight="bold" lengthAdjust="spacing" textLength="5.6" x="585.2" y="331.143">9</text><text fill="#000000" font-family="sans-serif" font-size="10.4" lengthAdjust="spacing" textLength="83.2" x="594" y="331.143">agendaEntriesList</text><polygon fill="#181818" points="362.8,357.1859,354.8,360.3859,362.8,363.5859,359.6,360.3859" style="stroke:#181818;stroke-width:0.8000000000000002;"/><line style="stroke:#181818;stroke-width:0.8000000000000002;" x1="358" x2="566.8" y1="360.3859" y2="360.3859"/><text fill="#000000" font-family="sans-serif" font-size="10.4" font-weight="bold" lengthAdjust="spacing" textLength="11.2" x="367.6" y="356.1758">10</text><text fill="#000000" font-family="sans-serif" font-size="10.4" lengthAdjust="spacing" textLength="83.2" x="382" y="356.1758">agendaEntriesList</text><polygon fill="#181818" points="554,382.2188,562,385.4188,554,388.6188,557.2,385.4188" style="stroke:#181818;stroke-width:0.8000000000000002;"/><line style="stroke:#181818;stroke-width:0.8000000000000002;" x1="358" x2="558.8" y1="385.4188" y2="385.4188"/><text fill="#000000" font-family="sans-serif" font-size="10.4" font-weight="bold" lengthAdjust="spacing" textLength="11.2" x="363.6" y="381.2086">11</text><text fill="#000000" font-family="sans-serif" font-size="10.4" lengthAdjust="spacing" textLength="77.6" x="378" y="381.2086">getVehiclesList()</text><polygon fill="#181818" points="958.4,407.2516,966.4,410.4516,958.4,413.6516,961.6,410.4516" style="stroke:#181818;stroke-width:0.8000000000000002;"/><line style="stroke:#181818;stroke-width:0.8000000000000002;" x1="571.6" x2="963.2" y1="410.4516" y2="410.4516"/><text fill="#000000" font-family="sans-serif" font-size="10.4" font-weight="bold" lengthAdjust="spacing" textLength="11.2" x="577.2" y="406.2414">12</text><text fill="#000000" font-family="sans-serif" font-size="10.4" lengthAdjust="spacing" textLength="77.6" x="591.6" y="406.2414">getVehiclesList()</text><polygon fill="#181818" points="580.4,432.2844,572.4,435.4844,580.4,438.6844,577.2,435.4844" style="stroke:#181818;stroke-width:0.8000000000000002;"/><line style="stroke:#181818;stroke-width:0.8000000000000002;" x1="575.6" x2="971.2" y1="435.4844" y2="435.4844"/><text fill="#000000" font-family="sans-serif" font-size="10.4" font-weight="bold" lengthAdjust="spacing" textLength="11.2" x="585.2" y="431.2742">13</text><text fill="#000000" font-family="sans-serif" font-size="10.4" lengthAdjust="spacing" textLength="53.6" x="599.6" y="431.2742">vehiclesList</text><polygon fill="#181818" points="366.8,457.3172,358.8,460.5172,366.8,463.7172,363.6,460.5172" style="stroke:#181818;stroke-width:0.8000000000000002;"/><line style="stroke:#181818;stroke-width:0.8000000000000002;" x1="362" x2="566.8" y1="460.5172" y2="460.5172"/><text fill="#000000" font-family="sans-serif" font-size="10.4" font-weight="bold" lengthAdjust="spacing" textLength="11.2" x="371.6" y="456.307">14</text><text fill="#000000" font-family="sans-serif" font-size="10.4" lengthAdjust="spacing" textLength="53.6" x="386" y="456.307">vehiclesList</text><polygon fill="#181818" points="43.6,482.35,35.6,485.55,43.6,488.75,40.4,485.55" style="stroke:#181818;stroke-width:0.8000000000000002;"/><line style="stroke:#181818;stroke-width:0.8000000000000002;stroke-dasharray:2.0,2.0;" x1="38.8" x2="353.2" y1="485.55" y2="485.55"/><text fill="#000000" font-family="sans-serif" font-size="10.4" font-weight="bold" lengthAdjust="spacing" textLength="11.2" x="48.4" y="481.3398">15</text><text fill="#000000" font-family="sans-serif" font-size="10.4" lengthAdjust="spacing" textLength="256" x="62.8" y="481.3398">shows the entries in the agenda and asks to select one</text><polygon fill="#181818" points="340.4,507.3828,348.4,510.5828,340.4,513.7828,343.6,510.5828" style="stroke:#181818;stroke-width:0.8000000000000002;"/><line style="stroke:#181818;stroke-width:0.8000000000000002;" x1="34.8" x2="345.2" y1="510.5828" y2="510.5828"/><text fill="#000000" font-family="sans-serif" font-size="10.4" font-weight="bold" lengthAdjust="spacing" textLength="11.2" x="40.4" y="506.3727">16</text><text fill="#000000" font-family="sans-serif" font-size="10.4" lengthAdjust="spacing" textLength="72" x="54.8" y="506.3727">select the entry</text><path d="M8,522.5828 L66.4,522.5828 L66.4,530.0156 L58.4,538.0156 L8,538.0156 L8,522.5828 " fill="#EEEEEE" style="stroke:#000000;stroke-width:1.2000000000000002;"/><rect fill="none" height="65.4984" style="stroke:#000000;stroke-width:1.2000000000000002;" width="404" x="8" y="522.5828"/><text fill="#000000" font-family="sans-serif" font-size="10.4" font-weight="bold" lengthAdjust="spacing" textLength="22.4" x="20" y="534.6055">loop</text><polygon fill="#181818" points="43.6,553.4484,35.6,556.6484,43.6,559.8484,40.4,556.6484" style="stroke:#181818;stroke-width:0.8000000000000002;"/><line style="stroke:#181818;stroke-width:0.8000000000000002;stroke-dasharray:2.0,2.0;" x1="38.8" x2="353.2" y1="556.6484" y2="556.6484"/><text fill="#000000" font-family="sans-serif" font-size="10.4" font-weight="bold" lengthAdjust="spacing" textLength="11.2" x="48.4" y="552.4383">17</text><text fill="#000000" font-family="sans-serif" font-size="10.4" lengthAdjust="spacing" textLength="216.8" x="62.8" y="552.4383">shows vehicles and asks to select one or more</text><polygon fill="#181818" points="340.4,578.4813,348.4,581.6813,340.4,584.8813,343.6,581.6813" style="stroke:#181818;stroke-width:0.8000000000000002;"/><line style="stroke:#181818;stroke-width:0.8000000000000002;" x1="34.8" x2="345.2" y1="581.6813" y2="581.6813"/><text fill="#000000" font-family="sans-serif" font-size="10.4" font-weight="bold" lengthAdjust="spacing" textLength="11.2" x="40.4" y="577.4711">18</text><text fill="#000000" font-family="sans-serif" font-size="10.4" lengthAdjust="spacing" textLength="73.6" x="54.8" y="577.4711">selects vehicles</text><polygon fill="#181818" points="43.6,609.1141,35.6,612.3141,43.6,615.5141,40.4,612.3141" style="stroke:#181818;stroke-width:0.8000000000000002;"/><line style="stroke:#181818;stroke-width:0.8000000000000002;stroke-dasharray:2.0,2.0;" x1="38.8" x2="353.2" y1="612.3141" y2="612.3141"/><text fill="#000000" font-family="sans-serif" font-size="10.4" font-weight="bold" lengthAdjust="spacing" textLength="11.2" x="48.4" y="608.1039">19</text><text fill="#000000" font-family="sans-serif" font-size="10.4" lengthAdjust="spacing" textLength="188.8" x="62.8" y="608.1039">shows all data and requests confirmation</text><polygon fill="#181818" points="340.4,634.1469,348.4,637.3469,340.4,640.5469,343.6,637.3469" style="stroke:#181818;stroke-width:0.8000000000000002;"/><line style="stroke:#181818;stroke-width:0.8000000000000002;" x1="34.8" x2="345.2" y1="637.3469" y2="637.3469"/><text fill="#000000" font-family="sans-serif" font-size="10.4" font-weight="bold" lengthAdjust="spacing" textLength="11.2" x="40.4" y="633.1367">20</text><text fill="#000000" font-family="sans-serif" font-size="10.4" lengthAdjust="spacing" textLength="39.2" x="54.8" y="633.1367">confirms</text><polygon fill="#181818" points="554,659.1797,562,662.3797,554,665.5797,557.2,662.3797" style="stroke:#181818;stroke-width:0.8000000000000002;"/><line style="stroke:#181818;stroke-width:0.8000000000000002;" x1="354" x2="558.8" y1="662.3797" y2="662.3797"/><text fill="#000000" font-family="sans-serif" font-size="10.4" font-weight="bold" lengthAdjust="spacing" textLength="11.2" x="359.6" y="658.1695">21</text><text fill="#000000" font-family="sans-serif" font-size="10.4" lengthAdjust="spacing" textLength="176" x="374" y="658.1695">assignVehicles(Vehicles[], toDoEntry)</text><polygon fill="#181818" points="1072.4,684.2125,1080.4,687.4125,1072.4,690.6125,1075.6,687.4125" style="stroke:#181818;stroke-width:0.8000000000000002;"/><line style="stroke:#181818;stroke-width:0.8000000000000002;" x1="571.6" x2="1077.2" y1="687.4125" y2="687.4125"/><text fill="#000000" font-family="sans-serif" font-size="10.4" font-weight="bold" lengthAdjust="spacing" textLength="11.2" x="577.2" y="683.2023">22</text><text fill="#000000" font-family="sans-serif" font-size="10.4" lengthAdjust="spacing" textLength="176" x="591.6" y="683.2023">assignVehicles(Vehicles[], toDoEntry)</text><polygon fill="#181818" points="580.4,709.2453,572.4,712.4453,580.4,715.6453,577.2,712.4453" style="stroke:#181818;stroke-width:0.8000000000000002;"/><line style="stroke:#181818;stroke-width:0.8000000000000002;stroke-dasharray:2.0,2.0;" x1="575.6" x2="1085.2" y1="712.4453" y2="712.4453"/><text fill="#000000" font-family="sans-serif" font-size="10.4" font-weight="bold" lengthAdjust="spacing" textLength="11.2" x="585.2" y="708.2352">23</text><text fill="#000000" font-family="sans-serif" font-size="10.4" lengthAdjust="spacing" textLength="39.2" x="599.6" y="708.2352">success</text><polygon fill="#181818" points="366.8,734.2781,358.8,737.4781,366.8,740.6781,363.6,737.4781" style="stroke:#181818;stroke-width:0.8000000000000002;"/><line style="stroke:#181818;stroke-width:0.8000000000000002;stroke-dasharray:2.0,2.0;" x1="362" x2="566.8" y1="737.4781" y2="737.4781"/><text fill="#000000" font-family="sans-serif" font-size="10.4" font-weight="bold" lengthAdjust="spacing" textLength="11.2" x="371.6" y="733.268">24</text><text fill="#000000" font-family="sans-serif" font-size="10.4" lengthAdjust="spacing" textLength="39.2" x="386" y="733.268">success</text><polygon fill="#181818" points="39.6,759.3109,31.6,762.5109,39.6,765.7109,36.4,762.5109" style="stroke:#181818;stroke-width:0.8000000000000002;"/><line style="stroke:#181818;stroke-width:0.8000000000000002;stroke-dasharray:2.0,2.0;" x1="34.8" x2="353.2" y1="762.5109" y2="762.5109"/><text fill="#000000" font-family="sans-serif" font-size="10.4" font-weight="bold" lengthAdjust="spacing" textLength="11.2" x="44.4" y="758.3008">25</text><text fill="#000000" font-family="sans-serif" font-size="10.4" lengthAdjust="spacing" textLength="281.6" x="58.8" y="758.3008">displays success message (Vehicles assigned successfully)</text><!--SRC=[jLPDRzim3BtxLn0zfSK233liaCE0e1c601qmrCqkwmwQpIH2PIcJb1RvzwDaox5bEHyRfaFZIkGZ7qcHCYzSxfXc5LHAgcAhLOLWzHupqvxiMF72DfZRWq3GM5WcDw8hOBQiL6zSRc3DXC4iizoIQ7um5Yl8yVSUPO6mu6pZn2TvlhY5AQpozny-PXdRMoNtrI_Kz5rOfU7cI_xr1fW1-it8XEK5tp5fuMOsDuPlv7VSyaAWMIszs6fvKkfUIQkL4AYzzFtJuqCa_uWxPJYPvcYyJBjnoBaZInxsLNH7uraE0Ruzp9_w6aXE78wufFIvl-Frehq-n6jDw7WyUmua8vZ1RX-8iYbBrdDc7crvc7ZJ9uY_Cei-DHdGeW-OVg8Sm8nKNWnOHRyk_j3uMsz9y140Bi5kiO7s22qcvT5lk4LuXEfoTNT7o8L6acXFI-mgGRJQCv_gmR5RxiGPI2IQh6tGBgMXEYzmSflKRqsaAYMfuLRAshIXIMQxHPN4wD2-s6vWwYgofXRLs3c6lfH7ANdO3eUepC_HE07UaKhdiLy4YSgfwTQLvaXJM1Da_w6IGcoZY5vfDxxp0yaO_aYFTMqyS6DF1UcidK2dlilNGFlm_6L-GfjsDlvFUWRTy3h3msOwa1rQE59yxPWv5QCBpFGIT2dkCJOkygJjElQCXhPwCxuLOvtZq9dhn5F3Bjj-Rb3Gs0SbnphmO18q6W7-a6xqGgdTg6ljz4Xx0lHGg9IkFJhbJN3cY9XsXbYVTeW90IMpTMYqUzKO0YsKN7DTCSkf0v_tfH4tbqm-Fr6xBvb9-FZnynr5Ow7ybRuzCnP7RaaefdZ8NssrnHy-5uB8m4QO61JRVL6WCIaEutYrxssnZKFq6jCWtBqabzpi13kO00SL_Q7B02t_9YvO1f7rNeWc457ME_-wbz8V]--></g></svg>