<?xml version="1.0" encoding="UTF-8" standalone="no"?><svg xmlns="http://www.w3.org/2000/svg" xmlns:xlink="http://www.w3.org/1999/xlink" contentStyleType="text/css" height="257px" preserveAspectRatio="none" style="width:900px;height:257px;background:#FFFFFF;" version="1.1" viewBox="0 0 900 257" width="900px" zoomAndPan="magnify"><defs/><g><!--class HRM--><g id="elem_HRM"><rect codeLine="5" fill="#F1F1F1" height="48" id="HRM" rx="2.5" ry="2.5" style="stroke:#181818;stroke-width:0.5;" width="62" x="100" y="24.5"/><ellipse cx="115" cy="40.5" fill="#ADD1B2" rx="11" ry="11" style="stroke:#181818;stroke-width:1.0;"/><path d="M117.7656,36.375 Q117.9219,36.1563 118.1094,36.0469 Q118.2969,35.9375 118.5156,35.9375 Q118.8906,35.9375 119.125,36.2031 Q119.3594,36.4531 119.3594,37.0625 L119.3594,38.5156 Q119.3594,39.125 119.125,39.3906 Q118.8906,39.6563 118.5156,39.6563 Q118.1719,39.6563 117.9688,39.4531 Q117.7656,39.2656 117.6563,38.75 Q117.6094,38.3906 117.4219,38.2031 Q117.0938,37.8281 116.4844,37.6094 Q115.875,37.3906 115.25,37.3906 Q114.4844,37.3906 113.8438,37.7188 Q113.2188,38.0469 112.7188,38.7969 Q112.2344,39.5469 112.2344,40.5781 L112.2344,41.6719 Q112.2344,42.9063 113.125,43.7344 Q114.0156,44.5469 115.6094,44.5469 Q116.5469,44.5469 117.2031,44.2969 Q117.5938,44.1406 118.0156,43.7031 Q118.2813,43.4375 118.4219,43.3594 Q118.5781,43.2813 118.7813,43.2813 Q119.1094,43.2813 119.3594,43.5469 Q119.625,43.7969 119.625,44.1406 Q119.625,44.4844 119.2813,44.8906 Q118.7813,45.4688 117.9844,45.7969 Q116.9063,46.25 115.6094,46.25 Q114.0938,46.25 112.8906,45.625 Q111.9063,45.125 111.2188,44.0625 Q110.5313,42.9844 110.5313,41.7031 L110.5313,40.5469 Q110.5313,39.2188 111.1406,38.0781 Q111.7656,36.9219 112.8594,36.3125 Q113.9531,35.6875 115.1875,35.6875 Q115.9219,35.6875 116.5625,35.8594 Q117.2188,36.0156 117.7656,36.375 Z " fill="#000000"/><text fill="#000000" font-family="sans-serif" font-size="14" lengthAdjust="spacing" textLength="30" x="129" y="46.2285">HRM</text><line style="stroke:#181818;stroke-width:0.5;" x1="101" x2="161" y1="56.5" y2="56.5"/><line style="stroke:#181818;stroke-width:0.5;" x1="101" x2="161" y1="64.5" y2="64.5"/></g><!--class CreateJobUI--><g id="elem_CreateJobUI"><rect codeLine="8" fill="#F1F1F1" height="48" id="CreateJobUI" rx="2.5" ry="2.5" style="stroke:#181818;stroke-width:0.5;" width="109" x="197.5" y="24.5"/><ellipse cx="212.5" cy="40.5" fill="#ADD1B2" rx="11" ry="11" style="stroke:#181818;stroke-width:1.0;"/><path d="M215.2656,36.375 Q215.4219,36.1563 215.6094,36.0469 Q215.7969,35.9375 216.0156,35.9375 Q216.3906,35.9375 216.625,36.2031 Q216.8594,36.4531 216.8594,37.0625 L216.8594,38.5156 Q216.8594,39.125 216.625,39.3906 Q216.3906,39.6563 216.0156,39.6563 Q215.6719,39.6563 215.4688,39.4531 Q215.2656,39.2656 215.1563,38.75 Q215.1094,38.3906 214.9219,38.2031 Q214.5938,37.8281 213.9844,37.6094 Q213.375,37.3906 212.75,37.3906 Q211.9844,37.3906 211.3438,37.7188 Q210.7188,38.0469 210.2188,38.7969 Q209.7344,39.5469 209.7344,40.5781 L209.7344,41.6719 Q209.7344,42.9063 210.625,43.7344 Q211.5156,44.5469 213.1094,44.5469 Q214.0469,44.5469 214.7031,44.2969 Q215.0938,44.1406 215.5156,43.7031 Q215.7813,43.4375 215.9219,43.3594 Q216.0781,43.2813 216.2813,43.2813 Q216.6094,43.2813 216.8594,43.5469 Q217.125,43.7969 217.125,44.1406 Q217.125,44.4844 216.7813,44.8906 Q216.2813,45.4688 215.4844,45.7969 Q214.4063,46.25 213.1094,46.25 Q211.5938,46.25 210.3906,45.625 Q209.4063,45.125 208.7188,44.0625 Q208.0313,42.9844 208.0313,41.7031 L208.0313,40.5469 Q208.0313,39.2188 208.6406,38.0781 Q209.2656,36.9219 210.3594,36.3125 Q211.4531,35.6875 212.6875,35.6875 Q213.4219,35.6875 214.0625,35.8594 Q214.7188,36.0156 215.2656,36.375 Z " fill="#000000"/><text fill="#000000" font-family="sans-serif" font-size="14" lengthAdjust="spacing" textLength="77" x="226.5" y="46.2285">CreateJobUI</text><line style="stroke:#181818;stroke-width:0.5;" x1="198.5" x2="305.5" y1="56.5" y2="56.5"/><line style="stroke:#181818;stroke-width:0.5;" x1="198.5" x2="305.5" y1="64.5" y2="64.5"/></g><!--class CreateJobController--><g id="elem_CreateJobController"><rect codeLine="12" fill="#F1F1F1" height="83.2188" id="CreateJobController" rx="2.5" ry="2.5" style="stroke:#181818;stroke-width:0.5;" width="325" x="341.5" y="7"/><ellipse cx="436.25" cy="23" fill="#ADD1B2" rx="11" ry="11" style="stroke:#181818;stroke-width:1.0;"/><path d="M439.0156,18.875 Q439.1719,18.6563 439.3594,18.5469 Q439.5469,18.4375 439.7656,18.4375 Q440.1406,18.4375 440.375,18.7031 Q440.6094,18.9531 440.6094,19.5625 L440.6094,21.0156 Q440.6094,21.625 440.375,21.8906 Q440.1406,22.1563 439.7656,22.1563 Q439.4219,22.1563 439.2188,21.9531 Q439.0156,21.7656 438.9063,21.25 Q438.8594,20.8906 438.6719,20.7031 Q438.3438,20.3281 437.7344,20.1094 Q437.125,19.8906 436.5,19.8906 Q435.7344,19.8906 435.0938,20.2188 Q434.4688,20.5469 433.9688,21.2969 Q433.4844,22.0469 433.4844,23.0781 L433.4844,24.1719 Q433.4844,25.4063 434.375,26.2344 Q435.2656,27.0469 436.8594,27.0469 Q437.7969,27.0469 438.4531,26.7969 Q438.8438,26.6406 439.2656,26.2031 Q439.5313,25.9375 439.6719,25.8594 Q439.8281,25.7813 440.0313,25.7813 Q440.3594,25.7813 440.6094,26.0469 Q440.875,26.2969 440.875,26.6406 Q440.875,26.9844 440.5313,27.3906 Q440.0313,27.9688 439.2344,28.2969 Q438.1563,28.75 436.8594,28.75 Q435.3438,28.75 434.1406,28.125 Q433.1563,27.625 432.4688,26.5625 Q431.7813,25.4844 431.7813,24.2031 L431.7813,23.0469 Q431.7813,21.7188 432.3906,20.5781 Q433.0156,19.4219 434.1094,18.8125 Q435.2031,18.1875 436.4375,18.1875 Q437.1719,18.1875 437.8125,18.3594 Q438.4688,18.5156 439.0156,18.875 Z " fill="#000000"/><text fill="#000000" font-family="sans-serif" font-size="14" lengthAdjust="spacing" textLength="127" x="456.75" y="28.7285">CreateJobController</text><line style="stroke:#181818;stroke-width:0.5;" x1="342.5" x2="665.5" y1="39" y2="39"/><line style="stroke:#181818;stroke-width:0.5;" x1="342.5" x2="665.5" y1="47" y2="47"/><ellipse cx="352.5" cy="61.3047" fill="#84BE84" rx="3" ry="3" style="stroke:#038048;stroke-width:1.0;"/><text fill="#000000" font-family="sans-serif" font-size="14" lengthAdjust="spacing" textLength="299" x="361.5" y="65.5332">createJob(title: String, description: String) : void</text><ellipse cx="352.5" cy="78.9141" fill="#84BE84" rx="3" ry="3" style="stroke:#038048;stroke-width:1.0;"/><text fill="#000000" font-family="sans-serif" font-size="14" lengthAdjust="spacing" textLength="174" x="361.5" y="83.1426">getInstance() : Repositories</text></g><!--class Repositories--><g id="elem_Repositories"><rect codeLine="17" fill="#F1F1F1" height="65.6094" id="Repositories" rx="2.5" ry="2.5" style="stroke:#181818;stroke-width:0.5;" width="248" x="7" y="167.5"/><ellipse cx="87.25" cy="183.5" fill="#ADD1B2" rx="11" ry="11" style="stroke:#181818;stroke-width:1.0;"/><path d="M90.0156,179.375 Q90.1719,179.1563 90.3594,179.0469 Q90.5469,178.9375 90.7656,178.9375 Q91.1406,178.9375 91.375,179.2031 Q91.6094,179.4531 91.6094,180.0625 L91.6094,181.5156 Q91.6094,182.125 91.375,182.3906 Q91.1406,182.6563 90.7656,182.6563 Q90.4219,182.6563 90.2188,182.4531 Q90.0156,182.2656 89.9063,181.75 Q89.8594,181.3906 89.6719,181.2031 Q89.3438,180.8281 88.7344,180.6094 Q88.125,180.3906 87.5,180.3906 Q86.7344,180.3906 86.0938,180.7188 Q85.4688,181.0469 84.9688,181.7969 Q84.4844,182.5469 84.4844,183.5781 L84.4844,184.6719 Q84.4844,185.9063 85.375,186.7344 Q86.2656,187.5469 87.8594,187.5469 Q88.7969,187.5469 89.4531,187.2969 Q89.8438,187.1406 90.2656,186.7031 Q90.5313,186.4375 90.6719,186.3594 Q90.8281,186.2813 91.0313,186.2813 Q91.3594,186.2813 91.6094,186.5469 Q91.875,186.7969 91.875,187.1406 Q91.875,187.4844 91.5313,187.8906 Q91.0313,188.4688 90.2344,188.7969 Q89.1563,189.25 87.8594,189.25 Q86.3438,189.25 85.1406,188.625 Q84.1563,188.125 83.4688,187.0625 Q82.7813,185.9844 82.7813,184.7031 L82.7813,183.5469 Q82.7813,182.2188 83.3906,181.0781 Q84.0156,179.9219 85.1094,179.3125 Q86.2031,178.6875 87.4375,178.6875 Q88.1719,178.6875 88.8125,178.8594 Q89.4688,179.0156 90.0156,179.375 Z " fill="#000000"/><text fill="#000000" font-family="sans-serif" font-size="14" lengthAdjust="spacing" textLength="79" x="107.75" y="189.2285">Repositories</text><line style="stroke:#181818;stroke-width:0.5;" x1="8" x2="254" y1="199.5" y2="199.5"/><line style="stroke:#181818;stroke-width:0.5;" x1="8" x2="254" y1="207.5" y2="207.5"/><ellipse cx="18" cy="221.8047" fill="#84BE84" rx="3" ry="3" style="stroke:#038048;stroke-width:1.0;"/><text fill="#000000" font-family="sans-serif" font-size="14" lengthAdjust="spacing" textLength="222" x="27" y="226.0332">getJobRepository() : JobRepository</text></g><!--class JobRepository--><g id="elem_JobRepository"><rect codeLine="21" fill="#F1F1F1" height="100.8281" id="JobRepository" rx="2.5" ry="2.5" style="stroke:#181818;stroke-width:0.5;" width="321" x="290.5" y="150"/><ellipse cx="401.75" cy="166" fill="#ADD1B2" rx="11" ry="11" style="stroke:#181818;stroke-width:1.0;"/><path d="M404.5156,161.875 Q404.6719,161.6563 404.8594,161.5469 Q405.0469,161.4375 405.2656,161.4375 Q405.6406,161.4375 405.875,161.7031 Q406.1094,161.9531 406.1094,162.5625 L406.1094,164.0156 Q406.1094,164.625 405.875,164.8906 Q405.6406,165.1563 405.2656,165.1563 Q404.9219,165.1563 404.7188,164.9531 Q404.5156,164.7656 404.4063,164.25 Q404.3594,163.8906 404.1719,163.7031 Q403.8438,163.3281 403.2344,163.1094 Q402.625,162.8906 402,162.8906 Q401.2344,162.8906 400.5938,163.2188 Q399.9688,163.5469 399.4688,164.2969 Q398.9844,165.0469 398.9844,166.0781 L398.9844,167.1719 Q398.9844,168.4063 399.875,169.2344 Q400.7656,170.0469 402.3594,170.0469 Q403.2969,170.0469 403.9531,169.7969 Q404.3438,169.6406 404.7656,169.2031 Q405.0313,168.9375 405.1719,168.8594 Q405.3281,168.7813 405.5313,168.7813 Q405.8594,168.7813 406.1094,169.0469 Q406.375,169.2969 406.375,169.6406 Q406.375,169.9844 406.0313,170.3906 Q405.5313,170.9688 404.7344,171.2969 Q403.6563,171.75 402.3594,171.75 Q400.8438,171.75 399.6406,171.125 Q398.6563,170.625 397.9688,169.5625 Q397.2813,168.4844 397.2813,167.2031 L397.2813,166.0469 Q397.2813,164.7188 397.8906,163.5781 Q398.5156,162.4219 399.6094,161.8125 Q400.7031,161.1875 401.9375,161.1875 Q402.6719,161.1875 403.3125,161.3594 Q403.9688,161.5156 404.5156,161.875 Z " fill="#000000"/><text fill="#000000" font-family="sans-serif" font-size="14" lengthAdjust="spacing" textLength="90" x="422.25" y="171.7285">JobRepository</text><line style="stroke:#181818;stroke-width:0.5;" x1="291.5" x2="610.5" y1="182" y2="182"/><line style="stroke:#181818;stroke-width:0.5;" x1="291.5" x2="610.5" y1="190" y2="190"/><ellipse cx="301.5" cy="204.3047" fill="#84BE84" rx="3" ry="3" style="stroke:#038048;stroke-width:1.0;"/><text fill="#000000" font-family="sans-serif" font-size="14" lengthAdjust="spacing" textLength="295" x="310.5" y="208.5332">createJob(title: String, description: String) : Job</text><ellipse cx="301.5" cy="221.9141" fill="#84BE84" rx="3" ry="3" style="stroke:#038048;stroke-width:1.0;"/><text fill="#000000" font-family="sans-serif" font-size="14" lengthAdjust="spacing" textLength="165" x="310.5" y="226.1426">verifyFilled(job: Job) : void</text><ellipse cx="301.5" cy="239.5234" fill="#84BE84" rx="3" ry="3" style="stroke:#038048;stroke-width:1.0;"/><text fill="#000000" font-family="sans-serif" font-size="14" lengthAdjust="spacing" textLength="247" x="310.5" y="243.752">verifySpecialCharacters(job: Job) : void</text></g><!--class Job--><g id="elem_Job"><rect codeLine="27" fill="#F1F1F1" height="100.8281" id="Job" rx="2.5" ry="2.5" style="stroke:#181818;stroke-width:0.5;" width="247" x="646.5" y="150"/><ellipse cx="754.75" cy="166" fill="#ADD1B2" rx="11" ry="11" style="stroke:#181818;stroke-width:1.0;"/><path d="M757.5156,161.875 Q757.6719,161.6563 757.8594,161.5469 Q758.0469,161.4375 758.2656,161.4375 Q758.6406,161.4375 758.875,161.7031 Q759.1094,161.9531 759.1094,162.5625 L759.1094,164.0156 Q759.1094,164.625 758.875,164.8906 Q758.6406,165.1563 758.2656,165.1563 Q757.9219,165.1563 757.7188,164.9531 Q757.5156,164.7656 757.4063,164.25 Q757.3594,163.8906 757.1719,163.7031 Q756.8438,163.3281 756.2344,163.1094 Q755.625,162.8906 755,162.8906 Q754.2344,162.8906 753.5938,163.2188 Q752.9688,163.5469 752.4688,164.2969 Q751.9844,165.0469 751.9844,166.0781 L751.9844,167.1719 Q751.9844,168.4063 752.875,169.2344 Q753.7656,170.0469 755.3594,170.0469 Q756.2969,170.0469 756.9531,169.7969 Q757.3438,169.6406 757.7656,169.2031 Q758.0313,168.9375 758.1719,168.8594 Q758.3281,168.7813 758.5313,168.7813 Q758.8594,168.7813 759.1094,169.0469 Q759.375,169.2969 759.375,169.6406 Q759.375,169.9844 759.0313,170.3906 Q758.5313,170.9688 757.7344,171.2969 Q756.6563,171.75 755.3594,171.75 Q753.8438,171.75 752.6406,171.125 Q751.6563,170.625 750.9688,169.5625 Q750.2813,168.4844 750.2813,167.2031 L750.2813,166.0469 Q750.2813,164.7188 750.8906,163.5781 Q751.5156,162.4219 752.6094,161.8125 Q753.7031,161.1875 754.9375,161.1875 Q755.6719,161.1875 756.3125,161.3594 Q756.9688,161.5156 757.5156,161.875 Z " fill="#000000"/><text fill="#000000" font-family="sans-serif" font-size="14" lengthAdjust="spacing" textLength="22" x="775.25" y="171.7285">Job</text><line style="stroke:#181818;stroke-width:0.5;" x1="647.5" x2="892.5" y1="182" y2="182"/><rect fill="none" height="6" style="stroke:#C82930;stroke-width:1.0;" width="6" x="654.5" y="193.3047"/><text fill="#000000" font-family="sans-serif" font-size="14" lengthAdjust="spacing" textLength="67" x="666.5" y="200.5332">title: String</text><rect fill="none" height="6" style="stroke:#C82930;stroke-width:1.0;" width="6" x="654.5" y="210.9141"/><text fill="#000000" font-family="sans-serif" font-size="14" lengthAdjust="spacing" textLength="114" x="666.5" y="218.1426">description: String</text><line style="stroke:#181818;stroke-width:0.5;" x1="647.5" x2="892.5" y1="225.2188" y2="225.2188"/><ellipse cx="657.5" cy="239.5234" fill="#84BE84" rx="3" ry="3" style="stroke:#038048;stroke-width:1.0;"/><text fill="#000000" font-family="sans-serif" font-size="14" lengthAdjust="spacing" textLength="221" x="666.5" y="243.752">Job(title: String, description: String)</text></g><!--SRC=[dL1BJiD03Dtd55wc0YxGRIH4aTWquW3kn4rDXvdHs2eQLTmTjsdQH7I1yCxle_TisND8cF4J4hezzjHgyGIPd6BeFLLo5SWEk_Z5eOSjUfaodWDfIGGf-d9Qgifv586NzHiSg-znRJAXqclSlAyCleCtCMYEtbCs7cmUt4ZLokff2Qrcg_087OdBd9HZ6C45BE4GkHkSFUagY5tXg3unQqfHM6Dcablq51qppMc1LwQSxJFavf_1_orjoi5ueCpRyipsWQx-Y9ipDJzhaBI97ADlTlP_fvJbjtfQyLBi2MPzBjYTKaCK_F42Y_e1]--></g></svg>