<?xml version="1.0" encoding="UTF-8" standalone="no"?><svg xmlns="http://www.w3.org/2000/svg" xmlns:xlink="http://www.w3.org/1999/xlink" contentStyleType="text/css" height="456px" preserveAspectRatio="none" style="width:446px;height:456px;background:#FFFFFF;" version="1.1" viewBox="0 0 446 456" width="446px" zoomAndPan="magnify"><defs/><g><rect fill="#FFFFFF" height="296.8125" style="stroke:#181818;stroke-width:1.0;" width="10" x="198" y="87.5703"/><rect fill="#FFFFFF" height="252.4609" style="stroke:#181818;stroke-width:1.0;" width="10" x="198" y="87.5703"/><rect fill="#FFFFFF" height="128.0547" style="stroke:#181818;stroke-width:1.0;" width="10" x="203" y="211.9766"/><rect fill="#FFFFFF" height="41.3516" style="stroke:#181818;stroke-width:1.0;" width="10" x="208" y="255.3281"/><rect fill="#FFFFFF" height="30.3516" style="stroke:#181818;stroke-width:1.0;" width="10" x="405" y="143.2734"/><rect fill="none" height="252.4609" style="stroke:#000000;stroke-width:1.5;" width="304.5" x="135.5" y="102.5703"/><line style="stroke:#181818;stroke-width:0.5;stroke-dasharray:5.0,5.0;" x1="197.5" x2="197.5" y1="55.2188" y2="402.3828"/><line style="stroke:#181818;stroke-width:0.5;stroke-dasharray:5.0,5.0;" x1="410" x2="410" y1="55.2188" y2="402.3828"/><rect fill="#E3E3E3" height="49.2188" rx="2.5" ry="2.5" style="stroke:#181818;stroke-width:0.5;" width="105" x="145.5" y="5"/><text fill="#000000" font-family="sans-serif" font-size="14" lengthAdjust="spacing" textLength="91" x="152.5" y="26.5332">jobRepository:</text><text fill="#000000" font-family="sans-serif" font-size="14" lengthAdjust="spacing" textLength="90" x="153" y="44.1426">JobRepository</text><rect fill="#E3E3E3" height="49.2188" rx="2.5" ry="2.5" style="stroke:#181818;stroke-width:0.5;" width="105" x="145.5" y="401.3828"/><text fill="#000000" font-family="sans-serif" font-size="14" lengthAdjust="spacing" textLength="91" x="152.5" y="422.916">jobRepository:</text><text fill="#000000" font-family="sans-serif" font-size="14" lengthAdjust="spacing" textLength="90" x="153" y="440.5254">JobRepository</text><rect fill="#E3E3E3" height="31.6094" rx="2.5" ry="2.5" style="stroke:#181818;stroke-width:0.5;" width="40" x="390" y="22.6094"/><text fill="#000000" font-family="sans-serif" font-size="14" lengthAdjust="spacing" textLength="26" x="397" y="44.1426">:Job</text><rect fill="#E3E3E3" height="31.6094" rx="2.5" ry="2.5" style="stroke:#181818;stroke-width:0.5;" width="40" x="390" y="401.3828"/><text fill="#000000" font-family="sans-serif" font-size="14" lengthAdjust="spacing" textLength="26" x="397" y="422.916">:Job</text><rect fill="#FFFFFF" height="296.8125" style="stroke:#181818;stroke-width:1.0;" width="10" x="198" y="87.5703"/><rect fill="#FFFFFF" height="252.4609" style="stroke:#181818;stroke-width:1.0;" width="10" x="198" y="87.5703"/><rect fill="#FFFFFF" height="128.0547" style="stroke:#181818;stroke-width:1.0;" width="10" x="203" y="211.9766"/><rect fill="#FFFFFF" height="41.3516" style="stroke:#181818;stroke-width:1.0;" width="10" x="208" y="255.3281"/><rect fill="#FFFFFF" height="30.3516" style="stroke:#181818;stroke-width:1.0;" width="10" x="405" y="143.2734"/><polygon fill="#181818" points="181,83.5703,191,87.5703,181,91.5703,185,87.5703" style="stroke:#181818;stroke-width:1.0;"/><line style="stroke:#181818;stroke-width:1.0;" x1="0" x2="187" y1="87.5703" y2="87.5703"/><text fill="#000000" font-family="sans-serif" font-size="13" font-weight="bold" lengthAdjust="spacing" textLength="14" x="7" y="82.7139">12</text><text fill="#000000" font-family="sans-serif" font-size="13" lengthAdjust="spacing" textLength="156" x="25" y="82.7139">createJob(title, description)</text><path d="M135.5,102.5703 L249.5,102.5703 L249.5,110.9219 L239.5,120.9219 L135.5,120.9219 L135.5,102.5703 " fill="#EEEEEE" style="stroke:#000000;stroke-width:1.5;"/><rect fill="none" height="252.4609" style="stroke:#000000;stroke-width:1.5;" width="304.5" x="135.5" y="102.5703"/><text fill="#000000" font-family="sans-serif" font-size="13" font-weight="bold" lengthAdjust="spacing" textLength="69" x="150.5" y="117.0654">Create Job</text><polygon fill="#181818" points="393,139.2734,403,143.2734,393,147.2734,397,143.2734" style="stroke:#181818;stroke-width:1.0;"/><line style="stroke:#181818;stroke-width:1.0;" x1="208" x2="399" y1="143.2734" y2="143.2734"/><text fill="#000000" font-family="sans-serif" font-size="13" font-weight="bold" lengthAdjust="spacing" textLength="14" x="215" y="138.417">13</text><text fill="#000000" font-family="sans-serif" font-size="13" lengthAdjust="spacing" textLength="136" x="233" y="138.417">create(title, description)</text><polygon fill="#181818" points="219,169.625,209,173.625,219,177.625,215,173.625" style="stroke:#181818;stroke-width:1.0;"/><line style="stroke:#181818;stroke-width:1.0;stroke-dasharray:2.0,2.0;" x1="213" x2="409" y1="173.625" y2="173.625"/><text fill="#000000" font-family="sans-serif" font-size="13" font-weight="bold" lengthAdjust="spacing" textLength="14" x="225" y="168.7686">14</text><text fill="#000000" font-family="sans-serif" font-size="13" lengthAdjust="spacing" textLength="17" x="243" y="168.7686">job</text><line style="stroke:#181818;stroke-width:1.0;" x1="208" x2="255" y1="198.9766" y2="198.9766"/><line style="stroke:#181818;stroke-width:1.0;" x1="255" x2="255" y1="198.9766" y2="211.9766"/><line style="stroke:#181818;stroke-width:1.0;" x1="214" x2="255" y1="211.9766" y2="211.9766"/><polygon fill="#181818" points="224,207.9766,214,211.9766,224,215.9766,220,211.9766" style="stroke:#181818;stroke-width:1.0;"/><text fill="#000000" font-family="sans-serif" font-size="13" font-weight="bold" lengthAdjust="spacing" textLength="14" x="220" y="194.1201">15</text><text fill="#000000" font-family="sans-serif" font-size="13" lengthAdjust="spacing" textLength="85" x="238" y="194.1201">verifyFilled(job)</text><line style="stroke:#181818;stroke-width:1.0;" x1="213" x2="260" y1="242.3281" y2="242.3281"/><line style="stroke:#181818;stroke-width:1.0;" x1="260" x2="260" y1="242.3281" y2="255.3281"/><line style="stroke:#181818;stroke-width:1.0;" x1="219" x2="260" y1="255.3281" y2="255.3281"/><polygon fill="#181818" points="229,251.3281,219,255.3281,229,259.3281,225,255.3281" style="stroke:#181818;stroke-width:1.0;"/><text fill="#000000" font-family="sans-serif" font-size="13" font-weight="bold" lengthAdjust="spacing" textLength="14" x="225" y="237.4717">16</text><text fill="#000000" font-family="sans-serif" font-size="13" lengthAdjust="spacing" textLength="160" x="243" y="237.4717">verifySpecialCharacters(job)</text><line style="stroke:#181818;stroke-width:1.0;stroke-dasharray:2.0,2.0;" x1="218" x2="260" y1="295.6797" y2="295.6797"/><line style="stroke:#181818;stroke-width:1.0;stroke-dasharray:2.0,2.0;" x1="260" x2="260" y1="295.6797" y2="308.6797"/><line style="stroke:#181818;stroke-width:1.0;stroke-dasharray:2.0,2.0;" x1="213" x2="260" y1="308.6797" y2="308.6797"/><polygon fill="#181818" points="223,304.6797,213,308.6797,223,312.6797,219,308.6797" style="stroke:#181818;stroke-width:1.0;"/><text fill="#000000" font-family="sans-serif" font-size="13" font-weight="bold" lengthAdjust="spacing" textLength="14" x="225" y="290.8232">17</text><text fill="#000000" font-family="sans-serif" font-size="13" lengthAdjust="spacing" textLength="4" x="243" y="290.8232"> </text><line style="stroke:#181818;stroke-width:1.0;stroke-dasharray:2.0,2.0;" x1="213" x2="255" y1="339.0313" y2="339.0313"/><line style="stroke:#181818;stroke-width:1.0;stroke-dasharray:2.0,2.0;" x1="255" x2="255" y1="339.0313" y2="352.0313"/><line style="stroke:#181818;stroke-width:1.0;stroke-dasharray:2.0,2.0;" x1="208" x2="255" y1="352.0313" y2="352.0313"/><polygon fill="#181818" points="218,348.0313,208,352.0313,218,356.0313,214,352.0313" style="stroke:#181818;stroke-width:1.0;"/><text fill="#000000" font-family="sans-serif" font-size="13" font-weight="bold" lengthAdjust="spacing" textLength="14" x="220" y="334.1748">18</text><text fill="#000000" font-family="sans-serif" font-size="13" lengthAdjust="spacing" textLength="4" x="238" y="334.1748"> </text><polygon fill="#181818" points="11,380.3828,1,384.3828,11,388.3828,7,384.3828" style="stroke:#181818;stroke-width:1.0;"/><line style="stroke:#181818;stroke-width:1.0;stroke-dasharray:2.0,2.0;" x1="5" x2="197" y1="384.3828" y2="384.3828"/><text fill="#000000" font-family="sans-serif" font-size="13" font-weight="bold" lengthAdjust="spacing" textLength="14" x="17" y="379.5264">19</text><text fill="#000000" font-family="sans-serif" font-size="13" lengthAdjust="spacing" textLength="17" x="35" y="379.5264">job</text><!--SRC=[fLAzJiCm4Dxz5ASk58aCC5Q8fH93HxgoN9nBSgtZi-nB8M-FAL0bLI9Lmfll-ptPwSW-OCGEEl5YsoWTWSQUJBeW0UqH6zhhu0WYMKNVk34XjLZ91_i6QdI9ZC5UnVTTIH4UduovQxaYg4Mqb4-JDSgM0tg5rK7ADmgIM2KEctU_6zzNW0acawbuax4_ZYbUfbJOW8s4IdcwLbP73r1Hif63ilXxWrRvbF6h1DD4wGDipzgpyn8Hyfb6_dIu9C_6mkyPkrw6t-fYPfF3Y5FHHBfOOs9meiZryChEKRNERlCzHjkD6jtYl0za6TsspH_2AiNqdv3hb8NLhmYtc2mQc4M4V6MUYsBsIHP5Nm00]--></g></svg>