<?xml version="1.0" encoding="UTF-8" standalone="no"?><svg xmlns="http://www.w3.org/2000/svg" xmlns:xlink="http://www.w3.org/1999/xlink" contentStyleType="text/css" height="225px" preserveAspectRatio="none" style="width:1479px;height:225px;background:#FFFFFF;" version="1.1" viewBox="0 0 1479 225" width="1479px" zoomAndPan="magnify"><defs/><g><!--class CreateJobUI--><g id="elem_CreateJobUI"><rect codeLine="7" fill="#F1F1F1" height="48" id="CreateJobUI" rx="2.5" ry="2.5" style="stroke:#181818;stroke-width:0.5;" width="109" x="7" y="135"/><ellipse cx="22" cy="151" fill="#ADD1B2" rx="11" ry="11" style="stroke:#181818;stroke-width:1.0;"/><path d="M24.7656,146.875 Q24.9219,146.6563 25.1094,146.5469 Q25.2969,146.4375 25.5156,146.4375 Q25.8906,146.4375 26.125,146.7031 Q26.3594,146.9531 26.3594,147.5625 L26.3594,149.0156 Q26.3594,149.625 26.125,149.8906 Q25.8906,150.1563 25.5156,150.1563 Q25.1719,150.1563 24.9688,149.9531 Q24.7656,149.7656 24.6563,149.25 Q24.6094,148.8906 24.4219,148.7031 Q24.0938,148.3281 23.4844,148.1094 Q22.875,147.8906 22.25,147.8906 Q21.4844,147.8906 20.8438,148.2188 Q20.2188,148.5469 19.7188,149.2969 Q19.2344,150.0469 19.2344,151.0781 L19.2344,152.1719 Q19.2344,153.4063 20.125,154.2344 Q21.0156,155.0469 22.6094,155.0469 Q23.5469,155.0469 24.2031,154.7969 Q24.5938,154.6406 25.0156,154.2031 Q25.2813,153.9375 25.4219,153.8594 Q25.5781,153.7813 25.7813,153.7813 Q26.1094,153.7813 26.3594,154.0469 Q26.625,154.2969 26.625,154.6406 Q26.625,154.9844 26.2813,155.3906 Q25.7813,155.9688 24.9844,156.2969 Q23.9063,156.75 22.6094,156.75 Q21.0938,156.75 19.8906,156.125 Q18.9063,155.625 18.2188,154.5625 Q17.5313,153.4844 17.5313,152.2031 L17.5313,151.0469 Q17.5313,149.7188 18.1406,148.5781 Q18.7656,147.4219 19.8594,146.8125 Q20.9531,146.1875 22.1875,146.1875 Q22.9219,146.1875 23.5625,146.3594 Q24.2188,146.5156 24.7656,146.875 Z " fill="#000000"/><text fill="#000000" font-family="sans-serif" font-size="14" lengthAdjust="spacing" textLength="77" x="36" y="156.7285">CreateJobUI</text><line style="stroke:#181818;stroke-width:0.5;" x1="8" x2="115" y1="167" y2="167"/><line style="stroke:#181818;stroke-width:0.5;" x1="8" x2="115" y1="175" y2="175"/></g><!--class CreateJobController--><g id="elem_CreateJobController"><rect codeLine="10" fill="#F1F1F1" height="83.2188" id="CreateJobController" rx="2.5" ry="2.5" style="stroke:#181818;stroke-width:0.5;" width="211" x="177" y="117.5"/><ellipse cx="215.4" cy="133.5" fill="#ADD1B2" rx="11" ry="11" style="stroke:#181818;stroke-width:1.0;"/><path d="M218.1656,129.375 Q218.3219,129.1563 218.5094,129.0469 Q218.6969,128.9375 218.9156,128.9375 Q219.2906,128.9375 219.525,129.2031 Q219.7594,129.4531 219.7594,130.0625 L219.7594,131.5156 Q219.7594,132.125 219.525,132.3906 Q219.2906,132.6563 218.9156,132.6563 Q218.5719,132.6563 218.3688,132.4531 Q218.1656,132.2656 218.0563,131.75 Q218.0094,131.3906 217.8219,131.2031 Q217.4938,130.8281 216.8844,130.6094 Q216.275,130.3906 215.65,130.3906 Q214.8844,130.3906 214.2438,130.7188 Q213.6188,131.0469 213.1188,131.7969 Q212.6344,132.5469 212.6344,133.5781 L212.6344,134.6719 Q212.6344,135.9063 213.525,136.7344 Q214.4156,137.5469 216.0094,137.5469 Q216.9469,137.5469 217.6031,137.2969 Q217.9938,137.1406 218.4156,136.7031 Q218.6813,136.4375 218.8219,136.3594 Q218.9781,136.2813 219.1813,136.2813 Q219.5094,136.2813 219.7594,136.5469 Q220.025,136.7969 220.025,137.1406 Q220.025,137.4844 219.6813,137.8906 Q219.1813,138.4688 218.3844,138.7969 Q217.3063,139.25 216.0094,139.25 Q214.4938,139.25 213.2906,138.625 Q212.3063,138.125 211.6188,137.0625 Q210.9313,135.9844 210.9313,134.7031 L210.9313,133.5469 Q210.9313,132.2188 211.5406,131.0781 Q212.1656,129.9219 213.2594,129.3125 Q214.3531,128.6875 215.5875,128.6875 Q216.3219,128.6875 216.9625,128.8594 Q217.6188,129.0156 218.1656,129.375 Z " fill="#000000"/><text fill="#000000" font-family="sans-serif" font-size="14" lengthAdjust="spacing" textLength="127" x="234.6" y="139.2285">CreateJobController</text><line style="stroke:#181818;stroke-width:0.5;" x1="178" x2="387" y1="149.5" y2="149.5"/><line style="stroke:#181818;stroke-width:0.5;" x1="178" x2="387" y1="157.5" y2="157.5"/><ellipse cx="188" cy="171.8047" fill="#84BE84" rx="3" ry="3" style="stroke:#038048;stroke-width:1.0;"/><text fill="#000000" font-family="sans-serif" font-size="14" lengthAdjust="spacing" textLength="181" x="197" y="176.0332">createJob(title : String) : void</text><ellipse cx="188" cy="189.4141" fill="#84BE84" rx="3" ry="3" style="stroke:#038048;stroke-width:1.0;"/><text fill="#000000" font-family="sans-serif" font-size="14" lengthAdjust="spacing" textLength="185" x="197" y="193.6426">getInstance() : JobRepository</text></g><!--class Repositories--><g id="elem_Repositories"><rect codeLine="15" fill="#F1F1F1" height="65.6094" id="Repositories" rx="2.5" ry="2.5" style="stroke:#181818;stroke-width:0.5;" width="248" x="517" y="69"/><ellipse cx="597.25" cy="85" fill="#ADD1B2" rx="11" ry="11" style="stroke:#181818;stroke-width:1.0;"/><path d="M600.0156,80.875 Q600.1719,80.6563 600.3594,80.5469 Q600.5469,80.4375 600.7656,80.4375 Q601.1406,80.4375 601.375,80.7031 Q601.6094,80.9531 601.6094,81.5625 L601.6094,83.0156 Q601.6094,83.625 601.375,83.8906 Q601.1406,84.1563 600.7656,84.1563 Q600.4219,84.1563 600.2188,83.9531 Q600.0156,83.7656 599.9063,83.25 Q599.8594,82.8906 599.6719,82.7031 Q599.3438,82.3281 598.7344,82.1094 Q598.125,81.8906 597.5,81.8906 Q596.7344,81.8906 596.0938,82.2188 Q595.4688,82.5469 594.9688,83.2969 Q594.4844,84.0469 594.4844,85.0781 L594.4844,86.1719 Q594.4844,87.4063 595.375,88.2344 Q596.2656,89.0469 597.8594,89.0469 Q598.7969,89.0469 599.4531,88.7969 Q599.8438,88.6406 600.2656,88.2031 Q600.5313,87.9375 600.6719,87.8594 Q600.8281,87.7813 601.0313,87.7813 Q601.3594,87.7813 601.6094,88.0469 Q601.875,88.2969 601.875,88.6406 Q601.875,88.9844 601.5313,89.3906 Q601.0313,89.9688 600.2344,90.2969 Q599.1563,90.75 597.8594,90.75 Q596.3438,90.75 595.1406,90.125 Q594.1563,89.625 593.4688,88.5625 Q592.7813,87.4844 592.7813,86.2031 L592.7813,85.0469 Q592.7813,83.7188 593.3906,82.5781 Q594.0156,81.4219 595.1094,80.8125 Q596.2031,80.1875 597.4375,80.1875 Q598.1719,80.1875 598.8125,80.3594 Q599.4688,80.5156 600.0156,80.875 Z " fill="#000000"/><text fill="#000000" font-family="sans-serif" font-size="14" lengthAdjust="spacing" textLength="79" x="617.75" y="90.7285">Repositories</text><line style="stroke:#181818;stroke-width:0.5;" x1="518" x2="764" y1="101" y2="101"/><line style="stroke:#181818;stroke-width:0.5;" x1="518" x2="764" y1="109" y2="109"/><ellipse cx="528" cy="123.3047" fill="#84BE84" rx="3" ry="3" style="stroke:#038048;stroke-width:1.0;"/><text fill="#000000" font-family="sans-serif" font-size="14" lengthAdjust="spacing" textLength="222" x="537" y="127.5332">getJobRepository() : JobRepository</text></g><!--class JobRepository--><g id="elem_JobRepository"><rect codeLine="19" fill="#F1F1F1" height="83.2188" id="JobRepository" rx="2.5" ry="2.5" style="stroke:#181818;stroke-width:0.5;" width="203" x="906" y="117.5"/><ellipse cx="958.25" cy="133.5" fill="#ADD1B2" rx="11" ry="11" style="stroke:#181818;stroke-width:1.0;"/><path d="M961.0156,129.375 Q961.1719,129.1563 961.3594,129.0469 Q961.5469,128.9375 961.7656,128.9375 Q962.1406,128.9375 962.375,129.2031 Q962.6094,129.4531 962.6094,130.0625 L962.6094,131.5156 Q962.6094,132.125 962.375,132.3906 Q962.1406,132.6563 961.7656,132.6563 Q961.4219,132.6563 961.2188,132.4531 Q961.0156,132.2656 960.9063,131.75 Q960.8594,131.3906 960.6719,131.2031 Q960.3438,130.8281 959.7344,130.6094 Q959.125,130.3906 958.5,130.3906 Q957.7344,130.3906 957.0938,130.7188 Q956.4688,131.0469 955.9688,131.7969 Q955.4844,132.5469 955.4844,133.5781 L955.4844,134.6719 Q955.4844,135.9063 956.375,136.7344 Q957.2656,137.5469 958.8594,137.5469 Q959.7969,137.5469 960.4531,137.2969 Q960.8438,137.1406 961.2656,136.7031 Q961.5313,136.4375 961.6719,136.3594 Q961.8281,136.2813 962.0313,136.2813 Q962.3594,136.2813 962.6094,136.5469 Q962.875,136.7969 962.875,137.1406 Q962.875,137.4844 962.5313,137.8906 Q962.0313,138.4688 961.2344,138.7969 Q960.1563,139.25 958.8594,139.25 Q957.3438,139.25 956.1406,138.625 Q955.1563,138.125 954.4688,137.0625 Q953.7813,135.9844 953.7813,134.7031 L953.7813,133.5469 Q953.7813,132.2188 954.3906,131.0781 Q955.0156,129.9219 956.1094,129.3125 Q957.2031,128.6875 958.4375,128.6875 Q959.1719,128.6875 959.8125,128.8594 Q960.4688,129.0156 961.0156,129.375 Z " fill="#000000"/><text fill="#000000" font-family="sans-serif" font-size="14" lengthAdjust="spacing" textLength="90" x="978.75" y="139.2285">JobRepository</text><line style="stroke:#181818;stroke-width:0.5;" x1="907" x2="1108" y1="149.5" y2="149.5"/><line style="stroke:#181818;stroke-width:0.5;" x1="907" x2="1108" y1="157.5" y2="157.5"/><ellipse cx="917" cy="171.8047" fill="#84BE84" rx="3" ry="3" style="stroke:#038048;stroke-width:1.0;"/><text fill="#000000" font-family="sans-serif" font-size="14" lengthAdjust="spacing" textLength="177" x="926" y="176.0332">createJob(title : String) : Job</text><ellipse cx="917" cy="189.4141" fill="#84BE84" rx="3" ry="3" style="stroke:#038048;stroke-width:1.0;"/><text fill="#000000" font-family="sans-serif" font-size="14" lengthAdjust="spacing" textLength="173" x="926" y="193.6426">checkForDuplicates() : void</text></g><!--class Job--><g id="elem_Job"><rect codeLine="24" fill="#F1F1F1" height="118.4375" id="Job" rx="2.5" ry="2.5" style="stroke:#181818;stroke-width:0.5;" width="277" x="1195" y="100"/><ellipse cx="1318.25" cy="116" fill="#ADD1B2" rx="11" ry="11" style="stroke:#181818;stroke-width:1.0;"/><path d="M1321.0156,111.875 Q1321.1719,111.6563 1321.3594,111.5469 Q1321.5469,111.4375 1321.7656,111.4375 Q1322.1406,111.4375 1322.375,111.7031 Q1322.6094,111.9531 1322.6094,112.5625 L1322.6094,114.0156 Q1322.6094,114.625 1322.375,114.8906 Q1322.1406,115.1563 1321.7656,115.1563 Q1321.4219,115.1563 1321.2188,114.9531 Q1321.0156,114.7656 1320.9063,114.25 Q1320.8594,113.8906 1320.6719,113.7031 Q1320.3438,113.3281 1319.7344,113.1094 Q1319.125,112.8906 1318.5,112.8906 Q1317.7344,112.8906 1317.0938,113.2188 Q1316.4688,113.5469 1315.9688,114.2969 Q1315.4844,115.0469 1315.4844,116.0781 L1315.4844,117.1719 Q1315.4844,118.4063 1316.375,119.2344 Q1317.2656,120.0469 1318.8594,120.0469 Q1319.7969,120.0469 1320.4531,119.7969 Q1320.8438,119.6406 1321.2656,119.2031 Q1321.5313,118.9375 1321.6719,118.8594 Q1321.8281,118.7813 1322.0313,118.7813 Q1322.3594,118.7813 1322.6094,119.0469 Q1322.875,119.2969 1322.875,119.6406 Q1322.875,119.9844 1322.5313,120.3906 Q1322.0313,120.9688 1321.2344,121.2969 Q1320.1563,121.75 1318.8594,121.75 Q1317.3438,121.75 1316.1406,121.125 Q1315.1563,120.625 1314.4688,119.5625 Q1313.7813,118.4844 1313.7813,117.2031 L1313.7813,116.0469 Q1313.7813,114.7188 1314.3906,113.5781 Q1315.0156,112.4219 1316.1094,111.8125 Q1317.2031,111.1875 1318.4375,111.1875 Q1319.1719,111.1875 1319.8125,111.3594 Q1320.4688,111.5156 1321.0156,111.875 Z " fill="#000000"/><text fill="#000000" font-family="sans-serif" font-size="14" lengthAdjust="spacing" textLength="22" x="1338.75" y="121.7285">Job</text><line style="stroke:#181818;stroke-width:0.5;" x1="1196" x2="1471" y1="132" y2="132"/><rect fill="none" height="6" style="stroke:#C82930;stroke-width:1.0;" width="6" x="1203" y="143.3047"/><text fill="#000000" font-family="sans-serif" font-size="14" lengthAdjust="spacing" textLength="71" x="1215" y="150.5332">title : String</text><line style="stroke:#181818;stroke-width:0.5;" x1="1196" x2="1471" y1="157.6094" y2="157.6094"/><ellipse cx="1206" cy="171.9141" fill="#84BE84" rx="3" ry="3" style="stroke:#038048;stroke-width:1.0;"/><text fill="#000000" font-family="sans-serif" font-size="14" lengthAdjust="spacing" textLength="103" x="1215" y="176.1426">Job(title : String)</text><ellipse cx="1206" cy="189.5234" fill="#84BE84" rx="3" ry="3" style="stroke:#038048;stroke-width:1.0;"/><text fill="#000000" font-family="sans-serif" font-size="14" lengthAdjust="spacing" textLength="169" x="1215" y="193.752">verifyFilled(job : Job) : void</text><ellipse cx="1206" cy="207.1328" fill="#84BE84" rx="3" ry="3" style="stroke:#038048;stroke-width:1.0;"/><text fill="#000000" font-family="sans-serif" font-size="14" lengthAdjust="spacing" textLength="251" x="1215" y="211.3613">verifySpecialCharacters(job : Job) : void</text></g><!--link CreateJobUI to CreateJobController--><g id="link_CreateJobUI_CreateJobController"><path codeLine="31" d="M116.07,159 C132.86,159 152.04,159 171.25,159 " fill="none" id="CreateJobUI-to-CreateJobController" style="stroke:#181818;stroke-width:1.0;stroke-dasharray:7.0,7.0;"/><polygon fill="#181818" points="176.66,159,167.66,155,171.66,159,167.66,163,176.66,159" style="stroke:#181818;stroke-width:1.0;"/></g><!--link Repositories to JobRepository--><g id="link_Repositories_JobRepository"><path codeLine="32" d="M765.15,121.26 C809.12,128.13 858.25,135.82 900.64,142.45 " fill="none" id="Repositories-to-JobRepository" style="stroke:#181818;stroke-width:1.0;"/><polygon fill="#181818" points="905.77,143.25,897.4945,137.91,900.8298,142.479,896.2608,145.8143,905.77,143.25" style="stroke:#181818;stroke-width:1.0;"/><text fill="#000000" font-family="sans-serif" font-size="13" lengthAdjust="spacing" textLength="79" x="796" y="124.4951">jobRepository</text><text fill="#000000" font-family="sans-serif" font-size="13" lengthAdjust="spacing" textLength="7" x="891.0422" y="156.1809">1</text></g><!--link Repositories to Repositories--><g id="link_Repositories_Repositories"><path codeLine="33" d="M607.32,68.76 C601.32,50.62 612.54,34 641,34 C666.79,34 678.43,47.65 675.92,63.71 " fill="none" id="Repositories-to-Repositories" style="stroke:#181818;stroke-width:1.0;"/><polygon fill="#181818" points="674.68,68.76,680.7003,60.9654,675.8658,63.9026,672.9285,59.0681,674.68,68.76" style="stroke:#181818;stroke-width:1.0;"/><text fill="#000000" font-family="sans-serif" font-size="13" lengthAdjust="spacing" textLength="49" x="616.5" y="25.4951">instance</text></g><!--link JobRepository to Job--><g id="link_JobRepository_Job"><path codeLine="34" d="M1109.24,159 C1134.77,159 1162.69,159 1189.86,159 " fill="none" id="JobRepository-to-Job" style="stroke:#181818;stroke-width:1.0;"/><polygon fill="#181818" points="1194.93,159,1185.93,155,1189.93,159,1185.93,163,1194.93,159" style="stroke:#181818;stroke-width:1.0;"/><text fill="#000000" font-family="sans-serif" font-size="13" lengthAdjust="spacing" textLength="24" x="1140" y="155.4951">jobs</text><text fill="#000000" font-family="sans-serif" font-size="13" lengthAdjust="spacing" textLength="5" x="1182.2152" y="172.9303">*</text></g><!--link CreateJobController to Repositories--><g id="link_CreateJobController_Repositories"><path codeLine="35" d="M388.05,142.28 C426.85,136.08 471.3,128.97 511.95,122.47 " fill="none" id="CreateJobController-to-Repositories" style="stroke:#181818;stroke-width:1.0;stroke-dasharray:7.0,7.0;"/><polygon fill="#181818" points="516.89,121.68,507.3654,119.1737,511.9546,122.4811,508.6472,127.0703,516.89,121.68" style="stroke:#181818;stroke-width:1.0;"/><text fill="#000000" font-family="sans-serif" font-size="13" lengthAdjust="spacing" textLength="67" x="419" y="124.4951">repositories</text></g><!--link CreateJobController to JobRepository--><g id="link_CreateJobController_JobRepository"><path codeLine="36" d="M388.3,163.94 C450.37,166.86 517,170 517,170 C517,170 765,170 765,170 C765,170 835.83,166.77 900.77,163.82 " fill="none" id="CreateJobController-to-JobRepository" style="stroke:#181818;stroke-width:1.0;stroke-dasharray:7.0,7.0;"/><polygon fill="#181818" points="905.83,163.59,896.6567,160.0052,900.8352,163.8183,897.0221,167.9968,905.83,163.59" style="stroke:#181818;stroke-width:1.0;"/><text fill="#000000" font-family="sans-serif" font-size="13" lengthAdjust="spacing" textLength="79" x="601.5" y="166.4951">jobRepository</text></g><!--SRC=[ZPB1Ri8m38RlUGgBKxUfIBjouCA4n8v3Uu0iDQqXIwB4OwgclVjS2go13Ysdnlxz-Q-Tj2CNTDJl4BJPwHhNt5g4Y8QrgosgT1QaHbV-armD6stJC6F98RS18NZRTXUbB6uOs4Eakc6eg0EITqePgrE2HKJD-EpVNbVmfRwlmWllE7fhCKeQv3oOKwfWOd4uWpL7CNCdNtjFLQ-gaLSkYNM3HPSH_Gi6duXzR7_xd6E4wTH0IZFrhVei_1-74ZsA6ZIxfOzF7y6I4Nqgpdymn1-X9UIi7W8ZJVhC7YDjsYN9vAfYAvX3wtn6lMOTq92sYqOsQ1XZ6f6BeU6YfjFvs8PKDisodCFaSN8neXbiiqbUbMI16T1nYIh77E3t1tYFJ6hioNH6Bu1nSFspvhRd7m00]--></g></svg>