<?xml version="1.0" encoding="UTF-8" standalone="no"?><svg xmlns="http://www.w3.org/2000/svg" xmlns:xlink="http://www.w3.org/1999/xlink" contentStyleType="text/css" height="710px" preserveAspectRatio="none" style="width:678px;height:710px;background:#FFFFFF;" version="1.1" viewBox="0 0 678 710" width="678px" zoomAndPan="magnify"><defs/><g><rect fill="#FFFFFF" height="517.7188" style="stroke:#181818;stroke-width:1.0;" width="10" x="18" y="92.6094"/><rect fill="#FFFFFF" height="194.3672" style="stroke:#181818;stroke-width:1.0;" width="10" x="234" y="114.9609"/><rect fill="#FFFFFF" height="30.3516" style="stroke:#181818;stroke-width:1.0;" width="10" x="234" y="579.9766"/><rect fill="#FFFFFF" height="76.7969" style="stroke:#181818;stroke-width:1.0;" width="10" x="382.5" y="309.3281"/><rect fill="#FFFFFF" height="30.3516" style="stroke:#181818;stroke-width:1.0;" width="10" x="382.5" y="549.625"/><rect fill="#FFFFFF" height="163.5" style="stroke:#181818;stroke-width:1.0;" width="10" x="522.5" y="386.125"/><rect fill="#FFFFFF" height="163.5" style="stroke:#181818;stroke-width:1.0;" width="10" x="522.5" y="386.125"/><rect fill="#FFFFFF" height="41.3516" style="stroke:#181818;stroke-width:1.0;" width="10" x="527.5" y="470.9219"/><line style="stroke:#181818;stroke-width:0.5;stroke-dasharray:5.0,5.0;" x1="23" x2="23" y1="82.6094" y2="628.3281"/><line style="stroke:#181818;stroke-width:0.5;stroke-dasharray:5.0,5.0;" x1="238.5" x2="238.5" y1="82.6094" y2="628.3281"/><line style="stroke:#181818;stroke-width:0.5;stroke-dasharray:5.0,5.0;" x1="387" x2="387" y1="154.2656" y2="628.3281"/><line style="stroke:#181818;stroke-width:0.5;stroke-dasharray:5.0,5.0;" x1="522" x2="522" y1="82.6094" y2="628.3281"/><text fill="#000000" font-family="sans-serif" font-size="14" lengthAdjust="spacing" textLength="30" x="5" y="79.5332">HRM</text><ellipse cx="23" cy="13.5" fill="#E3E3E3" rx="8" ry="8" style="stroke:#181818;stroke-width:0.5;"/><path d="M23,21.5 L23,48.5 M10,29.5 L36,29.5 M23,48.5 L10,63.5 M23,48.5 L36,63.5 " fill="none" style="stroke:#181818;stroke-width:0.5;"/><text fill="#000000" font-family="sans-serif" font-size="14" lengthAdjust="spacing" textLength="30" x="5" y="641.8613">HRM</text><ellipse cx="23" cy="653.4375" fill="#E3E3E3" rx="8" ry="8" style="stroke:#181818;stroke-width:0.5;"/><path d="M23,661.4375 L23,688.4375 M10,669.4375 L36,669.4375 M23,688.4375 L10,703.4375 M23,688.4375 L36,703.4375 " fill="none" style="stroke:#181818;stroke-width:0.5;"/><rect fill="#E3E3E3" height="31.6094" rx="2.5" ry="2.5" style="stroke:#181818;stroke-width:0.5;" width="95" x="191.5" y="50"/><text fill="#000000" font-family="sans-serif" font-size="14" lengthAdjust="spacing" textLength="81" x="198.5" y="71.5332">:CreateJobUI</text><rect fill="#E3E3E3" height="31.6094" rx="2.5" ry="2.5" style="stroke:#181818;stroke-width:0.5;" width="95" x="191.5" y="627.3281"/><text fill="#000000" font-family="sans-serif" font-size="14" lengthAdjust="spacing" textLength="81" x="198.5" y="648.8613">:CreateJobUI</text><rect fill="#E3E3E3" height="31.6094" rx="2.5" ry="2.5" style="stroke:#181818;stroke-width:0.5;" width="145" x="315" y="627.3281"/><text fill="#000000" font-family="sans-serif" font-size="14" lengthAdjust="spacing" textLength="131" x="322" y="648.8613">:CreateJobController</text><rect fill="#E3E3E3" height="49.2188" rx="2.5" ry="2.5" style="stroke:#181818;stroke-width:0.5;" width="105" x="470" y="32.3906"/><text fill="#000000" font-family="sans-serif" font-size="14" lengthAdjust="spacing" textLength="91" x="477" y="53.9238">jobRepository:</text><text fill="#000000" font-family="sans-serif" font-size="14" lengthAdjust="spacing" textLength="90" x="477.5" y="71.5332">JobRepository</text><rect fill="#E3E3E3" height="49.2188" rx="2.5" ry="2.5" style="stroke:#181818;stroke-width:0.5;" width="105" x="470" y="627.3281"/><text fill="#000000" font-family="sans-serif" font-size="14" lengthAdjust="spacing" textLength="91" x="477" y="648.8613">jobRepository:</text><text fill="#000000" font-family="sans-serif" font-size="14" lengthAdjust="spacing" textLength="90" x="477.5" y="666.4707">JobRepository</text><rect fill="#FFFFFF" height="517.7188" style="stroke:#181818;stroke-width:1.0;" width="10" x="18" y="92.6094"/><rect fill="#FFFFFF" height="194.3672" style="stroke:#181818;stroke-width:1.0;" width="10" x="234" y="114.9609"/><rect fill="#FFFFFF" height="30.3516" style="stroke:#181818;stroke-width:1.0;" width="10" x="234" y="579.9766"/><rect fill="#FFFFFF" height="76.7969" style="stroke:#181818;stroke-width:1.0;" width="10" x="382.5" y="309.3281"/><rect fill="#FFFFFF" height="30.3516" style="stroke:#181818;stroke-width:1.0;" width="10" x="382.5" y="549.625"/><rect fill="#FFFFFF" height="163.5" style="stroke:#181818;stroke-width:1.0;" width="10" x="522.5" y="386.125"/><rect fill="#FFFFFF" height="163.5" style="stroke:#181818;stroke-width:1.0;" width="10" x="522.5" y="386.125"/><rect fill="#FFFFFF" height="41.3516" style="stroke:#181818;stroke-width:1.0;" width="10" x="527.5" y="470.9219"/><polygon fill="#181818" points="222,110.9609,232,114.9609,222,118.9609,226,114.9609" style="stroke:#181818;stroke-width:1.0;"/><line style="stroke:#181818;stroke-width:1.0;" x1="28" x2="228" y1="114.9609" y2="114.9609"/><text fill="#000000" font-family="sans-serif" font-size="13" font-weight="bold" lengthAdjust="spacing" textLength="7" x="35" y="110.1045">1</text><text fill="#000000" font-family="sans-serif" font-size="13" lengthAdjust="spacing" textLength="148" x="46" y="110.1045">wants to create a new job</text><polygon fill="#181818" points="303,141.3125,313,145.3125,303,149.3125,307,145.3125" style="stroke:#181818;stroke-width:1.0;"/><line style="stroke:#181818;stroke-width:1.0;" x1="244" x2="309" y1="145.3125" y2="145.3125"/><text fill="#000000" font-family="sans-serif" font-size="13" font-weight="bold" lengthAdjust="spacing" textLength="7" x="251" y="140.4561">2</text><text fill="#000000" font-family="sans-serif" font-size="13" lengthAdjust="spacing" textLength="36" x="262" y="140.4561">create</text><rect fill="#E3E3E3" height="31.6094" rx="2.5" ry="2.5" style="stroke:#181818;stroke-width:0.5;" width="145" x="315" y="122.9609"/><text fill="#000000" font-family="sans-serif" font-size="14" lengthAdjust="spacing" textLength="131" x="322" y="144.4941">:CreateJobController</text><polygon fill="#181818" points="39,183.9219,29,187.9219,39,191.9219,35,187.9219" style="stroke:#181818;stroke-width:1.0;"/><line style="stroke:#181818;stroke-width:1.0;stroke-dasharray:2.0,2.0;" x1="33" x2="233" y1="187.9219" y2="187.9219"/><text fill="#000000" font-family="sans-serif" font-size="13" font-weight="bold" lengthAdjust="spacing" textLength="7" x="45" y="183.0654">3</text><text fill="#000000" font-family="sans-serif" font-size="13" lengthAdjust="spacing" textLength="171" x="56" y="183.0654">asks for the info needed (title)</text><polygon fill="#181818" points="222,214.2734,232,218.2734,222,222.2734,226,218.2734" style="stroke:#181818;stroke-width:1.0;"/><line style="stroke:#181818;stroke-width:1.0;" x1="28" x2="228" y1="218.2734" y2="218.2734"/><text fill="#000000" font-family="sans-serif" font-size="13" font-weight="bold" lengthAdjust="spacing" textLength="7" x="35" y="213.417">4</text><text fill="#000000" font-family="sans-serif" font-size="13" lengthAdjust="spacing" textLength="93" x="46" y="213.417">provides job title</text><polygon fill="#181818" points="39,244.625,29,248.625,39,252.625,35,248.625" style="stroke:#181818;stroke-width:1.0;"/><line style="stroke:#181818;stroke-width:1.0;stroke-dasharray:2.0,2.0;" x1="33" x2="233" y1="248.625" y2="248.625"/><text fill="#000000" font-family="sans-serif" font-size="13" font-weight="bold" lengthAdjust="spacing" textLength="7" x="45" y="243.7686">5</text><text fill="#000000" font-family="sans-serif" font-size="13" lengthAdjust="spacing" textLength="150" x="56" y="243.7686">shows a verification dialog</text><polygon fill="#181818" points="222,274.9766,232,278.9766,222,282.9766,226,278.9766" style="stroke:#181818;stroke-width:1.0;"/><line style="stroke:#181818;stroke-width:1.0;" x1="28" x2="228" y1="278.9766" y2="278.9766"/><text fill="#000000" font-family="sans-serif" font-size="13" font-weight="bold" lengthAdjust="spacing" textLength="7" x="35" y="274.1201">6</text><text fill="#000000" font-family="sans-serif" font-size="13" lengthAdjust="spacing" textLength="120" x="46" y="274.1201">confirms job creation</text><polygon fill="#181818" points="370.5,305.3281,380.5,309.3281,370.5,313.3281,374.5,309.3281" style="stroke:#181818;stroke-width:1.0;"/><line style="stroke:#181818;stroke-width:1.0;" x1="239" x2="376.5" y1="309.3281" y2="309.3281"/><text fill="#000000" font-family="sans-serif" font-size="13" font-weight="bold" lengthAdjust="spacing" textLength="7" x="246" y="304.4717">7</text><text fill="#000000" font-family="sans-serif" font-size="13" lengthAdjust="spacing" textLength="85" x="257" y="304.4717">createJob(title)</text><rect fill="none" height="41.4453" style="stroke:#000000;stroke-width:1.5;" width="151" x="312" y="317.3281"/><path d="M312,317.3281 L374,317.3281 L374,325.3281 L364,335.3281 L312,335.3281 L312,317.3281 " fill="#EEEEEE" style="stroke:#000000;stroke-width:2.0;"/><text fill="#000000" font-family="sans-serif" font-size="13" font-weight="bold" lengthAdjust="spacing" textLength="17" x="325" y="332.8232">ref</text><text fill="#000000" font-family="sans-serif" font-size="12" lengthAdjust="spacing" textLength="104" x="335.5" y="351.7852">Get Job Repository</text><polygon fill="#181818" points="510.5,382.125,520.5,386.125,510.5,390.125,514.5,386.125" style="stroke:#181818;stroke-width:1.0;"/><line style="stroke:#181818;stroke-width:1.0;" x1="387.5" x2="516.5" y1="386.125" y2="386.125"/><text fill="#000000" font-family="sans-serif" font-size="13" font-weight="bold" lengthAdjust="spacing" textLength="7" x="394.5" y="381.2686">8</text><text fill="#000000" font-family="sans-serif" font-size="13" lengthAdjust="spacing" textLength="85" x="405.5" y="381.2686">createJob(title)</text><rect fill="none" height="41.4453" style="stroke:#000000;stroke-width:1.5;" width="111" x="467" y="394.125"/><path d="M467,394.125 L529,394.125 L529,402.125 L519,412.125 L467,412.125 L467,394.125 " fill="#EEEEEE" style="stroke:#000000;stroke-width:2.0;"/><text fill="#000000" font-family="sans-serif" font-size="13" font-weight="bold" lengthAdjust="spacing" textLength="17" x="480" y="409.6201">ref</text><text fill="#000000" font-family="sans-serif" font-size="12" lengthAdjust="spacing" textLength="60" x="492.5" y="428.582">Create Job</text><line style="stroke:#181818;stroke-width:1.0;" x1="532.5" x2="579.5" y1="457.9219" y2="457.9219"/><line style="stroke:#181818;stroke-width:1.0;" x1="579.5" x2="579.5" y1="457.9219" y2="470.9219"/><line style="stroke:#181818;stroke-width:1.0;" x1="538.5" x2="579.5" y1="470.9219" y2="470.9219"/><polygon fill="#181818" points="548.5,466.9219,538.5,470.9219,548.5,474.9219,544.5,470.9219" style="stroke:#181818;stroke-width:1.0;"/><text fill="#000000" font-family="sans-serif" font-size="13" font-weight="bold" lengthAdjust="spacing" textLength="7" x="544.5" y="453.0654">9</text><text fill="#000000" font-family="sans-serif" font-size="13" lengthAdjust="spacing" textLength="116" x="555.5" y="453.0654">check for duplicates</text><line style="stroke:#181818;stroke-width:1.0;stroke-dasharray:2.0,2.0;" x1="537.5" x2="579.5" y1="511.2734" y2="511.2734"/><line style="stroke:#181818;stroke-width:1.0;stroke-dasharray:2.0,2.0;" x1="579.5" x2="579.5" y1="511.2734" y2="524.2734"/><line style="stroke:#181818;stroke-width:1.0;stroke-dasharray:2.0,2.0;" x1="532.5" x2="579.5" y1="524.2734" y2="524.2734"/><polygon fill="#181818" points="542.5,520.2734,532.5,524.2734,542.5,528.2734,538.5,524.2734" style="stroke:#181818;stroke-width:1.0;"/><text fill="#000000" font-family="sans-serif" font-size="13" font-weight="bold" lengthAdjust="spacing" textLength="14" x="544.5" y="506.417">10</text><text fill="#000000" font-family="sans-serif" font-size="13" lengthAdjust="spacing" textLength="4" x="562.5" y="506.417"> </text><polygon fill="#181818" points="403.5,545.625,393.5,549.625,403.5,553.625,399.5,549.625" style="stroke:#181818;stroke-width:1.0;"/><line style="stroke:#181818;stroke-width:1.0;stroke-dasharray:2.0,2.0;" x1="397.5" x2="521.5" y1="549.625" y2="549.625"/><text fill="#000000" font-family="sans-serif" font-size="13" font-weight="bold" lengthAdjust="spacing" textLength="14" x="409.5" y="544.7686">11</text><text fill="#000000" font-family="sans-serif" font-size="13" lengthAdjust="spacing" textLength="17" x="427.5" y="544.7686">job</text><polygon fill="#181818" points="255,575.9766,245,579.9766,255,583.9766,251,579.9766" style="stroke:#181818;stroke-width:1.0;"/><line style="stroke:#181818;stroke-width:1.0;stroke-dasharray:2.0,2.0;" x1="249" x2="386.5" y1="579.9766" y2="579.9766"/><text fill="#000000" font-family="sans-serif" font-size="13" font-weight="bold" lengthAdjust="spacing" textLength="14" x="261" y="575.1201">12</text><text fill="#000000" font-family="sans-serif" font-size="13" lengthAdjust="spacing" textLength="49" x="279" y="575.1201">success</text><polygon fill="#181818" points="34,606.3281,24,610.3281,34,614.3281,30,610.3281" style="stroke:#181818;stroke-width:1.0;"/><line style="stroke:#181818;stroke-width:1.0;stroke-dasharray:2.0,2.0;" x1="28" x2="238" y1="610.3281" y2="610.3281"/><text fill="#000000" font-family="sans-serif" font-size="13" font-weight="bold" lengthAdjust="spacing" textLength="14" x="40" y="605.4717">13</text><text fill="#000000" font-family="sans-serif" font-size="13" lengthAdjust="spacing" textLength="158" x="58" y="605.4717">displays operation success</text><!--SRC=[bPFBRkCm34Nt-WeYcpw0-O4iPXCKdHRJJMQwwqQHw5YDB0gId4p-lfGSEtOIOr2lzBYyF2Bfk3FEoo0RQCYHgWCr22cqAE9muwNQoIt-IKUB450bwRPsB8Yrr7GmRWkLj165a6qYrpOR34BSrKOZL4HfG_-4L8a2B7wjtnOW8pmrtj8HKR1HCifuwH8ibgk0Ck4hRTvVYkpzPKwm8fS2MOkX25T_rx-dqa_QhD5JD9ptkFnmh-DzYPaeH2OqUpO_iub-1Jz-CWeiuS3M4HA1AXmWmU4X6vsZ6LcmbYCoq-CZHtNYxfZF1zSbK-mYboX0gX6CguZzKAE6-sIInOSR23xGdWjRyA6eRXd7cWwHyVOOJ6MKJ8OSQ2CjRMzuAdAL2KtdMMXPFdx6y0YkOe-cSVpcOLqw0QSlO0N43DFJ_3rZ0ZQ3KGVwAtGw1mfHCZF1f57_GIc9Xjr5Yw-mflTZlcxGCk8rLzxCfCXNKznR_3MgNMcxRhtDtS7uJTDBrw8PbU7YuTVHfwxcqPqDcnPrththKpzCiLKAOvnl2a_BzS1g4xsLnmZaCNJZsXjTJDfeD_ofNm00]--></g></svg>