<?xml version="1.0" encoding="UTF-8" standalone="no"?><svg xmlns="http://www.w3.org/2000/svg" xmlns:xlink="http://www.w3.org/1999/xlink" contentStyleType="text/css" height="313px" preserveAspectRatio="none" style="width:400px;height:313px;background:#FFFFFF;" version="1.1" viewBox="0 0 400 313" width="400px" zoomAndPan="magnify"><defs/><g><rect fill="#FFFFFF" height="176.1094" style="stroke:#181818;stroke-width:1.0;" width="10" x="87.5" y="65.2188"/><rect fill="#FFFFFF" height="30.3516" style="stroke:#181818;stroke-width:1.0;" width="10" x="218.5" y="112.9219"/><rect fill="#FFFFFF" height="30.3516" style="stroke:#181818;stroke-width:1.0;" width="10" x="325.5" y="173.625"/><rect fill="none" height="139.7578" style="stroke:#000000;stroke-width:1.5;" width="379" x="10" y="72.2188"/><line style="stroke:#181818;stroke-width:0.5;stroke-dasharray:5.0,5.0;" x1="92" x2="92" y1="55.2188" y2="259.3281"/><line style="stroke:#181818;stroke-width:0.5;stroke-dasharray:5.0,5.0;" x1="223" x2="223" y1="55.2188" y2="259.3281"/><line style="stroke:#181818;stroke-width:0.5;stroke-dasharray:5.0,5.0;" x1="330" x2="330" y1="55.2188" y2="259.3281"/><rect fill="#E3E3E3" height="31.6094" rx="2.5" ry="2.5" style="stroke:#181818;stroke-width:0.5;" width="145" x="20" y="22.6094"/><text fill="#000000" font-family="sans-serif" font-size="14" lengthAdjust="spacing" textLength="131" x="27" y="44.1426">:CreateJobController</text><rect fill="#E3E3E3" height="31.6094" rx="2.5" ry="2.5" style="stroke:#181818;stroke-width:0.5;" width="145" x="20" y="258.3281"/><text fill="#000000" font-family="sans-serif" font-size="14" lengthAdjust="spacing" textLength="131" x="27" y="279.8613">:CreateJobController</text><rect fill="#E3E3E3" height="31.6094" rx="2.5" ry="2.5" style="stroke:#181818;stroke-width:0.5;" width="97" x="175" y="22.6094"/><text fill="#000000" font-family="sans-serif" font-size="14" lengthAdjust="spacing" textLength="83" x="182" y="44.1426">:Repositories</text><rect fill="#E3E3E3" height="31.6094" rx="2.5" ry="2.5" style="stroke:#181818;stroke-width:0.5;" width="97" x="175" y="258.3281"/><text fill="#000000" font-family="sans-serif" font-size="14" lengthAdjust="spacing" textLength="83" x="182" y="279.8613">:Repositories</text><rect fill="#E3E3E3" height="49.2188" rx="2.5" ry="2.5" style="stroke:#181818;stroke-width:0.5;" width="97" x="282" y="5"/><text fill="#000000" font-family="sans-serif" font-size="14" lengthAdjust="spacing" textLength="74" x="293.5" y="26.5332">repositories</text><text fill="#000000" font-family="sans-serif" font-size="14" lengthAdjust="spacing" textLength="83" x="289" y="44.1426">:Repositories</text><rect fill="#E3E3E3" height="49.2188" rx="2.5" ry="2.5" style="stroke:#181818;stroke-width:0.5;" width="97" x="282" y="258.3281"/><text fill="#000000" font-family="sans-serif" font-size="14" lengthAdjust="spacing" textLength="74" x="293.5" y="279.8613">repositories</text><text fill="#000000" font-family="sans-serif" font-size="14" lengthAdjust="spacing" textLength="83" x="289" y="297.4707">:Repositories</text><rect fill="#FFFFFF" height="176.1094" style="stroke:#181818;stroke-width:1.0;" width="10" x="87.5" y="65.2188"/><rect fill="#FFFFFF" height="30.3516" style="stroke:#181818;stroke-width:1.0;" width="10" x="218.5" y="112.9219"/><rect fill="#FFFFFF" height="30.3516" style="stroke:#181818;stroke-width:1.0;" width="10" x="325.5" y="173.625"/><path d="M10,72.2188 L175,72.2188 L175,80.5703 L165,90.5703 L10,90.5703 L10,72.2188 " fill="#EEEEEE" style="stroke:#000000;stroke-width:1.5;"/><rect fill="none" height="139.7578" style="stroke:#000000;stroke-width:1.5;" width="379" x="10" y="72.2188"/><text fill="#000000" font-family="sans-serif" font-size="13" font-weight="bold" lengthAdjust="spacing" textLength="120" x="25" y="86.7139">Get Job Repository</text><polygon fill="#181818" points="206.5,108.9219,216.5,112.9219,206.5,116.9219,210.5,112.9219" style="stroke:#181818;stroke-width:1.0;"/><line style="stroke:#181818;stroke-width:1.0;" x1="97.5" x2="212.5" y1="112.9219" y2="112.9219"/><text fill="#000000" font-family="sans-serif" font-size="13" font-weight="bold" lengthAdjust="spacing" textLength="14" x="104.5" y="108.0654">12</text><text fill="#000000" font-family="sans-serif" font-size="13" lengthAdjust="spacing" textLength="75" x="122.5" y="108.0654">getInstance()</text><polygon fill="#181818" points="108.5,139.2734,98.5,143.2734,108.5,147.2734,104.5,143.2734" style="stroke:#181818;stroke-width:1.0;"/><line style="stroke:#181818;stroke-width:1.0;stroke-dasharray:2.0,2.0;" x1="102.5" x2="222.5" y1="143.2734" y2="143.2734"/><text fill="#000000" font-family="sans-serif" font-size="13" font-weight="bold" lengthAdjust="spacing" textLength="14" x="114.5" y="138.417">13</text><text fill="#000000" font-family="sans-serif" font-size="13" lengthAdjust="spacing" textLength="67" x="132.5" y="138.417">repositories</text><polygon fill="#181818" points="313.5,169.625,323.5,173.625,313.5,177.625,317.5,173.625" style="stroke:#181818;stroke-width:1.0;"/><line style="stroke:#181818;stroke-width:1.0;" x1="97.5" x2="319.5" y1="173.625" y2="173.625"/><text fill="#000000" font-family="sans-serif" font-size="13" font-weight="bold" lengthAdjust="spacing" textLength="14" x="104.5" y="168.7686">14</text><text fill="#000000" font-family="sans-serif" font-size="13" lengthAdjust="spacing" textLength="108" x="122.5" y="168.7686">getJobRepository()</text><polygon fill="#181818" points="108.5,199.9766,98.5,203.9766,108.5,207.9766,104.5,203.9766" style="stroke:#181818;stroke-width:1.0;"/><line style="stroke:#181818;stroke-width:1.0;stroke-dasharray:2.0,2.0;" x1="102.5" x2="329.5" y1="203.9766" y2="203.9766"/><text fill="#000000" font-family="sans-serif" font-size="13" font-weight="bold" lengthAdjust="spacing" textLength="14" x="114.5" y="199.1201">15</text><text fill="#000000" font-family="sans-serif" font-size="13" lengthAdjust="spacing" textLength="79" x="132.5" y="199.1201">jobRepository</text><polygon fill="#181818" points="387,237.3281,397,241.3281,387,245.3281,391,241.3281" style="stroke:#181818;stroke-width:1.0;"/><line style="stroke:#181818;stroke-width:1.0;" x1="92.5" x2="393" y1="241.3281" y2="241.3281"/><text fill="#000000" font-family="sans-serif" font-size="13" font-weight="bold" lengthAdjust="spacing" textLength="14" x="99.5" y="236.4717">16</text><text fill="#000000" font-family="sans-serif" font-size="13" lengthAdjust="spacing" textLength="85" x="117.5" y="236.4717">createJob(title)</text><!--SRC=[PP2nJiCm48PtFyMf2-tG0SOCI2X3HTK1bOui5-UQc3g-oBu0VNiSHnX35m_sz_lxxyB5k14z3Z2mOzrx7WZ4JwH2VXbHNx2ZLxbQ0azQq7Ms14AFBNyQry4PRI2bS19sqz2GX_i7fUvwqnAScQNXBnKpOhGPqGcigjeJ2ksvgTc9Psl9hm03rAVZuHzwf9634VQ6Gc9sbflvyY_d2-pDtQPU3aydfJhFqmWx4eXkoD1LeHRp4Iij3UO3jezP1HLq9Cykn2LeMcz-yLmcezkOI_aAoawgfTjG5itj5ib-ULfgbQOqGE9cGr9Ky5xIfM8PLv5hioF-ht_MlXOZbZPb8Wt-3G00]--></g></svg>