<?xml version="1.0" encoding="UTF-8" standalone="no"?><svg xmlns="http://www.w3.org/2000/svg" xmlns:xlink="http://www.w3.org/1999/xlink" contentStyleType="text/css" height="555px" preserveAspectRatio="none" style="width:624px;height:555px;background:#FFFFFF;" version="1.1" viewBox="0 0 624 555" width="624px" zoomAndPan="magnify"><defs/><g><rect fill="#FFFFFF" height="395.7734" style="stroke:#181818;stroke-width:1.0;" width="10" x="198" y="87.5703"/><rect fill="#FFFFFF" height="395.7734" style="stroke:#181818;stroke-width:1.0;" width="10" x="198" y="87.5703"/><rect fill="#FFFFFF" height="41.3516" style="stroke:#181818;stroke-width:1.0;" width="10" x="203" y="397.6406"/><rect fill="#FFFFFF" height="206.0156" style="stroke:#181818;stroke-width:1.0;" width="10" x="401" y="153.2734"/><rect fill="#FFFFFF" height="128.0547" style="stroke:#181818;stroke-width:1.0;" width="10" x="406" y="193.8828"/><rect fill="#FFFFFF" height="41.3516" style="stroke:#181818;stroke-width:1.0;" width="10" x="411" y="237.2344"/><rect fill="none" height="351.4219" style="stroke:#000000;stroke-width:1.5;" width="482.5" x="135.5" y="102.5703"/><line style="stroke:#181818;stroke-width:0.5;stroke-dasharray:5.0,5.0;" x1="197.5" x2="197.5" y1="55.2188" y2="501.3438"/><line style="stroke:#181818;stroke-width:0.5;stroke-dasharray:5.0,5.0;" x1="406" x2="406" y1="152.2266" y2="501.3438"/><rect fill="#E3E3E3" height="49.2188" rx="2.5" ry="2.5" style="stroke:#181818;stroke-width:0.5;" width="105" x="145.5" y="5"/><text fill="#000000" font-family="sans-serif" font-size="14" lengthAdjust="spacing" textLength="91" x="152.5" y="26.5332">jobRepository:</text><text fill="#000000" font-family="sans-serif" font-size="14" lengthAdjust="spacing" textLength="90" x="153" y="44.1426">JobRepository</text><rect fill="#E3E3E3" height="49.2188" rx="2.5" ry="2.5" style="stroke:#181818;stroke-width:0.5;" width="105" x="145.5" y="500.3438"/><text fill="#000000" font-family="sans-serif" font-size="14" lengthAdjust="spacing" textLength="91" x="152.5" y="521.877">jobRepository:</text><text fill="#000000" font-family="sans-serif" font-size="14" lengthAdjust="spacing" textLength="90" x="153" y="539.4863">JobRepository</text><rect fill="#E3E3E3" height="31.6094" rx="2.5" ry="2.5" style="stroke:#181818;stroke-width:0.5;" width="40" x="386" y="500.3438"/><text fill="#000000" font-family="sans-serif" font-size="14" lengthAdjust="spacing" textLength="26" x="393" y="521.877">:Job</text><rect fill="#FFFFFF" height="395.7734" style="stroke:#181818;stroke-width:1.0;" width="10" x="198" y="87.5703"/><rect fill="#FFFFFF" height="395.7734" style="stroke:#181818;stroke-width:1.0;" width="10" x="198" y="87.5703"/><rect fill="#FFFFFF" height="41.3516" style="stroke:#181818;stroke-width:1.0;" width="10" x="203" y="397.6406"/><rect fill="#FFFFFF" height="206.0156" style="stroke:#181818;stroke-width:1.0;" width="10" x="401" y="153.2734"/><rect fill="#FFFFFF" height="128.0547" style="stroke:#181818;stroke-width:1.0;" width="10" x="406" y="193.8828"/><rect fill="#FFFFFF" height="41.3516" style="stroke:#181818;stroke-width:1.0;" width="10" x="411" y="237.2344"/><polygon fill="#181818" points="181,83.5703,191,87.5703,181,91.5703,185,87.5703" style="stroke:#181818;stroke-width:1.0;"/><line style="stroke:#181818;stroke-width:1.0;" x1="0" x2="187" y1="87.5703" y2="87.5703"/><text fill="#000000" font-family="sans-serif" font-size="13" font-weight="bold" lengthAdjust="spacing" textLength="14" x="7" y="82.7139">12</text><text fill="#000000" font-family="sans-serif" font-size="13" lengthAdjust="spacing" textLength="156" x="25" y="82.7139">createJob(title, description)</text><path d="M135.5,102.5703 L249.5,102.5703 L249.5,110.9219 L239.5,120.9219 L135.5,120.9219 L135.5,102.5703 " fill="#EEEEEE" style="stroke:#000000;stroke-width:1.5;"/><rect fill="none" height="351.4219" style="stroke:#000000;stroke-width:1.5;" width="482.5" x="135.5" y="102.5703"/><text fill="#000000" font-family="sans-serif" font-size="13" font-weight="bold" lengthAdjust="spacing" textLength="69" x="150.5" y="117.0654">Create Job</text><polygon fill="#181818" points="374,139.2734,384,143.2734,374,147.2734,378,143.2734" style="stroke:#181818;stroke-width:1.0;"/><line style="stroke:#181818;stroke-width:1.0;" x1="208" x2="380" y1="143.2734" y2="143.2734"/><text fill="#000000" font-family="sans-serif" font-size="13" font-weight="bold" lengthAdjust="spacing" textLength="14" x="215" y="138.417">13</text><text fill="#000000" font-family="sans-serif" font-size="13" lengthAdjust="spacing" textLength="136" x="233" y="138.417">create(title, description)</text><rect fill="#E3E3E3" height="31.6094" rx="2.5" ry="2.5" style="stroke:#181818;stroke-width:0.5;" width="40" x="386" y="120.9219"/><text fill="#000000" font-family="sans-serif" font-size="14" lengthAdjust="spacing" textLength="26" x="393" y="142.4551">:Job</text><line style="stroke:#181818;stroke-width:1.0;" x1="411" x2="458" y1="180.8828" y2="180.8828"/><line style="stroke:#181818;stroke-width:1.0;" x1="458" x2="458" y1="180.8828" y2="193.8828"/><line style="stroke:#181818;stroke-width:1.0;" x1="417" x2="458" y1="193.8828" y2="193.8828"/><polygon fill="#181818" points="427,189.8828,417,193.8828,427,197.8828,423,193.8828" style="stroke:#181818;stroke-width:1.0;"/><text fill="#000000" font-family="sans-serif" font-size="13" font-weight="bold" lengthAdjust="spacing" textLength="14" x="423" y="176.0264">14</text><text fill="#000000" font-family="sans-serif" font-size="13" lengthAdjust="spacing" textLength="85" x="441" y="176.0264">verifyFilled(job)</text><line style="stroke:#181818;stroke-width:1.0;" x1="416" x2="463" y1="224.2344" y2="224.2344"/><line style="stroke:#181818;stroke-width:1.0;" x1="463" x2="463" y1="224.2344" y2="237.2344"/><line style="stroke:#181818;stroke-width:1.0;" x1="422" x2="463" y1="237.2344" y2="237.2344"/><polygon fill="#181818" points="432,233.2344,422,237.2344,432,241.2344,428,237.2344" style="stroke:#181818;stroke-width:1.0;"/><text fill="#000000" font-family="sans-serif" font-size="13" font-weight="bold" lengthAdjust="spacing" textLength="14" x="428" y="219.3779">15</text><text fill="#000000" font-family="sans-serif" font-size="13" lengthAdjust="spacing" textLength="160" x="446" y="219.3779">verifySpecialCharacters(job)</text><line style="stroke:#181818;stroke-width:1.0;stroke-dasharray:2.0,2.0;" x1="421" x2="463" y1="277.5859" y2="277.5859"/><line style="stroke:#181818;stroke-width:1.0;stroke-dasharray:2.0,2.0;" x1="463" x2="463" y1="277.5859" y2="290.5859"/><line style="stroke:#181818;stroke-width:1.0;stroke-dasharray:2.0,2.0;" x1="416" x2="463" y1="290.5859" y2="290.5859"/><polygon fill="#181818" points="426,286.5859,416,290.5859,426,294.5859,422,290.5859" style="stroke:#181818;stroke-width:1.0;"/><text fill="#000000" font-family="sans-serif" font-size="13" font-weight="bold" lengthAdjust="spacing" textLength="14" x="428" y="272.7295">16</text><text fill="#000000" font-family="sans-serif" font-size="13" lengthAdjust="spacing" textLength="4" x="446" y="272.7295"> </text><line style="stroke:#181818;stroke-width:1.0;stroke-dasharray:2.0,2.0;" x1="416" x2="458" y1="320.9375" y2="320.9375"/><line style="stroke:#181818;stroke-width:1.0;stroke-dasharray:2.0,2.0;" x1="458" x2="458" y1="320.9375" y2="333.9375"/><line style="stroke:#181818;stroke-width:1.0;stroke-dasharray:2.0,2.0;" x1="411" x2="458" y1="333.9375" y2="333.9375"/><polygon fill="#181818" points="421,329.9375,411,333.9375,421,337.9375,417,333.9375" style="stroke:#181818;stroke-width:1.0;"/><text fill="#000000" font-family="sans-serif" font-size="13" font-weight="bold" lengthAdjust="spacing" textLength="14" x="423" y="316.0811">17</text><text fill="#000000" font-family="sans-serif" font-size="13" lengthAdjust="spacing" textLength="4" x="441" y="316.0811"> </text><polygon fill="#181818" points="219,355.2891,209,359.2891,219,363.2891,215,359.2891" style="stroke:#181818;stroke-width:1.0;"/><line style="stroke:#181818;stroke-width:1.0;stroke-dasharray:2.0,2.0;" x1="213" x2="405" y1="359.2891" y2="359.2891"/><text fill="#000000" font-family="sans-serif" font-size="13" font-weight="bold" lengthAdjust="spacing" textLength="14" x="225" y="354.4326">18</text><text fill="#000000" font-family="sans-serif" font-size="13" lengthAdjust="spacing" textLength="17" x="243" y="354.4326">job</text><line style="stroke:#181818;stroke-width:1.0;" x1="208" x2="255" y1="384.6406" y2="384.6406"/><line style="stroke:#181818;stroke-width:1.0;" x1="255" x2="255" y1="384.6406" y2="397.6406"/><line style="stroke:#181818;stroke-width:1.0;" x1="214" x2="255" y1="397.6406" y2="397.6406"/><polygon fill="#181818" points="224,393.6406,214,397.6406,224,401.6406,220,397.6406" style="stroke:#181818;stroke-width:1.0;"/><text fill="#000000" font-family="sans-serif" font-size="13" font-weight="bold" lengthAdjust="spacing" textLength="14" x="220" y="379.7842">19</text><text fill="#000000" font-family="sans-serif" font-size="13" lengthAdjust="spacing" textLength="116" x="238" y="379.7842">check for duplicates</text><line style="stroke:#181818;stroke-width:1.0;stroke-dasharray:2.0,2.0;" x1="213" x2="255" y1="437.9922" y2="437.9922"/><line style="stroke:#181818;stroke-width:1.0;stroke-dasharray:2.0,2.0;" x1="255" x2="255" y1="437.9922" y2="450.9922"/><line style="stroke:#181818;stroke-width:1.0;stroke-dasharray:2.0,2.0;" x1="208" x2="255" y1="450.9922" y2="450.9922"/><polygon fill="#181818" points="218,446.9922,208,450.9922,218,454.9922,214,450.9922" style="stroke:#181818;stroke-width:1.0;"/><text fill="#000000" font-family="sans-serif" font-size="13" font-weight="bold" lengthAdjust="spacing" textLength="14" x="220" y="433.1357">20</text><text fill="#000000" font-family="sans-serif" font-size="13" lengthAdjust="spacing" textLength="4" x="238" y="433.1357"> </text><polygon fill="#181818" points="11,479.3438,1,483.3438,11,487.3438,7,483.3438" style="stroke:#181818;stroke-width:1.0;"/><line style="stroke:#181818;stroke-width:1.0;stroke-dasharray:2.0,2.0;" x1="5" x2="197" y1="483.3438" y2="483.3438"/><text fill="#000000" font-family="sans-serif" font-size="13" font-weight="bold" lengthAdjust="spacing" textLength="14" x="17" y="478.4873">21</text><text fill="#000000" font-family="sans-serif" font-size="13" lengthAdjust="spacing" textLength="17" x="35" y="478.4873">job</text><!--SRC=[ZPAzRiCm38HtFGMH9MdG3EqO55q2TEZOh5qOYR6Po98WqMdpzbNpOrYk3LIRoRkF9z7fo2vWn0OQxxokesy89BQaKjS9g8zOqLREbY2I5dILxGjIZSP_iQjWZpQHKjYATsspemXFpqhDQpO4U-zbvxzLzWXh3kW4PWU_-w3W4ukFv_MdU-z_pm0J59NIlCwzkqQjNaifh457Gg5SNGYBfKSmb7Ja8EpTWq8jVChzmGHLHTy6s5oy5_AK4F8fHrupB9VTxD71S3jzRaUxCJBXH97tvpUsbimYlzE4yLuSyMu3QKQxgVEMj51C_yLSELtDq1_fK3OYcHU9q9ZVHNG1Ue1YPuTfuDXRb_kkIH_pVnR1jC6opkQaXZVjRN04EgIgCiV0F0X9pgYNrMhqJfESoSOF]--></g></svg>