<?xml version="1.0" encoding="UTF-8" standalone="no"?><svg xmlns="http://www.w3.org/2000/svg" xmlns:xlink="http://www.w3.org/1999/xlink" contentStyleType="text/css" height="555px" preserveAspectRatio="none" style="width:619px;height:555px;background:#FFFFFF;" version="1.1" viewBox="0 0 619 555" width="619px" zoomAndPan="magnify"><defs/><g><rect fill="#FFFFFF" height="55.7031" style="stroke:#181818;stroke-width:1.0;" width="10" x="193" y="87.5703"/><rect fill="#FFFFFF" height="124.0547" style="stroke:#181818;stroke-width:1.0;" width="10" x="193" y="359.2891"/><rect fill="#FFFFFF" height="41.3516" style="stroke:#181818;stroke-width:1.0;" width="10" x="198" y="397.6406"/><rect fill="#FFFFFF" height="206.0156" style="stroke:#181818;stroke-width:1.0;" width="10" x="396" y="153.2734"/><rect fill="#FFFFFF" height="128.0547" style="stroke:#181818;stroke-width:1.0;" width="10" x="401" y="193.8828"/><rect fill="#FFFFFF" height="41.3516" style="stroke:#181818;stroke-width:1.0;" width="10" x="406" y="237.2344"/><rect fill="none" height="351.4219" style="stroke:#000000;stroke-width:1.5;" width="477.5" x="135.5" y="102.5703"/><line style="stroke:#181818;stroke-width:0.5;stroke-dasharray:5.0,5.0;" x1="197.5" x2="197.5" y1="55.2188" y2="501.3438"/><line style="stroke:#181818;stroke-width:0.5;stroke-dasharray:5.0,5.0;" x1="401" x2="401" y1="152.2266" y2="501.3438"/><rect fill="#E3E3E3" height="49.2188" rx="2.5" ry="2.5" style="stroke:#181818;stroke-width:0.5;" width="105" x="145.5" y="5"/><text fill="#000000" font-family="sans-serif" font-size="14" lengthAdjust="spacing" textLength="91" x="152.5" y="26.5332">jobRepository:</text><text fill="#000000" font-family="sans-serif" font-size="14" lengthAdjust="spacing" textLength="90" x="153" y="44.1426">JobRepository</text><rect fill="#E3E3E3" height="49.2188" rx="2.5" ry="2.5" style="stroke:#181818;stroke-width:0.5;" width="105" x="145.5" y="500.3438"/><text fill="#000000" font-family="sans-serif" font-size="14" lengthAdjust="spacing" textLength="91" x="152.5" y="521.877">jobRepository:</text><text fill="#000000" font-family="sans-serif" font-size="14" lengthAdjust="spacing" textLength="90" x="153" y="539.4863">JobRepository</text><rect fill="#E3E3E3" height="31.6094" rx="2.5" ry="2.5" style="stroke:#181818;stroke-width:0.5;" width="40" x="381" y="500.3438"/><text fill="#000000" font-family="sans-serif" font-size="14" lengthAdjust="spacing" textLength="26" x="388" y="521.877">:Job</text><rect fill="#FFFFFF" height="55.7031" style="stroke:#181818;stroke-width:1.0;" width="10" x="193" y="87.5703"/><rect fill="#FFFFFF" height="124.0547" style="stroke:#181818;stroke-width:1.0;" width="10" x="193" y="359.2891"/><rect fill="#FFFFFF" height="41.3516" style="stroke:#181818;stroke-width:1.0;" width="10" x="198" y="397.6406"/><rect fill="#FFFFFF" height="206.0156" style="stroke:#181818;stroke-width:1.0;" width="10" x="396" y="153.2734"/><rect fill="#FFFFFF" height="128.0547" style="stroke:#181818;stroke-width:1.0;" width="10" x="401" y="193.8828"/><rect fill="#FFFFFF" height="41.3516" style="stroke:#181818;stroke-width:1.0;" width="10" x="406" y="237.2344"/><polygon fill="#181818" points="181,83.5703,191,87.5703,181,91.5703,185,87.5703" style="stroke:#181818;stroke-width:1.0;"/><line style="stroke:#181818;stroke-width:1.0;" x1="0" x2="187" y1="87.5703" y2="87.5703"/><text fill="#000000" font-family="sans-serif" font-size="13" font-weight="bold" lengthAdjust="spacing" textLength="14" x="7" y="82.7139">12</text><text fill="#000000" font-family="sans-serif" font-size="13" lengthAdjust="spacing" textLength="156" x="25" y="82.7139">createJob(title, description)</text><path d="M135.5,102.5703 L249.5,102.5703 L249.5,110.9219 L239.5,120.9219 L135.5,120.9219 L135.5,102.5703 " fill="#EEEEEE" style="stroke:#000000;stroke-width:1.5;"/><rect fill="none" height="351.4219" style="stroke:#000000;stroke-width:1.5;" width="477.5" x="135.5" y="102.5703"/><text fill="#000000" font-family="sans-serif" font-size="13" font-weight="bold" lengthAdjust="spacing" textLength="69" x="150.5" y="117.0654">Create Job</text><polygon fill="#181818" points="369,139.2734,379,143.2734,369,147.2734,373,143.2734" style="stroke:#181818;stroke-width:1.0;"/><line style="stroke:#181818;stroke-width:1.0;" x1="198" x2="375" y1="143.2734" y2="143.2734"/><text fill="#000000" font-family="sans-serif" font-size="13" font-weight="bold" lengthAdjust="spacing" textLength="14" x="205" y="138.417">13</text><text fill="#000000" font-family="sans-serif" font-size="13" lengthAdjust="spacing" textLength="136" x="223" y="138.417">create(title, description)</text><rect fill="#E3E3E3" height="31.6094" rx="2.5" ry="2.5" style="stroke:#181818;stroke-width:0.5;" width="40" x="381" y="120.9219"/><text fill="#000000" font-family="sans-serif" font-size="14" lengthAdjust="spacing" textLength="26" x="388" y="142.4551">:Job</text><line style="stroke:#181818;stroke-width:1.0;" x1="406" x2="453" y1="180.8828" y2="180.8828"/><line style="stroke:#181818;stroke-width:1.0;" x1="453" x2="453" y1="180.8828" y2="193.8828"/><line style="stroke:#181818;stroke-width:1.0;" x1="412" x2="453" y1="193.8828" y2="193.8828"/><polygon fill="#181818" points="422,189.8828,412,193.8828,422,197.8828,418,193.8828" style="stroke:#181818;stroke-width:1.0;"/><text fill="#000000" font-family="sans-serif" font-size="13" font-weight="bold" lengthAdjust="spacing" textLength="14" x="418" y="176.0264">14</text><text fill="#000000" font-family="sans-serif" font-size="13" lengthAdjust="spacing" textLength="85" x="436" y="176.0264">verifyFilled(job)</text><line style="stroke:#181818;stroke-width:1.0;" x1="411" x2="458" y1="224.2344" y2="224.2344"/><line style="stroke:#181818;stroke-width:1.0;" x1="458" x2="458" y1="224.2344" y2="237.2344"/><line style="stroke:#181818;stroke-width:1.0;" x1="417" x2="458" y1="237.2344" y2="237.2344"/><polygon fill="#181818" points="427,233.2344,417,237.2344,427,241.2344,423,237.2344" style="stroke:#181818;stroke-width:1.0;"/><text fill="#000000" font-family="sans-serif" font-size="13" font-weight="bold" lengthAdjust="spacing" textLength="14" x="423" y="219.3779">15</text><text fill="#000000" font-family="sans-serif" font-size="13" lengthAdjust="spacing" textLength="160" x="441" y="219.3779">verifySpecialCharacters(job)</text><line style="stroke:#181818;stroke-width:1.0;stroke-dasharray:2.0,2.0;" x1="416" x2="458" y1="277.5859" y2="277.5859"/><line style="stroke:#181818;stroke-width:1.0;stroke-dasharray:2.0,2.0;" x1="458" x2="458" y1="277.5859" y2="290.5859"/><line style="stroke:#181818;stroke-width:1.0;stroke-dasharray:2.0,2.0;" x1="411" x2="458" y1="290.5859" y2="290.5859"/><polygon fill="#181818" points="421,286.5859,411,290.5859,421,294.5859,417,290.5859" style="stroke:#181818;stroke-width:1.0;"/><text fill="#000000" font-family="sans-serif" font-size="13" font-weight="bold" lengthAdjust="spacing" textLength="14" x="423" y="272.7295">16</text><text fill="#000000" font-family="sans-serif" font-size="13" lengthAdjust="spacing" textLength="4" x="441" y="272.7295"> </text><line style="stroke:#181818;stroke-width:1.0;stroke-dasharray:2.0,2.0;" x1="411" x2="453" y1="320.9375" y2="320.9375"/><line style="stroke:#181818;stroke-width:1.0;stroke-dasharray:2.0,2.0;" x1="453" x2="453" y1="320.9375" y2="333.9375"/><line style="stroke:#181818;stroke-width:1.0;stroke-dasharray:2.0,2.0;" x1="406" x2="453" y1="333.9375" y2="333.9375"/><polygon fill="#181818" points="416,329.9375,406,333.9375,416,337.9375,412,333.9375" style="stroke:#181818;stroke-width:1.0;"/><text fill="#000000" font-family="sans-serif" font-size="13" font-weight="bold" lengthAdjust="spacing" textLength="14" x="418" y="316.0811">17</text><text fill="#000000" font-family="sans-serif" font-size="13" lengthAdjust="spacing" textLength="4" x="436" y="316.0811"> </text><polygon fill="#181818" points="214,355.2891,204,359.2891,214,363.2891,210,359.2891" style="stroke:#181818;stroke-width:1.0;"/><line style="stroke:#181818;stroke-width:1.0;stroke-dasharray:2.0,2.0;" x1="208" x2="400" y1="359.2891" y2="359.2891"/><text fill="#000000" font-family="sans-serif" font-size="13" font-weight="bold" lengthAdjust="spacing" textLength="14" x="220" y="354.4326">18</text><text fill="#000000" font-family="sans-serif" font-size="13" lengthAdjust="spacing" textLength="17" x="238" y="354.4326">job</text><line style="stroke:#181818;stroke-width:1.0;" x1="203" x2="250" y1="384.6406" y2="384.6406"/><line style="stroke:#181818;stroke-width:1.0;" x1="250" x2="250" y1="384.6406" y2="397.6406"/><line style="stroke:#181818;stroke-width:1.0;" x1="209" x2="250" y1="397.6406" y2="397.6406"/><polygon fill="#181818" points="219,393.6406,209,397.6406,219,401.6406,215,397.6406" style="stroke:#181818;stroke-width:1.0;"/><text fill="#000000" font-family="sans-serif" font-size="13" font-weight="bold" lengthAdjust="spacing" textLength="14" x="215" y="379.7842">19</text><text fill="#000000" font-family="sans-serif" font-size="13" lengthAdjust="spacing" textLength="116" x="233" y="379.7842">check for duplicates</text><line style="stroke:#181818;stroke-width:1.0;stroke-dasharray:2.0,2.0;" x1="208" x2="250" y1="437.9922" y2="437.9922"/><line style="stroke:#181818;stroke-width:1.0;stroke-dasharray:2.0,2.0;" x1="250" x2="250" y1="437.9922" y2="450.9922"/><line style="stroke:#181818;stroke-width:1.0;stroke-dasharray:2.0,2.0;" x1="203" x2="250" y1="450.9922" y2="450.9922"/><polygon fill="#181818" points="213,446.9922,203,450.9922,213,454.9922,209,450.9922" style="stroke:#181818;stroke-width:1.0;"/><text fill="#000000" font-family="sans-serif" font-size="13" font-weight="bold" lengthAdjust="spacing" textLength="14" x="215" y="433.1357">20</text><text fill="#000000" font-family="sans-serif" font-size="13" lengthAdjust="spacing" textLength="4" x="233" y="433.1357"> </text><polygon fill="#181818" points="11,479.3438,1,483.3438,11,487.3438,7,483.3438" style="stroke:#181818;stroke-width:1.0;"/><line style="stroke:#181818;stroke-width:1.0;stroke-dasharray:2.0,2.0;" x1="5" x2="197" y1="483.3438" y2="483.3438"/><text fill="#000000" font-family="sans-serif" font-size="13" font-weight="bold" lengthAdjust="spacing" textLength="14" x="17" y="478.4873">21</text><text fill="#000000" font-family="sans-serif" font-size="13" lengthAdjust="spacing" textLength="17" x="35" y="478.4873">job</text><!--SRC=[bL8xRyCW4DxlLvooD8dgeHsZgaka3XsRjGk1Ytq91WJdjFdtfNbO8RAZbetxNi17sh4BAgeMM- -yRg9l2ILs1Ab7Wj8xLTDA3fOmaXRbQdjDI8qo_ejTZHjb4m6eJhphsZL5V7e6U6ZO46wybxN_XgmHrXoK4vni_Vg3WayiFXuMd-xzUZz1bR2ObE95nYuSg5vBAYvGHr92UJeL5akFQ2Zfo47OknaeBRpF-4q2rD5t0PT7xT4PCA_I-nGsd_SXWmc_EaCZENXUrt0VTGx8zdkAl3cyiRLaflcrPiF2ot10kmgaMTbbaxlIGZ7zrURaqy_Acy0GxJwbw6OxBhdpO4Cjb9Ktf7VvgqKqNR2iiqtwf-cjAzojyERyv0oyLDNWTKTzHe4V]--></g></svg>