<?xml version="1.0" encoding="UTF-8" standalone="no"?><svg xmlns="http://www.w3.org/2000/svg" xmlns:xlink="http://www.w3.org/1999/xlink" contentStyleType="text/css" height="190px" preserveAspectRatio="none" style="width:762px;height:190px;background:#FFFFFF;" version="1.1" viewBox="0 0 762 190" width="762px" zoomAndPan="magnify"><defs/><g><!--class Team--><g id="elem_Team"><rect codeLine="13" fill="#F1F1F1" height="53.2188" id="Team" rx="2.5" ry="2.5" style="stroke:#181818;stroke-width:0.5;" width="47" x="168" y="9"/><text fill="#000000" font-family="sans-serif" font-size="14" lengthAdjust="spacing" textLength="36" x="173.5" y="28.5332">Team</text><line style="stroke:#181818;stroke-width:0.5;" x1="169" x2="214" y1="36.6094" y2="36.6094"/><text fill="#000000" font-family="sans-serif" font-size="14" lengthAdjust="spacing" textLength="35" x="174" y="55.1426">name</text></g><!--class Person--><g id="elem_Person"><rect codeLine="17" fill="#F1F1F1" height="106.0469" id="Person" rx="2.5" ry="2.5" style="stroke:#181818;stroke-width:0.5;" width="68" x="477" y="42.5"/><text fill="#000000" font-family="sans-serif" font-size="14" lengthAdjust="spacing" textLength="45" x="488.5" y="62.0332">Person</text><line style="stroke:#181818;stroke-width:0.5;" x1="478" x2="544" y1="70.1094" y2="70.1094"/><text fill="#000000" font-family="sans-serif" font-size="14" lengthAdjust="spacing" textLength="35" x="483" y="88.6426">name</text><text fill="#000000" font-family="sans-serif" font-size="14" lengthAdjust="spacing" textLength="56" x="483" y="106.252">birthdate</text><text fill="#000000" font-family="sans-serif" font-size="14" lengthAdjust="spacing" textLength="46" x="483" y="123.8613">contact</text><text fill="#000000" font-family="sans-serif" font-size="14" lengthAdjust="spacing" textLength="43" x="483" y="141.4707">idType</text></g><!--class Address--><g id="elem_Address"><rect codeLine="24" fill="#F1F1F1" height="70.8281" id="Address" rx="2.5" ry="2.5" style="stroke:#181818;stroke-width:0.5;" width="63" x="649" y="7"/><text fill="#000000" font-family="sans-serif" font-size="14" lengthAdjust="spacing" textLength="52" x="654.5" y="26.5332">Address</text><line style="stroke:#181818;stroke-width:0.5;" x1="650" x2="711" y1="34.6094" y2="34.6094"/><text fill="#000000" font-family="sans-serif" font-size="14" lengthAdjust="spacing" textLength="51" x="655" y="53.1426">zipCode</text><text fill="#000000" font-family="sans-serif" font-size="14" lengthAdjust="spacing" textLength="21" x="655" y="70.752">city</text></g><!--class Collaborator--><g id="elem_Collaborator"><rect codeLine="29" fill="#F1F1F1" height="53.2188" id="Collaborator" rx="2.5" ry="2.5" style="stroke:#181818;stroke-width:0.5;" width="105" x="311" y="9"/><text fill="#000000" font-family="sans-serif" font-size="14" lengthAdjust="spacing" textLength="78" x="324.5" y="28.5332">Collaborator</text><line style="stroke:#181818;stroke-width:0.5;" x1="312" x2="415" y1="36.6094" y2="36.6094"/><text fill="#000000" font-family="sans-serif" font-size="14" lengthAdjust="spacing" textLength="93" x="317" y="55.1426">admissionDate</text></g><!--class IdentificationDocument--><g id="elem_IdentificationDocument"><rect codeLine="33" fill="#F1F1F1" height="70.8281" id="IdentificationDocument" rx="2.5" ry="2.5" style="stroke:#181818;stroke-width:0.5;" width="149" x="606" y="113"/><text fill="#000000" font-family="sans-serif" font-size="14" lengthAdjust="spacing" textLength="143" x="609" y="132.5332">IdentificationDocument</text><line style="stroke:#181818;stroke-width:0.5;" x1="607" x2="754" y1="140.6094" y2="140.6094"/><text fill="#000000" font-family="sans-serif" font-size="14" lengthAdjust="spacing" textLength="128" x="612" y="159.1426">identificationNumber</text><text fill="#000000" font-family="sans-serif" font-size="14" lengthAdjust="spacing" textLength="104" x="612" y="176.752">taxPayerNumber</text></g><!--class HRM--><g id="elem_HRM"><rect fill="#F1F1F1" height="35.6094" id="HRM" rx="2.5" ry="2.5" style="stroke:#181818;stroke-width:0.5;" width="36" x="7" y="68.5"/><text fill="#000000" font-family="sans-serif" font-size="14" lengthAdjust="spacing" textLength="30" x="10" y="88.0332">HRM</text><line style="stroke:#181818;stroke-width:0.5;" x1="8" x2="42" y1="96.1094" y2="96.1094"/></g><!--link HRM to Team--><g id="link_HRM_Team"><path codeLine="38" d="M43.29,81.14 C73.24,71.86 134.72,52.79 167.96,42.49 " fill="none" id="HRM-Team" style="stroke:#181818;stroke-width:1.0;"/><polygon fill="#000000" points="82.7758,42.1952,73.2661,42.0665,75.0066,47.6807,82.7758,42.1952" style="stroke:#000000;stroke-width:1.0;"/><text fill="#000000" font-family="sans-serif" font-size="13" lengthAdjust="spacing" textLength="50" x="87" y="48.9951">generate</text><text fill="#000000" font-family="sans-serif" font-size="13" lengthAdjust="spacing" textLength="5" x="50.9563" y="95.7455">*</text><text fill="#000000" font-family="sans-serif" font-size="13" lengthAdjust="spacing" textLength="7" x="153.017" y="60.4079">1</text></g><!--link HRM to Person--><g id="link_HRM_Person"><path codeLine="39" d="M43.23,86.82 C112.63,88.11 372.73,92.95 471.57,94.79 " fill="none" id="HRM-to-Person" style="stroke:#181818;stroke-width:1.0;"/><polygon fill="#181818" points="476.72,94.88,467.8018,90.7008,471.721,94.78,467.6418,98.6992,476.72,94.88" style="stroke:#181818;stroke-width:1.0;"/></g><!--link Person to Address--><g id="link_Person_Address"><path codeLine="40" d="M545.09,85.03 C573.57,76.02 614.57,63.04 643.79,53.8 " fill="none" id="Person-to-Address" style="stroke:#181818;stroke-width:1.0;"/><polygon fill="#181818" points="648.74,52.23,638.9517,51.1399,643.9742,53.7425,641.3716,58.7651,648.74,52.23" style="stroke:#181818;stroke-width:1.0;"/></g><!--link Collaborator to Person--><g id="link_Collaborator_Person"><path codeLine="41" d="M416.21,56.82 C434.57,64.4 454.9,72.78 471.92,79.8 " fill="none" id="Collaborator-to-Person" style="stroke:#181818;stroke-width:1.0;"/><polygon fill="#181818" points="476.63,81.74,469.8232,74.6219,472.0045,79.8413,466.7852,82.0227,476.63,81.74" style="stroke:#181818;stroke-width:1.0;"/></g><!--link Person to IdentificationDocument--><g id="link_Person_IdentificationDocument"><path codeLine="42" d="M545.09,105.97 C561.18,111.06 581.25,117.41 600.95,123.64 " fill="none" id="Person-to-IdentificationDocument" style="stroke:#181818;stroke-width:1.0;"/><polygon fill="#181818" points="605.94,125.23,598.5539,118.715,601.1701,123.7305,596.1547,126.3468,605.94,125.23" style="stroke:#181818;stroke-width:1.0;"/></g><!--link Team to Collaborator--><g id="link_Team_Collaborator"><path codeLine="43" d="M215.07,35.5 C239.37,35.5 278.83,35.5 310.82,35.5 " fill="none" id="Team-Collaborator" style="stroke:#181818;stroke-width:1.0;"/><polygon fill="#000000" points="255,26.6758,245.9549,23.7369,245.9549,29.6147,255,26.6758" style="stroke:#000000;stroke-width:1.0;"/><text fill="#000000" font-family="sans-serif" font-size="13" lengthAdjust="spacing" textLength="21" x="259" y="31.9951">has</text><text fill="#000000" font-family="sans-serif" font-size="13" lengthAdjust="spacing" textLength="5" x="223.0539" y="51.4655">*</text><text fill="#000000" font-family="sans-serif" font-size="13" lengthAdjust="spacing" textLength="20" x="283.1809" y="49.9782">1..*</text></g><!--SRC=[RL39Ri8m4BtxAqOvLWArLmv820xbq0eLVc1Y3ya8Bv4zKHkg_dkTfJH8tCPlyPitwSA-mOWENF11rp4u0eajgNHZ6jGNhEWedIM8f0LzPUU2LAC9d-mhEADDf9Ibiu04Y5pL0ePx4mUlPXvjCQMDIEIo5Thhu8zy9NXMgcP3e3dgd37CZgGE9Ycb1XESAFk_5O17H-hd3pvGJC4Fn4JrGybHQeColdACe9PXPdFgcfb_Oqoab4R_bPjjC9E9fVkNROErM8Q84kAeHUCufTnlryVSX7j3NlZC6llkkw1Rbu7UmdVCU-jAYXaM_3fWHt42yaUl7szGF1MmM43nKWp5Lr2HfvnEENazA3AzXgc-cgxGGrCXDT_ueNZ47k-hXclVbbWkytJtuGfgJ7cJNm00]--></g></svg>