<?xml version="1.0" encoding="UTF-8" standalone="no"?><svg xmlns="http://www.w3.org/2000/svg" xmlns:xlink="http://www.w3.org/1999/xlink" contentStyleType="text/css" height="171px" preserveAspectRatio="none" style="width:764px;height:171px;background:#FFFFFF;" version="1.1" viewBox="0 0 764 171" width="764px" zoomAndPan="magnify"><defs/><g><!--class Team--><g id="elem_Team"><rect codeLine="13" fill="#F1F1F1" height="70.8281" id="Team" rx="2.5" ry="2.5" style="stroke:#181818;stroke-width:0.5;" width="70" x="168" y="7"/><text fill="#000000" font-family="sans-serif" font-size="14" lengthAdjust="spacing" textLength="36" x="185" y="26.5332">Team</text><line style="stroke:#181818;stroke-width:0.5;" x1="169" x2="237" y1="34.6094" y2="34.6094"/><text fill="#000000" font-family="sans-serif" font-size="14" lengthAdjust="spacing" textLength="35" x="174" y="53.1426">name</text><text fill="#000000" font-family="sans-serif" font-size="14" lengthAdjust="spacing" textLength="58" x="174" y="70.752">members</text></g><!--class Person--><g id="elem_Person"><rect codeLine="18" fill="#F1F1F1" height="106.0469" id="Person" rx="2.5" ry="2.5" style="stroke:#181818;stroke-width:0.5;" width="68" x="479" y="58.5"/><text fill="#000000" font-family="sans-serif" font-size="14" lengthAdjust="spacing" textLength="45" x="490.5" y="78.0332">Person</text><line style="stroke:#181818;stroke-width:0.5;" x1="480" x2="546" y1="86.1094" y2="86.1094"/><text fill="#000000" font-family="sans-serif" font-size="14" lengthAdjust="spacing" textLength="35" x="485" y="104.6426">name</text><text fill="#000000" font-family="sans-serif" font-size="14" lengthAdjust="spacing" textLength="56" x="485" y="122.252">birthdate</text><text fill="#000000" font-family="sans-serif" font-size="14" lengthAdjust="spacing" textLength="51" x="485" y="139.8613">address</text><text fill="#000000" font-family="sans-serif" font-size="14" lengthAdjust="spacing" textLength="46" x="485" y="157.4707">contact</text></g><!--class IdentificationDocument--><g id="elem_IdentificationDocument"><rect codeLine="26" fill="#F1F1F1" height="70.8281" id="IdentificationDocument" rx="2.5" ry="2.5" style="stroke:#181818;stroke-width:0.5;" width="149" x="608" y="76"/><text fill="#000000" font-family="sans-serif" font-size="14" lengthAdjust="spacing" textLength="143" x="611" y="95.5332">IdentificationDocument</text><line style="stroke:#181818;stroke-width:0.5;" x1="609" x2="756" y1="103.6094" y2="103.6094"/><text fill="#000000" font-family="sans-serif" font-size="14" lengthAdjust="spacing" textLength="128" x="614" y="122.1426">identificationNumber</text><text fill="#000000" font-family="sans-serif" font-size="14" lengthAdjust="spacing" textLength="104" x="614" y="139.752">taxPayerNumber</text></g><!--class HRM--><g id="elem_HRM"><rect fill="#F1F1F1" height="35.6094" id="HRM" rx="2.5" ry="2.5" style="stroke:#181818;stroke-width:0.5;" width="36" x="7" y="84.5"/><text fill="#000000" font-family="sans-serif" font-size="14" lengthAdjust="spacing" textLength="30" x="10" y="104.0332">HRM</text><line style="stroke:#181818;stroke-width:0.5;" x1="8" x2="42" y1="112.1094" y2="112.1094"/></g><!--class Collaborator--><g id="elem_Collaborator"><rect fill="#F1F1F1" height="35.6094" id="Collaborator" rx="2.5" ry="2.5" style="stroke:#181818;stroke-width:0.5;" width="84" x="334" y="33.5"/><text fill="#000000" font-family="sans-serif" font-size="14" lengthAdjust="spacing" textLength="78" x="337" y="53.0332">Collaborator</text><line style="stroke:#181818;stroke-width:0.5;" x1="335" x2="417" y1="61.1094" y2="61.1094"/></g><!--link HRM to Team--><g id="link_HRM_Team"><path codeLine="31" d="M43.2,96.64 C72,86.82 130.51,66.87 167.9,54.12 " fill="none" id="HRM-Team" style="stroke:#181818;stroke-width:1.0;"/><polygon fill="#000000" points="82.7325,55.0621,73.2229,55.1996,75.1199,60.7629,82.7325,55.0621" style="stroke:#000000;stroke-width:1.0;"/><text fill="#000000" font-family="sans-serif" font-size="13" lengthAdjust="spacing" textLength="50" x="87" y="61.9951">generate</text><text fill="#000000" font-family="sans-serif" font-size="13" lengthAdjust="spacing" textLength="5" x="51.0919" y="111.0925">*</text><text fill="#000000" font-family="sans-serif" font-size="13" lengthAdjust="spacing" textLength="7" x="152.9388" y="71.7157">1</text></g><!--link HRM to Person--><g id="link_HRM_Person"><path codeLine="32" d="M43.01,102.82 C112.33,104.1 374.51,108.95 473.68,110.79 " fill="none" id="HRM-to-Person" style="stroke:#181818;stroke-width:1.0;"/><polygon fill="#181818" points="478.85,110.89,469.9199,106.7363,473.8507,110.8043,469.7828,114.7351,478.85,110.89" style="stroke:#181818;stroke-width:1.0;"/></g><!--link Collaborator to Person--><g id="link_Collaborator_Person"><path codeLine="33" d="M417.5,69.5 C435.39,77.45 456.31,86.75 473.91,94.57 " fill="none" id="Collaborator-to-Person" style="stroke:#181818;stroke-width:1.0;"/><polygon fill="#181818" points="478.79,96.74,472.186,89.4333,474.2198,94.712,468.9411,96.7457,478.79,96.74" style="stroke:#181818;stroke-width:1.0;"/></g><!--link Person to IdentificationDocument--><g id="link_Person_IdentificationDocument"><path codeLine="34" d="M547.09,111.5 C563.11,111.5 583.08,111.5 602.7,111.5 " fill="none" id="Person-to-IdentificationDocument" style="stroke:#181818;stroke-width:1.0;"/><polygon fill="#181818" points="607.94,111.5,598.94,107.5,602.94,111.5,598.94,115.5,607.94,111.5" style="stroke:#181818;stroke-width:1.0;"/></g><!--link Team to Collaborator--><g id="link_Team_Collaborator"><path codeLine="35" d="M238.19,44.3 C265.78,45.75 304.66,47.8 333.93,49.34 " fill="none" id="Team-Collaborator" style="stroke:#181818;stroke-width:1.0;"/><polygon fill="#000000" points="277.9931,37.9386,269.115,34.5283,268.806,40.398,277.9931,37.9386" style="stroke:#000000;stroke-width:1.0;"/><text fill="#000000" font-family="sans-serif" font-size="13" lengthAdjust="spacing" textLength="21" x="282" y="42.9951">has</text><text fill="#000000" font-family="sans-serif" font-size="13" lengthAdjust="spacing" textLength="5" x="245.9636" y="59.8703">*</text><text fill="#000000" font-family="sans-serif" font-size="13" lengthAdjust="spacing" textLength="20" x="305.9568" y="63.7862">1..*</text></g><!--SRC=[RL3DJW8n4BxFKqpsQ0BHAmSIemSvQ8Zu0hFji6te3sbdesXyTsSB8YIUEltc-slhpgSz5OeOSyh6bHmPfOmCzRpPazdHm1iv1CR2HYWDuP9G7TdyxjE0MmgL0G9l1ILZyOCJj7uI-PpWGcC2rNelKdm_2gzCJXl_oNWBuBnbDBuOpMXpP77PLW1e8dnZrNy1OgB8UaIEFPSAtx-4jTvoQfGp2R7tHPmbETx8siArjbd3XOp0dyFASXA_zOQcte_PZ561oT1VRLx6ALfXeOyr7RYS03LwUdt6xgR3sGoxkwwLNk30YOjMqD1bO-XwYQV2y913e3uh8PVhpUb5H-p_Sj2-vPmud-jqPRX0HrLZVm00]--></g></svg>