<?xml version="1.0" encoding="UTF-8" standalone="no"?><svg xmlns="http://www.w3.org/2000/svg" xmlns:xlink="http://www.w3.org/1999/xlink" contentStyleType="text/css" height="842px" preserveAspectRatio="none" style="width:2538px;height:842px;background:#FFFFFF;" version="1.1" viewBox="0 0 2538 842" width="2538px" zoomAndPan="magnify"><defs/><g><text fill="#000000" font-family="sans-serif" font-size="14" font-weight="bold" lengthAdjust="spacing" textLength="284" x="1126" y="29.5332">System Sequence Diagram (SSD) - US006</text><rect fill="#FFFFFF" height="611.2891" style="stroke:#181818;stroke-width:1.0;" width="10" x="18.5" y="131.2188"/><rect fill="#FFFFFF" height="315.7734" style="stroke:#181818;stroke-width:1.0;" width="10" x="579.5" y="153.5703"/><rect fill="#FFFFFF" height="30.3516" style="stroke:#181818;stroke-width:1.0;" width="10" x="579.5" y="499.6953"/><rect fill="#FFFFFF" height="30.3516" style="stroke:#181818;stroke-width:1.0;" width="10" x="579.5" y="560.3984"/><rect fill="#FFFFFF" height="30.3516" style="stroke:#181818;stroke-width:1.0;" width="10" x="579.5" y="712.1563"/><rect fill="#FFFFFF" height="30.3516" style="stroke:#181818;stroke-width:1.0;" width="10" x="1138.5" y="226.5313"/><rect fill="#FFFFFF" height="30.3516" style="stroke:#181818;stroke-width:1.0;" width="10" x="1138.5" y="287.2344"/><rect fill="#FFFFFF" height="30.3516" style="stroke:#181818;stroke-width:1.0;" width="10" x="1138.5" y="347.9375"/><rect fill="#FFFFFF" height="30.3516" style="stroke:#181818;stroke-width:1.0;" width="10" x="1138.5" y="408.6406"/><rect fill="#FFFFFF" height="30.3516" style="stroke:#181818;stroke-width:1.0;" width="10" x="1138.5" y="590.75"/><rect fill="#FFFFFF" height="30.3516" style="stroke:#181818;stroke-width:1.0;" width="10" x="1279" y="256.8828"/><rect fill="#FFFFFF" height="30.3516" style="stroke:#181818;stroke-width:1.0;" width="10" x="1386" y="317.5859"/><rect fill="#FFFFFF" height="30.3516" style="stroke:#181818;stroke-width:1.0;" width="10" x="1386" y="621.1016"/><rect fill="#FFFFFF" height="30.3516" style="stroke:#181818;stroke-width:1.0;" width="10" x="1526" y="378.2891"/><rect fill="#FFFFFF" height="30.3516" style="stroke:#181818;stroke-width:1.0;" width="10" x="1945" y="651.4531"/><rect fill="#FFFFFF" height="69.7031" style="stroke:#181818;stroke-width:1.0;" width="10" x="2504" y="681.8047"/><line style="stroke:#181818;stroke-width:0.5;stroke-dasharray:5.0,5.0;" x1="23" x2="23" y1="121.2188" y2="760.5078"/><line style="stroke:#181818;stroke-width:0.5;stroke-dasharray:5.0,5.0;" x1="584.5" x2="584.5" y1="121.2188" y2="760.5078"/><line style="stroke:#181818;stroke-width:0.5;stroke-dasharray:5.0,5.0;" x1="1143.5" x2="1143.5" y1="192.875" y2="760.5078"/><line style="stroke:#181818;stroke-width:0.5;stroke-dasharray:5.0,5.0;" x1="1283.5" x2="1283.5" y1="121.2188" y2="760.5078"/><line style="stroke:#181818;stroke-width:0.5;stroke-dasharray:5.0,5.0;" x1="1390.5" x2="1390.5" y1="121.2188" y2="760.5078"/><line style="stroke:#181818;stroke-width:0.5;stroke-dasharray:5.0,5.0;" x1="1530.5" x2="1530.5" y1="121.2188" y2="760.5078"/><line style="stroke:#181818;stroke-width:0.5;stroke-dasharray:5.0,5.0;" x1="1950" x2="1950" y1="121.2188" y2="760.5078"/><line style="stroke:#181818;stroke-width:0.5;stroke-dasharray:5.0,5.0;" x1="2509" x2="2509" y1="121.2188" y2="760.5078"/><text fill="#000000" font-family="sans-serif" font-size="14" lengthAdjust="spacing" textLength="31" x="5" y="118.1426">GSM</text><ellipse cx="23.5" cy="52.1094" fill="#E3E3E3" rx="8" ry="8" style="stroke:#181818;stroke-width:0.5;"/><path d="M23.5,60.1094 L23.5,87.1094 M10.5,68.1094 L36.5,68.1094 M23.5,87.1094 L10.5,102.1094 M23.5,87.1094 L36.5,102.1094 " fill="none" style="stroke:#181818;stroke-width:0.5;"/><text fill="#000000" font-family="sans-serif" font-size="14" lengthAdjust="spacing" textLength="31" x="5" y="774.041">GSM</text><ellipse cx="23.5" cy="785.6172" fill="#E3E3E3" rx="8" ry="8" style="stroke:#181818;stroke-width:0.5;"/><path d="M23.5,793.6172 L23.5,820.6172 M10.5,801.6172 L36.5,801.6172 M23.5,820.6172 L10.5,835.6172 M23.5,820.6172 L36.5,835.6172 " fill="none" style="stroke:#181818;stroke-width:0.5;"/><rect fill="#E3E3E3" height="31.6094" rx="2.5" ry="2.5" style="stroke:#181818;stroke-width:0.5;" width="114" x="527.5" y="88.6094"/><text fill="#000000" font-family="sans-serif" font-size="14" lengthAdjust="spacing" textLength="100" x="534.5" y="110.1426">:AddNewEntryUI</text><rect fill="#E3E3E3" height="31.6094" rx="2.5" ry="2.5" style="stroke:#181818;stroke-width:0.5;" width="114" x="527.5" y="759.5078"/><text fill="#000000" font-family="sans-serif" font-size="14" lengthAdjust="spacing" textLength="100" x="534.5" y="781.041">:AddNewEntryUI</text><rect fill="#E3E3E3" height="31.6094" rx="2.5" ry="2.5" style="stroke:#181818;stroke-width:0.5;" width="164" x="1061.5" y="759.5078"/><text fill="#000000" font-family="sans-serif" font-size="14" lengthAdjust="spacing" textLength="150" x="1068.5" y="781.041">:AddNewEntryController</text><rect fill="#E3E3E3" height="31.6094" rx="2.5" ry="2.5" style="stroke:#181818;stroke-width:0.5;" width="97" x="1235.5" y="88.6094"/><text fill="#000000" font-family="sans-serif" font-size="14" lengthAdjust="spacing" textLength="83" x="1242.5" y="110.1426">:Repositories</text><rect fill="#E3E3E3" height="31.6094" rx="2.5" ry="2.5" style="stroke:#181818;stroke-width:0.5;" width="97" x="1235.5" y="759.5078"/><text fill="#000000" font-family="sans-serif" font-size="14" lengthAdjust="spacing" textLength="83" x="1242.5" y="781.041">:Repositories</text><rect fill="#E3E3E3" height="49.2188" rx="2.5" ry="2.5" style="stroke:#181818;stroke-width:0.5;" width="97" x="1342.5" y="71"/><text fill="#000000" font-family="sans-serif" font-size="14" lengthAdjust="spacing" textLength="74" x="1354" y="92.5332">repositories</text><text fill="#000000" font-family="sans-serif" font-size="14" lengthAdjust="spacing" textLength="83" x="1349.5" y="110.1426">:Repositories</text><rect fill="#E3E3E3" height="49.2188" rx="2.5" ry="2.5" style="stroke:#181818;stroke-width:0.5;" width="97" x="1342.5" y="759.5078"/><text fill="#000000" font-family="sans-serif" font-size="14" lengthAdjust="spacing" textLength="74" x="1354" y="781.041">repositories</text><text fill="#000000" font-family="sans-serif" font-size="14" lengthAdjust="spacing" textLength="83" x="1349.5" y="798.6504">:Repositories</text><rect fill="#E3E3E3" height="49.2188" rx="2.5" ry="2.5" style="stroke:#181818;stroke-width:0.5;" width="163" x="1449.5" y="71"/><text fill="#000000" font-family="sans-serif" font-size="14" lengthAdjust="spacing" textLength="149" x="1456.5" y="92.5332">greenSpaceRepository:</text><text fill="#000000" font-family="sans-serif" font-size="14" lengthAdjust="spacing" textLength="114" x="1474" y="110.1426">VehicleRepository</text><rect fill="#E3E3E3" height="49.2188" rx="2.5" ry="2.5" style="stroke:#181818;stroke-width:0.5;" width="163" x="1449.5" y="759.5078"/><text fill="#000000" font-family="sans-serif" font-size="14" lengthAdjust="spacing" textLength="149" x="1456.5" y="781.041">greenSpaceRepository:</text><text fill="#000000" font-family="sans-serif" font-size="14" lengthAdjust="spacing" textLength="114" x="1474" y="798.6504">VehicleRepository</text><rect fill="#E3E3E3" height="31.6094" rx="2.5" ry="2.5" style="stroke:#181818;stroke-width:0.5;" width="114" x="1893" y="88.6094"/><text fill="#000000" font-family="sans-serif" font-size="14" lengthAdjust="spacing" textLength="100" x="1900" y="110.1426">entryRepository</text><rect fill="#E3E3E3" height="31.6094" rx="2.5" ry="2.5" style="stroke:#181818;stroke-width:0.5;" width="114" x="1893" y="759.5078"/><text fill="#000000" font-family="sans-serif" font-size="14" lengthAdjust="spacing" textLength="100" x="1900" y="781.041">entryRepository</text><rect fill="#E3E3E3" height="31.6094" rx="2.5" ry="2.5" style="stroke:#181818;stroke-width:0.5;" width="46" x="2486" y="88.6094"/><text fill="#000000" font-family="sans-serif" font-size="14" lengthAdjust="spacing" textLength="32" x="2493" y="110.1426">entry</text><rect fill="#E3E3E3" height="31.6094" rx="2.5" ry="2.5" style="stroke:#181818;stroke-width:0.5;" width="46" x="2486" y="759.5078"/><text fill="#000000" font-family="sans-serif" font-size="14" lengthAdjust="spacing" textLength="32" x="2493" y="781.041">entry</text><rect fill="#FFFFFF" height="611.2891" style="stroke:#181818;stroke-width:1.0;" width="10" x="18.5" y="131.2188"/><rect fill="#FFFFFF" height="315.7734" style="stroke:#181818;stroke-width:1.0;" width="10" x="579.5" y="153.5703"/><rect fill="#FFFFFF" height="30.3516" style="stroke:#181818;stroke-width:1.0;" width="10" x="579.5" y="499.6953"/><rect fill="#FFFFFF" height="30.3516" style="stroke:#181818;stroke-width:1.0;" width="10" x="579.5" y="560.3984"/><rect fill="#FFFFFF" height="30.3516" style="stroke:#181818;stroke-width:1.0;" width="10" x="579.5" y="712.1563"/><rect fill="#FFFFFF" height="30.3516" style="stroke:#181818;stroke-width:1.0;" width="10" x="1138.5" y="226.5313"/><rect fill="#FFFFFF" height="30.3516" style="stroke:#181818;stroke-width:1.0;" width="10" x="1138.5" y="287.2344"/><rect fill="#FFFFFF" height="30.3516" style="stroke:#181818;stroke-width:1.0;" width="10" x="1138.5" y="347.9375"/><rect fill="#FFFFFF" height="30.3516" style="stroke:#181818;stroke-width:1.0;" width="10" x="1138.5" y="408.6406"/><rect fill="#FFFFFF" height="30.3516" style="stroke:#181818;stroke-width:1.0;" width="10" x="1138.5" y="590.75"/><rect fill="#FFFFFF" height="30.3516" style="stroke:#181818;stroke-width:1.0;" width="10" x="1279" y="256.8828"/><rect fill="#FFFFFF" height="30.3516" style="stroke:#181818;stroke-width:1.0;" width="10" x="1386" y="317.5859"/><rect fill="#FFFFFF" height="30.3516" style="stroke:#181818;stroke-width:1.0;" width="10" x="1386" y="621.1016"/><rect fill="#FFFFFF" height="30.3516" style="stroke:#181818;stroke-width:1.0;" width="10" x="1526" y="378.2891"/><rect fill="#FFFFFF" height="30.3516" style="stroke:#181818;stroke-width:1.0;" width="10" x="1945" y="651.4531"/><rect fill="#FFFFFF" height="69.7031" style="stroke:#181818;stroke-width:1.0;" width="10" x="2504" y="681.8047"/><polygon fill="#181818" points="567.5,149.5703,577.5,153.5703,567.5,157.5703,571.5,153.5703" style="stroke:#181818;stroke-width:1.0;"/><line style="stroke:#181818;stroke-width:1.0;" x1="28.5" x2="573.5" y1="153.5703" y2="153.5703"/><text fill="#000000" font-family="sans-serif" font-size="13" font-weight="bold" lengthAdjust="spacing" textLength="7" x="35.5" y="148.7139">1</text><text fill="#000000" font-family="sans-serif" font-size="13" lengthAdjust="spacing" textLength="139" x="46.5" y="148.7139">asks to add a new entry</text><polygon fill="#181818" points="1049.5,179.9219,1059.5,183.9219,1049.5,187.9219,1053.5,183.9219" style="stroke:#181818;stroke-width:1.0;"/><line style="stroke:#181818;stroke-width:1.0;" x1="589.5" x2="1055.5" y1="183.9219" y2="183.9219"/><text fill="#000000" font-family="sans-serif" font-size="13" font-weight="bold" lengthAdjust="spacing" textLength="7" x="596.5" y="179.0654">2</text><text fill="#000000" font-family="sans-serif" font-size="13" lengthAdjust="spacing" textLength="36" x="607.5" y="179.0654">create</text><rect fill="#E3E3E3" height="31.6094" rx="2.5" ry="2.5" style="stroke:#181818;stroke-width:0.5;" width="164" x="1061.5" y="161.5703"/><text fill="#000000" font-family="sans-serif" font-size="14" lengthAdjust="spacing" textLength="150" x="1068.5" y="183.1035">:AddNewEntryController</text><polygon fill="#181818" points="1126.5,222.5313,1136.5,226.5313,1126.5,230.5313,1130.5,226.5313" style="stroke:#181818;stroke-width:1.0;"/><line style="stroke:#181818;stroke-width:1.0;" x1="589.5" x2="1132.5" y1="226.5313" y2="226.5313"/><text fill="#000000" font-family="sans-serif" font-size="13" font-weight="bold" lengthAdjust="spacing" textLength="7" x="596.5" y="221.6748">3</text><text fill="#000000" font-family="sans-serif" font-size="13" lengthAdjust="spacing" textLength="135" x="607.5" y="221.6748">get list of green spaces</text><polygon fill="#181818" points="1267,252.8828,1277,256.8828,1267,260.8828,1271,256.8828" style="stroke:#181818;stroke-width:1.0;"/><line style="stroke:#181818;stroke-width:1.0;" x1="1143.5" x2="1273" y1="256.8828" y2="256.8828"/><text fill="#000000" font-family="sans-serif" font-size="13" font-weight="bold" lengthAdjust="spacing" textLength="7" x="1150.5" y="252.0264">4</text><text fill="#000000" font-family="sans-serif" font-size="13" lengthAdjust="spacing" textLength="75" x="1161.5" y="252.0264">getInstance()</text><polygon fill="#181818" points="1159.5,283.2344,1149.5,287.2344,1159.5,291.2344,1155.5,287.2344" style="stroke:#181818;stroke-width:1.0;"/><line style="stroke:#181818;stroke-width:1.0;stroke-dasharray:2.0,2.0;" x1="1153.5" x2="1283" y1="287.2344" y2="287.2344"/><text fill="#000000" font-family="sans-serif" font-size="13" font-weight="bold" lengthAdjust="spacing" textLength="7" x="1165.5" y="282.3779">5</text><text fill="#000000" font-family="sans-serif" font-size="13" lengthAdjust="spacing" textLength="67" x="1176.5" y="282.3779">repositories</text><polygon fill="#181818" points="1374,313.5859,1384,317.5859,1374,321.5859,1378,317.5859" style="stroke:#181818;stroke-width:1.0;"/><line style="stroke:#181818;stroke-width:1.0;" x1="1143.5" x2="1380" y1="317.5859" y2="317.5859"/><text fill="#000000" font-family="sans-serif" font-size="13" font-weight="bold" lengthAdjust="spacing" textLength="7" x="1150.5" y="312.7295">6</text><text fill="#000000" font-family="sans-serif" font-size="13" lengthAdjust="spacing" textLength="152" x="1161.5" y="312.7295">getGreenSpaceRepository</text><polygon fill="#181818" points="1159.5,343.9375,1149.5,347.9375,1159.5,351.9375,1155.5,347.9375" style="stroke:#181818;stroke-width:1.0;"/><line style="stroke:#181818;stroke-width:1.0;stroke-dasharray:2.0,2.0;" x1="1153.5" x2="1390" y1="347.9375" y2="347.9375"/><text fill="#000000" font-family="sans-serif" font-size="13" font-weight="bold" lengthAdjust="spacing" textLength="7" x="1165.5" y="343.0811">7</text><text fill="#000000" font-family="sans-serif" font-size="13" lengthAdjust="spacing" textLength="134" x="1176.5" y="343.0811">GreenSpaceRepository</text><polygon fill="#181818" points="1514,374.2891,1524,378.2891,1514,382.2891,1518,378.2891" style="stroke:#181818;stroke-width:1.0;"/><line style="stroke:#181818;stroke-width:1.0;" x1="1143.5" x2="1520" y1="378.2891" y2="378.2891"/><text fill="#000000" font-family="sans-serif" font-size="13" font-weight="bold" lengthAdjust="spacing" textLength="7" x="1150.5" y="373.4326">8</text><text fill="#000000" font-family="sans-serif" font-size="13" lengthAdjust="spacing" textLength="119" x="1161.5" y="373.4326">getGreenSpaceList()</text><polygon fill="#181818" points="1159.5,404.6406,1149.5,408.6406,1159.5,412.6406,1155.5,408.6406" style="stroke:#181818;stroke-width:1.0;"/><line style="stroke:#181818;stroke-width:1.0;stroke-dasharray:2.0,2.0;" x1="1153.5" x2="1530" y1="408.6406" y2="408.6406"/><text fill="#000000" font-family="sans-serif" font-size="13" font-weight="bold" lengthAdjust="spacing" textLength="7" x="1165.5" y="403.7842">9</text><text fill="#000000" font-family="sans-serif" font-size="13" lengthAdjust="spacing" textLength="90" x="1176.5" y="403.7842">greenSpaceList</text><polygon fill="#181818" points="600.5,434.9922,590.5,438.9922,600.5,442.9922,596.5,438.9922" style="stroke:#181818;stroke-width:1.0;"/><line style="stroke:#181818;stroke-width:1.0;stroke-dasharray:2.0,2.0;" x1="594.5" x2="1142.5" y1="438.9922" y2="438.9922"/><text fill="#000000" font-family="sans-serif" font-size="13" font-weight="bold" lengthAdjust="spacing" textLength="14" x="606.5" y="434.1357">10</text><text fill="#000000" font-family="sans-serif" font-size="13" lengthAdjust="spacing" textLength="90" x="624.5" y="434.1357">greenSpaceList</text><polygon fill="#181818" points="39.5,465.3438,29.5,469.3438,39.5,473.3438,35.5,469.3438" style="stroke:#181818;stroke-width:1.0;"/><line style="stroke:#181818;stroke-width:1.0;stroke-dasharray:2.0,2.0;" x1="33.5" x2="583.5" y1="469.3438" y2="469.3438"/><text fill="#000000" font-family="sans-serif" font-size="13" font-weight="bold" lengthAdjust="spacing" textLength="14" x="45.5" y="464.4873">11</text><text fill="#000000" font-family="sans-serif" font-size="13" lengthAdjust="spacing" textLength="165" x="63.5" y="464.4873">displays list of green spaces</text><polygon fill="#181818" points="567.5,495.6953,577.5,499.6953,567.5,503.6953,571.5,499.6953" style="stroke:#181818;stroke-width:1.0;"/><line style="stroke:#181818;stroke-width:1.0;" x1="28.5" x2="573.5" y1="499.6953" y2="499.6953"/><text fill="#000000" font-family="sans-serif" font-size="13" font-weight="bold" lengthAdjust="spacing" textLength="14" x="35.5" y="494.8389">12</text><text fill="#000000" font-family="sans-serif" font-size="13" lengthAdjust="spacing" textLength="141" x="53.5" y="494.8389">Selects the green space</text><polygon fill="#181818" points="39.5,526.0469,29.5,530.0469,39.5,534.0469,35.5,530.0469" style="stroke:#181818;stroke-width:1.0;"/><line style="stroke:#181818;stroke-width:1.0;stroke-dasharray:2.0,2.0;" x1="33.5" x2="583.5" y1="530.0469" y2="530.0469"/><text fill="#000000" font-family="sans-serif" font-size="13" font-weight="bold" lengthAdjust="spacing" textLength="14" x="45.5" y="525.1904">13</text><text fill="#000000" font-family="sans-serif" font-size="13" lengthAdjust="spacing" textLength="509" x="63.5" y="525.1904">requests entry data (description, degree of urgency, and approximate expected duration)</text><polygon fill="#181818" points="567.5,556.3984,577.5,560.3984,567.5,564.3984,571.5,560.3984" style="stroke:#181818;stroke-width:1.0;"/><line style="stroke:#181818;stroke-width:1.0;" x1="28.5" x2="573.5" y1="560.3984" y2="560.3984"/><text fill="#000000" font-family="sans-serif" font-size="13" font-weight="bold" lengthAdjust="spacing" textLength="14" x="35.5" y="555.542">14</text><text fill="#000000" font-family="sans-serif" font-size="13" lengthAdjust="spacing" textLength="122" x="53.5" y="555.542">types requested data</text><polygon fill="#181818" points="1126.5,586.75,1136.5,590.75,1126.5,594.75,1130.5,590.75" style="stroke:#181818;stroke-width:1.0;"/><line style="stroke:#181818;stroke-width:1.0;" x1="584.5" x2="1132.5" y1="590.75" y2="590.75"/><text fill="#000000" font-family="sans-serif" font-size="13" font-weight="bold" lengthAdjust="spacing" textLength="14" x="591.5" y="585.8936">15</text><text fill="#000000" font-family="sans-serif" font-size="13" lengthAdjust="spacing" textLength="512" x="609.5" y="585.8936">createEntry(greenSpace, description, degree of urgency, approximate expected duration)</text><polygon fill="#181818" points="1374,617.1016,1384,621.1016,1374,625.1016,1378,621.1016" style="stroke:#181818;stroke-width:1.0;"/><line style="stroke:#181818;stroke-width:1.0;" x1="1143.5" x2="1380" y1="621.1016" y2="621.1016"/><text fill="#000000" font-family="sans-serif" font-size="13" font-weight="bold" lengthAdjust="spacing" textLength="14" x="1150.5" y="616.2451">16</text><text fill="#000000" font-family="sans-serif" font-size="13" lengthAdjust="spacing" textLength="119" x="1168.5" y="616.2451">getEntryRepository()</text><polygon fill="#181818" points="1933,647.4531,1943,651.4531,1933,655.4531,1937,651.4531" style="stroke:#181818;stroke-width:1.0;"/><line style="stroke:#181818;stroke-width:1.0;" x1="1391" x2="1939" y1="651.4531" y2="651.4531"/><text fill="#000000" font-family="sans-serif" font-size="13" font-weight="bold" lengthAdjust="spacing" textLength="14" x="1398" y="646.5967">17</text><text fill="#000000" font-family="sans-serif" font-size="13" lengthAdjust="spacing" textLength="512" x="1416" y="646.5967">createEntry(greenSpace, description, degree of urgency, approximate expected duration)</text><polygon fill="#181818" points="2492,677.8047,2502,681.8047,2492,685.8047,2496,681.8047" style="stroke:#181818;stroke-width:1.0;"/><line style="stroke:#181818;stroke-width:1.0;" x1="1950" x2="2498" y1="681.8047" y2="681.8047"/><text fill="#000000" font-family="sans-serif" font-size="13" font-weight="bold" lengthAdjust="spacing" textLength="14" x="1957" y="676.9482">18</text><text fill="#000000" font-family="sans-serif" font-size="13" lengthAdjust="spacing" textLength="512" x="1975" y="676.9482">createEntry(greenSpace, description, degree of urgency, approximate expected duration)</text><polygon fill="#181818" points="600.5,708.1563,590.5,712.1563,600.5,716.1563,596.5,712.1563" style="stroke:#181818;stroke-width:1.0;"/><line style="stroke:#181818;stroke-width:1.0;stroke-dasharray:2.0,2.0;" x1="594.5" x2="1142.5" y1="712.1563" y2="712.1563"/><text fill="#000000" font-family="sans-serif" font-size="13" font-weight="bold" lengthAdjust="spacing" textLength="14" x="606.5" y="707.2998">19</text><text fill="#000000" font-family="sans-serif" font-size="13" lengthAdjust="spacing" textLength="49" x="624.5" y="707.2998">success</text><polygon fill="#181818" points="34.5,738.5078,24.5,742.5078,34.5,746.5078,30.5,742.5078" style="stroke:#181818;stroke-width:1.0;"/><line style="stroke:#181818;stroke-width:1.0;stroke-dasharray:2.0,2.0;" x1="28.5" x2="583.5" y1="742.5078" y2="742.5078"/><text fill="#000000" font-family="sans-serif" font-size="13" font-weight="bold" lengthAdjust="spacing" textLength="14" x="40.5" y="737.6514">20</text><text fill="#000000" font-family="sans-serif" font-size="13" lengthAdjust="spacing" textLength="350" x="58.5" y="737.6514">displays success message (Vehicle registered successfully)</text><!--SRC=[lLPDR-8m4BtdLunwWgf8FUs1GwMgHHKIkrerPK-zU9CXM2HsrdQMvj_ls0770PUFFPG3HV6RDszc_2RL6ovgfbW5bHGoMojP8HZLOABzISso3IimDMs9e30pJ1Hb2D1hbiij5mMiMAanIGmt14rRRR225FyqA3A4PyuA2n-bwVCO9h1Cx- -_9GbhZ1HDzHiL_SwCL73padw_0QQ1_YQKml2CrqmOk9a-vlaFtCw4KUroxZ3B-UUG9qdViYnHEUZJs-lY0FoAjTISadBK3kCVj2ctPPAsOOWA8jx5CS7FnUFRCA9GY2AbBc9FFdqNlt3Dip9urfKS0G_fq5Ps43NRFOiW-tFNNlwN6NIDJO0-z0Cc3zH4c19key58O7aE30HkmH4ud8-aTdUHzaDX56pRUdjB19b2WiIEwR100oNN1kGAN4T0sogrH_iKRap-iGidciXWEjQvq7GZCnoDVKoEGxAZ5B4fzobZgIPz9U4DYAMCaLzOfBqyCAMYejVWulBS7UpP7MjGmANaZkOJvKVIOwJTWFgJ1St_cZ55XNfOD6DGPZ786yjwiX4dHxNtpFaS1-sodh3T8jzD8UUwBbchJniZ8BFky-K7rasnfBrCxbrZo75SIqWmaABibjP4uJmFEJCCHZdgJF7QS2dkI8PbjYeRLT12R- -02TeKTQta1wyiEtxK90Dpo1l5RDJucY9CMwFU2x4afE5y1NxStVPncsxKZyNgFbF4_nHmgIiwGriNp8Ph-neRT7OUkld1x_mlBJs-4lphnnzvSNkXNwhIwuah3UPqx6ZTP6G-FK0SNRwuYtUXKD4N_SC4ezqhdkvqGGP7HRftc5LJbcsd_S0PuNgYj_G_]--></g></svg>