<?xml version="1.0" encoding="UTF-8" standalone="no"?><svg xmlns="http://www.w3.org/2000/svg" xmlns:xlink="http://www.w3.org/1999/xlink" contentStyleType="text/css" height="1080px" preserveAspectRatio="none" style="width:2519px;height:1080px;background:#FFFFFF;" version="1.1" viewBox="0 0 2519 1080" width="2519px" zoomAndPan="magnify"><defs/><g><rect fill="#FFFFFF" height="888.0078" style="stroke:#181818;stroke-width:1.0;" width="10" x="18.5" y="92.6094"/><rect fill="#FFFFFF" height="315.7734" style="stroke:#181818;stroke-width:1.0;" width="10" x="579.5" y="114.9609"/><rect fill="#FFFFFF" height="30.3516" style="stroke:#181818;stroke-width:1.0;" width="10" x="579.5" y="461.0859"/><rect fill="#FFFFFF" height="30.3516" style="stroke:#181818;stroke-width:1.0;" width="10" x="579.5" y="521.7891"/><rect fill="#FFFFFF" height="30.3516" style="stroke:#181818;stroke-width:1.0;" width="10" x="579.5" y="950.2656"/><rect fill="#FFFFFF" height="30.3516" style="stroke:#181818;stroke-width:1.0;" width="10" x="1138.5" y="187.9219"/><rect fill="#FFFFFF" height="30.3516" style="stroke:#181818;stroke-width:1.0;" width="10" x="1138.5" y="248.625"/><rect fill="#FFFFFF" height="30.3516" style="stroke:#181818;stroke-width:1.0;" width="10" x="1138.5" y="309.3281"/><rect fill="#FFFFFF" height="30.3516" style="stroke:#181818;stroke-width:1.0;" width="10" x="1138.5" y="370.0313"/><rect fill="#FFFFFF" height="30.3516" style="stroke:#181818;stroke-width:1.0;" width="10" x="1138.5" y="552.1406"/><rect fill="#FFFFFF" height="30.3516" style="stroke:#181818;stroke-width:1.0;" width="10" x="1138.5" y="612.8438"/><rect fill="#FFFFFF" height="30.3516" style="stroke:#181818;stroke-width:1.0;" width="10" x="1138.5" y="919.9141"/><rect fill="#FFFFFF" height="30.3516" style="stroke:#181818;stroke-width:1.0;" width="10" x="1279" y="218.2734"/><rect fill="#FFFFFF" height="30.3516" style="stroke:#181818;stroke-width:1.0;" width="10" x="1386" y="278.9766"/><rect fill="#FFFFFF" height="30.3516" style="stroke:#181818;stroke-width:1.0;" width="10" x="1386" y="582.4922"/><rect fill="#FFFFFF" height="30.3516" style="stroke:#181818;stroke-width:1.0;" width="10" x="1526" y="339.6797"/><rect fill="#FFFFFF" height="30.3516" style="stroke:#181818;stroke-width:1.0;" width="10" x="1697.5" y="643.1953"/><rect fill="#FFFFFF" height="30.3516" style="stroke:#181818;stroke-width:1.0;" width="10" x="1697.5" y="889.5625"/><rect fill="#FFFFFF" height="206.0156" style="stroke:#181818;stroke-width:1.0;" width="10" x="2279.5" y="683.5469"/><rect fill="#FFFFFF" height="128.0547" style="stroke:#181818;stroke-width:1.0;" width="10" x="2284.5" y="724.1563"/><rect fill="#FFFFFF" height="41.3516" style="stroke:#181818;stroke-width:1.0;" width="10" x="2289.5" y="767.5078"/><line style="stroke:#181818;stroke-width:0.5;stroke-dasharray:5.0,5.0;" x1="23" x2="23" y1="82.6094" y2="998.6172"/><line style="stroke:#181818;stroke-width:0.5;stroke-dasharray:5.0,5.0;" x1="584.5" x2="584.5" y1="82.6094" y2="998.6172"/><line style="stroke:#181818;stroke-width:0.5;stroke-dasharray:5.0,5.0;" x1="1143.5" x2="1143.5" y1="154.2656" y2="998.6172"/><line style="stroke:#181818;stroke-width:0.5;stroke-dasharray:5.0,5.0;" x1="1283.5" x2="1283.5" y1="82.6094" y2="998.6172"/><line style="stroke:#181818;stroke-width:0.5;stroke-dasharray:5.0,5.0;" x1="1390.5" x2="1390.5" y1="82.6094" y2="998.6172"/><line style="stroke:#181818;stroke-width:0.5;stroke-dasharray:5.0,5.0;" x1="1530.5" x2="1530.5" y1="82.6094" y2="998.6172"/><line style="stroke:#181818;stroke-width:0.5;stroke-dasharray:5.0,5.0;" x1="1702.5" x2="1702.5" y1="82.6094" y2="998.6172"/><line style="stroke:#181818;stroke-width:0.5;stroke-dasharray:5.0,5.0;" x1="2284.5" x2="2284.5" y1="682.5" y2="998.6172"/><text fill="#000000" font-family="sans-serif" font-size="14" lengthAdjust="spacing" textLength="31" x="5" y="79.5332">GSM</text><ellipse cx="23.5" cy="13.5" fill="#E3E3E3" rx="8" ry="8" style="stroke:#181818;stroke-width:0.5;"/><path d="M23.5,21.5 L23.5,48.5 M10.5,29.5 L36.5,29.5 M23.5,48.5 L10.5,63.5 M23.5,48.5 L36.5,63.5 " fill="none" style="stroke:#181818;stroke-width:0.5;"/><text fill="#000000" font-family="sans-serif" font-size="14" lengthAdjust="spacing" textLength="31" x="5" y="1012.1504">GSM</text><ellipse cx="23.5" cy="1023.7266" fill="#E3E3E3" rx="8" ry="8" style="stroke:#181818;stroke-width:0.5;"/><path d="M23.5,1031.7266 L23.5,1058.7266 M10.5,1039.7266 L36.5,1039.7266 M23.5,1058.7266 L10.5,1073.7266 M23.5,1058.7266 L36.5,1073.7266 " fill="none" style="stroke:#181818;stroke-width:0.5;"/><rect fill="#E3E3E3" height="31.6094" rx="2.5" ry="2.5" style="stroke:#181818;stroke-width:0.5;" width="114" x="527.5" y="50"/><text fill="#000000" font-family="sans-serif" font-size="14" lengthAdjust="spacing" textLength="100" x="534.5" y="71.5332">:AddNewEntryUI</text><rect fill="#E3E3E3" height="31.6094" rx="2.5" ry="2.5" style="stroke:#181818;stroke-width:0.5;" width="114" x="527.5" y="997.6172"/><text fill="#000000" font-family="sans-serif" font-size="14" lengthAdjust="spacing" textLength="100" x="534.5" y="1019.1504">:AddNewEntryUI</text><rect fill="#E3E3E3" height="31.6094" rx="2.5" ry="2.5" style="stroke:#181818;stroke-width:0.5;" width="164" x="1061.5" y="997.6172"/><text fill="#000000" font-family="sans-serif" font-size="14" lengthAdjust="spacing" textLength="150" x="1068.5" y="1019.1504">:AddNewEntryController</text><rect fill="#E3E3E3" height="31.6094" rx="2.5" ry="2.5" style="stroke:#181818;stroke-width:0.5;" width="97" x="1235.5" y="50"/><text fill="#000000" font-family="sans-serif" font-size="14" lengthAdjust="spacing" textLength="83" x="1242.5" y="71.5332">:Repositories</text><rect fill="#E3E3E3" height="31.6094" rx="2.5" ry="2.5" style="stroke:#181818;stroke-width:0.5;" width="97" x="1235.5" y="997.6172"/><text fill="#000000" font-family="sans-serif" font-size="14" lengthAdjust="spacing" textLength="83" x="1242.5" y="1019.1504">:Repositories</text><rect fill="#E3E3E3" height="49.2188" rx="2.5" ry="2.5" style="stroke:#181818;stroke-width:0.5;" width="97" x="1342.5" y="32.3906"/><text fill="#000000" font-family="sans-serif" font-size="14" lengthAdjust="spacing" textLength="74" x="1354" y="53.9238">repositories</text><text fill="#000000" font-family="sans-serif" font-size="14" lengthAdjust="spacing" textLength="83" x="1349.5" y="71.5332">:Repositories</text><rect fill="#E3E3E3" height="49.2188" rx="2.5" ry="2.5" style="stroke:#181818;stroke-width:0.5;" width="97" x="1342.5" y="997.6172"/><text fill="#000000" font-family="sans-serif" font-size="14" lengthAdjust="spacing" textLength="74" x="1354" y="1019.1504">repositories</text><text fill="#000000" font-family="sans-serif" font-size="14" lengthAdjust="spacing" textLength="83" x="1349.5" y="1036.7598">:Repositories</text><rect fill="#E3E3E3" height="49.2188" rx="2.5" ry="2.5" style="stroke:#181818;stroke-width:0.5;" width="163" x="1449.5" y="32.3906"/><text fill="#000000" font-family="sans-serif" font-size="14" lengthAdjust="spacing" textLength="149" x="1456.5" y="53.9238">greenSpaceRepository:</text><text fill="#000000" font-family="sans-serif" font-size="14" lengthAdjust="spacing" textLength="114" x="1474" y="71.5332">VehicleRepository</text><rect fill="#E3E3E3" height="49.2188" rx="2.5" ry="2.5" style="stroke:#181818;stroke-width:0.5;" width="163" x="1449.5" y="997.6172"/><text fill="#000000" font-family="sans-serif" font-size="14" lengthAdjust="spacing" textLength="149" x="1456.5" y="1019.1504">greenSpaceRepository:</text><text fill="#000000" font-family="sans-serif" font-size="14" lengthAdjust="spacing" textLength="114" x="1474" y="1036.7598">VehicleRepository</text><rect fill="#E3E3E3" height="31.6094" rx="2.5" ry="2.5" style="stroke:#181818;stroke-width:0.5;" width="114" x="1645.5" y="50"/><text fill="#000000" font-family="sans-serif" font-size="14" lengthAdjust="spacing" textLength="100" x="1652.5" y="71.5332">entryRepository</text><rect fill="#E3E3E3" height="31.6094" rx="2.5" ry="2.5" style="stroke:#181818;stroke-width:0.5;" width="114" x="1645.5" y="997.6172"/><text fill="#000000" font-family="sans-serif" font-size="14" lengthAdjust="spacing" textLength="100" x="1652.5" y="1019.1504">entryRepository</text><rect fill="#E3E3E3" height="31.6094" rx="2.5" ry="2.5" style="stroke:#181818;stroke-width:0.5;" width="46" x="2261.5" y="997.6172"/><text fill="#000000" font-family="sans-serif" font-size="14" lengthAdjust="spacing" textLength="32" x="2268.5" y="1019.1504">toDoEntry</text><rect fill="#FFFFFF" height="888.0078" style="stroke:#181818;stroke-width:1.0;" width="10" x="18.5" y="92.6094"/><rect fill="#FFFFFF" height="315.7734" style="stroke:#181818;stroke-width:1.0;" width="10" x="579.5" y="114.9609"/><rect fill="#FFFFFF" height="30.3516" style="stroke:#181818;stroke-width:1.0;" width="10" x="579.5" y="461.0859"/><rect fill="#FFFFFF" height="30.3516" style="stroke:#181818;stroke-width:1.0;" width="10" x="579.5" y="521.7891"/><rect fill="#FFFFFF" height="30.3516" style="stroke:#181818;stroke-width:1.0;" width="10" x="579.5" y="950.2656"/><rect fill="#FFFFFF" height="30.3516" style="stroke:#181818;stroke-width:1.0;" width="10" x="1138.5" y="187.9219"/><rect fill="#FFFFFF" height="30.3516" style="stroke:#181818;stroke-width:1.0;" width="10" x="1138.5" y="248.625"/><rect fill="#FFFFFF" height="30.3516" style="stroke:#181818;stroke-width:1.0;" width="10" x="1138.5" y="309.3281"/><rect fill="#FFFFFF" height="30.3516" style="stroke:#181818;stroke-width:1.0;" width="10" x="1138.5" y="370.0313"/><rect fill="#FFFFFF" height="30.3516" style="stroke:#181818;stroke-width:1.0;" width="10" x="1138.5" y="552.1406"/><rect fill="#FFFFFF" height="30.3516" style="stroke:#181818;stroke-width:1.0;" width="10" x="1138.5" y="612.8438"/><rect fill="#FFFFFF" height="30.3516" style="stroke:#181818;stroke-width:1.0;" width="10" x="1138.5" y="919.9141"/><rect fill="#FFFFFF" height="30.3516" style="stroke:#181818;stroke-width:1.0;" width="10" x="1279" y="218.2734"/><rect fill="#FFFFFF" height="30.3516" style="stroke:#181818;stroke-width:1.0;" width="10" x="1386" y="278.9766"/><rect fill="#FFFFFF" height="30.3516" style="stroke:#181818;stroke-width:1.0;" width="10" x="1386" y="582.4922"/><rect fill="#FFFFFF" height="30.3516" style="stroke:#181818;stroke-width:1.0;" width="10" x="1526" y="339.6797"/><rect fill="#FFFFFF" height="30.3516" style="stroke:#181818;stroke-width:1.0;" width="10" x="1697.5" y="643.1953"/><rect fill="#FFFFFF" height="30.3516" style="stroke:#181818;stroke-width:1.0;" width="10" x="1697.5" y="889.5625"/><rect fill="#FFFFFF" height="206.0156" style="stroke:#181818;stroke-width:1.0;" width="10" x="2279.5" y="683.5469"/><rect fill="#FFFFFF" height="128.0547" style="stroke:#181818;stroke-width:1.0;" width="10" x="2284.5" y="724.1563"/><rect fill="#FFFFFF" height="41.3516" style="stroke:#181818;stroke-width:1.0;" width="10" x="2289.5" y="767.5078"/><polygon fill="#181818" points="567.5,110.9609,577.5,114.9609,567.5,118.9609,571.5,114.9609" style="stroke:#181818;stroke-width:1.0;"/><line style="stroke:#181818;stroke-width:1.0;" x1="28.5" x2="573.5" y1="114.9609" y2="114.9609"/><text fill="#000000" font-family="sans-serif" font-size="13" font-weight="bold" lengthAdjust="spacing" textLength="7" x="35.5" y="110.1045">1</text><text fill="#000000" font-family="sans-serif" font-size="13" lengthAdjust="spacing" textLength="139" x="46.5" y="110.1045">asks to add a new toDoEntry</text><polygon fill="#181818" points="1049.5,141.3125,1059.5,145.3125,1049.5,149.3125,1053.5,145.3125" style="stroke:#181818;stroke-width:1.0;"/><line style="stroke:#181818;stroke-width:1.0;" x1="589.5" x2="1055.5" y1="145.3125" y2="145.3125"/><text fill="#000000" font-family="sans-serif" font-size="13" font-weight="bold" lengthAdjust="spacing" textLength="7" x="596.5" y="140.4561">2</text><text fill="#000000" font-family="sans-serif" font-size="13" lengthAdjust="spacing" textLength="36" x="607.5" y="140.4561">create</text><rect fill="#E3E3E3" height="31.6094" rx="2.5" ry="2.5" style="stroke:#181818;stroke-width:0.5;" width="164" x="1061.5" y="122.9609"/><text fill="#000000" font-family="sans-serif" font-size="14" lengthAdjust="spacing" textLength="150" x="1068.5" y="144.4941">:AddNewEntryController</text><polygon fill="#181818" points="1126.5,183.9219,1136.5,187.9219,1126.5,191.9219,1130.5,187.9219" style="stroke:#181818;stroke-width:1.0;"/><line style="stroke:#181818;stroke-width:1.0;" x1="589.5" x2="1132.5" y1="187.9219" y2="187.9219"/><text fill="#000000" font-family="sans-serif" font-size="13" font-weight="bold" lengthAdjust="spacing" textLength="7" x="596.5" y="183.0654">3</text><text fill="#000000" font-family="sans-serif" font-size="13" lengthAdjust="spacing" textLength="135" x="607.5" y="183.0654">get list of green spaces</text><polygon fill="#181818" points="1267,214.2734,1277,218.2734,1267,222.2734,1271,218.2734" style="stroke:#181818;stroke-width:1.0;"/><line style="stroke:#181818;stroke-width:1.0;" x1="1143.5" x2="1273" y1="218.2734" y2="218.2734"/><text fill="#000000" font-family="sans-serif" font-size="13" font-weight="bold" lengthAdjust="spacing" textLength="7" x="1150.5" y="213.417">4</text><text fill="#000000" font-family="sans-serif" font-size="13" lengthAdjust="spacing" textLength="75" x="1161.5" y="213.417">getInstance()</text><polygon fill="#181818" points="1159.5,244.625,1149.5,248.625,1159.5,252.625,1155.5,248.625" style="stroke:#181818;stroke-width:1.0;"/><line style="stroke:#181818;stroke-width:1.0;stroke-dasharray:2.0,2.0;" x1="1153.5" x2="1283" y1="248.625" y2="248.625"/><text fill="#000000" font-family="sans-serif" font-size="13" font-weight="bold" lengthAdjust="spacing" textLength="7" x="1165.5" y="243.7686">5</text><text fill="#000000" font-family="sans-serif" font-size="13" lengthAdjust="spacing" textLength="67" x="1176.5" y="243.7686">repositories</text><polygon fill="#181818" points="1374,274.9766,1384,278.9766,1374,282.9766,1378,278.9766" style="stroke:#181818;stroke-width:1.0;"/><line style="stroke:#181818;stroke-width:1.0;" x1="1143.5" x2="1380" y1="278.9766" y2="278.9766"/><text fill="#000000" font-family="sans-serif" font-size="13" font-weight="bold" lengthAdjust="spacing" textLength="7" x="1150.5" y="274.1201">6</text><text fill="#000000" font-family="sans-serif" font-size="13" lengthAdjust="spacing" textLength="152" x="1161.5" y="274.1201">getGreenSpaceRepository</text><polygon fill="#181818" points="1159.5,305.3281,1149.5,309.3281,1159.5,313.3281,1155.5,309.3281" style="stroke:#181818;stroke-width:1.0;"/><line style="stroke:#181818;stroke-width:1.0;stroke-dasharray:2.0,2.0;" x1="1153.5" x2="1390" y1="309.3281" y2="309.3281"/><text fill="#000000" font-family="sans-serif" font-size="13" font-weight="bold" lengthAdjust="spacing" textLength="7" x="1165.5" y="304.4717">7</text><text fill="#000000" font-family="sans-serif" font-size="13" lengthAdjust="spacing" textLength="134" x="1176.5" y="304.4717">GreenSpaceRepository</text><polygon fill="#181818" points="1514,335.6797,1524,339.6797,1514,343.6797,1518,339.6797" style="stroke:#181818;stroke-width:1.0;"/><line style="stroke:#181818;stroke-width:1.0;" x1="1143.5" x2="1520" y1="339.6797" y2="339.6797"/><text fill="#000000" font-family="sans-serif" font-size="13" font-weight="bold" lengthAdjust="spacing" textLength="7" x="1150.5" y="334.8232">8</text><text fill="#000000" font-family="sans-serif" font-size="13" lengthAdjust="spacing" textLength="119" x="1161.5" y="334.8232">getGreenSpaceList()</text><polygon fill="#181818" points="1159.5,366.0313,1149.5,370.0313,1159.5,374.0313,1155.5,370.0313" style="stroke:#181818;stroke-width:1.0;"/><line style="stroke:#181818;stroke-width:1.0;stroke-dasharray:2.0,2.0;" x1="1153.5" x2="1530" y1="370.0313" y2="370.0313"/><text fill="#000000" font-family="sans-serif" font-size="13" font-weight="bold" lengthAdjust="spacing" textLength="7" x="1165.5" y="365.1748">9</text><text fill="#000000" font-family="sans-serif" font-size="13" lengthAdjust="spacing" textLength="90" x="1176.5" y="365.1748">greenSpaceList</text><polygon fill="#181818" points="600.5,396.3828,590.5,400.3828,600.5,404.3828,596.5,400.3828" style="stroke:#181818;stroke-width:1.0;"/><line style="stroke:#181818;stroke-width:1.0;stroke-dasharray:2.0,2.0;" x1="594.5" x2="1142.5" y1="400.3828" y2="400.3828"/><text fill="#000000" font-family="sans-serif" font-size="13" font-weight="bold" lengthAdjust="spacing" textLength="14" x="606.5" y="395.5264">10</text><text fill="#000000" font-family="sans-serif" font-size="13" lengthAdjust="spacing" textLength="237" x="624.5" y="395.5264">greenSpaceList : List&lt;GreenSpaceDTO&gt;</text><polygon fill="#181818" points="39.5,426.7344,29.5,430.7344,39.5,434.7344,35.5,430.7344" style="stroke:#181818;stroke-width:1.0;"/><line style="stroke:#181818;stroke-width:1.0;stroke-dasharray:2.0,2.0;" x1="33.5" x2="583.5" y1="430.7344" y2="430.7344"/><text fill="#000000" font-family="sans-serif" font-size="13" font-weight="bold" lengthAdjust="spacing" textLength="14" x="45.5" y="425.8779">11</text><text fill="#000000" font-family="sans-serif" font-size="13" lengthAdjust="spacing" textLength="165" x="63.5" y="425.8779">displays list of green spaces</text><polygon fill="#181818" points="567.5,457.0859,577.5,461.0859,567.5,465.0859,571.5,461.0859" style="stroke:#181818;stroke-width:1.0;"/><line style="stroke:#181818;stroke-width:1.0;" x1="28.5" x2="573.5" y1="461.0859" y2="461.0859"/><text fill="#000000" font-family="sans-serif" font-size="13" font-weight="bold" lengthAdjust="spacing" textLength="14" x="35.5" y="456.2295">12</text><text fill="#000000" font-family="sans-serif" font-size="13" lengthAdjust="spacing" textLength="141" x="53.5" y="456.2295">Selects the green space</text><polygon fill="#181818" points="39.5,487.4375,29.5,491.4375,39.5,495.4375,35.5,491.4375" style="stroke:#181818;stroke-width:1.0;"/><line style="stroke:#181818;stroke-width:1.0;stroke-dasharray:2.0,2.0;" x1="33.5" x2="583.5" y1="491.4375" y2="491.4375"/><text fill="#000000" font-family="sans-serif" font-size="13" font-weight="bold" lengthAdjust="spacing" textLength="14" x="45.5" y="486.5811">13</text><text fill="#000000" font-family="sans-serif" font-size="13" lengthAdjust="spacing" textLength="509" x="63.5" y="486.5811">requests toDoEntry data (description, degree of urgency, and approximate expected duration)</text><polygon fill="#181818" points="567.5,517.7891,577.5,521.7891,567.5,525.7891,571.5,521.7891" style="stroke:#181818;stroke-width:1.0;"/><line style="stroke:#181818;stroke-width:1.0;" x1="28.5" x2="573.5" y1="521.7891" y2="521.7891"/><text fill="#000000" font-family="sans-serif" font-size="13" font-weight="bold" lengthAdjust="spacing" textLength="14" x="35.5" y="516.9326">14</text><text fill="#000000" font-family="sans-serif" font-size="13" lengthAdjust="spacing" textLength="122" x="53.5" y="516.9326">types requested data</text><polygon fill="#181818" points="1126.5,548.1406,1136.5,552.1406,1126.5,556.1406,1130.5,552.1406" style="stroke:#181818;stroke-width:1.0;"/><line style="stroke:#181818;stroke-width:1.0;" x1="584.5" x2="1132.5" y1="552.1406" y2="552.1406"/><text fill="#000000" font-family="sans-serif" font-size="13" font-weight="bold" lengthAdjust="spacing" textLength="14" x="591.5" y="547.2842">15</text><text fill="#000000" font-family="sans-serif" font-size="13" lengthAdjust="spacing" textLength="512" x="609.5" y="547.2842">createEntry(greenSpace, description, degree of urgency, approximate expected duration)</text><polygon fill="#181818" points="1374,578.4922,1384,582.4922,1374,586.4922,1378,582.4922" style="stroke:#181818;stroke-width:1.0;"/><line style="stroke:#181818;stroke-width:1.0;" x1="1143.5" x2="1380" y1="582.4922" y2="582.4922"/><text fill="#000000" font-family="sans-serif" font-size="13" font-weight="bold" lengthAdjust="spacing" textLength="14" x="1150.5" y="577.6357">16</text><text fill="#000000" font-family="sans-serif" font-size="13" lengthAdjust="spacing" textLength="119" x="1168.5" y="577.6357">getEntryRepository()</text><polygon fill="#181818" points="1159.5,608.8438,1149.5,612.8438,1159.5,616.8438,1155.5,612.8438" style="stroke:#181818;stroke-width:1.0;"/><line style="stroke:#181818;stroke-width:1.0;stroke-dasharray:2.0,2.0;" x1="1153.5" x2="1390" y1="612.8438" y2="612.8438"/><text fill="#000000" font-family="sans-serif" font-size="13" font-weight="bold" lengthAdjust="spacing" textLength="14" x="1165.5" y="607.9873">17</text><text fill="#000000" font-family="sans-serif" font-size="13" lengthAdjust="spacing" textLength="91" x="1183.5" y="607.9873">entryRepository</text><polygon fill="#181818" points="1685.5,639.1953,1695.5,643.1953,1685.5,647.1953,1689.5,643.1953" style="stroke:#181818;stroke-width:1.0;"/><line style="stroke:#181818;stroke-width:1.0;" x1="1143.5" x2="1691.5" y1="643.1953" y2="643.1953"/><text fill="#000000" font-family="sans-serif" font-size="13" font-weight="bold" lengthAdjust="spacing" textLength="14" x="1150.5" y="638.3389">18</text><text fill="#000000" font-family="sans-serif" font-size="13" lengthAdjust="spacing" textLength="512" x="1168.5" y="638.3389">createEntry(greenSpace, description, degree of urgency, approximate expected duration)</text><polygon fill="#181818" points="2249.5,669.5469,2259.5,673.5469,2249.5,677.5469,2253.5,673.5469" style="stroke:#181818;stroke-width:1.0;"/><line style="stroke:#181818;stroke-width:1.0;" x1="1702.5" x2="2255.5" y1="673.5469" y2="673.5469"/><text fill="#000000" font-family="sans-serif" font-size="13" font-weight="bold" lengthAdjust="spacing" textLength="14" x="1709.5" y="668.6904">19</text><text fill="#000000" font-family="sans-serif" font-size="13" lengthAdjust="spacing" textLength="512" x="1727.5" y="668.6904">createEntry(greenSpace, description, degree of urgency, approximate expected duration)</text><rect fill="#E3E3E3" height="31.6094" rx="2.5" ry="2.5" style="stroke:#181818;stroke-width:0.5;" width="46" x="2261.5" y="651.1953"/><text fill="#000000" font-family="sans-serif" font-size="14" lengthAdjust="spacing" textLength="32" x="2268.5" y="672.7285">toDoEntry</text><line style="stroke:#181818;stroke-width:1.0;" x1="2289.5" x2="2336.5" y1="711.1563" y2="711.1563"/><line style="stroke:#181818;stroke-width:1.0;" x1="2336.5" x2="2336.5" y1="711.1563" y2="724.1563"/><line style="stroke:#181818;stroke-width:1.0;" x1="2295.5" x2="2336.5" y1="724.1563" y2="724.1563"/><polygon fill="#181818" points="2305.5,720.1563,2295.5,724.1563,2305.5,728.1563,2301.5,724.1563" style="stroke:#181818;stroke-width:1.0;"/><text fill="#000000" font-family="sans-serif" font-size="13" font-weight="bold" lengthAdjust="spacing" textLength="14" x="2301.5" y="706.2998">20</text><text fill="#000000" font-family="sans-serif" font-size="13" lengthAdjust="spacing" textLength="131" x="2319.5" y="706.2998">verifyFilled(description)</text><line style="stroke:#181818;stroke-width:1.0;" x1="2294.5" x2="2341.5" y1="754.5078" y2="754.5078"/><line style="stroke:#181818;stroke-width:1.0;" x1="2341.5" x2="2341.5" y1="754.5078" y2="767.5078"/><line style="stroke:#181818;stroke-width:1.0;" x1="2300.5" x2="2341.5" y1="767.5078" y2="767.5078"/><polygon fill="#181818" points="2310.5,763.5078,2300.5,767.5078,2310.5,771.5078,2306.5,767.5078" style="stroke:#181818;stroke-width:1.0;"/><text fill="#000000" font-family="sans-serif" font-size="13" font-weight="bold" lengthAdjust="spacing" textLength="14" x="2306.5" y="749.6514">21</text><text fill="#000000" font-family="sans-serif" font-size="13" lengthAdjust="spacing" textLength="188" x="2324.5" y="749.6514">verifyDuration(aproxExpDuration)</text><line style="stroke:#181818;stroke-width:1.0;stroke-dasharray:2.0,2.0;" x1="2299.5" x2="2341.5" y1="807.8594" y2="807.8594"/><line style="stroke:#181818;stroke-width:1.0;stroke-dasharray:2.0,2.0;" x1="2341.5" x2="2341.5" y1="807.8594" y2="820.8594"/><line style="stroke:#181818;stroke-width:1.0;stroke-dasharray:2.0,2.0;" x1="2294.5" x2="2341.5" y1="820.8594" y2="820.8594"/><polygon fill="#181818" points="2304.5,816.8594,2294.5,820.8594,2304.5,824.8594,2300.5,820.8594" style="stroke:#181818;stroke-width:1.0;"/><text fill="#000000" font-family="sans-serif" font-size="13" font-weight="bold" lengthAdjust="spacing" textLength="14" x="2306.5" y="803.0029">22</text><text fill="#000000" font-family="sans-serif" font-size="13" lengthAdjust="spacing" textLength="4" x="2324.5" y="803.0029"> </text><line style="stroke:#181818;stroke-width:1.0;stroke-dasharray:2.0,2.0;" x1="2294.5" x2="2336.5" y1="851.2109" y2="851.2109"/><line style="stroke:#181818;stroke-width:1.0;stroke-dasharray:2.0,2.0;" x1="2336.5" x2="2336.5" y1="851.2109" y2="864.2109"/><line style="stroke:#181818;stroke-width:1.0;stroke-dasharray:2.0,2.0;" x1="2289.5" x2="2336.5" y1="864.2109" y2="864.2109"/><polygon fill="#181818" points="2299.5,860.2109,2289.5,864.2109,2299.5,868.2109,2295.5,864.2109" style="stroke:#181818;stroke-width:1.0;"/><text fill="#000000" font-family="sans-serif" font-size="13" font-weight="bold" lengthAdjust="spacing" textLength="14" x="2301.5" y="846.3545">23</text><text fill="#000000" font-family="sans-serif" font-size="13" lengthAdjust="spacing" textLength="4" x="2319.5" y="846.3545"> </text><polygon fill="#181818" points="1718.5,885.5625,1708.5,889.5625,1718.5,893.5625,1714.5,889.5625" style="stroke:#181818;stroke-width:1.0;"/><line style="stroke:#181818;stroke-width:1.0;" x1="1712.5" x2="2283.5" y1="889.5625" y2="889.5625"/><text fill="#000000" font-family="sans-serif" font-size="13" font-weight="bold" lengthAdjust="spacing" textLength="14" x="1724.5" y="884.7061">24</text><text fill="#000000" font-family="sans-serif" font-size="13" lengthAdjust="spacing" textLength="31" x="1742.5" y="884.7061">Entry</text><polygon fill="#181818" points="1159.5,915.9141,1149.5,919.9141,1159.5,923.9141,1155.5,919.9141" style="stroke:#181818;stroke-width:1.0;"/><line style="stroke:#181818;stroke-width:1.0;stroke-dasharray:2.0,2.0;" x1="1153.5" x2="1701.5" y1="919.9141" y2="919.9141"/><text fill="#000000" font-family="sans-serif" font-size="13" font-weight="bold" lengthAdjust="spacing" textLength="14" x="1165.5" y="915.0576">25</text><text fill="#000000" font-family="sans-serif" font-size="13" lengthAdjust="spacing" textLength="31" x="1183.5" y="915.0576">Entry</text><polygon fill="#181818" points="600.5,946.2656,590.5,950.2656,600.5,954.2656,596.5,950.2656" style="stroke:#181818;stroke-width:1.0;"/><line style="stroke:#181818;stroke-width:1.0;stroke-dasharray:2.0,2.0;" x1="594.5" x2="1142.5" y1="950.2656" y2="950.2656"/><text fill="#000000" font-family="sans-serif" font-size="13" font-weight="bold" lengthAdjust="spacing" textLength="14" x="606.5" y="945.4092">26</text><text fill="#000000" font-family="sans-serif" font-size="13" lengthAdjust="spacing" textLength="31" x="624.5" y="945.4092">Entry</text><polygon fill="#181818" points="34.5,976.6172,24.5,980.6172,34.5,984.6172,30.5,980.6172" style="stroke:#181818;stroke-width:1.0;"/><line style="stroke:#181818;stroke-width:1.0;stroke-dasharray:2.0,2.0;" x1="28.5" x2="583.5" y1="980.6172" y2="980.6172"/><text fill="#000000" font-family="sans-serif" font-size="13" font-weight="bold" lengthAdjust="spacing" textLength="14" x="40.5" y="975.7607">27</text><text fill="#000000" font-family="sans-serif" font-size="13" lengthAdjust="spacing" textLength="338" x="58.5" y="975.7607">displays success message (Entry registered successfully)</text><!--SRC=[lLPBJ-Cm4BxdLuouq2AGEEsXMY4XsbqXiGyHs1CNaqnJgucTjHqW_tx73dMSrdsX5JsqbJtppVVDAz5BBcgcM0ML539RA5aX6DLWelrDpR8bAp0rROcWC3DC56Lee1SibwzS531dfSOaEJqrt91nscg35QJujq6H8KmvAwp3A4sdOxY0n_JoyakIiCP8qLJFgEX_PgI2a-_fZnDW6kWteI26Pxncmi39v3hFV-BhJ1ZLFjuwcyVRxIOtahvbMQ9ofZSFztThnlTOIyqfA4VjRFn1ct8hbBWDNLJWyIGs0NxVNJyCFGg5A5BA8_RWaoVn1nSyAuEpJdB4U0Y7LjcQr-pzB6BPtxlqyXTcq2Ks0VhG7xYueYJ2XEoM6em4bkV0GE0hE01dvpqftPsd_P0RETkqdfqHGAQGJ6BNT5cWWP9h0t8EBYEWhKhjhNq8LoP_xDm99bAO3lLMQEh934TZxvFZ46mZHApAVSXOg8jUITW1iP0ny0D5skQ12OcAji71ybmFzkWEDH1mABY3sS9yWteCj2jGVtD7zJ-cJ56YtYmQCP1P3EB6ekvCnCvIhMPc68CExC_N7dVwyEjggzxXfDWSqZHE8EUwBbchTuzB06PdqYSb6EWKIzhNDDCB334s5OO00ohAxcvD46uJGCuCWr6EEbEyDboASw9XaItBHXMqvjjpO8BsHrqh-SOhYuvlDT707F96CUirFaQ4QMlKAo8MX3ZiL-2ReDj9Rl-D-c9Ptdj4V4J0eRFIZRcTZTbmcHyp7DsGRvlnjQV4iUEzpdZ5yrCp6jVjdtN-ofDR4GsUHf_1qpEASrqZwbaInnTKVDv-u_IAaeTpDVuerFITvuXP4REtUhf1V0_Y2dAhqF_WCUYdFRv7rR_l_zseqMBjslDRuU8zkbf7yRskcumskOQAlkZL6aPTMXGMjF1HKRkzMyoRicoxogrjol0XHkzo_m00]--></g></svg>