<?xml version="1.0" encoding="UTF-8" standalone="no"?><svg xmlns="http://www.w3.org/2000/svg" xmlns:xlink="http://www.w3.org/1999/xlink" contentStyleType="text/css" height="421px" preserveAspectRatio="none" style="width:1345px;height:421px;background:#FFFFFF;" version="1.1" viewBox="0 0 1345 421" width="1345px" zoomAndPan="magnify"><defs/><g><rect fill="#FFFFFF" height="55.7031" style="stroke:#181818;stroke-width:1.0;" width="10" x="542" y="69.9609"/><rect fill="#FFFFFF" height="46.3516" style="stroke:#181818;stroke-width:1.0;" width="10" x="542" y="329.4219"/><rect fill="#FFFFFF" height="203.7578" style="stroke:#181818;stroke-width:1.0;" width="10" x="1094" y="125.6641"/><rect fill="#FFFFFF" height="128.0547" style="stroke:#181818;stroke-width:1.0;" width="10" x="1099" y="164.0156"/><rect fill="#FFFFFF" height="41.3516" style="stroke:#181818;stroke-width:1.0;" width="10" x="1104" y="207.3672"/><rect fill="none" height="252.4609" style="stroke:#000000;stroke-width:1.5;" width="838.5" x="500.5" y="84.9609"/><line style="stroke:#181818;stroke-width:0.5;stroke-dasharray:5.0,5.0;" x1="546.5" x2="546.5" y1="37.6094" y2="384.7734"/><line style="stroke:#181818;stroke-width:0.5;stroke-dasharray:5.0,5.0;" x1="1098.5" x2="1098.5" y1="37.6094" y2="384.7734"/><rect fill="#E3E3E3" height="31.6094" rx="2.5" ry="2.5" style="stroke:#181818;stroke-width:0.5;" width="73" x="510.5" y="5"/><text fill="#000000" font-family="sans-serif" font-size="14" lengthAdjust="spacing" textLength="59" x="517.5" y="26.5332">EntryRep</text><rect fill="#E3E3E3" height="31.6094" rx="2.5" ry="2.5" style="stroke:#181818;stroke-width:0.5;" width="73" x="510.5" y="383.7734"/><text fill="#000000" font-family="sans-serif" font-size="14" lengthAdjust="spacing" textLength="59" x="517.5" y="405.3066">EntryRep</text><rect fill="#E3E3E3" height="31.6094" rx="2.5" ry="2.5" style="stroke:#181818;stroke-width:0.5;" width="47" x="1075.5" y="5"/><text fill="#000000" font-family="sans-serif" font-size="14" lengthAdjust="spacing" textLength="33" x="1082.5" y="26.5332">Entry</text><rect fill="#E3E3E3" height="31.6094" rx="2.5" ry="2.5" style="stroke:#181818;stroke-width:0.5;" width="47" x="1075.5" y="383.7734"/><text fill="#000000" font-family="sans-serif" font-size="14" lengthAdjust="spacing" textLength="33" x="1082.5" y="405.3066">Entry</text><rect fill="#FFFFFF" height="55.7031" style="stroke:#181818;stroke-width:1.0;" width="10" x="542" y="69.9609"/><rect fill="#FFFFFF" height="46.3516" style="stroke:#181818;stroke-width:1.0;" width="10" x="542" y="329.4219"/><rect fill="#FFFFFF" height="203.7578" style="stroke:#181818;stroke-width:1.0;" width="10" x="1094" y="125.6641"/><rect fill="#FFFFFF" height="128.0547" style="stroke:#181818;stroke-width:1.0;" width="10" x="1099" y="164.0156"/><rect fill="#FFFFFF" height="41.3516" style="stroke:#181818;stroke-width:1.0;" width="10" x="1104" y="207.3672"/><polygon fill="#181818" points="530,65.9609,540,69.9609,530,73.9609,534,69.9609" style="stroke:#181818;stroke-width:1.0;"/><line style="stroke:#181818;stroke-width:1.0;" x1="0" x2="536" y1="69.9609" y2="69.9609"/><text fill="#000000" font-family="sans-serif" font-size="13" font-weight="bold" lengthAdjust="spacing" textLength="7" x="7" y="65.1045">7</text><text fill="#000000" font-family="sans-serif" font-size="13" lengthAdjust="spacing" textLength="512" x="18" y="65.1045">createEntry(greenSpace, description, degree of urgency, approximate expected duration)</text><path d="M500.5,84.9609 L623.5,84.9609 L623.5,93.3125 L613.5,103.3125 L500.5,103.3125 L500.5,84.9609 " fill="#EEEEEE" style="stroke:#000000;stroke-width:1.5;"/><rect fill="none" height="252.4609" style="stroke:#000000;stroke-width:1.5;" width="838.5" x="500.5" y="84.9609"/><text fill="#000000" font-family="sans-serif" font-size="13" font-weight="bold" lengthAdjust="spacing" textLength="78" x="515.5" y="99.4561">Create Entry</text><polygon fill="#181818" points="1082,121.6641,1092,125.6641,1082,129.6641,1086,125.6641" style="stroke:#181818;stroke-width:1.0;"/><line style="stroke:#181818;stroke-width:1.0;" x1="547" x2="1088" y1="125.6641" y2="125.6641"/><text fill="#000000" font-family="sans-serif" font-size="13" font-weight="bold" lengthAdjust="spacing" textLength="7" x="554" y="120.8076">8</text><text fill="#000000" font-family="sans-serif" font-size="13" lengthAdjust="spacing" textLength="512" x="565" y="120.8076">createEntry(greenSpace, description, degree of urgency, approximate expected duration)</text><line style="stroke:#181818;stroke-width:1.0;" x1="1104" x2="1151" y1="151.0156" y2="151.0156"/><line style="stroke:#181818;stroke-width:1.0;" x1="1151" x2="1151" y1="151.0156" y2="164.0156"/><line style="stroke:#181818;stroke-width:1.0;" x1="1110" x2="1151" y1="164.0156" y2="164.0156"/><polygon fill="#181818" points="1120,160.0156,1110,164.0156,1120,168.0156,1116,164.0156" style="stroke:#181818;stroke-width:1.0;"/><text fill="#000000" font-family="sans-serif" font-size="13" font-weight="bold" lengthAdjust="spacing" textLength="7" x="1116" y="146.1592">9</text><text fill="#000000" font-family="sans-serif" font-size="13" lengthAdjust="spacing" textLength="131" x="1127" y="146.1592">verifyFilled(description)</text><line style="stroke:#181818;stroke-width:1.0;" x1="1109" x2="1156" y1="194.3672" y2="194.3672"/><line style="stroke:#181818;stroke-width:1.0;" x1="1156" x2="1156" y1="194.3672" y2="207.3672"/><line style="stroke:#181818;stroke-width:1.0;" x1="1115" x2="1156" y1="207.3672" y2="207.3672"/><polygon fill="#181818" points="1125,203.3672,1115,207.3672,1125,211.3672,1121,207.3672" style="stroke:#181818;stroke-width:1.0;"/><text fill="#000000" font-family="sans-serif" font-size="13" font-weight="bold" lengthAdjust="spacing" textLength="14" x="1121" y="189.5107">10</text><text fill="#000000" font-family="sans-serif" font-size="13" lengthAdjust="spacing" textLength="188" x="1139" y="189.5107">verifyDuration(aproxExpDuration)</text><line style="stroke:#181818;stroke-width:1.0;stroke-dasharray:2.0,2.0;" x1="1114" x2="1156" y1="247.7188" y2="247.7188"/><line style="stroke:#181818;stroke-width:1.0;stroke-dasharray:2.0,2.0;" x1="1156" x2="1156" y1="247.7188" y2="260.7188"/><line style="stroke:#181818;stroke-width:1.0;stroke-dasharray:2.0,2.0;" x1="1109" x2="1156" y1="260.7188" y2="260.7188"/><polygon fill="#181818" points="1119,256.7188,1109,260.7188,1119,264.7188,1115,260.7188" style="stroke:#181818;stroke-width:1.0;"/><text fill="#000000" font-family="sans-serif" font-size="13" font-weight="bold" lengthAdjust="spacing" textLength="14" x="1121" y="242.8623">11</text><text fill="#000000" font-family="sans-serif" font-size="13" lengthAdjust="spacing" textLength="4" x="1139" y="242.8623"> </text><line style="stroke:#181818;stroke-width:1.0;stroke-dasharray:2.0,2.0;" x1="1109" x2="1151" y1="291.0703" y2="291.0703"/><line style="stroke:#181818;stroke-width:1.0;stroke-dasharray:2.0,2.0;" x1="1151" x2="1151" y1="291.0703" y2="304.0703"/><line style="stroke:#181818;stroke-width:1.0;stroke-dasharray:2.0,2.0;" x1="1104" x2="1151" y1="304.0703" y2="304.0703"/><polygon fill="#181818" points="1114,300.0703,1104,304.0703,1114,308.0703,1110,304.0703" style="stroke:#181818;stroke-width:1.0;"/><text fill="#000000" font-family="sans-serif" font-size="13" font-weight="bold" lengthAdjust="spacing" textLength="14" x="1116" y="286.2139">12</text><text fill="#000000" font-family="sans-serif" font-size="13" lengthAdjust="spacing" textLength="4" x="1134" y="286.2139"> </text><polygon fill="#181818" points="563,325.4219,553,329.4219,563,333.4219,559,329.4219" style="stroke:#181818;stroke-width:1.0;"/><line style="stroke:#181818;stroke-width:1.0;" x1="557" x2="1098" y1="329.4219" y2="329.4219"/><text fill="#000000" font-family="sans-serif" font-size="13" font-weight="bold" lengthAdjust="spacing" textLength="14" x="569" y="324.5654">13</text><text fill="#000000" font-family="sans-serif" font-size="13" lengthAdjust="spacing" textLength="31" x="587" y="324.5654">Entry</text><polygon fill="#181818" points="11,362.7734,1,366.7734,11,370.7734,7,366.7734" style="stroke:#181818;stroke-width:1.0;"/><line style="stroke:#181818;stroke-width:1.0;stroke-dasharray:2.0,2.0;" x1="5" x2="541" y1="366.7734" y2="366.7734"/><text fill="#000000" font-family="sans-serif" font-size="13" font-weight="bold" lengthAdjust="spacing" textLength="14" x="17" y="361.917">14</text><text fill="#000000" font-family="sans-serif" font-size="13" lengthAdjust="spacing" textLength="31" x="35" y="361.917">Entry</text><!--SRC=[lPB1JiCm38RlUGhVwAJrZ8GcBcmy07i2Bt7JQ6qSkSbettxje5sX6fCGmZVdp-__i-Jcw7n0mHfgzgnBuPeWIYBLJ4f0VKHB-zXL148wehVL_4DJek5tvoqKM3Ma5AR8FjK74gKUIcS82kPuu5RDDNZiMmNvC-nybEwD0Zo15i98buVC2f7Vz_6q1aED5XUYOpyqWmHSG19BNdThm124MrVtPg0sz9Ham2J1mR5IC9OLJW5UBYaVkLSDTNIdwRtd6V36cXX7td-0DRH4ka7xdNIEUI9nHVVggefCDcDR_NxOzXCsms6JNHksI_fxCyUXj_Vz6y-N-xhd_k4O9ecykJQmoVDbW3e3]--></g></svg>