<?xml version="1.0" encoding="UTF-8" standalone="no"?><svg xmlns="http://www.w3.org/2000/svg" xmlns:xlink="http://www.w3.org/1999/xlink" contentStyleType="text/css" height="791px" preserveAspectRatio="none" style="width:2301px;height:791px;background:#FFFFFF;" version="1.1" viewBox="0 0 2301 791" width="2301px" zoomAndPan="magnify"><defs/><g><rect fill="#FFFFFF" height="598.8672" style="stroke:#181818;stroke-width:1.0;" width="10" x="18.5" y="92.6094"/><rect fill="#FFFFFF" height="180.1094" style="stroke:#181818;stroke-width:1.0;" width="10" x="572.5" y="114.9609"/><rect fill="#FFFFFF" height="30.3516" style="stroke:#181818;stroke-width:1.0;" width="10" x="572.5" y="325.4219"/><rect fill="#FFFFFF" height="30.3516" style="stroke:#181818;stroke-width:1.0;" width="10" x="572.5" y="386.125"/><rect fill="#FFFFFF" height="30.3516" style="stroke:#181818;stroke-width:1.0;" width="10" x="572.5" y="661.125"/><rect fill="#FFFFFF" height="76.7969" style="stroke:#181818;stroke-width:1.0;" width="10" x="1124.5" y="187.9219"/><rect fill="#FFFFFF" height="76.7969" style="stroke:#181818;stroke-width:1.0;" width="10" x="1124.5" y="416.4766"/><rect fill="#FFFFFF" height="30.3516" style="stroke:#181818;stroke-width:1.0;" width="10" x="1124.5" y="630.7734"/><rect fill="#FFFFFF" height="30.3516" style="stroke:#181818;stroke-width:1.0;" width="10" x="1683.5" y="493.2734"/><rect fill="#FFFFFF" height="100.0547" style="stroke:#181818;stroke-width:1.0;" width="10" x="1683.5" y="600.4219"/><rect fill="#FFFFFF" height="76.7969" style="stroke:#181818;stroke-width:1.0;" width="10" x="2242.5" y="523.625"/><line style="stroke:#181818;stroke-width:0.5;stroke-dasharray:5.0,5.0;" x1="23" x2="23" y1="82.6094" y2="709.4766"/><line style="stroke:#181818;stroke-width:0.5;stroke-dasharray:5.0,5.0;" x1="577.5" x2="577.5" y1="82.6094" y2="709.4766"/><line style="stroke:#181818;stroke-width:0.5;stroke-dasharray:5.0,5.0;" x1="1129.5" x2="1129.5" y1="154.2656" y2="709.4766"/><line style="stroke:#181818;stroke-width:0.5;stroke-dasharray:5.0,5.0;" x1="1269.5" x2="1269.5" y1="82.6094" y2="709.4766"/><line style="stroke:#181818;stroke-width:0.5;stroke-dasharray:5.0,5.0;" x1="1376.5" x2="1376.5" y1="82.6094" y2="709.4766"/><line style="stroke:#181818;stroke-width:0.5;stroke-dasharray:5.0,5.0;" x1="1516.5" x2="1516.5" y1="82.6094" y2="709.4766"/><line style="stroke:#181818;stroke-width:0.5;stroke-dasharray:5.0,5.0;" x1="1688.5" x2="1688.5" y1="82.6094" y2="709.4766"/><line style="stroke:#181818;stroke-width:0.5;stroke-dasharray:5.0,5.0;" x1="2247.5" x2="2247.5" y1="82.6094" y2="709.4766"/><text fill="#000000" font-family="sans-serif" font-size="14" lengthAdjust="spacing" textLength="31" x="5" y="79.5332">GSM</text><ellipse cx="23.5" cy="13.5" fill="#E3E3E3" rx="8" ry="8" style="stroke:#181818;stroke-width:0.5;"/><path d="M23.5,21.5 L23.5,48.5 M10.5,29.5 L36.5,29.5 M23.5,48.5 L10.5,63.5 M23.5,48.5 L36.5,63.5 " fill="none" style="stroke:#181818;stroke-width:0.5;"/><text fill="#000000" font-family="sans-serif" font-size="14" lengthAdjust="spacing" textLength="31" x="5" y="723.0098">GSM</text><ellipse cx="23.5" cy="734.5859" fill="#E3E3E3" rx="8" ry="8" style="stroke:#181818;stroke-width:0.5;"/><path d="M23.5,742.5859 L23.5,769.5859 M10.5,750.5859 L36.5,750.5859 M23.5,769.5859 L10.5,784.5859 M23.5,769.5859 L36.5,784.5859 " fill="none" style="stroke:#181818;stroke-width:0.5;"/><rect fill="#E3E3E3" height="31.6094" rx="2.5" ry="2.5" style="stroke:#181818;stroke-width:0.5;" width="114" x="520.5" y="50"/><text fill="#000000" font-family="sans-serif" font-size="14" lengthAdjust="spacing" textLength="100" x="527.5" y="71.5332">:AddNewEntryUI</text><rect fill="#E3E3E3" height="31.6094" rx="2.5" ry="2.5" style="stroke:#181818;stroke-width:0.5;" width="114" x="520.5" y="708.4766"/><text fill="#000000" font-family="sans-serif" font-size="14" lengthAdjust="spacing" textLength="100" x="527.5" y="730.0098">:AddNewEntryUI</text><rect fill="#E3E3E3" height="31.6094" rx="2.5" ry="2.5" style="stroke:#181818;stroke-width:0.5;" width="164" x="1047.5" y="708.4766"/><text fill="#000000" font-family="sans-serif" font-size="14" lengthAdjust="spacing" textLength="150" x="1054.5" y="730.0098">:AddNewEntryController</text><rect fill="#E3E3E3" height="31.6094" rx="2.5" ry="2.5" style="stroke:#181818;stroke-width:0.5;" width="97" x="1221.5" y="50"/><text fill="#000000" font-family="sans-serif" font-size="14" lengthAdjust="spacing" textLength="83" x="1228.5" y="71.5332">:Repositories</text><rect fill="#E3E3E3" height="31.6094" rx="2.5" ry="2.5" style="stroke:#181818;stroke-width:0.5;" width="97" x="1221.5" y="708.4766"/><text fill="#000000" font-family="sans-serif" font-size="14" lengthAdjust="spacing" textLength="83" x="1228.5" y="730.0098">:Repositories</text><rect fill="#E3E3E3" height="49.2188" rx="2.5" ry="2.5" style="stroke:#181818;stroke-width:0.5;" width="97" x="1328.5" y="32.3906"/><text fill="#000000" font-family="sans-serif" font-size="14" lengthAdjust="spacing" textLength="74" x="1340" y="53.9238">repositories</text><text fill="#000000" font-family="sans-serif" font-size="14" lengthAdjust="spacing" textLength="83" x="1335.5" y="71.5332">:Repositories</text><rect fill="#E3E3E3" height="49.2188" rx="2.5" ry="2.5" style="stroke:#181818;stroke-width:0.5;" width="97" x="1328.5" y="708.4766"/><text fill="#000000" font-family="sans-serif" font-size="14" lengthAdjust="spacing" textLength="74" x="1340" y="730.0098">repositories</text><text fill="#000000" font-family="sans-serif" font-size="14" lengthAdjust="spacing" textLength="83" x="1335.5" y="747.6191">:Repositories</text><rect fill="#E3E3E3" height="49.2188" rx="2.5" ry="2.5" style="stroke:#181818;stroke-width:0.5;" width="163" x="1435.5" y="32.3906"/><text fill="#000000" font-family="sans-serif" font-size="14" lengthAdjust="spacing" textLength="149" x="1442.5" y="53.9238">greenSpaceRepository:</text><text fill="#000000" font-family="sans-serif" font-size="14" lengthAdjust="spacing" textLength="114" x="1460" y="71.5332">VehicleRepository</text><rect fill="#E3E3E3" height="49.2188" rx="2.5" ry="2.5" style="stroke:#181818;stroke-width:0.5;" width="163" x="1435.5" y="708.4766"/><text fill="#000000" font-family="sans-serif" font-size="14" lengthAdjust="spacing" textLength="149" x="1442.5" y="730.0098">greenSpaceRepository:</text><text fill="#000000" font-family="sans-serif" font-size="14" lengthAdjust="spacing" textLength="114" x="1460" y="747.6191">VehicleRepository</text><rect fill="#E3E3E3" height="31.6094" rx="2.5" ry="2.5" style="stroke:#181818;stroke-width:0.5;" width="114" x="1631.5" y="50"/><text fill="#000000" font-family="sans-serif" font-size="14" lengthAdjust="spacing" textLength="100" x="1638.5" y="71.5332">entryRepository</text><rect fill="#E3E3E3" height="31.6094" rx="2.5" ry="2.5" style="stroke:#181818;stroke-width:0.5;" width="114" x="1631.5" y="708.4766"/><text fill="#000000" font-family="sans-serif" font-size="14" lengthAdjust="spacing" textLength="100" x="1638.5" y="730.0098">entryRepository</text><rect fill="#E3E3E3" height="31.6094" rx="2.5" ry="2.5" style="stroke:#181818;stroke-width:0.5;" width="46" x="2224.5" y="50"/><text fill="#000000" font-family="sans-serif" font-size="14" lengthAdjust="spacing" textLength="32" x="2231.5" y="71.5332">entry</text><rect fill="#E3E3E3" height="31.6094" rx="2.5" ry="2.5" style="stroke:#181818;stroke-width:0.5;" width="46" x="2224.5" y="708.4766"/><text fill="#000000" font-family="sans-serif" font-size="14" lengthAdjust="spacing" textLength="32" x="2231.5" y="730.0098">entry</text><rect fill="#FFFFFF" height="598.8672" style="stroke:#181818;stroke-width:1.0;" width="10" x="18.5" y="92.6094"/><rect fill="#FFFFFF" height="180.1094" style="stroke:#181818;stroke-width:1.0;" width="10" x="572.5" y="114.9609"/><rect fill="#FFFFFF" height="30.3516" style="stroke:#181818;stroke-width:1.0;" width="10" x="572.5" y="325.4219"/><rect fill="#FFFFFF" height="30.3516" style="stroke:#181818;stroke-width:1.0;" width="10" x="572.5" y="386.125"/><rect fill="#FFFFFF" height="30.3516" style="stroke:#181818;stroke-width:1.0;" width="10" x="572.5" y="661.125"/><rect fill="#FFFFFF" height="76.7969" style="stroke:#181818;stroke-width:1.0;" width="10" x="1124.5" y="187.9219"/><rect fill="#FFFFFF" height="76.7969" style="stroke:#181818;stroke-width:1.0;" width="10" x="1124.5" y="416.4766"/><rect fill="#FFFFFF" height="30.3516" style="stroke:#181818;stroke-width:1.0;" width="10" x="1124.5" y="630.7734"/><rect fill="#FFFFFF" height="30.3516" style="stroke:#181818;stroke-width:1.0;" width="10" x="1683.5" y="493.2734"/><rect fill="#FFFFFF" height="100.0547" style="stroke:#181818;stroke-width:1.0;" width="10" x="1683.5" y="600.4219"/><rect fill="#FFFFFF" height="76.7969" style="stroke:#181818;stroke-width:1.0;" width="10" x="2242.5" y="523.625"/><polygon fill="#181818" points="560.5,110.9609,570.5,114.9609,560.5,118.9609,564.5,114.9609" style="stroke:#181818;stroke-width:1.0;"/><line style="stroke:#181818;stroke-width:1.0;" x1="28.5" x2="566.5" y1="114.9609" y2="114.9609"/><text fill="#000000" font-family="sans-serif" font-size="13" font-weight="bold" lengthAdjust="spacing" textLength="7" x="35.5" y="110.1045">1</text><text fill="#000000" font-family="sans-serif" font-size="13" lengthAdjust="spacing" textLength="139" x="46.5" y="110.1045">asks to add a new entry</text><polygon fill="#181818" points="1035.5,141.3125,1045.5,145.3125,1035.5,149.3125,1039.5,145.3125" style="stroke:#181818;stroke-width:1.0;"/><line style="stroke:#181818;stroke-width:1.0;" x1="582.5" x2="1041.5" y1="145.3125" y2="145.3125"/><text fill="#000000" font-family="sans-serif" font-size="13" font-weight="bold" lengthAdjust="spacing" textLength="7" x="589.5" y="140.4561">2</text><text fill="#000000" font-family="sans-serif" font-size="13" lengthAdjust="spacing" textLength="36" x="600.5" y="140.4561">create</text><rect fill="#E3E3E3" height="31.6094" rx="2.5" ry="2.5" style="stroke:#181818;stroke-width:0.5;" width="164" x="1047.5" y="122.9609"/><text fill="#000000" font-family="sans-serif" font-size="14" lengthAdjust="spacing" textLength="150" x="1054.5" y="144.4941">:AddNewEntryController</text><polygon fill="#181818" points="1112.5,183.9219,1122.5,187.9219,1112.5,191.9219,1116.5,187.9219" style="stroke:#181818;stroke-width:1.0;"/><line style="stroke:#181818;stroke-width:1.0;" x1="582.5" x2="1118.5" y1="187.9219" y2="187.9219"/><text fill="#000000" font-family="sans-serif" font-size="13" font-weight="bold" lengthAdjust="spacing" textLength="7" x="589.5" y="183.0654">3</text><text fill="#000000" font-family="sans-serif" font-size="13" lengthAdjust="spacing" textLength="135" x="600.5" y="183.0654">get list of green spaces</text><rect fill="none" height="41.4453" style="stroke:#000000;stroke-width:1.5;" width="170" x="1044.5" y="195.9219"/><path d="M1044.5,195.9219 L1106.5,195.9219 L1106.5,203.9219 L1096.5,213.9219 L1044.5,213.9219 L1044.5,195.9219 " fill="#EEEEEE" style="stroke:#000000;stroke-width:2.0;"/><text fill="#000000" font-family="sans-serif" font-size="13" font-weight="bold" lengthAdjust="spacing" textLength="17" x="1057.5" y="211.417">ref</text><text fill="#000000" font-family="sans-serif" font-size="12" lengthAdjust="spacing" textLength="110" x="1074.5" y="230.3789">Get green space list</text><polygon fill="#181818" points="593.5,260.7188,583.5,264.7188,593.5,268.7188,589.5,264.7188" style="stroke:#181818;stroke-width:1.0;"/><line style="stroke:#181818;stroke-width:1.0;stroke-dasharray:2.0,2.0;" x1="587.5" x2="1128.5" y1="264.7188" y2="264.7188"/><text fill="#000000" font-family="sans-serif" font-size="13" font-weight="bold" lengthAdjust="spacing" textLength="7" x="599.5" y="259.8623">4</text><text fill="#000000" font-family="sans-serif" font-size="13" lengthAdjust="spacing" textLength="90" x="610.5" y="259.8623">greenSpaceList</text><polygon fill="#181818" points="39.5,291.0703,29.5,295.0703,39.5,299.0703,35.5,295.0703" style="stroke:#181818;stroke-width:1.0;"/><line style="stroke:#181818;stroke-width:1.0;stroke-dasharray:2.0,2.0;" x1="33.5" x2="576.5" y1="295.0703" y2="295.0703"/><text fill="#000000" font-family="sans-serif" font-size="13" font-weight="bold" lengthAdjust="spacing" textLength="7" x="45.5" y="290.2139">5</text><text fill="#000000" font-family="sans-serif" font-size="13" lengthAdjust="spacing" textLength="165" x="56.5" y="290.2139">displays list of green spaces</text><polygon fill="#181818" points="560.5,321.4219,570.5,325.4219,560.5,329.4219,564.5,325.4219" style="stroke:#181818;stroke-width:1.0;"/><line style="stroke:#181818;stroke-width:1.0;" x1="28.5" x2="566.5" y1="325.4219" y2="325.4219"/><text fill="#000000" font-family="sans-serif" font-size="13" font-weight="bold" lengthAdjust="spacing" textLength="7" x="35.5" y="320.5654">6</text><text fill="#000000" font-family="sans-serif" font-size="13" lengthAdjust="spacing" textLength="141" x="46.5" y="320.5654">Selects the green space</text><polygon fill="#181818" points="39.5,351.7734,29.5,355.7734,39.5,359.7734,35.5,355.7734" style="stroke:#181818;stroke-width:1.0;"/><line style="stroke:#181818;stroke-width:1.0;stroke-dasharray:2.0,2.0;" x1="33.5" x2="576.5" y1="355.7734" y2="355.7734"/><text fill="#000000" font-family="sans-serif" font-size="13" font-weight="bold" lengthAdjust="spacing" textLength="7" x="45.5" y="350.917">7</text><text fill="#000000" font-family="sans-serif" font-size="13" lengthAdjust="spacing" textLength="509" x="56.5" y="350.917">requests entry data (description, degree of urgency, and approximate expected duration)</text><polygon fill="#181818" points="560.5,382.125,570.5,386.125,560.5,390.125,564.5,386.125" style="stroke:#181818;stroke-width:1.0;"/><line style="stroke:#181818;stroke-width:1.0;" x1="28.5" x2="566.5" y1="386.125" y2="386.125"/><text fill="#000000" font-family="sans-serif" font-size="13" font-weight="bold" lengthAdjust="spacing" textLength="7" x="35.5" y="381.2686">8</text><text fill="#000000" font-family="sans-serif" font-size="13" lengthAdjust="spacing" textLength="122" x="46.5" y="381.2686">types requested data</text><polygon fill="#181818" points="1112.5,412.4766,1122.5,416.4766,1112.5,420.4766,1116.5,416.4766" style="stroke:#181818;stroke-width:1.0;"/><line style="stroke:#181818;stroke-width:1.0;" x1="577.5" x2="1118.5" y1="416.4766" y2="416.4766"/><text fill="#000000" font-family="sans-serif" font-size="13" font-weight="bold" lengthAdjust="spacing" textLength="7" x="584.5" y="411.6201">9</text><text fill="#000000" font-family="sans-serif" font-size="13" lengthAdjust="spacing" textLength="512" x="595.5" y="411.6201">createEntry(greenSpace, description, degree of urgency, approximate expected duration)</text><rect fill="none" height="41.4453" style="stroke:#000000;stroke-width:1.5;" width="170" x="1044.5" y="424.4766"/><path d="M1044.5,424.4766 L1106.5,424.4766 L1106.5,432.4766 L1096.5,442.4766 L1044.5,442.4766 L1044.5,424.4766 " fill="#EEEEEE" style="stroke:#000000;stroke-width:2.0;"/><text fill="#000000" font-family="sans-serif" font-size="13" font-weight="bold" lengthAdjust="spacing" textLength="17" x="1057.5" y="439.9717">ref</text><text fill="#000000" font-family="sans-serif" font-size="12" lengthAdjust="spacing" textLength="111" x="1074" y="458.9336">Get Entry Repository</text><polygon fill="#181818" points="1671.5,489.2734,1681.5,493.2734,1671.5,497.2734,1675.5,493.2734" style="stroke:#181818;stroke-width:1.0;"/><line style="stroke:#181818;stroke-width:1.0;" x1="1129.5" x2="1677.5" y1="493.2734" y2="493.2734"/><text fill="#000000" font-family="sans-serif" font-size="13" font-weight="bold" lengthAdjust="spacing" textLength="14" x="1136.5" y="488.417">10</text><text fill="#000000" font-family="sans-serif" font-size="13" lengthAdjust="spacing" textLength="512" x="1154.5" y="488.417">createEntry(greenSpace, description, degree of urgency, approximate expected duration)</text><polygon fill="#181818" points="2230.5,519.625,2240.5,523.625,2230.5,527.625,2234.5,523.625" style="stroke:#181818;stroke-width:1.0;"/><line style="stroke:#181818;stroke-width:1.0;" x1="1688.5" x2="2236.5" y1="523.625" y2="523.625"/><text fill="#000000" font-family="sans-serif" font-size="13" font-weight="bold" lengthAdjust="spacing" textLength="14" x="1695.5" y="518.7686">11</text><text fill="#000000" font-family="sans-serif" font-size="13" lengthAdjust="spacing" textLength="512" x="1713.5" y="518.7686">createEntry(greenSpace, description, degree of urgency, approximate expected duration)</text><rect fill="none" height="41.4453" style="stroke:#000000;stroke-width:1.5;" width="74" x="2221.5" y="531.625"/><path d="M2221.5,531.625 L2283.5,531.625 L2283.5,539.625 L2273.5,549.625 L2221.5,549.625 L2221.5,531.625 " fill="#EEEEEE" style="stroke:#000000;stroke-width:2.0;"/><text fill="#000000" font-family="sans-serif" font-size="13" font-weight="bold" lengthAdjust="spacing" textLength="17" x="2234.5" y="547.1201">ref</text><text fill="#000000" font-family="sans-serif" font-size="12" lengthAdjust="spacing" textLength="66" x="2225.5" y="566.082">Create entry</text><polygon fill="#181818" points="1704.5,596.4219,1694.5,600.4219,1704.5,604.4219,1700.5,600.4219" style="stroke:#181818;stroke-width:1.0;"/><line style="stroke:#181818;stroke-width:1.0;" x1="1698.5" x2="2246.5" y1="600.4219" y2="600.4219"/><text fill="#000000" font-family="sans-serif" font-size="13" font-weight="bold" lengthAdjust="spacing" textLength="14" x="1710.5" y="595.5654">12</text><text fill="#000000" font-family="sans-serif" font-size="13" lengthAdjust="spacing" textLength="31" x="1728.5" y="595.5654">Entry</text><polygon fill="#181818" points="1145.5,626.7734,1135.5,630.7734,1145.5,634.7734,1141.5,630.7734" style="stroke:#181818;stroke-width:1.0;"/><line style="stroke:#181818;stroke-width:1.0;stroke-dasharray:2.0,2.0;" x1="1139.5" x2="1682.5" y1="630.7734" y2="630.7734"/><text fill="#000000" font-family="sans-serif" font-size="13" font-weight="bold" lengthAdjust="spacing" textLength="14" x="1151.5" y="625.917">13</text><text fill="#000000" font-family="sans-serif" font-size="13" lengthAdjust="spacing" textLength="31" x="1169.5" y="625.917">Entry</text><polygon fill="#181818" points="593.5,657.125,583.5,661.125,593.5,665.125,589.5,661.125" style="stroke:#181818;stroke-width:1.0;"/><line style="stroke:#181818;stroke-width:1.0;stroke-dasharray:2.0,2.0;" x1="587.5" x2="1128.5" y1="661.125" y2="661.125"/><text fill="#000000" font-family="sans-serif" font-size="13" font-weight="bold" lengthAdjust="spacing" textLength="14" x="599.5" y="656.2686">14</text><text fill="#000000" font-family="sans-serif" font-size="13" lengthAdjust="spacing" textLength="31" x="617.5" y="656.2686">Entry</text><polygon fill="#181818" points="34.5,687.4766,24.5,691.4766,34.5,695.4766,30.5,691.4766" style="stroke:#181818;stroke-width:1.0;"/><line style="stroke:#181818;stroke-width:1.0;stroke-dasharray:2.0,2.0;" x1="28.5" x2="576.5" y1="691.4766" y2="691.4766"/><text fill="#000000" font-family="sans-serif" font-size="13" font-weight="bold" lengthAdjust="spacing" textLength="14" x="40.5" y="686.6201">15</text><text fill="#000000" font-family="sans-serif" font-size="13" lengthAdjust="spacing" textLength="338" x="58.5" y="686.6201">displays success message (Entry registered successfully)</text><!--SRC=[lLN1JkCm4BtdAqQzR45KuhI77f0GL0Yfh5Q4xecBDvwcLXqxs0ubVxzZXpfEIRU20pcagVtcvSsRySHkXQgPOHLKMkbYOtI5u4o3cOqxDIkshCJSjHB1OE6OAcKAi1l6zKwe4jPCMioo7quumkQjTLX1ZYyDgWBXLh3IuwTvVdi6CrZbbvS_iumrJgkc-ek6dWkd3KpkyeS9C0lqcz4xd2X4pPI3oVoQyr-uMoXdsjLzmApkZqDkDDsrb6W2zERfSNa0ViHQMq4l5MW39YwqkV1vahPXY4aYdjL7Wj_BwwTXH6aGLKusOay-VrP_S2CAcQnrAO-0XtJeCpk8MholZI3x_M2lU6KEWx4Pq4KFCBiY4s5EkAq5fu5n3WmKxY0G15oC9BkxI7zH60LxMy_FYQ0mI92nRTeiqO4Kre5UGt04hC_IHdHyHIXJN3Qu1lsAfblUhzuHMy8IcECcAkx3UeuWORRFiw_7CetYUA1Wa0S5Uw_cm8Mj9Mlj_vD9oBnZKNPYTuwI3XCvli6KuwCVAS50Yl4don95g1DmvXXCETh2YDe9hIv8XcVsAXjJqY5iBu2HEQokZNuJbMV7jvfa80VU6EQZpZwJX6jhj7iXdeGqdCuWDaNNCQ4xftrPlEuJINmbWIytMj2NJ8PJZNOLp-EtfZZG7LVZQ8XRKTnUwBUgZ7h6bOxKOn6dKB0uA4r6qsWXkho6bHZo74hwd7Dz2ny97lRMS00T5J9UmVtf6Hz3jYbey5Yew4QVQPXsgHiiQJwXeNAy8zQDb6rNaeE3dVpr7uP_]--></g></svg>