<?xml version="1.0" encoding="UTF-8" standalone="no"?><svg xmlns="http://www.w3.org/2000/svg" xmlns:xlink="http://www.w3.org/1999/xlink" contentStyleType="text/css" height="1264px" preserveAspectRatio="none" style="width:2738px;height:1264px;background:#FFFFFF;" version="1.1" viewBox="0 0 2738 1264" width="2738px" zoomAndPan="magnify"><defs/><g><rect fill="#FFFFFF" height="1071.6328" style="stroke:#181818;stroke-width:1.0;" width="10" x="18.5" y="92.6094"/><rect fill="#FFFFFF" height="30.3516" style="stroke:#181818;stroke-width:1.0;" width="10" x="579.5" y="114.9609"/><rect fill="#FFFFFF" height="305.0313" style="stroke:#181818;stroke-width:1.0;" width="10" x="579.5" y="370.0313"/><rect fill="#FFFFFF" height="30.3516" style="stroke:#181818;stroke-width:1.0;" width="10" x="579.5" y="705.4141"/><rect fill="#FFFFFF" height="30.3516" style="stroke:#181818;stroke-width:1.0;" width="10" x="579.5" y="766.1172"/><rect fill="#FFFFFF" height="30.3516" style="stroke:#181818;stroke-width:1.0;" width="10" x="579.5" y="1133.8906"/><rect fill="#FFFFFF" height="184.3672" style="stroke:#181818;stroke-width:1.0;" width="10" x="1138.5" y="155.3125"/><rect fill="#FFFFFF" height="30.3516" style="stroke:#181818;stroke-width:1.0;" width="10" x="1138.5" y="370.0313"/><rect fill="#FFFFFF" height="213.9766" style="stroke:#181818;stroke-width:1.0;" width="10" x="1138.5" y="430.7344"/><rect fill="#FFFFFF" height="30.3516" style="stroke:#181818;stroke-width:1.0;" width="10" x="1138.5" y="796.4688"/><rect fill="#FFFFFF" height="30.3516" style="stroke:#181818;stroke-width:1.0;" width="10" x="1138.5" y="1103.5391"/><rect fill="#FFFFFF" height="30.3516" style="stroke:#181818;stroke-width:1.0;" width="10" x="1281" y="187.9219"/><rect fill="#FFFFFF" height="30.3516" style="stroke:#181818;stroke-width:1.0;" width="10" x="1388" y="248.625"/><rect fill="#FFFFFF" height="30.3516" style="stroke:#181818;stroke-width:1.0;" width="10" x="1388" y="309.3281"/><rect fill="#FFFFFF" height="30.3516" style="stroke:#181818;stroke-width:1.0;" width="10" x="1528" y="400.3828"/><rect fill="#FFFFFF" height="30.3516" style="stroke:#181818;stroke-width:1.0;" width="10" x="1697.5" y="826.8203"/><rect fill="#FFFFFF" height="30.3516" style="stroke:#181818;stroke-width:1.0;" width="10" x="1697.5" y="1073.1875"/><rect fill="#FFFFFF" height="206.0156" style="stroke:#181818;stroke-width:1.0;" width="10" x="2279.5" y="867.1719"/><rect fill="#FFFFFF" height="128.0547" style="stroke:#181818;stroke-width:1.0;" width="10" x="2284.5" y="907.7813"/><rect fill="#FFFFFF" height="41.3516" style="stroke:#181818;stroke-width:1.0;" width="10" x="2289.5" y="951.1328"/><rect fill="#FFFFFF" height="55.7031" style="stroke:#181818;stroke-width:1.0;" width="10" x="2514.5" y="461.0859"/><rect fill="#FFFFFF" height="37.3516" style="stroke:#181818;stroke-width:1.0;" width="10" x="2514.5" y="577.0078"/><rect fill="#FFFFFF" height="50.2188" style="stroke:#181818;stroke-width:1.0;" width="10" x="2657.5" y="526.7891"/><rect fill="none" height="108.9219" style="stroke:#000000;stroke-width:1.5;" width="296" x="2436.5" y="476.0859"/><line style="stroke:#181818;stroke-width:0.5;stroke-dasharray:5.0,5.0;" x1="23" x2="23" y1="82.6094" y2="1182.2422"/><line style="stroke:#181818;stroke-width:0.5;stroke-dasharray:5.0,5.0;" x1="584" x2="584" y1="82.6094" y2="1182.2422"/><line style="stroke:#181818;stroke-width:0.5;stroke-dasharray:5.0,5.0;" x1="1143.5" x2="1143.5" y1="154.2656" y2="1182.2422"/><line style="stroke:#181818;stroke-width:0.5;stroke-dasharray:5.0,5.0;" x1="1285.5" x2="1285.5" y1="82.6094" y2="1182.2422"/><line style="stroke:#181818;stroke-width:0.5;stroke-dasharray:5.0,5.0;" x1="1392.5" x2="1392.5" y1="82.6094" y2="1182.2422"/><line style="stroke:#181818;stroke-width:0.5;stroke-dasharray:5.0,5.0;" x1="1532.5" x2="1532.5" y1="82.6094" y2="1182.2422"/><line style="stroke:#181818;stroke-width:0.5;stroke-dasharray:5.0,5.0;" x1="1702" x2="1702" y1="82.6094" y2="1182.2422"/><line style="stroke:#181818;stroke-width:0.5;stroke-dasharray:5.0,5.0;" x1="2284.5" x2="2284.5" y1="866.125" y2="1182.2422"/><line style="stroke:#181818;stroke-width:0.5;stroke-dasharray:5.0,5.0;" x1="2519.5" x2="2519.5" y1="82.6094" y2="1182.2422"/><line style="stroke:#181818;stroke-width:0.5;stroke-dasharray:5.0,5.0;" x1="2662.5" x2="2662.5" y1="534.5469" y2="1182.2422"/><text fill="#000000" font-family="sans-serif" font-size="14" lengthAdjust="spacing" textLength="31" x="5" y="79.5332">GSM</text><ellipse cx="23.5" cy="13.5" fill="#E3E3E3" rx="8" ry="8" style="stroke:#181818;stroke-width:0.5;"/><path d="M23.5,21.5 L23.5,48.5 M10.5,29.5 L36.5,29.5 M23.5,48.5 L10.5,63.5 M23.5,48.5 L36.5,63.5 " fill="none" style="stroke:#181818;stroke-width:0.5;"/><text fill="#000000" font-family="sans-serif" font-size="14" lengthAdjust="spacing" textLength="31" x="5" y="1195.7754">GSM</text><ellipse cx="23.5" cy="1207.3516" fill="#E3E3E3" rx="8" ry="8" style="stroke:#181818;stroke-width:0.5;"/><path d="M23.5,1215.3516 L23.5,1242.3516 M10.5,1223.3516 L36.5,1223.3516 M23.5,1242.3516 L10.5,1257.3516 M23.5,1242.3516 L36.5,1257.3516 " fill="none" style="stroke:#181818;stroke-width:0.5;"/><rect fill="#E3E3E3" height="31.6094" rx="2.5" ry="2.5" style="stroke:#181818;stroke-width:0.5;" width="151" x="509" y="50"/><text fill="#000000" font-family="sans-serif" font-size="14" lengthAdjust="spacing" textLength="137" x="516" y="71.5332">:RegisterToDoEntryUI</text><rect fill="#E3E3E3" height="31.6094" rx="2.5" ry="2.5" style="stroke:#181818;stroke-width:0.5;" width="151" x="509" y="1181.2422"/><text fill="#000000" font-family="sans-serif" font-size="14" lengthAdjust="spacing" textLength="137" x="516" y="1202.7754">:RegisterToDoEntryUI</text><rect fill="#E3E3E3" height="31.6094" rx="2.5" ry="2.5" style="stroke:#181818;stroke-width:0.5;" width="168" x="1059.5" y="1181.2422"/><text fill="#000000" font-family="sans-serif" font-size="14" lengthAdjust="spacing" textLength="154" x="1066.5" y="1202.7754">:RegisterToDoController</text><rect fill="#E3E3E3" height="31.6094" rx="2.5" ry="2.5" style="stroke:#181818;stroke-width:0.5;" width="97" x="1237.5" y="50"/><text fill="#000000" font-family="sans-serif" font-size="14" lengthAdjust="spacing" textLength="83" x="1244.5" y="71.5332">:Repositories</text><rect fill="#E3E3E3" height="31.6094" rx="2.5" ry="2.5" style="stroke:#181818;stroke-width:0.5;" width="97" x="1237.5" y="1181.2422"/><text fill="#000000" font-family="sans-serif" font-size="14" lengthAdjust="spacing" textLength="83" x="1244.5" y="1202.7754">:Repositories</text><rect fill="#E3E3E3" height="49.2188" rx="2.5" ry="2.5" style="stroke:#181818;stroke-width:0.5;" width="97" x="1344.5" y="32.3906"/><text fill="#000000" font-family="sans-serif" font-size="14" lengthAdjust="spacing" textLength="74" x="1356" y="53.9238">repositories</text><text fill="#000000" font-family="sans-serif" font-size="14" lengthAdjust="spacing" textLength="83" x="1351.5" y="71.5332">:Repositories</text><rect fill="#E3E3E3" height="49.2188" rx="2.5" ry="2.5" style="stroke:#181818;stroke-width:0.5;" width="97" x="1344.5" y="1181.2422"/><text fill="#000000" font-family="sans-serif" font-size="14" lengthAdjust="spacing" textLength="74" x="1356" y="1202.7754">repositories</text><text fill="#000000" font-family="sans-serif" font-size="14" lengthAdjust="spacing" textLength="83" x="1351.5" y="1220.3848">:Repositories</text><rect fill="#E3E3E3" height="49.2188" rx="2.5" ry="2.5" style="stroke:#181818;stroke-width:0.5;" width="163" x="1451.5" y="32.3906"/><text fill="#000000" font-family="sans-serif" font-size="14" lengthAdjust="spacing" textLength="149" x="1458.5" y="53.9238">greenSpaceRepository:</text><text fill="#000000" font-family="sans-serif" font-size="14" lengthAdjust="spacing" textLength="148" x="1459" y="71.5332">GreenSpaceRepository</text><rect fill="#E3E3E3" height="49.2188" rx="2.5" ry="2.5" style="stroke:#181818;stroke-width:0.5;" width="163" x="1451.5" y="1181.2422"/><text fill="#000000" font-family="sans-serif" font-size="14" lengthAdjust="spacing" textLength="149" x="1458.5" y="1202.7754">greenSpaceRepository:</text><text fill="#000000" font-family="sans-serif" font-size="14" lengthAdjust="spacing" textLength="148" x="1459" y="1220.3848">GreenSpaceRepository</text><rect fill="#E3E3E3" height="49.2188" rx="2.5" ry="2.5" style="stroke:#181818;stroke-width:0.5;" width="119" x="1643" y="32.3906"/><text fill="#000000" font-family="sans-serif" font-size="14" lengthAdjust="spacing" textLength="100" x="1652.5" y="53.9238">entryRepository</text><text fill="#000000" font-family="sans-serif" font-size="14" lengthAdjust="spacing" textLength="105" x="1650" y="71.5332">:EntryRepository</text><rect fill="#E3E3E3" height="49.2188" rx="2.5" ry="2.5" style="stroke:#181818;stroke-width:0.5;" width="119" x="1643" y="1181.2422"/><text fill="#000000" font-family="sans-serif" font-size="14" lengthAdjust="spacing" textLength="100" x="1652.5" y="1202.7754">entryRepository</text><text fill="#000000" font-family="sans-serif" font-size="14" lengthAdjust="spacing" textLength="105" x="1650" y="1220.3848">:EntryRepository</text><rect fill="#E3E3E3" height="31.6094" rx="2.5" ry="2.5" style="stroke:#181818;stroke-width:0.5;" width="46" x="2261.5" y="1181.2422"/><text fill="#000000" font-family="sans-serif" font-size="14" lengthAdjust="spacing" textLength="32" x="2268.5" y="1202.7754">entry</text><rect fill="#E3E3E3" height="49.2188" rx="2.5" ry="2.5" style="stroke:#181818;stroke-width:0.5;" width="146" x="2446.5" y="32.3906"/><text fill="#000000" font-family="sans-serif" font-size="14" lengthAdjust="spacing" textLength="125" x="2457" y="53.9238">greenSpaceMapper</text><text fill="#000000" font-family="sans-serif" font-size="14" lengthAdjust="spacing" textLength="132" x="2453.5" y="71.5332">:GreenSpaceMapper</text><rect fill="#E3E3E3" height="49.2188" rx="2.5" ry="2.5" style="stroke:#181818;stroke-width:0.5;" width="146" x="2446.5" y="1181.2422"/><text fill="#000000" font-family="sans-serif" font-size="14" lengthAdjust="spacing" textLength="125" x="2457" y="1202.7754">greenSpaceMapper</text><text fill="#000000" font-family="sans-serif" font-size="14" lengthAdjust="spacing" textLength="132" x="2453.5" y="1220.3848">:GreenSpaceMapper</text><rect fill="#E3E3E3" height="49.2188" rx="2.5" ry="2.5" style="stroke:#181818;stroke-width:0.5;" width="120" x="2602.5" y="1181.2422"/><text fill="#000000" font-family="sans-serif" font-size="14" lengthAdjust="spacing" textLength="99" x="2613" y="1202.7754">greenSpaceDto</text><text fill="#000000" font-family="sans-serif" font-size="14" lengthAdjust="spacing" textLength="106" x="2609.5" y="1220.3848">:GreenSpaceDto</text><rect fill="#FFFFFF" height="1071.6328" style="stroke:#181818;stroke-width:1.0;" width="10" x="18.5" y="92.6094"/><rect fill="#FFFFFF" height="30.3516" style="stroke:#181818;stroke-width:1.0;" width="10" x="579.5" y="114.9609"/><rect fill="#FFFFFF" height="305.0313" style="stroke:#181818;stroke-width:1.0;" width="10" x="579.5" y="370.0313"/><rect fill="#FFFFFF" height="30.3516" style="stroke:#181818;stroke-width:1.0;" width="10" x="579.5" y="705.4141"/><rect fill="#FFFFFF" height="30.3516" style="stroke:#181818;stroke-width:1.0;" width="10" x="579.5" y="766.1172"/><rect fill="#FFFFFF" height="30.3516" style="stroke:#181818;stroke-width:1.0;" width="10" x="579.5" y="1133.8906"/><rect fill="#FFFFFF" height="184.3672" style="stroke:#181818;stroke-width:1.0;" width="10" x="1138.5" y="155.3125"/><rect fill="#FFFFFF" height="30.3516" style="stroke:#181818;stroke-width:1.0;" width="10" x="1138.5" y="370.0313"/><rect fill="#FFFFFF" height="213.9766" style="stroke:#181818;stroke-width:1.0;" width="10" x="1138.5" y="430.7344"/><rect fill="#FFFFFF" height="30.3516" style="stroke:#181818;stroke-width:1.0;" width="10" x="1138.5" y="796.4688"/><rect fill="#FFFFFF" height="30.3516" style="stroke:#181818;stroke-width:1.0;" width="10" x="1138.5" y="1103.5391"/><rect fill="#FFFFFF" height="30.3516" style="stroke:#181818;stroke-width:1.0;" width="10" x="1281" y="187.9219"/><rect fill="#FFFFFF" height="30.3516" style="stroke:#181818;stroke-width:1.0;" width="10" x="1388" y="248.625"/><rect fill="#FFFFFF" height="30.3516" style="stroke:#181818;stroke-width:1.0;" width="10" x="1388" y="309.3281"/><rect fill="#FFFFFF" height="30.3516" style="stroke:#181818;stroke-width:1.0;" width="10" x="1528" y="400.3828"/><rect fill="#FFFFFF" height="30.3516" style="stroke:#181818;stroke-width:1.0;" width="10" x="1697.5" y="826.8203"/><rect fill="#FFFFFF" height="30.3516" style="stroke:#181818;stroke-width:1.0;" width="10" x="1697.5" y="1073.1875"/><rect fill="#FFFFFF" height="206.0156" style="stroke:#181818;stroke-width:1.0;" width="10" x="2279.5" y="867.1719"/><rect fill="#FFFFFF" height="128.0547" style="stroke:#181818;stroke-width:1.0;" width="10" x="2284.5" y="907.7813"/><rect fill="#FFFFFF" height="41.3516" style="stroke:#181818;stroke-width:1.0;" width="10" x="2289.5" y="951.1328"/><rect fill="#FFFFFF" height="55.7031" style="stroke:#181818;stroke-width:1.0;" width="10" x="2514.5" y="461.0859"/><rect fill="#FFFFFF" height="37.3516" style="stroke:#181818;stroke-width:1.0;" width="10" x="2514.5" y="577.0078"/><rect fill="#FFFFFF" height="50.2188" style="stroke:#181818;stroke-width:1.0;" width="10" x="2657.5" y="526.7891"/><polygon fill="#181818" points="567.5,110.9609,577.5,114.9609,567.5,118.9609,571.5,114.9609" style="stroke:#181818;stroke-width:1.0;"/><line style="stroke:#181818;stroke-width:1.0;" x1="28.5" x2="573.5" y1="114.9609" y2="114.9609"/><text fill="#000000" font-family="sans-serif" font-size="13" font-weight="bold" lengthAdjust="spacing" textLength="7" x="35.5" y="110.1045">1</text><text fill="#000000" font-family="sans-serif" font-size="13" lengthAdjust="spacing" textLength="139" x="46.5" y="110.1045">asks to add a new entry</text><polygon fill="#181818" points="1047.5,141.3125,1057.5,145.3125,1047.5,149.3125,1051.5,145.3125" style="stroke:#181818;stroke-width:1.0;"/><line style="stroke:#181818;stroke-width:1.0;" x1="584.5" x2="1053.5" y1="145.3125" y2="145.3125"/><text fill="#000000" font-family="sans-serif" font-size="13" font-weight="bold" lengthAdjust="spacing" textLength="7" x="591.5" y="140.4561">2</text><text fill="#000000" font-family="sans-serif" font-size="13" lengthAdjust="spacing" textLength="36" x="602.5" y="140.4561">create</text><rect fill="#E3E3E3" height="31.6094" rx="2.5" ry="2.5" style="stroke:#181818;stroke-width:0.5;" width="168" x="1059.5" y="122.9609"/><text fill="#000000" font-family="sans-serif" font-size="14" lengthAdjust="spacing" textLength="154" x="1066.5" y="144.4941">:RegisterToDoController</text><polygon fill="#181818" points="1269,183.9219,1279,187.9219,1269,191.9219,1273,187.9219" style="stroke:#181818;stroke-width:1.0;"/><line style="stroke:#181818;stroke-width:1.0;" x1="1148.5" x2="1275" y1="187.9219" y2="187.9219"/><text fill="#000000" font-family="sans-serif" font-size="13" font-weight="bold" lengthAdjust="spacing" textLength="7" x="1155.5" y="183.0654">3</text><text fill="#000000" font-family="sans-serif" font-size="13" lengthAdjust="spacing" textLength="75" x="1166.5" y="183.0654">getInstance()</text><polygon fill="#181818" points="1159.5,214.2734,1149.5,218.2734,1159.5,222.2734,1155.5,218.2734" style="stroke:#181818;stroke-width:1.0;"/><line style="stroke:#181818;stroke-width:1.0;stroke-dasharray:2.0,2.0;" x1="1153.5" x2="1285" y1="218.2734" y2="218.2734"/><text fill="#000000" font-family="sans-serif" font-size="13" font-weight="bold" lengthAdjust="spacing" textLength="7" x="1165.5" y="213.417">4</text><text fill="#000000" font-family="sans-serif" font-size="13" lengthAdjust="spacing" textLength="67" x="1176.5" y="213.417">repositories</text><polygon fill="#181818" points="1376,244.625,1386,248.625,1376,252.625,1380,248.625" style="stroke:#181818;stroke-width:1.0;"/><line style="stroke:#181818;stroke-width:1.0;" x1="1148.5" x2="1382" y1="248.625" y2="248.625"/><text fill="#000000" font-family="sans-serif" font-size="13" font-weight="bold" lengthAdjust="spacing" textLength="7" x="1155.5" y="243.7686">5</text><text fill="#000000" font-family="sans-serif" font-size="13" lengthAdjust="spacing" textLength="152" x="1166.5" y="243.7686">getGreenSpaceRepository</text><polygon fill="#181818" points="1159.5,274.9766,1149.5,278.9766,1159.5,282.9766,1155.5,278.9766" style="stroke:#181818;stroke-width:1.0;"/><line style="stroke:#181818;stroke-width:1.0;stroke-dasharray:2.0,2.0;" x1="1153.5" x2="1392" y1="278.9766" y2="278.9766"/><text fill="#000000" font-family="sans-serif" font-size="13" font-weight="bold" lengthAdjust="spacing" textLength="7" x="1165.5" y="274.1201">6</text><text fill="#000000" font-family="sans-serif" font-size="13" lengthAdjust="spacing" textLength="134" x="1176.5" y="274.1201">GreenSpaceRepository</text><polygon fill="#181818" points="1376,305.3281,1386,309.3281,1376,313.3281,1380,309.3281" style="stroke:#181818;stroke-width:1.0;"/><line style="stroke:#181818;stroke-width:1.0;" x1="1148.5" x2="1382" y1="309.3281" y2="309.3281"/><text fill="#000000" font-family="sans-serif" font-size="13" font-weight="bold" lengthAdjust="spacing" textLength="7" x="1155.5" y="304.4717">7</text><text fill="#000000" font-family="sans-serif" font-size="13" lengthAdjust="spacing" textLength="119" x="1166.5" y="304.4717">getEntryRepository()</text><polygon fill="#181818" points="1154.5,335.6797,1144.5,339.6797,1154.5,343.6797,1150.5,339.6797" style="stroke:#181818;stroke-width:1.0;"/><line style="stroke:#181818;stroke-width:1.0;stroke-dasharray:2.0,2.0;" x1="1148.5" x2="1392" y1="339.6797" y2="339.6797"/><text fill="#000000" font-family="sans-serif" font-size="13" font-weight="bold" lengthAdjust="spacing" textLength="7" x="1160.5" y="334.8232">8</text><text fill="#000000" font-family="sans-serif" font-size="13" lengthAdjust="spacing" textLength="91" x="1171.5" y="334.8232">entryRepository</text><polygon fill="#181818" points="1126.5,366.0313,1136.5,370.0313,1126.5,374.0313,1130.5,370.0313" style="stroke:#181818;stroke-width:1.0;"/><line style="stroke:#181818;stroke-width:1.0;" x1="589.5" x2="1132.5" y1="370.0313" y2="370.0313"/><text fill="#000000" font-family="sans-serif" font-size="13" font-weight="bold" lengthAdjust="spacing" textLength="7" x="596.5" y="365.1748">9</text><text fill="#000000" font-family="sans-serif" font-size="13" lengthAdjust="spacing" textLength="117" x="607.5" y="365.1748">getGreenSpacesDto</text><polygon fill="#181818" points="1516,396.3828,1526,400.3828,1516,404.3828,1520,400.3828" style="stroke:#181818;stroke-width:1.0;"/><line style="stroke:#181818;stroke-width:1.0;" x1="1143.5" x2="1522" y1="400.3828" y2="400.3828"/><text fill="#000000" font-family="sans-serif" font-size="13" font-weight="bold" lengthAdjust="spacing" textLength="14" x="1150.5" y="395.5264">10</text><text fill="#000000" font-family="sans-serif" font-size="13" lengthAdjust="spacing" textLength="119" x="1168.5" y="395.5264">getGreenSpaceList()</text><polygon fill="#181818" points="1159.5,426.7344,1149.5,430.7344,1159.5,434.7344,1155.5,430.7344" style="stroke:#181818;stroke-width:1.0;"/><line style="stroke:#181818;stroke-width:1.0;stroke-dasharray:2.0,2.0;" x1="1153.5" x2="1532" y1="430.7344" y2="430.7344"/><text fill="#000000" font-family="sans-serif" font-size="13" font-weight="bold" lengthAdjust="spacing" textLength="14" x="1165.5" y="425.8779">11</text><text fill="#000000" font-family="sans-serif" font-size="13" lengthAdjust="spacing" textLength="90" x="1183.5" y="425.8779">greenSpaceList</text><polygon fill="#181818" points="2502.5,457.0859,2512.5,461.0859,2502.5,465.0859,2506.5,461.0859" style="stroke:#181818;stroke-width:1.0;"/><line style="stroke:#181818;stroke-width:1.0;" x1="1148.5" x2="2508.5" y1="461.0859" y2="461.0859"/><text fill="#000000" font-family="sans-serif" font-size="13" font-weight="bold" lengthAdjust="spacing" textLength="14" x="1155.5" y="456.2295">12</text><text fill="#000000" font-family="sans-serif" font-size="13" lengthAdjust="spacing" textLength="150" x="1173.5" y="456.2295">toDtoList(greenSpaceList)</text><path d="M2436.5,476.0859 L2509.5,476.0859 L2509.5,484.4375 L2499.5,494.4375 L2436.5,494.4375 L2436.5,476.0859 " fill="#EEEEEE" style="stroke:#000000;stroke-width:1.5;"/><rect fill="none" height="108.9219" style="stroke:#000000;stroke-width:1.5;" width="296" x="2436.5" y="476.0859"/><text fill="#000000" font-family="sans-serif" font-size="13" font-weight="bold" lengthAdjust="spacing" textLength="28" x="2451.5" y="490.5811">loop</text><polygon fill="#181818" points="2590.5,512.7891,2600.5,516.7891,2590.5,520.7891,2594.5,516.7891" style="stroke:#181818;stroke-width:1.0;"/><line style="stroke:#181818;stroke-width:1.0;" x1="2519.5" x2="2596.5" y1="516.7891" y2="516.7891"/><text fill="#000000" font-family="sans-serif" font-size="13" font-weight="bold" lengthAdjust="spacing" textLength="14" x="2526.5" y="511.9326">13</text><text fill="#000000" font-family="sans-serif" font-size="13" lengthAdjust="spacing" textLength="36" x="2544.5" y="511.9326">create</text><rect fill="#E3E3E3" height="49.2188" rx="2.5" ry="2.5" style="stroke:#181818;stroke-width:0.5;" width="120" x="2602.5" y="494.4375"/><text fill="#000000" font-family="sans-serif" font-size="14" lengthAdjust="spacing" textLength="99" x="2613" y="515.9707">greenSpaceDto</text><text fill="#000000" font-family="sans-serif" font-size="14" lengthAdjust="spacing" textLength="106" x="2609.5" y="533.5801">:GreenSpaceDto</text><polygon fill="#181818" points="2535.5,573.0078,2525.5,577.0078,2535.5,581.0078,2531.5,577.0078" style="stroke:#181818;stroke-width:1.0;"/><line style="stroke:#181818;stroke-width:1.0;stroke-dasharray:2.0,2.0;" x1="2529.5" x2="2661.5" y1="577.0078" y2="577.0078"/><text fill="#000000" font-family="sans-serif" font-size="13" font-weight="bold" lengthAdjust="spacing" textLength="14" x="2541.5" y="572.1514">14</text><text fill="#000000" font-family="sans-serif" font-size="13" lengthAdjust="spacing" textLength="89" x="2559.5" y="572.1514">greenSpaceDto</text><polygon fill="#181818" points="1159.5,610.3594,1149.5,614.3594,1159.5,618.3594,1155.5,614.3594" style="stroke:#181818;stroke-width:1.0;"/><line style="stroke:#181818;stroke-width:1.0;stroke-dasharray:2.0,2.0;" x1="1153.5" x2="2518.5" y1="614.3594" y2="614.3594"/><text fill="#000000" font-family="sans-serif" font-size="13" font-weight="bold" lengthAdjust="spacing" textLength="14" x="1165.5" y="609.5029">15</text><text fill="#000000" font-family="sans-serif" font-size="13" lengthAdjust="spacing" textLength="110" x="1183.5" y="609.5029">greenSpaceListDto</text><polygon fill="#181818" points="600.5,640.7109,590.5,644.7109,600.5,648.7109,596.5,644.7109" style="stroke:#181818;stroke-width:1.0;"/><line style="stroke:#181818;stroke-width:1.0;stroke-dasharray:2.0,2.0;" x1="594.5" x2="1142.5" y1="644.7109" y2="644.7109"/><text fill="#000000" font-family="sans-serif" font-size="13" font-weight="bold" lengthAdjust="spacing" textLength="14" x="606.5" y="639.8545">16</text><text fill="#000000" font-family="sans-serif" font-size="13" lengthAdjust="spacing" textLength="110" x="624.5" y="639.8545">greenSpaceListDto</text><polygon fill="#181818" points="39.5,671.0625,29.5,675.0625,39.5,679.0625,35.5,675.0625" style="stroke:#181818;stroke-width:1.0;"/><line style="stroke:#181818;stroke-width:1.0;stroke-dasharray:2.0,2.0;" x1="33.5" x2="583.5" y1="675.0625" y2="675.0625"/><text fill="#000000" font-family="sans-serif" font-size="13" font-weight="bold" lengthAdjust="spacing" textLength="14" x="45.5" y="670.2061">17</text><text fill="#000000" font-family="sans-serif" font-size="13" lengthAdjust="spacing" textLength="165" x="63.5" y="670.2061">displays list of green spaces</text><polygon fill="#181818" points="567.5,701.4141,577.5,705.4141,567.5,709.4141,571.5,705.4141" style="stroke:#181818;stroke-width:1.0;"/><line style="stroke:#181818;stroke-width:1.0;" x1="28.5" x2="573.5" y1="705.4141" y2="705.4141"/><text fill="#000000" font-family="sans-serif" font-size="13" font-weight="bold" lengthAdjust="spacing" textLength="14" x="35.5" y="700.5576">18</text><text fill="#000000" font-family="sans-serif" font-size="13" lengthAdjust="spacing" textLength="141" x="53.5" y="700.5576">Selects the green space</text><polygon fill="#181818" points="39.5,731.7656,29.5,735.7656,39.5,739.7656,35.5,735.7656" style="stroke:#181818;stroke-width:1.0;"/><line style="stroke:#181818;stroke-width:1.0;stroke-dasharray:2.0,2.0;" x1="33.5" x2="583.5" y1="735.7656" y2="735.7656"/><text fill="#000000" font-family="sans-serif" font-size="13" font-weight="bold" lengthAdjust="spacing" textLength="14" x="45.5" y="730.9092">19</text><text fill="#000000" font-family="sans-serif" font-size="13" lengthAdjust="spacing" textLength="509" x="63.5" y="730.9092">requests entry data (description, degree of urgency, and approximate expected duration)</text><polygon fill="#181818" points="567.5,762.1172,577.5,766.1172,567.5,770.1172,571.5,766.1172" style="stroke:#181818;stroke-width:1.0;"/><line style="stroke:#181818;stroke-width:1.0;" x1="28.5" x2="573.5" y1="766.1172" y2="766.1172"/><text fill="#000000" font-family="sans-serif" font-size="13" font-weight="bold" lengthAdjust="spacing" textLength="14" x="35.5" y="761.2607">20</text><text fill="#000000" font-family="sans-serif" font-size="13" lengthAdjust="spacing" textLength="122" x="53.5" y="761.2607">types requested data</text><polygon fill="#181818" points="1126.5,792.4688,1136.5,796.4688,1126.5,800.4688,1130.5,796.4688" style="stroke:#181818;stroke-width:1.0;"/><line style="stroke:#181818;stroke-width:1.0;" x1="584.5" x2="1132.5" y1="796.4688" y2="796.4688"/><text fill="#000000" font-family="sans-serif" font-size="13" font-weight="bold" lengthAdjust="spacing" textLength="14" x="591.5" y="791.6123">21</text><text fill="#000000" font-family="sans-serif" font-size="13" lengthAdjust="spacing" textLength="512" x="609.5" y="791.6123">createEntry(greenSpace, description, degree of urgency, approximate expected duration)</text><polygon fill="#181818" points="1685.5,822.8203,1695.5,826.8203,1685.5,830.8203,1689.5,826.8203" style="stroke:#181818;stroke-width:1.0;"/><line style="stroke:#181818;stroke-width:1.0;" x1="1143.5" x2="1691.5" y1="826.8203" y2="826.8203"/><text fill="#000000" font-family="sans-serif" font-size="13" font-weight="bold" lengthAdjust="spacing" textLength="14" x="1150.5" y="821.9639">22</text><text fill="#000000" font-family="sans-serif" font-size="13" lengthAdjust="spacing" textLength="512" x="1168.5" y="821.9639">createEntry(greenSpace, description, degree of urgency, approximate expected duration)</text><polygon fill="#181818" points="2249.5,853.1719,2259.5,857.1719,2249.5,861.1719,2253.5,857.1719" style="stroke:#181818;stroke-width:1.0;"/><line style="stroke:#181818;stroke-width:1.0;" x1="1702.5" x2="2255.5" y1="857.1719" y2="857.1719"/><text fill="#000000" font-family="sans-serif" font-size="13" font-weight="bold" lengthAdjust="spacing" textLength="14" x="1709.5" y="852.3154">23</text><text fill="#000000" font-family="sans-serif" font-size="13" lengthAdjust="spacing" textLength="512" x="1727.5" y="852.3154">createEntry(greenSpace, description, degree of urgency, approximate expected duration)</text><rect fill="#E3E3E3" height="31.6094" rx="2.5" ry="2.5" style="stroke:#181818;stroke-width:0.5;" width="46" x="2261.5" y="834.8203"/><text fill="#000000" font-family="sans-serif" font-size="14" lengthAdjust="spacing" textLength="32" x="2268.5" y="856.3535">entry</text><line style="stroke:#181818;stroke-width:1.0;" x1="2289.5" x2="2336.5" y1="894.7813" y2="894.7813"/><line style="stroke:#181818;stroke-width:1.0;" x1="2336.5" x2="2336.5" y1="894.7813" y2="907.7813"/><line style="stroke:#181818;stroke-width:1.0;" x1="2295.5" x2="2336.5" y1="907.7813" y2="907.7813"/><polygon fill="#181818" points="2305.5,903.7813,2295.5,907.7813,2305.5,911.7813,2301.5,907.7813" style="stroke:#181818;stroke-width:1.0;"/><text fill="#000000" font-family="sans-serif" font-size="13" font-weight="bold" lengthAdjust="spacing" textLength="14" x="2301.5" y="889.9248">24</text><text fill="#000000" font-family="sans-serif" font-size="13" lengthAdjust="spacing" textLength="131" x="2319.5" y="889.9248">verifyFilled(description)</text><line style="stroke:#181818;stroke-width:1.0;" x1="2294.5" x2="2341.5" y1="938.1328" y2="938.1328"/><line style="stroke:#181818;stroke-width:1.0;" x1="2341.5" x2="2341.5" y1="938.1328" y2="951.1328"/><line style="stroke:#181818;stroke-width:1.0;" x1="2300.5" x2="2341.5" y1="951.1328" y2="951.1328"/><polygon fill="#181818" points="2310.5,947.1328,2300.5,951.1328,2310.5,955.1328,2306.5,951.1328" style="stroke:#181818;stroke-width:1.0;"/><text fill="#000000" font-family="sans-serif" font-size="13" font-weight="bold" lengthAdjust="spacing" textLength="14" x="2306.5" y="933.2764">25</text><text fill="#000000" font-family="sans-serif" font-size="13" lengthAdjust="spacing" textLength="188" x="2324.5" y="933.2764">verifyDuration(aproxExpDuration)</text><line style="stroke:#181818;stroke-width:1.0;stroke-dasharray:2.0,2.0;" x1="2299.5" x2="2341.5" y1="991.4844" y2="991.4844"/><line style="stroke:#181818;stroke-width:1.0;stroke-dasharray:2.0,2.0;" x1="2341.5" x2="2341.5" y1="991.4844" y2="1004.4844"/><line style="stroke:#181818;stroke-width:1.0;stroke-dasharray:2.0,2.0;" x1="2294.5" x2="2341.5" y1="1004.4844" y2="1004.4844"/><polygon fill="#181818" points="2304.5,1000.4844,2294.5,1004.4844,2304.5,1008.4844,2300.5,1004.4844" style="stroke:#181818;stroke-width:1.0;"/><text fill="#000000" font-family="sans-serif" font-size="13" font-weight="bold" lengthAdjust="spacing" textLength="14" x="2306.5" y="986.6279">26</text><text fill="#000000" font-family="sans-serif" font-size="13" lengthAdjust="spacing" textLength="4" x="2324.5" y="986.6279"> </text><line style="stroke:#181818;stroke-width:1.0;stroke-dasharray:2.0,2.0;" x1="2294.5" x2="2336.5" y1="1034.8359" y2="1034.8359"/><line style="stroke:#181818;stroke-width:1.0;stroke-dasharray:2.0,2.0;" x1="2336.5" x2="2336.5" y1="1034.8359" y2="1047.8359"/><line style="stroke:#181818;stroke-width:1.0;stroke-dasharray:2.0,2.0;" x1="2289.5" x2="2336.5" y1="1047.8359" y2="1047.8359"/><polygon fill="#181818" points="2299.5,1043.8359,2289.5,1047.8359,2299.5,1051.8359,2295.5,1047.8359" style="stroke:#181818;stroke-width:1.0;"/><text fill="#000000" font-family="sans-serif" font-size="13" font-weight="bold" lengthAdjust="spacing" textLength="14" x="2301.5" y="1029.9795">27</text><text fill="#000000" font-family="sans-serif" font-size="13" lengthAdjust="spacing" textLength="4" x="2319.5" y="1029.9795"> </text><polygon fill="#181818" points="1718.5,1069.1875,1708.5,1073.1875,1718.5,1077.1875,1714.5,1073.1875" style="stroke:#181818;stroke-width:1.0;"/><line style="stroke:#181818;stroke-width:1.0;" x1="1712.5" x2="2283.5" y1="1073.1875" y2="1073.1875"/><text fill="#000000" font-family="sans-serif" font-size="13" font-weight="bold" lengthAdjust="spacing" textLength="14" x="1724.5" y="1068.3311">28</text><text fill="#000000" font-family="sans-serif" font-size="13" lengthAdjust="spacing" textLength="31" x="1742.5" y="1068.3311">Entry</text><polygon fill="#181818" points="1159.5,1099.5391,1149.5,1103.5391,1159.5,1107.5391,1155.5,1103.5391" style="stroke:#181818;stroke-width:1.0;"/><line style="stroke:#181818;stroke-width:1.0;stroke-dasharray:2.0,2.0;" x1="1153.5" x2="1701.5" y1="1103.5391" y2="1103.5391"/><text fill="#000000" font-family="sans-serif" font-size="13" font-weight="bold" lengthAdjust="spacing" textLength="14" x="1165.5" y="1098.6826">29</text><text fill="#000000" font-family="sans-serif" font-size="13" lengthAdjust="spacing" textLength="31" x="1183.5" y="1098.6826">Entry</text><polygon fill="#181818" points="600.5,1129.8906,590.5,1133.8906,600.5,1137.8906,596.5,1133.8906" style="stroke:#181818;stroke-width:1.0;"/><line style="stroke:#181818;stroke-width:1.0;stroke-dasharray:2.0,2.0;" x1="594.5" x2="1142.5" y1="1133.8906" y2="1133.8906"/><text fill="#000000" font-family="sans-serif" font-size="13" font-weight="bold" lengthAdjust="spacing" textLength="14" x="606.5" y="1129.0342">30</text><text fill="#000000" font-family="sans-serif" font-size="13" lengthAdjust="spacing" textLength="31" x="624.5" y="1129.0342">Entry</text><polygon fill="#181818" points="34.5,1160.2422,24.5,1164.2422,34.5,1168.2422,30.5,1164.2422" style="stroke:#181818;stroke-width:1.0;"/><line style="stroke:#181818;stroke-width:1.0;stroke-dasharray:2.0,2.0;" x1="28.5" x2="583.5" y1="1164.2422" y2="1164.2422"/><text fill="#000000" font-family="sans-serif" font-size="13" font-weight="bold" lengthAdjust="spacing" textLength="14" x="40.5" y="1159.3857">31</text><text fill="#000000" font-family="sans-serif" font-size="13" lengthAdjust="spacing" textLength="338" x="58.5" y="1159.3857">displays success message (Entry registered successfully)</text><!--SRC=[lLTDJ-Cm4BtdLumujMZv0psijA8iGWBjYfOR5syo3HQfdRKT8Fz-nywNdRW9e1KzG6lFl7apysQQwcSkIgRO4OvIoFH9oIE2KHKckhyfMVhCSjoPka1Gc1ecyi8tq4yiawzSv71WXSOaILXbfAYEVr3H-zH81MVNkxipO1heVq9kXgUyPCB0sUOUSwuDghtSoYjXLFrmuomVRcOCBoLPog90vMmlz_Ut4-jIQawnEMfdqn_KEsup88gXY_8y7iKKuFVjZtteaIj4iQC2uG2-UHJNaUCc-SX5Y8Ys0CCbqRWAJnnETnRn7UvFKRrZPOcAaAz7HoEApU4fbAsH0GHz7lblzxzSz_aBC-ZwdW2zw0rSVAVkmeRidpKO2IpBW870Lt0vEBlUatJGUDeNkP6pRVVvEG6a2ical-rzd1wwqmm3hExOsbYmY2u8EKTp8pHfFSNLUXeW9gO1EWPvqV8cR5zeCPPHy35jgqRO4Cseg2Q4dNW75EVjKPe5yQWrC10dOuisackiTY76cCbe0awIY9oxhaUaqZ0RKjGarYajqaPSHqaohNwiNkCmjxIjlFp7H2V1eZtepQ8HlRhbGTnOrFS99IpYDDzcBMneRAcABiKmydekiNQdz2Q5b6KinSOk34pxP7Rcmyqpc_-OHk3gYZhDDrXzy_1-_DFHEmiKsM8TsZQFkxp8P9neqyvk_RuBh1q1VwfiVMYBRo3ZkYnOhQ4WVv271X6q6xAb_Uj_4Uome0SB-YvuGXyZEgHnAWh_LgW9mkqFo9XXiCfGfugNXalnZMXOPCkoKZcAjFu6Z4fF5LBoZHyjEhwLH0Cpo2h5hDVw8qcOkaJT4R4Wn64vWtw06rsx_UcDbEMzaCHd4dZds7VR_4lfnRTZ_ypJN_NaEgBUUlWAdZsZEDSHqPubSNn1nG_rJqxFhvalqlLdeROjpnMpILozbTi9yGN43l9ael_18z3JWk-7-ZyCqJngj5anvNSZVH8khj5kjkDBKbSfhKKDH_f3FwXWrPH5jJzhI6wjnQ4gYhhft6Zj-4kU7gZ_0G00]--></g></svg>