<?xml version="1.0" encoding="UTF-8" standalone="no"?><svg xmlns="http://www.w3.org/2000/svg" xmlns:xlink="http://www.w3.org/1999/xlink" contentStyleType="text/css" height="1094px" preserveAspectRatio="none" style="width:1074px;height:1094px;background:#FFFFFF;" version="1.1" viewBox="0 0 1074 1094" width="1074px" zoomAndPan="magnify"><defs/><g><!--class RegisterVehicleUI--><g id="elem_RegisterVehicleUI"><rect codeLine="6" fill="#F1F1F1" height="48" id="RegisterVehicleUI" rx="2.5" ry="2.5" style="stroke:#181818;stroke-width:0.5;" width="143" x="502" y="7"/><ellipse cx="517" cy="23" fill="#ADD1B2" rx="11" ry="11" style="stroke:#181818;stroke-width:1.0;"/><path d="M519.7656,18.875 Q519.9219,18.6563 520.1094,18.5469 Q520.2969,18.4375 520.5156,18.4375 Q520.8906,18.4375 521.125,18.7031 Q521.3594,18.9531 521.3594,19.5625 L521.3594,21.0156 Q521.3594,21.625 521.125,21.8906 Q520.8906,22.1563 520.5156,22.1563 Q520.1719,22.1563 519.9688,21.9531 Q519.7656,21.7656 519.6563,21.25 Q519.6094,20.8906 519.4219,20.7031 Q519.0938,20.3281 518.4844,20.1094 Q517.875,19.8906 517.25,19.8906 Q516.4844,19.8906 515.8438,20.2188 Q515.2188,20.5469 514.7188,21.2969 Q514.2344,22.0469 514.2344,23.0781 L514.2344,24.1719 Q514.2344,25.4063 515.125,26.2344 Q516.0156,27.0469 517.6094,27.0469 Q518.5469,27.0469 519.2031,26.7969 Q519.5938,26.6406 520.0156,26.2031 Q520.2813,25.9375 520.4219,25.8594 Q520.5781,25.7813 520.7813,25.7813 Q521.1094,25.7813 521.3594,26.0469 Q521.625,26.2969 521.625,26.6406 Q521.625,26.9844 521.2813,27.3906 Q520.7813,27.9688 519.9844,28.2969 Q518.9063,28.75 517.6094,28.75 Q516.0938,28.75 514.8906,28.125 Q513.9063,27.625 513.2188,26.5625 Q512.5313,25.4844 512.5313,24.2031 L512.5313,23.0469 Q512.5313,21.7188 513.1406,20.5781 Q513.7656,19.4219 514.8594,18.8125 Q515.9531,18.1875 517.1875,18.1875 Q517.9219,18.1875 518.5625,18.3594 Q519.2188,18.5156 519.7656,18.875 Z " fill="#000000"/><text fill="#000000" font-family="sans-serif" font-size="14" lengthAdjust="spacing" textLength="111" x="531" y="28.7285">RegisterVehicleUI</text><line style="stroke:#181818;stroke-width:0.5;" x1="503" x2="644" y1="39" y2="39"/><line style="stroke:#181818;stroke-width:0.5;" x1="503" x2="644" y1="47" y2="47"/></g><!--class RegisterVehicleController--><g id="elem_RegisterVehicleController"><rect codeLine="9" fill="#F1F1F1" height="136.0469" id="RegisterVehicleController" rx="2.5" ry="2.5" style="stroke:#181818;stroke-width:0.5;" width="987" x="80" y="116"/><ellipse cx="488.75" cy="132" fill="#ADD1B2" rx="11" ry="11" style="stroke:#181818;stroke-width:1.0;"/><path d="M491.5156,127.875 Q491.6719,127.6563 491.8594,127.5469 Q492.0469,127.4375 492.2656,127.4375 Q492.6406,127.4375 492.875,127.7031 Q493.1094,127.9531 493.1094,128.5625 L493.1094,130.0156 Q493.1094,130.625 492.875,130.8906 Q492.6406,131.1563 492.2656,131.1563 Q491.9219,131.1563 491.7188,130.9531 Q491.5156,130.7656 491.4063,130.25 Q491.3594,129.8906 491.1719,129.7031 Q490.8438,129.3281 490.2344,129.1094 Q489.625,128.8906 489,128.8906 Q488.2344,128.8906 487.5938,129.2188 Q486.9688,129.5469 486.4688,130.2969 Q485.9844,131.0469 485.9844,132.0781 L485.9844,133.1719 Q485.9844,134.4063 486.875,135.2344 Q487.7656,136.0469 489.3594,136.0469 Q490.2969,136.0469 490.9531,135.7969 Q491.3438,135.6406 491.7656,135.2031 Q492.0313,134.9375 492.1719,134.8594 Q492.3281,134.7813 492.5313,134.7813 Q492.8594,134.7813 493.1094,135.0469 Q493.375,135.2969 493.375,135.6406 Q493.375,135.9844 493.0313,136.3906 Q492.5313,136.9688 491.7344,137.2969 Q490.6563,137.75 489.3594,137.75 Q487.8438,137.75 486.6406,137.125 Q485.6563,136.625 484.9688,135.5625 Q484.2813,134.4844 484.2813,133.2031 L484.2813,132.0469 Q484.2813,130.7188 484.8906,129.5781 Q485.5156,128.4219 486.6094,127.8125 Q487.7031,127.1875 488.9375,127.1875 Q489.6719,127.1875 490.3125,127.3594 Q490.9688,127.5156 491.5156,127.875 Z " fill="#000000"/><text fill="#000000" font-family="sans-serif" font-size="14" lengthAdjust="spacing" textLength="161" x="509.25" y="137.7285">RegisterVehicleController</text><line style="stroke:#181818;stroke-width:0.5;" x1="81" x2="1066" y1="148" y2="148"/><rect fill="none" height="6" style="stroke:#C82930;stroke-width:1.0;" width="6" x="88" y="159.3047"/><text fill="#000000" font-family="sans-serif" font-size="14" lengthAdjust="spacing" textLength="161" x="100" y="166.5332">repositories: Repositories</text><rect fill="none" height="6" style="stroke:#C82930;stroke-width:1.0;" width="6" x="88" y="176.9141"/><text fill="#000000" font-family="sans-serif" font-size="14" lengthAdjust="spacing" textLength="238" x="100" y="184.1426">vehicleRepository : VehicleRepository</text><line style="stroke:#181818;stroke-width:0.5;" x1="81" x2="1066" y1="191.2188" y2="191.2188"/><ellipse cx="91" cy="205.5234" fill="#84BE84" rx="3" ry="3" style="stroke:#038048;stroke-width:1.0;"/><text fill="#000000" font-family="sans-serif" font-size="14" lengthAdjust="spacing" textLength="171" x="100" y="209.752">RegisterVehicleController()</text><ellipse cx="91" cy="231.9375" fill="#84BE84" rx="3" ry="3" style="stroke:#038048;stroke-width:1.0;"/><text fill="#000000" font-family="sans-serif" font-size="14" lengthAdjust="spacing" textLength="559" x="100" y="227.3613">registerVehicle(VIN: String, brand: String, model: String, type: String, vehiclePlate: String,</text><text fill="#000000" font-family="sans-serif" font-size="14" lengthAdjust="spacing" textLength="961" x="100" y="244.9707">tareWeight: double, grossWeight: double, currentKm: int, registrationDate: LocalDate, acquisitionDate: LocalDate, maintenanceFrequency: int) : Boolean</text></g><!--class Repositories--><g id="elem_Repositories"><rect codeLine="17" fill="#F1F1F1" height="136.0469" id="Repositories" rx="2.5" ry="2.5" style="stroke:#181818;stroke-width:0.5;" width="296" x="203.5" y="330"/><ellipse cx="307.75" cy="346" fill="#ADD1B2" rx="11" ry="11" style="stroke:#181818;stroke-width:1.0;"/><path d="M310.5156,341.875 Q310.6719,341.6563 310.8594,341.5469 Q311.0469,341.4375 311.2656,341.4375 Q311.6406,341.4375 311.875,341.7031 Q312.1094,341.9531 312.1094,342.5625 L312.1094,344.0156 Q312.1094,344.625 311.875,344.8906 Q311.6406,345.1563 311.2656,345.1563 Q310.9219,345.1563 310.7188,344.9531 Q310.5156,344.7656 310.4063,344.25 Q310.3594,343.8906 310.1719,343.7031 Q309.8438,343.3281 309.2344,343.1094 Q308.625,342.8906 308,342.8906 Q307.2344,342.8906 306.5938,343.2188 Q305.9688,343.5469 305.4688,344.2969 Q304.9844,345.0469 304.9844,346.0781 L304.9844,347.1719 Q304.9844,348.4063 305.875,349.2344 Q306.7656,350.0469 308.3594,350.0469 Q309.2969,350.0469 309.9531,349.7969 Q310.3438,349.6406 310.7656,349.2031 Q311.0313,348.9375 311.1719,348.8594 Q311.3281,348.7813 311.5313,348.7813 Q311.8594,348.7813 312.1094,349.0469 Q312.375,349.2969 312.375,349.6406 Q312.375,349.9844 312.0313,350.3906 Q311.5313,350.9688 310.7344,351.2969 Q309.6563,351.75 308.3594,351.75 Q306.8438,351.75 305.6406,351.125 Q304.6563,350.625 303.9688,349.5625 Q303.2813,348.4844 303.2813,347.2031 L303.2813,346.0469 Q303.2813,344.7188 303.8906,343.5781 Q304.5156,342.4219 305.6094,341.8125 Q306.7031,341.1875 307.9375,341.1875 Q308.6719,341.1875 309.3125,341.3594 Q309.9688,341.5156 310.5156,341.875 Z " fill="#000000"/><text fill="#000000" font-family="sans-serif" font-size="14" lengthAdjust="spacing" textLength="79" x="328.25" y="351.7285">Repositories</text><line style="stroke:#181818;stroke-width:0.5;" x1="204.5" x2="498.5" y1="362" y2="362"/><rect fill="none" height="6" style="stroke:#C82930;stroke-width:1.0;" width="6" x="211.5" y="373.3047"/><text fill="#000000" font-family="sans-serif" font-size="14" lengthAdjust="spacing" textLength="144" x="223.5" y="380.5332">instance : Repositories</text><rect fill="none" height="6" style="stroke:#C82930;stroke-width:1.0;" width="6" x="211.5" y="390.9141"/><text fill="#000000" font-family="sans-serif" font-size="14" lengthAdjust="spacing" textLength="238" x="223.5" y="398.1426">vehicleRepository : VehicleRepository</text><line style="stroke:#181818;stroke-width:0.5;" x1="204.5" x2="498.5" y1="405.2188" y2="405.2188"/><rect fill="#F24D5C" height="6" style="stroke:#C82930;stroke-width:1.0;" width="6" x="211.5" y="416.5234"/><text fill="#000000" font-family="sans-serif" font-size="14" lengthAdjust="spacing" textLength="89" x="223.5" y="423.752">Repositories()</text><ellipse cx="214.5" cy="437.1328" fill="#84BE84" rx="3" ry="3" style="stroke:#038048;stroke-width:1.0;"/><text fill="#000000" font-family="sans-serif" font-size="14" lengthAdjust="spacing" textLength="174" x="223.5" y="441.3613">getInstance() : Repositories</text><ellipse cx="214.5" cy="454.7422" fill="#84BE84" rx="3" ry="3" style="stroke:#038048;stroke-width:1.0;"/><text fill="#000000" font-family="sans-serif" font-size="14" lengthAdjust="spacing" textLength="270" x="223.5" y="458.9707">getVehicleRepository() : VehicleRepository</text></g><!--class VehicleRepository--><g id="elem_VehicleRepository"><rect codeLine="25" fill="#F1F1F1" height="171.2656" id="VehicleRepository" rx="2.5" ry="2.5" style="stroke:#181818;stroke-width:0.5;" width="987" x="7" y="544"/><ellipse cx="439.25" cy="560" fill="#ADD1B2" rx="11" ry="11" style="stroke:#181818;stroke-width:1.0;"/><path d="M442.0156,555.875 Q442.1719,555.6563 442.3594,555.5469 Q442.5469,555.4375 442.7656,555.4375 Q443.1406,555.4375 443.375,555.7031 Q443.6094,555.9531 443.6094,556.5625 L443.6094,558.0156 Q443.6094,558.625 443.375,558.8906 Q443.1406,559.1563 442.7656,559.1563 Q442.4219,559.1563 442.2188,558.9531 Q442.0156,558.7656 441.9063,558.25 Q441.8594,557.8906 441.6719,557.7031 Q441.3438,557.3281 440.7344,557.1094 Q440.125,556.8906 439.5,556.8906 Q438.7344,556.8906 438.0938,557.2188 Q437.4688,557.5469 436.9688,558.2969 Q436.4844,559.0469 436.4844,560.0781 L436.4844,561.1719 Q436.4844,562.4063 437.375,563.2344 Q438.2656,564.0469 439.8594,564.0469 Q440.7969,564.0469 441.4531,563.7969 Q441.8438,563.6406 442.2656,563.2031 Q442.5313,562.9375 442.6719,562.8594 Q442.8281,562.7813 443.0313,562.7813 Q443.3594,562.7813 443.6094,563.0469 Q443.875,563.2969 443.875,563.6406 Q443.875,563.9844 443.5313,564.3906 Q443.0313,564.9688 442.2344,565.2969 Q441.1563,565.75 439.8594,565.75 Q438.3438,565.75 437.1406,565.125 Q436.1563,564.625 435.4688,563.5625 Q434.7813,562.4844 434.7813,561.2031 L434.7813,560.0469 Q434.7813,558.7188 435.3906,557.5781 Q436.0156,556.4219 437.1094,555.8125 Q438.2031,555.1875 439.4375,555.1875 Q440.1719,555.1875 440.8125,555.3594 Q441.4688,555.5156 442.0156,555.875 Z " fill="#000000"/><text fill="#000000" font-family="sans-serif" font-size="14" lengthAdjust="spacing" textLength="114" x="459.75" y="565.7285">VehicleRepository</text><line style="stroke:#181818;stroke-width:0.5;" x1="8" x2="993" y1="576" y2="576"/><rect fill="none" height="6" style="stroke:#C82930;stroke-width:1.0;" width="6" x="15" y="587.3047"/><text fill="#000000" font-family="sans-serif" font-size="14" lengthAdjust="spacing" textLength="162" x="27" y="594.5332">vehicleList : List&lt;Vehicle&gt;</text><line style="stroke:#181818;stroke-width:0.5;" x1="8" x2="993" y1="601.6094" y2="601.6094"/><ellipse cx="18" cy="615.9141" fill="#84BE84" rx="3" ry="3" style="stroke:#038048;stroke-width:1.0;"/><text fill="#000000" font-family="sans-serif" font-size="14" lengthAdjust="spacing" textLength="124" x="27" y="620.1426">VehicleRepository()</text><ellipse cx="18" cy="633.5234" fill="#84BE84" rx="3" ry="3" style="stroke:#038048;stroke-width:1.0;"/><text fill="#000000" font-family="sans-serif" font-size="14" lengthAdjust="spacing" textLength="205" x="27" y="637.752">getVehicleList () : List&lt;Vehicles&gt;</text><ellipse cx="18" cy="659.9375" fill="#84BE84" rx="3" ry="3" style="stroke:#038048;stroke-width:1.0;"/><text fill="#000000" font-family="sans-serif" font-size="14" lengthAdjust="spacing" textLength="559" x="27" y="655.3613">registerVehicle(VIN: String, brand: String, model: String, type: String, vehiclePlate: String,</text><text fill="#000000" font-family="sans-serif" font-size="14" lengthAdjust="spacing" textLength="961" x="27" y="672.9707">tareWeight: double, grossWeight: double, currentKm: int, registrationDate: LocalDate, acquisitionDate: LocalDate, maintenanceFrequency: int) : Boolean</text><ellipse cx="18" cy="686.3516" fill="#84BE84" rx="3" ry="3" style="stroke:#038048;stroke-width:1.0;"/><text fill="#000000" font-family="sans-serif" font-size="14" lengthAdjust="spacing" textLength="216" x="27" y="690.5801">addVehicle(vehicle: Vehicle) : void</text><ellipse cx="18" cy="703.9609" fill="#84BE84" rx="3" ry="3" style="stroke:#038048;stroke-width:1.0;"/><text fill="#000000" font-family="sans-serif" font-size="14" lengthAdjust="spacing" textLength="399" x="27" y="708.1895">verifyExistingVehicle(VIN: String, VehiclePlate: String) : Boolean</text></g><!--class Vehicle--><g id="elem_Vehicle"><rect codeLine="35" fill="#F1F1F1" height="294.5313" id="Vehicle" rx="2.5" ry="2.5" style="stroke:#181818;stroke-width:0.5;" width="759" x="121" y="793"/><ellipse cx="473.25" cy="809" fill="#ADD1B2" rx="11" ry="11" style="stroke:#181818;stroke-width:1.0;"/><path d="M476.0156,804.875 Q476.1719,804.6563 476.3594,804.5469 Q476.5469,804.4375 476.7656,804.4375 Q477.1406,804.4375 477.375,804.7031 Q477.6094,804.9531 477.6094,805.5625 L477.6094,807.0156 Q477.6094,807.625 477.375,807.8906 Q477.1406,808.1563 476.7656,808.1563 Q476.4219,808.1563 476.2188,807.9531 Q476.0156,807.7656 475.9063,807.25 Q475.8594,806.8906 475.6719,806.7031 Q475.3438,806.3281 474.7344,806.1094 Q474.125,805.8906 473.5,805.8906 Q472.7344,805.8906 472.0938,806.2188 Q471.4688,806.5469 470.9688,807.2969 Q470.4844,808.0469 470.4844,809.0781 L470.4844,810.1719 Q470.4844,811.4063 471.375,812.2344 Q472.2656,813.0469 473.8594,813.0469 Q474.7969,813.0469 475.4531,812.7969 Q475.8438,812.6406 476.2656,812.2031 Q476.5313,811.9375 476.6719,811.8594 Q476.8281,811.7813 477.0313,811.7813 Q477.3594,811.7813 477.6094,812.0469 Q477.875,812.2969 477.875,812.6406 Q477.875,812.9844 477.5313,813.3906 Q477.0313,813.9688 476.2344,814.2969 Q475.1563,814.75 473.8594,814.75 Q472.3438,814.75 471.1406,814.125 Q470.1563,813.625 469.4688,812.5625 Q468.7813,811.4844 468.7813,810.2031 L468.7813,809.0469 Q468.7813,807.7188 469.3906,806.5781 Q470.0156,805.4219 471.1094,804.8125 Q472.2031,804.1875 473.4375,804.1875 Q474.1719,804.1875 474.8125,804.3594 Q475.4688,804.5156 476.0156,804.875 Z " fill="#000000"/><text fill="#000000" font-family="sans-serif" font-size="14" lengthAdjust="spacing" textLength="46" x="493.75" y="814.7285">Vehicle</text><line style="stroke:#181818;stroke-width:0.5;" x1="122" x2="879" y1="825" y2="825"/><rect fill="none" height="6" style="stroke:#C82930;stroke-width:1.0;" width="6" x="129" y="836.3047"/><text fill="#000000" font-family="sans-serif" font-size="14" lengthAdjust="spacing" textLength="70" x="141" y="843.5332">VIN : String</text><rect fill="none" height="6" style="stroke:#C82930;stroke-width:1.0;" width="6" x="129" y="853.9141"/><text fill="#000000" font-family="sans-serif" font-size="14" lengthAdjust="spacing" textLength="86" x="141" y="861.1426">brand : String</text><rect fill="none" height="6" style="stroke:#C82930;stroke-width:1.0;" width="6" x="129" y="871.5234"/><text fill="#000000" font-family="sans-serif" font-size="14" lengthAdjust="spacing" textLength="87" x="141" y="878.752">model : String</text><rect fill="none" height="6" style="stroke:#C82930;stroke-width:1.0;" width="6" x="129" y="889.1328"/><text fill="#000000" font-family="sans-serif" font-size="14" lengthAdjust="spacing" textLength="117" x="141" y="896.3613">type : VehicleType</text><rect fill="none" height="6" style="stroke:#C82930;stroke-width:1.0;" width="6" x="129" y="906.7422"/><text fill="#000000" font-family="sans-serif" font-size="14" lengthAdjust="spacing" textLength="173" x="141" y="913.9707">registrationDate: LocalDate</text><rect fill="none" height="6" style="stroke:#C82930;stroke-width:1.0;" width="6" x="129" y="924.3516"/><text fill="#000000" font-family="sans-serif" font-size="14" lengthAdjust="spacing" textLength="125" x="141" y="931.5801">vehiclePlate : String</text><rect fill="none" height="6" style="stroke:#C82930;stroke-width:1.0;" width="6" x="129" y="941.9609"/><text fill="#000000" font-family="sans-serif" font-size="14" lengthAdjust="spacing" textLength="124" x="141" y="949.1895">tareWeight : double</text><rect fill="none" height="6" style="stroke:#C82930;stroke-width:1.0;" width="6" x="129" y="959.5703"/><text fill="#000000" font-family="sans-serif" font-size="14" lengthAdjust="spacing" textLength="134" x="141" y="966.7988">grossWeight : double</text><rect fill="none" height="6" style="stroke:#C82930;stroke-width:1.0;" width="6" x="129" y="977.1797"/><text fill="#000000" font-family="sans-serif" font-size="14" lengthAdjust="spacing" textLength="92" x="141" y="984.4082">currentKm : int</text><rect fill="none" height="6" style="stroke:#C82930;stroke-width:1.0;" width="6" x="129" y="994.7891"/><text fill="#000000" font-family="sans-serif" font-size="14" lengthAdjust="spacing" textLength="173" x="141" y="1002.0176">acquisitionDate : LocalDate</text><rect fill="none" height="6" style="stroke:#C82930;stroke-width:1.0;" width="6" x="129" y="1012.3984"/><text fill="#000000" font-family="sans-serif" font-size="14" lengthAdjust="spacing" textLength="176" x="141" y="1019.627">maintenanceFrequency : int</text><line style="stroke:#181818;stroke-width:0.5;" x1="122" x2="879" y1="1026.7031" y2="1026.7031"/><ellipse cx="132" cy="1049.8125" fill="#84BE84" rx="3" ry="3" style="stroke:#038048;stroke-width:1.0;"/><text fill="#000000" font-family="sans-serif" font-size="14" lengthAdjust="spacing" textLength="729" x="141" y="1045.2363">Vehicle(VIN: String, brand: String, model: String, type: VehicleType, registrationDate: LocalDate vehiclePlate: String,</text><text fill="#000000" font-family="sans-serif" font-size="14" lengthAdjust="spacing" textLength="716" x="141" y="1062.8457">tareWeight: double, grossWeight: double, currentKm: int, acquisitionDate: LocalDate, maintenanceFrequency: int)</text><ellipse cx="132" cy="1076.2266" fill="#84BE84" rx="3" ry="3" style="stroke:#038048;stroke-width:1.0;"/><text fill="#000000" font-family="sans-serif" font-size="14" lengthAdjust="spacing" textLength="267" x="141" y="1080.4551">validateVehicle(vehicle: Vehicle) : Boolean</text></g><!--link RegisterVehicleUI to RegisterVehicleController--><g id="link_RegisterVehicleUI_RegisterVehicleController"><path codeLine="52" d="M573.5,55.26 C573.5,70.29 573.5,90.72 573.5,110.84 " fill="none" id="RegisterVehicleUI-to-RegisterVehicleController" style="stroke:#181818;stroke-width:1.0;stroke-dasharray:7.0,7.0;"/><polygon fill="#181818" points="573.5,115.95,577.5,106.95,573.5,110.95,569.5,106.95,573.5,115.95" style="stroke:#181818;stroke-width:1.0;"/></g><!--link RegisterVehicleController to Repositories--><g id="link_RegisterVehicleController_Repositories"><path codeLine="53" d="M503.26,252.08 C478.44,275.78 450.46,302.5 425.35,326.48 " fill="none" id="RegisterVehicleController-to-Repositories" style="stroke:#181818;stroke-width:1.0;stroke-dasharray:7.0,7.0;"/><polygon fill="#181818" points="421.67,329.99,430.9387,326.6596,425.2832,326.5339,425.4089,320.8784,421.67,329.99" style="stroke:#181818;stroke-width:1.0;"/><text fill="#000000" font-family="sans-serif" font-size="13" lengthAdjust="spacing" textLength="67" x="470.5" y="296.4951">repositories</text></g><!--link Repositories to Repositories--><g id="link_Repositories_Repositories"><path codeLine="54" d="M499.77,380.21 C520.57,383.12 534.5,389.05 534.5,398 C534.5,406.18 522.86,411.84 504.98,414.97 " fill="none" id="Repositories-to-Repositories" style="stroke:#181818;stroke-width:1.0;"/><polygon fill="#181818" points="499.77,415.79,509.2792,418.3543,504.7102,415.019,508.0455,410.45,499.77,415.79" style="stroke:#181818;stroke-width:1.0;"/><text fill="#000000" font-family="sans-serif" font-size="13" lengthAdjust="spacing" textLength="49" x="540.5" y="403.4951">instance</text></g><!--link RegisterVehicleController to VehicleRepository--><g id="link_RegisterVehicleController_VehicleRepository"><path codeLine="55" d="M591.77,252.06 C604.48,309.75 615.99,394.7 596.5,466 C589.62,491.19 577.72,516.44 564.59,539.28 " fill="none" id="RegisterVehicleController-to-VehicleRepository" style="stroke:#181818;stroke-width:1.0;stroke-dasharray:7.0,7.0;"/><polygon fill="#181818" points="561.95,543.81,569.9293,538.0367,564.4614,539.4865,563.0116,534.0185,561.95,543.81" style="stroke:#181818;stroke-width:1.0;"/><text fill="#000000" font-family="sans-serif" font-size="13" lengthAdjust="spacing" textLength="101" x="607.5" y="403.4951">vehicleRepository</text></g><!--link Repositories to VehicleRepository--><g id="link_Repositories_VehicleRepository"><path codeLine="56" d="M395.2,466.31 C410.05,489.19 426.89,515.12 442.68,539.44 " fill="none" id="Repositories-to-VehicleRepository" style="stroke:#181818;stroke-width:1.0;"/><polygon fill="#181818" points="445.4,543.64,443.8512,533.9137,442.6761,539.4471,437.1426,538.272,445.4,543.64" style="stroke:#181818;stroke-width:1.0;"/><text fill="#000000" font-family="sans-serif" font-size="13" lengthAdjust="spacing" textLength="101" x="427.5" y="510.4951">vehicleRepository</text><text fill="#000000" font-family="sans-serif" font-size="13" lengthAdjust="spacing" textLength="7" x="433.3641" y="533.0727">1</text></g><!--link VehicleRepository to Vehicle--><g id="link_VehicleRepository_Vehicle"><path codeLine="57" d="M500.5,715.34 C500.5,737.78 500.5,762.69 500.5,787.52 " fill="none" id="VehicleRepository-to-Vehicle" style="stroke:#181818;stroke-width:1.0;"/><polygon fill="#181818" points="500.5,792.81,504.5,783.81,500.5,787.81,496.5,783.81,500.5,792.81" style="stroke:#181818;stroke-width:1.0;"/><text fill="#000000" font-family="sans-serif" font-size="13" lengthAdjust="spacing" textLength="39" x="501.5" y="759.4951">vehicle</text><text fill="#000000" font-family="sans-serif" font-size="13" lengthAdjust="spacing" textLength="5" x="495.3711" y="782.2985">*</text></g><!--SRC=[xLLBZzCm4BxxLunweOLs9QuHwW4Mf8eLGZpAXOitcQOMhjsrtKA4-E_ONYTnOgVBwqWlxNZUtpUTqL-OE5953w3tj99VcQXXHxb6eZiDPmB1D4U4e-IDamXvn75dm4XGhDuRg9Z2qZ0f207xAJdL6jvXpRH1jSKzApb-tC1th_rnmUY554P9pb45O_TPWSAZrCn8nL0NrgUN8gFpVOXEsq01s_4RwHoUJEUUBo8hDRIQRpTl2dXlb8Lg2RUAYgeN3x92teiEj5uAzRtbr4IlduMX2Z-Xmx60IfvkEIwXLbBhyMDvKWg5UNqeW0cp39Kfwe2_za5lP4cv-xa4MjwTcEqvfpjGwu-2YX9VARmxeIWR7tDX8Nik9KSgSbJri0_OOK8R5ml-afhUFWup8AD6imdPvekfVDui2U_jyqa7RIOcWrv39pSMU1lEVJqB3kjuj3BPi-NvEBwoE9HU_v-_205QLMtpeOUEIETmbgoAhC-esAvv-SsMPXlCehRD875nz8F3O19iH6YTesVFI4xXkSaf_6hjElfWfS7ccyGudKhVK3P5Hp6qT4RQYEoSkgCTF4UHPiGnv8lBiHr2fV-Otn_l2BUB8_dlv__FHZmULSfPPSqlJVTe9jEZUdMrdhvaPFg-tll5TpM-icImxLUhiMsxynz8aEp18hq5QQhPqzalEQQhsdhF7i_Qj9qF-Ga0]--></g></svg>