<?xml version="1.0" encoding="UTF-8" standalone="no"?><svg xmlns="http://www.w3.org/2000/svg" xmlns:xlink="http://www.w3.org/1999/xlink" contentStyleType="text/css" height="1147px" preserveAspectRatio="none" style="width:1074px;height:1147px;background:#FFFFFF;" version="1.1" viewBox="0 0 1074 1147" width="1074px" zoomAndPan="magnify"><defs/><g><!--class RegisterVehicleUI--><g id="elem_RegisterVehicleUI"><rect codeLine="6" fill="#F1F1F1" height="100.8281" id="RegisterVehicleUI" rx="2.5" ry="2.5" style="stroke:#181818;stroke-width:0.5;" width="258" x="444.5" y="7"/><ellipse cx="513.75" cy="23" fill="#ADD1B2" rx="11" ry="11" style="stroke:#181818;stroke-width:1.0;"/><path d="M516.5156,18.875 Q516.6719,18.6563 516.8594,18.5469 Q517.0469,18.4375 517.2656,18.4375 Q517.6406,18.4375 517.875,18.7031 Q518.1094,18.9531 518.1094,19.5625 L518.1094,21.0156 Q518.1094,21.625 517.875,21.8906 Q517.6406,22.1563 517.2656,22.1563 Q516.9219,22.1563 516.7188,21.9531 Q516.5156,21.7656 516.4063,21.25 Q516.3594,20.8906 516.1719,20.7031 Q515.8438,20.3281 515.2344,20.1094 Q514.625,19.8906 514,19.8906 Q513.2344,19.8906 512.5938,20.2188 Q511.9688,20.5469 511.4688,21.2969 Q510.9844,22.0469 510.9844,23.0781 L510.9844,24.1719 Q510.9844,25.4063 511.875,26.2344 Q512.7656,27.0469 514.3594,27.0469 Q515.2969,27.0469 515.9531,26.7969 Q516.3438,26.6406 516.7656,26.2031 Q517.0313,25.9375 517.1719,25.8594 Q517.3281,25.7813 517.5313,25.7813 Q517.8594,25.7813 518.1094,26.0469 Q518.375,26.2969 518.375,26.6406 Q518.375,26.9844 518.0313,27.3906 Q517.5313,27.9688 516.7344,28.2969 Q515.6563,28.75 514.3594,28.75 Q512.8438,28.75 511.6406,28.125 Q510.6563,27.625 509.9688,26.5625 Q509.2813,25.4844 509.2813,24.2031 L509.2813,23.0469 Q509.2813,21.7188 509.8906,20.5781 Q510.5156,19.4219 511.6094,18.8125 Q512.7031,18.1875 513.9375,18.1875 Q514.6719,18.1875 515.3125,18.3594 Q515.9688,18.5156 516.5156,18.875 Z " fill="#000000"/><text fill="#000000" font-family="sans-serif" font-size="14" lengthAdjust="spacing" textLength="111" x="534.25" y="28.7285">RegisterVehicleUI</text><line style="stroke:#181818;stroke-width:0.5;" x1="445.5" x2="701.5" y1="39" y2="39"/><rect fill="none" height="6" style="stroke:#C82930;stroke-width:1.0;" width="6" x="452.5" y="50.3047"/><text fill="#000000" font-family="sans-serif" font-size="14" lengthAdjust="spacing" textLength="232" x="464.5" y="57.5332">controller : RegisterVehicleController</text><line style="stroke:#181818;stroke-width:0.5;" x1="445.5" x2="701.5" y1="64.6094" y2="64.6094"/><ellipse cx="455.5" cy="78.9141" fill="#84BE84" rx="3" ry="3" style="stroke:#038048;stroke-width:1.0;"/><text fill="#000000" font-family="sans-serif" font-size="14" lengthAdjust="spacing" textLength="121" x="464.5" y="83.1426">RegisterVehicleUI()</text><ellipse cx="455.5" cy="96.5234" fill="#84BE84" rx="3" ry="3" style="stroke:#038048;stroke-width:1.0;"/><text fill="#000000" font-family="sans-serif" font-size="14" lengthAdjust="spacing" textLength="142" x="464.5" y="100.752">registerVehicle() : void</text></g><!--class RegisterVehicleController--><g id="elem_RegisterVehicleController"><rect codeLine="12" fill="#F1F1F1" height="136.0469" id="RegisterVehicleController" rx="2.5" ry="2.5" style="stroke:#181818;stroke-width:0.5;" width="987" x="80" y="169"/><ellipse cx="488.75" cy="185" fill="#ADD1B2" rx="11" ry="11" style="stroke:#181818;stroke-width:1.0;"/><path d="M491.5156,180.875 Q491.6719,180.6563 491.8594,180.5469 Q492.0469,180.4375 492.2656,180.4375 Q492.6406,180.4375 492.875,180.7031 Q493.1094,180.9531 493.1094,181.5625 L493.1094,183.0156 Q493.1094,183.625 492.875,183.8906 Q492.6406,184.1563 492.2656,184.1563 Q491.9219,184.1563 491.7188,183.9531 Q491.5156,183.7656 491.4063,183.25 Q491.3594,182.8906 491.1719,182.7031 Q490.8438,182.3281 490.2344,182.1094 Q489.625,181.8906 489,181.8906 Q488.2344,181.8906 487.5938,182.2188 Q486.9688,182.5469 486.4688,183.2969 Q485.9844,184.0469 485.9844,185.0781 L485.9844,186.1719 Q485.9844,187.4063 486.875,188.2344 Q487.7656,189.0469 489.3594,189.0469 Q490.2969,189.0469 490.9531,188.7969 Q491.3438,188.6406 491.7656,188.2031 Q492.0313,187.9375 492.1719,187.8594 Q492.3281,187.7813 492.5313,187.7813 Q492.8594,187.7813 493.1094,188.0469 Q493.375,188.2969 493.375,188.6406 Q493.375,188.9844 493.0313,189.3906 Q492.5313,189.9688 491.7344,190.2969 Q490.6563,190.75 489.3594,190.75 Q487.8438,190.75 486.6406,190.125 Q485.6563,189.625 484.9688,188.5625 Q484.2813,187.4844 484.2813,186.2031 L484.2813,185.0469 Q484.2813,183.7188 484.8906,182.5781 Q485.5156,181.4219 486.6094,180.8125 Q487.7031,180.1875 488.9375,180.1875 Q489.6719,180.1875 490.3125,180.3594 Q490.9688,180.5156 491.5156,180.875 Z " fill="#000000"/><text fill="#000000" font-family="sans-serif" font-size="14" lengthAdjust="spacing" textLength="161" x="509.25" y="190.7285">RegisterVehicleController</text><line style="stroke:#181818;stroke-width:0.5;" x1="81" x2="1066" y1="201" y2="201"/><rect fill="none" height="6" style="stroke:#C82930;stroke-width:1.0;" width="6" x="88" y="212.3047"/><text fill="#000000" font-family="sans-serif" font-size="14" lengthAdjust="spacing" textLength="161" x="100" y="219.5332">repositories: Repositories</text><rect fill="none" height="6" style="stroke:#C82930;stroke-width:1.0;" width="6" x="88" y="229.9141"/><text fill="#000000" font-family="sans-serif" font-size="14" lengthAdjust="spacing" textLength="238" x="100" y="237.1426">vehicleRepository : VehicleRepository</text><line style="stroke:#181818;stroke-width:0.5;" x1="81" x2="1066" y1="244.2188" y2="244.2188"/><ellipse cx="91" cy="258.5234" fill="#84BE84" rx="3" ry="3" style="stroke:#038048;stroke-width:1.0;"/><text fill="#000000" font-family="sans-serif" font-size="14" lengthAdjust="spacing" textLength="171" x="100" y="262.752">RegisterVehicleController()</text><ellipse cx="91" cy="284.9375" fill="#84BE84" rx="3" ry="3" style="stroke:#038048;stroke-width:1.0;"/><text fill="#000000" font-family="sans-serif" font-size="14" lengthAdjust="spacing" textLength="559" x="100" y="280.3613">registerVehicle(VIN: String, brand: String, model: String, type: String, vehiclePlate: String,</text><text fill="#000000" font-family="sans-serif" font-size="14" lengthAdjust="spacing" textLength="961" x="100" y="297.9707">tareWeight: double, grossWeight: double, currentKm: int, registrationDate: LocalDate, acquisitionDate: LocalDate, maintenanceFrequency: int) : Boolean</text></g><!--class Repositories--><g id="elem_Repositories"><rect codeLine="20" fill="#F1F1F1" height="136.0469" id="Repositories" rx="2.5" ry="2.5" style="stroke:#181818;stroke-width:0.5;" width="296" x="203.5" y="383"/><ellipse cx="307.75" cy="399" fill="#ADD1B2" rx="11" ry="11" style="stroke:#181818;stroke-width:1.0;"/><path d="M310.5156,394.875 Q310.6719,394.6563 310.8594,394.5469 Q311.0469,394.4375 311.2656,394.4375 Q311.6406,394.4375 311.875,394.7031 Q312.1094,394.9531 312.1094,395.5625 L312.1094,397.0156 Q312.1094,397.625 311.875,397.8906 Q311.6406,398.1563 311.2656,398.1563 Q310.9219,398.1563 310.7188,397.9531 Q310.5156,397.7656 310.4063,397.25 Q310.3594,396.8906 310.1719,396.7031 Q309.8438,396.3281 309.2344,396.1094 Q308.625,395.8906 308,395.8906 Q307.2344,395.8906 306.5938,396.2188 Q305.9688,396.5469 305.4688,397.2969 Q304.9844,398.0469 304.9844,399.0781 L304.9844,400.1719 Q304.9844,401.4063 305.875,402.2344 Q306.7656,403.0469 308.3594,403.0469 Q309.2969,403.0469 309.9531,402.7969 Q310.3438,402.6406 310.7656,402.2031 Q311.0313,401.9375 311.1719,401.8594 Q311.3281,401.7813 311.5313,401.7813 Q311.8594,401.7813 312.1094,402.0469 Q312.375,402.2969 312.375,402.6406 Q312.375,402.9844 312.0313,403.3906 Q311.5313,403.9688 310.7344,404.2969 Q309.6563,404.75 308.3594,404.75 Q306.8438,404.75 305.6406,404.125 Q304.6563,403.625 303.9688,402.5625 Q303.2813,401.4844 303.2813,400.2031 L303.2813,399.0469 Q303.2813,397.7188 303.8906,396.5781 Q304.5156,395.4219 305.6094,394.8125 Q306.7031,394.1875 307.9375,394.1875 Q308.6719,394.1875 309.3125,394.3594 Q309.9688,394.5156 310.5156,394.875 Z " fill="#000000"/><text fill="#000000" font-family="sans-serif" font-size="14" lengthAdjust="spacing" textLength="79" x="328.25" y="404.7285">Repositories</text><line style="stroke:#181818;stroke-width:0.5;" x1="204.5" x2="498.5" y1="415" y2="415"/><rect fill="none" height="6" style="stroke:#C82930;stroke-width:1.0;" width="6" x="211.5" y="426.3047"/><text fill="#000000" font-family="sans-serif" font-size="14" lengthAdjust="spacing" textLength="144" x="223.5" y="433.5332">instance : Repositories</text><rect fill="none" height="6" style="stroke:#C82930;stroke-width:1.0;" width="6" x="211.5" y="443.9141"/><text fill="#000000" font-family="sans-serif" font-size="14" lengthAdjust="spacing" textLength="238" x="223.5" y="451.1426">vehicleRepository : VehicleRepository</text><line style="stroke:#181818;stroke-width:0.5;" x1="204.5" x2="498.5" y1="458.2188" y2="458.2188"/><rect fill="#F24D5C" height="6" style="stroke:#C82930;stroke-width:1.0;" width="6" x="211.5" y="469.5234"/><text fill="#000000" font-family="sans-serif" font-size="14" lengthAdjust="spacing" textLength="89" x="223.5" y="476.752">Repositories()</text><ellipse cx="214.5" cy="490.1328" fill="#84BE84" rx="3" ry="3" style="stroke:#038048;stroke-width:1.0;"/><text fill="#000000" font-family="sans-serif" font-size="14" lengthAdjust="spacing" textLength="174" x="223.5" y="494.3613">getInstance() : Repositories</text><ellipse cx="214.5" cy="507.7422" fill="#84BE84" rx="3" ry="3" style="stroke:#038048;stroke-width:1.0;"/><text fill="#000000" font-family="sans-serif" font-size="14" lengthAdjust="spacing" textLength="270" x="223.5" y="511.9707">getVehicleRepository() : VehicleRepository</text></g><!--class VehicleRepository--><g id="elem_VehicleRepository"><rect codeLine="28" fill="#F1F1F1" height="171.2656" id="VehicleRepository" rx="2.5" ry="2.5" style="stroke:#181818;stroke-width:0.5;" width="987" x="7" y="597"/><ellipse cx="439.25" cy="613" fill="#ADD1B2" rx="11" ry="11" style="stroke:#181818;stroke-width:1.0;"/><path d="M442.0156,608.875 Q442.1719,608.6563 442.3594,608.5469 Q442.5469,608.4375 442.7656,608.4375 Q443.1406,608.4375 443.375,608.7031 Q443.6094,608.9531 443.6094,609.5625 L443.6094,611.0156 Q443.6094,611.625 443.375,611.8906 Q443.1406,612.1563 442.7656,612.1563 Q442.4219,612.1563 442.2188,611.9531 Q442.0156,611.7656 441.9063,611.25 Q441.8594,610.8906 441.6719,610.7031 Q441.3438,610.3281 440.7344,610.1094 Q440.125,609.8906 439.5,609.8906 Q438.7344,609.8906 438.0938,610.2188 Q437.4688,610.5469 436.9688,611.2969 Q436.4844,612.0469 436.4844,613.0781 L436.4844,614.1719 Q436.4844,615.4063 437.375,616.2344 Q438.2656,617.0469 439.8594,617.0469 Q440.7969,617.0469 441.4531,616.7969 Q441.8438,616.6406 442.2656,616.2031 Q442.5313,615.9375 442.6719,615.8594 Q442.8281,615.7813 443.0313,615.7813 Q443.3594,615.7813 443.6094,616.0469 Q443.875,616.2969 443.875,616.6406 Q443.875,616.9844 443.5313,617.3906 Q443.0313,617.9688 442.2344,618.2969 Q441.1563,618.75 439.8594,618.75 Q438.3438,618.75 437.1406,618.125 Q436.1563,617.625 435.4688,616.5625 Q434.7813,615.4844 434.7813,614.2031 L434.7813,613.0469 Q434.7813,611.7188 435.3906,610.5781 Q436.0156,609.4219 437.1094,608.8125 Q438.2031,608.1875 439.4375,608.1875 Q440.1719,608.1875 440.8125,608.3594 Q441.4688,608.5156 442.0156,608.875 Z " fill="#000000"/><text fill="#000000" font-family="sans-serif" font-size="14" lengthAdjust="spacing" textLength="114" x="459.75" y="618.7285">VehicleRepository</text><line style="stroke:#181818;stroke-width:0.5;" x1="8" x2="993" y1="629" y2="629"/><rect fill="none" height="6" style="stroke:#C82930;stroke-width:1.0;" width="6" x="15" y="640.3047"/><text fill="#000000" font-family="sans-serif" font-size="14" lengthAdjust="spacing" textLength="162" x="27" y="647.5332">vehicleList : List&lt;Vehicle&gt;</text><line style="stroke:#181818;stroke-width:0.5;" x1="8" x2="993" y1="654.6094" y2="654.6094"/><ellipse cx="18" cy="668.9141" fill="#84BE84" rx="3" ry="3" style="stroke:#038048;stroke-width:1.0;"/><text fill="#000000" font-family="sans-serif" font-size="14" lengthAdjust="spacing" textLength="124" x="27" y="673.1426">VehicleRepository()</text><ellipse cx="18" cy="686.5234" fill="#84BE84" rx="3" ry="3" style="stroke:#038048;stroke-width:1.0;"/><text fill="#000000" font-family="sans-serif" font-size="14" lengthAdjust="spacing" textLength="205" x="27" y="690.752">getVehicleList () : List&lt;Vehicles&gt;</text><ellipse cx="18" cy="712.9375" fill="#84BE84" rx="3" ry="3" style="stroke:#038048;stroke-width:1.0;"/><text fill="#000000" font-family="sans-serif" font-size="14" lengthAdjust="spacing" textLength="559" x="27" y="708.3613">registerVehicle(VIN: String, brand: String, model: String, type: String, vehiclePlate: String,</text><text fill="#000000" font-family="sans-serif" font-size="14" lengthAdjust="spacing" textLength="961" x="27" y="725.9707">tareWeight: double, grossWeight: double, currentKm: int, registrationDate: LocalDate, acquisitionDate: LocalDate, maintenanceFrequency: int) : Boolean</text><ellipse cx="18" cy="739.3516" fill="#84BE84" rx="3" ry="3" style="stroke:#038048;stroke-width:1.0;"/><text fill="#000000" font-family="sans-serif" font-size="14" lengthAdjust="spacing" textLength="216" x="27" y="743.5801">addVehicle(vehicle: Vehicle) : void</text><ellipse cx="18" cy="756.9609" fill="#84BE84" rx="3" ry="3" style="stroke:#038048;stroke-width:1.0;"/><text fill="#000000" font-family="sans-serif" font-size="14" lengthAdjust="spacing" textLength="399" x="27" y="761.1895">verifyExistingVehicle(VIN: String, VehiclePlate: String) : Boolean</text></g><!--class Vehicle--><g id="elem_Vehicle"><rect codeLine="38" fill="#F1F1F1" height="294.5313" id="Vehicle" rx="2.5" ry="2.5" style="stroke:#181818;stroke-width:0.5;" width="759" x="121" y="846"/><ellipse cx="473.25" cy="862" fill="#ADD1B2" rx="11" ry="11" style="stroke:#181818;stroke-width:1.0;"/><path d="M476.0156,857.875 Q476.1719,857.6563 476.3594,857.5469 Q476.5469,857.4375 476.7656,857.4375 Q477.1406,857.4375 477.375,857.7031 Q477.6094,857.9531 477.6094,858.5625 L477.6094,860.0156 Q477.6094,860.625 477.375,860.8906 Q477.1406,861.1563 476.7656,861.1563 Q476.4219,861.1563 476.2188,860.9531 Q476.0156,860.7656 475.9063,860.25 Q475.8594,859.8906 475.6719,859.7031 Q475.3438,859.3281 474.7344,859.1094 Q474.125,858.8906 473.5,858.8906 Q472.7344,858.8906 472.0938,859.2188 Q471.4688,859.5469 470.9688,860.2969 Q470.4844,861.0469 470.4844,862.0781 L470.4844,863.1719 Q470.4844,864.4063 471.375,865.2344 Q472.2656,866.0469 473.8594,866.0469 Q474.7969,866.0469 475.4531,865.7969 Q475.8438,865.6406 476.2656,865.2031 Q476.5313,864.9375 476.6719,864.8594 Q476.8281,864.7813 477.0313,864.7813 Q477.3594,864.7813 477.6094,865.0469 Q477.875,865.2969 477.875,865.6406 Q477.875,865.9844 477.5313,866.3906 Q477.0313,866.9688 476.2344,867.2969 Q475.1563,867.75 473.8594,867.75 Q472.3438,867.75 471.1406,867.125 Q470.1563,866.625 469.4688,865.5625 Q468.7813,864.4844 468.7813,863.2031 L468.7813,862.0469 Q468.7813,860.7188 469.3906,859.5781 Q470.0156,858.4219 471.1094,857.8125 Q472.2031,857.1875 473.4375,857.1875 Q474.1719,857.1875 474.8125,857.3594 Q475.4688,857.5156 476.0156,857.875 Z " fill="#000000"/><text fill="#000000" font-family="sans-serif" font-size="14" lengthAdjust="spacing" textLength="46" x="493.75" y="867.7285">Vehicle</text><line style="stroke:#181818;stroke-width:0.5;" x1="122" x2="879" y1="878" y2="878"/><rect fill="none" height="6" style="stroke:#C82930;stroke-width:1.0;" width="6" x="129" y="889.3047"/><text fill="#000000" font-family="sans-serif" font-size="14" lengthAdjust="spacing" textLength="70" x="141" y="896.5332">VIN : String</text><rect fill="none" height="6" style="stroke:#C82930;stroke-width:1.0;" width="6" x="129" y="906.9141"/><text fill="#000000" font-family="sans-serif" font-size="14" lengthAdjust="spacing" textLength="86" x="141" y="914.1426">brand : String</text><rect fill="none" height="6" style="stroke:#C82930;stroke-width:1.0;" width="6" x="129" y="924.5234"/><text fill="#000000" font-family="sans-serif" font-size="14" lengthAdjust="spacing" textLength="87" x="141" y="931.752">model : String</text><rect fill="none" height="6" style="stroke:#C82930;stroke-width:1.0;" width="6" x="129" y="942.1328"/><text fill="#000000" font-family="sans-serif" font-size="14" lengthAdjust="spacing" textLength="117" x="141" y="949.3613">type : VehicleType</text><rect fill="none" height="6" style="stroke:#C82930;stroke-width:1.0;" width="6" x="129" y="959.7422"/><text fill="#000000" font-family="sans-serif" font-size="14" lengthAdjust="spacing" textLength="173" x="141" y="966.9707">registrationDate: LocalDate</text><rect fill="none" height="6" style="stroke:#C82930;stroke-width:1.0;" width="6" x="129" y="977.3516"/><text fill="#000000" font-family="sans-serif" font-size="14" lengthAdjust="spacing" textLength="125" x="141" y="984.5801">vehiclePlate : String</text><rect fill="none" height="6" style="stroke:#C82930;stroke-width:1.0;" width="6" x="129" y="994.9609"/><text fill="#000000" font-family="sans-serif" font-size="14" lengthAdjust="spacing" textLength="124" x="141" y="1002.1895">tareWeight : double</text><rect fill="none" height="6" style="stroke:#C82930;stroke-width:1.0;" width="6" x="129" y="1012.5703"/><text fill="#000000" font-family="sans-serif" font-size="14" lengthAdjust="spacing" textLength="134" x="141" y="1019.7988">grossWeight : double</text><rect fill="none" height="6" style="stroke:#C82930;stroke-width:1.0;" width="6" x="129" y="1030.1797"/><text fill="#000000" font-family="sans-serif" font-size="14" lengthAdjust="spacing" textLength="92" x="141" y="1037.4082">currentKm : int</text><rect fill="none" height="6" style="stroke:#C82930;stroke-width:1.0;" width="6" x="129" y="1047.7891"/><text fill="#000000" font-family="sans-serif" font-size="14" lengthAdjust="spacing" textLength="173" x="141" y="1055.0176">acquisitionDate : LocalDate</text><rect fill="none" height="6" style="stroke:#C82930;stroke-width:1.0;" width="6" x="129" y="1065.3984"/><text fill="#000000" font-family="sans-serif" font-size="14" lengthAdjust="spacing" textLength="176" x="141" y="1072.627">maintenanceFrequency : int</text><line style="stroke:#181818;stroke-width:0.5;" x1="122" x2="879" y1="1079.7031" y2="1079.7031"/><ellipse cx="132" cy="1102.8125" fill="#84BE84" rx="3" ry="3" style="stroke:#038048;stroke-width:1.0;"/><text fill="#000000" font-family="sans-serif" font-size="14" lengthAdjust="spacing" textLength="729" x="141" y="1098.2363">Vehicle(VIN: String, brand: String, model: String, type: VehicleType, registrationDate: LocalDate vehiclePlate: String,</text><text fill="#000000" font-family="sans-serif" font-size="14" lengthAdjust="spacing" textLength="716" x="141" y="1115.8457">tareWeight: double, grossWeight: double, currentKm: int, acquisitionDate: LocalDate, maintenanceFrequency: int)</text><ellipse cx="132" cy="1129.2266" fill="#84BE84" rx="3" ry="3" style="stroke:#038048;stroke-width:1.0;"/><text fill="#000000" font-family="sans-serif" font-size="14" lengthAdjust="spacing" textLength="267" x="141" y="1133.4551">validateVehicle(vehicle: Vehicle) : Boolean</text></g><!--link RegisterVehicleUI to RegisterVehicleController--><g id="link_RegisterVehicleUI_RegisterVehicleController"><path codeLine="55" d="M573.5,108.42 C573.5,125.57 573.5,145.13 573.5,163.7 " fill="none" id="RegisterVehicleUI-to-RegisterVehicleController" style="stroke:#181818;stroke-width:1.0;stroke-dasharray:7.0,7.0;"/><polygon fill="#181818" points="573.5,168.91,577.5,159.91,573.5,163.91,569.5,159.91,573.5,168.91" style="stroke:#181818;stroke-width:1.0;"/></g><!--link RegisterVehicleController to Repositories--><g id="link_RegisterVehicleController_Repositories"><path codeLine="56" d="M503.26,305.08 C478.44,328.78 450.46,355.5 425.35,379.48 " fill="none" id="RegisterVehicleController-to-Repositories" style="stroke:#181818;stroke-width:1.0;stroke-dasharray:7.0,7.0;"/><polygon fill="#181818" points="421.67,382.99,430.9387,379.6596,425.2832,379.5339,425.4089,373.8784,421.67,382.99" style="stroke:#181818;stroke-width:1.0;"/><text fill="#000000" font-family="sans-serif" font-size="13" lengthAdjust="spacing" textLength="67" x="470.5" y="349.4951">repositories</text></g><!--link Repositories to Repositories--><g id="link_Repositories_Repositories"><path codeLine="57" d="M499.77,433.21 C520.57,436.12 534.5,442.05 534.5,451 C534.5,459.18 522.86,464.84 504.98,467.97 " fill="none" id="Repositories-to-Repositories" style="stroke:#181818;stroke-width:1.0;"/><polygon fill="#181818" points="499.77,468.79,509.2792,471.3543,504.7102,468.019,508.0455,463.45,499.77,468.79" style="stroke:#181818;stroke-width:1.0;"/><text fill="#000000" font-family="sans-serif" font-size="13" lengthAdjust="spacing" textLength="49" x="540.5" y="456.4951">instance</text></g><!--link RegisterVehicleController to VehicleRepository--><g id="link_RegisterVehicleController_VehicleRepository"><path codeLine="58" d="M591.77,305.06 C604.48,362.75 615.99,447.7 596.5,519 C589.62,544.19 577.72,569.44 564.59,592.28 " fill="none" id="RegisterVehicleController-to-VehicleRepository" style="stroke:#181818;stroke-width:1.0;stroke-dasharray:7.0,7.0;"/><polygon fill="#181818" points="561.95,596.81,569.9293,591.0367,564.4614,592.4865,563.0116,587.0185,561.95,596.81" style="stroke:#181818;stroke-width:1.0;"/><text fill="#000000" font-family="sans-serif" font-size="13" lengthAdjust="spacing" textLength="101" x="607.5" y="456.4951">vehicleRepository</text></g><!--link Repositories to VehicleRepository--><g id="link_Repositories_VehicleRepository"><path codeLine="59" d="M395.2,519.31 C410.05,542.19 426.89,568.12 442.68,592.44 " fill="none" id="Repositories-to-VehicleRepository" style="stroke:#181818;stroke-width:1.0;"/><polygon fill="#181818" points="445.4,596.64,443.8512,586.9137,442.6761,592.4471,437.1426,591.272,445.4,596.64" style="stroke:#181818;stroke-width:1.0;"/><text fill="#000000" font-family="sans-serif" font-size="13" lengthAdjust="spacing" textLength="101" x="427.5" y="563.4951">vehicleRepository</text><text fill="#000000" font-family="sans-serif" font-size="13" lengthAdjust="spacing" textLength="7" x="433.3641" y="586.0727">1</text></g><!--link VehicleRepository to Vehicle--><g id="link_VehicleRepository_Vehicle"><path codeLine="60" d="M500.5,768.34 C500.5,790.78 500.5,815.69 500.5,840.52 " fill="none" id="VehicleRepository-to-Vehicle" style="stroke:#181818;stroke-width:1.0;"/><polygon fill="#181818" points="500.5,845.81,504.5,836.81,500.5,840.81,496.5,836.81,500.5,845.81" style="stroke:#181818;stroke-width:1.0;"/><text fill="#000000" font-family="sans-serif" font-size="13" lengthAdjust="spacing" textLength="39" x="501.5" y="812.4951">vehicle</text><text fill="#000000" font-family="sans-serif" font-size="13" lengthAdjust="spacing" textLength="5" x="495.3711" y="835.2985">*</text></g><!--SRC=[xLN9ZXiX4BttLvHycPd47YdNLkH3bf6iZA8eYtF9XQ7BRHGC7i1EMb7-FO1xWGPtjZcEBpPKrQlbFHVwAnDxeiWEz9PKyXiJDMm8rrZetiAPG33D7c4lUUDEHN71SMF0I52itXgec49gc1H50VP3ET4QtcFDj46rnYsZ73-ju8Utkiy2g1H6ISvHGJbsVTdR-e2dATpbLM1LiVNoog8U9Qkyoy-9iePSKNaAzr8p8nL3xUeRJe7JyGJHMnkRT3s-AyxtCEIUx6MzUbl21wCiENEuKqHKmt4dA-J3qT4qdDhwtd5YWjilmX25dz4nLq8b3tSSvr0hgVNuaXwKGc7Ux4fWmipRoXHnLB_oeBUI4kv-pe7G-mEpFUTiEsBZKH11yKRX_G45RJocu-c5b1o9o54rZ3rYXmbj71Ry9pM3VmWJaL6ZMRNPlAYo-RnR0k_zyqcZDXENgDUsarixU0ldlfwt0SjGMfdisV8yZgyiXDBBH_q54o1LrJNVzj0J6IsMa_SH5Tiqhx_Rqco3sQcjCvEOb7uR42d18a8N75nxHd86pqtEu9Tvtz57UuestzaPfwhq3MLJz1H3HsTW3SZEcNlQmNCKM4OSGxwu7DijLFgF-Njv1tERbEJ3w__V91vAbN1MMVSfTOyqcJxZrzVBYHVx_FjwYWlVrV2LBQ9jlrYCVRkT_vi4oHuiqxSWJJLxDlkZm7HLs-ZParcNjeyfVW40]--></g></svg>