<?xml version="1.0" encoding="UTF-8" standalone="no"?><svg xmlns="http://www.w3.org/2000/svg" xmlns:xlink="http://www.w3.org/1999/xlink" contentStyleType="text/css" height="1008px" preserveAspectRatio="none" style="width:2471px;height:1008px;background:#FFFFFF;" version="1.1" viewBox="0 0 2471 1008" width="2471px" zoomAndPan="magnify"><defs/><g><rect fill="#FFFFFF" height="815.9141" style="stroke:#181818;stroke-width:1.0;" width="10" x="17.5" y="92.6094"/><rect fill="#FFFFFF" height="210.7188" style="stroke:#181818;stroke-width:1.0;" width="10" x="576.5" y="114.9609"/><rect fill="#FFFFFF" height="30.3516" style="stroke:#181818;stroke-width:1.0;" width="10" x="576.5" y="356.0313"/><rect fill="#FFFFFF" height="46.7031" style="stroke:#181818;stroke-width:1.0;" width="10" x="576.5" y="416.7344"/><rect fill="#FFFFFF" height="30.3516" style="stroke:#181818;stroke-width:1.0;" width="10" x="576.5" y="878.1719"/><rect fill="#FFFFFF" height="123.6641" style="stroke:#181818;stroke-width:1.0;" width="10" x="1137.5" y="155.3125"/><rect fill="#FFFFFF" height="46.7031" style="stroke:#181818;stroke-width:1.0;" width="10" x="1137.5" y="463.4375"/><rect fill="#FFFFFF" height="30.3516" style="stroke:#181818;stroke-width:1.0;" width="10" x="1137.5" y="847.8203"/><rect fill="#FFFFFF" height="30.3516" style="stroke:#181818;stroke-width:1.0;" width="10" x="1285.5" y="187.9219"/><rect fill="#FFFFFF" height="30.3516" style="stroke:#181818;stroke-width:1.0;" width="10" x="1392.5" y="248.625"/><rect fill="#FFFFFF" height="133.4063" style="stroke:#181818;stroke-width:1.0;" width="10" x="1698.5" y="510.1406"/><rect fill="#FFFFFF" height="41.3516" style="stroke:#181818;stroke-width:1.0;" width="10" x="1703.5" y="548.4922"/><rect fill="#FFFFFF" height="73.7031" style="stroke:#181818;stroke-width:1.0;" width="10" x="1698.5" y="774.1172"/><rect fill="#FFFFFF" height="120.5703" style="stroke:#181818;stroke-width:1.0;" width="10" x="2291.5" y="653.5469"/><rect fill="#FFFFFF" height="41.3516" style="stroke:#181818;stroke-width:1.0;" width="10" x="2296.5" y="695.4141"/><line style="stroke:#181818;stroke-width:0.5;stroke-dasharray:5.0,5.0;" x1="22" x2="22" y1="82.6094" y2="926.5234"/><line style="stroke:#181818;stroke-width:0.5;stroke-dasharray:5.0,5.0;" x1="581" x2="581" y1="82.6094" y2="926.5234"/><line style="stroke:#181818;stroke-width:0.5;stroke-dasharray:5.0,5.0;" x1="1142" x2="1142" y1="154.2656" y2="926.5234"/><line style="stroke:#181818;stroke-width:0.5;stroke-dasharray:5.0,5.0;" x1="1290" x2="1290" y1="82.6094" y2="926.5234"/><line style="stroke:#181818;stroke-width:0.5;stroke-dasharray:5.0,5.0;" x1="1397" x2="1397" y1="82.6094" y2="926.5234"/><line style="stroke:#181818;stroke-width:0.5;stroke-dasharray:5.0,5.0;" x1="1703.5" x2="1703.5" y1="82.6094" y2="926.5234"/><line style="stroke:#181818;stroke-width:0.5;stroke-dasharray:5.0,5.0;" x1="2296.5" x2="2296.5" y1="644.9531" y2="926.5234"/><text fill="#000000" font-family="sans-serif" font-size="14" lengthAdjust="spacing" textLength="29" x="5" y="79.5332">VFM</text><ellipse cx="22.5" cy="13.5" fill="#E3E3E3" rx="8" ry="8" style="stroke:#181818;stroke-width:0.5;"/><path d="M22.5,21.5 L22.5,48.5 M9.5,29.5 L35.5,29.5 M22.5,48.5 L9.5,63.5 M22.5,48.5 L35.5,63.5 " fill="none" style="stroke:#181818;stroke-width:0.5;"/><text fill="#000000" font-family="sans-serif" font-size="14" lengthAdjust="spacing" textLength="29" x="5" y="940.0566">VFM</text><ellipse cx="22.5" cy="951.6328" fill="#E3E3E3" rx="8" ry="8" style="stroke:#181818;stroke-width:0.5;"/><path d="M22.5,959.6328 L22.5,986.6328 M9.5,967.6328 L35.5,967.6328 M22.5,986.6328 L9.5,1001.6328 M22.5,986.6328 L35.5,1001.6328 " fill="none" style="stroke:#181818;stroke-width:0.5;"/><rect fill="#E3E3E3" height="31.6094" rx="2.5" ry="2.5" style="stroke:#181818;stroke-width:0.5;" width="129" x="517" y="50"/><text fill="#000000" font-family="sans-serif" font-size="14" lengthAdjust="spacing" textLength="115" x="524" y="71.5332">:RegisterVehicleUI</text><rect fill="#E3E3E3" height="31.6094" rx="2.5" ry="2.5" style="stroke:#181818;stroke-width:0.5;" width="129" x="517" y="925.5234"/><text fill="#000000" font-family="sans-serif" font-size="14" lengthAdjust="spacing" textLength="115" x="524" y="947.0566">:RegisterVehicleUI</text><rect fill="#E3E3E3" height="31.6094" rx="2.5" ry="2.5" style="stroke:#181818;stroke-width:0.5;" width="179" x="1053" y="925.5234"/><text fill="#000000" font-family="sans-serif" font-size="14" lengthAdjust="spacing" textLength="165" x="1060" y="947.0566">:RegisterVehicleController</text><rect fill="#E3E3E3" height="31.6094" rx="2.5" ry="2.5" style="stroke:#181818;stroke-width:0.5;" width="97" x="1242" y="50"/><text fill="#000000" font-family="sans-serif" font-size="14" lengthAdjust="spacing" textLength="83" x="1249" y="71.5332">:Repositories</text><rect fill="#E3E3E3" height="31.6094" rx="2.5" ry="2.5" style="stroke:#181818;stroke-width:0.5;" width="97" x="1242" y="925.5234"/><text fill="#000000" font-family="sans-serif" font-size="14" lengthAdjust="spacing" textLength="83" x="1249" y="947.0566">:Repositories</text><rect fill="#E3E3E3" height="49.2188" rx="2.5" ry="2.5" style="stroke:#181818;stroke-width:0.5;" width="97" x="1349" y="32.3906"/><text fill="#000000" font-family="sans-serif" font-size="14" lengthAdjust="spacing" textLength="74" x="1360.5" y="53.9238">repositories</text><text fill="#000000" font-family="sans-serif" font-size="14" lengthAdjust="spacing" textLength="83" x="1356" y="71.5332">:Repositories</text><rect fill="#E3E3E3" height="49.2188" rx="2.5" ry="2.5" style="stroke:#181818;stroke-width:0.5;" width="97" x="1349" y="925.5234"/><text fill="#000000" font-family="sans-serif" font-size="14" lengthAdjust="spacing" textLength="74" x="1360.5" y="947.0566">repositories</text><text fill="#000000" font-family="sans-serif" font-size="14" lengthAdjust="spacing" textLength="83" x="1356" y="964.666">:Repositories</text><rect fill="#E3E3E3" height="49.2188" rx="2.5" ry="2.5" style="stroke:#181818;stroke-width:0.5;" width="130" x="1638.5" y="32.3906"/><text fill="#000000" font-family="sans-serif" font-size="14" lengthAdjust="spacing" textLength="116" x="1645.5" y="53.9238">vehicleRepository:</text><text fill="#000000" font-family="sans-serif" font-size="14" lengthAdjust="spacing" textLength="114" x="1646.5" y="71.5332">VehicleRepository</text><rect fill="#E3E3E3" height="49.2188" rx="2.5" ry="2.5" style="stroke:#181818;stroke-width:0.5;" width="130" x="1638.5" y="925.5234"/><text fill="#000000" font-family="sans-serif" font-size="14" lengthAdjust="spacing" textLength="116" x="1645.5" y="947.0566">vehicleRepository:</text><text fill="#000000" font-family="sans-serif" font-size="14" lengthAdjust="spacing" textLength="114" x="1646.5" y="964.666">VehicleRepository</text><rect fill="#E3E3E3" height="49.2188" rx="2.5" ry="2.5" style="stroke:#181818;stroke-width:0.5;" width="64" x="2264.5" y="925.5234"/><text fill="#000000" font-family="sans-serif" font-size="14" lengthAdjust="spacing" textLength="44" x="2274.5" y="947.0566">vehicle</text><text fill="#000000" font-family="sans-serif" font-size="14" lengthAdjust="spacing" textLength="50" x="2271.5" y="964.666">:Vehicle</text><rect fill="#FFFFFF" height="815.9141" style="stroke:#181818;stroke-width:1.0;" width="10" x="17.5" y="92.6094"/><rect fill="#FFFFFF" height="210.7188" style="stroke:#181818;stroke-width:1.0;" width="10" x="576.5" y="114.9609"/><rect fill="#FFFFFF" height="30.3516" style="stroke:#181818;stroke-width:1.0;" width="10" x="576.5" y="356.0313"/><rect fill="#FFFFFF" height="46.7031" style="stroke:#181818;stroke-width:1.0;" width="10" x="576.5" y="416.7344"/><rect fill="#FFFFFF" height="30.3516" style="stroke:#181818;stroke-width:1.0;" width="10" x="576.5" y="878.1719"/><rect fill="#FFFFFF" height="123.6641" style="stroke:#181818;stroke-width:1.0;" width="10" x="1137.5" y="155.3125"/><rect fill="#FFFFFF" height="46.7031" style="stroke:#181818;stroke-width:1.0;" width="10" x="1137.5" y="463.4375"/><rect fill="#FFFFFF" height="30.3516" style="stroke:#181818;stroke-width:1.0;" width="10" x="1137.5" y="847.8203"/><rect fill="#FFFFFF" height="30.3516" style="stroke:#181818;stroke-width:1.0;" width="10" x="1285.5" y="187.9219"/><rect fill="#FFFFFF" height="30.3516" style="stroke:#181818;stroke-width:1.0;" width="10" x="1392.5" y="248.625"/><rect fill="#FFFFFF" height="133.4063" style="stroke:#181818;stroke-width:1.0;" width="10" x="1698.5" y="510.1406"/><rect fill="#FFFFFF" height="41.3516" style="stroke:#181818;stroke-width:1.0;" width="10" x="1703.5" y="548.4922"/><rect fill="#FFFFFF" height="73.7031" style="stroke:#181818;stroke-width:1.0;" width="10" x="1698.5" y="774.1172"/><rect fill="#FFFFFF" height="120.5703" style="stroke:#181818;stroke-width:1.0;" width="10" x="2291.5" y="653.5469"/><rect fill="#FFFFFF" height="41.3516" style="stroke:#181818;stroke-width:1.0;" width="10" x="2296.5" y="695.4141"/><polygon fill="#181818" points="564.5,110.9609,574.5,114.9609,564.5,118.9609,568.5,114.9609" style="stroke:#181818;stroke-width:1.0;"/><line style="stroke:#181818;stroke-width:1.0;" x1="27.5" x2="570.5" y1="114.9609" y2="114.9609"/><text fill="#000000" font-family="sans-serif" font-size="13" font-weight="bold" lengthAdjust="spacing" textLength="7" x="34.5" y="110.1045">1</text><text fill="#000000" font-family="sans-serif" font-size="13" lengthAdjust="spacing" textLength="171" x="45.5" y="110.1045">asks to register a new vehicle</text><polygon fill="#181818" points="1041,141.3125,1051,145.3125,1041,149.3125,1045,145.3125" style="stroke:#181818;stroke-width:1.0;"/><line style="stroke:#181818;stroke-width:1.0;" x1="586.5" x2="1047" y1="145.3125" y2="145.3125"/><text fill="#000000" font-family="sans-serif" font-size="13" font-weight="bold" lengthAdjust="spacing" textLength="7" x="593.5" y="140.4561">2</text><text fill="#000000" font-family="sans-serif" font-size="13" lengthAdjust="spacing" textLength="36" x="604.5" y="140.4561">create</text><rect fill="#E3E3E3" height="31.6094" rx="2.5" ry="2.5" style="stroke:#181818;stroke-width:0.5;" width="179" x="1053" y="122.9609"/><text fill="#000000" font-family="sans-serif" font-size="14" lengthAdjust="spacing" textLength="165" x="1060" y="144.4941">:RegisterVehicleController</text><polygon fill="#181818" points="1273.5,183.9219,1283.5,187.9219,1273.5,191.9219,1277.5,187.9219" style="stroke:#181818;stroke-width:1.0;"/><line style="stroke:#181818;stroke-width:1.0;" x1="1147.5" x2="1279.5" y1="187.9219" y2="187.9219"/><text fill="#000000" font-family="sans-serif" font-size="13" font-weight="bold" lengthAdjust="spacing" textLength="7" x="1154.5" y="183.0654">3</text><text fill="#000000" font-family="sans-serif" font-size="13" lengthAdjust="spacing" textLength="75" x="1165.5" y="183.0654">getInstance()</text><polygon fill="#181818" points="1158.5,214.2734,1148.5,218.2734,1158.5,222.2734,1154.5,218.2734" style="stroke:#181818;stroke-width:1.0;"/><line style="stroke:#181818;stroke-width:1.0;stroke-dasharray:2.0,2.0;" x1="1152.5" x2="1289.5" y1="218.2734" y2="218.2734"/><text fill="#000000" font-family="sans-serif" font-size="13" font-weight="bold" lengthAdjust="spacing" textLength="7" x="1164.5" y="213.417">4</text><text fill="#000000" font-family="sans-serif" font-size="13" lengthAdjust="spacing" textLength="67" x="1175.5" y="213.417">repositories</text><polygon fill="#181818" points="1380.5,244.625,1390.5,248.625,1380.5,252.625,1384.5,248.625" style="stroke:#181818;stroke-width:1.0;"/><line style="stroke:#181818;stroke-width:1.0;" x1="1147.5" x2="1386.5" y1="248.625" y2="248.625"/><text fill="#000000" font-family="sans-serif" font-size="13" font-weight="bold" lengthAdjust="spacing" textLength="7" x="1154.5" y="243.7686">5</text><text fill="#000000" font-family="sans-serif" font-size="13" lengthAdjust="spacing" textLength="131" x="1165.5" y="243.7686">getVehicleRepository()</text><polygon fill="#181818" points="1153.5,274.9766,1143.5,278.9766,1153.5,282.9766,1149.5,278.9766" style="stroke:#181818;stroke-width:1.0;"/><line style="stroke:#181818;stroke-width:1.0;stroke-dasharray:2.0,2.0;" x1="1147.5" x2="1396.5" y1="278.9766" y2="278.9766"/><text fill="#000000" font-family="sans-serif" font-size="13" font-weight="bold" lengthAdjust="spacing" textLength="7" x="1159.5" y="274.1201">6</text><text fill="#000000" font-family="sans-serif" font-size="13" lengthAdjust="spacing" textLength="101" x="1170.5" y="274.1201">vehicleRepository</text><polygon fill="#181818" points="38.5,321.6797,28.5,325.6797,38.5,329.6797,34.5,325.6797" style="stroke:#181818;stroke-width:1.0;"/><line style="stroke:#181818;stroke-width:1.0;stroke-dasharray:2.0,2.0;" x1="32.5" x2="580.5" y1="325.6797" y2="325.6797"/><text fill="#000000" font-family="sans-serif" font-size="13" font-weight="bold" lengthAdjust="spacing" textLength="7" x="44.5" y="312.6475">7</text><text fill="#000000" font-family="sans-serif" font-size="13" lengthAdjust="spacing" textLength="439" x="55.5" y="304.4717">requests vehicle data (VIN, Brand, Model, Type, Vehicle Plate, Tare Weight,</text><text fill="#000000" font-family="sans-serif" font-size="13" lengthAdjust="spacing" textLength="514" x="55.5" y="320.8232">Gross Weight, Current Km, Registration date, Acquisition Date, Maintenance Frequency)</text><polygon fill="#181818" points="564.5,352.0313,574.5,356.0313,564.5,360.0313,568.5,356.0313" style="stroke:#181818;stroke-width:1.0;"/><line style="stroke:#181818;stroke-width:1.0;" x1="27.5" x2="570.5" y1="356.0313" y2="356.0313"/><text fill="#000000" font-family="sans-serif" font-size="13" font-weight="bold" lengthAdjust="spacing" textLength="7" x="34.5" y="351.1748">8</text><text fill="#000000" font-family="sans-serif" font-size="13" lengthAdjust="spacing" textLength="122" x="45.5" y="351.1748">types requested data</text><polygon fill="#181818" points="38.5,382.3828,28.5,386.3828,38.5,390.3828,34.5,386.3828" style="stroke:#181818;stroke-width:1.0;"/><line style="stroke:#181818;stroke-width:1.0;stroke-dasharray:2.0,2.0;" x1="32.5" x2="580.5" y1="386.3828" y2="386.3828"/><text fill="#000000" font-family="sans-serif" font-size="13" font-weight="bold" lengthAdjust="spacing" textLength="7" x="44.5" y="381.5264">9</text><text fill="#000000" font-family="sans-serif" font-size="13" lengthAdjust="spacing" textLength="236" x="55.5" y="381.5264">shows all data and requests confirmation</text><polygon fill="#181818" points="564.5,412.7344,574.5,416.7344,564.5,420.7344,568.5,416.7344" style="stroke:#181818;stroke-width:1.0;"/><line style="stroke:#181818;stroke-width:1.0;" x1="27.5" x2="570.5" y1="416.7344" y2="416.7344"/><text fill="#000000" font-family="sans-serif" font-size="13" font-weight="bold" lengthAdjust="spacing" textLength="14" x="34.5" y="411.8779">10</text><text fill="#000000" font-family="sans-serif" font-size="13" lengthAdjust="spacing" textLength="80" x="52.5" y="411.8779">confirms Data</text><polygon fill="#181818" points="1125.5,459.4375,1135.5,463.4375,1125.5,467.4375,1129.5,463.4375" style="stroke:#181818;stroke-width:1.0;"/><line style="stroke:#181818;stroke-width:1.0;" x1="581.5" x2="1131.5" y1="463.4375" y2="463.4375"/><text fill="#000000" font-family="sans-serif" font-size="13" font-weight="bold" lengthAdjust="spacing" textLength="14" x="588.5" y="450.4053">11</text><text fill="#000000" font-family="sans-serif" font-size="13" lengthAdjust="spacing" textLength="399" x="606.5" y="442.2295">registerVehicle(VIN, Brand, Model, Type, Vehicle Plate, Tare Weight,</text><text fill="#000000" font-family="sans-serif" font-size="13" lengthAdjust="spacing" textLength="514" x="606.5" y="458.5811">Gross Weight, Current Km, Registration date, Acquisition Date, Maintenance Frequency)</text><polygon fill="#181818" points="1686.5,506.1406,1696.5,510.1406,1686.5,514.1406,1690.5,510.1406" style="stroke:#181818;stroke-width:1.0;"/><line style="stroke:#181818;stroke-width:1.0;" x1="1142.5" x2="1692.5" y1="510.1406" y2="510.1406"/><text fill="#000000" font-family="sans-serif" font-size="13" font-weight="bold" lengthAdjust="spacing" textLength="14" x="1149.5" y="497.1084">12</text><text fill="#000000" font-family="sans-serif" font-size="13" lengthAdjust="spacing" textLength="399" x="1167.5" y="488.9326">registerVehicle(VIN, Brand, Model, Type, Vehicle Plate, Tare Weight,</text><text fill="#000000" font-family="sans-serif" font-size="13" lengthAdjust="spacing" textLength="514" x="1167.5" y="505.2842">Gross Weight, Current Km, Registration date, Acquisition Date, Maintenance Frequency)</text><line style="stroke:#181818;stroke-width:1.0;" x1="1708.5" x2="1755.5" y1="535.4922" y2="535.4922"/><line style="stroke:#181818;stroke-width:1.0;" x1="1755.5" x2="1755.5" y1="535.4922" y2="548.4922"/><line style="stroke:#181818;stroke-width:1.0;" x1="1714.5" x2="1755.5" y1="548.4922" y2="548.4922"/><polygon fill="#181818" points="1724.5,544.4922,1714.5,548.4922,1724.5,552.4922,1720.5,548.4922" style="stroke:#181818;stroke-width:1.0;"/><text fill="#000000" font-family="sans-serif" font-size="13" font-weight="bold" lengthAdjust="spacing" textLength="14" x="1720.5" y="530.6357">13</text><text fill="#000000" font-family="sans-serif" font-size="13" lengthAdjust="spacing" textLength="233" x="1738.5" y="530.6357">verifyExistingVehicle(VIN, Vehicle Plate)</text><line style="stroke:#181818;stroke-width:1.0;stroke-dasharray:2.0,2.0;" x1="1713.5" x2="1755.5" y1="588.8438" y2="588.8438"/><line style="stroke:#181818;stroke-width:1.0;stroke-dasharray:2.0,2.0;" x1="1755.5" x2="1755.5" y1="588.8438" y2="601.8438"/><line style="stroke:#181818;stroke-width:1.0;stroke-dasharray:2.0,2.0;" x1="1708.5" x2="1755.5" y1="601.8438" y2="601.8438"/><polygon fill="#181818" points="1718.5,597.8438,1708.5,601.8438,1718.5,605.8438,1714.5,601.8438" style="stroke:#181818;stroke-width:1.0;"/><text fill="#000000" font-family="sans-serif" font-size="13" font-weight="bold" lengthAdjust="spacing" textLength="14" x="1720.5" y="583.9873">14</text><text fill="#000000" font-family="sans-serif" font-size="13" lengthAdjust="spacing" textLength="4" x="1738.5" y="583.9873"> </text><polygon fill="#181818" points="2252.5,639.5469,2262.5,643.5469,2252.5,647.5469,2256.5,643.5469" style="stroke:#181818;stroke-width:1.0;"/><line style="stroke:#181818;stroke-width:1.0;" x1="1703.5" x2="2258.5" y1="643.5469" y2="643.5469"/><text fill="#000000" font-family="sans-serif" font-size="13" font-weight="bold" lengthAdjust="spacing" textLength="14" x="1710.5" y="630.5146">15</text><text fill="#000000" font-family="sans-serif" font-size="13" lengthAdjust="spacing" textLength="399" x="1728.5" y="622.3389">registerVehicle(VIN, Brand, Model, Type, Vehicle Plate, Tare Weight,</text><text fill="#000000" font-family="sans-serif" font-size="13" lengthAdjust="spacing" textLength="514" x="1728.5" y="638.6904">Gross Weight, Current Km, Registration date, Acquisition Date, Maintenance Frequency)</text><rect fill="#E3E3E3" height="49.2188" rx="2.5" ry="2.5" style="stroke:#181818;stroke-width:0.5;" width="64" x="2264.5" y="604.8438"/><text fill="#000000" font-family="sans-serif" font-size="14" lengthAdjust="spacing" textLength="44" x="2274.5" y="626.377">vehicle</text><text fill="#000000" font-family="sans-serif" font-size="14" lengthAdjust="spacing" textLength="50" x="2271.5" y="643.9863">:Vehicle</text><line style="stroke:#181818;stroke-width:1.0;" x1="2301.5" x2="2348.5" y1="682.4141" y2="682.4141"/><line style="stroke:#181818;stroke-width:1.0;" x1="2348.5" x2="2348.5" y1="682.4141" y2="695.4141"/><line style="stroke:#181818;stroke-width:1.0;" x1="2307.5" x2="2348.5" y1="695.4141" y2="695.4141"/><polygon fill="#181818" points="2317.5,691.4141,2307.5,695.4141,2317.5,699.4141,2313.5,695.4141" style="stroke:#181818;stroke-width:1.0;"/><text fill="#000000" font-family="sans-serif" font-size="13" font-weight="bold" lengthAdjust="spacing" textLength="14" x="2313.5" y="677.5576">16</text><text fill="#000000" font-family="sans-serif" font-size="13" lengthAdjust="spacing" textLength="133" x="2331.5" y="677.5576">validateVehicle(vehicle)</text><line style="stroke:#181818;stroke-width:1.0;stroke-dasharray:2.0,2.0;" x1="2306.5" x2="2348.5" y1="735.7656" y2="735.7656"/><line style="stroke:#181818;stroke-width:1.0;stroke-dasharray:2.0,2.0;" x1="2348.5" x2="2348.5" y1="735.7656" y2="748.7656"/><line style="stroke:#181818;stroke-width:1.0;stroke-dasharray:2.0,2.0;" x1="2301.5" x2="2348.5" y1="748.7656" y2="748.7656"/><polygon fill="#181818" points="2311.5,744.7656,2301.5,748.7656,2311.5,752.7656,2307.5,748.7656" style="stroke:#181818;stroke-width:1.0;"/><text fill="#000000" font-family="sans-serif" font-size="13" font-weight="bold" lengthAdjust="spacing" textLength="14" x="2313.5" y="730.9092">17</text><text fill="#000000" font-family="sans-serif" font-size="13" lengthAdjust="spacing" textLength="4" x="2331.5" y="730.9092"> </text><polygon fill="#181818" points="1719.5,770.1172,1709.5,774.1172,1719.5,778.1172,1715.5,774.1172" style="stroke:#181818;stroke-width:1.0;"/><line style="stroke:#181818;stroke-width:1.0;stroke-dasharray:2.0,2.0;" x1="1713.5" x2="2295.5" y1="774.1172" y2="774.1172"/><text fill="#000000" font-family="sans-serif" font-size="13" font-weight="bold" lengthAdjust="spacing" textLength="14" x="1725.5" y="769.2607">18</text><text fill="#000000" font-family="sans-serif" font-size="13" lengthAdjust="spacing" textLength="49" x="1743.5" y="769.2607">success</text><line style="stroke:#181818;stroke-width:1.0;" x1="1708.5" x2="1750.5" y1="804.4688" y2="804.4688"/><line style="stroke:#181818;stroke-width:1.0;" x1="1750.5" x2="1750.5" y1="804.4688" y2="817.4688"/><line style="stroke:#181818;stroke-width:1.0;" x1="1709.5" x2="1750.5" y1="817.4688" y2="817.4688"/><polygon fill="#181818" points="1719.5,813.4688,1709.5,817.4688,1719.5,821.4688,1715.5,817.4688" style="stroke:#181818;stroke-width:1.0;"/><text fill="#000000" font-family="sans-serif" font-size="13" font-weight="bold" lengthAdjust="spacing" textLength="14" x="1715.5" y="799.6123">19</text><text fill="#000000" font-family="sans-serif" font-size="13" lengthAdjust="spacing" textLength="111" x="1733.5" y="799.6123">addVehicle(vehicle)</text><polygon fill="#181818" points="1158.5,843.8203,1148.5,847.8203,1158.5,851.8203,1154.5,847.8203" style="stroke:#181818;stroke-width:1.0;"/><line style="stroke:#181818;stroke-width:1.0;stroke-dasharray:2.0,2.0;" x1="1152.5" x2="1702.5" y1="847.8203" y2="847.8203"/><text fill="#000000" font-family="sans-serif" font-size="13" font-weight="bold" lengthAdjust="spacing" textLength="14" x="1164.5" y="842.9639">20</text><text fill="#000000" font-family="sans-serif" font-size="13" lengthAdjust="spacing" textLength="49" x="1182.5" y="842.9639">success</text><polygon fill="#181818" points="597.5,874.1719,587.5,878.1719,597.5,882.1719,593.5,878.1719" style="stroke:#181818;stroke-width:1.0;"/><line style="stroke:#181818;stroke-width:1.0;stroke-dasharray:2.0,2.0;" x1="591.5" x2="1141.5" y1="878.1719" y2="878.1719"/><text fill="#000000" font-family="sans-serif" font-size="13" font-weight="bold" lengthAdjust="spacing" textLength="14" x="603.5" y="873.3154">21</text><text fill="#000000" font-family="sans-serif" font-size="13" lengthAdjust="spacing" textLength="49" x="621.5" y="873.3154">success</text><polygon fill="#181818" points="33.5,904.5234,23.5,908.5234,33.5,912.5234,29.5,908.5234" style="stroke:#181818;stroke-width:1.0;"/><line style="stroke:#181818;stroke-width:1.0;stroke-dasharray:2.0,2.0;" x1="27.5" x2="580.5" y1="908.5234" y2="908.5234"/><text fill="#000000" font-family="sans-serif" font-size="13" font-weight="bold" lengthAdjust="spacing" textLength="14" x="39.5" y="903.667">22</text><text fill="#000000" font-family="sans-serif" font-size="13" lengthAdjust="spacing" textLength="350" x="57.5" y="903.667">displays success message (Vehicle registered successfully)</text><!--SRC=[rLPDS-8m3BtdLsWujGpz0nmwqsNR7MRRdKvBsGiNrn7WgMDJsscNVx-oyq7SEC2rFa1Gf6Uz9zd2lWcrOuOLK6Yb-TRe0i6P4ZFRljan_iOs-Eps4i4WTqnjPDV1RbckFuNQm9f9Yrd6IgTLMRoYeMVkj87HykvX1Cm2VMSKvGGNEwOSZAPFk17MeLdYLd29B_FWzp8_xZRJoXaj9PhWFbiytVS2TjeAsboW3JwjOVyiF0FACGundOYLwWCytjyiueYFAfa3ydIbbbzj5U-lrYGGxLexLa6tyo2W-60EWtGPqA87kBecYM1ANcyMdAQwLF800uMVKEC5znQ0D0q6loYO8Bniup71S8FaqRvjGuAkhTalR_6X2JMdi44tLvOQXEF5PHJM8gQg47ac7E2gpdKAtHf5OJcUlqN3mHSq9Dshpb3seGMYLzxIoQ_N4KD9naYT5x7alau4xalkoR-NQ9rjTe6SEGONo_cV2VmmJEKJUD0voWaizZkSD4q7ZvA0oSWCmbyKcwsRm4hzCjhQzlUiD0Qf5NyN4wZEcc5EaFPvYBtXxwKWHjxoCrWUc50EbQyrt8NC5DzVfXWrVTVjMqS9seOGve59kbiZ1UnMVrfWKbRKYV915AxLMfWYP9sTIc7Qk5jFXvrpK481ealeEoW_SAGF19l3q3i3tv1l_xewt9wzWzdwzPcdvF1dsuZr_lOVPKptIgH9n3- -ErBhdAo6LYBRLBedSJgo9RB8JcnvxOSJZCVVhqUEAtLmyxCtLk5sNlEcLc1I-5GQqlM5V7a4gmTLOGtDX-6OVcFQadEqzXZKkTqtt7_ddXAMvprLJhPJEpzFKJclUFKTrv_vpVWviKs8Jo8dfr8kx4wolMrWeQ0F-ijCexdk-UQGqAIhVTQbb7M3VfbJNRhqb-y_]--></g></svg>