<?xml version="1.0" encoding="UTF-8" standalone="no"?><svg xmlns="http://www.w3.org/2000/svg" xmlns:xlink="http://www.w3.org/1999/xlink" contentStyleType="text/css" height="463px" preserveAspectRatio="none" style="width:823px;height:463px;background:#FFFFFF;" version="1.1" viewBox="0 0 823 463" width="823px" zoomAndPan="magnify"><defs/><g><rect fill="#FFFFFF" height="339.4219" style="stroke:#181818;stroke-width:1.0;" width="10" x="238" y="69.9609"/><rect fill="#FFFFFF" height="246.3672" style="stroke:#181818;stroke-width:1.0;" width="10" x="493" y="125.6641"/><rect fill="#FFFFFF" height="128.0547" style="stroke:#181818;stroke-width:1.0;" width="10" x="498" y="206.625"/><rect fill="#FFFFFF" height="41.3516" style="stroke:#181818;stroke-width:1.0;" width="10" x="503" y="249.9766"/><rect fill="none" height="295.0703" style="stroke:#000000;stroke-width:1.5;" width="663.5" x="153.5" y="84.9609"/><line style="stroke:#181818;stroke-width:0.5;stroke-dasharray:5.0,5.0;" x1="242.5" x2="242.5" y1="37.6094" y2="427.3828"/><line style="stroke:#181818;stroke-width:0.5;stroke-dasharray:5.0,5.0;" x1="498" x2="498" y1="37.6094" y2="427.3828"/><line style="stroke:#181818;stroke-width:0.5;stroke-dasharray:5.0,5.0;" x1="782" x2="782" y1="164.9688" y2="427.3828"/><rect fill="#E3E3E3" height="31.6094" rx="2.5" ry="2.5" style="stroke:#181818;stroke-width:0.5;" width="159" x="163.5" y="5"/><text fill="#000000" font-family="sans-serif" font-size="14" lengthAdjust="spacing" textLength="145" x="170.5" y="26.5332">:CreateTeamController</text><rect fill="#E3E3E3" height="31.6094" rx="2.5" ry="2.5" style="stroke:#181818;stroke-width:0.5;" width="159" x="163.5" y="426.3828"/><text fill="#000000" font-family="sans-serif" font-size="14" lengthAdjust="spacing" textLength="145" x="170.5" y="447.916">:CreateTeamController</text><rect fill="#E3E3E3" height="31.6094" rx="2.5" ry="2.5" style="stroke:#181818;stroke-width:0.5;" width="118" x="439" y="5"/><text fill="#000000" font-family="sans-serif" font-size="14" lengthAdjust="spacing" textLength="104" x="446" y="26.5332">TeamRepository</text><rect fill="#E3E3E3" height="31.6094" rx="2.5" ry="2.5" style="stroke:#181818;stroke-width:0.5;" width="118" x="439" y="426.3828"/><text fill="#000000" font-family="sans-serif" font-size="14" lengthAdjust="spacing" textLength="104" x="446" y="447.916">TeamRepository</text><rect fill="#E3E3E3" height="31.6094" rx="2.5" ry="2.5" style="stroke:#181818;stroke-width:0.5;" width="50" x="757" y="426.3828"/><text fill="#000000" font-family="sans-serif" font-size="14" lengthAdjust="spacing" textLength="36" x="764" y="447.916">Team</text><rect fill="#FFFFFF" height="339.4219" style="stroke:#181818;stroke-width:1.0;" width="10" x="238" y="69.9609"/><rect fill="#FFFFFF" height="246.3672" style="stroke:#181818;stroke-width:1.0;" width="10" x="493" y="125.6641"/><rect fill="#FFFFFF" height="128.0547" style="stroke:#181818;stroke-width:1.0;" width="10" x="498" y="206.625"/><rect fill="#FFFFFF" height="41.3516" style="stroke:#181818;stroke-width:1.0;" width="10" x="503" y="249.9766"/><polygon fill="#181818" points="226,65.9609,236,69.9609,226,73.9609,230,69.9609" style="stroke:#181818;stroke-width:1.0;"/><line style="stroke:#181818;stroke-width:1.0;" x1="0" x2="232" y1="69.9609" y2="69.9609"/><text fill="#000000" font-family="sans-serif" font-size="13" font-weight="bold" lengthAdjust="spacing" textLength="14" x="7" y="65.1045">16</text><text fill="#000000" font-family="sans-serif" font-size="13" lengthAdjust="spacing" textLength="201" x="25" y="65.1045">createTeam(skills, maxTeamSize )</text><path d="M153.5,84.9609 L280.5,84.9609 L280.5,93.3125 L270.5,103.3125 L153.5,103.3125 L153.5,84.9609 " fill="#EEEEEE" style="stroke:#000000;stroke-width:1.5;"/><rect fill="none" height="295.0703" style="stroke:#000000;stroke-width:1.5;" width="663.5" x="153.5" y="84.9609"/><text fill="#000000" font-family="sans-serif" font-size="13" font-weight="bold" lengthAdjust="spacing" textLength="82" x="168.5" y="99.4561">Create Team</text><polygon fill="#181818" points="481,121.6641,491,125.6641,481,129.6641,485,125.6641" style="stroke:#181818;stroke-width:1.0;"/><line style="stroke:#181818;stroke-width:1.0;" x1="248" x2="487" y1="125.6641" y2="125.6641"/><text fill="#000000" font-family="sans-serif" font-size="13" font-weight="bold" lengthAdjust="spacing" textLength="25" x="255" y="120.8076">16.1</text><text fill="#000000" font-family="sans-serif" font-size="13" lengthAdjust="spacing" textLength="197" x="284" y="120.8076">createTeam(skills, maxTeamSize)</text><polygon fill="#181818" points="745,152.0156,755,156.0156,745,160.0156,749,156.0156" style="stroke:#181818;stroke-width:1.0;"/><line style="stroke:#181818;stroke-width:1.0;" x1="503" x2="751" y1="156.0156" y2="156.0156"/><text fill="#000000" font-family="sans-serif" font-size="13" font-weight="bold" lengthAdjust="spacing" textLength="25" x="510" y="151.1592">16.2</text><text fill="#000000" font-family="sans-serif" font-size="13" lengthAdjust="spacing" textLength="201" x="539" y="151.1592">createTeam (skills, maxTeamSize)</text><rect fill="#E3E3E3" height="31.6094" rx="2.5" ry="2.5" style="stroke:#181818;stroke-width:0.5;" width="50" x="757" y="133.6641"/><text fill="#000000" font-family="sans-serif" font-size="14" lengthAdjust="spacing" textLength="36" x="764" y="155.1973">Team</text><line style="stroke:#181818;stroke-width:1.0;" x1="503" x2="550" y1="193.625" y2="193.625"/><line style="stroke:#181818;stroke-width:1.0;" x1="550" x2="550" y1="193.625" y2="206.625"/><line style="stroke:#181818;stroke-width:1.0;" x1="509" x2="550" y1="206.625" y2="206.625"/><polygon fill="#181818" points="519,202.625,509,206.625,519,210.625,515,206.625" style="stroke:#181818;stroke-width:1.0;"/><text fill="#000000" font-family="sans-serif" font-size="13" font-weight="bold" lengthAdjust="spacing" textLength="25" x="515" y="188.7686">16.3</text><text fill="#000000" font-family="sans-serif" font-size="13" lengthAdjust="spacing" textLength="90" x="544" y="188.7686">addTeam(team)</text><line style="stroke:#181818;stroke-width:1.0;" x1="508" x2="555" y1="236.9766" y2="236.9766"/><line style="stroke:#181818;stroke-width:1.0;" x1="555" x2="555" y1="236.9766" y2="249.9766"/><line style="stroke:#181818;stroke-width:1.0;" x1="514" x2="555" y1="249.9766" y2="249.9766"/><polygon fill="#181818" points="524,245.9766,514,249.9766,524,253.9766,520,249.9766" style="stroke:#181818;stroke-width:1.0;"/><text fill="#000000" font-family="sans-serif" font-size="13" font-weight="bold" lengthAdjust="spacing" textLength="25" x="520" y="232.1201">16.4</text><text fill="#000000" font-family="sans-serif" font-size="13" lengthAdjust="spacing" textLength="83" x="549" y="232.1201">validateTeam()</text><line style="stroke:#181818;stroke-width:1.0;stroke-dasharray:2.0,2.0;" x1="513" x2="555" y1="290.3281" y2="290.3281"/><line style="stroke:#181818;stroke-width:1.0;stroke-dasharray:2.0,2.0;" x1="555" x2="555" y1="290.3281" y2="303.3281"/><line style="stroke:#181818;stroke-width:1.0;stroke-dasharray:2.0,2.0;" x1="508" x2="555" y1="303.3281" y2="303.3281"/><polygon fill="#181818" points="518,299.3281,508,303.3281,518,307.3281,514,303.3281" style="stroke:#181818;stroke-width:1.0;"/><text fill="#000000" font-family="sans-serif" font-size="13" font-weight="bold" lengthAdjust="spacing" textLength="25" x="520" y="285.4717">16.5</text><text fill="#000000" font-family="sans-serif" font-size="13" lengthAdjust="spacing" textLength="4" x="549" y="285.4717"> </text><line style="stroke:#181818;stroke-width:1.0;stroke-dasharray:2.0,2.0;" x1="508" x2="550" y1="333.6797" y2="333.6797"/><line style="stroke:#181818;stroke-width:1.0;stroke-dasharray:2.0,2.0;" x1="550" x2="550" y1="333.6797" y2="346.6797"/><line style="stroke:#181818;stroke-width:1.0;stroke-dasharray:2.0,2.0;" x1="503" x2="550" y1="346.6797" y2="346.6797"/><polygon fill="#181818" points="513,342.6797,503,346.6797,513,350.6797,509,346.6797" style="stroke:#181818;stroke-width:1.0;"/><text fill="#000000" font-family="sans-serif" font-size="13" font-weight="bold" lengthAdjust="spacing" textLength="25" x="515" y="328.8232">16.6</text><text fill="#000000" font-family="sans-serif" font-size="13" lengthAdjust="spacing" textLength="4" x="544" y="328.8232"> </text><polygon fill="#181818" points="259,368.0313,249,372.0313,259,376.0313,255,372.0313" style="stroke:#181818;stroke-width:1.0;"/><line style="stroke:#181818;stroke-width:1.0;stroke-dasharray:2.0,2.0;" x1="253" x2="497" y1="372.0313" y2="372.0313"/><text fill="#000000" font-family="sans-serif" font-size="13" font-weight="bold" lengthAdjust="spacing" textLength="25" x="265" y="367.1748">16.7</text><text fill="#000000" font-family="sans-serif" font-size="13" lengthAdjust="spacing" textLength="29" x="294" y="367.1748">team</text><polygon fill="#181818" points="11,405.3828,1,409.3828,11,413.3828,7,409.3828" style="stroke:#181818;stroke-width:1.0;"/><line style="stroke:#181818;stroke-width:1.0;stroke-dasharray:2.0,2.0;" x1="5" x2="242" y1="409.3828" y2="409.3828"/><text fill="#000000" font-family="sans-serif" font-size="13" font-weight="bold" lengthAdjust="spacing" textLength="14" x="17" y="404.5264">17</text><text fill="#000000" font-family="sans-serif" font-size="13" lengthAdjust="spacing" textLength="49" x="35" y="404.5264">success</text><!--SRC=[fLDBJiCm4Dtx5AEkI4MGkW4fGcooxQhj1GPdIAtw4zbEePmUErQZj2I4mYmivNdUPsADEmZTe4K5ocZ3zzOe0czROgw_QP0ViAQjFqa2IzoZhkMmmUsnCkz2r_26qX5Z0VQ2YmQrXqLHMa9FEq9L6ksjaPBi0j11kTki6SFM6zsgLxAmUcJvImSNm7lMNN2Iqjs3me_ulHMV1DaLyM75a7jn39oa2w5gQze6aZz4AklWMB47Wbb4DzGO9xonfpdRhETVLsz-ASWc2PTzvoZBvJ02Z6UOr9pM7Ow8LTNDvyEH_QWrDHJCr7o68qfHdNzqDYluro1ZORwb-PLAHJU_yF_CRpGSCKfx55-PtMOGRqbNoMYuPKyTyfpdQNqAS2tdv1mRQAMb_W80]--></g></svg>