<?xml version="1.0" encoding="UTF-8" standalone="no"?><svg xmlns="http://www.w3.org/2000/svg" xmlns:xlink="http://www.w3.org/1999/xlink" contentStyleType="text/css" height="395px" preserveAspectRatio="none" style="width:649px;height:395px;background:#FFFFFF;" version="1.1" viewBox="0 0 649 395" width="649px" zoomAndPan="magnify"><defs/><g><rect fill="#FFFFFF" height="235.3672" style="stroke:#181818;stroke-width:1.0;" width="10" x="330" y="87.5703"/><rect fill="#FFFFFF" height="191.0156" style="stroke:#181818;stroke-width:1.0;" width="10" x="330" y="87.5703"/><rect fill="#FFFFFF" height="41.3516" style="stroke:#181818;stroke-width:1.0;" width="10" x="335" y="193.8828"/><rect fill="none" height="191.0156" style="stroke:#000000;stroke-width:1.5;" width="384" x="259" y="102.5703"/><line style="stroke:#181818;stroke-width:0.5;stroke-dasharray:5.0,5.0;" x1="330" x2="330" y1="55.2188" y2="340.9375"/><line style="stroke:#181818;stroke-width:0.5;stroke-dasharray:5.0,5.0;" x1="608" x2="608" y1="152.2266" y2="340.9375"/><rect fill="#E3E3E3" height="49.2188" rx="2.5" ry="2.5" style="stroke:#181818;stroke-width:0.5;" width="122" x="269" y="5"/><text fill="#000000" font-family="sans-serif" font-size="14" lengthAdjust="spacing" textLength="108" x="276" y="26.5332">TeamRepository:</text><text fill="#000000" font-family="sans-serif" font-size="14" lengthAdjust="spacing" textLength="104" x="278" y="44.1426">TeamRepository</text><rect fill="#E3E3E3" height="49.2188" rx="2.5" ry="2.5" style="stroke:#181818;stroke-width:0.5;" width="122" x="269" y="339.9375"/><text fill="#000000" font-family="sans-serif" font-size="14" lengthAdjust="spacing" textLength="108" x="276" y="361.4707">TeamRepository:</text><text fill="#000000" font-family="sans-serif" font-size="14" lengthAdjust="spacing" textLength="104" x="278" y="379.0801">TeamRepository</text><rect fill="#E3E3E3" height="31.6094" rx="2.5" ry="2.5" style="stroke:#181818;stroke-width:0.5;" width="50" x="583" y="339.9375"/><text fill="#000000" font-family="sans-serif" font-size="14" lengthAdjust="spacing" textLength="36" x="590" y="361.4707">Team</text><rect fill="#FFFFFF" height="235.3672" style="stroke:#181818;stroke-width:1.0;" width="10" x="330" y="87.5703"/><rect fill="#FFFFFF" height="191.0156" style="stroke:#181818;stroke-width:1.0;" width="10" x="330" y="87.5703"/><rect fill="#FFFFFF" height="41.3516" style="stroke:#181818;stroke-width:1.0;" width="10" x="335" y="193.8828"/><polygon fill="#181818" points="313,83.5703,323,87.5703,313,91.5703,317,87.5703" style="stroke:#181818;stroke-width:1.0;"/><line style="stroke:#181818;stroke-width:1.0;" x1="0" x2="319" y1="87.5703" y2="87.5703"/><text fill="#000000" font-family="sans-serif" font-size="13" font-weight="bold" lengthAdjust="spacing" textLength="14" x="7" y="82.7139">16</text><text fill="#000000" font-family="sans-serif" font-size="13" lengthAdjust="spacing" textLength="288" x="25" y="82.7139">createTeam(skills, minTeamSize, maxTeamSize )</text><path d="M259,102.5703 L386,102.5703 L386,110.9219 L376,120.9219 L259,120.9219 L259,102.5703 " fill="#EEEEEE" style="stroke:#000000;stroke-width:1.5;"/><rect fill="none" height="191.0156" style="stroke:#000000;stroke-width:1.5;" width="384" x="259" y="102.5703"/><text fill="#000000" font-family="sans-serif" font-size="13" font-weight="bold" lengthAdjust="spacing" textLength="82" x="274" y="117.0654">Create Team</text><polygon fill="#181818" points="571,139.2734,581,143.2734,571,147.2734,575,143.2734" style="stroke:#181818;stroke-width:1.0;"/><line style="stroke:#181818;stroke-width:1.0;" x1="340" x2="577" y1="143.2734" y2="143.2734"/><text fill="#000000" font-family="sans-serif" font-size="13" font-weight="bold" lengthAdjust="spacing" textLength="14" x="347" y="138.417">17</text><text fill="#000000" font-family="sans-serif" font-size="13" lengthAdjust="spacing" textLength="201" x="365" y="138.417">createTeam (skills, maxTeamSize)</text><rect fill="#E3E3E3" height="31.6094" rx="2.5" ry="2.5" style="stroke:#181818;stroke-width:0.5;" width="50" x="583" y="120.9219"/><text fill="#000000" font-family="sans-serif" font-size="14" lengthAdjust="spacing" textLength="36" x="590" y="142.4551">Team</text><line style="stroke:#181818;stroke-width:1.0;" x1="340" x2="387" y1="180.8828" y2="180.8828"/><line style="stroke:#181818;stroke-width:1.0;" x1="387" x2="387" y1="180.8828" y2="193.8828"/><line style="stroke:#181818;stroke-width:1.0;" x1="346" x2="387" y1="193.8828" y2="193.8828"/><polygon fill="#181818" points="356,189.8828,346,193.8828,356,197.8828,352,193.8828" style="stroke:#181818;stroke-width:1.0;"/><text fill="#000000" font-family="sans-serif" font-size="13" font-weight="bold" lengthAdjust="spacing" textLength="14" x="352" y="176.0264">18</text><text fill="#000000" font-family="sans-serif" font-size="13" lengthAdjust="spacing" textLength="83" x="370" y="176.0264">validateTeam()</text><line style="stroke:#181818;stroke-width:1.0;stroke-dasharray:2.0,2.0;" x1="345" x2="387" y1="234.2344" y2="234.2344"/><line style="stroke:#181818;stroke-width:1.0;stroke-dasharray:2.0,2.0;" x1="387" x2="387" y1="234.2344" y2="247.2344"/><line style="stroke:#181818;stroke-width:1.0;stroke-dasharray:2.0,2.0;" x1="340" x2="387" y1="247.2344" y2="247.2344"/><polygon fill="#181818" points="350,243.2344,340,247.2344,350,251.2344,346,247.2344" style="stroke:#181818;stroke-width:1.0;"/><text fill="#000000" font-family="sans-serif" font-size="13" font-weight="bold" lengthAdjust="spacing" textLength="14" x="352" y="229.3779">19</text><text fill="#000000" font-family="sans-serif" font-size="13" lengthAdjust="spacing" textLength="4" x="370" y="229.3779"> </text><line style="stroke:#181818;stroke-width:1.0;" x1="340" x2="382" y1="277.5859" y2="277.5859"/><line style="stroke:#181818;stroke-width:1.0;" x1="382" x2="382" y1="277.5859" y2="290.5859"/><line style="stroke:#181818;stroke-width:1.0;" x1="335" x2="382" y1="290.5859" y2="290.5859"/><polygon fill="#181818" points="345,286.5859,335,290.5859,345,294.5859,341,290.5859" style="stroke:#181818;stroke-width:1.0;"/><text fill="#000000" font-family="sans-serif" font-size="13" font-weight="bold" lengthAdjust="spacing" textLength="14" x="347" y="272.7295">20</text><text fill="#000000" font-family="sans-serif" font-size="13" lengthAdjust="spacing" textLength="90" x="365" y="272.7295">addTeam(team)</text><polygon fill="#181818" points="11,318.9375,1,322.9375,11,326.9375,7,322.9375" style="stroke:#181818;stroke-width:1.0;"/><line style="stroke:#181818;stroke-width:1.0;stroke-dasharray:2.0,2.0;" x1="5" x2="329" y1="322.9375" y2="322.9375"/><text fill="#000000" font-family="sans-serif" font-size="13" font-weight="bold" lengthAdjust="spacing" textLength="14" x="17" y="318.0811">17</text><text fill="#000000" font-family="sans-serif" font-size="13" lengthAdjust="spacing" textLength="29" x="35" y="318.0811">team</text><!--SRC=[bL9DJyCm3BtdLrWxqOaUk81K8IxyWuqZ5vEOBbe-giGTZ5zF6XXh2osh3v7yR3y_FoNkjMime0NhdPUxu2q1XvP4_AaqAFTOqvQFXY2GP7IrwJV47Ih_fbqDhsWY2P5Wrb8tw1XMJuHsGusFcdquLizk2Am08mmX8R1bxrhxGW5kRaNvC6geG0P2fWwzIZgCYTTWTMRUwWzA2RwV4YWIdsHzI0FZHP2Y3hvju34Jvhh8y5ynHJCvCEo3xqFMw_u1SBxWBBgOvfpdxfjqGAFLoQRYNy8vavQA-QNc8XP5Yns-p0bKAfl0wKdMYcNBkoevzJNM_vft6Ralox642hfDOkQUJm00]--></g></svg>