<?xml version="1.0" encoding="UTF-8" standalone="no"?><svg xmlns="http://www.w3.org/2000/svg" xmlns:xlink="http://www.w3.org/1999/xlink" contentStyleType="text/css" height="889px" preserveAspectRatio="none" style="width:1175px;height:889px;background:#FFFFFF;" version="1.1" viewBox="0 0 1175 889" width="1175px" zoomAndPan="magnify"><defs/><g><rect fill="#FFFFFF" height="697.2422" style="stroke:#181818;stroke-width:1.0;" width="10" x="18" y="92.6094"/><rect fill="#FFFFFF" height="164.8516" style="stroke:#181818;stroke-width:1.0;" width="10" x="310" y="114.9609"/><rect fill="#FFFFFF" height="30.3516" style="stroke:#181818;stroke-width:1.0;" width="10" x="310" y="310.1641"/><rect fill="#FFFFFF" height="30.3516" style="stroke:#181818;stroke-width:1.0;" width="10" x="310" y="370.8672"/><rect fill="#FFFFFF" height="358.2813" style="stroke:#181818;stroke-width:1.0;" width="10" x="310" y="431.5703"/><rect fill="#FFFFFF" height="94.1484" style="stroke:#181818;stroke-width:1.0;" width="10" x="554" y="155.3125"/><rect fill="#FFFFFF" height="297.5781" style="stroke:#181818;stroke-width:1.0;" width="10" x="554" y="461.9219"/><rect fill="#FFFFFF" height="106.9844" style="stroke:#181818;stroke-width:1.0;" width="10" x="1039.5" y="622.1641"/><line style="stroke:#181818;stroke-width:0.5;stroke-dasharray:5.0,5.0;" x1="23" x2="23" y1="82.6094" y2="807.8516"/><line style="stroke:#181818;stroke-width:0.5;stroke-dasharray:5.0,5.0;" x1="314.5" x2="314.5" y1="82.6094" y2="807.8516"/><line style="stroke:#181818;stroke-width:0.5;stroke-dasharray:5.0,5.0;" x1="558.5" x2="558.5" y1="154.2656" y2="807.8516"/><line style="stroke:#181818;stroke-width:0.5;stroke-dasharray:5.0,5.0;" x1="696.5" x2="696.5" y1="82.6094" y2="807.8516"/><line style="stroke:#181818;stroke-width:0.5;stroke-dasharray:5.0,5.0;" x1="803.5" x2="803.5" y1="82.6094" y2="807.8516"/><line style="stroke:#181818;stroke-width:0.5;stroke-dasharray:5.0,5.0;" x1="917.5" x2="917.5" y1="82.6094" y2="807.8516"/><line style="stroke:#181818;stroke-width:0.5;stroke-dasharray:5.0,5.0;" x1="1044.5" x2="1044.5" y1="82.6094" y2="807.8516"/><line style="stroke:#181818;stroke-width:0.5;stroke-dasharray:5.0,5.0;" x1="1142.5" x2="1142.5" y1="82.6094" y2="807.8516"/><text fill="#000000" font-family="sans-serif" font-size="14" lengthAdjust="spacing" textLength="30" x="5" y="79.5332">HRM</text><ellipse cx="23" cy="13.5" fill="#E3E3E3" rx="8" ry="8" style="stroke:#181818;stroke-width:0.5;"/><path d="M23,21.5 L23,48.5 M10,29.5 L36,29.5 M23,48.5 L10,63.5 M23,48.5 L36,63.5 " fill="none" style="stroke:#181818;stroke-width:0.5;"/><text fill="#000000" font-family="sans-serif" font-size="14" lengthAdjust="spacing" textLength="30" x="5" y="821.3848">HRM</text><ellipse cx="23" cy="832.9609" fill="#E3E3E3" rx="8" ry="8" style="stroke:#181818;stroke-width:0.5;"/><path d="M23,840.9609 L23,867.9609 M10,848.9609 L36,848.9609 M23,867.9609 L10,882.9609 M23,867.9609 L36,882.9609 " fill="none" style="stroke:#181818;stroke-width:0.5;"/><rect fill="#E3E3E3" height="31.6094" rx="2.5" ry="2.5" style="stroke:#181818;stroke-width:0.5;" width="109" x="260.5" y="50"/><text fill="#000000" font-family="sans-serif" font-size="14" lengthAdjust="spacing" textLength="95" x="267.5" y="71.5332">:CreateTeamUI</text><rect fill="#E3E3E3" height="31.6094" rx="2.5" ry="2.5" style="stroke:#181818;stroke-width:0.5;" width="109" x="260.5" y="806.8516"/><text fill="#000000" font-family="sans-serif" font-size="14" lengthAdjust="spacing" textLength="95" x="267.5" y="828.3848">:CreateTeamUI</text><rect fill="#E3E3E3" height="31.6094" rx="2.5" ry="2.5" style="stroke:#181818;stroke-width:0.5;" width="159" x="479.5" y="806.8516"/><text fill="#000000" font-family="sans-serif" font-size="14" lengthAdjust="spacing" textLength="145" x="486.5" y="828.3848">:CreateTeamController</text><rect fill="#E3E3E3" height="31.6094" rx="2.5" ry="2.5" style="stroke:#181818;stroke-width:0.5;" width="97" x="648.5" y="50"/><text fill="#000000" font-family="sans-serif" font-size="14" lengthAdjust="spacing" textLength="83" x="655.5" y="71.5332">:Repositories</text><rect fill="#E3E3E3" height="31.6094" rx="2.5" ry="2.5" style="stroke:#181818;stroke-width:0.5;" width="97" x="648.5" y="806.8516"/><text fill="#000000" font-family="sans-serif" font-size="14" lengthAdjust="spacing" textLength="83" x="655.5" y="828.3848">:Repositories</text><rect fill="#E3E3E3" height="49.2188" rx="2.5" ry="2.5" style="stroke:#181818;stroke-width:0.5;" width="97" x="755.5" y="32.3906"/><text fill="#000000" font-family="sans-serif" font-size="14" lengthAdjust="spacing" textLength="74" x="767" y="53.9238">repositories</text><text fill="#000000" font-family="sans-serif" font-size="14" lengthAdjust="spacing" textLength="83" x="762.5" y="71.5332">:Repositories</text><rect fill="#E3E3E3" height="49.2188" rx="2.5" ry="2.5" style="stroke:#181818;stroke-width:0.5;" width="97" x="755.5" y="806.8516"/><text fill="#000000" font-family="sans-serif" font-size="14" lengthAdjust="spacing" textLength="74" x="767" y="828.3848">repositories</text><text fill="#000000" font-family="sans-serif" font-size="14" lengthAdjust="spacing" textLength="83" x="762.5" y="845.9941">:Repositories</text><rect fill="#E3E3E3" height="49.2188" rx="2.5" ry="2.5" style="stroke:#181818;stroke-width:0.5;" width="111" x="862.5" y="32.3906"/><text fill="#000000" font-family="sans-serif" font-size="14" lengthAdjust="spacing" textLength="97" x="869.5" y="53.9238">SkillRepository:</text><text fill="#000000" font-family="sans-serif" font-size="14" lengthAdjust="spacing" textLength="93" x="871.5" y="71.5332">SkillRepository</text><rect fill="#E3E3E3" height="49.2188" rx="2.5" ry="2.5" style="stroke:#181818;stroke-width:0.5;" width="111" x="862.5" y="806.8516"/><text fill="#000000" font-family="sans-serif" font-size="14" lengthAdjust="spacing" textLength="97" x="869.5" y="828.3848">SkillRepository:</text><text fill="#000000" font-family="sans-serif" font-size="14" lengthAdjust="spacing" textLength="93" x="871.5" y="845.9941">SkillRepository</text><rect fill="#E3E3E3" height="49.2188" rx="2.5" ry="2.5" style="stroke:#181818;stroke-width:0.5;" width="122" x="983.5" y="32.3906"/><text fill="#000000" font-family="sans-serif" font-size="14" lengthAdjust="spacing" textLength="108" x="990.5" y="53.9238">TeamRepository:</text><text fill="#000000" font-family="sans-serif" font-size="14" lengthAdjust="spacing" textLength="104" x="992.5" y="71.5332">TeamRepository</text><rect fill="#E3E3E3" height="49.2188" rx="2.5" ry="2.5" style="stroke:#181818;stroke-width:0.5;" width="122" x="983.5" y="806.8516"/><text fill="#000000" font-family="sans-serif" font-size="14" lengthAdjust="spacing" textLength="108" x="990.5" y="828.3848">TeamRepository:</text><text fill="#000000" font-family="sans-serif" font-size="14" lengthAdjust="spacing" textLength="104" x="992.5" y="845.9941">TeamRepository</text><rect fill="#E3E3E3" height="49.2188" rx="2.5" ry="2.5" style="stroke:#181818;stroke-width:0.5;" width="54" x="1115.5" y="32.3906"/><text fill="#000000" font-family="sans-serif" font-size="14" lengthAdjust="spacing" textLength="31" x="1127" y="53.9238">team</text><text fill="#000000" font-family="sans-serif" font-size="14" lengthAdjust="spacing" textLength="40" x="1122.5" y="71.5332">:Team</text><rect fill="#E3E3E3" height="49.2188" rx="2.5" ry="2.5" style="stroke:#181818;stroke-width:0.5;" width="54" x="1115.5" y="806.8516"/><text fill="#000000" font-family="sans-serif" font-size="14" lengthAdjust="spacing" textLength="31" x="1127" y="828.3848">team</text><text fill="#000000" font-family="sans-serif" font-size="14" lengthAdjust="spacing" textLength="40" x="1122.5" y="845.9941">:Team</text><rect fill="#FFFFFF" height="697.2422" style="stroke:#181818;stroke-width:1.0;" width="10" x="18" y="92.6094"/><rect fill="#FFFFFF" height="164.8516" style="stroke:#181818;stroke-width:1.0;" width="10" x="310" y="114.9609"/><rect fill="#FFFFFF" height="30.3516" style="stroke:#181818;stroke-width:1.0;" width="10" x="310" y="310.1641"/><rect fill="#FFFFFF" height="30.3516" style="stroke:#181818;stroke-width:1.0;" width="10" x="310" y="370.8672"/><rect fill="#FFFFFF" height="358.2813" style="stroke:#181818;stroke-width:1.0;" width="10" x="310" y="431.5703"/><rect fill="#FFFFFF" height="94.1484" style="stroke:#181818;stroke-width:1.0;" width="10" x="554" y="155.3125"/><rect fill="#FFFFFF" height="297.5781" style="stroke:#181818;stroke-width:1.0;" width="10" x="554" y="461.9219"/><rect fill="#FFFFFF" height="106.9844" style="stroke:#181818;stroke-width:1.0;" width="10" x="1039.5" y="622.1641"/><polygon fill="#181818" points="298,110.9609,308,114.9609,298,118.9609,302,114.9609" style="stroke:#181818;stroke-width:1.0;"/><line style="stroke:#181818;stroke-width:1.0;" x1="28" x2="304" y1="114.9609" y2="114.9609"/><text fill="#000000" font-family="sans-serif" font-size="13" font-weight="bold" lengthAdjust="spacing" textLength="7" x="35" y="110.1045">1</text><text fill="#000000" font-family="sans-serif" font-size="13" lengthAdjust="spacing" textLength="154" x="46" y="110.1045">asks to create a new team</text><polygon fill="#181818" points="467.5,141.3125,477.5,145.3125,467.5,149.3125,471.5,145.3125" style="stroke:#181818;stroke-width:1.0;"/><line style="stroke:#181818;stroke-width:1.0;" x1="320" x2="473.5" y1="145.3125" y2="145.3125"/><text fill="#000000" font-family="sans-serif" font-size="13" font-weight="bold" lengthAdjust="spacing" textLength="7" x="327" y="140.4561">2</text><text fill="#000000" font-family="sans-serif" font-size="13" lengthAdjust="spacing" textLength="36" x="338" y="140.4561">create</text><rect fill="#E3E3E3" height="31.6094" rx="2.5" ry="2.5" style="stroke:#181818;stroke-width:0.5;" width="159" x="479.5" y="122.9609"/><text fill="#000000" font-family="sans-serif" font-size="14" lengthAdjust="spacing" textLength="145" x="486.5" y="144.4941">:CreateTeamController</text><rect fill="none" height="56.5391" style="stroke:#000000;stroke-width:1.5;" width="165" x="476.5" y="165.5703"/><path d="M476.5,165.5703 L538.5,165.5703 L538.5,173.5703 L528.5,183.5703 L476.5,183.5703 L476.5,165.5703 " fill="#EEEEEE" style="stroke:#000000;stroke-width:2.0;"/><text fill="#000000" font-family="sans-serif" font-size="13" font-weight="bold" lengthAdjust="spacing" textLength="17" x="489.5" y="181.0654">ref</text><text fill="#000000" font-family="sans-serif" font-size="12" lengthAdjust="spacing" textLength="75" x="521.5" y="200.0273">Get Skills List</text><text fill="#000000" font-family="sans-serif" font-size="12" lengthAdjust="spacing" textLength="3" x="557.5" y="215.1211"> </text><polygon fill="#181818" points="331,245.4609,321,249.4609,331,253.4609,327,249.4609" style="stroke:#181818;stroke-width:1.0;"/><line style="stroke:#181818;stroke-width:1.0;stroke-dasharray:2.0,2.0;" x1="325" x2="558" y1="249.4609" y2="249.4609"/><text fill="#000000" font-family="sans-serif" font-size="13" font-weight="bold" lengthAdjust="spacing" textLength="7" x="337" y="244.6045">3</text><text fill="#000000" font-family="sans-serif" font-size="13" lengthAdjust="spacing" textLength="51" x="348" y="244.6045">skillsList</text><polygon fill="#181818" points="39,275.8125,29,279.8125,39,283.8125,35,279.8125" style="stroke:#181818;stroke-width:1.0;"/><line style="stroke:#181818;stroke-width:1.0;stroke-dasharray:2.0,2.0;" x1="33" x2="314" y1="279.8125" y2="279.8125"/><text fill="#000000" font-family="sans-serif" font-size="13" font-weight="bold" lengthAdjust="spacing" textLength="7" x="45" y="274.9561">4</text><text fill="#000000" font-family="sans-serif" font-size="13" lengthAdjust="spacing" textLength="228" x="56" y="274.9561">shows skills list and asks to select one</text><polygon fill="#181818" points="298,306.1641,308,310.1641,298,314.1641,302,310.1641" style="stroke:#181818;stroke-width:1.0;"/><line style="stroke:#181818;stroke-width:1.0;stroke-dasharray:2.0,2.0;" x1="28" x2="304" y1="310.1641" y2="310.1641"/><text fill="#000000" font-family="sans-serif" font-size="13" font-weight="bold" lengthAdjust="spacing" textLength="7" x="35" y="305.3076">5</text><text fill="#000000" font-family="sans-serif" font-size="13" lengthAdjust="spacing" textLength="76" x="46" y="305.3076">selects skills</text><polygon fill="#181818" points="39,336.5156,29,340.5156,39,344.5156,35,340.5156" style="stroke:#181818;stroke-width:1.0;"/><line style="stroke:#181818;stroke-width:1.0;stroke-dasharray:2.0,2.0;" x1="33" x2="314" y1="340.5156" y2="340.5156"/><text fill="#000000" font-family="sans-serif" font-size="13" font-weight="bold" lengthAdjust="spacing" textLength="7" x="45" y="335.6592">6</text><text fill="#000000" font-family="sans-serif" font-size="13" lengthAdjust="spacing" textLength="172" x="56" y="335.6592">requests maximum team size</text><polygon fill="#181818" points="298,366.8672,308,370.8672,298,374.8672,302,370.8672" style="stroke:#181818;stroke-width:1.0;"/><line style="stroke:#181818;stroke-width:1.0;" x1="28" x2="304" y1="370.8672" y2="370.8672"/><text fill="#000000" font-family="sans-serif" font-size="13" font-weight="bold" lengthAdjust="spacing" textLength="7" x="35" y="366.0107">7</text><text fill="#000000" font-family="sans-serif" font-size="13" lengthAdjust="spacing" textLength="252" x="46" y="366.0107">types requested data (maximum team size)</text><polygon fill="#181818" points="39,397.2188,29,401.2188,39,405.2188,35,401.2188" style="stroke:#181818;stroke-width:1.0;"/><line style="stroke:#181818;stroke-width:1.0;stroke-dasharray:2.0,2.0;" x1="33" x2="314" y1="401.2188" y2="401.2188"/><text fill="#000000" font-family="sans-serif" font-size="13" font-weight="bold" lengthAdjust="spacing" textLength="7" x="45" y="396.3623">8</text><text fill="#000000" font-family="sans-serif" font-size="13" lengthAdjust="spacing" textLength="205" x="56" y="396.3623">shows data and asks for verification</text><polygon fill="#181818" points="298,427.5703,308,431.5703,298,435.5703,302,431.5703" style="stroke:#181818;stroke-width:1.0;"/><line style="stroke:#181818;stroke-width:1.0;" x1="28" x2="304" y1="431.5703" y2="431.5703"/><text fill="#000000" font-family="sans-serif" font-size="13" font-weight="bold" lengthAdjust="spacing" textLength="7" x="35" y="426.7139">9</text><text fill="#000000" font-family="sans-serif" font-size="13" lengthAdjust="spacing" textLength="75" x="46" y="426.7139">submits data</text><polygon fill="#181818" points="542,457.9219,552,461.9219,542,465.9219,546,461.9219" style="stroke:#181818;stroke-width:1.0;"/><line style="stroke:#181818;stroke-width:1.0;" x1="320" x2="548" y1="461.9219" y2="461.9219"/><text fill="#000000" font-family="sans-serif" font-size="13" font-weight="bold" lengthAdjust="spacing" textLength="14" x="327" y="457.0654">10</text><text fill="#000000" font-family="sans-serif" font-size="13" lengthAdjust="spacing" textLength="197" x="345" y="457.0654">createTeam(skills, maxTeamSize)</text><rect fill="none" height="56.5391" style="stroke:#000000;stroke-width:1.5;" width="165" x="476.5" y="469.9219"/><path d="M476.5,469.9219 L538.5,469.9219 L538.5,477.9219 L528.5,487.9219 L476.5,487.9219 L476.5,469.9219 " fill="#EEEEEE" style="stroke:#000000;stroke-width:2.0;"/><text fill="#000000" font-family="sans-serif" font-size="13" font-weight="bold" lengthAdjust="spacing" textLength="17" x="489.5" y="485.417">ref</text><text fill="#000000" font-family="sans-serif" font-size="12" lengthAdjust="spacing" textLength="126" x="496" y="504.3789">Get Skill by Description</text><text fill="#000000" font-family="sans-serif" font-size="12" lengthAdjust="spacing" textLength="3" x="557.5" y="519.4727"> </text><line style="stroke:#181818;stroke-width:1.0;stroke-dasharray:2.0,2.0;" x1="564" x2="606" y1="553.8125" y2="553.8125"/><line style="stroke:#181818;stroke-width:1.0;stroke-dasharray:2.0,2.0;" x1="606" x2="606" y1="553.8125" y2="566.8125"/><line style="stroke:#181818;stroke-width:1.0;stroke-dasharray:2.0,2.0;" x1="565" x2="606" y1="566.8125" y2="566.8125"/><polygon fill="#181818" points="575,562.8125,565,566.8125,575,570.8125,571,566.8125" style="stroke:#181818;stroke-width:1.0;"/><text fill="#000000" font-family="sans-serif" font-size="13" font-weight="bold" lengthAdjust="spacing" textLength="14" x="571" y="548.9561">11</text><text fill="#000000" font-family="sans-serif" font-size="13" lengthAdjust="spacing" textLength="23" x="589" y="548.9561">skill</text><polygon fill="#181818" points="1027.5,618.1641,1037.5,622.1641,1027.5,626.1641,1031.5,622.1641" style="stroke:#181818;stroke-width:1.0;"/><line style="stroke:#181818;stroke-width:1.0;" x1="564" x2="1033.5" y1="622.1641" y2="622.1641"/><text fill="#000000" font-family="sans-serif" font-size="13" font-weight="bold" lengthAdjust="spacing" textLength="14" x="571" y="617.3076">12</text><text fill="#000000" font-family="sans-serif" font-size="13" lengthAdjust="spacing" textLength="197" x="589" y="617.3076">createTeam(skills, maxTeamSize)</text><rect fill="none" height="71.6328" style="stroke:#000000;stroke-width:1.5;" width="128" x="980.5" y="630.1641"/><path d="M980.5,630.1641 L1042.5,630.1641 L1042.5,638.1641 L1032.5,648.1641 L980.5,648.1641 L980.5,630.1641 " fill="#EEEEEE" style="stroke:#000000;stroke-width:2.0;"/><text fill="#000000" font-family="sans-serif" font-size="13" font-weight="bold" lengthAdjust="spacing" textLength="17" x="993.5" y="645.6592">ref</text><text fill="#000000" font-family="sans-serif" font-size="12" lengthAdjust="spacing" textLength="3" x="1043" y="664.6211"> </text><text fill="#000000" font-family="sans-serif" font-size="12" lengthAdjust="spacing" textLength="72" x="1008.5" y="679.7148">Create Team</text><text fill="#000000" font-family="sans-serif" font-size="12" lengthAdjust="spacing" textLength="3" x="1043" y="694.8086"> </text><polygon fill="#181818" points="575,725.1484,565,729.1484,575,733.1484,571,729.1484" style="stroke:#181818;stroke-width:1.0;"/><line style="stroke:#181818;stroke-width:1.0;stroke-dasharray:2.0,2.0;" x1="569" x2="1043.5" y1="729.1484" y2="729.1484"/><text fill="#000000" font-family="sans-serif" font-size="13" font-weight="bold" lengthAdjust="spacing" textLength="14" x="581" y="724.292">13</text><text fill="#000000" font-family="sans-serif" font-size="13" lengthAdjust="spacing" textLength="29" x="599" y="724.292">team</text><polygon fill="#181818" points="331,755.5,321,759.5,331,763.5,327,759.5" style="stroke:#181818;stroke-width:1.0;"/><line style="stroke:#181818;stroke-width:1.0;stroke-dasharray:2.0,2.0;" x1="325" x2="558" y1="759.5" y2="759.5"/><text fill="#000000" font-family="sans-serif" font-size="13" font-weight="bold" lengthAdjust="spacing" textLength="14" x="337" y="754.6436">14</text><text fill="#000000" font-family="sans-serif" font-size="13" lengthAdjust="spacing" textLength="49" x="355" y="754.6436">success</text><polygon fill="#181818" points="34,785.8516,24,789.8516,34,793.8516,30,789.8516" style="stroke:#181818;stroke-width:1.0;"/><line style="stroke:#181818;stroke-width:1.0;stroke-dasharray:2.0,2.0;" x1="28" x2="314" y1="789.8516" y2="789.8516"/><text fill="#000000" font-family="sans-serif" font-size="13" font-weight="bold" lengthAdjust="spacing" textLength="14" x="40" y="784.9951">15</text><text fill="#000000" font-family="sans-serif" font-size="13" lengthAdjust="spacing" textLength="158" x="58" y="784.9951">displays operation success</text><!--SRC=[bPJ1Rk8m48RlVeeHb-rMsnVWKAcYqcubAbL0RxsOP02Bn4uzJYah7dx7Jd7Z10BhKsB_ytdyUpoqLRgILfPG6csoZJKbWhCr2eehbSosSerpjoyGB6PEwdNH5j16vcQdz1fMiY0KGjREwBfSeXNYnqRb22jZtD9y2favOs7qP_Oy0admyFWicE5KfYgf7Op64ulIuG9b-VeK9AzFPnKJevqrHO4sA2UBsRIZdM5bIF6M2YbeuiH-hlmfECyqnBOYtdGVy39zMAGHywqgYc_k-4rtPa9SPov5-CCaX7GY0DAfDDxn6YVh9L4hlDVgWwqABWlWmHzmTy-MmfXbMm9d80jsWWIDE_2We8onR7-OQ0-EPugt-_QMIGsXBukCS36zPJyihi1ye6qaS67yHjVuI31LvCHW0EhSuq-B_7PmTxI20ZCWky8SBvp2Uy4Sxoo3DcP7NpWec0UIipWwJLZmum6ZKPpPecrskAkOOGWzeaNFuNPWaf75zng98qlvgSgw33SCfFusEPpOkrqZRbyX7HcOGowTX9iUwgUuBfd6dW29lgou7N01g9NAf5Fy6gz8Y-fbgLn36jwwgT9Oe_vTt3GU_lAE-FzvFC25chskLcEDmd8FZqYPLLKubnWgqi4Q_Jf2o5kadCFX84x7tNSQnlKMzApeT1vnzX5V4YPPDcsdwLJ_zORJNQ93u-_cTU9b3QNMQGPrbY6H6Ee2fnl06795LI7t1AP26yevmNNAklNhE_G_]--></g></svg>