<?xml version="1.0" encoding="UTF-8" standalone="no"?><svg xmlns="http://www.w3.org/2000/svg" xmlns:xlink="http://www.w3.org/1999/xlink" contentStyleType="text/css" height="1331px" preserveAspectRatio="none" style="width:1519px;height:1331px;background:#FFFFFF;" version="1.1" viewBox="0 0 1519 1331" width="1519px" zoomAndPan="magnify"><defs/><g><rect fill="#FFFFFF" height="1138.7266" style="stroke:#181818;stroke-width:1.0;" width="10" x="18" y="92.6094"/><rect fill="#FFFFFF" height="510.8828" style="stroke:#181818;stroke-width:1.0;" width="10" x="352" y="114.9609"/><rect fill="#FFFFFF" height="1045.6719" style="stroke:#181818;stroke-width:1.0;" width="10" x="696" y="155.3125"/><rect fill="#FFFFFF" height="30.3516" style="stroke:#181818;stroke-width:1.0;" width="10" x="966" y="231.2734"/><rect fill="#FFFFFF" height="30.3516" style="stroke:#181818;stroke-width:1.0;" width="10" x="966" y="699.5469"/><rect fill="#FFFFFF" height="30.3516" style="stroke:#181818;stroke-width:1.0;" width="10" x="1073" y="291.9766"/><rect fill="#FFFFFF" height="30.3516" style="stroke:#181818;stroke-width:1.0;" width="10" x="1073" y="760.25"/><rect fill="#FFFFFF" height="30.3516" style="stroke:#181818;stroke-width:1.0;" width="10" x="1187" y="352.6797"/><rect fill="#FFFFFF" height="30.3516" style="stroke:#181818;stroke-width:1.0;" width="10" x="1187" y="820.9531"/><rect fill="#FFFFFF" height="263.9766" style="stroke:#181818;stroke-width:1.0;" width="10" x="1313.5" y="906.6563"/><rect fill="#FFFFFF" height="128.0547" style="stroke:#181818;stroke-width:1.0;" width="10" x="1318.5" y="1005.2266"/><rect fill="#FFFFFF" height="41.3516" style="stroke:#181818;stroke-width:1.0;" width="10" x="1323.5" y="1048.5781"/><line style="stroke:#181818;stroke-width:0.5;stroke-dasharray:5.0,5.0;" x1="23" x2="23" y1="82.6094" y2="1249.3359"/><line style="stroke:#181818;stroke-width:0.5;stroke-dasharray:5.0,5.0;" x1="356.5" x2="356.5" y1="82.6094" y2="1249.3359"/><line style="stroke:#181818;stroke-width:0.5;stroke-dasharray:5.0,5.0;" x1="700.5" x2="700.5" y1="154.2656" y2="1249.3359"/><line style="stroke:#181818;stroke-width:0.5;stroke-dasharray:5.0,5.0;" x1="970.5" x2="970.5" y1="82.6094" y2="1249.3359"/><line style="stroke:#181818;stroke-width:0.5;stroke-dasharray:5.0,5.0;" x1="1077.5" x2="1077.5" y1="82.6094" y2="1249.3359"/><line style="stroke:#181818;stroke-width:0.5;stroke-dasharray:5.0,5.0;" x1="1191.5" x2="1191.5" y1="82.6094" y2="1249.3359"/><line style="stroke:#181818;stroke-width:0.5;stroke-dasharray:5.0,5.0;" x1="1318.5" x2="1318.5" y1="82.6094" y2="1249.3359"/><line style="stroke:#181818;stroke-width:0.5;stroke-dasharray:5.0,5.0;" x1="1486.5" x2="1486.5" y1="954.7656" y2="1249.3359"/><text fill="#000000" font-family="sans-serif" font-size="14" lengthAdjust="spacing" textLength="30" x="5" y="79.5332">HRM</text><ellipse cx="23" cy="13.5" fill="#E3E3E3" rx="8" ry="8" style="stroke:#181818;stroke-width:0.5;"/><path d="M23,21.5 L23,48.5 M10,29.5 L36,29.5 M23,48.5 L10,63.5 M23,48.5 L36,63.5 " fill="none" style="stroke:#181818;stroke-width:0.5;"/><text fill="#000000" font-family="sans-serif" font-size="14" lengthAdjust="spacing" textLength="30" x="5" y="1262.8691">HRM</text><ellipse cx="23" cy="1274.4453" fill="#E3E3E3" rx="8" ry="8" style="stroke:#181818;stroke-width:0.5;"/><path d="M23,1282.4453 L23,1309.4453 M10,1290.4453 L36,1290.4453 M23,1309.4453 L10,1324.4453 M23,1309.4453 L36,1324.4453 " fill="none" style="stroke:#181818;stroke-width:0.5;"/><rect fill="#E3E3E3" height="31.6094" rx="2.5" ry="2.5" style="stroke:#181818;stroke-width:0.5;" width="109" x="302.5" y="50"/><text fill="#000000" font-family="sans-serif" font-size="14" lengthAdjust="spacing" textLength="95" x="309.5" y="71.5332">:CreateTeamUI</text><rect fill="#E3E3E3" height="31.6094" rx="2.5" ry="2.5" style="stroke:#181818;stroke-width:0.5;" width="109" x="302.5" y="1248.3359"/><text fill="#000000" font-family="sans-serif" font-size="14" lengthAdjust="spacing" textLength="95" x="309.5" y="1269.8691">:CreateTeamUI</text><rect fill="#E3E3E3" height="31.6094" rx="2.5" ry="2.5" style="stroke:#181818;stroke-width:0.5;" width="159" x="621.5" y="1248.3359"/><text fill="#000000" font-family="sans-serif" font-size="14" lengthAdjust="spacing" textLength="145" x="628.5" y="1269.8691">:CreateTeamController</text><rect fill="#E3E3E3" height="31.6094" rx="2.5" ry="2.5" style="stroke:#181818;stroke-width:0.5;" width="97" x="922.5" y="50"/><text fill="#000000" font-family="sans-serif" font-size="14" lengthAdjust="spacing" textLength="83" x="929.5" y="71.5332">:Repositories</text><rect fill="#E3E3E3" height="31.6094" rx="2.5" ry="2.5" style="stroke:#181818;stroke-width:0.5;" width="97" x="922.5" y="1248.3359"/><text fill="#000000" font-family="sans-serif" font-size="14" lengthAdjust="spacing" textLength="83" x="929.5" y="1269.8691">:Repositories</text><rect fill="#E3E3E3" height="49.2188" rx="2.5" ry="2.5" style="stroke:#181818;stroke-width:0.5;" width="97" x="1029.5" y="32.3906"/><text fill="#000000" font-family="sans-serif" font-size="14" lengthAdjust="spacing" textLength="74" x="1041" y="53.9238">repositories</text><text fill="#000000" font-family="sans-serif" font-size="14" lengthAdjust="spacing" textLength="83" x="1036.5" y="71.5332">:Repositories</text><rect fill="#E3E3E3" height="49.2188" rx="2.5" ry="2.5" style="stroke:#181818;stroke-width:0.5;" width="97" x="1029.5" y="1248.3359"/><text fill="#000000" font-family="sans-serif" font-size="14" lengthAdjust="spacing" textLength="74" x="1041" y="1269.8691">repositories</text><text fill="#000000" font-family="sans-serif" font-size="14" lengthAdjust="spacing" textLength="83" x="1036.5" y="1287.4785">:Repositories</text><rect fill="#E3E3E3" height="49.2188" rx="2.5" ry="2.5" style="stroke:#181818;stroke-width:0.5;" width="111" x="1136.5" y="32.3906"/><text fill="#000000" font-family="sans-serif" font-size="14" lengthAdjust="spacing" textLength="97" x="1143.5" y="53.9238">SkillRepository:</text><text fill="#000000" font-family="sans-serif" font-size="14" lengthAdjust="spacing" textLength="93" x="1145.5" y="71.5332">SkillRepository</text><rect fill="#E3E3E3" height="49.2188" rx="2.5" ry="2.5" style="stroke:#181818;stroke-width:0.5;" width="111" x="1136.5" y="1248.3359"/><text fill="#000000" font-family="sans-serif" font-size="14" lengthAdjust="spacing" textLength="97" x="1143.5" y="1269.8691">SkillRepository:</text><text fill="#000000" font-family="sans-serif" font-size="14" lengthAdjust="spacing" textLength="93" x="1145.5" y="1287.4785">SkillRepository</text><rect fill="#E3E3E3" height="49.2188" rx="2.5" ry="2.5" style="stroke:#181818;stroke-width:0.5;" width="122" x="1257.5" y="32.3906"/><text fill="#000000" font-family="sans-serif" font-size="14" lengthAdjust="spacing" textLength="108" x="1264.5" y="53.9238">TeamRepository:</text><text fill="#000000" font-family="sans-serif" font-size="14" lengthAdjust="spacing" textLength="104" x="1266.5" y="71.5332">TeamRepository</text><rect fill="#E3E3E3" height="49.2188" rx="2.5" ry="2.5" style="stroke:#181818;stroke-width:0.5;" width="122" x="1257.5" y="1248.3359"/><text fill="#000000" font-family="sans-serif" font-size="14" lengthAdjust="spacing" textLength="108" x="1264.5" y="1269.8691">TeamRepository:</text><text fill="#000000" font-family="sans-serif" font-size="14" lengthAdjust="spacing" textLength="104" x="1266.5" y="1287.4785">TeamRepository</text><rect fill="#E3E3E3" height="49.2188" rx="2.5" ry="2.5" style="stroke:#181818;stroke-width:0.5;" width="54" x="1459.5" y="1248.3359"/><text fill="#000000" font-family="sans-serif" font-size="14" lengthAdjust="spacing" textLength="31" x="1471" y="1269.8691">team</text><text fill="#000000" font-family="sans-serif" font-size="14" lengthAdjust="spacing" textLength="40" x="1466.5" y="1287.4785">:Team</text><rect fill="#FFFFFF" height="1138.7266" style="stroke:#181818;stroke-width:1.0;" width="10" x="18" y="92.6094"/><rect fill="#FFFFFF" height="510.8828" style="stroke:#181818;stroke-width:1.0;" width="10" x="352" y="114.9609"/><rect fill="#FFFFFF" height="1045.6719" style="stroke:#181818;stroke-width:1.0;" width="10" x="696" y="155.3125"/><rect fill="#FFFFFF" height="30.3516" style="stroke:#181818;stroke-width:1.0;" width="10" x="966" y="231.2734"/><rect fill="#FFFFFF" height="30.3516" style="stroke:#181818;stroke-width:1.0;" width="10" x="966" y="699.5469"/><rect fill="#FFFFFF" height="30.3516" style="stroke:#181818;stroke-width:1.0;" width="10" x="1073" y="291.9766"/><rect fill="#FFFFFF" height="30.3516" style="stroke:#181818;stroke-width:1.0;" width="10" x="1073" y="760.25"/><rect fill="#FFFFFF" height="30.3516" style="stroke:#181818;stroke-width:1.0;" width="10" x="1187" y="352.6797"/><rect fill="#FFFFFF" height="30.3516" style="stroke:#181818;stroke-width:1.0;" width="10" x="1187" y="820.9531"/><rect fill="#FFFFFF" height="263.9766" style="stroke:#181818;stroke-width:1.0;" width="10" x="1313.5" y="906.6563"/><rect fill="#FFFFFF" height="128.0547" style="stroke:#181818;stroke-width:1.0;" width="10" x="1318.5" y="1005.2266"/><rect fill="#FFFFFF" height="41.3516" style="stroke:#181818;stroke-width:1.0;" width="10" x="1323.5" y="1048.5781"/><polygon fill="#181818" points="340,110.9609,350,114.9609,340,118.9609,344,114.9609" style="stroke:#181818;stroke-width:1.0;"/><line style="stroke:#181818;stroke-width:1.0;" x1="28" x2="346" y1="114.9609" y2="114.9609"/><text fill="#000000" font-family="sans-serif" font-size="13" font-weight="bold" lengthAdjust="spacing" textLength="7" x="35" y="110.1045">1</text><text fill="#000000" font-family="sans-serif" font-size="13" lengthAdjust="spacing" textLength="154" x="46" y="110.1045">asks to create a new team</text><polygon fill="#181818" points="609.5,141.3125,619.5,145.3125,609.5,149.3125,613.5,145.3125" style="stroke:#181818;stroke-width:1.0;"/><line style="stroke:#181818;stroke-width:1.0;" x1="362" x2="615.5" y1="145.3125" y2="145.3125"/><text fill="#000000" font-family="sans-serif" font-size="13" font-weight="bold" lengthAdjust="spacing" textLength="7" x="369" y="140.4561">2</text><text fill="#000000" font-family="sans-serif" font-size="13" lengthAdjust="spacing" textLength="36" x="380" y="140.4561">create</text><rect fill="#E3E3E3" height="31.6094" rx="2.5" ry="2.5" style="stroke:#181818;stroke-width:0.5;" width="159" x="621.5" y="122.9609"/><text fill="#000000" font-family="sans-serif" font-size="14" lengthAdjust="spacing" textLength="145" x="628.5" y="144.4941">:CreateTeamController</text><line style="stroke:#181818;stroke-width:1.0;" x1="706" x2="748" y1="187.9219" y2="187.9219"/><line style="stroke:#181818;stroke-width:1.0;" x1="748" x2="748" y1="187.9219" y2="200.9219"/><line style="stroke:#181818;stroke-width:1.0;" x1="707" x2="748" y1="200.9219" y2="200.9219"/><polygon fill="#181818" points="717,196.9219,707,200.9219,717,204.9219,713,200.9219" style="stroke:#181818;stroke-width:1.0;"/><text fill="#000000" font-family="sans-serif" font-size="13" font-weight="bold" lengthAdjust="spacing" textLength="7" x="713" y="183.0654">3</text><text fill="#000000" font-family="sans-serif" font-size="13" lengthAdjust="spacing" textLength="58" x="724" y="183.0654">getSkills()</text><polygon fill="#181818" points="954,227.2734,964,231.2734,954,235.2734,958,231.2734" style="stroke:#181818;stroke-width:1.0;"/><line style="stroke:#181818;stroke-width:1.0;" x1="706" x2="960" y1="231.2734" y2="231.2734"/><text fill="#000000" font-family="sans-serif" font-size="13" font-weight="bold" lengthAdjust="spacing" textLength="7" x="713" y="226.417">4</text><text fill="#000000" font-family="sans-serif" font-size="13" lengthAdjust="spacing" textLength="75" x="724" y="226.417">getInstance()</text><polygon fill="#181818" points="717,257.625,707,261.625,717,265.625,713,261.625" style="stroke:#181818;stroke-width:1.0;"/><line style="stroke:#181818;stroke-width:1.0;stroke-dasharray:2.0,2.0;" x1="711" x2="970" y1="261.625" y2="261.625"/><text fill="#000000" font-family="sans-serif" font-size="13" font-weight="bold" lengthAdjust="spacing" textLength="7" x="723" y="256.7686">5</text><text fill="#000000" font-family="sans-serif" font-size="13" lengthAdjust="spacing" textLength="67" x="734" y="256.7686">repositories</text><polygon fill="#181818" points="1061,287.9766,1071,291.9766,1061,295.9766,1065,291.9766" style="stroke:#181818;stroke-width:1.0;"/><line style="stroke:#181818;stroke-width:1.0;" x1="706" x2="1067" y1="291.9766" y2="291.9766"/><text fill="#000000" font-family="sans-serif" font-size="13" font-weight="bold" lengthAdjust="spacing" textLength="7" x="713" y="287.1201">6</text><text fill="#000000" font-family="sans-serif" font-size="13" lengthAdjust="spacing" textLength="113" x="724" y="287.1201">getSkillRepository()</text><polygon fill="#181818" points="717,318.3281,707,322.3281,717,326.3281,713,322.3281" style="stroke:#181818;stroke-width:1.0;"/><line style="stroke:#181818;stroke-width:1.0;stroke-dasharray:2.0,2.0;" x1="711" x2="1077" y1="322.3281" y2="322.3281"/><text fill="#000000" font-family="sans-serif" font-size="13" font-weight="bold" lengthAdjust="spacing" textLength="7" x="723" y="317.4717">7</text><text fill="#000000" font-family="sans-serif" font-size="13" lengthAdjust="spacing" textLength="85" x="734" y="317.4717">skillRepository</text><polygon fill="#181818" points="1175,348.6797,1185,352.6797,1175,356.6797,1179,352.6797" style="stroke:#181818;stroke-width:1.0;"/><line style="stroke:#181818;stroke-width:1.0;" x1="706" x2="1181" y1="352.6797" y2="352.6797"/><text fill="#000000" font-family="sans-serif" font-size="13" font-weight="bold" lengthAdjust="spacing" textLength="7" x="713" y="347.8232">8</text><text fill="#000000" font-family="sans-serif" font-size="13" lengthAdjust="spacing" textLength="58" x="724" y="347.8232">getSkills()</text><polygon fill="#181818" points="717,379.0313,707,383.0313,717,387.0313,713,383.0313" style="stroke:#181818;stroke-width:1.0;"/><line style="stroke:#181818;stroke-width:1.0;stroke-dasharray:2.0,2.0;" x1="711" x2="1191" y1="383.0313" y2="383.0313"/><text fill="#000000" font-family="sans-serif" font-size="13" font-weight="bold" lengthAdjust="spacing" textLength="7" x="723" y="378.1748">9</text><text fill="#000000" font-family="sans-serif" font-size="13" lengthAdjust="spacing" textLength="51" x="734" y="378.1748">skillsList</text><polygon fill="#181818" points="373,409.3828,363,413.3828,373,417.3828,369,413.3828" style="stroke:#181818;stroke-width:1.0;"/><line style="stroke:#181818;stroke-width:1.0;stroke-dasharray:2.0,2.0;" x1="367" x2="695" y1="413.3828" y2="413.3828"/><text fill="#000000" font-family="sans-serif" font-size="13" font-weight="bold" lengthAdjust="spacing" textLength="14" x="379" y="408.5264">10</text><text fill="#000000" font-family="sans-serif" font-size="13" lengthAdjust="spacing" textLength="51" x="397" y="408.5264">skillsList</text><polygon fill="#181818" points="39,439.7344,29,443.7344,39,447.7344,35,443.7344" style="stroke:#181818;stroke-width:1.0;"/><line style="stroke:#181818;stroke-width:1.0;stroke-dasharray:2.0,2.0;" x1="33" x2="351" y1="443.7344" y2="443.7344"/><text fill="#000000" font-family="sans-serif" font-size="13" font-weight="bold" lengthAdjust="spacing" textLength="14" x="45" y="438.8779">11</text><text fill="#000000" font-family="sans-serif" font-size="13" lengthAdjust="spacing" textLength="228" x="63" y="438.8779">shows skills list and asks to select one</text><polygon fill="#181818" points="340,470.0859,350,474.0859,340,478.0859,344,474.0859" style="stroke:#181818;stroke-width:1.0;"/><line style="stroke:#181818;stroke-width:1.0;stroke-dasharray:2.0,2.0;" x1="28" x2="346" y1="474.0859" y2="474.0859"/><text fill="#000000" font-family="sans-serif" font-size="13" font-weight="bold" lengthAdjust="spacing" textLength="14" x="35" y="469.2295">12</text><text fill="#000000" font-family="sans-serif" font-size="13" lengthAdjust="spacing" textLength="76" x="53" y="469.2295">selects skills</text><polygon fill="#181818" points="39,500.4375,29,504.4375,39,508.4375,35,504.4375" style="stroke:#181818;stroke-width:1.0;"/><line style="stroke:#181818;stroke-width:1.0;stroke-dasharray:2.0,2.0;" x1="33" x2="351" y1="504.4375" y2="504.4375"/><text fill="#000000" font-family="sans-serif" font-size="13" font-weight="bold" lengthAdjust="spacing" textLength="14" x="45" y="499.5811">13</text><text fill="#000000" font-family="sans-serif" font-size="13" lengthAdjust="spacing" textLength="172" x="63" y="499.5811">requests maximum team size</text><polygon fill="#181818" points="340,530.7891,350,534.7891,340,538.7891,344,534.7891" style="stroke:#181818;stroke-width:1.0;"/><line style="stroke:#181818;stroke-width:1.0;" x1="28" x2="346" y1="534.7891" y2="534.7891"/><text fill="#000000" font-family="sans-serif" font-size="13" font-weight="bold" lengthAdjust="spacing" textLength="14" x="35" y="529.9326">14</text><text fill="#000000" font-family="sans-serif" font-size="13" lengthAdjust="spacing" textLength="282" x="53" y="529.9326">types requested data (maximum&amp;min team size)</text><polygon fill="#181818" points="39,561.1406,29,565.1406,39,569.1406,35,565.1406" style="stroke:#181818;stroke-width:1.0;"/><line style="stroke:#181818;stroke-width:1.0;stroke-dasharray:2.0,2.0;" x1="33" x2="351" y1="565.1406" y2="565.1406"/><text fill="#000000" font-family="sans-serif" font-size="13" font-weight="bold" lengthAdjust="spacing" textLength="14" x="45" y="560.2842">15</text><text fill="#000000" font-family="sans-serif" font-size="13" lengthAdjust="spacing" textLength="205" x="63" y="560.2842">shows data and asks for verification</text><polygon fill="#181818" points="340,591.4922,350,595.4922,340,599.4922,344,595.4922" style="stroke:#181818;stroke-width:1.0;"/><line style="stroke:#181818;stroke-width:1.0;" x1="28" x2="346" y1="595.4922" y2="595.4922"/><text fill="#000000" font-family="sans-serif" font-size="13" font-weight="bold" lengthAdjust="spacing" textLength="14" x="35" y="590.6357">16</text><text fill="#000000" font-family="sans-serif" font-size="13" lengthAdjust="spacing" textLength="75" x="53" y="590.6357">submits data</text><polygon fill="#181818" points="684,621.8438,694,625.8438,684,629.8438,688,625.8438" style="stroke:#181818;stroke-width:1.0;"/><line style="stroke:#181818;stroke-width:1.0;" x1="357" x2="690" y1="625.8438" y2="625.8438"/><text fill="#000000" font-family="sans-serif" font-size="13" font-weight="bold" lengthAdjust="spacing" textLength="14" x="364" y="620.9873">17</text><text fill="#000000" font-family="sans-serif" font-size="13" lengthAdjust="spacing" textLength="292" x="382" y="620.9873">createTeam(skills[], maxTeamSize, minTeamSize)</text><line style="stroke:#181818;stroke-width:1.0;" x1="706" x2="748" y1="656.1953" y2="656.1953"/><line style="stroke:#181818;stroke-width:1.0;" x1="748" x2="748" y1="656.1953" y2="669.1953"/><line style="stroke:#181818;stroke-width:1.0;" x1="707" x2="748" y1="669.1953" y2="669.1953"/><polygon fill="#181818" points="717,665.1953,707,669.1953,717,673.1953,713,669.1953" style="stroke:#181818;stroke-width:1.0;"/><text fill="#000000" font-family="sans-serif" font-size="13" font-weight="bold" lengthAdjust="spacing" textLength="14" x="713" y="651.3389">18</text><text fill="#000000" font-family="sans-serif" font-size="13" lengthAdjust="spacing" textLength="228" x="731" y="651.3389">getSkillByDescription(skillDescription[])</text><polygon fill="#181818" points="954,695.5469,964,699.5469,954,703.5469,958,699.5469" style="stroke:#181818;stroke-width:1.0;"/><line style="stroke:#181818;stroke-width:1.0;" x1="706" x2="960" y1="699.5469" y2="699.5469"/><text fill="#000000" font-family="sans-serif" font-size="13" font-weight="bold" lengthAdjust="spacing" textLength="14" x="713" y="694.6904">19</text><text fill="#000000" font-family="sans-serif" font-size="13" lengthAdjust="spacing" textLength="75" x="731" y="694.6904">getInstance()</text><polygon fill="#181818" points="717,725.8984,707,729.8984,717,733.8984,713,729.8984" style="stroke:#181818;stroke-width:1.0;"/><line style="stroke:#181818;stroke-width:1.0;stroke-dasharray:2.0,2.0;" x1="711" x2="970" y1="729.8984" y2="729.8984"/><text fill="#000000" font-family="sans-serif" font-size="13" font-weight="bold" lengthAdjust="spacing" textLength="14" x="723" y="725.042">20</text><text fill="#000000" font-family="sans-serif" font-size="13" lengthAdjust="spacing" textLength="67" x="741" y="725.042">repositories</text><polygon fill="#181818" points="1061,756.25,1071,760.25,1061,764.25,1065,760.25" style="stroke:#181818;stroke-width:1.0;"/><line style="stroke:#181818;stroke-width:1.0;" x1="706" x2="1067" y1="760.25" y2="760.25"/><text fill="#000000" font-family="sans-serif" font-size="13" font-weight="bold" lengthAdjust="spacing" textLength="14" x="713" y="755.3936">21</text><text fill="#000000" font-family="sans-serif" font-size="13" lengthAdjust="spacing" textLength="113" x="731" y="755.3936">getSkillRepository()</text><polygon fill="#181818" points="717,786.6016,707,790.6016,717,794.6016,713,790.6016" style="stroke:#181818;stroke-width:1.0;"/><line style="stroke:#181818;stroke-width:1.0;" x1="711" x2="1077" y1="790.6016" y2="790.6016"/><text fill="#000000" font-family="sans-serif" font-size="13" font-weight="bold" lengthAdjust="spacing" textLength="14" x="723" y="785.7451">22</text><text fill="#000000" font-family="sans-serif" font-size="13" lengthAdjust="spacing" textLength="87" x="741" y="785.7451">SkillRepository</text><polygon fill="#181818" points="1175,816.9531,1185,820.9531,1175,824.9531,1179,820.9531" style="stroke:#181818;stroke-width:1.0;"/><line style="stroke:#181818;stroke-width:1.0;" x1="706" x2="1181" y1="820.9531" y2="820.9531"/><text fill="#000000" font-family="sans-serif" font-size="13" font-weight="bold" lengthAdjust="spacing" textLength="14" x="713" y="816.0967">23</text><text fill="#000000" font-family="sans-serif" font-size="13" lengthAdjust="spacing" textLength="235" x="731" y="816.0967">getSkillsByDescription(skillDescription[])</text><polygon fill="#181818" points="717,847.3047,707,851.3047,717,855.3047,713,851.3047" style="stroke:#181818;stroke-width:1.0;"/><line style="stroke:#181818;stroke-width:1.0;stroke-dasharray:2.0,2.0;" x1="711" x2="1191" y1="851.3047" y2="851.3047"/><text fill="#000000" font-family="sans-serif" font-size="13" font-weight="bold" lengthAdjust="spacing" textLength="14" x="723" y="846.4482">24</text><text fill="#000000" font-family="sans-serif" font-size="13" lengthAdjust="spacing" textLength="38" x="741" y="846.4482">skills[]</text><polygon fill="#181818" points="1301.5,902.6563,1311.5,906.6563,1301.5,910.6563,1305.5,906.6563" style="stroke:#181818;stroke-width:1.0;"/><line style="stroke:#181818;stroke-width:1.0;" x1="706" x2="1307.5" y1="906.6563" y2="906.6563"/><text fill="#000000" font-family="sans-serif" font-size="13" font-weight="bold" lengthAdjust="spacing" textLength="14" x="713" y="901.7998">25</text><text fill="#000000" font-family="sans-serif" font-size="13" lengthAdjust="spacing" textLength="292" x="731" y="901.7998">createTeam(skills[], maxTeamSize, minTeamSize)</text><polygon fill="#181818" points="1447.5,933.0078,1457.5,937.0078,1447.5,941.0078,1451.5,937.0078" style="stroke:#181818;stroke-width:1.0;"/><line style="stroke:#181818;stroke-width:1.0;" x1="1323.5" x2="1453.5" y1="937.0078" y2="937.0078"/><text fill="#000000" font-family="sans-serif" font-size="13" font-weight="bold" lengthAdjust="spacing" textLength="14" x="1330.5" y="932.1514">26</text><text fill="#000000" font-family="sans-serif" font-size="13" lengthAdjust="spacing" textLength="94" x="1348.5" y="932.1514">addTeam (team)</text><rect fill="#E3E3E3" height="49.2188" rx="2.5" ry="2.5" style="stroke:#181818;stroke-width:0.5;" width="54" x="1459.5" y="914.6563"/><text fill="#000000" font-family="sans-serif" font-size="14" lengthAdjust="spacing" textLength="31" x="1471" y="936.1895">team</text><text fill="#000000" font-family="sans-serif" font-size="14" lengthAdjust="spacing" textLength="40" x="1466.5" y="953.7988">:Team</text><line style="stroke:#181818;stroke-width:1.0;" x1="1323.5" x2="1370.5" y1="992.2266" y2="992.2266"/><line style="stroke:#181818;stroke-width:1.0;" x1="1370.5" x2="1370.5" y1="992.2266" y2="1005.2266"/><line style="stroke:#181818;stroke-width:1.0;" x1="1329.5" x2="1370.5" y1="1005.2266" y2="1005.2266"/><polygon fill="#181818" points="1339.5,1001.2266,1329.5,1005.2266,1339.5,1009.2266,1335.5,1005.2266" style="stroke:#181818;stroke-width:1.0;"/><text fill="#000000" font-family="sans-serif" font-size="13" font-weight="bold" lengthAdjust="spacing" textLength="14" x="1335.5" y="987.3701">27</text><text fill="#000000" font-family="sans-serif" font-size="13" lengthAdjust="spacing" textLength="90" x="1353.5" y="987.3701">addTeam(team)</text><line style="stroke:#181818;stroke-width:1.0;" x1="1328.5" x2="1375.5" y1="1035.5781" y2="1035.5781"/><line style="stroke:#181818;stroke-width:1.0;" x1="1375.5" x2="1375.5" y1="1035.5781" y2="1048.5781"/><line style="stroke:#181818;stroke-width:1.0;" x1="1334.5" x2="1375.5" y1="1048.5781" y2="1048.5781"/><polygon fill="#181818" points="1344.5,1044.5781,1334.5,1048.5781,1344.5,1052.5781,1340.5,1048.5781" style="stroke:#181818;stroke-width:1.0;"/><text fill="#000000" font-family="sans-serif" font-size="13" font-weight="bold" lengthAdjust="spacing" textLength="14" x="1340.5" y="1030.7217">28</text><text fill="#000000" font-family="sans-serif" font-size="13" lengthAdjust="spacing" textLength="112" x="1358.5" y="1030.7217">validateTeam(team)</text><line style="stroke:#181818;stroke-width:1.0;stroke-dasharray:2.0,2.0;" x1="1333.5" x2="1375.5" y1="1088.9297" y2="1088.9297"/><line style="stroke:#181818;stroke-width:1.0;stroke-dasharray:2.0,2.0;" x1="1375.5" x2="1375.5" y1="1088.9297" y2="1101.9297"/><line style="stroke:#181818;stroke-width:1.0;stroke-dasharray:2.0,2.0;" x1="1328.5" x2="1375.5" y1="1101.9297" y2="1101.9297"/><polygon fill="#181818" points="1338.5,1097.9297,1328.5,1101.9297,1338.5,1105.9297,1334.5,1101.9297" style="stroke:#181818;stroke-width:1.0;"/><text fill="#000000" font-family="sans-serif" font-size="13" font-weight="bold" lengthAdjust="spacing" textLength="14" x="1340.5" y="1084.0732">29</text><text fill="#000000" font-family="sans-serif" font-size="13" lengthAdjust="spacing" textLength="4" x="1358.5" y="1084.0732"> </text><line style="stroke:#181818;stroke-width:1.0;stroke-dasharray:2.0,2.0;" x1="1328.5" x2="1370.5" y1="1132.2813" y2="1132.2813"/><line style="stroke:#181818;stroke-width:1.0;stroke-dasharray:2.0,2.0;" x1="1370.5" x2="1370.5" y1="1132.2813" y2="1145.2813"/><line style="stroke:#181818;stroke-width:1.0;stroke-dasharray:2.0,2.0;" x1="1323.5" x2="1370.5" y1="1145.2813" y2="1145.2813"/><polygon fill="#181818" points="1333.5,1141.2813,1323.5,1145.2813,1333.5,1149.2813,1329.5,1145.2813" style="stroke:#181818;stroke-width:1.0;"/><text fill="#000000" font-family="sans-serif" font-size="13" font-weight="bold" lengthAdjust="spacing" textLength="14" x="1335.5" y="1127.4248">30</text><text fill="#000000" font-family="sans-serif" font-size="13" lengthAdjust="spacing" textLength="4" x="1353.5" y="1127.4248"> </text><polygon fill="#181818" points="717,1166.6328,707,1170.6328,717,1174.6328,713,1170.6328" style="stroke:#181818;stroke-width:1.0;"/><line style="stroke:#181818;stroke-width:1.0;stroke-dasharray:2.0,2.0;" x1="711" x2="1317.5" y1="1170.6328" y2="1170.6328"/><text fill="#000000" font-family="sans-serif" font-size="13" font-weight="bold" lengthAdjust="spacing" textLength="14" x="723" y="1165.7764">31</text><text fill="#000000" font-family="sans-serif" font-size="13" lengthAdjust="spacing" textLength="29" x="741" y="1165.7764">team</text><polygon fill="#181818" points="368,1196.9844,358,1200.9844,368,1204.9844,364,1200.9844" style="stroke:#181818;stroke-width:1.0;"/><line style="stroke:#181818;stroke-width:1.0;stroke-dasharray:2.0,2.0;" x1="362" x2="700" y1="1200.9844" y2="1200.9844"/><text fill="#000000" font-family="sans-serif" font-size="13" font-weight="bold" lengthAdjust="spacing" textLength="14" x="374" y="1196.1279">32</text><text fill="#000000" font-family="sans-serif" font-size="13" lengthAdjust="spacing" textLength="49" x="392" y="1196.1279">success</text><polygon fill="#181818" points="34,1227.3359,24,1231.3359,34,1235.3359,30,1231.3359" style="stroke:#181818;stroke-width:1.0;"/><line style="stroke:#181818;stroke-width:1.0;stroke-dasharray:2.0,2.0;" x1="28" x2="356" y1="1231.3359" y2="1231.3359"/><text fill="#000000" font-family="sans-serif" font-size="13" font-weight="bold" lengthAdjust="spacing" textLength="14" x="40" y="1226.4795">33</text><text fill="#000000" font-family="sans-serif" font-size="13" lengthAdjust="spacing" textLength="158" x="58" y="1226.4795">displays operation success</text><!--SRC=[fLPDRwCm4BtpAqOzxARHzW_ai5AtFMobLbebxQdjmOL9OWLirZPfi-gFtx491Wo49EK4visR3yyyMs-uo9bY6MHIo7YjP8PWL86Hzdzo5c_O2XTcbo8eZ0qJgxG9q6kMo7SkLh1agSOeOeMHeiZUK4NHzpLF49PIcZVv4R7OI0KNl-SF5y0qNDy-HCHXUCnp9WnSp6uKCeEFoBAdEmTvkXj4t4XXb4nJL0vvypY_3x1ppANcv9AZTXY_i5jmcmN5sJPH3OiNqINuSt_zsBPOR7YQrhop5n6iEBjWhKrXasanj1SSGNkfRM_e7mLh8HuRsLhpBPNALJa2UkW5hdvIIM56i8q68o5svGG60j_14ZcajwNokuNcG_R4OiizdH9JoT25UGwtCPtVzh5_AYvYMg5nTTAJoyFudcqipU-4flQCaGZwx7r8VNtGQs6VFczN-wXdqEoONee4JtTR9MhRhL6OsduiGTUdWnavsZe57JJdI1R3t5NOGR31rXuCF1oKmHn27rTr7xbyz3tNPYoLexoLMLM3qo3ldGp2sJaZu5g-wpqSKi834ucVEuqfIIb8qPWSDv_UZmDK13MevKFXtm8reJBsmRCYSnCCcl_3xiIRNOwwii044cOOJFQ6tp8kQkFB0NTbIixGvx8aGT-YuaiUCyEhXcuwriLRnarfroRsEnPxKP-K-Jw__h0vsPK51KGVN5GVTGSrTZ8KgW5f-RMxHHqhdjjGIr-DXUVN7k7vYkYSFlbV49jJXUOSaJb214fnyPLVZ8ZBgB0S8IhZk_erlHdLckVNw1ILQNlv_FmSJ3gu6fmxA9sqW-j41zZ-NqKodTB58KdiAqoiMWoSq_tMpJpsB7kIWoT24EhGUJ3kSyjIdbJL6tPyZlE-03eH7BHkjClOtfpdx4W7FSIbzFYxuOc4mUbPn35gFKJahehz9-eC4gxpbEqqo1oLEsjQTC5XqFYq5-3_]--></g></svg>