<?xml version="1.0" encoding="UTF-8" standalone="no"?><svg xmlns="http://www.w3.org/2000/svg" xmlns:xlink="http://www.w3.org/1999/xlink" contentStyleType="text/css" height="463px" preserveAspectRatio="none" style="width:801px;height:463px;background:#FFFFFF;" version="1.1" viewBox="0 0 801 463" width="801px" zoomAndPan="magnify"><defs/><g><rect fill="#FFFFFF" height="339.4219" style="stroke:#181818;stroke-width:1.0;" width="10" x="238" y="69.9609"/><rect fill="#FFFFFF" height="246.3672" style="stroke:#181818;stroke-width:1.0;" width="10" x="482" y="125.6641"/><rect fill="#FFFFFF" height="128.0547" style="stroke:#181818;stroke-width:1.0;" width="10" x="487" y="206.625"/><rect fill="#FFFFFF" height="41.3516" style="stroke:#181818;stroke-width:1.0;" width="10" x="492" y="249.9766"/><rect fill="none" height="295.0703" style="stroke:#000000;stroke-width:1.5;" width="641.5" x="153.5" y="84.9609"/><line style="stroke:#181818;stroke-width:0.5;stroke-dasharray:5.0,5.0;" x1="242.5" x2="242.5" y1="37.6094" y2="427.3828"/><line style="stroke:#181818;stroke-width:0.5;stroke-dasharray:5.0,5.0;" x1="487" x2="487" y1="37.6094" y2="427.3828"/><line style="stroke:#181818;stroke-width:0.5;stroke-dasharray:5.0,5.0;" x1="760" x2="760" y1="164.9688" y2="427.3828"/><rect fill="#E3E3E3" height="31.6094" rx="2.5" ry="2.5" style="stroke:#181818;stroke-width:0.5;" width="159" x="163.5" y="5"/><text fill="#000000" font-family="sans-serif" font-size="14" lengthAdjust="spacing" textLength="145" x="170.5" y="26.5332">:CreateTeamController</text><rect fill="#E3E3E3" height="31.6094" rx="2.5" ry="2.5" style="stroke:#181818;stroke-width:0.5;" width="159" x="163.5" y="426.3828"/><text fill="#000000" font-family="sans-serif" font-size="14" lengthAdjust="spacing" textLength="145" x="170.5" y="447.916">:CreateTeamController</text><rect fill="#E3E3E3" height="31.6094" rx="2.5" ry="2.5" style="stroke:#181818;stroke-width:0.5;" width="118" x="428" y="5"/><text fill="#000000" font-family="sans-serif" font-size="14" lengthAdjust="spacing" textLength="104" x="435" y="26.5332">TeamRepository</text><rect fill="#E3E3E3" height="31.6094" rx="2.5" ry="2.5" style="stroke:#181818;stroke-width:0.5;" width="118" x="428" y="426.3828"/><text fill="#000000" font-family="sans-serif" font-size="14" lengthAdjust="spacing" textLength="104" x="435" y="447.916">TeamRepository</text><rect fill="#E3E3E3" height="31.6094" rx="2.5" ry="2.5" style="stroke:#181818;stroke-width:0.5;" width="50" x="735" y="426.3828"/><text fill="#000000" font-family="sans-serif" font-size="14" lengthAdjust="spacing" textLength="36" x="742" y="447.916">Team</text><rect fill="#FFFFFF" height="339.4219" style="stroke:#181818;stroke-width:1.0;" width="10" x="238" y="69.9609"/><rect fill="#FFFFFF" height="246.3672" style="stroke:#181818;stroke-width:1.0;" width="10" x="482" y="125.6641"/><rect fill="#FFFFFF" height="128.0547" style="stroke:#181818;stroke-width:1.0;" width="10" x="487" y="206.625"/><rect fill="#FFFFFF" height="41.3516" style="stroke:#181818;stroke-width:1.0;" width="10" x="492" y="249.9766"/><polygon fill="#181818" points="226,65.9609,236,69.9609,226,73.9609,230,69.9609" style="stroke:#181818;stroke-width:1.0;"/><line style="stroke:#181818;stroke-width:1.0;" x1="0" x2="232" y1="69.9609" y2="69.9609"/><text fill="#000000" font-family="sans-serif" font-size="13" font-weight="bold" lengthAdjust="spacing" textLength="14" x="7" y="65.1045">16</text><text fill="#000000" font-family="sans-serif" font-size="13" lengthAdjust="spacing" textLength="201" x="25" y="65.1045">createTeam(skills, maxTeamSize )</text><path d="M153.5,84.9609 L280.5,84.9609 L280.5,93.3125 L270.5,103.3125 L153.5,103.3125 L153.5,84.9609 " fill="#EEEEEE" style="stroke:#000000;stroke-width:1.5;"/><rect fill="none" height="295.0703" style="stroke:#000000;stroke-width:1.5;" width="641.5" x="153.5" y="84.9609"/><text fill="#000000" font-family="sans-serif" font-size="13" font-weight="bold" lengthAdjust="spacing" textLength="82" x="168.5" y="99.4561">Create Team</text><polygon fill="#181818" points="470,121.6641,480,125.6641,470,129.6641,474,125.6641" style="stroke:#181818;stroke-width:1.0;"/><line style="stroke:#181818;stroke-width:1.0;" x1="248" x2="476" y1="125.6641" y2="125.6641"/><text fill="#000000" font-family="sans-serif" font-size="13" font-weight="bold" lengthAdjust="spacing" textLength="14" x="255" y="120.8076">17</text><text fill="#000000" font-family="sans-serif" font-size="13" lengthAdjust="spacing" textLength="197" x="273" y="120.8076">createTeam(skills, maxTeamSize)</text><polygon fill="#181818" points="723,152.0156,733,156.0156,723,160.0156,727,156.0156" style="stroke:#181818;stroke-width:1.0;"/><line style="stroke:#181818;stroke-width:1.0;" x1="492" x2="729" y1="156.0156" y2="156.0156"/><text fill="#000000" font-family="sans-serif" font-size="13" font-weight="bold" lengthAdjust="spacing" textLength="14" x="499" y="151.1592">18</text><text fill="#000000" font-family="sans-serif" font-size="13" lengthAdjust="spacing" textLength="201" x="517" y="151.1592">createTeam (skills, maxTeamSize)</text><rect fill="#E3E3E3" height="31.6094" rx="2.5" ry="2.5" style="stroke:#181818;stroke-width:0.5;" width="50" x="735" y="133.6641"/><text fill="#000000" font-family="sans-serif" font-size="14" lengthAdjust="spacing" textLength="36" x="742" y="155.1973">Team</text><line style="stroke:#181818;stroke-width:1.0;" x1="492" x2="539" y1="193.625" y2="193.625"/><line style="stroke:#181818;stroke-width:1.0;" x1="539" x2="539" y1="193.625" y2="206.625"/><line style="stroke:#181818;stroke-width:1.0;" x1="498" x2="539" y1="206.625" y2="206.625"/><polygon fill="#181818" points="508,202.625,498,206.625,508,210.625,504,206.625" style="stroke:#181818;stroke-width:1.0;"/><text fill="#000000" font-family="sans-serif" font-size="13" font-weight="bold" lengthAdjust="spacing" textLength="14" x="504" y="188.7686">19</text><text fill="#000000" font-family="sans-serif" font-size="13" lengthAdjust="spacing" textLength="90" x="522" y="188.7686">addTeam(team)</text><line style="stroke:#181818;stroke-width:1.0;" x1="497" x2="544" y1="236.9766" y2="236.9766"/><line style="stroke:#181818;stroke-width:1.0;" x1="544" x2="544" y1="236.9766" y2="249.9766"/><line style="stroke:#181818;stroke-width:1.0;" x1="503" x2="544" y1="249.9766" y2="249.9766"/><polygon fill="#181818" points="513,245.9766,503,249.9766,513,253.9766,509,249.9766" style="stroke:#181818;stroke-width:1.0;"/><text fill="#000000" font-family="sans-serif" font-size="13" font-weight="bold" lengthAdjust="spacing" textLength="14" x="509" y="232.1201">20</text><text fill="#000000" font-family="sans-serif" font-size="13" lengthAdjust="spacing" textLength="83" x="527" y="232.1201">validateTeam()</text><line style="stroke:#181818;stroke-width:1.0;stroke-dasharray:2.0,2.0;" x1="502" x2="544" y1="290.3281" y2="290.3281"/><line style="stroke:#181818;stroke-width:1.0;stroke-dasharray:2.0,2.0;" x1="544" x2="544" y1="290.3281" y2="303.3281"/><line style="stroke:#181818;stroke-width:1.0;stroke-dasharray:2.0,2.0;" x1="497" x2="544" y1="303.3281" y2="303.3281"/><polygon fill="#181818" points="507,299.3281,497,303.3281,507,307.3281,503,303.3281" style="stroke:#181818;stroke-width:1.0;"/><text fill="#000000" font-family="sans-serif" font-size="13" font-weight="bold" lengthAdjust="spacing" textLength="14" x="509" y="285.4717">21</text><text fill="#000000" font-family="sans-serif" font-size="13" lengthAdjust="spacing" textLength="4" x="527" y="285.4717"> </text><line style="stroke:#181818;stroke-width:1.0;stroke-dasharray:2.0,2.0;" x1="497" x2="539" y1="333.6797" y2="333.6797"/><line style="stroke:#181818;stroke-width:1.0;stroke-dasharray:2.0,2.0;" x1="539" x2="539" y1="333.6797" y2="346.6797"/><line style="stroke:#181818;stroke-width:1.0;stroke-dasharray:2.0,2.0;" x1="492" x2="539" y1="346.6797" y2="346.6797"/><polygon fill="#181818" points="502,342.6797,492,346.6797,502,350.6797,498,346.6797" style="stroke:#181818;stroke-width:1.0;"/><text fill="#000000" font-family="sans-serif" font-size="13" font-weight="bold" lengthAdjust="spacing" textLength="14" x="504" y="328.8232">22</text><text fill="#000000" font-family="sans-serif" font-size="13" lengthAdjust="spacing" textLength="4" x="522" y="328.8232"> </text><polygon fill="#181818" points="259,368.0313,249,372.0313,259,376.0313,255,372.0313" style="stroke:#181818;stroke-width:1.0;"/><line style="stroke:#181818;stroke-width:1.0;stroke-dasharray:2.0,2.0;" x1="253" x2="486" y1="372.0313" y2="372.0313"/><text fill="#000000" font-family="sans-serif" font-size="13" font-weight="bold" lengthAdjust="spacing" textLength="14" x="265" y="367.1748">23</text><text fill="#000000" font-family="sans-serif" font-size="13" lengthAdjust="spacing" textLength="29" x="283" y="367.1748">team</text><polygon fill="#181818" points="11,405.3828,1,409.3828,11,413.3828,7,409.3828" style="stroke:#181818;stroke-width:1.0;"/><line style="stroke:#181818;stroke-width:1.0;stroke-dasharray:2.0,2.0;" x1="5" x2="242" y1="409.3828" y2="409.3828"/><text fill="#000000" font-family="sans-serif" font-size="13" font-weight="bold" lengthAdjust="spacing" textLength="14" x="17" y="404.5264">17</text><text fill="#000000" font-family="sans-serif" font-size="13" lengthAdjust="spacing" textLength="49" x="35" y="404.5264">success</text><!--SRC=[fLFBJiCm4BpxArOzaOeSk80K8IwzSchx0ukzf5RzY6odKBuUErQZ5192O0-MCfwTcOsr_YXDWmurQ6iiFpYh2O9hYVd-fa5-n9fsuQm87F60fbP3WZ-Wi6_IrF2AoXDZ4GwIomPDW5MrSOI1zeHwOqrmLYboAq0Fc_tscJ5iWpMjVY47T_UiVEhW2dZVTHETbFAteF4zVU_a1q4H6tcGfyZ9EX2hThPj8Fj1eh8EJfKu4CKJkgN6UXciEy_P57t_r-hDhmNPPCCrxn9blHv6WF4CavhJkiCHKOXklX2FuaUjgQ5WfkOpd519SVdHnQpWNuECXVcMvbSgWXQ_yF_C5ngE6EMzIQ_CbXcaMp8Y6mtNyQ537iiohqy5lkMSl6S3hRp4dm00]--></g></svg>