<?xml version="1.0" encoding="UTF-8" standalone="no"?><svg xmlns="http://www.w3.org/2000/svg" xmlns:xlink="http://www.w3.org/1999/xlink" contentStyleType="text/css" height="395px" preserveAspectRatio="none" style="width:1020px;height:395px;background:#FFFFFF;" version="1.1" viewBox="0 0 1020 395" width="1020px" zoomAndPan="magnify"><defs/><g><rect fill="#FFFFFF" height="235.3672" style="stroke:#181818;stroke-width:1.0;" width="10" x="472" y="87.5703"/><rect fill="#FFFFFF" height="191.0156" style="stroke:#181818;stroke-width:1.0;" width="10" x="472" y="87.5703"/><rect fill="#FFFFFF" height="41.3516" style="stroke:#181818;stroke-width:1.0;" width="10" x="477" y="193.8828"/><rect fill="none" height="191.0156" style="stroke:#000000;stroke-width:1.5;" width="613" x="401" y="102.5703"/><line style="stroke:#181818;stroke-width:0.5;stroke-dasharray:5.0,5.0;" x1="472" x2="472" y1="55.2188" y2="340.9375"/><line style="stroke:#181818;stroke-width:0.5;stroke-dasharray:5.0,5.0;" x1="979" x2="979" y1="152.2266" y2="340.9375"/><rect fill="#E3E3E3" height="49.2188" rx="2.5" ry="2.5" style="stroke:#181818;stroke-width:0.5;" width="122" x="411" y="5"/><text fill="#000000" font-family="sans-serif" font-size="14" lengthAdjust="spacing" textLength="108" x="418" y="26.5332">TeamRepository:</text><text fill="#000000" font-family="sans-serif" font-size="14" lengthAdjust="spacing" textLength="104" x="420" y="44.1426">TeamRepository</text><rect fill="#E3E3E3" height="49.2188" rx="2.5" ry="2.5" style="stroke:#181818;stroke-width:0.5;" width="122" x="411" y="339.9375"/><text fill="#000000" font-family="sans-serif" font-size="14" lengthAdjust="spacing" textLength="108" x="418" y="361.4707">TeamRepository:</text><text fill="#000000" font-family="sans-serif" font-size="14" lengthAdjust="spacing" textLength="104" x="420" y="379.0801">TeamRepository</text><rect fill="#E3E3E3" height="31.6094" rx="2.5" ry="2.5" style="stroke:#181818;stroke-width:0.5;" width="50" x="954" y="339.9375"/><text fill="#000000" font-family="sans-serif" font-size="14" lengthAdjust="spacing" textLength="36" x="961" y="361.4707">Team</text><rect fill="#FFFFFF" height="235.3672" style="stroke:#181818;stroke-width:1.0;" width="10" x="472" y="87.5703"/><rect fill="#FFFFFF" height="191.0156" style="stroke:#181818;stroke-width:1.0;" width="10" x="472" y="87.5703"/><rect fill="#FFFFFF" height="41.3516" style="stroke:#181818;stroke-width:1.0;" width="10" x="477" y="193.8828"/><polygon fill="#181818" points="455,83.5703,465,87.5703,455,91.5703,459,87.5703" style="stroke:#181818;stroke-width:1.0;"/><line style="stroke:#181818;stroke-width:1.0;" x1="0" x2="461" y1="87.5703" y2="87.5703"/><text fill="#000000" font-family="sans-serif" font-size="13" font-weight="bold" lengthAdjust="spacing" textLength="14" x="7" y="82.7139">32</text><text fill="#000000" font-family="sans-serif" font-size="13" lengthAdjust="spacing" textLength="430" x="25" y="82.7139">createTeam(List&lt;Collaborator&gt;, List&lt;Skill&gt;, minTeamSize, maxTeamSize)</text><path d="M401,102.5703 L528,102.5703 L528,110.9219 L518,120.9219 L401,120.9219 L401,102.5703 " fill="#EEEEEE" style="stroke:#000000;stroke-width:1.5;"/><rect fill="none" height="191.0156" style="stroke:#000000;stroke-width:1.5;" width="613" x="401" y="102.5703"/><text fill="#000000" font-family="sans-serif" font-size="13" font-weight="bold" lengthAdjust="spacing" textLength="82" x="416" y="117.0654">Create Team</text><polygon fill="#181818" points="942,139.2734,952,143.2734,942,147.2734,946,143.2734" style="stroke:#181818;stroke-width:1.0;"/><line style="stroke:#181818;stroke-width:1.0;" x1="482" x2="948" y1="143.2734" y2="143.2734"/><text fill="#000000" font-family="sans-serif" font-size="13" font-weight="bold" lengthAdjust="spacing" textLength="14" x="489" y="138.417">33</text><text fill="#000000" font-family="sans-serif" font-size="13" lengthAdjust="spacing" textLength="430" x="507" y="138.417">createTeam(List&lt;Collaborator&gt;, List&lt;Skill&gt;, minTeamSize, maxTeamSize)</text><rect fill="#E3E3E3" height="31.6094" rx="2.5" ry="2.5" style="stroke:#181818;stroke-width:0.5;" width="50" x="954" y="120.9219"/><text fill="#000000" font-family="sans-serif" font-size="14" lengthAdjust="spacing" textLength="36" x="961" y="142.4551">Team</text><line style="stroke:#181818;stroke-width:1.0;" x1="482" x2="529" y1="180.8828" y2="180.8828"/><line style="stroke:#181818;stroke-width:1.0;" x1="529" x2="529" y1="180.8828" y2="193.8828"/><line style="stroke:#181818;stroke-width:1.0;" x1="488" x2="529" y1="193.8828" y2="193.8828"/><polygon fill="#181818" points="498,189.8828,488,193.8828,498,197.8828,494,193.8828" style="stroke:#181818;stroke-width:1.0;"/><text fill="#000000" font-family="sans-serif" font-size="13" font-weight="bold" lengthAdjust="spacing" textLength="14" x="494" y="176.0264">34</text><text fill="#000000" font-family="sans-serif" font-size="13" lengthAdjust="spacing" textLength="112" x="512" y="176.0264">validateTeam(team)</text><line style="stroke:#181818;stroke-width:1.0;stroke-dasharray:2.0,2.0;" x1="487" x2="529" y1="234.2344" y2="234.2344"/><line style="stroke:#181818;stroke-width:1.0;stroke-dasharray:2.0,2.0;" x1="529" x2="529" y1="234.2344" y2="247.2344"/><line style="stroke:#181818;stroke-width:1.0;stroke-dasharray:2.0,2.0;" x1="482" x2="529" y1="247.2344" y2="247.2344"/><polygon fill="#181818" points="492,243.2344,482,247.2344,492,251.2344,488,247.2344" style="stroke:#181818;stroke-width:1.0;"/><text fill="#000000" font-family="sans-serif" font-size="13" font-weight="bold" lengthAdjust="spacing" textLength="14" x="494" y="229.3779">35</text><text fill="#000000" font-family="sans-serif" font-size="13" lengthAdjust="spacing" textLength="4" x="512" y="229.3779"> </text><line style="stroke:#181818;stroke-width:1.0;" x1="482" x2="524" y1="277.5859" y2="277.5859"/><line style="stroke:#181818;stroke-width:1.0;" x1="524" x2="524" y1="277.5859" y2="290.5859"/><line style="stroke:#181818;stroke-width:1.0;" x1="477" x2="524" y1="290.5859" y2="290.5859"/><polygon fill="#181818" points="487,286.5859,477,290.5859,487,294.5859,483,290.5859" style="stroke:#181818;stroke-width:1.0;"/><text fill="#000000" font-family="sans-serif" font-size="13" font-weight="bold" lengthAdjust="spacing" textLength="14" x="489" y="272.7295">36</text><text fill="#000000" font-family="sans-serif" font-size="13" lengthAdjust="spacing" textLength="90" x="507" y="272.7295">addTeam(team)</text><polygon fill="#181818" points="11,318.9375,1,322.9375,11,326.9375,7,322.9375" style="stroke:#181818;stroke-width:1.0;"/><line style="stroke:#181818;stroke-width:1.0;stroke-dasharray:2.0,2.0;" x1="5" x2="471" y1="322.9375" y2="322.9375"/><text fill="#000000" font-family="sans-serif" font-size="13" font-weight="bold" lengthAdjust="spacing" textLength="14" x="17" y="318.0811">37</text><text fill="#000000" font-family="sans-serif" font-size="13" lengthAdjust="spacing" textLength="29" x="35" y="318.0811">team</text><!--SRC=[hP0zKyCm38Pt_mfT9zeZ2sovNfUkJ8IHHRL5gei_ShPIAByUDn18Ge7ZG8FFUlNnI4eD-nOZEd311xsFmH58x4YbzqYBki6QAZbQWaXQqDTsd93sQC8Z-neUq2PIAil2cblq0eixGdTBRKWi8HxBUpyL5e09ff9Is4dmdTjHXEihLMnc2INeI2XqKYzkECbw6wp5NOYOmvjBwBMgOMkpuxX7LlnCsS6dmLbcZXO-v4Rp0I1R7KFNmhO7zV5U7UohoadID0PlUwnM_pO_pEmyS7ou0res0rhoi_pzMkT8dr2J2aD_kDTuV3HcDFb7zGy0ykRriowAEQM4KpFrJOSN]--></g></svg>