<?xml version="1.0" encoding="UTF-8" standalone="no"?><svg xmlns="http://www.w3.org/2000/svg" xmlns:xlink="http://www.w3.org/1999/xlink" contentStyleType="text/css" height="581px" preserveAspectRatio="none" style="width:1678px;height:581px;background:#FFFFFF;" version="1.1" viewBox="0 0 1678 581" width="1678px" zoomAndPan="magnify"><defs/><g><rect fill="#FFFFFF" height="281.1641" style="stroke:#181818;stroke-width:1.0;" width="10" x="430" y="87.5703"/><rect fill="#FFFFFF" height="37.3516" style="stroke:#181818;stroke-width:1.0;" width="10" x="430" y="472.0469"/><rect fill="#FFFFFF" height="30.3516" style="stroke:#181818;stroke-width:1.0;" width="10" x="824" y="143.2734"/><rect fill="#FFFFFF" height="30.3516" style="stroke:#181818;stroke-width:1.0;" width="10" x="929" y="203.9766"/><rect fill="#FFFFFF" height="30.3516" style="stroke:#181818;stroke-width:1.0;" width="10" x="929" y="264.6797"/><rect fill="#FFFFFF" height="103.3125" style="stroke:#181818;stroke-width:1.0;" width="10" x="1167.5" y="368.7344"/><rect fill="#FFFFFF" height="32.6094" style="stroke:#181818;stroke-width:1.0;" width="10" x="1632.5" y="409.0859"/><rect fill="none" height="377.4766" style="stroke:#000000;stroke-width:1.5;" width="1325" x="347.5" y="102.5703"/><line style="stroke:#181818;stroke-width:0.5;stroke-dasharray:5.0,5.0;" x1="434.5" x2="434.5" y1="55.2188" y2="527.3984"/><line style="stroke:#181818;stroke-width:0.5;stroke-dasharray:5.0,5.0;" x1="828.5" x2="828.5" y1="55.2188" y2="527.3984"/><line style="stroke:#181818;stroke-width:0.5;stroke-dasharray:5.0,5.0;" x1="933.5" x2="933.5" y1="55.2188" y2="527.3984"/><line style="stroke:#181818;stroke-width:0.5;stroke-dasharray:5.0,5.0;" x1="1047.5" x2="1047.5" y1="55.2188" y2="527.3984"/><line style="stroke:#181818;stroke-width:0.5;stroke-dasharray:5.0,5.0;" x1="1172.5" x2="1172.5" y1="55.2188" y2="527.3984"/><line style="stroke:#181818;stroke-width:0.5;stroke-dasharray:5.0,5.0;" x1="1637.5" x2="1637.5" y1="408.0391" y2="527.3984"/><rect fill="#E3E3E3" height="31.6094" rx="2.5" ry="2.5" style="stroke:#181818;stroke-width:0.5;" width="155" x="357.5" y="22.6094"/><text fill="#000000" font-family="sans-serif" font-size="14" lengthAdjust="spacing" textLength="141" x="364.5" y="44.1426">CreateTeamController</text><rect fill="#E3E3E3" height="31.6094" rx="2.5" ry="2.5" style="stroke:#181818;stroke-width:0.5;" width="155" x="357.5" y="526.3984"/><text fill="#000000" font-family="sans-serif" font-size="14" lengthAdjust="spacing" textLength="141" x="364.5" y="547.9316">CreateTeamController</text><rect fill="#E3E3E3" height="31.6094" rx="2.5" ry="2.5" style="stroke:#181818;stroke-width:0.5;" width="93" x="782.5" y="22.6094"/><text fill="#000000" font-family="sans-serif" font-size="14" lengthAdjust="spacing" textLength="79" x="789.5" y="44.1426">Repositories</text><rect fill="#E3E3E3" height="31.6094" rx="2.5" ry="2.5" style="stroke:#181818;stroke-width:0.5;" width="93" x="782.5" y="526.3984"/><text fill="#000000" font-family="sans-serif" font-size="14" lengthAdjust="spacing" textLength="79" x="789.5" y="547.9316">Repositories</text><rect fill="#E3E3E3" height="49.2188" rx="2.5" ry="2.5" style="stroke:#181818;stroke-width:0.5;" width="97" x="885.5" y="5"/><text fill="#000000" font-family="sans-serif" font-size="14" lengthAdjust="spacing" textLength="74" x="897" y="26.5332">repositories</text><text fill="#000000" font-family="sans-serif" font-size="14" lengthAdjust="spacing" textLength="83" x="892.5" y="44.1426">:Repositories</text><rect fill="#E3E3E3" height="49.2188" rx="2.5" ry="2.5" style="stroke:#181818;stroke-width:0.5;" width="97" x="885.5" y="526.3984"/><text fill="#000000" font-family="sans-serif" font-size="14" lengthAdjust="spacing" textLength="74" x="897" y="547.9316">repositories</text><text fill="#000000" font-family="sans-serif" font-size="14" lengthAdjust="spacing" textLength="83" x="892.5" y="565.541">:Repositories</text><rect fill="#E3E3E3" height="49.2188" rx="2.5" ry="2.5" style="stroke:#181818;stroke-width:0.5;" width="111" x="992.5" y="5"/><text fill="#000000" font-family="sans-serif" font-size="14" lengthAdjust="spacing" textLength="97" x="999.5" y="26.5332">SkillRepository:</text><text fill="#000000" font-family="sans-serif" font-size="14" lengthAdjust="spacing" textLength="93" x="1001.5" y="44.1426">SkillRepository</text><rect fill="#E3E3E3" height="49.2188" rx="2.5" ry="2.5" style="stroke:#181818;stroke-width:0.5;" width="111" x="992.5" y="526.3984"/><text fill="#000000" font-family="sans-serif" font-size="14" lengthAdjust="spacing" textLength="97" x="999.5" y="547.9316">SkillRepository:</text><text fill="#000000" font-family="sans-serif" font-size="14" lengthAdjust="spacing" textLength="93" x="1001.5" y="565.541">SkillRepository</text><rect fill="#E3E3E3" height="31.6094" rx="2.5" ry="2.5" style="stroke:#181818;stroke-width:0.5;" width="118" x="1113.5" y="22.6094"/><text fill="#000000" font-family="sans-serif" font-size="14" lengthAdjust="spacing" textLength="104" x="1120.5" y="44.1426">TeamRepository</text><rect fill="#E3E3E3" height="31.6094" rx="2.5" ry="2.5" style="stroke:#181818;stroke-width:0.5;" width="118" x="1113.5" y="526.3984"/><text fill="#000000" font-family="sans-serif" font-size="14" lengthAdjust="spacing" textLength="104" x="1120.5" y="547.9316">TeamRepository</text><rect fill="#E3E3E3" height="31.6094" rx="2.5" ry="2.5" style="stroke:#181818;stroke-width:0.5;" width="50" x="1612.5" y="526.3984"/><text fill="#000000" font-family="sans-serif" font-size="14" lengthAdjust="spacing" textLength="36" x="1619.5" y="547.9316">Team</text><rect fill="#FFFFFF" height="281.1641" style="stroke:#181818;stroke-width:1.0;" width="10" x="430" y="87.5703"/><rect fill="#FFFFFF" height="37.3516" style="stroke:#181818;stroke-width:1.0;" width="10" x="430" y="472.0469"/><rect fill="#FFFFFF" height="30.3516" style="stroke:#181818;stroke-width:1.0;" width="10" x="824" y="143.2734"/><rect fill="#FFFFFF" height="30.3516" style="stroke:#181818;stroke-width:1.0;" width="10" x="929" y="203.9766"/><rect fill="#FFFFFF" height="30.3516" style="stroke:#181818;stroke-width:1.0;" width="10" x="929" y="264.6797"/><rect fill="#FFFFFF" height="103.3125" style="stroke:#181818;stroke-width:1.0;" width="10" x="1167.5" y="368.7344"/><rect fill="#FFFFFF" height="32.6094" style="stroke:#181818;stroke-width:1.0;" width="10" x="1632.5" y="409.0859"/><polygon fill="#181818" points="418,83.5703,428,87.5703,418,91.5703,422,87.5703" style="stroke:#181818;stroke-width:1.0;"/><line style="stroke:#181818;stroke-width:1.0;" x1="0" x2="424" y1="87.5703" y2="87.5703"/><text fill="#000000" font-family="sans-serif" font-size="13" font-weight="bold" lengthAdjust="spacing" textLength="14" x="7" y="82.7139">24</text><text fill="#000000" font-family="sans-serif" font-size="13" lengthAdjust="spacing" textLength="393" x="25" y="82.7139">generateProposal(List&lt;Collaborator&gt;, minTeamSize, maxTeamSize)</text><path d="M347.5,102.5703 L511.5,102.5703 L511.5,110.9219 L501.5,120.9219 L347.5,120.9219 L347.5,102.5703 " fill="#EEEEEE" style="stroke:#000000;stroke-width:1.5;"/><rect fill="none" height="377.4766" style="stroke:#000000;stroke-width:1.5;" width="1325" x="347.5" y="102.5703"/><text fill="#000000" font-family="sans-serif" font-size="13" font-weight="bold" lengthAdjust="spacing" textLength="119" x="362.5" y="117.0654">Generate Proposal</text><polygon fill="#181818" points="812,139.2734,822,143.2734,812,147.2734,816,143.2734" style="stroke:#181818;stroke-width:1.0;"/><line style="stroke:#181818;stroke-width:1.0;" x1="440" x2="818" y1="143.2734" y2="143.2734"/><text fill="#000000" font-family="sans-serif" font-size="13" font-weight="bold" lengthAdjust="spacing" textLength="14" x="447" y="138.417">25</text><text fill="#000000" font-family="sans-serif" font-size="13" lengthAdjust="spacing" textLength="75" x="465" y="138.417">getInstance()</text><polygon fill="#181818" points="451,169.625,441,173.625,451,177.625,447,173.625" style="stroke:#181818;stroke-width:1.0;"/><line style="stroke:#181818;stroke-width:1.0;stroke-dasharray:2.0,2.0;" x1="445" x2="828" y1="173.625" y2="173.625"/><text fill="#000000" font-family="sans-serif" font-size="13" font-weight="bold" lengthAdjust="spacing" textLength="14" x="457" y="168.7686">26</text><text fill="#000000" font-family="sans-serif" font-size="13" lengthAdjust="spacing" textLength="67" x="475" y="168.7686">repositories</text><polygon fill="#181818" points="917,199.9766,927,203.9766,917,207.9766,921,203.9766" style="stroke:#181818;stroke-width:1.0;"/><line style="stroke:#181818;stroke-width:1.0;" x1="440" x2="923" y1="203.9766" y2="203.9766"/><text fill="#000000" font-family="sans-serif" font-size="13" font-weight="bold" lengthAdjust="spacing" textLength="14" x="447" y="199.1201">27</text><text fill="#000000" font-family="sans-serif" font-size="13" lengthAdjust="spacing" textLength="120" x="465" y="199.1201">getTeamRepository()</text><polygon fill="#181818" points="451,230.3281,441,234.3281,451,238.3281,447,234.3281" style="stroke:#181818;stroke-width:1.0;"/><line style="stroke:#181818;stroke-width:1.0;stroke-dasharray:2.0,2.0;" x1="445" x2="933" y1="234.3281" y2="234.3281"/><text fill="#000000" font-family="sans-serif" font-size="13" font-weight="bold" lengthAdjust="spacing" textLength="14" x="457" y="229.4717">28</text><text fill="#000000" font-family="sans-serif" font-size="13" lengthAdjust="spacing" textLength="91" x="475" y="229.4717">teamRepository</text><polygon fill="#181818" points="917,260.6797,927,264.6797,917,268.6797,921,264.6797" style="stroke:#181818;stroke-width:1.0;"/><line style="stroke:#181818;stroke-width:1.0;" x1="440" x2="923" y1="264.6797" y2="264.6797"/><text fill="#000000" font-family="sans-serif" font-size="13" font-weight="bold" lengthAdjust="spacing" textLength="14" x="447" y="259.8232">29</text><text fill="#000000" font-family="sans-serif" font-size="13" lengthAdjust="spacing" textLength="157" x="465" y="259.8232">getCollaboratorRepository()</text><polygon fill="#181818" points="451,291.0313,441,295.0313,451,299.0313,447,295.0313" style="stroke:#181818;stroke-width:1.0;"/><line style="stroke:#181818;stroke-width:1.0;stroke-dasharray:2.0,2.0;" x1="445" x2="933" y1="295.0313" y2="295.0313"/><text fill="#000000" font-family="sans-serif" font-size="13" font-weight="bold" lengthAdjust="spacing" textLength="14" x="457" y="290.1748">30</text><text fill="#000000" font-family="sans-serif" font-size="13" lengthAdjust="spacing" textLength="129" x="475" y="290.1748">collaboratorRepository</text><line style="stroke:#181818;stroke-width:1.0;" x1="440" x2="482" y1="325.3828" y2="325.3828"/><line style="stroke:#181818;stroke-width:1.0;" x1="482" x2="482" y1="325.3828" y2="338.3828"/><line style="stroke:#181818;stroke-width:1.0;" x1="441" x2="482" y1="338.3828" y2="338.3828"/><polygon fill="#181818" points="451,334.3828,441,338.3828,451,342.3828,447,338.3828" style="stroke:#181818;stroke-width:1.0;"/><text fill="#000000" font-family="sans-serif" font-size="13" font-weight="bold" lengthAdjust="spacing" textLength="14" x="447" y="320.5264">31</text><text fill="#000000" font-family="sans-serif" font-size="13" lengthAdjust="spacing" textLength="352" x="465" y="320.5264">matchSkills(collaboratorSkills, skillsList) : List&lt;Collaborator&gt;</text><polygon fill="#181818" points="1155.5,364.7344,1165.5,368.7344,1155.5,372.7344,1159.5,368.7344" style="stroke:#181818;stroke-width:1.0;"/><line style="stroke:#181818;stroke-width:1.0;" x1="435" x2="1161.5" y1="368.7344" y2="368.7344"/><text fill="#000000" font-family="sans-serif" font-size="13" font-weight="bold" lengthAdjust="spacing" textLength="14" x="442" y="363.8779">32</text><text fill="#000000" font-family="sans-serif" font-size="13" lengthAdjust="spacing" textLength="393" x="460" y="363.8779">generateProposal(List&lt;Collaborator&gt;, minTeamSize, maxTeamSize)</text><polygon fill="#181818" points="1600.5,395.0859,1610.5,399.0859,1600.5,403.0859,1604.5,399.0859" style="stroke:#181818;stroke-width:1.0;"/><line style="stroke:#181818;stroke-width:1.0;" x1="1177.5" x2="1606.5" y1="399.0859" y2="399.0859"/><text fill="#000000" font-family="sans-serif" font-size="13" font-weight="bold" lengthAdjust="spacing" textLength="14" x="1184.5" y="394.2295">33</text><text fill="#000000" font-family="sans-serif" font-size="13" lengthAdjust="spacing" textLength="393" x="1202.5" y="394.2295">generateProposal(List&lt;Collaborator&gt;, minTeamSize, maxTeamSize)</text><rect fill="#E3E3E3" height="31.6094" rx="2.5" ry="2.5" style="stroke:#181818;stroke-width:0.5;" width="50" x="1612.5" y="376.7344"/><text fill="#000000" font-family="sans-serif" font-size="14" lengthAdjust="spacing" textLength="36" x="1619.5" y="398.2676">Team</text><polygon fill="#181818" points="1188.5,437.6953,1178.5,441.6953,1188.5,445.6953,1184.5,441.6953" style="stroke:#181818;stroke-width:1.0;"/><line style="stroke:#181818;stroke-width:1.0;stroke-dasharray:2.0,2.0;" x1="1182.5" x2="1636.5" y1="441.6953" y2="441.6953"/><text fill="#000000" font-family="sans-serif" font-size="13" font-weight="bold" lengthAdjust="spacing" textLength="14" x="1194.5" y="436.8389">34</text><text fill="#000000" font-family="sans-serif" font-size="13" lengthAdjust="spacing" textLength="29" x="1212.5" y="436.8389">team</text><polygon fill="#181818" points="451,468.0469,441,472.0469,451,476.0469,447,472.0469" style="stroke:#181818;stroke-width:1.0;"/><line style="stroke:#181818;stroke-width:1.0;stroke-dasharray:2.0,2.0;" x1="445" x2="1171.5" y1="472.0469" y2="472.0469"/><text fill="#000000" font-family="sans-serif" font-size="13" font-weight="bold" lengthAdjust="spacing" textLength="14" x="457" y="467.1904">35</text><text fill="#000000" font-family="sans-serif" font-size="13" lengthAdjust="spacing" textLength="29" x="475" y="467.1904">team</text><polygon fill="#181818" points="11,505.3984,1,509.3984,11,513.3984,7,509.3984" style="stroke:#181818;stroke-width:1.0;"/><line style="stroke:#181818;stroke-width:1.0;stroke-dasharray:2.0,2.0;" x1="5" x2="434" y1="509.3984" y2="509.3984"/><text fill="#000000" font-family="sans-serif" font-size="13" font-weight="bold" lengthAdjust="spacing" textLength="14" x="17" y="504.542">36</text><text fill="#000000" font-family="sans-serif" font-size="13" lengthAdjust="spacing" textLength="29" x="35" y="504.542">team</text><!--SRC=[hLCzRy8m4DtzAqvCW62fEY64L35KbHWGOMGvmZLO97PaEstfhwzj88dZK5Kg7XBb_DwxTn_H9ovAL5X08OLCZqeM14PLn7HzKs9wmemISyu95AK6HPQt0Vg81_d9HGRlc6jYp8ODJtc9mi1WgGWDRGcBfHH6oJmdDG3KiDnkLY5qGwNKt4Z5INj87JWdt2KrKeGCrMBin2mIMAzUjY4ZEV4yRtHdEz69U5udnXXMDdTLx4d1qpDZC5ru_p23Z0GfM-5QIGl7VBZYsioNjaxSItiXrM821HUk0md_9lk1NxUF4SFKy0zBlxG3xCcKh4fulSh2JPVvozlnoQs9dWvvJ-PDQ3keb8QZW5UdwsjjW7IdJtrwBNq6xUO7r0FzFSsj43UfYtFNcuPspx-VR6JOgpGEJI1rpsCi5Pjgp_D1vj9UoTzDzhgyBcA19ZtwnTN3jlObD07jtsuxHnOTRsc_U3YD_-zxgwHwu-j8cAmnr35njJKUF-xlSo7c7cv0KSrkZzhEQtJRL3C93-_CRnklOjo8RdDyaCJ1l-VJQP0W0ly0]--></g></svg>