<?xml version="1.0" encoding="UTF-8" standalone="no"?><svg xmlns="http://www.w3.org/2000/svg" xmlns:xlink="http://www.w3.org/1999/xlink" contentStyleType="text/css" height="845px" preserveAspectRatio="none" style="width:861px;height:845px;background:#FFFFFF;" version="1.1" viewBox="0 0 861 845" width="861px" zoomAndPan="magnify"><defs/><g><rect fill="#FFFFFF" height="653.0547" style="stroke:#181818;stroke-width:1.0;" width="10" x="18" y="92.6094"/><rect fill="#FFFFFF" height="30.3516" style="stroke:#181818;stroke-width:1.0;" width="10" x="300" y="114.9609"/><rect fill="#FFFFFF" height="30.3516" style="stroke:#181818;stroke-width:1.0;" width="10" x="300" y="249.4609"/><rect fill="#FFFFFF" height="30.3516" style="stroke:#181818;stroke-width:1.0;" width="10" x="300" y="310.1641"/><rect fill="#FFFFFF" height="30.3516" style="stroke:#181818;stroke-width:1.0;" width="10" x="300" y="370.8672"/><rect fill="#FFFFFF" height="30.3516" style="stroke:#181818;stroke-width:1.0;" width="10" x="300" y="431.5703"/><rect fill="#FFFFFF" height="30.3516" style="stroke:#181818;stroke-width:1.0;" width="10" x="300" y="492.2734"/><rect fill="#FFFFFF" height="30.3516" style="stroke:#181818;stroke-width:1.0;" width="10" x="300" y="715.3125"/><rect fill="#FFFFFF" height="94.1484" style="stroke:#181818;stroke-width:1.0;" width="10" x="455.5" y="155.3125"/><rect fill="#FFFFFF" height="55.3516" style="stroke:#181818;stroke-width:1.0;" width="10" x="455.5" y="522.625"/><rect fill="#FFFFFF" height="30.3516" style="stroke:#181818;stroke-width:1.0;" width="10" x="455.5" y="684.9609"/><rect fill="#FFFFFF" height="106.9844" style="stroke:#181818;stroke-width:1.0;" width="10" x="786.5" y="577.9766"/><line style="stroke:#181818;stroke-width:0.5;stroke-dasharray:5.0,5.0;" x1="23" x2="23" y1="82.6094" y2="763.6641"/><line style="stroke:#181818;stroke-width:0.5;stroke-dasharray:5.0,5.0;" x1="304.5" x2="304.5" y1="82.6094" y2="763.6641"/><line style="stroke:#181818;stroke-width:0.5;stroke-dasharray:5.0,5.0;" x1="460" x2="460" y1="154.2656" y2="763.6641"/><line style="stroke:#181818;stroke-width:0.5;stroke-dasharray:5.0,5.0;" x1="791.5" x2="791.5" y1="82.6094" y2="763.6641"/><text fill="#000000" font-family="sans-serif" font-size="14" lengthAdjust="spacing" textLength="30" x="5" y="79.5332">HRM</text><ellipse cx="23" cy="13.5" fill="#E3E3E3" rx="8" ry="8" style="stroke:#181818;stroke-width:0.5;"/><path d="M23,21.5 L23,48.5 M10,29.5 L36,29.5 M23,48.5 L10,63.5 M23,48.5 L36,63.5 " fill="none" style="stroke:#181818;stroke-width:0.5;"/><text fill="#000000" font-family="sans-serif" font-size="14" lengthAdjust="spacing" textLength="30" x="5" y="777.1973">HRM</text><ellipse cx="23" cy="788.7734" fill="#E3E3E3" rx="8" ry="8" style="stroke:#181818;stroke-width:0.5;"/><path d="M23,796.7734 L23,823.7734 M10,804.7734 L36,804.7734 M23,823.7734 L10,838.7734 M23,823.7734 L36,838.7734 " fill="none" style="stroke:#181818;stroke-width:0.5;"/><rect fill="#E3E3E3" height="31.6094" rx="2.5" ry="2.5" style="stroke:#181818;stroke-width:0.5;" width="109" x="250.5" y="50"/><text fill="#000000" font-family="sans-serif" font-size="14" lengthAdjust="spacing" textLength="95" x="257.5" y="71.5332">:CreateTeamUI</text><rect fill="#E3E3E3" height="31.6094" rx="2.5" ry="2.5" style="stroke:#181818;stroke-width:0.5;" width="109" x="250.5" y="762.6641"/><text fill="#000000" font-family="sans-serif" font-size="14" lengthAdjust="spacing" textLength="95" x="257.5" y="784.1973">:CreateTeamUI</text><rect fill="#E3E3E3" height="31.6094" rx="2.5" ry="2.5" style="stroke:#181818;stroke-width:0.5;" width="159" x="381" y="762.6641"/><text fill="#000000" font-family="sans-serif" font-size="14" lengthAdjust="spacing" textLength="145" x="388" y="784.1973">:CreateTeamController</text><rect fill="#E3E3E3" height="49.2188" rx="2.5" ry="2.5" style="stroke:#181818;stroke-width:0.5;" width="122" x="730.5" y="32.3906"/><text fill="#000000" font-family="sans-serif" font-size="14" lengthAdjust="spacing" textLength="108" x="737.5" y="53.9238">TeamRepository:</text><text fill="#000000" font-family="sans-serif" font-size="14" lengthAdjust="spacing" textLength="104" x="739.5" y="71.5332">TeamRepository</text><rect fill="#E3E3E3" height="49.2188" rx="2.5" ry="2.5" style="stroke:#181818;stroke-width:0.5;" width="122" x="730.5" y="762.6641"/><text fill="#000000" font-family="sans-serif" font-size="14" lengthAdjust="spacing" textLength="108" x="737.5" y="784.1973">TeamRepository:</text><text fill="#000000" font-family="sans-serif" font-size="14" lengthAdjust="spacing" textLength="104" x="739.5" y="801.8066">TeamRepository</text><rect fill="#FFFFFF" height="653.0547" style="stroke:#181818;stroke-width:1.0;" width="10" x="18" y="92.6094"/><rect fill="#FFFFFF" height="30.3516" style="stroke:#181818;stroke-width:1.0;" width="10" x="300" y="114.9609"/><rect fill="#FFFFFF" height="30.3516" style="stroke:#181818;stroke-width:1.0;" width="10" x="300" y="249.4609"/><rect fill="#FFFFFF" height="30.3516" style="stroke:#181818;stroke-width:1.0;" width="10" x="300" y="310.1641"/><rect fill="#FFFFFF" height="30.3516" style="stroke:#181818;stroke-width:1.0;" width="10" x="300" y="370.8672"/><rect fill="#FFFFFF" height="30.3516" style="stroke:#181818;stroke-width:1.0;" width="10" x="300" y="431.5703"/><rect fill="#FFFFFF" height="30.3516" style="stroke:#181818;stroke-width:1.0;" width="10" x="300" y="492.2734"/><rect fill="#FFFFFF" height="30.3516" style="stroke:#181818;stroke-width:1.0;" width="10" x="300" y="715.3125"/><rect fill="#FFFFFF" height="94.1484" style="stroke:#181818;stroke-width:1.0;" width="10" x="455.5" y="155.3125"/><rect fill="#FFFFFF" height="55.3516" style="stroke:#181818;stroke-width:1.0;" width="10" x="455.5" y="522.625"/><rect fill="#FFFFFF" height="30.3516" style="stroke:#181818;stroke-width:1.0;" width="10" x="455.5" y="684.9609"/><rect fill="#FFFFFF" height="106.9844" style="stroke:#181818;stroke-width:1.0;" width="10" x="786.5" y="577.9766"/><polygon fill="#181818" points="288,110.9609,298,114.9609,288,118.9609,292,114.9609" style="stroke:#181818;stroke-width:1.0;"/><line style="stroke:#181818;stroke-width:1.0;" x1="28" x2="294" y1="114.9609" y2="114.9609"/><text fill="#000000" font-family="sans-serif" font-size="13" font-weight="bold" lengthAdjust="spacing" textLength="7" x="35" y="110.1045">1</text><text fill="#000000" font-family="sans-serif" font-size="13" lengthAdjust="spacing" textLength="154" x="46" y="110.1045">asks to create a new team</text><polygon fill="#181818" points="369,141.3125,379,145.3125,369,149.3125,373,145.3125" style="stroke:#181818;stroke-width:1.0;"/><line style="stroke:#181818;stroke-width:1.0;" x1="305" x2="375" y1="145.3125" y2="145.3125"/><text fill="#000000" font-family="sans-serif" font-size="13" font-weight="bold" lengthAdjust="spacing" textLength="7" x="312" y="140.4561">2</text><text fill="#000000" font-family="sans-serif" font-size="13" lengthAdjust="spacing" textLength="36" x="323" y="140.4561">create</text><rect fill="#E3E3E3" height="31.6094" rx="2.5" ry="2.5" style="stroke:#181818;stroke-width:0.5;" width="159" x="381" y="122.9609"/><text fill="#000000" font-family="sans-serif" font-size="14" lengthAdjust="spacing" textLength="145" x="388" y="144.4941">:CreateTeamController</text><rect fill="none" height="56.5391" style="stroke:#000000;stroke-width:1.5;" width="165" x="378" y="165.5703"/><path d="M378,165.5703 L440,165.5703 L440,173.5703 L430,183.5703 L378,183.5703 L378,165.5703 " fill="#EEEEEE" style="stroke:#000000;stroke-width:2.0;"/><text fill="#000000" font-family="sans-serif" font-size="13" font-weight="bold" lengthAdjust="spacing" textLength="17" x="391" y="181.0654">ref</text><text fill="#000000" font-family="sans-serif" font-size="12" lengthAdjust="spacing" textLength="75" x="423" y="200.0273">Get Skills List</text><text fill="#000000" font-family="sans-serif" font-size="12" lengthAdjust="spacing" textLength="3" x="459" y="215.1211"> </text><polygon fill="#181818" points="321,245.4609,311,249.4609,321,253.4609,317,249.4609" style="stroke:#181818;stroke-width:1.0;"/><line style="stroke:#181818;stroke-width:1.0;stroke-dasharray:2.0,2.0;" x1="315" x2="459.5" y1="249.4609" y2="249.4609"/><text fill="#000000" font-family="sans-serif" font-size="13" font-weight="bold" lengthAdjust="spacing" textLength="7" x="327" y="244.6045">3</text><text fill="#000000" font-family="sans-serif" font-size="13" lengthAdjust="spacing" textLength="51" x="338" y="244.6045">skillsList</text><polygon fill="#181818" points="39,275.8125,29,279.8125,39,283.8125,35,279.8125" style="stroke:#181818;stroke-width:1.0;"/><line style="stroke:#181818;stroke-width:1.0;stroke-dasharray:2.0,2.0;" x1="33" x2="304" y1="279.8125" y2="279.8125"/><text fill="#000000" font-family="sans-serif" font-size="13" font-weight="bold" lengthAdjust="spacing" textLength="7" x="45" y="274.9561">4</text><text fill="#000000" font-family="sans-serif" font-size="13" lengthAdjust="spacing" textLength="228" x="56" y="274.9561">shows skills list and asks to select one</text><polygon fill="#181818" points="288,306.1641,298,310.1641,288,314.1641,292,310.1641" style="stroke:#181818;stroke-width:1.0;"/><line style="stroke:#181818;stroke-width:1.0;stroke-dasharray:2.0,2.0;" x1="28" x2="294" y1="310.1641" y2="310.1641"/><text fill="#000000" font-family="sans-serif" font-size="13" font-weight="bold" lengthAdjust="spacing" textLength="7" x="35" y="305.3076">5</text><text fill="#000000" font-family="sans-serif" font-size="13" lengthAdjust="spacing" textLength="76" x="46" y="305.3076">selects skills</text><polygon fill="#181818" points="39,336.5156,29,340.5156,39,344.5156,35,340.5156" style="stroke:#181818;stroke-width:1.0;"/><line style="stroke:#181818;stroke-width:1.0;stroke-dasharray:2.0,2.0;" x1="33" x2="304" y1="340.5156" y2="340.5156"/><text fill="#000000" font-family="sans-serif" font-size="13" font-weight="bold" lengthAdjust="spacing" textLength="7" x="45" y="335.6592">6</text><text fill="#000000" font-family="sans-serif" font-size="13" lengthAdjust="spacing" textLength="209" x="56" y="335.6592">requests data (maximum team size)</text><polygon fill="#181818" points="288,366.8672,298,370.8672,288,374.8672,292,370.8672" style="stroke:#181818;stroke-width:1.0;"/><line style="stroke:#181818;stroke-width:1.0;" x1="28" x2="294" y1="370.8672" y2="370.8672"/><text fill="#000000" font-family="sans-serif" font-size="13" font-weight="bold" lengthAdjust="spacing" textLength="7" x="35" y="366.0107">7</text><text fill="#000000" font-family="sans-serif" font-size="13" lengthAdjust="spacing" textLength="122" x="46" y="366.0107">types requested data</text><polygon fill="#181818" points="39,397.2188,29,401.2188,39,405.2188,35,401.2188" style="stroke:#181818;stroke-width:1.0;"/><line style="stroke:#181818;stroke-width:1.0;stroke-dasharray:2.0,2.0;" x1="33" x2="304" y1="401.2188" y2="401.2188"/><text fill="#000000" font-family="sans-serif" font-size="13" font-weight="bold" lengthAdjust="spacing" textLength="7" x="45" y="396.3623">8</text><text fill="#000000" font-family="sans-serif" font-size="13" lengthAdjust="spacing" textLength="237" x="56" y="396.3623">shows data and requests for confirmation</text><polygon fill="#181818" points="288,427.5703,298,431.5703,288,435.5703,292,431.5703" style="stroke:#181818;stroke-width:1.0;"/><line style="stroke:#181818;stroke-width:1.0;" x1="28" x2="294" y1="431.5703" y2="431.5703"/><text fill="#000000" font-family="sans-serif" font-size="13" font-weight="bold" lengthAdjust="spacing" textLength="7" x="35" y="426.7139">9</text><text fill="#000000" font-family="sans-serif" font-size="13" lengthAdjust="spacing" textLength="78" x="46" y="426.7139">confirms data</text><polygon fill="#181818" points="39,457.9219,29,461.9219,39,465.9219,35,461.9219" style="stroke:#181818;stroke-width:1.0;"/><line style="stroke:#181818;stroke-width:1.0;stroke-dasharray:2.0,2.0;" x1="33" x2="304" y1="461.9219" y2="461.9219"/><text fill="#000000" font-family="sans-serif" font-size="13" font-weight="bold" lengthAdjust="spacing" textLength="14" x="45" y="457.0654">10</text><text fill="#000000" font-family="sans-serif" font-size="13" lengthAdjust="spacing" textLength="105" x="63" y="457.0654">show the proposal</text><polygon fill="#181818" points="288,488.2734,298,492.2734,288,496.2734,292,492.2734" style="stroke:#181818;stroke-width:1.0;"/><line style="stroke:#181818;stroke-width:1.0;" x1="28" x2="294" y1="492.2734" y2="492.2734"/><text fill="#000000" font-family="sans-serif" font-size="13" font-weight="bold" lengthAdjust="spacing" textLength="14" x="35" y="487.417">11</text><text fill="#000000" font-family="sans-serif" font-size="13" lengthAdjust="spacing" textLength="71" x="53" y="487.417">use accepts</text><polygon fill="#181818" points="443.5,518.625,453.5,522.625,443.5,526.625,447.5,522.625" style="stroke:#181818;stroke-width:1.0;"/><line style="stroke:#181818;stroke-width:1.0;" x1="305" x2="449.5" y1="522.625" y2="522.625"/><text fill="#000000" font-family="sans-serif" font-size="13" font-weight="bold" lengthAdjust="spacing" textLength="14" x="312" y="517.7686">12</text><text fill="#000000" font-family="sans-serif" font-size="13" lengthAdjust="spacing" textLength="72" x="330" y="517.7686">create Team</text><polygon fill="#181818" points="774.5,573.9766,784.5,577.9766,774.5,581.9766,778.5,577.9766" style="stroke:#181818;stroke-width:1.0;"/><line style="stroke:#181818;stroke-width:1.0;" x1="460.5" x2="780.5" y1="577.9766" y2="577.9766"/><text fill="#000000" font-family="sans-serif" font-size="13" font-weight="bold" lengthAdjust="spacing" textLength="14" x="467.5" y="573.1201">13</text><text fill="#000000" font-family="sans-serif" font-size="13" lengthAdjust="spacing" textLength="284" x="485.5" y="573.1201">createTeam(skills, minTeamSize, maxTeamSize)</text><rect fill="none" height="71.6328" style="stroke:#000000;stroke-width:1.5;" width="128" x="727.5" y="585.9766"/><path d="M727.5,585.9766 L789.5,585.9766 L789.5,593.9766 L779.5,603.9766 L727.5,603.9766 L727.5,585.9766 " fill="#EEEEEE" style="stroke:#000000;stroke-width:2.0;"/><text fill="#000000" font-family="sans-serif" font-size="13" font-weight="bold" lengthAdjust="spacing" textLength="17" x="740.5" y="601.4717">ref</text><text fill="#000000" font-family="sans-serif" font-size="12" lengthAdjust="spacing" textLength="3" x="790" y="620.4336"> </text><text fill="#000000" font-family="sans-serif" font-size="12" lengthAdjust="spacing" textLength="72" x="755.5" y="635.5273">Create Team</text><text fill="#000000" font-family="sans-serif" font-size="12" lengthAdjust="spacing" textLength="3" x="790" y="650.6211"> </text><polygon fill="#181818" points="476.5,680.9609,466.5,684.9609,476.5,688.9609,472.5,684.9609" style="stroke:#181818;stroke-width:1.0;"/><line style="stroke:#181818;stroke-width:1.0;stroke-dasharray:2.0,2.0;" x1="470.5" x2="790.5" y1="684.9609" y2="684.9609"/><text fill="#000000" font-family="sans-serif" font-size="13" font-weight="bold" lengthAdjust="spacing" textLength="14" x="482.5" y="680.1045">14</text><text fill="#000000" font-family="sans-serif" font-size="13" lengthAdjust="spacing" textLength="29" x="500.5" y="680.1045">team</text><polygon fill="#181818" points="321,711.3125,311,715.3125,321,719.3125,317,715.3125" style="stroke:#181818;stroke-width:1.0;"/><line style="stroke:#181818;stroke-width:1.0;stroke-dasharray:2.0,2.0;" x1="315" x2="459.5" y1="715.3125" y2="715.3125"/><text fill="#000000" font-family="sans-serif" font-size="13" font-weight="bold" lengthAdjust="spacing" textLength="14" x="327" y="710.4561">15</text><text fill="#000000" font-family="sans-serif" font-size="13" lengthAdjust="spacing" textLength="49" x="345" y="710.4561">success</text><polygon fill="#181818" points="34,741.6641,24,745.6641,34,749.6641,30,745.6641" style="stroke:#181818;stroke-width:1.0;"/><line style="stroke:#181818;stroke-width:1.0;stroke-dasharray:2.0,2.0;" x1="28" x2="304" y1="745.6641" y2="745.6641"/><text fill="#000000" font-family="sans-serif" font-size="13" font-weight="bold" lengthAdjust="spacing" textLength="14" x="40" y="740.8076">16</text><text fill="#000000" font-family="sans-serif" font-size="13" lengthAdjust="spacing" textLength="158" x="58" y="740.8076">displays operation success</text><!--SRC=[dLN1Rjim3BthAuXSrXRh3_XGOCY0hK1xIThRBgnDnq9aoPFa9XdoyQFasBNTnF6cKooHxprHV8pRIbsXnH9AeqrQM5CIU5kJSDr9XUaMDxJs1qLWAVMeDweVu0hCp4xg3UIe70c1jJUwBj_82l6ba1b1Ren_Ctk1gJSM5ZzNpmj01z- -Fml6y3AL5MeFYsHf2Jsz49QlZp7azV5YnD9eRurIP6FaycNrD8mDGIkgZ9FCUaX-wU56p1fkYQ1GlZD1r2Q05_-0-mSM0WadR1ru0saK0GYQTk0P8aPskImwRlGNvpDA47btnqWDmgUeZFeWuzFkBDxrqt5Obd8mxsIR4BYoVf27zLOgvU19EYyc4qXd0VvyKA23-xPEBc96o8aRdfLujOZC4Pw4IGgpSoSgKCm5o0hR9tAak5V1w6j5xexZGtStYEajl9XKDr1bwNTDZZCpz0Wt9UvbMPUnIS39FtGh9cJqUyqVAd8j76KHJypJq5Gc2i3uQ2T9EPilDJgNjaGlZPuhvPJZ9ZHyy3Vqu0k2oXfs5Yenf_A1Au7QiQtIb2e_e-YDdpetHJEBQIjDMEXuF8hpRVqm6XCjOTYzQJhaAvGopfSrlp5_uBxzkFr_2uo7qqMpNmiSNAbNA_5FNX-onFSE-fEF2NZcXYDfCyVPQ9pKt17EYRb5l3H3-qsQILSfF3Wm5TdeXW7Dg5Dxd-6FuIy0]--></g></svg>