<?xml version="1.0" encoding="UTF-8" standalone="no"?><svg xmlns="http://www.w3.org/2000/svg" xmlns:xlink="http://www.w3.org/1999/xlink" contentStyleType="text/css" height="889px" preserveAspectRatio="none" style="width:1217px;height:889px;background:#FFFFFF;" version="1.1" viewBox="0 0 1217 889" width="1217px" zoomAndPan="magnify"><defs/><g><rect fill="#FFFFFF" height="697.2422" style="stroke:#181818;stroke-width:1.0;" width="10" x="60" y="92.6094"/><rect fill="#FFFFFF" height="164.8516" style="stroke:#181818;stroke-width:1.0;" width="10" x="352" y="114.9609"/><rect fill="#FFFFFF" height="30.3516" style="stroke:#181818;stroke-width:1.0;" width="10" x="352" y="310.1641"/><rect fill="#FFFFFF" height="30.3516" style="stroke:#181818;stroke-width:1.0;" width="10" x="352" y="370.8672"/><rect fill="#FFFFFF" height="358.2813" style="stroke:#181818;stroke-width:1.0;" width="10" x="352" y="431.5703"/><rect fill="#FFFFFF" height="94.1484" style="stroke:#181818;stroke-width:1.0;" width="10" x="596" y="155.3125"/><rect fill="#FFFFFF" height="297.5781" style="stroke:#181818;stroke-width:1.0;" width="10" x="596" y="461.9219"/><rect fill="#FFFFFF" height="106.9844" style="stroke:#181818;stroke-width:1.0;" width="10" x="1081.5" y="622.1641"/><line style="stroke:#181818;stroke-width:0.5;stroke-dasharray:5.0,5.0;" x1="65" x2="65" y1="82.6094" y2="807.8516"/><line style="stroke:#181818;stroke-width:0.5;stroke-dasharray:5.0,5.0;" x1="356.5" x2="356.5" y1="82.6094" y2="807.8516"/><line style="stroke:#181818;stroke-width:0.5;stroke-dasharray:5.0,5.0;" x1="600.5" x2="600.5" y1="154.2656" y2="807.8516"/><line style="stroke:#181818;stroke-width:0.5;stroke-dasharray:5.0,5.0;" x1="738.5" x2="738.5" y1="82.6094" y2="807.8516"/><line style="stroke:#181818;stroke-width:0.5;stroke-dasharray:5.0,5.0;" x1="845.5" x2="845.5" y1="82.6094" y2="807.8516"/><line style="stroke:#181818;stroke-width:0.5;stroke-dasharray:5.0,5.0;" x1="959.5" x2="959.5" y1="82.6094" y2="807.8516"/><line style="stroke:#181818;stroke-width:0.5;stroke-dasharray:5.0,5.0;" x1="1086.5" x2="1086.5" y1="82.6094" y2="807.8516"/><line style="stroke:#181818;stroke-width:0.5;stroke-dasharray:5.0,5.0;" x1="1184.5" x2="1184.5" y1="82.6094" y2="807.8516"/><text fill="#000000" font-family="sans-serif" font-size="14" lengthAdjust="spacing" textLength="114" x="5" y="79.5332">Organization HRM</text><ellipse cx="65" cy="13.5" fill="#E3E3E3" rx="8" ry="8" style="stroke:#181818;stroke-width:0.5;"/><path d="M65,21.5 L65,48.5 M52,29.5 L78,29.5 M65,48.5 L52,63.5 M65,48.5 L78,63.5 " fill="none" style="stroke:#181818;stroke-width:0.5;"/><text fill="#000000" font-family="sans-serif" font-size="14" lengthAdjust="spacing" textLength="114" x="5" y="821.3848">Organization HRM</text><ellipse cx="65" cy="832.9609" fill="#E3E3E3" rx="8" ry="8" style="stroke:#181818;stroke-width:0.5;"/><path d="M65,840.9609 L65,867.9609 M52,848.9609 L78,848.9609 M65,867.9609 L52,882.9609 M65,867.9609 L78,882.9609 " fill="none" style="stroke:#181818;stroke-width:0.5;"/><rect fill="#E3E3E3" height="31.6094" rx="2.5" ry="2.5" style="stroke:#181818;stroke-width:0.5;" width="109" x="302.5" y="50"/><text fill="#000000" font-family="sans-serif" font-size="14" lengthAdjust="spacing" textLength="95" x="309.5" y="71.5332">:CreateTeamUI</text><rect fill="#E3E3E3" height="31.6094" rx="2.5" ry="2.5" style="stroke:#181818;stroke-width:0.5;" width="109" x="302.5" y="806.8516"/><text fill="#000000" font-family="sans-serif" font-size="14" lengthAdjust="spacing" textLength="95" x="309.5" y="828.3848">:CreateTeamUI</text><rect fill="#E3E3E3" height="31.6094" rx="2.5" ry="2.5" style="stroke:#181818;stroke-width:0.5;" width="159" x="521.5" y="806.8516"/><text fill="#000000" font-family="sans-serif" font-size="14" lengthAdjust="spacing" textLength="145" x="528.5" y="828.3848">:CreateTeamController</text><rect fill="#E3E3E3" height="31.6094" rx="2.5" ry="2.5" style="stroke:#181818;stroke-width:0.5;" width="97" x="690.5" y="50"/><text fill="#000000" font-family="sans-serif" font-size="14" lengthAdjust="spacing" textLength="83" x="697.5" y="71.5332">:Repositories</text><rect fill="#E3E3E3" height="31.6094" rx="2.5" ry="2.5" style="stroke:#181818;stroke-width:0.5;" width="97" x="690.5" y="806.8516"/><text fill="#000000" font-family="sans-serif" font-size="14" lengthAdjust="spacing" textLength="83" x="697.5" y="828.3848">:Repositories</text><rect fill="#E3E3E3" height="49.2188" rx="2.5" ry="2.5" style="stroke:#181818;stroke-width:0.5;" width="97" x="797.5" y="32.3906"/><text fill="#000000" font-family="sans-serif" font-size="14" lengthAdjust="spacing" textLength="74" x="809" y="53.9238">repositories</text><text fill="#000000" font-family="sans-serif" font-size="14" lengthAdjust="spacing" textLength="83" x="804.5" y="71.5332">:Repositories</text><rect fill="#E3E3E3" height="49.2188" rx="2.5" ry="2.5" style="stroke:#181818;stroke-width:0.5;" width="97" x="797.5" y="806.8516"/><text fill="#000000" font-family="sans-serif" font-size="14" lengthAdjust="spacing" textLength="74" x="809" y="828.3848">repositories</text><text fill="#000000" font-family="sans-serif" font-size="14" lengthAdjust="spacing" textLength="83" x="804.5" y="845.9941">:Repositories</text><rect fill="#E3E3E3" height="49.2188" rx="2.5" ry="2.5" style="stroke:#181818;stroke-width:0.5;" width="111" x="904.5" y="32.3906"/><text fill="#000000" font-family="sans-serif" font-size="14" lengthAdjust="spacing" textLength="97" x="911.5" y="53.9238">SkillRepository:</text><text fill="#000000" font-family="sans-serif" font-size="14" lengthAdjust="spacing" textLength="93" x="913.5" y="71.5332">SkillRepository</text><rect fill="#E3E3E3" height="49.2188" rx="2.5" ry="2.5" style="stroke:#181818;stroke-width:0.5;" width="111" x="904.5" y="806.8516"/><text fill="#000000" font-family="sans-serif" font-size="14" lengthAdjust="spacing" textLength="97" x="911.5" y="828.3848">SkillRepository:</text><text fill="#000000" font-family="sans-serif" font-size="14" lengthAdjust="spacing" textLength="93" x="913.5" y="845.9941">SkillRepository</text><rect fill="#E3E3E3" height="49.2188" rx="2.5" ry="2.5" style="stroke:#181818;stroke-width:0.5;" width="122" x="1025.5" y="32.3906"/><text fill="#000000" font-family="sans-serif" font-size="14" lengthAdjust="spacing" textLength="108" x="1032.5" y="53.9238">TeamRepository:</text><text fill="#000000" font-family="sans-serif" font-size="14" lengthAdjust="spacing" textLength="104" x="1034.5" y="71.5332">TeamRepository</text><rect fill="#E3E3E3" height="49.2188" rx="2.5" ry="2.5" style="stroke:#181818;stroke-width:0.5;" width="122" x="1025.5" y="806.8516"/><text fill="#000000" font-family="sans-serif" font-size="14" lengthAdjust="spacing" textLength="108" x="1032.5" y="828.3848">TeamRepository:</text><text fill="#000000" font-family="sans-serif" font-size="14" lengthAdjust="spacing" textLength="104" x="1034.5" y="845.9941">TeamRepository</text><rect fill="#E3E3E3" height="49.2188" rx="2.5" ry="2.5" style="stroke:#181818;stroke-width:0.5;" width="54" x="1157.5" y="32.3906"/><text fill="#000000" font-family="sans-serif" font-size="14" lengthAdjust="spacing" textLength="31" x="1169" y="53.9238">team</text><text fill="#000000" font-family="sans-serif" font-size="14" lengthAdjust="spacing" textLength="40" x="1164.5" y="71.5332">:Team</text><rect fill="#E3E3E3" height="49.2188" rx="2.5" ry="2.5" style="stroke:#181818;stroke-width:0.5;" width="54" x="1157.5" y="806.8516"/><text fill="#000000" font-family="sans-serif" font-size="14" lengthAdjust="spacing" textLength="31" x="1169" y="828.3848">team</text><text fill="#000000" font-family="sans-serif" font-size="14" lengthAdjust="spacing" textLength="40" x="1164.5" y="845.9941">:Team</text><rect fill="#FFFFFF" height="697.2422" style="stroke:#181818;stroke-width:1.0;" width="10" x="60" y="92.6094"/><rect fill="#FFFFFF" height="164.8516" style="stroke:#181818;stroke-width:1.0;" width="10" x="352" y="114.9609"/><rect fill="#FFFFFF" height="30.3516" style="stroke:#181818;stroke-width:1.0;" width="10" x="352" y="310.1641"/><rect fill="#FFFFFF" height="30.3516" style="stroke:#181818;stroke-width:1.0;" width="10" x="352" y="370.8672"/><rect fill="#FFFFFF" height="358.2813" style="stroke:#181818;stroke-width:1.0;" width="10" x="352" y="431.5703"/><rect fill="#FFFFFF" height="94.1484" style="stroke:#181818;stroke-width:1.0;" width="10" x="596" y="155.3125"/><rect fill="#FFFFFF" height="297.5781" style="stroke:#181818;stroke-width:1.0;" width="10" x="596" y="461.9219"/><rect fill="#FFFFFF" height="106.9844" style="stroke:#181818;stroke-width:1.0;" width="10" x="1081.5" y="622.1641"/><polygon fill="#181818" points="340,110.9609,350,114.9609,340,118.9609,344,114.9609" style="stroke:#181818;stroke-width:1.0;"/><line style="stroke:#181818;stroke-width:1.0;" x1="70" x2="346" y1="114.9609" y2="114.9609"/><text fill="#000000" font-family="sans-serif" font-size="13" font-weight="bold" lengthAdjust="spacing" textLength="7" x="77" y="110.1045">1</text><text fill="#000000" font-family="sans-serif" font-size="13" lengthAdjust="spacing" textLength="154" x="88" y="110.1045">asks to create a new team</text><polygon fill="#181818" points="509.5,141.3125,519.5,145.3125,509.5,149.3125,513.5,145.3125" style="stroke:#181818;stroke-width:1.0;"/><line style="stroke:#181818;stroke-width:1.0;" x1="362" x2="515.5" y1="145.3125" y2="145.3125"/><text fill="#000000" font-family="sans-serif" font-size="13" font-weight="bold" lengthAdjust="spacing" textLength="7" x="369" y="140.4561">2</text><text fill="#000000" font-family="sans-serif" font-size="13" lengthAdjust="spacing" textLength="36" x="380" y="140.4561">create</text><rect fill="#E3E3E3" height="31.6094" rx="2.5" ry="2.5" style="stroke:#181818;stroke-width:0.5;" width="159" x="521.5" y="122.9609"/><text fill="#000000" font-family="sans-serif" font-size="14" lengthAdjust="spacing" textLength="145" x="528.5" y="144.4941">:CreateTeamController</text><rect fill="none" height="56.5391" style="stroke:#000000;stroke-width:1.5;" width="165" x="518.5" y="165.5703"/><path d="M518.5,165.5703 L580.5,165.5703 L580.5,173.5703 L570.5,183.5703 L518.5,183.5703 L518.5,165.5703 " fill="#EEEEEE" style="stroke:#000000;stroke-width:2.0;"/><text fill="#000000" font-family="sans-serif" font-size="13" font-weight="bold" lengthAdjust="spacing" textLength="17" x="531.5" y="181.0654">ref</text><text fill="#000000" font-family="sans-serif" font-size="12" lengthAdjust="spacing" textLength="75" x="563.5" y="200.0273">Get Skills List</text><text fill="#000000" font-family="sans-serif" font-size="12" lengthAdjust="spacing" textLength="3" x="599.5" y="215.1211"> </text><polygon fill="#181818" points="373,245.4609,363,249.4609,373,253.4609,369,249.4609" style="stroke:#181818;stroke-width:1.0;"/><line style="stroke:#181818;stroke-width:1.0;stroke-dasharray:2.0,2.0;" x1="367" x2="600" y1="249.4609" y2="249.4609"/><text fill="#000000" font-family="sans-serif" font-size="13" font-weight="bold" lengthAdjust="spacing" textLength="7" x="379" y="244.6045">3</text><text fill="#000000" font-family="sans-serif" font-size="13" lengthAdjust="spacing" textLength="51" x="390" y="244.6045">skillsList</text><polygon fill="#181818" points="81,275.8125,71,279.8125,81,283.8125,77,279.8125" style="stroke:#181818;stroke-width:1.0;"/><line style="stroke:#181818;stroke-width:1.0;stroke-dasharray:2.0,2.0;" x1="75" x2="356" y1="279.8125" y2="279.8125"/><text fill="#000000" font-family="sans-serif" font-size="13" font-weight="bold" lengthAdjust="spacing" textLength="7" x="87" y="274.9561">4</text><text fill="#000000" font-family="sans-serif" font-size="13" lengthAdjust="spacing" textLength="228" x="98" y="274.9561">shows skills list and asks to select one</text><polygon fill="#181818" points="340,306.1641,350,310.1641,340,314.1641,344,310.1641" style="stroke:#181818;stroke-width:1.0;"/><line style="stroke:#181818;stroke-width:1.0;stroke-dasharray:2.0,2.0;" x1="70" x2="346" y1="310.1641" y2="310.1641"/><text fill="#000000" font-family="sans-serif" font-size="13" font-weight="bold" lengthAdjust="spacing" textLength="7" x="77" y="305.3076">5</text><text fill="#000000" font-family="sans-serif" font-size="13" lengthAdjust="spacing" textLength="76" x="88" y="305.3076">selects skills</text><polygon fill="#181818" points="81,336.5156,71,340.5156,81,344.5156,77,340.5156" style="stroke:#181818;stroke-width:1.0;"/><line style="stroke:#181818;stroke-width:1.0;stroke-dasharray:2.0,2.0;" x1="75" x2="356" y1="340.5156" y2="340.5156"/><text fill="#000000" font-family="sans-serif" font-size="13" font-weight="bold" lengthAdjust="spacing" textLength="7" x="87" y="335.6592">6</text><text fill="#000000" font-family="sans-serif" font-size="13" lengthAdjust="spacing" textLength="172" x="98" y="335.6592">requests maximum team size</text><polygon fill="#181818" points="340,366.8672,350,370.8672,340,374.8672,344,370.8672" style="stroke:#181818;stroke-width:1.0;"/><line style="stroke:#181818;stroke-width:1.0;" x1="70" x2="346" y1="370.8672" y2="370.8672"/><text fill="#000000" font-family="sans-serif" font-size="13" font-weight="bold" lengthAdjust="spacing" textLength="7" x="77" y="366.0107">7</text><text fill="#000000" font-family="sans-serif" font-size="13" lengthAdjust="spacing" textLength="252" x="88" y="366.0107">types requested data (maximum team size)</text><polygon fill="#181818" points="81,397.2188,71,401.2188,81,405.2188,77,401.2188" style="stroke:#181818;stroke-width:1.0;"/><line style="stroke:#181818;stroke-width:1.0;stroke-dasharray:2.0,2.0;" x1="75" x2="356" y1="401.2188" y2="401.2188"/><text fill="#000000" font-family="sans-serif" font-size="13" font-weight="bold" lengthAdjust="spacing" textLength="7" x="87" y="396.3623">8</text><text fill="#000000" font-family="sans-serif" font-size="13" lengthAdjust="spacing" textLength="205" x="98" y="396.3623">shows data and asks for verification</text><polygon fill="#181818" points="340,427.5703,350,431.5703,340,435.5703,344,431.5703" style="stroke:#181818;stroke-width:1.0;"/><line style="stroke:#181818;stroke-width:1.0;" x1="70" x2="346" y1="431.5703" y2="431.5703"/><text fill="#000000" font-family="sans-serif" font-size="13" font-weight="bold" lengthAdjust="spacing" textLength="7" x="77" y="426.7139">9</text><text fill="#000000" font-family="sans-serif" font-size="13" lengthAdjust="spacing" textLength="75" x="88" y="426.7139">submits data</text><polygon fill="#181818" points="584,457.9219,594,461.9219,584,465.9219,588,461.9219" style="stroke:#181818;stroke-width:1.0;"/><line style="stroke:#181818;stroke-width:1.0;" x1="362" x2="590" y1="461.9219" y2="461.9219"/><text fill="#000000" font-family="sans-serif" font-size="13" font-weight="bold" lengthAdjust="spacing" textLength="14" x="369" y="457.0654">10</text><text fill="#000000" font-family="sans-serif" font-size="13" lengthAdjust="spacing" textLength="197" x="387" y="457.0654">createTeam(skills, maxTeamSize)</text><rect fill="none" height="56.5391" style="stroke:#000000;stroke-width:1.5;" width="165" x="518.5" y="469.9219"/><path d="M518.5,469.9219 L580.5,469.9219 L580.5,477.9219 L570.5,487.9219 L518.5,487.9219 L518.5,469.9219 " fill="#EEEEEE" style="stroke:#000000;stroke-width:2.0;"/><text fill="#000000" font-family="sans-serif" font-size="13" font-weight="bold" lengthAdjust="spacing" textLength="17" x="531.5" y="485.417">ref</text><text fill="#000000" font-family="sans-serif" font-size="12" lengthAdjust="spacing" textLength="126" x="538" y="504.3789">Get Skill by Description</text><text fill="#000000" font-family="sans-serif" font-size="12" lengthAdjust="spacing" textLength="3" x="599.5" y="519.4727"> </text><line style="stroke:#181818;stroke-width:1.0;stroke-dasharray:2.0,2.0;" x1="606" x2="648" y1="553.8125" y2="553.8125"/><line style="stroke:#181818;stroke-width:1.0;stroke-dasharray:2.0,2.0;" x1="648" x2="648" y1="553.8125" y2="566.8125"/><line style="stroke:#181818;stroke-width:1.0;stroke-dasharray:2.0,2.0;" x1="607" x2="648" y1="566.8125" y2="566.8125"/><polygon fill="#181818" points="617,562.8125,607,566.8125,617,570.8125,613,566.8125" style="stroke:#181818;stroke-width:1.0;"/><text fill="#000000" font-family="sans-serif" font-size="13" font-weight="bold" lengthAdjust="spacing" textLength="14" x="613" y="548.9561">11</text><text fill="#000000" font-family="sans-serif" font-size="13" lengthAdjust="spacing" textLength="23" x="631" y="548.9561">skill</text><polygon fill="#181818" points="1069.5,618.1641,1079.5,622.1641,1069.5,626.1641,1073.5,622.1641" style="stroke:#181818;stroke-width:1.0;"/><line style="stroke:#181818;stroke-width:1.0;" x1="606" x2="1075.5" y1="622.1641" y2="622.1641"/><text fill="#000000" font-family="sans-serif" font-size="13" font-weight="bold" lengthAdjust="spacing" textLength="14" x="613" y="617.3076">12</text><text fill="#000000" font-family="sans-serif" font-size="13" lengthAdjust="spacing" textLength="197" x="631" y="617.3076">createTeam(skills, maxTeamSize)</text><rect fill="none" height="71.6328" style="stroke:#000000;stroke-width:1.5;" width="128" x="1022.5" y="630.1641"/><path d="M1022.5,630.1641 L1084.5,630.1641 L1084.5,638.1641 L1074.5,648.1641 L1022.5,648.1641 L1022.5,630.1641 " fill="#EEEEEE" style="stroke:#000000;stroke-width:2.0;"/><text fill="#000000" font-family="sans-serif" font-size="13" font-weight="bold" lengthAdjust="spacing" textLength="17" x="1035.5" y="645.6592">ref</text><text fill="#000000" font-family="sans-serif" font-size="12" lengthAdjust="spacing" textLength="3" x="1085" y="664.6211"> </text><text fill="#000000" font-family="sans-serif" font-size="12" lengthAdjust="spacing" textLength="72" x="1050.5" y="679.7148">Create Team</text><text fill="#000000" font-family="sans-serif" font-size="12" lengthAdjust="spacing" textLength="3" x="1085" y="694.8086"> </text><polygon fill="#181818" points="617,725.1484,607,729.1484,617,733.1484,613,729.1484" style="stroke:#181818;stroke-width:1.0;"/><line style="stroke:#181818;stroke-width:1.0;stroke-dasharray:2.0,2.0;" x1="611" x2="1085.5" y1="729.1484" y2="729.1484"/><text fill="#000000" font-family="sans-serif" font-size="13" font-weight="bold" lengthAdjust="spacing" textLength="14" x="623" y="724.292">13</text><text fill="#000000" font-family="sans-serif" font-size="13" lengthAdjust="spacing" textLength="29" x="641" y="724.292">team</text><polygon fill="#181818" points="373,755.5,363,759.5,373,763.5,369,759.5" style="stroke:#181818;stroke-width:1.0;"/><line style="stroke:#181818;stroke-width:1.0;stroke-dasharray:2.0,2.0;" x1="367" x2="600" y1="759.5" y2="759.5"/><text fill="#000000" font-family="sans-serif" font-size="13" font-weight="bold" lengthAdjust="spacing" textLength="14" x="379" y="754.6436">14</text><text fill="#000000" font-family="sans-serif" font-size="13" lengthAdjust="spacing" textLength="49" x="397" y="754.6436">success</text><polygon fill="#181818" points="76,785.8516,66,789.8516,76,793.8516,72,789.8516" style="stroke:#181818;stroke-width:1.0;"/><line style="stroke:#181818;stroke-width:1.0;stroke-dasharray:2.0,2.0;" x1="70" x2="356" y1="789.8516" y2="789.8516"/><text fill="#000000" font-family="sans-serif" font-size="13" font-weight="bold" lengthAdjust="spacing" textLength="14" x="82" y="784.9951">15</text><text fill="#000000" font-family="sans-serif" font-size="13" lengthAdjust="spacing" textLength="158" x="100" y="784.9951">displays operation success</text><!--SRC=[bPN1Rk8m48RlVeeHb-rMsnVWKAcYqcubgbq1lVLYaW4i4ZlhSKgfUFWTEyMD4mYiJyJ-v_FuztYWhTALjBA4qcYJRQmf4PojKL1SgMIsbMkSkts1O35pKg-Bje0sCZSxfTUmaWMX4B9sHjVb4gqGtpOgHrWPuvRcNSZC6GkZttOjjVgGJXaDlsRF8v043u_FWe5EPQgIsi5eFB4e7IvGbYzFGVBoT5OnCTfPKnHeWtAoc4qxsXbMXXJlhv229axivyeVYPDEGsmhubNt0N-c3uiqOhvLHV757R_gpao8wyob27-OX91E140wbSOxNkDalIHgXJTUlR5LmMK1FFW7tDspfJ1csPR06SY2dI11umuyA2XZBDiV9jg3uvdYxRwzPL93wCiY8rnCRzaFYoimRsWR2LmOFz4rFX9C5Jan680wz_ZJ8hyTt1sjeC0CoAumnmkdy5umnplBe8tPqISE2kQ1v2oEJXCM_9B0Q1HdjcYR7UugPXX2ZsZHSxWTc6HayM-Dn96bV5TbNOOR1b8VJGudzcxNYDjNI4S6vf1B9-6cX_ekhakciIT0eYyhxWrS06gbij0QhacBwcMfN4CQthgfqbYZ_btSD1x-y8xuxtaym8MQlQvMOut2SW-FI9bLLJYN62hImHhzF4B8MwISm-4WJiVTTnh6zHRqhEXq7d7s4LyI9basRQVfLF_rXjDTeaFZh-PrucKDfTPf1dMM8P4OwWAd6y0OSaLL8VS4faBR_DErSPsoRdtw3lqF]--></g></svg>