<?xml version="1.0" encoding="UTF-8" standalone="no"?><svg xmlns="http://www.w3.org/2000/svg" xmlns:xlink="http://www.w3.org/1999/xlink" contentStyleType="text/css" height="482px" preserveAspectRatio="none" style="width:403px;height:482px;background:#FFFFFF;" version="1.1" viewBox="0 0 403 482" width="403px" zoomAndPan="magnify"><defs/><g><text fill="#000000" font-family="sans-serif" font-size="14" font-weight="bold" lengthAdjust="spacing" textLength="284" x="58.5" y="29.5332">System Sequence Diagram (SSD) - US005</text><rect fill="#FFFFFF" height="260.1641" style="stroke:#181818;stroke-width:1.0;" width="10" x="18" y="131.2188"/><rect fill="#FFFFFF" height="30.3516" style="stroke:#181818;stroke-width:1.0;" width="10" x="360" y="153.5703"/><rect fill="#FFFFFF" height="30.3516" style="stroke:#181818;stroke-width:1.0;" width="10" x="360" y="214.2734"/><rect fill="#FFFFFF" height="30.3516" style="stroke:#181818;stroke-width:1.0;" width="10" x="360" y="274.9766"/><rect fill="#FFFFFF" height="46.7031" style="stroke:#181818;stroke-width:1.0;" width="10" x="360" y="335.6797"/><line style="stroke:#181818;stroke-width:0.5;stroke-dasharray:5.0,5.0;" x1="23" x2="23" y1="121.2188" y2="400.3828"/><line style="stroke:#181818;stroke-width:0.5;stroke-dasharray:5.0,5.0;" x1="365" x2="365" y1="121.2188" y2="400.3828"/><text fill="#000000" font-family="sans-serif" font-size="14" lengthAdjust="spacing" textLength="30" x="5" y="118.1426">HRM</text><ellipse cx="23" cy="52.1094" fill="#E3E3E3" rx="8" ry="8" style="stroke:#181818;stroke-width:0.5;"/><path d="M23,60.1094 L23,87.1094 M10,68.1094 L36,68.1094 M23,87.1094 L10,102.1094 M23,87.1094 L36,102.1094 " fill="none" style="stroke:#181818;stroke-width:0.5;"/><text fill="#000000" font-family="sans-serif" font-size="14" lengthAdjust="spacing" textLength="30" x="5" y="413.916">HRM</text><ellipse cx="23" cy="425.4922" fill="#E3E3E3" rx="8" ry="8" style="stroke:#181818;stroke-width:0.5;"/><path d="M23,433.4922 L23,460.4922 M10,441.4922 L36,441.4922 M23,460.4922 L10,475.4922 M23,460.4922 L36,475.4922 " fill="none" style="stroke:#181818;stroke-width:0.5;"/><rect fill="#E3E3E3" height="31.6094" rx="2.5" ry="2.5" style="stroke:#181818;stroke-width:0.5;" width="64" x="333" y="88.6094"/><text fill="#000000" font-family="sans-serif" font-size="14" lengthAdjust="spacing" textLength="50" x="340" y="110.1426">:System</text><rect fill="#E3E3E3" height="31.6094" rx="2.5" ry="2.5" style="stroke:#181818;stroke-width:0.5;" width="64" x="333" y="399.3828"/><text fill="#000000" font-family="sans-serif" font-size="14" lengthAdjust="spacing" textLength="50" x="340" y="420.916">:System</text><rect fill="#FFFFFF" height="260.1641" style="stroke:#181818;stroke-width:1.0;" width="10" x="18" y="131.2188"/><rect fill="#FFFFFF" height="30.3516" style="stroke:#181818;stroke-width:1.0;" width="10" x="360" y="153.5703"/><rect fill="#FFFFFF" height="30.3516" style="stroke:#181818;stroke-width:1.0;" width="10" x="360" y="214.2734"/><rect fill="#FFFFFF" height="30.3516" style="stroke:#181818;stroke-width:1.0;" width="10" x="360" y="274.9766"/><rect fill="#FFFFFF" height="46.7031" style="stroke:#181818;stroke-width:1.0;" width="10" x="360" y="335.6797"/><polygon fill="#181818" points="348,149.5703,358,153.5703,348,157.5703,352,153.5703" style="stroke:#181818;stroke-width:1.0;"/><line style="stroke:#181818;stroke-width:1.0;" x1="28" x2="354" y1="153.5703" y2="153.5703"/><text fill="#000000" font-family="sans-serif" font-size="13" font-weight="bold" lengthAdjust="spacing" textLength="7" x="35" y="148.7139">1</text><text fill="#000000" font-family="sans-serif" font-size="13" lengthAdjust="spacing" textLength="154" x="46" y="148.7139">asks to create a new team</text><polygon fill="#181818" points="39,179.9219,29,183.9219,39,187.9219,35,183.9219" style="stroke:#181818;stroke-width:1.0;"/><line style="stroke:#181818;stroke-width:1.0;stroke-dasharray:2.0,2.0;" x1="33" x2="364" y1="183.9219" y2="183.9219"/><text fill="#000000" font-family="sans-serif" font-size="13" font-weight="bold" lengthAdjust="spacing" textLength="7" x="45" y="179.0654">2</text><text fill="#000000" font-family="sans-serif" font-size="13" lengthAdjust="spacing" textLength="153" x="56" y="179.0654">requests data (skills, jobs)</text><polygon fill="#181818" points="348,210.2734,358,214.2734,348,218.2734,352,214.2734" style="stroke:#181818;stroke-width:1.0;"/><line style="stroke:#181818;stroke-width:1.0;" x1="28" x2="354" y1="214.2734" y2="214.2734"/><text fill="#000000" font-family="sans-serif" font-size="13" font-weight="bold" lengthAdjust="spacing" textLength="7" x="35" y="209.417">3</text><text fill="#000000" font-family="sans-serif" font-size="13" lengthAdjust="spacing" textLength="132" x="46" y="209.417">selects requested data</text><polygon fill="#181818" points="39,240.625,29,244.625,39,248.625,35,244.625" style="stroke:#181818;stroke-width:1.0;"/><line style="stroke:#181818;stroke-width:1.0;stroke-dasharray:2.0,2.0;" x1="33" x2="364" y1="244.625" y2="244.625"/><text fill="#000000" font-family="sans-serif" font-size="13" font-weight="bold" lengthAdjust="spacing" textLength="7" x="45" y="239.7686">4</text><text fill="#000000" font-family="sans-serif" font-size="13" lengthAdjust="spacing" textLength="112" x="56" y="239.7686">shows the proposal</text><polygon fill="#181818" points="348,270.9766,358,274.9766,348,278.9766,352,274.9766" style="stroke:#181818;stroke-width:1.0;"/><line style="stroke:#181818;stroke-width:1.0;" x1="28" x2="354" y1="274.9766" y2="274.9766"/><text fill="#000000" font-family="sans-serif" font-size="13" font-weight="bold" lengthAdjust="spacing" textLength="7" x="35" y="270.1201">5</text><text fill="#000000" font-family="sans-serif" font-size="13" lengthAdjust="spacing" textLength="202" x="46" y="270.1201">user want to modify the employees</text><polygon fill="#181818" points="39,301.3281,29,305.3281,39,309.3281,35,305.3281" style="stroke:#181818;stroke-width:1.0;"/><line style="stroke:#181818;stroke-width:1.0;stroke-dasharray:2.0,2.0;" x1="33" x2="364" y1="305.3281" y2="305.3281"/><text fill="#000000" font-family="sans-serif" font-size="13" font-weight="bold" lengthAdjust="spacing" textLength="7" x="45" y="300.4717">6</text><text fill="#000000" font-family="sans-serif" font-size="13" lengthAdjust="spacing" textLength="183" x="56" y="300.4717">shows the employees to modify</text><polygon fill="#181818" points="348,331.6797,358,335.6797,348,339.6797,352,335.6797" style="stroke:#181818;stroke-width:1.0;"/><line style="stroke:#181818;stroke-width:1.0;" x1="28" x2="354" y1="335.6797" y2="335.6797"/><text fill="#000000" font-family="sans-serif" font-size="13" font-weight="bold" lengthAdjust="spacing" textLength="7" x="35" y="330.8232">7</text><text fill="#000000" font-family="sans-serif" font-size="13" lengthAdjust="spacing" textLength="167" x="46" y="330.8232">user changes the employees</text><polygon fill="#181818" points="39,378.3828,29,382.3828,39,386.3828,35,382.3828" style="stroke:#181818;stroke-width:1.0;"/><line style="stroke:#181818;stroke-width:1.0;stroke-dasharray:2.0,2.0;" x1="33" x2="364" y1="382.3828" y2="382.3828"/><text fill="#000000" font-family="sans-serif" font-size="13" font-weight="bold" lengthAdjust="spacing" textLength="7" x="45" y="369.3506">8</text><text fill="#000000" font-family="sans-serif" font-size="13" lengthAdjust="spacing" textLength="293" x="56" y="361.1748">shows the operation error because there are not all</text><text fill="#000000" font-family="sans-serif" font-size="13" lengthAdjust="spacing" textLength="206" x="56" y="377.5264">the skills selected for team creation</text><!--SRC=[dLAnJiD03Dtp5LQdLg9I5vOEJ1rOM8ZOMDoBcnozEuUpGvI_nqdQWX0WoabHBFdv-Tb-SlIfnOmH8YTsJUP8eBcZGYwP5jqHQofr20IPd6AgmsU0D5XnxrCD1mn2HQ5U3LeEeXIXfDUEaYFOUQn7-B8iTojOmrEvsTmM1NRAgOjxoXOxvGoB-yU71Q20_GjheTxv5fF2OZjpJiavd6hy6ofDw0BiMG3hktF_hO6F0ihWCequX4GzA66Sq9VwCo6Stgb-RLGZuzPcjqb41IfKXAKj80IvWHVUosgggkXRigzwX89jKSvyL4s4LugHXdkRgY5eCxSi6AwHq0bbwCUTsbuYL_umJ5mKsy03aVnRpONXW_bgOQunYv7yLT4lQhYbZEev0ULirjgJGsinvh8vmRx42XW2FASHFz_qT24xpC5gHgVCtZ6UdsPv1m00]--></g></svg>