<?xml version="1.0" encoding="UTF-8" standalone="no"?><svg xmlns="http://www.w3.org/2000/svg" xmlns:xlink="http://www.w3.org/1999/xlink" contentStyleType="text/css" height="1441px" preserveAspectRatio="none" style="width:1988px;height:1441px;background:#FFFFFF;" version="1.1" viewBox="0 0 1988 1441" width="1988px" zoomAndPan="magnify"><defs/><g><rect fill="#FFFFFF" height="1257.6172" style="stroke:#181818;stroke-width:1.0;" width="10" x="18.5" y="92.6094"/><rect fill="#FFFFFF" height="30.3516" style="stroke:#181818;stroke-width:1.0;" width="10" x="422.5" y="114.9609"/><rect fill="#FFFFFF" height="121.4063" style="stroke:#181818;stroke-width:1.0;" width="10" x="422.5" y="370.0313"/><rect fill="#FFFFFF" height="30.3516" style="stroke:#181818;stroke-width:1.0;" width="10" x="422.5" y="521.7891"/><rect fill="#FFFFFF" height="30.3516" style="stroke:#181818;stroke-width:1.0;" width="10" x="422.5" y="582.4922"/><rect fill="#FFFFFF" height="30.3516" style="stroke:#181818;stroke-width:1.0;" width="10" x="422.5" y="643.1953"/><rect fill="#FFFFFF" height="30.3516" style="stroke:#181818;stroke-width:1.0;" width="10" x="422.5" y="1310.875"/><rect fill="#FFFFFF" height="184.3672" style="stroke:#181818;stroke-width:1.0;" width="10" x="676.5" y="155.3125"/><rect fill="#FFFFFF" height="91.0547" style="stroke:#181818;stroke-width:1.0;" width="10" x="676.5" y="370.0313"/><rect fill="#FFFFFF" height="30.3516" style="stroke:#181818;stroke-width:1.0;" width="10" x="676.5" y="673.5469"/><rect fill="#FFFFFF" height="30.3516" style="stroke:#181818;stroke-width:1.0;" width="10" x="676.5" y="1280.5234"/><rect fill="#FFFFFF" height="30.3516" style="stroke:#181818;stroke-width:1.0;" width="10" x="846" y="187.9219"/><rect fill="#FFFFFF" height="30.3516" style="stroke:#181818;stroke-width:1.0;" width="10" x="953" y="248.625"/><rect fill="#FFFFFF" height="30.3516" style="stroke:#181818;stroke-width:1.0;" width="10" x="953" y="309.3281"/><rect fill="#FFFFFF" height="30.3516" style="stroke:#181818;stroke-width:1.0;" width="10" x="1071" y="400.3828"/><rect fill="#FFFFFF" height="221.1094" style="stroke:#181818;stroke-width:1.0;" width="10" x="1071" y="703.8984"/><rect fill="#FFFFFF" height="30.3516" style="stroke:#181818;stroke-width:1.0;" width="10" x="1071" y="1250.1719"/><rect fill="#FFFFFF" height="264.4609" style="stroke:#181818;stroke-width:1.0;" width="10" x="1347" y="925.0078"/><rect fill="#FFFFFF" height="41.3516" style="stroke:#181818;stroke-width:1.0;" width="10" x="1352" y="963.3594"/><rect fill="#FFFFFF" height="41.3516" style="stroke:#181818;stroke-width:1.0;" width="10" x="1352" y="1050.0625"/><rect fill="#FFFFFF" height="30.3516" style="stroke:#181818;stroke-width:1.0;" width="10" x="1347" y="1219.8203"/><rect fill="#FFFFFF" height="30.3516" style="stroke:#181818;stroke-width:1.0;" width="10" x="1647" y="1189.4688"/><rect fill="#FFFFFF" height="30.3516" style="stroke:#181818;stroke-width:1.0;" width="10" x="1773.5" y="734.25"/><rect fill="#FFFFFF" height="30.3516" style="stroke:#181818;stroke-width:1.0;" width="10" x="1905" y="1128.7656"/><line style="stroke:#181818;stroke-width:0.5;stroke-dasharray:5.0,5.0;" x1="23" x2="23" y1="82.6094" y2="1359.2266"/><line style="stroke:#181818;stroke-width:0.5;stroke-dasharray:5.0,5.0;" x1="427.5" x2="427.5" y1="82.6094" y2="1359.2266"/><line style="stroke:#181818;stroke-width:0.5;stroke-dasharray:5.0,5.0;" x1="681.5" x2="681.5" y1="154.2656" y2="1359.2266"/><line style="stroke:#181818;stroke-width:0.5;stroke-dasharray:5.0,5.0;" x1="850.5" x2="850.5" y1="82.6094" y2="1359.2266"/><line style="stroke:#181818;stroke-width:0.5;stroke-dasharray:5.0,5.0;" x1="957.5" x2="957.5" y1="82.6094" y2="1359.2266"/><line style="stroke:#181818;stroke-width:0.5;stroke-dasharray:5.0,5.0;" x1="1075.5" x2="1075.5" y1="82.6094" y2="1359.2266"/><line style="stroke:#181818;stroke-width:0.5;stroke-dasharray:5.0,5.0;" x1="1352" x2="1352" y1="82.6094" y2="1359.2266"/><line style="stroke:#181818;stroke-width:0.5;stroke-dasharray:5.0,5.0;" x1="1652" x2="1652" y1="82.6094" y2="1359.2266"/><line style="stroke:#181818;stroke-width:0.5;stroke-dasharray:5.0,5.0;" x1="1778" x2="1778" y1="82.6094" y2="1359.2266"/><line style="stroke:#181818;stroke-width:0.5;stroke-dasharray:5.0,5.0;" x1="1910" x2="1910" y1="82.6094" y2="1359.2266"/><text fill="#000000" font-family="sans-serif" font-size="14" lengthAdjust="spacing" textLength="31" x="5" y="79.5332">GSM</text><ellipse cx="23.5" cy="13.5" fill="#E3E3E3" rx="8" ry="8" style="stroke:#181818;stroke-width:0.5;"/><path d="M23.5,21.5 L23.5,48.5 M10.5,29.5 L36.5,29.5 M23.5,48.5 L10.5,63.5 M23.5,48.5 L36.5,63.5 " fill="none" style="stroke:#181818;stroke-width:0.5;"/><text fill="#000000" font-family="sans-serif" font-size="14" lengthAdjust="spacing" textLength="31" x="5" y="1372.7598">GSM</text><ellipse cx="23.5" cy="1384.3359" fill="#E3E3E3" rx="8" ry="8" style="stroke:#181818;stroke-width:0.5;"/><path d="M23.5,1392.3359 L23.5,1419.3359 M10.5,1400.3359 L36.5,1400.3359 M23.5,1419.3359 L10.5,1434.3359 M23.5,1419.3359 L36.5,1434.3359 " fill="none" style="stroke:#181818;stroke-width:0.5;"/><rect fill="#E3E3E3" height="31.6094" rx="2.5" ry="2.5" style="stroke:#181818;stroke-width:0.5;" width="172" x="341.5" y="50"/><text fill="#000000" font-family="sans-serif" font-size="14" lengthAdjust="spacing" textLength="158" x="348.5" y="71.5332">:PostponeAgendaEntryUI</text><rect fill="#E3E3E3" height="31.6094" rx="2.5" ry="2.5" style="stroke:#181818;stroke-width:0.5;" width="172" x="341.5" y="1358.2266"/><text fill="#000000" font-family="sans-serif" font-size="14" lengthAdjust="spacing" textLength="158" x="348.5" y="1379.7598">:PostponeAgendaEntryUI</text><rect fill="#E3E3E3" height="31.6094" rx="2.5" ry="2.5" style="stroke:#181818;stroke-width:0.5;" width="222" x="570.5" y="1358.2266"/><text fill="#000000" font-family="sans-serif" font-size="14" lengthAdjust="spacing" textLength="208" x="577.5" y="1379.7598">:PostponeAgendaEntryController</text><rect fill="#E3E3E3" height="31.6094" rx="2.5" ry="2.5" style="stroke:#181818;stroke-width:0.5;" width="97" x="802.5" y="50"/><text fill="#000000" font-family="sans-serif" font-size="14" lengthAdjust="spacing" textLength="83" x="809.5" y="71.5332">:Repositories</text><rect fill="#E3E3E3" height="31.6094" rx="2.5" ry="2.5" style="stroke:#181818;stroke-width:0.5;" width="97" x="802.5" y="1358.2266"/><text fill="#000000" font-family="sans-serif" font-size="14" lengthAdjust="spacing" textLength="83" x="809.5" y="1379.7598">:Repositories</text><rect fill="#E3E3E3" height="49.2188" rx="2.5" ry="2.5" style="stroke:#181818;stroke-width:0.5;" width="97" x="909.5" y="32.3906"/><text fill="#000000" font-family="sans-serif" font-size="14" lengthAdjust="spacing" textLength="74" x="921" y="53.9238">repositories</text><text fill="#000000" font-family="sans-serif" font-size="14" lengthAdjust="spacing" textLength="83" x="916.5" y="71.5332">:Repositories</text><rect fill="#E3E3E3" height="49.2188" rx="2.5" ry="2.5" style="stroke:#181818;stroke-width:0.5;" width="97" x="909.5" y="1358.2266"/><text fill="#000000" font-family="sans-serif" font-size="14" lengthAdjust="spacing" textLength="74" x="921" y="1379.7598">repositories</text><text fill="#000000" font-family="sans-serif" font-size="14" lengthAdjust="spacing" textLength="83" x="916.5" y="1397.3691">:Repositories</text><rect fill="#E3E3E3" height="49.2188" rx="2.5" ry="2.5" style="stroke:#181818;stroke-width:0.5;" width="119" x="1016.5" y="32.3906"/><text fill="#000000" font-family="sans-serif" font-size="14" lengthAdjust="spacing" textLength="100" x="1026" y="53.9238">entryRepository</text><text fill="#000000" font-family="sans-serif" font-size="14" lengthAdjust="spacing" textLength="105" x="1023.5" y="71.5332">:EntryRepository</text><rect fill="#E3E3E3" height="49.2188" rx="2.5" ry="2.5" style="stroke:#181818;stroke-width:0.5;" width="119" x="1016.5" y="1358.2266"/><text fill="#000000" font-family="sans-serif" font-size="14" lengthAdjust="spacing" textLength="100" x="1026" y="1379.7598">entryRepository</text><text fill="#000000" font-family="sans-serif" font-size="14" lengthAdjust="spacing" textLength="105" x="1023.5" y="1397.3691">:EntryRepository</text><rect fill="#E3E3E3" height="49.2188" rx="2.5" ry="2.5" style="stroke:#181818;stroke-width:0.5;" width="122" x="1291" y="32.3906"/><text fill="#000000" font-family="sans-serif" font-size="14" lengthAdjust="spacing" textLength="99" x="1302.5" y="53.9238">teamRepository</text><text fill="#000000" font-family="sans-serif" font-size="14" lengthAdjust="spacing" textLength="108" x="1298" y="71.5332">:TeamRepository</text><rect fill="#E3E3E3" height="49.2188" rx="2.5" ry="2.5" style="stroke:#181818;stroke-width:0.5;" width="122" x="1291" y="1358.2266"/><text fill="#000000" font-family="sans-serif" font-size="14" lengthAdjust="spacing" textLength="99" x="1302.5" y="1379.7598">teamRepository</text><text fill="#000000" font-family="sans-serif" font-size="14" lengthAdjust="spacing" textLength="108" x="1298" y="1397.3691">:TeamRepository</text><rect fill="#E3E3E3" height="31.6094" rx="2.5" ry="2.5" style="stroke:#181818;stroke-width:0.5;" width="134" x="1585" y="50"/><text fill="#000000" font-family="sans-serif" font-size="14" lengthAdjust="spacing" textLength="120" x="1592" y="71.5332">:NotificationService</text><rect fill="#E3E3E3" height="31.6094" rx="2.5" ry="2.5" style="stroke:#181818;stroke-width:0.5;" width="134" x="1585" y="1358.2266"/><text fill="#000000" font-family="sans-serif" font-size="14" lengthAdjust="spacing" textLength="120" x="1592" y="1379.7598">:NotificationService</text><rect fill="#E3E3E3" height="31.6094" rx="2.5" ry="2.5" style="stroke:#181818;stroke-width:0.5;" width="99" x="1729" y="50"/><text fill="#000000" font-family="sans-serif" font-size="14" lengthAdjust="spacing" textLength="85" x="1736" y="71.5332">:EntryMapper</text><rect fill="#E3E3E3" height="31.6094" rx="2.5" ry="2.5" style="stroke:#181818;stroke-width:0.5;" width="99" x="1729" y="1358.2266"/><text fill="#000000" font-family="sans-serif" font-size="14" lengthAdjust="spacing" textLength="85" x="1736" y="1379.7598">:EntryMapper</text><rect fill="#E3E3E3" height="31.6094" rx="2.5" ry="2.5" style="stroke:#181818;stroke-width:0.5;" width="144" x="1838" y="50"/><text fill="#000000" font-family="sans-serif" font-size="14" lengthAdjust="spacing" textLength="130" x="1845" y="71.5332">:CollaboratorMapper</text><rect fill="#E3E3E3" height="31.6094" rx="2.5" ry="2.5" style="stroke:#181818;stroke-width:0.5;" width="144" x="1838" y="1358.2266"/><text fill="#000000" font-family="sans-serif" font-size="14" lengthAdjust="spacing" textLength="130" x="1845" y="1379.7598">:CollaboratorMapper</text><rect fill="#FFFFFF" height="1257.6172" style="stroke:#181818;stroke-width:1.0;" width="10" x="18.5" y="92.6094"/><rect fill="#FFFFFF" height="30.3516" style="stroke:#181818;stroke-width:1.0;" width="10" x="422.5" y="114.9609"/><rect fill="#FFFFFF" height="121.4063" style="stroke:#181818;stroke-width:1.0;" width="10" x="422.5" y="370.0313"/><rect fill="#FFFFFF" height="30.3516" style="stroke:#181818;stroke-width:1.0;" width="10" x="422.5" y="521.7891"/><rect fill="#FFFFFF" height="30.3516" style="stroke:#181818;stroke-width:1.0;" width="10" x="422.5" y="582.4922"/><rect fill="#FFFFFF" height="30.3516" style="stroke:#181818;stroke-width:1.0;" width="10" x="422.5" y="643.1953"/><rect fill="#FFFFFF" height="30.3516" style="stroke:#181818;stroke-width:1.0;" width="10" x="422.5" y="1310.875"/><rect fill="#FFFFFF" height="184.3672" style="stroke:#181818;stroke-width:1.0;" width="10" x="676.5" y="155.3125"/><rect fill="#FFFFFF" height="91.0547" style="stroke:#181818;stroke-width:1.0;" width="10" x="676.5" y="370.0313"/><rect fill="#FFFFFF" height="30.3516" style="stroke:#181818;stroke-width:1.0;" width="10" x="676.5" y="673.5469"/><rect fill="#FFFFFF" height="30.3516" style="stroke:#181818;stroke-width:1.0;" width="10" x="676.5" y="1280.5234"/><rect fill="#FFFFFF" height="30.3516" style="stroke:#181818;stroke-width:1.0;" width="10" x="846" y="187.9219"/><rect fill="#FFFFFF" height="30.3516" style="stroke:#181818;stroke-width:1.0;" width="10" x="953" y="248.625"/><rect fill="#FFFFFF" height="30.3516" style="stroke:#181818;stroke-width:1.0;" width="10" x="953" y="309.3281"/><rect fill="#FFFFFF" height="30.3516" style="stroke:#181818;stroke-width:1.0;" width="10" x="1071" y="400.3828"/><rect fill="#FFFFFF" height="221.1094" style="stroke:#181818;stroke-width:1.0;" width="10" x="1071" y="703.8984"/><rect fill="#FFFFFF" height="30.3516" style="stroke:#181818;stroke-width:1.0;" width="10" x="1071" y="1250.1719"/><rect fill="#FFFFFF" height="264.4609" style="stroke:#181818;stroke-width:1.0;" width="10" x="1347" y="925.0078"/><rect fill="#FFFFFF" height="41.3516" style="stroke:#181818;stroke-width:1.0;" width="10" x="1352" y="963.3594"/><rect fill="#FFFFFF" height="41.3516" style="stroke:#181818;stroke-width:1.0;" width="10" x="1352" y="1050.0625"/><rect fill="#FFFFFF" height="30.3516" style="stroke:#181818;stroke-width:1.0;" width="10" x="1347" y="1219.8203"/><rect fill="#FFFFFF" height="30.3516" style="stroke:#181818;stroke-width:1.0;" width="10" x="1647" y="1189.4688"/><rect fill="#FFFFFF" height="30.3516" style="stroke:#181818;stroke-width:1.0;" width="10" x="1773.5" y="734.25"/><rect fill="#FFFFFF" height="30.3516" style="stroke:#181818;stroke-width:1.0;" width="10" x="1905" y="1128.7656"/><polygon fill="#181818" points="410.5,110.9609,420.5,114.9609,410.5,118.9609,414.5,114.9609" style="stroke:#181818;stroke-width:1.0;"/><line style="stroke:#181818;stroke-width:1.0;" x1="28.5" x2="416.5" y1="114.9609" y2="114.9609"/><text fill="#000000" font-family="sans-serif" font-size="13" font-weight="bold" lengthAdjust="spacing" textLength="7" x="35.5" y="110.1045">1</text><text fill="#000000" font-family="sans-serif" font-size="13" lengthAdjust="spacing" textLength="197" x="46.5" y="110.1045">asks to postpone an agenda entry</text><polygon fill="#181818" points="558.5,141.3125,568.5,145.3125,558.5,149.3125,562.5,145.3125" style="stroke:#181818;stroke-width:1.0;"/><line style="stroke:#181818;stroke-width:1.0;" x1="427.5" x2="564.5" y1="145.3125" y2="145.3125"/><text fill="#000000" font-family="sans-serif" font-size="13" font-weight="bold" lengthAdjust="spacing" textLength="7" x="434.5" y="140.4561">2</text><text fill="#000000" font-family="sans-serif" font-size="13" lengthAdjust="spacing" textLength="36" x="445.5" y="140.4561">create</text><rect fill="#E3E3E3" height="31.6094" rx="2.5" ry="2.5" style="stroke:#181818;stroke-width:0.5;" width="222" x="570.5" y="122.9609"/><text fill="#000000" font-family="sans-serif" font-size="14" lengthAdjust="spacing" textLength="208" x="577.5" y="144.4941">:PostponeAgendaEntryController</text><polygon fill="#181818" points="834,183.9219,844,187.9219,834,191.9219,838,187.9219" style="stroke:#181818;stroke-width:1.0;"/><line style="stroke:#181818;stroke-width:1.0;" x1="686.5" x2="840" y1="187.9219" y2="187.9219"/><text fill="#000000" font-family="sans-serif" font-size="13" font-weight="bold" lengthAdjust="spacing" textLength="7" x="693.5" y="183.0654">3</text><text fill="#000000" font-family="sans-serif" font-size="13" lengthAdjust="spacing" textLength="75" x="704.5" y="183.0654">getInstance()</text><polygon fill="#181818" points="697.5,214.2734,687.5,218.2734,697.5,222.2734,693.5,218.2734" style="stroke:#181818;stroke-width:1.0;"/><line style="stroke:#181818;stroke-width:1.0;stroke-dasharray:2.0,2.0;" x1="691.5" x2="850" y1="218.2734" y2="218.2734"/><text fill="#000000" font-family="sans-serif" font-size="13" font-weight="bold" lengthAdjust="spacing" textLength="7" x="703.5" y="213.417">4</text><text fill="#000000" font-family="sans-serif" font-size="13" lengthAdjust="spacing" textLength="67" x="714.5" y="213.417">repositories</text><polygon fill="#181818" points="941,244.625,951,248.625,941,252.625,945,248.625" style="stroke:#181818;stroke-width:1.0;"/><line style="stroke:#181818;stroke-width:1.0;" x1="686.5" x2="947" y1="248.625" y2="248.625"/><text fill="#000000" font-family="sans-serif" font-size="13" font-weight="bold" lengthAdjust="spacing" textLength="7" x="693.5" y="243.7686">5</text><text fill="#000000" font-family="sans-serif" font-size="13" lengthAdjust="spacing" textLength="116" x="704.5" y="243.7686">getTaskRepository()</text><polygon fill="#181818" points="697.5,274.9766,687.5,278.9766,697.5,282.9766,693.5,278.9766" style="stroke:#181818;stroke-width:1.0;"/><line style="stroke:#181818;stroke-width:1.0;stroke-dasharray:2.0,2.0;" x1="691.5" x2="957" y1="278.9766" y2="278.9766"/><text fill="#000000" font-family="sans-serif" font-size="13" font-weight="bold" lengthAdjust="spacing" textLength="7" x="703.5" y="274.1201">6</text><text fill="#000000" font-family="sans-serif" font-size="13" lengthAdjust="spacing" textLength="91" x="714.5" y="274.1201">entryRepository</text><polygon fill="#181818" points="941,305.3281,951,309.3281,941,313.3281,945,309.3281" style="stroke:#181818;stroke-width:1.0;"/><line style="stroke:#181818;stroke-width:1.0;" x1="686.5" x2="947" y1="309.3281" y2="309.3281"/><text fill="#000000" font-family="sans-serif" font-size="13" font-weight="bold" lengthAdjust="spacing" textLength="7" x="693.5" y="304.4717">7</text><text fill="#000000" font-family="sans-serif" font-size="13" lengthAdjust="spacing" textLength="120" x="704.5" y="304.4717">getTeamRepository()</text><polygon fill="#181818" points="692.5,335.6797,682.5,339.6797,692.5,343.6797,688.5,339.6797" style="stroke:#181818;stroke-width:1.0;"/><line style="stroke:#181818;stroke-width:1.0;stroke-dasharray:2.0,2.0;" x1="686.5" x2="957" y1="339.6797" y2="339.6797"/><text fill="#000000" font-family="sans-serif" font-size="13" font-weight="bold" lengthAdjust="spacing" textLength="7" x="698.5" y="334.8232">8</text><text fill="#000000" font-family="sans-serif" font-size="13" lengthAdjust="spacing" textLength="91" x="709.5" y="334.8232">teamRepository</text><polygon fill="#181818" points="664.5,366.0313,674.5,370.0313,664.5,374.0313,668.5,370.0313" style="stroke:#181818;stroke-width:1.0;"/><line style="stroke:#181818;stroke-width:1.0;" x1="432.5" x2="670.5" y1="370.0313" y2="370.0313"/><text fill="#000000" font-family="sans-serif" font-size="13" font-weight="bold" lengthAdjust="spacing" textLength="7" x="439.5" y="365.1748">9</text><text fill="#000000" font-family="sans-serif" font-size="13" lengthAdjust="spacing" textLength="108" x="450.5" y="365.1748">getEntryList(GSM)</text><polygon fill="#181818" points="1059,396.3828,1069,400.3828,1059,404.3828,1063,400.3828" style="stroke:#181818;stroke-width:1.0;"/><line style="stroke:#181818;stroke-width:1.0;" x1="686.5" x2="1065" y1="400.3828" y2="400.3828"/><text fill="#000000" font-family="sans-serif" font-size="13" font-weight="bold" lengthAdjust="spacing" textLength="14" x="693.5" y="395.5264">10</text><text fill="#000000" font-family="sans-serif" font-size="13" lengthAdjust="spacing" textLength="174" x="711.5" y="395.5264">getEntryDtoListByGSM(GSM)</text><polygon fill="#181818" points="697.5,426.7344,687.5,430.7344,697.5,434.7344,693.5,430.7344" style="stroke:#181818;stroke-width:1.0;"/><line style="stroke:#181818;stroke-width:1.0;stroke-dasharray:2.0,2.0;" x1="691.5" x2="1075" y1="430.7344" y2="430.7344"/><text fill="#000000" font-family="sans-serif" font-size="13" font-weight="bold" lengthAdjust="spacing" textLength="14" x="703.5" y="425.8779">11</text><text fill="#000000" font-family="sans-serif" font-size="13" lengthAdjust="spacing" textLength="76" x="721.5" y="425.8779">entryDTOList</text><polygon fill="#181818" points="443.5,457.0859,433.5,461.0859,443.5,465.0859,439.5,461.0859" style="stroke:#181818;stroke-width:1.0;"/><line style="stroke:#181818;stroke-width:1.0;stroke-dasharray:2.0,2.0;" x1="437.5" x2="680.5" y1="461.0859" y2="461.0859"/><text fill="#000000" font-family="sans-serif" font-size="13" font-weight="bold" lengthAdjust="spacing" textLength="14" x="449.5" y="456.2295">12</text><text fill="#000000" font-family="sans-serif" font-size="13" lengthAdjust="spacing" textLength="76" x="467.5" y="456.2295">entryDTOList</text><polygon fill="#181818" points="39.5,487.4375,29.5,491.4375,39.5,495.4375,35.5,491.4375" style="stroke:#181818;stroke-width:1.0;"/><line style="stroke:#181818;stroke-width:1.0;" x1="33.5" x2="426.5" y1="491.4375" y2="491.4375"/><text fill="#000000" font-family="sans-serif" font-size="13" font-weight="bold" lengthAdjust="spacing" textLength="14" x="45.5" y="486.5811">13</text><text fill="#000000" font-family="sans-serif" font-size="13" lengthAdjust="spacing" textLength="306" x="63.5" y="486.5811">shows the list of agenda entry and requests to select</text><polygon fill="#181818" points="410.5,517.7891,420.5,521.7891,410.5,525.7891,414.5,521.7891" style="stroke:#181818;stroke-width:1.0;"/><line style="stroke:#181818;stroke-width:1.0;" x1="28.5" x2="416.5" y1="521.7891" y2="521.7891"/><text fill="#000000" font-family="sans-serif" font-size="13" font-weight="bold" lengthAdjust="spacing" textLength="14" x="35.5" y="516.9326">14</text><text fill="#000000" font-family="sans-serif" font-size="13" lengthAdjust="spacing" textLength="139" x="53.5" y="516.9326">selects an agenda entry</text><polygon fill="#181818" points="39.5,548.1406,29.5,552.1406,39.5,556.1406,35.5,552.1406" style="stroke:#181818;stroke-width:1.0;"/><line style="stroke:#181818;stroke-width:1.0;stroke-dasharray:2.0,2.0;" x1="33.5" x2="426.5" y1="552.1406" y2="552.1406"/><text fill="#000000" font-family="sans-serif" font-size="13" font-weight="bold" lengthAdjust="spacing" textLength="14" x="45.5" y="547.2842">15</text><text fill="#000000" font-family="sans-serif" font-size="13" lengthAdjust="spacing" textLength="232" x="63.5" y="547.2842">requests new date for the selected entry</text><polygon fill="#181818" points="410.5,578.4922,420.5,582.4922,410.5,586.4922,414.5,582.4922" style="stroke:#181818;stroke-width:1.0;"/><line style="stroke:#181818;stroke-width:1.0;" x1="28.5" x2="416.5" y1="582.4922" y2="582.4922"/><text fill="#000000" font-family="sans-serif" font-size="13" font-weight="bold" lengthAdjust="spacing" textLength="14" x="35.5" y="577.6357">16</text><text fill="#000000" font-family="sans-serif" font-size="13" lengthAdjust="spacing" textLength="88" x="53.5" y="577.6357">types new date</text><polygon fill="#181818" points="39.5,608.8438,29.5,612.8438,39.5,616.8438,35.5,612.8438" style="stroke:#181818;stroke-width:1.0;"/><line style="stroke:#181818;stroke-width:1.0;stroke-dasharray:2.0,2.0;" x1="33.5" x2="426.5" y1="612.8438" y2="612.8438"/><text fill="#000000" font-family="sans-serif" font-size="13" font-weight="bold" lengthAdjust="spacing" textLength="14" x="45.5" y="607.9873">17</text><text fill="#000000" font-family="sans-serif" font-size="13" lengthAdjust="spacing" textLength="238" x="63.5" y="607.9873">Shows all data and requests confirmation</text><polygon fill="#181818" points="410.5,639.1953,420.5,643.1953,410.5,647.1953,414.5,643.1953" style="stroke:#181818;stroke-width:1.0;"/><line style="stroke:#181818;stroke-width:1.0;" x1="28.5" x2="416.5" y1="643.1953" y2="643.1953"/><text fill="#000000" font-family="sans-serif" font-size="13" font-weight="bold" lengthAdjust="spacing" textLength="14" x="35.5" y="638.3389">18</text><text fill="#000000" font-family="sans-serif" font-size="13" lengthAdjust="spacing" textLength="78" x="53.5" y="638.3389">confirms data</text><polygon fill="#181818" points="664.5,669.5469,674.5,673.5469,664.5,677.5469,668.5,673.5469" style="stroke:#181818;stroke-width:1.0;"/><line style="stroke:#181818;stroke-width:1.0;" x1="427.5" x2="670.5" y1="673.5469" y2="673.5469"/><text fill="#000000" font-family="sans-serif" font-size="13" font-weight="bold" lengthAdjust="spacing" textLength="14" x="434.5" y="668.6904">19</text><text fill="#000000" font-family="sans-serif" font-size="13" lengthAdjust="spacing" textLength="207" x="452.5" y="668.6904">postPoneEntry(entryDTO, newDate)</text><polygon fill="#181818" points="1059,699.8984,1069,703.8984,1059,707.8984,1063,703.8984" style="stroke:#181818;stroke-width:1.0;"/><line style="stroke:#181818;stroke-width:1.0;" x1="681.5" x2="1065" y1="703.8984" y2="703.8984"/><text fill="#000000" font-family="sans-serif" font-size="13" font-weight="bold" lengthAdjust="spacing" textLength="14" x="688.5" y="699.042">20</text><text fill="#000000" font-family="sans-serif" font-size="13" lengthAdjust="spacing" textLength="274" x="706.5" y="699.042">updateEntry(entryDto, newDate, POSTPONED)</text><polygon fill="#181818" points="1761.5,730.25,1771.5,734.25,1761.5,738.25,1765.5,734.25" style="stroke:#181818;stroke-width:1.0;"/><line style="stroke:#181818;stroke-width:1.0;" x1="1081" x2="1767.5" y1="734.25" y2="734.25"/><text fill="#000000" font-family="sans-serif" font-size="13" font-weight="bold" lengthAdjust="spacing" textLength="14" x="1088" y="729.3936">21</text><text fill="#000000" font-family="sans-serif" font-size="13" lengthAdjust="spacing" textLength="118" x="1106" y="729.3936">toDomain(entryDTO)</text><polygon fill="#181818" points="1092,760.6016,1082,764.6016,1092,768.6016,1088,764.6016" style="stroke:#181818;stroke-width:1.0;"/><line style="stroke:#181818;stroke-width:1.0;stroke-dasharray:2.0,2.0;" x1="1086" x2="1777.5" y1="764.6016" y2="764.6016"/><text fill="#000000" font-family="sans-serif" font-size="13" font-weight="bold" lengthAdjust="spacing" textLength="14" x="1098" y="759.7451">22</text><text fill="#000000" font-family="sans-serif" font-size="13" lengthAdjust="spacing" textLength="29" x="1116" y="759.7451">entry</text><line style="stroke:#181818;stroke-width:1.0;" x1="1081" x2="1123" y1="794.9531" y2="794.9531"/><line style="stroke:#181818;stroke-width:1.0;" x1="1123" x2="1123" y1="794.9531" y2="807.9531"/><line style="stroke:#181818;stroke-width:1.0;" x1="1082" x2="1123" y1="807.9531" y2="807.9531"/><polygon fill="#181818" points="1092,803.9531,1082,807.9531,1092,811.9531,1088,807.9531" style="stroke:#181818;stroke-width:1.0;"/><text fill="#000000" font-family="sans-serif" font-size="13" font-weight="bold" lengthAdjust="spacing" textLength="14" x="1088" y="790.0967">23</text><text fill="#000000" font-family="sans-serif" font-size="13" lengthAdjust="spacing" textLength="153" x="1106" y="790.0967">validateNewDate(newDate)</text><line style="stroke:#181818;stroke-width:1.0;" x1="1081" x2="1123" y1="838.3047" y2="838.3047"/><line style="stroke:#181818;stroke-width:1.0;" x1="1123" x2="1123" y1="838.3047" y2="851.3047"/><line style="stroke:#181818;stroke-width:1.0;" x1="1082" x2="1123" y1="851.3047" y2="851.3047"/><polygon fill="#181818" points="1092,847.3047,1082,851.3047,1092,855.3047,1088,851.3047" style="stroke:#181818;stroke-width:1.0;"/><text fill="#000000" font-family="sans-serif" font-size="13" font-weight="bold" lengthAdjust="spacing" textLength="14" x="1088" y="833.4482">24</text><text fill="#000000" font-family="sans-serif" font-size="13" lengthAdjust="spacing" textLength="234" x="1106" y="833.4482">updateEntryStatus(entry, POSTPONED)</text><line style="stroke:#181818;stroke-width:1.0;" x1="1081" x2="1123" y1="881.6563" y2="881.6563"/><line style="stroke:#181818;stroke-width:1.0;" x1="1123" x2="1123" y1="881.6563" y2="894.6563"/><line style="stroke:#181818;stroke-width:1.0;" x1="1082" x2="1123" y1="894.6563" y2="894.6563"/><polygon fill="#181818" points="1092,890.6563,1082,894.6563,1092,898.6563,1088,894.6563" style="stroke:#181818;stroke-width:1.0;"/><text fill="#000000" font-family="sans-serif" font-size="13" font-weight="bold" lengthAdjust="spacing" textLength="14" x="1088" y="876.7998">25</text><text fill="#000000" font-family="sans-serif" font-size="13" lengthAdjust="spacing" textLength="165" x="1106" y="876.7998">setNewDate(entry, newDate)</text><polygon fill="#181818" points="1335,921.0078,1345,925.0078,1335,929.0078,1339,925.0078" style="stroke:#181818;stroke-width:1.0;"/><line style="stroke:#181818;stroke-width:1.0;" x1="1076" x2="1341" y1="925.0078" y2="925.0078"/><text fill="#000000" font-family="sans-serif" font-size="13" font-weight="bold" lengthAdjust="spacing" textLength="14" x="1083" y="920.1514">26</text><text fill="#000000" font-family="sans-serif" font-size="13" lengthAdjust="spacing" textLength="158" x="1101" y="920.1514">notifyTeam(entry, newDate)</text><line style="stroke:#181818;stroke-width:1.0;" x1="1357" x2="1404" y1="950.3594" y2="950.3594"/><line style="stroke:#181818;stroke-width:1.0;" x1="1404" x2="1404" y1="950.3594" y2="963.3594"/><line style="stroke:#181818;stroke-width:1.0;" x1="1363" x2="1404" y1="963.3594" y2="963.3594"/><polygon fill="#181818" points="1373,959.3594,1363,963.3594,1373,967.3594,1369,963.3594" style="stroke:#181818;stroke-width:1.0;"/><text fill="#000000" font-family="sans-serif" font-size="13" font-weight="bold" lengthAdjust="spacing" textLength="14" x="1369" y="945.5029">27</text><text fill="#000000" font-family="sans-serif" font-size="13" lengthAdjust="spacing" textLength="134" x="1387" y="945.5029">getTeamByEntry(entry)</text><line style="stroke:#181818;stroke-width:1.0;stroke-dasharray:2.0,2.0;" x1="1362" x2="1404" y1="1003.7109" y2="1003.7109"/><line style="stroke:#181818;stroke-width:1.0;stroke-dasharray:2.0,2.0;" x1="1404" x2="1404" y1="1003.7109" y2="1016.7109"/><line style="stroke:#181818;stroke-width:1.0;stroke-dasharray:2.0,2.0;" x1="1357" x2="1404" y1="1016.7109" y2="1016.7109"/><polygon fill="#181818" points="1367,1012.7109,1357,1016.7109,1367,1020.7109,1363,1016.7109" style="stroke:#181818;stroke-width:1.0;"/><text fill="#000000" font-family="sans-serif" font-size="13" font-weight="bold" lengthAdjust="spacing" textLength="14" x="1369" y="998.8545">28</text><text fill="#000000" font-family="sans-serif" font-size="13" lengthAdjust="spacing" textLength="49" x="1387" y="998.8545">teamDto</text><line style="stroke:#181818;stroke-width:1.0;" x1="1357" x2="1404" y1="1037.0625" y2="1037.0625"/><line style="stroke:#181818;stroke-width:1.0;" x1="1404" x2="1404" y1="1037.0625" y2="1050.0625"/><line style="stroke:#181818;stroke-width:1.0;" x1="1363" x2="1404" y1="1050.0625" y2="1050.0625"/><polygon fill="#181818" points="1373,1046.0625,1363,1050.0625,1373,1054.0625,1369,1050.0625" style="stroke:#181818;stroke-width:1.0;"/><text fill="#000000" font-family="sans-serif" font-size="13" font-weight="bold" lengthAdjust="spacing" textLength="14" x="1369" y="1032.2061">29</text><text fill="#000000" font-family="sans-serif" font-size="13" lengthAdjust="spacing" textLength="172" x="1387" y="1032.2061">getCollaboratorsList(teamDto)</text><line style="stroke:#181818;stroke-width:1.0;stroke-dasharray:2.0,2.0;" x1="1362" x2="1404" y1="1090.4141" y2="1090.4141"/><line style="stroke:#181818;stroke-width:1.0;stroke-dasharray:2.0,2.0;" x1="1404" x2="1404" y1="1090.4141" y2="1103.4141"/><line style="stroke:#181818;stroke-width:1.0;stroke-dasharray:2.0,2.0;" x1="1357" x2="1404" y1="1103.4141" y2="1103.4141"/><polygon fill="#181818" points="1367,1099.4141,1357,1103.4141,1367,1107.4141,1363,1103.4141" style="stroke:#181818;stroke-width:1.0;"/><text fill="#000000" font-family="sans-serif" font-size="13" font-weight="bold" lengthAdjust="spacing" textLength="14" x="1369" y="1085.5576">30</text><text fill="#000000" font-family="sans-serif" font-size="13" lengthAdjust="spacing" textLength="115" x="1387" y="1085.5576">collaboratorsDtoList</text><polygon fill="#181818" points="1893,1124.7656,1903,1128.7656,1893,1132.7656,1897,1128.7656" style="stroke:#181818;stroke-width:1.0;"/><line style="stroke:#181818;stroke-width:1.0;" x1="1357" x2="1899" y1="1128.7656" y2="1128.7656"/><text fill="#000000" font-family="sans-serif" font-size="13" font-weight="bold" lengthAdjust="spacing" textLength="14" x="1364" y="1123.9092">31</text><text fill="#000000" font-family="sans-serif" font-size="13" lengthAdjust="spacing" textLength="199" x="1382" y="1123.9092">toDomainList(collaboratorsDtoList)</text><polygon fill="#181818" points="1368,1155.1172,1358,1159.1172,1368,1163.1172,1364,1159.1172" style="stroke:#181818;stroke-width:1.0;"/><line style="stroke:#181818;stroke-width:1.0;stroke-dasharray:2.0,2.0;" x1="1362" x2="1909" y1="1159.1172" y2="1159.1172"/><text fill="#000000" font-family="sans-serif" font-size="13" font-weight="bold" lengthAdjust="spacing" textLength="14" x="1374" y="1154.2607">32</text><text fill="#000000" font-family="sans-serif" font-size="13" lengthAdjust="spacing" textLength="95" x="1392" y="1154.2607">collaboratorsList</text><polygon fill="#181818" points="1635,1185.4688,1645,1189.4688,1635,1193.4688,1639,1189.4688" style="stroke:#181818;stroke-width:1.0;"/><line style="stroke:#181818;stroke-width:1.0;" x1="1352" x2="1641" y1="1189.4688" y2="1189.4688"/><text fill="#000000" font-family="sans-serif" font-size="13" font-weight="bold" lengthAdjust="spacing" textLength="14" x="1359" y="1184.6123">33</text><text fill="#000000" font-family="sans-serif" font-size="13" lengthAdjust="spacing" textLength="253" x="1377" y="1184.6123">sendNotification(collaboratorsList, newDate)</text><polygon fill="#181818" points="1368,1215.8203,1358,1219.8203,1368,1223.8203,1364,1219.8203" style="stroke:#181818;stroke-width:1.0;"/><line style="stroke:#181818;stroke-width:1.0;stroke-dasharray:2.0,2.0;" x1="1362" x2="1651" y1="1219.8203" y2="1219.8203"/><text fill="#000000" font-family="sans-serif" font-size="13" font-weight="bold" lengthAdjust="spacing" textLength="14" x="1374" y="1214.9639">34</text><text fill="#000000" font-family="sans-serif" font-size="13" lengthAdjust="spacing" textLength="49" x="1392" y="1214.9639">success</text><polygon fill="#181818" points="1092,1246.1719,1082,1250.1719,1092,1254.1719,1088,1250.1719" style="stroke:#181818;stroke-width:1.0;"/><line style="stroke:#181818;stroke-width:1.0;stroke-dasharray:2.0,2.0;" x1="1086" x2="1351" y1="1250.1719" y2="1250.1719"/><text fill="#000000" font-family="sans-serif" font-size="13" font-weight="bold" lengthAdjust="spacing" textLength="14" x="1098" y="1245.3154">35</text><text fill="#000000" font-family="sans-serif" font-size="13" lengthAdjust="spacing" textLength="49" x="1116" y="1245.3154">success</text><polygon fill="#181818" points="697.5,1276.5234,687.5,1280.5234,697.5,1284.5234,693.5,1280.5234" style="stroke:#181818;stroke-width:1.0;"/><line style="stroke:#181818;stroke-width:1.0;stroke-dasharray:2.0,2.0;" x1="691.5" x2="1075" y1="1280.5234" y2="1280.5234"/><text fill="#000000" font-family="sans-serif" font-size="13" font-weight="bold" lengthAdjust="spacing" textLength="14" x="703.5" y="1275.667">36</text><text fill="#000000" font-family="sans-serif" font-size="13" lengthAdjust="spacing" textLength="49" x="721.5" y="1275.667">success</text><polygon fill="#181818" points="443.5,1306.875,433.5,1310.875,443.5,1314.875,439.5,1310.875" style="stroke:#181818;stroke-width:1.0;"/><line style="stroke:#181818;stroke-width:1.0;stroke-dasharray:2.0,2.0;" x1="437.5" x2="680.5" y1="1310.875" y2="1310.875"/><text fill="#000000" font-family="sans-serif" font-size="13" font-weight="bold" lengthAdjust="spacing" textLength="14" x="449.5" y="1306.0186">37</text><text fill="#000000" font-family="sans-serif" font-size="13" lengthAdjust="spacing" textLength="49" x="467.5" y="1306.0186">success</text><polygon fill="#181818" points="39.5,1337.2266,29.5,1341.2266,39.5,1345.2266,35.5,1341.2266" style="stroke:#181818;stroke-width:1.0;"/><line style="stroke:#181818;stroke-width:1.0;stroke-dasharray:2.0,2.0;" x1="33.5" x2="426.5" y1="1341.2266" y2="1341.2266"/><text fill="#000000" font-family="sans-serif" font-size="13" font-weight="bold" lengthAdjust="spacing" textLength="14" x="45.5" y="1336.3701">38</text><text fill="#000000" font-family="sans-serif" font-size="13" lengthAdjust="spacing" textLength="352" x="63.5" y="1336.3701">displays a success message (Entry postponed successfully)</text><!--SRC=[jLVDRgCm4Bxp55PFITMy08TARLEjAlKdAkbjBovCKgjWizYqukrtx81ZWu6askMGfcRccsz-FP6VZ9UqeWKf11VfHoKA8Agg8PBsJKdJJxg7H3Kva0fIHVa-TmNa1yt4D-DxigEvX2YYjHAyBjwXmk-f4XMv-9KyNH0g2VwDK4knb9MKAt8HRuHKfU1mimUUqNkkgkRjmSY-FSoBtWdy57aEbL6vsxu-zfHUeHII8Ga6qiZOWoPXsXFawgjKZiPlFWJOFDviVGtGL8wug7JldnWzU-OhAw25fxlr3engTzJpxLaejcCfLKpm1Aelbe8H3vptD0sN9rgMRU2S_tkITnXT-YugYcGSXU5nP9BDlgW2a-Q8u8DVoEeQKqbYrFgKH0bIjcaab1DgKabC08s2XS3icmFze3g2wEIIoykOf1MWX7sRWQlKdTepKnFsM3y62043bO0qzw0UkCGgJs6nzFGiPAY4F4dzXD1NdHinSQlCqtNScRNJUQ9Bya1zYr4-geqvO4fumDYWE1HxPJt6SWWMeENLzEcq-fJyPfbaH4PU-lNW5q-WuWnzqnwFJAe55lHoM6FdrPqT14VijH8Q_hP1VD-6XtaS8JwoFH-aRxrzqS1ZaN80XqoxnWq2ZKRq43hT-35U3U8RU_u3I8wwHEoyXiS1a64V_Ab1AZCP9EHulqGZUN5doK5IdZT2B2rhayCtoRJe3YyfJVE02va3DyD4DIKSWS84FEE9YGdDSwr0_HYaWkzOLPZ1FMiyxiIbGJffVCPc-cvm-fhCBxhKNcaFrgYuF6-iJjStcgjB7HRNc1BMs1NPl2JRpSlp_NePJRNhN3ECzCArUw_fN8crA2ZZrksfDkjkjG5s2xVgUNgicB4-2o666RUGNpHdEdpFXt0j1ZcQHN32doYgQdbmVJJmas0ILCUaHR64nZFGJNxKvtejQVJ1GF-yyJGgrHUo8dQ16eZentBq-RRtrctZbEyo272s7T-GljMmBu8wZfy_TSBTrQIvnLg3_yMPrBNMtcl_phFXtkdqjV4jP7_6qT0o6r8869zo_XJFJpNjnY2mtflkv9dxPZ7WCj9lK_cO35lePqPGGpyXqhtWoJfDGSevSY6pFwnZhuQzKJT2vPGOJKsluABMDpOvsaQsBdzZSn53T-dqXf8nMUQqmIMb0o85Vk2YHHQ6aFq9btK2kphFSJRwEyDV]--></g></svg>