<?xml version="1.0" encoding="UTF-8" standalone="no"?><svg xmlns="http://www.w3.org/2000/svg" xmlns:xlink="http://www.w3.org/1999/xlink" contentStyleType="text/css" height="1299px" preserveAspectRatio="none" style="width:3363px;height:1299px;background:#FFFFFF;" version="1.1" viewBox="0 0 3363 1299" width="3363px" zoomAndPan="magnify"><defs/><g><!--cluster UI--><g id="cluster_UI"><path d="M719.5,6 L734.5,6 A3.75,3.75 0 0 1 737,8.5 L744,29.6094 L932.5,29.6094 A2.5,2.5 0 0 1 935,32.1094 L935,103.5 A2.5,2.5 0 0 1 932.5,106 L719.5,106 A2.5,2.5 0 0 1 717,103.5 L717,8.5 A2.5,2.5 0 0 1 719.5,6 " fill="none" style="stroke:#000000;stroke-width:1.5;"/><line style="stroke:#000000;stroke-width:1.5;" x1="717" x2="744" y1="29.6094" y2="29.6094"/><text fill="#000000" font-family="sans-serif" font-size="14" font-weight="bold" lengthAdjust="spacing" textLength="14" x="721" y="22.5332">UI</text></g><!--cluster CONTROLLER--><g id="cluster_CONTROLLER"><path d="M543.5,139 L639.5,139 A3.75,3.75 0 0 1 642,141.5 L649,162.6094 L1108.5,162.6094 A2.5,2.5 0 0 1 1111,165.1094 L1111,342.5 A2.5,2.5 0 0 1 1108.5,345 L543.5,345 A2.5,2.5 0 0 1 541,342.5 L541,141.5 A2.5,2.5 0 0 1 543.5,139 " fill="none" style="stroke:#000000;stroke-width:1.5;"/><line style="stroke:#000000;stroke-width:1.5;" x1="541" x2="649" y1="162.6094" y2="162.6094"/><text fill="#000000" font-family="sans-serif" font-size="14" font-weight="bold" lengthAdjust="spacing" textLength="95" x="545" y="155.5332">CONTROLLER</text></g><!--cluster DOMAIN--><g id="cluster_DOMAIN"><path d="M8.5,378 L66.5,378 A3.75,3.75 0 0 1 69,380.5 L76,401.6094 L1733.5,401.6094 A2.5,2.5 0 0 1 1736,404.1094 L1736,1208 A2.5,2.5 0 0 1 1733.5,1210.5 L8.5,1210.5 A2.5,2.5 0 0 1 6,1208 L6,380.5 A2.5,2.5 0 0 1 8.5,378 " fill="none" style="stroke:#000000;stroke-width:1.5;"/><line style="stroke:#000000;stroke-width:1.5;" x1="6" x2="76" y1="401.6094" y2="401.6094"/><text fill="#000000" font-family="sans-serif" font-size="14" font-weight="bold" lengthAdjust="spacing" textLength="57" x="10" y="394.5332">DOMAIN</text></g><!--cluster REPOSITORY--><g id="cluster_REPOSITORY"><path d="M184.5,422 L276.5,422 A3.75,3.75 0 0 1 279,424.5 L286,445.6094 L937.5,445.6094 A2.5,2.5 0 0 1 940,448.1094 L940,809 A2.5,2.5 0 0 1 937.5,811.5 L184.5,811.5 A2.5,2.5 0 0 1 182,809 L182,424.5 A2.5,2.5 0 0 1 184.5,422 " fill="none" style="stroke:#000000;stroke-width:1.5;"/><line style="stroke:#000000;stroke-width:1.5;" x1="182" x2="286" y1="445.6094" y2="445.6094"/><text fill="#000000" font-family="sans-serif" font-size="14" font-weight="bold" lengthAdjust="spacing" textLength="91" x="186" y="438.5332">REPOSITORY</text></g><!--cluster MODEL--><g id="cluster_MODEL"><path d="M32.5,928.5 L84.5,928.5 A3.75,3.75 0 0 1 87,931 L94,952.1094 L1709.5,952.1094 A2.5,2.5 0 0 1 1712,954.6094 L1712,1184 A2.5,2.5 0 0 1 1709.5,1186.5 L32.5,1186.5 A2.5,2.5 0 0 1 30,1184 L30,931 A2.5,2.5 0 0 1 32.5,928.5 " fill="none" style="stroke:#000000;stroke-width:1.5;"/><line style="stroke:#000000;stroke-width:1.5;" x1="30" x2="94" y1="952.1094" y2="952.1094"/><text fill="#000000" font-family="sans-serif" font-size="14" font-weight="bold" lengthAdjust="spacing" textLength="51" x="34" y="945.0332">MODEL</text></g><!--cluster DTO--><g id="cluster_DTO"><path d="M1762.5,641 L1792.5,641 A3.75,3.75 0 0 1 1795,643.5 L1802,664.6094 L3353.5,664.6094 A2.5,2.5 0 0 1 3356,667.1094 L3356,1290 A2.5,2.5 0 0 1 3353.5,1292.5 L1762.5,1292.5 A2.5,2.5 0 0 1 1760,1290 L1760,643.5 A2.5,2.5 0 0 1 1762.5,641 " fill="none" style="stroke:#000000;stroke-width:1.5;"/><line style="stroke:#000000;stroke-width:1.5;" x1="1760" x2="1802" y1="664.6094" y2="664.6094"/><text fill="#000000" font-family="sans-serif" font-size="14" font-weight="bold" lengthAdjust="spacing" textLength="29" x="1764" y="657.5332">DTO</text></g><!--class PostponeAgendaEntryUI--><g id="elem_PostponeAgendaEntryUI"><rect codeLine="5" fill="#F1F1F1" height="48" id="PostponeAgendaEntryUI" rx="2.5" ry="2.5" style="stroke:#181818;stroke-width:0.5;" width="186" x="733" y="42"/><ellipse cx="748" cy="58" fill="#ADD1B2" rx="11" ry="11" style="stroke:#181818;stroke-width:1.0;"/><path d="M750.7656,53.875 Q750.9219,53.6563 751.1094,53.5469 Q751.2969,53.4375 751.5156,53.4375 Q751.8906,53.4375 752.125,53.7031 Q752.3594,53.9531 752.3594,54.5625 L752.3594,56.0156 Q752.3594,56.625 752.125,56.8906 Q751.8906,57.1563 751.5156,57.1563 Q751.1719,57.1563 750.9688,56.9531 Q750.7656,56.7656 750.6563,56.25 Q750.6094,55.8906 750.4219,55.7031 Q750.0938,55.3281 749.4844,55.1094 Q748.875,54.8906 748.25,54.8906 Q747.4844,54.8906 746.8438,55.2188 Q746.2188,55.5469 745.7188,56.2969 Q745.2344,57.0469 745.2344,58.0781 L745.2344,59.1719 Q745.2344,60.4063 746.125,61.2344 Q747.0156,62.0469 748.6094,62.0469 Q749.5469,62.0469 750.2031,61.7969 Q750.5938,61.6406 751.0156,61.2031 Q751.2813,60.9375 751.4219,60.8594 Q751.5781,60.7813 751.7813,60.7813 Q752.1094,60.7813 752.3594,61.0469 Q752.625,61.2969 752.625,61.6406 Q752.625,61.9844 752.2813,62.3906 Q751.7813,62.9688 750.9844,63.2969 Q749.9063,63.75 748.6094,63.75 Q747.0938,63.75 745.8906,63.125 Q744.9063,62.625 744.2188,61.5625 Q743.5313,60.4844 743.5313,59.2031 L743.5313,58.0469 Q743.5313,56.7188 744.1406,55.5781 Q744.7656,54.4219 745.8594,53.8125 Q746.9531,53.1875 748.1875,53.1875 Q748.9219,53.1875 749.5625,53.3594 Q750.2188,53.5156 750.7656,53.875 Z " fill="#000000"/><text fill="#000000" font-family="sans-serif" font-size="14" lengthAdjust="spacing" textLength="154" x="762" y="63.7285">PostponeAgendaEntryUI</text><line style="stroke:#181818;stroke-width:0.5;" x1="734" x2="918" y1="74" y2="74"/><line style="stroke:#181818;stroke-width:0.5;" x1="734" x2="918" y1="82" y2="82"/></g><!--class PostponeAgendaEntryController--><g id="elem_PostponeAgendaEntryController"><rect codeLine="10" fill="#F1F1F1" height="153.6563" id="PostponeAgendaEntryController" rx="2.5" ry="2.5" style="stroke:#181818;stroke-width:0.5;" width="537" x="557.5" y="175"/><ellipse cx="719.75" cy="191" fill="#ADD1B2" rx="11" ry="11" style="stroke:#181818;stroke-width:1.0;"/><path d="M722.5156,186.875 Q722.6719,186.6563 722.8594,186.5469 Q723.0469,186.4375 723.2656,186.4375 Q723.6406,186.4375 723.875,186.7031 Q724.1094,186.9531 724.1094,187.5625 L724.1094,189.0156 Q724.1094,189.625 723.875,189.8906 Q723.6406,190.1563 723.2656,190.1563 Q722.9219,190.1563 722.7188,189.9531 Q722.5156,189.7656 722.4063,189.25 Q722.3594,188.8906 722.1719,188.7031 Q721.8438,188.3281 721.2344,188.1094 Q720.625,187.8906 720,187.8906 Q719.2344,187.8906 718.5938,188.2188 Q717.9688,188.5469 717.4688,189.2969 Q716.9844,190.0469 716.9844,191.0781 L716.9844,192.1719 Q716.9844,193.4063 717.875,194.2344 Q718.7656,195.0469 720.3594,195.0469 Q721.2969,195.0469 721.9531,194.7969 Q722.3438,194.6406 722.7656,194.2031 Q723.0313,193.9375 723.1719,193.8594 Q723.3281,193.7813 723.5313,193.7813 Q723.8594,193.7813 724.1094,194.0469 Q724.375,194.2969 724.375,194.6406 Q724.375,194.9844 724.0313,195.3906 Q723.5313,195.9688 722.7344,196.2969 Q721.6563,196.75 720.3594,196.75 Q718.8438,196.75 717.6406,196.125 Q716.6563,195.625 715.9688,194.5625 Q715.2813,193.4844 715.2813,192.2031 L715.2813,191.0469 Q715.2813,189.7188 715.8906,188.5781 Q716.5156,187.4219 717.6094,186.8125 Q718.7031,186.1875 719.9375,186.1875 Q720.6719,186.1875 721.3125,186.3594 Q721.9688,186.5156 722.5156,186.875 Z " fill="#000000"/><text fill="#000000" font-family="sans-serif" font-size="14" lengthAdjust="spacing" textLength="204" x="740.25" y="196.7285">PostponeAgendaEntryController</text><line style="stroke:#181818;stroke-width:0.5;" x1="558.5" x2="1093.5" y1="207" y2="207"/><rect fill="none" height="6" style="stroke:#C82930;stroke-width:1.0;" width="6" x="565.5" y="218.3047"/><text fill="#000000" font-family="sans-serif" font-size="14" lengthAdjust="spacing" textLength="161" x="577.5" y="225.5332">repositories: Repositories</text><rect fill="none" height="6" style="stroke:#C82930;stroke-width:1.0;" width="6" x="565.5" y="235.9141"/><text fill="#000000" font-family="sans-serif" font-size="14" lengthAdjust="spacing" textLength="209" x="577.5" y="243.1426">entryRepository: EntryRepository</text><line style="stroke:#181818;stroke-width:0.5;" x1="558.5" x2="1093.5" y1="250.2188" y2="250.2188"/><ellipse cx="568.5" cy="264.5234" fill="#84BE84" rx="3" ry="3" style="stroke:#038048;stroke-width:1.0;"/><text fill="#000000" font-family="sans-serif" font-size="14" lengthAdjust="spacing" textLength="214" x="577.5" y="268.752">PostponeAgendaEntryController()</text><ellipse cx="568.5" cy="282.1328" fill="#84BE84" rx="3" ry="3" style="stroke:#038048;stroke-width:1.0;"/><text fill="#000000" font-family="sans-serif" font-size="14" lengthAdjust="spacing" textLength="397" x="577.5" y="286.3613">getAgendaEntryList(gsm: UserSession): List&lt;AgendaEntryDto&gt;</text><ellipse cx="568.5" cy="299.7422" fill="#84BE84" rx="3" ry="3" style="stroke:#038048;stroke-width:1.0;"/><text fill="#000000" font-family="sans-serif" font-size="14" lengthAdjust="spacing" textLength="511" x="577.5" y="303.9707">postponeEntry(agendaEntryDto: AgendaEntryDto, newDate: LocalDate): boolean</text><rect fill="#F24D5C" height="6" style="stroke:#C82930;stroke-width:1.0;" width="6" x="565.5" y="314.3516"/><text fill="#000000" font-family="sans-serif" font-size="14" lengthAdjust="spacing" textLength="464" x="577.5" y="321.5801">notifyTeam(agendaEntryDto: AgendaEntryDto, newDate: LocalDate): void</text></g><!--class Repositories--><g id="elem_Repositories"><rect codeLine="22" fill="#F1F1F1" height="136.0469" id="Repositories" rx="2.5" ry="2.5" style="stroke:#181818;stroke-width:0.5;" width="266" x="428" y="458"/><ellipse cx="517.25" cy="474" fill="#ADD1B2" rx="11" ry="11" style="stroke:#181818;stroke-width:1.0;"/><path d="M520.0156,469.875 Q520.1719,469.6563 520.3594,469.5469 Q520.5469,469.4375 520.7656,469.4375 Q521.1406,469.4375 521.375,469.7031 Q521.6094,469.9531 521.6094,470.5625 L521.6094,472.0156 Q521.6094,472.625 521.375,472.8906 Q521.1406,473.1563 520.7656,473.1563 Q520.4219,473.1563 520.2188,472.9531 Q520.0156,472.7656 519.9063,472.25 Q519.8594,471.8906 519.6719,471.7031 Q519.3438,471.3281 518.7344,471.1094 Q518.125,470.8906 517.5,470.8906 Q516.7344,470.8906 516.0938,471.2188 Q515.4688,471.5469 514.9688,472.2969 Q514.4844,473.0469 514.4844,474.0781 L514.4844,475.1719 Q514.4844,476.4063 515.375,477.2344 Q516.2656,478.0469 517.8594,478.0469 Q518.7969,478.0469 519.4531,477.7969 Q519.8438,477.6406 520.2656,477.2031 Q520.5313,476.9375 520.6719,476.8594 Q520.8281,476.7813 521.0313,476.7813 Q521.3594,476.7813 521.6094,477.0469 Q521.875,477.2969 521.875,477.6406 Q521.875,477.9844 521.5313,478.3906 Q521.0313,478.9688 520.2344,479.2969 Q519.1563,479.75 517.8594,479.75 Q516.3438,479.75 515.1406,479.125 Q514.1563,478.625 513.4688,477.5625 Q512.7813,476.4844 512.7813,475.2031 L512.7813,474.0469 Q512.7813,472.7188 513.3906,471.5781 Q514.0156,470.4219 515.1094,469.8125 Q516.2031,469.1875 517.4375,469.1875 Q518.1719,469.1875 518.8125,469.3594 Q519.4688,469.5156 520.0156,469.875 Z " fill="#000000"/><text fill="#000000" font-family="sans-serif" font-size="14" lengthAdjust="spacing" textLength="79" x="537.75" y="479.7285">Repositories</text><line style="stroke:#181818;stroke-width:0.5;" x1="429" x2="693" y1="490" y2="490"/><rect fill="none" height="6" style="stroke:#C82930;stroke-width:1.0;" width="6" x="436" y="501.3047"/><text fill="#000000" font-family="sans-serif" font-size="14" lengthAdjust="spacing" textLength="140" x="448" y="508.5332">instance: Repositories</text><rect fill="none" height="6" style="stroke:#C82930;stroke-width:1.0;" width="6" x="436" y="518.9141"/><text fill="#000000" font-family="sans-serif" font-size="14" lengthAdjust="spacing" textLength="209" x="448" y="526.1426">entryRepository: EntryRepository</text><line style="stroke:#181818;stroke-width:0.5;" x1="429" x2="693" y1="533.2188" y2="533.2188"/><ellipse cx="439" cy="547.5234" fill="#84BE84" rx="3" ry="3" style="stroke:#038048;stroke-width:1.0;"/><text fill="#000000" font-family="sans-serif" font-size="14" lengthAdjust="spacing" textLength="89" x="448" y="551.752">Repositories()</text><ellipse cx="439" cy="565.1328" fill="#84BE84" rx="3" ry="3" style="stroke:#038048;stroke-width:1.0;"/><text fill="#000000" font-family="sans-serif" font-size="14" lengthAdjust="spacing" textLength="170" x="448" y="569.3613">getInstance(): Repositories</text><ellipse cx="439" cy="582.7422" fill="#84BE84" rx="3" ry="3" style="stroke:#038048;stroke-width:1.0;"/><text fill="#000000" font-family="sans-serif" font-size="14" lengthAdjust="spacing" textLength="240" x="448" y="586.9707">getEntryRepository(): EntryRepository</text></g><!--class EntryRepository--><g id="elem_EntryRepository"><rect codeLine="30" fill="#F1F1F1" height="136.0469" id="EntryRepository" rx="2.5" ry="2.5" style="stroke:#181818;stroke-width:0.5;" width="726" x="198" y="659.5"/><ellipse cx="506.25" cy="675.5" fill="#ADD1B2" rx="11" ry="11" style="stroke:#181818;stroke-width:1.0;"/><path d="M509.0156,671.375 Q509.1719,671.1563 509.3594,671.0469 Q509.5469,670.9375 509.7656,670.9375 Q510.1406,670.9375 510.375,671.2031 Q510.6094,671.4531 510.6094,672.0625 L510.6094,673.5156 Q510.6094,674.125 510.375,674.3906 Q510.1406,674.6563 509.7656,674.6563 Q509.4219,674.6563 509.2188,674.4531 Q509.0156,674.2656 508.9063,673.75 Q508.8594,673.3906 508.6719,673.2031 Q508.3438,672.8281 507.7344,672.6094 Q507.125,672.3906 506.5,672.3906 Q505.7344,672.3906 505.0938,672.7188 Q504.4688,673.0469 503.9688,673.7969 Q503.4844,674.5469 503.4844,675.5781 L503.4844,676.6719 Q503.4844,677.9063 504.375,678.7344 Q505.2656,679.5469 506.8594,679.5469 Q507.7969,679.5469 508.4531,679.2969 Q508.8438,679.1406 509.2656,678.7031 Q509.5313,678.4375 509.6719,678.3594 Q509.8281,678.2813 510.0313,678.2813 Q510.3594,678.2813 510.6094,678.5469 Q510.875,678.7969 510.875,679.1406 Q510.875,679.4844 510.5313,679.8906 Q510.0313,680.4688 509.2344,680.7969 Q508.1563,681.25 506.8594,681.25 Q505.3438,681.25 504.1406,680.625 Q503.1563,680.125 502.4688,679.0625 Q501.7813,677.9844 501.7813,676.7031 L501.7813,675.5469 Q501.7813,674.2188 502.3906,673.0781 Q503.0156,671.9219 504.1094,671.3125 Q505.2031,670.6875 506.4375,670.6875 Q507.1719,670.6875 507.8125,670.8594 Q508.4688,671.0156 509.0156,671.375 Z " fill="#000000"/><text fill="#000000" font-family="sans-serif" font-size="14" lengthAdjust="spacing" textLength="101" x="526.75" y="681.2285">EntryRepository</text><line style="stroke:#181818;stroke-width:0.5;" x1="199" x2="923" y1="691.5" y2="691.5"/><rect fill="none" height="6" style="stroke:#C82930;stroke-width:1.0;" width="6" x="206" y="702.8047"/><text fill="#000000" font-family="sans-serif" font-size="14" lengthAdjust="spacing" textLength="231" x="218" y="710.0332">agendaEntryList: List&lt;AgendaEntry&gt;</text><line style="stroke:#181818;stroke-width:0.5;" x1="199" x2="923" y1="717.1094" y2="717.1094"/><ellipse cx="209" cy="731.4141" fill="#84BE84" rx="3" ry="3" style="stroke:#038048;stroke-width:1.0;"/><text fill="#000000" font-family="sans-serif" font-size="14" lengthAdjust="spacing" textLength="111" x="218" y="735.6426">EntryRepository()</text><ellipse cx="209" cy="749.0234" fill="#84BE84" rx="3" ry="3" style="stroke:#038048;stroke-width:1.0;"/><text fill="#000000" font-family="sans-serif" font-size="14" lengthAdjust="spacing" textLength="409" x="218" y="753.252">getAgendaEntryListByGSM(String: email): List&lt;AgendaEntryDto&gt;</text><ellipse cx="209" cy="766.6328" fill="#84BE84" rx="3" ry="3" style="stroke:#038048;stroke-width:1.0;"/><text fill="#000000" font-family="sans-serif" font-size="14" lengthAdjust="spacing" textLength="700" x="218" y="770.8613">updateAgendaEntry(agendaEntry: AgendaEntry, newDate: LocalDate, POSTPONED: ProgressStatus): boolean</text><rect fill="#F24D5C" height="6" style="stroke:#C82930;stroke-width:1.0;" width="6" x="206" y="781.2422"/><text fill="#000000" font-family="sans-serif" font-size="14" lengthAdjust="spacing" textLength="531" x="218" y="788.4707">updateEntryStatus(agendaEntry: AgendaEntry, POSTPONED: ProgressStatus): void</text></g><!--class AgendaEntry--><g id="elem_AgendaEntry"><rect codeLine="42" fill="#F1F1F1" height="206.4844" id="AgendaEntry" rx="2.5" ry="2.5" style="stroke:#181818;stroke-width:0.5;" width="599" x="870.5" y="964.5"/><ellipse cx="1124.75" cy="980.5" fill="#ADD1B2" rx="11" ry="11" style="stroke:#181818;stroke-width:1.0;"/><path d="M1127.5156,976.375 Q1127.6719,976.1563 1127.8594,976.0469 Q1128.0469,975.9375 1128.2656,975.9375 Q1128.6406,975.9375 1128.875,976.2031 Q1129.1094,976.4531 1129.1094,977.0625 L1129.1094,978.5156 Q1129.1094,979.125 1128.875,979.3906 Q1128.6406,979.6563 1128.2656,979.6563 Q1127.9219,979.6563 1127.7188,979.4531 Q1127.5156,979.2656 1127.4063,978.75 Q1127.3594,978.3906 1127.1719,978.2031 Q1126.8438,977.8281 1126.2344,977.6094 Q1125.625,977.3906 1125,977.3906 Q1124.2344,977.3906 1123.5938,977.7188 Q1122.9688,978.0469 1122.4688,978.7969 Q1121.9844,979.5469 1121.9844,980.5781 L1121.9844,981.6719 Q1121.9844,982.9063 1122.875,983.7344 Q1123.7656,984.5469 1125.3594,984.5469 Q1126.2969,984.5469 1126.9531,984.2969 Q1127.3438,984.1406 1127.7656,983.7031 Q1128.0313,983.4375 1128.1719,983.3594 Q1128.3281,983.2813 1128.5313,983.2813 Q1128.8594,983.2813 1129.1094,983.5469 Q1129.375,983.7969 1129.375,984.1406 Q1129.375,984.4844 1129.0313,984.8906 Q1128.5313,985.4688 1127.7344,985.7969 Q1126.6563,986.25 1125.3594,986.25 Q1123.8438,986.25 1122.6406,985.625 Q1121.6563,985.125 1120.9688,984.0625 Q1120.2813,982.9844 1120.2813,981.7031 L1120.2813,980.5469 Q1120.2813,979.2188 1120.8906,978.0781 Q1121.5156,976.9219 1122.6094,976.3125 Q1123.7031,975.6875 1124.9375,975.6875 Q1125.6719,975.6875 1126.3125,975.8594 Q1126.9688,976.0156 1127.5156,976.375 Z " fill="#000000"/><text fill="#000000" font-family="sans-serif" font-size="14" lengthAdjust="spacing" textLength="82" x="1145.25" y="986.2285">AgendaEntry</text><line style="stroke:#181818;stroke-width:0.5;" x1="871.5" x2="1468.5" y1="996.5" y2="996.5"/><rect fill="none" height="6" style="stroke:#C82930;stroke-width:1.0;" width="6" x="878.5" y="1007.8047"/><text fill="#000000" font-family="sans-serif" font-size="14" lengthAdjust="spacing" textLength="149" x="890.5" y="1015.0332">startingDate: LocalDate</text><rect fill="none" height="6" style="stroke:#C82930;stroke-width:1.0;" width="6" x="878.5" y="1025.4141"/><text fill="#000000" font-family="sans-serif" font-size="14" lengthAdjust="spacing" textLength="201" x="890.5" y="1032.6426">progressStatus: ProgressStatus</text><rect fill="none" height="6" style="stroke:#C82930;stroke-width:1.0;" width="6" x="878.5" y="1043.0234"/><text fill="#000000" font-family="sans-serif" font-size="14" lengthAdjust="spacing" textLength="137" x="890.5" y="1050.252">assignedTeam: Team</text><rect fill="none" height="6" style="stroke:#C82930;stroke-width:1.0;" width="6" x="878.5" y="1060.6328"/><text fill="#000000" font-family="sans-serif" font-size="14" lengthAdjust="spacing" textLength="195" x="890.5" y="1067.8613">assignedVehicle: List&lt;Vehicle&gt;</text><line style="stroke:#181818;stroke-width:0.5;" x1="871.5" x2="1468.5" y1="1074.9375" y2="1074.9375"/><ellipse cx="881.5" cy="1089.2422" fill="#84BE84" rx="3" ry="3" style="stroke:#038048;stroke-width:1.0;"/><text fill="#000000" font-family="sans-serif" font-size="14" lengthAdjust="spacing" textLength="181" x="890.5" y="1093.4707">getStartingDate(): LocalDate</text><ellipse cx="881.5" cy="1106.8516" fill="#84BE84" rx="3" ry="3" style="stroke:#038048;stroke-width:1.0;"/><text fill="#000000" font-family="sans-serif" font-size="14" lengthAdjust="spacing" textLength="232" x="890.5" y="1111.0801">getProgressStatus(): ProgressStatus</text><rect fill="#F24D5C" height="6" style="stroke:#C82930;stroke-width:1.0;" width="6" x="878.5" y="1121.4609"/><text fill="#000000" font-family="sans-serif" font-size="14" lengthAdjust="spacing" textLength="269" x="890.5" y="1128.6895">setStartingDate(newDate: LocalDate): void</text><rect fill="#F24D5C" height="6" style="stroke:#C82930;stroke-width:1.0;" width="6" x="878.5" y="1139.0703"/><text fill="#000000" font-family="sans-serif" font-size="14" lengthAdjust="spacing" textLength="330" x="890.5" y="1146.2988">setProgressStatus(newStatus: ProgressStatus): void</text><ellipse cx="881.5" cy="1159.6797" fill="#84BE84" rx="3" ry="3" style="stroke:#038048;stroke-width:1.0;"/><text fill="#000000" font-family="sans-serif" font-size="14" lengthAdjust="spacing" textLength="573" x="890.5" y="1163.9082">AgendaEntry(agendaEntry: AgendaEntry, newDate: LocalDate, progressStatus: PLANNED)</text></g><!--class ToDoEntry--><g id="elem_ToDoEntry"><rect codeLine="54" fill="#F1F1F1" height="118.4375" id="ToDoEntry" rx="2.5" ry="2.5" style="stroke:#181818;stroke-width:0.5;" width="191" x="1504.5" y="1008.5"/><ellipse cx="1561.75" cy="1024.5" fill="#ADD1B2" rx="11" ry="11" style="stroke:#181818;stroke-width:1.0;"/><path d="M1564.5156,1020.375 Q1564.6719,1020.1563 1564.8594,1020.0469 Q1565.0469,1019.9375 1565.2656,1019.9375 Q1565.6406,1019.9375 1565.875,1020.2031 Q1566.1094,1020.4531 1566.1094,1021.0625 L1566.1094,1022.5156 Q1566.1094,1023.125 1565.875,1023.3906 Q1565.6406,1023.6563 1565.2656,1023.6563 Q1564.9219,1023.6563 1564.7188,1023.4531 Q1564.5156,1023.2656 1564.4063,1022.75 Q1564.3594,1022.3906 1564.1719,1022.2031 Q1563.8438,1021.8281 1563.2344,1021.6094 Q1562.625,1021.3906 1562,1021.3906 Q1561.2344,1021.3906 1560.5938,1021.7188 Q1559.9688,1022.0469 1559.4688,1022.7969 Q1558.9844,1023.5469 1558.9844,1024.5781 L1558.9844,1025.6719 Q1558.9844,1026.9063 1559.875,1027.7344 Q1560.7656,1028.5469 1562.3594,1028.5469 Q1563.2969,1028.5469 1563.9531,1028.2969 Q1564.3438,1028.1406 1564.7656,1027.7031 Q1565.0313,1027.4375 1565.1719,1027.3594 Q1565.3281,1027.2813 1565.5313,1027.2813 Q1565.8594,1027.2813 1566.1094,1027.5469 Q1566.375,1027.7969 1566.375,1028.1406 Q1566.375,1028.4844 1566.0313,1028.8906 Q1565.5313,1029.4688 1564.7344,1029.7969 Q1563.6563,1030.25 1562.3594,1030.25 Q1560.8438,1030.25 1559.6406,1029.625 Q1558.6563,1029.125 1557.9688,1028.0625 Q1557.2813,1026.9844 1557.2813,1025.7031 L1557.2813,1024.5469 Q1557.2813,1023.2188 1557.8906,1022.0781 Q1558.5156,1020.9219 1559.6094,1020.3125 Q1560.7031,1019.6875 1561.9375,1019.6875 Q1562.6719,1019.6875 1563.3125,1019.8594 Q1563.9688,1020.0156 1564.5156,1020.375 Z " fill="#000000"/><text fill="#000000" font-family="sans-serif" font-size="14" lengthAdjust="spacing" textLength="68" x="1582.25" y="1030.2285">ToDoEntry</text><line style="stroke:#181818;stroke-width:0.5;" x1="1505.5" x2="1694.5" y1="1040.5" y2="1040.5"/><rect fill="none" height="6" style="stroke:#C82930;stroke-width:1.0;" width="6" x="1512.5" y="1051.8047"/><text fill="#000000" font-family="sans-serif" font-size="14" lengthAdjust="spacing" textLength="67" x="1524.5" y="1059.0332">title: String</text><rect fill="none" height="6" style="stroke:#C82930;stroke-width:1.0;" width="6" x="1512.5" y="1069.4141"/><text fill="#000000" font-family="sans-serif" font-size="14" lengthAdjust="spacing" textLength="114" x="1524.5" y="1076.6426">description: String</text><rect fill="none" height="6" style="stroke:#C82930;stroke-width:1.0;" width="6" x="1512.5" y="1087.0234"/><text fill="#000000" font-family="sans-serif" font-size="14" lengthAdjust="spacing" textLength="75" x="1524.5" y="1094.252">duration: int</text><rect fill="none" height="6" style="stroke:#C82930;stroke-width:1.0;" width="6" x="1512.5" y="1104.6328"/><text fill="#000000" font-family="sans-serif" font-size="14" lengthAdjust="spacing" textLength="165" x="1524.5" y="1111.8613">greenSpace: GreenSpace</text><line style="stroke:#181818;stroke-width:0.5;" x1="1505.5" x2="1694.5" y1="1118.9375" y2="1118.9375"/></g><!--class NotificationService--><g id="elem_NotificationService"><rect codeLine="61" fill="#F1F1F1" height="83.2188" id="NotificationService" rx="2.5" ry="2.5" style="stroke:#181818;stroke-width:0.5;" width="789" x="46.5" y="1026"/><ellipse cx="378.75" cy="1042" fill="#ADD1B2" rx="11" ry="11" style="stroke:#181818;stroke-width:1.0;"/><path d="M381.5156,1037.875 Q381.6719,1037.6563 381.8594,1037.5469 Q382.0469,1037.4375 382.2656,1037.4375 Q382.6406,1037.4375 382.875,1037.7031 Q383.1094,1037.9531 383.1094,1038.5625 L383.1094,1040.0156 Q383.1094,1040.625 382.875,1040.8906 Q382.6406,1041.1563 382.2656,1041.1563 Q381.9219,1041.1563 381.7188,1040.9531 Q381.5156,1040.7656 381.4063,1040.25 Q381.3594,1039.8906 381.1719,1039.7031 Q380.8438,1039.3281 380.2344,1039.1094 Q379.625,1038.8906 379,1038.8906 Q378.2344,1038.8906 377.5938,1039.2188 Q376.9688,1039.5469 376.4688,1040.2969 Q375.9844,1041.0469 375.9844,1042.0781 L375.9844,1043.1719 Q375.9844,1044.4063 376.875,1045.2344 Q377.7656,1046.0469 379.3594,1046.0469 Q380.2969,1046.0469 380.9531,1045.7969 Q381.3438,1045.6406 381.7656,1045.2031 Q382.0313,1044.9375 382.1719,1044.8594 Q382.3281,1044.7813 382.5313,1044.7813 Q382.8594,1044.7813 383.1094,1045.0469 Q383.375,1045.2969 383.375,1045.6406 Q383.375,1045.9844 383.0313,1046.3906 Q382.5313,1046.9688 381.7344,1047.2969 Q380.6563,1047.75 379.3594,1047.75 Q377.8438,1047.75 376.6406,1047.125 Q375.6563,1046.625 374.9688,1045.5625 Q374.2813,1044.4844 374.2813,1043.2031 L374.2813,1042.0469 Q374.2813,1040.7188 374.8906,1039.5781 Q375.5156,1038.4219 376.6094,1037.8125 Q377.7031,1037.1875 378.9375,1037.1875 Q379.6719,1037.1875 380.3125,1037.3594 Q380.9688,1037.5156 381.5156,1037.875 Z " fill="#000000"/><text fill="#000000" font-family="sans-serif" font-size="14" lengthAdjust="spacing" textLength="116" x="399.25" y="1047.7285">NotificationService</text><line style="stroke:#181818;stroke-width:0.5;" x1="47.5" x2="834.5" y1="1058" y2="1058"/><line style="stroke:#181818;stroke-width:0.5;" x1="47.5" x2="834.5" y1="1066" y2="1066"/><rect fill="#F24D5C" height="6" style="stroke:#C82930;stroke-width:1.0;" width="6" x="54.5" y="1077.3047"/><text fill="#000000" font-family="sans-serif" font-size="14" lengthAdjust="spacing" textLength="697" x="66.5" y="1084.5332">buildEmailBody(collaboratorsList: List&lt;Collaborator&gt; , agendaEntry: AgendaEntry, newDate :LocalDate): String</text><ellipse cx="57.5" cy="1097.9141" fill="#84BE84" rx="3" ry="3" style="stroke:#038048;stroke-width:1.0;"/><text fill="#000000" font-family="sans-serif" font-size="14" lengthAdjust="spacing" textLength="763" x="66.5" y="1102.1426">notifyTeam(collaboratorsList: List&lt;Collaborator&gt;, agendaEntry: AgendaEntry, email: String newDate: LocalDate): boolean</text></g><!--class AgendaEntryMapper--><g id="elem_AgendaEntryMapper"><rect codeLine="68" fill="#F1F1F1" height="100.8281" id="AgendaEntryMapper" rx="2.5" ry="2.5" style="stroke:#181818;stroke-width:0.5;" width="462" x="2051" y="677"/><ellipse cx="2212.75" cy="693" fill="#ADD1B2" rx="11" ry="11" style="stroke:#181818;stroke-width:1.0;"/><path d="M2215.5156,688.875 Q2215.6719,688.6563 2215.8594,688.5469 Q2216.0469,688.4375 2216.2656,688.4375 Q2216.6406,688.4375 2216.875,688.7031 Q2217.1094,688.9531 2217.1094,689.5625 L2217.1094,691.0156 Q2217.1094,691.625 2216.875,691.8906 Q2216.6406,692.1563 2216.2656,692.1563 Q2215.9219,692.1563 2215.7188,691.9531 Q2215.5156,691.7656 2215.4063,691.25 Q2215.3594,690.8906 2215.1719,690.7031 Q2214.8438,690.3281 2214.2344,690.1094 Q2213.625,689.8906 2213,689.8906 Q2212.2344,689.8906 2211.5938,690.2188 Q2210.9688,690.5469 2210.4688,691.2969 Q2209.9844,692.0469 2209.9844,693.0781 L2209.9844,694.1719 Q2209.9844,695.4063 2210.875,696.2344 Q2211.7656,697.0469 2213.3594,697.0469 Q2214.2969,697.0469 2214.9531,696.7969 Q2215.3438,696.6406 2215.7656,696.2031 Q2216.0313,695.9375 2216.1719,695.8594 Q2216.3281,695.7813 2216.5313,695.7813 Q2216.8594,695.7813 2217.1094,696.0469 Q2217.375,696.2969 2217.375,696.6406 Q2217.375,696.9844 2217.0313,697.3906 Q2216.5313,697.9688 2215.7344,698.2969 Q2214.6563,698.75 2213.3594,698.75 Q2211.8438,698.75 2210.6406,698.125 Q2209.6563,697.625 2208.9688,696.5625 Q2208.2813,695.4844 2208.2813,694.2031 L2208.2813,693.0469 Q2208.2813,691.7188 2208.8906,690.5781 Q2209.5156,689.4219 2210.6094,688.8125 Q2211.7031,688.1875 2212.9375,688.1875 Q2213.6719,688.1875 2214.3125,688.3594 Q2214.9688,688.5156 2215.5156,688.875 Z " fill="#000000"/><text fill="#000000" font-family="sans-serif" font-size="14" lengthAdjust="spacing" textLength="130" x="2233.25" y="698.7285">AgendaEntryMapper</text><line style="stroke:#181818;stroke-width:0.5;" x1="2052" x2="2512" y1="709" y2="709"/><line style="stroke:#181818;stroke-width:0.5;" x1="2052" x2="2512" y1="717" y2="717"/><ellipse cx="2062" cy="731.3047" fill="#84BE84" rx="3" ry="3" style="stroke:#038048;stroke-width:1.0;"/><text fill="#000000" font-family="sans-serif" font-size="14" lengthAdjust="spacing" textLength="327" x="2071" y="735.5332">toDto(agendaEntry: AgendaEntry): AgendaEntryDto</text><ellipse cx="2062" cy="748.9141" fill="#84BE84" rx="3" ry="3" style="stroke:#038048;stroke-width:1.0;"/><text fill="#000000" font-family="sans-serif" font-size="14" lengthAdjust="spacing" textLength="375" x="2071" y="753.1426">toDomain(agendaEntryDto: AgendaEntryDto): AgendaEntry</text><ellipse cx="2062" cy="766.5234" fill="#84BE84" rx="3" ry="3" style="stroke:#038048;stroke-width:1.0;"/><text fill="#000000" font-family="sans-serif" font-size="14" lengthAdjust="spacing" textLength="436" x="2071" y="770.752">toDtoList(agendaEntries: List&lt;AgendaEntry&gt;): List&lt;AgendaEntryDto&gt;</text></g><!--class AgendaEntryDto--><g id="elem_AgendaEntryDto"><rect codeLine="74" fill="#F1F1F1" height="417.7969" id="AgendaEntryDto" rx="2.5" ry="2.5" style="stroke:#181818;stroke-width:0.5;" width="1564" x="1776" y="858.5"/><ellipse cx="2501.75" cy="874.5" fill="#ADD1B2" rx="11" ry="11" style="stroke:#181818;stroke-width:1.0;"/><path d="M2504.5156,870.375 Q2504.6719,870.1563 2504.8594,870.0469 Q2505.0469,869.9375 2505.2656,869.9375 Q2505.6406,869.9375 2505.875,870.2031 Q2506.1094,870.4531 2506.1094,871.0625 L2506.1094,872.5156 Q2506.1094,873.125 2505.875,873.3906 Q2505.6406,873.6563 2505.2656,873.6563 Q2504.9219,873.6563 2504.7188,873.4531 Q2504.5156,873.2656 2504.4063,872.75 Q2504.3594,872.3906 2504.1719,872.2031 Q2503.8438,871.8281 2503.2344,871.6094 Q2502.625,871.3906 2502,871.3906 Q2501.2344,871.3906 2500.5938,871.7188 Q2499.9688,872.0469 2499.4688,872.7969 Q2498.9844,873.5469 2498.9844,874.5781 L2498.9844,875.6719 Q2498.9844,876.9063 2499.875,877.7344 Q2500.7656,878.5469 2502.3594,878.5469 Q2503.2969,878.5469 2503.9531,878.2969 Q2504.3438,878.1406 2504.7656,877.7031 Q2505.0313,877.4375 2505.1719,877.3594 Q2505.3281,877.2813 2505.5313,877.2813 Q2505.8594,877.2813 2506.1094,877.5469 Q2506.375,877.7969 2506.375,878.1406 Q2506.375,878.4844 2506.0313,878.8906 Q2505.5313,879.4688 2504.7344,879.7969 Q2503.6563,880.25 2502.3594,880.25 Q2500.8438,880.25 2499.6406,879.625 Q2498.6563,879.125 2497.9688,878.0625 Q2497.2813,876.9844 2497.2813,875.7031 L2497.2813,874.5469 Q2497.2813,873.2188 2497.8906,872.0781 Q2498.5156,870.9219 2499.6094,870.3125 Q2500.7031,869.6875 2501.9375,869.6875 Q2502.6719,869.6875 2503.3125,869.8594 Q2503.9688,870.0156 2504.5156,870.375 Z " fill="#000000"/><text fill="#000000" font-family="sans-serif" font-size="14" lengthAdjust="spacing" textLength="104" x="2522.25" y="880.2285">AgendaEntryDto</text><line style="stroke:#181818;stroke-width:0.5;" x1="1777" x2="3339" y1="890.5" y2="890.5"/><rect fill="none" height="6" style="stroke:#C82930;stroke-width:1.0;" width="6" x="1784" y="901.8047"/><text fill="#000000" font-family="sans-serif" font-size="14" lengthAdjust="spacing" textLength="67" x="1796" y="909.0332">title: String</text><rect fill="none" height="6" style="stroke:#C82930;stroke-width:1.0;" width="6" x="1784" y="919.4141"/><text fill="#000000" font-family="sans-serif" font-size="14" lengthAdjust="spacing" textLength="114" x="1796" y="926.6426">description: String</text><rect fill="none" height="6" style="stroke:#C82930;stroke-width:1.0;" width="6" x="1784" y="937.0234"/><text fill="#000000" font-family="sans-serif" font-size="14" lengthAdjust="spacing" textLength="75" x="1796" y="944.252">duration: int</text><rect fill="none" height="6" style="stroke:#C82930;stroke-width:1.0;" width="6" x="1784" y="954.6328"/><text fill="#000000" font-family="sans-serif" font-size="14" lengthAdjust="spacing" textLength="191" x="1796" y="961.8613">urgencyStatus: UrgencyStatus</text><rect fill="none" height="6" style="stroke:#C82930;stroke-width:1.0;" width="6" x="1784" y="972.2422"/><text fill="#000000" font-family="sans-serif" font-size="14" lengthAdjust="spacing" textLength="187" x="1796" y="979.4707">greenSpace: GreenSpaceDto</text><rect fill="none" height="6" style="stroke:#C82930;stroke-width:1.0;" width="6" x="1784" y="989.8516"/><text fill="#000000" font-family="sans-serif" font-size="14" lengthAdjust="spacing" textLength="149" x="1796" y="997.0801">startingDate: LocalDate</text><rect fill="none" height="6" style="stroke:#C82930;stroke-width:1.0;" width="6" x="1784" y="1007.4609"/><text fill="#000000" font-family="sans-serif" font-size="14" lengthAdjust="spacing" textLength="201" x="1796" y="1014.6895">progressStatus: ProgressStatus</text><rect fill="none" height="6" style="stroke:#C82930;stroke-width:1.0;" width="6" x="1784" y="1025.0703"/><text fill="#000000" font-family="sans-serif" font-size="14" lengthAdjust="spacing" textLength="207" x="1796" y="1032.2988">assignedTeam: List&lt;VehicleDto&gt;</text><rect fill="none" height="6" style="stroke:#C82930;stroke-width:1.0;" width="6" x="1784" y="1042.6797"/><text fill="#000000" font-family="sans-serif" font-size="14" lengthAdjust="spacing" textLength="159" x="1796" y="1049.9082">assignedTeam: TeamDto</text><line style="stroke:#181818;stroke-width:0.5;" x1="1777" x2="3339" y1="1056.9844" y2="1056.9844"/><ellipse cx="1787" cy="1071.2891" fill="#84BE84" rx="3" ry="3" style="stroke:#038048;stroke-width:1.0;"/><text fill="#000000" font-family="sans-serif" font-size="14" lengthAdjust="spacing" textLength="1538" x="1796" y="1075.5176">AgendaEntryDto(title: String, description: String, duration: int, urgencyStatus: UrgencyStatus, greenSpace: GreenSpaceDto, startingDate: LocalDate, progressStatus: ProgressStatus, assignedTeam: TeamDto, assignedVehicle: List&lt;VehicleDto&gt;)</text><ellipse cx="1787" cy="1088.8984" fill="#84BE84" rx="3" ry="3" style="stroke:#038048;stroke-width:1.0;"/><text fill="#000000" font-family="sans-serif" font-size="14" lengthAdjust="spacing" textLength="102" x="1796" y="1093.127">getTitle(): String</text><ellipse cx="1787" cy="1106.5078" fill="#84BE84" rx="3" ry="3" style="stroke:#038048;stroke-width:1.0;"/><text fill="#000000" font-family="sans-serif" font-size="14" lengthAdjust="spacing" textLength="146" x="1796" y="1110.7363">getDescription(): String</text><ellipse cx="1787" cy="1124.1172" fill="#84BE84" rx="3" ry="3" style="stroke:#038048;stroke-width:1.0;"/><text fill="#000000" font-family="sans-serif" font-size="14" lengthAdjust="spacing" textLength="107" x="1796" y="1128.3457">getDuration(): int</text><ellipse cx="1787" cy="1141.7266" fill="#84BE84" rx="3" ry="3" style="stroke:#038048;stroke-width:1.0;"/><text fill="#000000" font-family="sans-serif" font-size="14" lengthAdjust="spacing" textLength="222" x="1796" y="1145.9551">getUrgencyStatus(): UrgencyStatus</text><ellipse cx="1787" cy="1159.3359" fill="#84BE84" rx="3" ry="3" style="stroke:#038048;stroke-width:1.0;"/><text fill="#000000" font-family="sans-serif" font-size="14" lengthAdjust="spacing" textLength="220" x="1796" y="1163.5645">getGreenSpace(): GreenSpaceDto</text><ellipse cx="1787" cy="1176.9453" fill="#84BE84" rx="3" ry="3" style="stroke:#038048;stroke-width:1.0;"/><text fill="#000000" font-family="sans-serif" font-size="14" lengthAdjust="spacing" textLength="181" x="1796" y="1181.1738">getStartingDate(): LocalDate</text><ellipse cx="1787" cy="1194.5547" fill="#84BE84" rx="3" ry="3" style="stroke:#038048;stroke-width:1.0;"/><text fill="#000000" font-family="sans-serif" font-size="14" lengthAdjust="spacing" textLength="232" x="1796" y="1198.7832">getProgressStatus(): ProgressStatus</text><ellipse cx="1787" cy="1212.1641" fill="#84BE84" rx="3" ry="3" style="stroke:#038048;stroke-width:1.0;"/><text fill="#000000" font-family="sans-serif" font-size="14" lengthAdjust="spacing" textLength="190" x="1796" y="1216.3926">getAssignedTeam(): TeamDto</text><ellipse cx="1787" cy="1229.7734" fill="#84BE84" rx="3" ry="3" style="stroke:#038048;stroke-width:1.0;"/><text fill="#000000" font-family="sans-serif" font-size="14" lengthAdjust="spacing" textLength="248" x="1796" y="1234.002">getAssignedVehicle(): List&lt;VehicleDto&gt;</text><ellipse cx="1787" cy="1247.3828" fill="#84BE84" rx="3" ry="3" style="stroke:#038048;stroke-width:1.0;"/><text fill="#000000" font-family="sans-serif" font-size="14" lengthAdjust="spacing" textLength="254" x="1796" y="1251.6113">setAssignedTeam(team: TeamDto): void</text><ellipse cx="1787" cy="1264.9922" fill="#84BE84" rx="3" ry="3" style="stroke:#038048;stroke-width:1.0;"/><text fill="#000000" font-family="sans-serif" font-size="14" lengthAdjust="spacing" textLength="347" x="1796" y="1269.2207">setAssignedVehicle(vehicleList: List&lt;VehicleDto&gt;): void</text></g><!--link PostponeAgendaEntryUI to PostponeAgendaEntryController--><g id="link_PostponeAgendaEntryUI_PostponeAgendaEntryController"><path codeLine="99" d="M826,90.3 C826,110.51 826,140.98 826,169.97 " fill="none" id="PostponeAgendaEntryUI-to-PostponeAgendaEntryController" style="stroke:#181818;stroke-width:1.0;stroke-dasharray:7.0,7.0;"/><polygon fill="#181818" points="826,174.99,830,165.99,826,169.99,822,165.99,826,174.99" style="stroke:#181818;stroke-width:1.0;"/></g><!--link PostponeAgendaEntryController to Repositories--><g id="link_PostponeAgendaEntryController_Repositories"><path codeLine="100" d="M751.83,329.13 C713.71,368.26 667.54,415.65 630.16,454.01 " fill="none" id="PostponeAgendaEntryController-to-Repositories" style="stroke:#181818;stroke-width:1.0;stroke-dasharray:7.0,7.0;"/><polygon fill="#181818" points="626.57,457.7,635.719,454.0535,630.0625,454.122,629.9941,448.4655,626.57,457.7" style="stroke:#181818;stroke-width:1.0;"/></g><!--link Repositories to Repositories--><g id="link_Repositories_Repositories"><path codeLine="101" d="M694.09,509.16 C714.85,511.68 729,517.29 729,526 C729,533.96 717.18,539.33 699.29,542.12 " fill="none" id="Repositories-to-Repositories" style="stroke:#181818;stroke-width:1.0;"/><polygon fill="#181818" points="694.09,542.84,703.5532,545.5691,699.0428,542.1549,702.457,537.6445,694.09,542.84" style="stroke:#181818;stroke-width:1.0;"/><text fill="#000000" font-family="sans-serif" font-size="13" lengthAdjust="spacing" textLength="49" x="735" y="531.4951">instance</text></g><!--link PostponeAgendaEntryController to EntryRepository--><g id="link_PostponeAgendaEntryController_EntryRepository"><path codeLine="102" d="M836.97,329.27 C843.5,402.99 842.32,514.85 791,594 C774.94,618.76 752.53,639.43 727.94,656.5 " fill="none" id="PostponeAgendaEntryController-to-EntryRepository" style="stroke:#181818;stroke-width:1.0;stroke-dasharray:7.0,7.0;"/><polygon fill="#181818" points="723.65,659.43,733.3396,657.6659,727.7814,656.6138,728.8336,651.0556,723.65,659.43" style="stroke:#181818;stroke-width:1.0;"/></g><!--link Repositories to EntryRepository--><g id="link_Repositories_EntryRepository"><path codeLine="103" d="M561,594.26 C561,613.39 561,634.31 561,653.75 " fill="none" id="Repositories-to-EntryRepository" style="stroke:#181818;stroke-width:1.0;"/><polygon fill="#181818" points="561,659.19,565,650.19,561,654.19,557,650.19,561,659.19" style="stroke:#181818;stroke-width:1.0;"/></g><!--link EntryRepository to AgendaEntry--><g id="link_EntryRepository_AgendaEntry"><path codeLine="104" d="M724.29,795.61 C766.86,814.62 812.21,836.23 853,858.5 C909.33,889.26 968.74,926.76 1020.71,961.41 " fill="none" id="EntryRepository-to-AgendaEntry" style="stroke:#181818;stroke-width:1.0;"/><polygon fill="#181818" points="1025.08,964.33,1019.8103,956.0095,1020.9197,961.5565,1015.3727,962.6659,1025.08,964.33" style="stroke:#181818;stroke-width:1.0;"/><text fill="#000000" font-family="sans-serif" font-size="13" lengthAdjust="spacing" textLength="5" x="1009.2538" y="953.6562">*</text></g><!--link AgendaEntryMapper to AgendaEntryDto--><g id="link_AgendaEntryMapper_AgendaEntryDto"><path codeLine="105" d="M2322.43,778.01 C2339.84,799.33 2361.49,825.85 2384.56,854.1 " fill="none" id="AgendaEntryMapper-to-AgendaEntryDto" style="stroke:#181818;stroke-width:1.0;stroke-dasharray:7.0,7.0;"/><polygon fill="#181818" points="2387.98,858.28,2385.371,848.783,2384.8115,854.4121,2379.1824,853.8526,2387.98,858.28" style="stroke:#181818;stroke-width:1.0;"/></g><!--link AgendaEntryMapper to AgendaEntry--><g id="link_AgendaEntryMapper_AgendaEntry"><path codeLine="106" d="M2050.87,740.78 C1888.53,755.46 1668.8,787.7 1487,858.5 C1422.29,883.7 1357.08,923.46 1302.76,961.49 " fill="none" id="AgendaEntryMapper-to-AgendaEntry" style="stroke:#181818;stroke-width:1.0;stroke-dasharray:7.0,7.0;"/><polygon fill="#181818" points="1298.54,964.46,1308.2065,962.5735,1302.6355,961.5917,1303.6173,956.0207,1298.54,964.46" style="stroke:#181818;stroke-width:1.0;"/></g><!--link PostponeAgendaEntryController to NotificationService--><g id="link_PostponeAgendaEntryController_NotificationService"><path codeLine="107" d="M915.34,329.06 C925.35,341.66 934.07,355.42 940,370 C1015.25,555.06 1048.59,651.81 940,819.5 C916.97,855.07 891.26,840.28 853,858.5 C737.74,913.39 606.36,980.53 523.58,1023.4 " fill="none" id="PostponeAgendaEntryController-to-NotificationService" style="stroke:#181818;stroke-width:1.0;stroke-dasharray:7.0,7.0;"/><polygon fill="#181818" points="518.69,1025.93,528.5214,1025.3446,523.1303,1023.6313,524.8436,1018.2402,518.69,1025.93" style="stroke:#181818;stroke-width:1.0;"/></g><!--link AgendaEntry to ToDoEntry--><g id="link_AgendaEntry_ToDoEntry"><path codeLine="108" d="M1469.82,1067.5 C1479.64,1067.5 1489.45,1067.5 1499.27,1067.5 " fill="none" id="AgendaEntry-to-ToDoEntry" style="stroke:#181818;stroke-width:1.0;"/><polygon fill="#181818" points="1504.4,1067.5,1495.4,1063.5,1499.4,1067.5,1495.4,1071.5,1504.4,1067.5" style="stroke:#181818;stroke-width:1.0;"/></g><!--SRC=[lLVRRk8m47tFLrXz2alQ3uXMI6r15H8GHEXA- -WcBhKQxCWshQ9L_ttj90s-9M4hRNa04X_FZCySpzZy5PCICdW4_0Ncz1sJ0tY61KS1xqOAJ10GLOb0IOjAFGL12RDNU43WSGd-141-iW9o3hQKYv8IT7j098SB8bZL8Jw2Z_Ey-sIptoMhrM8tDl-UoczQ58YrIFMv1WoLb6D16KOy1ZljIGCXPQ0RgsAmC5zqqEcmvt2Y8Gz8QA0LvY8yy6CC7ZbYAU8SKpA9WNh_KyFD1PrfHihMNJqMGWCN0tDU10XwdqE1f5MQmKBzbHwUA2qG9Dfo2HNukTeZUFoQnJUASpTLysHzkzoqv7- -t2ssIRhS9xlVMbQQ7Egvq0QR437X0f8CzQJi7zFMSAbRqZBLPMlP-Wmd0rvhfEL7JUXpBGaobsq1dPL3KpEkGcPMF4umRhoM3k-gXtGTfeB9NHm3T8Iu65DYO-fKvb816aRNZo4Udt8Y8BMmtoQRnJm6MqOFJEw2L41nuXwPDcmq7ckJ3NB0uv3rJh9DJjhC18PMrybyiN9aghbmSYNrmeGaqLgeXIgDOEpWxFJBmd0WA5UxCmRgkmVm2xtWh41jtjgdcPlxL8jH2TKVPGqr0rFWmL2vPNouLXZpB4zoffySdu4f-Be0dLIiRZTIC9F-xRgdSreRj7Cli53iDxl86iiHpnWkXIpnVOWJWyqm9i8Qan4YaafLIlCFtV_-43UgdEEijfSYzeOpv2ZrwOIBVA5s-XtDgp2JxGe-KHa3PLmhC_VQ-nc8m2Yx8DQJxLdgLEys5xaTybhNgay_bxMxZwvJTOrgdmpjyZKiI-CGqIn3K5aGU-KsiLkdEvlAsCb8mpND-2Aepn5d8_MfnkaGOzNSaP091D-dzHEJdhFgSpy-weyNRGkRwcyeodh1TPgahuAxSZ3v3Wr-8n-baSbYD4XSrCzLr4TFDC98v5zNDDoF53sUyyXUhJViAnWIC3ypC0XhEL4OMrirmA15eVe5LkFFN2bmlyh-QsTjZcmQsmhlrv46R1aF9oC2dQh-QrWNUaBz7PUxVjwQNwsAwpdlEt7vBtutDxFXYrKmVE5JyuqJkt6tkBusH-FkTd61MVjSxrYs0VRvNc6kVbmPTTtjDigLrK16GHT4xpaQw7Q1ZAqxu0H_0G00]--></g></svg>