<?xml version="1.0" encoding="UTF-8" standalone="no"?><svg xmlns="http://www.w3.org/2000/svg" xmlns:xlink="http://www.w3.org/1999/xlink" contentStyleType="text/css" height="623px" preserveAspectRatio="none" style="width:1338px;height:623px;background:#FFFFFF;" version="1.1" viewBox="0 0 1338 623" width="1338px" zoomAndPan="magnify"><defs/><g><rect fill="#FFFFFF" height="431.0156" style="stroke:#181818;stroke-width:1.0;" width="10" x="18.5" y="92.6094"/><rect fill="#FFFFFF" height="72.9609" style="stroke:#181818;stroke-width:1.0;" width="10" x="325.5" y="114.9609"/><rect fill="#FFFFFF" height="30.3516" style="stroke:#181818;stroke-width:1.0;" width="10" x="325.5" y="218.2734"/><rect fill="#FFFFFF" height="30.3516" style="stroke:#181818;stroke-width:1.0;" width="10" x="325.5" y="278.9766"/><rect fill="#FFFFFF" height="30.3516" style="stroke:#181818;stroke-width:1.0;" width="10" x="325.5" y="493.2734"/><rect fill="#FFFFFF" height="76.7969" style="stroke:#181818;stroke-width:1.0;" width="10" x="624.5" y="309.3281"/><rect fill="#FFFFFF" height="30.3516" style="stroke:#181818;stroke-width:1.0;" width="10" x="624.5" y="462.9219"/><rect fill="#FFFFFF" height="76.7969" style="stroke:#181818;stroke-width:1.0;" width="10" x="923.5" y="386.125"/><line style="stroke:#181818;stroke-width:0.5;stroke-dasharray:5.0,5.0;" x1="23" x2="23" y1="82.6094" y2="541.625"/><line style="stroke:#181818;stroke-width:0.5;stroke-dasharray:5.0,5.0;" x1="330" x2="330" y1="82.6094" y2="541.625"/><line style="stroke:#181818;stroke-width:0.5;stroke-dasharray:5.0,5.0;" x1="629" x2="629" y1="154.2656" y2="541.625"/><line style="stroke:#181818;stroke-width:0.5;stroke-dasharray:5.0,5.0;" x1="928" x2="928" y1="82.6094" y2="541.625"/><line style="stroke:#181818;stroke-width:0.5;stroke-dasharray:5.0,5.0;" x1="1068" x2="1068" y1="82.6094" y2="541.625"/><line style="stroke:#181818;stroke-width:0.5;stroke-dasharray:5.0,5.0;" x1="1175" x2="1175" y1="82.6094" y2="541.625"/><line style="stroke:#181818;stroke-width:0.5;stroke-dasharray:5.0,5.0;" x1="1283" x2="1283" y1="82.6094" y2="541.625"/><text fill="#000000" font-family="sans-serif" font-size="14" lengthAdjust="spacing" textLength="31" x="5" y="79.5332">GSM</text><ellipse cx="23.5" cy="13.5" fill="#E3E3E3" rx="8" ry="8" style="stroke:#181818;stroke-width:0.5;"/><path d="M23.5,21.5 L23.5,48.5 M10.5,29.5 L36.5,29.5 M23.5,48.5 L10.5,63.5 M23.5,48.5 L36.5,63.5 " fill="none" style="stroke:#181818;stroke-width:0.5;"/><text fill="#000000" font-family="sans-serif" font-size="14" lengthAdjust="spacing" textLength="31" x="5" y="555.1582">GSM</text><ellipse cx="23.5" cy="566.7344" fill="#E3E3E3" rx="8" ry="8" style="stroke:#181818;stroke-width:0.5;"/><path d="M23.5,574.7344 L23.5,601.7344 M10.5,582.7344 L36.5,582.7344 M23.5,601.7344 L10.5,616.7344 M23.5,601.7344 L36.5,616.7344 " fill="none" style="stroke:#181818;stroke-width:0.5;"/><rect fill="#E3E3E3" height="31.6094" rx="2.5" ry="2.5" style="stroke:#181818;stroke-width:0.5;" width="163" x="249" y="50"/><text fill="#000000" font-family="sans-serif" font-size="14" lengthAdjust="spacing" textLength="149" x="256" y="71.5332">:RegisterGreenSpaceUI</text><rect fill="#E3E3E3" height="31.6094" rx="2.5" ry="2.5" style="stroke:#181818;stroke-width:0.5;" width="163" x="249" y="540.625"/><text fill="#000000" font-family="sans-serif" font-size="14" lengthAdjust="spacing" textLength="149" x="256" y="562.1582">:RegisterGreenSpaceUI</text><rect fill="#E3E3E3" height="31.6094" rx="2.5" ry="2.5" style="stroke:#181818;stroke-width:0.5;" width="213" x="523" y="540.625"/><text fill="#000000" font-family="sans-serif" font-size="14" lengthAdjust="spacing" textLength="199" x="530" y="562.1582">:RegisterGreenSpaceController</text><rect fill="#E3E3E3" height="49.2188" rx="2.5" ry="2.5" style="stroke:#181818;stroke-width:0.5;" width="163" x="847" y="32.3906"/><text fill="#000000" font-family="sans-serif" font-size="14" lengthAdjust="spacing" textLength="149" x="854" y="53.9238">greenSpaceRepository:</text><text fill="#000000" font-family="sans-serif" font-size="14" lengthAdjust="spacing" textLength="148" x="854.5" y="71.5332">GreenSpaceRepository</text><rect fill="#E3E3E3" height="49.2188" rx="2.5" ry="2.5" style="stroke:#181818;stroke-width:0.5;" width="163" x="847" y="540.625"/><text fill="#000000" font-family="sans-serif" font-size="14" lengthAdjust="spacing" textLength="149" x="854" y="562.1582">greenSpaceRepository:</text><text fill="#000000" font-family="sans-serif" font-size="14" lengthAdjust="spacing" textLength="148" x="854.5" y="579.7676">GreenSpaceRepository</text><rect fill="#E3E3E3" height="31.6094" rx="2.5" ry="2.5" style="stroke:#181818;stroke-width:0.5;" width="97" x="1020" y="50"/><text fill="#000000" font-family="sans-serif" font-size="14" lengthAdjust="spacing" textLength="83" x="1027" y="71.5332">:Repositories</text><rect fill="#E3E3E3" height="31.6094" rx="2.5" ry="2.5" style="stroke:#181818;stroke-width:0.5;" width="97" x="1020" y="540.625"/><text fill="#000000" font-family="sans-serif" font-size="14" lengthAdjust="spacing" textLength="83" x="1027" y="562.1582">:Repositories</text><rect fill="#E3E3E3" height="49.2188" rx="2.5" ry="2.5" style="stroke:#181818;stroke-width:0.5;" width="97" x="1127" y="32.3906"/><text fill="#000000" font-family="sans-serif" font-size="14" lengthAdjust="spacing" textLength="74" x="1138.5" y="53.9238">repositories</text><text fill="#000000" font-family="sans-serif" font-size="14" lengthAdjust="spacing" textLength="83" x="1134" y="71.5332">:Repositories</text><rect fill="#E3E3E3" height="49.2188" rx="2.5" ry="2.5" style="stroke:#181818;stroke-width:0.5;" width="97" x="1127" y="540.625"/><text fill="#000000" font-family="sans-serif" font-size="14" lengthAdjust="spacing" textLength="74" x="1138.5" y="562.1582">repositories</text><text fill="#000000" font-family="sans-serif" font-size="14" lengthAdjust="spacing" textLength="83" x="1134" y="579.7676">:Repositories</text><rect fill="#E3E3E3" height="31.6094" rx="2.5" ry="2.5" style="stroke:#181818;stroke-width:0.5;" width="98" x="1234" y="50"/><text fill="#000000" font-family="sans-serif" font-size="14" lengthAdjust="spacing" textLength="84" x="1241" y="71.5332">:GreenSpace</text><rect fill="#E3E3E3" height="31.6094" rx="2.5" ry="2.5" style="stroke:#181818;stroke-width:0.5;" width="98" x="1234" y="540.625"/><text fill="#000000" font-family="sans-serif" font-size="14" lengthAdjust="spacing" textLength="84" x="1241" y="562.1582">:GreenSpace</text><rect fill="#FFFFFF" height="431.0156" style="stroke:#181818;stroke-width:1.0;" width="10" x="18.5" y="92.6094"/><rect fill="#FFFFFF" height="72.9609" style="stroke:#181818;stroke-width:1.0;" width="10" x="325.5" y="114.9609"/><rect fill="#FFFFFF" height="30.3516" style="stroke:#181818;stroke-width:1.0;" width="10" x="325.5" y="218.2734"/><rect fill="#FFFFFF" height="30.3516" style="stroke:#181818;stroke-width:1.0;" width="10" x="325.5" y="278.9766"/><rect fill="#FFFFFF" height="30.3516" style="stroke:#181818;stroke-width:1.0;" width="10" x="325.5" y="493.2734"/><rect fill="#FFFFFF" height="76.7969" style="stroke:#181818;stroke-width:1.0;" width="10" x="624.5" y="309.3281"/><rect fill="#FFFFFF" height="30.3516" style="stroke:#181818;stroke-width:1.0;" width="10" x="624.5" y="462.9219"/><rect fill="#FFFFFF" height="76.7969" style="stroke:#181818;stroke-width:1.0;" width="10" x="923.5" y="386.125"/><polygon fill="#181818" points="313.5,110.9609,323.5,114.9609,313.5,118.9609,317.5,114.9609" style="stroke:#181818;stroke-width:1.0;"/><line style="stroke:#181818;stroke-width:1.0;" x1="28.5" x2="319.5" y1="114.9609" y2="114.9609"/><text fill="#000000" font-family="sans-serif" font-size="13" font-weight="bold" lengthAdjust="spacing" textLength="7" x="35.5" y="110.1045">1</text><text fill="#000000" font-family="sans-serif" font-size="13" lengthAdjust="spacing" textLength="209" x="46.5" y="110.1045">wants to register a new green space</text><polygon fill="#181818" points="511,141.3125,521,145.3125,511,149.3125,515,145.3125" style="stroke:#181818;stroke-width:1.0;"/><line style="stroke:#181818;stroke-width:1.0;" x1="335.5" x2="517" y1="145.3125" y2="145.3125"/><text fill="#000000" font-family="sans-serif" font-size="13" font-weight="bold" lengthAdjust="spacing" textLength="7" x="342.5" y="140.4561">2</text><text fill="#000000" font-family="sans-serif" font-size="13" lengthAdjust="spacing" textLength="36" x="353.5" y="140.4561">create</text><rect fill="#E3E3E3" height="31.6094" rx="2.5" ry="2.5" style="stroke:#181818;stroke-width:0.5;" width="213" x="523" y="122.9609"/><text fill="#000000" font-family="sans-serif" font-size="14" lengthAdjust="spacing" textLength="199" x="530" y="144.4941">:RegisterGreenSpaceController</text><polygon fill="#181818" points="39.5,183.9219,29.5,187.9219,39.5,191.9219,35.5,187.9219" style="stroke:#181818;stroke-width:1.0;"/><line style="stroke:#181818;stroke-width:1.0;stroke-dasharray:2.0,2.0;" x1="33.5" x2="329.5" y1="187.9219" y2="187.9219"/><text fill="#000000" font-family="sans-serif" font-size="13" font-weight="bold" lengthAdjust="spacing" textLength="7" x="45.5" y="183.0654">3</text><text fill="#000000" font-family="sans-serif" font-size="13" lengthAdjust="spacing" textLength="262" x="56.5" y="183.0654">requests data (name, type, area, loggedUser)</text><polygon fill="#181818" points="313.5,214.2734,323.5,218.2734,313.5,222.2734,317.5,218.2734" style="stroke:#181818;stroke-width:1.0;"/><line style="stroke:#181818;stroke-width:1.0;" x1="28.5" x2="319.5" y1="218.2734" y2="218.2734"/><text fill="#000000" font-family="sans-serif" font-size="13" font-weight="bold" lengthAdjust="spacing" textLength="7" x="35.5" y="213.417">4</text><text fill="#000000" font-family="sans-serif" font-size="13" lengthAdjust="spacing" textLength="209" x="46.5" y="213.417">the user enters and selects the data</text><polygon fill="#181818" points="39.5,244.625,29.5,248.625,39.5,252.625,35.5,248.625" style="stroke:#181818;stroke-width:1.0;"/><line style="stroke:#181818;stroke-width:1.0;" x1="33.5" x2="329.5" y1="248.625" y2="248.625"/><text fill="#000000" font-family="sans-serif" font-size="13" font-weight="bold" lengthAdjust="spacing" textLength="7" x="45.5" y="243.7686">5</text><text fill="#000000" font-family="sans-serif" font-size="13" lengthAdjust="spacing" textLength="219" x="56.5" y="243.7686">shows data and requests confirmation</text><polygon fill="#181818" points="313.5,274.9766,323.5,278.9766,313.5,282.9766,317.5,278.9766" style="stroke:#181818;stroke-width:1.0;"/><line style="stroke:#181818;stroke-width:1.0;" x1="28.5" x2="319.5" y1="278.9766" y2="278.9766"/><text fill="#000000" font-family="sans-serif" font-size="13" font-weight="bold" lengthAdjust="spacing" textLength="7" x="35.5" y="274.1201">6</text><text fill="#000000" font-family="sans-serif" font-size="13" lengthAdjust="spacing" textLength="78" x="46.5" y="274.1201">user confirms</text><polygon fill="#181818" points="612.5,305.3281,622.5,309.3281,612.5,313.3281,616.5,309.3281" style="stroke:#181818;stroke-width:1.0;"/><line style="stroke:#181818;stroke-width:1.0;" x1="330.5" x2="618.5" y1="309.3281" y2="309.3281"/><text fill="#000000" font-family="sans-serif" font-size="13" font-weight="bold" lengthAdjust="spacing" textLength="7" x="337.5" y="304.4717">7</text><text fill="#000000" font-family="sans-serif" font-size="13" lengthAdjust="spacing" textLength="259" x="348.5" y="304.4717">createNewGS(name, type, area, loggedUser)</text><rect fill="none" height="41.4453" style="stroke:#000000;stroke-width:1.5;" width="219" x="520" y="317.3281"/><path d="M520,317.3281 L582,317.3281 L582,325.3281 L572,335.3281 L520,335.3281 L520,317.3281 " fill="#EEEEEE" style="stroke:#000000;stroke-width:2.0;"/><text fill="#000000" font-family="sans-serif" font-size="13" font-weight="bold" lengthAdjust="spacing" textLength="17" x="533" y="332.8232">ref</text><text fill="#000000" font-family="sans-serif" font-size="12" lengthAdjust="spacing" textLength="156" x="551.5" y="351.7852">Get Green Space Repository</text><polygon fill="#181818" points="911.5,382.125,921.5,386.125,911.5,390.125,915.5,386.125" style="stroke:#181818;stroke-width:1.0;"/><line style="stroke:#181818;stroke-width:1.0;" x1="629.5" x2="917.5" y1="386.125" y2="386.125"/><text fill="#000000" font-family="sans-serif" font-size="13" font-weight="bold" lengthAdjust="spacing" textLength="7" x="636.5" y="381.2686">8</text><text fill="#000000" font-family="sans-serif" font-size="13" lengthAdjust="spacing" textLength="259" x="647.5" y="381.2686">createNewGS(name, type, area, loggedUser)</text><rect fill="none" height="41.4453" style="stroke:#000000;stroke-width:1.5;" width="169" x="844" y="394.125"/><path d="M844,394.125 L906,394.125 L906,402.125 L896,412.125 L844,412.125 L844,394.125 " fill="#EEEEEE" style="stroke:#000000;stroke-width:2.0;"/><text fill="#000000" font-family="sans-serif" font-size="13" font-weight="bold" lengthAdjust="spacing" textLength="17" x="857" y="409.6201">ref</text><text fill="#000000" font-family="sans-serif" font-size="12" lengthAdjust="spacing" textLength="122" x="867.5" y="428.582">Register Green Space</text><polygon fill="#181818" points="645.5,458.9219,635.5,462.9219,645.5,466.9219,641.5,462.9219" style="stroke:#181818;stroke-width:1.0;"/><line style="stroke:#181818;stroke-width:1.0;stroke-dasharray:2.0,2.0;" x1="639.5" x2="927.5" y1="462.9219" y2="462.9219"/><text fill="#000000" font-family="sans-serif" font-size="13" font-weight="bold" lengthAdjust="spacing" textLength="7" x="651.5" y="458.0654">9</text><text fill="#000000" font-family="sans-serif" font-size="13" lengthAdjust="spacing" textLength="69" x="662.5" y="458.0654">greenSpace</text><polygon fill="#181818" points="346.5,489.2734,336.5,493.2734,346.5,497.2734,342.5,493.2734" style="stroke:#181818;stroke-width:1.0;"/><line style="stroke:#181818;stroke-width:1.0;stroke-dasharray:2.0,2.0;" x1="340.5" x2="628.5" y1="493.2734" y2="493.2734"/><text fill="#000000" font-family="sans-serif" font-size="13" font-weight="bold" lengthAdjust="spacing" textLength="14" x="352.5" y="488.417">10</text><text fill="#000000" font-family="sans-serif" font-size="13" lengthAdjust="spacing" textLength="49" x="370.5" y="488.417">success</text><polygon fill="#181818" points="34.5,519.625,24.5,523.625,34.5,527.625,30.5,523.625" style="stroke:#181818;stroke-width:1.0;"/><line style="stroke:#181818;stroke-width:1.0;stroke-dasharray:2.0,2.0;" x1="28.5" x2="329.5" y1="523.625" y2="523.625"/><text fill="#000000" font-family="sans-serif" font-size="13" font-weight="bold" lengthAdjust="spacing" textLength="14" x="40.5" y="518.7686">11</text><text fill="#000000" font-family="sans-serif" font-size="13" lengthAdjust="spacing" textLength="158" x="58.5" y="518.7686">displays success message</text><!--SRC=[dLJ1QkCm4BthAuPSjYqDb3twK5XQC87kiaJrhHUjF754RSchaMlyzpkM7SLEMmhhWoDPxyrxUYE5NerjbLSDDCuwVVIkGGY-Gq5ffLNwLLKemr0ZUDH1sQfU0kYeIjSRMy51rOH2V0icC5OE5B01YNyxj1hXqQXgn5z9-NWDMoZatVSx8LGNdEsQF-Xvh8FpiCdbpmqe0luLh16CDgso0JRP7Yl3LNtk4QraQrZi8hJOVObyS3PuLzVe8-FXUV-qvbG9kiVMaM4lG_PYymy-nmeLUVxmJdV66AI8EfEa6PFZtQufVi5uiUyB_7xwyNmXShOqvnIZCsygO0nD03yyWEqz9mCPzCmZ28uRECK22Yps4BSCD5QAd5I5yumVneShS9qnhviRhgKzCcAzpEkZNCRrkTl4MgKA2gwiQl0Mmj3oMp7l5cfNLLWMXFuwLIXngRlq7Ou87MC1BPicKBO4mffF8SMrKKKioSKkMQ6ZwsSV8oqvqyuUZ6zKCDo9JwIpINM6qeN4AOuKnY_iS_d5PjTAQHoFeSS3k3SMZBCS0yGEGspnuWG9Z1ivYAZEBgOZ-By-ebgQpSSvUPddfukqj9HypFhRSo3dIxHKcckjbQTDd5fDdTP8zBc_gRlRUsvILXfgQpNGYGKDl_XVwYBbnMoy5ly0]--></g></svg>