<?xml version="1.0" encoding="UTF-8" standalone="no"?><svg xmlns="http://www.w3.org/2000/svg" xmlns:xlink="http://www.w3.org/1999/xlink" contentStyleType="text/css" height="1690px" preserveAspectRatio="none" style="width:1793px;height:1690px;background:#FFFFFF;" version="1.1" viewBox="0 0 1793 1690" width="1793px" zoomAndPan="magnify"><defs/><g><rect fill="#FFFFFF" height="1498.0547" style="stroke:#181818;stroke-width:1.0;" width="10" x="18.5" y="92.6094"/><rect fill="#FFFFFF" height="210.7188" style="stroke:#181818;stroke-width:1.0;" width="10" x="314.5" y="114.9609"/><rect fill="#FFFFFF" height="30.3516" style="stroke:#181818;stroke-width:1.0;" width="10" x="314.5" y="356.0313"/><rect fill="#FFFFFF" height="424.3828" style="stroke:#181818;stroke-width:1.0;" width="10" x="314.5" y="416.7344"/><rect fill="#FFFFFF" height="30.3516" style="stroke:#181818;stroke-width:1.0;" width="10" x="314.5" y="1560.3125"/><rect fill="#FFFFFF" height="123.6641" style="stroke:#181818;stroke-width:1.0;" width="10" x="538.5" y="155.3125"/><rect fill="#FFFFFF" height="30.3516" style="stroke:#181818;stroke-width:1.0;" width="10" x="538.5" y="841.1172"/><rect fill="#FFFFFF" height="30.3516" style="stroke:#181818;stroke-width:1.0;" width="10" x="538.5" y="1529.9609"/><rect fill="#FFFFFF" height="30.3516" style="stroke:#181818;stroke-width:1.0;" width="10" x="703.5" y="187.9219"/><rect fill="#FFFFFF" height="30.3516" style="stroke:#181818;stroke-width:1.0;" width="10" x="810.5" y="248.625"/><rect fill="#FFFFFF" height="658.4922" style="stroke:#181818;stroke-width:1.0;" width="10" x="950.5" y="871.4688"/><rect fill="#FFFFFF" height="128.0547" style="stroke:#181818;stroke-width:1.0;" width="10" x="955.5" y="1364.5547"/><rect fill="#FFFFFF" height="41.3516" style="stroke:#181818;stroke-width:1.0;" width="10" x="960.5" y="1407.9063"/><rect fill="#FFFFFF" height="424.3828" style="stroke:#181818;stroke-width:1.0;" width="10" x="1184.5" y="901.8203"/><rect fill="#FFFFFF" height="353.6797" style="stroke:#181818;stroke-width:1.0;" width="10" x="1316.5" y="942.1719"/><rect fill="#FFFFFF" height="41.3516" style="stroke:#181818;stroke-width:1.0;" width="10" x="1321.5" y="1000.3906"/><rect fill="#FFFFFF" height="41.3516" style="stroke:#181818;stroke-width:1.0;" width="10" x="1321.5" y="1087.0938"/><rect fill="#FFFFFF" height="353.6797" style="stroke:#181818;stroke-width:1.0;" width="10" x="1610.5" y="457.0859"/><line style="stroke:#181818;stroke-width:0.5;stroke-dasharray:5.0,5.0;" x1="23" x2="23" y1="82.6094" y2="1608.6641"/><line style="stroke:#181818;stroke-width:0.5;stroke-dasharray:5.0,5.0;" x1="319" x2="319" y1="82.6094" y2="1608.6641"/><line style="stroke:#181818;stroke-width:0.5;stroke-dasharray:5.0,5.0;" x1="543" x2="543" y1="154.2656" y2="1608.6641"/><line style="stroke:#181818;stroke-width:0.5;stroke-dasharray:5.0,5.0;" x1="708" x2="708" y1="82.6094" y2="1608.6641"/><line style="stroke:#181818;stroke-width:0.5;stroke-dasharray:5.0,5.0;" x1="815" x2="815" y1="82.6094" y2="1608.6641"/><line style="stroke:#181818;stroke-width:0.5;stroke-dasharray:5.0,5.0;" x1="955" x2="955" y1="82.6094" y2="1608.6641"/><line style="stroke:#181818;stroke-width:0.5;stroke-dasharray:5.0,5.0;" x1="1189.5" x2="1189.5" y1="82.6094" y2="1608.6641"/><line style="stroke:#181818;stroke-width:0.5;stroke-dasharray:5.0,5.0;" x1="1321.5" x2="1321.5" y1="949.9297" y2="1608.6641"/><line style="stroke:#181818;stroke-width:0.5;stroke-dasharray:5.0,5.0;" x1="1615.5" x2="1615.5" y1="464.8438" y2="1608.6641"/><text fill="#000000" font-family="sans-serif" font-size="14" lengthAdjust="spacing" textLength="31" x="5" y="79.5332">GSM</text><ellipse cx="23.5" cy="13.5" fill="#E3E3E3" rx="8" ry="8" style="stroke:#181818;stroke-width:0.5;"/><path d="M23.5,21.5 L23.5,48.5 M10.5,29.5 L36.5,29.5 M23.5,48.5 L10.5,63.5 M23.5,48.5 L36.5,63.5 " fill="none" style="stroke:#181818;stroke-width:0.5;"/><text fill="#000000" font-family="sans-serif" font-size="14" lengthAdjust="spacing" textLength="31" x="5" y="1622.1973">GSM</text><ellipse cx="23.5" cy="1633.7734" fill="#E3E3E3" rx="8" ry="8" style="stroke:#181818;stroke-width:0.5;"/><path d="M23.5,1641.7734 L23.5,1668.7734 M10.5,1649.7734 L36.5,1649.7734 M23.5,1668.7734 L10.5,1683.7734 M23.5,1668.7734 L36.5,1683.7734 " fill="none" style="stroke:#181818;stroke-width:0.5;"/><rect fill="#E3E3E3" height="31.6094" rx="2.5" ry="2.5" style="stroke:#181818;stroke-width:0.5;" width="163" x="238" y="50"/><text fill="#000000" font-family="sans-serif" font-size="14" lengthAdjust="spacing" textLength="149" x="245" y="71.5332">:RegisterGreenSpaceUI</text><rect fill="#E3E3E3" height="31.6094" rx="2.5" ry="2.5" style="stroke:#181818;stroke-width:0.5;" width="163" x="238" y="1607.6641"/><text fill="#000000" font-family="sans-serif" font-size="14" lengthAdjust="spacing" textLength="149" x="245" y="1629.1973">:RegisterGreenSpaceUI</text><rect fill="#E3E3E3" height="31.6094" rx="2.5" ry="2.5" style="stroke:#181818;stroke-width:0.5;" width="213" x="437" y="1607.6641"/><text fill="#000000" font-family="sans-serif" font-size="14" lengthAdjust="spacing" textLength="199" x="444" y="1629.1973">:RegisterGreenSpaceController</text><rect fill="#E3E3E3" height="31.6094" rx="2.5" ry="2.5" style="stroke:#181818;stroke-width:0.5;" width="97" x="660" y="50"/><text fill="#000000" font-family="sans-serif" font-size="14" lengthAdjust="spacing" textLength="83" x="667" y="71.5332">:Repositories</text><rect fill="#E3E3E3" height="31.6094" rx="2.5" ry="2.5" style="stroke:#181818;stroke-width:0.5;" width="97" x="660" y="1607.6641"/><text fill="#000000" font-family="sans-serif" font-size="14" lengthAdjust="spacing" textLength="83" x="667" y="1629.1973">:Repositories</text><rect fill="#E3E3E3" height="49.2188" rx="2.5" ry="2.5" style="stroke:#181818;stroke-width:0.5;" width="97" x="767" y="32.3906"/><text fill="#000000" font-family="sans-serif" font-size="14" lengthAdjust="spacing" textLength="74" x="778.5" y="53.9238">repositories</text><text fill="#000000" font-family="sans-serif" font-size="14" lengthAdjust="spacing" textLength="83" x="774" y="71.5332">:Repositories</text><rect fill="#E3E3E3" height="49.2188" rx="2.5" ry="2.5" style="stroke:#181818;stroke-width:0.5;" width="97" x="767" y="1607.6641"/><text fill="#000000" font-family="sans-serif" font-size="14" lengthAdjust="spacing" textLength="74" x="778.5" y="1629.1973">repositories</text><text fill="#000000" font-family="sans-serif" font-size="14" lengthAdjust="spacing" textLength="83" x="774" y="1646.8066">:Repositories</text><rect fill="#E3E3E3" height="49.2188" rx="2.5" ry="2.5" style="stroke:#181818;stroke-width:0.5;" width="163" x="874" y="32.3906"/><text fill="#000000" font-family="sans-serif" font-size="14" lengthAdjust="spacing" textLength="149" x="881" y="53.9238">greenSpaceRepository:</text><text fill="#000000" font-family="sans-serif" font-size="14" lengthAdjust="spacing" textLength="148" x="881.5" y="71.5332">GreenSpaceRepository</text><rect fill="#E3E3E3" height="49.2188" rx="2.5" ry="2.5" style="stroke:#181818;stroke-width:0.5;" width="163" x="874" y="1607.6641"/><text fill="#000000" font-family="sans-serif" font-size="14" lengthAdjust="spacing" textLength="149" x="881" y="1629.1973">greenSpaceRepository:</text><text fill="#000000" font-family="sans-serif" font-size="14" lengthAdjust="spacing" textLength="148" x="881.5" y="1646.8066">GreenSpaceRepository</text><rect fill="#E3E3E3" height="31.6094" rx="2.5" ry="2.5" style="stroke:#181818;stroke-width:0.5;" width="146" x="1116.5" y="50"/><text fill="#000000" font-family="sans-serif" font-size="14" lengthAdjust="spacing" textLength="132" x="1123.5" y="71.5332">:GreenSpaceMapper</text><rect fill="#E3E3E3" height="31.6094" rx="2.5" ry="2.5" style="stroke:#181818;stroke-width:0.5;" width="146" x="1116.5" y="1607.6641"/><text fill="#000000" font-family="sans-serif" font-size="14" lengthAdjust="spacing" textLength="132" x="1123.5" y="1629.1973">:GreenSpaceMapper</text><rect fill="#E3E3E3" height="49.2188" rx="2.5" ry="2.5" style="stroke:#181818;stroke-width:0.5;" width="98" x="1272.5" y="1607.6641"/><text fill="#000000" font-family="sans-serif" font-size="14" lengthAdjust="spacing" textLength="77" x="1283" y="1629.1973">greenSpace</text><text fill="#000000" font-family="sans-serif" font-size="14" lengthAdjust="spacing" textLength="84" x="1279.5" y="1646.8066">:GreenSpace</text><rect fill="#E3E3E3" height="49.2188" rx="2.5" ry="2.5" style="stroke:#181818;stroke-width:0.5;" width="120" x="1555.5" y="1607.6641"/><text fill="#000000" font-family="sans-serif" font-size="14" lengthAdjust="spacing" textLength="99" x="1566" y="1629.1973">greenSpaceDto</text><text fill="#000000" font-family="sans-serif" font-size="14" lengthAdjust="spacing" textLength="106" x="1562.5" y="1646.8066">:GreenSpaceDto</text><rect fill="#FFFFFF" height="1498.0547" style="stroke:#181818;stroke-width:1.0;" width="10" x="18.5" y="92.6094"/><rect fill="#FFFFFF" height="210.7188" style="stroke:#181818;stroke-width:1.0;" width="10" x="314.5" y="114.9609"/><rect fill="#FFFFFF" height="30.3516" style="stroke:#181818;stroke-width:1.0;" width="10" x="314.5" y="356.0313"/><rect fill="#FFFFFF" height="424.3828" style="stroke:#181818;stroke-width:1.0;" width="10" x="314.5" y="416.7344"/><rect fill="#FFFFFF" height="30.3516" style="stroke:#181818;stroke-width:1.0;" width="10" x="314.5" y="1560.3125"/><rect fill="#FFFFFF" height="123.6641" style="stroke:#181818;stroke-width:1.0;" width="10" x="538.5" y="155.3125"/><rect fill="#FFFFFF" height="30.3516" style="stroke:#181818;stroke-width:1.0;" width="10" x="538.5" y="841.1172"/><rect fill="#FFFFFF" height="30.3516" style="stroke:#181818;stroke-width:1.0;" width="10" x="538.5" y="1529.9609"/><rect fill="#FFFFFF" height="30.3516" style="stroke:#181818;stroke-width:1.0;" width="10" x="703.5" y="187.9219"/><rect fill="#FFFFFF" height="30.3516" style="stroke:#181818;stroke-width:1.0;" width="10" x="810.5" y="248.625"/><rect fill="#FFFFFF" height="658.4922" style="stroke:#181818;stroke-width:1.0;" width="10" x="950.5" y="871.4688"/><rect fill="#FFFFFF" height="128.0547" style="stroke:#181818;stroke-width:1.0;" width="10" x="955.5" y="1364.5547"/><rect fill="#FFFFFF" height="41.3516" style="stroke:#181818;stroke-width:1.0;" width="10" x="960.5" y="1407.9063"/><rect fill="#FFFFFF" height="424.3828" style="stroke:#181818;stroke-width:1.0;" width="10" x="1184.5" y="901.8203"/><rect fill="#FFFFFF" height="353.6797" style="stroke:#181818;stroke-width:1.0;" width="10" x="1316.5" y="942.1719"/><rect fill="#FFFFFF" height="41.3516" style="stroke:#181818;stroke-width:1.0;" width="10" x="1321.5" y="1000.3906"/><rect fill="#FFFFFF" height="41.3516" style="stroke:#181818;stroke-width:1.0;" width="10" x="1321.5" y="1087.0938"/><rect fill="#FFFFFF" height="353.6797" style="stroke:#181818;stroke-width:1.0;" width="10" x="1610.5" y="457.0859"/><polygon fill="#181818" points="302.5,110.9609,312.5,114.9609,302.5,118.9609,306.5,114.9609" style="stroke:#181818;stroke-width:1.0;"/><line style="stroke:#181818;stroke-width:1.0;" x1="28.5" x2="308.5" y1="114.9609" y2="114.9609"/><text fill="#000000" font-family="sans-serif" font-size="13" font-weight="bold" lengthAdjust="spacing" textLength="7" x="35.5" y="110.1045">1</text><text fill="#000000" font-family="sans-serif" font-size="13" lengthAdjust="spacing" textLength="209" x="46.5" y="110.1045">wants to register a new green space</text><polygon fill="#181818" points="425,141.3125,435,145.3125,425,149.3125,429,145.3125" style="stroke:#181818;stroke-width:1.0;"/><line style="stroke:#181818;stroke-width:1.0;" x1="324.5" x2="431" y1="145.3125" y2="145.3125"/><text fill="#000000" font-family="sans-serif" font-size="13" font-weight="bold" lengthAdjust="spacing" textLength="7" x="331.5" y="140.4561">2</text><text fill="#000000" font-family="sans-serif" font-size="13" lengthAdjust="spacing" textLength="36" x="342.5" y="140.4561">create</text><rect fill="#E3E3E3" height="31.6094" rx="2.5" ry="2.5" style="stroke:#181818;stroke-width:0.5;" width="213" x="437" y="122.9609"/><text fill="#000000" font-family="sans-serif" font-size="14" lengthAdjust="spacing" textLength="199" x="444" y="144.4941">:RegisterGreenSpaceController</text><polygon fill="#181818" points="691.5,183.9219,701.5,187.9219,691.5,191.9219,695.5,187.9219" style="stroke:#181818;stroke-width:1.0;"/><line style="stroke:#181818;stroke-width:1.0;" x1="548.5" x2="697.5" y1="187.9219" y2="187.9219"/><text fill="#000000" font-family="sans-serif" font-size="13" font-weight="bold" lengthAdjust="spacing" textLength="7" x="555.5" y="183.0654">3</text><text fill="#000000" font-family="sans-serif" font-size="13" lengthAdjust="spacing" textLength="75" x="566.5" y="183.0654">getInstance()</text><polygon fill="#181818" points="559.5,214.2734,549.5,218.2734,559.5,222.2734,555.5,218.2734" style="stroke:#181818;stroke-width:1.0;"/><line style="stroke:#181818;stroke-width:1.0;stroke-dasharray:2.0,2.0;" x1="553.5" x2="707.5" y1="218.2734" y2="218.2734"/><text fill="#000000" font-family="sans-serif" font-size="13" font-weight="bold" lengthAdjust="spacing" textLength="7" x="565.5" y="213.417">4</text><text fill="#000000" font-family="sans-serif" font-size="13" lengthAdjust="spacing" textLength="67" x="576.5" y="213.417">repositories</text><polygon fill="#181818" points="798.5,244.625,808.5,248.625,798.5,252.625,802.5,248.625" style="stroke:#181818;stroke-width:1.0;"/><line style="stroke:#181818;stroke-width:1.0;" x1="548.5" x2="804.5" y1="248.625" y2="248.625"/><text fill="#000000" font-family="sans-serif" font-size="13" font-weight="bold" lengthAdjust="spacing" textLength="7" x="555.5" y="243.7686">5</text><text fill="#000000" font-family="sans-serif" font-size="13" lengthAdjust="spacing" textLength="160" x="566.5" y="243.7686">getGreenSpaceRepository()</text><polygon fill="#181818" points="554.5,274.9766,544.5,278.9766,554.5,282.9766,550.5,278.9766" style="stroke:#181818;stroke-width:1.0;"/><line style="stroke:#181818;stroke-width:1.0;stroke-dasharray:2.0,2.0;" x1="548.5" x2="814.5" y1="278.9766" y2="278.9766"/><text fill="#000000" font-family="sans-serif" font-size="13" font-weight="bold" lengthAdjust="spacing" textLength="7" x="560.5" y="274.1201">6</text><text fill="#000000" font-family="sans-serif" font-size="13" lengthAdjust="spacing" textLength="131" x="571.5" y="274.1201">greenSpaceRepository</text><polygon fill="#181818" points="39.5,321.6797,29.5,325.6797,39.5,329.6797,35.5,325.6797" style="stroke:#181818;stroke-width:1.0;"/><line style="stroke:#181818;stroke-width:1.0;stroke-dasharray:2.0,2.0;" x1="33.5" x2="318.5" y1="325.6797" y2="325.6797"/><text fill="#000000" font-family="sans-serif" font-size="13" font-weight="bold" lengthAdjust="spacing" textLength="7" x="45.5" y="312.6475">7</text><text fill="#000000" font-family="sans-serif" font-size="13" lengthAdjust="spacing" textLength="247" x="56.5" y="304.4717">requests data (name, type, area, manager,</text><text fill="#000000" font-family="sans-serif" font-size="13" lengthAdjust="spacing" textLength="181" x="56.5" y="320.8232">address (street, zip-code, city))</text><polygon fill="#181818" points="302.5,352.0313,312.5,356.0313,302.5,360.0313,306.5,356.0313" style="stroke:#181818;stroke-width:1.0;"/><line style="stroke:#181818;stroke-width:1.0;" x1="28.5" x2="308.5" y1="356.0313" y2="356.0313"/><text fill="#000000" font-family="sans-serif" font-size="13" font-weight="bold" lengthAdjust="spacing" textLength="7" x="35.5" y="351.1748">8</text><text fill="#000000" font-family="sans-serif" font-size="13" lengthAdjust="spacing" textLength="209" x="46.5" y="351.1748">the user enters and selects the data</text><polygon fill="#181818" points="39.5,382.3828,29.5,386.3828,39.5,390.3828,35.5,386.3828" style="stroke:#181818;stroke-width:1.0;"/><line style="stroke:#181818;stroke-width:1.0;" x1="33.5" x2="318.5" y1="386.3828" y2="386.3828"/><text fill="#000000" font-family="sans-serif" font-size="13" font-weight="bold" lengthAdjust="spacing" textLength="7" x="45.5" y="381.5264">9</text><text fill="#000000" font-family="sans-serif" font-size="13" lengthAdjust="spacing" textLength="219" x="56.5" y="381.5264">shows data and requests confirmation</text><polygon fill="#181818" points="302.5,412.7344,312.5,416.7344,302.5,420.7344,306.5,416.7344" style="stroke:#181818;stroke-width:1.0;"/><line style="stroke:#181818;stroke-width:1.0;" x1="28.5" x2="308.5" y1="416.7344" y2="416.7344"/><text fill="#000000" font-family="sans-serif" font-size="13" font-weight="bold" lengthAdjust="spacing" textLength="14" x="35.5" y="411.8779">10</text><text fill="#000000" font-family="sans-serif" font-size="13" lengthAdjust="spacing" textLength="78" x="53.5" y="411.8779">user confirms</text><polygon fill="#181818" points="1543.5,443.0859,1553.5,447.0859,1543.5,451.0859,1547.5,447.0859" style="stroke:#181818;stroke-width:1.0;"/><line style="stroke:#181818;stroke-width:1.0;" x1="324.5" x2="1549.5" y1="447.0859" y2="447.0859"/><text fill="#000000" font-family="sans-serif" font-size="13" font-weight="bold" lengthAdjust="spacing" textLength="14" x="331.5" y="442.2295">11</text><text fill="#000000" font-family="sans-serif" font-size="13" lengthAdjust="spacing" textLength="381" x="349.5" y="442.2295">GreenSpaceDto(name, type, area, manager, street, zipCode, city)</text><rect fill="#E3E3E3" height="49.2188" rx="2.5" ry="2.5" style="stroke:#181818;stroke-width:0.5;" width="120" x="1555.5" y="424.7344"/><text fill="#000000" font-family="sans-serif" font-size="14" lengthAdjust="spacing" textLength="99" x="1566" y="446.2676">greenSpaceDto</text><text fill="#000000" font-family="sans-serif" font-size="14" lengthAdjust="spacing" textLength="106" x="1562.5" y="463.877">:GreenSpaceDto</text><line style="stroke:#181818;stroke-width:1.0;" x1="1620.5" x2="1662.5" y1="507.3047" y2="507.3047"/><line style="stroke:#181818;stroke-width:1.0;" x1="1662.5" x2="1662.5" y1="507.3047" y2="520.3047"/><line style="stroke:#181818;stroke-width:1.0;" x1="1621.5" x2="1662.5" y1="520.3047" y2="520.3047"/><polygon fill="#181818" points="1631.5,516.3047,1621.5,520.3047,1631.5,524.3047,1627.5,520.3047" style="stroke:#181818;stroke-width:1.0;"/><text fill="#000000" font-family="sans-serif" font-size="13" font-weight="bold" lengthAdjust="spacing" textLength="14" x="1627.5" y="502.4482">12</text><text fill="#000000" font-family="sans-serif" font-size="13" lengthAdjust="spacing" textLength="105" x="1645.5" y="502.4482">this.name = name</text><line style="stroke:#181818;stroke-width:1.0;" x1="1620.5" x2="1662.5" y1="550.6563" y2="550.6563"/><line style="stroke:#181818;stroke-width:1.0;" x1="1662.5" x2="1662.5" y1="550.6563" y2="563.6563"/><line style="stroke:#181818;stroke-width:1.0;" x1="1621.5" x2="1662.5" y1="563.6563" y2="563.6563"/><polygon fill="#181818" points="1631.5,559.6563,1621.5,563.6563,1631.5,567.6563,1627.5,563.6563" style="stroke:#181818;stroke-width:1.0;"/><text fill="#000000" font-family="sans-serif" font-size="13" font-weight="bold" lengthAdjust="spacing" textLength="14" x="1627.5" y="545.7998">13</text><text fill="#000000" font-family="sans-serif" font-size="13" lengthAdjust="spacing" textLength="91" x="1645.5" y="545.7998">this.type = type</text><line style="stroke:#181818;stroke-width:1.0;" x1="1620.5" x2="1662.5" y1="594.0078" y2="594.0078"/><line style="stroke:#181818;stroke-width:1.0;" x1="1662.5" x2="1662.5" y1="594.0078" y2="607.0078"/><line style="stroke:#181818;stroke-width:1.0;" x1="1621.5" x2="1662.5" y1="607.0078" y2="607.0078"/><polygon fill="#181818" points="1631.5,603.0078,1621.5,607.0078,1631.5,611.0078,1627.5,607.0078" style="stroke:#181818;stroke-width:1.0;"/><text fill="#000000" font-family="sans-serif" font-size="13" font-weight="bold" lengthAdjust="spacing" textLength="14" x="1627.5" y="589.1514">14</text><text fill="#000000" font-family="sans-serif" font-size="13" lengthAdjust="spacing" textLength="91" x="1645.5" y="589.1514">this.area = area</text><line style="stroke:#181818;stroke-width:1.0;" x1="1620.5" x2="1662.5" y1="637.3594" y2="637.3594"/><line style="stroke:#181818;stroke-width:1.0;" x1="1662.5" x2="1662.5" y1="637.3594" y2="650.3594"/><line style="stroke:#181818;stroke-width:1.0;" x1="1621.5" x2="1662.5" y1="650.3594" y2="650.3594"/><polygon fill="#181818" points="1631.5,646.3594,1621.5,650.3594,1631.5,654.3594,1627.5,650.3594" style="stroke:#181818;stroke-width:1.0;"/><text fill="#000000" font-family="sans-serif" font-size="13" font-weight="bold" lengthAdjust="spacing" textLength="14" x="1627.5" y="632.5029">15</text><text fill="#000000" font-family="sans-serif" font-size="13" lengthAdjust="spacing" textLength="141" x="1645.5" y="632.5029">this.manager = manager</text><line style="stroke:#181818;stroke-width:1.0;" x1="1620.5" x2="1662.5" y1="680.7109" y2="680.7109"/><line style="stroke:#181818;stroke-width:1.0;" x1="1662.5" x2="1662.5" y1="680.7109" y2="693.7109"/><line style="stroke:#181818;stroke-width:1.0;" x1="1621.5" x2="1662.5" y1="693.7109" y2="693.7109"/><polygon fill="#181818" points="1631.5,689.7109,1621.5,693.7109,1631.5,697.7109,1627.5,693.7109" style="stroke:#181818;stroke-width:1.0;"/><text fill="#000000" font-family="sans-serif" font-size="13" font-weight="bold" lengthAdjust="spacing" textLength="14" x="1627.5" y="675.8545">16</text><text fill="#000000" font-family="sans-serif" font-size="13" lengthAdjust="spacing" textLength="133" x="1645.5" y="675.8545">this.address = address</text><line style="stroke:#181818;stroke-width:1.0;" x1="1620.5" x2="1662.5" y1="724.0625" y2="724.0625"/><line style="stroke:#181818;stroke-width:1.0;" x1="1662.5" x2="1662.5" y1="724.0625" y2="737.0625"/><line style="stroke:#181818;stroke-width:1.0;" x1="1621.5" x2="1662.5" y1="737.0625" y2="737.0625"/><polygon fill="#181818" points="1631.5,733.0625,1621.5,737.0625,1631.5,741.0625,1627.5,737.0625" style="stroke:#181818;stroke-width:1.0;"/><text fill="#000000" font-family="sans-serif" font-size="13" font-weight="bold" lengthAdjust="spacing" textLength="14" x="1627.5" y="719.2061">17</text><text fill="#000000" font-family="sans-serif" font-size="13" lengthAdjust="spacing" textLength="83" x="1645.5" y="719.2061">this.city = city</text><line style="stroke:#181818;stroke-width:1.0;" x1="1620.5" x2="1662.5" y1="767.4141" y2="767.4141"/><line style="stroke:#181818;stroke-width:1.0;" x1="1662.5" x2="1662.5" y1="767.4141" y2="780.4141"/><line style="stroke:#181818;stroke-width:1.0;" x1="1621.5" x2="1662.5" y1="780.4141" y2="780.4141"/><polygon fill="#181818" points="1631.5,776.4141,1621.5,780.4141,1631.5,784.4141,1627.5,780.4141" style="stroke:#181818;stroke-width:1.0;"/><text fill="#000000" font-family="sans-serif" font-size="13" font-weight="bold" lengthAdjust="spacing" textLength="14" x="1627.5" y="762.5576">18</text><text fill="#000000" font-family="sans-serif" font-size="13" lengthAdjust="spacing" textLength="135" x="1645.5" y="762.5576">this.zipCode = zipCode</text><polygon fill="#181818" points="335.5,806.7656,325.5,810.7656,335.5,814.7656,331.5,810.7656" style="stroke:#181818;stroke-width:1.0;"/><line style="stroke:#181818;stroke-width:1.0;stroke-dasharray:2.0,2.0;" x1="329.5" x2="1614.5" y1="810.7656" y2="810.7656"/><text fill="#000000" font-family="sans-serif" font-size="13" font-weight="bold" lengthAdjust="spacing" textLength="14" x="341.5" y="805.9092">19</text><text fill="#000000" font-family="sans-serif" font-size="13" lengthAdjust="spacing" textLength="89" x="359.5" y="805.9092">greenSpaceDto</text><polygon fill="#181818" points="526.5,837.1172,536.5,841.1172,526.5,845.1172,530.5,841.1172" style="stroke:#181818;stroke-width:1.0;"/><line style="stroke:#181818;stroke-width:1.0;" x1="319.5" x2="532.5" y1="841.1172" y2="841.1172"/><text fill="#000000" font-family="sans-serif" font-size="13" font-weight="bold" lengthAdjust="spacing" textLength="14" x="326.5" y="836.2607">20</text><text fill="#000000" font-family="sans-serif" font-size="13" lengthAdjust="spacing" textLength="177" x="344.5" y="836.2607">createNewGS(greenSpaceDto)</text><polygon fill="#181818" points="938.5,867.4688,948.5,871.4688,938.5,875.4688,942.5,871.4688" style="stroke:#181818;stroke-width:1.0;"/><line style="stroke:#181818;stroke-width:1.0;" x1="543.5" x2="944.5" y1="871.4688" y2="871.4688"/><text fill="#000000" font-family="sans-serif" font-size="13" font-weight="bold" lengthAdjust="spacing" textLength="14" x="550.5" y="866.6123">21</text><text fill="#000000" font-family="sans-serif" font-size="13" lengthAdjust="spacing" textLength="177" x="568.5" y="866.6123">createNewGS(greenSpaceDto)</text><polygon fill="#181818" points="1172.5,897.8203,1182.5,901.8203,1172.5,905.8203,1176.5,901.8203" style="stroke:#181818;stroke-width:1.0;"/><line style="stroke:#181818;stroke-width:1.0;" x1="960.5" x2="1178.5" y1="901.8203" y2="901.8203"/><text fill="#000000" font-family="sans-serif" font-size="13" font-weight="bold" lengthAdjust="spacing" textLength="14" x="967.5" y="896.9639">22</text><text fill="#000000" font-family="sans-serif" font-size="13" lengthAdjust="spacing" textLength="152" x="985.5" y="896.9639">toDomain(greenSpaceDto)</text><polygon fill="#181818" points="1260.5,928.1719,1270.5,932.1719,1260.5,936.1719,1264.5,932.1719" style="stroke:#181818;stroke-width:1.0;"/><line style="stroke:#181818;stroke-width:1.0;" x1="1194.5" x2="1266.5" y1="932.1719" y2="932.1719"/><text fill="#000000" font-family="sans-serif" font-size="13" font-weight="bold" lengthAdjust="spacing" textLength="14" x="1201.5" y="927.3154">23</text><text fill="#000000" font-family="sans-serif" font-size="13" lengthAdjust="spacing" textLength="36" x="1219.5" y="927.3154">create</text><rect fill="#E3E3E3" height="49.2188" rx="2.5" ry="2.5" style="stroke:#181818;stroke-width:0.5;" width="98" x="1272.5" y="909.8203"/><text fill="#000000" font-family="sans-serif" font-size="14" lengthAdjust="spacing" textLength="77" x="1283" y="931.3535">greenSpace</text><text fill="#000000" font-family="sans-serif" font-size="14" lengthAdjust="spacing" textLength="84" x="1279.5" y="948.9629">:GreenSpace</text><line style="stroke:#181818;stroke-width:1.0;" x1="1326.5" x2="1373.5" y1="987.3906" y2="987.3906"/><line style="stroke:#181818;stroke-width:1.0;" x1="1373.5" x2="1373.5" y1="987.3906" y2="1000.3906"/><line style="stroke:#181818;stroke-width:1.0;" x1="1332.5" x2="1373.5" y1="1000.3906" y2="1000.3906"/><polygon fill="#181818" points="1342.5,996.3906,1332.5,1000.3906,1342.5,1004.3906,1338.5,1000.3906" style="stroke:#181818;stroke-width:1.0;"/><text fill="#000000" font-family="sans-serif" font-size="13" font-weight="bold" lengthAdjust="spacing" textLength="14" x="1338.5" y="982.5342">24</text><text fill="#000000" font-family="sans-serif" font-size="13" lengthAdjust="spacing" textLength="191" x="1356.5" y="982.5342">setArea(greenSpaceDto.getArea)</text><line style="stroke:#181818;stroke-width:1.0;stroke-dasharray:2.0,2.0;" x1="1331.5" x2="1373.5" y1="1040.7422" y2="1040.7422"/><line style="stroke:#181818;stroke-width:1.0;stroke-dasharray:2.0,2.0;" x1="1373.5" x2="1373.5" y1="1040.7422" y2="1053.7422"/><line style="stroke:#181818;stroke-width:1.0;stroke-dasharray:2.0,2.0;" x1="1326.5" x2="1373.5" y1="1053.7422" y2="1053.7422"/><polygon fill="#181818" points="1336.5,1049.7422,1326.5,1053.7422,1336.5,1057.7422,1332.5,1053.7422" style="stroke:#181818;stroke-width:1.0;"/><text fill="#000000" font-family="sans-serif" font-size="13" font-weight="bold" lengthAdjust="spacing" textLength="14" x="1338.5" y="1035.8857">25</text><text fill="#000000" font-family="sans-serif" font-size="13" lengthAdjust="spacing" textLength="4" x="1356.5" y="1035.8857"> </text><line style="stroke:#181818;stroke-width:1.0;" x1="1326.5" x2="1373.5" y1="1074.0938" y2="1074.0938"/><line style="stroke:#181818;stroke-width:1.0;" x1="1373.5" x2="1373.5" y1="1074.0938" y2="1087.0938"/><line style="stroke:#181818;stroke-width:1.0;" x1="1332.5" x2="1373.5" y1="1087.0938" y2="1087.0938"/><polygon fill="#181818" points="1342.5,1083.0938,1332.5,1087.0938,1342.5,1091.0938,1338.5,1087.0938" style="stroke:#181818;stroke-width:1.0;"/><text fill="#000000" font-family="sans-serif" font-size="13" font-weight="bold" lengthAdjust="spacing" textLength="14" x="1338.5" y="1069.2373">26</text><text fill="#000000" font-family="sans-serif" font-size="13" lengthAdjust="spacing" textLength="205" x="1356.5" y="1069.2373">setName(greenSpaceDto.getName)</text><line style="stroke:#181818;stroke-width:1.0;stroke-dasharray:2.0,2.0;" x1="1331.5" x2="1373.5" y1="1127.4453" y2="1127.4453"/><line style="stroke:#181818;stroke-width:1.0;stroke-dasharray:2.0,2.0;" x1="1373.5" x2="1373.5" y1="1127.4453" y2="1140.4453"/><line style="stroke:#181818;stroke-width:1.0;stroke-dasharray:2.0,2.0;" x1="1326.5" x2="1373.5" y1="1140.4453" y2="1140.4453"/><polygon fill="#181818" points="1336.5,1136.4453,1326.5,1140.4453,1336.5,1144.4453,1332.5,1140.4453" style="stroke:#181818;stroke-width:1.0;"/><text fill="#000000" font-family="sans-serif" font-size="13" font-weight="bold" lengthAdjust="spacing" textLength="14" x="1338.5" y="1122.5889">27</text><text fill="#000000" font-family="sans-serif" font-size="13" lengthAdjust="spacing" textLength="4" x="1356.5" y="1122.5889"> </text><line style="stroke:#181818;stroke-width:1.0;" x1="1326.5" x2="1368.5" y1="1165.7969" y2="1165.7969"/><line style="stroke:#181818;stroke-width:1.0;" x1="1368.5" x2="1368.5" y1="1165.7969" y2="1178.7969"/><line style="stroke:#181818;stroke-width:1.0;" x1="1327.5" x2="1368.5" y1="1178.7969" y2="1178.7969"/><polygon fill="#181818" points="1337.5,1174.7969,1327.5,1178.7969,1337.5,1182.7969,1333.5,1178.7969" style="stroke:#181818;stroke-width:1.0;"/><text fill="#000000" font-family="sans-serif" font-size="13" font-weight="bold" lengthAdjust="spacing" textLength="14" x="1333.5" y="1160.9404">28</text><text fill="#000000" font-family="sans-serif" font-size="13" lengthAdjust="spacing" textLength="205" x="1351.5" y="1160.9404">this.type = greenSpaceDto.getType</text><line style="stroke:#181818;stroke-width:1.0;" x1="1326.5" x2="1368.5" y1="1209.1484" y2="1209.1484"/><line style="stroke:#181818;stroke-width:1.0;" x1="1368.5" x2="1368.5" y1="1209.1484" y2="1222.1484"/><line style="stroke:#181818;stroke-width:1.0;" x1="1327.5" x2="1368.5" y1="1222.1484" y2="1222.1484"/><polygon fill="#181818" points="1337.5,1218.1484,1327.5,1222.1484,1337.5,1226.1484,1333.5,1222.1484" style="stroke:#181818;stroke-width:1.0;"/><text fill="#000000" font-family="sans-serif" font-size="13" font-weight="bold" lengthAdjust="spacing" textLength="14" x="1333.5" y="1204.292">29</text><text fill="#000000" font-family="sans-serif" font-size="13" lengthAdjust="spacing" textLength="252" x="1351.5" y="1204.292">this.manager = greenSpaceDto.getManager</text><line style="stroke:#181818;stroke-width:1.0;" x1="1326.5" x2="1368.5" y1="1252.5" y2="1252.5"/><line style="stroke:#181818;stroke-width:1.0;" x1="1368.5" x2="1368.5" y1="1252.5" y2="1265.5"/><line style="stroke:#181818;stroke-width:1.0;" x1="1327.5" x2="1368.5" y1="1265.5" y2="1265.5"/><polygon fill="#181818" points="1337.5,1261.5,1327.5,1265.5,1337.5,1269.5,1333.5,1265.5" style="stroke:#181818;stroke-width:1.0;"/><text fill="#000000" font-family="sans-serif" font-size="13" font-weight="bold" lengthAdjust="spacing" textLength="14" x="1333.5" y="1247.6436">30</text><text fill="#000000" font-family="sans-serif" font-size="13" lengthAdjust="spacing" textLength="246" x="1351.5" y="1247.6436">this.address = greenSpaceDto.getAddress</text><polygon fill="#181818" points="1205.5,1291.8516,1195.5,1295.8516,1205.5,1299.8516,1201.5,1295.8516" style="stroke:#181818;stroke-width:1.0;"/><line style="stroke:#181818;stroke-width:1.0;stroke-dasharray:2.0,2.0;" x1="1199.5" x2="1320.5" y1="1295.8516" y2="1295.8516"/><text fill="#000000" font-family="sans-serif" font-size="13" font-weight="bold" lengthAdjust="spacing" textLength="14" x="1211.5" y="1290.9951">31</text><text fill="#000000" font-family="sans-serif" font-size="13" lengthAdjust="spacing" textLength="69" x="1229.5" y="1290.9951">greenSpace</text><polygon fill="#181818" points="971.5,1322.2031,961.5,1326.2031,971.5,1330.2031,967.5,1326.2031" style="stroke:#181818;stroke-width:1.0;"/><line style="stroke:#181818;stroke-width:1.0;stroke-dasharray:2.0,2.0;" x1="965.5" x2="1188.5" y1="1326.2031" y2="1326.2031"/><text fill="#000000" font-family="sans-serif" font-size="13" font-weight="bold" lengthAdjust="spacing" textLength="14" x="977.5" y="1321.3467">32</text><text fill="#000000" font-family="sans-serif" font-size="13" lengthAdjust="spacing" textLength="69" x="995.5" y="1321.3467">greenSpace</text><line style="stroke:#181818;stroke-width:1.0;" x1="960.5" x2="1007.5" y1="1351.5547" y2="1351.5547"/><line style="stroke:#181818;stroke-width:1.0;" x1="1007.5" x2="1007.5" y1="1351.5547" y2="1364.5547"/><line style="stroke:#181818;stroke-width:1.0;" x1="966.5" x2="1007.5" y1="1364.5547" y2="1364.5547"/><polygon fill="#181818" points="976.5,1360.5547,966.5,1364.5547,976.5,1368.5547,972.5,1364.5547" style="stroke:#181818;stroke-width:1.0;"/><text fill="#000000" font-family="sans-serif" font-size="13" font-weight="bold" lengthAdjust="spacing" textLength="14" x="972.5" y="1346.6982">33</text><text fill="#000000" font-family="sans-serif" font-size="13" lengthAdjust="spacing" textLength="192" x="990.5" y="1346.6982">checkForDuplicates(greenSpace)</text><line style="stroke:#181818;stroke-width:1.0;" x1="965.5" x2="1012.5" y1="1394.9063" y2="1394.9063"/><line style="stroke:#181818;stroke-width:1.0;" x1="1012.5" x2="1012.5" y1="1394.9063" y2="1407.9063"/><line style="stroke:#181818;stroke-width:1.0;" x1="971.5" x2="1012.5" y1="1407.9063" y2="1407.9063"/><polygon fill="#181818" points="981.5,1403.9063,971.5,1407.9063,981.5,1411.9063,977.5,1407.9063" style="stroke:#181818;stroke-width:1.0;"/><text fill="#000000" font-family="sans-serif" font-size="13" font-weight="bold" lengthAdjust="spacing" textLength="14" x="977.5" y="1390.0498">34</text><text fill="#000000" font-family="sans-serif" font-size="13" lengthAdjust="spacing" textLength="170" x="995.5" y="1390.0498">addGreenSpace(greenSpace)</text><line style="stroke:#181818;stroke-width:1.0;stroke-dasharray:2.0,2.0;" x1="970.5" x2="1012.5" y1="1448.2578" y2="1448.2578"/><line style="stroke:#181818;stroke-width:1.0;stroke-dasharray:2.0,2.0;" x1="1012.5" x2="1012.5" y1="1448.2578" y2="1461.2578"/><line style="stroke:#181818;stroke-width:1.0;stroke-dasharray:2.0,2.0;" x1="965.5" x2="1012.5" y1="1461.2578" y2="1461.2578"/><polygon fill="#181818" points="975.5,1457.2578,965.5,1461.2578,975.5,1465.2578,971.5,1461.2578" style="stroke:#181818;stroke-width:1.0;"/><text fill="#000000" font-family="sans-serif" font-size="13" font-weight="bold" lengthAdjust="spacing" textLength="14" x="977.5" y="1443.4014">35</text><text fill="#000000" font-family="sans-serif" font-size="13" lengthAdjust="spacing" textLength="4" x="995.5" y="1443.4014"> </text><line style="stroke:#181818;stroke-width:1.0;stroke-dasharray:2.0,2.0;" x1="965.5" x2="1007.5" y1="1491.6094" y2="1491.6094"/><line style="stroke:#181818;stroke-width:1.0;stroke-dasharray:2.0,2.0;" x1="1007.5" x2="1007.5" y1="1491.6094" y2="1504.6094"/><line style="stroke:#181818;stroke-width:1.0;stroke-dasharray:2.0,2.0;" x1="960.5" x2="1007.5" y1="1504.6094" y2="1504.6094"/><polygon fill="#181818" points="970.5,1500.6094,960.5,1504.6094,970.5,1508.6094,966.5,1504.6094" style="stroke:#181818;stroke-width:1.0;"/><text fill="#000000" font-family="sans-serif" font-size="13" font-weight="bold" lengthAdjust="spacing" textLength="14" x="972.5" y="1486.7529">36</text><text fill="#000000" font-family="sans-serif" font-size="13" lengthAdjust="spacing" textLength="4" x="990.5" y="1486.7529"> </text><polygon fill="#181818" points="559.5,1525.9609,549.5,1529.9609,559.5,1533.9609,555.5,1529.9609" style="stroke:#181818;stroke-width:1.0;"/><line style="stroke:#181818;stroke-width:1.0;stroke-dasharray:2.0,2.0;" x1="553.5" x2="954.5" y1="1529.9609" y2="1529.9609"/><text fill="#000000" font-family="sans-serif" font-size="13" font-weight="bold" lengthAdjust="spacing" textLength="14" x="565.5" y="1525.1045">37</text><text fill="#000000" font-family="sans-serif" font-size="13" lengthAdjust="spacing" textLength="49" x="583.5" y="1525.1045">success</text><polygon fill="#181818" points="335.5,1556.3125,325.5,1560.3125,335.5,1564.3125,331.5,1560.3125" style="stroke:#181818;stroke-width:1.0;"/><line style="stroke:#181818;stroke-width:1.0;stroke-dasharray:2.0,2.0;" x1="329.5" x2="542.5" y1="1560.3125" y2="1560.3125"/><text fill="#000000" font-family="sans-serif" font-size="13" font-weight="bold" lengthAdjust="spacing" textLength="14" x="341.5" y="1555.4561">38</text><text fill="#000000" font-family="sans-serif" font-size="13" lengthAdjust="spacing" textLength="49" x="359.5" y="1555.4561">success</text><polygon fill="#181818" points="34.5,1586.6641,24.5,1590.6641,34.5,1594.6641,30.5,1590.6641" style="stroke:#181818;stroke-width:1.0;"/><line style="stroke:#181818;stroke-width:1.0;stroke-dasharray:2.0,2.0;" x1="28.5" x2="318.5" y1="1590.6641" y2="1590.6641"/><text fill="#000000" font-family="sans-serif" font-size="13" font-weight="bold" lengthAdjust="spacing" textLength="14" x="40.5" y="1585.8076">39</text><text fill="#000000" font-family="sans-serif" font-size="13" lengthAdjust="spacing" textLength="158" x="58.5" y="1585.8076">displays success message</text><!--SRC=[bLLDRzim3BtxLn2zB2cIejWnm0OK3HO4QBkWJcwzQ3Rh2BKbJr8MPBz-fEpOyaUwDa0jsNhlaUAZLFicLIcCAA3GIYTxemi4PmuOsMQb5CcRo31sfnp1OEA4ol8GOFSYrKUfCdWLkSKe-kAa8snyiWuBYF7t0LM2i9GYO_maZfTJcCCkllrw6qNYuBGw5B_Gq3nnsi3LAdwy0c61neXYE9d8KYW7Lujdp2IfcfL1L36bXhkrX-xM_qNUQ-MCpdCqdd6_VNuOS4fj9QKWqNfCy-4KIzurPTgbc83neeO2cuUxRPUHDVcqueiNjHhvx1Koop5wYRReHr6MzOQeMfjBiIYtbbEZBs6NJdVWzEuPo-rFxv3y8nnwRoAW7qrW_fqCW0KSISg2qzGdLVL1WC8ZU76mhEOvZGhPvZ_mZnH8XssvlYQjn20Xse3UBtumQiGOecJerifIWoOucRRCCHV71EPrU58AVOrIV5Vgd1DxNIKnPcQOaEyA3-UGFkO2nXeZ3Er9mRklHrWxac8lE7awSPQCI8KJC56Ym1cuKqbFGKMTGI4KdMWpWnSbqjIWjJ2nZkAx6VoLvJpHAM4JwKxJQHCY24skXQwxFSB1ajceo78BGgLWCQUhmlerJYCAoRjrawlTwsETADEQr1EjNgKfX9DKuGkX5rNK6cex8NmCwbZVIfrUVgyUGH7ksngqmdm4w8_3yy1Rb_Q61U4Ry32ooe5ebOUHLKw0LdaOMQqJ8q0z6rEe7IIHQZQ2uMqGW8UHrNgt1AXd5UPiR-Tc2Btm5q9xQfip-uJ7LJpfqAOz3yTFTNNNVLZ7Svkt-gAiDQe6s_0MzL8NGgg-K7YJRQB8epqhl7r2544g0BSjkZj2T3LlikhhTC3oj31rUkl9FL7t3ENuw-VbmhuRI6wv4GVejjC6XCUwzVgKjl66LQWxiStMMz7YUibNnGyxu1AKh6eTRljbZydR3ssMXpAN2I5jKChfEptIAD1csblY0sHAjduFqlia8lo7Omz9mXKROiUEolbeZh2wXwAwREVVgN2BLDeo5oTxPa513tAsTpIxvOx-0G00]--></g></svg>