<?xml version="1.0" encoding="UTF-8" standalone="no"?><svg xmlns="http://www.w3.org/2000/svg" xmlns:xlink="http://www.w3.org/1999/xlink" contentStyleType="text/css" height="1335px" preserveAspectRatio="none" style="width:1958px;height:1335px;background:#FFFFFF;" version="1.1" viewBox="0 0 1958 1335" width="1958px" zoomAndPan="magnify"><defs/><g><rect fill="#FFFFFF" height="1142.5938" style="stroke:#181818;stroke-width:1.0;" width="10" x="18.5" y="92.6094"/><rect fill="#FFFFFF" height="210.7188" style="stroke:#181818;stroke-width:1.0;" width="10" x="314.5" y="114.9609"/><rect fill="#FFFFFF" height="30.3516" style="stroke:#181818;stroke-width:1.0;" width="10" x="314.5" y="356.0313"/><rect fill="#FFFFFF" height="30.3516" style="stroke:#181818;stroke-width:1.0;" width="10" x="314.5" y="416.7344"/><rect fill="#FFFFFF" height="30.3516" style="stroke:#181818;stroke-width:1.0;" width="10" x="314.5" y="1204.8516"/><rect fill="#FFFFFF" height="123.6641" style="stroke:#181818;stroke-width:1.0;" width="10" x="668.5" y="155.3125"/><rect fill="#FFFFFF" height="242.3281" style="stroke:#181818;stroke-width:1.0;" width="10" x="668.5" y="447.0859"/><rect fill="#FFFFFF" height="30.3516" style="stroke:#181818;stroke-width:1.0;" width="10" x="668.5" y="1174.5"/><rect fill="#FFFFFF" height="30.3516" style="stroke:#181818;stroke-width:1.0;" width="10" x="833.5" y="187.9219"/><rect fill="#FFFFFF" height="30.3516" style="stroke:#181818;stroke-width:1.0;" width="10" x="940.5" y="248.625"/><rect fill="#FFFFFF" height="485.0859" style="stroke:#181818;stroke-width:1.0;" width="10" x="1080.5" y="689.4141"/><rect fill="#FFFFFF" height="128.0547" style="stroke:#181818;stroke-width:1.0;" width="10" x="1085.5" y="1009.0938"/><rect fill="#FFFFFF" height="41.3516" style="stroke:#181818;stroke-width:1.0;" width="10" x="1090.5" y="1052.4453"/><rect fill="#FFFFFF" height="30.3516" style="stroke:#181818;stroke-width:1.0;" width="10" x="1314.5" y="477.4375"/><rect fill="#FFFFFF" height="30.3516" style="stroke:#181818;stroke-width:1.0;" width="10" x="1461.5" y="538.1406"/><rect fill="#FFFFFF" height="250.9766" style="stroke:#181818;stroke-width:1.0;" width="10" x="1613" y="719.7656"/><rect fill="#FFFFFF" height="180.2734" style="stroke:#181818;stroke-width:1.0;" width="10" x="1745" y="760.1172"/><rect fill="#FFFFFF" height="50.2188" style="stroke:#181818;stroke-width:1.0;" width="10" x="1887" y="608.8438"/><line style="stroke:#181818;stroke-width:0.5;stroke-dasharray:5.0,5.0;" x1="23" x2="23" y1="82.6094" y2="1253.2031"/><line style="stroke:#181818;stroke-width:0.5;stroke-dasharray:5.0,5.0;" x1="319" x2="319" y1="82.6094" y2="1253.2031"/><line style="stroke:#181818;stroke-width:0.5;stroke-dasharray:5.0,5.0;" x1="673" x2="673" y1="154.2656" y2="1253.2031"/><line style="stroke:#181818;stroke-width:0.5;stroke-dasharray:5.0,5.0;" x1="838" x2="838" y1="82.6094" y2="1253.2031"/><line style="stroke:#181818;stroke-width:0.5;stroke-dasharray:5.0,5.0;" x1="945" x2="945" y1="82.6094" y2="1253.2031"/><line style="stroke:#181818;stroke-width:0.5;stroke-dasharray:5.0,5.0;" x1="1085" x2="1085" y1="82.6094" y2="1253.2031"/><line style="stroke:#181818;stroke-width:0.5;stroke-dasharray:5.0,5.0;" x1="1319" x2="1319" y1="82.6094" y2="1253.2031"/><line style="stroke:#181818;stroke-width:0.5;stroke-dasharray:5.0,5.0;" x1="1466" x2="1466" y1="82.6094" y2="1253.2031"/><line style="stroke:#181818;stroke-width:0.5;stroke-dasharray:5.0,5.0;" x1="1618" x2="1618" y1="82.6094" y2="1253.2031"/><line style="stroke:#181818;stroke-width:0.5;stroke-dasharray:5.0,5.0;" x1="1750" x2="1750" y1="767.875" y2="1253.2031"/><line style="stroke:#181818;stroke-width:0.5;stroke-dasharray:5.0,5.0;" x1="1892" x2="1892" y1="616.6016" y2="1253.2031"/><text fill="#000000" font-family="sans-serif" font-size="14" lengthAdjust="spacing" textLength="31" x="5" y="79.5332">GSM</text><ellipse cx="23.5" cy="13.5" fill="#E3E3E3" rx="8" ry="8" style="stroke:#181818;stroke-width:0.5;"/><path d="M23.5,21.5 L23.5,48.5 M10.5,29.5 L36.5,29.5 M23.5,48.5 L10.5,63.5 M23.5,48.5 L36.5,63.5 " fill="none" style="stroke:#181818;stroke-width:0.5;"/><text fill="#000000" font-family="sans-serif" font-size="14" lengthAdjust="spacing" textLength="31" x="5" y="1266.7363">GSM</text><ellipse cx="23.5" cy="1278.3125" fill="#E3E3E3" rx="8" ry="8" style="stroke:#181818;stroke-width:0.5;"/><path d="M23.5,1286.3125 L23.5,1313.3125 M10.5,1294.3125 L36.5,1294.3125 M23.5,1313.3125 L10.5,1328.3125 M23.5,1313.3125 L36.5,1328.3125 " fill="none" style="stroke:#181818;stroke-width:0.5;"/><rect fill="#E3E3E3" height="31.6094" rx="2.5" ry="2.5" style="stroke:#181818;stroke-width:0.5;" width="163" x="238" y="50"/><text fill="#000000" font-family="sans-serif" font-size="14" lengthAdjust="spacing" textLength="149" x="245" y="71.5332">:RegisterGreenSpaceUI</text><rect fill="#E3E3E3" height="31.6094" rx="2.5" ry="2.5" style="stroke:#181818;stroke-width:0.5;" width="163" x="238" y="1252.2031"/><text fill="#000000" font-family="sans-serif" font-size="14" lengthAdjust="spacing" textLength="149" x="245" y="1273.7363">:RegisterGreenSpaceUI</text><rect fill="#E3E3E3" height="31.6094" rx="2.5" ry="2.5" style="stroke:#181818;stroke-width:0.5;" width="213" x="567" y="1252.2031"/><text fill="#000000" font-family="sans-serif" font-size="14" lengthAdjust="spacing" textLength="199" x="574" y="1273.7363">:RegisterGreenSpaceController</text><rect fill="#E3E3E3" height="31.6094" rx="2.5" ry="2.5" style="stroke:#181818;stroke-width:0.5;" width="97" x="790" y="50"/><text fill="#000000" font-family="sans-serif" font-size="14" lengthAdjust="spacing" textLength="83" x="797" y="71.5332">:Repositories</text><rect fill="#E3E3E3" height="31.6094" rx="2.5" ry="2.5" style="stroke:#181818;stroke-width:0.5;" width="97" x="790" y="1252.2031"/><text fill="#000000" font-family="sans-serif" font-size="14" lengthAdjust="spacing" textLength="83" x="797" y="1273.7363">:Repositories</text><rect fill="#E3E3E3" height="49.2188" rx="2.5" ry="2.5" style="stroke:#181818;stroke-width:0.5;" width="97" x="897" y="32.3906"/><text fill="#000000" font-family="sans-serif" font-size="14" lengthAdjust="spacing" textLength="74" x="908.5" y="53.9238">repositories</text><text fill="#000000" font-family="sans-serif" font-size="14" lengthAdjust="spacing" textLength="83" x="904" y="71.5332">:Repositories</text><rect fill="#E3E3E3" height="49.2188" rx="2.5" ry="2.5" style="stroke:#181818;stroke-width:0.5;" width="97" x="897" y="1252.2031"/><text fill="#000000" font-family="sans-serif" font-size="14" lengthAdjust="spacing" textLength="74" x="908.5" y="1273.7363">repositories</text><text fill="#000000" font-family="sans-serif" font-size="14" lengthAdjust="spacing" textLength="83" x="904" y="1291.3457">:Repositories</text><rect fill="#E3E3E3" height="49.2188" rx="2.5" ry="2.5" style="stroke:#181818;stroke-width:0.5;" width="163" x="1004" y="32.3906"/><text fill="#000000" font-family="sans-serif" font-size="14" lengthAdjust="spacing" textLength="149" x="1011" y="53.9238">greenSpaceRepository:</text><text fill="#000000" font-family="sans-serif" font-size="14" lengthAdjust="spacing" textLength="148" x="1011.5" y="71.5332">GreenSpaceRepository</text><rect fill="#E3E3E3" height="49.2188" rx="2.5" ry="2.5" style="stroke:#181818;stroke-width:0.5;" width="163" x="1004" y="1252.2031"/><text fill="#000000" font-family="sans-serif" font-size="14" lengthAdjust="spacing" textLength="149" x="1011" y="1273.7363">greenSpaceRepository:</text><text fill="#000000" font-family="sans-serif" font-size="14" lengthAdjust="spacing" textLength="148" x="1011.5" y="1291.3457">GreenSpaceRepository</text><rect fill="#E3E3E3" height="31.6094" rx="2.5" ry="2.5" style="stroke:#181818;stroke-width:0.5;" width="137" x="1251" y="50"/><text fill="#000000" font-family="sans-serif" font-size="14" lengthAdjust="spacing" textLength="123" x="1258" y="71.5332">:ApplicationSession</text><rect fill="#E3E3E3" height="31.6094" rx="2.5" ry="2.5" style="stroke:#181818;stroke-width:0.5;" width="137" x="1251" y="1252.2031"/><text fill="#000000" font-family="sans-serif" font-size="14" lengthAdjust="spacing" textLength="123" x="1258" y="1273.7363">:ApplicationSession</text><rect fill="#E3E3E3" height="49.2188" rx="2.5" ry="2.5" style="stroke:#181818;stroke-width:0.5;" width="137" x="1398" y="32.3906"/><text fill="#000000" font-family="sans-serif" font-size="14" lengthAdjust="spacing" textLength="118" x="1407.5" y="53.9238">applicationSession</text><text fill="#000000" font-family="sans-serif" font-size="14" lengthAdjust="spacing" textLength="123" x="1405" y="71.5332">:ApplicationSession</text><rect fill="#E3E3E3" height="49.2188" rx="2.5" ry="2.5" style="stroke:#181818;stroke-width:0.5;" width="137" x="1398" y="1252.2031"/><text fill="#000000" font-family="sans-serif" font-size="14" lengthAdjust="spacing" textLength="118" x="1407.5" y="1273.7363">applicationSession</text><text fill="#000000" font-family="sans-serif" font-size="14" lengthAdjust="spacing" textLength="123" x="1405" y="1291.3457">:ApplicationSession</text><rect fill="#E3E3E3" height="31.6094" rx="2.5" ry="2.5" style="stroke:#181818;stroke-width:0.5;" width="146" x="1545" y="50"/><text fill="#000000" font-family="sans-serif" font-size="14" lengthAdjust="spacing" textLength="132" x="1552" y="71.5332">:GreenSpaceMapper</text><rect fill="#E3E3E3" height="31.6094" rx="2.5" ry="2.5" style="stroke:#181818;stroke-width:0.5;" width="146" x="1545" y="1252.2031"/><text fill="#000000" font-family="sans-serif" font-size="14" lengthAdjust="spacing" textLength="132" x="1552" y="1273.7363">:GreenSpaceMapper</text><rect fill="#E3E3E3" height="49.2188" rx="2.5" ry="2.5" style="stroke:#181818;stroke-width:0.5;" width="98" x="1701" y="1252.2031"/><text fill="#000000" font-family="sans-serif" font-size="14" lengthAdjust="spacing" textLength="77" x="1711.5" y="1273.7363">greenSpace</text><text fill="#000000" font-family="sans-serif" font-size="14" lengthAdjust="spacing" textLength="84" x="1708" y="1291.3457">:GreenSpace</text><rect fill="#E3E3E3" height="49.2188" rx="2.5" ry="2.5" style="stroke:#181818;stroke-width:0.5;" width="120" x="1832" y="1252.2031"/><text fill="#000000" font-family="sans-serif" font-size="14" lengthAdjust="spacing" textLength="99" x="1842.5" y="1273.7363">greenSpaceDto</text><text fill="#000000" font-family="sans-serif" font-size="14" lengthAdjust="spacing" textLength="106" x="1839" y="1291.3457">:GreenSpaceDto</text><rect fill="#FFFFFF" height="1142.5938" style="stroke:#181818;stroke-width:1.0;" width="10" x="18.5" y="92.6094"/><rect fill="#FFFFFF" height="210.7188" style="stroke:#181818;stroke-width:1.0;" width="10" x="314.5" y="114.9609"/><rect fill="#FFFFFF" height="30.3516" style="stroke:#181818;stroke-width:1.0;" width="10" x="314.5" y="356.0313"/><rect fill="#FFFFFF" height="30.3516" style="stroke:#181818;stroke-width:1.0;" width="10" x="314.5" y="416.7344"/><rect fill="#FFFFFF" height="30.3516" style="stroke:#181818;stroke-width:1.0;" width="10" x="314.5" y="1204.8516"/><rect fill="#FFFFFF" height="123.6641" style="stroke:#181818;stroke-width:1.0;" width="10" x="668.5" y="155.3125"/><rect fill="#FFFFFF" height="242.3281" style="stroke:#181818;stroke-width:1.0;" width="10" x="668.5" y="447.0859"/><rect fill="#FFFFFF" height="30.3516" style="stroke:#181818;stroke-width:1.0;" width="10" x="668.5" y="1174.5"/><rect fill="#FFFFFF" height="30.3516" style="stroke:#181818;stroke-width:1.0;" width="10" x="833.5" y="187.9219"/><rect fill="#FFFFFF" height="30.3516" style="stroke:#181818;stroke-width:1.0;" width="10" x="940.5" y="248.625"/><rect fill="#FFFFFF" height="485.0859" style="stroke:#181818;stroke-width:1.0;" width="10" x="1080.5" y="689.4141"/><rect fill="#FFFFFF" height="128.0547" style="stroke:#181818;stroke-width:1.0;" width="10" x="1085.5" y="1009.0938"/><rect fill="#FFFFFF" height="41.3516" style="stroke:#181818;stroke-width:1.0;" width="10" x="1090.5" y="1052.4453"/><rect fill="#FFFFFF" height="30.3516" style="stroke:#181818;stroke-width:1.0;" width="10" x="1314.5" y="477.4375"/><rect fill="#FFFFFF" height="30.3516" style="stroke:#181818;stroke-width:1.0;" width="10" x="1461.5" y="538.1406"/><rect fill="#FFFFFF" height="250.9766" style="stroke:#181818;stroke-width:1.0;" width="10" x="1613" y="719.7656"/><rect fill="#FFFFFF" height="180.2734" style="stroke:#181818;stroke-width:1.0;" width="10" x="1745" y="760.1172"/><rect fill="#FFFFFF" height="50.2188" style="stroke:#181818;stroke-width:1.0;" width="10" x="1887" y="608.8438"/><polygon fill="#181818" points="302.5,110.9609,312.5,114.9609,302.5,118.9609,306.5,114.9609" style="stroke:#181818;stroke-width:1.0;"/><line style="stroke:#181818;stroke-width:1.0;" x1="28.5" x2="308.5" y1="114.9609" y2="114.9609"/><text fill="#000000" font-family="sans-serif" font-size="13" font-weight="bold" lengthAdjust="spacing" textLength="7" x="35.5" y="110.1045">1</text><text fill="#000000" font-family="sans-serif" font-size="13" lengthAdjust="spacing" textLength="209" x="46.5" y="110.1045">wants to register a new green space</text><polygon fill="#181818" points="555,141.3125,565,145.3125,555,149.3125,559,145.3125" style="stroke:#181818;stroke-width:1.0;"/><line style="stroke:#181818;stroke-width:1.0;" x1="324.5" x2="561" y1="145.3125" y2="145.3125"/><text fill="#000000" font-family="sans-serif" font-size="13" font-weight="bold" lengthAdjust="spacing" textLength="7" x="331.5" y="140.4561">2</text><text fill="#000000" font-family="sans-serif" font-size="13" lengthAdjust="spacing" textLength="36" x="342.5" y="140.4561">create</text><rect fill="#E3E3E3" height="31.6094" rx="2.5" ry="2.5" style="stroke:#181818;stroke-width:0.5;" width="213" x="567" y="122.9609"/><text fill="#000000" font-family="sans-serif" font-size="14" lengthAdjust="spacing" textLength="199" x="574" y="144.4941">:RegisterGreenSpaceController</text><polygon fill="#181818" points="821.5,183.9219,831.5,187.9219,821.5,191.9219,825.5,187.9219" style="stroke:#181818;stroke-width:1.0;"/><line style="stroke:#181818;stroke-width:1.0;" x1="678.5" x2="827.5" y1="187.9219" y2="187.9219"/><text fill="#000000" font-family="sans-serif" font-size="13" font-weight="bold" lengthAdjust="spacing" textLength="7" x="685.5" y="183.0654">3</text><text fill="#000000" font-family="sans-serif" font-size="13" lengthAdjust="spacing" textLength="75" x="696.5" y="183.0654">getInstance()</text><polygon fill="#181818" points="689.5,214.2734,679.5,218.2734,689.5,222.2734,685.5,218.2734" style="stroke:#181818;stroke-width:1.0;"/><line style="stroke:#181818;stroke-width:1.0;stroke-dasharray:2.0,2.0;" x1="683.5" x2="837.5" y1="218.2734" y2="218.2734"/><text fill="#000000" font-family="sans-serif" font-size="13" font-weight="bold" lengthAdjust="spacing" textLength="7" x="695.5" y="213.417">4</text><text fill="#000000" font-family="sans-serif" font-size="13" lengthAdjust="spacing" textLength="67" x="706.5" y="213.417">repositories</text><polygon fill="#181818" points="928.5,244.625,938.5,248.625,928.5,252.625,932.5,248.625" style="stroke:#181818;stroke-width:1.0;"/><line style="stroke:#181818;stroke-width:1.0;" x1="678.5" x2="934.5" y1="248.625" y2="248.625"/><text fill="#000000" font-family="sans-serif" font-size="13" font-weight="bold" lengthAdjust="spacing" textLength="7" x="685.5" y="243.7686">5</text><text fill="#000000" font-family="sans-serif" font-size="13" lengthAdjust="spacing" textLength="160" x="696.5" y="243.7686">getGreenSpaceRepository()</text><polygon fill="#181818" points="684.5,274.9766,674.5,278.9766,684.5,282.9766,680.5,278.9766" style="stroke:#181818;stroke-width:1.0;"/><line style="stroke:#181818;stroke-width:1.0;stroke-dasharray:2.0,2.0;" x1="678.5" x2="944.5" y1="278.9766" y2="278.9766"/><text fill="#000000" font-family="sans-serif" font-size="13" font-weight="bold" lengthAdjust="spacing" textLength="7" x="690.5" y="274.1201">6</text><text fill="#000000" font-family="sans-serif" font-size="13" lengthAdjust="spacing" textLength="131" x="701.5" y="274.1201">greenSpaceRepository</text><polygon fill="#181818" points="39.5,321.6797,29.5,325.6797,39.5,329.6797,35.5,325.6797" style="stroke:#181818;stroke-width:1.0;"/><line style="stroke:#181818;stroke-width:1.0;stroke-dasharray:2.0,2.0;" x1="33.5" x2="318.5" y1="325.6797" y2="325.6797"/><text fill="#000000" font-family="sans-serif" font-size="13" font-weight="bold" lengthAdjust="spacing" textLength="7" x="45.5" y="312.6475">7</text><text fill="#000000" font-family="sans-serif" font-size="13" lengthAdjust="spacing" textLength="247" x="56.5" y="304.4717">requests data (name, type, area, manager,</text><text fill="#000000" font-family="sans-serif" font-size="13" lengthAdjust="spacing" textLength="181" x="56.5" y="320.8232">address (street, zip-code, city))</text><polygon fill="#181818" points="302.5,352.0313,312.5,356.0313,302.5,360.0313,306.5,356.0313" style="stroke:#181818;stroke-width:1.0;"/><line style="stroke:#181818;stroke-width:1.0;" x1="28.5" x2="308.5" y1="356.0313" y2="356.0313"/><text fill="#000000" font-family="sans-serif" font-size="13" font-weight="bold" lengthAdjust="spacing" textLength="7" x="35.5" y="351.1748">8</text><text fill="#000000" font-family="sans-serif" font-size="13" lengthAdjust="spacing" textLength="209" x="46.5" y="351.1748">the user enters and selects the data</text><polygon fill="#181818" points="39.5,382.3828,29.5,386.3828,39.5,390.3828,35.5,386.3828" style="stroke:#181818;stroke-width:1.0;"/><line style="stroke:#181818;stroke-width:1.0;" x1="33.5" x2="318.5" y1="386.3828" y2="386.3828"/><text fill="#000000" font-family="sans-serif" font-size="13" font-weight="bold" lengthAdjust="spacing" textLength="7" x="45.5" y="381.5264">9</text><text fill="#000000" font-family="sans-serif" font-size="13" lengthAdjust="spacing" textLength="219" x="56.5" y="381.5264">shows data and requests confirmation</text><polygon fill="#181818" points="302.5,412.7344,312.5,416.7344,302.5,420.7344,306.5,416.7344" style="stroke:#181818;stroke-width:1.0;"/><line style="stroke:#181818;stroke-width:1.0;" x1="28.5" x2="308.5" y1="416.7344" y2="416.7344"/><text fill="#000000" font-family="sans-serif" font-size="13" font-weight="bold" lengthAdjust="spacing" textLength="14" x="35.5" y="411.8779">10</text><text fill="#000000" font-family="sans-serif" font-size="13" lengthAdjust="spacing" textLength="78" x="53.5" y="411.8779">user confirms</text><polygon fill="#181818" points="656.5,443.0859,666.5,447.0859,656.5,451.0859,660.5,447.0859" style="stroke:#181818;stroke-width:1.0;"/><line style="stroke:#181818;stroke-width:1.0;" x1="319.5" x2="662.5" y1="447.0859" y2="447.0859"/><text fill="#000000" font-family="sans-serif" font-size="13" font-weight="bold" lengthAdjust="spacing" textLength="14" x="326.5" y="442.2295">11</text><text fill="#000000" font-family="sans-serif" font-size="13" lengthAdjust="spacing" textLength="307" x="344.5" y="442.2295">createNewGS(name, type, area street, zipCode, city)</text><polygon fill="#181818" points="1302.5,473.4375,1312.5,477.4375,1302.5,481.4375,1306.5,477.4375" style="stroke:#181818;stroke-width:1.0;"/><line style="stroke:#181818;stroke-width:1.0;" x1="678.5" x2="1308.5" y1="477.4375" y2="477.4375"/><text fill="#000000" font-family="sans-serif" font-size="13" font-weight="bold" lengthAdjust="spacing" textLength="14" x="685.5" y="472.5811">12</text><text fill="#000000" font-family="sans-serif" font-size="13" lengthAdjust="spacing" textLength="67" x="703.5" y="472.5811">getInstance</text><polygon fill="#181818" points="689.5,503.7891,679.5,507.7891,689.5,511.7891,685.5,507.7891" style="stroke:#181818;stroke-width:1.0;"/><line style="stroke:#181818;stroke-width:1.0;stroke-dasharray:2.0,2.0;" x1="683.5" x2="1318.5" y1="507.7891" y2="507.7891"/><text fill="#000000" font-family="sans-serif" font-size="13" font-weight="bold" lengthAdjust="spacing" textLength="14" x="695.5" y="502.9326">13</text><text fill="#000000" font-family="sans-serif" font-size="13" lengthAdjust="spacing" textLength="109" x="713.5" y="502.9326">applicationSession</text><polygon fill="#181818" points="1449.5,534.1406,1459.5,538.1406,1449.5,542.1406,1453.5,538.1406" style="stroke:#181818;stroke-width:1.0;"/><line style="stroke:#181818;stroke-width:1.0;" x1="678.5" x2="1455.5" y1="538.1406" y2="538.1406"/><text fill="#000000" font-family="sans-serif" font-size="13" font-weight="bold" lengthAdjust="spacing" textLength="14" x="685.5" y="533.2842">14</text><text fill="#000000" font-family="sans-serif" font-size="13" lengthAdjust="spacing" textLength="115" x="703.5" y="533.2842">getCurrentSession()</text><polygon fill="#181818" points="689.5,564.4922,679.5,568.4922,689.5,572.4922,685.5,568.4922" style="stroke:#181818;stroke-width:1.0;"/><line style="stroke:#181818;stroke-width:1.0;stroke-dasharray:2.0,2.0;" x1="683.5" x2="1465.5" y1="568.4922" y2="568.4922"/><text fill="#000000" font-family="sans-serif" font-size="13" font-weight="bold" lengthAdjust="spacing" textLength="14" x="695.5" y="563.6357">15</text><text fill="#000000" font-family="sans-serif" font-size="13" lengthAdjust="spacing" textLength="50" x="713.5" y="563.6357">manager</text><polygon fill="#181818" points="1820,594.8438,1830,598.8438,1820,602.8438,1824,598.8438" style="stroke:#181818;stroke-width:1.0;"/><line style="stroke:#181818;stroke-width:1.0;" x1="678.5" x2="1826" y1="598.8438" y2="598.8438"/><text fill="#000000" font-family="sans-serif" font-size="13" font-weight="bold" lengthAdjust="spacing" textLength="14" x="685.5" y="593.9873">16</text><text fill="#000000" font-family="sans-serif" font-size="13" lengthAdjust="spacing" textLength="325" x="703.5" y="593.9873">create(name, type, area, manager, street, zipCode, city)</text><rect fill="#E3E3E3" height="49.2188" rx="2.5" ry="2.5" style="stroke:#181818;stroke-width:0.5;" width="120" x="1832" y="576.4922"/><text fill="#000000" font-family="sans-serif" font-size="14" lengthAdjust="spacing" textLength="99" x="1842.5" y="598.0254">greenSpaceDto</text><text fill="#000000" font-family="sans-serif" font-size="14" lengthAdjust="spacing" textLength="106" x="1839" y="615.6348">:GreenSpaceDto</text><polygon fill="#181818" points="689.5,655.0625,679.5,659.0625,689.5,663.0625,685.5,659.0625" style="stroke:#181818;stroke-width:1.0;"/><line style="stroke:#181818;stroke-width:1.0;stroke-dasharray:2.0,2.0;" x1="683.5" x2="1891" y1="659.0625" y2="659.0625"/><text fill="#000000" font-family="sans-serif" font-size="13" font-weight="bold" lengthAdjust="spacing" textLength="14" x="695.5" y="654.2061">17</text><text fill="#000000" font-family="sans-serif" font-size="13" lengthAdjust="spacing" textLength="89" x="713.5" y="654.2061">greenSpaceDto</text><polygon fill="#181818" points="1068.5,685.4141,1078.5,689.4141,1068.5,693.4141,1072.5,689.4141" style="stroke:#181818;stroke-width:1.0;"/><line style="stroke:#181818;stroke-width:1.0;" x1="673.5" x2="1074.5" y1="689.4141" y2="689.4141"/><text fill="#000000" font-family="sans-serif" font-size="13" font-weight="bold" lengthAdjust="spacing" textLength="14" x="680.5" y="684.5576">18</text><text fill="#000000" font-family="sans-serif" font-size="13" lengthAdjust="spacing" textLength="177" x="698.5" y="684.5576">createNewGS(greenSpaceDto)</text><polygon fill="#181818" points="1601,715.7656,1611,719.7656,1601,723.7656,1605,719.7656" style="stroke:#181818;stroke-width:1.0;"/><line style="stroke:#181818;stroke-width:1.0;" x1="1090.5" x2="1607" y1="719.7656" y2="719.7656"/><text fill="#000000" font-family="sans-serif" font-size="13" font-weight="bold" lengthAdjust="spacing" textLength="14" x="1097.5" y="714.9092">19</text><text fill="#000000" font-family="sans-serif" font-size="13" lengthAdjust="spacing" textLength="152" x="1115.5" y="714.9092">toDomain(greenSpaceDto)</text><polygon fill="#181818" points="1689,746.1172,1699,750.1172,1689,754.1172,1693,750.1172" style="stroke:#181818;stroke-width:1.0;"/><line style="stroke:#181818;stroke-width:1.0;" x1="1623" x2="1695" y1="750.1172" y2="750.1172"/><text fill="#000000" font-family="sans-serif" font-size="13" font-weight="bold" lengthAdjust="spacing" textLength="14" x="1630" y="745.2607">20</text><text fill="#000000" font-family="sans-serif" font-size="13" lengthAdjust="spacing" textLength="36" x="1648" y="745.2607">create</text><rect fill="#E3E3E3" height="49.2188" rx="2.5" ry="2.5" style="stroke:#181818;stroke-width:0.5;" width="98" x="1701" y="727.7656"/><text fill="#000000" font-family="sans-serif" font-size="14" lengthAdjust="spacing" textLength="77" x="1711.5" y="749.2988">greenSpace</text><text fill="#000000" font-family="sans-serif" font-size="14" lengthAdjust="spacing" textLength="84" x="1708" y="766.9082">:GreenSpace</text><line style="stroke:#181818;stroke-width:1.0;" x1="1755" x2="1797" y1="810.3359" y2="810.3359"/><line style="stroke:#181818;stroke-width:1.0;" x1="1797" x2="1797" y1="810.3359" y2="823.3359"/><line style="stroke:#181818;stroke-width:1.0;" x1="1756" x2="1797" y1="823.3359" y2="823.3359"/><polygon fill="#181818" points="1766,819.3359,1756,823.3359,1766,827.3359,1762,823.3359" style="stroke:#181818;stroke-width:1.0;"/><text fill="#000000" font-family="sans-serif" font-size="13" font-weight="bold" lengthAdjust="spacing" textLength="14" x="1762" y="805.4795">21</text><text fill="#000000" font-family="sans-serif" font-size="13" lengthAdjust="spacing" textLength="89" x="1780" y="805.4795">verifyArea(area)</text><line style="stroke:#181818;stroke-width:1.0;" x1="1755" x2="1797" y1="853.6875" y2="853.6875"/><line style="stroke:#181818;stroke-width:1.0;" x1="1797" x2="1797" y1="853.6875" y2="866.6875"/><line style="stroke:#181818;stroke-width:1.0;" x1="1756" x2="1797" y1="866.6875" y2="866.6875"/><polygon fill="#181818" points="1766,862.6875,1756,866.6875,1766,870.6875,1762,866.6875" style="stroke:#181818;stroke-width:1.0;"/><text fill="#000000" font-family="sans-serif" font-size="13" font-weight="bold" lengthAdjust="spacing" textLength="14" x="1762" y="848.8311">22</text><text fill="#000000" font-family="sans-serif" font-size="13" lengthAdjust="spacing" textLength="100" x="1780" y="848.8311">verifyFilled(name)</text><line style="stroke:#181818;stroke-width:1.0;" x1="1755" x2="1797" y1="897.0391" y2="897.0391"/><line style="stroke:#181818;stroke-width:1.0;" x1="1797" x2="1797" y1="897.0391" y2="910.0391"/><line style="stroke:#181818;stroke-width:1.0;" x1="1756" x2="1797" y1="910.0391" y2="910.0391"/><polygon fill="#181818" points="1766,906.0391,1756,910.0391,1766,914.0391,1762,910.0391" style="stroke:#181818;stroke-width:1.0;"/><text fill="#000000" font-family="sans-serif" font-size="13" font-weight="bold" lengthAdjust="spacing" textLength="14" x="1762" y="892.1826">23</text><text fill="#000000" font-family="sans-serif" font-size="13" lengthAdjust="spacing" textLength="79" x="1780" y="892.1826">setType(type)</text><polygon fill="#181818" points="1634,936.3906,1624,940.3906,1634,944.3906,1630,940.3906" style="stroke:#181818;stroke-width:1.0;"/><line style="stroke:#181818;stroke-width:1.0;stroke-dasharray:2.0,2.0;" x1="1628" x2="1749" y1="940.3906" y2="940.3906"/><text fill="#000000" font-family="sans-serif" font-size="13" font-weight="bold" lengthAdjust="spacing" textLength="14" x="1640" y="935.5342">24</text><text fill="#000000" font-family="sans-serif" font-size="13" lengthAdjust="spacing" textLength="69" x="1658" y="935.5342">greenSpace</text><polygon fill="#181818" points="1101.5,966.7422,1091.5,970.7422,1101.5,974.7422,1097.5,970.7422" style="stroke:#181818;stroke-width:1.0;"/><line style="stroke:#181818;stroke-width:1.0;stroke-dasharray:2.0,2.0;" x1="1095.5" x2="1617" y1="970.7422" y2="970.7422"/><text fill="#000000" font-family="sans-serif" font-size="13" font-weight="bold" lengthAdjust="spacing" textLength="14" x="1107.5" y="965.8857">25</text><text fill="#000000" font-family="sans-serif" font-size="13" lengthAdjust="spacing" textLength="69" x="1125.5" y="965.8857">greenSpace</text><line style="stroke:#181818;stroke-width:1.0;" x1="1090.5" x2="1137.5" y1="996.0938" y2="996.0938"/><line style="stroke:#181818;stroke-width:1.0;" x1="1137.5" x2="1137.5" y1="996.0938" y2="1009.0938"/><line style="stroke:#181818;stroke-width:1.0;" x1="1096.5" x2="1137.5" y1="1009.0938" y2="1009.0938"/><polygon fill="#181818" points="1106.5,1005.0938,1096.5,1009.0938,1106.5,1013.0938,1102.5,1009.0938" style="stroke:#181818;stroke-width:1.0;"/><text fill="#000000" font-family="sans-serif" font-size="13" font-weight="bold" lengthAdjust="spacing" textLength="14" x="1102.5" y="991.2373">26</text><text fill="#000000" font-family="sans-serif" font-size="13" lengthAdjust="spacing" textLength="192" x="1120.5" y="991.2373">checkForDuplicates(greenSpace)</text><line style="stroke:#181818;stroke-width:1.0;" x1="1095.5" x2="1142.5" y1="1039.4453" y2="1039.4453"/><line style="stroke:#181818;stroke-width:1.0;" x1="1142.5" x2="1142.5" y1="1039.4453" y2="1052.4453"/><line style="stroke:#181818;stroke-width:1.0;" x1="1101.5" x2="1142.5" y1="1052.4453" y2="1052.4453"/><polygon fill="#181818" points="1111.5,1048.4453,1101.5,1052.4453,1111.5,1056.4453,1107.5,1052.4453" style="stroke:#181818;stroke-width:1.0;"/><text fill="#000000" font-family="sans-serif" font-size="13" font-weight="bold" lengthAdjust="spacing" textLength="14" x="1107.5" y="1034.5889">27</text><text fill="#000000" font-family="sans-serif" font-size="13" lengthAdjust="spacing" textLength="170" x="1125.5" y="1034.5889">addGreenSpace(greenSpace)</text><line style="stroke:#181818;stroke-width:1.0;stroke-dasharray:2.0,2.0;" x1="1100.5" x2="1142.5" y1="1092.7969" y2="1092.7969"/><line style="stroke:#181818;stroke-width:1.0;stroke-dasharray:2.0,2.0;" x1="1142.5" x2="1142.5" y1="1092.7969" y2="1105.7969"/><line style="stroke:#181818;stroke-width:1.0;stroke-dasharray:2.0,2.0;" x1="1095.5" x2="1142.5" y1="1105.7969" y2="1105.7969"/><polygon fill="#181818" points="1105.5,1101.7969,1095.5,1105.7969,1105.5,1109.7969,1101.5,1105.7969" style="stroke:#181818;stroke-width:1.0;"/><text fill="#000000" font-family="sans-serif" font-size="13" font-weight="bold" lengthAdjust="spacing" textLength="14" x="1107.5" y="1087.9404">28</text><text fill="#000000" font-family="sans-serif" font-size="13" lengthAdjust="spacing" textLength="4" x="1125.5" y="1087.9404"> </text><line style="stroke:#181818;stroke-width:1.0;stroke-dasharray:2.0,2.0;" x1="1095.5" x2="1137.5" y1="1136.1484" y2="1136.1484"/><line style="stroke:#181818;stroke-width:1.0;stroke-dasharray:2.0,2.0;" x1="1137.5" x2="1137.5" y1="1136.1484" y2="1149.1484"/><line style="stroke:#181818;stroke-width:1.0;stroke-dasharray:2.0,2.0;" x1="1090.5" x2="1137.5" y1="1149.1484" y2="1149.1484"/><polygon fill="#181818" points="1100.5,1145.1484,1090.5,1149.1484,1100.5,1153.1484,1096.5,1149.1484" style="stroke:#181818;stroke-width:1.0;"/><text fill="#000000" font-family="sans-serif" font-size="13" font-weight="bold" lengthAdjust="spacing" textLength="14" x="1102.5" y="1131.292">29</text><text fill="#000000" font-family="sans-serif" font-size="13" lengthAdjust="spacing" textLength="4" x="1120.5" y="1131.292"> </text><polygon fill="#181818" points="689.5,1170.5,679.5,1174.5,689.5,1178.5,685.5,1174.5" style="stroke:#181818;stroke-width:1.0;"/><line style="stroke:#181818;stroke-width:1.0;stroke-dasharray:2.0,2.0;" x1="683.5" x2="1084.5" y1="1174.5" y2="1174.5"/><text fill="#000000" font-family="sans-serif" font-size="13" font-weight="bold" lengthAdjust="spacing" textLength="14" x="695.5" y="1169.6436">30</text><text fill="#000000" font-family="sans-serif" font-size="13" lengthAdjust="spacing" textLength="49" x="713.5" y="1169.6436">success</text><polygon fill="#181818" points="335.5,1200.8516,325.5,1204.8516,335.5,1208.8516,331.5,1204.8516" style="stroke:#181818;stroke-width:1.0;"/><line style="stroke:#181818;stroke-width:1.0;stroke-dasharray:2.0,2.0;" x1="329.5" x2="672.5" y1="1204.8516" y2="1204.8516"/><text fill="#000000" font-family="sans-serif" font-size="13" font-weight="bold" lengthAdjust="spacing" textLength="14" x="341.5" y="1199.9951">31</text><text fill="#000000" font-family="sans-serif" font-size="13" lengthAdjust="spacing" textLength="49" x="359.5" y="1199.9951">success</text><polygon fill="#181818" points="34.5,1231.2031,24.5,1235.2031,34.5,1239.2031,30.5,1235.2031" style="stroke:#181818;stroke-width:1.0;"/><line style="stroke:#181818;stroke-width:1.0;stroke-dasharray:2.0,2.0;" x1="28.5" x2="318.5" y1="1235.2031" y2="1235.2031"/><text fill="#000000" font-family="sans-serif" font-size="13" font-weight="bold" lengthAdjust="spacing" textLength="14" x="40.5" y="1230.3467">32</text><text fill="#000000" font-family="sans-serif" font-size="13" lengthAdjust="spacing" textLength="158" x="58.5" y="1230.3467">displays success message</text><!--SRC=[bLN1RgCm4Btp5QDUDbI9rDrZ3fMgH8qYjRjHIMwzU65Ah8BDsgPHzkjtR0WOSBgxaG81ltdpFFCyqUzSL4on4aefP7fKiaGmgiP8ToiLIzzPZeav5mWAKyD4NlW0VMIPF76HmnihD4RH5yCDOPEpDbX2Whzg52d2chFSucT9ievX0OVaxjjT5B7QI56NFr7HxzH81JURvFa6c0QwHvJ3y9HNJ1YuMRvWpebLRHIYI4WQ7hOEUjZ-5RcImYXP5AXSn6h_yZI9gQJc986ZTfZknJdXTjUaT1YYl8XNCINOFJtiXn5vfwSdNxwAJU2rOyYrpJ4I-b1L1K-PuL8ag3NT77RwUXZ79kka-GhN5Fjr9AAN_4pWjghKijsr3LEoFgP5NyEkZHp0wTb5hFS_d4tu1pFe3181VUW7BEx91R244r5fC9BCsbW060WyWIC7RTbSJCT2td4lx8SOYCTwu_QMk5A5XEWJEjFOYqK5t44XEPgjq7HAKfp5VMJ8IY62HPkUc7npHHb-IdNHP0tNY0WvoXVahEdWDgNBkOIGE_tKBiXxTlNmQqTKjXTMF1rxJOt8c64m4wp4EPXpHLT6HPr3oGID5JM7Ly6oJ977OAODvJTp-CshHIepmgRSdEEuI-6bfgxvNJT7X5fJir5Goyc_8WED1SqhxTQiZCWFFcmxhVeeJwrG6zP9JwLuuwfqXo2wadhPP6sXUf0YwjtKUUaxdZR9f1pWxNpLRtoKD6p3wG4Ukh0F2yo7GB3dmEaGy1K5w2wQ0jEZ4RMgbQ8EjIzzFuO6JeZ6azTQoDSKOd6g5lSqEhmp_PaZhpIZIsA747rzAOF9vGkos4jLcba-ii8WCfuShkwf_IDeEHhlxgpnvLgMZ8inaJyaTr7aq2xA7sm-YY2B-qr2Yn-e-DlvWI0pMvbulFB8wLyqSnNqrZIQFLLpPaiQHpRZPHpi1WNoj-YoMc5-TQv1QHlzxljQ7Z5zVvHgNJUTH-rL8lwaVXq3ZPz-MFv3C8bjdprv_udmlQFhD2Ml1h2X0tyPU86eeM6Q6MURyxpCkAuATjQNA2ZfGcOV3PXXkQC_]--></g></svg>