<?xml version="1.0" encoding="UTF-8" standalone="no"?><svg xmlns="http://www.w3.org/2000/svg" xmlns:xlink="http://www.w3.org/1999/xlink" contentStyleType="text/css" height="985px" preserveAspectRatio="none" style="width:1531px;height:985px;background:#FFFFFF;" version="1.1" viewBox="0 0 1531 985" width="1531px" zoomAndPan="magnify"><defs/><g><rect fill="#FFFFFF" height="792.6016" style="stroke:#181818;stroke-width:1.0;" width="10" x="18.5" y="92.6094"/><rect fill="#FFFFFF" height="72.9609" style="stroke:#181818;stroke-width:1.0;" width="10" x="325.5" y="114.9609"/><rect fill="#FFFFFF" height="30.3516" style="stroke:#181818;stroke-width:1.0;" width="10" x="325.5" y="218.2734"/><rect fill="#FFFFFF" height="30.3516" style="stroke:#181818;stroke-width:1.0;" width="10" x="325.5" y="278.9766"/><rect fill="#FFFFFF" height="30.3516" style="stroke:#181818;stroke-width:1.0;" width="10" x="325.5" y="854.8594"/><rect fill="#FFFFFF" height="151.7578" style="stroke:#181818;stroke-width:1.0;" width="10" x="624.5" y="309.3281"/><rect fill="#FFFFFF" height="30.3516" style="stroke:#181818;stroke-width:1.0;" width="10" x="624.5" y="824.5078"/><rect fill="#FFFFFF" height="30.3516" style="stroke:#181818;stroke-width:1.0;" width="10" x="789.5" y="339.6797"/><rect fill="#FFFFFF" height="30.3516" style="stroke:#181818;stroke-width:1.0;" width="10" x="896.5" y="400.3828"/><rect fill="#FFFFFF" height="363.4219" style="stroke:#181818;stroke-width:1.0;" width="10" x="1036.5" y="461.0859"/><rect fill="#FFFFFF" height="128.0547" style="stroke:#181818;stroke-width:1.0;" width="10" x="1041.5" y="659.1016"/><rect fill="#FFFFFF" height="41.3516" style="stroke:#181818;stroke-width:1.0;" width="10" x="1046.5" y="702.4531"/><rect fill="#FFFFFF" height="119.3125" style="stroke:#181818;stroke-width:1.0;" width="10" x="1347.5" y="501.4375"/><rect fill="#FFFFFF" height="41.3516" style="stroke:#181818;stroke-width:1.0;" width="10" x="1352.5" y="542.0469"/><line style="stroke:#181818;stroke-width:0.5;stroke-dasharray:5.0,5.0;" x1="23" x2="23" y1="82.6094" y2="903.2109"/><line style="stroke:#181818;stroke-width:0.5;stroke-dasharray:5.0,5.0;" x1="330" x2="330" y1="82.6094" y2="903.2109"/><line style="stroke:#181818;stroke-width:0.5;stroke-dasharray:5.0,5.0;" x1="629" x2="629" y1="154.2656" y2="903.2109"/><line style="stroke:#181818;stroke-width:0.5;stroke-dasharray:5.0,5.0;" x1="794" x2="794" y1="82.6094" y2="903.2109"/><line style="stroke:#181818;stroke-width:0.5;stroke-dasharray:5.0,5.0;" x1="901" x2="901" y1="82.6094" y2="903.2109"/><line style="stroke:#181818;stroke-width:0.5;stroke-dasharray:5.0,5.0;" x1="1041" x2="1041" y1="82.6094" y2="903.2109"/><line style="stroke:#181818;stroke-width:0.5;stroke-dasharray:5.0,5.0;" x1="1352.5" x2="1352.5" y1="500.3906" y2="903.2109"/><text fill="#000000" font-family="sans-serif" font-size="14" lengthAdjust="spacing" textLength="31" x="5" y="79.5332">GSM</text><ellipse cx="23.5" cy="13.5" fill="#E3E3E3" rx="8" ry="8" style="stroke:#181818;stroke-width:0.5;"/><path d="M23.5,21.5 L23.5,48.5 M10.5,29.5 L36.5,29.5 M23.5,48.5 L10.5,63.5 M23.5,48.5 L36.5,63.5 " fill="none" style="stroke:#181818;stroke-width:0.5;"/><text fill="#000000" font-family="sans-serif" font-size="14" lengthAdjust="spacing" textLength="31" x="5" y="916.7441">GSM</text><ellipse cx="23.5" cy="928.3203" fill="#E3E3E3" rx="8" ry="8" style="stroke:#181818;stroke-width:0.5;"/><path d="M23.5,936.3203 L23.5,963.3203 M10.5,944.3203 L36.5,944.3203 M23.5,963.3203 L10.5,978.3203 M23.5,963.3203 L36.5,978.3203 " fill="none" style="stroke:#181818;stroke-width:0.5;"/><rect fill="#E3E3E3" height="31.6094" rx="2.5" ry="2.5" style="stroke:#181818;stroke-width:0.5;" width="163" x="249" y="50"/><text fill="#000000" font-family="sans-serif" font-size="14" lengthAdjust="spacing" textLength="149" x="256" y="71.5332">:RegisterGreenSpaceUI</text><rect fill="#E3E3E3" height="31.6094" rx="2.5" ry="2.5" style="stroke:#181818;stroke-width:0.5;" width="163" x="249" y="902.2109"/><text fill="#000000" font-family="sans-serif" font-size="14" lengthAdjust="spacing" textLength="149" x="256" y="923.7441">:RegisterGreenSpaceUI</text><rect fill="#E3E3E3" height="31.6094" rx="2.5" ry="2.5" style="stroke:#181818;stroke-width:0.5;" width="213" x="523" y="902.2109"/><text fill="#000000" font-family="sans-serif" font-size="14" lengthAdjust="spacing" textLength="199" x="530" y="923.7441">:RegisterGreenSpaceController</text><rect fill="#E3E3E3" height="31.6094" rx="2.5" ry="2.5" style="stroke:#181818;stroke-width:0.5;" width="97" x="746" y="50"/><text fill="#000000" font-family="sans-serif" font-size="14" lengthAdjust="spacing" textLength="83" x="753" y="71.5332">:Repositories</text><rect fill="#E3E3E3" height="31.6094" rx="2.5" ry="2.5" style="stroke:#181818;stroke-width:0.5;" width="97" x="746" y="902.2109"/><text fill="#000000" font-family="sans-serif" font-size="14" lengthAdjust="spacing" textLength="83" x="753" y="923.7441">:Repositories</text><rect fill="#E3E3E3" height="49.2188" rx="2.5" ry="2.5" style="stroke:#181818;stroke-width:0.5;" width="97" x="853" y="32.3906"/><text fill="#000000" font-family="sans-serif" font-size="14" lengthAdjust="spacing" textLength="74" x="864.5" y="53.9238">repositories</text><text fill="#000000" font-family="sans-serif" font-size="14" lengthAdjust="spacing" textLength="83" x="860" y="71.5332">:Repositories</text><rect fill="#E3E3E3" height="49.2188" rx="2.5" ry="2.5" style="stroke:#181818;stroke-width:0.5;" width="97" x="853" y="902.2109"/><text fill="#000000" font-family="sans-serif" font-size="14" lengthAdjust="spacing" textLength="74" x="864.5" y="923.7441">repositories</text><text fill="#000000" font-family="sans-serif" font-size="14" lengthAdjust="spacing" textLength="83" x="860" y="941.3535">:Repositories</text><rect fill="#E3E3E3" height="49.2188" rx="2.5" ry="2.5" style="stroke:#181818;stroke-width:0.5;" width="163" x="960" y="32.3906"/><text fill="#000000" font-family="sans-serif" font-size="14" lengthAdjust="spacing" textLength="149" x="967" y="53.9238">greenSpaceRepository:</text><text fill="#000000" font-family="sans-serif" font-size="14" lengthAdjust="spacing" textLength="148" x="967.5" y="71.5332">GreenSpaceRepository</text><rect fill="#E3E3E3" height="49.2188" rx="2.5" ry="2.5" style="stroke:#181818;stroke-width:0.5;" width="163" x="960" y="902.2109"/><text fill="#000000" font-family="sans-serif" font-size="14" lengthAdjust="spacing" textLength="149" x="967" y="923.7441">greenSpaceRepository:</text><text fill="#000000" font-family="sans-serif" font-size="14" lengthAdjust="spacing" textLength="148" x="967.5" y="941.3535">GreenSpaceRepository</text><rect fill="#E3E3E3" height="31.6094" rx="2.5" ry="2.5" style="stroke:#181818;stroke-width:0.5;" width="98" x="1303.5" y="902.2109"/><text fill="#000000" font-family="sans-serif" font-size="14" lengthAdjust="spacing" textLength="84" x="1310.5" y="923.7441">:GreenSpace</text><rect fill="#FFFFFF" height="792.6016" style="stroke:#181818;stroke-width:1.0;" width="10" x="18.5" y="92.6094"/><rect fill="#FFFFFF" height="72.9609" style="stroke:#181818;stroke-width:1.0;" width="10" x="325.5" y="114.9609"/><rect fill="#FFFFFF" height="30.3516" style="stroke:#181818;stroke-width:1.0;" width="10" x="325.5" y="218.2734"/><rect fill="#FFFFFF" height="30.3516" style="stroke:#181818;stroke-width:1.0;" width="10" x="325.5" y="278.9766"/><rect fill="#FFFFFF" height="30.3516" style="stroke:#181818;stroke-width:1.0;" width="10" x="325.5" y="854.8594"/><rect fill="#FFFFFF" height="151.7578" style="stroke:#181818;stroke-width:1.0;" width="10" x="624.5" y="309.3281"/><rect fill="#FFFFFF" height="30.3516" style="stroke:#181818;stroke-width:1.0;" width="10" x="624.5" y="824.5078"/><rect fill="#FFFFFF" height="30.3516" style="stroke:#181818;stroke-width:1.0;" width="10" x="789.5" y="339.6797"/><rect fill="#FFFFFF" height="30.3516" style="stroke:#181818;stroke-width:1.0;" width="10" x="896.5" y="400.3828"/><rect fill="#FFFFFF" height="363.4219" style="stroke:#181818;stroke-width:1.0;" width="10" x="1036.5" y="461.0859"/><rect fill="#FFFFFF" height="128.0547" style="stroke:#181818;stroke-width:1.0;" width="10" x="1041.5" y="659.1016"/><rect fill="#FFFFFF" height="41.3516" style="stroke:#181818;stroke-width:1.0;" width="10" x="1046.5" y="702.4531"/><rect fill="#FFFFFF" height="119.3125" style="stroke:#181818;stroke-width:1.0;" width="10" x="1347.5" y="501.4375"/><rect fill="#FFFFFF" height="41.3516" style="stroke:#181818;stroke-width:1.0;" width="10" x="1352.5" y="542.0469"/><polygon fill="#181818" points="313.5,110.9609,323.5,114.9609,313.5,118.9609,317.5,114.9609" style="stroke:#181818;stroke-width:1.0;"/><line style="stroke:#181818;stroke-width:1.0;" x1="28.5" x2="319.5" y1="114.9609" y2="114.9609"/><text fill="#000000" font-family="sans-serif" font-size="13" font-weight="bold" lengthAdjust="spacing" textLength="7" x="35.5" y="110.1045">1</text><text fill="#000000" font-family="sans-serif" font-size="13" lengthAdjust="spacing" textLength="209" x="46.5" y="110.1045">wants to register a new green space</text><polygon fill="#181818" points="511,141.3125,521,145.3125,511,149.3125,515,145.3125" style="stroke:#181818;stroke-width:1.0;"/><line style="stroke:#181818;stroke-width:1.0;" x1="335.5" x2="517" y1="145.3125" y2="145.3125"/><text fill="#000000" font-family="sans-serif" font-size="13" font-weight="bold" lengthAdjust="spacing" textLength="7" x="342.5" y="140.4561">2</text><text fill="#000000" font-family="sans-serif" font-size="13" lengthAdjust="spacing" textLength="36" x="353.5" y="140.4561">create</text><rect fill="#E3E3E3" height="31.6094" rx="2.5" ry="2.5" style="stroke:#181818;stroke-width:0.5;" width="213" x="523" y="122.9609"/><text fill="#000000" font-family="sans-serif" font-size="14" lengthAdjust="spacing" textLength="199" x="530" y="144.4941">:RegisterGreenSpaceController</text><polygon fill="#181818" points="39.5,183.9219,29.5,187.9219,39.5,191.9219,35.5,187.9219" style="stroke:#181818;stroke-width:1.0;"/><line style="stroke:#181818;stroke-width:1.0;stroke-dasharray:2.0,2.0;" x1="33.5" x2="329.5" y1="187.9219" y2="187.9219"/><text fill="#000000" font-family="sans-serif" font-size="13" font-weight="bold" lengthAdjust="spacing" textLength="7" x="45.5" y="183.0654">3</text><text fill="#000000" font-family="sans-serif" font-size="13" lengthAdjust="spacing" textLength="262" x="56.5" y="183.0654">requests data (name, type, area, loggedUser)</text><polygon fill="#181818" points="313.5,214.2734,323.5,218.2734,313.5,222.2734,317.5,218.2734" style="stroke:#181818;stroke-width:1.0;"/><line style="stroke:#181818;stroke-width:1.0;" x1="28.5" x2="319.5" y1="218.2734" y2="218.2734"/><text fill="#000000" font-family="sans-serif" font-size="13" font-weight="bold" lengthAdjust="spacing" textLength="7" x="35.5" y="213.417">4</text><text fill="#000000" font-family="sans-serif" font-size="13" lengthAdjust="spacing" textLength="209" x="46.5" y="213.417">the user enters and selects the data</text><polygon fill="#181818" points="39.5,244.625,29.5,248.625,39.5,252.625,35.5,248.625" style="stroke:#181818;stroke-width:1.0;"/><line style="stroke:#181818;stroke-width:1.0;" x1="33.5" x2="329.5" y1="248.625" y2="248.625"/><text fill="#000000" font-family="sans-serif" font-size="13" font-weight="bold" lengthAdjust="spacing" textLength="7" x="45.5" y="243.7686">5</text><text fill="#000000" font-family="sans-serif" font-size="13" lengthAdjust="spacing" textLength="219" x="56.5" y="243.7686">shows data and requests confirmation</text><polygon fill="#181818" points="313.5,274.9766,323.5,278.9766,313.5,282.9766,317.5,278.9766" style="stroke:#181818;stroke-width:1.0;"/><line style="stroke:#181818;stroke-width:1.0;" x1="28.5" x2="319.5" y1="278.9766" y2="278.9766"/><text fill="#000000" font-family="sans-serif" font-size="13" font-weight="bold" lengthAdjust="spacing" textLength="7" x="35.5" y="274.1201">6</text><text fill="#000000" font-family="sans-serif" font-size="13" lengthAdjust="spacing" textLength="78" x="46.5" y="274.1201">user confirms</text><polygon fill="#181818" points="612.5,305.3281,622.5,309.3281,612.5,313.3281,616.5,309.3281" style="stroke:#181818;stroke-width:1.0;"/><line style="stroke:#181818;stroke-width:1.0;" x1="330.5" x2="618.5" y1="309.3281" y2="309.3281"/><text fill="#000000" font-family="sans-serif" font-size="13" font-weight="bold" lengthAdjust="spacing" textLength="7" x="337.5" y="304.4717">7</text><text fill="#000000" font-family="sans-serif" font-size="13" lengthAdjust="spacing" textLength="259" x="348.5" y="304.4717">createNewGS(name, type, area, loggedUser)</text><polygon fill="#181818" points="777.5,335.6797,787.5,339.6797,777.5,343.6797,781.5,339.6797" style="stroke:#181818;stroke-width:1.0;"/><line style="stroke:#181818;stroke-width:1.0;" x1="634.5" x2="783.5" y1="339.6797" y2="339.6797"/><text fill="#000000" font-family="sans-serif" font-size="13" font-weight="bold" lengthAdjust="spacing" textLength="7" x="641.5" y="334.8232">8</text><text fill="#000000" font-family="sans-serif" font-size="13" lengthAdjust="spacing" textLength="75" x="652.5" y="334.8232">getInstance()</text><polygon fill="#181818" points="645.5,366.0313,635.5,370.0313,645.5,374.0313,641.5,370.0313" style="stroke:#181818;stroke-width:1.0;"/><line style="stroke:#181818;stroke-width:1.0;stroke-dasharray:2.0,2.0;" x1="639.5" x2="793.5" y1="370.0313" y2="370.0313"/><text fill="#000000" font-family="sans-serif" font-size="13" font-weight="bold" lengthAdjust="spacing" textLength="7" x="651.5" y="365.1748">9</text><text fill="#000000" font-family="sans-serif" font-size="13" lengthAdjust="spacing" textLength="67" x="662.5" y="365.1748">repositories</text><polygon fill="#181818" points="884.5,396.3828,894.5,400.3828,884.5,404.3828,888.5,400.3828" style="stroke:#181818;stroke-width:1.0;"/><line style="stroke:#181818;stroke-width:1.0;" x1="634.5" x2="890.5" y1="400.3828" y2="400.3828"/><text fill="#000000" font-family="sans-serif" font-size="13" font-weight="bold" lengthAdjust="spacing" textLength="14" x="641.5" y="395.5264">10</text><text fill="#000000" font-family="sans-serif" font-size="13" lengthAdjust="spacing" textLength="160" x="659.5" y="395.5264">getGreenSpaceRepository()</text><polygon fill="#181818" points="645.5,426.7344,635.5,430.7344,645.5,434.7344,641.5,430.7344" style="stroke:#181818;stroke-width:1.0;"/><line style="stroke:#181818;stroke-width:1.0;stroke-dasharray:2.0,2.0;" x1="639.5" x2="900.5" y1="430.7344" y2="430.7344"/><text fill="#000000" font-family="sans-serif" font-size="13" font-weight="bold" lengthAdjust="spacing" textLength="14" x="651.5" y="425.8779">11</text><text fill="#000000" font-family="sans-serif" font-size="13" lengthAdjust="spacing" textLength="131" x="669.5" y="425.8779">greenSpaceRepository</text><polygon fill="#181818" points="1024.5,457.0859,1034.5,461.0859,1024.5,465.0859,1028.5,461.0859" style="stroke:#181818;stroke-width:1.0;"/><line style="stroke:#181818;stroke-width:1.0;" x1="629.5" x2="1030.5" y1="461.0859" y2="461.0859"/><text fill="#000000" font-family="sans-serif" font-size="13" font-weight="bold" lengthAdjust="spacing" textLength="14" x="636.5" y="456.2295">12</text><text fill="#000000" font-family="sans-serif" font-size="13" lengthAdjust="spacing" textLength="259" x="654.5" y="456.2295">createNewGS(name, type, area, loggedUser)</text><polygon fill="#181818" points="1291.5,487.4375,1301.5,491.4375,1291.5,495.4375,1295.5,491.4375" style="stroke:#181818;stroke-width:1.0;"/><line style="stroke:#181818;stroke-width:1.0;" x1="1046.5" x2="1297.5" y1="491.4375" y2="491.4375"/><text fill="#000000" font-family="sans-serif" font-size="13" font-weight="bold" lengthAdjust="spacing" textLength="14" x="1053.5" y="486.5811">13</text><text fill="#000000" font-family="sans-serif" font-size="13" lengthAdjust="spacing" textLength="215" x="1071.5" y="486.5811">create(name, type, area, loggedUser)</text><rect fill="#E3E3E3" height="31.6094" rx="2.5" ry="2.5" style="stroke:#181818;stroke-width:0.5;" width="98" x="1303.5" y="469.0859"/><text fill="#000000" font-family="sans-serif" font-size="14" lengthAdjust="spacing" textLength="84" x="1310.5" y="490.6191">:GreenSpace</text><line style="stroke:#181818;stroke-width:1.0;" x1="1357.5" x2="1404.5" y1="529.0469" y2="529.0469"/><line style="stroke:#181818;stroke-width:1.0;" x1="1404.5" x2="1404.5" y1="529.0469" y2="542.0469"/><line style="stroke:#181818;stroke-width:1.0;" x1="1363.5" x2="1404.5" y1="542.0469" y2="542.0469"/><polygon fill="#181818" points="1373.5,538.0469,1363.5,542.0469,1373.5,546.0469,1369.5,542.0469" style="stroke:#181818;stroke-width:1.0;"/><text fill="#000000" font-family="sans-serif" font-size="13" font-weight="bold" lengthAdjust="spacing" textLength="14" x="1369.5" y="524.1904">14</text><text fill="#000000" font-family="sans-serif" font-size="13" lengthAdjust="spacing" textLength="137" x="1387.5" y="524.1904">verifyFilled(greenSpace)</text><line style="stroke:#181818;stroke-width:1.0;stroke-dasharray:2.0,2.0;" x1="1362.5" x2="1404.5" y1="582.3984" y2="582.3984"/><line style="stroke:#181818;stroke-width:1.0;stroke-dasharray:2.0,2.0;" x1="1404.5" x2="1404.5" y1="582.3984" y2="595.3984"/><line style="stroke:#181818;stroke-width:1.0;stroke-dasharray:2.0,2.0;" x1="1357.5" x2="1404.5" y1="595.3984" y2="595.3984"/><polygon fill="#181818" points="1367.5,591.3984,1357.5,595.3984,1367.5,599.3984,1363.5,595.3984" style="stroke:#181818;stroke-width:1.0;"/><text fill="#000000" font-family="sans-serif" font-size="13" font-weight="bold" lengthAdjust="spacing" textLength="14" x="1369.5" y="577.542">15</text><text fill="#000000" font-family="sans-serif" font-size="13" lengthAdjust="spacing" textLength="4" x="1387.5" y="577.542"> </text><polygon fill="#181818" points="1057.5,616.75,1047.5,620.75,1057.5,624.75,1053.5,620.75" style="stroke:#181818;stroke-width:1.0;"/><line style="stroke:#181818;stroke-width:1.0;stroke-dasharray:2.0,2.0;" x1="1051.5" x2="1351.5" y1="620.75" y2="620.75"/><text fill="#000000" font-family="sans-serif" font-size="13" font-weight="bold" lengthAdjust="spacing" textLength="14" x="1063.5" y="615.8936">16</text><text fill="#000000" font-family="sans-serif" font-size="13" lengthAdjust="spacing" textLength="69" x="1081.5" y="615.8936">greenSpace</text><line style="stroke:#181818;stroke-width:1.0;" x1="1046.5" x2="1093.5" y1="646.1016" y2="646.1016"/><line style="stroke:#181818;stroke-width:1.0;" x1="1093.5" x2="1093.5" y1="646.1016" y2="659.1016"/><line style="stroke:#181818;stroke-width:1.0;" x1="1052.5" x2="1093.5" y1="659.1016" y2="659.1016"/><polygon fill="#181818" points="1062.5,655.1016,1052.5,659.1016,1062.5,663.1016,1058.5,659.1016" style="stroke:#181818;stroke-width:1.0;"/><text fill="#000000" font-family="sans-serif" font-size="13" font-weight="bold" lengthAdjust="spacing" textLength="14" x="1058.5" y="641.2451">17</text><text fill="#000000" font-family="sans-serif" font-size="13" lengthAdjust="spacing" textLength="146" x="1076.5" y="641.2451">verify duplicates by name</text><line style="stroke:#181818;stroke-width:1.0;" x1="1051.5" x2="1098.5" y1="689.4531" y2="689.4531"/><line style="stroke:#181818;stroke-width:1.0;" x1="1098.5" x2="1098.5" y1="689.4531" y2="702.4531"/><line style="stroke:#181818;stroke-width:1.0;" x1="1057.5" x2="1098.5" y1="702.4531" y2="702.4531"/><polygon fill="#181818" points="1067.5,698.4531,1057.5,702.4531,1067.5,706.4531,1063.5,702.4531" style="stroke:#181818;stroke-width:1.0;"/><text fill="#000000" font-family="sans-serif" font-size="13" font-weight="bold" lengthAdjust="spacing" textLength="14" x="1063.5" y="684.5967">18</text><text fill="#000000" font-family="sans-serif" font-size="13" lengthAdjust="spacing" textLength="170" x="1081.5" y="684.5967">addGreenSpace(greenSpace)</text><line style="stroke:#181818;stroke-width:1.0;stroke-dasharray:2.0,2.0;" x1="1056.5" x2="1098.5" y1="742.8047" y2="742.8047"/><line style="stroke:#181818;stroke-width:1.0;stroke-dasharray:2.0,2.0;" x1="1098.5" x2="1098.5" y1="742.8047" y2="755.8047"/><line style="stroke:#181818;stroke-width:1.0;stroke-dasharray:2.0,2.0;" x1="1051.5" x2="1098.5" y1="755.8047" y2="755.8047"/><polygon fill="#181818" points="1061.5,751.8047,1051.5,755.8047,1061.5,759.8047,1057.5,755.8047" style="stroke:#181818;stroke-width:1.0;"/><text fill="#000000" font-family="sans-serif" font-size="13" font-weight="bold" lengthAdjust="spacing" textLength="14" x="1063.5" y="737.9482">19</text><text fill="#000000" font-family="sans-serif" font-size="13" lengthAdjust="spacing" textLength="4" x="1081.5" y="737.9482"> </text><line style="stroke:#181818;stroke-width:1.0;stroke-dasharray:2.0,2.0;" x1="1051.5" x2="1093.5" y1="786.1563" y2="786.1563"/><line style="stroke:#181818;stroke-width:1.0;stroke-dasharray:2.0,2.0;" x1="1093.5" x2="1093.5" y1="786.1563" y2="799.1563"/><line style="stroke:#181818;stroke-width:1.0;stroke-dasharray:2.0,2.0;" x1="1046.5" x2="1093.5" y1="799.1563" y2="799.1563"/><polygon fill="#181818" points="1056.5,795.1563,1046.5,799.1563,1056.5,803.1563,1052.5,799.1563" style="stroke:#181818;stroke-width:1.0;"/><text fill="#000000" font-family="sans-serif" font-size="13" font-weight="bold" lengthAdjust="spacing" textLength="14" x="1058.5" y="781.2998">20</text><text fill="#000000" font-family="sans-serif" font-size="13" lengthAdjust="spacing" textLength="4" x="1076.5" y="781.2998"> </text><polygon fill="#181818" points="645.5,820.5078,635.5,824.5078,645.5,828.5078,641.5,824.5078" style="stroke:#181818;stroke-width:1.0;"/><line style="stroke:#181818;stroke-width:1.0;stroke-dasharray:2.0,2.0;" x1="639.5" x2="1040.5" y1="824.5078" y2="824.5078"/><text fill="#000000" font-family="sans-serif" font-size="13" font-weight="bold" lengthAdjust="spacing" textLength="14" x="651.5" y="819.6514">21</text><text fill="#000000" font-family="sans-serif" font-size="13" lengthAdjust="spacing" textLength="69" x="669.5" y="819.6514">greenSpace</text><polygon fill="#181818" points="346.5,850.8594,336.5,854.8594,346.5,858.8594,342.5,854.8594" style="stroke:#181818;stroke-width:1.0;"/><line style="stroke:#181818;stroke-width:1.0;stroke-dasharray:2.0,2.0;" x1="340.5" x2="628.5" y1="854.8594" y2="854.8594"/><text fill="#000000" font-family="sans-serif" font-size="13" font-weight="bold" lengthAdjust="spacing" textLength="14" x="352.5" y="850.0029">22</text><text fill="#000000" font-family="sans-serif" font-size="13" lengthAdjust="spacing" textLength="49" x="370.5" y="850.0029">success</text><polygon fill="#181818" points="34.5,881.2109,24.5,885.2109,34.5,889.2109,30.5,885.2109" style="stroke:#181818;stroke-width:1.0;"/><line style="stroke:#181818;stroke-width:1.0;stroke-dasharray:2.0,2.0;" x1="28.5" x2="329.5" y1="885.2109" y2="885.2109"/><text fill="#000000" font-family="sans-serif" font-size="13" font-weight="bold" lengthAdjust="spacing" textLength="14" x="40.5" y="880.3545">23</text><text fill="#000000" font-family="sans-serif" font-size="13" lengthAdjust="spacing" textLength="158" x="58.5" y="880.3545">displays success message</text><!--SRC=[dLNDRgCm4Bxp5ADSDgaQgTeZXqghLXj5QbUhqjnwSSs4M0MRzPX6lFqEXXYJqaQxEH30tv_7CmczALqBAogeZ3RoO4s5u6o32OMLMiWtKM3csXB1edH25sKCe8F8pL7f0lQY94oIRquvncOjEQmWmpyDQebmhqJHuPTPTh-2DUooc-ytII8QPtHJlQBbU-cCXSKcUro08E3lX3sSageMsi4YVS92iQhTM4ITSJJSRJrqjxs8l3FQMLEMQ3tZxldfuGEdDgGuWaBocF2YpLItQquwfTY8yQ8_2ln- -F4yPHGXpoYUlkZDp6klK53dSHPqH0zrygLJxyAXBre2_E4RMDzoPI258_C8dE43xCi20ZGUmQS1wfGy9wXmFVsBxiCAhDFLw-gAjQH5HaoNURspIrcVJvlOAnTEm5AB2g_1jJLV1VEkeJH5WVcEqAw2GewnRvpR7H0QnW9g3aqWT0w49NSX-RNE9Od9kss8GWTp779qj91C6hrNjX9EyMb-OftshWEKpYnEvGZ5-8N7JNPXirEdSE_Rq8knw4o_iKU1Rgk9vqxYSZKovvfpJc0zfetRDGuq9tNArBLm7sAkH-D0ljazlBFqdYdCzNjixKadhxxP_xUilfJXQHYSGT9tHTI-5rIZQUAcwDdCVKUhzkrFnJyY-NBSsJc-7uSusY0JRt6adm77n07R-qBUrAMI32DuRQ7RmHVR3MIHv-F9pQUUa3dby1pb-aT4t7Jp6ntWStDm6dvgf4IYpu-ud_VrBOzjcYkgIz7IYGKLN_X_wspk9gL-JFu2]--></g></svg>