<?xml version="1.0" encoding="UTF-8" standalone="no"?><svg xmlns="http://www.w3.org/2000/svg" xmlns:xlink="http://www.w3.org/1999/xlink" contentStyleType="text/css" height="1413px" preserveAspectRatio="none" style="width:1312px;height:1413px;background:#FFFFFF;" version="1.1" viewBox="0 0 1312 1413" width="1312px" zoomAndPan="magnify"><defs/><g><!--cluster UI--><g id="cluster_UI"><path d="M983.5,6 L998.5,6 A3.75,3.75 0 0 1 1001,8.5 L1008,29.6094 L1302.5,29.6094 A2.5,2.5 0 0 1 1305,32.1094 L1305,156.5 A2.5,2.5 0 0 1 1302.5,159 L983.5,159 A2.5,2.5 0 0 1 981,156.5 L981,8.5 A2.5,2.5 0 0 1 983.5,6 " fill="none" style="stroke:#000000;stroke-width:1.5;"/><line style="stroke:#000000;stroke-width:1.5;" x1="981" x2="1008" y1="29.6094" y2="29.6094"/><text fill="#000000" font-family="sans-serif" font-size="14" font-weight="bold" lengthAdjust="spacing" textLength="14" x="985" y="22.5332">UI</text></g><!--cluster CONTROLLER--><g id="cluster_CONTROLLER"><path d="M772.5,192 L868.5,192 A3.75,3.75 0 0 1 871,194.5 L878,215.6094 L1173.5,215.6094 A2.5,2.5 0 0 1 1176,218.1094 L1176,359.5 A2.5,2.5 0 0 1 1173.5,362 L772.5,362 A2.5,2.5 0 0 1 770,359.5 L770,194.5 A2.5,2.5 0 0 1 772.5,192 " fill="none" style="stroke:#000000;stroke-width:1.5;"/><line style="stroke:#000000;stroke-width:1.5;" x1="770" x2="878" y1="215.6094" y2="215.6094"/><text fill="#000000" font-family="sans-serif" font-size="14" font-weight="bold" lengthAdjust="spacing" textLength="95" x="774" y="208.5332">CONTROLLER</text></g><!--cluster DOMAIN--><g id="cluster_DOMAIN"><path d="M8.5,412 L66.5,412 A3.75,3.75 0 0 1 69,414.5 L76,435.6094 L1197.5,435.6094 A2.5,2.5 0 0 1 1200,438.1094 L1200,1403.5 A2.5,2.5 0 0 1 1197.5,1406 L8.5,1406 A2.5,2.5 0 0 1 6,1403.5 L6,414.5 A2.5,2.5 0 0 1 8.5,412 " fill="none" style="stroke:#000000;stroke-width:1.5;"/><line style="stroke:#000000;stroke-width:1.5;" x1="6" x2="76" y1="435.6094" y2="435.6094"/><text fill="#000000" font-family="sans-serif" font-size="14" font-weight="bold" lengthAdjust="spacing" textLength="57" x="10" y="428.5332">DOMAIN</text></g><!--cluster REPOSITORY--><g id="cluster_REPOSITORY"><path d="M473.5,456 L565.5,456 A3.75,3.75 0 0 1 568,458.5 L575,479.6094 L943.5,479.6094 A2.5,2.5 0 0 1 946,482.1094 L946,855.5 A2.5,2.5 0 0 1 943.5,858 L473.5,858 A2.5,2.5 0 0 1 471,855.5 L471,458.5 A2.5,2.5 0 0 1 473.5,456 " fill="none" style="stroke:#000000;stroke-width:1.5;"/><line style="stroke:#000000;stroke-width:1.5;" x1="471" x2="575" y1="479.6094" y2="479.6094"/><text fill="#000000" font-family="sans-serif" font-size="14" font-weight="bold" lengthAdjust="spacing" textLength="91" x="475" y="472.5332">REPOSITORY</text></g><!--cluster MODEL--><g id="cluster_MODEL"><path d="M32.5,1097 L84.5,1097 A3.75,3.75 0 0 1 87,1099.5 L94,1120.6094 L715.5,1120.6094 A2.5,2.5 0 0 1 718,1123.1094 L718,1317.5 A2.5,2.5 0 0 1 715.5,1320 L32.5,1320 A2.5,2.5 0 0 1 30,1317.5 L30,1099.5 A2.5,2.5 0 0 1 32.5,1097 " fill="none" style="stroke:#000000;stroke-width:1.5;"/><line style="stroke:#000000;stroke-width:1.5;" x1="30" x2="94" y1="1120.6094" y2="1120.6094"/><text fill="#000000" font-family="sans-serif" font-size="14" font-weight="bold" lengthAdjust="spacing" textLength="51" x="34" y="1113.5332">MODEL</text></g><!--cluster DTO--><g id="cluster_DTO"><path d="M744.5,891 L774.5,891 A3.75,3.75 0 0 1 777,893.5 L784,914.6094 L1173.5,914.6094 A2.5,2.5 0 0 1 1176,917.1094 L1176,1379.5 A2.5,2.5 0 0 1 1173.5,1382 L744.5,1382 A2.5,2.5 0 0 1 742,1379.5 L742,893.5 A2.5,2.5 0 0 1 744.5,891 " fill="none" style="stroke:#000000;stroke-width:1.5;"/><line style="stroke:#000000;stroke-width:1.5;" x1="742" x2="784" y1="914.6094" y2="914.6094"/><text fill="#000000" font-family="sans-serif" font-size="14" font-weight="bold" lengthAdjust="spacing" textLength="29" x="746" y="907.5332">DTO</text></g><!--class RegisterGreenSpaceUI--><g id="elem_RegisterGreenSpaceUI"><rect codeLine="6" fill="#F1F1F1" height="100.8281" id="RegisterGreenSpaceUI" rx="2.5" ry="2.5" style="stroke:#181818;stroke-width:0.5;" width="292" x="997" y="42"/><ellipse cx="1066.25" cy="58" fill="#ADD1B2" rx="11" ry="11" style="stroke:#181818;stroke-width:1.0;"/><path d="M1069.0156,53.875 Q1069.1719,53.6563 1069.3594,53.5469 Q1069.5469,53.4375 1069.7656,53.4375 Q1070.1406,53.4375 1070.375,53.7031 Q1070.6094,53.9531 1070.6094,54.5625 L1070.6094,56.0156 Q1070.6094,56.625 1070.375,56.8906 Q1070.1406,57.1563 1069.7656,57.1563 Q1069.4219,57.1563 1069.2188,56.9531 Q1069.0156,56.7656 1068.9063,56.25 Q1068.8594,55.8906 1068.6719,55.7031 Q1068.3438,55.3281 1067.7344,55.1094 Q1067.125,54.8906 1066.5,54.8906 Q1065.7344,54.8906 1065.0938,55.2188 Q1064.4688,55.5469 1063.9688,56.2969 Q1063.4844,57.0469 1063.4844,58.0781 L1063.4844,59.1719 Q1063.4844,60.4063 1064.375,61.2344 Q1065.2656,62.0469 1066.8594,62.0469 Q1067.7969,62.0469 1068.4531,61.7969 Q1068.8438,61.6406 1069.2656,61.2031 Q1069.5313,60.9375 1069.6719,60.8594 Q1069.8281,60.7813 1070.0313,60.7813 Q1070.3594,60.7813 1070.6094,61.0469 Q1070.875,61.2969 1070.875,61.6406 Q1070.875,61.9844 1070.5313,62.3906 Q1070.0313,62.9688 1069.2344,63.2969 Q1068.1563,63.75 1066.8594,63.75 Q1065.3438,63.75 1064.1406,63.125 Q1063.1563,62.625 1062.4688,61.5625 Q1061.7813,60.4844 1061.7813,59.2031 L1061.7813,58.0469 Q1061.7813,56.7188 1062.3906,55.5781 Q1063.0156,54.4219 1064.1094,53.8125 Q1065.2031,53.1875 1066.4375,53.1875 Q1067.1719,53.1875 1067.8125,53.3594 Q1068.4688,53.5156 1069.0156,53.875 Z " fill="#000000"/><text fill="#000000" font-family="sans-serif" font-size="14" lengthAdjust="spacing" textLength="145" x="1086.75" y="63.7285">RegisterGreenSpaceUI</text><line style="stroke:#181818;stroke-width:0.5;" x1="998" x2="1288" y1="74" y2="74"/><rect fill="none" height="6" style="stroke:#C82930;stroke-width:1.0;" width="6" x="1005" y="85.3047"/><text fill="#000000" font-family="sans-serif" font-size="14" lengthAdjust="spacing" textLength="266" x="1017" y="92.5332">controller : RegisterGreenSpaceController</text><line style="stroke:#181818;stroke-width:0.5;" x1="998" x2="1288" y1="99.6094" y2="99.6094"/><ellipse cx="1008" cy="113.9141" fill="#84BE84" rx="3" ry="3" style="stroke:#038048;stroke-width:1.0;"/><text fill="#000000" font-family="sans-serif" font-size="14" lengthAdjust="spacing" textLength="155" x="1017" y="118.1426">RegisterGreenSpaceUI()</text><ellipse cx="1008" cy="131.5234" fill="#84BE84" rx="3" ry="3" style="stroke:#038048;stroke-width:1.0;"/><text fill="#000000" font-family="sans-serif" font-size="14" lengthAdjust="spacing" textLength="134" x="1017" y="135.752">createNewGS() : void</text></g><!--class RegisterGreenSpaceController--><g id="elem_RegisterGreenSpaceController"><rect codeLine="15" fill="#F1F1F1" height="118.4375" id="RegisterGreenSpaceController" rx="2.5" ry="2.5" style="stroke:#181818;stroke-width:0.5;" width="373" x="786.5" y="228"/><ellipse cx="871.25" cy="244" fill="#ADD1B2" rx="11" ry="11" style="stroke:#181818;stroke-width:1.0;"/><path d="M874.0156,239.875 Q874.1719,239.6563 874.3594,239.5469 Q874.5469,239.4375 874.7656,239.4375 Q875.1406,239.4375 875.375,239.7031 Q875.6094,239.9531 875.6094,240.5625 L875.6094,242.0156 Q875.6094,242.625 875.375,242.8906 Q875.1406,243.1563 874.7656,243.1563 Q874.4219,243.1563 874.2188,242.9531 Q874.0156,242.7656 873.9063,242.25 Q873.8594,241.8906 873.6719,241.7031 Q873.3438,241.3281 872.7344,241.1094 Q872.125,240.8906 871.5,240.8906 Q870.7344,240.8906 870.0938,241.2188 Q869.4688,241.5469 868.9688,242.2969 Q868.4844,243.0469 868.4844,244.0781 L868.4844,245.1719 Q868.4844,246.4063 869.375,247.2344 Q870.2656,248.0469 871.8594,248.0469 Q872.7969,248.0469 873.4531,247.7969 Q873.8438,247.6406 874.2656,247.2031 Q874.5313,246.9375 874.6719,246.8594 Q874.8281,246.7813 875.0313,246.7813 Q875.3594,246.7813 875.6094,247.0469 Q875.875,247.2969 875.875,247.6406 Q875.875,247.9844 875.5313,248.3906 Q875.0313,248.9688 874.2344,249.2969 Q873.1563,249.75 871.8594,249.75 Q870.3438,249.75 869.1406,249.125 Q868.1563,248.625 867.4688,247.5625 Q866.7813,246.4844 866.7813,245.2031 L866.7813,244.0469 Q866.7813,242.7188 867.3906,241.5781 Q868.0156,240.4219 869.1094,239.8125 Q870.2031,239.1875 871.4375,239.1875 Q872.1719,239.1875 872.8125,239.3594 Q873.4688,239.5156 874.0156,239.875 Z " fill="#000000"/><text fill="#000000" font-family="sans-serif" font-size="14" lengthAdjust="spacing" textLength="195" x="891.75" y="249.7285">RegisterGreenSpaceController</text><line style="stroke:#181818;stroke-width:0.5;" x1="787.5" x2="1158.5" y1="260" y2="260"/><rect fill="none" height="6" style="stroke:#C82930;stroke-width:1.0;" width="6" x="794.5" y="271.3047"/><text fill="#000000" font-family="sans-serif" font-size="14" lengthAdjust="spacing" textLength="161" x="806.5" y="278.5332">repositories: Repositories</text><rect fill="none" height="6" style="stroke:#C82930;stroke-width:1.0;" width="6" x="794.5" y="288.9141"/><text fill="#000000" font-family="sans-serif" font-size="14" lengthAdjust="spacing" textLength="305" x="806.5" y="296.1426">greenSpaceRepository : GreenSpaceRepository</text><line style="stroke:#181818;stroke-width:0.5;" x1="787.5" x2="1158.5" y1="303.2188" y2="303.2188"/><ellipse cx="797.5" cy="317.5234" fill="#84BE84" rx="3" ry="3" style="stroke:#038048;stroke-width:1.0;"/><text fill="#000000" font-family="sans-serif" font-size="14" lengthAdjust="spacing" textLength="347" x="806.5" y="321.752">createNewGS(greenSpaceDto : GreenSpaceDto) : void</text><ellipse cx="797.5" cy="335.1328" fill="#84BE84" rx="3" ry="3" style="stroke:#038048;stroke-width:1.0;"/><text fill="#000000" font-family="sans-serif" font-size="14" lengthAdjust="spacing" textLength="205" x="806.5" y="339.3613">RegisterGreenSpaceController()</text></g><!--class Repositories--><g id="elem_Repositories"><rect codeLine="25" fill="#F1F1F1" height="136.0469" id="Repositories" rx="2.5" ry="2.5" style="stroke:#181818;stroke-width:0.5;" width="364" x="487" y="492"/><ellipse cx="625.25" cy="508" fill="#ADD1B2" rx="11" ry="11" style="stroke:#181818;stroke-width:1.0;"/><path d="M628.0156,503.875 Q628.1719,503.6563 628.3594,503.5469 Q628.5469,503.4375 628.7656,503.4375 Q629.1406,503.4375 629.375,503.7031 Q629.6094,503.9531 629.6094,504.5625 L629.6094,506.0156 Q629.6094,506.625 629.375,506.8906 Q629.1406,507.1563 628.7656,507.1563 Q628.4219,507.1563 628.2188,506.9531 Q628.0156,506.7656 627.9063,506.25 Q627.8594,505.8906 627.6719,505.7031 Q627.3438,505.3281 626.7344,505.1094 Q626.125,504.8906 625.5,504.8906 Q624.7344,504.8906 624.0938,505.2188 Q623.4688,505.5469 622.9688,506.2969 Q622.4844,507.0469 622.4844,508.0781 L622.4844,509.1719 Q622.4844,510.4063 623.375,511.2344 Q624.2656,512.0469 625.8594,512.0469 Q626.7969,512.0469 627.4531,511.7969 Q627.8438,511.6406 628.2656,511.2031 Q628.5313,510.9375 628.6719,510.8594 Q628.8281,510.7813 629.0313,510.7813 Q629.3594,510.7813 629.6094,511.0469 Q629.875,511.2969 629.875,511.6406 Q629.875,511.9844 629.5313,512.3906 Q629.0313,512.9688 628.2344,513.2969 Q627.1563,513.75 625.8594,513.75 Q624.3438,513.75 623.1406,513.125 Q622.1563,512.625 621.4688,511.5625 Q620.7813,510.4844 620.7813,509.2031 L620.7813,508.0469 Q620.7813,506.7188 621.3906,505.5781 Q622.0156,504.4219 623.1094,503.8125 Q624.2031,503.1875 625.4375,503.1875 Q626.1719,503.1875 626.8125,503.3594 Q627.4688,503.5156 628.0156,503.875 Z " fill="#000000"/><text fill="#000000" font-family="sans-serif" font-size="14" lengthAdjust="spacing" textLength="79" x="645.75" y="513.7285">Repositories</text><line style="stroke:#181818;stroke-width:0.5;" x1="488" x2="850" y1="524" y2="524"/><rect fill="none" height="6" style="stroke:#C82930;stroke-width:1.0;" width="6" x="495" y="535.3047"/><text fill="#000000" font-family="sans-serif" font-size="14" lengthAdjust="spacing" textLength="144" x="507" y="542.5332">instance : Repositories</text><rect fill="none" height="6" style="stroke:#C82930;stroke-width:1.0;" width="6" x="495" y="552.9141"/><text fill="#000000" font-family="sans-serif" font-size="14" lengthAdjust="spacing" textLength="305" x="507" y="560.1426">greenSpaceRepository : GreenSpaceRepository</text><line style="stroke:#181818;stroke-width:0.5;" x1="488" x2="850" y1="567.2188" y2="567.2188"/><rect fill="#F24D5C" height="6" style="stroke:#C82930;stroke-width:1.0;" width="6" x="495" y="578.5234"/><text fill="#000000" font-family="sans-serif" font-size="14" lengthAdjust="spacing" textLength="89" x="507" y="585.752">Repositories()</text><ellipse cx="498" cy="599.1328" fill="#84BE84" rx="3" ry="3" style="stroke:#038048;stroke-width:1.0;"/><text fill="#000000" font-family="sans-serif" font-size="14" lengthAdjust="spacing" textLength="174" x="507" y="603.3613">getInstance() : Repositories</text><ellipse cx="498" cy="616.7422" fill="#84BE84" rx="3" ry="3" style="stroke:#038048;stroke-width:1.0;"/><text fill="#000000" font-family="sans-serif" font-size="14" lengthAdjust="spacing" textLength="338" x="507" y="620.9707">getGreenSpaceRepository() : GreenSpaceRepository</text></g><!--class GreenSpaceRepository--><g id="elem_GreenSpaceRepository"><rect codeLine="33" fill="#F1F1F1" height="136.0469" id="GreenSpaceRepository" rx="2.5" ry="2.5" style="stroke:#181818;stroke-width:0.5;" width="369" x="523.5" y="706"/><ellipse cx="629.75" cy="722" fill="#ADD1B2" rx="11" ry="11" style="stroke:#181818;stroke-width:1.0;"/><path d="M632.5156,717.875 Q632.6719,717.6563 632.8594,717.5469 Q633.0469,717.4375 633.2656,717.4375 Q633.6406,717.4375 633.875,717.7031 Q634.1094,717.9531 634.1094,718.5625 L634.1094,720.0156 Q634.1094,720.625 633.875,720.8906 Q633.6406,721.1563 633.2656,721.1563 Q632.9219,721.1563 632.7188,720.9531 Q632.5156,720.7656 632.4063,720.25 Q632.3594,719.8906 632.1719,719.7031 Q631.8438,719.3281 631.2344,719.1094 Q630.625,718.8906 630,718.8906 Q629.2344,718.8906 628.5938,719.2188 Q627.9688,719.5469 627.4688,720.2969 Q626.9844,721.0469 626.9844,722.0781 L626.9844,723.1719 Q626.9844,724.4063 627.875,725.2344 Q628.7656,726.0469 630.3594,726.0469 Q631.2969,726.0469 631.9531,725.7969 Q632.3438,725.6406 632.7656,725.2031 Q633.0313,724.9375 633.1719,724.8594 Q633.3281,724.7813 633.5313,724.7813 Q633.8594,724.7813 634.1094,725.0469 Q634.375,725.2969 634.375,725.6406 Q634.375,725.9844 634.0313,726.3906 Q633.5313,726.9688 632.7344,727.2969 Q631.6563,727.75 630.3594,727.75 Q628.8438,727.75 627.6406,727.125 Q626.6563,726.625 625.9688,725.5625 Q625.2813,724.4844 625.2813,723.2031 L625.2813,722.0469 Q625.2813,720.7188 625.8906,719.5781 Q626.5156,718.4219 627.6094,717.8125 Q628.7031,717.1875 629.9375,717.1875 Q630.6719,717.1875 631.3125,717.3594 Q631.9688,717.5156 632.5156,717.875 Z " fill="#000000"/><text fill="#000000" font-family="sans-serif" font-size="14" lengthAdjust="spacing" textLength="148" x="650.25" y="727.7285">GreenSpaceRepository</text><line style="stroke:#181818;stroke-width:0.5;" x1="524.5" x2="891.5" y1="738" y2="738"/><rect fill="none" height="6" style="stroke:#C82930;stroke-width:1.0;" width="6" x="531.5" y="749.3047"/><text fill="#000000" font-family="sans-serif" font-size="14" lengthAdjust="spacing" textLength="229" x="543.5" y="756.5332">greenSpaceList : List&lt;GreenSpace&gt;</text><line style="stroke:#181818;stroke-width:0.5;" x1="524.5" x2="891.5" y1="763.6094" y2="763.6094"/><ellipse cx="534.5" cy="777.9141" fill="#84BE84" rx="3" ry="3" style="stroke:#038048;stroke-width:1.0;"/><text fill="#000000" font-family="sans-serif" font-size="14" lengthAdjust="spacing" textLength="158" x="543.5" y="782.1426">GreenSpaceRepository()</text><ellipse cx="534.5" cy="795.5234" fill="#84BE84" rx="3" ry="3" style="stroke:#038048;stroke-width:1.0;"/><text fill="#000000" font-family="sans-serif" font-size="14" lengthAdjust="spacing" textLength="301" x="543.5" y="799.752">create(greenSpaceDto : GreenSpaceDto) : void</text><rect fill="#F24D5C" height="6" style="stroke:#C82930;stroke-width:1.0;" width="6" x="531.5" y="810.1328"/><text fill="#000000" font-family="sans-serif" font-size="14" lengthAdjust="spacing" textLength="321" x="543.5" y="817.3613">addGreenSpace(greenSpace : GreenSpace) : void</text><rect fill="#F24D5C" height="6" style="stroke:#C82930;stroke-width:1.0;" width="6" x="531.5" y="827.7422"/><text fill="#000000" font-family="sans-serif" font-size="14" lengthAdjust="spacing" textLength="343" x="543.5" y="834.9707">verifyDuplicates(greenSpace : GreenSpace) : Boolean</text></g><!--class GreenSpace--><g id="elem_GreenSpace"><rect codeLine="42" fill="#F1F1F1" height="171.2656" id="GreenSpace" rx="2.5" ry="2.5" style="stroke:#181818;stroke-width:0.5;" width="656" x="46" y="1133"/><ellipse cx="329.75" cy="1149" fill="#ADD1B2" rx="11" ry="11" style="stroke:#181818;stroke-width:1.0;"/><path d="M332.5156,1144.875 Q332.6719,1144.6563 332.8594,1144.5469 Q333.0469,1144.4375 333.2656,1144.4375 Q333.6406,1144.4375 333.875,1144.7031 Q334.1094,1144.9531 334.1094,1145.5625 L334.1094,1147.0156 Q334.1094,1147.625 333.875,1147.8906 Q333.6406,1148.1563 333.2656,1148.1563 Q332.9219,1148.1563 332.7188,1147.9531 Q332.5156,1147.7656 332.4063,1147.25 Q332.3594,1146.8906 332.1719,1146.7031 Q331.8438,1146.3281 331.2344,1146.1094 Q330.625,1145.8906 330,1145.8906 Q329.2344,1145.8906 328.5938,1146.2188 Q327.9688,1146.5469 327.4688,1147.2969 Q326.9844,1148.0469 326.9844,1149.0781 L326.9844,1150.1719 Q326.9844,1151.4063 327.875,1152.2344 Q328.7656,1153.0469 330.3594,1153.0469 Q331.2969,1153.0469 331.9531,1152.7969 Q332.3438,1152.6406 332.7656,1152.2031 Q333.0313,1151.9375 333.1719,1151.8594 Q333.3281,1151.7813 333.5313,1151.7813 Q333.8594,1151.7813 334.1094,1152.0469 Q334.375,1152.2969 334.375,1152.6406 Q334.375,1152.9844 334.0313,1153.3906 Q333.5313,1153.9688 332.7344,1154.2969 Q331.6563,1154.75 330.3594,1154.75 Q328.8438,1154.75 327.6406,1154.125 Q326.6563,1153.625 325.9688,1152.5625 Q325.2813,1151.4844 325.2813,1150.2031 L325.2813,1149.0469 Q325.2813,1147.7188 325.8906,1146.5781 Q326.5156,1145.4219 327.6094,1144.8125 Q328.7031,1144.1875 329.9375,1144.1875 Q330.6719,1144.1875 331.3125,1144.3594 Q331.9688,1144.5156 332.5156,1144.875 Z " fill="#000000"/><text fill="#000000" font-family="sans-serif" font-size="14" lengthAdjust="spacing" textLength="80" x="350.25" y="1154.7285">GreenSpace</text><line style="stroke:#181818;stroke-width:0.5;" x1="47" x2="701" y1="1165" y2="1165"/><rect fill="none" height="6" style="stroke:#C82930;stroke-width:1.0;" width="6" x="54" y="1176.3047"/><text fill="#000000" font-family="sans-serif" font-size="14" lengthAdjust="spacing" textLength="84" x="66" y="1183.5332">name : String</text><rect fill="none" height="6" style="stroke:#C82930;stroke-width:1.0;" width="6" x="54" y="1193.9141"/><text fill="#000000" font-family="sans-serif" font-size="14" lengthAdjust="spacing" textLength="151" x="66" y="1201.1426">type : GreenSpaceType</text><rect fill="none" height="6" style="stroke:#C82930;stroke-width:1.0;" width="6" x="54" y="1211.5234"/><text fill="#000000" font-family="sans-serif" font-size="14" lengthAdjust="spacing" textLength="86" x="66" y="1218.752">area : Double</text><rect fill="none" height="6" style="stroke:#C82930;stroke-width:1.0;" width="6" x="54" y="1229.1328"/><text fill="#000000" font-family="sans-serif" font-size="14" lengthAdjust="spacing" textLength="147" x="66" y="1236.3613">manager : UserSession</text><rect fill="none" height="6" style="stroke:#C82930;stroke-width:1.0;" width="6" x="54" y="1246.7422"/><text fill="#000000" font-family="sans-serif" font-size="14" lengthAdjust="spacing" textLength="115" x="66" y="1253.9707">address : Address</text><line style="stroke:#181818;stroke-width:0.5;" x1="47" x2="701" y1="1261.0469" y2="1261.0469"/><ellipse cx="57" cy="1275.3516" fill="#84BE84" rx="3" ry="3" style="stroke:#038048;stroke-width:1.0;"/><text fill="#000000" font-family="sans-serif" font-size="14" lengthAdjust="spacing" textLength="630" x="66" y="1279.5801">GreenSpace(name : String, type : String, area : Double, address : Address, manager : UserSession)</text><ellipse cx="57" cy="1292.9609" fill="#84BE84" rx="3" ry="3" style="stroke:#038048;stroke-width:1.0;"/><text fill="#000000" font-family="sans-serif" font-size="14" lengthAdjust="spacing" textLength="307" x="66" y="1297.1895">verifyFilled(greenSpace: GreenSpace) : Boolean</text></g><!--class GreenSpaceDto--><g id="elem_GreenSpaceDto"><rect codeLine="53" fill="#F1F1F1" height="294.5313" id="GreenSpaceDto" rx="2.5" ry="2.5" style="stroke:#181818;stroke-width:0.5;" width="212" x="901" y="1071"/><ellipse cx="951.75" cy="1087" fill="#ADD1B2" rx="11" ry="11" style="stroke:#181818;stroke-width:1.0;"/><path d="M954.5156,1082.875 Q954.6719,1082.6563 954.8594,1082.5469 Q955.0469,1082.4375 955.2656,1082.4375 Q955.6406,1082.4375 955.875,1082.7031 Q956.1094,1082.9531 956.1094,1083.5625 L956.1094,1085.0156 Q956.1094,1085.625 955.875,1085.8906 Q955.6406,1086.1563 955.2656,1086.1563 Q954.9219,1086.1563 954.7188,1085.9531 Q954.5156,1085.7656 954.4063,1085.25 Q954.3594,1084.8906 954.1719,1084.7031 Q953.8438,1084.3281 953.2344,1084.1094 Q952.625,1083.8906 952,1083.8906 Q951.2344,1083.8906 950.5938,1084.2188 Q949.9688,1084.5469 949.4688,1085.2969 Q948.9844,1086.0469 948.9844,1087.0781 L948.9844,1088.1719 Q948.9844,1089.4063 949.875,1090.2344 Q950.7656,1091.0469 952.3594,1091.0469 Q953.2969,1091.0469 953.9531,1090.7969 Q954.3438,1090.6406 954.7656,1090.2031 Q955.0313,1089.9375 955.1719,1089.8594 Q955.3281,1089.7813 955.5313,1089.7813 Q955.8594,1089.7813 956.1094,1090.0469 Q956.375,1090.2969 956.375,1090.6406 Q956.375,1090.9844 956.0313,1091.3906 Q955.5313,1091.9688 954.7344,1092.2969 Q953.6563,1092.75 952.3594,1092.75 Q950.8438,1092.75 949.6406,1092.125 Q948.6563,1091.625 947.9688,1090.5625 Q947.2813,1089.4844 947.2813,1088.2031 L947.2813,1087.0469 Q947.2813,1085.7188 947.8906,1084.5781 Q948.5156,1083.4219 949.6094,1082.8125 Q950.7031,1082.1875 951.9375,1082.1875 Q952.6719,1082.1875 953.3125,1082.3594 Q953.9688,1082.5156 954.5156,1082.875 Z " fill="#000000"/><text fill="#000000" font-family="sans-serif" font-size="14" lengthAdjust="spacing" textLength="102" x="972.25" y="1092.7285">GreenSpaceDto</text><line style="stroke:#181818;stroke-width:0.5;" x1="902" x2="1112" y1="1103" y2="1103"/><rect fill="none" height="6" style="stroke:#C82930;stroke-width:1.0;" width="6" x="909" y="1114.3047"/><text fill="#000000" font-family="sans-serif" font-size="14" lengthAdjust="spacing" textLength="84" x="921" y="1121.5332">name : String</text><rect fill="none" height="6" style="stroke:#C82930;stroke-width:1.0;" width="6" x="909" y="1131.9141"/><text fill="#000000" font-family="sans-serif" font-size="14" lengthAdjust="spacing" textLength="151" x="921" y="1139.1426">type : GreenSpaceType</text><rect fill="none" height="6" style="stroke:#C82930;stroke-width:1.0;" width="6" x="909" y="1149.5234"/><text fill="#000000" font-family="sans-serif" font-size="14" lengthAdjust="spacing" textLength="86" x="921" y="1156.752">area : Double</text><rect fill="none" height="6" style="stroke:#C82930;stroke-width:1.0;" width="6" x="909" y="1167.1328"/><text fill="#000000" font-family="sans-serif" font-size="14" lengthAdjust="spacing" textLength="147" x="921" y="1174.3613">manager : UserSession</text><rect fill="none" height="6" style="stroke:#C82930;stroke-width:1.0;" width="6" x="909" y="1184.7422"/><text fill="#000000" font-family="sans-serif" font-size="14" lengthAdjust="spacing" textLength="100" x="921" y="1191.9707">address : String</text><rect fill="none" height="6" style="stroke:#C82930;stroke-width:1.0;" width="6" x="909" y="1202.3516"/><text fill="#000000" font-family="sans-serif" font-size="14" lengthAdjust="spacing" textLength="70" x="921" y="1209.5801">city : String</text><rect fill="none" height="6" style="stroke:#C82930;stroke-width:1.0;" width="6" x="909" y="1219.9609"/><text fill="#000000" font-family="sans-serif" font-size="14" lengthAdjust="spacing" textLength="100" x="921" y="1227.1895">zipCode : String</text><line style="stroke:#181818;stroke-width:0.5;" x1="902" x2="1112" y1="1234.2656" y2="1234.2656"/><ellipse cx="912" cy="1248.5703" fill="#84BE84" rx="3" ry="3" style="stroke:#038048;stroke-width:1.0;"/><text fill="#000000" font-family="sans-serif" font-size="14" lengthAdjust="spacing" textLength="115" x="921" y="1252.7988">getName() : String</text><ellipse cx="912" cy="1266.1797" fill="#84BE84" rx="3" ry="3" style="stroke:#038048;stroke-width:1.0;"/><text fill="#000000" font-family="sans-serif" font-size="14" lengthAdjust="spacing" textLength="186" x="921" y="1270.4082">getType() : GreenSpaceType</text><ellipse cx="912" cy="1283.7891" fill="#84BE84" rx="3" ry="3" style="stroke:#038048;stroke-width:1.0;"/><text fill="#000000" font-family="sans-serif" font-size="14" lengthAdjust="spacing" textLength="117" x="921" y="1288.0176">getArea() : Double</text><ellipse cx="912" cy="1301.3984" fill="#84BE84" rx="3" ry="3" style="stroke:#038048;stroke-width:1.0;"/><text fill="#000000" font-family="sans-serif" font-size="14" lengthAdjust="spacing" textLength="177" x="921" y="1305.627">getManager() : UserSession</text><ellipse cx="912" cy="1319.0078" fill="#84BE84" rx="3" ry="3" style="stroke:#038048;stroke-width:1.0;"/><text fill="#000000" font-family="sans-serif" font-size="14" lengthAdjust="spacing" textLength="131" x="921" y="1323.2363">getAddress() : String</text><ellipse cx="912" cy="1336.6172" fill="#84BE84" rx="3" ry="3" style="stroke:#038048;stroke-width:1.0;"/><text fill="#000000" font-family="sans-serif" font-size="14" lengthAdjust="spacing" textLength="103" x="921" y="1340.8457">getCity() : String</text><ellipse cx="912" cy="1354.2266" fill="#84BE84" rx="3" ry="3" style="stroke:#038048;stroke-width:1.0;"/><text fill="#000000" font-family="sans-serif" font-size="14" lengthAdjust="spacing" textLength="132" x="921" y="1358.4551">getZipCode() : String</text></g><!--class GreenSpaceMapper--><g id="elem_GreenSpaceMapper"><rect codeLine="70" fill="#F1F1F1" height="83.2188" id="GreenSpaceMapper" rx="2.5" ry="2.5" style="stroke:#181818;stroke-width:0.5;" width="401" x="758.5" y="927"/><ellipse cx="890.75" cy="943" fill="#ADD1B2" rx="11" ry="11" style="stroke:#181818;stroke-width:1.0;"/><path d="M893.5156,938.875 Q893.6719,938.6563 893.8594,938.5469 Q894.0469,938.4375 894.2656,938.4375 Q894.6406,938.4375 894.875,938.7031 Q895.1094,938.9531 895.1094,939.5625 L895.1094,941.0156 Q895.1094,941.625 894.875,941.8906 Q894.6406,942.1563 894.2656,942.1563 Q893.9219,942.1563 893.7188,941.9531 Q893.5156,941.7656 893.4063,941.25 Q893.3594,940.8906 893.1719,940.7031 Q892.8438,940.3281 892.2344,940.1094 Q891.625,939.8906 891,939.8906 Q890.2344,939.8906 889.5938,940.2188 Q888.9688,940.5469 888.4688,941.2969 Q887.9844,942.0469 887.9844,943.0781 L887.9844,944.1719 Q887.9844,945.4063 888.875,946.2344 Q889.7656,947.0469 891.3594,947.0469 Q892.2969,947.0469 892.9531,946.7969 Q893.3438,946.6406 893.7656,946.2031 Q894.0313,945.9375 894.1719,945.8594 Q894.3281,945.7813 894.5313,945.7813 Q894.8594,945.7813 895.1094,946.0469 Q895.375,946.2969 895.375,946.6406 Q895.375,946.9844 895.0313,947.3906 Q894.5313,947.9688 893.7344,948.2969 Q892.6563,948.75 891.3594,948.75 Q889.8438,948.75 888.6406,948.125 Q887.6563,947.625 886.9688,946.5625 Q886.2813,945.4844 886.2813,944.2031 L886.2813,943.0469 Q886.2813,941.7188 886.8906,940.5781 Q887.5156,939.4219 888.6094,938.8125 Q889.7031,938.1875 890.9375,938.1875 Q891.6719,938.1875 892.3125,938.3594 Q892.9688,938.5156 893.5156,938.875 Z " fill="#000000"/><text fill="#000000" font-family="sans-serif" font-size="14" lengthAdjust="spacing" textLength="128" x="911.25" y="948.7285">GreenSpaceMapper</text><line style="stroke:#181818;stroke-width:0.5;" x1="759.5" x2="1158.5" y1="959" y2="959"/><line style="stroke:#181818;stroke-width:0.5;" x1="759.5" x2="1158.5" y1="967" y2="967"/><ellipse cx="769.5" cy="981.3047" fill="#84BE84" rx="3" ry="3" style="stroke:#038048;stroke-width:1.0;"/><text fill="#000000" font-family="sans-serif" font-size="14" lengthAdjust="spacing" textLength="327" x="778.5" y="985.5332">toDto(greenSpace : GreenSpace) : GreenSpaceDto</text><ellipse cx="769.5" cy="998.9141" fill="#84BE84" rx="3" ry="3" style="stroke:#038048;stroke-width:1.0;"/><text fill="#000000" font-family="sans-serif" font-size="14" lengthAdjust="spacing" textLength="375" x="778.5" y="1003.1426">toDomain(greenSpaceDto : GreenSpaceDto) : GreenSpace</text></g><!--link RegisterGreenSpaceUI to RegisterGreenSpaceController--><g id="link_RegisterGreenSpaceUI_RegisterGreenSpaceController"><path codeLine="77" d="M1099.22,143.07 C1077.47,167.71 1050.96,197.72 1027.86,223.88 " fill="none" id="RegisterGreenSpaceUI-to-RegisterGreenSpaceController" style="stroke:#181818;stroke-width:1.0;stroke-dasharray:7.0,7.0;"/><polygon fill="#181818" points="1024.48,227.7,1033.4412,223.6138,1027.7947,223.9567,1027.4518,218.3102,1024.48,227.7" style="stroke:#181818;stroke-width:1.0;"/></g><!--link RegisterGreenSpaceController to Repositories--><g id="link_RegisterGreenSpaceController_Repositories"><path codeLine="78" d="M907.78,346.14 C861.03,387.82 797.79,444.19 748.14,488.45 " fill="none" id="RegisterGreenSpaceController-to-Repositories" style="stroke:#181818;stroke-width:1.0;stroke-dasharray:7.0,7.0;"/><polygon fill="#181818" points="744.28,491.89,753.6634,488.8981,748.0163,488.5673,748.3471,482.9201,744.28,491.89" style="stroke:#181818;stroke-width:1.0;"/><text fill="#000000" font-family="sans-serif" font-size="13" lengthAdjust="spacing" textLength="67" x="866" y="392.4951">repositories</text></g><!--link Repositories to Repositories--><g id="link_Repositories_Repositories"><path codeLine="79" d="M851.05,543.04 C872.22,546.17 886,551.82 886,560 C886,567.47 874.49,572.84 856.34,576.1 " fill="none" id="Repositories-to-Repositories" style="stroke:#181818;stroke-width:1.0;"/><polygon fill="#181818" points="851.05,576.96,860.5746,579.4663,855.9854,576.1589,859.2928,571.5697,851.05,576.96" style="stroke:#181818;stroke-width:1.0;"/><text fill="#000000" font-family="sans-serif" font-size="13" lengthAdjust="spacing" textLength="49" x="892" y="565.4951">instance</text></g><!--link RegisterGreenSpaceController to GreenSpaceRepository--><g id="link_RegisterGreenSpaceController_GreenSpaceRepository"><path codeLine="80" d="M983.93,346.08 C994.25,417.94 1001.16,541.36 948,628 C929.44,658.25 901.98,683.04 872.2,703.01 " fill="none" id="RegisterGreenSpaceController-to-GreenSpaceRepository" style="stroke:#181818;stroke-width:1.0;stroke-dasharray:7.0,7.0;"/><polygon fill="#181818" points="867.79,705.92,877.5076,704.3176,871.9678,703.173,873.1124,697.6331,867.79,705.92" style="stroke:#181818;stroke-width:1.0;"/><text fill="#000000" font-family="sans-serif" font-size="13" lengthAdjust="spacing" textLength="131" x="992" y="565.4951">greenSpaceRepository</text></g><!--link Repositories to GreenSpaceRepository--><g id="link_Repositories_GreenSpaceRepository"><path codeLine="81" d="M681.34,628.08 C685.61,651.29 690.41,677.4 694.75,701 " fill="none" id="Repositories-to-GreenSpaceRepository" style="stroke:#181818;stroke-width:1.0;"/><polygon fill="#181818" points="695.67,705.99,697.9833,696.4167,694.7693,701.0718,690.1141,697.8578,695.67,705.99" style="stroke:#181818;stroke-width:1.0;"/><text fill="#000000" font-family="sans-serif" font-size="13" lengthAdjust="spacing" textLength="131" x="690" y="672.4951">greenSpaceRepository</text><text fill="#000000" font-family="sans-serif" font-size="13" lengthAdjust="spacing" textLength="7" x="686.9386" y="695.1882">1</text></g><!--link GreenSpaceRepository to GreenSpace--><g id="link_GreenSpaceRepository_GreenSpace"><path codeLine="82" d="M644.04,842.09 C632.08,855.38 619.92,869.42 609,883 C544.6,963.1 477.85,1059.62 432.03,1128.35 " fill="none" id="GreenSpaceRepository-to-GreenSpace" style="stroke:#181818;stroke-width:1.0;"/><polygon fill="#181818" points="429.04,1132.84,437.3605,1127.5703,431.8135,1128.6797,430.7041,1123.1327,429.04,1132.84" style="stroke:#181818;stroke-width:1.0;"/><text fill="#000000" font-family="sans-serif" font-size="13" lengthAdjust="spacing" textLength="131" x="610" y="973.9951">greenSpaceRepository</text><text fill="#000000" font-family="sans-serif" font-size="13" lengthAdjust="spacing" textLength="5" x="428.7193" y="1121.9974">*</text></g><!--link RegisterGreenSpaceUI to GreenSpaceDto--><g id="link_RegisterGreenSpaceUI_GreenSpaceDto"><path codeLine="83" d="M1171.88,143.18 C1191.16,181.04 1213,235.15 1213,286 C1213,286 1213,286 1213,969.5 C1213,1037.96 1165.97,1097.62 1116.86,1141.25 " fill="none" id="RegisterGreenSpaceUI-to-GreenSpaceDto" style="stroke:#181818;stroke-width:1.0;stroke-dasharray:7.0,7.0;"/><polygon fill="#181818" points="1113.02,1144.63,1122.4217,1141.6961,1116.7767,1141.3304,1117.1424,1135.6854,1113.02,1144.63" style="stroke:#181818;stroke-width:1.0;"/></g><!--link GreenSpaceRepository to GreenSpaceMapper--><g id="link_GreenSpaceRepository_GreenSpaceMapper"><path codeLine="84" d="M795.44,842.06 C830.64,869.06 870.26,899.44 901.69,923.54 " fill="none" id="GreenSpaceRepository-to-GreenSpaceMapper" style="stroke:#181818;stroke-width:1.0;stroke-dasharray:7.0,7.0;"/><polygon fill="#181818" points="905.87,926.75,901.1587,918.1011,901.901,923.709,896.2931,924.4514,905.87,926.75" style="stroke:#181818;stroke-width:1.0;"/></g><!--link GreenSpaceMapper to GreenSpace--><g id="link_GreenSpaceMapper_GreenSpace"><path codeLine="85" d="M863.38,1010.04 C786.21,1042.75 674.91,1089.94 577.94,1131.04 " fill="none" id="GreenSpaceMapper-to-GreenSpace" style="stroke:#181818;stroke-width:1.0;stroke-dasharray:7.0,7.0;"/><polygon fill="#181818" points="573.34,1132.99,583.1872,1133.1731,577.946,1131.0446,580.0745,1125.8035,573.34,1132.99" style="stroke:#181818;stroke-width:1.0;"/></g><!--link GreenSpaceMapper to GreenSpaceDto--><g id="link_GreenSpaceMapper_GreenSpaceDto"><path codeLine="86" d="M966.87,1010.17 C969.96,1026.14 973.72,1045.54 977.67,1065.98 " fill="none" id="GreenSpaceMapper-to-GreenSpaceDto" style="stroke:#181818;stroke-width:1.0;stroke-dasharray:7.0,7.0;"/><polygon fill="#181818" points="978.63,1070.92,980.8625,1061.3275,977.6879,1066.0096,973.0058,1062.8349,978.63,1070.92" style="stroke:#181818;stroke-width:1.0;"/></g><!--SRC=[pLNFRzem5Bxdhx2ub0vIQTTggiG8gv20J40FtSrB7gdLO4UssufL_T_taa1i1oUeqWxB0UJt-_lizvvwPhoWakw9UgAfU6Cy8pkQAmXKeyaP1w8F1P12v8Vo50HNEUmqqO98bZrfaZ89YMQ21mLDdca6v65EtWE2Nv9JfSWQCgOqo7i9m3Te18r1-OKa4LnBaUSWoQt7Ujge6v-HD-ZmsZ98950DAtYxtmolCUwhO6cZlWe9ubCmILC9IWsLnZ0QhJPQ8WrZyeSLYKZ1aYHC7vfZ6V3eMyNy23w21luqNctNyM8nMr-WmG1pw91G2CMqa0nKoOSvMKPP4wKnACkxzuWxI34H8hnBsnNFPuoDUki_Ck_G4CNBoNo5o4w2zUndl9blu_LZYnS3qE61SQKfJu3yKn929vZpP3BGysFEwibuirPclWoLIsTg9CP0zbavq0sm1NAESSk_RyRjpYh7NylPfN_olaD2qzIOMDwEgyVl5IJR7QAN8cS9vbLzhj-5o87o8qFrx-cvBEDejdZtikPmnUdUzAabhwQMdN2B0XiVqeBwIBpypctvdd9CNuwY1mLoWorUpZQ7bxBlMnEWVHT3fwpngPhJqKa-FeyvzfTXNslDym-6_PTQ7FTJREYDjh6VN7mD_mUzPocT4Mp9SLXFxM7jzkeA0LIzwLEMHRSQry5H6KqGIcNK0bCfbpMUIkz3L4SuxfckCgQ8h5FvguRNrdTCb2Kj2f3c1aTQu8tsDQ5pzOwVs5F6BmyE8t0Q6GlqhlwRcxl-BT-xAMjlUqFQ-p9mjaaOjcrFE-Lo3jzOlVLkdFESWw-3JxXxjm666NmPM5LqvkvWsBrLRmxNh7uuGLlGihgaBvFz1G00]--></g></svg>