<?xml version="1.0" encoding="UTF-8" standalone="no"?><svg xmlns="http://www.w3.org/2000/svg" xmlns:xlink="http://www.w3.org/1999/xlink" contentStyleType="text/css" height="1030px" preserveAspectRatio="none" style="width:2076px;height:1030px;background:#FFFFFF;" version="1.1" viewBox="0 0 2076 1030" width="2076px" zoomAndPan="magnify"><defs/><g><text fill="#000000" font-family="sans-serif" font-size="14" font-weight="bold" lengthAdjust="spacing" textLength="284" x="895.5" y="29.5332">System Sequence Diagram (SSD) - US006</text><rect fill="#FFFFFF" height="799.5625" style="stroke:#181818;stroke-width:1.0;" width="10" x="17.5" y="131.2188"/><rect fill="#FFFFFF" height="89.3125" style="stroke:#181818;stroke-width:1.0;" width="10" x="576.5" y="153.5703"/><rect fill="#FFFFFF" height="30.3516" style="stroke:#181818;stroke-width:1.0;" width="10" x="576.5" y="273.2344"/><rect fill="#FFFFFF" height="30.3516" style="stroke:#181818;stroke-width:1.0;" width="10" x="576.5" y="333.9375"/><rect fill="#FFFFFF" height="30.3516" style="stroke:#181818;stroke-width:1.0;" width="10" x="576.5" y="900.4297"/><rect fill="#FFFFFF" height="168.1094" style="stroke:#181818;stroke-width:1.0;" width="10" x="742" y="364.2891"/><rect fill="#FFFFFF" height="30.3516" style="stroke:#181818;stroke-width:1.0;" width="10" x="742" y="870.0781"/><rect fill="#FFFFFF" height="30.3516" style="stroke:#181818;stroke-width:1.0;" width="10" x="890" y="394.6406"/><rect fill="#FFFFFF" height="30.3516" style="stroke:#181818;stroke-width:1.0;" width="10" x="997" y="455.3438"/><rect fill="#FFFFFF" height="133.4063" style="stroke:#181818;stroke-width:1.0;" width="10" x="1303" y="532.3984"/><rect fill="#FFFFFF" height="41.3516" style="stroke:#181818;stroke-width:1.0;" width="10" x="1308" y="570.75"/><rect fill="#FFFFFF" height="73.7031" style="stroke:#181818;stroke-width:1.0;" width="10" x="1303" y="796.375"/><rect fill="#FFFFFF" height="120.5703" style="stroke:#181818;stroke-width:1.0;" width="10" x="1896" y="675.8047"/><rect fill="#FFFFFF" height="41.3516" style="stroke:#181818;stroke-width:1.0;" width="10" x="1901" y="717.6719"/><line style="stroke:#181818;stroke-width:0.5;stroke-dasharray:5.0,5.0;" x1="22" x2="22" y1="121.2188" y2="948.7813"/><line style="stroke:#181818;stroke-width:0.5;stroke-dasharray:5.0,5.0;" x1="581" x2="581" y1="121.2188" y2="948.7813"/><line style="stroke:#181818;stroke-width:0.5;stroke-dasharray:5.0,5.0;" x1="746.5" x2="746.5" y1="192.875" y2="948.7813"/><line style="stroke:#181818;stroke-width:0.5;stroke-dasharray:5.0,5.0;" x1="894.5" x2="894.5" y1="121.2188" y2="948.7813"/><line style="stroke:#181818;stroke-width:0.5;stroke-dasharray:5.0,5.0;" x1="1001.5" x2="1001.5" y1="121.2188" y2="948.7813"/><line style="stroke:#181818;stroke-width:0.5;stroke-dasharray:5.0,5.0;" x1="1308" x2="1308" y1="121.2188" y2="948.7813"/><line style="stroke:#181818;stroke-width:0.5;stroke-dasharray:5.0,5.0;" x1="1901" x2="1901" y1="667.2109" y2="948.7813"/><text fill="#000000" font-family="sans-serif" font-size="14" lengthAdjust="spacing" textLength="29" x="5" y="118.1426">VFM</text><ellipse cx="22.5" cy="52.1094" fill="#E3E3E3" rx="8" ry="8" style="stroke:#181818;stroke-width:0.5;"/><path d="M22.5,60.1094 L22.5,87.1094 M9.5,68.1094 L35.5,68.1094 M22.5,87.1094 L9.5,102.1094 M22.5,87.1094 L35.5,102.1094 " fill="none" style="stroke:#181818;stroke-width:0.5;"/><text fill="#000000" font-family="sans-serif" font-size="14" lengthAdjust="spacing" textLength="29" x="5" y="962.3145">VFM</text><ellipse cx="22.5" cy="973.8906" fill="#E3E3E3" rx="8" ry="8" style="stroke:#181818;stroke-width:0.5;"/><path d="M22.5,981.8906 L22.5,1008.8906 M9.5,989.8906 L35.5,989.8906 M22.5,1008.8906 L9.5,1023.8906 M22.5,1008.8906 L35.5,1023.8906 " fill="none" style="stroke:#181818;stroke-width:0.5;"/><rect fill="#E3E3E3" height="31.6094" rx="2.5" ry="2.5" style="stroke:#181818;stroke-width:0.5;" width="129" x="517" y="88.6094"/><text fill="#000000" font-family="sans-serif" font-size="14" lengthAdjust="spacing" textLength="115" x="524" y="110.1426">:RegisterVehicleUI</text><rect fill="#E3E3E3" height="31.6094" rx="2.5" ry="2.5" style="stroke:#181818;stroke-width:0.5;" width="129" x="517" y="947.7813"/><text fill="#000000" font-family="sans-serif" font-size="14" lengthAdjust="spacing" textLength="115" x="524" y="969.3145">:RegisterVehicleUI</text><rect fill="#E3E3E3" height="31.6094" rx="2.5" ry="2.5" style="stroke:#181818;stroke-width:0.5;" width="179" x="657.5" y="947.7813"/><text fill="#000000" font-family="sans-serif" font-size="14" lengthAdjust="spacing" textLength="165" x="664.5" y="969.3145">:RegisterVehicleController</text><rect fill="#E3E3E3" height="31.6094" rx="2.5" ry="2.5" style="stroke:#181818;stroke-width:0.5;" width="97" x="846.5" y="88.6094"/><text fill="#000000" font-family="sans-serif" font-size="14" lengthAdjust="spacing" textLength="83" x="853.5" y="110.1426">:Repositories</text><rect fill="#E3E3E3" height="31.6094" rx="2.5" ry="2.5" style="stroke:#181818;stroke-width:0.5;" width="97" x="846.5" y="947.7813"/><text fill="#000000" font-family="sans-serif" font-size="14" lengthAdjust="spacing" textLength="83" x="853.5" y="969.3145">:Repositories</text><rect fill="#E3E3E3" height="49.2188" rx="2.5" ry="2.5" style="stroke:#181818;stroke-width:0.5;" width="97" x="953.5" y="71"/><text fill="#000000" font-family="sans-serif" font-size="14" lengthAdjust="spacing" textLength="74" x="965" y="92.5332">repositories</text><text fill="#000000" font-family="sans-serif" font-size="14" lengthAdjust="spacing" textLength="83" x="960.5" y="110.1426">:Repositories</text><rect fill="#E3E3E3" height="49.2188" rx="2.5" ry="2.5" style="stroke:#181818;stroke-width:0.5;" width="97" x="953.5" y="947.7813"/><text fill="#000000" font-family="sans-serif" font-size="14" lengthAdjust="spacing" textLength="74" x="965" y="969.3145">repositories</text><text fill="#000000" font-family="sans-serif" font-size="14" lengthAdjust="spacing" textLength="83" x="960.5" y="986.9238">:Repositories</text><rect fill="#E3E3E3" height="49.2188" rx="2.5" ry="2.5" style="stroke:#181818;stroke-width:0.5;" width="130" x="1243" y="71"/><text fill="#000000" font-family="sans-serif" font-size="14" lengthAdjust="spacing" textLength="116" x="1250" y="92.5332">vehicleRepository:</text><text fill="#000000" font-family="sans-serif" font-size="14" lengthAdjust="spacing" textLength="114" x="1251" y="110.1426">VehicleRepository</text><rect fill="#E3E3E3" height="49.2188" rx="2.5" ry="2.5" style="stroke:#181818;stroke-width:0.5;" width="130" x="1243" y="947.7813"/><text fill="#000000" font-family="sans-serif" font-size="14" lengthAdjust="spacing" textLength="116" x="1250" y="969.3145">vehicleRepository:</text><text fill="#000000" font-family="sans-serif" font-size="14" lengthAdjust="spacing" textLength="114" x="1251" y="986.9238">VehicleRepository</text><rect fill="#E3E3E3" height="49.2188" rx="2.5" ry="2.5" style="stroke:#181818;stroke-width:0.5;" width="64" x="1869" y="947.7813"/><text fill="#000000" font-family="sans-serif" font-size="14" lengthAdjust="spacing" textLength="44" x="1879" y="969.3145">vehicle</text><text fill="#000000" font-family="sans-serif" font-size="14" lengthAdjust="spacing" textLength="50" x="1876" y="986.9238">:Vehicle</text><rect fill="#FFFFFF" height="799.5625" style="stroke:#181818;stroke-width:1.0;" width="10" x="17.5" y="131.2188"/><rect fill="#FFFFFF" height="89.3125" style="stroke:#181818;stroke-width:1.0;" width="10" x="576.5" y="153.5703"/><rect fill="#FFFFFF" height="30.3516" style="stroke:#181818;stroke-width:1.0;" width="10" x="576.5" y="273.2344"/><rect fill="#FFFFFF" height="30.3516" style="stroke:#181818;stroke-width:1.0;" width="10" x="576.5" y="333.9375"/><rect fill="#FFFFFF" height="30.3516" style="stroke:#181818;stroke-width:1.0;" width="10" x="576.5" y="900.4297"/><rect fill="#FFFFFF" height="168.1094" style="stroke:#181818;stroke-width:1.0;" width="10" x="742" y="364.2891"/><rect fill="#FFFFFF" height="30.3516" style="stroke:#181818;stroke-width:1.0;" width="10" x="742" y="870.0781"/><rect fill="#FFFFFF" height="30.3516" style="stroke:#181818;stroke-width:1.0;" width="10" x="890" y="394.6406"/><rect fill="#FFFFFF" height="30.3516" style="stroke:#181818;stroke-width:1.0;" width="10" x="997" y="455.3438"/><rect fill="#FFFFFF" height="133.4063" style="stroke:#181818;stroke-width:1.0;" width="10" x="1303" y="532.3984"/><rect fill="#FFFFFF" height="41.3516" style="stroke:#181818;stroke-width:1.0;" width="10" x="1308" y="570.75"/><rect fill="#FFFFFF" height="73.7031" style="stroke:#181818;stroke-width:1.0;" width="10" x="1303" y="796.375"/><rect fill="#FFFFFF" height="120.5703" style="stroke:#181818;stroke-width:1.0;" width="10" x="1896" y="675.8047"/><rect fill="#FFFFFF" height="41.3516" style="stroke:#181818;stroke-width:1.0;" width="10" x="1901" y="717.6719"/><polygon fill="#181818" points="564.5,149.5703,574.5,153.5703,564.5,157.5703,568.5,153.5703" style="stroke:#181818;stroke-width:1.0;"/><line style="stroke:#181818;stroke-width:1.0;" x1="27.5" x2="570.5" y1="153.5703" y2="153.5703"/><text fill="#000000" font-family="sans-serif" font-size="13" font-weight="bold" lengthAdjust="spacing" textLength="7" x="34.5" y="148.7139">1</text><text fill="#000000" font-family="sans-serif" font-size="13" lengthAdjust="spacing" textLength="171" x="45.5" y="148.7139">asks to register a new vehicle</text><polygon fill="#181818" points="645.5,179.9219,655.5,183.9219,645.5,187.9219,649.5,183.9219" style="stroke:#181818;stroke-width:1.0;"/><line style="stroke:#181818;stroke-width:1.0;" x1="586.5" x2="651.5" y1="183.9219" y2="183.9219"/><text fill="#000000" font-family="sans-serif" font-size="13" font-weight="bold" lengthAdjust="spacing" textLength="7" x="593.5" y="179.0654">2</text><text fill="#000000" font-family="sans-serif" font-size="13" lengthAdjust="spacing" textLength="36" x="604.5" y="179.0654">create</text><rect fill="#E3E3E3" height="31.6094" rx="2.5" ry="2.5" style="stroke:#181818;stroke-width:0.5;" width="179" x="657.5" y="161.5703"/><text fill="#000000" font-family="sans-serif" font-size="14" lengthAdjust="spacing" textLength="165" x="664.5" y="183.1035">:RegisterVehicleController</text><polygon fill="#181818" points="38.5,238.8828,28.5,242.8828,38.5,246.8828,34.5,242.8828" style="stroke:#181818;stroke-width:1.0;"/><line style="stroke:#181818;stroke-width:1.0;stroke-dasharray:2.0,2.0;" x1="32.5" x2="580.5" y1="242.8828" y2="242.8828"/><text fill="#000000" font-family="sans-serif" font-size="13" font-weight="bold" lengthAdjust="spacing" textLength="7" x="44.5" y="229.8506">3</text><text fill="#000000" font-family="sans-serif" font-size="13" lengthAdjust="spacing" textLength="439" x="55.5" y="221.6748">requests vehicle data (VIN, Brand, Model, Type, Vehicle Plate, Tare Weight,</text><text fill="#000000" font-family="sans-serif" font-size="13" lengthAdjust="spacing" textLength="514" x="55.5" y="238.0264">Gross Weight, Current Km, Registration date, Acquisition Date, Maintenance Frequency)</text><polygon fill="#181818" points="564.5,269.2344,574.5,273.2344,564.5,277.2344,568.5,273.2344" style="stroke:#181818;stroke-width:1.0;"/><line style="stroke:#181818;stroke-width:1.0;" x1="27.5" x2="570.5" y1="273.2344" y2="273.2344"/><text fill="#000000" font-family="sans-serif" font-size="13" font-weight="bold" lengthAdjust="spacing" textLength="7" x="34.5" y="268.3779">4</text><text fill="#000000" font-family="sans-serif" font-size="13" lengthAdjust="spacing" textLength="122" x="45.5" y="268.3779">types requested data</text><polygon fill="#181818" points="38.5,299.5859,28.5,303.5859,38.5,307.5859,34.5,303.5859" style="stroke:#181818;stroke-width:1.0;"/><line style="stroke:#181818;stroke-width:1.0;stroke-dasharray:2.0,2.0;" x1="32.5" x2="580.5" y1="303.5859" y2="303.5859"/><text fill="#000000" font-family="sans-serif" font-size="13" font-weight="bold" lengthAdjust="spacing" textLength="7" x="44.5" y="298.7295">5</text><text fill="#000000" font-family="sans-serif" font-size="13" lengthAdjust="spacing" textLength="236" x="55.5" y="298.7295">shows all data and requests confirmation</text><polygon fill="#181818" points="564.5,329.9375,574.5,333.9375,564.5,337.9375,568.5,333.9375" style="stroke:#181818;stroke-width:1.0;"/><line style="stroke:#181818;stroke-width:1.0;" x1="27.5" x2="570.5" y1="333.9375" y2="333.9375"/><text fill="#000000" font-family="sans-serif" font-size="13" font-weight="bold" lengthAdjust="spacing" textLength="7" x="34.5" y="329.0811">6</text><text fill="#000000" font-family="sans-serif" font-size="13" lengthAdjust="spacing" textLength="80" x="45.5" y="329.0811">confirms Data</text><polygon fill="#181818" points="730,360.2891,740,364.2891,730,368.2891,734,364.2891" style="stroke:#181818;stroke-width:1.0;"/><line style="stroke:#181818;stroke-width:1.0;" x1="581.5" x2="736" y1="364.2891" y2="364.2891"/><text fill="#000000" font-family="sans-serif" font-size="13" font-weight="bold" lengthAdjust="spacing" textLength="7" x="588.5" y="359.4326">7</text><text fill="#000000" font-family="sans-serif" font-size="13" lengthAdjust="spacing" textLength="111" x="599.5" y="359.4326">submit vehicle data</text><polygon fill="#181818" points="878,390.6406,888,394.6406,878,398.6406,882,394.6406" style="stroke:#181818;stroke-width:1.0;"/><line style="stroke:#181818;stroke-width:1.0;" x1="752" x2="884" y1="394.6406" y2="394.6406"/><text fill="#000000" font-family="sans-serif" font-size="13" font-weight="bold" lengthAdjust="spacing" textLength="7" x="759" y="389.7842">8</text><text fill="#000000" font-family="sans-serif" font-size="13" lengthAdjust="spacing" textLength="75" x="770" y="389.7842">getInstance()</text><polygon fill="#181818" points="763,420.9922,753,424.9922,763,428.9922,759,424.9922" style="stroke:#181818;stroke-width:1.0;"/><line style="stroke:#181818;stroke-width:1.0;stroke-dasharray:2.0,2.0;" x1="757" x2="894" y1="424.9922" y2="424.9922"/><text fill="#000000" font-family="sans-serif" font-size="13" font-weight="bold" lengthAdjust="spacing" textLength="7" x="769" y="420.1357">9</text><text fill="#000000" font-family="sans-serif" font-size="13" lengthAdjust="spacing" textLength="67" x="780" y="420.1357">repositories</text><polygon fill="#181818" points="985,451.3438,995,455.3438,985,459.3438,989,455.3438" style="stroke:#181818;stroke-width:1.0;"/><line style="stroke:#181818;stroke-width:1.0;" x1="752" x2="991" y1="455.3438" y2="455.3438"/><text fill="#000000" font-family="sans-serif" font-size="13" font-weight="bold" lengthAdjust="spacing" textLength="14" x="759" y="450.4873">10</text><text fill="#000000" font-family="sans-serif" font-size="13" lengthAdjust="spacing" textLength="131" x="777" y="450.4873">getVehicleRepository()</text><polygon fill="#181818" points="763,481.6953,753,485.6953,763,489.6953,759,485.6953" style="stroke:#181818;stroke-width:1.0;"/><line style="stroke:#181818;stroke-width:1.0;stroke-dasharray:2.0,2.0;" x1="757" x2="1001" y1="485.6953" y2="485.6953"/><text fill="#000000" font-family="sans-serif" font-size="13" font-weight="bold" lengthAdjust="spacing" textLength="14" x="769" y="480.8389">11</text><text fill="#000000" font-family="sans-serif" font-size="13" lengthAdjust="spacing" textLength="105" x="787" y="480.8389">VehicleRepository</text><polygon fill="#181818" points="1291,528.3984,1301,532.3984,1291,536.3984,1295,532.3984" style="stroke:#181818;stroke-width:1.0;"/><line style="stroke:#181818;stroke-width:1.0;" x1="747" x2="1297" y1="532.3984" y2="532.3984"/><text fill="#000000" font-family="sans-serif" font-size="13" font-weight="bold" lengthAdjust="spacing" textLength="14" x="754" y="519.3662">12</text><text fill="#000000" font-family="sans-serif" font-size="13" lengthAdjust="spacing" textLength="399" x="772" y="511.1904">registerVehicle(VIN, Brand, Model, Type, Vehicle Plate, Tare Weight,</text><text fill="#000000" font-family="sans-serif" font-size="13" lengthAdjust="spacing" textLength="514" x="772" y="527.542">Gross Weight, Current Km, Registration date, Acquisition Date, Maintenance Frequency)</text><line style="stroke:#181818;stroke-width:1.0;" x1="1313" x2="1360" y1="557.75" y2="557.75"/><line style="stroke:#181818;stroke-width:1.0;" x1="1360" x2="1360" y1="557.75" y2="570.75"/><line style="stroke:#181818;stroke-width:1.0;" x1="1319" x2="1360" y1="570.75" y2="570.75"/><polygon fill="#181818" points="1329,566.75,1319,570.75,1329,574.75,1325,570.75" style="stroke:#181818;stroke-width:1.0;"/><text fill="#000000" font-family="sans-serif" font-size="13" font-weight="bold" lengthAdjust="spacing" textLength="14" x="1325" y="552.8936">13</text><text fill="#000000" font-family="sans-serif" font-size="13" lengthAdjust="spacing" textLength="233" x="1343" y="552.8936">verifyExistingVehicle(VIN, Vehicle Plate)</text><line style="stroke:#181818;stroke-width:1.0;stroke-dasharray:2.0,2.0;" x1="1318" x2="1360" y1="611.1016" y2="611.1016"/><line style="stroke:#181818;stroke-width:1.0;stroke-dasharray:2.0,2.0;" x1="1360" x2="1360" y1="611.1016" y2="624.1016"/><line style="stroke:#181818;stroke-width:1.0;stroke-dasharray:2.0,2.0;" x1="1313" x2="1360" y1="624.1016" y2="624.1016"/><polygon fill="#181818" points="1323,620.1016,1313,624.1016,1323,628.1016,1319,624.1016" style="stroke:#181818;stroke-width:1.0;"/><text fill="#000000" font-family="sans-serif" font-size="13" font-weight="bold" lengthAdjust="spacing" textLength="14" x="1325" y="606.2451">14</text><text fill="#000000" font-family="sans-serif" font-size="13" lengthAdjust="spacing" textLength="4" x="1343" y="606.2451"> </text><polygon fill="#181818" points="1857,661.8047,1867,665.8047,1857,669.8047,1861,665.8047" style="stroke:#181818;stroke-width:1.0;"/><line style="stroke:#181818;stroke-width:1.0;" x1="1308" x2="1863" y1="665.8047" y2="665.8047"/><text fill="#000000" font-family="sans-serif" font-size="13" font-weight="bold" lengthAdjust="spacing" textLength="14" x="1315" y="652.7725">15</text><text fill="#000000" font-family="sans-serif" font-size="13" lengthAdjust="spacing" textLength="399" x="1333" y="644.5967">registerVehicle(VIN, Brand, Model, Type, Vehicle Plate, Tare Weight,</text><text fill="#000000" font-family="sans-serif" font-size="13" lengthAdjust="spacing" textLength="514" x="1333" y="660.9482">Gross Weight, Current Km, Registration date, Acquisition Date, Maintenance Frequency)</text><rect fill="#E3E3E3" height="49.2188" rx="2.5" ry="2.5" style="stroke:#181818;stroke-width:0.5;" width="64" x="1869" y="627.1016"/><text fill="#000000" font-family="sans-serif" font-size="14" lengthAdjust="spacing" textLength="44" x="1879" y="648.6348">vehicle</text><text fill="#000000" font-family="sans-serif" font-size="14" lengthAdjust="spacing" textLength="50" x="1876" y="666.2441">:Vehicle</text><line style="stroke:#181818;stroke-width:1.0;" x1="1906" x2="1953" y1="704.6719" y2="704.6719"/><line style="stroke:#181818;stroke-width:1.0;" x1="1953" x2="1953" y1="704.6719" y2="717.6719"/><line style="stroke:#181818;stroke-width:1.0;" x1="1912" x2="1953" y1="717.6719" y2="717.6719"/><polygon fill="#181818" points="1922,713.6719,1912,717.6719,1922,721.6719,1918,717.6719" style="stroke:#181818;stroke-width:1.0;"/><text fill="#000000" font-family="sans-serif" font-size="13" font-weight="bold" lengthAdjust="spacing" textLength="14" x="1918" y="699.8154">16</text><text fill="#000000" font-family="sans-serif" font-size="13" lengthAdjust="spacing" textLength="133" x="1936" y="699.8154">validateVehicle(vehicle)</text><line style="stroke:#181818;stroke-width:1.0;stroke-dasharray:2.0,2.0;" x1="1911" x2="1953" y1="758.0234" y2="758.0234"/><line style="stroke:#181818;stroke-width:1.0;stroke-dasharray:2.0,2.0;" x1="1953" x2="1953" y1="758.0234" y2="771.0234"/><line style="stroke:#181818;stroke-width:1.0;stroke-dasharray:2.0,2.0;" x1="1906" x2="1953" y1="771.0234" y2="771.0234"/><polygon fill="#181818" points="1916,767.0234,1906,771.0234,1916,775.0234,1912,771.0234" style="stroke:#181818;stroke-width:1.0;"/><text fill="#000000" font-family="sans-serif" font-size="13" font-weight="bold" lengthAdjust="spacing" textLength="14" x="1918" y="753.167">17</text><text fill="#000000" font-family="sans-serif" font-size="13" lengthAdjust="spacing" textLength="4" x="1936" y="753.167"> </text><polygon fill="#181818" points="1324,792.375,1314,796.375,1324,800.375,1320,796.375" style="stroke:#181818;stroke-width:1.0;"/><line style="stroke:#181818;stroke-width:1.0;stroke-dasharray:2.0,2.0;" x1="1318" x2="1900" y1="796.375" y2="796.375"/><text fill="#000000" font-family="sans-serif" font-size="13" font-weight="bold" lengthAdjust="spacing" textLength="14" x="1330" y="791.5186">18</text><text fill="#000000" font-family="sans-serif" font-size="13" lengthAdjust="spacing" textLength="39" x="1348" y="791.5186">vehicle</text><line style="stroke:#181818;stroke-width:1.0;" x1="1313" x2="1355" y1="826.7266" y2="826.7266"/><line style="stroke:#181818;stroke-width:1.0;" x1="1355" x2="1355" y1="826.7266" y2="839.7266"/><line style="stroke:#181818;stroke-width:1.0;" x1="1314" x2="1355" y1="839.7266" y2="839.7266"/><polygon fill="#181818" points="1324,835.7266,1314,839.7266,1324,843.7266,1320,839.7266" style="stroke:#181818;stroke-width:1.0;"/><text fill="#000000" font-family="sans-serif" font-size="13" font-weight="bold" lengthAdjust="spacing" textLength="14" x="1320" y="821.8701">19</text><text fill="#000000" font-family="sans-serif" font-size="13" lengthAdjust="spacing" textLength="111" x="1338" y="821.8701">addVehicle(vehicle)</text><polygon fill="#181818" points="763,866.0781,753,870.0781,763,874.0781,759,870.0781" style="stroke:#181818;stroke-width:1.0;"/><line style="stroke:#181818;stroke-width:1.0;stroke-dasharray:2.0,2.0;" x1="757" x2="1307" y1="870.0781" y2="870.0781"/><text fill="#000000" font-family="sans-serif" font-size="13" font-weight="bold" lengthAdjust="spacing" textLength="14" x="769" y="865.2217">20</text><text fill="#000000" font-family="sans-serif" font-size="13" lengthAdjust="spacing" textLength="49" x="787" y="865.2217">success</text><polygon fill="#181818" points="597.5,896.4297,587.5,900.4297,597.5,904.4297,593.5,900.4297" style="stroke:#181818;stroke-width:1.0;"/><line style="stroke:#181818;stroke-width:1.0;stroke-dasharray:2.0,2.0;" x1="591.5" x2="746" y1="900.4297" y2="900.4297"/><text fill="#000000" font-family="sans-serif" font-size="13" font-weight="bold" lengthAdjust="spacing" textLength="14" x="603.5" y="895.5732">21</text><text fill="#000000" font-family="sans-serif" font-size="13" lengthAdjust="spacing" textLength="49" x="621.5" y="895.5732">success</text><polygon fill="#181818" points="33.5,926.7813,23.5,930.7813,33.5,934.7813,29.5,930.7813" style="stroke:#181818;stroke-width:1.0;"/><line style="stroke:#181818;stroke-width:1.0;stroke-dasharray:2.0,2.0;" x1="27.5" x2="580.5" y1="930.7813" y2="930.7813"/><text fill="#000000" font-family="sans-serif" font-size="13" font-weight="bold" lengthAdjust="spacing" textLength="14" x="39.5" y="925.9248">22</text><text fill="#000000" font-family="sans-serif" font-size="13" lengthAdjust="spacing" textLength="350" x="57.5" y="925.9248">displays success message (Vehicle registered successfully)</text><!--SRC=[rLPBRzim3BxxLn0zDK4AzBI33mMwFePWxL3KRNR9HRKPHwWifPBSplz-bFo8LTjDZfiEUT3aHtwVICdcbSiTqwo0GacLRhKg4AmkCJBTanrBNrcEYQq4WiRKCfcBleFPianzS9d3XWc3KMIv9TUaCXOBIF2jH9aYN7EME_VJ9BcUmHay9-VdtwA8bLR9idX1JRzJgpISh6xlJu0PeE-8KbYUyXsJ5axYHymveUeLRdagy7df_PwNNxjTAMcr4WArTxzwUhmR1EoKuPISe_4-dQ5AkADBDOOXkXUnbaE0XxlBfp3YlIvcZnolvUgphURzsJeAH5aRnphePka5vE_CefSk0bhq0yukI2A8oUlLW5MqYRKym43Y1pHuthq384szmIqA9WWdstnECAb6yWWVqtENAIPiscvZJOiA6RCCJbVBNmluhfdC5d2lCXGBUAfsk6YvmeCWJ38oZV0RURwr2rZB7rePq_s_AhL6Kk1diO1wYpMpN4cNWs8lqxUIas3ESkqjzunBYvAvzhlLTIDMiwxm30Tq-t9PAj2qX33pJCP52XGmM_LXW0bHKoVAUr5I9JTS5xxgw509SUjk71rspFwuzELBmMqW_mJXrjhP_61qPhSy9c6FZ4CCETgbDDQfUpeBmZh4iJ4AF4SSl9GkiMkc_LG5OJqY1rEq7Dn4-g87upLLlP_Xu96pzEeR3kf4aI5IMz4WtCzFS7JzyuCpx9dz6JHGf_CRCX-J8wOkrdnJtVoXYcbp0qq2_k46ZgrZgffQ8zMEbNiGfoVRI1NHWPGNxeY7-Vp_wv6lbTgxkHiiLE5csV2cLc22kr9Qqiq1D_i2Qm1LOqqDwNJCM6Fkxym9g6ExRxh_ZfqIbcK3LGwsKtU8cJ9DqKoUhqTkNdqEZ1oyxMrw88sF7qKUlMGpRdQ2LQQ5XO8-w2sLtZIQdc-7X2xkncTJ2j4qwAThjq-NNfp-0W00]--></g></svg>