<?xml version="1.0" encoding="UTF-8" standalone="no"?><svg xmlns="http://www.w3.org/2000/svg" xmlns:xlink="http://www.w3.org/1999/xlink" contentStyleType="text/css" height="1018px" preserveAspectRatio="none" style="width:1548px;height:1018px;background:#FFFFFF;" version="1.1" viewBox="0 0 1548 1018" width="1548px" zoomAndPan="magnify"><defs/><g><rect fill="#FFFFFF" height="825.3047" style="stroke:#181818;stroke-width:1.0;" width="10" x="18.5" y="92.6094"/><rect fill="#FFFFFF" height="89.3125" style="stroke:#181818;stroke-width:1.0;" width="10" x="314.5" y="114.9609"/><rect fill="#FFFFFF" height="30.3516" style="stroke:#181818;stroke-width:1.0;" width="10" x="314.5" y="234.625"/><rect fill="#FFFFFF" height="46.7031" style="stroke:#181818;stroke-width:1.0;" width="10" x="314.5" y="295.3281"/><rect fill="#FFFFFF" height="30.3516" style="stroke:#181818;stroke-width:1.0;" width="10" x="314.5" y="887.5625"/><rect fill="#FFFFFF" height="151.7578" style="stroke:#181818;stroke-width:1.0;" width="10" x="602.5" y="342.0313"/><rect fill="#FFFFFF" height="30.3516" style="stroke:#181818;stroke-width:1.0;" width="10" x="602.5" y="857.2109"/><rect fill="#FFFFFF" height="30.3516" style="stroke:#181818;stroke-width:1.0;" width="10" x="767.5" y="372.3828"/><rect fill="#FFFFFF" height="30.3516" style="stroke:#181818;stroke-width:1.0;" width="10" x="874.5" y="433.0859"/><rect fill="#FFFFFF" height="363.4219" style="stroke:#181818;stroke-width:1.0;" width="10" x="1014.5" y="493.7891"/><rect fill="#FFFFFF" height="128.0547" style="stroke:#181818;stroke-width:1.0;" width="10" x="1019.5" y="691.8047"/><rect fill="#FFFFFF" height="41.3516" style="stroke:#181818;stroke-width:1.0;" width="10" x="1024.5" y="735.1563"/><rect fill="#FFFFFF" height="119.3125" style="stroke:#181818;stroke-width:1.0;" width="10" x="1364.5" y="534.1406"/><rect fill="#FFFFFF" height="41.3516" style="stroke:#181818;stroke-width:1.0;" width="10" x="1369.5" y="574.75"/><line style="stroke:#181818;stroke-width:0.5;stroke-dasharray:5.0,5.0;" x1="23" x2="23" y1="82.6094" y2="935.9141"/><line style="stroke:#181818;stroke-width:0.5;stroke-dasharray:5.0,5.0;" x1="319" x2="319" y1="82.6094" y2="935.9141"/><line style="stroke:#181818;stroke-width:0.5;stroke-dasharray:5.0,5.0;" x1="607" x2="607" y1="154.2656" y2="935.9141"/><line style="stroke:#181818;stroke-width:0.5;stroke-dasharray:5.0,5.0;" x1="772" x2="772" y1="82.6094" y2="935.9141"/><line style="stroke:#181818;stroke-width:0.5;stroke-dasharray:5.0,5.0;" x1="879" x2="879" y1="82.6094" y2="935.9141"/><line style="stroke:#181818;stroke-width:0.5;stroke-dasharray:5.0,5.0;" x1="1019" x2="1019" y1="82.6094" y2="935.9141"/><line style="stroke:#181818;stroke-width:0.5;stroke-dasharray:5.0,5.0;" x1="1369.5" x2="1369.5" y1="533.0938" y2="935.9141"/><text fill="#000000" font-family="sans-serif" font-size="14" lengthAdjust="spacing" textLength="31" x="5" y="79.5332">GSM</text><ellipse cx="23.5" cy="13.5" fill="#E3E3E3" rx="8" ry="8" style="stroke:#181818;stroke-width:0.5;"/><path d="M23.5,21.5 L23.5,48.5 M10.5,29.5 L36.5,29.5 M23.5,48.5 L10.5,63.5 M23.5,48.5 L36.5,63.5 " fill="none" style="stroke:#181818;stroke-width:0.5;"/><text fill="#000000" font-family="sans-serif" font-size="14" lengthAdjust="spacing" textLength="31" x="5" y="949.4473">GSM</text><ellipse cx="23.5" cy="961.0234" fill="#E3E3E3" rx="8" ry="8" style="stroke:#181818;stroke-width:0.5;"/><path d="M23.5,969.0234 L23.5,996.0234 M10.5,977.0234 L36.5,977.0234 M23.5,996.0234 L10.5,1011.0234 M23.5,996.0234 L36.5,1011.0234 " fill="none" style="stroke:#181818;stroke-width:0.5;"/><rect fill="#E3E3E3" height="31.6094" rx="2.5" ry="2.5" style="stroke:#181818;stroke-width:0.5;" width="163" x="238" y="50"/><text fill="#000000" font-family="sans-serif" font-size="14" lengthAdjust="spacing" textLength="149" x="245" y="71.5332">:RegisterGreenSpaceUI</text><rect fill="#E3E3E3" height="31.6094" rx="2.5" ry="2.5" style="stroke:#181818;stroke-width:0.5;" width="163" x="238" y="934.9141"/><text fill="#000000" font-family="sans-serif" font-size="14" lengthAdjust="spacing" textLength="149" x="245" y="956.4473">:RegisterGreenSpaceUI</text><rect fill="#E3E3E3" height="31.6094" rx="2.5" ry="2.5" style="stroke:#181818;stroke-width:0.5;" width="213" x="501" y="934.9141"/><text fill="#000000" font-family="sans-serif" font-size="14" lengthAdjust="spacing" textLength="199" x="508" y="956.4473">:RegisterGreenSpaceController</text><rect fill="#E3E3E3" height="31.6094" rx="2.5" ry="2.5" style="stroke:#181818;stroke-width:0.5;" width="97" x="724" y="50"/><text fill="#000000" font-family="sans-serif" font-size="14" lengthAdjust="spacing" textLength="83" x="731" y="71.5332">:Repositories</text><rect fill="#E3E3E3" height="31.6094" rx="2.5" ry="2.5" style="stroke:#181818;stroke-width:0.5;" width="97" x="724" y="934.9141"/><text fill="#000000" font-family="sans-serif" font-size="14" lengthAdjust="spacing" textLength="83" x="731" y="956.4473">:Repositories</text><rect fill="#E3E3E3" height="49.2188" rx="2.5" ry="2.5" style="stroke:#181818;stroke-width:0.5;" width="97" x="831" y="32.3906"/><text fill="#000000" font-family="sans-serif" font-size="14" lengthAdjust="spacing" textLength="74" x="842.5" y="53.9238">repositories</text><text fill="#000000" font-family="sans-serif" font-size="14" lengthAdjust="spacing" textLength="83" x="838" y="71.5332">:Repositories</text><rect fill="#E3E3E3" height="49.2188" rx="2.5" ry="2.5" style="stroke:#181818;stroke-width:0.5;" width="97" x="831" y="934.9141"/><text fill="#000000" font-family="sans-serif" font-size="14" lengthAdjust="spacing" textLength="74" x="842.5" y="956.4473">repositories</text><text fill="#000000" font-family="sans-serif" font-size="14" lengthAdjust="spacing" textLength="83" x="838" y="974.0566">:Repositories</text><rect fill="#E3E3E3" height="49.2188" rx="2.5" ry="2.5" style="stroke:#181818;stroke-width:0.5;" width="163" x="938" y="32.3906"/><text fill="#000000" font-family="sans-serif" font-size="14" lengthAdjust="spacing" textLength="149" x="945" y="53.9238">greenSpaceRepository:</text><text fill="#000000" font-family="sans-serif" font-size="14" lengthAdjust="spacing" textLength="148" x="945.5" y="71.5332">GreenSpaceRepository</text><rect fill="#E3E3E3" height="49.2188" rx="2.5" ry="2.5" style="stroke:#181818;stroke-width:0.5;" width="163" x="938" y="934.9141"/><text fill="#000000" font-family="sans-serif" font-size="14" lengthAdjust="spacing" textLength="149" x="945" y="956.4473">greenSpaceRepository:</text><text fill="#000000" font-family="sans-serif" font-size="14" lengthAdjust="spacing" textLength="148" x="945.5" y="974.0566">GreenSpaceRepository</text><rect fill="#E3E3E3" height="31.6094" rx="2.5" ry="2.5" style="stroke:#181818;stroke-width:0.5;" width="98" x="1320.5" y="934.9141"/><text fill="#000000" font-family="sans-serif" font-size="14" lengthAdjust="spacing" textLength="84" x="1327.5" y="956.4473">:GreenSpace</text><rect fill="#FFFFFF" height="825.3047" style="stroke:#181818;stroke-width:1.0;" width="10" x="18.5" y="92.6094"/><rect fill="#FFFFFF" height="89.3125" style="stroke:#181818;stroke-width:1.0;" width="10" x="314.5" y="114.9609"/><rect fill="#FFFFFF" height="30.3516" style="stroke:#181818;stroke-width:1.0;" width="10" x="314.5" y="234.625"/><rect fill="#FFFFFF" height="46.7031" style="stroke:#181818;stroke-width:1.0;" width="10" x="314.5" y="295.3281"/><rect fill="#FFFFFF" height="30.3516" style="stroke:#181818;stroke-width:1.0;" width="10" x="314.5" y="887.5625"/><rect fill="#FFFFFF" height="151.7578" style="stroke:#181818;stroke-width:1.0;" width="10" x="602.5" y="342.0313"/><rect fill="#FFFFFF" height="30.3516" style="stroke:#181818;stroke-width:1.0;" width="10" x="602.5" y="857.2109"/><rect fill="#FFFFFF" height="30.3516" style="stroke:#181818;stroke-width:1.0;" width="10" x="767.5" y="372.3828"/><rect fill="#FFFFFF" height="30.3516" style="stroke:#181818;stroke-width:1.0;" width="10" x="874.5" y="433.0859"/><rect fill="#FFFFFF" height="363.4219" style="stroke:#181818;stroke-width:1.0;" width="10" x="1014.5" y="493.7891"/><rect fill="#FFFFFF" height="128.0547" style="stroke:#181818;stroke-width:1.0;" width="10" x="1019.5" y="691.8047"/><rect fill="#FFFFFF" height="41.3516" style="stroke:#181818;stroke-width:1.0;" width="10" x="1024.5" y="735.1563"/><rect fill="#FFFFFF" height="119.3125" style="stroke:#181818;stroke-width:1.0;" width="10" x="1364.5" y="534.1406"/><rect fill="#FFFFFF" height="41.3516" style="stroke:#181818;stroke-width:1.0;" width="10" x="1369.5" y="574.75"/><polygon fill="#181818" points="302.5,110.9609,312.5,114.9609,302.5,118.9609,306.5,114.9609" style="stroke:#181818;stroke-width:1.0;"/><line style="stroke:#181818;stroke-width:1.0;" x1="28.5" x2="308.5" y1="114.9609" y2="114.9609"/><text fill="#000000" font-family="sans-serif" font-size="13" font-weight="bold" lengthAdjust="spacing" textLength="7" x="35.5" y="110.1045">1</text><text fill="#000000" font-family="sans-serif" font-size="13" lengthAdjust="spacing" textLength="209" x="46.5" y="110.1045">wants to register a new green space</text><polygon fill="#181818" points="489,141.3125,499,145.3125,489,149.3125,493,145.3125" style="stroke:#181818;stroke-width:1.0;"/><line style="stroke:#181818;stroke-width:1.0;" x1="324.5" x2="495" y1="145.3125" y2="145.3125"/><text fill="#000000" font-family="sans-serif" font-size="13" font-weight="bold" lengthAdjust="spacing" textLength="7" x="331.5" y="140.4561">2</text><text fill="#000000" font-family="sans-serif" font-size="13" lengthAdjust="spacing" textLength="36" x="342.5" y="140.4561">create</text><rect fill="#E3E3E3" height="31.6094" rx="2.5" ry="2.5" style="stroke:#181818;stroke-width:0.5;" width="213" x="501" y="122.9609"/><text fill="#000000" font-family="sans-serif" font-size="14" lengthAdjust="spacing" textLength="199" x="508" y="144.4941">:RegisterGreenSpaceController</text><polygon fill="#181818" points="39.5,200.2734,29.5,204.2734,39.5,208.2734,35.5,204.2734" style="stroke:#181818;stroke-width:1.0;"/><line style="stroke:#181818;stroke-width:1.0;stroke-dasharray:2.0,2.0;" x1="33.5" x2="318.5" y1="204.2734" y2="204.2734"/><text fill="#000000" font-family="sans-serif" font-size="13" font-weight="bold" lengthAdjust="spacing" textLength="7" x="45.5" y="191.2412">3</text><text fill="#000000" font-family="sans-serif" font-size="13" lengthAdjust="spacing" textLength="247" x="56.5" y="183.0654">requests data (name, type, area, manager,</text><text fill="#000000" font-family="sans-serif" font-size="13" lengthAdjust="spacing" textLength="194" x="56.5" y="199.417">address (address, zip-code, city))</text><polygon fill="#181818" points="302.5,230.625,312.5,234.625,302.5,238.625,306.5,234.625" style="stroke:#181818;stroke-width:1.0;"/><line style="stroke:#181818;stroke-width:1.0;" x1="28.5" x2="308.5" y1="234.625" y2="234.625"/><text fill="#000000" font-family="sans-serif" font-size="13" font-weight="bold" lengthAdjust="spacing" textLength="7" x="35.5" y="229.7686">4</text><text fill="#000000" font-family="sans-serif" font-size="13" lengthAdjust="spacing" textLength="209" x="46.5" y="229.7686">the user enters and selects the data</text><polygon fill="#181818" points="39.5,260.9766,29.5,264.9766,39.5,268.9766,35.5,264.9766" style="stroke:#181818;stroke-width:1.0;"/><line style="stroke:#181818;stroke-width:1.0;" x1="33.5" x2="318.5" y1="264.9766" y2="264.9766"/><text fill="#000000" font-family="sans-serif" font-size="13" font-weight="bold" lengthAdjust="spacing" textLength="7" x="45.5" y="260.1201">5</text><text fill="#000000" font-family="sans-serif" font-size="13" lengthAdjust="spacing" textLength="219" x="56.5" y="260.1201">shows data and requests confirmation</text><polygon fill="#181818" points="302.5,291.3281,312.5,295.3281,302.5,299.3281,306.5,295.3281" style="stroke:#181818;stroke-width:1.0;"/><line style="stroke:#181818;stroke-width:1.0;" x1="28.5" x2="308.5" y1="295.3281" y2="295.3281"/><text fill="#000000" font-family="sans-serif" font-size="13" font-weight="bold" lengthAdjust="spacing" textLength="7" x="35.5" y="290.4717">6</text><text fill="#000000" font-family="sans-serif" font-size="13" lengthAdjust="spacing" textLength="78" x="46.5" y="290.4717">user confirms</text><polygon fill="#181818" points="590.5,338.0313,600.5,342.0313,590.5,346.0313,594.5,342.0313" style="stroke:#181818;stroke-width:1.0;"/><line style="stroke:#181818;stroke-width:1.0;" x1="319.5" x2="596.5" y1="342.0313" y2="342.0313"/><text fill="#000000" font-family="sans-serif" font-size="13" font-weight="bold" lengthAdjust="spacing" textLength="7" x="326.5" y="328.999">7</text><text fill="#000000" font-family="sans-serif" font-size="13" lengthAdjust="spacing" textLength="244" x="337.5" y="320.8232">createNewGS(name, type, area, manager,</text><text fill="#000000" font-family="sans-serif" font-size="13" lengthAdjust="spacing" textLength="194" x="337.5" y="337.1748">address (address, zip-code, city))</text><polygon fill="#181818" points="755.5,368.3828,765.5,372.3828,755.5,376.3828,759.5,372.3828" style="stroke:#181818;stroke-width:1.0;"/><line style="stroke:#181818;stroke-width:1.0;" x1="612.5" x2="761.5" y1="372.3828" y2="372.3828"/><text fill="#000000" font-family="sans-serif" font-size="13" font-weight="bold" lengthAdjust="spacing" textLength="7" x="619.5" y="367.5264">8</text><text fill="#000000" font-family="sans-serif" font-size="13" lengthAdjust="spacing" textLength="75" x="630.5" y="367.5264">getInstance()</text><polygon fill="#181818" points="623.5,398.7344,613.5,402.7344,623.5,406.7344,619.5,402.7344" style="stroke:#181818;stroke-width:1.0;"/><line style="stroke:#181818;stroke-width:1.0;stroke-dasharray:2.0,2.0;" x1="617.5" x2="771.5" y1="402.7344" y2="402.7344"/><text fill="#000000" font-family="sans-serif" font-size="13" font-weight="bold" lengthAdjust="spacing" textLength="7" x="629.5" y="397.8779">9</text><text fill="#000000" font-family="sans-serif" font-size="13" lengthAdjust="spacing" textLength="67" x="640.5" y="397.8779">repositories</text><polygon fill="#181818" points="862.5,429.0859,872.5,433.0859,862.5,437.0859,866.5,433.0859" style="stroke:#181818;stroke-width:1.0;"/><line style="stroke:#181818;stroke-width:1.0;" x1="612.5" x2="868.5" y1="433.0859" y2="433.0859"/><text fill="#000000" font-family="sans-serif" font-size="13" font-weight="bold" lengthAdjust="spacing" textLength="14" x="619.5" y="428.2295">10</text><text fill="#000000" font-family="sans-serif" font-size="13" lengthAdjust="spacing" textLength="160" x="637.5" y="428.2295">getGreenSpaceRepository()</text><polygon fill="#181818" points="623.5,459.4375,613.5,463.4375,623.5,467.4375,619.5,463.4375" style="stroke:#181818;stroke-width:1.0;"/><line style="stroke:#181818;stroke-width:1.0;stroke-dasharray:2.0,2.0;" x1="617.5" x2="878.5" y1="463.4375" y2="463.4375"/><text fill="#000000" font-family="sans-serif" font-size="13" font-weight="bold" lengthAdjust="spacing" textLength="14" x="629.5" y="458.5811">11</text><text fill="#000000" font-family="sans-serif" font-size="13" lengthAdjust="spacing" textLength="131" x="647.5" y="458.5811">greenSpaceRepository</text><polygon fill="#181818" points="1002.5,489.7891,1012.5,493.7891,1002.5,497.7891,1006.5,493.7891" style="stroke:#181818;stroke-width:1.0;"/><line style="stroke:#181818;stroke-width:1.0;" x1="607.5" x2="1008.5" y1="493.7891" y2="493.7891"/><text fill="#000000" font-family="sans-serif" font-size="13" font-weight="bold" lengthAdjust="spacing" textLength="14" x="614.5" y="488.9326">12</text><text fill="#000000" font-family="sans-serif" font-size="13" lengthAdjust="spacing" textLength="298" x="632.5" y="488.9326">createNewGS(name, type, area, manager, address)</text><polygon fill="#181818" points="1308.5,520.1406,1318.5,524.1406,1308.5,528.1406,1312.5,524.1406" style="stroke:#181818;stroke-width:1.0;"/><line style="stroke:#181818;stroke-width:1.0;" x1="1024.5" x2="1314.5" y1="524.1406" y2="524.1406"/><text fill="#000000" font-family="sans-serif" font-size="13" font-weight="bold" lengthAdjust="spacing" textLength="14" x="1031.5" y="519.2842">13</text><text fill="#000000" font-family="sans-serif" font-size="13" lengthAdjust="spacing" textLength="254" x="1049.5" y="519.2842">create(name, type, area, manager, address)</text><rect fill="#E3E3E3" height="31.6094" rx="2.5" ry="2.5" style="stroke:#181818;stroke-width:0.5;" width="98" x="1320.5" y="501.7891"/><text fill="#000000" font-family="sans-serif" font-size="14" lengthAdjust="spacing" textLength="84" x="1327.5" y="523.3223">:GreenSpace</text><line style="stroke:#181818;stroke-width:1.0;" x1="1374.5" x2="1421.5" y1="561.75" y2="561.75"/><line style="stroke:#181818;stroke-width:1.0;" x1="1421.5" x2="1421.5" y1="561.75" y2="574.75"/><line style="stroke:#181818;stroke-width:1.0;" x1="1380.5" x2="1421.5" y1="574.75" y2="574.75"/><polygon fill="#181818" points="1390.5,570.75,1380.5,574.75,1390.5,578.75,1386.5,574.75" style="stroke:#181818;stroke-width:1.0;"/><text fill="#000000" font-family="sans-serif" font-size="13" font-weight="bold" lengthAdjust="spacing" textLength="14" x="1386.5" y="556.8936">14</text><text fill="#000000" font-family="sans-serif" font-size="13" lengthAdjust="spacing" textLength="137" x="1404.5" y="556.8936">verifyFilled(greenSpace)</text><line style="stroke:#181818;stroke-width:1.0;stroke-dasharray:2.0,2.0;" x1="1379.5" x2="1421.5" y1="615.1016" y2="615.1016"/><line style="stroke:#181818;stroke-width:1.0;stroke-dasharray:2.0,2.0;" x1="1421.5" x2="1421.5" y1="615.1016" y2="628.1016"/><line style="stroke:#181818;stroke-width:1.0;stroke-dasharray:2.0,2.0;" x1="1374.5" x2="1421.5" y1="628.1016" y2="628.1016"/><polygon fill="#181818" points="1384.5,624.1016,1374.5,628.1016,1384.5,632.1016,1380.5,628.1016" style="stroke:#181818;stroke-width:1.0;"/><text fill="#000000" font-family="sans-serif" font-size="13" font-weight="bold" lengthAdjust="spacing" textLength="14" x="1386.5" y="610.2451">15</text><text fill="#000000" font-family="sans-serif" font-size="13" lengthAdjust="spacing" textLength="4" x="1404.5" y="610.2451"> </text><polygon fill="#181818" points="1035.5,649.4531,1025.5,653.4531,1035.5,657.4531,1031.5,653.4531" style="stroke:#181818;stroke-width:1.0;"/><line style="stroke:#181818;stroke-width:1.0;stroke-dasharray:2.0,2.0;" x1="1029.5" x2="1368.5" y1="653.4531" y2="653.4531"/><text fill="#000000" font-family="sans-serif" font-size="13" font-weight="bold" lengthAdjust="spacing" textLength="14" x="1041.5" y="648.5967">16</text><text fill="#000000" font-family="sans-serif" font-size="13" lengthAdjust="spacing" textLength="69" x="1059.5" y="648.5967">greenSpace</text><line style="stroke:#181818;stroke-width:1.0;" x1="1024.5" x2="1071.5" y1="678.8047" y2="678.8047"/><line style="stroke:#181818;stroke-width:1.0;" x1="1071.5" x2="1071.5" y1="678.8047" y2="691.8047"/><line style="stroke:#181818;stroke-width:1.0;" x1="1030.5" x2="1071.5" y1="691.8047" y2="691.8047"/><polygon fill="#181818" points="1040.5,687.8047,1030.5,691.8047,1040.5,695.8047,1036.5,691.8047" style="stroke:#181818;stroke-width:1.0;"/><text fill="#000000" font-family="sans-serif" font-size="13" font-weight="bold" lengthAdjust="spacing" textLength="14" x="1036.5" y="673.9482">17</text><text fill="#000000" font-family="sans-serif" font-size="13" lengthAdjust="spacing" textLength="146" x="1054.5" y="673.9482">verify duplicates by name</text><line style="stroke:#181818;stroke-width:1.0;" x1="1029.5" x2="1076.5" y1="722.1563" y2="722.1563"/><line style="stroke:#181818;stroke-width:1.0;" x1="1076.5" x2="1076.5" y1="722.1563" y2="735.1563"/><line style="stroke:#181818;stroke-width:1.0;" x1="1035.5" x2="1076.5" y1="735.1563" y2="735.1563"/><polygon fill="#181818" points="1045.5,731.1563,1035.5,735.1563,1045.5,739.1563,1041.5,735.1563" style="stroke:#181818;stroke-width:1.0;"/><text fill="#000000" font-family="sans-serif" font-size="13" font-weight="bold" lengthAdjust="spacing" textLength="14" x="1041.5" y="717.2998">18</text><text fill="#000000" font-family="sans-serif" font-size="13" lengthAdjust="spacing" textLength="170" x="1059.5" y="717.2998">addGreenSpace(greenSpace)</text><line style="stroke:#181818;stroke-width:1.0;stroke-dasharray:2.0,2.0;" x1="1034.5" x2="1076.5" y1="775.5078" y2="775.5078"/><line style="stroke:#181818;stroke-width:1.0;stroke-dasharray:2.0,2.0;" x1="1076.5" x2="1076.5" y1="775.5078" y2="788.5078"/><line style="stroke:#181818;stroke-width:1.0;stroke-dasharray:2.0,2.0;" x1="1029.5" x2="1076.5" y1="788.5078" y2="788.5078"/><polygon fill="#181818" points="1039.5,784.5078,1029.5,788.5078,1039.5,792.5078,1035.5,788.5078" style="stroke:#181818;stroke-width:1.0;"/><text fill="#000000" font-family="sans-serif" font-size="13" font-weight="bold" lengthAdjust="spacing" textLength="14" x="1041.5" y="770.6514">19</text><text fill="#000000" font-family="sans-serif" font-size="13" lengthAdjust="spacing" textLength="4" x="1059.5" y="770.6514"> </text><line style="stroke:#181818;stroke-width:1.0;stroke-dasharray:2.0,2.0;" x1="1029.5" x2="1071.5" y1="818.8594" y2="818.8594"/><line style="stroke:#181818;stroke-width:1.0;stroke-dasharray:2.0,2.0;" x1="1071.5" x2="1071.5" y1="818.8594" y2="831.8594"/><line style="stroke:#181818;stroke-width:1.0;stroke-dasharray:2.0,2.0;" x1="1024.5" x2="1071.5" y1="831.8594" y2="831.8594"/><polygon fill="#181818" points="1034.5,827.8594,1024.5,831.8594,1034.5,835.8594,1030.5,831.8594" style="stroke:#181818;stroke-width:1.0;"/><text fill="#000000" font-family="sans-serif" font-size="13" font-weight="bold" lengthAdjust="spacing" textLength="14" x="1036.5" y="814.0029">20</text><text fill="#000000" font-family="sans-serif" font-size="13" lengthAdjust="spacing" textLength="4" x="1054.5" y="814.0029"> </text><polygon fill="#181818" points="623.5,853.2109,613.5,857.2109,623.5,861.2109,619.5,857.2109" style="stroke:#181818;stroke-width:1.0;"/><line style="stroke:#181818;stroke-width:1.0;stroke-dasharray:2.0,2.0;" x1="617.5" x2="1018.5" y1="857.2109" y2="857.2109"/><text fill="#000000" font-family="sans-serif" font-size="13" font-weight="bold" lengthAdjust="spacing" textLength="14" x="629.5" y="852.3545">21</text><text fill="#000000" font-family="sans-serif" font-size="13" lengthAdjust="spacing" textLength="69" x="647.5" y="852.3545">greenSpace</text><polygon fill="#181818" points="335.5,883.5625,325.5,887.5625,335.5,891.5625,331.5,887.5625" style="stroke:#181818;stroke-width:1.0;"/><line style="stroke:#181818;stroke-width:1.0;stroke-dasharray:2.0,2.0;" x1="329.5" x2="606.5" y1="887.5625" y2="887.5625"/><text fill="#000000" font-family="sans-serif" font-size="13" font-weight="bold" lengthAdjust="spacing" textLength="14" x="341.5" y="882.7061">22</text><text fill="#000000" font-family="sans-serif" font-size="13" lengthAdjust="spacing" textLength="49" x="359.5" y="882.7061">success</text><polygon fill="#181818" points="34.5,913.9141,24.5,917.9141,34.5,921.9141,30.5,917.9141" style="stroke:#181818;stroke-width:1.0;"/><line style="stroke:#181818;stroke-width:1.0;stroke-dasharray:2.0,2.0;" x1="28.5" x2="318.5" y1="917.9141" y2="917.9141"/><text fill="#000000" font-family="sans-serif" font-size="13" font-weight="bold" lengthAdjust="spacing" textLength="14" x="40.5" y="913.0576">23</text><text fill="#000000" font-family="sans-serif" font-size="13" lengthAdjust="spacing" textLength="158" x="58.5" y="913.0576">displays success message</text><!--SRC=[fLJ1Rfmm4Btp5QDSkXljIb6F729LYRfQAQcgaBtbufXPrWhOr6Eoeb_VmR36R4YQgXp0uFVUl1dFG2zAryAA2YgZZJnOKo4uss12OQSMyaKKcBcsHB0edT156GFe879pLBg0lIW9a-IBKuwnMKiEAyZmLuDQ8jmgKNJuHPRTBc4Dk-pgwrMIYCOPtLJFQ7ajdR5miSdkBq0Gy3FX64v9LGlju29zm4AngjrOH9snDTnjFNIt_IloncXdJLcYzOoRnuUxDvpQa68B2ibZmeSsKrtMx7HAiH7ZIRyL-7dtxN7AA8AVKJnzqfkPprwXe2x6cT4HFTJ9bqwz2eU-Q0dmnGjONtDb88KZymYSuGFiom82D1x1km7gb3mdg70z_OVkOWNMwUfrUSbQqY8ZfjkytuLBMPzFcpXMBfo0XHOLhi2rDTy5yrPG2StTP5Vmf4MUMoI2nR1OmMzLhwN96IoLQvVB42F7s5cScJiWDCG9eUQq28JEWR3aFYM_r_b8Ol9k6ypImHm7fnqjU9T6xvMjX5Dytk-4Jlke0vJEGfmA5ihr0u-RxB_BCVKIrhwLVJWEEzEpxA90jzN4iojniHoPSmq-9x0UyubRFZOq9tNor8r1RsAkpsD3Vc0yl0lfOwOmDpDnQ4ywnUe7vlE57wezAQulQ7WRHd0GzjqJ3SAdjAFfv1RgDLZX5QtQjzyL_vJonPZbERuVhzZW81EdEzBFWAFlWEtZGjxKfP8C8tXkeSlZWwG3cPCQJt7UzOJCBeVtoDS_8k86d4zqWC_DnEbNGOsKV1hl7tJ_TrXVyv2dkQAw52sTM53nZK_rR0OdfRvF_W00]--></g></svg>