<?xml version="1.0" encoding="UTF-8" standalone="no"?><svg xmlns="http://www.w3.org/2000/svg" xmlns:xlink="http://www.w3.org/1999/xlink" contentStyleType="text/css" height="494px" preserveAspectRatio="none" style="width:597px;height:494px;background:#FFFFFF;" version="1.1" viewBox="0 0 597 494" width="597px" zoomAndPan="magnify"><defs/><g><rect fill="#FFFFFF" height="189.4063" style="stroke:#181818;stroke-width:1.0;" width="10" x="96.5" y="242.2344"/><rect fill="#FFFFFF" height="128.0547" style="stroke:#181818;stroke-width:1.0;" width="10" x="101.5" y="280.5859"/><rect fill="#FFFFFF" height="41.3516" style="stroke:#181818;stroke-width:1.0;" width="10" x="106.5" y="323.9375"/><rect fill="#FFFFFF" height="119.3125" style="stroke:#181818;stroke-width:1.0;" width="10" x="402.5" y="122.9219"/><rect fill="#FFFFFF" height="41.3516" style="stroke:#181818;stroke-width:1.0;" width="10" x="407.5" y="163.5313"/><rect fill="none" height="351.4219" style="stroke:#000000;stroke-width:1.5;" width="581.5" x="10" y="72.2188"/><line style="stroke:#181818;stroke-width:0.5;stroke-dasharray:5.0,5.0;" x1="101" x2="101" y1="55.2188" y2="440.6406"/><line style="stroke:#181818;stroke-width:0.5;stroke-dasharray:5.0,5.0;" x1="407.5" x2="407.5" y1="121.875" y2="440.6406"/><rect fill="#E3E3E3" height="49.2188" rx="2.5" ry="2.5" style="stroke:#181818;stroke-width:0.5;" width="163" x="20" y="5"/><text fill="#000000" font-family="sans-serif" font-size="14" lengthAdjust="spacing" textLength="149" x="27" y="26.5332">greenSpaceRepository:</text><text fill="#000000" font-family="sans-serif" font-size="14" lengthAdjust="spacing" textLength="148" x="27.5" y="44.1426">GreenSpaceRepository</text><rect fill="#E3E3E3" height="49.2188" rx="2.5" ry="2.5" style="stroke:#181818;stroke-width:0.5;" width="163" x="20" y="439.6406"/><text fill="#000000" font-family="sans-serif" font-size="14" lengthAdjust="spacing" textLength="149" x="27" y="461.1738">greenSpaceRepository:</text><text fill="#000000" font-family="sans-serif" font-size="14" lengthAdjust="spacing" textLength="148" x="27.5" y="478.7832">GreenSpaceRepository</text><rect fill="#E3E3E3" height="31.6094" rx="2.5" ry="2.5" style="stroke:#181818;stroke-width:0.5;" width="98" x="358.5" y="439.6406"/><text fill="#000000" font-family="sans-serif" font-size="14" lengthAdjust="spacing" textLength="84" x="365.5" y="461.1738">:GreenSpace</text><rect fill="#FFFFFF" height="189.4063" style="stroke:#181818;stroke-width:1.0;" width="10" x="96.5" y="242.2344"/><rect fill="#FFFFFF" height="128.0547" style="stroke:#181818;stroke-width:1.0;" width="10" x="101.5" y="280.5859"/><rect fill="#FFFFFF" height="41.3516" style="stroke:#181818;stroke-width:1.0;" width="10" x="106.5" y="323.9375"/><rect fill="#FFFFFF" height="119.3125" style="stroke:#181818;stroke-width:1.0;" width="10" x="402.5" y="122.9219"/><rect fill="#FFFFFF" height="41.3516" style="stroke:#181818;stroke-width:1.0;" width="10" x="407.5" y="163.5313"/><path d="M10,72.2188 L189,72.2188 L189,80.5703 L179,90.5703 L10,90.5703 L10,72.2188 " fill="#EEEEEE" style="stroke:#000000;stroke-width:1.5;"/><rect fill="none" height="351.4219" style="stroke:#000000;stroke-width:1.5;" width="581.5" x="10" y="72.2188"/><text fill="#000000" font-family="sans-serif" font-size="13" font-weight="bold" lengthAdjust="spacing" textLength="134" x="25" y="86.7139">Register green space</text><polygon fill="#181818" points="346.5,108.9219,356.5,112.9219,346.5,116.9219,350.5,112.9219" style="stroke:#181818;stroke-width:1.0;"/><line style="stroke:#181818;stroke-width:1.0;" x1="101.5" x2="352.5" y1="112.9219" y2="112.9219"/><text fill="#000000" font-family="sans-serif" font-size="13" font-weight="bold" lengthAdjust="spacing" textLength="14" x="108.5" y="108.0654">13</text><text fill="#000000" font-family="sans-serif" font-size="13" lengthAdjust="spacing" textLength="215" x="126.5" y="108.0654">create(name, type, area, loggedUser)</text><rect fill="#E3E3E3" height="31.6094" rx="2.5" ry="2.5" style="stroke:#181818;stroke-width:0.5;" width="98" x="358.5" y="90.5703"/><text fill="#000000" font-family="sans-serif" font-size="14" lengthAdjust="spacing" textLength="84" x="365.5" y="112.1035">:GreenSpace</text><line style="stroke:#181818;stroke-width:1.0;" x1="412.5" x2="459.5" y1="150.5313" y2="150.5313"/><line style="stroke:#181818;stroke-width:1.0;" x1="459.5" x2="459.5" y1="150.5313" y2="163.5313"/><line style="stroke:#181818;stroke-width:1.0;" x1="418.5" x2="459.5" y1="163.5313" y2="163.5313"/><polygon fill="#181818" points="428.5,159.5313,418.5,163.5313,428.5,167.5313,424.5,163.5313" style="stroke:#181818;stroke-width:1.0;"/><text fill="#000000" font-family="sans-serif" font-size="13" font-weight="bold" lengthAdjust="spacing" textLength="14" x="424.5" y="145.6748">14</text><text fill="#000000" font-family="sans-serif" font-size="13" lengthAdjust="spacing" textLength="137" x="442.5" y="145.6748">verifyFilled(greenSpace)</text><line style="stroke:#181818;stroke-width:1.0;stroke-dasharray:2.0,2.0;" x1="417.5" x2="459.5" y1="203.8828" y2="203.8828"/><line style="stroke:#181818;stroke-width:1.0;stroke-dasharray:2.0,2.0;" x1="459.5" x2="459.5" y1="203.8828" y2="216.8828"/><line style="stroke:#181818;stroke-width:1.0;stroke-dasharray:2.0,2.0;" x1="412.5" x2="459.5" y1="216.8828" y2="216.8828"/><polygon fill="#181818" points="422.5,212.8828,412.5,216.8828,422.5,220.8828,418.5,216.8828" style="stroke:#181818;stroke-width:1.0;"/><text fill="#000000" font-family="sans-serif" font-size="13" font-weight="bold" lengthAdjust="spacing" textLength="14" x="424.5" y="199.0264">15</text><text fill="#000000" font-family="sans-serif" font-size="13" lengthAdjust="spacing" textLength="4" x="442.5" y="199.0264"> </text><polygon fill="#181818" points="117.5,238.2344,107.5,242.2344,117.5,246.2344,113.5,242.2344" style="stroke:#181818;stroke-width:1.0;"/><line style="stroke:#181818;stroke-width:1.0;stroke-dasharray:2.0,2.0;" x1="111.5" x2="406.5" y1="242.2344" y2="242.2344"/><text fill="#000000" font-family="sans-serif" font-size="13" font-weight="bold" lengthAdjust="spacing" textLength="14" x="123.5" y="237.3779">16</text><text fill="#000000" font-family="sans-serif" font-size="13" lengthAdjust="spacing" textLength="69" x="141.5" y="237.3779">greenSpace</text><line style="stroke:#181818;stroke-width:1.0;" x1="106.5" x2="153.5" y1="267.5859" y2="267.5859"/><line style="stroke:#181818;stroke-width:1.0;" x1="153.5" x2="153.5" y1="267.5859" y2="280.5859"/><line style="stroke:#181818;stroke-width:1.0;" x1="112.5" x2="153.5" y1="280.5859" y2="280.5859"/><polygon fill="#181818" points="122.5,276.5859,112.5,280.5859,122.5,284.5859,118.5,280.5859" style="stroke:#181818;stroke-width:1.0;"/><text fill="#000000" font-family="sans-serif" font-size="13" font-weight="bold" lengthAdjust="spacing" textLength="14" x="118.5" y="262.7295">17</text><text fill="#000000" font-family="sans-serif" font-size="13" lengthAdjust="spacing" textLength="146" x="136.5" y="262.7295">verify duplicates by name</text><line style="stroke:#181818;stroke-width:1.0;" x1="111.5" x2="158.5" y1="310.9375" y2="310.9375"/><line style="stroke:#181818;stroke-width:1.0;" x1="158.5" x2="158.5" y1="310.9375" y2="323.9375"/><line style="stroke:#181818;stroke-width:1.0;" x1="117.5" x2="158.5" y1="323.9375" y2="323.9375"/><polygon fill="#181818" points="127.5,319.9375,117.5,323.9375,127.5,327.9375,123.5,323.9375" style="stroke:#181818;stroke-width:1.0;"/><text fill="#000000" font-family="sans-serif" font-size="13" font-weight="bold" lengthAdjust="spacing" textLength="14" x="123.5" y="306.0811">18</text><text fill="#000000" font-family="sans-serif" font-size="13" lengthAdjust="spacing" textLength="170" x="141.5" y="306.0811">addGreenSpace(greenSpace)</text><line style="stroke:#181818;stroke-width:1.0;stroke-dasharray:2.0,2.0;" x1="116.5" x2="158.5" y1="364.2891" y2="364.2891"/><line style="stroke:#181818;stroke-width:1.0;stroke-dasharray:2.0,2.0;" x1="158.5" x2="158.5" y1="364.2891" y2="377.2891"/><line style="stroke:#181818;stroke-width:1.0;stroke-dasharray:2.0,2.0;" x1="111.5" x2="158.5" y1="377.2891" y2="377.2891"/><polygon fill="#181818" points="121.5,373.2891,111.5,377.2891,121.5,381.2891,117.5,377.2891" style="stroke:#181818;stroke-width:1.0;"/><text fill="#000000" font-family="sans-serif" font-size="13" font-weight="bold" lengthAdjust="spacing" textLength="14" x="123.5" y="359.4326">19</text><text fill="#000000" font-family="sans-serif" font-size="13" lengthAdjust="spacing" textLength="4" x="141.5" y="359.4326"> </text><line style="stroke:#181818;stroke-width:1.0;stroke-dasharray:2.0,2.0;" x1="111.5" x2="153.5" y1="407.6406" y2="407.6406"/><line style="stroke:#181818;stroke-width:1.0;stroke-dasharray:2.0,2.0;" x1="153.5" x2="153.5" y1="407.6406" y2="420.6406"/><line style="stroke:#181818;stroke-width:1.0;stroke-dasharray:2.0,2.0;" x1="106.5" x2="153.5" y1="420.6406" y2="420.6406"/><polygon fill="#181818" points="116.5,416.6406,106.5,420.6406,116.5,424.6406,112.5,420.6406" style="stroke:#181818;stroke-width:1.0;"/><text fill="#000000" font-family="sans-serif" font-size="13" font-weight="bold" lengthAdjust="spacing" textLength="14" x="118.5" y="402.7842">20</text><text fill="#000000" font-family="sans-serif" font-size="13" lengthAdjust="spacing" textLength="4" x="136.5" y="402.7842"> </text><!--SRC=[ZP4zRyCW48PtViKfIvCe6Qfk7ZesUwnkNSvmmIWO4E2q_lSzVyXEh0nXG70yxtiVfAjn0ICsq7ZdPHrzGv1ZIoBDBm7b5JMLkRC4aMH6f-qza6fK_jSu3HUqYOJ0DdlNDXL58TvgemWktkVA_md1Ycoa2UWoR7GaSYNxqvc2JoRxs1K_xlGal05Ce5FamAD7iT03SohlyyFxX-WNyDBHjm7Ef4tA_38aXzGB6HYjuVZ91liz520ZOQQjmuOEaBl0EtBe0DPhJUexKTnn9fdDZRa-xQaSvIo-KJINxijOIsgxTBbRySU15uhMDXoV2YfWaQ_0-JoDPMbXrevrW6g3DPBH15K7VKklY56fPRRFktWGSzNJ_QxEbud-XyWf8Vu1]--></g></svg>