<?xml version="1.0" encoding="us-ascii" standalone="no"?><svg xmlns="http://www.w3.org/2000/svg" xmlns:xlink="http://www.w3.org/1999/xlink" contentStyleType="text/css" height="961px" preserveAspectRatio="none" style="width:655px;height:961px;background:#FFFFFF;" version="1.1" viewBox="0 0 655 961" width="655px" zoomAndPan="magnify"><defs/><g><!--class RegisterGreenSpaceUI--><g id="elem_RegisterGreenSpaceUI"><rect codeLine="6" fill="#F1F1F1" height="103.8633" id="RegisterGreenSpaceUI" rx="2.5" ry="2.5" style="stroke:#181818;stroke-width:0.5;" width="422" x="226" y="7"/><ellipse cx="360.25" cy="23" fill="#ADD1B2" rx="11" ry="11" style="stroke:#181818;stroke-width:1.0;"/><path d="M363.0156,18.875 Q363.1719,18.6563 363.3594,18.5469 Q363.5469,18.4375 363.7656,18.4375 Q364.1406,18.4375 364.375,18.7031 Q364.6094,18.9531 364.6094,19.5625 L364.6094,21.0156 Q364.6094,21.625 364.375,21.8906 Q364.1406,22.1563 363.7656,22.1563 Q363.4219,22.1563 363.2188,21.9531 Q363.0156,21.7656 362.9063,21.25 Q362.8594,20.8906 362.6719,20.7031 Q362.3438,20.3281 361.7344,20.1094 Q361.125,19.8906 360.5,19.8906 Q359.7344,19.8906 359.0938,20.2188 Q358.4688,20.5469 357.9688,21.2969 Q357.4844,22.0469 357.4844,23.0781 L357.4844,24.1719 Q357.4844,25.4063 358.375,26.2344 Q359.2656,27.0469 360.8594,27.0469 Q361.7969,27.0469 362.4531,26.7969 Q362.8438,26.6406 363.2656,26.2031 Q363.5313,25.9375 363.6719,25.8594 Q363.8281,25.7813 364.0313,25.7813 Q364.3594,25.7813 364.6094,26.0469 Q364.875,26.2969 364.875,26.6406 Q364.875,26.9844 364.5313,27.3906 Q364.0313,27.9688 363.2344,28.2969 Q362.1563,28.75 360.8594,28.75 Q359.3438,28.75 358.1406,28.125 Q357.1563,27.625 356.4688,26.5625 Q355.7813,25.4844 355.7813,24.2031 L355.7813,23.0469 Q355.7813,21.7188 356.3906,20.5781 Q357.0156,19.4219 358.1094,18.8125 Q359.2031,18.1875 360.4375,18.1875 Q361.1719,18.1875 361.8125,18.3594 Q362.4688,18.5156 363.0156,18.875 Z " fill="#000000"/><text fill="#000000" font-family="sans-serif" font-size="14" lengthAdjust="spacing" textLength="145" x="380.75" y="28.7969">RegisterGreenSpaceUI</text><line style="stroke:#181818;stroke-width:0.5;" x1="227" x2="647" y1="39" y2="39"/><rect fill="none" height="6" style="stroke:#C82930;stroke-width:1.0;" width="6" x="234" y="50.8105"/><text fill="#000000" font-family="sans-serif" font-size="14" lengthAdjust="spacing" textLength="266" x="246" y="58.1074">controller : RegisterGreenSpaceController</text><line style="stroke:#181818;stroke-width:0.5;" x1="227" x2="647" y1="65.6211" y2="65.6211"/><ellipse cx="237" cy="80.4316" fill="#84BE84" rx="3" ry="3" style="stroke:#038048;stroke-width:1.0;"/><text fill="#000000" font-family="sans-serif" font-size="14" lengthAdjust="spacing" textLength="155" x="246" y="84.7285">RegisterGreenSpaceUI()</text><ellipse cx="237" cy="99.0527" fill="#84BE84" rx="3" ry="3" style="stroke:#038048;stroke-width:1.0;"/><text fill="#000000" font-family="sans-serif" font-size="14" lengthAdjust="spacing" textLength="396" x="246" y="103.3496">createNewGS(name : String, type : String, area : Double) : void</text></g><!--class RegisterGreenSpaceController--><g id="elem_RegisterGreenSpaceController"><rect codeLine="12" fill="#F1F1F1" height="122.4844" id="RegisterGreenSpaceController" rx="2.5" ry="2.5" style="stroke:#181818;stroke-width:0.5;" width="422" x="226" y="172"/><ellipse cx="335.25" cy="188" fill="#ADD1B2" rx="11" ry="11" style="stroke:#181818;stroke-width:1.0;"/><path d="M338.0156,183.875 Q338.1719,183.6563 338.3594,183.5469 Q338.5469,183.4375 338.7656,183.4375 Q339.1406,183.4375 339.375,183.7031 Q339.6094,183.9531 339.6094,184.5625 L339.6094,186.0156 Q339.6094,186.625 339.375,186.8906 Q339.1406,187.1563 338.7656,187.1563 Q338.4219,187.1563 338.2188,186.9531 Q338.0156,186.7656 337.9063,186.25 Q337.8594,185.8906 337.6719,185.7031 Q337.3438,185.3281 336.7344,185.1094 Q336.125,184.8906 335.5,184.8906 Q334.7344,184.8906 334.0938,185.2188 Q333.4688,185.5469 332.9688,186.2969 Q332.4844,187.0469 332.4844,188.0781 L332.4844,189.1719 Q332.4844,190.4063 333.375,191.2344 Q334.2656,192.0469 335.8594,192.0469 Q336.7969,192.0469 337.4531,191.7969 Q337.8438,191.6406 338.2656,191.2031 Q338.5313,190.9375 338.6719,190.8594 Q338.8281,190.7813 339.0313,190.7813 Q339.3594,190.7813 339.6094,191.0469 Q339.875,191.2969 339.875,191.6406 Q339.875,191.9844 339.5313,192.3906 Q339.0313,192.9688 338.2344,193.2969 Q337.1563,193.75 335.8594,193.75 Q334.3438,193.75 333.1406,193.125 Q332.1563,192.625 331.4688,191.5625 Q330.7813,190.4844 330.7813,189.2031 L330.7813,188.0469 Q330.7813,186.7188 331.3906,185.5781 Q332.0156,184.4219 333.1094,183.8125 Q334.2031,183.1875 335.4375,183.1875 Q336.1719,183.1875 336.8125,183.3594 Q337.4688,183.5156 338.0156,183.875 Z " fill="#000000"/><text fill="#000000" font-family="sans-serif" font-size="14" lengthAdjust="spacing" textLength="195" x="355.75" y="193.7969">RegisterGreenSpaceController</text><line style="stroke:#181818;stroke-width:0.5;" x1="227" x2="647" y1="204" y2="204"/><rect fill="none" height="6" style="stroke:#C82930;stroke-width:1.0;" width="6" x="234" y="215.8105"/><text fill="#000000" font-family="sans-serif" font-size="14" lengthAdjust="spacing" textLength="161" x="246" y="223.1074">repositories: Repositories</text><rect fill="none" height="6" style="stroke:#C82930;stroke-width:1.0;" width="6" x="234" y="234.4316"/><text fill="#000000" font-family="sans-serif" font-size="14" lengthAdjust="spacing" textLength="305" x="246" y="241.7285">greenSpaceRepository : GreenSpaceRepository</text><line style="stroke:#181818;stroke-width:0.5;" x1="227" x2="647" y1="249.2422" y2="249.2422"/><ellipse cx="237" cy="264.0527" fill="#84BE84" rx="3" ry="3" style="stroke:#038048;stroke-width:1.0;"/><text fill="#000000" font-family="sans-serif" font-size="14" lengthAdjust="spacing" textLength="396" x="246" y="268.3496">createNewGS(name : String, type : String, area : Double) : void</text><ellipse cx="237" cy="282.6738" fill="#84BE84" rx="3" ry="3" style="stroke:#038048;stroke-width:1.0;"/><text fill="#000000" font-family="sans-serif" font-size="14" lengthAdjust="spacing" textLength="205" x="246" y="286.9707">RegisterGreenSpaceController()</text></g><!--class Repositories--><g id="elem_Repositories"><rect codeLine="19" fill="#F1F1F1" height="141.1055" id="Repositories" rx="2.5" ry="2.5" style="stroke:#181818;stroke-width:0.5;" width="364" x="7" y="373"/><ellipse cx="145.25" cy="389" fill="#ADD1B2" rx="11" ry="11" style="stroke:#181818;stroke-width:1.0;"/><path d="M148.0156,384.875 Q148.1719,384.6563 148.3594,384.5469 Q148.5469,384.4375 148.7656,384.4375 Q149.1406,384.4375 149.375,384.7031 Q149.6094,384.9531 149.6094,385.5625 L149.6094,387.0156 Q149.6094,387.625 149.375,387.8906 Q149.1406,388.1563 148.7656,388.1563 Q148.4219,388.1563 148.2188,387.9531 Q148.0156,387.7656 147.9063,387.25 Q147.8594,386.8906 147.6719,386.7031 Q147.3438,386.3281 146.7344,386.1094 Q146.125,385.8906 145.5,385.8906 Q144.7344,385.8906 144.0938,386.2188 Q143.4688,386.5469 142.9688,387.2969 Q142.4844,388.0469 142.4844,389.0781 L142.4844,390.1719 Q142.4844,391.4063 143.375,392.2344 Q144.2656,393.0469 145.8594,393.0469 Q146.7969,393.0469 147.4531,392.7969 Q147.8438,392.6406 148.2656,392.2031 Q148.5313,391.9375 148.6719,391.8594 Q148.8281,391.7813 149.0313,391.7813 Q149.3594,391.7813 149.6094,392.0469 Q149.875,392.2969 149.875,392.6406 Q149.875,392.9844 149.5313,393.3906 Q149.0313,393.9688 148.2344,394.2969 Q147.1563,394.75 145.8594,394.75 Q144.3438,394.75 143.1406,394.125 Q142.1563,393.625 141.4688,392.5625 Q140.7813,391.4844 140.7813,390.2031 L140.7813,389.0469 Q140.7813,387.7188 141.3906,386.5781 Q142.0156,385.4219 143.1094,384.8125 Q144.2031,384.1875 145.4375,384.1875 Q146.1719,384.1875 146.8125,384.3594 Q147.4688,384.5156 148.0156,384.875 Z " fill="#000000"/><text fill="#000000" font-family="sans-serif" font-size="14" lengthAdjust="spacing" textLength="79" x="165.75" y="394.7969">Repositories</text><line style="stroke:#181818;stroke-width:0.5;" x1="8" x2="370" y1="405" y2="405"/><rect fill="none" height="6" style="stroke:#C82930;stroke-width:1.0;" width="6" x="15" y="416.8105"/><text fill="#000000" font-family="sans-serif" font-size="14" lengthAdjust="spacing" textLength="144" x="27" y="424.1074">instance : Repositories</text><rect fill="none" height="6" style="stroke:#C82930;stroke-width:1.0;" width="6" x="15" y="435.4316"/><text fill="#000000" font-family="sans-serif" font-size="14" lengthAdjust="spacing" textLength="305" x="27" y="442.7285">greenSpaceRepository : GreenSpaceRepository</text><line style="stroke:#181818;stroke-width:0.5;" x1="8" x2="370" y1="450.2422" y2="450.2422"/><rect fill="#F24D5C" height="6" style="stroke:#C82930;stroke-width:1.0;" width="6" x="15" y="462.0527"/><text fill="#000000" font-family="sans-serif" font-size="14" lengthAdjust="spacing" textLength="89" x="27" y="469.3496">Repositories()</text><ellipse cx="18" cy="483.6738" fill="#84BE84" rx="3" ry="3" style="stroke:#038048;stroke-width:1.0;"/><text fill="#000000" font-family="sans-serif" font-size="14" lengthAdjust="spacing" textLength="174" x="27" y="487.9707">getInstance() : Repositories</text><ellipse cx="18" cy="502.2949" fill="#84BE84" rx="3" ry="3" style="stroke:#038048;stroke-width:1.0;"/><text fill="#000000" font-family="sans-serif" font-size="14" lengthAdjust="spacing" textLength="338" x="27" y="506.5918">getGreenSpaceRepository() : GreenSpaceRepository</text></g><!--class GreenSpaceRepository--><g id="elem_GreenSpaceRepository"><rect codeLine="27" fill="#F1F1F1" height="141.1055" id="GreenSpaceRepository" rx="2.5" ry="2.5" style="stroke:#181818;stroke-width:0.5;" width="376" x="167" y="593"/><ellipse cx="276.75" cy="609" fill="#ADD1B2" rx="11" ry="11" style="stroke:#181818;stroke-width:1.0;"/><path d="M279.5156,604.875 Q279.6719,604.6563 279.8594,604.5469 Q280.0469,604.4375 280.2656,604.4375 Q280.6406,604.4375 280.875,604.7031 Q281.1094,604.9531 281.1094,605.5625 L281.1094,607.0156 Q281.1094,607.625 280.875,607.8906 Q280.6406,608.1563 280.2656,608.1563 Q279.9219,608.1563 279.7188,607.9531 Q279.5156,607.7656 279.4063,607.25 Q279.3594,606.8906 279.1719,606.7031 Q278.8438,606.3281 278.2344,606.1094 Q277.625,605.8906 277,605.8906 Q276.2344,605.8906 275.5938,606.2188 Q274.9688,606.5469 274.4688,607.2969 Q273.9844,608.0469 273.9844,609.0781 L273.9844,610.1719 Q273.9844,611.4063 274.875,612.2344 Q275.7656,613.0469 277.3594,613.0469 Q278.2969,613.0469 278.9531,612.7969 Q279.3438,612.6406 279.7656,612.2031 Q280.0313,611.9375 280.1719,611.8594 Q280.3281,611.7813 280.5313,611.7813 Q280.8594,611.7813 281.1094,612.0469 Q281.375,612.2969 281.375,612.6406 Q281.375,612.9844 281.0313,613.3906 Q280.5313,613.9688 279.7344,614.2969 Q278.6563,614.75 277.3594,614.75 Q275.8438,614.75 274.6406,614.125 Q273.6563,613.625 272.9688,612.5625 Q272.2813,611.4844 272.2813,610.2031 L272.2813,609.0469 Q272.2813,607.7188 272.8906,606.5781 Q273.5156,605.4219 274.6094,604.8125 Q275.7031,604.1875 276.9375,604.1875 Q277.6719,604.1875 278.3125,604.3594 Q278.9688,604.5156 279.5156,604.875 Z " fill="#000000"/><text fill="#000000" font-family="sans-serif" font-size="14" lengthAdjust="spacing" textLength="148" x="297.25" y="614.7969">GreenSpaceRepository</text><line style="stroke:#181818;stroke-width:0.5;" x1="168" x2="542" y1="625" y2="625"/><rect fill="none" height="6" style="stroke:#C82930;stroke-width:1.0;" width="6" x="175" y="636.8105"/><text fill="#000000" font-family="sans-serif" font-size="14" lengthAdjust="spacing" textLength="229" x="187" y="644.1074">greenSpaceList : List&lt;GreenSpace&gt;</text><line style="stroke:#181818;stroke-width:0.5;" x1="168" x2="542" y1="651.6211" y2="651.6211"/><ellipse cx="178" cy="666.4316" fill="#84BE84" rx="3" ry="3" style="stroke:#038048;stroke-width:1.0;"/><text fill="#000000" font-family="sans-serif" font-size="14" lengthAdjust="spacing" textLength="158" x="187" y="670.7285">GreenSpaceRepository()</text><ellipse cx="178" cy="685.0527" fill="#84BE84" rx="3" ry="3" style="stroke:#038048;stroke-width:1.0;"/><text fill="#000000" font-family="sans-serif" font-size="14" lengthAdjust="spacing" textLength="350" x="187" y="689.3496">create(name : String, type : String, area : Double) : void</text><ellipse cx="178" cy="703.6738" fill="#84BE84" rx="3" ry="3" style="stroke:#038048;stroke-width:1.0;"/><text fill="#000000" font-family="sans-serif" font-size="14" lengthAdjust="spacing" textLength="317" x="187" y="707.9707">addGreenSpace(greenSpace: GreenSpace) : void</text><ellipse cx="178" cy="722.2949" fill="#84BE84" rx="3" ry="3" style="stroke:#038048;stroke-width:1.0;"/><text fill="#000000" font-family="sans-serif" font-size="14" lengthAdjust="spacing" textLength="339" x="187" y="726.5918">verifyDuplicates(greenSpace: GreenSpace) : Boolean</text></g><!--class GreenSpace--><g id="elem_GreenSpace"><rect codeLine="36" fill="#F1F1F1" height="141.1055" id="GreenSpace" rx="2.5" ry="2.5" style="stroke:#181818;stroke-width:0.5;" width="378" x="166" y="813"/><ellipse cx="310.75" cy="829" fill="#ADD1B2" rx="11" ry="11" style="stroke:#181818;stroke-width:1.0;"/><path d="M313.5156,824.875 Q313.6719,824.6563 313.8594,824.5469 Q314.0469,824.4375 314.2656,824.4375 Q314.6406,824.4375 314.875,824.7031 Q315.1094,824.9531 315.1094,825.5625 L315.1094,827.0156 Q315.1094,827.625 314.875,827.8906 Q314.6406,828.1563 314.2656,828.1563 Q313.9219,828.1563 313.7188,827.9531 Q313.5156,827.7656 313.4063,827.25 Q313.3594,826.8906 313.1719,826.7031 Q312.8438,826.3281 312.2344,826.1094 Q311.625,825.8906 311,825.8906 Q310.2344,825.8906 309.5938,826.2188 Q308.9688,826.5469 308.4688,827.2969 Q307.9844,828.0469 307.9844,829.0781 L307.9844,830.1719 Q307.9844,831.4063 308.875,832.2344 Q309.7656,833.0469 311.3594,833.0469 Q312.2969,833.0469 312.9531,832.7969 Q313.3438,832.6406 313.7656,832.2031 Q314.0313,831.9375 314.1719,831.8594 Q314.3281,831.7813 314.5313,831.7813 Q314.8594,831.7813 315.1094,832.0469 Q315.375,832.2969 315.375,832.6406 Q315.375,832.9844 315.0313,833.3906 Q314.5313,833.9688 313.7344,834.2969 Q312.6563,834.75 311.3594,834.75 Q309.8438,834.75 308.6406,834.125 Q307.6563,833.625 306.9688,832.5625 Q306.2813,831.4844 306.2813,830.2031 L306.2813,829.0469 Q306.2813,827.7188 306.8906,826.5781 Q307.5156,825.4219 308.6094,824.8125 Q309.7031,824.1875 310.9375,824.1875 Q311.6719,824.1875 312.3125,824.3594 Q312.9688,824.5156 313.5156,824.875 Z " fill="#000000"/><text fill="#000000" font-family="sans-serif" font-size="14" lengthAdjust="spacing" textLength="80" x="331.25" y="834.7969">GreenSpace</text><line style="stroke:#181818;stroke-width:0.5;" x1="167" x2="543" y1="845" y2="845"/><rect fill="none" height="6" style="stroke:#C82930;stroke-width:1.0;" width="6" x="174" y="856.8105"/><text fill="#000000" font-family="sans-serif" font-size="14" lengthAdjust="spacing" textLength="84" x="186" y="864.1074">name : String</text><rect fill="none" height="6" style="stroke:#C82930;stroke-width:1.0;" width="6" x="174" y="875.4316"/><text fill="#000000" font-family="sans-serif" font-size="14" lengthAdjust="spacing" textLength="76" x="186" y="882.7285">type : String</text><rect fill="none" height="6" style="stroke:#C82930;stroke-width:1.0;" width="6" x="174" y="894.0527"/><text fill="#000000" font-family="sans-serif" font-size="14" lengthAdjust="spacing" textLength="86" x="186" y="901.3496">area : Double</text><line style="stroke:#181818;stroke-width:0.5;" x1="167" x2="543" y1="908.8633" y2="908.8633"/><ellipse cx="177" cy="923.6738" fill="#84BE84" rx="3" ry="3" style="stroke:#038048;stroke-width:1.0;"/><text fill="#000000" font-family="sans-serif" font-size="14" lengthAdjust="spacing" textLength="352" x="186" y="927.9707">GreenSpace(name : String, type : String, area : Double)</text><ellipse cx="177" cy="942.2949" fill="#84BE84" rx="3" ry="3" style="stroke:#038048;stroke-width:1.0;"/><text fill="#000000" font-family="sans-serif" font-size="14" lengthAdjust="spacing" textLength="307" x="186" y="946.5918">verifyFilled(greenSpace: GreenSpace) : Boolean</text></g><!--link RegisterGreenSpaceUI to RegisterGreenSpaceController--><g id="link_RegisterGreenSpaceUI_RegisterGreenSpaceController"><path codeLine="45" d="M437,111.14 C437,130.25 437,146.13 437,165.97 " fill="none" id="RegisterGreenSpaceUI-to-RegisterGreenSpaceController" style="stroke:#181818;stroke-width:1.0;stroke-dasharray:7.0,7.0;"/><polygon fill="#181818" points="437,171.97,441,162.97,437,166.97,433,162.97,437,171.97" style="stroke:#181818;stroke-width:1.0;"/></g><!--link RegisterGreenSpaceController to Repositories--><g id="link_RegisterGreenSpaceController_Repositories"><path codeLine="46" d="M365.6,294.03 C336.27,318.69 306.7023,343.5386 276.2923,369.1086 " fill="none" id="RegisterGreenSpaceController-to-Repositories" style="stroke:#181818;stroke-width:1.0;stroke-dasharray:7.0,7.0;"/><polygon fill="#181818" points="271.7,372.97,281.1628,370.2394,275.5269,369.7522,276.0142,364.1163,271.7,372.97" style="stroke:#181818;stroke-width:1.0;"/><text fill="#000000" font-family="sans-serif" font-size="13" lengthAdjust="spacing" textLength="67" x="329" y="339.0283">repositories</text></g><!--link Repositories to Repositories--><g id="link_Repositories_Repositories"><path codeLine="47" d="M371.05,425.9 C392.22,429.15 406,435.01 406,443.5 C406,451.99 398.1505,456.9396 376.9805,460.1896 " fill="none" id="Repositories-to-Repositories" style="stroke:#181818;stroke-width:1.0;"/><polygon fill="#181818" points="371.05,461.1,380.5527,463.688,375.9921,460.3413,379.3388,455.7806,371.05,461.1" style="stroke:#181818;stroke-width:1.0;"/><text fill="#000000" font-family="sans-serif" font-size="13" lengthAdjust="spacing" textLength="49" x="412" y="449.0283">instance</text></g><!--link RegisterGreenSpaceController to GreenSpaceRepository--><g id="link_RegisterGreenSpaceController_GreenSpaceRepository"><path codeLine="48" d="M458.17,294.04 C475.21,351.85 492.61,441.01 468,514 C458.42,542.4 444.7369,564.95 426.3969,588.19 " fill="none" id="RegisterGreenSpaceController-to-GreenSpaceRepository" style="stroke:#181818;stroke-width:1.0;stroke-dasharray:7.0,7.0;"/><polygon fill="#181818" points="422.68,592.9,431.3954,588.3129,425.7775,588.975,425.1154,583.357,422.68,592.9" style="stroke:#181818;stroke-width:1.0;"/><text fill="#000000" font-family="sans-serif" font-size="13" lengthAdjust="spacing" textLength="131" x="481" y="449.0283">greenSpaceRepository</text></g><!--link Repositories to GreenSpaceRepository--><g id="link_Repositories_GreenSpaceRepository"><path codeLine="49" d="M241.98,514.08 C261.15,539.25 279.1455,562.8861 298.3155,588.0661 " fill="none" id="Repositories-to-GreenSpaceRepository" style="stroke:#181818;stroke-width:1.0;"/><polygon fill="#181818" points="301.95,592.84,299.6809,583.2561,298.9213,588.8617,293.3156,588.1021,301.95,592.84" style="stroke:#181818;stroke-width:1.0;"/><text fill="#000000" font-family="sans-serif" font-size="13" lengthAdjust="spacing" textLength="131" x="278" y="559.0283">greenSpaceRepository</text><text fill="#000000" font-family="sans-serif" font-size="13" lengthAdjust="spacing" textLength="7" x="289.1183" y="581.7145">1</text></g><!--link GreenSpaceRepository to GreenSpace--><g id="link_GreenSpaceRepository_GreenSpace"><path codeLine="50" d="M355,734.08 C355,759.25 355,781.66 355,806.84 " fill="none" id="GreenSpaceRepository-to-GreenSpace" style="stroke:#181818;stroke-width:1.0;"/><polygon fill="#181818" points="355,812.84,359,803.84,355,807.84,351,803.84,355,812.84" style="stroke:#181818;stroke-width:1.0;"/><text fill="#000000" font-family="sans-serif" font-size="13" lengthAdjust="spacing" textLength="131" x="356" y="779.0283">greenSpaceRepository</text><text fill="#000000" font-family="sans-serif" font-size="13" lengthAdjust="spacing" textLength="5" x="349.7422" y="801.7145">*</text></g><!--SRC=[hPJTJiCW5CVlUGhI6pkrIxnTp2vqSLbYl73n0P2UTaG63R0jZV7TfTqiiD7guhXfWV_v-1tWw0ycAgB86kiLoUMEYH8NX6j0kjlXJ00sTGMuahnkPWXTSIWCDX8hLguCpfa2QfWK264xA2TQurSecJQWvWf0B2j2uMs1Frj1Cp9CfJ1ASWuAJoBgnswxixc9Ear7de0g80PUO3TVfeAimRfU6cMvRlSCRagiqavdSlFEOMJ_jfBbhQUlOGoNM82Ze9AQ6QaOw8R7pJnHsNdf1BKDFOyiNnYghtwEvb378tg74T0oeGqH5F15KRF0MN2m9PZ58MOwwelQoc8HMfFUq05oJ1MWEx1dMqlhj_dSExCfylA99tDojlyyLfBdBb3g4lIP8sPRKAoePvkACsgJq0EM3r9o86AeN46H0XvlFG3prWF2U07Fgj49vHEpTpp_Es6qVOt7q-5EDTWjzjP-b_1x1WhUMfOTQtzUtEynOdTk4dsFfp6Jk-GCy-XRiMwIwyJBeiVu6m00]--></g></svg>