<?xml version="1.0" encoding="UTF-8" standalone="no"?><svg xmlns="http://www.w3.org/2000/svg" xmlns:xlink="http://www.w3.org/1999/xlink" contentStyleType="text/css" height="1147px" preserveAspectRatio="none" style="width:1006px;height:1147px;background:#FFFFFF;" version="1.1" viewBox="0 0 1006 1147" width="1006px" zoomAndPan="magnify"><defs/><g><!--class RegisterVehicleUI--><g id="elem_RegisterVehicleUI"><rect codeLine="6" fill="#F1F1F1" height="100.8281" id="RegisterVehicleUI" rx="2.5" ry="2.5" style="stroke:#181818;stroke-width:0.5;" width="258" x="410.5" y="7"/><ellipse cx="479.75" cy="23" fill="#ADD1B2" rx="11" ry="11" style="stroke:#181818;stroke-width:1.0;"/><path d="M482.5156,18.875 Q482.6719,18.6563 482.8594,18.5469 Q483.0469,18.4375 483.2656,18.4375 Q483.6406,18.4375 483.875,18.7031 Q484.1094,18.9531 484.1094,19.5625 L484.1094,21.0156 Q484.1094,21.625 483.875,21.8906 Q483.6406,22.1563 483.2656,22.1563 Q482.9219,22.1563 482.7188,21.9531 Q482.5156,21.7656 482.4063,21.25 Q482.3594,20.8906 482.1719,20.7031 Q481.8438,20.3281 481.2344,20.1094 Q480.625,19.8906 480,19.8906 Q479.2344,19.8906 478.5938,20.2188 Q477.9688,20.5469 477.4688,21.2969 Q476.9844,22.0469 476.9844,23.0781 L476.9844,24.1719 Q476.9844,25.4063 477.875,26.2344 Q478.7656,27.0469 480.3594,27.0469 Q481.2969,27.0469 481.9531,26.7969 Q482.3438,26.6406 482.7656,26.2031 Q483.0313,25.9375 483.1719,25.8594 Q483.3281,25.7813 483.5313,25.7813 Q483.8594,25.7813 484.1094,26.0469 Q484.375,26.2969 484.375,26.6406 Q484.375,26.9844 484.0313,27.3906 Q483.5313,27.9688 482.7344,28.2969 Q481.6563,28.75 480.3594,28.75 Q478.8438,28.75 477.6406,28.125 Q476.6563,27.625 475.9688,26.5625 Q475.2813,25.4844 475.2813,24.2031 L475.2813,23.0469 Q475.2813,21.7188 475.8906,20.5781 Q476.5156,19.4219 477.6094,18.8125 Q478.7031,18.1875 479.9375,18.1875 Q480.6719,18.1875 481.3125,18.3594 Q481.9688,18.5156 482.5156,18.875 Z " fill="#000000"/><text fill="#000000" font-family="sans-serif" font-size="14" lengthAdjust="spacing" textLength="111" x="500.25" y="28.7285">RegisterVehicleUI</text><line style="stroke:#181818;stroke-width:0.5;" x1="411.5" x2="667.5" y1="39" y2="39"/><rect fill="none" height="6" style="stroke:#C82930;stroke-width:1.0;" width="6" x="418.5" y="50.3047"/><text fill="#000000" font-family="sans-serif" font-size="14" lengthAdjust="spacing" textLength="232" x="430.5" y="57.5332">controller : RegisterVehicleController</text><line style="stroke:#181818;stroke-width:0.5;" x1="411.5" x2="667.5" y1="64.6094" y2="64.6094"/><ellipse cx="421.5" cy="78.9141" fill="#84BE84" rx="3" ry="3" style="stroke:#038048;stroke-width:1.0;"/><text fill="#000000" font-family="sans-serif" font-size="14" lengthAdjust="spacing" textLength="121" x="430.5" y="83.1426">RegisterVehicleUI()</text><ellipse cx="421.5" cy="96.5234" fill="#84BE84" rx="3" ry="3" style="stroke:#038048;stroke-width:1.0;"/><text fill="#000000" font-family="sans-serif" font-size="14" lengthAdjust="spacing" textLength="142" x="430.5" y="100.752">registerVehicle() : void</text></g><!--class RegisterVehicleController--><g id="elem_RegisterVehicleController"><rect codeLine="12" fill="#F1F1F1" height="136.0469" id="RegisterVehicleController" rx="2.5" ry="2.5" style="stroke:#181818;stroke-width:0.5;" width="919" x="80" y="169"/><ellipse cx="454.75" cy="185" fill="#ADD1B2" rx="11" ry="11" style="stroke:#181818;stroke-width:1.0;"/><path d="M457.5156,180.875 Q457.6719,180.6563 457.8594,180.5469 Q458.0469,180.4375 458.2656,180.4375 Q458.6406,180.4375 458.875,180.7031 Q459.1094,180.9531 459.1094,181.5625 L459.1094,183.0156 Q459.1094,183.625 458.875,183.8906 Q458.6406,184.1563 458.2656,184.1563 Q457.9219,184.1563 457.7188,183.9531 Q457.5156,183.7656 457.4063,183.25 Q457.3594,182.8906 457.1719,182.7031 Q456.8438,182.3281 456.2344,182.1094 Q455.625,181.8906 455,181.8906 Q454.2344,181.8906 453.5938,182.2188 Q452.9688,182.5469 452.4688,183.2969 Q451.9844,184.0469 451.9844,185.0781 L451.9844,186.1719 Q451.9844,187.4063 452.875,188.2344 Q453.7656,189.0469 455.3594,189.0469 Q456.2969,189.0469 456.9531,188.7969 Q457.3438,188.6406 457.7656,188.2031 Q458.0313,187.9375 458.1719,187.8594 Q458.3281,187.7813 458.5313,187.7813 Q458.8594,187.7813 459.1094,188.0469 Q459.375,188.2969 459.375,188.6406 Q459.375,188.9844 459.0313,189.3906 Q458.5313,189.9688 457.7344,190.2969 Q456.6563,190.75 455.3594,190.75 Q453.8438,190.75 452.6406,190.125 Q451.6563,189.625 450.9688,188.5625 Q450.2813,187.4844 450.2813,186.2031 L450.2813,185.0469 Q450.2813,183.7188 450.8906,182.5781 Q451.5156,181.4219 452.6094,180.8125 Q453.7031,180.1875 454.9375,180.1875 Q455.6719,180.1875 456.3125,180.3594 Q456.9688,180.5156 457.5156,180.875 Z " fill="#000000"/><text fill="#000000" font-family="sans-serif" font-size="14" lengthAdjust="spacing" textLength="161" x="475.25" y="190.7285">RegisterVehicleController</text><line style="stroke:#181818;stroke-width:0.5;" x1="81" x2="998" y1="201" y2="201"/><rect fill="none" height="6" style="stroke:#C82930;stroke-width:1.0;" width="6" x="88" y="212.3047"/><text fill="#000000" font-family="sans-serif" font-size="14" lengthAdjust="spacing" textLength="161" x="100" y="219.5332">repositories: Repositories</text><rect fill="none" height="6" style="stroke:#C82930;stroke-width:1.0;" width="6" x="88" y="229.9141"/><text fill="#000000" font-family="sans-serif" font-size="14" lengthAdjust="spacing" textLength="238" x="100" y="237.1426">vehicleRepository : VehicleRepository</text><line style="stroke:#181818;stroke-width:0.5;" x1="81" x2="998" y1="244.2188" y2="244.2188"/><ellipse cx="91" cy="258.5234" fill="#84BE84" rx="3" ry="3" style="stroke:#038048;stroke-width:1.0;"/><text fill="#000000" font-family="sans-serif" font-size="14" lengthAdjust="spacing" textLength="171" x="100" y="262.752">RegisterVehicleController()</text><ellipse cx="91" cy="284.9375" fill="#84BE84" rx="3" ry="3" style="stroke:#038048;stroke-width:1.0;"/><text fill="#000000" font-family="sans-serif" font-size="14" lengthAdjust="spacing" textLength="559" x="100" y="280.3613">registerVehicle(VIN: String, brand: String, model: String, type: String, vehiclePlate: String,</text><text fill="#000000" font-family="sans-serif" font-size="14" lengthAdjust="spacing" textLength="893" x="100" y="297.9707">tareWeight: double, grossWeight: double, currentKm: int, registrationDate: Date, acquisitionDate: Date, maintenanceFrequency: int) : Boolean</text></g><!--class Repositories--><g id="elem_Repositories"><rect codeLine="20" fill="#F1F1F1" height="136.0469" id="Repositories" rx="2.5" ry="2.5" style="stroke:#181818;stroke-width:0.5;" width="296" x="169.5" y="383"/><ellipse cx="273.75" cy="399" fill="#ADD1B2" rx="11" ry="11" style="stroke:#181818;stroke-width:1.0;"/><path d="M276.5156,394.875 Q276.6719,394.6563 276.8594,394.5469 Q277.0469,394.4375 277.2656,394.4375 Q277.6406,394.4375 277.875,394.7031 Q278.1094,394.9531 278.1094,395.5625 L278.1094,397.0156 Q278.1094,397.625 277.875,397.8906 Q277.6406,398.1563 277.2656,398.1563 Q276.9219,398.1563 276.7188,397.9531 Q276.5156,397.7656 276.4063,397.25 Q276.3594,396.8906 276.1719,396.7031 Q275.8438,396.3281 275.2344,396.1094 Q274.625,395.8906 274,395.8906 Q273.2344,395.8906 272.5938,396.2188 Q271.9688,396.5469 271.4688,397.2969 Q270.9844,398.0469 270.9844,399.0781 L270.9844,400.1719 Q270.9844,401.4063 271.875,402.2344 Q272.7656,403.0469 274.3594,403.0469 Q275.2969,403.0469 275.9531,402.7969 Q276.3438,402.6406 276.7656,402.2031 Q277.0313,401.9375 277.1719,401.8594 Q277.3281,401.7813 277.5313,401.7813 Q277.8594,401.7813 278.1094,402.0469 Q278.375,402.2969 278.375,402.6406 Q278.375,402.9844 278.0313,403.3906 Q277.5313,403.9688 276.7344,404.2969 Q275.6563,404.75 274.3594,404.75 Q272.8438,404.75 271.6406,404.125 Q270.6563,403.625 269.9688,402.5625 Q269.2813,401.4844 269.2813,400.2031 L269.2813,399.0469 Q269.2813,397.7188 269.8906,396.5781 Q270.5156,395.4219 271.6094,394.8125 Q272.7031,394.1875 273.9375,394.1875 Q274.6719,394.1875 275.3125,394.3594 Q275.9688,394.5156 276.5156,394.875 Z " fill="#000000"/><text fill="#000000" font-family="sans-serif" font-size="14" lengthAdjust="spacing" textLength="79" x="294.25" y="404.7285">Repositories</text><line style="stroke:#181818;stroke-width:0.5;" x1="170.5" x2="464.5" y1="415" y2="415"/><rect fill="none" height="6" style="stroke:#C82930;stroke-width:1.0;" width="6" x="177.5" y="426.3047"/><text fill="#000000" font-family="sans-serif" font-size="14" lengthAdjust="spacing" textLength="144" x="189.5" y="433.5332">instance : Repositories</text><rect fill="none" height="6" style="stroke:#C82930;stroke-width:1.0;" width="6" x="177.5" y="443.9141"/><text fill="#000000" font-family="sans-serif" font-size="14" lengthAdjust="spacing" textLength="238" x="189.5" y="451.1426">vehicleRepository : VehicleRepository</text><line style="stroke:#181818;stroke-width:0.5;" x1="170.5" x2="464.5" y1="458.2188" y2="458.2188"/><rect fill="#F24D5C" height="6" style="stroke:#C82930;stroke-width:1.0;" width="6" x="177.5" y="469.5234"/><text fill="#000000" font-family="sans-serif" font-size="14" lengthAdjust="spacing" textLength="89" x="189.5" y="476.752">Repositories()</text><ellipse cx="180.5" cy="490.1328" fill="#84BE84" rx="3" ry="3" style="stroke:#038048;stroke-width:1.0;"/><text fill="#000000" font-family="sans-serif" font-size="14" lengthAdjust="spacing" textLength="174" x="189.5" y="494.3613">getInstance() : Repositories</text><ellipse cx="180.5" cy="507.7422" fill="#84BE84" rx="3" ry="3" style="stroke:#038048;stroke-width:1.0;"/><text fill="#000000" font-family="sans-serif" font-size="14" lengthAdjust="spacing" textLength="270" x="189.5" y="511.9707">getVehicleRepository() : VehicleRepository</text></g><!--class VehicleRepository--><g id="elem_VehicleRepository"><rect codeLine="28" fill="#F1F1F1" height="171.2656" id="VehicleRepository" rx="2.5" ry="2.5" style="stroke:#181818;stroke-width:0.5;" width="919" x="7" y="597"/><ellipse cx="405.25" cy="613" fill="#ADD1B2" rx="11" ry="11" style="stroke:#181818;stroke-width:1.0;"/><path d="M408.0156,608.875 Q408.1719,608.6563 408.3594,608.5469 Q408.5469,608.4375 408.7656,608.4375 Q409.1406,608.4375 409.375,608.7031 Q409.6094,608.9531 409.6094,609.5625 L409.6094,611.0156 Q409.6094,611.625 409.375,611.8906 Q409.1406,612.1563 408.7656,612.1563 Q408.4219,612.1563 408.2188,611.9531 Q408.0156,611.7656 407.9063,611.25 Q407.8594,610.8906 407.6719,610.7031 Q407.3438,610.3281 406.7344,610.1094 Q406.125,609.8906 405.5,609.8906 Q404.7344,609.8906 404.0938,610.2188 Q403.4688,610.5469 402.9688,611.2969 Q402.4844,612.0469 402.4844,613.0781 L402.4844,614.1719 Q402.4844,615.4063 403.375,616.2344 Q404.2656,617.0469 405.8594,617.0469 Q406.7969,617.0469 407.4531,616.7969 Q407.8438,616.6406 408.2656,616.2031 Q408.5313,615.9375 408.6719,615.8594 Q408.8281,615.7813 409.0313,615.7813 Q409.3594,615.7813 409.6094,616.0469 Q409.875,616.2969 409.875,616.6406 Q409.875,616.9844 409.5313,617.3906 Q409.0313,617.9688 408.2344,618.2969 Q407.1563,618.75 405.8594,618.75 Q404.3438,618.75 403.1406,618.125 Q402.1563,617.625 401.4688,616.5625 Q400.7813,615.4844 400.7813,614.2031 L400.7813,613.0469 Q400.7813,611.7188 401.3906,610.5781 Q402.0156,609.4219 403.1094,608.8125 Q404.2031,608.1875 405.4375,608.1875 Q406.1719,608.1875 406.8125,608.3594 Q407.4688,608.5156 408.0156,608.875 Z " fill="#000000"/><text fill="#000000" font-family="sans-serif" font-size="14" lengthAdjust="spacing" textLength="114" x="425.75" y="618.7285">VehicleRepository</text><line style="stroke:#181818;stroke-width:0.5;" x1="8" x2="925" y1="629" y2="629"/><rect fill="none" height="6" style="stroke:#C82930;stroke-width:1.0;" width="6" x="15" y="640.3047"/><text fill="#000000" font-family="sans-serif" font-size="14" lengthAdjust="spacing" textLength="162" x="27" y="647.5332">vehicleList : List&lt;Vehicle&gt;</text><line style="stroke:#181818;stroke-width:0.5;" x1="8" x2="925" y1="654.6094" y2="654.6094"/><ellipse cx="18" cy="668.9141" fill="#84BE84" rx="3" ry="3" style="stroke:#038048;stroke-width:1.0;"/><text fill="#000000" font-family="sans-serif" font-size="14" lengthAdjust="spacing" textLength="124" x="27" y="673.1426">VehicleRepository()</text><ellipse cx="18" cy="686.5234" fill="#84BE84" rx="3" ry="3" style="stroke:#038048;stroke-width:1.0;"/><text fill="#000000" font-family="sans-serif" font-size="14" lengthAdjust="spacing" textLength="205" x="27" y="690.752">getVehicleList () : List&lt;Vehicles&gt;</text><ellipse cx="18" cy="712.9375" fill="#84BE84" rx="3" ry="3" style="stroke:#038048;stroke-width:1.0;"/><text fill="#000000" font-family="sans-serif" font-size="14" lengthAdjust="spacing" textLength="559" x="27" y="708.3613">registerVehicle(VIN: String, brand: String, model: String, type: String, vehiclePlate: String,</text><text fill="#000000" font-family="sans-serif" font-size="14" lengthAdjust="spacing" textLength="893" x="27" y="725.9707">tareWeight: double, grossWeight: double, currentKm: int, registrationDate: Date, acquisitionDate: Date, maintenanceFrequency: int) : Boolean</text><ellipse cx="18" cy="739.3516" fill="#84BE84" rx="3" ry="3" style="stroke:#038048;stroke-width:1.0;"/><text fill="#000000" font-family="sans-serif" font-size="14" lengthAdjust="spacing" textLength="216" x="27" y="743.5801">addVehicle(vehicle: Vehicle) : void</text><ellipse cx="18" cy="756.9609" fill="#84BE84" rx="3" ry="3" style="stroke:#038048;stroke-width:1.0;"/><text fill="#000000" font-family="sans-serif" font-size="14" lengthAdjust="spacing" textLength="399" x="27" y="761.1895">verifyExistingVehicle(VIN: String, VehiclePlate: String) : Boolean</text></g><!--class Vehicle--><g id="elem_Vehicle"><rect codeLine="38" fill="#F1F1F1" height="294.5313" id="Vehicle" rx="2.5" ry="2.5" style="stroke:#181818;stroke-width:0.5;" width="855" x="39" y="846"/><ellipse cx="439.25" cy="862" fill="#ADD1B2" rx="11" ry="11" style="stroke:#181818;stroke-width:1.0;"/><path d="M442.0156,857.875 Q442.1719,857.6563 442.3594,857.5469 Q442.5469,857.4375 442.7656,857.4375 Q443.1406,857.4375 443.375,857.7031 Q443.6094,857.9531 443.6094,858.5625 L443.6094,860.0156 Q443.6094,860.625 443.375,860.8906 Q443.1406,861.1563 442.7656,861.1563 Q442.4219,861.1563 442.2188,860.9531 Q442.0156,860.7656 441.9063,860.25 Q441.8594,859.8906 441.6719,859.7031 Q441.3438,859.3281 440.7344,859.1094 Q440.125,858.8906 439.5,858.8906 Q438.7344,858.8906 438.0938,859.2188 Q437.4688,859.5469 436.9688,860.2969 Q436.4844,861.0469 436.4844,862.0781 L436.4844,863.1719 Q436.4844,864.4063 437.375,865.2344 Q438.2656,866.0469 439.8594,866.0469 Q440.7969,866.0469 441.4531,865.7969 Q441.8438,865.6406 442.2656,865.2031 Q442.5313,864.9375 442.6719,864.8594 Q442.8281,864.7813 443.0313,864.7813 Q443.3594,864.7813 443.6094,865.0469 Q443.875,865.2969 443.875,865.6406 Q443.875,865.9844 443.5313,866.3906 Q443.0313,866.9688 442.2344,867.2969 Q441.1563,867.75 439.8594,867.75 Q438.3438,867.75 437.1406,867.125 Q436.1563,866.625 435.4688,865.5625 Q434.7813,864.4844 434.7813,863.2031 L434.7813,862.0469 Q434.7813,860.7188 435.3906,859.5781 Q436.0156,858.4219 437.1094,857.8125 Q438.2031,857.1875 439.4375,857.1875 Q440.1719,857.1875 440.8125,857.3594 Q441.4688,857.5156 442.0156,857.875 Z " fill="#000000"/><text fill="#000000" font-family="sans-serif" font-size="14" lengthAdjust="spacing" textLength="46" x="459.75" y="867.7285">Vehicle</text><line style="stroke:#181818;stroke-width:0.5;" x1="40" x2="893" y1="878" y2="878"/><rect fill="none" height="6" style="stroke:#C82930;stroke-width:1.0;" width="6" x="47" y="889.3047"/><text fill="#000000" font-family="sans-serif" font-size="14" lengthAdjust="spacing" textLength="70" x="59" y="896.5332">VIN : String</text><rect fill="none" height="6" style="stroke:#C82930;stroke-width:1.0;" width="6" x="47" y="906.9141"/><text fill="#000000" font-family="sans-serif" font-size="14" lengthAdjust="spacing" textLength="86" x="59" y="914.1426">brand : String</text><rect fill="none" height="6" style="stroke:#C82930;stroke-width:1.0;" width="6" x="47" y="924.5234"/><text fill="#000000" font-family="sans-serif" font-size="14" lengthAdjust="spacing" textLength="87" x="59" y="931.752">model : String</text><rect fill="none" height="6" style="stroke:#C82930;stroke-width:1.0;" width="6" x="47" y="942.1328"/><text fill="#000000" font-family="sans-serif" font-size="14" lengthAdjust="spacing" textLength="76" x="59" y="949.3613">type : String</text><rect fill="none" height="6" style="stroke:#C82930;stroke-width:1.0;" width="6" x="47" y="959.7422"/><text fill="#000000" font-family="sans-serif" font-size="14" lengthAdjust="spacing" textLength="125" x="59" y="966.9707">vehiclePlate : String</text><rect fill="none" height="6" style="stroke:#C82930;stroke-width:1.0;" width="6" x="47" y="977.3516"/><text fill="#000000" font-family="sans-serif" font-size="14" lengthAdjust="spacing" textLength="124" x="59" y="984.5801">tareWeight : double</text><rect fill="none" height="6" style="stroke:#C82930;stroke-width:1.0;" width="6" x="47" y="994.9609"/><text fill="#000000" font-family="sans-serif" font-size="14" lengthAdjust="spacing" textLength="134" x="59" y="1002.1895">grossWeight : double</text><rect fill="none" height="6" style="stroke:#C82930;stroke-width:1.0;" width="6" x="47" y="1012.5703"/><text fill="#000000" font-family="sans-serif" font-size="14" lengthAdjust="spacing" textLength="92" x="59" y="1019.7988">currentKm : int</text><rect fill="none" height="6" style="stroke:#C82930;stroke-width:1.0;" width="6" x="47" y="1030.1797"/><text fill="#000000" font-family="sans-serif" font-size="14" lengthAdjust="spacing" textLength="139" x="59" y="1037.4082">registrationDate: Date</text><rect fill="none" height="6" style="stroke:#C82930;stroke-width:1.0;" width="6" x="47" y="1047.7891"/><text fill="#000000" font-family="sans-serif" font-size="14" lengthAdjust="spacing" textLength="139" x="59" y="1055.0176">acquisitionDate : Date</text><rect fill="none" height="6" style="stroke:#C82930;stroke-width:1.0;" width="6" x="47" y="1065.3984"/><text fill="#000000" font-family="sans-serif" font-size="14" lengthAdjust="spacing" textLength="176" x="59" y="1072.627">maintenanceFrequency : int</text><line style="stroke:#181818;stroke-width:0.5;" x1="40" x2="893" y1="1079.7031" y2="1079.7031"/><ellipse cx="50" cy="1102.8125" fill="#84BE84" rx="3" ry="3" style="stroke:#038048;stroke-width:1.0;"/><text fill="#000000" font-family="sans-serif" font-size="14" lengthAdjust="spacing" textLength="511" x="59" y="1098.2363">Vehicle(VIN: String, brand: String, model: String, type: String, vehiclePlate: String,</text><text fill="#000000" font-family="sans-serif" font-size="14" lengthAdjust="spacing" textLength="829" x="59" y="1115.8457">tareWeight: double, grossWeight: double, currentKm: int, registrationDate: Date, acquisitionDate: Date, maintenanceFrequency: int)</text><ellipse cx="50" cy="1129.2266" fill="#84BE84" rx="3" ry="3" style="stroke:#038048;stroke-width:1.0;"/><text fill="#000000" font-family="sans-serif" font-size="14" lengthAdjust="spacing" textLength="267" x="59" y="1133.4551">validateVehicle(vehicle: Vehicle) : Boolean</text></g><!--link RegisterVehicleUI to RegisterVehicleController--><g id="link_RegisterVehicleUI_RegisterVehicleController"><path codeLine="55" d="M539.5,108.42 C539.5,125.57 539.5,145.13 539.5,163.7 " fill="none" id="RegisterVehicleUI-to-RegisterVehicleController" style="stroke:#181818;stroke-width:1.0;stroke-dasharray:7.0,7.0;"/><polygon fill="#181818" points="539.5,168.91,543.5,159.91,539.5,163.91,535.5,159.91,539.5,168.91" style="stroke:#181818;stroke-width:1.0;"/></g><!--link RegisterVehicleController to Repositories--><g id="link_RegisterVehicleController_Repositories"><path codeLine="56" d="M469.26,305.08 C444.44,328.78 416.46,355.5 391.35,379.48 " fill="none" id="RegisterVehicleController-to-Repositories" style="stroke:#181818;stroke-width:1.0;stroke-dasharray:7.0,7.0;"/><polygon fill="#181818" points="387.67,382.99,396.9387,379.6596,391.2832,379.5339,391.4089,373.8784,387.67,382.99" style="stroke:#181818;stroke-width:1.0;"/><text fill="#000000" font-family="sans-serif" font-size="13" lengthAdjust="spacing" textLength="67" x="436.5" y="349.4951">repositories</text></g><!--link Repositories to Repositories--><g id="link_Repositories_Repositories"><path codeLine="57" d="M465.77,433.21 C486.57,436.12 500.5,442.05 500.5,451 C500.5,459.18 488.86,464.84 470.98,467.97 " fill="none" id="Repositories-to-Repositories" style="stroke:#181818;stroke-width:1.0;"/><polygon fill="#181818" points="465.77,468.79,475.2792,471.3543,470.7102,468.019,474.0455,463.45,465.77,468.79" style="stroke:#181818;stroke-width:1.0;"/><text fill="#000000" font-family="sans-serif" font-size="13" lengthAdjust="spacing" textLength="49" x="506.5" y="456.4951">instance</text></g><!--link RegisterVehicleController to VehicleRepository--><g id="link_RegisterVehicleController_VehicleRepository"><path codeLine="58" d="M557.77,305.06 C570.48,362.75 581.99,447.7 562.5,519 C555.62,544.19 543.72,569.44 530.59,592.28 " fill="none" id="RegisterVehicleController-to-VehicleRepository" style="stroke:#181818;stroke-width:1.0;stroke-dasharray:7.0,7.0;"/><polygon fill="#181818" points="527.95,596.81,535.9293,591.0367,530.4614,592.4865,529.0116,587.0185,527.95,596.81" style="stroke:#181818;stroke-width:1.0;"/><text fill="#000000" font-family="sans-serif" font-size="13" lengthAdjust="spacing" textLength="101" x="573.5" y="456.4951">vehicleRepository</text></g><!--link Repositories to VehicleRepository--><g id="link_Repositories_VehicleRepository"><path codeLine="59" d="M361.2,519.31 C376.05,542.19 392.89,568.12 408.68,592.44 " fill="none" id="Repositories-to-VehicleRepository" style="stroke:#181818;stroke-width:1.0;"/><polygon fill="#181818" points="411.4,596.64,409.8512,586.9137,408.6761,592.4471,403.1426,591.272,411.4,596.64" style="stroke:#181818;stroke-width:1.0;"/><text fill="#000000" font-family="sans-serif" font-size="13" lengthAdjust="spacing" textLength="101" x="393.5" y="563.4951">vehicleRepository</text><text fill="#000000" font-family="sans-serif" font-size="13" lengthAdjust="spacing" textLength="7" x="399.3641" y="586.0727">1</text></g><!--link VehicleRepository to Vehicle--><g id="link_VehicleRepository_Vehicle"><path codeLine="60" d="M466.5,768.34 C466.5,790.78 466.5,815.69 466.5,840.52 " fill="none" id="VehicleRepository-to-Vehicle" style="stroke:#181818;stroke-width:1.0;"/><polygon fill="#181818" points="466.5,845.81,470.5,836.81,466.5,840.81,462.5,836.81,466.5,845.81" style="stroke:#181818;stroke-width:1.0;"/><text fill="#000000" font-family="sans-serif" font-size="13" lengthAdjust="spacing" textLength="39" x="467.5" y="812.4951">vehicle</text><text fill="#000000" font-family="sans-serif" font-size="13" lengthAdjust="spacing" textLength="5" x="461.3711" y="835.2985">*</text></g><!--SRC=[vLLDZnCn3BtFhx1wOHVQbRYEK0-m85KWX42K2vViZ3kDI9EkanP6YFzEaiv7CiaEIDoM7bh5Vdwsyrn7V-Foo8WTGEzPhRvpsS2E2Os57Zo2ImJJ7X6EIhJkL1HF1EuC60N4cxs1cXDMXYjP560_bM1QmqTik3P8MzppIk3d3VpqNlTPGQMa8IK44fHJwAl1DmGyI-ckhWClnTwhQyjwLhpsa5ypPOsvel88ZqfpeuYZTlMDfm1qlb0CtjOctKvjnSCzZBbdUzbktfVmoP0LPmbtn6Gz7W-gHZ4UdKpZgQllWs0ci7wLXX5-GQTS2RKwtGbSGaDAwwcnEX6XD6yF9N1fbbrbn9pKjvxKVI-1LVSdRjkTc0_CHg5aii8tXFSdb5NhcPmwBvKIo6HEeF6o8qsurCPnmJyACk93caY21isco-P7APlFmn9wZyydZTfC856lNIVlx7LRElVpeWjOXmELoPujp_Fuoa8glVwlf-xIDwlhlkMkya6-Q8bSq6SalcjV_x05sRQoTxNDz3yxy5r0fBzbX3uuC7iTSWwlICxX5tV67ggKZHlKWbwPm1lebdCF2eA_-6YlvhGC01DH8G7avEtIf7-CnpZ5uJGomMiBdnlWoTYbh_BDpNhc0NxukRp4XSza-6WMqHfVhQROVfd_8K6ouCfqoQUf5iyNVnMOxc0RlNYwwDCECSLl]--></g></svg>