<?xml version="1.0" encoding="UTF-8" standalone="no"?><svg xmlns="http://www.w3.org/2000/svg" xmlns:xlink="http://www.w3.org/1999/xlink" contentStyleType="text/css" height="1221px" preserveAspectRatio="none" style="width:994px;height:1221px;background:#FFFFFF;" version="1.1" viewBox="0 0 994 1221" width="994px" zoomAndPan="magnify"><defs/><g><!--class RegisterGreenSpaceUI--><g id="elem_RegisterGreenSpaceUI"><rect codeLine="6" fill="#F1F1F1" height="100.8281" id="RegisterGreenSpaceUI" rx="2.5" ry="2.5" style="stroke:#181818;stroke-width:0.5;" width="292" x="653" y="7"/><ellipse cx="722.25" cy="23" fill="#ADD1B2" rx="11" ry="11" style="stroke:#181818;stroke-width:1.0;"/><path d="M725.0156,18.875 Q725.1719,18.6563 725.3594,18.5469 Q725.5469,18.4375 725.7656,18.4375 Q726.1406,18.4375 726.375,18.7031 Q726.6094,18.9531 726.6094,19.5625 L726.6094,21.0156 Q726.6094,21.625 726.375,21.8906 Q726.1406,22.1563 725.7656,22.1563 Q725.4219,22.1563 725.2188,21.9531 Q725.0156,21.7656 724.9063,21.25 Q724.8594,20.8906 724.6719,20.7031 Q724.3438,20.3281 723.7344,20.1094 Q723.125,19.8906 722.5,19.8906 Q721.7344,19.8906 721.0938,20.2188 Q720.4688,20.5469 719.9688,21.2969 Q719.4844,22.0469 719.4844,23.0781 L719.4844,24.1719 Q719.4844,25.4063 720.375,26.2344 Q721.2656,27.0469 722.8594,27.0469 Q723.7969,27.0469 724.4531,26.7969 Q724.8438,26.6406 725.2656,26.2031 Q725.5313,25.9375 725.6719,25.8594 Q725.8281,25.7813 726.0313,25.7813 Q726.3594,25.7813 726.6094,26.0469 Q726.875,26.2969 726.875,26.6406 Q726.875,26.9844 726.5313,27.3906 Q726.0313,27.9688 725.2344,28.2969 Q724.1563,28.75 722.8594,28.75 Q721.3438,28.75 720.1406,28.125 Q719.1563,27.625 718.4688,26.5625 Q717.7813,25.4844 717.7813,24.2031 L717.7813,23.0469 Q717.7813,21.7188 718.3906,20.5781 Q719.0156,19.4219 720.1094,18.8125 Q721.2031,18.1875 722.4375,18.1875 Q723.1719,18.1875 723.8125,18.3594 Q724.4688,18.5156 725.0156,18.875 Z " fill="#000000"/><text fill="#000000" font-family="sans-serif" font-size="14" lengthAdjust="spacing" textLength="145" x="742.75" y="28.7285">RegisterGreenSpaceUI</text><line style="stroke:#181818;stroke-width:0.5;" x1="654" x2="944" y1="39" y2="39"/><rect fill="none" height="6" style="stroke:#C82930;stroke-width:1.0;" width="6" x="661" y="50.3047"/><text fill="#000000" font-family="sans-serif" font-size="14" lengthAdjust="spacing" textLength="266" x="673" y="57.5332">controller : RegisterGreenSpaceController</text><line style="stroke:#181818;stroke-width:0.5;" x1="654" x2="944" y1="64.6094" y2="64.6094"/><ellipse cx="664" cy="78.9141" fill="#84BE84" rx="3" ry="3" style="stroke:#038048;stroke-width:1.0;"/><text fill="#000000" font-family="sans-serif" font-size="14" lengthAdjust="spacing" textLength="155" x="673" y="83.1426">RegisterGreenSpaceUI()</text><ellipse cx="664" cy="96.5234" fill="#84BE84" rx="3" ry="3" style="stroke:#038048;stroke-width:1.0;"/><text fill="#000000" font-family="sans-serif" font-size="14" lengthAdjust="spacing" textLength="134" x="673" y="100.752">createNewGS() : void</text></g><!--class RegisterGreenSpaceController--><g id="elem_RegisterGreenSpaceController"><rect codeLine="13" fill="#F1F1F1" height="118.4375" id="RegisterGreenSpaceController" rx="2.5" ry="2.5" style="stroke:#181818;stroke-width:0.5;" width="373" x="492.5" y="169"/><ellipse cx="577.25" cy="185" fill="#ADD1B2" rx="11" ry="11" style="stroke:#181818;stroke-width:1.0;"/><path d="M580.0156,180.875 Q580.1719,180.6563 580.3594,180.5469 Q580.5469,180.4375 580.7656,180.4375 Q581.1406,180.4375 581.375,180.7031 Q581.6094,180.9531 581.6094,181.5625 L581.6094,183.0156 Q581.6094,183.625 581.375,183.8906 Q581.1406,184.1563 580.7656,184.1563 Q580.4219,184.1563 580.2188,183.9531 Q580.0156,183.7656 579.9063,183.25 Q579.8594,182.8906 579.6719,182.7031 Q579.3438,182.3281 578.7344,182.1094 Q578.125,181.8906 577.5,181.8906 Q576.7344,181.8906 576.0938,182.2188 Q575.4688,182.5469 574.9688,183.2969 Q574.4844,184.0469 574.4844,185.0781 L574.4844,186.1719 Q574.4844,187.4063 575.375,188.2344 Q576.2656,189.0469 577.8594,189.0469 Q578.7969,189.0469 579.4531,188.7969 Q579.8438,188.6406 580.2656,188.2031 Q580.5313,187.9375 580.6719,187.8594 Q580.8281,187.7813 581.0313,187.7813 Q581.3594,187.7813 581.6094,188.0469 Q581.875,188.2969 581.875,188.6406 Q581.875,188.9844 581.5313,189.3906 Q581.0313,189.9688 580.2344,190.2969 Q579.1563,190.75 577.8594,190.75 Q576.3438,190.75 575.1406,190.125 Q574.1563,189.625 573.4688,188.5625 Q572.7813,187.4844 572.7813,186.2031 L572.7813,185.0469 Q572.7813,183.7188 573.3906,182.5781 Q574.0156,181.4219 575.1094,180.8125 Q576.2031,180.1875 577.4375,180.1875 Q578.1719,180.1875 578.8125,180.3594 Q579.4688,180.5156 580.0156,180.875 Z " fill="#000000"/><text fill="#000000" font-family="sans-serif" font-size="14" lengthAdjust="spacing" textLength="195" x="597.75" y="190.7285">RegisterGreenSpaceController</text><line style="stroke:#181818;stroke-width:0.5;" x1="493.5" x2="864.5" y1="201" y2="201"/><rect fill="none" height="6" style="stroke:#C82930;stroke-width:1.0;" width="6" x="500.5" y="212.3047"/><text fill="#000000" font-family="sans-serif" font-size="14" lengthAdjust="spacing" textLength="161" x="512.5" y="219.5332">repositories: Repositories</text><rect fill="none" height="6" style="stroke:#C82930;stroke-width:1.0;" width="6" x="500.5" y="229.9141"/><text fill="#000000" font-family="sans-serif" font-size="14" lengthAdjust="spacing" textLength="305" x="512.5" y="237.1426">greenSpaceRepository : GreenSpaceRepository</text><line style="stroke:#181818;stroke-width:0.5;" x1="493.5" x2="864.5" y1="244.2188" y2="244.2188"/><ellipse cx="503.5" cy="258.5234" fill="#84BE84" rx="3" ry="3" style="stroke:#038048;stroke-width:1.0;"/><text fill="#000000" font-family="sans-serif" font-size="14" lengthAdjust="spacing" textLength="347" x="512.5" y="262.752">createNewGS(greenSpaceDto : GreenSpaceDto) : void</text><ellipse cx="503.5" cy="276.1328" fill="#84BE84" rx="3" ry="3" style="stroke:#038048;stroke-width:1.0;"/><text fill="#000000" font-family="sans-serif" font-size="14" lengthAdjust="spacing" textLength="205" x="512.5" y="280.3613">RegisterGreenSpaceController()</text></g><!--class Repositories--><g id="elem_Repositories"><rect codeLine="20" fill="#F1F1F1" height="136.0469" id="Repositories" rx="2.5" ry="2.5" style="stroke:#181818;stroke-width:0.5;" width="364" x="193" y="365"/><ellipse cx="331.25" cy="381" fill="#ADD1B2" rx="11" ry="11" style="stroke:#181818;stroke-width:1.0;"/><path d="M334.0156,376.875 Q334.1719,376.6563 334.3594,376.5469 Q334.5469,376.4375 334.7656,376.4375 Q335.1406,376.4375 335.375,376.7031 Q335.6094,376.9531 335.6094,377.5625 L335.6094,379.0156 Q335.6094,379.625 335.375,379.8906 Q335.1406,380.1563 334.7656,380.1563 Q334.4219,380.1563 334.2188,379.9531 Q334.0156,379.7656 333.9063,379.25 Q333.8594,378.8906 333.6719,378.7031 Q333.3438,378.3281 332.7344,378.1094 Q332.125,377.8906 331.5,377.8906 Q330.7344,377.8906 330.0938,378.2188 Q329.4688,378.5469 328.9688,379.2969 Q328.4844,380.0469 328.4844,381.0781 L328.4844,382.1719 Q328.4844,383.4063 329.375,384.2344 Q330.2656,385.0469 331.8594,385.0469 Q332.7969,385.0469 333.4531,384.7969 Q333.8438,384.6406 334.2656,384.2031 Q334.5313,383.9375 334.6719,383.8594 Q334.8281,383.7813 335.0313,383.7813 Q335.3594,383.7813 335.6094,384.0469 Q335.875,384.2969 335.875,384.6406 Q335.875,384.9844 335.5313,385.3906 Q335.0313,385.9688 334.2344,386.2969 Q333.1563,386.75 331.8594,386.75 Q330.3438,386.75 329.1406,386.125 Q328.1563,385.625 327.4688,384.5625 Q326.7813,383.4844 326.7813,382.2031 L326.7813,381.0469 Q326.7813,379.7188 327.3906,378.5781 Q328.0156,377.4219 329.1094,376.8125 Q330.2031,376.1875 331.4375,376.1875 Q332.1719,376.1875 332.8125,376.3594 Q333.4688,376.5156 334.0156,376.875 Z " fill="#000000"/><text fill="#000000" font-family="sans-serif" font-size="14" lengthAdjust="spacing" textLength="79" x="351.75" y="386.7285">Repositories</text><line style="stroke:#181818;stroke-width:0.5;" x1="194" x2="556" y1="397" y2="397"/><rect fill="none" height="6" style="stroke:#C82930;stroke-width:1.0;" width="6" x="201" y="408.3047"/><text fill="#000000" font-family="sans-serif" font-size="14" lengthAdjust="spacing" textLength="144" x="213" y="415.5332">instance : Repositories</text><rect fill="none" height="6" style="stroke:#C82930;stroke-width:1.0;" width="6" x="201" y="425.9141"/><text fill="#000000" font-family="sans-serif" font-size="14" lengthAdjust="spacing" textLength="305" x="213" y="433.1426">greenSpaceRepository : GreenSpaceRepository</text><line style="stroke:#181818;stroke-width:0.5;" x1="194" x2="556" y1="440.2188" y2="440.2188"/><rect fill="#F24D5C" height="6" style="stroke:#C82930;stroke-width:1.0;" width="6" x="201" y="451.5234"/><text fill="#000000" font-family="sans-serif" font-size="14" lengthAdjust="spacing" textLength="89" x="213" y="458.752">Repositories()</text><ellipse cx="204" cy="472.1328" fill="#84BE84" rx="3" ry="3" style="stroke:#038048;stroke-width:1.0;"/><text fill="#000000" font-family="sans-serif" font-size="14" lengthAdjust="spacing" textLength="174" x="213" y="476.3613">getInstance() : Repositories</text><ellipse cx="204" cy="489.7422" fill="#84BE84" rx="3" ry="3" style="stroke:#038048;stroke-width:1.0;"/><text fill="#000000" font-family="sans-serif" font-size="14" lengthAdjust="spacing" textLength="338" x="213" y="493.9707">getGreenSpaceRepository() : GreenSpaceRepository</text></g><!--class GreenSpaceRepository--><g id="elem_GreenSpaceRepository"><rect codeLine="28" fill="#F1F1F1" height="136.0469" id="GreenSpaceRepository" rx="2.5" ry="2.5" style="stroke:#181818;stroke-width:0.5;" width="369" x="427.5" y="579"/><ellipse cx="533.75" cy="595" fill="#ADD1B2" rx="11" ry="11" style="stroke:#181818;stroke-width:1.0;"/><path d="M536.5156,590.875 Q536.6719,590.6563 536.8594,590.5469 Q537.0469,590.4375 537.2656,590.4375 Q537.6406,590.4375 537.875,590.7031 Q538.1094,590.9531 538.1094,591.5625 L538.1094,593.0156 Q538.1094,593.625 537.875,593.8906 Q537.6406,594.1563 537.2656,594.1563 Q536.9219,594.1563 536.7188,593.9531 Q536.5156,593.7656 536.4063,593.25 Q536.3594,592.8906 536.1719,592.7031 Q535.8438,592.3281 535.2344,592.1094 Q534.625,591.8906 534,591.8906 Q533.2344,591.8906 532.5938,592.2188 Q531.9688,592.5469 531.4688,593.2969 Q530.9844,594.0469 530.9844,595.0781 L530.9844,596.1719 Q530.9844,597.4063 531.875,598.2344 Q532.7656,599.0469 534.3594,599.0469 Q535.2969,599.0469 535.9531,598.7969 Q536.3438,598.6406 536.7656,598.2031 Q537.0313,597.9375 537.1719,597.8594 Q537.3281,597.7813 537.5313,597.7813 Q537.8594,597.7813 538.1094,598.0469 Q538.375,598.2969 538.375,598.6406 Q538.375,598.9844 538.0313,599.3906 Q537.5313,599.9688 536.7344,600.2969 Q535.6563,600.75 534.3594,600.75 Q532.8438,600.75 531.6406,600.125 Q530.6563,599.625 529.9688,598.5625 Q529.2813,597.4844 529.2813,596.2031 L529.2813,595.0469 Q529.2813,593.7188 529.8906,592.5781 Q530.5156,591.4219 531.6094,590.8125 Q532.7031,590.1875 533.9375,590.1875 Q534.6719,590.1875 535.3125,590.3594 Q535.9688,590.5156 536.5156,590.875 Z " fill="#000000"/><text fill="#000000" font-family="sans-serif" font-size="14" lengthAdjust="spacing" textLength="148" x="554.25" y="600.7285">GreenSpaceRepository</text><line style="stroke:#181818;stroke-width:0.5;" x1="428.5" x2="795.5" y1="611" y2="611"/><rect fill="none" height="6" style="stroke:#C82930;stroke-width:1.0;" width="6" x="435.5" y="622.3047"/><text fill="#000000" font-family="sans-serif" font-size="14" lengthAdjust="spacing" textLength="229" x="447.5" y="629.5332">greenSpaceList : List&lt;GreenSpace&gt;</text><line style="stroke:#181818;stroke-width:0.5;" x1="428.5" x2="795.5" y1="636.6094" y2="636.6094"/><ellipse cx="438.5" cy="650.9141" fill="#84BE84" rx="3" ry="3" style="stroke:#038048;stroke-width:1.0;"/><text fill="#000000" font-family="sans-serif" font-size="14" lengthAdjust="spacing" textLength="158" x="447.5" y="655.1426">GreenSpaceRepository()</text><ellipse cx="438.5" cy="668.5234" fill="#84BE84" rx="3" ry="3" style="stroke:#038048;stroke-width:1.0;"/><text fill="#000000" font-family="sans-serif" font-size="14" lengthAdjust="spacing" textLength="301" x="447.5" y="672.752">create(greenSpaceDto : GreenSpaceDto) : void</text><rect fill="#F24D5C" height="6" style="stroke:#C82930;stroke-width:1.0;" width="6" x="435.5" y="683.1328"/><text fill="#000000" font-family="sans-serif" font-size="14" lengthAdjust="spacing" textLength="321" x="447.5" y="690.3613">addGreenSpace(greenSpace : GreenSpace) : void</text><rect fill="#F24D5C" height="6" style="stroke:#C82930;stroke-width:1.0;" width="6" x="435.5" y="700.7422"/><text fill="#000000" font-family="sans-serif" font-size="14" lengthAdjust="spacing" textLength="343" x="447.5" y="707.9707">verifyDuplicates(greenSpace : GreenSpace) : Boolean</text></g><!--class GreenSpace--><g id="elem_GreenSpace"><rect codeLine="36" fill="#F1F1F1" height="171.2656" id="GreenSpace" rx="2.5" ry="2.5" style="stroke:#181818;stroke-width:0.5;" width="656" x="7" y="982"/><ellipse cx="290.75" cy="998" fill="#ADD1B2" rx="11" ry="11" style="stroke:#181818;stroke-width:1.0;"/><path d="M293.5156,993.875 Q293.6719,993.6563 293.8594,993.5469 Q294.0469,993.4375 294.2656,993.4375 Q294.6406,993.4375 294.875,993.7031 Q295.1094,993.9531 295.1094,994.5625 L295.1094,996.0156 Q295.1094,996.625 294.875,996.8906 Q294.6406,997.1563 294.2656,997.1563 Q293.9219,997.1563 293.7188,996.9531 Q293.5156,996.7656 293.4063,996.25 Q293.3594,995.8906 293.1719,995.7031 Q292.8438,995.3281 292.2344,995.1094 Q291.625,994.8906 291,994.8906 Q290.2344,994.8906 289.5938,995.2188 Q288.9688,995.5469 288.4688,996.2969 Q287.9844,997.0469 287.9844,998.0781 L287.9844,999.1719 Q287.9844,1000.4063 288.875,1001.2344 Q289.7656,1002.0469 291.3594,1002.0469 Q292.2969,1002.0469 292.9531,1001.7969 Q293.3438,1001.6406 293.7656,1001.2031 Q294.0313,1000.9375 294.1719,1000.8594 Q294.3281,1000.7813 294.5313,1000.7813 Q294.8594,1000.7813 295.1094,1001.0469 Q295.375,1001.2969 295.375,1001.6406 Q295.375,1001.9844 295.0313,1002.3906 Q294.5313,1002.9688 293.7344,1003.2969 Q292.6563,1003.75 291.3594,1003.75 Q289.8438,1003.75 288.6406,1003.125 Q287.6563,1002.625 286.9688,1001.5625 Q286.2813,1000.4844 286.2813,999.2031 L286.2813,998.0469 Q286.2813,996.7188 286.8906,995.5781 Q287.5156,994.4219 288.6094,993.8125 Q289.7031,993.1875 290.9375,993.1875 Q291.6719,993.1875 292.3125,993.3594 Q292.9688,993.5156 293.5156,993.875 Z " fill="#000000"/><text fill="#000000" font-family="sans-serif" font-size="14" lengthAdjust="spacing" textLength="80" x="311.25" y="1003.7285">GreenSpace</text><line style="stroke:#181818;stroke-width:0.5;" x1="8" x2="662" y1="1014" y2="1014"/><rect fill="none" height="6" style="stroke:#C82930;stroke-width:1.0;" width="6" x="15" y="1025.3047"/><text fill="#000000" font-family="sans-serif" font-size="14" lengthAdjust="spacing" textLength="84" x="27" y="1032.5332">name : String</text><rect fill="none" height="6" style="stroke:#C82930;stroke-width:1.0;" width="6" x="15" y="1042.9141"/><text fill="#000000" font-family="sans-serif" font-size="14" lengthAdjust="spacing" textLength="151" x="27" y="1050.1426">type : GreenSpaceType</text><rect fill="none" height="6" style="stroke:#C82930;stroke-width:1.0;" width="6" x="15" y="1060.5234"/><text fill="#000000" font-family="sans-serif" font-size="14" lengthAdjust="spacing" textLength="86" x="27" y="1067.752">area : Double</text><rect fill="none" height="6" style="stroke:#C82930;stroke-width:1.0;" width="6" x="15" y="1078.1328"/><text fill="#000000" font-family="sans-serif" font-size="14" lengthAdjust="spacing" textLength="147" x="27" y="1085.3613">manager : UserSession</text><rect fill="none" height="6" style="stroke:#C82930;stroke-width:1.0;" width="6" x="15" y="1095.7422"/><text fill="#000000" font-family="sans-serif" font-size="14" lengthAdjust="spacing" textLength="115" x="27" y="1102.9707">address : Address</text><line style="stroke:#181818;stroke-width:0.5;" x1="8" x2="662" y1="1110.0469" y2="1110.0469"/><ellipse cx="18" cy="1124.3516" fill="#84BE84" rx="3" ry="3" style="stroke:#038048;stroke-width:1.0;"/><text fill="#000000" font-family="sans-serif" font-size="14" lengthAdjust="spacing" textLength="630" x="27" y="1128.5801">GreenSpace(name : String, type : String, area : Double, address : Address, manager : UserSession)</text><ellipse cx="18" cy="1141.9609" fill="#84BE84" rx="3" ry="3" style="stroke:#038048;stroke-width:1.0;"/><text fill="#000000" font-family="sans-serif" font-size="14" lengthAdjust="spacing" textLength="307" x="27" y="1146.1895">verifyFilled(greenSpace: GreenSpace) : Boolean</text></g><!--class GreenSpaceDto--><g id="elem_GreenSpaceDto"><rect codeLine="46" fill="#F1F1F1" height="294.5313" id="GreenSpaceDto" rx="2.5" ry="2.5" style="stroke:#181818;stroke-width:0.5;" width="212" x="775" y="920"/><ellipse cx="825.75" cy="936" fill="#ADD1B2" rx="11" ry="11" style="stroke:#181818;stroke-width:1.0;"/><path d="M828.5156,931.875 Q828.6719,931.6563 828.8594,931.5469 Q829.0469,931.4375 829.2656,931.4375 Q829.6406,931.4375 829.875,931.7031 Q830.1094,931.9531 830.1094,932.5625 L830.1094,934.0156 Q830.1094,934.625 829.875,934.8906 Q829.6406,935.1563 829.2656,935.1563 Q828.9219,935.1563 828.7188,934.9531 Q828.5156,934.7656 828.4063,934.25 Q828.3594,933.8906 828.1719,933.7031 Q827.8438,933.3281 827.2344,933.1094 Q826.625,932.8906 826,932.8906 Q825.2344,932.8906 824.5938,933.2188 Q823.9688,933.5469 823.4688,934.2969 Q822.9844,935.0469 822.9844,936.0781 L822.9844,937.1719 Q822.9844,938.4063 823.875,939.2344 Q824.7656,940.0469 826.3594,940.0469 Q827.2969,940.0469 827.9531,939.7969 Q828.3438,939.6406 828.7656,939.2031 Q829.0313,938.9375 829.1719,938.8594 Q829.3281,938.7813 829.5313,938.7813 Q829.8594,938.7813 830.1094,939.0469 Q830.375,939.2969 830.375,939.6406 Q830.375,939.9844 830.0313,940.3906 Q829.5313,940.9688 828.7344,941.2969 Q827.6563,941.75 826.3594,941.75 Q824.8438,941.75 823.6406,941.125 Q822.6563,940.625 821.9688,939.5625 Q821.2813,938.4844 821.2813,937.2031 L821.2813,936.0469 Q821.2813,934.7188 821.8906,933.5781 Q822.5156,932.4219 823.6094,931.8125 Q824.7031,931.1875 825.9375,931.1875 Q826.6719,931.1875 827.3125,931.3594 Q827.9688,931.5156 828.5156,931.875 Z " fill="#000000"/><text fill="#000000" font-family="sans-serif" font-size="14" lengthAdjust="spacing" textLength="102" x="846.25" y="941.7285">GreenSpaceDto</text><line style="stroke:#181818;stroke-width:0.5;" x1="776" x2="986" y1="952" y2="952"/><rect fill="none" height="6" style="stroke:#C82930;stroke-width:1.0;" width="6" x="783" y="963.3047"/><text fill="#000000" font-family="sans-serif" font-size="14" lengthAdjust="spacing" textLength="84" x="795" y="970.5332">name : String</text><rect fill="none" height="6" style="stroke:#C82930;stroke-width:1.0;" width="6" x="783" y="980.9141"/><text fill="#000000" font-family="sans-serif" font-size="14" lengthAdjust="spacing" textLength="151" x="795" y="988.1426">type : GreenSpaceType</text><rect fill="none" height="6" style="stroke:#C82930;stroke-width:1.0;" width="6" x="783" y="998.5234"/><text fill="#000000" font-family="sans-serif" font-size="14" lengthAdjust="spacing" textLength="86" x="795" y="1005.752">area : Double</text><rect fill="none" height="6" style="stroke:#C82930;stroke-width:1.0;" width="6" x="783" y="1016.1328"/><text fill="#000000" font-family="sans-serif" font-size="14" lengthAdjust="spacing" textLength="147" x="795" y="1023.3613">manager : UserSession</text><rect fill="none" height="6" style="stroke:#C82930;stroke-width:1.0;" width="6" x="783" y="1033.7422"/><text fill="#000000" font-family="sans-serif" font-size="14" lengthAdjust="spacing" textLength="100" x="795" y="1040.9707">address : String</text><rect fill="none" height="6" style="stroke:#C82930;stroke-width:1.0;" width="6" x="783" y="1051.3516"/><text fill="#000000" font-family="sans-serif" font-size="14" lengthAdjust="spacing" textLength="70" x="795" y="1058.5801">city : String</text><rect fill="none" height="6" style="stroke:#C82930;stroke-width:1.0;" width="6" x="783" y="1068.9609"/><text fill="#000000" font-family="sans-serif" font-size="14" lengthAdjust="spacing" textLength="100" x="795" y="1076.1895">zipCode : String</text><line style="stroke:#181818;stroke-width:0.5;" x1="776" x2="986" y1="1083.2656" y2="1083.2656"/><ellipse cx="786" cy="1097.5703" fill="#84BE84" rx="3" ry="3" style="stroke:#038048;stroke-width:1.0;"/><text fill="#000000" font-family="sans-serif" font-size="14" lengthAdjust="spacing" textLength="115" x="795" y="1101.7988">getName() : String</text><ellipse cx="786" cy="1115.1797" fill="#84BE84" rx="3" ry="3" style="stroke:#038048;stroke-width:1.0;"/><text fill="#000000" font-family="sans-serif" font-size="14" lengthAdjust="spacing" textLength="186" x="795" y="1119.4082">getType() : GreenSpaceType</text><ellipse cx="786" cy="1132.7891" fill="#84BE84" rx="3" ry="3" style="stroke:#038048;stroke-width:1.0;"/><text fill="#000000" font-family="sans-serif" font-size="14" lengthAdjust="spacing" textLength="117" x="795" y="1137.0176">getArea() : Double</text><ellipse cx="786" cy="1150.3984" fill="#84BE84" rx="3" ry="3" style="stroke:#038048;stroke-width:1.0;"/><text fill="#000000" font-family="sans-serif" font-size="14" lengthAdjust="spacing" textLength="177" x="795" y="1154.627">getManager() : UserSession</text><ellipse cx="786" cy="1168.0078" fill="#84BE84" rx="3" ry="3" style="stroke:#038048;stroke-width:1.0;"/><text fill="#000000" font-family="sans-serif" font-size="14" lengthAdjust="spacing" textLength="131" x="795" y="1172.2363">getAddress() : String</text><ellipse cx="786" cy="1185.6172" fill="#84BE84" rx="3" ry="3" style="stroke:#038048;stroke-width:1.0;"/><text fill="#000000" font-family="sans-serif" font-size="14" lengthAdjust="spacing" textLength="103" x="795" y="1189.8457">getCity() : String</text><ellipse cx="786" cy="1203.2266" fill="#84BE84" rx="3" ry="3" style="stroke:#038048;stroke-width:1.0;"/><text fill="#000000" font-family="sans-serif" font-size="14" lengthAdjust="spacing" textLength="132" x="795" y="1207.4551">getZipCode() : String</text></g><!--class GreenSpaceMapper--><g id="elem_GreenSpaceMapper"><rect codeLine="63" fill="#F1F1F1" height="83.2188" id="GreenSpaceMapper" rx="2.5" ry="2.5" style="stroke:#181818;stroke-width:0.5;" width="401" x="464.5" y="776"/><ellipse cx="596.75" cy="792" fill="#ADD1B2" rx="11" ry="11" style="stroke:#181818;stroke-width:1.0;"/><path d="M599.5156,787.875 Q599.6719,787.6563 599.8594,787.5469 Q600.0469,787.4375 600.2656,787.4375 Q600.6406,787.4375 600.875,787.7031 Q601.1094,787.9531 601.1094,788.5625 L601.1094,790.0156 Q601.1094,790.625 600.875,790.8906 Q600.6406,791.1563 600.2656,791.1563 Q599.9219,791.1563 599.7188,790.9531 Q599.5156,790.7656 599.4063,790.25 Q599.3594,789.8906 599.1719,789.7031 Q598.8438,789.3281 598.2344,789.1094 Q597.625,788.8906 597,788.8906 Q596.2344,788.8906 595.5938,789.2188 Q594.9688,789.5469 594.4688,790.2969 Q593.9844,791.0469 593.9844,792.0781 L593.9844,793.1719 Q593.9844,794.4063 594.875,795.2344 Q595.7656,796.0469 597.3594,796.0469 Q598.2969,796.0469 598.9531,795.7969 Q599.3438,795.6406 599.7656,795.2031 Q600.0313,794.9375 600.1719,794.8594 Q600.3281,794.7813 600.5313,794.7813 Q600.8594,794.7813 601.1094,795.0469 Q601.375,795.2969 601.375,795.6406 Q601.375,795.9844 601.0313,796.3906 Q600.5313,796.9688 599.7344,797.2969 Q598.6563,797.75 597.3594,797.75 Q595.8438,797.75 594.6406,797.125 Q593.6563,796.625 592.9688,795.5625 Q592.2813,794.4844 592.2813,793.2031 L592.2813,792.0469 Q592.2813,790.7188 592.8906,789.5781 Q593.5156,788.4219 594.6094,787.8125 Q595.7031,787.1875 596.9375,787.1875 Q597.6719,787.1875 598.3125,787.3594 Q598.9688,787.5156 599.5156,787.875 Z " fill="#000000"/><text fill="#000000" font-family="sans-serif" font-size="14" lengthAdjust="spacing" textLength="128" x="617.25" y="797.7285">GreenSpaceMapper</text><line style="stroke:#181818;stroke-width:0.5;" x1="465.5" x2="864.5" y1="808" y2="808"/><line style="stroke:#181818;stroke-width:0.5;" x1="465.5" x2="864.5" y1="816" y2="816"/><ellipse cx="475.5" cy="830.3047" fill="#84BE84" rx="3" ry="3" style="stroke:#038048;stroke-width:1.0;"/><text fill="#000000" font-family="sans-serif" font-size="14" lengthAdjust="spacing" textLength="327" x="484.5" y="834.5332">toDto(greenSpace : GreenSpace) : GreenSpaceDto</text><ellipse cx="475.5" cy="847.9141" fill="#84BE84" rx="3" ry="3" style="stroke:#038048;stroke-width:1.0;"/><text fill="#000000" font-family="sans-serif" font-size="14" lengthAdjust="spacing" textLength="375" x="484.5" y="852.1426">toDomain(greenSpaceDto : GreenSpaceDto) : GreenSpace</text></g><!--link RegisterGreenSpaceUI to RegisterGreenSpaceController--><g id="link_RegisterGreenSpaceUI_RegisterGreenSpaceController"><path codeLine="68" d="M763.65,108.14 C751.05,125.83 736.7,145.99 723.43,164.61 " fill="none" id="RegisterGreenSpaceUI-to-RegisterGreenSpaceController" style="stroke:#181818;stroke-width:1.0;stroke-dasharray:7.0,7.0;"/><polygon fill="#181818" points="720.44,168.81,728.9194,163.8001,723.3408,164.7375,722.4034,159.1588,720.44,168.81" style="stroke:#181818;stroke-width:1.0;"/></g><!--link RegisterGreenSpaceController to Repositories--><g id="link_RegisterGreenSpaceController_Repositories"><path codeLine="69" d="M591.89,287.17 C556.99,310.48 516.47,337.53 479.96,361.91 " fill="none" id="RegisterGreenSpaceController-to-Repositories" style="stroke:#181818;stroke-width:1.0;stroke-dasharray:7.0,7.0;"/><polygon fill="#181818" points="475.53,364.87,485.2373,363.2059,479.6903,362.0965,480.7997,356.5495,475.53,364.87" style="stroke:#181818;stroke-width:1.0;"/><text fill="#000000" font-family="sans-serif" font-size="13" lengthAdjust="spacing" textLength="67" x="547" y="331.4951">repositories</text></g><!--link Repositories to Repositories--><g id="link_Repositories_Repositories"><path codeLine="70" d="M557.05,416.04 C578.22,419.17 592,424.82 592,433 C592,440.47 580.49,445.84 562.34,449.1 " fill="none" id="Repositories-to-Repositories" style="stroke:#181818;stroke-width:1.0;"/><polygon fill="#181818" points="557.05,449.96,566.5746,452.4663,561.9854,449.1589,565.2928,444.5697,557.05,449.96" style="stroke:#181818;stroke-width:1.0;"/><text fill="#000000" font-family="sans-serif" font-size="13" lengthAdjust="spacing" textLength="49" x="598" y="438.4951">instance</text></g><!--link RegisterGreenSpaceController to GreenSpaceRepository--><g id="link_RegisterGreenSpaceController_GreenSpaceRepository"><path codeLine="71" d="M677.41,287.19 C674.45,352.06 666.03,459.62 642,549 C639.84,557.04 637.46,565.41 635.01,573.71 " fill="none" id="RegisterGreenSpaceController-to-GreenSpaceRepository" style="stroke:#181818;stroke-width:1.0;stroke-dasharray:7.0,7.0;"/><polygon fill="#181818" points="633.47,578.87,639.8772,571.3902,634.9002,574.0789,632.2114,569.1019,633.47,578.87" style="stroke:#181818;stroke-width:1.0;"/><text fill="#000000" font-family="sans-serif" font-size="13" lengthAdjust="spacing" textLength="131" x="673" y="438.4951">greenSpaceRepository</text></g><!--link Repositories to GreenSpaceRepository--><g id="link_Repositories_GreenSpaceRepository"><path codeLine="72" d="M449.99,501.08 C476.49,524.78 506.35,551.5 533.16,575.48 " fill="none" id="Repositories-to-GreenSpaceRepository" style="stroke:#181818;stroke-width:1.0;"/><polygon fill="#181818" points="537.09,578.99,533.0399,570.0124,533.3601,575.6602,527.7123,575.9803,537.09,578.99" style="stroke:#181818;stroke-width:1.0;"/><text fill="#000000" font-family="sans-serif" font-size="13" lengthAdjust="spacing" textLength="131" x="502" y="545.4951">greenSpaceRepository</text><text fill="#000000" font-family="sans-serif" font-size="13" lengthAdjust="spacing" textLength="7" x="521.5139" y="568.1882">1</text></g><!--link GreenSpaceRepository to GreenSpace--><g id="link_GreenSpaceRepository_GreenSpace"><path codeLine="73" d="M427.15,689.04 C382.77,708.01 340.56,735.68 314,776 C275.31,834.73 284.86,915.4 301.65,976.83 " fill="none" id="GreenSpaceRepository-to-GreenSpace" style="stroke:#181818;stroke-width:1.0;"/><polygon fill="#181818" points="303.08,981.96,304.5148,972.2162,301.7366,977.1438,296.809,974.3656,303.08,981.96" style="stroke:#181818;stroke-width:1.0;"/><text fill="#000000" font-family="sans-serif" font-size="13" lengthAdjust="spacing" textLength="131" x="315" y="822.9951">greenSpaceRepository</text><text fill="#000000" font-family="sans-serif" font-size="13" lengthAdjust="spacing" textLength="5" x="295.0145" y="971.128">*</text></g><!--link RegisterGreenSpaceUI to GreenSpaceDto--><g id="link_RegisterGreenSpaceUI_GreenSpaceDto"><path codeLine="74" d="M859,108.27 C889,138.91 919,181.03 919,227 C919,227 919,227 919,818.5 C919,849.82 916,883.11 911.69,914.79 " fill="none" id="RegisterGreenSpaceUI-to-GreenSpaceDto" style="stroke:#181818;stroke-width:1.0;stroke-dasharray:7.0,7.0;"/><polygon fill="#181818" points="910.99,919.86,916.1855,911.493,911.6751,914.9072,908.2609,910.3968,910.99,919.86" style="stroke:#181818;stroke-width:1.0;"/></g><!--link GreenSpaceRepository to GreenSpaceMapper--><g id="link_GreenSpaceRepository_GreenSpaceMapper"><path codeLine="75" d="M633.1,715.08 C639.01,733.87 645.29,753.85 650.71,771.07 " fill="none" id="GreenSpaceRepository-to-GreenSpaceMapper" style="stroke:#181818;stroke-width:1.0;stroke-dasharray:7.0,7.0;"/><polygon fill="#181818" points="652.21,775.85,653.3268,766.0647,650.7105,771.0801,645.695,768.4639,652.21,775.85" style="stroke:#181818;stroke-width:1.0;"/></g><!--link GreenSpaceMapper to GreenSpace--><g id="link_GreenSpaceMapper_GreenSpace"><path codeLine="76" d="M610.88,859.17 C567.84,891.52 506.07,937.94 451.89,978.66 " fill="none" id="GreenSpaceMapper-to-GreenSpace" style="stroke:#181818;stroke-width:1.0;stroke-dasharray:7.0,7.0;"/><polygon fill="#181818" points="447.67,981.83,457.2611,979.5916,451.658,978.814,452.4355,973.2109,447.67,981.83" style="stroke:#181818;stroke-width:1.0;"/></g><!--link GreenSpaceMapper to GreenSpaceDto--><g id="link_GreenSpaceMapper_GreenSpaceDto"><path codeLine="77" d="M700.43,859.17 C720.07,881.73 745.68,911.13 771.4,940.67 " fill="none" id="GreenSpaceMapper-to-GreenSpaceDto" style="stroke:#181818;stroke-width:1.0;stroke-dasharray:7.0,7.0;"/><polygon fill="#181818" points="774.87,944.65,771.9943,935.2303,771.5937,940.873,765.9511,940.4724,774.87,944.65" style="stroke:#181818;stroke-width:1.0;"/></g><!--SRC=[pLLDRzim3BtxLmYvD5tY0hiMGu4kmO82Qm_BUjbDanbNc28PajeY6_RVHyc99TcoWmuxp9T0vEF78qFI_E2oePhkYNcYbNhbiYOxAWmKfjC8Be7OGmEaKUBWNaLn8M1dYLL4y_h9aefhO9OhMHG4FoQeCUGBrDnOq1iD8BSDPV1uHtvvWFjAmfIqMWa1cbndqAjEtTaiiaxdbn60QQ0M7k1rivrVejyNnQjEVL4Iv6JWjgeq63Ct5jrOH6sjHkfByfCtJ5KGIHYtX-xf71vjlS_Vqtm3WuItXaOPRfNcO1pny8f0TUUb0xWyDXdn2FlWOOsDYatnFIZDOZB_OubxV4FY2JykZQMI0VcdvCh4MTBp6kpTCQRlUJQgX-KYU9FHq0db72gX7eXznbgYN_Vp8PZTHEdaSnaqyurzB0cjgW29h1FJZDqBQBuxh9yRmHd6DLEc7vKIGELKXPAwIBeFGnN9_Lg9dNz5GSm5Iu3wjNh-BcBvdafQ-xtnQ41lSHxTyabgu8QqDwxzki-Jj9QdR4xF9FXow7EPJoDkOLlJJnndg8hg-HVbn5x_7mKTX4msP2J7NRgATsawYGz8m4zUJkcIxerbmiE3Rf6A1_N8UELzoyVhSunQ3ySpC9R62fcDAh-rzFhwaVRTqwO17Jgui0exEZLYIUiJExMdN9vV2q5mIYnxaQ-kRgQFx-HTQwtZUnPVjoAv4MNPnvuknVaOkMLvdRqZmvYpzxCtc6TtFBgPlPj5MOp67gbmsiriZ1JM_c6Alg27EgTtmVu0]--></g></svg>