<?xml version="1.0" encoding="UTF-8" standalone="no"?><svg xmlns="http://www.w3.org/2000/svg" xmlns:xlink="http://www.w3.org/1999/xlink" contentStyleType="text/css" height="1234px" preserveAspectRatio="none" style="width:1554px;height:1234px;background:#FFFFFF;" version="1.1" viewBox="0 0 1554 1234" width="1554px" zoomAndPan="magnify"><defs/><g><rect fill="#FFFFFF" height="1042.0625" style="stroke:#181818;stroke-width:1.0;" width="10" x="18.5" y="92.6094"/><rect fill="#FFFFFF" height="210.7188" style="stroke:#181818;stroke-width:1.0;" width="10" x="314.5" y="114.9609"/><rect fill="#FFFFFF" height="30.3516" style="stroke:#181818;stroke-width:1.0;" width="10" x="314.5" y="356.0313"/><rect fill="#FFFFFF" height="46.7031" style="stroke:#181818;stroke-width:1.0;" width="10" x="314.5" y="416.7344"/><rect fill="#FFFFFF" height="30.3516" style="stroke:#181818;stroke-width:1.0;" width="10" x="314.5" y="1104.3203"/><rect fill="#FFFFFF" height="123.6641" style="stroke:#181818;stroke-width:1.0;" width="10" x="609.5" y="155.3125"/><rect fill="#FFFFFF" height="30.3516" style="stroke:#181818;stroke-width:1.0;" width="10" x="609.5" y="463.4375"/><rect fill="#FFFFFF" height="30.3516" style="stroke:#181818;stroke-width:1.0;" width="10" x="609.5" y="1073.9688"/><rect fill="#FFFFFF" height="30.3516" style="stroke:#181818;stroke-width:1.0;" width="10" x="774.5" y="187.9219"/><rect fill="#FFFFFF" height="30.3516" style="stroke:#181818;stroke-width:1.0;" width="10" x="881.5" y="248.625"/><rect fill="#FFFFFF" height="580.1797" style="stroke:#181818;stroke-width:1.0;" width="10" x="1021.5" y="493.7891"/><rect fill="#FFFFFF" height="128.0547" style="stroke:#181818;stroke-width:1.0;" width="10" x="1026.5" y="908.5625"/><rect fill="#FFFFFF" height="41.3516" style="stroke:#181818;stroke-width:1.0;" width="10" x="1031.5" y="951.9141"/><rect fill="#FFFFFF" height="336.0703" style="stroke:#181818;stroke-width:1.0;" width="10" x="1371.5" y="534.1406"/><rect fill="#FFFFFF" height="41.3516" style="stroke:#181818;stroke-width:1.0;" width="10" x="1376.5" y="574.75"/><rect fill="#FFFFFF" height="41.3516" style="stroke:#181818;stroke-width:1.0;" width="10" x="1376.5" y="661.4531"/><line style="stroke:#181818;stroke-width:0.5;stroke-dasharray:5.0,5.0;" x1="23" x2="23" y1="82.6094" y2="1152.6719"/><line style="stroke:#181818;stroke-width:0.5;stroke-dasharray:5.0,5.0;" x1="319" x2="319" y1="82.6094" y2="1152.6719"/><line style="stroke:#181818;stroke-width:0.5;stroke-dasharray:5.0,5.0;" x1="614" x2="614" y1="154.2656" y2="1152.6719"/><line style="stroke:#181818;stroke-width:0.5;stroke-dasharray:5.0,5.0;" x1="779" x2="779" y1="82.6094" y2="1152.6719"/><line style="stroke:#181818;stroke-width:0.5;stroke-dasharray:5.0,5.0;" x1="886" x2="886" y1="82.6094" y2="1152.6719"/><line style="stroke:#181818;stroke-width:0.5;stroke-dasharray:5.0,5.0;" x1="1026" x2="1026" y1="82.6094" y2="1152.6719"/><line style="stroke:#181818;stroke-width:0.5;stroke-dasharray:5.0,5.0;" x1="1376.5" x2="1376.5" y1="533.0938" y2="1152.6719"/><text fill="#000000" font-family="sans-serif" font-size="14" lengthAdjust="spacing" textLength="31" x="5" y="79.5332">GSM</text><ellipse cx="23.5" cy="13.5" fill="#E3E3E3" rx="8" ry="8" style="stroke:#181818;stroke-width:0.5;"/><path d="M23.5,21.5 L23.5,48.5 M10.5,29.5 L36.5,29.5 M23.5,48.5 L10.5,63.5 M23.5,48.5 L36.5,63.5 " fill="none" style="stroke:#181818;stroke-width:0.5;"/><text fill="#000000" font-family="sans-serif" font-size="14" lengthAdjust="spacing" textLength="31" x="5" y="1166.2051">GSM</text><ellipse cx="23.5" cy="1177.7813" fill="#E3E3E3" rx="8" ry="8" style="stroke:#181818;stroke-width:0.5;"/><path d="M23.5,1185.7813 L23.5,1212.7813 M10.5,1193.7813 L36.5,1193.7813 M23.5,1212.7813 L10.5,1227.7813 M23.5,1212.7813 L36.5,1227.7813 " fill="none" style="stroke:#181818;stroke-width:0.5;"/><rect fill="#E3E3E3" height="31.6094" rx="2.5" ry="2.5" style="stroke:#181818;stroke-width:0.5;" width="163" x="238" y="50"/><text fill="#000000" font-family="sans-serif" font-size="14" lengthAdjust="spacing" textLength="149" x="245" y="71.5332">:RegisterGreenSpaceUI</text><rect fill="#E3E3E3" height="31.6094" rx="2.5" ry="2.5" style="stroke:#181818;stroke-width:0.5;" width="163" x="238" y="1151.6719"/><text fill="#000000" font-family="sans-serif" font-size="14" lengthAdjust="spacing" textLength="149" x="245" y="1173.2051">:RegisterGreenSpaceUI</text><rect fill="#E3E3E3" height="31.6094" rx="2.5" ry="2.5" style="stroke:#181818;stroke-width:0.5;" width="213" x="508" y="1151.6719"/><text fill="#000000" font-family="sans-serif" font-size="14" lengthAdjust="spacing" textLength="199" x="515" y="1173.2051">:RegisterGreenSpaceController</text><rect fill="#E3E3E3" height="31.6094" rx="2.5" ry="2.5" style="stroke:#181818;stroke-width:0.5;" width="97" x="731" y="50"/><text fill="#000000" font-family="sans-serif" font-size="14" lengthAdjust="spacing" textLength="83" x="738" y="71.5332">:Repositories</text><rect fill="#E3E3E3" height="31.6094" rx="2.5" ry="2.5" style="stroke:#181818;stroke-width:0.5;" width="97" x="731" y="1151.6719"/><text fill="#000000" font-family="sans-serif" font-size="14" lengthAdjust="spacing" textLength="83" x="738" y="1173.2051">:Repositories</text><rect fill="#E3E3E3" height="49.2188" rx="2.5" ry="2.5" style="stroke:#181818;stroke-width:0.5;" width="97" x="838" y="32.3906"/><text fill="#000000" font-family="sans-serif" font-size="14" lengthAdjust="spacing" textLength="74" x="849.5" y="53.9238">repositories</text><text fill="#000000" font-family="sans-serif" font-size="14" lengthAdjust="spacing" textLength="83" x="845" y="71.5332">:Repositories</text><rect fill="#E3E3E3" height="49.2188" rx="2.5" ry="2.5" style="stroke:#181818;stroke-width:0.5;" width="97" x="838" y="1151.6719"/><text fill="#000000" font-family="sans-serif" font-size="14" lengthAdjust="spacing" textLength="74" x="849.5" y="1173.2051">repositories</text><text fill="#000000" font-family="sans-serif" font-size="14" lengthAdjust="spacing" textLength="83" x="845" y="1190.8145">:Repositories</text><rect fill="#E3E3E3" height="49.2188" rx="2.5" ry="2.5" style="stroke:#181818;stroke-width:0.5;" width="163" x="945" y="32.3906"/><text fill="#000000" font-family="sans-serif" font-size="14" lengthAdjust="spacing" textLength="149" x="952" y="53.9238">greenSpaceRepository:</text><text fill="#000000" font-family="sans-serif" font-size="14" lengthAdjust="spacing" textLength="148" x="952.5" y="71.5332">GreenSpaceRepository</text><rect fill="#E3E3E3" height="49.2188" rx="2.5" ry="2.5" style="stroke:#181818;stroke-width:0.5;" width="163" x="945" y="1151.6719"/><text fill="#000000" font-family="sans-serif" font-size="14" lengthAdjust="spacing" textLength="149" x="952" y="1173.2051">greenSpaceRepository:</text><text fill="#000000" font-family="sans-serif" font-size="14" lengthAdjust="spacing" textLength="148" x="952.5" y="1190.8145">GreenSpaceRepository</text><rect fill="#E3E3E3" height="31.6094" rx="2.5" ry="2.5" style="stroke:#181818;stroke-width:0.5;" width="98" x="1327.5" y="1151.6719"/><text fill="#000000" font-family="sans-serif" font-size="14" lengthAdjust="spacing" textLength="84" x="1334.5" y="1173.2051">:GreenSpace</text><rect fill="#FFFFFF" height="1042.0625" style="stroke:#181818;stroke-width:1.0;" width="10" x="18.5" y="92.6094"/><rect fill="#FFFFFF" height="210.7188" style="stroke:#181818;stroke-width:1.0;" width="10" x="314.5" y="114.9609"/><rect fill="#FFFFFF" height="30.3516" style="stroke:#181818;stroke-width:1.0;" width="10" x="314.5" y="356.0313"/><rect fill="#FFFFFF" height="46.7031" style="stroke:#181818;stroke-width:1.0;" width="10" x="314.5" y="416.7344"/><rect fill="#FFFFFF" height="30.3516" style="stroke:#181818;stroke-width:1.0;" width="10" x="314.5" y="1104.3203"/><rect fill="#FFFFFF" height="123.6641" style="stroke:#181818;stroke-width:1.0;" width="10" x="609.5" y="155.3125"/><rect fill="#FFFFFF" height="30.3516" style="stroke:#181818;stroke-width:1.0;" width="10" x="609.5" y="463.4375"/><rect fill="#FFFFFF" height="30.3516" style="stroke:#181818;stroke-width:1.0;" width="10" x="609.5" y="1073.9688"/><rect fill="#FFFFFF" height="30.3516" style="stroke:#181818;stroke-width:1.0;" width="10" x="774.5" y="187.9219"/><rect fill="#FFFFFF" height="30.3516" style="stroke:#181818;stroke-width:1.0;" width="10" x="881.5" y="248.625"/><rect fill="#FFFFFF" height="580.1797" style="stroke:#181818;stroke-width:1.0;" width="10" x="1021.5" y="493.7891"/><rect fill="#FFFFFF" height="128.0547" style="stroke:#181818;stroke-width:1.0;" width="10" x="1026.5" y="908.5625"/><rect fill="#FFFFFF" height="41.3516" style="stroke:#181818;stroke-width:1.0;" width="10" x="1031.5" y="951.9141"/><rect fill="#FFFFFF" height="336.0703" style="stroke:#181818;stroke-width:1.0;" width="10" x="1371.5" y="534.1406"/><rect fill="#FFFFFF" height="41.3516" style="stroke:#181818;stroke-width:1.0;" width="10" x="1376.5" y="574.75"/><rect fill="#FFFFFF" height="41.3516" style="stroke:#181818;stroke-width:1.0;" width="10" x="1376.5" y="661.4531"/><polygon fill="#181818" points="302.5,110.9609,312.5,114.9609,302.5,118.9609,306.5,114.9609" style="stroke:#181818;stroke-width:1.0;"/><line style="stroke:#181818;stroke-width:1.0;" x1="28.5" x2="308.5" y1="114.9609" y2="114.9609"/><text fill="#000000" font-family="sans-serif" font-size="13" font-weight="bold" lengthAdjust="spacing" textLength="7" x="35.5" y="110.1045">1</text><text fill="#000000" font-family="sans-serif" font-size="13" lengthAdjust="spacing" textLength="209" x="46.5" y="110.1045">wants to register a new green space</text><polygon fill="#181818" points="496,141.3125,506,145.3125,496,149.3125,500,145.3125" style="stroke:#181818;stroke-width:1.0;"/><line style="stroke:#181818;stroke-width:1.0;" x1="324.5" x2="502" y1="145.3125" y2="145.3125"/><text fill="#000000" font-family="sans-serif" font-size="13" font-weight="bold" lengthAdjust="spacing" textLength="7" x="331.5" y="140.4561">2</text><text fill="#000000" font-family="sans-serif" font-size="13" lengthAdjust="spacing" textLength="36" x="342.5" y="140.4561">create</text><rect fill="#E3E3E3" height="31.6094" rx="2.5" ry="2.5" style="stroke:#181818;stroke-width:0.5;" width="213" x="508" y="122.9609"/><text fill="#000000" font-family="sans-serif" font-size="14" lengthAdjust="spacing" textLength="199" x="515" y="144.4941">:RegisterGreenSpaceController</text><polygon fill="#181818" points="762.5,183.9219,772.5,187.9219,762.5,191.9219,766.5,187.9219" style="stroke:#181818;stroke-width:1.0;"/><line style="stroke:#181818;stroke-width:1.0;" x1="619.5" x2="768.5" y1="187.9219" y2="187.9219"/><text fill="#000000" font-family="sans-serif" font-size="13" font-weight="bold" lengthAdjust="spacing" textLength="7" x="626.5" y="183.0654">3</text><text fill="#000000" font-family="sans-serif" font-size="13" lengthAdjust="spacing" textLength="75" x="637.5" y="183.0654">getInstance()</text><polygon fill="#181818" points="630.5,214.2734,620.5,218.2734,630.5,222.2734,626.5,218.2734" style="stroke:#181818;stroke-width:1.0;"/><line style="stroke:#181818;stroke-width:1.0;stroke-dasharray:2.0,2.0;" x1="624.5" x2="778.5" y1="218.2734" y2="218.2734"/><text fill="#000000" font-family="sans-serif" font-size="13" font-weight="bold" lengthAdjust="spacing" textLength="7" x="636.5" y="213.417">4</text><text fill="#000000" font-family="sans-serif" font-size="13" lengthAdjust="spacing" textLength="67" x="647.5" y="213.417">repositories</text><polygon fill="#181818" points="869.5,244.625,879.5,248.625,869.5,252.625,873.5,248.625" style="stroke:#181818;stroke-width:1.0;"/><line style="stroke:#181818;stroke-width:1.0;" x1="619.5" x2="875.5" y1="248.625" y2="248.625"/><text fill="#000000" font-family="sans-serif" font-size="13" font-weight="bold" lengthAdjust="spacing" textLength="7" x="626.5" y="243.7686">5</text><text fill="#000000" font-family="sans-serif" font-size="13" lengthAdjust="spacing" textLength="160" x="637.5" y="243.7686">getGreenSpaceRepository()</text><polygon fill="#181818" points="625.5,274.9766,615.5,278.9766,625.5,282.9766,621.5,278.9766" style="stroke:#181818;stroke-width:1.0;"/><line style="stroke:#181818;stroke-width:1.0;stroke-dasharray:2.0,2.0;" x1="619.5" x2="885.5" y1="278.9766" y2="278.9766"/><text fill="#000000" font-family="sans-serif" font-size="13" font-weight="bold" lengthAdjust="spacing" textLength="7" x="631.5" y="274.1201">6</text><text fill="#000000" font-family="sans-serif" font-size="13" lengthAdjust="spacing" textLength="131" x="642.5" y="274.1201">greenSpaceRepository</text><polygon fill="#181818" points="39.5,321.6797,29.5,325.6797,39.5,329.6797,35.5,325.6797" style="stroke:#181818;stroke-width:1.0;"/><line style="stroke:#181818;stroke-width:1.0;stroke-dasharray:2.0,2.0;" x1="33.5" x2="318.5" y1="325.6797" y2="325.6797"/><text fill="#000000" font-family="sans-serif" font-size="13" font-weight="bold" lengthAdjust="spacing" textLength="7" x="45.5" y="312.6475">7</text><text fill="#000000" font-family="sans-serif" font-size="13" lengthAdjust="spacing" textLength="247" x="56.5" y="304.4717">requests data (name, type, area, manager,</text><text fill="#000000" font-family="sans-serif" font-size="13" lengthAdjust="spacing" textLength="181" x="56.5" y="320.8232">address (street, zip-code, city))</text><polygon fill="#181818" points="302.5,352.0313,312.5,356.0313,302.5,360.0313,306.5,356.0313" style="stroke:#181818;stroke-width:1.0;"/><line style="stroke:#181818;stroke-width:1.0;" x1="28.5" x2="308.5" y1="356.0313" y2="356.0313"/><text fill="#000000" font-family="sans-serif" font-size="13" font-weight="bold" lengthAdjust="spacing" textLength="7" x="35.5" y="351.1748">8</text><text fill="#000000" font-family="sans-serif" font-size="13" lengthAdjust="spacing" textLength="209" x="46.5" y="351.1748">the user enters and selects the data</text><polygon fill="#181818" points="39.5,382.3828,29.5,386.3828,39.5,390.3828,35.5,386.3828" style="stroke:#181818;stroke-width:1.0;"/><line style="stroke:#181818;stroke-width:1.0;" x1="33.5" x2="318.5" y1="386.3828" y2="386.3828"/><text fill="#000000" font-family="sans-serif" font-size="13" font-weight="bold" lengthAdjust="spacing" textLength="7" x="45.5" y="381.5264">9</text><text fill="#000000" font-family="sans-serif" font-size="13" lengthAdjust="spacing" textLength="219" x="56.5" y="381.5264">shows data and requests confirmation</text><polygon fill="#181818" points="302.5,412.7344,312.5,416.7344,302.5,420.7344,306.5,416.7344" style="stroke:#181818;stroke-width:1.0;"/><line style="stroke:#181818;stroke-width:1.0;" x1="28.5" x2="308.5" y1="416.7344" y2="416.7344"/><text fill="#000000" font-family="sans-serif" font-size="13" font-weight="bold" lengthAdjust="spacing" textLength="14" x="35.5" y="411.8779">10</text><text fill="#000000" font-family="sans-serif" font-size="13" lengthAdjust="spacing" textLength="78" x="53.5" y="411.8779">user confirms</text><polygon fill="#181818" points="597.5,459.4375,607.5,463.4375,597.5,467.4375,601.5,463.4375" style="stroke:#181818;stroke-width:1.0;"/><line style="stroke:#181818;stroke-width:1.0;" x1="319.5" x2="603.5" y1="463.4375" y2="463.4375"/><text fill="#000000" font-family="sans-serif" font-size="13" font-weight="bold" lengthAdjust="spacing" textLength="14" x="326.5" y="450.4053">11</text><text fill="#000000" font-family="sans-serif" font-size="13" lengthAdjust="spacing" textLength="244" x="344.5" y="442.2295">createNewGS(name, type, area, manager,</text><text fill="#000000" font-family="sans-serif" font-size="13" lengthAdjust="spacing" textLength="181" x="344.5" y="458.5811">address (street, zip-code, city))</text><polygon fill="#181818" points="1009.5,489.7891,1019.5,493.7891,1009.5,497.7891,1013.5,493.7891" style="stroke:#181818;stroke-width:1.0;"/><line style="stroke:#181818;stroke-width:1.0;" x1="614.5" x2="1015.5" y1="493.7891" y2="493.7891"/><text fill="#000000" font-family="sans-serif" font-size="13" font-weight="bold" lengthAdjust="spacing" textLength="14" x="621.5" y="488.9326">12</text><text fill="#000000" font-family="sans-serif" font-size="13" lengthAdjust="spacing" textLength="298" x="639.5" y="488.9326">createNewGS(name, type, area, manager, address)</text><polygon fill="#181818" points="1315.5,520.1406,1325.5,524.1406,1315.5,528.1406,1319.5,524.1406" style="stroke:#181818;stroke-width:1.0;"/><line style="stroke:#181818;stroke-width:1.0;" x1="1031.5" x2="1321.5" y1="524.1406" y2="524.1406"/><text fill="#000000" font-family="sans-serif" font-size="13" font-weight="bold" lengthAdjust="spacing" textLength="14" x="1038.5" y="519.2842">13</text><text fill="#000000" font-family="sans-serif" font-size="13" lengthAdjust="spacing" textLength="254" x="1056.5" y="519.2842">create(name, type, area, manager, address)</text><rect fill="#E3E3E3" height="31.6094" rx="2.5" ry="2.5" style="stroke:#181818;stroke-width:0.5;" width="98" x="1327.5" y="501.7891"/><text fill="#000000" font-family="sans-serif" font-size="14" lengthAdjust="spacing" textLength="84" x="1334.5" y="523.3223">:GreenSpace</text><line style="stroke:#181818;stroke-width:1.0;" x1="1381.5" x2="1428.5" y1="561.75" y2="561.75"/><line style="stroke:#181818;stroke-width:1.0;" x1="1428.5" x2="1428.5" y1="561.75" y2="574.75"/><line style="stroke:#181818;stroke-width:1.0;" x1="1387.5" x2="1428.5" y1="574.75" y2="574.75"/><polygon fill="#181818" points="1397.5,570.75,1387.5,574.75,1397.5,578.75,1393.5,574.75" style="stroke:#181818;stroke-width:1.0;"/><text fill="#000000" font-family="sans-serif" font-size="13" font-weight="bold" lengthAdjust="spacing" textLength="14" x="1393.5" y="556.8936">14</text><text fill="#000000" font-family="sans-serif" font-size="13" lengthAdjust="spacing" textLength="78" x="1411.5" y="556.8936">setArea(area)</text><line style="stroke:#181818;stroke-width:1.0;stroke-dasharray:2.0,2.0;" x1="1386.5" x2="1428.5" y1="615.1016" y2="615.1016"/><line style="stroke:#181818;stroke-width:1.0;stroke-dasharray:2.0,2.0;" x1="1428.5" x2="1428.5" y1="615.1016" y2="628.1016"/><line style="stroke:#181818;stroke-width:1.0;stroke-dasharray:2.0,2.0;" x1="1381.5" x2="1428.5" y1="628.1016" y2="628.1016"/><polygon fill="#181818" points="1391.5,624.1016,1381.5,628.1016,1391.5,632.1016,1387.5,628.1016" style="stroke:#181818;stroke-width:1.0;"/><text fill="#000000" font-family="sans-serif" font-size="13" font-weight="bold" lengthAdjust="spacing" textLength="14" x="1393.5" y="610.2451">15</text><text fill="#000000" font-family="sans-serif" font-size="13" lengthAdjust="spacing" textLength="4" x="1411.5" y="610.2451"> </text><line style="stroke:#181818;stroke-width:1.0;" x1="1381.5" x2="1428.5" y1="648.4531" y2="648.4531"/><line style="stroke:#181818;stroke-width:1.0;" x1="1428.5" x2="1428.5" y1="648.4531" y2="661.4531"/><line style="stroke:#181818;stroke-width:1.0;" x1="1387.5" x2="1428.5" y1="661.4531" y2="661.4531"/><polygon fill="#181818" points="1397.5,657.4531,1387.5,661.4531,1397.5,665.4531,1393.5,661.4531" style="stroke:#181818;stroke-width:1.0;"/><text fill="#000000" font-family="sans-serif" font-size="13" font-weight="bold" lengthAdjust="spacing" textLength="14" x="1393.5" y="643.5967">16</text><text fill="#000000" font-family="sans-serif" font-size="13" lengthAdjust="spacing" textLength="85" x="1411.5" y="643.5967">setName(area)</text><line style="stroke:#181818;stroke-width:1.0;stroke-dasharray:2.0,2.0;" x1="1386.5" x2="1428.5" y1="701.8047" y2="701.8047"/><line style="stroke:#181818;stroke-width:1.0;stroke-dasharray:2.0,2.0;" x1="1428.5" x2="1428.5" y1="701.8047" y2="714.8047"/><line style="stroke:#181818;stroke-width:1.0;stroke-dasharray:2.0,2.0;" x1="1381.5" x2="1428.5" y1="714.8047" y2="714.8047"/><polygon fill="#181818" points="1391.5,710.8047,1381.5,714.8047,1391.5,718.8047,1387.5,714.8047" style="stroke:#181818;stroke-width:1.0;"/><text fill="#000000" font-family="sans-serif" font-size="13" font-weight="bold" lengthAdjust="spacing" textLength="14" x="1393.5" y="696.9482">17</text><text fill="#000000" font-family="sans-serif" font-size="13" lengthAdjust="spacing" textLength="4" x="1411.5" y="696.9482"> </text><line style="stroke:#181818;stroke-width:1.0;" x1="1381.5" x2="1423.5" y1="740.1563" y2="740.1563"/><line style="stroke:#181818;stroke-width:1.0;" x1="1423.5" x2="1423.5" y1="740.1563" y2="753.1563"/><line style="stroke:#181818;stroke-width:1.0;" x1="1382.5" x2="1423.5" y1="753.1563" y2="753.1563"/><polygon fill="#181818" points="1392.5,749.1563,1382.5,753.1563,1392.5,757.1563,1388.5,753.1563" style="stroke:#181818;stroke-width:1.0;"/><text fill="#000000" font-family="sans-serif" font-size="13" font-weight="bold" lengthAdjust="spacing" textLength="14" x="1388.5" y="735.2998">18</text><text fill="#000000" font-family="sans-serif" font-size="13" lengthAdjust="spacing" textLength="91" x="1406.5" y="735.2998">this.type = type</text><line style="stroke:#181818;stroke-width:1.0;" x1="1381.5" x2="1423.5" y1="783.5078" y2="783.5078"/><line style="stroke:#181818;stroke-width:1.0;" x1="1423.5" x2="1423.5" y1="783.5078" y2="796.5078"/><line style="stroke:#181818;stroke-width:1.0;" x1="1382.5" x2="1423.5" y1="796.5078" y2="796.5078"/><polygon fill="#181818" points="1392.5,792.5078,1382.5,796.5078,1392.5,800.5078,1388.5,796.5078" style="stroke:#181818;stroke-width:1.0;"/><text fill="#000000" font-family="sans-serif" font-size="13" font-weight="bold" lengthAdjust="spacing" textLength="14" x="1388.5" y="778.6514">19</text><text fill="#000000" font-family="sans-serif" font-size="13" lengthAdjust="spacing" textLength="141" x="1406.5" y="778.6514">this.manager = manager</text><line style="stroke:#181818;stroke-width:1.0;" x1="1381.5" x2="1423.5" y1="826.8594" y2="826.8594"/><line style="stroke:#181818;stroke-width:1.0;" x1="1423.5" x2="1423.5" y1="826.8594" y2="839.8594"/><line style="stroke:#181818;stroke-width:1.0;" x1="1382.5" x2="1423.5" y1="839.8594" y2="839.8594"/><polygon fill="#181818" points="1392.5,835.8594,1382.5,839.8594,1392.5,843.8594,1388.5,839.8594" style="stroke:#181818;stroke-width:1.0;"/><text fill="#000000" font-family="sans-serif" font-size="13" font-weight="bold" lengthAdjust="spacing" textLength="14" x="1388.5" y="822.0029">20</text><text fill="#000000" font-family="sans-serif" font-size="13" lengthAdjust="spacing" textLength="133" x="1406.5" y="822.0029">this.address = address</text><polygon fill="#181818" points="1042.5,866.2109,1032.5,870.2109,1042.5,874.2109,1038.5,870.2109" style="stroke:#181818;stroke-width:1.0;"/><line style="stroke:#181818;stroke-width:1.0;stroke-dasharray:2.0,2.0;" x1="1036.5" x2="1375.5" y1="870.2109" y2="870.2109"/><text fill="#000000" font-family="sans-serif" font-size="13" font-weight="bold" lengthAdjust="spacing" textLength="14" x="1048.5" y="865.3545">21</text><text fill="#000000" font-family="sans-serif" font-size="13" lengthAdjust="spacing" textLength="69" x="1066.5" y="865.3545">greenSpace</text><line style="stroke:#181818;stroke-width:1.0;" x1="1031.5" x2="1078.5" y1="895.5625" y2="895.5625"/><line style="stroke:#181818;stroke-width:1.0;" x1="1078.5" x2="1078.5" y1="895.5625" y2="908.5625"/><line style="stroke:#181818;stroke-width:1.0;" x1="1037.5" x2="1078.5" y1="908.5625" y2="908.5625"/><polygon fill="#181818" points="1047.5,904.5625,1037.5,908.5625,1047.5,912.5625,1043.5,908.5625" style="stroke:#181818;stroke-width:1.0;"/><text fill="#000000" font-family="sans-serif" font-size="13" font-weight="bold" lengthAdjust="spacing" textLength="14" x="1043.5" y="890.7061">22</text><text fill="#000000" font-family="sans-serif" font-size="13" lengthAdjust="spacing" textLength="192" x="1061.5" y="890.7061">checkForDuplicates(greenSpace)</text><line style="stroke:#181818;stroke-width:1.0;" x1="1036.5" x2="1083.5" y1="938.9141" y2="938.9141"/><line style="stroke:#181818;stroke-width:1.0;" x1="1083.5" x2="1083.5" y1="938.9141" y2="951.9141"/><line style="stroke:#181818;stroke-width:1.0;" x1="1042.5" x2="1083.5" y1="951.9141" y2="951.9141"/><polygon fill="#181818" points="1052.5,947.9141,1042.5,951.9141,1052.5,955.9141,1048.5,951.9141" style="stroke:#181818;stroke-width:1.0;"/><text fill="#000000" font-family="sans-serif" font-size="13" font-weight="bold" lengthAdjust="spacing" textLength="14" x="1048.5" y="934.0576">23</text><text fill="#000000" font-family="sans-serif" font-size="13" lengthAdjust="spacing" textLength="170" x="1066.5" y="934.0576">addGreenSpace(greenSpace)</text><line style="stroke:#181818;stroke-width:1.0;stroke-dasharray:2.0,2.0;" x1="1041.5" x2="1083.5" y1="992.2656" y2="992.2656"/><line style="stroke:#181818;stroke-width:1.0;stroke-dasharray:2.0,2.0;" x1="1083.5" x2="1083.5" y1="992.2656" y2="1005.2656"/><line style="stroke:#181818;stroke-width:1.0;stroke-dasharray:2.0,2.0;" x1="1036.5" x2="1083.5" y1="1005.2656" y2="1005.2656"/><polygon fill="#181818" points="1046.5,1001.2656,1036.5,1005.2656,1046.5,1009.2656,1042.5,1005.2656" style="stroke:#181818;stroke-width:1.0;"/><text fill="#000000" font-family="sans-serif" font-size="13" font-weight="bold" lengthAdjust="spacing" textLength="14" x="1048.5" y="987.4092">24</text><text fill="#000000" font-family="sans-serif" font-size="13" lengthAdjust="spacing" textLength="4" x="1066.5" y="987.4092"> </text><line style="stroke:#181818;stroke-width:1.0;stroke-dasharray:2.0,2.0;" x1="1036.5" x2="1078.5" y1="1035.6172" y2="1035.6172"/><line style="stroke:#181818;stroke-width:1.0;stroke-dasharray:2.0,2.0;" x1="1078.5" x2="1078.5" y1="1035.6172" y2="1048.6172"/><line style="stroke:#181818;stroke-width:1.0;stroke-dasharray:2.0,2.0;" x1="1031.5" x2="1078.5" y1="1048.6172" y2="1048.6172"/><polygon fill="#181818" points="1041.5,1044.6172,1031.5,1048.6172,1041.5,1052.6172,1037.5,1048.6172" style="stroke:#181818;stroke-width:1.0;"/><text fill="#000000" font-family="sans-serif" font-size="13" font-weight="bold" lengthAdjust="spacing" textLength="14" x="1043.5" y="1030.7607">25</text><text fill="#000000" font-family="sans-serif" font-size="13" lengthAdjust="spacing" textLength="4" x="1061.5" y="1030.7607"> </text><polygon fill="#181818" points="630.5,1069.9688,620.5,1073.9688,630.5,1077.9688,626.5,1073.9688" style="stroke:#181818;stroke-width:1.0;"/><line style="stroke:#181818;stroke-width:1.0;stroke-dasharray:2.0,2.0;" x1="624.5" x2="1025.5" y1="1073.9688" y2="1073.9688"/><text fill="#000000" font-family="sans-serif" font-size="13" font-weight="bold" lengthAdjust="spacing" textLength="14" x="636.5" y="1069.1123">26</text><text fill="#000000" font-family="sans-serif" font-size="13" lengthAdjust="spacing" textLength="49" x="654.5" y="1069.1123">success</text><polygon fill="#181818" points="335.5,1100.3203,325.5,1104.3203,335.5,1108.3203,331.5,1104.3203" style="stroke:#181818;stroke-width:1.0;"/><line style="stroke:#181818;stroke-width:1.0;stroke-dasharray:2.0,2.0;" x1="329.5" x2="613.5" y1="1104.3203" y2="1104.3203"/><text fill="#000000" font-family="sans-serif" font-size="13" font-weight="bold" lengthAdjust="spacing" textLength="14" x="341.5" y="1099.4639">27</text><text fill="#000000" font-family="sans-serif" font-size="13" lengthAdjust="spacing" textLength="49" x="359.5" y="1099.4639">success</text><polygon fill="#181818" points="34.5,1130.6719,24.5,1134.6719,34.5,1138.6719,30.5,1134.6719" style="stroke:#181818;stroke-width:1.0;"/><line style="stroke:#181818;stroke-width:1.0;stroke-dasharray:2.0,2.0;" x1="28.5" x2="318.5" y1="1134.6719" y2="1134.6719"/><text fill="#000000" font-family="sans-serif" font-size="13" font-weight="bold" lengthAdjust="spacing" textLength="14" x="40.5" y="1129.8154">28</text><text fill="#000000" font-family="sans-serif" font-size="13" lengthAdjust="spacing" textLength="158" x="58.5" y="1129.8154">displays success message</text><!--SRC=[fLJBRjim4BphAnQvr0hi8kZHG0842MeOI88YYc-vCDH69YAHAfUguNvzbvGiqPQQfgqEUd5cTpJ35RqfNGihAgYCDd9hJONWR8C9zIkra6-YmCpjImIBqWbTb360jY8tEwKBU1KbOP9ySienDjkJmmeo_DwWbWYtIXGUFykosnGMiCaklbmaYMYSqKtrWfRlfJCMpbRP_Ha80huctCCfgMgX7Pmj7x5GNDMkBABEM1fkrW6wMVyHUMEqiwOiqGR6pTFZtOXJ6r8iGI45JFzYdod_rQpqc68ZnhCU5_XsT_rqp2XwFKFnvRDUJRmE5GhoFKw43kZEfs2T-Y4S1jCIu8DlO775pi0ITimZS8O3R6q10Hft4DG0-Kg1qrTXFyCBVt05hkFzEZ_dMj8Y8uQ6mKX_ygW9nvXIe5jhufqZSPOEp2bxfmeiklPSAJOyoV7TKWTDFeHMn9JBiQ0GLu3xbg7d4gOIYri7KlGS_8Yzur8-2o-UHu4uY5mu0JCjAfo3szTy5cpg72gXUTJi79wro7EBH30Zn_tT77wgUY5DpbYft3vD-nPHQqujJjrj4HhYi55pv0H2vq1OyWnJMFCoafYyMVTQQMjsdL1FwwLBer-LhOHJxF1lMY_RhXsKJbh0a6QxbHvmjyh-rurZATERivsbZ_VjkgQZTFkdRZgxmi6yQ4O-L3kUNBQmBU83G7VDb9ddfIDGGCMw_3_WcFt0pV-HxRQAFdlPS1dKZnUxx-3rxcw4E4HsUVZKvD2wZs6Oh1CjWvz3P5kKRr-DlMtgKad6qMoWf-yaqbTW6SFyVu3CKhldIDnV8k9V5pLIUXl6sAdTUfZX2TRn5cp7Td75qxVC5TMbsDE11HMVE9sJwJWo-pxv1G00]--></g></svg>