<?xml version="1.0" encoding="UTF-8" standalone="no"?><svg xmlns="http://www.w3.org/2000/svg" xmlns:xlink="http://www.w3.org/1999/xlink" contentStyleType="text/css" height="656px" preserveAspectRatio="none" style="width:1400px;height:656px;background:#FFFFFF;" version="1.1" viewBox="0 0 1400 656" width="1400px" zoomAndPan="magnify"><defs/><g><rect fill="#FFFFFF" height="463.7188" style="stroke:#181818;stroke-width:1.0;" width="10" x="18.5" y="92.6094"/><rect fill="#FFFFFF" height="89.3125" style="stroke:#181818;stroke-width:1.0;" width="10" x="329.5" y="114.9609"/><rect fill="#FFFFFF" height="30.3516" style="stroke:#181818;stroke-width:1.0;" width="10" x="329.5" y="234.625"/><rect fill="#FFFFFF" height="46.7031" style="stroke:#181818;stroke-width:1.0;" width="10" x="329.5" y="295.3281"/><rect fill="#FFFFFF" height="30.3516" style="stroke:#181818;stroke-width:1.0;" width="10" x="329.5" y="525.9766"/><rect fill="#FFFFFF" height="76.7969" style="stroke:#181818;stroke-width:1.0;" width="10" x="632.5" y="342.0313"/><rect fill="#FFFFFF" height="30.3516" style="stroke:#181818;stroke-width:1.0;" width="10" x="632.5" y="495.625"/><rect fill="#FFFFFF" height="76.7969" style="stroke:#181818;stroke-width:1.0;" width="10" x="985.5" y="418.8281"/><line style="stroke:#181818;stroke-width:0.5;stroke-dasharray:5.0,5.0;" x1="23" x2="23" y1="82.6094" y2="574.3281"/><line style="stroke:#181818;stroke-width:0.5;stroke-dasharray:5.0,5.0;" x1="334" x2="334" y1="82.6094" y2="574.3281"/><line style="stroke:#181818;stroke-width:0.5;stroke-dasharray:5.0,5.0;" x1="637" x2="637" y1="154.2656" y2="574.3281"/><line style="stroke:#181818;stroke-width:0.5;stroke-dasharray:5.0,5.0;" x1="990" x2="990" y1="82.6094" y2="574.3281"/><line style="stroke:#181818;stroke-width:0.5;stroke-dasharray:5.0,5.0;" x1="1130" x2="1130" y1="82.6094" y2="574.3281"/><line style="stroke:#181818;stroke-width:0.5;stroke-dasharray:5.0,5.0;" x1="1237" x2="1237" y1="82.6094" y2="574.3281"/><line style="stroke:#181818;stroke-width:0.5;stroke-dasharray:5.0,5.0;" x1="1345" x2="1345" y1="82.6094" y2="574.3281"/><text fill="#000000" font-family="sans-serif" font-size="14" lengthAdjust="spacing" textLength="31" x="5" y="79.5332">GSM</text><ellipse cx="23.5" cy="13.5" fill="#E3E3E3" rx="8" ry="8" style="stroke:#181818;stroke-width:0.5;"/><path d="M23.5,21.5 L23.5,48.5 M10.5,29.5 L36.5,29.5 M23.5,48.5 L10.5,63.5 M23.5,48.5 L36.5,63.5 " fill="none" style="stroke:#181818;stroke-width:0.5;"/><text fill="#000000" font-family="sans-serif" font-size="14" lengthAdjust="spacing" textLength="31" x="5" y="587.8613">GSM</text><ellipse cx="23.5" cy="599.4375" fill="#E3E3E3" rx="8" ry="8" style="stroke:#181818;stroke-width:0.5;"/><path d="M23.5,607.4375 L23.5,634.4375 M10.5,615.4375 L36.5,615.4375 M23.5,634.4375 L10.5,649.4375 M23.5,634.4375 L36.5,649.4375 " fill="none" style="stroke:#181818;stroke-width:0.5;"/><rect fill="#E3E3E3" height="31.6094" rx="2.5" ry="2.5" style="stroke:#181818;stroke-width:0.5;" width="163" x="253" y="50"/><text fill="#000000" font-family="sans-serif" font-size="14" lengthAdjust="spacing" textLength="149" x="260" y="71.5332">:RegisterGreenSpaceUI</text><rect fill="#E3E3E3" height="31.6094" rx="2.5" ry="2.5" style="stroke:#181818;stroke-width:0.5;" width="163" x="253" y="573.3281"/><text fill="#000000" font-family="sans-serif" font-size="14" lengthAdjust="spacing" textLength="149" x="260" y="594.8613">:RegisterGreenSpaceUI</text><rect fill="#E3E3E3" height="31.6094" rx="2.5" ry="2.5" style="stroke:#181818;stroke-width:0.5;" width="213" x="531" y="573.3281"/><text fill="#000000" font-family="sans-serif" font-size="14" lengthAdjust="spacing" textLength="199" x="538" y="594.8613">:RegisterGreenSpaceController</text><rect fill="#E3E3E3" height="49.2188" rx="2.5" ry="2.5" style="stroke:#181818;stroke-width:0.5;" width="163" x="909" y="32.3906"/><text fill="#000000" font-family="sans-serif" font-size="14" lengthAdjust="spacing" textLength="149" x="916" y="53.9238">greenSpaceRepository:</text><text fill="#000000" font-family="sans-serif" font-size="14" lengthAdjust="spacing" textLength="148" x="916.5" y="71.5332">GreenSpaceRepository</text><rect fill="#E3E3E3" height="49.2188" rx="2.5" ry="2.5" style="stroke:#181818;stroke-width:0.5;" width="163" x="909" y="573.3281"/><text fill="#000000" font-family="sans-serif" font-size="14" lengthAdjust="spacing" textLength="149" x="916" y="594.8613">greenSpaceRepository:</text><text fill="#000000" font-family="sans-serif" font-size="14" lengthAdjust="spacing" textLength="148" x="916.5" y="612.4707">GreenSpaceRepository</text><rect fill="#E3E3E3" height="31.6094" rx="2.5" ry="2.5" style="stroke:#181818;stroke-width:0.5;" width="97" x="1082" y="50"/><text fill="#000000" font-family="sans-serif" font-size="14" lengthAdjust="spacing" textLength="83" x="1089" y="71.5332">:Repositories</text><rect fill="#E3E3E3" height="31.6094" rx="2.5" ry="2.5" style="stroke:#181818;stroke-width:0.5;" width="97" x="1082" y="573.3281"/><text fill="#000000" font-family="sans-serif" font-size="14" lengthAdjust="spacing" textLength="83" x="1089" y="594.8613">:Repositories</text><rect fill="#E3E3E3" height="49.2188" rx="2.5" ry="2.5" style="stroke:#181818;stroke-width:0.5;" width="97" x="1189" y="32.3906"/><text fill="#000000" font-family="sans-serif" font-size="14" lengthAdjust="spacing" textLength="74" x="1200.5" y="53.9238">repositories</text><text fill="#000000" font-family="sans-serif" font-size="14" lengthAdjust="spacing" textLength="83" x="1196" y="71.5332">:Repositories</text><rect fill="#E3E3E3" height="49.2188" rx="2.5" ry="2.5" style="stroke:#181818;stroke-width:0.5;" width="97" x="1189" y="573.3281"/><text fill="#000000" font-family="sans-serif" font-size="14" lengthAdjust="spacing" textLength="74" x="1200.5" y="594.8613">repositories</text><text fill="#000000" font-family="sans-serif" font-size="14" lengthAdjust="spacing" textLength="83" x="1196" y="612.4707">:Repositories</text><rect fill="#E3E3E3" height="31.6094" rx="2.5" ry="2.5" style="stroke:#181818;stroke-width:0.5;" width="98" x="1296" y="50"/><text fill="#000000" font-family="sans-serif" font-size="14" lengthAdjust="spacing" textLength="84" x="1303" y="71.5332">:GreenSpace</text><rect fill="#E3E3E3" height="31.6094" rx="2.5" ry="2.5" style="stroke:#181818;stroke-width:0.5;" width="98" x="1296" y="573.3281"/><text fill="#000000" font-family="sans-serif" font-size="14" lengthAdjust="spacing" textLength="84" x="1303" y="594.8613">:GreenSpace</text><rect fill="#FFFFFF" height="463.7188" style="stroke:#181818;stroke-width:1.0;" width="10" x="18.5" y="92.6094"/><rect fill="#FFFFFF" height="89.3125" style="stroke:#181818;stroke-width:1.0;" width="10" x="329.5" y="114.9609"/><rect fill="#FFFFFF" height="30.3516" style="stroke:#181818;stroke-width:1.0;" width="10" x="329.5" y="234.625"/><rect fill="#FFFFFF" height="46.7031" style="stroke:#181818;stroke-width:1.0;" width="10" x="329.5" y="295.3281"/><rect fill="#FFFFFF" height="30.3516" style="stroke:#181818;stroke-width:1.0;" width="10" x="329.5" y="525.9766"/><rect fill="#FFFFFF" height="76.7969" style="stroke:#181818;stroke-width:1.0;" width="10" x="632.5" y="342.0313"/><rect fill="#FFFFFF" height="30.3516" style="stroke:#181818;stroke-width:1.0;" width="10" x="632.5" y="495.625"/><rect fill="#FFFFFF" height="76.7969" style="stroke:#181818;stroke-width:1.0;" width="10" x="985.5" y="418.8281"/><polygon fill="#181818" points="317.5,110.9609,327.5,114.9609,317.5,118.9609,321.5,114.9609" style="stroke:#181818;stroke-width:1.0;"/><line style="stroke:#181818;stroke-width:1.0;" x1="28.5" x2="323.5" y1="114.9609" y2="114.9609"/><text fill="#000000" font-family="sans-serif" font-size="13" font-weight="bold" lengthAdjust="spacing" textLength="7" x="35.5" y="110.1045">1</text><text fill="#000000" font-family="sans-serif" font-size="13" lengthAdjust="spacing" textLength="209" x="46.5" y="110.1045">wants to register a new green space</text><polygon fill="#181818" points="519,141.3125,529,145.3125,519,149.3125,523,145.3125" style="stroke:#181818;stroke-width:1.0;"/><line style="stroke:#181818;stroke-width:1.0;" x1="339.5" x2="525" y1="145.3125" y2="145.3125"/><text fill="#000000" font-family="sans-serif" font-size="13" font-weight="bold" lengthAdjust="spacing" textLength="7" x="346.5" y="140.4561">2</text><text fill="#000000" font-family="sans-serif" font-size="13" lengthAdjust="spacing" textLength="36" x="357.5" y="140.4561">create</text><rect fill="#E3E3E3" height="31.6094" rx="2.5" ry="2.5" style="stroke:#181818;stroke-width:0.5;" width="213" x="531" y="122.9609"/><text fill="#000000" font-family="sans-serif" font-size="14" lengthAdjust="spacing" textLength="199" x="538" y="144.4941">:RegisterGreenSpaceController</text><polygon fill="#181818" points="39.5,200.2734,29.5,204.2734,39.5,208.2734,35.5,204.2734" style="stroke:#181818;stroke-width:1.0;"/><line style="stroke:#181818;stroke-width:1.0;stroke-dasharray:2.0,2.0;" x1="33.5" x2="333.5" y1="204.2734" y2="204.2734"/><text fill="#000000" font-family="sans-serif" font-size="13" font-weight="bold" lengthAdjust="spacing" textLength="7" x="45.5" y="191.2412">3</text><text fill="#000000" font-family="sans-serif" font-size="13" lengthAdjust="spacing" textLength="262" x="56.5" y="183.0654">requests data (name, type, area, loggedUser,</text><text fill="#000000" font-family="sans-serif" font-size="13" lengthAdjust="spacing" textLength="194" x="56.5" y="199.417">address (address, zip-code, city))</text><polygon fill="#181818" points="317.5,230.625,327.5,234.625,317.5,238.625,321.5,234.625" style="stroke:#181818;stroke-width:1.0;"/><line style="stroke:#181818;stroke-width:1.0;" x1="28.5" x2="323.5" y1="234.625" y2="234.625"/><text fill="#000000" font-family="sans-serif" font-size="13" font-weight="bold" lengthAdjust="spacing" textLength="7" x="35.5" y="229.7686">4</text><text fill="#000000" font-family="sans-serif" font-size="13" lengthAdjust="spacing" textLength="209" x="46.5" y="229.7686">the user enters and selects the data</text><polygon fill="#181818" points="39.5,260.9766,29.5,264.9766,39.5,268.9766,35.5,264.9766" style="stroke:#181818;stroke-width:1.0;"/><line style="stroke:#181818;stroke-width:1.0;" x1="33.5" x2="333.5" y1="264.9766" y2="264.9766"/><text fill="#000000" font-family="sans-serif" font-size="13" font-weight="bold" lengthAdjust="spacing" textLength="7" x="45.5" y="260.1201">5</text><text fill="#000000" font-family="sans-serif" font-size="13" lengthAdjust="spacing" textLength="219" x="56.5" y="260.1201">shows data and requests confirmation</text><polygon fill="#181818" points="317.5,291.3281,327.5,295.3281,317.5,299.3281,321.5,295.3281" style="stroke:#181818;stroke-width:1.0;"/><line style="stroke:#181818;stroke-width:1.0;" x1="28.5" x2="323.5" y1="295.3281" y2="295.3281"/><text fill="#000000" font-family="sans-serif" font-size="13" font-weight="bold" lengthAdjust="spacing" textLength="7" x="35.5" y="290.4717">6</text><text fill="#000000" font-family="sans-serif" font-size="13" lengthAdjust="spacing" textLength="78" x="46.5" y="290.4717">user confirms</text><polygon fill="#181818" points="620.5,338.0313,630.5,342.0313,620.5,346.0313,624.5,342.0313" style="stroke:#181818;stroke-width:1.0;"/><line style="stroke:#181818;stroke-width:1.0;" x1="334.5" x2="626.5" y1="342.0313" y2="342.0313"/><text fill="#000000" font-family="sans-serif" font-size="13" font-weight="bold" lengthAdjust="spacing" textLength="7" x="341.5" y="328.999">7</text><text fill="#000000" font-family="sans-serif" font-size="13" lengthAdjust="spacing" textLength="259" x="352.5" y="320.8232">createNewGS(name, type, area, loggedUser,</text><text fill="#000000" font-family="sans-serif" font-size="13" lengthAdjust="spacing" textLength="194" x="352.5" y="337.1748">address (address, zip-code, city))</text><rect fill="none" height="41.4453" style="stroke:#000000;stroke-width:1.5;" width="219" x="528" y="350.0313"/><path d="M528,350.0313 L590,350.0313 L590,358.0313 L580,368.0313 L528,368.0313 L528,350.0313 " fill="#EEEEEE" style="stroke:#000000;stroke-width:2.0;"/><text fill="#000000" font-family="sans-serif" font-size="13" font-weight="bold" lengthAdjust="spacing" textLength="17" x="541" y="365.5264">ref</text><text fill="#000000" font-family="sans-serif" font-size="12" lengthAdjust="spacing" textLength="156" x="559.5" y="384.4883">Get Green Space Repository</text><polygon fill="#181818" points="973.5,414.8281,983.5,418.8281,973.5,422.8281,977.5,418.8281" style="stroke:#181818;stroke-width:1.0;"/><line style="stroke:#181818;stroke-width:1.0;" x1="637.5" x2="979.5" y1="418.8281" y2="418.8281"/><text fill="#000000" font-family="sans-serif" font-size="13" font-weight="bold" lengthAdjust="spacing" textLength="7" x="644.5" y="413.9717">8</text><text fill="#000000" font-family="sans-serif" font-size="13" lengthAdjust="spacing" textLength="313" x="655.5" y="413.9717">createNewGS(name, type, area, loggedUser, address)</text><rect fill="none" height="41.4453" style="stroke:#000000;stroke-width:1.5;" width="169" x="906" y="426.8281"/><path d="M906,426.8281 L968,426.8281 L968,434.8281 L958,444.8281 L906,444.8281 L906,426.8281 " fill="#EEEEEE" style="stroke:#000000;stroke-width:2.0;"/><text fill="#000000" font-family="sans-serif" font-size="13" font-weight="bold" lengthAdjust="spacing" textLength="17" x="919" y="442.3232">ref</text><text fill="#000000" font-family="sans-serif" font-size="12" lengthAdjust="spacing" textLength="122" x="929.5" y="461.2852">Register Green Space</text><polygon fill="#181818" points="653.5,491.625,643.5,495.625,653.5,499.625,649.5,495.625" style="stroke:#181818;stroke-width:1.0;"/><line style="stroke:#181818;stroke-width:1.0;stroke-dasharray:2.0,2.0;" x1="647.5" x2="989.5" y1="495.625" y2="495.625"/><text fill="#000000" font-family="sans-serif" font-size="13" font-weight="bold" lengthAdjust="spacing" textLength="7" x="659.5" y="490.7686">9</text><text fill="#000000" font-family="sans-serif" font-size="13" lengthAdjust="spacing" textLength="69" x="670.5" y="490.7686">greenSpace</text><polygon fill="#181818" points="350.5,521.9766,340.5,525.9766,350.5,529.9766,346.5,525.9766" style="stroke:#181818;stroke-width:1.0;"/><line style="stroke:#181818;stroke-width:1.0;stroke-dasharray:2.0,2.0;" x1="344.5" x2="636.5" y1="525.9766" y2="525.9766"/><text fill="#000000" font-family="sans-serif" font-size="13" font-weight="bold" lengthAdjust="spacing" textLength="14" x="356.5" y="521.1201">10</text><text fill="#000000" font-family="sans-serif" font-size="13" lengthAdjust="spacing" textLength="49" x="374.5" y="521.1201">success</text><polygon fill="#181818" points="34.5,552.3281,24.5,556.3281,34.5,560.3281,30.5,556.3281" style="stroke:#181818;stroke-width:1.0;"/><line style="stroke:#181818;stroke-width:1.0;stroke-dasharray:2.0,2.0;" x1="28.5" x2="333.5" y1="556.3281" y2="556.3281"/><text fill="#000000" font-family="sans-serif" font-size="13" font-weight="bold" lengthAdjust="spacing" textLength="14" x="40.5" y="551.4717">11</text><text fill="#000000" font-family="sans-serif" font-size="13" lengthAdjust="spacing" textLength="158" x="58.5" y="551.4717">displays success message</text><!--SRC=[hLHDYzim4BtxLmovD5aIM7hqOQ7iGWXiIudNjrocyiGHQqkkHbxZ_lgE5KUnirrAeJxO-fWtxytJoFogJOCEQwYjiUhaR4tWNKi9nvq6rIkMbFc-8d2aF9gocWRm2GlRQLF24Ikc9FdajPVOh6TFDMJqioMZ29uqbaFyCikULh21FBl_V9yas7fhsle7EHahRnqijjdN1I23V1FXy5hf1es7HRgdKajMjtL49XDfbEz2QBxxQ-IZDTxPgY8N48yl- -SvfeoXUseiQz7IfmUp_SDoo52oauLtl6EC9WvHLr2c1-UasZd4JH07ypx1z-SlBpSaLqcZJy4w_OQUWca9o2C3s3o8Cv129pW6R-K0pxO0Wg4EGid0GwQ0YLd4px0mF991yWn-tTr9BkL88kRRiZ_GfP9VJfk5gq2Fi3HOqnfytyWR1RU6ofOb5JcJMyF1O54uOeRbE5Z3Bzrib2qaNcdVhrQHfg2fk6bn_aJGIa8W8vKne2c0gP9MvR0tI4ccu7mNzVB9TgFO0HRbAskEsjNejHpN1zJfcNKCvHkAYsVHiM_KRRF_uSXSJXo7XdPq1Ficgi9iInv2hq1ebaal9XIgFIP1eaWzD_C_YHqLpWG5sZWRRqWKDSulTtEgBGeQXMokzbtlvPHfp3LdFbTpQGnkbHA17-ixzyBcGOuqBJGt5VPyGK4jB_dntTWzcGqtxJS0]--></g></svg>