<?xml version="1.0" encoding="UTF-8" standalone="no"?><svg xmlns="http://www.w3.org/2000/svg" xmlns:xlink="http://www.w3.org/1999/xlink" contentStyleType="text/css" height="1838px" preserveAspectRatio="none" style="width:2357px;height:1838px;background:#FFFFFF;" version="1.1" viewBox="0 0 2357 1838" width="2357px" zoomAndPan="magnify"><defs/><g><rect fill="#FFFFFF" height="1645.7344" style="stroke:#181818;stroke-width:1.0;" width="10" x="18.5" y="92.6094"/><rect fill="#FFFFFF" height="469.0469" style="stroke:#181818;stroke-width:1.0;" width="10" x="404.5" y="114.9609"/><rect fill="#FFFFFF" height="305.0313" style="stroke:#181818;stroke-width:1.0;" width="10" x="404.5" y="614.3594"/><rect fill="#FFFFFF" height="30.3516" style="stroke:#181818;stroke-width:1.0;" width="10" x="404.5" y="949.7422"/><rect fill="#FFFFFF" height="30.3516" style="stroke:#181818;stroke-width:1.0;" width="10" x="404.5" y="1010.4453"/><rect fill="#FFFFFF" height="30.3516" style="stroke:#181818;stroke-width:1.0;" width="10" x="404.5" y="1071.1484"/><rect fill="#FFFFFF" height="30.3516" style="stroke:#181818;stroke-width:1.0;" width="10" x="404.5" y="1707.9922"/><rect fill="#FFFFFF" height="123.6641" style="stroke:#181818;stroke-width:1.0;" width="10" x="724.5" y="155.3125"/><rect fill="#FFFFFF" height="91.0547" style="stroke:#181818;stroke-width:1.0;" width="10" x="724.5" y="309.3281"/><rect fill="#FFFFFF" height="30.3516" style="stroke:#181818;stroke-width:1.0;" width="10" x="724.5" y="553.6563"/><rect fill="#FFFFFF" height="91.0547" style="stroke:#181818;stroke-width:1.0;" width="10" x="724.5" y="614.3594"/><rect fill="#FFFFFF" height="30.3516" style="stroke:#181818;stroke-width:1.0;" width="10" x="724.5" y="858.6875"/><rect fill="#FFFFFF" height="30.3516" style="stroke:#181818;stroke-width:1.0;" width="10" x="724.5" y="1101.5"/><rect fill="#FFFFFF" height="30.3516" style="stroke:#181818;stroke-width:1.0;" width="10" x="724.5" y="1356.8281"/><rect fill="#FFFFFF" height="30.3516" style="stroke:#181818;stroke-width:1.0;" width="10" x="724.5" y="1677.6406"/><rect fill="#FFFFFF" height="30.3516" style="stroke:#181818;stroke-width:1.0;" width="10" x="862" y="187.9219"/><rect fill="#FFFFFF" height="30.3516" style="stroke:#181818;stroke-width:1.0;" width="10" x="969" y="248.625"/><rect fill="#FFFFFF" height="30.3516" style="stroke:#181818;stroke-width:1.0;" width="10" x="1086.5" y="644.7109"/><rect fill="#FFFFFF" height="30.3516" style="stroke:#181818;stroke-width:1.0;" width="10" x="1215" y="339.6797"/><rect fill="#FFFFFF" height="224.9766" style="stroke:#181818;stroke-width:1.0;" width="10" x="1215" y="1131.8516"/><rect fill="#FFFFFF" height="290.4609" style="stroke:#181818;stroke-width:1.0;" width="10" x="1480" y="1387.1797"/><rect fill="#FFFFFF" height="41.3516" style="stroke:#181818;stroke-width:1.0;" width="10" x="1485" y="1425.5313"/><rect fill="#FFFFFF" height="41.3516" style="stroke:#181818;stroke-width:1.0;" width="10" x="1485" y="1512.2344"/><rect fill="#FFFFFF" height="41.3516" style="stroke:#181818;stroke-width:1.0;" width="10" x="1485" y="1598.9375"/><rect fill="#FFFFFF" height="153.2734" style="stroke:#181818;stroke-width:1.0;" width="10" x="1804" y="400.3828"/><rect fill="#FFFFFF" height="120.9219" style="stroke:#181818;stroke-width:1.0;" width="10" x="1804" y="1162.2031"/><rect fill="#FFFFFF" height="50.2188" style="stroke:#181818;stroke-width:1.0;" width="10" x="1949" y="466.0859"/><rect fill="#FFFFFF" height="50.2188" style="stroke:#181818;stroke-width:1.0;" width="10" x="2070" y="1202.5547"/><rect fill="#FFFFFF" height="153.2734" style="stroke:#181818;stroke-width:1.0;" width="10" x="2181" y="705.4141"/><rect fill="#FFFFFF" height="50.2188" style="stroke:#181818;stroke-width:1.0;" width="10" x="2300" y="771.1172"/><rect fill="none" height="108.9219" style="stroke:#000000;stroke-width:1.5;" width="300" x="1725" y="415.3828"/><rect fill="none" height="108.9219" style="stroke:#000000;stroke-width:1.5;" width="226" x="2125" y="720.4141"/><line style="stroke:#181818;stroke-width:0.5;stroke-dasharray:5.0,5.0;" x1="23" x2="23" y1="82.6094" y2="1756.3438"/><line style="stroke:#181818;stroke-width:0.5;stroke-dasharray:5.0,5.0;" x1="409.5" x2="409.5" y1="82.6094" y2="1756.3438"/><line style="stroke:#181818;stroke-width:0.5;stroke-dasharray:5.0,5.0;" x1="729.5" x2="729.5" y1="154.2656" y2="1756.3438"/><line style="stroke:#181818;stroke-width:0.5;stroke-dasharray:5.0,5.0;" x1="866.5" x2="866.5" y1="82.6094" y2="1756.3438"/><line style="stroke:#181818;stroke-width:0.5;stroke-dasharray:5.0,5.0;" x1="973.5" x2="973.5" y1="82.6094" y2="1756.3438"/><line style="stroke:#181818;stroke-width:0.5;stroke-dasharray:5.0,5.0;" x1="1091.5" x2="1091.5" y1="82.6094" y2="1756.3438"/><line style="stroke:#181818;stroke-width:0.5;stroke-dasharray:5.0,5.0;" x1="1219.5" x2="1219.5" y1="82.6094" y2="1756.3438"/><line style="stroke:#181818;stroke-width:0.5;stroke-dasharray:5.0,5.0;" x1="1485" x2="1485" y1="82.6094" y2="1756.3438"/><line style="stroke:#181818;stroke-width:0.5;stroke-dasharray:5.0,5.0;" x1="1809" x2="1809" y1="82.6094" y2="1756.3438"/><line style="stroke:#181818;stroke-width:0.5;stroke-dasharray:5.0,5.0;" x1="1954" x2="1954" y1="473.8438" y2="1756.3438"/><line style="stroke:#181818;stroke-width:0.5;stroke-dasharray:5.0,5.0;" x1="2075" x2="2075" y1="1210.3125" y2="1756.3438"/><line style="stroke:#181818;stroke-width:0.5;stroke-dasharray:5.0,5.0;" x1="2186" x2="2186" y1="82.6094" y2="1756.3438"/><line style="stroke:#181818;stroke-width:0.5;stroke-dasharray:5.0,5.0;" x1="2305" x2="2305" y1="778.875" y2="1756.3438"/><text fill="#000000" font-family="sans-serif" font-size="14" lengthAdjust="spacing" textLength="31" x="5" y="79.5332">GSM</text><ellipse cx="23.5" cy="13.5" fill="#E3E3E3" rx="8" ry="8" style="stroke:#181818;stroke-width:0.5;"/><path d="M23.5,21.5 L23.5,48.5 M10.5,29.5 L36.5,29.5 M23.5,48.5 L10.5,63.5 M23.5,48.5 L36.5,63.5 " fill="none" style="stroke:#181818;stroke-width:0.5;"/><text fill="#000000" font-family="sans-serif" font-size="14" lengthAdjust="spacing" textLength="31" x="5" y="1769.877">GSM</text><ellipse cx="23.5" cy="1781.4531" fill="#E3E3E3" rx="8" ry="8" style="stroke:#181818;stroke-width:0.5;"/><path d="M23.5,1789.4531 L23.5,1816.4531 M10.5,1797.4531 L36.5,1797.4531 M23.5,1816.4531 L10.5,1831.4531 M23.5,1816.4531 L36.5,1831.4531 " fill="none" style="stroke:#181818;stroke-width:0.5;"/><rect fill="#E3E3E3" height="31.6094" rx="2.5" ry="2.5" style="stroke:#181818;stroke-width:0.5;" width="108" x="355.5" y="50"/><text fill="#000000" font-family="sans-serif" font-size="14" lengthAdjust="spacing" textLength="94" x="362.5" y="71.5332">:AssignTeamUI</text><rect fill="#E3E3E3" height="31.6094" rx="2.5" ry="2.5" style="stroke:#181818;stroke-width:0.5;" width="108" x="355.5" y="1755.3438"/><text fill="#000000" font-family="sans-serif" font-size="14" lengthAdjust="spacing" textLength="94" x="362.5" y="1776.877">:AssignTeamUI</text><rect fill="#E3E3E3" height="31.6094" rx="2.5" ry="2.5" style="stroke:#181818;stroke-width:0.5;" width="158" x="650.5" y="1755.3438"/><text fill="#000000" font-family="sans-serif" font-size="14" lengthAdjust="spacing" textLength="144" x="657.5" y="1776.877">:AssignTeamController</text><rect fill="#E3E3E3" height="31.6094" rx="2.5" ry="2.5" style="stroke:#181818;stroke-width:0.5;" width="97" x="818.5" y="50"/><text fill="#000000" font-family="sans-serif" font-size="14" lengthAdjust="spacing" textLength="83" x="825.5" y="71.5332">:Repositories</text><rect fill="#E3E3E3" height="31.6094" rx="2.5" ry="2.5" style="stroke:#181818;stroke-width:0.5;" width="97" x="818.5" y="1755.3438"/><text fill="#000000" font-family="sans-serif" font-size="14" lengthAdjust="spacing" textLength="83" x="825.5" y="1776.877">:Repositories</text><rect fill="#E3E3E3" height="49.2188" rx="2.5" ry="2.5" style="stroke:#181818;stroke-width:0.5;" width="97" x="925.5" y="32.3906"/><text fill="#000000" font-family="sans-serif" font-size="14" lengthAdjust="spacing" textLength="74" x="937" y="53.9238">repositories</text><text fill="#000000" font-family="sans-serif" font-size="14" lengthAdjust="spacing" textLength="83" x="932.5" y="71.5332">:Repositories</text><rect fill="#E3E3E3" height="49.2188" rx="2.5" ry="2.5" style="stroke:#181818;stroke-width:0.5;" width="97" x="925.5" y="1755.3438"/><text fill="#000000" font-family="sans-serif" font-size="14" lengthAdjust="spacing" textLength="74" x="937" y="1776.877">repositories</text><text fill="#000000" font-family="sans-serif" font-size="14" lengthAdjust="spacing" textLength="83" x="932.5" y="1794.4863">:Repositories</text><rect fill="#E3E3E3" height="49.2188" rx="2.5" ry="2.5" style="stroke:#181818;stroke-width:0.5;" width="118" x="1032.5" y="32.3906"/><text fill="#000000" font-family="sans-serif" font-size="14" lengthAdjust="spacing" textLength="103" x="1040" y="53.9238">teamRepository:</text><text fill="#000000" font-family="sans-serif" font-size="14" lengthAdjust="spacing" textLength="104" x="1039.5" y="71.5332">TeamRepository</text><rect fill="#E3E3E3" height="49.2188" rx="2.5" ry="2.5" style="stroke:#181818;stroke-width:0.5;" width="118" x="1032.5" y="1755.3438"/><text fill="#000000" font-family="sans-serif" font-size="14" lengthAdjust="spacing" textLength="103" x="1040" y="1776.877">teamRepository:</text><text fill="#000000" font-family="sans-serif" font-size="14" lengthAdjust="spacing" textLength="104" x="1039.5" y="1794.4863">TeamRepository</text><rect fill="#E3E3E3" height="49.2188" rx="2.5" ry="2.5" style="stroke:#181818;stroke-width:0.5;" width="119" x="1160.5" y="32.3906"/><text fill="#000000" font-family="sans-serif" font-size="14" lengthAdjust="spacing" textLength="100" x="1170" y="53.9238">entryRepository</text><text fill="#000000" font-family="sans-serif" font-size="14" lengthAdjust="spacing" textLength="105" x="1167.5" y="71.5332">:EntryRepository</text><rect fill="#E3E3E3" height="49.2188" rx="2.5" ry="2.5" style="stroke:#181818;stroke-width:0.5;" width="119" x="1160.5" y="1755.3438"/><text fill="#000000" font-family="sans-serif" font-size="14" lengthAdjust="spacing" textLength="100" x="1170" y="1776.877">entryRepository</text><text fill="#000000" font-family="sans-serif" font-size="14" lengthAdjust="spacing" textLength="105" x="1167.5" y="1794.4863">:EntryRepository</text><rect fill="#E3E3E3" height="31.6094" rx="2.5" ry="2.5" style="stroke:#181818;stroke-width:0.5;" width="134" x="1418" y="50"/><text fill="#000000" font-family="sans-serif" font-size="14" lengthAdjust="spacing" textLength="120" x="1425" y="71.5332">:NotificationService</text><rect fill="#E3E3E3" height="31.6094" rx="2.5" ry="2.5" style="stroke:#181818;stroke-width:0.5;" width="134" x="1418" y="1755.3438"/><text fill="#000000" font-family="sans-serif" font-size="14" lengthAdjust="spacing" textLength="120" x="1425" y="1776.877">:NotificationService</text><rect fill="#E3E3E3" height="31.6094" rx="2.5" ry="2.5" style="stroke:#181818;stroke-width:0.5;" width="148" x="1735" y="50"/><text fill="#000000" font-family="sans-serif" font-size="14" lengthAdjust="spacing" textLength="134" x="1742" y="71.5332">:AgendaEntryMapper</text><rect fill="#E3E3E3" height="31.6094" rx="2.5" ry="2.5" style="stroke:#181818;stroke-width:0.5;" width="148" x="1735" y="1755.3438"/><text fill="#000000" font-family="sans-serif" font-size="14" lengthAdjust="spacing" textLength="134" x="1742" y="1776.877">:AgendaEntryMapper</text><rect fill="#E3E3E3" height="49.2188" rx="2.5" ry="2.5" style="stroke:#181818;stroke-width:0.5;" width="122" x="1893" y="1755.3438"/><text fill="#000000" font-family="sans-serif" font-size="14" lengthAdjust="spacing" textLength="103" x="1902.5" y="1776.877">agendaEntryDto</text><text fill="#000000" font-family="sans-serif" font-size="14" lengthAdjust="spacing" textLength="108" x="1900" y="1794.4863">:AgendaEntryDto</text><rect fill="#E3E3E3" height="49.2188" rx="2.5" ry="2.5" style="stroke:#181818;stroke-width:0.5;" width="100" x="2025" y="1755.3438"/><text fill="#000000" font-family="sans-serif" font-size="14" lengthAdjust="spacing" textLength="81" x="2034.5" y="1776.877">agendaEntry</text><text fill="#000000" font-family="sans-serif" font-size="14" lengthAdjust="spacing" textLength="86" x="2032" y="1794.4863">:AgendaEntry</text><rect fill="#E3E3E3" height="31.6094" rx="2.5" ry="2.5" style="stroke:#181818;stroke-width:0.5;" width="102" x="2135" y="50"/><text fill="#000000" font-family="sans-serif" font-size="14" lengthAdjust="spacing" textLength="88" x="2142" y="71.5332">:TeamMapper</text><rect fill="#E3E3E3" height="31.6094" rx="2.5" ry="2.5" style="stroke:#181818;stroke-width:0.5;" width="102" x="2135" y="1755.3438"/><text fill="#000000" font-family="sans-serif" font-size="14" lengthAdjust="spacing" textLength="88" x="2142" y="1776.877">:TeamMapper</text><rect fill="#E3E3E3" height="49.2188" rx="2.5" ry="2.5" style="stroke:#181818;stroke-width:0.5;" width="72" x="2269" y="1755.3438"/><text fill="#000000" font-family="sans-serif" font-size="14" lengthAdjust="spacing" textLength="57" x="2276.5" y="1776.877">teamDto:</text><text fill="#000000" font-family="sans-serif" font-size="14" lengthAdjust="spacing" textLength="58" x="2276" y="1794.4863">TeamDto</text><rect fill="#FFFFFF" height="1645.7344" style="stroke:#181818;stroke-width:1.0;" width="10" x="18.5" y="92.6094"/><rect fill="#FFFFFF" height="469.0469" style="stroke:#181818;stroke-width:1.0;" width="10" x="404.5" y="114.9609"/><rect fill="#FFFFFF" height="305.0313" style="stroke:#181818;stroke-width:1.0;" width="10" x="404.5" y="614.3594"/><rect fill="#FFFFFF" height="30.3516" style="stroke:#181818;stroke-width:1.0;" width="10" x="404.5" y="949.7422"/><rect fill="#FFFFFF" height="30.3516" style="stroke:#181818;stroke-width:1.0;" width="10" x="404.5" y="1010.4453"/><rect fill="#FFFFFF" height="30.3516" style="stroke:#181818;stroke-width:1.0;" width="10" x="404.5" y="1071.1484"/><rect fill="#FFFFFF" height="30.3516" style="stroke:#181818;stroke-width:1.0;" width="10" x="404.5" y="1707.9922"/><rect fill="#FFFFFF" height="123.6641" style="stroke:#181818;stroke-width:1.0;" width="10" x="724.5" y="155.3125"/><rect fill="#FFFFFF" height="91.0547" style="stroke:#181818;stroke-width:1.0;" width="10" x="724.5" y="309.3281"/><rect fill="#FFFFFF" height="30.3516" style="stroke:#181818;stroke-width:1.0;" width="10" x="724.5" y="553.6563"/><rect fill="#FFFFFF" height="91.0547" style="stroke:#181818;stroke-width:1.0;" width="10" x="724.5" y="614.3594"/><rect fill="#FFFFFF" height="30.3516" style="stroke:#181818;stroke-width:1.0;" width="10" x="724.5" y="858.6875"/><rect fill="#FFFFFF" height="30.3516" style="stroke:#181818;stroke-width:1.0;" width="10" x="724.5" y="1101.5"/><rect fill="#FFFFFF" height="30.3516" style="stroke:#181818;stroke-width:1.0;" width="10" x="724.5" y="1356.8281"/><rect fill="#FFFFFF" height="30.3516" style="stroke:#181818;stroke-width:1.0;" width="10" x="724.5" y="1677.6406"/><rect fill="#FFFFFF" height="30.3516" style="stroke:#181818;stroke-width:1.0;" width="10" x="862" y="187.9219"/><rect fill="#FFFFFF" height="30.3516" style="stroke:#181818;stroke-width:1.0;" width="10" x="969" y="248.625"/><rect fill="#FFFFFF" height="30.3516" style="stroke:#181818;stroke-width:1.0;" width="10" x="1086.5" y="644.7109"/><rect fill="#FFFFFF" height="30.3516" style="stroke:#181818;stroke-width:1.0;" width="10" x="1215" y="339.6797"/><rect fill="#FFFFFF" height="224.9766" style="stroke:#181818;stroke-width:1.0;" width="10" x="1215" y="1131.8516"/><rect fill="#FFFFFF" height="290.4609" style="stroke:#181818;stroke-width:1.0;" width="10" x="1480" y="1387.1797"/><rect fill="#FFFFFF" height="41.3516" style="stroke:#181818;stroke-width:1.0;" width="10" x="1485" y="1425.5313"/><rect fill="#FFFFFF" height="41.3516" style="stroke:#181818;stroke-width:1.0;" width="10" x="1485" y="1512.2344"/><rect fill="#FFFFFF" height="41.3516" style="stroke:#181818;stroke-width:1.0;" width="10" x="1485" y="1598.9375"/><rect fill="#FFFFFF" height="153.2734" style="stroke:#181818;stroke-width:1.0;" width="10" x="1804" y="400.3828"/><rect fill="#FFFFFF" height="120.9219" style="stroke:#181818;stroke-width:1.0;" width="10" x="1804" y="1162.2031"/><rect fill="#FFFFFF" height="50.2188" style="stroke:#181818;stroke-width:1.0;" width="10" x="1949" y="466.0859"/><rect fill="#FFFFFF" height="50.2188" style="stroke:#181818;stroke-width:1.0;" width="10" x="2070" y="1202.5547"/><rect fill="#FFFFFF" height="153.2734" style="stroke:#181818;stroke-width:1.0;" width="10" x="2181" y="705.4141"/><rect fill="#FFFFFF" height="50.2188" style="stroke:#181818;stroke-width:1.0;" width="10" x="2300" y="771.1172"/><polygon fill="#181818" points="392.5,110.9609,402.5,114.9609,392.5,118.9609,396.5,114.9609" style="stroke:#181818;stroke-width:1.0;"/><line style="stroke:#181818;stroke-width:1.0;" x1="28.5" x2="398.5" y1="114.9609" y2="114.9609"/><text fill="#000000" font-family="sans-serif" font-size="13" font-weight="bold" lengthAdjust="spacing" textLength="7" x="35.5" y="110.1045">1</text><text fill="#000000" font-family="sans-serif" font-size="13" lengthAdjust="spacing" textLength="282" x="46.5" y="110.1045">asks to assign a Team to an entry in the Agenda</text><polygon fill="#181818" points="638.5,141.3125,648.5,145.3125,638.5,149.3125,642.5,145.3125" style="stroke:#181818;stroke-width:1.0;"/><line style="stroke:#181818;stroke-width:1.0;" x1="414.5" x2="644.5" y1="145.3125" y2="145.3125"/><text fill="#000000" font-family="sans-serif" font-size="13" font-weight="bold" lengthAdjust="spacing" textLength="7" x="421.5" y="140.4561">2</text><text fill="#000000" font-family="sans-serif" font-size="13" lengthAdjust="spacing" textLength="36" x="432.5" y="140.4561">create</text><rect fill="#E3E3E3" height="31.6094" rx="2.5" ry="2.5" style="stroke:#181818;stroke-width:0.5;" width="158" x="650.5" y="122.9609"/><text fill="#000000" font-family="sans-serif" font-size="14" lengthAdjust="spacing" textLength="144" x="657.5" y="144.4941">:AssignTeamController</text><polygon fill="#181818" points="850,183.9219,860,187.9219,850,191.9219,854,187.9219" style="stroke:#181818;stroke-width:1.0;"/><line style="stroke:#181818;stroke-width:1.0;" x1="734.5" x2="856" y1="187.9219" y2="187.9219"/><text fill="#000000" font-family="sans-serif" font-size="13" font-weight="bold" lengthAdjust="spacing" textLength="7" x="741.5" y="183.0654">3</text><text fill="#000000" font-family="sans-serif" font-size="13" lengthAdjust="spacing" textLength="75" x="752.5" y="183.0654">getInstance()</text><polygon fill="#181818" points="745.5,214.2734,735.5,218.2734,745.5,222.2734,741.5,218.2734" style="stroke:#181818;stroke-width:1.0;"/><line style="stroke:#181818;stroke-width:1.0;stroke-dasharray:2.0,2.0;" x1="739.5" x2="866" y1="218.2734" y2="218.2734"/><text fill="#000000" font-family="sans-serif" font-size="13" font-weight="bold" lengthAdjust="spacing" textLength="7" x="751.5" y="213.417">4</text><text fill="#000000" font-family="sans-serif" font-size="13" lengthAdjust="spacing" textLength="67" x="762.5" y="213.417">repositories</text><polygon fill="#181818" points="957,244.625,967,248.625,957,252.625,961,248.625" style="stroke:#181818;stroke-width:1.0;"/><line style="stroke:#181818;stroke-width:1.0;" x1="734.5" x2="963" y1="248.625" y2="248.625"/><text fill="#000000" font-family="sans-serif" font-size="13" font-weight="bold" lengthAdjust="spacing" textLength="7" x="741.5" y="243.7686">5</text><text fill="#000000" font-family="sans-serif" font-size="13" lengthAdjust="spacing" textLength="119" x="752.5" y="243.7686">getEntryRepository()</text><polygon fill="#181818" points="740.5,274.9766,730.5,278.9766,740.5,282.9766,736.5,278.9766" style="stroke:#181818;stroke-width:1.0;"/><line style="stroke:#181818;stroke-width:1.0;stroke-dasharray:2.0,2.0;" x1="734.5" x2="973" y1="278.9766" y2="278.9766"/><text fill="#000000" font-family="sans-serif" font-size="13" font-weight="bold" lengthAdjust="spacing" textLength="7" x="746.5" y="274.1201">6</text><text fill="#000000" font-family="sans-serif" font-size="13" lengthAdjust="spacing" textLength="91" x="757.5" y="274.1201">entryRepository</text><polygon fill="#181818" points="712.5,305.3281,722.5,309.3281,712.5,313.3281,716.5,309.3281" style="stroke:#181818;stroke-width:1.0;"/><line style="stroke:#181818;stroke-width:1.0;" x1="414.5" x2="718.5" y1="309.3281" y2="309.3281"/><text fill="#000000" font-family="sans-serif" font-size="13" font-weight="bold" lengthAdjust="spacing" textLength="7" x="421.5" y="304.4717">7</text><text fill="#000000" font-family="sans-serif" font-size="13" lengthAdjust="spacing" textLength="152" x="432.5" y="304.4717">getAgendaEntryList(GSM)</text><polygon fill="#181818" points="1203,335.6797,1213,339.6797,1203,343.6797,1207,339.6797" style="stroke:#181818;stroke-width:1.0;"/><line style="stroke:#181818;stroke-width:1.0;" x1="734.5" x2="1209" y1="339.6797" y2="339.6797"/><text fill="#000000" font-family="sans-serif" font-size="13" font-weight="bold" lengthAdjust="spacing" textLength="7" x="741.5" y="334.8232">8</text><text fill="#000000" font-family="sans-serif" font-size="13" lengthAdjust="spacing" textLength="198" x="752.5" y="334.8232">getAgendaEntryListByGSM(GSM)</text><polygon fill="#181818" points="745.5,366.0313,735.5,370.0313,745.5,374.0313,741.5,370.0313" style="stroke:#181818;stroke-width:1.0;"/><line style="stroke:#181818;stroke-width:1.0;stroke-dasharray:2.0,2.0;" x1="739.5" x2="1219" y1="370.0313" y2="370.0313"/><text fill="#000000" font-family="sans-serif" font-size="13" font-weight="bold" lengthAdjust="spacing" textLength="7" x="751.5" y="365.1748">9</text><text fill="#000000" font-family="sans-serif" font-size="13" lengthAdjust="spacing" textLength="94" x="762.5" y="365.1748">agendaEntryList</text><polygon fill="#181818" points="1792,396.3828,1802,400.3828,1792,404.3828,1796,400.3828" style="stroke:#181818;stroke-width:1.0;"/><line style="stroke:#181818;stroke-width:1.0;" x1="729.5" x2="1798" y1="400.3828" y2="400.3828"/><text fill="#000000" font-family="sans-serif" font-size="13" font-weight="bold" lengthAdjust="spacing" textLength="14" x="736.5" y="395.5264">10</text><text fill="#000000" font-family="sans-serif" font-size="13" lengthAdjust="spacing" textLength="112" x="754.5" y="395.5264">toDto(agendaEntry)</text><path d="M1725,415.3828 L1798,415.3828 L1798,423.7344 L1788,433.7344 L1725,433.7344 L1725,415.3828 " fill="#EEEEEE" style="stroke:#000000;stroke-width:1.5;"/><rect fill="none" height="108.9219" style="stroke:#000000;stroke-width:1.5;" width="300" x="1725" y="415.3828"/><text fill="#000000" font-family="sans-serif" font-size="13" font-weight="bold" lengthAdjust="spacing" textLength="28" x="1740" y="429.8779">loop</text><polygon fill="#181818" points="1881,452.0859,1891,456.0859,1881,460.0859,1885,456.0859" style="stroke:#181818;stroke-width:1.0;"/><line style="stroke:#181818;stroke-width:1.0;" x1="1814" x2="1887" y1="456.0859" y2="456.0859"/><text fill="#000000" font-family="sans-serif" font-size="13" font-weight="bold" lengthAdjust="spacing" textLength="14" x="1821" y="451.2295">11</text><text fill="#000000" font-family="sans-serif" font-size="13" lengthAdjust="spacing" textLength="36" x="1839" y="451.2295">create</text><rect fill="#E3E3E3" height="49.2188" rx="2.5" ry="2.5" style="stroke:#181818;stroke-width:0.5;" width="122" x="1893" y="433.7344"/><text fill="#000000" font-family="sans-serif" font-size="14" lengthAdjust="spacing" textLength="103" x="1902.5" y="455.2676">agendaEntryDto</text><text fill="#000000" font-family="sans-serif" font-size="14" lengthAdjust="spacing" textLength="108" x="1900" y="472.877">:AgendaEntryDto</text><polygon fill="#181818" points="1825,512.3047,1815,516.3047,1825,520.3047,1821,516.3047" style="stroke:#181818;stroke-width:1.0;"/><line style="stroke:#181818;stroke-width:1.0;stroke-dasharray:2.0,2.0;" x1="1819" x2="1953" y1="516.3047" y2="516.3047"/><text fill="#000000" font-family="sans-serif" font-size="13" font-weight="bold" lengthAdjust="spacing" textLength="14" x="1831" y="511.4482">12</text><text fill="#000000" font-family="sans-serif" font-size="13" lengthAdjust="spacing" textLength="93" x="1849" y="511.4482">agendaEntryDto</text><polygon fill="#181818" points="745.5,549.6563,735.5,553.6563,745.5,557.6563,741.5,553.6563" style="stroke:#181818;stroke-width:1.0;"/><line style="stroke:#181818;stroke-width:1.0;stroke-dasharray:2.0,2.0;" x1="739.5" x2="1808" y1="553.6563" y2="553.6563"/><text fill="#000000" font-family="sans-serif" font-size="13" font-weight="bold" lengthAdjust="spacing" textLength="14" x="751.5" y="548.7998">13</text><text fill="#000000" font-family="sans-serif" font-size="13" lengthAdjust="spacing" textLength="114" x="769.5" y="548.7998">agendaEntryDtoList</text><polygon fill="#181818" points="420.5,580.0078,410.5,584.0078,420.5,588.0078,416.5,584.0078" style="stroke:#181818;stroke-width:1.0;"/><line style="stroke:#181818;stroke-width:1.0;stroke-dasharray:2.0,2.0;" x1="414.5" x2="728.5" y1="584.0078" y2="584.0078"/><text fill="#000000" font-family="sans-serif" font-size="13" font-weight="bold" lengthAdjust="spacing" textLength="14" x="426.5" y="579.1514">14</text><text fill="#000000" font-family="sans-serif" font-size="13" lengthAdjust="spacing" textLength="114" x="444.5" y="579.1514">agendaEntryDtoList</text><polygon fill="#181818" points="712.5,610.3594,722.5,614.3594,712.5,618.3594,716.5,614.3594" style="stroke:#181818;stroke-width:1.0;"/><line style="stroke:#181818;stroke-width:1.0;" x1="414.5" x2="718.5" y1="614.3594" y2="614.3594"/><text fill="#000000" font-family="sans-serif" font-size="13" font-weight="bold" lengthAdjust="spacing" textLength="14" x="421.5" y="609.5029">15</text><text fill="#000000" font-family="sans-serif" font-size="13" lengthAdjust="spacing" textLength="86" x="439.5" y="609.5029">getTeamsList()</text><polygon fill="#181818" points="1074.5,640.7109,1084.5,644.7109,1074.5,648.7109,1078.5,644.7109" style="stroke:#181818;stroke-width:1.0;"/><line style="stroke:#181818;stroke-width:1.0;" x1="734.5" x2="1080.5" y1="644.7109" y2="644.7109"/><text fill="#000000" font-family="sans-serif" font-size="13" font-weight="bold" lengthAdjust="spacing" textLength="14" x="741.5" y="639.8545">16</text><text fill="#000000" font-family="sans-serif" font-size="13" lengthAdjust="spacing" textLength="86" x="759.5" y="639.8545">getTeamsList()</text><polygon fill="#181818" points="745.5,671.0625,735.5,675.0625,745.5,679.0625,741.5,675.0625" style="stroke:#181818;stroke-width:1.0;"/><line style="stroke:#181818;stroke-width:1.0;" x1="739.5" x2="1090.5" y1="675.0625" y2="675.0625"/><text fill="#000000" font-family="sans-serif" font-size="13" font-weight="bold" lengthAdjust="spacing" textLength="14" x="751.5" y="670.2061">17</text><text fill="#000000" font-family="sans-serif" font-size="13" lengthAdjust="spacing" textLength="57" x="769.5" y="670.2061">teamsList</text><polygon fill="#181818" points="2169,701.4141,2179,705.4141,2169,709.4141,2173,705.4141" style="stroke:#181818;stroke-width:1.0;"/><line style="stroke:#181818;stroke-width:1.0;" x1="729.5" x2="2175" y1="705.4141" y2="705.4141"/><text fill="#000000" font-family="sans-serif" font-size="13" font-weight="bold" lengthAdjust="spacing" textLength="14" x="736.5" y="700.5576">18</text><text fill="#000000" font-family="sans-serif" font-size="13" lengthAdjust="spacing" textLength="110" x="754.5" y="700.5576">toDtoList(teamList)</text><path d="M2125,720.4141 L2198,720.4141 L2198,728.7656 L2188,738.7656 L2125,738.7656 L2125,720.4141 " fill="#EEEEEE" style="stroke:#000000;stroke-width:1.5;"/><rect fill="none" height="108.9219" style="stroke:#000000;stroke-width:1.5;" width="226" x="2125" y="720.4141"/><text fill="#000000" font-family="sans-serif" font-size="13" font-weight="bold" lengthAdjust="spacing" textLength="28" x="2140" y="734.9092">loop</text><polygon fill="#181818" points="2257,757.1172,2267,761.1172,2257,765.1172,2261,761.1172" style="stroke:#181818;stroke-width:1.0;"/><line style="stroke:#181818;stroke-width:1.0;" x1="2191" x2="2263" y1="761.1172" y2="761.1172"/><text fill="#000000" font-family="sans-serif" font-size="13" font-weight="bold" lengthAdjust="spacing" textLength="14" x="2198" y="756.2607">19</text><text fill="#000000" font-family="sans-serif" font-size="13" lengthAdjust="spacing" textLength="36" x="2216" y="756.2607">create</text><rect fill="#E3E3E3" height="49.2188" rx="2.5" ry="2.5" style="stroke:#181818;stroke-width:0.5;" width="72" x="2269" y="738.7656"/><text fill="#000000" font-family="sans-serif" font-size="14" lengthAdjust="spacing" textLength="57" x="2276.5" y="760.2988">teamDto:</text><text fill="#000000" font-family="sans-serif" font-size="14" lengthAdjust="spacing" textLength="58" x="2276" y="777.9082">TeamDto</text><polygon fill="#181818" points="2202,817.3359,2192,821.3359,2202,825.3359,2198,821.3359" style="stroke:#181818;stroke-width:1.0;"/><line style="stroke:#181818;stroke-width:1.0;stroke-dasharray:2.0,2.0;" x1="2196" x2="2304" y1="821.3359" y2="821.3359"/><text fill="#000000" font-family="sans-serif" font-size="13" font-weight="bold" lengthAdjust="spacing" textLength="14" x="2208" y="816.4795">20</text><text fill="#000000" font-family="sans-serif" font-size="13" lengthAdjust="spacing" textLength="49" x="2226" y="816.4795">teamDto</text><polygon fill="#181818" points="745.5,854.6875,735.5,858.6875,745.5,862.6875,741.5,858.6875" style="stroke:#181818;stroke-width:1.0;"/><line style="stroke:#181818;stroke-width:1.0;stroke-dasharray:2.0,2.0;" x1="739.5" x2="2185" y1="858.6875" y2="858.6875"/><text fill="#000000" font-family="sans-serif" font-size="13" font-weight="bold" lengthAdjust="spacing" textLength="14" x="751.5" y="853.8311">21</text><text fill="#000000" font-family="sans-serif" font-size="13" lengthAdjust="spacing" textLength="70" x="769.5" y="853.8311">teamDtoList</text><polygon fill="#181818" points="425.5,885.0391,415.5,889.0391,425.5,893.0391,421.5,889.0391" style="stroke:#181818;stroke-width:1.0;"/><line style="stroke:#181818;stroke-width:1.0;" x1="419.5" x2="728.5" y1="889.0391" y2="889.0391"/><text fill="#000000" font-family="sans-serif" font-size="13" font-weight="bold" lengthAdjust="spacing" textLength="14" x="431.5" y="884.1826">22</text><text fill="#000000" font-family="sans-serif" font-size="13" lengthAdjust="spacing" textLength="57" x="449.5" y="884.1826">teamsList</text><polygon fill="#181818" points="39.5,915.3906,29.5,919.3906,39.5,923.3906,35.5,919.3906" style="stroke:#181818;stroke-width:1.0;"/><line style="stroke:#181818;stroke-width:1.0;stroke-dasharray:2.0,2.0;" x1="33.5" x2="408.5" y1="919.3906" y2="919.3906"/><text fill="#000000" font-family="sans-serif" font-size="13" font-weight="bold" lengthAdjust="spacing" textLength="14" x="45.5" y="914.5342">23</text><text fill="#000000" font-family="sans-serif" font-size="13" lengthAdjust="spacing" textLength="213" x="63.5" y="914.5342">shows teams and asks to select one</text><polygon fill="#181818" points="392.5,945.7422,402.5,949.7422,392.5,953.7422,396.5,949.7422" style="stroke:#181818;stroke-width:1.0;"/><line style="stroke:#181818;stroke-width:1.0;" x1="28.5" x2="398.5" y1="949.7422" y2="949.7422"/><text fill="#000000" font-family="sans-serif" font-size="13" font-weight="bold" lengthAdjust="spacing" textLength="14" x="35.5" y="944.8857">24</text><text fill="#000000" font-family="sans-serif" font-size="13" lengthAdjust="spacing" textLength="75" x="53.5" y="944.8857">selects team</text><polygon fill="#181818" points="39.5,976.0938,29.5,980.0938,39.5,984.0938,35.5,980.0938" style="stroke:#181818;stroke-width:1.0;"/><line style="stroke:#181818;stroke-width:1.0;stroke-dasharray:2.0,2.0;" x1="33.5" x2="408.5" y1="980.0938" y2="980.0938"/><text fill="#000000" font-family="sans-serif" font-size="13" font-weight="bold" lengthAdjust="spacing" textLength="14" x="45.5" y="975.2373">25</text><text fill="#000000" font-family="sans-serif" font-size="13" lengthAdjust="spacing" textLength="320" x="63.5" y="975.2373">shows the entries in the agenda and asks to select one</text><polygon fill="#181818" points="392.5,1006.4453,402.5,1010.4453,392.5,1014.4453,396.5,1010.4453" style="stroke:#181818;stroke-width:1.0;"/><line style="stroke:#181818;stroke-width:1.0;" x1="28.5" x2="398.5" y1="1010.4453" y2="1010.4453"/><text fill="#000000" font-family="sans-serif" font-size="13" font-weight="bold" lengthAdjust="spacing" textLength="14" x="35.5" y="1005.5889">26</text><text fill="#000000" font-family="sans-serif" font-size="13" lengthAdjust="spacing" textLength="90" x="53.5" y="1005.5889">select the entry</text><polygon fill="#181818" points="39.5,1036.7969,29.5,1040.7969,39.5,1044.7969,35.5,1040.7969" style="stroke:#181818;stroke-width:1.0;"/><line style="stroke:#181818;stroke-width:1.0;stroke-dasharray:2.0,2.0;" x1="33.5" x2="408.5" y1="1040.7969" y2="1040.7969"/><text fill="#000000" font-family="sans-serif" font-size="13" font-weight="bold" lengthAdjust="spacing" textLength="14" x="45.5" y="1035.9404">27</text><text fill="#000000" font-family="sans-serif" font-size="13" lengthAdjust="spacing" textLength="236" x="63.5" y="1035.9404">shows all data and requests confirmation</text><polygon fill="#181818" points="392.5,1067.1484,402.5,1071.1484,392.5,1075.1484,396.5,1071.1484" style="stroke:#181818;stroke-width:1.0;"/><line style="stroke:#181818;stroke-width:1.0;" x1="28.5" x2="398.5" y1="1071.1484" y2="1071.1484"/><text fill="#000000" font-family="sans-serif" font-size="13" font-weight="bold" lengthAdjust="spacing" textLength="14" x="35.5" y="1066.292">28</text><text fill="#000000" font-family="sans-serif" font-size="13" lengthAdjust="spacing" textLength="49" x="53.5" y="1066.292">confirms</text><polygon fill="#181818" points="712.5,1097.5,722.5,1101.5,712.5,1105.5,716.5,1101.5" style="stroke:#181818;stroke-width:1.0;"/><line style="stroke:#181818;stroke-width:1.0;" x1="409.5" x2="718.5" y1="1101.5" y2="1101.5"/><text fill="#000000" font-family="sans-serif" font-size="13" font-weight="bold" lengthAdjust="spacing" textLength="14" x="416.5" y="1096.6436">29</text><text fill="#000000" font-family="sans-serif" font-size="13" lengthAdjust="spacing" textLength="273" x="434.5" y="1096.6436">assignTeamToEntry(agendaEntryDto, teamDto)</text><polygon fill="#181818" points="1203,1127.8516,1213,1131.8516,1203,1135.8516,1207,1131.8516" style="stroke:#181818;stroke-width:1.0;"/><line style="stroke:#181818;stroke-width:1.0;" x1="729.5" x2="1209" y1="1131.8516" y2="1131.8516"/><text fill="#000000" font-family="sans-serif" font-size="13" font-weight="bold" lengthAdjust="spacing" textLength="14" x="736.5" y="1126.9951">30</text><text fill="#000000" font-family="sans-serif" font-size="13" lengthAdjust="spacing" textLength="304" x="754.5" y="1126.9951">updateAgendaEntryTeam(agendaEntryDto, teamDto)</text><polygon fill="#181818" points="1792,1158.2031,1802,1162.2031,1792,1166.2031,1796,1162.2031" style="stroke:#181818;stroke-width:1.0;"/><line style="stroke:#181818;stroke-width:1.0;" x1="1225" x2="1798" y1="1162.2031" y2="1162.2031"/><text fill="#000000" font-family="sans-serif" font-size="13" font-weight="bold" lengthAdjust="spacing" textLength="14" x="1232" y="1157.3467">31</text><text fill="#000000" font-family="sans-serif" font-size="13" lengthAdjust="spacing" textLength="156" x="1250" y="1157.3467">toDomain(agendaEntryDto)</text><polygon fill="#181818" points="2013,1188.5547,2023,1192.5547,2013,1196.5547,2017,1192.5547" style="stroke:#181818;stroke-width:1.0;"/><line style="stroke:#181818;stroke-width:1.0;" x1="1814" x2="2019" y1="1192.5547" y2="1192.5547"/><text fill="#000000" font-family="sans-serif" font-size="13" font-weight="bold" lengthAdjust="spacing" textLength="14" x="1821" y="1187.6982">32</text><text fill="#000000" font-family="sans-serif" font-size="13" lengthAdjust="spacing" textLength="36" x="1839" y="1187.6982">create</text><rect fill="#E3E3E3" height="49.2188" rx="2.5" ry="2.5" style="stroke:#181818;stroke-width:0.5;" width="100" x="2025" y="1170.2031"/><text fill="#000000" font-family="sans-serif" font-size="14" lengthAdjust="spacing" textLength="81" x="2034.5" y="1191.7363">agendaEntry</text><text fill="#000000" font-family="sans-serif" font-size="14" lengthAdjust="spacing" textLength="86" x="2032" y="1209.3457">:AgendaEntry</text><polygon fill="#181818" points="1825,1248.7734,1815,1252.7734,1825,1256.7734,1821,1252.7734" style="stroke:#181818;stroke-width:1.0;"/><line style="stroke:#181818;stroke-width:1.0;stroke-dasharray:2.0,2.0;" x1="1819" x2="2074" y1="1252.7734" y2="1252.7734"/><text fill="#000000" font-family="sans-serif" font-size="13" font-weight="bold" lengthAdjust="spacing" textLength="14" x="1831" y="1247.917">33</text><text fill="#000000" font-family="sans-serif" font-size="13" lengthAdjust="spacing" textLength="73" x="1849" y="1247.917">agendaEntry</text><polygon fill="#181818" points="1236,1279.125,1226,1283.125,1236,1287.125,1232,1283.125" style="stroke:#181818;stroke-width:1.0;"/><line style="stroke:#181818;stroke-width:1.0;stroke-dasharray:2.0,2.0;" x1="1230" x2="1808" y1="1283.125" y2="1283.125"/><text fill="#000000" font-family="sans-serif" font-size="13" font-weight="bold" lengthAdjust="spacing" textLength="14" x="1242" y="1278.2686">34</text><text fill="#000000" font-family="sans-serif" font-size="13" lengthAdjust="spacing" textLength="73" x="1260" y="1278.2686">agendaEntry</text><line style="stroke:#181818;stroke-width:1.0;" x1="1225" x2="1267" y1="1313.4766" y2="1313.4766"/><line style="stroke:#181818;stroke-width:1.0;" x1="1267" x2="1267" y1="1313.4766" y2="1326.4766"/><line style="stroke:#181818;stroke-width:1.0;" x1="1226" x2="1267" y1="1326.4766" y2="1326.4766"/><polygon fill="#181818" points="1236,1322.4766,1226,1326.4766,1236,1330.4766,1232,1326.4766" style="stroke:#181818;stroke-width:1.0;"/><text fill="#000000" font-family="sans-serif" font-size="13" font-weight="bold" lengthAdjust="spacing" textLength="14" x="1232" y="1308.6201">35</text><text fill="#000000" font-family="sans-serif" font-size="13" lengthAdjust="spacing" textLength="223" x="1250" y="1308.6201">updateEntryTeam(agendaEntry, Team)</text><polygon fill="#181818" points="745.5,1352.8281,735.5,1356.8281,745.5,1360.8281,741.5,1356.8281" style="stroke:#181818;stroke-width:1.0;"/><line style="stroke:#181818;stroke-width:1.0;stroke-dasharray:2.0,2.0;" x1="739.5" x2="1219" y1="1356.8281" y2="1356.8281"/><text fill="#000000" font-family="sans-serif" font-size="13" font-weight="bold" lengthAdjust="spacing" textLength="14" x="751.5" y="1351.9717">36</text><text fill="#000000" font-family="sans-serif" font-size="13" lengthAdjust="spacing" textLength="49" x="769.5" y="1351.9717">success</text><polygon fill="#181818" points="1468,1383.1797,1478,1387.1797,1468,1391.1797,1472,1387.1797" style="stroke:#181818;stroke-width:1.0;"/><line style="stroke:#181818;stroke-width:1.0;" x1="729.5" x2="1474" y1="1387.1797" y2="1387.1797"/><text fill="#000000" font-family="sans-serif" font-size="13" font-weight="bold" lengthAdjust="spacing" textLength="14" x="736.5" y="1382.3232">37</text><text fill="#000000" font-family="sans-serif" font-size="13" lengthAdjust="spacing" textLength="183" x="754.5" y="1382.3232">notifyTeam(agendaEntry, NEW)</text><line style="stroke:#181818;stroke-width:1.0;" x1="1490" x2="1537" y1="1412.5313" y2="1412.5313"/><line style="stroke:#181818;stroke-width:1.0;" x1="1537" x2="1537" y1="1412.5313" y2="1425.5313"/><line style="stroke:#181818;stroke-width:1.0;" x1="1496" x2="1537" y1="1425.5313" y2="1425.5313"/><polygon fill="#181818" points="1506,1421.5313,1496,1425.5313,1506,1429.5313,1502,1425.5313" style="stroke:#181818;stroke-width:1.0;"/><text fill="#000000" font-family="sans-serif" font-size="13" font-weight="bold" lengthAdjust="spacing" textLength="14" x="1502" y="1407.6748">38</text><text fill="#000000" font-family="sans-serif" font-size="13" lengthAdjust="spacing" textLength="178" x="1520" y="1407.6748">getTeamByEntry(agendaEntry)</text><line style="stroke:#181818;stroke-width:1.0;stroke-dasharray:2.0,2.0;" x1="1495" x2="1537" y1="1465.8828" y2="1465.8828"/><line style="stroke:#181818;stroke-width:1.0;stroke-dasharray:2.0,2.0;" x1="1537" x2="1537" y1="1465.8828" y2="1478.8828"/><line style="stroke:#181818;stroke-width:1.0;stroke-dasharray:2.0,2.0;" x1="1490" x2="1537" y1="1478.8828" y2="1478.8828"/><polygon fill="#181818" points="1500,1474.8828,1490,1478.8828,1500,1482.8828,1496,1478.8828" style="stroke:#181818;stroke-width:1.0;"/><text fill="#000000" font-family="sans-serif" font-size="13" font-weight="bold" lengthAdjust="spacing" textLength="14" x="1502" y="1461.0264">39</text><text fill="#000000" font-family="sans-serif" font-size="13" lengthAdjust="spacing" textLength="38" x="1520" y="1461.0264">teamD</text><line style="stroke:#181818;stroke-width:1.0;" x1="1490" x2="1537" y1="1499.2344" y2="1499.2344"/><line style="stroke:#181818;stroke-width:1.0;" x1="1537" x2="1537" y1="1499.2344" y2="1512.2344"/><line style="stroke:#181818;stroke-width:1.0;" x1="1496" x2="1537" y1="1512.2344" y2="1512.2344"/><polygon fill="#181818" points="1506,1508.2344,1496,1512.2344,1506,1516.2344,1502,1512.2344" style="stroke:#181818;stroke-width:1.0;"/><text fill="#000000" font-family="sans-serif" font-size="13" font-weight="bold" lengthAdjust="spacing" textLength="14" x="1502" y="1494.3779">40</text><text fill="#000000" font-family="sans-serif" font-size="13" lengthAdjust="spacing" textLength="152" x="1520" y="1494.3779">getCollaboratorsList(team)</text><line style="stroke:#181818;stroke-width:1.0;stroke-dasharray:2.0,2.0;" x1="1495" x2="1537" y1="1552.5859" y2="1552.5859"/><line style="stroke:#181818;stroke-width:1.0;stroke-dasharray:2.0,2.0;" x1="1537" x2="1537" y1="1552.5859" y2="1565.5859"/><line style="stroke:#181818;stroke-width:1.0;stroke-dasharray:2.0,2.0;" x1="1490" x2="1537" y1="1565.5859" y2="1565.5859"/><polygon fill="#181818" points="1500,1561.5859,1490,1565.5859,1500,1569.5859,1496,1565.5859" style="stroke:#181818;stroke-width:1.0;"/><text fill="#000000" font-family="sans-serif" font-size="13" font-weight="bold" lengthAdjust="spacing" textLength="14" x="1502" y="1547.7295">41</text><text fill="#000000" font-family="sans-serif" font-size="13" lengthAdjust="spacing" textLength="95" x="1520" y="1547.7295">collaboratorsList</text><line style="stroke:#181818;stroke-width:1.0;" x1="1490" x2="1537" y1="1585.9375" y2="1585.9375"/><line style="stroke:#181818;stroke-width:1.0;" x1="1537" x2="1537" y1="1585.9375" y2="1598.9375"/><line style="stroke:#181818;stroke-width:1.0;" x1="1496" x2="1537" y1="1598.9375" y2="1598.9375"/><polygon fill="#181818" points="1506,1594.9375,1496,1598.9375,1506,1602.9375,1502,1598.9375" style="stroke:#181818;stroke-width:1.0;"/><text fill="#000000" font-family="sans-serif" font-size="13" font-weight="bold" lengthAdjust="spacing" textLength="14" x="1502" y="1581.0811">42</text><text fill="#000000" font-family="sans-serif" font-size="13" lengthAdjust="spacing" textLength="282" x="1520" y="1581.0811">notifyTeam(collaboratorsList, agendaEntry, Date)</text><line style="stroke:#181818;stroke-width:1.0;stroke-dasharray:2.0,2.0;" x1="1495" x2="1537" y1="1639.2891" y2="1639.2891"/><line style="stroke:#181818;stroke-width:1.0;stroke-dasharray:2.0,2.0;" x1="1537" x2="1537" y1="1639.2891" y2="1652.2891"/><line style="stroke:#181818;stroke-width:1.0;stroke-dasharray:2.0,2.0;" x1="1490" x2="1537" y1="1652.2891" y2="1652.2891"/><polygon fill="#181818" points="1500,1648.2891,1490,1652.2891,1500,1656.2891,1496,1652.2891" style="stroke:#181818;stroke-width:1.0;"/><text fill="#000000" font-family="sans-serif" font-size="13" font-weight="bold" lengthAdjust="spacing" textLength="14" x="1502" y="1634.4326">43</text><text fill="#000000" font-family="sans-serif" font-size="13" lengthAdjust="spacing" textLength="49" x="1520" y="1634.4326">success</text><polygon fill="#181818" points="745.5,1673.6406,735.5,1677.6406,745.5,1681.6406,741.5,1677.6406" style="stroke:#181818;stroke-width:1.0;"/><line style="stroke:#181818;stroke-width:1.0;stroke-dasharray:2.0,2.0;" x1="739.5" x2="1484" y1="1677.6406" y2="1677.6406"/><text fill="#000000" font-family="sans-serif" font-size="13" font-weight="bold" lengthAdjust="spacing" textLength="14" x="751.5" y="1672.7842">44</text><text fill="#000000" font-family="sans-serif" font-size="13" lengthAdjust="spacing" textLength="49" x="769.5" y="1672.7842">success</text><polygon fill="#181818" points="425.5,1703.9922,415.5,1707.9922,425.5,1711.9922,421.5,1707.9922" style="stroke:#181818;stroke-width:1.0;"/><line style="stroke:#181818;stroke-width:1.0;stroke-dasharray:2.0,2.0;" x1="419.5" x2="728.5" y1="1707.9922" y2="1707.9922"/><text fill="#000000" font-family="sans-serif" font-size="13" font-weight="bold" lengthAdjust="spacing" textLength="14" x="431.5" y="1703.1357">45</text><text fill="#000000" font-family="sans-serif" font-size="13" lengthAdjust="spacing" textLength="49" x="449.5" y="1703.1357">success</text><polygon fill="#181818" points="34.5,1734.3438,24.5,1738.3438,34.5,1742.3438,30.5,1738.3438" style="stroke:#181818;stroke-width:1.0;"/><line style="stroke:#181818;stroke-width:1.0;stroke-dasharray:2.0,2.0;" x1="28.5" x2="408.5" y1="1738.3438" y2="1738.3438"/><text fill="#000000" font-family="sans-serif" font-size="13" font-weight="bold" lengthAdjust="spacing" textLength="14" x="40.5" y="1733.4873">46</text><text fill="#000000" font-family="sans-serif" font-size="13" lengthAdjust="spacing" textLength="334" x="58.5" y="1733.4873">displays success message (Team assigned successfully)</text><!--SRC=[nLXBJ-Cm4BxdLrXSja4WSTf33ojrALeX0LgHehrmCQbRB18x6xkW_liTEubZ9qxY02jowCEUnpVZcScNY1VA2bpY7EMSyVIvv3b1iZoGI9YT0gSlU4yIUSm8AaagCTjdje1unbl-HjaUxN0cI1HzarI2R78KakGe8NyFXAK4hIdUA_b5agnZT8uUaekBxr643vApG_v4IlYTIbwYar_9xGd20i5t13uaJMc1cKGdovKGTCys1ESFrrhauNfGuf8pMV8i8wMMlDpSttHaxqd11GMNb0WjOnQE2LLH0Z9NfRGq7bdVmE-RrSRLa82aDRjyrD3Q1QtbBhdw188ujflWzCfTqHRCMYV2EoxfZgPOKiuIKhxIb6XvptetZtl2jbZRlSL5KIUnj-fguNPxBJbWNJaBNHEmDAZlAdSrEs1L0YsKqlpjdmNuh0-X0LIlwkgZhrWINNSHWWj-eFCVK6He2P8l8ClXMnKOmlhKz093-f0GPKW-angcrZSMeKprWhh06jXKvNXw2dRJae24sMqkewhhjhUjBhMZJ7cg5kpkYRnc0her9OlOgszS-ChUgw4kdxVpEY1mQtU8ryQMpFVRHAhQgmgjqmHJ4Ug-70n9cxLYwFJSL1WZnYsfwXmzLQ3ZiMhxXWgvWCgBFr8J9Zy-wp-FODxlmd7JJXMldDaskOCkSJrDfMx2GnDDR-p08KaEJRkm_CLHo0cC1jmVRrxvZFDYi9ZwMDq00FLOtuzXqbCgm2_8wIFnfSqTqOFMhBIjfZL0m0_CauospLme8UNIFv_Hr7LQpgqgCzUdKKpLaBNl7_JLp58t3A6xUwIrmS3Cjc-Qn6KHCrnsw4TFi6EuZKasriSoCcMzWT_UjElUrh3LgleHppuKisknWU5kzkwqcWr0tRoZlUku7MpOUbDNeHDuhJJH1wEsePphcAAnWCp8herDdQELndSMg6wte9fnxQW-0dL5nfRmjC7VAiucW7bj3IqJ98Dd4yHPUooUjhG9NQLHsVApDPzZ87YA7W2xQVXUDK36m8m1QN0OoyTWB3ZBq1RBodMf7hC4X9DojgDbhgbzWFTQN8JmLSs2cyUh3TSpS-7EpxEcdEA9AJbtQ7l93G0w5902OjqO5BPmKBCfGZWd6gGjFCUKTI36dq9CGlZ7Uyb7aCSGsZ6JSymX5dPXJ7aSfHM369tpxTUXjmBFz3qm3YNHghyFQKg426VF0JIesqIULm3WcQbLJmHtLty-eNbyhnq6K-q3E8YxvZe_ZxsX54zN-STX3UBIWoUaulzhQYvvbk4dNcAWOCBmgg_DJDh5zBLPiWg_X-mCERsm1YHVcxkn-V3f6GiRIm5kPmqemz8wFeVcpJXXsb9HPFWe6dCeXmyuLBJGR_4gLaEspVRka6NruEYm9-klUalu3m00]--></g></svg>