<?xml version="1.0" encoding="UTF-8" standalone="no"?><svg xmlns="http://www.w3.org/2000/svg" xmlns:xlink="http://www.w3.org/1999/xlink" contentStyleType="text/css" height="465px" preserveAspectRatio="none" style="width:486px;height:465px;background:#FFFFFF;" version="1.1" viewBox="0 0 486 465" width="486px" zoomAndPan="magnify"><defs/><g><rect fill="#FFFFFF" height="273.0703" style="stroke:#181818;stroke-width:1.0;" width="10" x="18.5" y="92.6094"/><rect fill="#FFFFFF" height="250.7188" style="stroke:#181818;stroke-width:1.0;" width="10" x="160.5" y="114.9609"/><rect fill="#FFFFFF" height="180.0156" style="stroke:#181818;stroke-width:1.0;" width="10" x="307" y="155.3125"/><rect fill="#FFFFFF" height="41.3516" style="stroke:#181818;stroke-width:1.0;" width="10" x="312" y="195.9219"/><rect fill="#FFFFFF" height="30.3516" style="stroke:#181818;stroke-width:1.0;" width="10" x="441" y="274.625"/><line style="stroke:#181818;stroke-width:0.5;stroke-dasharray:5.0,5.0;" x1="23" x2="23" y1="82.6094" y2="383.6797"/><line style="stroke:#181818;stroke-width:0.5;stroke-dasharray:5.0,5.0;" x1="165" x2="165" y1="82.6094" y2="383.6797"/><line style="stroke:#181818;stroke-width:0.5;stroke-dasharray:5.0,5.0;" x1="311.5" x2="311.5" y1="154.2656" y2="383.6797"/><line style="stroke:#181818;stroke-width:0.5;stroke-dasharray:5.0,5.0;" x1="446" x2="446" y1="82.6094" y2="383.6797"/><text fill="#000000" font-family="sans-serif" font-size="14" lengthAdjust="spacing" textLength="31" x="5" y="79.5332">QAM</text><ellipse cx="23.5" cy="13.5" fill="#E3E3E3" rx="8" ry="8" style="stroke:#181818;stroke-width:0.5;"/><path d="M23.5,21.5 L23.5,48.5 M10.5,29.5 L36.5,29.5 M23.5,48.5 L10.5,63.5 M23.5,48.5 L36.5,63.5 " fill="none" style="stroke:#181818;stroke-width:0.5;"/><text fill="#000000" font-family="sans-serif" font-size="14" lengthAdjust="spacing" textLength="31" x="5" y="397.2129">QAM</text><ellipse cx="23.5" cy="408.7891" fill="#E3E3E3" rx="8" ry="8" style="stroke:#181818;stroke-width:0.5;"/><path d="M23.5,416.7891 L23.5,443.7891 M10.5,424.7891 L36.5,424.7891 M23.5,443.7891 L10.5,458.7891 M23.5,443.7891 L36.5,458.7891 " fill="none" style="stroke:#181818;stroke-width:0.5;"/><rect fill="#E3E3E3" height="31.6094" rx="2.5" ry="2.5" style="stroke:#181818;stroke-width:0.5;" width="91" x="120" y="50"/><text fill="#000000" font-family="sans-serif" font-size="14" lengthAdjust="spacing" textLength="77" x="127" y="71.5332">:RunTestsUI</text><rect fill="#E3E3E3" height="31.6094" rx="2.5" ry="2.5" style="stroke:#181818;stroke-width:0.5;" width="91" x="120" y="382.6797"/><text fill="#000000" font-family="sans-serif" font-size="14" lengthAdjust="spacing" textLength="77" x="127" y="404.2129">:RunTestsUI</text><rect fill="#E3E3E3" height="31.6094" rx="2.5" ry="2.5" style="stroke:#181818;stroke-width:0.5;" width="141" x="241.5" y="382.6797"/><text fill="#000000" font-family="sans-serif" font-size="14" lengthAdjust="spacing" textLength="127" x="248.5" y="404.2129">:RunTestsController</text><rect fill="#E3E3E3" height="31.6094" rx="2.5" ry="2.5" style="stroke:#181818;stroke-width:0.5;" width="68" x="412" y="50"/><text fill="#000000" font-family="sans-serif" font-size="14" lengthAdjust="spacing" textLength="54" x="419" y="71.5332">:Gnuplot</text><rect fill="#E3E3E3" height="31.6094" rx="2.5" ry="2.5" style="stroke:#181818;stroke-width:0.5;" width="68" x="412" y="382.6797"/><text fill="#000000" font-family="sans-serif" font-size="14" lengthAdjust="spacing" textLength="54" x="419" y="404.2129">:Gnuplot</text><rect fill="#FFFFFF" height="273.0703" style="stroke:#181818;stroke-width:1.0;" width="10" x="18.5" y="92.6094"/><rect fill="#FFFFFF" height="250.7188" style="stroke:#181818;stroke-width:1.0;" width="10" x="160.5" y="114.9609"/><rect fill="#FFFFFF" height="180.0156" style="stroke:#181818;stroke-width:1.0;" width="10" x="307" y="155.3125"/><rect fill="#FFFFFF" height="41.3516" style="stroke:#181818;stroke-width:1.0;" width="10" x="312" y="195.9219"/><rect fill="#FFFFFF" height="30.3516" style="stroke:#181818;stroke-width:1.0;" width="10" x="441" y="274.625"/><polygon fill="#181818" points="148.5,110.9609,158.5,114.9609,148.5,118.9609,152.5,114.9609" style="stroke:#181818;stroke-width:1.0;"/><line style="stroke:#181818;stroke-width:1.0;" x1="28.5" x2="154.5" y1="114.9609" y2="114.9609"/><text fill="#000000" font-family="sans-serif" font-size="13" font-weight="bold" lengthAdjust="spacing" textLength="7" x="35.5" y="110.1045">1</text><text fill="#000000" font-family="sans-serif" font-size="13" lengthAdjust="spacing" textLength="102" x="46.5" y="110.1045">asks to run a test</text><polygon fill="#181818" points="229.5,141.3125,239.5,145.3125,229.5,149.3125,233.5,145.3125" style="stroke:#181818;stroke-width:1.0;"/><line style="stroke:#181818;stroke-width:1.0;" x1="170.5" x2="235.5" y1="145.3125" y2="145.3125"/><text fill="#000000" font-family="sans-serif" font-size="13" font-weight="bold" lengthAdjust="spacing" textLength="7" x="177.5" y="140.4561">2</text><text fill="#000000" font-family="sans-serif" font-size="13" lengthAdjust="spacing" textLength="36" x="188.5" y="140.4561">create</text><rect fill="#E3E3E3" height="31.6094" rx="2.5" ry="2.5" style="stroke:#181818;stroke-width:0.5;" width="141" x="241.5" y="122.9609"/><text fill="#000000" font-family="sans-serif" font-size="14" lengthAdjust="spacing" textLength="127" x="248.5" y="144.4941">:RunTestsController</text><line style="stroke:#181818;stroke-width:1.0;" x1="317" x2="364" y1="182.9219" y2="182.9219"/><line style="stroke:#181818;stroke-width:1.0;" x1="364" x2="364" y1="182.9219" y2="195.9219"/><line style="stroke:#181818;stroke-width:1.0;" x1="323" x2="364" y1="195.9219" y2="195.9219"/><polygon fill="#181818" points="333,191.9219,323,195.9219,333,199.9219,329,195.9219" style="stroke:#181818;stroke-width:1.0;"/><text fill="#000000" font-family="sans-serif" font-size="13" font-weight="bold" lengthAdjust="spacing" textLength="7" x="329" y="178.0654">3</text><text fill="#000000" font-family="sans-serif" font-size="13" lengthAdjust="spacing" textLength="99" x="340" y="178.0654">executeMultiple()</text><line style="stroke:#181818;stroke-width:1.0;stroke-dasharray:2.0,2.0;" x1="322" x2="364" y1="236.2734" y2="236.2734"/><line style="stroke:#181818;stroke-width:1.0;stroke-dasharray:2.0,2.0;" x1="364" x2="364" y1="236.2734" y2="249.2734"/><line style="stroke:#181818;stroke-width:1.0;stroke-dasharray:2.0,2.0;" x1="317" x2="364" y1="249.2734" y2="249.2734"/><polygon fill="#181818" points="327,245.2734,317,249.2734,327,253.2734,323,249.2734" style="stroke:#181818;stroke-width:1.0;"/><text fill="#000000" font-family="sans-serif" font-size="13" font-weight="bold" lengthAdjust="spacing" textLength="7" x="329" y="231.417">4</text><text fill="#000000" font-family="sans-serif" font-size="13" lengthAdjust="spacing" textLength="4" x="340" y="231.417"> </text><polygon fill="#181818" points="429,270.625,439,274.625,429,278.625,433,274.625" style="stroke:#181818;stroke-width:1.0;"/><line style="stroke:#181818;stroke-width:1.0;" x1="317" x2="435" y1="274.625" y2="274.625"/><text fill="#000000" font-family="sans-serif" font-size="13" font-weight="bold" lengthAdjust="spacing" textLength="7" x="324" y="269.7686">5</text><text fill="#000000" font-family="sans-serif" font-size="13" lengthAdjust="spacing" textLength="54" x="335" y="269.7686">execute()</text><polygon fill="#181818" points="328,300.9766,318,304.9766,328,308.9766,324,304.9766" style="stroke:#181818;stroke-width:1.0;"/><line style="stroke:#181818;stroke-width:1.0;" x1="322" x2="445" y1="304.9766" y2="304.9766"/><text fill="#000000" font-family="sans-serif" font-size="13" font-weight="bold" lengthAdjust="spacing" textLength="7" x="334" y="300.1201">6</text><text fill="#000000" font-family="sans-serif" font-size="13" lengthAdjust="spacing" textLength="39" x="345" y="300.1201">results</text><polygon fill="#181818" points="181.5,331.3281,171.5,335.3281,181.5,339.3281,177.5,335.3281" style="stroke:#181818;stroke-width:1.0;"/><line style="stroke:#181818;stroke-width:1.0;stroke-dasharray:2.0,2.0;" x1="175.5" x2="311" y1="335.3281" y2="335.3281"/><text fill="#000000" font-family="sans-serif" font-size="13" font-weight="bold" lengthAdjust="spacing" textLength="7" x="187.5" y="330.4717">7</text><text fill="#000000" font-family="sans-serif" font-size="13" lengthAdjust="spacing" textLength="65" x="198.5" y="330.4717">test results</text><polygon fill="#181818" points="34.5,361.6797,24.5,365.6797,34.5,369.6797,30.5,365.6797" style="stroke:#181818;stroke-width:1.0;"/><line style="stroke:#181818;stroke-width:1.0;stroke-dasharray:2.0,2.0;" x1="28.5" x2="164.5" y1="365.6797" y2="365.6797"/><text fill="#000000" font-family="sans-serif" font-size="13" font-weight="bold" lengthAdjust="spacing" textLength="7" x="40.5" y="360.8232">8</text><text fill="#000000" font-family="sans-serif" font-size="13" lengthAdjust="spacing" textLength="84" x="51.5" y="360.8232">displays graph</text><!--SRC=[ZLBBRW8n3BpdAonEBL9_W0DInQ52AWSeV80RtDs8R18bJbl-ljve7xnLNxAEPyRZUDF1k80H6sYyyxgElY7Wc4cbeH9G7x2Y3pvQWaYQqLNs591gtFiVuohuGfj8ASpiNMu-AIf9DFi8a_NhQWAOG4ubD3RQ17GCazackoqbJhjb0UoMT-eBxpXwQoaMt6AxURz0lhaShETIxhvBV_EDJAMpWYuaWPUvD8EPe0y9s4FC3X1OUesuWIssnjisX2e2hOlfL4Hq986T8GPkiNfMQgEzxIL4W7v9PwPLjco2fQVdAyAvtcsvJk-gkgV_iEVziur-7ldet_WIq8kCmqLACbTwP6jOsCsXogBQrGnIwjvegj-EqDerps1lKh1uJ5153BMw8CbcJxBobwW_]--></g></svg>