<?xml version="1.0" encoding="UTF-8" standalone="no"?><svg xmlns="http://www.w3.org/2000/svg" xmlns:xlink="http://www.w3.org/1999/xlink" contentStyleType="text/css" height="3350px" preserveAspectRatio="none" style="width:668px;height:3350px;background:#FFFFFF;" version="1.1" viewBox="0 0 668 3350" width="668px" zoomAndPan="magnify"><defs/><g><text fill="#000000" font-family="sans-serif" font-size="14" font-weight="bold" lengthAdjust="spacing" textLength="176" x="239" y="24.5332">Global Use Case Diagram</text><!--cluster actors--><g id="cluster_actors"><rect fill="none" height="695" rx="2.5" ry="2.5" style="stroke:#181818;stroke-width:1.0;" width="103" x="7" y="1327.6094"/><text fill="#000000" font-family="sans-serif" font-size="14" font-weight="bold" lengthAdjust="spacing" textLength="87" x="15" y="1344.1426">System User</text></g><!--cluster usecases--><g id="cluster_usecases"><rect fill="none" height="3299" rx="2.5" ry="2.5" style="stroke:#181818;stroke-width:1.0;" width="524" x="138" y="45.6094"/><text fill="#000000" font-family="sans-serif" font-size="14" font-weight="bold" lengthAdjust="spacing" textLength="74" x="363" y="62.1426">Use Cases</text></g><!--entity HRM--><g id="elem_HRM"><ellipse cx="58.5" cy="1372.1094" fill="#F1F1F1" rx="8" ry="8" style="stroke:#181818;stroke-width:0.5;"/><path d="M58.5,1380.1094 L58.5,1407.1094 M45.5,1388.1094 L71.5,1388.1094 M58.5,1407.1094 L45.5,1422.1094 M58.5,1407.1094 L71.5,1422.1094 " fill="none" style="stroke:#181818;stroke-width:0.5;"/><text fill="#000000" font-family="sans-serif" font-size="14" lengthAdjust="spacing" textLength="30" x="43.5" y="1438.1426">HRM</text></g><!--entity VFM--><g id="elem_VFM"><ellipse cx="58.5" cy="1485.1094" fill="#F1F1F1" rx="8" ry="8" style="stroke:#181818;stroke-width:0.5;"/><path d="M58.5,1493.1094 L58.5,1520.1094 M45.5,1501.1094 L71.5,1501.1094 M58.5,1520.1094 L45.5,1535.1094 M58.5,1520.1094 L71.5,1535.1094 " fill="none" style="stroke:#181818;stroke-width:0.5;"/><text fill="#000000" font-family="sans-serif" font-size="14" lengthAdjust="spacing" textLength="29" x="44" y="1551.1426">VFM</text></g><!--entity GSM--><g id="elem_GSM"><ellipse cx="58.5" cy="1598.1094" fill="#F1F1F1" rx="8" ry="8" style="stroke:#181818;stroke-width:0.5;"/><path d="M58.5,1606.1094 L58.5,1633.1094 M45.5,1614.1094 L71.5,1614.1094 M58.5,1633.1094 L45.5,1648.1094 M58.5,1633.1094 L71.5,1648.1094 " fill="none" style="stroke:#181818;stroke-width:0.5;"/><text fill="#000000" font-family="sans-serif" font-size="14" lengthAdjust="spacing" textLength="31" x="43" y="1664.1426">GSM</text></g><!--entity QAM--><g id="elem_QAM"><ellipse cx="58.5" cy="1711.1094" fill="#F1F1F1" rx="8" ry="8" style="stroke:#181818;stroke-width:0.5;"/><path d="M58.5,1719.1094 L58.5,1746.1094 M45.5,1727.1094 L71.5,1727.1094 M58.5,1746.1094 L45.5,1761.1094 M58.5,1746.1094 L71.5,1761.1094 " fill="none" style="stroke:#181818;stroke-width:0.5;"/><text fill="#000000" font-family="sans-serif" font-size="14" lengthAdjust="spacing" textLength="31" x="43" y="1777.1426">QAM</text></g><!--entity GSU--><g id="elem_GSU"><ellipse cx="58.5" cy="1824.1094" fill="#F1F1F1" rx="8" ry="8" style="stroke:#181818;stroke-width:0.5;"/><path d="M58.5,1832.1094 L58.5,1859.1094 M45.5,1840.1094 L71.5,1840.1094 M58.5,1859.1094 L45.5,1874.1094 M58.5,1859.1094 L71.5,1874.1094 " fill="none" style="stroke:#181818;stroke-width:0.5;"/><text fill="#000000" font-family="sans-serif" font-size="14" lengthAdjust="spacing" textLength="29" x="44" y="1890.1426">GSU</text></g><!--entity CLB--><g id="elem_CLB"><ellipse cx="58.5" cy="1937.1094" fill="#F1F1F1" rx="8" ry="8" style="stroke:#181818;stroke-width:0.5;"/><path d="M58.5,1945.1094 L58.5,1972.1094 M45.5,1953.1094 L71.5,1953.1094 M58.5,1972.1094 L45.5,1987.1094 M58.5,1972.1094 L71.5,1987.1094 " fill="none" style="stroke:#181818;stroke-width:0.5;"/><text fill="#000000" font-family="sans-serif" font-size="14" lengthAdjust="spacing" textLength="27" x="45" y="2003.1426">CLB</text></g><g id="elem_UC001"><ellipse cx="399.9339" cy="500.6962" fill="#F1F1F1" rx="115.9339" ry="25.5868" style="stroke:#181818;stroke-width:0.5;"/><text fill="#000000" font-family="sans-serif" font-size="14" lengthAdjust="spacing" textLength="196" x="301.9339" y="504.4247">US001/UC001 - Register a Skill</text></g><g id="elem_UC002"><ellipse cx="400.0541" cy="107.4202" fill="#F1F1F1" rx="114.5541" ry="25.3108" style="stroke:#181818;stroke-width:0.5;"/><text fill="#000000" font-family="sans-serif" font-size="14" lengthAdjust="spacing" textLength="193" x="303.5541" y="111.1487">US002/UC002 - Register a Job</text></g><g id="elem_UC003"><ellipse cx="400.0642" cy="207.7222" fill="#F1F1F1" rx="186.0642" ry="39.6128" style="stroke:#181818;stroke-width:0.5;"/><text fill="#000000" font-family="sans-serif" font-size="14" lengthAdjust="spacing" textLength="309" x="245.5642" y="202.646">US003/UC003 - Register a collaborator with a job</text><text fill="#000000" font-family="sans-serif" font-size="14" lengthAdjust="spacing" textLength="205" x="299.5642" y="220.2554">and fundamental characteristics.</text></g><g id="elem_UC004"><ellipse cx="399.8881" cy="316.587" fill="#F1F1F1" rx="157.8881" ry="33.9776" style="stroke:#181818;stroke-width:0.5;"/><text fill="#000000" font-family="sans-serif" font-size="14" lengthAdjust="spacing" textLength="285" x="257.3881" y="320.3155">US004/UC004 - Assign skills to a collaborator</text></g><g id="elem_UC005"><ellipse cx="399.9467" cy="412.3987" fill="#F1F1F1" rx="121.9467" ry="26.7893" style="stroke:#181818;stroke-width:0.5;"/><text fill="#000000" font-family="sans-serif" font-size="14" lengthAdjust="spacing" textLength="209" x="295.4467" y="416.1272">US005/UC005 - Generate a team</text></g><g id="elem_UC006"><ellipse cx="400.2387" cy="796.4571" fill="#F1F1F1" rx="124.7387" ry="27.3477" style="stroke:#181818;stroke-width:0.5;"/><text fill="#000000" font-family="sans-serif" font-size="14" lengthAdjust="spacing" textLength="215" x="292.7387" y="800.1856">US006/UC006 - Register a vehicle</text></g><g id="elem_UC007"><ellipse cx="400.1231" cy="594.534" fill="#F1F1F1" rx="152.6231" ry="32.9246" style="stroke:#181818;stroke-width:0.5;"/><text fill="#000000" font-family="sans-serif" font-size="14" lengthAdjust="spacing" textLength="274" x="263.1231" y="598.2625">US007/UC007 - Register a Vehicle checkup</text></g><g id="elem_UC008"><ellipse cx="400.0554" cy="698.7205" fill="#F1F1F1" rx="166.0554" ry="35.6111" style="stroke:#181818;stroke-width:0.5;"/><text fill="#000000" font-family="sans-serif" font-size="14" lengthAdjust="spacing" textLength="302" x="249.0554" y="702.449">US008/UC008 - List Vehicles Needing Check-up</text></g><g id="elem_UC009"><ellipse cx="399.9397" cy="2343.6973" fill="#F1F1F1" rx="183.4397" ry="39.0879" style="stroke:#181818;stroke-width:0.5;"/><text fill="#000000" font-family="sans-serif" font-size="14" lengthAdjust="spacing" textLength="299" x="248.4397" y="2338.6212">US009/UC009 - See the exact costs referring to</text><text fill="#000000" font-family="sans-serif" font-size="14" lengthAdjust="spacing" textLength="275" x="262.4397" y="2356.2305">water consumption of specific green spaces</text></g><g id="elem_UC010"><ellipse cx="399.9416" cy="2457.3977" fill="#F1F1F1" rx="186.9416" ry="39.7883" style="stroke:#181818;stroke-width:0.5;"/><text fill="#000000" font-family="sans-serif" font-size="14" lengthAdjust="spacing" textLength="307" x="244.4416" y="2452.3215">US010/UC010 - See in a pie chart which piece(s)</text><text fill="#000000" font-family="sans-serif" font-size="14" lengthAdjust="spacing" textLength="233" x="283.4416" y="2469.9309">of equipment is/are used in each day</text></g><g id="elem_UC011"><ellipse cx="400.0002" cy="2568.5094" fill="#F1F1F1" rx="167.5002" ry="35.9" style="stroke:#181818;stroke-width:0.5;"/><text fill="#000000" font-family="sans-serif" font-size="14" lengthAdjust="spacing" textLength="305" x="247.5002" y="2572.2379">US011/UC011 - Collect data from the user portal</text></g><g id="elem_UC012"><ellipse cx="399.9698" cy="2682.6033" fill="#F1F1F1" rx="200.4698" ry="42.494" style="stroke:#181818;stroke-width:0.5;"/><text fill="#000000" font-family="sans-serif" font-size="14" lengthAdjust="spacing" textLength="373" x="213.4698" y="2686.3318">US012/UC012 - I want to import a .csv file containing routes</text></g><g id="elem_UC013"><ellipse cx="400.1741" cy="2801.5442" fill="#F1F1F1" rx="192.6741" ry="40.9348" style="stroke:#181818;stroke-width:0.5;"/><text fill="#000000" font-family="sans-serif" font-size="14" lengthAdjust="spacing" textLength="320" x="238.1741" y="2796.468">US013/UC013 - Apply an algorithm that returns the</text><text fill="#000000" font-family="sans-serif" font-size="14" lengthAdjust="spacing" textLength="249" x="275.6741" y="2814.0774">routes to be opened, with minimum cost</text></g><g id="elem_UC014"><ellipse cx="399.9911" cy="3062.6076" fill="#F1F1F1" rx="217.9911" ry="45.9982" style="stroke:#181818;stroke-width:0.5;"/><text fill="#000000" font-family="sans-serif" font-size="14" lengthAdjust="spacing" textLength="327" x="233.4911" y="3049.5148">US014/UC014 - Run tests for inputs of variable size,</text><text fill="#000000" font-family="sans-serif" font-size="14" lengthAdjust="spacing" textLength="325" x="234.4911" y="3067.1242">to observe the asymptotic behavior of the execution</text><text fill="#000000" font-family="sans-serif" font-size="14" lengthAdjust="spacing" textLength="104" x="344.9911" y="3084.7336">time of the US13</text></g><g id="elem_UC015"><ellipse cx="400.1437" cy="903.5381" fill="#F1F1F1" rx="210.1437" ry="44.4287" style="stroke:#181818;stroke-width:0.5;"/><text fill="#000000" font-family="sans-serif" font-size="14" lengthAdjust="spacing" textLength="359" x="218.6437" y="898.4619">US015/UC015 - Predict the average monthly cost that will</text><text fill="#000000" font-family="sans-serif" font-size="14" lengthAdjust="spacing" textLength="194" x="303.1437" y="916.0713">be paid for water consumption.</text></g><g id="elem_UC016"><ellipse cx="400.0331" cy="1029.816" fill="#F1F1F1" rx="219.0331" ry="46.2066" style="stroke:#181818;stroke-width:0.5;"/><text fill="#000000" font-family="sans-serif" font-size="14" lengthAdjust="spacing" textLength="411" x="194.5331" y="1033.5445">US016/UC016 - Determine the best line that fits the data in US14.</text></g><g id="elem_UC017"><ellipse cx="400.2415" cy="1155.4577" fill="#F1F1F1" rx="209.7415" ry="44.3483" style="stroke:#181818;stroke-width:0.5;"/><text fill="#000000" font-family="sans-serif" font-size="14" lengthAdjust="spacing" textLength="392" x="204.2415" y="1159.1862">US017/UC017 - Place signs to evacuate to an Assembly Point.</text></g><g id="elem_UC018"><ellipse cx="399.859" cy="1278.4812" fill="#F1F1F1" rx="204.859" ry="43.3718" style="stroke:#181818;stroke-width:0.5;"/><text fill="#000000" font-family="sans-serif" font-size="14" lengthAdjust="spacing" textLength="382" x="208.859" y="1282.2097">US018/UC018 - Place signs to evacuate to an Meeting Point.</text></g><g id="elem_UC019"><ellipse cx="400.0113" cy="2929.7116" fill="#F1F1F1" rx="246.0113" ry="51.6023" style="stroke:#181818;stroke-width:0.5;"/><text fill="#000000" font-family="sans-serif" font-size="14" lengthAdjust="spacing" textLength="437" x="179.5113" y="2924.6355">US019/UC019 - Conclude about the worst-case time complexity of the</text><text fill="#000000" font-family="sans-serif" font-size="14" lengthAdjust="spacing" textLength="311" x="244.5113" y="2942.2448">procedures developed in US13, US17, and US18.</text></g><g id="elem_UC020"><ellipse cx="400.1295" cy="1402.4353" fill="#F1F1F1" rx="214.6295" ry="45.3259" style="stroke:#181818;stroke-width:0.5;"/><text fill="#000000" font-family="sans-serif" font-size="14" lengthAdjust="spacing" textLength="402" x="199.1295" y="1406.1638">US020/UC020 - Register a green space and its respective area.</text></g><g id="elem_UC021"><ellipse cx="399.772" cy="1520.7638" fill="#F1F1F1" rx="173.772" ry="37.1544" style="stroke:#181818;stroke-width:0.5;"/><text fill="#000000" font-family="sans-serif" font-size="14" lengthAdjust="spacing" textLength="318" x="240.772" y="1524.4923">US021/UC021 - Add a new toDoEntry to the To-Do List.</text></g><g id="elem_UC022"><ellipse cx="400.0928" cy="1628.5279" fill="#F1F1F1" rx="165.0928" ry="35.4186" style="stroke:#181818;stroke-width:0.5;"/><text fill="#000000" font-family="sans-serif" font-size="14" lengthAdjust="spacing" textLength="300" x="250.0928" y="1632.2564">US022/UC022 - Add a new toDoEntry in the Agenda.</text></g><g id="elem_UC023"><ellipse cx="400.0856" cy="1740.7265" fill="#F1F1F1" rx="196.0856" ry="41.6171" style="stroke:#181818;stroke-width:0.5;"/><text fill="#000000" font-family="sans-serif" font-size="14" lengthAdjust="spacing" textLength="364" x="218.0856" y="1744.455">US023/UC023 - Assign a Team to an toDoEntry in the Agenda.</text></g><g id="elem_UC024"><ellipse cx="399.9915" cy="1863.7077" fill="#F1F1F1" rx="220.9915" ry="46.5983" style="stroke:#181818;stroke-width:0.5;"/><text fill="#000000" font-family="sans-serif" font-size="14" lengthAdjust="spacing" textLength="415" x="192.4915" y="1867.4362">US024/UC024 - Postpone an toDoEntry in the Agenda to a future date.</text></g><g id="elem_UC025"><ellipse cx="400.1306" cy="1980.8355" fill="#F1F1F1" rx="164.1306" ry="35.2261" style="stroke:#181818;stroke-width:0.5;"/><text fill="#000000" font-family="sans-serif" font-size="14" lengthAdjust="spacing" textLength="298" x="251.1306" y="1984.564">US025/UC025 - Cancel an toDoEntry in the Agenda.</text></g><g id="elem_UC026"><ellipse cx="400.1753" cy="2100.4444" fill="#F1F1F1" rx="237.1753" ry="49.8351" style="stroke:#181818;stroke-width:0.5;"/><text fill="#000000" font-family="sans-serif" font-size="14" lengthAdjust="spacing" textLength="448" x="176.1753" y="2104.1729">US026/UC026 - Assign one or more vehicles to an toDoEntry in the Agenda.</text></g><g id="elem_UC027"><ellipse cx="400.0725" cy="2227.8239" fill="#F1F1F1" rx="196.5725" ry="41.7145" style="stroke:#181818;stroke-width:0.5;"/><text fill="#000000" font-family="sans-serif" font-size="14" lengthAdjust="spacing" textLength="365" x="217.5725" y="2231.5524">US027/UC027 - List all green spaces managed by a GSM.</text></g><g id="elem_UC028"><ellipse cx="399.9981" cy="3289.409" fill="#F1F1F1" rx="181.9981" ry="38.7996" style="stroke:#181818;stroke-width:0.5;"/><text fill="#000000" font-family="sans-serif" font-size="14" lengthAdjust="spacing" textLength="335" x="232.4981" y="3293.1375">US028/UC028 - Consult the tasks assigned to a CLB.</text></g><g id="elem_UC029"><ellipse cx="399.982" cy="3179.6058" fill="#F1F1F1" rx="167.982" ry="35.9964" style="stroke:#181818;stroke-width:0.5;"/><text fill="#000000" font-family="sans-serif" font-size="14" lengthAdjust="spacing" textLength="306" x="246.982" y="3183.3343">US029/UC029 - Record the completion of a task.</text></g><!--link HRM to UC001--><g id="link_HRM_UC001"><path d="M59.92,1363.5994 C62.03,1203.7394 73.66,604.4394 130,543.6094 C170.32,500.0794 235.73,488.8894 291.95,488.7894 " fill="none" id="HRM-to-UC001" style="stroke:#181818;stroke-width:1.0;"/><polygon fill="#181818" points="297.02,488.8094,288.0315,484.7837,292.02,488.7951,288.0086,492.7836,297.02,488.8094" style="stroke:#181818;stroke-width:1.0;"/></g><!--link HRM to UC002--><g id="link_HRM_UC002"><path d="M60.34,1363.2894 C64.93,1155.8894 88.38,196.7194 130,150.6094 C170.37,105.8794 237.19,95.0194 294.12,95.3994 " fill="none" id="HRM-to-UC002" style="stroke:#181818;stroke-width:1.0;"/><polygon fill="#181818" points="299.25,95.4594,290.2963,91.3568,294.2503,95.4022,290.2049,99.3563,299.25,95.4594" style="stroke:#181818;stroke-width:1.0;"/></g><!--link HRM to UC003--><g id="link_HRM_UC003"><path d="M59.17,1363.5094 C57.93,1173.1794 56.85,349.3794 130,264.6094 C151.17,240.0794 180.02,224.5494 210.99,214.9694 " fill="none" id="HRM-to-UC003" style="stroke:#181818;stroke-width:1.0;"/><polygon fill="#181818" points="215.98,213.4894,206.2119,212.2308,211.1889,214.9196,208.5002,219.8966,215.98,213.4894" style="stroke:#181818;stroke-width:1.0;"/></g><!--link HRM to UC004--><g id="link_HRM_UC004"><path d="M59.39,1363.4894 C59.26,1183.8294 62.84,443.3094 130,367.6094 C157.43,336.6894 197.27,320.8894 237.92,313.5094 " fill="none" id="HRM-to-UC004" style="stroke:#181818;stroke-width:1.0;"/><polygon fill="#181818" points="242.88,312.6494,233.3345,310.2237,237.9515,313.4922,234.6831,318.1092,242.88,312.6494" style="stroke:#181818;stroke-width:1.0;"/></g><!--link HRM to UC005--><g id="link_HRM_UC005"><path d="M59.63,1363.4994 C60.55,1193.6394 68.1,525.4294 130,457.6094 C168.03,415.9394 228.94,403.3094 283.19,401.7094 " fill="none" id="HRM-to-UC005" style="stroke:#181818;stroke-width:1.0;"/><polygon fill="#181818" points="288.41,401.5894,279.3102,397.822,283.4117,401.7179,279.5158,405.8194,288.41,401.5894" style="stroke:#181818;stroke-width:1.0;"/></g><!--link VFM to UC006--><g id="link_VFM_UC006"><path d="M73.15,1507.0794 C87.35,1497.3394 108.75,1479.9494 118,1458.6094 C131.63,1427.1494 107.59,867.5594 130,841.6094 C166.87,798.9094 227.7,786.2094 282.19,784.8294 " fill="none" id="VFM-to-UC006" style="stroke:#181818;stroke-width:1.0;"/><polygon fill="#181818" points="287.44,784.7294,278.3618,780.9101,282.441,784.8294,278.5218,788.9085,287.44,784.7294" style="stroke:#181818;stroke-width:1.0;"/></g><!--link VFM to UC007--><g id="link_VFM_UC007"><path d="M73.17,1507.0894 C87.38,1497.3594 108.8,1479.9694 118,1458.6094 C126.93,1437.8694 115.47,662.8994 130,645.6094 C158.35,611.8894 201.43,595.8994 244.86,589.2194 " fill="none" id="VFM-to-UC007" style="stroke:#181818;stroke-width:1.0;"/><polygon fill="#181818" points="249.88,588.4894,240.4015,585.8138,244.9311,589.2025,241.5425,593.7321,249.88,588.4894" style="stroke:#181818;stroke-width:1.0;"/></g><!--link VFM to UC008--><g id="link_VFM_UC008"><path d="M73.16,1507.0894 C87.36,1497.3494 108.78,1479.9594 118,1458.6094 C133.58,1422.5494 104.79,781.7394 130,751.6094 C154.84,721.9094 191.06,705.7294 228.91,697.4894 " fill="none" id="VFM-to-UC008" style="stroke:#181818;stroke-width:1.0;"/><polygon fill="#181818" points="234.02,696.4194,224.3948,694.3323,229.1244,697.4357,226.021,702.1653,234.02,696.4194" style="stroke:#181818;stroke-width:1.0;"/></g><!--link GSM to UC009--><g id="link_GSM_UC009"><path d="M74.2,1637.6394 C88.37,1647.2894 108.96,1664.0094 118,1684.6094 C131.44,1715.2394 108.68,2260.8294 130,2286.6094 C151.15,2312.1894 180.66,2328.0794 212.42,2337.6494 " fill="none" id="GSM-to-UC009" style="stroke:#181818;stroke-width:1.0;"/><polygon fill="#181818" points="217.54,2339.1394,209.9976,2332.806,212.7351,2337.7564,207.7847,2340.4939,217.54,2339.1394" style="stroke:#181818;stroke-width:1.0;"/></g><!--link GSM to UC010--><g id="link_GSM_UC010"><path d="M74.21,1637.6294 C88.39,1647.2794 108.99,1663.9994 118,1684.6094 C133.91,1721.0094 104.79,2368.9094 130,2399.6094 C150.51,2424.5794 178.95,2440.3994 209.71,2450.1694 " fill="none" id="GSM-to-UC010" style="stroke:#181818;stroke-width:1.0;"/><polygon fill="#181818" points="214.67,2451.6894,207.2253,2445.2413,209.8868,2450.233,204.8951,2452.8945,214.67,2451.6894" style="stroke:#181818;stroke-width:1.0;"/></g><!--link GSM to UC011--><g id="link_GSM_UC011"><path d="M74.22,1637.6294 C88.41,1647.2694 109.02,1663.9894 118,1684.6094 C127.21,1705.7494 115.26,2496.8794 130,2514.6094 C154.48,2544.0594 190.11,2560.3294 227.48,2568.8094 " fill="none" id="GSM-to-UC011" style="stroke:#181818;stroke-width:1.0;"/><polygon fill="#181818" points="232.52,2569.8994,224.5857,2564.0644,227.6361,2568.8283,222.8721,2571.8787,232.52,2569.8994" style="stroke:#181818;stroke-width:1.0;"/></g><!--link GSM to UC012--><g id="link_GSM_UC012"><path d="M74.23,1637.6294 C88.42,1647.2594 109.03,1663.9794 118,1684.6094 C128.38,1708.4794 113.63,2601.3694 130,2621.6094 C148.51,2644.4794 173.63,2659.8894 201.12,2670.0994 " fill="none" id="GSM-to-UC012" style="stroke:#181818;stroke-width:1.0;"/><polygon fill="#181818" points="205.92,2671.8194,198.7923,2665.0226,201.2119,2670.1359,196.0987,2672.5555,205.92,2671.8194" style="stroke:#181818;stroke-width:1.0;"/></g><!--link GSM to UC013--><g id="link_GSM_UC013"><path d="M74.23,1637.6194 C88.43,1647.2594 109.05,1663.9694 118,1684.6094 C129.7,1711.5694 111.45,2719.8094 130,2742.6094 C149.54,2766.6194 176.41,2782.2594 205.64,2792.2294 " fill="none" id="GSM-to-UC013" style="stroke:#181818;stroke-width:1.0;"/><polygon fill="#181818" points="210.74,2793.8994,203.4309,2787.2981,205.9881,2792.3439,200.9422,2794.9011,210.74,2793.8994" style="stroke:#181818;stroke-width:1.0;"/></g><!--link QAM to UC014--><g id="link_QAM_UC014"><path d="M74.24,1750.6194 C88.44,1760.2494 109.06,1776.9694 118,1797.6094 C131.26,1828.2294 109.19,2972.5294 130,2998.6094 C146.28,3019.0094 167.78,3033.6294 191.55,3044.0094 " fill="none" id="QAM-to-UC014" style="stroke:#181818;stroke-width:1.0;"/><polygon fill="#181818" points="196.34,3046.0294,189.5975,3038.8503,191.7318,3044.0891,186.4931,3046.2234,196.34,3046.0294" style="stroke:#181818;stroke-width:1.0;"/></g><!--link GSM to UC015--><g id="link_GSM_UC015"><path d="M74.2,1619.3594 C88.38,1609.4894 108.98,1592.4294 118,1571.6094 C131.39,1540.7194 108.77,991.7494 130,965.6094 C147.21,944.4194 170.07,929.5894 195.23,919.3394 " fill="none" id="GSM-to-UC015" style="stroke:#181818;stroke-width:1.0;"/><polygon fill="#181818" points="199.95,917.4794,190.1107,917.0454,195.2959,919.3068,193.0345,924.4919,199.95,917.4794" style="stroke:#181818;stroke-width:1.0;"/></g><!--link GSM to UC016--><g id="link_GSM_UC016"><path d="M74.18,1619.3494 C88.34,1609.4694 108.92,1592.3994 118,1571.6094 C128.63,1547.2694 113.27,1114.2494 130,1093.6094 C146.37,1073.4194 167.84,1058.9094 191.53,1048.5694 " fill="none" id="GSM-to-UC016" style="stroke:#181818;stroke-width:1.0;"/><polygon fill="#181818" points="196.3,1046.5594,186.4531,1046.3653,191.6918,1048.4997,189.5575,1053.7384,196.3,1046.5594" style="stroke:#181818;stroke-width:1.0;"/></g><!--link GSM to UC017--><g id="link_GSM_UC017"><path d="M74.14,1619.3294 C88.27,1609.4394 108.83,1592.3594 118,1571.6094 C133.91,1535.6094 104.98,1247.9894 130,1217.6094 C147.43,1196.4494 170.49,1181.6594 195.81,1171.4294 " fill="none" id="GSM-to-UC017" style="stroke:#181818;stroke-width:1.0;"/><polygon fill="#181818" points="200.56,1169.5794,190.7219,1169.1192,195.9011,1171.3944,193.6259,1176.5735,200.56,1169.5794" style="stroke:#181818;stroke-width:1.0;"/></g><!--link GSM to UC018--><g id="link_GSM_UC018"><path d="M74.06,1619.2894 C88.13,1609.3794 108.64,1592.2794 118,1571.6094 C128.64,1548.0894 113.38,1359.3594 130,1339.6094 C148.22,1317.9694 172.35,1303.0694 198.7,1292.9494 " fill="none" id="GSM-to-UC018" style="stroke:#181818;stroke-width:1.0;"/><polygon fill="#181818" points="203.65,1291.1094,193.8201,1290.4979,198.9637,1292.8525,196.6091,1297.996,203.65,1291.1094" style="stroke:#181818;stroke-width:1.0;"/></g><!--link QAM to UC019--><g id="link_QAM_UC019"><path d="M74.23,1750.6194 C88.43,1760.2594 109.05,1776.9694 118,1797.6094 C129.74,1824.6794 111.82,2836.3694 130,2859.6094 C144.03,2877.5394 162.02,2891.2494 182.04,2901.6594 " fill="none" id="QAM-to-UC019" style="stroke:#181818;stroke-width:1.0;"/><polygon fill="#181818" points="186.62,2903.9694,180.3785,2896.3507,182.1536,2901.7219,176.7825,2903.497,186.62,2903.9694" style="stroke:#181818;stroke-width:1.0;"/></g><!--link GSM to UC020--><g id="link_GSM_UC020"><path d="M74.06,1618.9794 C87.92,1608.9394 108.08,1591.8594 118,1571.6094 C128.43,1550.3194 114.25,1483.3294 130,1465.6094 C147.85,1445.5294 170.77,1431.2194 195.68,1421.1194 " fill="none" id="GSM-to-UC020" style="stroke:#181818;stroke-width:1.0;"/><polygon fill="#181818" points="200.36,1419.2794,190.5207,1418.8454,195.7059,1421.1068,193.4445,1426.2919,200.36,1419.2794" style="stroke:#181818;stroke-width:1.0;"/></g><!--link GSM to UC021--><g id="link_GSM_UC021"><path d="M74.18,1614.4494 C87.63,1602.2794 108.64,1585.2294 130,1575.6094 C165.46,1559.6394 205.64,1548.2594 243.93,1540.1694 " fill="none" id="GSM-to-UC021" style="stroke:#181818;stroke-width:1.0;"/><polygon fill="#181818" points="249.08,1539.0994,239.449,1537.0393,244.1873,1540.1294,241.0971,1544.8677,249.08,1539.0994" style="stroke:#181818;stroke-width:1.0;"/></g><!--link GSM to UC022--><g id="link_GSM_UC022"><path d="M74.09,1628.6094 C101.99,1628.6094 165.82,1628.6094 229.59,1628.6094 " fill="none" id="GSM-to-UC022" style="stroke:#181818;stroke-width:1.0;"/><polygon fill="#181818" points="234.97,1628.6094,225.97,1624.6094,229.97,1628.6094,225.97,1632.6094,234.97,1628.6094" style="stroke:#181818;stroke-width:1.0;"/></g><!--link GSM to UC023--><g id="link_GSM_UC023"><path d="M74.21,1642.6994 C87.68,1654.8194 108.71,1671.8394 130,1681.6094 C162.1,1696.3394 198.07,1707.4794 233.01,1715.8794 " fill="none" id="GSM-to-UC023" style="stroke:#181818;stroke-width:1.0;"/><polygon fill="#181818" points="238.15,1717.0994,230.322,1711.1225,233.2861,1715.9406,228.468,1718.9047,238.15,1717.0994" style="stroke:#181818;stroke-width:1.0;"/></g><!--link GSM to UC024--><g id="link_GSM_UC024"><path d="M74.1,1637.9894 C87.98,1647.7894 108.16,1664.5394 118,1684.6094 C129.31,1707.6794 113.05,1780.2994 130,1799.6094 C147,1818.9694 168.7,1833.0294 192.37,1843.1494 " fill="none" id="GSM-to-UC024" style="stroke:#181818;stroke-width:1.0;"/><polygon fill="#181818" points="197.13,1845.1194,190.3498,1837.976,192.5117,1843.2034,187.2842,1845.3653,197.13,1845.1194" style="stroke:#181818;stroke-width:1.0;"/></g><!--link GSM to UC025--><g id="link_GSM_UC025"><path d="M74.07,1637.6994 C88.14,1647.3894 108.66,1664.1494 118,1684.6094 C129.23,1709.1994 112.32,1907.1594 130,1927.6094 C155.62,1957.2494 192.57,1973.3094 230.92,1981.4494 " fill="none" id="GSM-to-UC025" style="stroke:#181818;stroke-width:1.0;"/><polygon fill="#181818" points="236.09,1982.5094,228.0716,1976.7905,231.191,1981.5096,226.4719,1984.629,236.09,1982.5094" style="stroke:#181818;stroke-width:1.0;"/></g><!--link GSM to UC026--><g id="link_GSM_UC026"><path d="M74.13,1637.6694 C88.26,1647.3394 108.81,1664.0794 118,1684.6094 C133.81,1719.9194 105.71,2002.4994 130,2032.6094 C144.9,2051.0694 164.01,2064.9494 185.18,2075.3194 " fill="none" id="GSM-to-UC026" style="stroke:#181818;stroke-width:1.0;"/><polygon fill="#181818" points="189.73,2077.4794,183.3057,2070.0143,185.2104,2075.3408,179.8839,2077.2456,189.73,2077.4794" style="stroke:#181818;stroke-width:1.0;"/></g><!--link GSM to UC027--><g id="link_GSM_UC027"><path d="M74.17,1637.6494 C88.33,1647.2994 108.91,1664.0294 118,1684.6094 C128.85,1709.1594 112.95,2146.8794 130,2167.6094 C149.17,2190.9294 175.24,2206.3994 203.63,2216.4794 " fill="none" id="GSM-to-UC027" style="stroke:#181818;stroke-width:1.0;"/><polygon fill="#181818" points="208.58,2218.1694,201.3488,2211.4828,203.8467,2216.5583,198.7711,2219.0562,208.58,2218.1694" style="stroke:#181818;stroke-width:1.0;"/></g><!--link CLB to UC028--><g id="link_CLB_UC028"><path d="M60.35,2006.6194 C65.05,2214.5394 89.1,3184.9194 130,3232.6094 C151.83,3258.0694 181.93,3273.8394 214.12,3283.3394 " fill="none" id="CLB-to-UC028" style="stroke:#181818;stroke-width:1.0;"/><polygon fill="#181818" points="219.3,3284.8094,211.7229,3278.5175,214.4876,3283.4528,209.5523,3286.2174,219.3,3284.8094" style="stroke:#181818;stroke-width:1.0;"/></g><!--link CLB to UC029--><g id="link_CLB_UC029"><path d="M59.11,2006.7694 C57.54,2199.2994 55.08,3039.6194 130,3125.6094 C154.78,3154.0494 189.97,3170.0594 226.76,3178.6094 " fill="none" id="CLB-to-UC029" style="stroke:#181818;stroke-width:1.0;"/><polygon fill="#181818" points="231.73,3179.7194,223.8157,3173.8573,226.8497,3178.6317,222.0754,3181.6658,231.73,3179.7194" style="stroke:#181818;stroke-width:1.0;"/></g><!--SRC=[dPTBSzis58Nt-XMOhDePAp6XzwOphZnDsqaohXLdvGr4NaceIO0bG2bg9_-z1vSIAOLjqu4N6eCYU0xluxkGUz6cL9KgH66DJNULBKZuggQ1QxyfLVgYjhJonvn4HQbNPfjVtk1sAhC7RRPYet97Wu7N7hU-pUrQvUB9aLWgVDnhjSNjWq5E6o-y5PNUxhp8T7YcjcOmQ1ykNgsEpbCHDbUlX792fTvMJlmr4FZZXVZvyVt5wjDFbwktgylLRtVNtprTh9RlVXnykP8-6tOiN3jAmw9HFgrmq-hsDddpjCId68f7schuhOGIgnUTvxoJl-HTS2g6mnzELoBL9Al9QxLVxRhLaZqj6QirOgtHjLPgyrojRQL2s0xQxt3jTxj-DaAPJ6ngawc2Z4VAqntg8iKkRDMfUzrQ7FKiZc8jZjdY61RldDDR8rm8l0jrTMsr5H_tnCUnuXCMdq3yBHc2347KaofQiKbFR18hDcMnwNKozhJJQKwjtfJteGbQlMciteprPjTwdnezf9RIbxfiTMSztLcixfnrvz1z1zMpeXCVYB80bsMG7bveptlQyrZj1MileBqY0717WZwZWb58pZj0RqDL5JoWkfxDGOMOfDQukYW3kOJT25TIgZSw5TkA2DK8Qfva-Sai2IgrLXUHLfFRO3MvFLdLw3vHQkAUy-A0cEt2EgNltFVm2cVqHwtBq9b2kpUgel2uB6maXNipTJoxJ6w_TeahNw9CCXgJWCObMX4FW8vNOeFvmj75pPKeRGLQjEf9Jps9L6TK9W6LluY3CZniT17a4ApNgTkBZGwrR44hRK9UArlxBbs9x5cHaLQOf4aWwLrPvaUWKgXyQolWCqH2UHINholZE2pFfZ4I3Az9s19qoMuQs1PmMjG5bsHhTDGpEeeqoZnD0ayVQmEMXRhV0FGOyZN-HHtjLQNL6Wzr-a-wUJRmQDV8uxvf6EMEw0OBuCFwJkqrDcDNqqkKrg5Hi4dZW76w_BHAHksRD7J6f6xV99RE2TCv2NH-g80E51_xsmFKMme77Rz39a8ScmmSC3WGUWIyL3hZj-wrU3l3aaalv9F8a3FOam3sUu8S4jn4SetWYxnPmTv6-wOwk8NGjuZRkFCpxVcPHlfXy2S1_0yvw2N2MELIfBrAwp3amd0rOU1IiKO87wmsldCowpcPHJhXKP3Cl-daFP4FxVkLaNdFo3pI2C-5PC4SCsbUPwYZDLgKyt70YTGF-MOkwzGMPKwVjJ-UA_pPb9LDAQihz7H6UyhHqjafXwERy3cxuUCJ_fjtBx3eDSCYxWKaJmjvUptCBqOKYskUSM62UOrknenGhHVP6meoSYX87Weo38MxB8CDGmU1iLGTGpP3k3xQuRtbwT_9zwQ2Z9mAagU2bFyWZtm4-RijuGpRIVUcW8oS0fAdW1nrXrKbFkAqUAhY_pJH8xoC9Bnamij0-0UWhxI6_aMyEKDlQimbXWvrRiOzD-D8Dmnf6I2zL2Qb_9k1w75NHd9NCdVbjCj620MWNrYyx_vyxFmVkUcXLqQYLp9wvUnyzbKOI9VdI54eWzcLYJLE446myz23heo4hcJeodd3EbVd3UIySY_u-Ss1WW4k3VncxWmqiCMbra0aR2N3LYwOLQcjCjPle7e-PIlsqualUk80vTy0]--></g></svg>