<?xml version="1.0" encoding="UTF-8" standalone="no"?><svg xmlns="http://www.w3.org/2000/svg" xmlns:xlink="http://www.w3.org/1999/xlink" contentStyleType="text/css" height="1040px" preserveAspectRatio="none" style="width:1160px;height:1040px;background:#FFFFFF;" version="1.1" viewBox="0 0 1160 1040" width="1160px" zoomAndPan="magnify"><defs/><g><!--cluster CreateMaintenanceReportSystem--><g id="cluster_CreateMaintenanceReportSystem"><rect fill="none" height="1027" rx="2.5" ry="2.5" style="stroke:#000000;stroke-width:1.5;" width="1147" x="7" y="7"/><text fill="#000000" font-family="sans-serif" font-size="14" font-weight="bold" lengthAdjust="spacing" textLength="236" x="462.5" y="23.5332">CreateMaintenanceReportSystem</text></g><!--class ListMaintenanceUI--><g id="elem_ListMaintenanceUI"><rect codeLine="6" fill="#F1F1F1" height="48" id="ListMaintenanceUI" rx="2.5" ry="2.5" style="stroke:#181818;stroke-width:0.5;" width="147" x="594.5" y="43"/><ellipse cx="609.5" cy="59" fill="#ADD1B2" rx="11" ry="11" style="stroke:#181818;stroke-width:1.0;"/><path d="M612.2656,54.875 Q612.4219,54.6563 612.6094,54.5469 Q612.7969,54.4375 613.0156,54.4375 Q613.3906,54.4375 613.625,54.7031 Q613.8594,54.9531 613.8594,55.5625 L613.8594,57.0156 Q613.8594,57.625 613.625,57.8906 Q613.3906,58.1563 613.0156,58.1563 Q612.6719,58.1563 612.4688,57.9531 Q612.2656,57.7656 612.1563,57.25 Q612.1094,56.8906 611.9219,56.7031 Q611.5938,56.3281 610.9844,56.1094 Q610.375,55.8906 609.75,55.8906 Q608.9844,55.8906 608.3438,56.2188 Q607.7188,56.5469 607.2188,57.2969 Q606.7344,58.0469 606.7344,59.0781 L606.7344,60.1719 Q606.7344,61.4063 607.625,62.2344 Q608.5156,63.0469 610.1094,63.0469 Q611.0469,63.0469 611.7031,62.7969 Q612.0938,62.6406 612.5156,62.2031 Q612.7813,61.9375 612.9219,61.8594 Q613.0781,61.7813 613.2813,61.7813 Q613.6094,61.7813 613.8594,62.0469 Q614.125,62.2969 614.125,62.6406 Q614.125,62.9844 613.7813,63.3906 Q613.2813,63.9688 612.4844,64.2969 Q611.4063,64.75 610.1094,64.75 Q608.5938,64.75 607.3906,64.125 Q606.4063,63.625 605.7188,62.5625 Q605.0313,61.4844 605.0313,60.2031 L605.0313,59.0469 Q605.0313,57.7188 605.6406,56.5781 Q606.2656,55.4219 607.3594,54.8125 Q608.4531,54.1875 609.6875,54.1875 Q610.4219,54.1875 611.0625,54.3594 Q611.7188,54.5156 612.2656,54.875 Z " fill="#000000"/><text fill="#000000" font-family="sans-serif" font-size="14" lengthAdjust="spacing" textLength="115" x="623.5" y="64.7285">ListMaintenanceUI</text><line style="stroke:#181818;stroke-width:0.5;" x1="595.5" x2="740.5" y1="75" y2="75"/><line style="stroke:#181818;stroke-width:0.5;" x1="595.5" x2="740.5" y1="83" y2="83"/></g><!--class ListMaintenanceController--><g id="elem_ListMaintenanceController"><rect codeLine="9" fill="#F1F1F1" height="100.8281" id="ListMaintenanceController" rx="2.5" ry="2.5" style="stroke:#181818;stroke-width:0.5;" width="497" x="419.5" y="169"/><ellipse cx="581.25" cy="185" fill="#ADD1B2" rx="11" ry="11" style="stroke:#181818;stroke-width:1.0;"/><path d="M584.0156,180.875 Q584.1719,180.6563 584.3594,180.5469 Q584.5469,180.4375 584.7656,180.4375 Q585.1406,180.4375 585.375,180.7031 Q585.6094,180.9531 585.6094,181.5625 L585.6094,183.0156 Q585.6094,183.625 585.375,183.8906 Q585.1406,184.1563 584.7656,184.1563 Q584.4219,184.1563 584.2188,183.9531 Q584.0156,183.7656 583.9063,183.25 Q583.8594,182.8906 583.6719,182.7031 Q583.3438,182.3281 582.7344,182.1094 Q582.125,181.8906 581.5,181.8906 Q580.7344,181.8906 580.0938,182.2188 Q579.4688,182.5469 578.9688,183.2969 Q578.4844,184.0469 578.4844,185.0781 L578.4844,186.1719 Q578.4844,187.4063 579.375,188.2344 Q580.2656,189.0469 581.8594,189.0469 Q582.7969,189.0469 583.4531,188.7969 Q583.8438,188.6406 584.2656,188.2031 Q584.5313,187.9375 584.6719,187.8594 Q584.8281,187.7813 585.0313,187.7813 Q585.3594,187.7813 585.6094,188.0469 Q585.875,188.2969 585.875,188.6406 Q585.875,188.9844 585.5313,189.3906 Q585.0313,189.9688 584.2344,190.2969 Q583.1563,190.75 581.8594,190.75 Q580.3438,190.75 579.1406,190.125 Q578.1563,189.625 577.4688,188.5625 Q576.7813,187.4844 576.7813,186.2031 L576.7813,185.0469 Q576.7813,183.7188 577.3906,182.5781 Q578.0156,181.4219 579.1094,180.8125 Q580.2031,180.1875 581.4375,180.1875 Q582.1719,180.1875 582.8125,180.3594 Q583.4688,180.5156 584.0156,180.875 Z " fill="#000000"/><text fill="#000000" font-family="sans-serif" font-size="14" lengthAdjust="spacing" textLength="165" x="601.75" y="190.7285">ListMaintenanceController</text><line style="stroke:#181818;stroke-width:0.5;" x1="420.5" x2="915.5" y1="201" y2="201"/><rect fill="none" height="6" style="stroke:#C82930;stroke-width:1.0;" width="6" x="427.5" y="212.3047"/><text fill="#000000" font-family="sans-serif" font-size="14" lengthAdjust="spacing" textLength="234" x="439.5" y="219.5332">vehicleRepository: VehicleRepository</text><rect fill="none" height="6" style="stroke:#C82930;stroke-width:1.0;" width="6" x="427.5" y="229.9141"/><text fill="#000000" font-family="sans-serif" font-size="14" lengthAdjust="spacing" textLength="306" x="439.5" y="237.1426">maintenanceRepository: MaintenanceRepository</text><line style="stroke:#181818;stroke-width:0.5;" x1="420.5" x2="915.5" y1="244.2188" y2="244.2188"/><ellipse cx="430.5" cy="258.5234" fill="#84BE84" rx="3" ry="3" style="stroke:#038048;stroke-width:1.0;"/><text fill="#000000" font-family="sans-serif" font-size="14" lengthAdjust="spacing" textLength="471" x="439.5" y="262.752">createMaintenanceReport(vehiclesList: List&lt;Vehicle&gt;): MaintenanceReport</text></g><!--class Repositories--><g id="elem_Repositories"><rect codeLine="16" fill="#F1F1F1" height="153.6563" id="Repositories" rx="2.5" ry="2.5" style="stroke:#181818;stroke-width:0.5;" width="362" x="299" y="348"/><ellipse cx="436.25" cy="364" fill="#ADD1B2" rx="11" ry="11" style="stroke:#181818;stroke-width:1.0;"/><path d="M439.0156,359.875 Q439.1719,359.6563 439.3594,359.5469 Q439.5469,359.4375 439.7656,359.4375 Q440.1406,359.4375 440.375,359.7031 Q440.6094,359.9531 440.6094,360.5625 L440.6094,362.0156 Q440.6094,362.625 440.375,362.8906 Q440.1406,363.1563 439.7656,363.1563 Q439.4219,363.1563 439.2188,362.9531 Q439.0156,362.7656 438.9063,362.25 Q438.8594,361.8906 438.6719,361.7031 Q438.3438,361.3281 437.7344,361.1094 Q437.125,360.8906 436.5,360.8906 Q435.7344,360.8906 435.0938,361.2188 Q434.4688,361.5469 433.9688,362.2969 Q433.4844,363.0469 433.4844,364.0781 L433.4844,365.1719 Q433.4844,366.4063 434.375,367.2344 Q435.2656,368.0469 436.8594,368.0469 Q437.7969,368.0469 438.4531,367.7969 Q438.8438,367.6406 439.2656,367.2031 Q439.5313,366.9375 439.6719,366.8594 Q439.8281,366.7813 440.0313,366.7813 Q440.3594,366.7813 440.6094,367.0469 Q440.875,367.2969 440.875,367.6406 Q440.875,367.9844 440.5313,368.3906 Q440.0313,368.9688 439.2344,369.2969 Q438.1563,369.75 436.8594,369.75 Q435.3438,369.75 434.1406,369.125 Q433.1563,368.625 432.4688,367.5625 Q431.7813,366.4844 431.7813,365.2031 L431.7813,364.0469 Q431.7813,362.7188 432.3906,361.5781 Q433.0156,360.4219 434.1094,359.8125 Q435.2031,359.1875 436.4375,359.1875 Q437.1719,359.1875 437.8125,359.3594 Q438.4688,359.5156 439.0156,359.875 Z " fill="#000000"/><text fill="#000000" font-family="sans-serif" font-size="14" lengthAdjust="spacing" textLength="79" x="456.75" y="369.7285">Repositories</text><line style="stroke:#181818;stroke-width:0.5;" x1="300" x2="660" y1="380" y2="380"/><rect fill="none" height="6" style="stroke:#C82930;stroke-width:1.0;" width="6" x="307" y="391.3047"/><text fill="#000000" font-family="sans-serif" font-size="14" lengthAdjust="spacing" textLength="140" x="319" y="398.5332">instance: Repositories</text><rect fill="none" height="6" style="stroke:#C82930;stroke-width:1.0;" width="6" x="307" y="408.9141"/><text fill="#000000" font-family="sans-serif" font-size="14" lengthAdjust="spacing" textLength="234" x="319" y="416.1426">vehicleRepository: VehicleRepository</text><rect fill="none" height="6" style="stroke:#C82930;stroke-width:1.0;" width="6" x="307" y="426.5234"/><text fill="#000000" font-family="sans-serif" font-size="14" lengthAdjust="spacing" textLength="306" x="319" y="433.752">maintenanceRepository: MaintenanceRepository</text><line style="stroke:#181818;stroke-width:0.5;" x1="300" x2="660" y1="440.8281" y2="440.8281"/><ellipse cx="310" cy="455.1328" fill="#84BE84" rx="3" ry="3" style="stroke:#038048;stroke-width:1.0;"/><text fill="#000000" font-family="sans-serif" font-size="14" lengthAdjust="spacing" textLength="170" x="319" y="459.3613">getInstance(): Repositories</text><ellipse cx="310" cy="472.7422" fill="#84BE84" rx="3" ry="3" style="stroke:#038048;stroke-width:1.0;"/><text fill="#000000" font-family="sans-serif" font-size="14" lengthAdjust="spacing" textLength="266" x="319" y="476.9707">getVehicleRepository(): VehicleRepository</text><ellipse cx="310" cy="490.3516" fill="#84BE84" rx="3" ry="3" style="stroke:#038048;stroke-width:1.0;"/><text fill="#000000" font-family="sans-serif" font-size="14" lengthAdjust="spacing" textLength="336" x="319" y="494.5801">getMaintenanceRepository(): MaintenanceRepository</text></g><!--class VehicleRepository--><g id="elem_VehicleRepository"><rect codeLine="26" fill="#F1F1F1" height="65.6094" id="VehicleRepository" rx="2.5" ry="2.5" style="stroke:#181818;stroke-width:0.5;" width="182" x="265" y="597.5"/><ellipse cx="296.2" cy="613.5" fill="#ADD1B2" rx="11" ry="11" style="stroke:#181818;stroke-width:1.0;"/><path d="M298.9656,609.375 Q299.1219,609.1563 299.3094,609.0469 Q299.4969,608.9375 299.7156,608.9375 Q300.0906,608.9375 300.325,609.2031 Q300.5594,609.4531 300.5594,610.0625 L300.5594,611.5156 Q300.5594,612.125 300.325,612.3906 Q300.0906,612.6563 299.7156,612.6563 Q299.3719,612.6563 299.1688,612.4531 Q298.9656,612.2656 298.8563,611.75 Q298.8094,611.3906 298.6219,611.2031 Q298.2938,610.8281 297.6844,610.6094 Q297.075,610.3906 296.45,610.3906 Q295.6844,610.3906 295.0438,610.7188 Q294.4188,611.0469 293.9188,611.7969 Q293.4344,612.5469 293.4344,613.5781 L293.4344,614.6719 Q293.4344,615.9063 294.325,616.7344 Q295.2156,617.5469 296.8094,617.5469 Q297.7469,617.5469 298.4031,617.2969 Q298.7938,617.1406 299.2156,616.7031 Q299.4813,616.4375 299.6219,616.3594 Q299.7781,616.2813 299.9813,616.2813 Q300.3094,616.2813 300.5594,616.5469 Q300.825,616.7969 300.825,617.1406 Q300.825,617.4844 300.4813,617.8906 Q299.9813,618.4688 299.1844,618.7969 Q298.1063,619.25 296.8094,619.25 Q295.2938,619.25 294.0906,618.625 Q293.1063,618.125 292.4188,617.0625 Q291.7313,615.9844 291.7313,614.7031 L291.7313,613.5469 Q291.7313,612.2188 292.3406,611.0781 Q292.9656,609.9219 294.0594,609.3125 Q295.1531,608.6875 296.3875,608.6875 Q297.1219,608.6875 297.7625,608.8594 Q298.4188,609.0156 298.9656,609.375 Z " fill="#000000"/><text fill="#000000" font-family="sans-serif" font-size="14" lengthAdjust="spacing" textLength="114" x="313.8" y="619.2285">VehicleRepository</text><line style="stroke:#181818;stroke-width:0.5;" x1="266" x2="446" y1="629.5" y2="629.5"/><rect fill="none" height="6" style="stroke:#C82930;stroke-width:1.0;" width="6" x="273" y="640.8047"/><text fill="#000000" font-family="sans-serif" font-size="14" lengthAdjust="spacing" textLength="156" x="285" y="648.0332">vehicleList: List&lt;vehicle&gt;</text><line style="stroke:#181818;stroke-width:0.5;" x1="266" x2="446" y1="655.1094" y2="655.1094"/></g><!--class MaintenanceRepository--><g id="elem_MaintenanceRepository"><rect codeLine="31" fill="#F1F1F1" height="100.8281" id="MaintenanceRepository" rx="2.5" ry="2.5" style="stroke:#181818;stroke-width:0.5;" width="497" x="482.5" y="580"/><ellipse cx="652.25" cy="596" fill="#ADD1B2" rx="11" ry="11" style="stroke:#181818;stroke-width:1.0;"/><path d="M655.0156,591.875 Q655.1719,591.6563 655.3594,591.5469 Q655.5469,591.4375 655.7656,591.4375 Q656.1406,591.4375 656.375,591.7031 Q656.6094,591.9531 656.6094,592.5625 L656.6094,594.0156 Q656.6094,594.625 656.375,594.8906 Q656.1406,595.1563 655.7656,595.1563 Q655.4219,595.1563 655.2188,594.9531 Q655.0156,594.7656 654.9063,594.25 Q654.8594,593.8906 654.6719,593.7031 Q654.3438,593.3281 653.7344,593.1094 Q653.125,592.8906 652.5,592.8906 Q651.7344,592.8906 651.0938,593.2188 Q650.4688,593.5469 649.9688,594.2969 Q649.4844,595.0469 649.4844,596.0781 L649.4844,597.1719 Q649.4844,598.4063 650.375,599.2344 Q651.2656,600.0469 652.8594,600.0469 Q653.7969,600.0469 654.4531,599.7969 Q654.8438,599.6406 655.2656,599.2031 Q655.5313,598.9375 655.6719,598.8594 Q655.8281,598.7813 656.0313,598.7813 Q656.3594,598.7813 656.6094,599.0469 Q656.875,599.2969 656.875,599.6406 Q656.875,599.9844 656.5313,600.3906 Q656.0313,600.9688 655.2344,601.2969 Q654.1563,601.75 652.8594,601.75 Q651.3438,601.75 650.1406,601.125 Q649.1563,600.625 648.4688,599.5625 Q647.7813,598.4844 647.7813,597.2031 L647.7813,596.0469 Q647.7813,594.7188 648.3906,593.5781 Q649.0156,592.4219 650.1094,591.8125 Q651.2031,591.1875 652.4375,591.1875 Q653.1719,591.1875 653.8125,591.3594 Q654.4688,591.5156 655.0156,591.875 Z " fill="#000000"/><text fill="#000000" font-family="sans-serif" font-size="14" lengthAdjust="spacing" textLength="149" x="672.75" y="601.7285">MaintenanceRepository</text><line style="stroke:#181818;stroke-width:0.5;" x1="483.5" x2="978.5" y1="612" y2="612"/><rect fill="none" height="6" style="stroke:#C82930;stroke-width:1.0;" width="6" x="490.5" y="623.3047"/><text fill="#000000" font-family="sans-serif" font-size="14" lengthAdjust="spacing" textLength="256" x="502.5" y="630.5332">maintenanceReport: MaintenanceReport</text><line style="stroke:#181818;stroke-width:0.5;" x1="483.5" x2="978.5" y1="637.6094" y2="637.6094"/><ellipse cx="493.5" cy="651.9141" fill="#84BE84" rx="3" ry="3" style="stroke:#038048;stroke-width:1.0;"/><text fill="#000000" font-family="sans-serif" font-size="14" lengthAdjust="spacing" textLength="466" x="502.5" y="656.1426">getVehiclesNeedingMaintenance(vehicleList: List&lt;Vehicle&gt;): List&lt;Vehicle&gt;</text><ellipse cx="493.5" cy="669.5234" fill="#84BE84" rx="3" ry="3" style="stroke:#038048;stroke-width:1.0;"/><text fill="#000000" font-family="sans-serif" font-size="14" lengthAdjust="spacing" textLength="471" x="502.5" y="673.752">createMaintenanceReport(vehiclesList: List&lt;Vehicle&gt;): MaintenanceReport</text></g><!--class Vehicle--><g id="elem_Vehicle"><rect codeLine="38" fill="#F1F1F1" height="259.3125" id="Vehicle" rx="2.5" ry="2.5" style="stroke:#181818;stroke-width:0.5;" width="665" x="23.5" y="759"/><ellipse cx="328.75" cy="775" fill="#ADD1B2" rx="11" ry="11" style="stroke:#181818;stroke-width:1.0;"/><path d="M331.5156,770.875 Q331.6719,770.6563 331.8594,770.5469 Q332.0469,770.4375 332.2656,770.4375 Q332.6406,770.4375 332.875,770.7031 Q333.1094,770.9531 333.1094,771.5625 L333.1094,773.0156 Q333.1094,773.625 332.875,773.8906 Q332.6406,774.1563 332.2656,774.1563 Q331.9219,774.1563 331.7188,773.9531 Q331.5156,773.7656 331.4063,773.25 Q331.3594,772.8906 331.1719,772.7031 Q330.8438,772.3281 330.2344,772.1094 Q329.625,771.8906 329,771.8906 Q328.2344,771.8906 327.5938,772.2188 Q326.9688,772.5469 326.4688,773.2969 Q325.9844,774.0469 325.9844,775.0781 L325.9844,776.1719 Q325.9844,777.4063 326.875,778.2344 Q327.7656,779.0469 329.3594,779.0469 Q330.2969,779.0469 330.9531,778.7969 Q331.3438,778.6406 331.7656,778.2031 Q332.0313,777.9375 332.1719,777.8594 Q332.3281,777.7813 332.5313,777.7813 Q332.8594,777.7813 333.1094,778.0469 Q333.375,778.2969 333.375,778.6406 Q333.375,778.9844 333.0313,779.3906 Q332.5313,779.9688 331.7344,780.2969 Q330.6563,780.75 329.3594,780.75 Q327.8438,780.75 326.6406,780.125 Q325.6563,779.625 324.9688,778.5625 Q324.2813,777.4844 324.2813,776.2031 L324.2813,775.0469 Q324.2813,773.7188 324.8906,772.5781 Q325.5156,771.4219 326.6094,770.8125 Q327.7031,770.1875 328.9375,770.1875 Q329.6719,770.1875 330.3125,770.3594 Q330.9688,770.5156 331.5156,770.875 Z " fill="#000000"/><text fill="#000000" font-family="sans-serif" font-size="14" lengthAdjust="spacing" textLength="46" x="349.25" y="780.7285">Vehicle</text><line style="stroke:#181818;stroke-width:0.5;" x1="24.5" x2="687.5" y1="791" y2="791"/><rect fill="none" height="6" style="stroke:#C82930;stroke-width:1.0;" width="6" x="31.5" y="802.3047"/><text fill="#000000" font-family="sans-serif" font-size="14" lengthAdjust="spacing" textLength="66" x="43.5" y="809.5332">VIN: String</text><rect fill="none" height="6" style="stroke:#C82930;stroke-width:1.0;" width="6" x="31.5" y="819.9141"/><text fill="#000000" font-family="sans-serif" font-size="14" lengthAdjust="spacing" textLength="82" x="43.5" y="827.1426">brand: String</text><rect fill="none" height="6" style="stroke:#C82930;stroke-width:1.0;" width="6" x="31.5" y="837.5234"/><text fill="#000000" font-family="sans-serif" font-size="14" lengthAdjust="spacing" textLength="83" x="43.5" y="844.752">model: String</text><rect fill="none" height="6" style="stroke:#C82930;stroke-width:1.0;" width="6" x="31.5" y="855.1328"/><text fill="#000000" font-family="sans-serif" font-size="14" lengthAdjust="spacing" textLength="72" x="43.5" y="862.3613">type: String</text><rect fill="none" height="6" style="stroke:#C82930;stroke-width:1.0;" width="6" x="31.5" y="872.7422"/><text fill="#000000" font-family="sans-serif" font-size="14" lengthAdjust="spacing" textLength="121" x="43.5" y="879.9707">vehiclePlate: String</text><rect fill="none" height="6" style="stroke:#C82930;stroke-width:1.0;" width="6" x="31.5" y="890.3516"/><text fill="#000000" font-family="sans-serif" font-size="14" lengthAdjust="spacing" textLength="120" x="43.5" y="897.5801">tareWeight: double</text><rect fill="none" height="6" style="stroke:#C82930;stroke-width:1.0;" width="6" x="31.5" y="907.9609"/><text fill="#000000" font-family="sans-serif" font-size="14" lengthAdjust="spacing" textLength="130" x="43.5" y="915.1895">grossWeight: double</text><rect fill="none" height="6" style="stroke:#C82930;stroke-width:1.0;" width="6" x="31.5" y="925.5703"/><text fill="#000000" font-family="sans-serif" font-size="14" lengthAdjust="spacing" textLength="116" x="43.5" y="932.7988">currentKm: double</text><rect fill="none" height="6" style="stroke:#C82930;stroke-width:1.0;" width="6" x="31.5" y="943.1797"/><text fill="#000000" font-family="sans-serif" font-size="14" lengthAdjust="spacing" textLength="135" x="43.5" y="950.4082">acquisitionDate: Date</text><rect fill="none" height="6" style="stroke:#C82930;stroke-width:1.0;" width="6" x="31.5" y="960.7891"/><text fill="#000000" font-family="sans-serif" font-size="14" lengthAdjust="spacing" textLength="172" x="43.5" y="968.0176">maintenanceFrequency: int</text><line style="stroke:#181818;stroke-width:0.5;" x1="24.5" x2="687.5" y1="975.0938" y2="975.0938"/><ellipse cx="34.5" cy="998.2031" fill="#84BE84" rx="3" ry="3" style="stroke:#038048;stroke-width:1.0;"/><text fill="#000000" font-family="sans-serif" font-size="14" lengthAdjust="spacing" textLength="635" x="43.5" y="993.627">Vehicle(VIN: String,brand: String, model: String, type: String, vehiclePlate: String, tareWeight: double,</text><text fill="#000000" font-family="sans-serif" font-size="14" lengthAdjust="spacing" textLength="582" x="43.5" y="1011.2363">grossWeight: double, currentKm: double, acquisitionDate: Date, maintenanceFrequency: int)</text></g><!--class MaintenanceReport--><g id="elem_MaintenanceReport"><rect codeLine="55" fill="#F1F1F1" height="100.8281" id="MaintenanceReport" rx="2.5" ry="2.5" style="stroke:#181818;stroke-width:0.5;" width="414" x="724" y="838"/><ellipse cx="864.75" cy="854" fill="#ADD1B2" rx="11" ry="11" style="stroke:#181818;stroke-width:1.0;"/><path d="M867.5156,849.875 Q867.6719,849.6563 867.8594,849.5469 Q868.0469,849.4375 868.2656,849.4375 Q868.6406,849.4375 868.875,849.7031 Q869.1094,849.9531 869.1094,850.5625 L869.1094,852.0156 Q869.1094,852.625 868.875,852.8906 Q868.6406,853.1563 868.2656,853.1563 Q867.9219,853.1563 867.7188,852.9531 Q867.5156,852.7656 867.4063,852.25 Q867.3594,851.8906 867.1719,851.7031 Q866.8438,851.3281 866.2344,851.1094 Q865.625,850.8906 865,850.8906 Q864.2344,850.8906 863.5938,851.2188 Q862.9688,851.5469 862.4688,852.2969 Q861.9844,853.0469 861.9844,854.0781 L861.9844,855.1719 Q861.9844,856.4063 862.875,857.2344 Q863.7656,858.0469 865.3594,858.0469 Q866.2969,858.0469 866.9531,857.7969 Q867.3438,857.6406 867.7656,857.2031 Q868.0313,856.9375 868.1719,856.8594 Q868.3281,856.7813 868.5313,856.7813 Q868.8594,856.7813 869.1094,857.0469 Q869.375,857.2969 869.375,857.6406 Q869.375,857.9844 869.0313,858.3906 Q868.5313,858.9688 867.7344,859.2969 Q866.6563,859.75 865.3594,859.75 Q863.8438,859.75 862.6406,859.125 Q861.6563,858.625 860.9688,857.5625 Q860.2813,856.4844 860.2813,855.2031 L860.2813,854.0469 Q860.2813,852.7188 860.8906,851.5781 Q861.5156,850.4219 862.6094,849.8125 Q863.7031,849.1875 864.9375,849.1875 Q865.6719,849.1875 866.3125,849.3594 Q866.9688,849.5156 867.5156,849.875 Z " fill="#000000"/><text fill="#000000" font-family="sans-serif" font-size="14" lengthAdjust="spacing" textLength="124" x="885.25" y="859.7285">MaintenanceReport</text><line style="stroke:#181818;stroke-width:0.5;" x1="725" x2="1137" y1="870" y2="870"/><rect fill="none" height="6" style="stroke:#C82930;stroke-width:1.0;" width="6" x="732" y="881.3047"/><text fill="#000000" font-family="sans-serif" font-size="14" lengthAdjust="spacing" textLength="73" x="744" y="888.5332">data: String</text><rect fill="none" height="6" style="stroke:#C82930;stroke-width:1.0;" width="6" x="732" y="898.9141"/><text fill="#000000" font-family="sans-serif" font-size="14" lengthAdjust="spacing" textLength="156" x="744" y="906.1426">vehicleList: List&lt;vehicle&gt;</text><line style="stroke:#181818;stroke-width:0.5;" x1="725" x2="1137" y1="913.2188" y2="913.2188"/><ellipse cx="735" cy="927.5234" fill="#84BE84" rx="3" ry="3" style="stroke:#038048;stroke-width:1.0;"/><text fill="#000000" font-family="sans-serif" font-size="14" lengthAdjust="spacing" textLength="388" x="744" y="931.752">MaintenanceReport(data: String, vehicleList: List&lt;vehicleList&gt;</text></g><!--link ListMaintenanceUI to ListMaintenanceController--><g id="link_ListMaintenanceUI_ListMaintenanceController"><path codeLine="63" d="M668,91.19 C668,110.43 668,138.59 668,163.53 " fill="none" id="ListMaintenanceUI-to-ListMaintenanceController" style="stroke:#181818;stroke-width:1.0;"/><polygon fill="#181818" points="668,168.8,672,159.8,668,163.8,664,159.8,668,168.8" style="stroke:#181818;stroke-width:1.0;"/><text fill="#000000" font-family="sans-serif" font-size="13" lengthAdjust="spacing" textLength="88" x="669" y="135.4951">Submit request</text></g><!--link ListMaintenanceController to Repositories--><g id="link_ListMaintenanceController_Repositories"><path codeLine="64" d="M622.25,270.02 C601.64,292.34 576.77,319.25 553.64,344.29 " fill="none" id="ListMaintenanceController-to-Repositories" style="stroke:#181818;stroke-width:1.0;"/><polygon fill="#181818" points="550.24,347.97,559.29,344.0845,553.6373,344.3015,553.4204,338.6488,550.24,347.97" style="stroke:#181818;stroke-width:1.0;"/><text fill="#000000" font-family="sans-serif" font-size="13" lengthAdjust="spacing" textLength="21" x="591" y="314.4951">Get</text></g><!--link ListMaintenanceController to MaintenanceRepository--><g id="link_ListMaintenanceController_MaintenanceRepository"><path codeLine="65" d="M675.66,270.24 C687.52,347.22 710.23,494.63 722.55,574.61 " fill="none" id="ListMaintenanceController-to-MaintenanceRepository" style="stroke:#181818;stroke-width:1.0;"/><polygon fill="#181818" points="723.34,579.78,725.9312,570.2781,722.5829,574.8376,718.0234,571.4894,723.34,579.78" style="stroke:#181818;stroke-width:1.0;"/><text fill="#000000" font-family="sans-serif" font-size="13" lengthAdjust="spacing" textLength="158" x="711" y="430.4951">Create Maintenance Report</text></g><!--link Repositories to VehicleRepository--><g id="link_Repositories_VehicleRepository"><path codeLine="66" d="M433.65,502.07 C414.66,533.23 393.58,567.83 378.18,593.1 " fill="none" id="Repositories-to-VehicleRepository" style="stroke:#181818;stroke-width:1.0;"/><polygon fill="#181818" points="375.56,597.39,383.6563,591.782,378.1597,593.119,376.8227,587.6224,375.56,597.39" style="stroke:#181818;stroke-width:1.0;"/><text fill="#000000" font-family="sans-serif" font-size="13" lengthAdjust="spacing" textLength="21" x="415" y="546.4951">Get</text></g><!--link Repositories to MaintenanceRepository--><g id="link_Repositories_MaintenanceRepository"><path codeLine="67" d="M573.82,502.07 C604.34,526.81 637.55,553.73 665.53,576.42 " fill="none" id="Repositories-to-MaintenanceRepository" style="stroke:#181818;stroke-width:1.0;"/><polygon fill="#181818" points="669.62,579.74,665.1379,570.9701,665.7324,576.5957,660.1069,577.1902,669.62,579.74" style="stroke:#181818;stroke-width:1.0;"/><text fill="#000000" font-family="sans-serif" font-size="13" lengthAdjust="spacing" textLength="21" x="628" y="546.4951">Get</text></g><!--link VehicleRepository to Vehicle--><g id="link_VehicleRepository_Vehicle"><path codeLine="68" d="M356,663.66 C356,686.86 356,719.89 356,753.47 " fill="none" id="VehicleRepository-to-Vehicle" style="stroke:#181818;stroke-width:1.0;"/><polygon fill="#181818" points="356,758.87,360,749.87,356,753.87,352,749.87,356,758.87" style="stroke:#181818;stroke-width:1.0;"/><text fill="#000000" font-family="sans-serif" font-size="13" lengthAdjust="spacing" textLength="23" x="357" y="725.4951">Has</text></g><!--link MaintenanceRepository to Vehicle--><g id="link_MaintenanceRepository_Vehicle"><path codeLine="69" d="M658.25,681.16 C626.6,702.77 587.87,729.21 548.83,755.86 " fill="none" id="MaintenanceRepository-to-Vehicle" style="stroke:#181818;stroke-width:1.0;"/><polygon fill="#181818" points="544.56,758.78,554.2496,757.0159,548.6914,755.9638,549.7436,750.4056,544.56,758.78" style="stroke:#181818;stroke-width:1.0;"/><text fill="#000000" font-family="sans-serif" font-size="13" lengthAdjust="spacing" textLength="21" x="610" y="725.4951">Get</text></g><!--link MaintenanceRepository to MaintenanceReport--><g id="link_MaintenanceRepository_MaintenanceReport"><path codeLine="70" d="M769.8,681.16 C804.09,725.06 853.99,788.92 889.16,833.95 " fill="none" id="MaintenanceRepository-to-MaintenanceReport" style="stroke:#181818;stroke-width:1.0;"/><polygon fill="#181818" points="892.31,837.98,889.9348,828.4219,889.2373,834.0355,883.6236,833.3381,892.31,837.98" style="stroke:#181818;stroke-width:1.0;"/><text fill="#000000" font-family="sans-serif" font-size="13" lengthAdjust="spacing" textLength="38" x="802" y="725.4951">Create</text></g><!--SRC=[lLN1ZjiW4Btp5HmTbVo0LUMoLTkepMgrKTDBByIUTT1YyCAuLRJQVoyunC46jwSsXoYUUNxptWnCxBDG7JUyfHsldda3UpnBe0OgvAgHGEm8i2TUwrz2DVI9Injdf510yTm1xRGy-oT20XszCy0HTbme1CLL1O_GQOFxiqLewIkf9BUMVXKM8yotxIjv8_dSdLPej9HWtDlKVTRq9vn49GTcAr2RSqaFyr20jbCXL_Wk5oR3E-zebRTGXBBM2om7cUz3sSqgeJHuSpIM46174q9PzE1oalu_3Xl0RIXVh3821aHIq4FpAWPyjcAnMf8oTYUXdCyvwdU8RCZjzIpxID7Efv8RLEBPtWFKxkH7q28L4mr_ylolZb501M_Et65xNz8z6gVq6ZeQhkfviDKro7dGtzzvB4Xxa4vuWkS6leDeJavqhVkZsnKXqnXjRJvLzSQ0mY_jFC6hbrwuMGcjFWp5_FUezzQ3ZmPUUb2LEz4kTfrKw4GHDO1DdBEfPpPnox8-MSOXepzKnXrBVR6y8xRiPUK7kt283Ou7kER89wFuyxMuz2SzT34DMsRmlo-NAzdGTBtUBEzcnzqVMu5qy6YHB6znpnDld99-Wh_XT_abT_cpYRCqN9h9olKCXtIZ-h89Rg6InwQBAY8kwMTkINuPJM2UQHcsI_VLnIHv-mq0]--></g></svg>