<?xml version="1.0" encoding="us-ascii" standalone="no"?><svg xmlns="http://www.w3.org/2000/svg" xmlns:xlink="http://www.w3.org/1999/xlink" contentStyleType="text/css" height="1423px" preserveAspectRatio="none" style="width:1072px;height:1423px;background:#FFFFFF;" version="1.1" viewBox="0 0 1072 1423" width="1072px" zoomAndPan="magnify"><defs/><g><!--class ListMaintenanceUI--><g id="elem_ListMaintenanceUI"><rect codeLine="5" fill="#F1F1F1" height="103.8633" id="ListMaintenanceUI" rx="2.5" ry="2.5" style="stroke:#181818;stroke-width:0.5;" width="269" x="429" y="7"/><ellipse cx="501.75" cy="23" fill="#ADD1B2" rx="11" ry="11" style="stroke:#181818;stroke-width:1.0;"/><path d="M504.5156,18.875 Q504.6719,18.6563 504.8594,18.5469 Q505.0469,18.4375 505.2656,18.4375 Q505.6406,18.4375 505.875,18.7031 Q506.1094,18.9531 506.1094,19.5625 L506.1094,21.0156 Q506.1094,21.625 505.875,21.8906 Q505.6406,22.1563 505.2656,22.1563 Q504.9219,22.1563 504.7188,21.9531 Q504.5156,21.7656 504.4063,21.25 Q504.3594,20.8906 504.1719,20.7031 Q503.8438,20.3281 503.2344,20.1094 Q502.625,19.8906 502,19.8906 Q501.2344,19.8906 500.5938,20.2188 Q499.9688,20.5469 499.4688,21.2969 Q498.9844,22.0469 498.9844,23.0781 L498.9844,24.1719 Q498.9844,25.4063 499.875,26.2344 Q500.7656,27.0469 502.3594,27.0469 Q503.2969,27.0469 503.9531,26.7969 Q504.3438,26.6406 504.7656,26.2031 Q505.0313,25.9375 505.1719,25.8594 Q505.3281,25.7813 505.5313,25.7813 Q505.8594,25.7813 506.1094,26.0469 Q506.375,26.2969 506.375,26.6406 Q506.375,26.9844 506.0313,27.3906 Q505.5313,27.9688 504.7344,28.2969 Q503.6563,28.75 502.3594,28.75 Q500.8438,28.75 499.6406,28.125 Q498.6563,27.625 497.9688,26.5625 Q497.2813,25.4844 497.2813,24.2031 L497.2813,23.0469 Q497.2813,21.7188 497.8906,20.5781 Q498.5156,19.4219 499.6094,18.8125 Q500.7031,18.1875 501.9375,18.1875 Q502.6719,18.1875 503.3125,18.3594 Q503.9688,18.5156 504.5156,18.875 Z " fill="#000000"/><text fill="#000000" font-family="sans-serif" font-size="14" lengthAdjust="spacing" textLength="115" x="522.25" y="28.7969">ListMaintenanceUI</text><line style="stroke:#181818;stroke-width:0.5;" x1="430" x2="697" y1="39" y2="39"/><rect fill="none" height="6" style="stroke:#C82930;stroke-width:1.0;" width="6" x="437" y="50.8105"/><text fill="#000000" font-family="sans-serif" font-size="14" lengthAdjust="spacing" textLength="236" x="449" y="58.1074">controller : ListMaintenanceController</text><line style="stroke:#181818;stroke-width:0.5;" x1="430" x2="697" y1="65.6211" y2="65.6211"/><ellipse cx="440" cy="80.4316" fill="#84BE84" rx="3" ry="3" style="stroke:#038048;stroke-width:1.0;"/><text fill="#000000" font-family="sans-serif" font-size="14" lengthAdjust="spacing" textLength="120" x="449" y="84.7285">listMaintenanceUI()</text><ellipse cx="440" cy="99.0527" fill="#84BE84" rx="3" ry="3" style="stroke:#038048;stroke-width:1.0;"/><text fill="#000000" font-family="sans-serif" font-size="14" lengthAdjust="spacing" textLength="243" x="449" y="103.3496">listVehiclesNeedingMaintenance() void</text></g><!--class ListMaintenanceController--><g id="elem_ListMaintenanceController"><rect codeLine="11" fill="#F1F1F1" height="141.1055" id="ListMaintenanceController" rx="2.5" ry="2.5" style="stroke:#181818;stroke-width:0.5;" width="364" x="381.5" y="172"/><ellipse cx="476.75" cy="188" fill="#ADD1B2" rx="11" ry="11" style="stroke:#181818;stroke-width:1.0;"/><path d="M479.5156,183.875 Q479.6719,183.6563 479.8594,183.5469 Q480.0469,183.4375 480.2656,183.4375 Q480.6406,183.4375 480.875,183.7031 Q481.1094,183.9531 481.1094,184.5625 L481.1094,186.0156 Q481.1094,186.625 480.875,186.8906 Q480.6406,187.1563 480.2656,187.1563 Q479.9219,187.1563 479.7188,186.9531 Q479.5156,186.7656 479.4063,186.25 Q479.3594,185.8906 479.1719,185.7031 Q478.8438,185.3281 478.2344,185.1094 Q477.625,184.8906 477,184.8906 Q476.2344,184.8906 475.5938,185.2188 Q474.9688,185.5469 474.4688,186.2969 Q473.9844,187.0469 473.9844,188.0781 L473.9844,189.1719 Q473.9844,190.4063 474.875,191.2344 Q475.7656,192.0469 477.3594,192.0469 Q478.2969,192.0469 478.9531,191.7969 Q479.3438,191.6406 479.7656,191.2031 Q480.0313,190.9375 480.1719,190.8594 Q480.3281,190.7813 480.5313,190.7813 Q480.8594,190.7813 481.1094,191.0469 Q481.375,191.2969 481.375,191.6406 Q481.375,191.9844 481.0313,192.3906 Q480.5313,192.9688 479.7344,193.2969 Q478.6563,193.75 477.3594,193.75 Q475.8438,193.75 474.6406,193.125 Q473.6563,192.625 472.9688,191.5625 Q472.2813,190.4844 472.2813,189.2031 L472.2813,188.0469 Q472.2813,186.7188 472.8906,185.5781 Q473.5156,184.4219 474.6094,183.8125 Q475.7031,183.1875 476.9375,183.1875 Q477.6719,183.1875 478.3125,183.3594 Q478.9688,183.5156 479.5156,183.875 Z " fill="#000000"/><text fill="#000000" font-family="sans-serif" font-size="14" lengthAdjust="spacing" textLength="165" x="497.25" y="193.7969">ListMaintenanceController</text><line style="stroke:#181818;stroke-width:0.5;" x1="382.5" x2="744.5" y1="204" y2="204"/><rect fill="none" height="6" style="stroke:#C82930;stroke-width:1.0;" width="6" x="389.5" y="215.8105"/><text fill="#000000" font-family="sans-serif" font-size="14" lengthAdjust="spacing" textLength="238" x="401.5" y="223.1074">vehicleRepository : VehicleRepository</text><rect fill="none" height="6" style="stroke:#C82930;stroke-width:1.0;" width="6" x="389.5" y="234.4316"/><text fill="#000000" font-family="sans-serif" font-size="14" lengthAdjust="spacing" textLength="310" x="401.5" y="241.7285">maintenanceRepository : MaintenanceRepository</text><line style="stroke:#181818;stroke-width:0.5;" x1="382.5" x2="744.5" y1="249.2422" y2="249.2422"/><ellipse cx="392.5" cy="264.0527" fill="#84BE84" rx="3" ry="3" style="stroke:#038048;stroke-width:1.0;"/><text fill="#000000" font-family="sans-serif" font-size="14" lengthAdjust="spacing" textLength="170" x="401.5" y="268.3496">listMaintenanceController()</text><ellipse cx="392.5" cy="282.6738" fill="#84BE84" rx="3" ry="3" style="stroke:#038048;stroke-width:1.0;"/><text fill="#000000" font-family="sans-serif" font-size="14" lengthAdjust="spacing" textLength="338" x="401.5" y="286.9707">getVehiclesNeedingMaintenanceList() : List &lt;Vehicle&gt;</text><ellipse cx="392.5" cy="301.2949" fill="#84BE84" rx="3" ry="3" style="stroke:#038048;stroke-width:1.0;"/><text fill="#000000" font-family="sans-serif" font-size="14" lengthAdjust="spacing" textLength="296" x="401.5" y="305.5918">createMaintenanceReport(vehiclesList) : String</text></g><!--class Repositories--><g id="elem_Repositories"><rect codeLine="20" fill="#F1F1F1" height="178.3477" id="Repositories" rx="2.5" ry="2.5" style="stroke:#181818;stroke-width:0.5;" width="366" x="214.5" y="392"/><ellipse cx="353.75" cy="408" fill="#ADD1B2" rx="11" ry="11" style="stroke:#181818;stroke-width:1.0;"/><path d="M356.5156,403.875 Q356.6719,403.6563 356.8594,403.5469 Q357.0469,403.4375 357.2656,403.4375 Q357.6406,403.4375 357.875,403.7031 Q358.1094,403.9531 358.1094,404.5625 L358.1094,406.0156 Q358.1094,406.625 357.875,406.8906 Q357.6406,407.1563 357.2656,407.1563 Q356.9219,407.1563 356.7188,406.9531 Q356.5156,406.7656 356.4063,406.25 Q356.3594,405.8906 356.1719,405.7031 Q355.8438,405.3281 355.2344,405.1094 Q354.625,404.8906 354,404.8906 Q353.2344,404.8906 352.5938,405.2188 Q351.9688,405.5469 351.4688,406.2969 Q350.9844,407.0469 350.9844,408.0781 L350.9844,409.1719 Q350.9844,410.4063 351.875,411.2344 Q352.7656,412.0469 354.3594,412.0469 Q355.2969,412.0469 355.9531,411.7969 Q356.3438,411.6406 356.7656,411.2031 Q357.0313,410.9375 357.1719,410.8594 Q357.3281,410.7813 357.5313,410.7813 Q357.8594,410.7813 358.1094,411.0469 Q358.375,411.2969 358.375,411.6406 Q358.375,411.9844 358.0313,412.3906 Q357.5313,412.9688 356.7344,413.2969 Q355.6563,413.75 354.3594,413.75 Q352.8438,413.75 351.6406,413.125 Q350.6563,412.625 349.9688,411.5625 Q349.2813,410.4844 349.2813,409.2031 L349.2813,408.0469 Q349.2813,406.7188 349.8906,405.5781 Q350.5156,404.4219 351.6094,403.8125 Q352.7031,403.1875 353.9375,403.1875 Q354.6719,403.1875 355.3125,403.3594 Q355.9688,403.5156 356.5156,403.875 Z " fill="#000000"/><text fill="#000000" font-family="sans-serif" font-size="14" lengthAdjust="spacing" textLength="79" x="374.25" y="413.7969">Repositories</text><line style="stroke:#181818;stroke-width:0.5;" x1="215.5" x2="579.5" y1="424" y2="424"/><rect fill="none" height="6" style="stroke:#C82930;stroke-width:1.0;" width="6" x="222.5" y="435.8105"/><text fill="#000000" font-family="sans-serif" font-size="14" lengthAdjust="spacing" textLength="144" x="234.5" y="443.1074">instance : Repositories</text><rect fill="none" height="6" style="stroke:#C82930;stroke-width:1.0;" width="6" x="222.5" y="454.4316"/><text fill="#000000" font-family="sans-serif" font-size="14" lengthAdjust="spacing" textLength="238" x="234.5" y="461.7285">vehicleRepository : VehicleRepository</text><rect fill="none" height="6" style="stroke:#C82930;stroke-width:1.0;" width="6" x="222.5" y="473.0527"/><text fill="#000000" font-family="sans-serif" font-size="14" lengthAdjust="spacing" textLength="310" x="234.5" y="480.3496">maintenanceRepository : MaintenanceRepository</text><line style="stroke:#181818;stroke-width:0.5;" x1="215.5" x2="579.5" y1="487.8633" y2="487.8633"/><rect fill="#F24D5C" height="6" style="stroke:#C82930;stroke-width:1.0;" width="6" x="222.5" y="499.6738"/><text fill="#000000" font-family="sans-serif" font-size="14" lengthAdjust="spacing" textLength="89" x="234.5" y="506.9707">Repositories()</text><ellipse cx="225.5" cy="521.2949" fill="#84BE84" rx="3" ry="3" style="stroke:#038048;stroke-width:1.0;"/><text fill="#000000" font-family="sans-serif" font-size="14" lengthAdjust="spacing" textLength="174" x="234.5" y="525.5918">getInstance() : Repositories</text><ellipse cx="225.5" cy="539.916" fill="#84BE84" rx="3" ry="3" style="stroke:#038048;stroke-width:1.0;"/><text fill="#000000" font-family="sans-serif" font-size="14" lengthAdjust="spacing" textLength="270" x="234.5" y="544.2129">getVehicleRepository() : VehicleRepository</text><ellipse cx="225.5" cy="558.5371" fill="#84BE84" rx="3" ry="3" style="stroke:#038048;stroke-width:1.0;"/><text fill="#000000" font-family="sans-serif" font-size="14" lengthAdjust="spacing" textLength="340" x="234.5" y="562.834">getMaintenanceRepository() : MaintenanceRepository</text></g><!--class VehicleRepository--><g id="elem_VehicleRepository"><rect codeLine="31" fill="#F1F1F1" height="103.8633" id="VehicleRepository" rx="2.5" ry="2.5" style="stroke:#181818;stroke-width:0.5;" width="590" x="44.5" y="906"/><ellipse cx="278.25" cy="922" fill="#ADD1B2" rx="11" ry="11" style="stroke:#181818;stroke-width:1.0;"/><path d="M281.0156,917.875 Q281.1719,917.6563 281.3594,917.5469 Q281.5469,917.4375 281.7656,917.4375 Q282.1406,917.4375 282.375,917.7031 Q282.6094,917.9531 282.6094,918.5625 L282.6094,920.0156 Q282.6094,920.625 282.375,920.8906 Q282.1406,921.1563 281.7656,921.1563 Q281.4219,921.1563 281.2188,920.9531 Q281.0156,920.7656 280.9063,920.25 Q280.8594,919.8906 280.6719,919.7031 Q280.3438,919.3281 279.7344,919.1094 Q279.125,918.8906 278.5,918.8906 Q277.7344,918.8906 277.0938,919.2188 Q276.4688,919.5469 275.9688,920.2969 Q275.4844,921.0469 275.4844,922.0781 L275.4844,923.1719 Q275.4844,924.4063 276.375,925.2344 Q277.2656,926.0469 278.8594,926.0469 Q279.7969,926.0469 280.4531,925.7969 Q280.8438,925.6406 281.2656,925.2031 Q281.5313,924.9375 281.6719,924.8594 Q281.8281,924.7813 282.0313,924.7813 Q282.3594,924.7813 282.6094,925.0469 Q282.875,925.2969 282.875,925.6406 Q282.875,925.9844 282.5313,926.3906 Q282.0313,926.9688 281.2344,927.2969 Q280.1563,927.75 278.8594,927.75 Q277.3438,927.75 276.1406,927.125 Q275.1563,926.625 274.4688,925.5625 Q273.7813,924.4844 273.7813,923.2031 L273.7813,922.0469 Q273.7813,920.7188 274.3906,919.5781 Q275.0156,918.4219 276.1094,917.8125 Q277.2031,917.1875 278.4375,917.1875 Q279.1719,917.1875 279.8125,917.3594 Q280.4688,917.5156 281.0156,917.875 Z " fill="#000000"/><text fill="#000000" font-family="sans-serif" font-size="14" lengthAdjust="spacing" textLength="114" x="298.75" y="927.7969">VehicleRepository</text><line style="stroke:#181818;stroke-width:0.5;" x1="45.5" x2="633.5" y1="938" y2="938"/><rect fill="none" height="6" style="stroke:#C82930;stroke-width:1.0;" width="6" x="52.5" y="949.8105"/><text fill="#000000" font-family="sans-serif" font-size="14" lengthAdjust="spacing" textLength="293" x="64.5" y="957.1074">vehicleNeedingMaintenanceList : List&lt;vehicle&gt;</text><line style="stroke:#181818;stroke-width:0.5;" x1="45.5" x2="633.5" y1="964.6211" y2="964.6211"/><ellipse cx="55.5" cy="979.4316" fill="#84BE84" rx="3" ry="3" style="stroke:#038048;stroke-width:1.0;"/><text fill="#000000" font-family="sans-serif" font-size="14" lengthAdjust="spacing" textLength="310" x="64.5" y="983.7285">getVehiclesNeedingMaintenance() : List&lt;vehicle&gt;</text><rect fill="#F24D5C" height="6" style="stroke:#C82930;stroke-width:1.0;" width="6" x="52.5" y="995.0527"/><text fill="#000000" font-family="sans-serif" font-size="14" lengthAdjust="spacing" textLength="564" x="64.5" y="1002.3496">getLastMaintenanceKm(String vehiclePlate, List&lt;Maintenance&gt; maintenanceList) : double</text></g><!--class MaintenanceRepository--><g id="elem_MaintenanceRepository"><rect codeLine="38" fill="#F1F1F1" height="141.1055" id="MaintenanceRepository" rx="2.5" ry="2.5" style="stroke:#181818;stroke-width:0.5;" width="496" x="481.5" y="649"/><ellipse cx="650.75" cy="665" fill="#ADD1B2" rx="11" ry="11" style="stroke:#181818;stroke-width:1.0;"/><path d="M653.5156,660.875 Q653.6719,660.6563 653.8594,660.5469 Q654.0469,660.4375 654.2656,660.4375 Q654.6406,660.4375 654.875,660.7031 Q655.1094,660.9531 655.1094,661.5625 L655.1094,663.0156 Q655.1094,663.625 654.875,663.8906 Q654.6406,664.1563 654.2656,664.1563 Q653.9219,664.1563 653.7188,663.9531 Q653.5156,663.7656 653.4063,663.25 Q653.3594,662.8906 653.1719,662.7031 Q652.8438,662.3281 652.2344,662.1094 Q651.625,661.8906 651,661.8906 Q650.2344,661.8906 649.5938,662.2188 Q648.9688,662.5469 648.4688,663.2969 Q647.9844,664.0469 647.9844,665.0781 L647.9844,666.1719 Q647.9844,667.4063 648.875,668.2344 Q649.7656,669.0469 651.3594,669.0469 Q652.2969,669.0469 652.9531,668.7969 Q653.3438,668.6406 653.7656,668.2031 Q654.0313,667.9375 654.1719,667.8594 Q654.3281,667.7813 654.5313,667.7813 Q654.8594,667.7813 655.1094,668.0469 Q655.375,668.2969 655.375,668.6406 Q655.375,668.9844 655.0313,669.3906 Q654.5313,669.9688 653.7344,670.2969 Q652.6563,670.75 651.3594,670.75 Q649.8438,670.75 648.6406,670.125 Q647.6563,669.625 646.9688,668.5625 Q646.2813,667.4844 646.2813,666.2031 L646.2813,665.0469 Q646.2813,663.7188 646.8906,662.5781 Q647.5156,661.4219 648.6094,660.8125 Q649.7031,660.1875 650.9375,660.1875 Q651.6719,660.1875 652.3125,660.3594 Q652.9688,660.5156 653.5156,660.875 Z " fill="#000000"/><text fill="#000000" font-family="sans-serif" font-size="14" lengthAdjust="spacing" textLength="149" x="671.25" y="670.7969">MaintenanceRepository</text><line style="stroke:#181818;stroke-width:0.5;" x1="482.5" x2="976.5" y1="681" y2="681"/><rect fill="none" height="6" style="stroke:#C82930;stroke-width:1.0;" width="6" x="489.5" y="692.8105"/><text fill="#000000" font-family="sans-serif" font-size="14" lengthAdjust="spacing" textLength="217" x="501.5" y="700.1074">maintenanceReport : Maintenance</text><line style="stroke:#181818;stroke-width:0.5;" x1="482.5" x2="976.5" y1="707.6211" y2="707.6211"/><ellipse cx="492.5" cy="722.4316" fill="#84BE84" rx="3" ry="3" style="stroke:#038048;stroke-width:1.0;"/><text fill="#000000" font-family="sans-serif" font-size="14" lengthAdjust="spacing" textLength="159" x="501.5" y="726.7285">maintenanceRepository()</text><ellipse cx="492.5" cy="741.0527" fill="#84BE84" rx="3" ry="3" style="stroke:#038048;stroke-width:1.0;"/><text fill="#000000" font-family="sans-serif" font-size="14" lengthAdjust="spacing" textLength="268" x="501.5" y="745.3496">getMaintenanceList() : List &lt;Maintenance&gt;</text><ellipse cx="492.5" cy="759.6738" fill="#84BE84" rx="3" ry="3" style="stroke:#038048;stroke-width:1.0;"/><text fill="#000000" font-family="sans-serif" font-size="14" lengthAdjust="spacing" textLength="470" x="501.5" y="763.9707">getVehiclesNeedingMaintenance(vehicleList: List&lt;Vehicle&gt;) : List&lt;Vehicle&gt;</text><ellipse cx="492.5" cy="778.2949" fill="#84BE84" rx="3" ry="3" style="stroke:#038048;stroke-width:1.0;"/><text fill="#000000" font-family="sans-serif" font-size="14" lengthAdjust="spacing" textLength="432" x="501.5" y="782.5918">createMaintenanceReport(vehiclesList: List&lt;Vehicle&gt;) : Maintenance</text></g><!--class Vehicle--><g id="elem_Vehicle"><rect codeLine="47" fill="#F1F1F1" height="290.0742" id="Vehicle" rx="2.5" ry="2.5" style="stroke:#181818;stroke-width:0.5;" width="665" x="7" y="1126"/><ellipse cx="312.25" cy="1142" fill="#ADD1B2" rx="11" ry="11" style="stroke:#181818;stroke-width:1.0;"/><path d="M315.0156,1137.875 Q315.1719,1137.6563 315.3594,1137.5469 Q315.5469,1137.4375 315.7656,1137.4375 Q316.1406,1137.4375 316.375,1137.7031 Q316.6094,1137.9531 316.6094,1138.5625 L316.6094,1140.0156 Q316.6094,1140.625 316.375,1140.8906 Q316.1406,1141.1563 315.7656,1141.1563 Q315.4219,1141.1563 315.2188,1140.9531 Q315.0156,1140.7656 314.9063,1140.25 Q314.8594,1139.8906 314.6719,1139.7031 Q314.3438,1139.3281 313.7344,1139.1094 Q313.125,1138.8906 312.5,1138.8906 Q311.7344,1138.8906 311.0938,1139.2188 Q310.4688,1139.5469 309.9688,1140.2969 Q309.4844,1141.0469 309.4844,1142.0781 L309.4844,1143.1719 Q309.4844,1144.4063 310.375,1145.2344 Q311.2656,1146.0469 312.8594,1146.0469 Q313.7969,1146.0469 314.4531,1145.7969 Q314.8438,1145.6406 315.2656,1145.2031 Q315.5313,1144.9375 315.6719,1144.8594 Q315.8281,1144.7813 316.0313,1144.7813 Q316.3594,1144.7813 316.6094,1145.0469 Q316.875,1145.2969 316.875,1145.6406 Q316.875,1145.9844 316.5313,1146.3906 Q316.0313,1146.9688 315.2344,1147.2969 Q314.1563,1147.75 312.8594,1147.75 Q311.3438,1147.75 310.1406,1147.125 Q309.1563,1146.625 308.4688,1145.5625 Q307.7813,1144.4844 307.7813,1143.2031 L307.7813,1142.0469 Q307.7813,1140.7188 308.3906,1139.5781 Q309.0156,1138.4219 310.1094,1137.8125 Q311.2031,1137.1875 312.4375,1137.1875 Q313.1719,1137.1875 313.8125,1137.3594 Q314.4688,1137.5156 315.0156,1137.875 Z " fill="#000000"/><text fill="#000000" font-family="sans-serif" font-size="14" lengthAdjust="spacing" textLength="46" x="332.75" y="1147.7969">Vehicle</text><line style="stroke:#181818;stroke-width:0.5;" x1="8" x2="671" y1="1158" y2="1158"/><rect fill="none" height="6" style="stroke:#C82930;stroke-width:1.0;" width="6" x="15" y="1169.8105"/><text fill="#000000" font-family="sans-serif" font-size="14" lengthAdjust="spacing" textLength="70" x="27" y="1177.1074">VIN : String</text><rect fill="none" height="6" style="stroke:#C82930;stroke-width:1.0;" width="6" x="15" y="1188.4316"/><text fill="#000000" font-family="sans-serif" font-size="14" lengthAdjust="spacing" textLength="86" x="27" y="1195.7285">brand : String</text><rect fill="none" height="6" style="stroke:#C82930;stroke-width:1.0;" width="6" x="15" y="1207.0527"/><text fill="#000000" font-family="sans-serif" font-size="14" lengthAdjust="spacing" textLength="87" x="27" y="1214.3496">model : String</text><rect fill="none" height="6" style="stroke:#C82930;stroke-width:1.0;" width="6" x="15" y="1225.6738"/><text fill="#000000" font-family="sans-serif" font-size="14" lengthAdjust="spacing" textLength="76" x="27" y="1232.9707">type : String</text><rect fill="none" height="6" style="stroke:#C82930;stroke-width:1.0;" width="6" x="15" y="1244.2949"/><text fill="#000000" font-family="sans-serif" font-size="14" lengthAdjust="spacing" textLength="125" x="27" y="1251.5918">vehiclePlate : String</text><rect fill="none" height="6" style="stroke:#C82930;stroke-width:1.0;" width="6" x="15" y="1262.916"/><text fill="#000000" font-family="sans-serif" font-size="14" lengthAdjust="spacing" textLength="124" x="27" y="1270.2129">tareWeight : double</text><rect fill="none" height="6" style="stroke:#C82930;stroke-width:1.0;" width="6" x="15" y="1281.5371"/><text fill="#000000" font-family="sans-serif" font-size="14" lengthAdjust="spacing" textLength="134" x="27" y="1288.834">grossWeight : double</text><rect fill="none" height="6" style="stroke:#C82930;stroke-width:1.0;" width="6" x="15" y="1300.1582"/><text fill="#000000" font-family="sans-serif" font-size="14" lengthAdjust="spacing" textLength="120" x="27" y="1307.4551">currentKm : double</text><rect fill="none" height="6" style="stroke:#C82930;stroke-width:1.0;" width="6" x="15" y="1318.7793"/><text fill="#000000" font-family="sans-serif" font-size="14" lengthAdjust="spacing" textLength="139" x="27" y="1326.0762">acquisitionDate : Date</text><rect fill="none" height="6" style="stroke:#C82930;stroke-width:1.0;" width="6" x="15" y="1337.4004"/><text fill="#000000" font-family="sans-serif" font-size="14" lengthAdjust="spacing" textLength="176" x="27" y="1344.6973">maintenanceFrequency : int</text><line style="stroke:#181818;stroke-width:0.5;" x1="8" x2="671" y1="1352.2109" y2="1352.2109"/><ellipse cx="18" cy="1376.332" fill="#84BE84" rx="3" ry="3" style="stroke:#038048;stroke-width:1.0;"/><text fill="#000000" font-family="sans-serif" font-size="14" lengthAdjust="spacing" textLength="635" x="27" y="1371.3184">Vehicle(VIN: String,brand: String, model: String, type: String, vehiclePlate: String, tareWeight: double,</text><text fill="#000000" font-family="sans-serif" font-size="14" lengthAdjust="spacing" textLength="582" x="27" y="1389.9395">grossWeight: double, currentKm: double, acquisitionDate: Date, maintenanceFrequency: int)</text><ellipse cx="18" cy="1404.2637" fill="#84BE84" rx="3" ry="3" style="stroke:#038048;stroke-width:1.0;"/><text fill="#000000" font-family="sans-serif" font-size="14" lengthAdjust="spacing" textLength="157" x="27" y="1408.5605">getVehiclePlate() : String</text></g><!--class Maintenance--><g id="elem_Maintenance"><rect codeLine="65" fill="#F1F1F1" height="178.3477" id="Maintenance" rx="2.5" ry="2.5" style="stroke:#181818;stroke-width:0.5;" width="395" x="670" y="869"/><ellipse cx="822.75" cy="885" fill="#ADD1B2" rx="11" ry="11" style="stroke:#181818;stroke-width:1.0;"/><path d="M825.5156,880.875 Q825.6719,880.6563 825.8594,880.5469 Q826.0469,880.4375 826.2656,880.4375 Q826.6406,880.4375 826.875,880.7031 Q827.1094,880.9531 827.1094,881.5625 L827.1094,883.0156 Q827.1094,883.625 826.875,883.8906 Q826.6406,884.1563 826.2656,884.1563 Q825.9219,884.1563 825.7188,883.9531 Q825.5156,883.7656 825.4063,883.25 Q825.3594,882.8906 825.1719,882.7031 Q824.8438,882.3281 824.2344,882.1094 Q823.625,881.8906 823,881.8906 Q822.2344,881.8906 821.5938,882.2188 Q820.9688,882.5469 820.4688,883.2969 Q819.9844,884.0469 819.9844,885.0781 L819.9844,886.1719 Q819.9844,887.4063 820.875,888.2344 Q821.7656,889.0469 823.3594,889.0469 Q824.2969,889.0469 824.9531,888.7969 Q825.3438,888.6406 825.7656,888.2031 Q826.0313,887.9375 826.1719,887.8594 Q826.3281,887.7813 826.5313,887.7813 Q826.8594,887.7813 827.1094,888.0469 Q827.375,888.2969 827.375,888.6406 Q827.375,888.9844 827.0313,889.3906 Q826.5313,889.9688 825.7344,890.2969 Q824.6563,890.75 823.3594,890.75 Q821.8438,890.75 820.6406,890.125 Q819.6563,889.625 818.9688,888.5625 Q818.2813,887.4844 818.2813,886.2031 L818.2813,885.0469 Q818.2813,883.7188 818.8906,882.5781 Q819.5156,881.4219 820.6094,880.8125 Q821.7031,880.1875 822.9375,880.1875 Q823.6719,880.1875 824.3125,880.3594 Q824.9688,880.5156 825.5156,880.875 Z " fill="#000000"/><text fill="#000000" font-family="sans-serif" font-size="14" lengthAdjust="spacing" textLength="81" x="843.25" y="890.7969">Maintenance</text><line style="stroke:#181818;stroke-width:0.5;" x1="671" x2="1064" y1="901" y2="901"/><rect fill="none" height="6" style="stroke:#C82930;stroke-width:1.0;" width="6" x="678" y="912.8105"/><text fill="#000000" font-family="sans-serif" font-size="14" lengthAdjust="spacing" textLength="70" x="690" y="920.1074">data : Date</text><rect fill="none" height="6" style="stroke:#C82930;stroke-width:1.0;" width="6" x="678" y="931.4316"/><text fill="#000000" font-family="sans-serif" font-size="14" lengthAdjust="spacing" textLength="125" x="690" y="938.7285">vehiclePlate : String</text><rect fill="none" height="6" style="stroke:#C82930;stroke-width:1.0;" width="6" x="678" y="950.0527"/><text fill="#000000" font-family="sans-serif" font-size="14" lengthAdjust="spacing" textLength="45" x="690" y="957.3496">km : int</text><line style="stroke:#181818;stroke-width:0.5;" x1="671" x2="1064" y1="964.8633" y2="964.8633"/><ellipse cx="681" cy="979.6738" fill="#84BE84" rx="3" ry="3" style="stroke:#038048;stroke-width:1.0;"/><text fill="#000000" font-family="sans-serif" font-size="14" lengthAdjust="spacing" textLength="369" x="690" y="983.9707">Maintenance(String vehiclePlate, Date date, int kilometers)</text><ellipse cx="681" cy="998.2949" fill="#84BE84" rx="3" ry="3" style="stroke:#038048;stroke-width:1.0;"/><text fill="#000000" font-family="sans-serif" font-size="14" lengthAdjust="spacing" textLength="102" x="690" y="1002.5918">getDate() : Date</text><ellipse cx="681" cy="1016.916" fill="#84BE84" rx="3" ry="3" style="stroke:#038048;stroke-width:1.0;"/><text fill="#000000" font-family="sans-serif" font-size="14" lengthAdjust="spacing" textLength="77" x="690" y="1021.2129">getKm() : int</text><ellipse cx="681" cy="1035.5371" fill="#84BE84" rx="3" ry="3" style="stroke:#038048;stroke-width:1.0;"/><text fill="#000000" font-family="sans-serif" font-size="14" lengthAdjust="spacing" textLength="157" x="690" y="1039.834">getVehiclePlate() : String</text></g><!--link ListMaintenanceUI to ListMaintenanceController--><g id="link_ListMaintenanceUI_ListMaintenanceController"><path codeLine="76" d="M563.5,111.04 C563.5,129.91 563.5,145.64 563.5,165.88 " fill="none" id="ListMaintenanceUI-to-ListMaintenanceController" style="stroke:#181818;stroke-width:1.0;stroke-dasharray:7.0,7.0;"/><polygon fill="#181818" points="563.5,171.88,567.5,162.88,563.5,166.88,559.5,162.88,563.5,171.88" style="stroke:#181818;stroke-width:1.0;"/></g><!--link ListMaintenanceController to Repositories--><g id="link_ListMaintenanceController_Repositories"><path codeLine="78" d="M514.59,313.18 C497.28,337.84 481.028,360.9997 462.778,386.9897 " fill="none" id="ListMaintenanceController-to-Repositories" style="stroke:#181818;stroke-width:1.0;stroke-dasharray:7.0,7.0;"/><polygon fill="#181818" points="459.33,391.9,467.7755,386.8332,462.2033,387.8081,461.2284,382.2358,459.33,391.9" style="stroke:#181818;stroke-width:1.0;"/><text fill="#000000" font-family="sans-serif" font-size="13" lengthAdjust="spacing" textLength="67" x="491.5" y="358.0283">repositories</text></g><!--link Repositories to Repositories--><g id="link_Repositories_Repositories"><path codeLine="80" d="M580.79,460.59 C601.83,464.38 615.5,471.19 615.5,481 C615.5,490.81 607.735,496.5563 586.695,500.3463 " fill="none" id="Repositories-to-Repositories" style="stroke:#181818;stroke-width:1.0;"/><polygon fill="#181818" points="580.79,501.41,590.3566,503.7511,585.7108,500.5236,588.9383,495.8778,580.79,501.41" style="stroke:#181818;stroke-width:1.0;"/><text fill="#000000" font-family="sans-serif" font-size="13" lengthAdjust="spacing" textLength="49" x="621.5" y="486.5283">instance</text></g><!--link ListMaintenanceController to MaintenanceRepository--><g id="link_ListMaintenanceController_MaintenanceRepository"><path codeLine="82" d="M628.47,313.3 C647.04,336.75 665.49,364.08 677.5,392 C713.46,475.57 724.517,574.8277 727.957,642.8677 " fill="none" id="ListMaintenanceController-to-MaintenanceRepository" style="stroke:#181818;stroke-width:1.0;stroke-dasharray:7.0,7.0;"/><polygon fill="#181818" points="728.26,648.86,731.8005,639.6695,728.0075,643.8664,723.8107,640.0735,728.26,648.86" style="stroke:#181818;stroke-width:1.0;"/><text fill="#000000" font-family="sans-serif" font-size="13" lengthAdjust="spacing" textLength="136" x="721.5" y="486.5283">MaintenanceRepository</text></g><!--link Repositories to VehicleRepository--><g id="link_Repositories_VehicleRepository"><path codeLine="84" d="M372.6,570.23 C366.36,595.48 360.35,623.16 356.5,649 C343.14,738.65 340.0667,838.3803 339.4867,899.7503 " fill="none" id="Repositories-to-VehicleRepository" style="stroke:#181818;stroke-width:1.0;"/><polygon fill="#181818" points="339.43,905.75,343.5149,896.7882,339.4773,900.7502,335.5152,896.7126,339.43,905.75" style="stroke:#181818;stroke-width:1.0;"/><text fill="#000000" font-family="sans-serif" font-size="13" lengthAdjust="spacing" textLength="105" x="357.5" y="725.0283">VehicleRepository</text><text fill="#000000" font-family="sans-serif" font-size="13" lengthAdjust="spacing" textLength="7" x="331.9503" y="894.6438">1</text></g><!--link Repositories to MaintenanceRepository--><g id="link_Repositories_MaintenanceRepository"><path codeLine="86" d="M501.05,570.17 C521.98,586.92 544.13,603.91 565.5,619 C579.78,629.08 590.0442,636.0047 605.3742,645.7347 " fill="none" id="Repositories-to-MaintenanceRepository" style="stroke:#181818;stroke-width:1.0;"/><polygon fill="#181818" points="610.44,648.95,604.9848,640.7499,606.2185,646.2706,600.6978,647.5043,610.44,648.95" style="stroke:#181818;stroke-width:1.0;"/><text fill="#000000" font-family="sans-serif" font-size="13" lengthAdjust="spacing" textLength="136" x="566.5" y="615.0283">MaintenanceRepository</text><text fill="#000000" font-family="sans-serif" font-size="13" lengthAdjust="spacing" textLength="7" x="590.801" y="637.8359">1</text></g><!--link VehicleRepository to Vehicle--><g id="link_VehicleRepository_Vehicle"><path codeLine="88" d="M339.5,1010.01 C339.5,1041.8 339.5,1078.44 339.5,1119.98 " fill="none" id="VehicleRepository-to-Vehicle" style="stroke:#181818;stroke-width:1.0;"/><polygon fill="#181818" points="339.5,1125.98,343.5,1116.98,339.5,1120.98,335.5,1116.98,339.5,1125.98" style="stroke:#181818;stroke-width:1.0;"/><text fill="#000000" font-family="sans-serif" font-size="13" lengthAdjust="spacing" textLength="39" x="340.5" y="1092.0283">vehicle</text><text fill="#000000" font-family="sans-serif" font-size="13" lengthAdjust="spacing" textLength="7" x="332.0516" y="1031.8186">1</text><text fill="#000000" font-family="sans-serif" font-size="13" lengthAdjust="spacing" textLength="5" x="334.3633" y="1114.6186">*</text></g><!--link MaintenanceRepository to VehicleRepository--><g id="link_MaintenanceRepository_VehicleRepository"><path codeLine="90" d="M614.86,790.02 C553.62,827.15 484.7002,868.9486 428.8202,902.8386 " fill="none" id="MaintenanceRepository-to-VehicleRepository" style="stroke:#181818;stroke-width:1.0;stroke-dasharray:7.0,7.0;"/><polygon fill="#181818" points="423.69,905.95,433.4596,904.7031,427.9652,903.3572,429.3111,897.8628,423.69,905.95" style="stroke:#181818;stroke-width:1.0;"/><text fill="#000000" font-family="sans-serif" font-size="13" lengthAdjust="spacing" textLength="28" x="558.5" y="835.0283">uses</text></g><!--link MaintenanceRepository to Maintenance--><g id="link_MaintenanceRepository_Maintenance"><path codeLine="92" d="M770.16,790.18 C784.55,814.84 797.9054,837.7281 813.0754,863.7181 " fill="none" id="MaintenanceRepository-to-Maintenance" style="stroke:#181818;stroke-width:1.0;"/><polygon fill="#181818" points="816.1,868.9,815.0177,859.1108,813.5795,864.5818,808.1085,863.1436,816.1,868.9" style="stroke:#181818;stroke-width:1.0;"/><text fill="#000000" font-family="sans-serif" font-size="13" lengthAdjust="spacing" textLength="74" x="799.5" y="835.0283">maintenance</text><text fill="#000000" font-family="sans-serif" font-size="13" lengthAdjust="spacing" textLength="7" x="766.8179" y="812.0117">1</text><text fill="#000000" font-family="sans-serif" font-size="13" lengthAdjust="spacing" textLength="5" x="806.6364" y="857.8435">*</text></g><!--SRC=[dLR9Rjim4BtpAuYSvDOEqAiHvDAWW945HOEwbruOQIeJfaY7f5qOHV-z5CLD8ksuoINHS9Rttd26KLlATqII3kz8lIKjFEiZ0ooXreIt390A3cf36l6RyXR_8aob9unomFgu0xmJxDX_8LGpeXH-e4e_4ierSC9h-BxwWx3vMU1QS2q5Oo3nSkhrEPnPvuyc_oHBDKjErh2XDGFr1D0OT8bZDSC7GHlqzmISM0XxN8SXsJVO2KMra4S3RpsrETykPXhvFvRigCmbGWYSMZX3gMTWQ0sQuHldUEj2Qmb4mwI-r9LZfVgWFlXPIvCswX9WKb1EYe4YvKhtUKnCwfDuN2xOkqKR0jFwJgkWryh1jCeKWQQonlpM_pHQ6rG4PWFBa8EeMTxf9Ijtr_Nsvk1RUycr25SYXWsbJDG36Tsu-wuQskzXV6Ncpio7wCJlDcsLlpYDsB-OfH0u5YK8FBlfHHoBvfbrPOLHgGMJ-v_YlKWdnxcFTeBv4GeAlcEc2gbIdjChuKTiWTUhfpYEplOY2MyoQoSQO9dLBjsfCUrh7a4a_03QRdHifpjgfL3gn5czbnAulk-o4rA_xgdf6HNyRYZO_qBvk7-HyBe7NlVJReo- -qwJoaZXiSwj1E5hu1u_UzBnAsMR-0IQ7kyS_-G9msWErA9fmccWD2-IiLporMtXLEDTMnYQC2eDqIILxbmN5tZRZJLCRtXnk6rd6lkdySHRoaG76gHAaDzvn064DPjzCNFLBY6PlVZu-lhsp0kFJh_9VM2wp9Vctv9ajQFHgxLOJ9tzs_LMYU8EE_aWPKMlFbrbcxxqg1GZ_wzs_gAO53RJ1uzXwHkFK7atMyguW7YlUatBGKCPKoL5japd0Vq3]--></g></svg>