<?xml version="1.0" encoding="UTF-8" standalone="no"?><svg xmlns="http://www.w3.org/2000/svg" xmlns:xlink="http://www.w3.org/1999/xlink" contentStyleType="text/css" height="1020px" preserveAspectRatio="none" style="width:1588px;height:1020px;background:#FFFFFF;" version="1.1" viewBox="0 0 1588 1020" width="1588px" zoomAndPan="magnify"><defs/><g><rect fill="#FFFFFF" height="827.3047" style="stroke:#181818;stroke-width:1.0;" width="10" x="17.5" y="92.6094"/><rect fill="#FFFFFF" height="804.9531" style="stroke:#181818;stroke-width:1.0;" width="10" x="320.5" y="114.9609"/><rect fill="#FFFFFF" height="212.4609" style="stroke:#181818;stroke-width:1.0;" width="10" x="604.5" y="187.9219"/><rect fill="#FFFFFF" height="458.8281" style="stroke:#181818;stroke-width:1.0;" width="10" x="604.5" y="430.7344"/><rect fill="#FFFFFF" height="383.125" style="stroke:#181818;stroke-width:1.0;" width="10" x="609.5" y="469.0859"/><rect fill="#FFFFFF" height="30.3516" style="stroke:#181818;stroke-width:1.0;" width="10" x="869.5" y="218.2734"/><rect fill="#FFFFFF" height="30.3516" style="stroke:#181818;stroke-width:1.0;" width="10" x="869.5" y="504.4375"/><rect fill="#FFFFFF" height="30.3516" style="stroke:#181818;stroke-width:1.0;" width="10" x="976.5" y="278.9766"/><rect fill="#FFFFFF" height="30.3516" style="stroke:#181818;stroke-width:1.0;" width="10" x="976.5" y="565.1406"/><rect fill="#FFFFFF" height="30.3516" style="stroke:#181818;stroke-width:1.0;" width="10" x="1100" y="339.6797"/><rect fill="#FFFFFF" height="190.0156" style="stroke:#181818;stroke-width:1.0;" width="10" x="1100" y="625.8438"/><rect fill="#FFFFFF" height="114.3125" style="stroke:#181818;stroke-width:1.0;" width="10" x="1105" y="664.1953"/><rect fill="#FFFFFF" height="32.6094" style="stroke:#181818;stroke-width:1.0;" width="10" x="1495.5" y="709.5469"/><line style="stroke:#181818;stroke-width:0.5;stroke-dasharray:5.0,5.0;" x1="22" x2="22" y1="82.6094" y2="937.9141"/><line style="stroke:#181818;stroke-width:0.5;stroke-dasharray:5.0,5.0;" x1="325" x2="325" y1="82.6094" y2="937.9141"/><line style="stroke:#181818;stroke-width:0.5;stroke-dasharray:5.0,5.0;" x1="609" x2="609" y1="154.2656" y2="937.9141"/><line style="stroke:#181818;stroke-width:0.5;stroke-dasharray:5.0,5.0;" x1="874" x2="874" y1="82.6094" y2="937.9141"/><line style="stroke:#181818;stroke-width:0.5;stroke-dasharray:5.0,5.0;" x1="981" x2="981" y1="82.6094" y2="937.9141"/><line style="stroke:#181818;stroke-width:0.5;stroke-dasharray:5.0,5.0;" x1="1105" x2="1105" y1="82.6094" y2="937.9141"/><line style="stroke:#181818;stroke-width:0.5;stroke-dasharray:5.0,5.0;" x1="1338" x2="1338" y1="82.6094" y2="937.9141"/><line style="stroke:#181818;stroke-width:0.5;stroke-dasharray:5.0,5.0;" x1="1500" x2="1500" y1="708.5" y2="937.9141"/><text fill="#000000" font-family="sans-serif" font-size="14" lengthAdjust="spacing" textLength="29" x="5" y="79.5332">VFM</text><ellipse cx="22.5" cy="13.5" fill="#E3E3E3" rx="8" ry="8" style="stroke:#181818;stroke-width:0.5;"/><path d="M22.5,21.5 L22.5,48.5 M9.5,29.5 L35.5,29.5 M22.5,48.5 L9.5,63.5 M22.5,48.5 L35.5,63.5 " fill="none" style="stroke:#181818;stroke-width:0.5;"/><text fill="#000000" font-family="sans-serif" font-size="14" lengthAdjust="spacing" textLength="29" x="5" y="951.4473">VFM</text><ellipse cx="22.5" cy="963.0234" fill="#E3E3E3" rx="8" ry="8" style="stroke:#181818;stroke-width:0.5;"/><path d="M22.5,971.0234 L22.5,998.0234 M9.5,979.0234 L35.5,979.0234 M22.5,998.0234 L9.5,1013.0234 M22.5,998.0234 L35.5,1013.0234 " fill="none" style="stroke:#181818;stroke-width:0.5;"/><rect fill="#E3E3E3" height="31.6094" rx="2.5" ry="2.5" style="stroke:#181818;stroke-width:0.5;" width="133" x="259" y="50"/><text fill="#000000" font-family="sans-serif" font-size="14" lengthAdjust="spacing" textLength="119" x="266" y="71.5332">:ListMaintenanceUI</text><rect fill="#E3E3E3" height="31.6094" rx="2.5" ry="2.5" style="stroke:#181818;stroke-width:0.5;" width="133" x="259" y="936.9141"/><text fill="#000000" font-family="sans-serif" font-size="14" lengthAdjust="spacing" textLength="119" x="266" y="958.4473">:ListMaintenanceUI</text><rect fill="#E3E3E3" height="31.6094" rx="2.5" ry="2.5" style="stroke:#181818;stroke-width:0.5;" width="183" x="518" y="936.9141"/><text fill="#000000" font-family="sans-serif" font-size="14" lengthAdjust="spacing" textLength="169" x="525" y="958.4473">:ListMaintenanceController</text><rect fill="#E3E3E3" height="31.6094" rx="2.5" ry="2.5" style="stroke:#181818;stroke-width:0.5;" width="97" x="826" y="50"/><text fill="#000000" font-family="sans-serif" font-size="14" lengthAdjust="spacing" textLength="83" x="833" y="71.5332">:Repositories</text><rect fill="#E3E3E3" height="31.6094" rx="2.5" ry="2.5" style="stroke:#181818;stroke-width:0.5;" width="97" x="826" y="936.9141"/><text fill="#000000" font-family="sans-serif" font-size="14" lengthAdjust="spacing" textLength="83" x="833" y="958.4473">:Repositories</text><rect fill="#E3E3E3" height="49.2188" rx="2.5" ry="2.5" style="stroke:#181818;stroke-width:0.5;" width="97" x="933" y="32.3906"/><text fill="#000000" font-family="sans-serif" font-size="14" lengthAdjust="spacing" textLength="74" x="944.5" y="53.9238">repositories</text><text fill="#000000" font-family="sans-serif" font-size="14" lengthAdjust="spacing" textLength="83" x="940" y="71.5332">:Repositories</text><rect fill="#E3E3E3" height="49.2188" rx="2.5" ry="2.5" style="stroke:#181818;stroke-width:0.5;" width="97" x="933" y="936.9141"/><text fill="#000000" font-family="sans-serif" font-size="14" lengthAdjust="spacing" textLength="74" x="944.5" y="958.4473">repositories</text><text fill="#000000" font-family="sans-serif" font-size="14" lengthAdjust="spacing" textLength="83" x="940" y="976.0566">:Repositories</text><rect fill="#E3E3E3" height="49.2188" rx="2.5" ry="2.5" style="stroke:#181818;stroke-width:0.5;" width="130" x="1040" y="32.3906"/><text fill="#000000" font-family="sans-serif" font-size="14" lengthAdjust="spacing" textLength="116" x="1047" y="53.9238">vehicleRepository:</text><text fill="#000000" font-family="sans-serif" font-size="14" lengthAdjust="spacing" textLength="114" x="1048" y="71.5332">VehicleRepository</text><rect fill="#E3E3E3" height="49.2188" rx="2.5" ry="2.5" style="stroke:#181818;stroke-width:0.5;" width="130" x="1040" y="936.9141"/><text fill="#000000" font-family="sans-serif" font-size="14" lengthAdjust="spacing" textLength="116" x="1047" y="958.4473">vehicleRepository:</text><text fill="#000000" font-family="sans-serif" font-size="14" lengthAdjust="spacing" textLength="114" x="1048" y="976.0566">VehicleRepository</text><rect fill="#E3E3E3" height="49.2188" rx="2.5" ry="2.5" style="stroke:#181818;stroke-width:0.5;" width="142" x="1267" y="32.3906"/><text fill="#000000" font-family="sans-serif" font-size="14" lengthAdjust="spacing" textLength="124" x="1276" y="53.9238">maintenanceReport</text><text fill="#000000" font-family="sans-serif" font-size="14" lengthAdjust="spacing" textLength="128" x="1274" y="71.5332">:MaintenanceReport</text><rect fill="#E3E3E3" height="49.2188" rx="2.5" ry="2.5" style="stroke:#181818;stroke-width:0.5;" width="142" x="1267" y="936.9141"/><text fill="#000000" font-family="sans-serif" font-size="14" lengthAdjust="spacing" textLength="124" x="1276" y="958.4473">maintenanceReport</text><text fill="#000000" font-family="sans-serif" font-size="14" lengthAdjust="spacing" textLength="128" x="1274" y="976.0566">:MaintenanceReport</text><rect fill="#E3E3E3" height="31.6094" rx="2.5" ry="2.5" style="stroke:#181818;stroke-width:0.5;" width="163" x="1419" y="936.9141"/><text fill="#000000" font-family="sans-serif" font-size="14" lengthAdjust="spacing" textLength="149" x="1426" y="958.4473">MaintenanceRepository</text><rect fill="#FFFFFF" height="827.3047" style="stroke:#181818;stroke-width:1.0;" width="10" x="17.5" y="92.6094"/><rect fill="#FFFFFF" height="804.9531" style="stroke:#181818;stroke-width:1.0;" width="10" x="320.5" y="114.9609"/><rect fill="#FFFFFF" height="212.4609" style="stroke:#181818;stroke-width:1.0;" width="10" x="604.5" y="187.9219"/><rect fill="#FFFFFF" height="458.8281" style="stroke:#181818;stroke-width:1.0;" width="10" x="604.5" y="430.7344"/><rect fill="#FFFFFF" height="383.125" style="stroke:#181818;stroke-width:1.0;" width="10" x="609.5" y="469.0859"/><rect fill="#FFFFFF" height="30.3516" style="stroke:#181818;stroke-width:1.0;" width="10" x="869.5" y="218.2734"/><rect fill="#FFFFFF" height="30.3516" style="stroke:#181818;stroke-width:1.0;" width="10" x="869.5" y="504.4375"/><rect fill="#FFFFFF" height="30.3516" style="stroke:#181818;stroke-width:1.0;" width="10" x="976.5" y="278.9766"/><rect fill="#FFFFFF" height="30.3516" style="stroke:#181818;stroke-width:1.0;" width="10" x="976.5" y="565.1406"/><rect fill="#FFFFFF" height="30.3516" style="stroke:#181818;stroke-width:1.0;" width="10" x="1100" y="339.6797"/><rect fill="#FFFFFF" height="190.0156" style="stroke:#181818;stroke-width:1.0;" width="10" x="1100" y="625.8438"/><rect fill="#FFFFFF" height="114.3125" style="stroke:#181818;stroke-width:1.0;" width="10" x="1105" y="664.1953"/><rect fill="#FFFFFF" height="32.6094" style="stroke:#181818;stroke-width:1.0;" width="10" x="1495.5" y="709.5469"/><polygon fill="#181818" points="308.5,110.9609,318.5,114.9609,308.5,118.9609,312.5,114.9609" style="stroke:#181818;stroke-width:1.0;"/><line style="stroke:#181818;stroke-width:1.0;" x1="27.5" x2="314.5" y1="114.9609" y2="114.9609"/><text fill="#000000" font-family="sans-serif" font-size="13" font-weight="bold" lengthAdjust="spacing" textLength="7" x="34.5" y="110.1045">1</text><text fill="#000000" font-family="sans-serif" font-size="13" lengthAdjust="spacing" textLength="263" x="45.5" y="110.1045">requests to list vehicles needing maintenance</text><polygon fill="#181818" points="506,141.3125,516,145.3125,506,149.3125,510,145.3125" style="stroke:#181818;stroke-width:1.0;"/><line style="stroke:#181818;stroke-width:1.0;" x1="330.5" x2="512" y1="145.3125" y2="145.3125"/><text fill="#000000" font-family="sans-serif" font-size="13" font-weight="bold" lengthAdjust="spacing" textLength="7" x="337.5" y="140.4561">2</text><text fill="#000000" font-family="sans-serif" font-size="13" lengthAdjust="spacing" textLength="36" x="348.5" y="140.4561">create</text><rect fill="#E3E3E3" height="31.6094" rx="2.5" ry="2.5" style="stroke:#181818;stroke-width:0.5;" width="183" x="518" y="122.9609"/><text fill="#000000" font-family="sans-serif" font-size="14" lengthAdjust="spacing" textLength="169" x="525" y="144.4941">:ListMaintenanceController</text><polygon fill="#181818" points="592.5,183.9219,602.5,187.9219,592.5,191.9219,596.5,187.9219" style="stroke:#181818;stroke-width:1.0;"/><line style="stroke:#181818;stroke-width:1.0;" x1="330.5" x2="598.5" y1="187.9219" y2="187.9219"/><text fill="#000000" font-family="sans-serif" font-size="13" font-weight="bold" lengthAdjust="spacing" textLength="7" x="337.5" y="183.0654">3</text><text fill="#000000" font-family="sans-serif" font-size="13" lengthAdjust="spacing" textLength="90" x="348.5" y="183.0654">getVehicleList()</text><polygon fill="#181818" points="857.5,214.2734,867.5,218.2734,857.5,222.2734,861.5,218.2734" style="stroke:#181818;stroke-width:1.0;"/><line style="stroke:#181818;stroke-width:1.0;" x1="614.5" x2="863.5" y1="218.2734" y2="218.2734"/><text fill="#000000" font-family="sans-serif" font-size="13" font-weight="bold" lengthAdjust="spacing" textLength="7" x="621.5" y="213.417">4</text><text fill="#000000" font-family="sans-serif" font-size="13" lengthAdjust="spacing" textLength="75" x="632.5" y="213.417">getInstance()</text><polygon fill="#181818" points="625.5,244.625,615.5,248.625,625.5,252.625,621.5,248.625" style="stroke:#181818;stroke-width:1.0;"/><line style="stroke:#181818;stroke-width:1.0;stroke-dasharray:2.0,2.0;" x1="619.5" x2="873.5" y1="248.625" y2="248.625"/><text fill="#000000" font-family="sans-serif" font-size="13" font-weight="bold" lengthAdjust="spacing" textLength="7" x="631.5" y="243.7686">5</text><text fill="#000000" font-family="sans-serif" font-size="13" lengthAdjust="spacing" textLength="67" x="642.5" y="243.7686">repositories</text><polygon fill="#181818" points="964.5,274.9766,974.5,278.9766,964.5,282.9766,968.5,278.9766" style="stroke:#181818;stroke-width:1.0;"/><line style="stroke:#181818;stroke-width:1.0;" x1="614.5" x2="970.5" y1="278.9766" y2="278.9766"/><text fill="#000000" font-family="sans-serif" font-size="13" font-weight="bold" lengthAdjust="spacing" textLength="7" x="621.5" y="274.1201">6</text><text fill="#000000" font-family="sans-serif" font-size="13" lengthAdjust="spacing" textLength="131" x="632.5" y="274.1201">getVehicleRepository()</text><polygon fill="#181818" points="625.5,305.3281,615.5,309.3281,625.5,313.3281,621.5,309.3281" style="stroke:#181818;stroke-width:1.0;"/><line style="stroke:#181818;stroke-width:1.0;stroke-dasharray:2.0,2.0;" x1="619.5" x2="980.5" y1="309.3281" y2="309.3281"/><text fill="#000000" font-family="sans-serif" font-size="13" font-weight="bold" lengthAdjust="spacing" textLength="7" x="631.5" y="304.4717">7</text><text fill="#000000" font-family="sans-serif" font-size="13" lengthAdjust="spacing" textLength="105" x="642.5" y="304.4717">VehicleRepository</text><polygon fill="#181818" points="1088,335.6797,1098,339.6797,1088,343.6797,1092,339.6797" style="stroke:#181818;stroke-width:1.0;"/><line style="stroke:#181818;stroke-width:1.0;" x1="614.5" x2="1094" y1="339.6797" y2="339.6797"/><text fill="#000000" font-family="sans-serif" font-size="13" font-weight="bold" lengthAdjust="spacing" textLength="7" x="621.5" y="334.8232">8</text><text fill="#000000" font-family="sans-serif" font-size="13" lengthAdjust="spacing" textLength="90" x="632.5" y="334.8232">getVehicleList()</text><polygon fill="#181818" points="625.5,366.0313,615.5,370.0313,625.5,374.0313,621.5,370.0313" style="stroke:#181818;stroke-width:1.0;"/><line style="stroke:#181818;stroke-width:1.0;stroke-dasharray:2.0,2.0;" x1="619.5" x2="1104" y1="370.0313" y2="370.0313"/><text fill="#000000" font-family="sans-serif" font-size="13" font-weight="bold" lengthAdjust="spacing" textLength="7" x="631.5" y="365.1748">9</text><text fill="#000000" font-family="sans-serif" font-size="13" lengthAdjust="spacing" textLength="60" x="642.5" y="365.1748">vehicleList</text><polygon fill="#181818" points="341.5,396.3828,331.5,400.3828,341.5,404.3828,337.5,400.3828" style="stroke:#181818;stroke-width:1.0;"/><line style="stroke:#181818;stroke-width:1.0;stroke-dasharray:2.0,2.0;" x1="335.5" x2="608.5" y1="400.3828" y2="400.3828"/><text fill="#000000" font-family="sans-serif" font-size="13" font-weight="bold" lengthAdjust="spacing" textLength="14" x="347.5" y="395.5264">10</text><text fill="#000000" font-family="sans-serif" font-size="13" lengthAdjust="spacing" textLength="60" x="365.5" y="395.5264">vehicleList</text><polygon fill="#181818" points="592.5,426.7344,602.5,430.7344,592.5,434.7344,596.5,430.7344" style="stroke:#181818;stroke-width:1.0;"/><line style="stroke:#181818;stroke-width:1.0;" x1="330.5" x2="598.5" y1="430.7344" y2="430.7344"/><text fill="#000000" font-family="sans-serif" font-size="13" font-weight="bold" lengthAdjust="spacing" textLength="14" x="337.5" y="425.8779">11</text><text fill="#000000" font-family="sans-serif" font-size="13" lengthAdjust="spacing" textLength="237" x="355.5" y="425.8779">generateMaintenanceReport(vehiclesList)</text><line style="stroke:#181818;stroke-width:1.0;" x1="614.5" x2="661.5" y1="456.0859" y2="456.0859"/><line style="stroke:#181818;stroke-width:1.0;" x1="661.5" x2="661.5" y1="456.0859" y2="469.0859"/><line style="stroke:#181818;stroke-width:1.0;" x1="620.5" x2="661.5" y1="469.0859" y2="469.0859"/><polygon fill="#181818" points="630.5,465.0859,620.5,469.0859,630.5,473.0859,626.5,469.0859" style="stroke:#181818;stroke-width:1.0;"/><text fill="#000000" font-family="sans-serif" font-size="13" font-weight="bold" lengthAdjust="spacing" textLength="14" x="626.5" y="451.2295">12</text><text fill="#000000" font-family="sans-serif" font-size="13" lengthAdjust="spacing" textLength="223" x="644.5" y="451.2295">createMaintenanceReport(vehiclesList)</text><polygon fill="#181818" points="857.5,500.4375,867.5,504.4375,857.5,508.4375,861.5,504.4375" style="stroke:#181818;stroke-width:1.0;"/><line style="stroke:#181818;stroke-width:1.0;" x1="619.5" x2="863.5" y1="504.4375" y2="504.4375"/><text fill="#000000" font-family="sans-serif" font-size="13" font-weight="bold" lengthAdjust="spacing" textLength="14" x="626.5" y="499.5811">13</text><text fill="#000000" font-family="sans-serif" font-size="13" lengthAdjust="spacing" textLength="75" x="644.5" y="499.5811">getInstance()</text><polygon fill="#181818" points="630.5,530.7891,620.5,534.7891,630.5,538.7891,626.5,534.7891" style="stroke:#181818;stroke-width:1.0;"/><line style="stroke:#181818;stroke-width:1.0;stroke-dasharray:2.0,2.0;" x1="624.5" x2="873.5" y1="534.7891" y2="534.7891"/><text fill="#000000" font-family="sans-serif" font-size="13" font-weight="bold" lengthAdjust="spacing" textLength="14" x="636.5" y="529.9326">14</text><text fill="#000000" font-family="sans-serif" font-size="13" lengthAdjust="spacing" textLength="67" x="654.5" y="529.9326">repositories</text><polygon fill="#181818" points="964.5,561.1406,974.5,565.1406,964.5,569.1406,968.5,565.1406" style="stroke:#181818;stroke-width:1.0;"/><line style="stroke:#181818;stroke-width:1.0;" x1="619.5" x2="970.5" y1="565.1406" y2="565.1406"/><text fill="#000000" font-family="sans-serif" font-size="13" font-weight="bold" lengthAdjust="spacing" textLength="14" x="626.5" y="560.2842">15</text><text fill="#000000" font-family="sans-serif" font-size="13" lengthAdjust="spacing" textLength="131" x="644.5" y="560.2842">getVehicleRepository()</text><polygon fill="#181818" points="630.5,591.4922,620.5,595.4922,630.5,599.4922,626.5,595.4922" style="stroke:#181818;stroke-width:1.0;"/><line style="stroke:#181818;stroke-width:1.0;stroke-dasharray:2.0,2.0;" x1="624.5" x2="980.5" y1="595.4922" y2="595.4922"/><text fill="#000000" font-family="sans-serif" font-size="13" font-weight="bold" lengthAdjust="spacing" textLength="14" x="636.5" y="590.6357">16</text><text fill="#000000" font-family="sans-serif" font-size="13" lengthAdjust="spacing" textLength="105" x="654.5" y="590.6357">VehicleRepository</text><polygon fill="#181818" points="1088,621.8438,1098,625.8438,1088,629.8438,1092,625.8438" style="stroke:#181818;stroke-width:1.0;"/><line style="stroke:#181818;stroke-width:1.0;" x1="619.5" x2="1094" y1="625.8438" y2="625.8438"/><text fill="#000000" font-family="sans-serif" font-size="13" font-weight="bold" lengthAdjust="spacing" textLength="14" x="626.5" y="620.9873">17</text><text fill="#000000" font-family="sans-serif" font-size="13" lengthAdjust="spacing" textLength="223" x="644.5" y="620.9873">createMaintenanceReport(vehiclesList)</text><line style="stroke:#181818;stroke-width:1.0;" x1="1110" x2="1157" y1="651.1953" y2="651.1953"/><line style="stroke:#181818;stroke-width:1.0;" x1="1157" x2="1157" y1="651.1953" y2="664.1953"/><line style="stroke:#181818;stroke-width:1.0;" x1="1116" x2="1157" y1="664.1953" y2="664.1953"/><polygon fill="#181818" points="1126,660.1953,1116,664.1953,1126,668.1953,1122,664.1953" style="stroke:#181818;stroke-width:1.0;"/><text fill="#000000" font-family="sans-serif" font-size="13" font-weight="bold" lengthAdjust="spacing" textLength="14" x="1122" y="646.3389">18</text><text fill="#000000" font-family="sans-serif" font-size="13" lengthAdjust="spacing" textLength="191" x="1140" y="646.3389">verifyExistedVehicles(vehicleList)</text><polygon fill="#181818" points="1407,695.5469,1417,699.5469,1407,703.5469,1411,699.5469" style="stroke:#181818;stroke-width:1.0;"/><line style="stroke:#181818;stroke-width:1.0;" x1="1115" x2="1413" y1="699.5469" y2="699.5469"/><text fill="#000000" font-family="sans-serif" font-size="13" font-weight="bold" lengthAdjust="spacing" textLength="14" x="1122" y="694.6904">19</text><text fill="#000000" font-family="sans-serif" font-size="13" lengthAdjust="spacing" textLength="223" x="1140" y="694.6904">createMaintenanceReport(vehiclesList)</text><rect fill="#E3E3E3" height="31.6094" rx="2.5" ry="2.5" style="stroke:#181818;stroke-width:0.5;" width="163" x="1419" y="677.1953"/><text fill="#000000" font-family="sans-serif" font-size="14" lengthAdjust="spacing" textLength="149" x="1426" y="698.7285">MaintenanceRepository</text><polygon fill="#181818" points="1126,738.1563,1116,742.1563,1126,746.1563,1122,742.1563" style="stroke:#181818;stroke-width:1.0;"/><line style="stroke:#181818;stroke-width:1.0;stroke-dasharray:2.0,2.0;" x1="1120" x2="1499.5" y1="742.1563" y2="742.1563"/><text fill="#000000" font-family="sans-serif" font-size="13" font-weight="bold" lengthAdjust="spacing" textLength="14" x="1132" y="737.2998">20</text><text fill="#000000" font-family="sans-serif" font-size="13" lengthAdjust="spacing" textLength="112" x="1150" y="737.2998">maintenanceReport</text><line style="stroke:#181818;stroke-width:1.0;stroke-dasharray:2.0,2.0;" x1="1115" x2="1157" y1="777.5078" y2="777.5078"/><line style="stroke:#181818;stroke-width:1.0;stroke-dasharray:2.0,2.0;" x1="1157" x2="1157" y1="777.5078" y2="790.5078"/><line style="stroke:#181818;stroke-width:1.0;stroke-dasharray:2.0,2.0;" x1="1110" x2="1157" y1="790.5078" y2="790.5078"/><polygon fill="#181818" points="1120,786.5078,1110,790.5078,1120,794.5078,1116,790.5078" style="stroke:#181818;stroke-width:1.0;"/><text fill="#000000" font-family="sans-serif" font-size="13" font-weight="bold" lengthAdjust="spacing" textLength="14" x="1122" y="772.6514">21</text><text fill="#000000" font-family="sans-serif" font-size="13" lengthAdjust="spacing" textLength="4" x="1140" y="772.6514"> </text><polygon fill="#181818" points="630.5,811.8594,620.5,815.8594,630.5,819.8594,626.5,815.8594" style="stroke:#181818;stroke-width:1.0;"/><line style="stroke:#181818;stroke-width:1.0;stroke-dasharray:2.0,2.0;" x1="624.5" x2="1104" y1="815.8594" y2="815.8594"/><text fill="#000000" font-family="sans-serif" font-size="13" font-weight="bold" lengthAdjust="spacing" textLength="14" x="636.5" y="811.0029">22</text><text fill="#000000" font-family="sans-serif" font-size="13" lengthAdjust="spacing" textLength="112" x="654.5" y="811.0029">maintenanceReport</text><line style="stroke:#181818;stroke-width:1.0;stroke-dasharray:2.0,2.0;" x1="619.5" x2="661.5" y1="851.2109" y2="851.2109"/><line style="stroke:#181818;stroke-width:1.0;stroke-dasharray:2.0,2.0;" x1="661.5" x2="661.5" y1="851.2109" y2="864.2109"/><line style="stroke:#181818;stroke-width:1.0;stroke-dasharray:2.0,2.0;" x1="614.5" x2="661.5" y1="864.2109" y2="864.2109"/><polygon fill="#181818" points="624.5,860.2109,614.5,864.2109,624.5,868.2109,620.5,864.2109" style="stroke:#181818;stroke-width:1.0;"/><text fill="#000000" font-family="sans-serif" font-size="13" font-weight="bold" lengthAdjust="spacing" textLength="14" x="626.5" y="846.3545">23</text><text fill="#000000" font-family="sans-serif" font-size="13" lengthAdjust="spacing" textLength="112" x="644.5" y="846.3545">maintenanceReport</text><polygon fill="#181818" points="341.5,885.5625,331.5,889.5625,341.5,893.5625,337.5,889.5625" style="stroke:#181818;stroke-width:1.0;"/><line style="stroke:#181818;stroke-width:1.0;stroke-dasharray:2.0,2.0;" x1="335.5" x2="608.5" y1="889.5625" y2="889.5625"/><text fill="#000000" font-family="sans-serif" font-size="13" font-weight="bold" lengthAdjust="spacing" textLength="14" x="347.5" y="884.7061">24</text><text fill="#000000" font-family="sans-serif" font-size="13" lengthAdjust="spacing" textLength="112" x="365.5" y="884.7061">maintenanceReport</text><polygon fill="#181818" points="33.5,915.9141,23.5,919.9141,33.5,923.9141,29.5,919.9141" style="stroke:#181818;stroke-width:1.0;"/><line style="stroke:#181818;stroke-width:1.0;stroke-dasharray:2.0,2.0;" x1="27.5" x2="324.5" y1="919.9141" y2="919.9141"/><text fill="#000000" font-family="sans-serif" font-size="13" font-weight="bold" lengthAdjust="spacing" textLength="14" x="39.5" y="915.0576">25</text><text fill="#000000" font-family="sans-serif" font-size="13" lengthAdjust="spacing" textLength="152" x="57.5" y="915.0576">shows maintenance report</text><!--SRC=[hPRBRkem48RtVWgBpQ58l02BIbLrAY61LFMswiPD1h2Qs1pRqFBsP-o4n8cT9e5cqyeUV_FFpLX_Sh5dYkKqbq8cEoLpe4OTWEXgPy-IJxQ5PtFAW2f831FRp3VGEvRABowsTCCo3OImWv7Ya7-08kJFZgT0DrAQ3_bDM6AaefEtX_M4CatnBq66uGdVCs7ePB7YsgmP5mO44mcyBftTw_9ditifZ99P1igPtxyyhLe7dc0lDKVd7BIpgHPEpzp6WugRHvHtubs4WCVLtKlpn15sFCcW9Y_UnLjxhOYxlTe4vNLaraGPzBzkhpbGi4fiYlcH6N399HG__8VERp69T87r-tS0RJGracQOH5gArbG0fBQ6ddDtkk9X4To2_P25H9ldsGofYGAqY6tZvXPC6Q-jslIcigh8hbxLiltSKKH4gbGGbq8RAz73DP2nyZOixHUZpqlXDbLrnHj7KnZkvXo8xPP6BkgJNI6u1WiqEr0jCkoa3gKXxImjGFnKiuR2q7aWDuJFwyuurYwwPFUuA68uDtUCvx6ADkjgKW4AZOA1cfu7n597zMv9BcPZABU7VSriZ9-FAsPax9nSDYi3vcNqpFJEJT_iZ2_uBmnLH8gT1yKtfx_Vw13ISbzFlIcvJaQdb5RivSPiTcbk6iAYyBYuk8vvHzs2NzqeqskDWKhYL-2e9hpsekqFxO8hTn0xk7wxR-zkK2V4Nk4sb_Z0MU0pL7vfd-9kfnBZ8UmxnWyNdqd_0G00]--></g></svg>