<?xml version="1.0" encoding="UTF-8" standalone="no"?><svg xmlns="http://www.w3.org/2000/svg" xmlns:xlink="http://www.w3.org/1999/xlink" contentStyleType="text/css" height="721px" preserveAspectRatio="none" style="width:1684px;height:721px;background:#FFFFFF;" version="1.1" viewBox="0 0 1684 721" width="1684px" zoomAndPan="magnify"><defs/><g><!--class VFM--><g id="elem_VFM"><rect codeLine="5" fill="#F1F1F1" height="48" id="VFM" rx="2.5" ry="2.5" style="stroke:#181818;stroke-width:0.5;" width="61" x="561.5" y="24.5"/><ellipse cx="576.5" cy="40.5" fill="#ADD1B2" rx="11" ry="11" style="stroke:#181818;stroke-width:1.0;"/><path d="M579.2656,36.375 Q579.4219,36.1563 579.6094,36.0469 Q579.7969,35.9375 580.0156,35.9375 Q580.3906,35.9375 580.625,36.2031 Q580.8594,36.4531 580.8594,37.0625 L580.8594,38.5156 Q580.8594,39.125 580.625,39.3906 Q580.3906,39.6563 580.0156,39.6563 Q579.6719,39.6563 579.4688,39.4531 Q579.2656,39.2656 579.1563,38.75 Q579.1094,38.3906 578.9219,38.2031 Q578.5938,37.8281 577.9844,37.6094 Q577.375,37.3906 576.75,37.3906 Q575.9844,37.3906 575.3438,37.7188 Q574.7188,38.0469 574.2188,38.7969 Q573.7344,39.5469 573.7344,40.5781 L573.7344,41.6719 Q573.7344,42.9063 574.625,43.7344 Q575.5156,44.5469 577.1094,44.5469 Q578.0469,44.5469 578.7031,44.2969 Q579.0938,44.1406 579.5156,43.7031 Q579.7813,43.4375 579.9219,43.3594 Q580.0781,43.2813 580.2813,43.2813 Q580.6094,43.2813 580.8594,43.5469 Q581.125,43.7969 581.125,44.1406 Q581.125,44.4844 580.7813,44.8906 Q580.2813,45.4688 579.4844,45.7969 Q578.4063,46.25 577.1094,46.25 Q575.5938,46.25 574.3906,45.625 Q573.4063,45.125 572.7188,44.0625 Q572.0313,42.9844 572.0313,41.7031 L572.0313,40.5469 Q572.0313,39.2188 572.6406,38.0781 Q573.2656,36.9219 574.3594,36.3125 Q575.4531,35.6875 576.6875,35.6875 Q577.4219,35.6875 578.0625,35.8594 Q578.7188,36.0156 579.2656,36.375 Z " fill="#000000"/><text fill="#000000" font-family="sans-serif" font-size="14" lengthAdjust="spacing" textLength="29" x="590.5" y="46.2285">VFM</text><line style="stroke:#181818;stroke-width:0.5;" x1="562.5" x2="621.5" y1="56.5" y2="56.5"/><line style="stroke:#181818;stroke-width:0.5;" x1="562.5" x2="621.5" y1="64.5" y2="64.5"/></g><!--class Vehicle--><g id="elem_Vehicle"><rect codeLine="8" fill="#F1F1F1" height="206.4844" id="Vehicle" rx="2.5" ry="2.5" style="stroke:#181818;stroke-width:0.5;" width="714" x="837" y="347"/><ellipse cx="1166.75" cy="363" fill="#ADD1B2" rx="11" ry="11" style="stroke:#181818;stroke-width:1.0;"/><path d="M1169.5156,358.875 Q1169.6719,358.6563 1169.8594,358.5469 Q1170.0469,358.4375 1170.2656,358.4375 Q1170.6406,358.4375 1170.875,358.7031 Q1171.1094,358.9531 1171.1094,359.5625 L1171.1094,361.0156 Q1171.1094,361.625 1170.875,361.8906 Q1170.6406,362.1563 1170.2656,362.1563 Q1169.9219,362.1563 1169.7188,361.9531 Q1169.5156,361.7656 1169.4063,361.25 Q1169.3594,360.8906 1169.1719,360.7031 Q1168.8438,360.3281 1168.2344,360.1094 Q1167.625,359.8906 1167,359.8906 Q1166.2344,359.8906 1165.5938,360.2188 Q1164.9688,360.5469 1164.4688,361.2969 Q1163.9844,362.0469 1163.9844,363.0781 L1163.9844,364.1719 Q1163.9844,365.4063 1164.875,366.2344 Q1165.7656,367.0469 1167.3594,367.0469 Q1168.2969,367.0469 1168.9531,366.7969 Q1169.3438,366.6406 1169.7656,366.2031 Q1170.0313,365.9375 1170.1719,365.8594 Q1170.3281,365.7813 1170.5313,365.7813 Q1170.8594,365.7813 1171.1094,366.0469 Q1171.375,366.2969 1171.375,366.6406 Q1171.375,366.9844 1171.0313,367.3906 Q1170.5313,367.9688 1169.7344,368.2969 Q1168.6563,368.75 1167.3594,368.75 Q1165.8438,368.75 1164.6406,368.125 Q1163.6563,367.625 1162.9688,366.5625 Q1162.2813,365.4844 1162.2813,364.2031 L1162.2813,363.0469 Q1162.2813,361.7188 1162.8906,360.5781 Q1163.5156,359.4219 1164.6094,358.8125 Q1165.7031,358.1875 1166.9375,358.1875 Q1167.6719,358.1875 1168.3125,358.3594 Q1168.9688,358.5156 1169.5156,358.875 Z " fill="#000000"/><text fill="#000000" font-family="sans-serif" font-size="14" lengthAdjust="spacing" textLength="46" x="1187.25" y="368.7285">Vehicle</text><line style="stroke:#181818;stroke-width:0.5;" x1="838" x2="1550" y1="379" y2="379"/><rect fill="none" height="6" style="stroke:#C82930;stroke-width:1.0;" width="6" x="845" y="390.3047"/><text fill="#000000" font-family="sans-serif" font-size="14" lengthAdjust="spacing" textLength="18" x="857" y="397.5332">vin</text><rect fill="none" height="6" style="stroke:#C82930;stroke-width:1.0;" width="6" x="845" y="407.9141"/><text fill="#000000" font-family="sans-serif" font-size="14" lengthAdjust="spacing" textLength="76" x="857" y="415.1426">vehiclePlate</text><rect fill="none" height="6" style="stroke:#C82930;stroke-width:1.0;" width="6" x="845" y="425.5234"/><text fill="#000000" font-family="sans-serif" font-size="14" lengthAdjust="spacing" textLength="69" x="857" y="432.752">tareWeight</text><rect fill="none" height="6" style="stroke:#C82930;stroke-width:1.0;" width="6" x="845" y="443.1328"/><text fill="#000000" font-family="sans-serif" font-size="14" lengthAdjust="spacing" textLength="79" x="857" y="450.3613">grossWeight</text><rect fill="none" height="6" style="stroke:#C82930;stroke-width:1.0;" width="6" x="845" y="460.7422"/><text fill="#000000" font-family="sans-serif" font-size="14" lengthAdjust="spacing" textLength="65" x="857" y="467.9707">currentKm</text><rect fill="none" height="6" style="stroke:#C82930;stroke-width:1.0;" width="6" x="845" y="478.3516"/><text fill="#000000" font-family="sans-serif" font-size="14" lengthAdjust="spacing" textLength="97" x="857" y="485.5801">acquisitionDate</text><rect fill="none" height="6" style="stroke:#C82930;stroke-width:1.0;" width="6" x="845" y="495.9609"/><text fill="#000000" font-family="sans-serif" font-size="14" lengthAdjust="spacing" textLength="149" x="857" y="503.1895">maintenanceFrequency</text><rect fill="none" height="6" style="stroke:#C82930;stroke-width:1.0;" width="6" x="845" y="513.5703"/><text fill="#000000" font-family="sans-serif" font-size="14" lengthAdjust="spacing" textLength="27" x="857" y="520.7988">type</text><line style="stroke:#181818;stroke-width:0.5;" x1="838" x2="1550" y1="527.875" y2="527.875"/><ellipse cx="848" cy="542.1797" fill="#84BE84" rx="3" ry="3" style="stroke:#038048;stroke-width:1.0;"/><text fill="#000000" font-family="sans-serif" font-size="14" lengthAdjust="spacing" textLength="688" x="857" y="546.4082">Vehicle(vin, vehiclePlate, tareWeight, grossWeight,currentKm, acquisitionDate, maintenanceFrequency, type)</text></g><!--class Brand--><g id="elem_Brand"><rect codeLine="21" fill="#F1F1F1" height="83.2188" id="Brand" rx="2.5" ry="2.5" style="stroke:#181818;stroke-width:0.5;" width="112" x="1343" y="631"/><ellipse cx="1376.9" cy="647" fill="#ADD1B2" rx="11" ry="11" style="stroke:#181818;stroke-width:1.0;"/><path d="M1379.6656,642.875 Q1379.8219,642.6563 1380.0094,642.5469 Q1380.1969,642.4375 1380.4156,642.4375 Q1380.7906,642.4375 1381.025,642.7031 Q1381.2594,642.9531 1381.2594,643.5625 L1381.2594,645.0156 Q1381.2594,645.625 1381.025,645.8906 Q1380.7906,646.1563 1380.4156,646.1563 Q1380.0719,646.1563 1379.8688,645.9531 Q1379.6656,645.7656 1379.5563,645.25 Q1379.5094,644.8906 1379.3219,644.7031 Q1378.9938,644.3281 1378.3844,644.1094 Q1377.775,643.8906 1377.15,643.8906 Q1376.3844,643.8906 1375.7438,644.2188 Q1375.1188,644.5469 1374.6188,645.2969 Q1374.1344,646.0469 1374.1344,647.0781 L1374.1344,648.1719 Q1374.1344,649.4063 1375.025,650.2344 Q1375.9156,651.0469 1377.5094,651.0469 Q1378.4469,651.0469 1379.1031,650.7969 Q1379.4938,650.6406 1379.9156,650.2031 Q1380.1813,649.9375 1380.3219,649.8594 Q1380.4781,649.7813 1380.6813,649.7813 Q1381.0094,649.7813 1381.2594,650.0469 Q1381.525,650.2969 1381.525,650.6406 Q1381.525,650.9844 1381.1813,651.3906 Q1380.6813,651.9688 1379.8844,652.2969 Q1378.8063,652.75 1377.5094,652.75 Q1375.9938,652.75 1374.7906,652.125 Q1373.8063,651.625 1373.1188,650.5625 Q1372.4313,649.4844 1372.4313,648.2031 L1372.4313,647.0469 Q1372.4313,645.7188 1373.0406,644.5781 Q1373.6656,643.4219 1374.7594,642.8125 Q1375.8531,642.1875 1377.0875,642.1875 Q1377.8219,642.1875 1378.4625,642.3594 Q1379.1188,642.5156 1379.6656,642.875 Z " fill="#000000"/><text fill="#000000" font-family="sans-serif" font-size="14" lengthAdjust="spacing" textLength="38" x="1395.1" y="652.7285">Brand</text><line style="stroke:#181818;stroke-width:0.5;" x1="1344" x2="1454" y1="663" y2="663"/><rect fill="none" height="6" style="stroke:#C82930;stroke-width:1.0;" width="6" x="1351" y="674.3047"/><text fill="#000000" font-family="sans-serif" font-size="14" lengthAdjust="spacing" textLength="38" x="1363" y="681.5332">model</text><line style="stroke:#181818;stroke-width:0.5;" x1="1344" x2="1454" y1="688.6094" y2="688.6094"/><ellipse cx="1354" cy="702.9141" fill="#84BE84" rx="3" ry="3" style="stroke:#038048;stroke-width:1.0;"/><text fill="#000000" font-family="sans-serif" font-size="14" lengthAdjust="spacing" textLength="86" x="1363" y="707.1426">Brand(model)</text></g><!--class VehicleRepository--><g id="elem_VehicleRepository"><rect codeLine="27" fill="#F1F1F1" height="100.8281" id="VehicleRepository" rx="2.5" ry="2.5" style="stroke:#181818;stroke-width:0.5;" width="818" x="321" y="176.5"/><ellipse cx="668.75" cy="192.5" fill="#ADD1B2" rx="11" ry="11" style="stroke:#181818;stroke-width:1.0;"/><path d="M671.5156,188.375 Q671.6719,188.1563 671.8594,188.0469 Q672.0469,187.9375 672.2656,187.9375 Q672.6406,187.9375 672.875,188.2031 Q673.1094,188.4531 673.1094,189.0625 L673.1094,190.5156 Q673.1094,191.125 672.875,191.3906 Q672.6406,191.6563 672.2656,191.6563 Q671.9219,191.6563 671.7188,191.4531 Q671.5156,191.2656 671.4063,190.75 Q671.3594,190.3906 671.1719,190.2031 Q670.8438,189.8281 670.2344,189.6094 Q669.625,189.3906 669,189.3906 Q668.2344,189.3906 667.5938,189.7188 Q666.9688,190.0469 666.4688,190.7969 Q665.9844,191.5469 665.9844,192.5781 L665.9844,193.6719 Q665.9844,194.9063 666.875,195.7344 Q667.7656,196.5469 669.3594,196.5469 Q670.2969,196.5469 670.9531,196.2969 Q671.3438,196.1406 671.7656,195.7031 Q672.0313,195.4375 672.1719,195.3594 Q672.3281,195.2813 672.5313,195.2813 Q672.8594,195.2813 673.1094,195.5469 Q673.375,195.7969 673.375,196.1406 Q673.375,196.4844 673.0313,196.8906 Q672.5313,197.4688 671.7344,197.7969 Q670.6563,198.25 669.3594,198.25 Q667.8438,198.25 666.6406,197.625 Q665.6563,197.125 664.9688,196.0625 Q664.2813,194.9844 664.2813,193.7031 L664.2813,192.5469 Q664.2813,191.2188 664.8906,190.0781 Q665.5156,188.9219 666.6094,188.3125 Q667.7031,187.6875 668.9375,187.6875 Q669.6719,187.6875 670.3125,187.8594 Q670.9688,188.0156 671.5156,188.375 Z " fill="#000000"/><text fill="#000000" font-family="sans-serif" font-size="14" lengthAdjust="spacing" textLength="114" x="689.25" y="198.2285">VehicleRepository</text><line style="stroke:#181818;stroke-width:0.5;" x1="322" x2="1138" y1="208.5" y2="208.5"/><line style="stroke:#181818;stroke-width:0.5;" x1="322" x2="1138" y1="216.5" y2="216.5"/><ellipse cx="332" cy="230.8047" fill="#84BE84" rx="3" ry="3" style="stroke:#038048;stroke-width:1.0;"/><text fill="#000000" font-family="sans-serif" font-size="14" lengthAdjust="spacing" textLength="792" x="341" y="235.0332">registerVehicle(vin, brand, model, vehiclePlate, tareWeight,grossWeight, currentKm, acquisitionDate, maintenanceFrequency)</text><ellipse cx="332" cy="248.4141" fill="#84BE84" rx="3" ry="3" style="stroke:#038048;stroke-width:1.0;"/><text fill="#000000" font-family="sans-serif" font-size="14" lengthAdjust="spacing" textLength="98" x="341" y="252.6426">validateVIN(vin)</text><ellipse cx="332" cy="266.0234" fill="#84BE84" rx="3" ry="3" style="stroke:#038048;stroke-width:1.0;"/><text fill="#000000" font-family="sans-serif" font-size="14" lengthAdjust="spacing" textLength="216" x="341" y="270.252">getVehiclesNeedingMaintenance()</text></g><!--class BrandRepository--><g id="elem_BrandRepository"><rect codeLine="33" fill="#F1F1F1" height="83.2188" id="BrandRepository" rx="2.5" ry="2.5" style="stroke:#181818;stroke-width:0.5;" width="185" x="1174.5" y="185.5"/><ellipse cx="1210.65" cy="201.5" fill="#ADD1B2" rx="11" ry="11" style="stroke:#181818;stroke-width:1.0;"/><path d="M1213.4156,197.375 Q1213.5719,197.1563 1213.7594,197.0469 Q1213.9469,196.9375 1214.1656,196.9375 Q1214.5406,196.9375 1214.775,197.2031 Q1215.0094,197.4531 1215.0094,198.0625 L1215.0094,199.5156 Q1215.0094,200.125 1214.775,200.3906 Q1214.5406,200.6563 1214.1656,200.6563 Q1213.8219,200.6563 1213.6188,200.4531 Q1213.4156,200.2656 1213.3063,199.75 Q1213.2594,199.3906 1213.0719,199.2031 Q1212.7438,198.8281 1212.1344,198.6094 Q1211.525,198.3906 1210.9,198.3906 Q1210.1344,198.3906 1209.4938,198.7188 Q1208.8688,199.0469 1208.3688,199.7969 Q1207.8844,200.5469 1207.8844,201.5781 L1207.8844,202.6719 Q1207.8844,203.9063 1208.775,204.7344 Q1209.6656,205.5469 1211.2594,205.5469 Q1212.1969,205.5469 1212.8531,205.2969 Q1213.2438,205.1406 1213.6656,204.7031 Q1213.9313,204.4375 1214.0719,204.3594 Q1214.2281,204.2813 1214.4313,204.2813 Q1214.7594,204.2813 1215.0094,204.5469 Q1215.275,204.7969 1215.275,205.1406 Q1215.275,205.4844 1214.9313,205.8906 Q1214.4313,206.4688 1213.6344,206.7969 Q1212.5563,207.25 1211.2594,207.25 Q1209.7438,207.25 1208.5406,206.625 Q1207.5563,206.125 1206.8688,205.0625 Q1206.1813,203.9844 1206.1813,202.7031 L1206.1813,201.5469 Q1206.1813,200.2188 1206.7906,199.0781 Q1207.4156,197.9219 1208.5094,197.3125 Q1209.6031,196.6875 1210.8375,196.6875 Q1211.5719,196.6875 1212.2125,196.8594 Q1212.8688,197.0156 1213.4156,197.375 Z " fill="#000000"/><text fill="#000000" font-family="sans-serif" font-size="14" lengthAdjust="spacing" textLength="106" x="1229.35" y="207.2285">BrandRepository</text><line style="stroke:#181818;stroke-width:0.5;" x1="1175.5" x2="1358.5" y1="217.5" y2="217.5"/><line style="stroke:#181818;stroke-width:0.5;" x1="1175.5" x2="1358.5" y1="225.5" y2="225.5"/><ellipse cx="1185.5" cy="239.8047" fill="#84BE84" rx="3" ry="3" style="stroke:#038048;stroke-width:1.0;"/><text fill="#000000" font-family="sans-serif" font-size="14" lengthAdjust="spacing" textLength="75" x="1194.5" y="244.0332">getBrands()</text><ellipse cx="1185.5" cy="257.4141" fill="#84BE84" rx="3" ry="3" style="stroke:#038048;stroke-width:1.0;"/><text fill="#000000" font-family="sans-serif" font-size="14" lengthAdjust="spacing" textLength="159" x="1194.5" y="261.6426">getModelByBrand(brand)</text></g><!--class MaintenanceReport--><g id="elem_MaintenanceReport"><rect codeLine="38" fill="#F1F1F1" height="65.6094" id="MaintenanceReport" rx="2.5" ry="2.5" style="stroke:#181818;stroke-width:0.5;" width="156" x="1395" y="194"/><ellipse cx="1410" cy="210" fill="#ADD1B2" rx="11" ry="11" style="stroke:#181818;stroke-width:1.0;"/><path d="M1412.7656,205.875 Q1412.9219,205.6563 1413.1094,205.5469 Q1413.2969,205.4375 1413.5156,205.4375 Q1413.8906,205.4375 1414.125,205.7031 Q1414.3594,205.9531 1414.3594,206.5625 L1414.3594,208.0156 Q1414.3594,208.625 1414.125,208.8906 Q1413.8906,209.1563 1413.5156,209.1563 Q1413.1719,209.1563 1412.9688,208.9531 Q1412.7656,208.7656 1412.6563,208.25 Q1412.6094,207.8906 1412.4219,207.7031 Q1412.0938,207.3281 1411.4844,207.1094 Q1410.875,206.8906 1410.25,206.8906 Q1409.4844,206.8906 1408.8438,207.2188 Q1408.2188,207.5469 1407.7188,208.2969 Q1407.2344,209.0469 1407.2344,210.0781 L1407.2344,211.1719 Q1407.2344,212.4063 1408.125,213.2344 Q1409.0156,214.0469 1410.6094,214.0469 Q1411.5469,214.0469 1412.2031,213.7969 Q1412.5938,213.6406 1413.0156,213.2031 Q1413.2813,212.9375 1413.4219,212.8594 Q1413.5781,212.7813 1413.7813,212.7813 Q1414.1094,212.7813 1414.3594,213.0469 Q1414.625,213.2969 1414.625,213.6406 Q1414.625,213.9844 1414.2813,214.3906 Q1413.7813,214.9688 1412.9844,215.2969 Q1411.9063,215.75 1410.6094,215.75 Q1409.0938,215.75 1407.8906,215.125 Q1406.9063,214.625 1406.2188,213.5625 Q1405.5313,212.4844 1405.5313,211.2031 L1405.5313,210.0469 Q1405.5313,208.7188 1406.1406,207.5781 Q1406.7656,206.4219 1407.8594,205.8125 Q1408.9531,205.1875 1410.1875,205.1875 Q1410.9219,205.1875 1411.5625,205.3594 Q1412.2188,205.5156 1412.7656,205.875 Z " fill="#000000"/><text fill="#000000" font-family="sans-serif" font-size="14" lengthAdjust="spacing" textLength="124" x="1424" y="215.7285">MaintenanceReport</text><line style="stroke:#181818;stroke-width:0.5;" x1="1396" x2="1550" y1="226" y2="226"/><rect fill="none" height="6" style="stroke:#C82930;stroke-width:1.0;" width="6" x="1403" y="237.3047"/><text fill="#000000" font-family="sans-serif" font-size="14" lengthAdjust="spacing" textLength="81" x="1415" y="244.5332">reportDetails</text><line style="stroke:#181818;stroke-width:0.5;" x1="1396" x2="1550" y1="251.6094" y2="251.6094"/></g><!--class Repositories--><g id="elem_Repositories"><rect codeLine="42" fill="#F1F1F1" height="118.4375" id="Repositories" rx="2.5" ry="2.5" style="stroke:#181818;stroke-width:0.5;" width="200" x="7" y="168"/><ellipse cx="63.25" cy="184" fill="#ADD1B2" rx="11" ry="11" style="stroke:#181818;stroke-width:1.0;"/><path d="M66.0156,179.875 Q66.1719,179.6563 66.3594,179.5469 Q66.5469,179.4375 66.7656,179.4375 Q67.1406,179.4375 67.375,179.7031 Q67.6094,179.9531 67.6094,180.5625 L67.6094,182.0156 Q67.6094,182.625 67.375,182.8906 Q67.1406,183.1563 66.7656,183.1563 Q66.4219,183.1563 66.2188,182.9531 Q66.0156,182.7656 65.9063,182.25 Q65.8594,181.8906 65.6719,181.7031 Q65.3438,181.3281 64.7344,181.1094 Q64.125,180.8906 63.5,180.8906 Q62.7344,180.8906 62.0938,181.2188 Q61.4688,181.5469 60.9688,182.2969 Q60.4844,183.0469 60.4844,184.0781 L60.4844,185.1719 Q60.4844,186.4063 61.375,187.2344 Q62.2656,188.0469 63.8594,188.0469 Q64.7969,188.0469 65.4531,187.7969 Q65.8438,187.6406 66.2656,187.2031 Q66.5313,186.9375 66.6719,186.8594 Q66.8281,186.7813 67.0313,186.7813 Q67.3594,186.7813 67.6094,187.0469 Q67.875,187.2969 67.875,187.6406 Q67.875,187.9844 67.5313,188.3906 Q67.0313,188.9688 66.2344,189.2969 Q65.1563,189.75 63.8594,189.75 Q62.3438,189.75 61.1406,189.125 Q60.1563,188.625 59.4688,187.5625 Q58.7813,186.4844 58.7813,185.2031 L58.7813,184.0469 Q58.7813,182.7188 59.3906,181.5781 Q60.0156,180.4219 61.1094,179.8125 Q62.2031,179.1875 63.4375,179.1875 Q64.1719,179.1875 64.8125,179.3594 Q65.4688,179.5156 66.0156,179.875 Z " fill="#000000"/><text fill="#000000" font-family="sans-serif" font-size="14" lengthAdjust="spacing" textLength="79" x="83.75" y="189.7285">Repositories</text><line style="stroke:#181818;stroke-width:0.5;" x1="8" x2="206" y1="200" y2="200"/><line style="stroke:#181818;stroke-width:0.5;" x1="8" x2="206" y1="208" y2="208"/><rect fill="#F24D5C" height="6" style="stroke:#C82930;stroke-width:1.0;" width="6" x="15" y="219.3047"/><text fill="#000000" font-family="sans-serif" font-size="14" lengthAdjust="spacing" textLength="89" x="27" y="226.5332">Repositories()</text><ellipse cx="18" cy="239.9141" fill="#84BE84" rx="3" ry="3" style="stroke:#038048;stroke-width:1.0;"/><text fill="#000000" font-family="sans-serif" font-size="14" lengthAdjust="spacing" textLength="174" x="27" y="244.1426">getInstance() : Repositories</text><ellipse cx="18" cy="257.5234" fill="#84BE84" rx="3" ry="3" style="stroke:#038048;stroke-width:1.0;"/><text fill="#000000" font-family="sans-serif" font-size="14" lengthAdjust="spacing" textLength="136" x="27" y="261.752">getBrandRepository()</text><ellipse cx="18" cy="275.1328" fill="#84BE84" rx="3" ry="3" style="stroke:#038048;stroke-width:1.0;"/><text fill="#000000" font-family="sans-serif" font-size="14" lengthAdjust="spacing" textLength="144" x="27" y="279.3613">getVehicleRepository()</text></g><!--class ListMaintenanceController--><g id="elem_ListMaintenanceController"><rect codeLine="49" fill="#F1F1F1" height="83.2188" id="ListMaintenanceController" rx="2.5" ry="2.5" style="stroke:#181818;stroke-width:0.5;" width="290" x="840" y="7"/><ellipse cx="898.25" cy="23" fill="#ADD1B2" rx="11" ry="11" style="stroke:#181818;stroke-width:1.0;"/><path d="M901.0156,18.875 Q901.1719,18.6563 901.3594,18.5469 Q901.5469,18.4375 901.7656,18.4375 Q902.1406,18.4375 902.375,18.7031 Q902.6094,18.9531 902.6094,19.5625 L902.6094,21.0156 Q902.6094,21.625 902.375,21.8906 Q902.1406,22.1563 901.7656,22.1563 Q901.4219,22.1563 901.2188,21.9531 Q901.0156,21.7656 900.9063,21.25 Q900.8594,20.8906 900.6719,20.7031 Q900.3438,20.3281 899.7344,20.1094 Q899.125,19.8906 898.5,19.8906 Q897.7344,19.8906 897.0938,20.2188 Q896.4688,20.5469 895.9688,21.2969 Q895.4844,22.0469 895.4844,23.0781 L895.4844,24.1719 Q895.4844,25.4063 896.375,26.2344 Q897.2656,27.0469 898.8594,27.0469 Q899.7969,27.0469 900.4531,26.7969 Q900.8438,26.6406 901.2656,26.2031 Q901.5313,25.9375 901.6719,25.8594 Q901.8281,25.7813 902.0313,25.7813 Q902.3594,25.7813 902.6094,26.0469 Q902.875,26.2969 902.875,26.6406 Q902.875,26.9844 902.5313,27.3906 Q902.0313,27.9688 901.2344,28.2969 Q900.1563,28.75 898.8594,28.75 Q897.3438,28.75 896.1406,28.125 Q895.1563,27.625 894.4688,26.5625 Q893.7813,25.4844 893.7813,24.2031 L893.7813,23.0469 Q893.7813,21.7188 894.3906,20.5781 Q895.0156,19.4219 896.1094,18.8125 Q897.2031,18.1875 898.4375,18.1875 Q899.1719,18.1875 899.8125,18.3594 Q900.4688,18.5156 901.0156,18.875 Z " fill="#000000"/><text fill="#000000" font-family="sans-serif" font-size="14" lengthAdjust="spacing" textLength="165" x="918.75" y="28.7285">ListMaintenanceController</text><line style="stroke:#181818;stroke-width:0.5;" x1="841" x2="1129" y1="39" y2="39"/><line style="stroke:#181818;stroke-width:0.5;" x1="841" x2="1129" y1="47" y2="47"/><ellipse cx="851" cy="61.3047" fill="#84BE84" rx="3" ry="3" style="stroke:#038048;stroke-width:1.0;"/><text fill="#000000" font-family="sans-serif" font-size="14" lengthAdjust="spacing" textLength="105" x="860" y="65.5332">getVehiclesList()</text><ellipse cx="851" cy="78.9141" fill="#84BE84" rx="3" ry="3" style="stroke:#038048;stroke-width:1.0;"/><text fill="#000000" font-family="sans-serif" font-size="14" lengthAdjust="spacing" textLength="264" x="860" y="83.1426">generateMaintenanceReport(vehiclesList)</text></g><!--class ListMaintenanceUI--><g id="elem_ListMaintenanceUI"><rect codeLine="54" fill="#F1F1F1" height="48" id="ListMaintenanceUI" rx="2.5" ry="2.5" style="stroke:#181818;stroke-width:0.5;" width="147" x="657.5" y="24.5"/><ellipse cx="672.5" cy="40.5" fill="#ADD1B2" rx="11" ry="11" style="stroke:#181818;stroke-width:1.0;"/><path d="M675.2656,36.375 Q675.4219,36.1563 675.6094,36.0469 Q675.7969,35.9375 676.0156,35.9375 Q676.3906,35.9375 676.625,36.2031 Q676.8594,36.4531 676.8594,37.0625 L676.8594,38.5156 Q676.8594,39.125 676.625,39.3906 Q676.3906,39.6563 676.0156,39.6563 Q675.6719,39.6563 675.4688,39.4531 Q675.2656,39.2656 675.1563,38.75 Q675.1094,38.3906 674.9219,38.2031 Q674.5938,37.8281 673.9844,37.6094 Q673.375,37.3906 672.75,37.3906 Q671.9844,37.3906 671.3438,37.7188 Q670.7188,38.0469 670.2188,38.7969 Q669.7344,39.5469 669.7344,40.5781 L669.7344,41.6719 Q669.7344,42.9063 670.625,43.7344 Q671.5156,44.5469 673.1094,44.5469 Q674.0469,44.5469 674.7031,44.2969 Q675.0938,44.1406 675.5156,43.7031 Q675.7813,43.4375 675.9219,43.3594 Q676.0781,43.2813 676.2813,43.2813 Q676.6094,43.2813 676.8594,43.5469 Q677.125,43.7969 677.125,44.1406 Q677.125,44.4844 676.7813,44.8906 Q676.2813,45.4688 675.4844,45.7969 Q674.4063,46.25 673.1094,46.25 Q671.5938,46.25 670.3906,45.625 Q669.4063,45.125 668.7188,44.0625 Q668.0313,42.9844 668.0313,41.7031 L668.0313,40.5469 Q668.0313,39.2188 668.6406,38.0781 Q669.2656,36.9219 670.3594,36.3125 Q671.4531,35.6875 672.6875,35.6875 Q673.4219,35.6875 674.0625,35.8594 Q674.7188,36.0156 675.2656,36.375 Z " fill="#000000"/><text fill="#000000" font-family="sans-serif" font-size="14" lengthAdjust="spacing" textLength="115" x="686.5" y="46.2285">ListMaintenanceUI</text><line style="stroke:#181818;stroke-width:0.5;" x1="658.5" x2="803.5" y1="56.5" y2="56.5"/><line style="stroke:#181818;stroke-width:0.5;" x1="658.5" x2="803.5" y1="64.5" y2="64.5"/></g><!--link VFM to ListMaintenanceUI--><g id="link_VFM_ListMaintenanceUI"><path codeLine="59" d="M622.68,48.5 C632.53,48.5 642.38,48.5 652.22,48.5 " fill="none" id="VFM-to-ListMaintenanceUI" style="stroke:#181818;stroke-width:1.0;"/><polygon fill="#181818" points="657.37,48.5,648.37,44.5,652.37,48.5,648.37,52.5,657.37,48.5" style="stroke:#181818;stroke-width:1.0;"/></g><!--link Repositories to Repositories--><g id="link_Repositories_Repositories"><path codeLine="61" d="M207.09,211.13 C227.43,212.86 242,218.15 242,227 C242,235.09 229.83,240.21 212.2,242.35 " fill="none" id="Repositories-to-Repositories" style="stroke:#181818;stroke-width:1.0;"/><polygon fill="#181818" points="207.09,242.87,216.4538,245.9227,212.0635,242.3555,215.6306,237.9651,207.09,242.87" style="stroke:#181818;stroke-width:1.0;"/><text fill="#000000" font-family="sans-serif" font-size="13" lengthAdjust="spacing" textLength="49" x="248" y="232.4951">instance</text></g><!--link ListMaintenanceUI to ListMaintenanceController--><g id="link_ListMaintenanceUI_ListMaintenanceController"><path codeLine="63" d="M804.92,48.5 C814.8,48.5 824.69,48.5 834.57,48.5 " fill="none" id="ListMaintenanceUI-to-ListMaintenanceController" style="stroke:#181818;stroke-width:1.0;stroke-dasharray:7.0,7.0;"/><polygon fill="#181818" points="839.74,48.5,830.74,44.5,834.74,48.5,830.74,52.5,839.74,48.5" style="stroke:#181818;stroke-width:1.0;"/></g><!--link ListMaintenanceController to Repositories--><g id="link_ListMaintenanceController_Repositories"><path codeLine="65" d="M839.85,86.3 C833.83,87.59 827.86,88.83 822,90 C593.23,135.51 530.71,117.45 303,168 C273.2,174.62 241.29,183.33 212.07,192 " fill="none" id="ListMaintenanceController-to-Repositories" style="stroke:#181818;stroke-width:1.0;stroke-dasharray:7.0,7.0;"/><polygon fill="#181818" points="207.02,193.5,216.7871,194.7665,211.8123,192.0737,214.5051,187.0989,207.02,193.5" style="stroke:#181818;stroke-width:1.0;"/><text fill="#000000" font-family="sans-serif" font-size="13" lengthAdjust="spacing" textLength="67" x="626" y="134.4951">repositories</text></g><!--link Repositories to VehicleRepository--><g id="link_Repositories_VehicleRepository"><path codeLine="67" d="M207.08,227 C243.26,227 279.44,227 315.62,227 " fill="none" id="Repositories-to-VehicleRepository" style="stroke:#181818;stroke-width:1.0;"/><polygon fill="#181818" points="320.96,227,311.96,223,315.96,227,311.96,231,320.96,227" style="stroke:#181818;stroke-width:1.0;"/><text fill="#000000" font-family="sans-serif" font-size="13" lengthAdjust="spacing" textLength="7" x="305.5803" y="224.3379">1</text></g><!--link ListMaintenanceController to VehicleRepository--><g id="link_ListMaintenanceController_VehicleRepository"><path codeLine="69" d="M926.18,90.21 C890.42,114.97 844.38,146.83 805.89,173.47 " fill="none" id="ListMaintenanceController-to-VehicleRepository" style="stroke:#181818;stroke-width:1.0;stroke-dasharray:7.0,7.0;"/><polygon fill="#181818" points="801.71,176.36,811.3882,174.5346,805.8235,173.5177,806.8405,167.953,801.71,176.36" style="stroke:#181818;stroke-width:1.0;"/><text fill="#000000" font-family="sans-serif" font-size="13" lengthAdjust="spacing" textLength="101" x="882" y="134.4951">vehicleRepository</text></g><!--link VehicleRepository to Vehicle--><g id="link_VehicleRepository_Vehicle"><path codeLine="71" d="M834.13,277.6 C875.93,297.51 925.79,321.25 974.88,344.63 " fill="none" id="VehicleRepository-to-Vehicle" style="stroke:#181818;stroke-width:1.0;"/><polygon fill="#181818" points="979.63,346.9,973.2148,339.427,975.1131,344.7559,969.7842,346.6541,979.63,346.9" style="stroke:#181818;stroke-width:1.0;"/><text fill="#000000" font-family="sans-serif" font-size="13" lengthAdjust="spacing" textLength="5" x="958.7036" y="336.2313">*</text></g><!--link Vehicle to Brand--><g id="link_Vehicle_Brand"><path codeLine="73" d="M1289,553.18 C1313.06,579.06 1337.67,605.53 1357.5,626.86 " fill="none" id="Vehicle-to-Brand" style="stroke:#181818;stroke-width:1.0;"/><polygon fill="#181818" points="1361.14,630.78,1357.9402,621.4654,1357.735,627.1186,1352.0819,626.9134,1361.14,630.78" style="stroke:#181818;stroke-width:1.0;"/><text fill="#000000" font-family="sans-serif" font-size="13" lengthAdjust="spacing" textLength="32" x="1333" y="597.4951">brand</text><text fill="#000000" font-family="sans-serif" font-size="13" lengthAdjust="spacing" textLength="7" x="1347.2898" y="620.0512">1</text></g><!--link Repositories to BrandRepository--><g id="link_Repositories_BrandRepository"><path codeLine="75" d="M207.05,170.32 C241.84,153.56 281.85,137.45 320.5,129 C498.09,90.19 966.28,70.82 1138.5,129 C1170.03,139.65 1199.94,161.48 1222.95,181.83 " fill="none" id="Repositories-to-BrandRepository" style="stroke:#181818;stroke-width:1.0;"/><polygon fill="#181818" points="1226.87,185.35,1222.8391,176.3638,1223.1472,182.0123,1217.4987,182.3204,1226.87,185.35" style="stroke:#181818;stroke-width:1.0;"/><text fill="#000000" font-family="sans-serif" font-size="13" lengthAdjust="spacing" textLength="7" x="1212.6438" y="174.6328">1</text></g><!--link ListMaintenanceController to Brand--><g id="link_ListMaintenanceController_Brand"><path codeLine="77" d="M1130.29,58.46 C1284.89,71.38 1514.61,101.47 1569,168 C1677.3,300.48 1648.17,401.31 1569,553 C1546.13,596.83 1498.83,627.75 1459.91,646.99 " fill="none" id="ListMaintenanceController-to-Brand" style="stroke:#181818;stroke-width:1.0;stroke-dasharray:7.0,7.0;"/><polygon fill="#181818" points="1455.21,649.28,1465.0532,648.9459,1459.7075,647.0955,1461.558,641.7498,1455.21,649.28" style="stroke:#181818;stroke-width:1.0;"/></g><!--link ListMaintenanceController to BrandRepository--><g id="link_ListMaintenanceController_BrandRepository"><path codeLine="78" d="M1050.05,90.21 C1094.33,117.93 1152.85,154.56 1197.95,182.79 " fill="none" id="ListMaintenanceController-to-BrandRepository" style="stroke:#181818;stroke-width:1.0;stroke-dasharray:7.0,7.0;"/><polygon fill="#181818" points="1202.28,185.49,1196.7754,177.323,1198.0424,182.8362,1192.5293,184.1032,1202.28,185.49" style="stroke:#181818;stroke-width:1.0;"/><text fill="#000000" font-family="sans-serif" font-size="13" lengthAdjust="spacing" textLength="94" x="1127" y="134.4951">brandRepository</text></g><!--link MaintenanceReport to Vehicle--><g id="link_MaintenanceReport_Vehicle"><path codeLine="80" d="M1432.43,260.14 C1404.43,282.31 1365.48,313.17 1327.17,343.51 " fill="none" id="MaintenanceReport-to-Vehicle" style="stroke:#181818;stroke-width:1.0;"/><polygon fill="#181818" points="1322.99,346.83,1332.5331,344.395,1326.9151,343.7327,1327.5774,338.1148,1322.99,346.83" style="stroke:#181818;stroke-width:1.0;"/></g><!--SRC=[bLDDJy8m6BxtLpISXWuJhnmu824X2Z4QyLosrz7OjRCjc8NutsttqNKhed9Q-puyNzkhtYalY2GvBaZoJZ9urYK3B27HX6SCa780jIUf-AGyms-4AN_2A0Uiom9m8LXfJmWbZ2Y5jyirFg4lTuGzJGpz2M7pc-0ZvUrJFNbaH4DpfOc4Lw3PNZSNcHHAzMwIWvJ0zNtUd4doSQ2AQYhueYFA2UKQEE49B2Ly780dPQjXJAFg-Rer5nbJSSzFx5c9VHUnqu-7ql5PrRWI77U5p2NXgQiZ5ocmraurYgghST3W4nJ2Y0bPDd- -Dgyieqg3xCNOMPAu9huGoi-4_njgt1Wu4aPJWzgkDbQylSv0DvRK1Y0rty-w8uc6NPm9PWYgaOeyohLDD2_haggK7fCdOFcaTWtBwhW0JIXJtH-SAWNbiFwbBxtYIjVUyRG76lZjeaHX5xsXy_5Wtg1d_avmBGLZ8FqosZOjs6Fc84tvGVJewC5_bdfPrNkAa5tPoIoS8zHhoK1wvoccJIy8XTmtiv-p1NWlzasW8lt20qkZsr6u8XS5Z4AuKzDsLNoI43QnYbTEqK7gWR5Ih_UqNiFpRWUVoczUA_XVCBqqkw58k27Miiln3G00]--></g></svg>