<?xml version="1.0" encoding="UTF-8" standalone="no"?><svg xmlns="http://www.w3.org/2000/svg" xmlns:xlink="http://www.w3.org/1999/xlink" contentStyleType="text/css" height="942px" preserveAspectRatio="none" style="width:1455px;height:942px;background:#FFFFFF;" version="1.1" viewBox="0 0 1455 942" width="1455px" zoomAndPan="magnify"><defs/><g><text fill="#000000" font-family="sans-serif" font-size="14" font-weight="bold" lengthAdjust="spacing" textLength="545" x="454.25" y="29.5332">System Sequence Diagram (SSD) - List Vehicles Needing Maintenance (US008)</text><rect fill="#FFFFFF" height="710.9922" style="stroke:#181818;stroke-width:1.0;" width="10" x="145" y="131.2188"/><rect fill="#FFFFFF" height="688.6406" style="stroke:#181818;stroke-width:1.0;" width="10" x="448" y="153.5703"/><rect fill="#FFFFFF" height="212.4609" style="stroke:#181818;stroke-width:1.0;" width="10" x="732" y="226.5313"/><rect fill="#FFFFFF" height="299.1641" style="stroke:#181818;stroke-width:1.0;" width="10" x="732" y="512.6953"/><rect fill="#FFFFFF" height="223.4609" style="stroke:#181818;stroke-width:1.0;" width="10" x="737" y="551.0469"/><rect fill="#FFFFFF" height="30.3516" style="stroke:#181818;stroke-width:1.0;" width="10" x="997" y="256.8828"/><rect fill="#FFFFFF" height="30.3516" style="stroke:#181818;stroke-width:1.0;" width="10" x="997" y="586.3984"/><rect fill="#FFFFFF" height="30.3516" style="stroke:#181818;stroke-width:1.0;" width="10" x="1104" y="317.5859"/><rect fill="#FFFFFF" height="30.3516" style="stroke:#181818;stroke-width:1.0;" width="10" x="1104" y="647.1016"/><rect fill="#FFFFFF" height="30.3516" style="stroke:#181818;stroke-width:1.0;" width="10" x="1227.5" y="378.2891"/><rect fill="#FFFFFF" height="30.3516" style="stroke:#181818;stroke-width:1.0;" width="10" x="1373.5" y="707.8047"/><line style="stroke:#181818;stroke-width:0.5;stroke-dasharray:5.0,5.0;" x1="150" x2="150" y1="121.2188" y2="860.2109"/><line style="stroke:#181818;stroke-width:0.5;stroke-dasharray:5.0,5.0;" x1="452.5" x2="452.5" y1="121.2188" y2="860.2109"/><line style="stroke:#181818;stroke-width:0.5;stroke-dasharray:5.0,5.0;" x1="736.5" x2="736.5" y1="192.875" y2="860.2109"/><line style="stroke:#181818;stroke-width:0.5;stroke-dasharray:5.0,5.0;" x1="1001.5" x2="1001.5" y1="121.2188" y2="860.2109"/><line style="stroke:#181818;stroke-width:0.5;stroke-dasharray:5.0,5.0;" x1="1108.5" x2="1108.5" y1="121.2188" y2="860.2109"/><line style="stroke:#181818;stroke-width:0.5;stroke-dasharray:5.0,5.0;" x1="1232.5" x2="1232.5" y1="121.2188" y2="860.2109"/><line style="stroke:#181818;stroke-width:0.5;stroke-dasharray:5.0,5.0;" x1="1378.5" x2="1378.5" y1="121.2188" y2="860.2109"/><text fill="#000000" font-family="sans-serif" font-size="14" lengthAdjust="spacing" textLength="284" x="5" y="118.1426">Vehicle and Equipment Fleet Manager (VFM)</text><ellipse cx="150" cy="52.1094" fill="#E3E3E3" rx="8" ry="8" style="stroke:#181818;stroke-width:0.5;"/><path d="M150,60.1094 L150,87.1094 M137,68.1094 L163,68.1094 M150,87.1094 L137,102.1094 M150,87.1094 L163,102.1094 " fill="none" style="stroke:#181818;stroke-width:0.5;"/><text fill="#000000" font-family="sans-serif" font-size="14" lengthAdjust="spacing" textLength="284" x="5" y="873.7441">Vehicle and Equipment Fleet Manager (VFM)</text><ellipse cx="150" cy="885.3203" fill="#E3E3E3" rx="8" ry="8" style="stroke:#181818;stroke-width:0.5;"/><path d="M150,893.3203 L150,920.3203 M137,901.3203 L163,901.3203 M150,920.3203 L137,935.3203 M150,920.3203 L163,935.3203 " fill="none" style="stroke:#181818;stroke-width:0.5;"/><rect fill="#E3E3E3" height="31.6094" rx="2.5" ry="2.5" style="stroke:#181818;stroke-width:0.5;" width="133" x="386.5" y="88.6094"/><text fill="#000000" font-family="sans-serif" font-size="14" lengthAdjust="spacing" textLength="119" x="393.5" y="110.1426">:ListMaintenanceUI</text><rect fill="#E3E3E3" height="31.6094" rx="2.5" ry="2.5" style="stroke:#181818;stroke-width:0.5;" width="133" x="386.5" y="859.2109"/><text fill="#000000" font-family="sans-serif" font-size="14" lengthAdjust="spacing" textLength="119" x="393.5" y="880.7441">:ListMaintenanceUI</text><rect fill="#E3E3E3" height="31.6094" rx="2.5" ry="2.5" style="stroke:#181818;stroke-width:0.5;" width="183" x="645.5" y="859.2109"/><text fill="#000000" font-family="sans-serif" font-size="14" lengthAdjust="spacing" textLength="169" x="652.5" y="880.7441">:ListMaintenanceController</text><rect fill="#E3E3E3" height="31.6094" rx="2.5" ry="2.5" style="stroke:#181818;stroke-width:0.5;" width="97" x="953.5" y="88.6094"/><text fill="#000000" font-family="sans-serif" font-size="14" lengthAdjust="spacing" textLength="83" x="960.5" y="110.1426">:Repositories</text><rect fill="#E3E3E3" height="31.6094" rx="2.5" ry="2.5" style="stroke:#181818;stroke-width:0.5;" width="97" x="953.5" y="859.2109"/><text fill="#000000" font-family="sans-serif" font-size="14" lengthAdjust="spacing" textLength="83" x="960.5" y="880.7441">:Repositories</text><rect fill="#E3E3E3" height="49.2188" rx="2.5" ry="2.5" style="stroke:#181818;stroke-width:0.5;" width="97" x="1060.5" y="71"/><text fill="#000000" font-family="sans-serif" font-size="14" lengthAdjust="spacing" textLength="74" x="1072" y="92.5332">repositories</text><text fill="#000000" font-family="sans-serif" font-size="14" lengthAdjust="spacing" textLength="83" x="1067.5" y="110.1426">:Repositories</text><rect fill="#E3E3E3" height="49.2188" rx="2.5" ry="2.5" style="stroke:#181818;stroke-width:0.5;" width="97" x="1060.5" y="859.2109"/><text fill="#000000" font-family="sans-serif" font-size="14" lengthAdjust="spacing" textLength="74" x="1072" y="880.7441">repositories</text><text fill="#000000" font-family="sans-serif" font-size="14" lengthAdjust="spacing" textLength="83" x="1067.5" y="898.3535">:Repositories</text><rect fill="#E3E3E3" height="49.2188" rx="2.5" ry="2.5" style="stroke:#181818;stroke-width:0.5;" width="130" x="1167.5" y="71"/><text fill="#000000" font-family="sans-serif" font-size="14" lengthAdjust="spacing" textLength="116" x="1174.5" y="92.5332">vehicleRepository:</text><text fill="#000000" font-family="sans-serif" font-size="14" lengthAdjust="spacing" textLength="114" x="1175.5" y="110.1426">VehicleRepository</text><rect fill="#E3E3E3" height="49.2188" rx="2.5" ry="2.5" style="stroke:#181818;stroke-width:0.5;" width="130" x="1167.5" y="859.2109"/><text fill="#000000" font-family="sans-serif" font-size="14" lengthAdjust="spacing" textLength="116" x="1174.5" y="880.7441">vehicleRepository:</text><text fill="#000000" font-family="sans-serif" font-size="14" lengthAdjust="spacing" textLength="114" x="1175.5" y="898.3535">VehicleRepository</text><rect fill="#E3E3E3" height="49.2188" rx="2.5" ry="2.5" style="stroke:#181818;stroke-width:0.5;" width="142" x="1307.5" y="71"/><text fill="#000000" font-family="sans-serif" font-size="14" lengthAdjust="spacing" textLength="124" x="1316.5" y="92.5332">maintenanceReport</text><text fill="#000000" font-family="sans-serif" font-size="14" lengthAdjust="spacing" textLength="128" x="1314.5" y="110.1426">:MaintenanceReport</text><rect fill="#E3E3E3" height="49.2188" rx="2.5" ry="2.5" style="stroke:#181818;stroke-width:0.5;" width="142" x="1307.5" y="859.2109"/><text fill="#000000" font-family="sans-serif" font-size="14" lengthAdjust="spacing" textLength="124" x="1316.5" y="880.7441">maintenanceReport</text><text fill="#000000" font-family="sans-serif" font-size="14" lengthAdjust="spacing" textLength="128" x="1314.5" y="898.3535">:MaintenanceReport</text><rect fill="#FFFFFF" height="710.9922" style="stroke:#181818;stroke-width:1.0;" width="10" x="145" y="131.2188"/><rect fill="#FFFFFF" height="688.6406" style="stroke:#181818;stroke-width:1.0;" width="10" x="448" y="153.5703"/><rect fill="#FFFFFF" height="212.4609" style="stroke:#181818;stroke-width:1.0;" width="10" x="732" y="226.5313"/><rect fill="#FFFFFF" height="299.1641" style="stroke:#181818;stroke-width:1.0;" width="10" x="732" y="512.6953"/><rect fill="#FFFFFF" height="223.4609" style="stroke:#181818;stroke-width:1.0;" width="10" x="737" y="551.0469"/><rect fill="#FFFFFF" height="30.3516" style="stroke:#181818;stroke-width:1.0;" width="10" x="997" y="256.8828"/><rect fill="#FFFFFF" height="30.3516" style="stroke:#181818;stroke-width:1.0;" width="10" x="997" y="586.3984"/><rect fill="#FFFFFF" height="30.3516" style="stroke:#181818;stroke-width:1.0;" width="10" x="1104" y="317.5859"/><rect fill="#FFFFFF" height="30.3516" style="stroke:#181818;stroke-width:1.0;" width="10" x="1104" y="647.1016"/><rect fill="#FFFFFF" height="30.3516" style="stroke:#181818;stroke-width:1.0;" width="10" x="1227.5" y="378.2891"/><rect fill="#FFFFFF" height="30.3516" style="stroke:#181818;stroke-width:1.0;" width="10" x="1373.5" y="707.8047"/><polygon fill="#181818" points="436,149.5703,446,153.5703,436,157.5703,440,153.5703" style="stroke:#181818;stroke-width:1.0;"/><line style="stroke:#181818;stroke-width:1.0;" x1="155" x2="442" y1="153.5703" y2="153.5703"/><text fill="#000000" font-family="sans-serif" font-size="13" font-weight="bold" lengthAdjust="spacing" textLength="7" x="162" y="148.7139">1</text><text fill="#000000" font-family="sans-serif" font-size="13" lengthAdjust="spacing" textLength="263" x="173" y="148.7139">requests to list vehicles needing maintenance</text><polygon fill="#181818" points="633.5,179.9219,643.5,183.9219,633.5,187.9219,637.5,183.9219" style="stroke:#181818;stroke-width:1.0;"/><line style="stroke:#181818;stroke-width:1.0;" x1="458" x2="639.5" y1="183.9219" y2="183.9219"/><text fill="#000000" font-family="sans-serif" font-size="13" font-weight="bold" lengthAdjust="spacing" textLength="7" x="465" y="179.0654">2</text><text fill="#000000" font-family="sans-serif" font-size="13" lengthAdjust="spacing" textLength="36" x="476" y="179.0654">create</text><rect fill="#E3E3E3" height="31.6094" rx="2.5" ry="2.5" style="stroke:#181818;stroke-width:0.5;" width="183" x="645.5" y="161.5703"/><text fill="#000000" font-family="sans-serif" font-size="14" lengthAdjust="spacing" textLength="169" x="652.5" y="183.1035">:ListMaintenanceController</text><polygon fill="#181818" points="720,222.5313,730,226.5313,720,230.5313,724,226.5313" style="stroke:#181818;stroke-width:1.0;"/><line style="stroke:#181818;stroke-width:1.0;" x1="458" x2="726" y1="226.5313" y2="226.5313"/><text fill="#000000" font-family="sans-serif" font-size="13" font-weight="bold" lengthAdjust="spacing" textLength="7" x="465" y="221.6748">3</text><text fill="#000000" font-family="sans-serif" font-size="13" lengthAdjust="spacing" textLength="97" x="476" y="221.6748">getVehiclesList()</text><polygon fill="#181818" points="985,252.8828,995,256.8828,985,260.8828,989,256.8828" style="stroke:#181818;stroke-width:1.0;"/><line style="stroke:#181818;stroke-width:1.0;" x1="742" x2="991" y1="256.8828" y2="256.8828"/><text fill="#000000" font-family="sans-serif" font-size="13" font-weight="bold" lengthAdjust="spacing" textLength="7" x="749" y="252.0264">4</text><text fill="#000000" font-family="sans-serif" font-size="13" lengthAdjust="spacing" textLength="75" x="760" y="252.0264">getInstance()</text><polygon fill="#181818" points="753,283.2344,743,287.2344,753,291.2344,749,287.2344" style="stroke:#181818;stroke-width:1.0;"/><line style="stroke:#181818;stroke-width:1.0;stroke-dasharray:2.0,2.0;" x1="747" x2="1001" y1="287.2344" y2="287.2344"/><text fill="#000000" font-family="sans-serif" font-size="13" font-weight="bold" lengthAdjust="spacing" textLength="7" x="759" y="282.3779">5</text><text fill="#000000" font-family="sans-serif" font-size="13" lengthAdjust="spacing" textLength="67" x="770" y="282.3779">repositories</text><polygon fill="#181818" points="1092,313.5859,1102,317.5859,1092,321.5859,1096,317.5859" style="stroke:#181818;stroke-width:1.0;"/><line style="stroke:#181818;stroke-width:1.0;" x1="742" x2="1098" y1="317.5859" y2="317.5859"/><text fill="#000000" font-family="sans-serif" font-size="13" font-weight="bold" lengthAdjust="spacing" textLength="7" x="749" y="312.7295">6</text><text fill="#000000" font-family="sans-serif" font-size="13" lengthAdjust="spacing" textLength="131" x="760" y="312.7295">getVehicleRepository()</text><polygon fill="#181818" points="753,343.9375,743,347.9375,753,351.9375,749,347.9375" style="stroke:#181818;stroke-width:1.0;"/><line style="stroke:#181818;stroke-width:1.0;stroke-dasharray:2.0,2.0;" x1="747" x2="1108" y1="347.9375" y2="347.9375"/><text fill="#000000" font-family="sans-serif" font-size="13" font-weight="bold" lengthAdjust="spacing" textLength="7" x="759" y="343.0811">7</text><text fill="#000000" font-family="sans-serif" font-size="13" lengthAdjust="spacing" textLength="105" x="770" y="343.0811">VehicleRepository</text><polygon fill="#181818" points="1215.5,374.2891,1225.5,378.2891,1215.5,382.2891,1219.5,378.2891" style="stroke:#181818;stroke-width:1.0;"/><line style="stroke:#181818;stroke-width:1.0;" x1="742" x2="1221.5" y1="378.2891" y2="378.2891"/><text fill="#000000" font-family="sans-serif" font-size="13" font-weight="bold" lengthAdjust="spacing" textLength="7" x="749" y="373.4326">8</text><text fill="#000000" font-family="sans-serif" font-size="13" lengthAdjust="spacing" textLength="97" x="760" y="373.4326">getVehiclesList()</text><polygon fill="#181818" points="753,404.6406,743,408.6406,753,412.6406,749,408.6406" style="stroke:#181818;stroke-width:1.0;"/><line style="stroke:#181818;stroke-width:1.0;stroke-dasharray:2.0,2.0;" x1="747" x2="1231.5" y1="408.6406" y2="408.6406"/><text fill="#000000" font-family="sans-serif" font-size="13" font-weight="bold" lengthAdjust="spacing" textLength="7" x="759" y="403.7842">9</text><text fill="#000000" font-family="sans-serif" font-size="13" lengthAdjust="spacing" textLength="60" x="770" y="403.7842">vehicleList</text><polygon fill="#181818" points="469,434.9922,459,438.9922,469,442.9922,465,438.9922" style="stroke:#181818;stroke-width:1.0;"/><line style="stroke:#181818;stroke-width:1.0;stroke-dasharray:2.0,2.0;" x1="463" x2="736" y1="438.9922" y2="438.9922"/><text fill="#000000" font-family="sans-serif" font-size="13" font-weight="bold" lengthAdjust="spacing" textLength="14" x="475" y="434.1357">10</text><text fill="#000000" font-family="sans-serif" font-size="13" lengthAdjust="spacing" textLength="60" x="493" y="434.1357">vehicleList</text><line style="stroke:#181818;stroke-width:1.0;stroke-dasharray:2.0,2.0;" x1="458" x2="500" y1="469.3438" y2="469.3438"/><line style="stroke:#181818;stroke-width:1.0;stroke-dasharray:2.0,2.0;" x1="500" x2="500" y1="469.3438" y2="482.3438"/><line style="stroke:#181818;stroke-width:1.0;stroke-dasharray:2.0,2.0;" x1="459" x2="500" y1="482.3438" y2="482.3438"/><polygon fill="#181818" points="469,478.3438,459,482.3438,469,486.3438,465,482.3438" style="stroke:#181818;stroke-width:1.0;"/><text fill="#000000" font-family="sans-serif" font-size="13" font-weight="bold" lengthAdjust="spacing" textLength="14" x="465" y="464.4873">11</text><text fill="#000000" font-family="sans-serif" font-size="13" lengthAdjust="spacing" textLength="92" x="483" y="464.4873">keep vehicleList</text><polygon fill="#181818" points="720,508.6953,730,512.6953,720,516.6953,724,512.6953" style="stroke:#181818;stroke-width:1.0;"/><line style="stroke:#181818;stroke-width:1.0;" x1="458" x2="726" y1="512.6953" y2="512.6953"/><text fill="#000000" font-family="sans-serif" font-size="13" font-weight="bold" lengthAdjust="spacing" textLength="14" x="465" y="507.8389">12</text><text fill="#000000" font-family="sans-serif" font-size="13" lengthAdjust="spacing" textLength="237" x="483" y="507.8389">generateMaintenanceReport(vehiclesList)</text><line style="stroke:#181818;stroke-width:1.0;" x1="742" x2="789" y1="538.0469" y2="538.0469"/><line style="stroke:#181818;stroke-width:1.0;" x1="789" x2="789" y1="538.0469" y2="551.0469"/><line style="stroke:#181818;stroke-width:1.0;" x1="748" x2="789" y1="551.0469" y2="551.0469"/><polygon fill="#181818" points="758,547.0469,748,551.0469,758,555.0469,754,551.0469" style="stroke:#181818;stroke-width:1.0;"/><text fill="#000000" font-family="sans-serif" font-size="13" font-weight="bold" lengthAdjust="spacing" textLength="14" x="754" y="533.1904">13</text><text fill="#000000" font-family="sans-serif" font-size="13" lengthAdjust="spacing" textLength="223" x="772" y="533.1904">createMaintenanceReport(vehiclesList)</text><polygon fill="#181818" points="985,582.3984,995,586.3984,985,590.3984,989,586.3984" style="stroke:#181818;stroke-width:1.0;"/><line style="stroke:#181818;stroke-width:1.0;" x1="747" x2="991" y1="586.3984" y2="586.3984"/><text fill="#000000" font-family="sans-serif" font-size="13" font-weight="bold" lengthAdjust="spacing" textLength="14" x="754" y="581.542">14</text><text fill="#000000" font-family="sans-serif" font-size="13" lengthAdjust="spacing" textLength="75" x="772" y="581.542">getInstance()</text><polygon fill="#181818" points="758,612.75,748,616.75,758,620.75,754,616.75" style="stroke:#181818;stroke-width:1.0;"/><line style="stroke:#181818;stroke-width:1.0;stroke-dasharray:2.0,2.0;" x1="752" x2="1001" y1="616.75" y2="616.75"/><text fill="#000000" font-family="sans-serif" font-size="13" font-weight="bold" lengthAdjust="spacing" textLength="14" x="764" y="611.8936">15</text><text fill="#000000" font-family="sans-serif" font-size="13" lengthAdjust="spacing" textLength="67" x="782" y="611.8936">repositories</text><polygon fill="#181818" points="1092,643.1016,1102,647.1016,1092,651.1016,1096,647.1016" style="stroke:#181818;stroke-width:1.0;"/><line style="stroke:#181818;stroke-width:1.0;" x1="747" x2="1098" y1="647.1016" y2="647.1016"/><text fill="#000000" font-family="sans-serif" font-size="13" font-weight="bold" lengthAdjust="spacing" textLength="14" x="754" y="642.2451">16</text><text fill="#000000" font-family="sans-serif" font-size="13" lengthAdjust="spacing" textLength="162" x="772" y="642.2451">getMaintenanceRepository()</text><polygon fill="#181818" points="758,673.4531,748,677.4531,758,681.4531,754,677.4531" style="stroke:#181818;stroke-width:1.0;"/><line style="stroke:#181818;stroke-width:1.0;stroke-dasharray:2.0,2.0;" x1="752" x2="1108" y1="677.4531" y2="677.4531"/><text fill="#000000" font-family="sans-serif" font-size="13" font-weight="bold" lengthAdjust="spacing" textLength="14" x="764" y="672.5967">17</text><text fill="#000000" font-family="sans-serif" font-size="13" lengthAdjust="spacing" textLength="136" x="782" y="672.5967">MaintenanceRepository</text><polygon fill="#181818" points="1361.5,703.8047,1371.5,707.8047,1361.5,711.8047,1365.5,707.8047" style="stroke:#181818;stroke-width:1.0;"/><line style="stroke:#181818;stroke-width:1.0;" x1="747" x2="1367.5" y1="707.8047" y2="707.8047"/><text fill="#000000" font-family="sans-serif" font-size="13" font-weight="bold" lengthAdjust="spacing" textLength="14" x="754" y="702.9482">18</text><text fill="#000000" font-family="sans-serif" font-size="13" lengthAdjust="spacing" textLength="223" x="772" y="702.9482">createMaintenanceReport(vehiclesList)</text><polygon fill="#181818" points="758,734.1563,748,738.1563,758,742.1563,754,738.1563" style="stroke:#181818;stroke-width:1.0;"/><line style="stroke:#181818;stroke-width:1.0;stroke-dasharray:2.0,2.0;" x1="752" x2="1377.5" y1="738.1563" y2="738.1563"/><text fill="#000000" font-family="sans-serif" font-size="13" font-weight="bold" lengthAdjust="spacing" textLength="14" x="764" y="733.2998">19</text><text fill="#000000" font-family="sans-serif" font-size="13" lengthAdjust="spacing" textLength="112" x="782" y="733.2998">maintenanceReport</text><line style="stroke:#181818;stroke-width:1.0;stroke-dasharray:2.0,2.0;" x1="747" x2="789" y1="773.5078" y2="773.5078"/><line style="stroke:#181818;stroke-width:1.0;stroke-dasharray:2.0,2.0;" x1="789" x2="789" y1="773.5078" y2="786.5078"/><line style="stroke:#181818;stroke-width:1.0;stroke-dasharray:2.0,2.0;" x1="742" x2="789" y1="786.5078" y2="786.5078"/><polygon fill="#181818" points="752,782.5078,742,786.5078,752,790.5078,748,786.5078" style="stroke:#181818;stroke-width:1.0;"/><text fill="#000000" font-family="sans-serif" font-size="13" font-weight="bold" lengthAdjust="spacing" textLength="14" x="754" y="768.6514">20</text><text fill="#000000" font-family="sans-serif" font-size="13" lengthAdjust="spacing" textLength="112" x="772" y="768.6514">maintenanceReport</text><polygon fill="#181818" points="469,807.8594,459,811.8594,469,815.8594,465,811.8594" style="stroke:#181818;stroke-width:1.0;"/><line style="stroke:#181818;stroke-width:1.0;stroke-dasharray:2.0,2.0;" x1="463" x2="736" y1="811.8594" y2="811.8594"/><text fill="#000000" font-family="sans-serif" font-size="13" font-weight="bold" lengthAdjust="spacing" textLength="14" x="475" y="807.0029">21</text><text fill="#000000" font-family="sans-serif" font-size="13" lengthAdjust="spacing" textLength="112" x="493" y="807.0029">maintenanceReport</text><polygon fill="#181818" points="161,838.2109,151,842.2109,161,846.2109,157,842.2109" style="stroke:#181818;stroke-width:1.0;"/><line style="stroke:#181818;stroke-width:1.0;stroke-dasharray:2.0,2.0;" x1="155" x2="452" y1="842.2109" y2="842.2109"/><text fill="#000000" font-family="sans-serif" font-size="13" font-weight="bold" lengthAdjust="spacing" textLength="14" x="167" y="837.3545">22</text><text fill="#000000" font-family="sans-serif" font-size="13" lengthAdjust="spacing" textLength="152" x="185" y="837.3545">shows maintenance report</text><!--SRC=[fPPBR-8m4CVl-HGZBWkLa7fSSLXfrOU41AjLKpZrueOfM2HsQXkwVFiTcxoC7GfjJf4pyvld7wEtN9HCiG8AAMIsKR90C6g7YMw-b2pRiZMcvf0ZACmC4-kyQw0tR2K_k5Z36yir9edXXapJWpPOG8hlEnGPmZrdQsi-JDFx4OnXnhM19MvubgE6FuWhYvWpBWmAPZs6Y_JszkSeITZEIB4hNb4boOyDNo6yIMbUvR-4PKOg65GOO6853-yxNXOe33pcY8Q8Wj9NC5m-paS3O1he9Q7K3SzuoSXkCB6vT28lfivkCJrlTYU5KJBFKJdpk-UdsOd34vPISqgHetOspS4XvRQDL9VleZeUBo84_9tzVlOzziVQM_BaHInFpuvrdvxweAAjp9eeG_7dfsSE59mcTX1ypmowvYP03xt0-1Sr4IQqDhG4scWm4d8xztqzTr7DlHFSUJSy6e8xi0-nY6ZxV7D3r4mXMSG-qySrcdgvxDY6eyQiGRk1DSVsSRx4Y8pfY9mARMoE7Po7ZCtNixHFZ3wkChUzQaVkkQxmyZ1r8NPTl6Qqddqbk0qBSdQWDibmbNeo3MbrQW7YxD2y5CFeGRuXVTpkHhLzDaHVtf-4E1PHhtUCrs7vUsQtj7RS8fQUTzyk2rH42dGtt7UwTTM6L-IZX2xbViB-ZeAkLz4tb7IjckAAEkbQL5KNA2kYhYZvN0LnSfroCDul3Tuh9N83nEeA8tTK6DmtvogyC62Zow_4w5DBhTP-s6TYjtVXXFueoG_TfRWDhJ0TXBtokZz5TAF-1m00]--></g></svg>