<?xml version="1.0" encoding="UTF-8" standalone="no"?><svg xmlns="http://www.w3.org/2000/svg" xmlns:xlink="http://www.w3.org/1999/xlink" contentStyleType="text/css" height="857px" preserveAspectRatio="none" style="width:940px;height:857px;background:#FFFFFF;" version="1.1" viewBox="0 0 940 857" width="940px" zoomAndPan="magnify"><defs/><g><!--class ListMaintenanceUI--><g id="elem_ListMaintenanceUI"><rect codeLine="5" fill="#F1F1F1" height="48" id="ListMaintenanceUI" rx="2.5" ry="2.5" style="stroke:#181818;stroke-width:0.5;" width="147" x="236.5" y="42"/><ellipse cx="251.5" cy="58" fill="#ADD1B2" rx="11" ry="11" style="stroke:#181818;stroke-width:1.0;"/><path d="M254.2656,53.875 Q254.4219,53.6563 254.6094,53.5469 Q254.7969,53.4375 255.0156,53.4375 Q255.3906,53.4375 255.625,53.7031 Q255.8594,53.9531 255.8594,54.5625 L255.8594,56.0156 Q255.8594,56.625 255.625,56.8906 Q255.3906,57.1563 255.0156,57.1563 Q254.6719,57.1563 254.4688,56.9531 Q254.2656,56.7656 254.1563,56.25 Q254.1094,55.8906 253.9219,55.7031 Q253.5938,55.3281 252.9844,55.1094 Q252.375,54.8906 251.75,54.8906 Q250.9844,54.8906 250.3438,55.2188 Q249.7188,55.5469 249.2188,56.2969 Q248.7344,57.0469 248.7344,58.0781 L248.7344,59.1719 Q248.7344,60.4063 249.625,61.2344 Q250.5156,62.0469 252.1094,62.0469 Q253.0469,62.0469 253.7031,61.7969 Q254.0938,61.6406 254.5156,61.2031 Q254.7813,60.9375 254.9219,60.8594 Q255.0781,60.7813 255.2813,60.7813 Q255.6094,60.7813 255.8594,61.0469 Q256.125,61.2969 256.125,61.6406 Q256.125,61.9844 255.7813,62.3906 Q255.2813,62.9688 254.4844,63.2969 Q253.4063,63.75 252.1094,63.75 Q250.5938,63.75 249.3906,63.125 Q248.4063,62.625 247.7188,61.5625 Q247.0313,60.4844 247.0313,59.2031 L247.0313,58.0469 Q247.0313,56.7188 247.6406,55.5781 Q248.2656,54.4219 249.3594,53.8125 Q250.4531,53.1875 251.6875,53.1875 Q252.4219,53.1875 253.0625,53.3594 Q253.7188,53.5156 254.2656,53.875 Z " fill="#000000"/><text fill="#000000" font-family="sans-serif" font-size="14" lengthAdjust="spacing" textLength="115" x="265.5" y="63.7285">ListMaintenanceUI</text><line style="stroke:#181818;stroke-width:0.5;" x1="237.5" x2="382.5" y1="74" y2="74"/><line style="stroke:#181818;stroke-width:0.5;" x1="237.5" x2="382.5" y1="82" y2="82"/></g><!--class ListMaintenanceController--><g id="elem_ListMaintenanceController"><rect codeLine="8" fill="#F1F1F1" height="118.4375" id="ListMaintenanceController" rx="2.5" ry="2.5" style="stroke:#181818;stroke-width:0.5;" width="514" x="419" y="7"/><ellipse cx="589.25" cy="23" fill="#ADD1B2" rx="11" ry="11" style="stroke:#181818;stroke-width:1.0;"/><path d="M592.0156,18.875 Q592.1719,18.6563 592.3594,18.5469 Q592.5469,18.4375 592.7656,18.4375 Q593.1406,18.4375 593.375,18.7031 Q593.6094,18.9531 593.6094,19.5625 L593.6094,21.0156 Q593.6094,21.625 593.375,21.8906 Q593.1406,22.1563 592.7656,22.1563 Q592.4219,22.1563 592.2188,21.9531 Q592.0156,21.7656 591.9063,21.25 Q591.8594,20.8906 591.6719,20.7031 Q591.3438,20.3281 590.7344,20.1094 Q590.125,19.8906 589.5,19.8906 Q588.7344,19.8906 588.0938,20.2188 Q587.4688,20.5469 586.9688,21.2969 Q586.4844,22.0469 586.4844,23.0781 L586.4844,24.1719 Q586.4844,25.4063 587.375,26.2344 Q588.2656,27.0469 589.8594,27.0469 Q590.7969,27.0469 591.4531,26.7969 Q591.8438,26.6406 592.2656,26.2031 Q592.5313,25.9375 592.6719,25.8594 Q592.8281,25.7813 593.0313,25.7813 Q593.3594,25.7813 593.6094,26.0469 Q593.875,26.2969 593.875,26.6406 Q593.875,26.9844 593.5313,27.3906 Q593.0313,27.9688 592.2344,28.2969 Q591.1563,28.75 589.8594,28.75 Q588.3438,28.75 587.1406,28.125 Q586.1563,27.625 585.4688,26.5625 Q584.7813,25.4844 584.7813,24.2031 L584.7813,23.0469 Q584.7813,21.7188 585.3906,20.5781 Q586.0156,19.4219 587.1094,18.8125 Q588.2031,18.1875 589.4375,18.1875 Q590.1719,18.1875 590.8125,18.3594 Q591.4688,18.5156 592.0156,18.875 Z " fill="#000000"/><text fill="#000000" font-family="sans-serif" font-size="14" lengthAdjust="spacing" textLength="165" x="609.75" y="28.7285">ListMaintenanceController</text><line style="stroke:#181818;stroke-width:0.5;" x1="420" x2="932" y1="39" y2="39"/><rect fill="none" height="6" style="stroke:#C82930;stroke-width:1.0;" width="6" x="427" y="50.3047"/><text fill="#000000" font-family="sans-serif" font-size="14" lengthAdjust="spacing" textLength="112" x="439" y="57.5332">vehicleList: List&lt;&gt;</text><rect fill="none" height="6" style="stroke:#C82930;stroke-width:1.0;" width="6" x="427" y="67.9141"/><text fill="#000000" font-family="sans-serif" font-size="14" lengthAdjust="spacing" textLength="256" x="439" y="75.1426">maintenanceReport: MaintenanceReport</text><line style="stroke:#181818;stroke-width:0.5;" x1="420" x2="932" y1="82.2188" y2="82.2188"/><ellipse cx="430" cy="96.5234" fill="#84BE84" rx="3" ry="3" style="stroke:#038048;stroke-width:1.0;"/><text fill="#000000" font-family="sans-serif" font-size="14" lengthAdjust="spacing" textLength="197" x="439" y="100.752">getVehiclesList(): List&lt;Vehicle&gt;</text><ellipse cx="430" cy="114.1328" fill="#84BE84" rx="3" ry="3" style="stroke:#038048;stroke-width:1.0;"/><text fill="#000000" font-family="sans-serif" font-size="14" lengthAdjust="spacing" textLength="488" x="439" y="118.3613">generateMaintenanceReport(vehiclesList: List&lt;Vehicle&gt;): MaintenanceReport</text></g><!--class Repositories--><g id="elem_Repositories"><rect codeLine="16" fill="#F1F1F1" height="100.8281" id="Repositories" rx="2.5" ry="2.5" style="stroke:#181818;stroke-width:0.5;" width="292" x="397" y="155"/><ellipse cx="499.25" cy="171" fill="#ADD1B2" rx="11" ry="11" style="stroke:#181818;stroke-width:1.0;"/><path d="M502.0156,166.875 Q502.1719,166.6563 502.3594,166.5469 Q502.5469,166.4375 502.7656,166.4375 Q503.1406,166.4375 503.375,166.7031 Q503.6094,166.9531 503.6094,167.5625 L503.6094,169.0156 Q503.6094,169.625 503.375,169.8906 Q503.1406,170.1563 502.7656,170.1563 Q502.4219,170.1563 502.2188,169.9531 Q502.0156,169.7656 501.9063,169.25 Q501.8594,168.8906 501.6719,168.7031 Q501.3438,168.3281 500.7344,168.1094 Q500.125,167.8906 499.5,167.8906 Q498.7344,167.8906 498.0938,168.2188 Q497.4688,168.5469 496.9688,169.2969 Q496.4844,170.0469 496.4844,171.0781 L496.4844,172.1719 Q496.4844,173.4063 497.375,174.2344 Q498.2656,175.0469 499.8594,175.0469 Q500.7969,175.0469 501.4531,174.7969 Q501.8438,174.6406 502.2656,174.2031 Q502.5313,173.9375 502.6719,173.8594 Q502.8281,173.7813 503.0313,173.7813 Q503.3594,173.7813 503.6094,174.0469 Q503.875,174.2969 503.875,174.6406 Q503.875,174.9844 503.5313,175.3906 Q503.0313,175.9688 502.2344,176.2969 Q501.1563,176.75 499.8594,176.75 Q498.3438,176.75 497.1406,176.125 Q496.1563,175.625 495.4688,174.5625 Q494.7813,173.4844 494.7813,172.2031 L494.7813,171.0469 Q494.7813,169.7188 495.3906,168.5781 Q496.0156,167.4219 497.1094,166.8125 Q498.2031,166.1875 499.4375,166.1875 Q500.1719,166.1875 500.8125,166.3594 Q501.4688,166.5156 502.0156,166.875 Z " fill="#000000"/><text fill="#000000" font-family="sans-serif" font-size="14" lengthAdjust="spacing" textLength="79" x="519.75" y="176.7285">Repositories</text><line style="stroke:#181818;stroke-width:0.5;" x1="398" x2="688" y1="187" y2="187"/><line style="stroke:#181818;stroke-width:0.5;" x1="398" x2="688" y1="195" y2="195"/><rect fill="#F24D5C" height="6" style="stroke:#C82930;stroke-width:1.0;" width="6" x="405" y="206.3047"/><text fill="#000000" font-family="sans-serif" font-size="14" lengthAdjust="spacing" textLength="89" x="417" y="213.5332">Repositories()</text><ellipse cx="408" cy="226.9141" fill="#84BE84" rx="3" ry="3" style="stroke:#038048;stroke-width:1.0;"/><text fill="#000000" font-family="sans-serif" font-size="14" lengthAdjust="spacing" textLength="170" x="417" y="231.1426">getInstance(): Repositories</text><ellipse cx="408" cy="244.5234" fill="#84BE84" rx="3" ry="3" style="stroke:#038048;stroke-width:1.0;"/><text fill="#000000" font-family="sans-serif" font-size="14" lengthAdjust="spacing" textLength="266" x="417" y="248.752">getVehicleRepository(): VehicleRepository</text></g><!--class VehicleRepository--><g id="elem_VehicleRepository"><rect codeLine="22" fill="#F1F1F1" height="136.0469" id="VehicleRepository" rx="2.5" ry="2.5" style="stroke:#181818;stroke-width:0.5;" width="467" x="442.5" y="286"/><ellipse cx="614.75" cy="302" fill="#ADD1B2" rx="11" ry="11" style="stroke:#181818;stroke-width:1.0;"/><path d="M617.5156,297.875 Q617.6719,297.6563 617.8594,297.5469 Q618.0469,297.4375 618.2656,297.4375 Q618.6406,297.4375 618.875,297.7031 Q619.1094,297.9531 619.1094,298.5625 L619.1094,300.0156 Q619.1094,300.625 618.875,300.8906 Q618.6406,301.1563 618.2656,301.1563 Q617.9219,301.1563 617.7188,300.9531 Q617.5156,300.7656 617.4063,300.25 Q617.3594,299.8906 617.1719,299.7031 Q616.8438,299.3281 616.2344,299.1094 Q615.625,298.8906 615,298.8906 Q614.2344,298.8906 613.5938,299.2188 Q612.9688,299.5469 612.4688,300.2969 Q611.9844,301.0469 611.9844,302.0781 L611.9844,303.1719 Q611.9844,304.4063 612.875,305.2344 Q613.7656,306.0469 615.3594,306.0469 Q616.2969,306.0469 616.9531,305.7969 Q617.3438,305.6406 617.7656,305.2031 Q618.0313,304.9375 618.1719,304.8594 Q618.3281,304.7813 618.5313,304.7813 Q618.8594,304.7813 619.1094,305.0469 Q619.375,305.2969 619.375,305.6406 Q619.375,305.9844 619.0313,306.3906 Q618.5313,306.9688 617.7344,307.2969 Q616.6563,307.75 615.3594,307.75 Q613.8438,307.75 612.6406,307.125 Q611.6563,306.625 610.9688,305.5625 Q610.2813,304.4844 610.2813,303.2031 L610.2813,302.0469 Q610.2813,300.7188 610.8906,299.5781 Q611.5156,298.4219 612.6094,297.8125 Q613.7031,297.1875 614.9375,297.1875 Q615.6719,297.1875 616.3125,297.3594 Q616.9688,297.5156 617.5156,297.875 Z " fill="#000000"/><text fill="#000000" font-family="sans-serif" font-size="14" lengthAdjust="spacing" textLength="114" x="635.25" y="307.7285">VehicleRepository</text><line style="stroke:#181818;stroke-width:0.5;" x1="443.5" x2="908.5" y1="318" y2="318"/><rect fill="none" height="6" style="stroke:#C82930;stroke-width:1.0;" width="6" x="450.5" y="329.3047"/><text fill="#000000" font-family="sans-serif" font-size="14" lengthAdjust="spacing" textLength="112" x="462.5" y="336.5332">vehicleList: List&lt;&gt;</text><rect fill="none" height="6" style="stroke:#C82930;stroke-width:1.0;" width="6" x="450.5" y="346.9141"/><text fill="#000000" font-family="sans-serif" font-size="14" lengthAdjust="spacing" textLength="256" x="462.5" y="354.1426">maintenanceReport: MaintenanceReport</text><line style="stroke:#181818;stroke-width:0.5;" x1="443.5" x2="908.5" y1="361.2188" y2="361.2188"/><ellipse cx="453.5" cy="375.5234" fill="#84BE84" rx="3" ry="3" style="stroke:#038048;stroke-width:1.0;"/><text fill="#000000" font-family="sans-serif" font-size="14" lengthAdjust="spacing" textLength="441" x="462.5" y="379.752">getVehiclesNeedingMaintenance(): List&lt;VehicleNeedingMaintenance&gt;</text><ellipse cx="453.5" cy="393.1328" fill="#84BE84" rx="3" ry="3" style="stroke:#038048;stroke-width:1.0;"/><text fill="#000000" font-family="sans-serif" font-size="14" lengthAdjust="spacing" textLength="307" x="462.5" y="397.3613">verifyExistedVehicles(vehiclesList: List&lt;Vehicle&gt;)</text><ellipse cx="453.5" cy="410.7422" fill="#84BE84" rx="3" ry="3" style="stroke:#038048;stroke-width:1.0;"/><text fill="#000000" font-family="sans-serif" font-size="14" lengthAdjust="spacing" textLength="339" x="462.5" y="414.9707">createMaintenanceReport(vehiclesList: List&lt;Vehicle&gt;)</text></g><!--class Vehicle--><g id="elem_Vehicle"><rect codeLine="31" fill="#F1F1F1" height="224.0938" id="Vehicle" rx="2.5" ry="2.5" style="stroke:#181818;stroke-width:0.5;" width="554" x="7" y="483"/><ellipse cx="256.75" cy="499" fill="#ADD1B2" rx="11" ry="11" style="stroke:#181818;stroke-width:1.0;"/><path d="M259.5156,494.875 Q259.6719,494.6563 259.8594,494.5469 Q260.0469,494.4375 260.2656,494.4375 Q260.6406,494.4375 260.875,494.7031 Q261.1094,494.9531 261.1094,495.5625 L261.1094,497.0156 Q261.1094,497.625 260.875,497.8906 Q260.6406,498.1563 260.2656,498.1563 Q259.9219,498.1563 259.7188,497.9531 Q259.5156,497.7656 259.4063,497.25 Q259.3594,496.8906 259.1719,496.7031 Q258.8438,496.3281 258.2344,496.1094 Q257.625,495.8906 257,495.8906 Q256.2344,495.8906 255.5938,496.2188 Q254.9688,496.5469 254.4688,497.2969 Q253.9844,498.0469 253.9844,499.0781 L253.9844,500.1719 Q253.9844,501.4063 254.875,502.2344 Q255.7656,503.0469 257.3594,503.0469 Q258.2969,503.0469 258.9531,502.7969 Q259.3438,502.6406 259.7656,502.2031 Q260.0313,501.9375 260.1719,501.8594 Q260.3281,501.7813 260.5313,501.7813 Q260.8594,501.7813 261.1094,502.0469 Q261.375,502.2969 261.375,502.6406 Q261.375,502.9844 261.0313,503.3906 Q260.5313,503.9688 259.7344,504.2969 Q258.6563,504.75 257.3594,504.75 Q255.8438,504.75 254.6406,504.125 Q253.6563,503.625 252.9688,502.5625 Q252.2813,501.4844 252.2813,500.2031 L252.2813,499.0469 Q252.2813,497.7188 252.8906,496.5781 Q253.5156,495.4219 254.6094,494.8125 Q255.7031,494.1875 256.9375,494.1875 Q257.6719,494.1875 258.3125,494.3594 Q258.9688,494.5156 259.5156,494.875 Z " fill="#000000"/><text fill="#000000" font-family="sans-serif" font-size="14" lengthAdjust="spacing" textLength="46" x="277.25" y="504.7285">Vehicle</text><line style="stroke:#181818;stroke-width:0.5;" x1="8" x2="560" y1="515" y2="515"/><rect fill="none" height="6" style="stroke:#C82930;stroke-width:1.0;" width="6" x="15" y="526.3047"/><text fill="#000000" font-family="sans-serif" font-size="14" lengthAdjust="spacing" textLength="63" x="27" y="533.5332">vin: String</text><rect fill="none" height="6" style="stroke:#C82930;stroke-width:1.0;" width="6" x="15" y="543.9141"/><text fill="#000000" font-family="sans-serif" font-size="14" lengthAdjust="spacing" textLength="121" x="27" y="551.1426">vehiclePlate: String</text><rect fill="none" height="6" style="stroke:#C82930;stroke-width:1.0;" width="6" x="15" y="561.5234"/><text fill="#000000" font-family="sans-serif" font-size="14" lengthAdjust="spacing" textLength="120" x="27" y="568.752">tareWeight: double</text><rect fill="none" height="6" style="stroke:#C82930;stroke-width:1.0;" width="6" x="15" y="579.1328"/><text fill="#000000" font-family="sans-serif" font-size="14" lengthAdjust="spacing" textLength="130" x="27" y="586.3613">grossWeight: double</text><rect fill="none" height="6" style="stroke:#C82930;stroke-width:1.0;" width="6" x="15" y="596.7422"/><text fill="#000000" font-family="sans-serif" font-size="14" lengthAdjust="spacing" textLength="116" x="27" y="603.9707">currentKm: double</text><rect fill="none" height="6" style="stroke:#C82930;stroke-width:1.0;" width="6" x="15" y="614.3516"/><text fill="#000000" font-family="sans-serif" font-size="14" lengthAdjust="spacing" textLength="135" x="27" y="621.5801">acquisitionDate: Date</text><rect fill="none" height="6" style="stroke:#C82930;stroke-width:1.0;" width="6" x="15" y="631.9609"/><text fill="#000000" font-family="sans-serif" font-size="14" lengthAdjust="spacing" textLength="172" x="27" y="639.1895">maintenanceFrequency: int</text><rect fill="none" height="6" style="stroke:#C82930;stroke-width:1.0;" width="6" x="15" y="649.5703"/><text fill="#000000" font-family="sans-serif" font-size="14" lengthAdjust="spacing" textLength="72" x="27" y="656.7988">type: String</text><line style="stroke:#181818;stroke-width:0.5;" x1="8" x2="560" y1="663.875" y2="663.875"/><ellipse cx="18" cy="686.9844" fill="#84BE84" rx="3" ry="3" style="stroke:#038048;stroke-width:1.0;"/><text fill="#000000" font-family="sans-serif" font-size="14" lengthAdjust="spacing" textLength="513" x="27" y="682.4082">Vehicle(vin: String, vehiclePlate: String, tareWeight: double, grossWeight: double,</text><text fill="#000000" font-family="sans-serif" font-size="14" lengthAdjust="spacing" textLength="524" x="31" y="700.0176">currentKm: double, acquisitionDate: Date, maintenanceFrequency: int, type: String)</text></g><!--class Brand--><g id="elem_Brand"><rect codeLine="44" fill="#F1F1F1" height="65.6094" id="Brand" rx="2.5" ry="2.5" style="stroke:#181818;stroke-width:0.5;" width="109" x="229.5" y="785"/><ellipse cx="262.05" cy="801" fill="#ADD1B2" rx="11" ry="11" style="stroke:#181818;stroke-width:1.0;"/><path d="M264.8156,796.875 Q264.9719,796.6563 265.1594,796.5469 Q265.3469,796.4375 265.5656,796.4375 Q265.9406,796.4375 266.175,796.7031 Q266.4094,796.9531 266.4094,797.5625 L266.4094,799.0156 Q266.4094,799.625 266.175,799.8906 Q265.9406,800.1563 265.5656,800.1563 Q265.2219,800.1563 265.0188,799.9531 Q264.8156,799.7656 264.7063,799.25 Q264.6594,798.8906 264.4719,798.7031 Q264.1438,798.3281 263.5344,798.1094 Q262.925,797.8906 262.3,797.8906 Q261.5344,797.8906 260.8938,798.2188 Q260.2688,798.5469 259.7688,799.2969 Q259.2844,800.0469 259.2844,801.0781 L259.2844,802.1719 Q259.2844,803.4063 260.175,804.2344 Q261.0656,805.0469 262.6594,805.0469 Q263.5969,805.0469 264.2531,804.7969 Q264.6438,804.6406 265.0656,804.2031 Q265.3313,803.9375 265.4719,803.8594 Q265.6281,803.7813 265.8313,803.7813 Q266.1594,803.7813 266.4094,804.0469 Q266.675,804.2969 266.675,804.6406 Q266.675,804.9844 266.3313,805.3906 Q265.8313,805.9688 265.0344,806.2969 Q263.9563,806.75 262.6594,806.75 Q261.1438,806.75 259.9406,806.125 Q258.9563,805.625 258.2688,804.5625 Q257.5813,803.4844 257.5813,802.2031 L257.5813,801.0469 Q257.5813,799.7188 258.1906,798.5781 Q258.8156,797.4219 259.9094,796.8125 Q261.0031,796.1875 262.2375,796.1875 Q262.9719,796.1875 263.6125,796.3594 Q264.2688,796.5156 264.8156,796.875 Z " fill="#000000"/><text fill="#000000" font-family="sans-serif" font-size="14" lengthAdjust="spacing" textLength="38" x="279.95" y="806.7285">Brand</text><line style="stroke:#181818;stroke-width:0.5;" x1="230.5" x2="337.5" y1="817" y2="817"/><rect fill="none" height="6" style="stroke:#C82930;stroke-width:1.0;" width="6" x="237.5" y="828.3047"/><text fill="#000000" font-family="sans-serif" font-size="14" lengthAdjust="spacing" textLength="83" x="249.5" y="835.5332">model: String</text><line style="stroke:#181818;stroke-width:0.5;" x1="230.5" x2="337.5" y1="842.6094" y2="842.6094"/></g><!--class MaintenanceReport--><g id="elem_MaintenanceReport"><rect codeLine="48" fill="#F1F1F1" height="83.2188" id="MaintenanceReport" rx="2.5" ry="2.5" style="stroke:#181818;stroke-width:0.5;" width="286" x="121" y="312.5"/><ellipse cx="197.75" cy="328.5" fill="#ADD1B2" rx="11" ry="11" style="stroke:#181818;stroke-width:1.0;"/><path d="M200.5156,324.375 Q200.6719,324.1563 200.8594,324.0469 Q201.0469,323.9375 201.2656,323.9375 Q201.6406,323.9375 201.875,324.2031 Q202.1094,324.4531 202.1094,325.0625 L202.1094,326.5156 Q202.1094,327.125 201.875,327.3906 Q201.6406,327.6563 201.2656,327.6563 Q200.9219,327.6563 200.7188,327.4531 Q200.5156,327.2656 200.4063,326.75 Q200.3594,326.3906 200.1719,326.2031 Q199.8438,325.8281 199.2344,325.6094 Q198.625,325.3906 198,325.3906 Q197.2344,325.3906 196.5938,325.7188 Q195.9688,326.0469 195.4688,326.7969 Q194.9844,327.5469 194.9844,328.5781 L194.9844,329.6719 Q194.9844,330.9063 195.875,331.7344 Q196.7656,332.5469 198.3594,332.5469 Q199.2969,332.5469 199.9531,332.2969 Q200.3438,332.1406 200.7656,331.7031 Q201.0313,331.4375 201.1719,331.3594 Q201.3281,331.2813 201.5313,331.2813 Q201.8594,331.2813 202.1094,331.5469 Q202.375,331.7969 202.375,332.1406 Q202.375,332.4844 202.0313,332.8906 Q201.5313,333.4688 200.7344,333.7969 Q199.6563,334.25 198.3594,334.25 Q196.8438,334.25 195.6406,333.625 Q194.6563,333.125 193.9688,332.0625 Q193.2813,330.9844 193.2813,329.7031 L193.2813,328.5469 Q193.2813,327.2188 193.8906,326.0781 Q194.5156,324.9219 195.6094,324.3125 Q196.7031,323.6875 197.9375,323.6875 Q198.6719,323.6875 199.3125,323.8594 Q199.9688,324.0156 200.5156,324.375 Z " fill="#000000"/><text fill="#000000" font-family="sans-serif" font-size="14" lengthAdjust="spacing" textLength="124" x="218.25" y="334.2285">MaintenanceReport</text><line style="stroke:#181818;stroke-width:0.5;" x1="122" x2="406" y1="344.5" y2="344.5"/><rect fill="none" height="6" style="stroke:#C82930;stroke-width:1.0;" width="6" x="129" y="355.8047"/><text fill="#000000" font-family="sans-serif" font-size="14" lengthAdjust="spacing" textLength="126" x="141" y="363.0332">reportDetails: String</text><line style="stroke:#181818;stroke-width:0.5;" x1="122" x2="406" y1="370.1094" y2="370.1094"/><ellipse cx="132" cy="384.4141" fill="#84BE84" rx="3" ry="3" style="stroke:#038048;stroke-width:1.0;"/><text fill="#000000" font-family="sans-serif" font-size="14" lengthAdjust="spacing" textLength="260" x="141" y="388.6426">MaintenanceReport(reportDetails: String)</text></g><!--link Repositories to Repositories--><g id="link_Repositories_Repositories"><path codeLine="56" d="M689.3,182.28 C710.06,186.04 724,193.78 724,205.5 C724,216.22 712.36,223.6 694.49,227.66 " fill="none" id="Repositories-to-Repositories" style="stroke:#181818;stroke-width:1.0;"/><polygon fill="#181818" points="689.3,228.72,698.9121,230.8665,694.2018,227.7339,697.3344,223.0236,689.3,228.72" style="stroke:#181818;stroke-width:1.0;"/><text fill="#000000" font-family="sans-serif" font-size="13" lengthAdjust="spacing" textLength="49" x="730" y="210.9951">instance</text></g><!--link ListMaintenanceUI to ListMaintenanceController--><g id="link_ListMaintenanceUI_ListMaintenanceController"><path codeLine="58" d="M383.63,66 C393.6,66 403.57,66 413.53,66 " fill="none" id="ListMaintenanceUI-to-ListMaintenanceController" style="stroke:#181818;stroke-width:1.0;stroke-dasharray:7.0,7.0;"/><polygon fill="#181818" points="418.75,66,409.75,62,413.75,66,409.75,70,418.75,66" style="stroke:#181818;stroke-width:1.0;"/></g><!--link ListMaintenanceController to Repositories--><g id="link_ListMaintenanceController_Repositories"><path codeLine="60" d="M619.6,125.31 C611.29,133.89 602.78,142.7 594.58,151.17 " fill="none" id="ListMaintenanceController-to-Repositories" style="stroke:#181818;stroke-width:1.0;stroke-dasharray:7.0,7.0;"/><polygon fill="#181818" points="591.09,154.78,600.2315,151.1148,594.5752,151.1948,594.4952,145.5385,591.09,154.78" style="stroke:#181818;stroke-width:1.0;"/><text fill="#000000" font-family="sans-serif" font-size="13" lengthAdjust="spacing" textLength="67" x="537.09" y="136.8051">repositories</text></g><!--link Repositories to VehicleRepository--><g id="link_Repositories_VehicleRepository"><path codeLine="62" d="M588.03,256.1 C595.61,264.45 603.61,273.26 611.57,282.03 " fill="none" id="Repositories-to-VehicleRepository" style="stroke:#181818;stroke-width:1.0;"/><polygon fill="#181818" points="614.98,285.79,611.8947,276.4369,611.6202,282.0871,605.97,281.8126,614.98,285.79" style="stroke:#181818;stroke-width:1.0;"/><text fill="#000000" font-family="sans-serif" font-size="13" lengthAdjust="spacing" textLength="7" x="600.9231" y="274.9663">1</text></g><!--link ListMaintenanceController to VehicleRepository--><g id="link_ListMaintenanceController_VehicleRepository"><path codeLine="64" d="M750.12,125.1 C757.75,134.26 764.39,144.28 769,155 C786.75,196.23 785.74,214.35 769,256 C765.44,264.86 760.64,273.36 755.09,281.4 " fill="none" id="ListMaintenanceController-to-VehicleRepository" style="stroke:#181818;stroke-width:1.0;stroke-dasharray:7.0,7.0;"/><polygon fill="#181818" points="751.93,285.82,760.421,280.8298,754.8402,281.7542,753.9158,276.1734,751.93,285.82" style="stroke:#181818;stroke-width:1.0;"/><text fill="#000000" font-family="sans-serif" font-size="13" lengthAdjust="spacing" textLength="101" x="782" y="210.9951">vehicleRepository</text></g><!--link VehicleRepository to Vehicle--><g id="link_VehicleRepository_Vehicle"><path codeLine="66" d="M566.02,422.05 C536.33,440.16 503.35,460.26 470.71,480.16 " fill="none" id="VehicleRepository-to-Vehicle" style="stroke:#181818;stroke-width:1.0;"/><polygon fill="#181818" points="466.32,482.84,476.0876,481.5773,470.591,480.2403,471.928,474.7437,466.32,482.84" style="stroke:#181818;stroke-width:1.0;"/><text fill="#000000" font-family="sans-serif" font-size="13" lengthAdjust="spacing" textLength="5" x="473.4017" y="472.2705">*</text></g><!--link Vehicle to Brand--><g id="link_Vehicle_Brand"><path codeLine="68" d="M284,707.15 C284,733.31 284,759.42 284,779.62 " fill="none" id="Vehicle-to-Brand" style="stroke:#181818;stroke-width:1.0;"/><polygon fill="#181818" points="284,784.62,288,775.62,284,779.62,280,775.62,284,784.62" style="stroke:#181818;stroke-width:1.0;"/><text fill="#000000" font-family="sans-serif" font-size="13" lengthAdjust="spacing" textLength="32" x="285" y="751.4951">brand</text><text fill="#000000" font-family="sans-serif" font-size="13" lengthAdjust="spacing" textLength="7" x="276.3109" y="774.0415">1</text></g><!--link MaintenanceReport to Vehicle--><g id="link_MaintenanceReport_Vehicle"><path codeLine="70" d="M267.39,395.54 C269.3,418.39 271.8,448.21 274.27,477.77 " fill="none" id="MaintenanceReport-to-Vehicle" style="stroke:#181818;stroke-width:1.0;"/><polygon fill="#181818" points="274.7,482.89,277.941,473.5897,274.286,477.9072,269.9685,474.2521,274.7,482.89" style="stroke:#181818;stroke-width:1.0;"/></g><!--SRC=[jLJ1RjGm4BtxAwoUiZHRYMk4zW05gO8YH0LSkBZED6lLQwTZxq9KyU_OITRhPBALE9138izxC_Dc9cFtg4mhKEnuA-IZQE3ETneuWlJ2D1gOImIt5RNzfKp37uHsEQAL0Uwx5dXhTHTFZ4ajdEEVbFEtGXaFHXW9tswUsPyps3jhF5gj0Vapu-5PymDibTGGYLLFVxCPaTt9xokq5WD-EpUnddl96_3VXq0knYXMOwpHk4aq0oWya3Z58VEU-QwMygOAuzafRr61IqNbnc9rqdXZd8z1ehwSGwf8O1Ufn7XAJw3_rzZF07NuCpBglCsKSMpy0L0zTEz_1pBKnu0lDdrqb0Z_F2_IdLDFbAdudSSWSjgbBpfacK5U8Fm0rMn3WjhkxyEY3423rhb5HEuHmVYFkvbToAUz2lDHrbptYUARJkC3mjCUZEmg7cn76M7dahAnAsDTHLPFkLXAkL15kLH0oNyQAhzSLbwU5rrEz6QZU8l2r6aGErk3JbKb4fbpSi3-U0rUAEqcWxgaNiKYknSJdid6hZVJ3Ov533lA6BdO-DNc_8r6-DbbTqMoOBxzHDB5wuk5fNyfGSX0huBg-4_aGIXj7JE-IXaJPG22b65s5R-FNyReb29nTFeB]--></g></svg>