<?xml version="1.0" encoding="UTF-8" standalone="no"?><svg xmlns="http://www.w3.org/2000/svg" xmlns:xlink="http://www.w3.org/1999/xlink" contentStyleType="text/css" height="594px" preserveAspectRatio="none" style="width:1274px;height:594px;background:#FFFFFF;" version="1.1" viewBox="0 0 1274 594" width="1274px" zoomAndPan="magnify"><defs/><g><rect fill="#FFFFFF" height="401.3359" style="stroke:#181818;stroke-width:1.0;" width="10" x="17.5" y="92.6094"/><rect fill="#FFFFFF" height="378.9844" style="stroke:#181818;stroke-width:1.0;" width="10" x="320.5" y="114.9609"/><rect fill="#FFFFFF" height="153.4297" style="stroke:#181818;stroke-width:1.0;" width="10" x="488.5" y="187.9219"/><rect fill="#FFFFFF" height="30.3516" style="stroke:#181818;stroke-width:1.0;" width="10" x="488.5" y="433.2422"/><rect fill="#FFFFFF" height="91.8906" style="stroke:#181818;stroke-width:1.0;" width="10" x="1027.5" y="341.3516"/><line style="stroke:#181818;stroke-width:0.5;stroke-dasharray:5.0,5.0;" x1="22" x2="22" y1="82.6094" y2="511.9453"/><line style="stroke:#181818;stroke-width:0.5;stroke-dasharray:5.0,5.0;" x1="325" x2="325" y1="82.6094" y2="511.9453"/><line style="stroke:#181818;stroke-width:0.5;stroke-dasharray:5.0,5.0;" x1="493" x2="493" y1="154.2656" y2="511.9453"/><line style="stroke:#181818;stroke-width:0.5;stroke-dasharray:5.0,5.0;" x1="643" x2="643" y1="82.6094" y2="511.9453"/><line style="stroke:#181818;stroke-width:0.5;stroke-dasharray:5.0,5.0;" x1="750" x2="750" y1="82.6094" y2="511.9453"/><line style="stroke:#181818;stroke-width:0.5;stroke-dasharray:5.0,5.0;" x1="874" x2="874" y1="82.6094" y2="511.9453"/><line style="stroke:#181818;stroke-width:0.5;stroke-dasharray:5.0,5.0;" x1="1032" x2="1032" y1="82.6094" y2="511.9453"/><line style="stroke:#181818;stroke-width:0.5;stroke-dasharray:5.0,5.0;" x1="1197" x2="1197" y1="82.6094" y2="511.9453"/><text fill="#000000" font-family="sans-serif" font-size="14" lengthAdjust="spacing" textLength="29" x="5" y="79.5332">VFM</text><ellipse cx="22.5" cy="13.5" fill="#E3E3E3" rx="8" ry="8" style="stroke:#181818;stroke-width:0.5;"/><path d="M22.5,21.5 L22.5,48.5 M9.5,29.5 L35.5,29.5 M22.5,48.5 L9.5,63.5 M22.5,48.5 L35.5,63.5 " fill="none" style="stroke:#181818;stroke-width:0.5;"/><text fill="#000000" font-family="sans-serif" font-size="14" lengthAdjust="spacing" textLength="29" x="5" y="525.4785">VFM</text><ellipse cx="22.5" cy="537.0547" fill="#E3E3E3" rx="8" ry="8" style="stroke:#181818;stroke-width:0.5;"/><path d="M22.5,545.0547 L22.5,572.0547 M9.5,553.0547 L35.5,553.0547 M22.5,572.0547 L9.5,587.0547 M22.5,572.0547 L35.5,587.0547 " fill="none" style="stroke:#181818;stroke-width:0.5;"/><rect fill="#E3E3E3" height="31.6094" rx="2.5" ry="2.5" style="stroke:#181818;stroke-width:0.5;" width="133" x="259" y="50"/><text fill="#000000" font-family="sans-serif" font-size="14" lengthAdjust="spacing" textLength="119" x="266" y="71.5332">:ListMaintenanceUI</text><rect fill="#E3E3E3" height="31.6094" rx="2.5" ry="2.5" style="stroke:#181818;stroke-width:0.5;" width="133" x="259" y="510.9453"/><text fill="#000000" font-family="sans-serif" font-size="14" lengthAdjust="spacing" textLength="119" x="266" y="532.4785">:ListMaintenanceUI</text><rect fill="#E3E3E3" height="31.6094" rx="2.5" ry="2.5" style="stroke:#181818;stroke-width:0.5;" width="183" x="402" y="510.9453"/><text fill="#000000" font-family="sans-serif" font-size="14" lengthAdjust="spacing" textLength="169" x="409" y="532.4785">:ListMaintenanceController</text><rect fill="#E3E3E3" height="31.6094" rx="2.5" ry="2.5" style="stroke:#181818;stroke-width:0.5;" width="97" x="595" y="50"/><text fill="#000000" font-family="sans-serif" font-size="14" lengthAdjust="spacing" textLength="83" x="602" y="71.5332">:Repositories</text><rect fill="#E3E3E3" height="31.6094" rx="2.5" ry="2.5" style="stroke:#181818;stroke-width:0.5;" width="97" x="595" y="510.9453"/><text fill="#000000" font-family="sans-serif" font-size="14" lengthAdjust="spacing" textLength="83" x="602" y="532.4785">:Repositories</text><rect fill="#E3E3E3" height="49.2188" rx="2.5" ry="2.5" style="stroke:#181818;stroke-width:0.5;" width="97" x="702" y="32.3906"/><text fill="#000000" font-family="sans-serif" font-size="14" lengthAdjust="spacing" textLength="74" x="713.5" y="53.9238">repositories</text><text fill="#000000" font-family="sans-serif" font-size="14" lengthAdjust="spacing" textLength="83" x="709" y="71.5332">:Repositories</text><rect fill="#E3E3E3" height="49.2188" rx="2.5" ry="2.5" style="stroke:#181818;stroke-width:0.5;" width="97" x="702" y="510.9453"/><text fill="#000000" font-family="sans-serif" font-size="14" lengthAdjust="spacing" textLength="74" x="713.5" y="532.4785">repositories</text><text fill="#000000" font-family="sans-serif" font-size="14" lengthAdjust="spacing" textLength="83" x="709" y="550.0879">:Repositories</text><rect fill="#E3E3E3" height="49.2188" rx="2.5" ry="2.5" style="stroke:#181818;stroke-width:0.5;" width="130" x="809" y="32.3906"/><text fill="#000000" font-family="sans-serif" font-size="14" lengthAdjust="spacing" textLength="116" x="816" y="53.9238">vehicleRepository:</text><text fill="#000000" font-family="sans-serif" font-size="14" lengthAdjust="spacing" textLength="114" x="817" y="71.5332">VehicleRepository</text><rect fill="#E3E3E3" height="49.2188" rx="2.5" ry="2.5" style="stroke:#181818;stroke-width:0.5;" width="130" x="809" y="510.9453"/><text fill="#000000" font-family="sans-serif" font-size="14" lengthAdjust="spacing" textLength="116" x="816" y="532.4785">vehicleRepository:</text><text fill="#000000" font-family="sans-serif" font-size="14" lengthAdjust="spacing" textLength="114" x="817" y="550.0879">VehicleRepository</text><rect fill="#E3E3E3" height="49.2188" rx="2.5" ry="2.5" style="stroke:#181818;stroke-width:0.5;" width="167" x="949" y="32.3906"/><text fill="#000000" font-family="sans-serif" font-size="14" lengthAdjust="spacing" textLength="153" x="956" y="53.9238">maintenanceRepository:</text><text fill="#000000" font-family="sans-serif" font-size="14" lengthAdjust="spacing" textLength="149" x="958" y="71.5332">MaintenanceRepository</text><rect fill="#E3E3E3" height="49.2188" rx="2.5" ry="2.5" style="stroke:#181818;stroke-width:0.5;" width="167" x="949" y="510.9453"/><text fill="#000000" font-family="sans-serif" font-size="14" lengthAdjust="spacing" textLength="153" x="956" y="532.4785">maintenanceRepository:</text><text fill="#000000" font-family="sans-serif" font-size="14" lengthAdjust="spacing" textLength="149" x="958" y="550.0879">MaintenanceRepository</text><rect fill="#E3E3E3" height="49.2188" rx="2.5" ry="2.5" style="stroke:#181818;stroke-width:0.5;" width="142" x="1126" y="32.3906"/><text fill="#000000" font-family="sans-serif" font-size="14" lengthAdjust="spacing" textLength="124" x="1135" y="53.9238">maintenanceReport</text><text fill="#000000" font-family="sans-serif" font-size="14" lengthAdjust="spacing" textLength="128" x="1133" y="71.5332">:MaintenanceReport</text><rect fill="#E3E3E3" height="49.2188" rx="2.5" ry="2.5" style="stroke:#181818;stroke-width:0.5;" width="142" x="1126" y="510.9453"/><text fill="#000000" font-family="sans-serif" font-size="14" lengthAdjust="spacing" textLength="124" x="1135" y="532.4785">maintenanceReport</text><text fill="#000000" font-family="sans-serif" font-size="14" lengthAdjust="spacing" textLength="128" x="1133" y="550.0879">:MaintenanceReport</text><rect fill="#FFFFFF" height="401.3359" style="stroke:#181818;stroke-width:1.0;" width="10" x="17.5" y="92.6094"/><rect fill="#FFFFFF" height="378.9844" style="stroke:#181818;stroke-width:1.0;" width="10" x="320.5" y="114.9609"/><rect fill="#FFFFFF" height="153.4297" style="stroke:#181818;stroke-width:1.0;" width="10" x="488.5" y="187.9219"/><rect fill="#FFFFFF" height="30.3516" style="stroke:#181818;stroke-width:1.0;" width="10" x="488.5" y="433.2422"/><rect fill="#FFFFFF" height="91.8906" style="stroke:#181818;stroke-width:1.0;" width="10" x="1027.5" y="341.3516"/><polygon fill="#181818" points="308.5,110.9609,318.5,114.9609,308.5,118.9609,312.5,114.9609" style="stroke:#181818;stroke-width:1.0;"/><line style="stroke:#181818;stroke-width:1.0;" x1="27.5" x2="314.5" y1="114.9609" y2="114.9609"/><text fill="#000000" font-family="sans-serif" font-size="13" font-weight="bold" lengthAdjust="spacing" textLength="7" x="34.5" y="110.1045">1</text><text fill="#000000" font-family="sans-serif" font-size="13" lengthAdjust="spacing" textLength="263" x="45.5" y="110.1045">requests to list vehicles needing maintenance</text><polygon fill="#181818" points="390,141.3125,400,145.3125,390,149.3125,394,145.3125" style="stroke:#181818;stroke-width:1.0;"/><line style="stroke:#181818;stroke-width:1.0;" x1="330.5" x2="396" y1="145.3125" y2="145.3125"/><text fill="#000000" font-family="sans-serif" font-size="13" font-weight="bold" lengthAdjust="spacing" textLength="7" x="337.5" y="140.4561">2</text><text fill="#000000" font-family="sans-serif" font-size="13" lengthAdjust="spacing" textLength="36" x="348.5" y="140.4561">create</text><rect fill="#E3E3E3" height="31.6094" rx="2.5" ry="2.5" style="stroke:#181818;stroke-width:0.5;" width="183" x="402" y="122.9609"/><text fill="#000000" font-family="sans-serif" font-size="14" lengthAdjust="spacing" textLength="169" x="409" y="144.4941">:ListMaintenanceController</text><polygon fill="#181818" points="476.5,183.9219,486.5,187.9219,476.5,191.9219,480.5,187.9219" style="stroke:#181818;stroke-width:1.0;"/><line style="stroke:#181818;stroke-width:1.0;" x1="330.5" x2="482.5" y1="187.9219" y2="187.9219"/><text fill="#000000" font-family="sans-serif" font-size="13" font-weight="bold" lengthAdjust="spacing" textLength="7" x="337.5" y="183.0654">3</text><text fill="#000000" font-family="sans-serif" font-size="13" lengthAdjust="spacing" textLength="90" x="348.5" y="183.0654">get Vehicle List</text><rect fill="none" height="56.5391" style="stroke:#000000;stroke-width:1.5;" width="189" x="399" y="195.9219"/><path d="M399,195.9219 L461,195.9219 L461,203.9219 L451,213.9219 L399,213.9219 L399,195.9219 " fill="#EEEEEE" style="stroke:#000000;stroke-width:2.0;"/><text fill="#000000" font-family="sans-serif" font-size="13" font-weight="bold" lengthAdjust="spacing" textLength="17" x="412" y="211.417">ref</text><text fill="#000000" font-family="sans-serif" font-size="12" lengthAdjust="spacing" textLength="85" x="451" y="230.3789">Get Vehicle List</text><text fill="#000000" font-family="sans-serif" font-size="12" lengthAdjust="spacing" textLength="3" x="492" y="245.4727"> </text><rect fill="none" height="56.5391" style="stroke:#000000;stroke-width:1.5;" width="189" x="399" y="257.4609"/><path d="M399,257.4609 L461,257.4609 L461,265.4609 L451,275.4609 L399,275.4609 L399,257.4609 " fill="#EEEEEE" style="stroke:#000000;stroke-width:2.0;"/><text fill="#000000" font-family="sans-serif" font-size="13" font-weight="bold" lengthAdjust="spacing" textLength="17" x="412" y="272.9561">ref</text><text fill="#000000" font-family="sans-serif" font-size="12" lengthAdjust="spacing" textLength="154" x="416.5" y="291.918">Get Maintenance Repository</text><text fill="#000000" font-family="sans-serif" font-size="12" lengthAdjust="spacing" textLength="3" x="492" y="307.0117"> </text><polygon fill="#181818" points="1015.5,337.3516,1025.5,341.3516,1015.5,345.3516,1019.5,341.3516" style="stroke:#181818;stroke-width:1.0;"/><line style="stroke:#181818;stroke-width:1.0;" x1="493.5" x2="1021.5" y1="341.3516" y2="341.3516"/><text fill="#000000" font-family="sans-serif" font-size="13" font-weight="bold" lengthAdjust="spacing" textLength="7" x="500.5" y="336.4951">4</text><text fill="#000000" font-family="sans-serif" font-size="13" lengthAdjust="spacing" textLength="223" x="511.5" y="336.4951">createMaintenanceReport(vehiclesList)</text><rect fill="none" height="56.5391" style="stroke:#000000;stroke-width:1.5;" width="173" x="946" y="349.3516"/><path d="M946,349.3516 L1008,349.3516 L1008,357.3516 L998,367.3516 L946,367.3516 L946,349.3516 " fill="#EEEEEE" style="stroke:#000000;stroke-width:2.0;"/><text fill="#000000" font-family="sans-serif" font-size="13" font-weight="bold" lengthAdjust="spacing" textLength="17" x="959" y="364.8467">ref</text><text fill="#000000" font-family="sans-serif" font-size="12" lengthAdjust="spacing" textLength="150" x="957.5" y="383.8086">Create Maintenance Report</text><text fill="#000000" font-family="sans-serif" font-size="12" lengthAdjust="spacing" textLength="3" x="1031" y="398.9023"> </text><polygon fill="#181818" points="509.5,429.2422,499.5,433.2422,509.5,437.2422,505.5,433.2422" style="stroke:#181818;stroke-width:1.0;"/><line style="stroke:#181818;stroke-width:1.0;stroke-dasharray:2.0,2.0;" x1="503.5" x2="1031.5" y1="433.2422" y2="433.2422"/><text fill="#000000" font-family="sans-serif" font-size="13" font-weight="bold" lengthAdjust="spacing" textLength="7" x="515.5" y="428.3857">5</text><text fill="#000000" font-family="sans-serif" font-size="13" lengthAdjust="spacing" textLength="116" x="526.5" y="428.3857">maintenance Report</text><polygon fill="#181818" points="341.5,459.5938,331.5,463.5938,341.5,467.5938,337.5,463.5938" style="stroke:#181818;stroke-width:1.0;"/><line style="stroke:#181818;stroke-width:1.0;stroke-dasharray:2.0,2.0;" x1="335.5" x2="492.5" y1="463.5938" y2="463.5938"/><text fill="#000000" font-family="sans-serif" font-size="13" font-weight="bold" lengthAdjust="spacing" textLength="7" x="347.5" y="458.7373">6</text><text fill="#000000" font-family="sans-serif" font-size="13" lengthAdjust="spacing" textLength="116" x="358.5" y="458.7373">maintenance Report</text><polygon fill="#181818" points="33.5,489.9453,23.5,493.9453,33.5,497.9453,29.5,493.9453" style="stroke:#181818;stroke-width:1.0;"/><line style="stroke:#181818;stroke-width:1.0;stroke-dasharray:2.0,2.0;" x1="27.5" x2="324.5" y1="493.9453" y2="493.9453"/><text fill="#000000" font-family="sans-serif" font-size="13" font-weight="bold" lengthAdjust="spacing" textLength="7" x="39.5" y="489.0889">7</text><text fill="#000000" font-family="sans-serif" font-size="13" lengthAdjust="spacing" textLength="235" x="50.5" y="489.0889">shows list vehicles needing maintenance</text><!--SRC=[hLJ9Ri8m4BtxAqPSsYBn0pbKgf1Q8O5KiPsuc6G0YyIczW3bxpis9MHJA6rzWSponlFUZDrMwPsqCeFCQ1DlhCaGoEvHkDopa_5Mhd52fnJ1OanIhzDYWDl8n1oLNiDAfWw5a7ioUfyjqGhni549mieOMffF8MCo5Zhprr47f0F-5On1AbOxgGawqL0v6acb2RNKCSu68MusQ0_h6qtMf2dQ4DwVZeULX37kZ5DSNA4BCRdXD56-7xvnESKMCXQw3l0-V9cMCmwuKN6AL-HeeUTLsxdlghKCb5qxAu6Dckm1iD7J2cg9cnfLRKrWbeJNJHqaOL1C01_-0xrdLWOY7egFFJfoG0PILWQ-cN2W4HC_68NY8Jl7OsM3mH_6OaGlNhVBgB55ZcXoitEDT64H_33aKJbo68BSR745ve3sR8OxpbkrqbtP_g1EVFt_kan1di8K_-5QjSp0CNFTE5MvChKnURp8xcbwgg4cMDQcwi-zpSDSPwyvxXuA-g6H6gFs5oAtqDbCO-ywp5czVWjvD-XfMOAhjfVDlL6vAbbf5nd3Fm8Hl__cw7wu-0L4l_g5J_-oV040]--></g></svg>