<?xml version="1.0" encoding="UTF-8" standalone="no"?><svg xmlns="http://www.w3.org/2000/svg" xmlns:xlink="http://www.w3.org/1999/xlink" contentStyleType="text/css" height="679px" preserveAspectRatio="none" style="width:1496px;height:679px;background:#FFFFFF;" version="1.1" viewBox="0 0 1496 679" width="1496px" zoomAndPan="magnify"><defs/><g><rect fill="#FFFFFF" height="487.2031" style="stroke:#181818;stroke-width:1.0;" width="10" x="145" y="92.6094"/><rect fill="#FFFFFF" height="464.8516" style="stroke:#181818;stroke-width:1.0;" width="10" x="448" y="114.9609"/><rect fill="#FFFFFF" height="91.8906" style="stroke:#181818;stroke-width:1.0;" width="10" x="711" y="187.9219"/><rect fill="#FFFFFF" height="195.9453" style="stroke:#181818;stroke-width:1.0;" width="10" x="711" y="353.5156"/><rect fill="#FFFFFF" height="91.8906" style="stroke:#181818;stroke-width:1.0;" width="10" x="1250" y="383.8672"/><line style="stroke:#181818;stroke-width:0.5;stroke-dasharray:5.0,5.0;" x1="150" x2="150" y1="82.6094" y2="597.8125"/><line style="stroke:#181818;stroke-width:0.5;stroke-dasharray:5.0,5.0;" x1="452.5" x2="452.5" y1="82.6094" y2="597.8125"/><line style="stroke:#181818;stroke-width:0.5;stroke-dasharray:5.0,5.0;" x1="715.5" x2="715.5" y1="154.2656" y2="597.8125"/><line style="stroke:#181818;stroke-width:0.5;stroke-dasharray:5.0,5.0;" x1="865.5" x2="865.5" y1="82.6094" y2="597.8125"/><line style="stroke:#181818;stroke-width:0.5;stroke-dasharray:5.0,5.0;" x1="972.5" x2="972.5" y1="82.6094" y2="597.8125"/><line style="stroke:#181818;stroke-width:0.5;stroke-dasharray:5.0,5.0;" x1="1096.5" x2="1096.5" y1="82.6094" y2="597.8125"/><line style="stroke:#181818;stroke-width:0.5;stroke-dasharray:5.0,5.0;" x1="1254.5" x2="1254.5" y1="82.6094" y2="597.8125"/><line style="stroke:#181818;stroke-width:0.5;stroke-dasharray:5.0,5.0;" x1="1419.5" x2="1419.5" y1="82.6094" y2="597.8125"/><text fill="#000000" font-family="sans-serif" font-size="14" lengthAdjust="spacing" textLength="284" x="5" y="79.5332">Vehicle and Equipment Fleet Manager (VFM)</text><ellipse cx="150" cy="13.5" fill="#E3E3E3" rx="8" ry="8" style="stroke:#181818;stroke-width:0.5;"/><path d="M150,21.5 L150,48.5 M137,29.5 L163,29.5 M150,48.5 L137,63.5 M150,48.5 L163,63.5 " fill="none" style="stroke:#181818;stroke-width:0.5;"/><text fill="#000000" font-family="sans-serif" font-size="14" lengthAdjust="spacing" textLength="284" x="5" y="611.3457">Vehicle and Equipment Fleet Manager (VFM)</text><ellipse cx="150" cy="622.9219" fill="#E3E3E3" rx="8" ry="8" style="stroke:#181818;stroke-width:0.5;"/><path d="M150,630.9219 L150,657.9219 M137,638.9219 L163,638.9219 M150,657.9219 L137,672.9219 M150,657.9219 L163,672.9219 " fill="none" style="stroke:#181818;stroke-width:0.5;"/><rect fill="#E3E3E3" height="31.6094" rx="2.5" ry="2.5" style="stroke:#181818;stroke-width:0.5;" width="133" x="386.5" y="50"/><text fill="#000000" font-family="sans-serif" font-size="14" lengthAdjust="spacing" textLength="119" x="393.5" y="71.5332">:ListMaintenanceUI</text><rect fill="#E3E3E3" height="31.6094" rx="2.5" ry="2.5" style="stroke:#181818;stroke-width:0.5;" width="133" x="386.5" y="596.8125"/><text fill="#000000" font-family="sans-serif" font-size="14" lengthAdjust="spacing" textLength="119" x="393.5" y="618.3457">:ListMaintenanceUI</text><rect fill="#E3E3E3" height="31.6094" rx="2.5" ry="2.5" style="stroke:#181818;stroke-width:0.5;" width="183" x="624.5" y="596.8125"/><text fill="#000000" font-family="sans-serif" font-size="14" lengthAdjust="spacing" textLength="169" x="631.5" y="618.3457">:ListMaintenanceController</text><rect fill="#E3E3E3" height="31.6094" rx="2.5" ry="2.5" style="stroke:#181818;stroke-width:0.5;" width="97" x="817.5" y="50"/><text fill="#000000" font-family="sans-serif" font-size="14" lengthAdjust="spacing" textLength="83" x="824.5" y="71.5332">:Repositories</text><rect fill="#E3E3E3" height="31.6094" rx="2.5" ry="2.5" style="stroke:#181818;stroke-width:0.5;" width="97" x="817.5" y="596.8125"/><text fill="#000000" font-family="sans-serif" font-size="14" lengthAdjust="spacing" textLength="83" x="824.5" y="618.3457">:Repositories</text><rect fill="#E3E3E3" height="49.2188" rx="2.5" ry="2.5" style="stroke:#181818;stroke-width:0.5;" width="97" x="924.5" y="32.3906"/><text fill="#000000" font-family="sans-serif" font-size="14" lengthAdjust="spacing" textLength="74" x="936" y="53.9238">repositories</text><text fill="#000000" font-family="sans-serif" font-size="14" lengthAdjust="spacing" textLength="83" x="931.5" y="71.5332">:Repositories</text><rect fill="#E3E3E3" height="49.2188" rx="2.5" ry="2.5" style="stroke:#181818;stroke-width:0.5;" width="97" x="924.5" y="596.8125"/><text fill="#000000" font-family="sans-serif" font-size="14" lengthAdjust="spacing" textLength="74" x="936" y="618.3457">repositories</text><text fill="#000000" font-family="sans-serif" font-size="14" lengthAdjust="spacing" textLength="83" x="931.5" y="635.9551">:Repositories</text><rect fill="#E3E3E3" height="49.2188" rx="2.5" ry="2.5" style="stroke:#181818;stroke-width:0.5;" width="130" x="1031.5" y="32.3906"/><text fill="#000000" font-family="sans-serif" font-size="14" lengthAdjust="spacing" textLength="116" x="1038.5" y="53.9238">vehicleRepository:</text><text fill="#000000" font-family="sans-serif" font-size="14" lengthAdjust="spacing" textLength="114" x="1039.5" y="71.5332">VehicleRepository</text><rect fill="#E3E3E3" height="49.2188" rx="2.5" ry="2.5" style="stroke:#181818;stroke-width:0.5;" width="130" x="1031.5" y="596.8125"/><text fill="#000000" font-family="sans-serif" font-size="14" lengthAdjust="spacing" textLength="116" x="1038.5" y="618.3457">vehicleRepository:</text><text fill="#000000" font-family="sans-serif" font-size="14" lengthAdjust="spacing" textLength="114" x="1039.5" y="635.9551">VehicleRepository</text><rect fill="#E3E3E3" height="49.2188" rx="2.5" ry="2.5" style="stroke:#181818;stroke-width:0.5;" width="167" x="1171.5" y="32.3906"/><text fill="#000000" font-family="sans-serif" font-size="14" lengthAdjust="spacing" textLength="153" x="1178.5" y="53.9238">maintenanceRepository:</text><text fill="#000000" font-family="sans-serif" font-size="14" lengthAdjust="spacing" textLength="149" x="1180.5" y="71.5332">MaintenanceRepository</text><rect fill="#E3E3E3" height="49.2188" rx="2.5" ry="2.5" style="stroke:#181818;stroke-width:0.5;" width="167" x="1171.5" y="596.8125"/><text fill="#000000" font-family="sans-serif" font-size="14" lengthAdjust="spacing" textLength="153" x="1178.5" y="618.3457">maintenanceRepository:</text><text fill="#000000" font-family="sans-serif" font-size="14" lengthAdjust="spacing" textLength="149" x="1180.5" y="635.9551">MaintenanceRepository</text><rect fill="#E3E3E3" height="49.2188" rx="2.5" ry="2.5" style="stroke:#181818;stroke-width:0.5;" width="142" x="1348.5" y="32.3906"/><text fill="#000000" font-family="sans-serif" font-size="14" lengthAdjust="spacing" textLength="124" x="1357.5" y="53.9238">maintenanceReport</text><text fill="#000000" font-family="sans-serif" font-size="14" lengthAdjust="spacing" textLength="128" x="1355.5" y="71.5332">:MaintenanceReport</text><rect fill="#E3E3E3" height="49.2188" rx="2.5" ry="2.5" style="stroke:#181818;stroke-width:0.5;" width="142" x="1348.5" y="596.8125"/><text fill="#000000" font-family="sans-serif" font-size="14" lengthAdjust="spacing" textLength="124" x="1357.5" y="618.3457">maintenanceReport</text><text fill="#000000" font-family="sans-serif" font-size="14" lengthAdjust="spacing" textLength="128" x="1355.5" y="635.9551">:MaintenanceReport</text><rect fill="#FFFFFF" height="487.2031" style="stroke:#181818;stroke-width:1.0;" width="10" x="145" y="92.6094"/><rect fill="#FFFFFF" height="464.8516" style="stroke:#181818;stroke-width:1.0;" width="10" x="448" y="114.9609"/><rect fill="#FFFFFF" height="91.8906" style="stroke:#181818;stroke-width:1.0;" width="10" x="711" y="187.9219"/><rect fill="#FFFFFF" height="195.9453" style="stroke:#181818;stroke-width:1.0;" width="10" x="711" y="353.5156"/><rect fill="#FFFFFF" height="91.8906" style="stroke:#181818;stroke-width:1.0;" width="10" x="1250" y="383.8672"/><polygon fill="#181818" points="436,110.9609,446,114.9609,436,118.9609,440,114.9609" style="stroke:#181818;stroke-width:1.0;"/><line style="stroke:#181818;stroke-width:1.0;" x1="155" x2="442" y1="114.9609" y2="114.9609"/><text fill="#000000" font-family="sans-serif" font-size="13" font-weight="bold" lengthAdjust="spacing" textLength="7" x="162" y="110.1045">1</text><text fill="#000000" font-family="sans-serif" font-size="13" lengthAdjust="spacing" textLength="263" x="173" y="110.1045">requests to list vehicles needing maintenance</text><polygon fill="#181818" points="612.5,141.3125,622.5,145.3125,612.5,149.3125,616.5,145.3125" style="stroke:#181818;stroke-width:1.0;"/><line style="stroke:#181818;stroke-width:1.0;" x1="458" x2="618.5" y1="145.3125" y2="145.3125"/><text fill="#000000" font-family="sans-serif" font-size="13" font-weight="bold" lengthAdjust="spacing" textLength="7" x="465" y="140.4561">2</text><text fill="#000000" font-family="sans-serif" font-size="13" lengthAdjust="spacing" textLength="36" x="476" y="140.4561">create</text><rect fill="#E3E3E3" height="31.6094" rx="2.5" ry="2.5" style="stroke:#181818;stroke-width:0.5;" width="183" x="624.5" y="122.9609"/><text fill="#000000" font-family="sans-serif" font-size="14" lengthAdjust="spacing" textLength="169" x="631.5" y="144.4941">:ListMaintenanceController</text><polygon fill="#181818" points="699,183.9219,709,187.9219,699,191.9219,703,187.9219" style="stroke:#181818;stroke-width:1.0;"/><line style="stroke:#181818;stroke-width:1.0;" x1="458" x2="705" y1="187.9219" y2="187.9219"/><text fill="#000000" font-family="sans-serif" font-size="13" font-weight="bold" lengthAdjust="spacing" textLength="7" x="465" y="183.0654">3</text><text fill="#000000" font-family="sans-serif" font-size="13" lengthAdjust="spacing" textLength="97" x="476" y="183.0654">getVehiclesList()</text><rect fill="none" height="56.5391" style="stroke:#000000;stroke-width:1.5;" width="189" x="621.5" y="195.9219"/><path d="M621.5,195.9219 L683.5,195.9219 L683.5,203.9219 L673.5,213.9219 L621.5,213.9219 L621.5,195.9219 " fill="#EEEEEE" style="stroke:#000000;stroke-width:2.0;"/><text fill="#000000" font-family="sans-serif" font-size="13" font-weight="bold" lengthAdjust="spacing" textLength="17" x="634.5" y="211.417">ref</text><text fill="#000000" font-family="sans-serif" font-size="12" lengthAdjust="spacing" textLength="85" x="673.5" y="230.3789">Get Vehicle List</text><text fill="#000000" font-family="sans-serif" font-size="12" lengthAdjust="spacing" textLength="3" x="714.5" y="245.4727"> </text><polygon fill="#181818" points="469,275.8125,459,279.8125,469,283.8125,465,279.8125" style="stroke:#181818;stroke-width:1.0;"/><line style="stroke:#181818;stroke-width:1.0;stroke-dasharray:2.0,2.0;" x1="463" x2="715" y1="279.8125" y2="279.8125"/><text fill="#000000" font-family="sans-serif" font-size="13" font-weight="bold" lengthAdjust="spacing" textLength="7" x="475" y="274.9561">4</text><text fill="#000000" font-family="sans-serif" font-size="13" lengthAdjust="spacing" textLength="60" x="486" y="274.9561">vehicleList</text><line style="stroke:#181818;stroke-width:1.0;stroke-dasharray:2.0,2.0;" x1="458" x2="500" y1="310.1641" y2="310.1641"/><line style="stroke:#181818;stroke-width:1.0;stroke-dasharray:2.0,2.0;" x1="500" x2="500" y1="310.1641" y2="323.1641"/><line style="stroke:#181818;stroke-width:1.0;stroke-dasharray:2.0,2.0;" x1="459" x2="500" y1="323.1641" y2="323.1641"/><polygon fill="#181818" points="469,319.1641,459,323.1641,469,327.1641,465,323.1641" style="stroke:#181818;stroke-width:1.0;"/><text fill="#000000" font-family="sans-serif" font-size="13" font-weight="bold" lengthAdjust="spacing" textLength="7" x="465" y="305.3076">5</text><text fill="#000000" font-family="sans-serif" font-size="13" lengthAdjust="spacing" textLength="92" x="476" y="305.3076">keep vehicleList</text><polygon fill="#181818" points="699,349.5156,709,353.5156,699,357.5156,703,353.5156" style="stroke:#181818;stroke-width:1.0;"/><line style="stroke:#181818;stroke-width:1.0;" x1="458" x2="705" y1="353.5156" y2="353.5156"/><text fill="#000000" font-family="sans-serif" font-size="13" font-weight="bold" lengthAdjust="spacing" textLength="7" x="465" y="348.6592">6</text><text fill="#000000" font-family="sans-serif" font-size="13" lengthAdjust="spacing" textLength="223" x="476" y="348.6592">createMaintenanceReport(vehiclesList)</text><polygon fill="#181818" points="1238,379.8672,1248,383.8672,1238,387.8672,1242,383.8672" style="stroke:#181818;stroke-width:1.0;"/><line style="stroke:#181818;stroke-width:1.0;" x1="721" x2="1244" y1="383.8672" y2="383.8672"/><text fill="#000000" font-family="sans-serif" font-size="13" font-weight="bold" lengthAdjust="spacing" textLength="7" x="728" y="379.0107">7</text><text fill="#000000" font-family="sans-serif" font-size="13" lengthAdjust="spacing" textLength="216" x="739" y="379.0107">createMaintenanceReport(vehicleList)</text><rect fill="none" height="56.5391" style="stroke:#000000;stroke-width:1.5;" width="173" x="1168.5" y="391.8672"/><path d="M1168.5,391.8672 L1230.5,391.8672 L1230.5,399.8672 L1220.5,409.8672 L1168.5,409.8672 L1168.5,391.8672 " fill="#EEEEEE" style="stroke:#000000;stroke-width:2.0;"/><text fill="#000000" font-family="sans-serif" font-size="13" font-weight="bold" lengthAdjust="spacing" textLength="17" x="1181.5" y="407.3623">ref</text><text fill="#000000" font-family="sans-serif" font-size="12" lengthAdjust="spacing" textLength="150" x="1180" y="426.3242">Create Maintenance Report</text><text fill="#000000" font-family="sans-serif" font-size="12" lengthAdjust="spacing" textLength="3" x="1253.5" y="441.418"> </text><polygon fill="#181818" points="732,471.7578,722,475.7578,732,479.7578,728,475.7578" style="stroke:#181818;stroke-width:1.0;"/><line style="stroke:#181818;stroke-width:1.0;stroke-dasharray:2.0,2.0;" x1="726" x2="1254" y1="475.7578" y2="475.7578"/><text fill="#000000" font-family="sans-serif" font-size="13" font-weight="bold" lengthAdjust="spacing" textLength="7" x="738" y="470.9014">8</text><text fill="#000000" font-family="sans-serif" font-size="13" lengthAdjust="spacing" textLength="112" x="749" y="470.9014">maintenanceReport</text><line style="stroke:#181818;stroke-width:1.0;stroke-dasharray:2.0,2.0;" x1="721" x2="763" y1="506.1094" y2="506.1094"/><line style="stroke:#181818;stroke-width:1.0;stroke-dasharray:2.0,2.0;" x1="763" x2="763" y1="506.1094" y2="519.1094"/><line style="stroke:#181818;stroke-width:1.0;stroke-dasharray:2.0,2.0;" x1="722" x2="763" y1="519.1094" y2="519.1094"/><polygon fill="#181818" points="732,515.1094,722,519.1094,732,523.1094,728,519.1094" style="stroke:#181818;stroke-width:1.0;"/><text fill="#000000" font-family="sans-serif" font-size="13" font-weight="bold" lengthAdjust="spacing" textLength="7" x="728" y="501.2529">9</text><text fill="#000000" font-family="sans-serif" font-size="13" lengthAdjust="spacing" textLength="112" x="739" y="501.2529">maintenanceReport</text><polygon fill="#181818" points="469,545.4609,459,549.4609,469,553.4609,465,549.4609" style="stroke:#181818;stroke-width:1.0;"/><line style="stroke:#181818;stroke-width:1.0;stroke-dasharray:2.0,2.0;" x1="463" x2="715" y1="549.4609" y2="549.4609"/><text fill="#000000" font-family="sans-serif" font-size="13" font-weight="bold" lengthAdjust="spacing" textLength="14" x="475" y="544.6045">10</text><text fill="#000000" font-family="sans-serif" font-size="13" lengthAdjust="spacing" textLength="112" x="493" y="544.6045">maintenanceReport</text><polygon fill="#181818" points="161,575.8125,151,579.8125,161,583.8125,157,579.8125" style="stroke:#181818;stroke-width:1.0;"/><line style="stroke:#181818;stroke-width:1.0;stroke-dasharray:2.0,2.0;" x1="155" x2="452" y1="579.8125" y2="579.8125"/><text fill="#000000" font-family="sans-serif" font-size="13" font-weight="bold" lengthAdjust="spacing" textLength="14" x="167" y="574.9561">11</text><text fill="#000000" font-family="sans-serif" font-size="13" lengthAdjust="spacing" textLength="152" x="185" y="574.9561">shows maintenance report</text><!--SRC=[ZLJ1Ri8m3BtdAomkOvFs0prCcj0s8L5fWetJBbbh8A9DkiHbsz_F2Mrf8S1oAexzxEVtWjigNKahIoYDDjd6cXA1R8t2TJULpBPoZGlwBH0iPYJrkkWdk8tCpRVIQrZ9mg4GGjPaT5r-eXNYPgDoX9Knz6b-XCp8M1WjSQCoXfCwXwUlMbKbQeBd0f4WbPhRMHWldzFR4KW7_26u5QbCLPBpHibCEKgbqeHQwWpVfo7lVNevRM8qMLCKQ4Fwv6q-EogOOsMSuX4Lkf3J1NuNojDcNiCIswluqAS0hxF7js75Ri_zW9nywELnRC_xE3e4AW_C1c1fB1u0epSNGIqngVGu5WEpvCLLEqaO11F0Xp_W_e65WOIjyrMZ8mTae61Xe5c40usOU_lqUeVg3e-53G5_68iHlNPtTuoQMUICs3LVhf6Q7JflXV5jbzP11nDqONyihi3is83X2iwS5tPgwsAFFSH0zZNZ38DXgFjs7GtxKDjcv7XcBi-gBTmYLeFgEFVzOav46kzw2xcwZ_t83t7ZNErnfaNSXN4DuhanGIPXbdu1DBQCAjF-ZZO8o_RS4pXv3p6nhZ3gX6-aESMyP9H_JH2rYtzz2Vyzcs_NHm5xWEb1-4VM- -dVy1y0]--></g></svg>