<?xml version="1.0" encoding="UTF-8" standalone="no"?><svg xmlns="http://www.w3.org/2000/svg" xmlns:xlink="http://www.w3.org/1999/xlink" contentStyleType="text/css" height="1023px" preserveAspectRatio="none" style="width:1160px;height:1023px;background:#FFFFFF;" version="1.1" viewBox="0 0 1160 1023" width="1160px" zoomAndPan="magnify"><defs/><g><!--cluster CreateMaintenanceReportSystem--><g id="cluster_CreateMaintenanceReportSystem"><rect fill="none" height="1010" rx="2.5" ry="2.5" style="stroke:#000000;stroke-width:1.5;" width="1147" x="7" y="7"/><text fill="#000000" font-family="sans-serif" font-size="14" font-weight="bold" lengthAdjust="spacing" textLength="236" x="462.5" y="23.5332">CreateMaintenanceReportSystem</text></g><!--class ListMaintenanceUI--><g id="elem_ListMaintenanceUI"><rect codeLine="6" fill="#F1F1F1" height="48" id="ListMaintenanceUI" rx="2.5" ry="2.5" style="stroke:#181818;stroke-width:0.5;" width="147" x="574.5" y="43"/><ellipse cx="589.5" cy="59" fill="#ADD1B2" rx="11" ry="11" style="stroke:#181818;stroke-width:1.0;"/><path d="M592.2656,54.875 Q592.4219,54.6563 592.6094,54.5469 Q592.7969,54.4375 593.0156,54.4375 Q593.3906,54.4375 593.625,54.7031 Q593.8594,54.9531 593.8594,55.5625 L593.8594,57.0156 Q593.8594,57.625 593.625,57.8906 Q593.3906,58.1563 593.0156,58.1563 Q592.6719,58.1563 592.4688,57.9531 Q592.2656,57.7656 592.1563,57.25 Q592.1094,56.8906 591.9219,56.7031 Q591.5938,56.3281 590.9844,56.1094 Q590.375,55.8906 589.75,55.8906 Q588.9844,55.8906 588.3438,56.2188 Q587.7188,56.5469 587.2188,57.2969 Q586.7344,58.0469 586.7344,59.0781 L586.7344,60.1719 Q586.7344,61.4063 587.625,62.2344 Q588.5156,63.0469 590.1094,63.0469 Q591.0469,63.0469 591.7031,62.7969 Q592.0938,62.6406 592.5156,62.2031 Q592.7813,61.9375 592.9219,61.8594 Q593.0781,61.7813 593.2813,61.7813 Q593.6094,61.7813 593.8594,62.0469 Q594.125,62.2969 594.125,62.6406 Q594.125,62.9844 593.7813,63.3906 Q593.2813,63.9688 592.4844,64.2969 Q591.4063,64.75 590.1094,64.75 Q588.5938,64.75 587.3906,64.125 Q586.4063,63.625 585.7188,62.5625 Q585.0313,61.4844 585.0313,60.2031 L585.0313,59.0469 Q585.0313,57.7188 585.6406,56.5781 Q586.2656,55.4219 587.3594,54.8125 Q588.4531,54.1875 589.6875,54.1875 Q590.4219,54.1875 591.0625,54.3594 Q591.7188,54.5156 592.2656,54.875 Z " fill="#000000"/><text fill="#000000" font-family="sans-serif" font-size="14" lengthAdjust="spacing" textLength="115" x="603.5" y="64.7285">ListMaintenanceUI</text><line style="stroke:#181818;stroke-width:0.5;" x1="575.5" x2="720.5" y1="75" y2="75"/><line style="stroke:#181818;stroke-width:0.5;" x1="575.5" x2="720.5" y1="83" y2="83"/></g><!--class ListMaintenanceController--><g id="elem_ListMaintenanceController"><rect codeLine="9" fill="#F1F1F1" height="100.8281" id="ListMaintenanceController" rx="2.5" ry="2.5" style="stroke:#181818;stroke-width:0.5;" width="497" x="399.5" y="152"/><ellipse cx="561.25" cy="168" fill="#ADD1B2" rx="11" ry="11" style="stroke:#181818;stroke-width:1.0;"/><path d="M564.0156,163.875 Q564.1719,163.6563 564.3594,163.5469 Q564.5469,163.4375 564.7656,163.4375 Q565.1406,163.4375 565.375,163.7031 Q565.6094,163.9531 565.6094,164.5625 L565.6094,166.0156 Q565.6094,166.625 565.375,166.8906 Q565.1406,167.1563 564.7656,167.1563 Q564.4219,167.1563 564.2188,166.9531 Q564.0156,166.7656 563.9063,166.25 Q563.8594,165.8906 563.6719,165.7031 Q563.3438,165.3281 562.7344,165.1094 Q562.125,164.8906 561.5,164.8906 Q560.7344,164.8906 560.0938,165.2188 Q559.4688,165.5469 558.9688,166.2969 Q558.4844,167.0469 558.4844,168.0781 L558.4844,169.1719 Q558.4844,170.4063 559.375,171.2344 Q560.2656,172.0469 561.8594,172.0469 Q562.7969,172.0469 563.4531,171.7969 Q563.8438,171.6406 564.2656,171.2031 Q564.5313,170.9375 564.6719,170.8594 Q564.8281,170.7813 565.0313,170.7813 Q565.3594,170.7813 565.6094,171.0469 Q565.875,171.2969 565.875,171.6406 Q565.875,171.9844 565.5313,172.3906 Q565.0313,172.9688 564.2344,173.2969 Q563.1563,173.75 561.8594,173.75 Q560.3438,173.75 559.1406,173.125 Q558.1563,172.625 557.4688,171.5625 Q556.7813,170.4844 556.7813,169.2031 L556.7813,168.0469 Q556.7813,166.7188 557.3906,165.5781 Q558.0156,164.4219 559.1094,163.8125 Q560.2031,163.1875 561.4375,163.1875 Q562.1719,163.1875 562.8125,163.3594 Q563.4688,163.5156 564.0156,163.875 Z " fill="#000000"/><text fill="#000000" font-family="sans-serif" font-size="14" lengthAdjust="spacing" textLength="165" x="581.75" y="173.7285">ListMaintenanceController</text><line style="stroke:#181818;stroke-width:0.5;" x1="400.5" x2="895.5" y1="184" y2="184"/><rect fill="none" height="6" style="stroke:#C82930;stroke-width:1.0;" width="6" x="407.5" y="195.3047"/><text fill="#000000" font-family="sans-serif" font-size="14" lengthAdjust="spacing" textLength="234" x="419.5" y="202.5332">vehicleRepository: VehicleRepository</text><rect fill="none" height="6" style="stroke:#C82930;stroke-width:1.0;" width="6" x="407.5" y="212.9141"/><text fill="#000000" font-family="sans-serif" font-size="14" lengthAdjust="spacing" textLength="306" x="419.5" y="220.1426">maintenanceRepository: MaintenanceRepository</text><line style="stroke:#181818;stroke-width:0.5;" x1="400.5" x2="895.5" y1="227.2188" y2="227.2188"/><ellipse cx="410.5" cy="241.5234" fill="#84BE84" rx="3" ry="3" style="stroke:#038048;stroke-width:1.0;"/><text fill="#000000" font-family="sans-serif" font-size="14" lengthAdjust="spacing" textLength="471" x="419.5" y="245.752">createMaintenanceReport(vehiclesList: List&lt;Vehicle&gt;): MaintenanceReport</text></g><!--class Repositories--><g id="elem_Repositories"><rect codeLine="16" fill="#F1F1F1" height="153.6563" id="Repositories" rx="2.5" ry="2.5" style="stroke:#181818;stroke-width:0.5;" width="362" x="220" y="331"/><ellipse cx="357.25" cy="347" fill="#ADD1B2" rx="11" ry="11" style="stroke:#181818;stroke-width:1.0;"/><path d="M360.0156,342.875 Q360.1719,342.6563 360.3594,342.5469 Q360.5469,342.4375 360.7656,342.4375 Q361.1406,342.4375 361.375,342.7031 Q361.6094,342.9531 361.6094,343.5625 L361.6094,345.0156 Q361.6094,345.625 361.375,345.8906 Q361.1406,346.1563 360.7656,346.1563 Q360.4219,346.1563 360.2188,345.9531 Q360.0156,345.7656 359.9063,345.25 Q359.8594,344.8906 359.6719,344.7031 Q359.3438,344.3281 358.7344,344.1094 Q358.125,343.8906 357.5,343.8906 Q356.7344,343.8906 356.0938,344.2188 Q355.4688,344.5469 354.9688,345.2969 Q354.4844,346.0469 354.4844,347.0781 L354.4844,348.1719 Q354.4844,349.4063 355.375,350.2344 Q356.2656,351.0469 357.8594,351.0469 Q358.7969,351.0469 359.4531,350.7969 Q359.8438,350.6406 360.2656,350.2031 Q360.5313,349.9375 360.6719,349.8594 Q360.8281,349.7813 361.0313,349.7813 Q361.3594,349.7813 361.6094,350.0469 Q361.875,350.2969 361.875,350.6406 Q361.875,350.9844 361.5313,351.3906 Q361.0313,351.9688 360.2344,352.2969 Q359.1563,352.75 357.8594,352.75 Q356.3438,352.75 355.1406,352.125 Q354.1563,351.625 353.4688,350.5625 Q352.7813,349.4844 352.7813,348.2031 L352.7813,347.0469 Q352.7813,345.7188 353.3906,344.5781 Q354.0156,343.4219 355.1094,342.8125 Q356.2031,342.1875 357.4375,342.1875 Q358.1719,342.1875 358.8125,342.3594 Q359.4688,342.5156 360.0156,342.875 Z " fill="#000000"/><text fill="#000000" font-family="sans-serif" font-size="14" lengthAdjust="spacing" textLength="79" x="377.75" y="352.7285">Repositories</text><line style="stroke:#181818;stroke-width:0.5;" x1="221" x2="581" y1="363" y2="363"/><rect fill="none" height="6" style="stroke:#C82930;stroke-width:1.0;" width="6" x="228" y="374.3047"/><text fill="#000000" font-family="sans-serif" font-size="14" lengthAdjust="spacing" textLength="140" x="240" y="381.5332">instance: Repositories</text><rect fill="none" height="6" style="stroke:#C82930;stroke-width:1.0;" width="6" x="228" y="391.9141"/><text fill="#000000" font-family="sans-serif" font-size="14" lengthAdjust="spacing" textLength="234" x="240" y="399.1426">vehicleRepository: VehicleRepository</text><rect fill="none" height="6" style="stroke:#C82930;stroke-width:1.0;" width="6" x="228" y="409.5234"/><text fill="#000000" font-family="sans-serif" font-size="14" lengthAdjust="spacing" textLength="306" x="240" y="416.752">maintenanceRepository: MaintenanceRepository</text><line style="stroke:#181818;stroke-width:0.5;" x1="221" x2="581" y1="423.8281" y2="423.8281"/><ellipse cx="231" cy="438.1328" fill="#84BE84" rx="3" ry="3" style="stroke:#038048;stroke-width:1.0;"/><text fill="#000000" font-family="sans-serif" font-size="14" lengthAdjust="spacing" textLength="170" x="240" y="442.3613">getInstance(): Repositories</text><ellipse cx="231" cy="455.7422" fill="#84BE84" rx="3" ry="3" style="stroke:#038048;stroke-width:1.0;"/><text fill="#000000" font-family="sans-serif" font-size="14" lengthAdjust="spacing" textLength="266" x="240" y="459.9707">getVehicleRepository(): VehicleRepository</text><ellipse cx="231" cy="473.3516" fill="#84BE84" rx="3" ry="3" style="stroke:#038048;stroke-width:1.0;"/><text fill="#000000" font-family="sans-serif" font-size="14" lengthAdjust="spacing" textLength="336" x="240" y="477.5801">getMaintenanceRepository(): MaintenanceRepository</text></g><!--class VehicleRepository--><g id="elem_VehicleRepository"><rect codeLine="26" fill="#F1F1F1" height="65.6094" id="VehicleRepository" rx="2.5" ry="2.5" style="stroke:#181818;stroke-width:0.5;" width="182" x="265" y="580.5"/><ellipse cx="296.2" cy="596.5" fill="#ADD1B2" rx="11" ry="11" style="stroke:#181818;stroke-width:1.0;"/><path d="M298.9656,592.375 Q299.1219,592.1563 299.3094,592.0469 Q299.4969,591.9375 299.7156,591.9375 Q300.0906,591.9375 300.325,592.2031 Q300.5594,592.4531 300.5594,593.0625 L300.5594,594.5156 Q300.5594,595.125 300.325,595.3906 Q300.0906,595.6563 299.7156,595.6563 Q299.3719,595.6563 299.1688,595.4531 Q298.9656,595.2656 298.8563,594.75 Q298.8094,594.3906 298.6219,594.2031 Q298.2938,593.8281 297.6844,593.6094 Q297.075,593.3906 296.45,593.3906 Q295.6844,593.3906 295.0438,593.7188 Q294.4188,594.0469 293.9188,594.7969 Q293.4344,595.5469 293.4344,596.5781 L293.4344,597.6719 Q293.4344,598.9063 294.325,599.7344 Q295.2156,600.5469 296.8094,600.5469 Q297.7469,600.5469 298.4031,600.2969 Q298.7938,600.1406 299.2156,599.7031 Q299.4813,599.4375 299.6219,599.3594 Q299.7781,599.2813 299.9813,599.2813 Q300.3094,599.2813 300.5594,599.5469 Q300.825,599.7969 300.825,600.1406 Q300.825,600.4844 300.4813,600.8906 Q299.9813,601.4688 299.1844,601.7969 Q298.1063,602.25 296.8094,602.25 Q295.2938,602.25 294.0906,601.625 Q293.1063,601.125 292.4188,600.0625 Q291.7313,598.9844 291.7313,597.7031 L291.7313,596.5469 Q291.7313,595.2188 292.3406,594.0781 Q292.9656,592.9219 294.0594,592.3125 Q295.1531,591.6875 296.3875,591.6875 Q297.1219,591.6875 297.7625,591.8594 Q298.4188,592.0156 298.9656,592.375 Z " fill="#000000"/><text fill="#000000" font-family="sans-serif" font-size="14" lengthAdjust="spacing" textLength="114" x="313.8" y="602.2285">VehicleRepository</text><line style="stroke:#181818;stroke-width:0.5;" x1="266" x2="446" y1="612.5" y2="612.5"/><rect fill="none" height="6" style="stroke:#C82930;stroke-width:1.0;" width="6" x="273" y="623.8047"/><text fill="#000000" font-family="sans-serif" font-size="14" lengthAdjust="spacing" textLength="156" x="285" y="631.0332">vehicleList: List&lt;vehicle&gt;</text><line style="stroke:#181818;stroke-width:0.5;" x1="266" x2="446" y1="638.1094" y2="638.1094"/></g><!--class MaintenanceRepository--><g id="elem_MaintenanceRepository"><rect codeLine="31" fill="#F1F1F1" height="100.8281" id="MaintenanceRepository" rx="2.5" ry="2.5" style="stroke:#181818;stroke-width:0.5;" width="497" x="482.5" y="563"/><ellipse cx="652.25" cy="579" fill="#ADD1B2" rx="11" ry="11" style="stroke:#181818;stroke-width:1.0;"/><path d="M655.0156,574.875 Q655.1719,574.6563 655.3594,574.5469 Q655.5469,574.4375 655.7656,574.4375 Q656.1406,574.4375 656.375,574.7031 Q656.6094,574.9531 656.6094,575.5625 L656.6094,577.0156 Q656.6094,577.625 656.375,577.8906 Q656.1406,578.1563 655.7656,578.1563 Q655.4219,578.1563 655.2188,577.9531 Q655.0156,577.7656 654.9063,577.25 Q654.8594,576.8906 654.6719,576.7031 Q654.3438,576.3281 653.7344,576.1094 Q653.125,575.8906 652.5,575.8906 Q651.7344,575.8906 651.0938,576.2188 Q650.4688,576.5469 649.9688,577.2969 Q649.4844,578.0469 649.4844,579.0781 L649.4844,580.1719 Q649.4844,581.4063 650.375,582.2344 Q651.2656,583.0469 652.8594,583.0469 Q653.7969,583.0469 654.4531,582.7969 Q654.8438,582.6406 655.2656,582.2031 Q655.5313,581.9375 655.6719,581.8594 Q655.8281,581.7813 656.0313,581.7813 Q656.3594,581.7813 656.6094,582.0469 Q656.875,582.2969 656.875,582.6406 Q656.875,582.9844 656.5313,583.3906 Q656.0313,583.9688 655.2344,584.2969 Q654.1563,584.75 652.8594,584.75 Q651.3438,584.75 650.1406,584.125 Q649.1563,583.625 648.4688,582.5625 Q647.7813,581.4844 647.7813,580.2031 L647.7813,579.0469 Q647.7813,577.7188 648.3906,576.5781 Q649.0156,575.4219 650.1094,574.8125 Q651.2031,574.1875 652.4375,574.1875 Q653.1719,574.1875 653.8125,574.3594 Q654.4688,574.5156 655.0156,574.875 Z " fill="#000000"/><text fill="#000000" font-family="sans-serif" font-size="14" lengthAdjust="spacing" textLength="149" x="672.75" y="584.7285">MaintenanceRepository</text><line style="stroke:#181818;stroke-width:0.5;" x1="483.5" x2="978.5" y1="595" y2="595"/><rect fill="none" height="6" style="stroke:#C82930;stroke-width:1.0;" width="6" x="490.5" y="606.3047"/><text fill="#000000" font-family="sans-serif" font-size="14" lengthAdjust="spacing" textLength="256" x="502.5" y="613.5332">maintenanceReport: MaintenanceReport</text><line style="stroke:#181818;stroke-width:0.5;" x1="483.5" x2="978.5" y1="620.6094" y2="620.6094"/><ellipse cx="493.5" cy="634.9141" fill="#84BE84" rx="3" ry="3" style="stroke:#038048;stroke-width:1.0;"/><text fill="#000000" font-family="sans-serif" font-size="14" lengthAdjust="spacing" textLength="466" x="502.5" y="639.1426">getVehiclesNeedingMaintenance(vehicleList: List&lt;Vehicle&gt;): List&lt;Vehicle&gt;</text><ellipse cx="493.5" cy="652.5234" fill="#84BE84" rx="3" ry="3" style="stroke:#038048;stroke-width:1.0;"/><text fill="#000000" font-family="sans-serif" font-size="14" lengthAdjust="spacing" textLength="471" x="502.5" y="656.752">createMaintenanceReport(vehiclesList: List&lt;Vehicle&gt;): MaintenanceReport</text></g><!--class Vehicle--><g id="elem_Vehicle"><rect codeLine="38" fill="#F1F1F1" height="259.3125" id="Vehicle" rx="2.5" ry="2.5" style="stroke:#181818;stroke-width:0.5;" width="665" x="23.5" y="742"/><ellipse cx="328.75" cy="758" fill="#ADD1B2" rx="11" ry="11" style="stroke:#181818;stroke-width:1.0;"/><path d="M331.5156,753.875 Q331.6719,753.6563 331.8594,753.5469 Q332.0469,753.4375 332.2656,753.4375 Q332.6406,753.4375 332.875,753.7031 Q333.1094,753.9531 333.1094,754.5625 L333.1094,756.0156 Q333.1094,756.625 332.875,756.8906 Q332.6406,757.1563 332.2656,757.1563 Q331.9219,757.1563 331.7188,756.9531 Q331.5156,756.7656 331.4063,756.25 Q331.3594,755.8906 331.1719,755.7031 Q330.8438,755.3281 330.2344,755.1094 Q329.625,754.8906 329,754.8906 Q328.2344,754.8906 327.5938,755.2188 Q326.9688,755.5469 326.4688,756.2969 Q325.9844,757.0469 325.9844,758.0781 L325.9844,759.1719 Q325.9844,760.4063 326.875,761.2344 Q327.7656,762.0469 329.3594,762.0469 Q330.2969,762.0469 330.9531,761.7969 Q331.3438,761.6406 331.7656,761.2031 Q332.0313,760.9375 332.1719,760.8594 Q332.3281,760.7813 332.5313,760.7813 Q332.8594,760.7813 333.1094,761.0469 Q333.375,761.2969 333.375,761.6406 Q333.375,761.9844 333.0313,762.3906 Q332.5313,762.9688 331.7344,763.2969 Q330.6563,763.75 329.3594,763.75 Q327.8438,763.75 326.6406,763.125 Q325.6563,762.625 324.9688,761.5625 Q324.2813,760.4844 324.2813,759.2031 L324.2813,758.0469 Q324.2813,756.7188 324.8906,755.5781 Q325.5156,754.4219 326.6094,753.8125 Q327.7031,753.1875 328.9375,753.1875 Q329.6719,753.1875 330.3125,753.3594 Q330.9688,753.5156 331.5156,753.875 Z " fill="#000000"/><text fill="#000000" font-family="sans-serif" font-size="14" lengthAdjust="spacing" textLength="46" x="349.25" y="763.7285">Vehicle</text><line style="stroke:#181818;stroke-width:0.5;" x1="24.5" x2="687.5" y1="774" y2="774"/><rect fill="none" height="6" style="stroke:#C82930;stroke-width:1.0;" width="6" x="31.5" y="785.3047"/><text fill="#000000" font-family="sans-serif" font-size="14" lengthAdjust="spacing" textLength="66" x="43.5" y="792.5332">VIN: String</text><rect fill="none" height="6" style="stroke:#C82930;stroke-width:1.0;" width="6" x="31.5" y="802.9141"/><text fill="#000000" font-family="sans-serif" font-size="14" lengthAdjust="spacing" textLength="82" x="43.5" y="810.1426">brand: String</text><rect fill="none" height="6" style="stroke:#C82930;stroke-width:1.0;" width="6" x="31.5" y="820.5234"/><text fill="#000000" font-family="sans-serif" font-size="14" lengthAdjust="spacing" textLength="83" x="43.5" y="827.752">model: String</text><rect fill="none" height="6" style="stroke:#C82930;stroke-width:1.0;" width="6" x="31.5" y="838.1328"/><text fill="#000000" font-family="sans-serif" font-size="14" lengthAdjust="spacing" textLength="72" x="43.5" y="845.3613">type: String</text><rect fill="none" height="6" style="stroke:#C82930;stroke-width:1.0;" width="6" x="31.5" y="855.7422"/><text fill="#000000" font-family="sans-serif" font-size="14" lengthAdjust="spacing" textLength="121" x="43.5" y="862.9707">vehiclePlate: String</text><rect fill="none" height="6" style="stroke:#C82930;stroke-width:1.0;" width="6" x="31.5" y="873.3516"/><text fill="#000000" font-family="sans-serif" font-size="14" lengthAdjust="spacing" textLength="120" x="43.5" y="880.5801">tareWeight: double</text><rect fill="none" height="6" style="stroke:#C82930;stroke-width:1.0;" width="6" x="31.5" y="890.9609"/><text fill="#000000" font-family="sans-serif" font-size="14" lengthAdjust="spacing" textLength="130" x="43.5" y="898.1895">grossWeight: double</text><rect fill="none" height="6" style="stroke:#C82930;stroke-width:1.0;" width="6" x="31.5" y="908.5703"/><text fill="#000000" font-family="sans-serif" font-size="14" lengthAdjust="spacing" textLength="116" x="43.5" y="915.7988">currentKm: double</text><rect fill="none" height="6" style="stroke:#C82930;stroke-width:1.0;" width="6" x="31.5" y="926.1797"/><text fill="#000000" font-family="sans-serif" font-size="14" lengthAdjust="spacing" textLength="135" x="43.5" y="933.4082">acquisitionDate: Date</text><rect fill="none" height="6" style="stroke:#C82930;stroke-width:1.0;" width="6" x="31.5" y="943.7891"/><text fill="#000000" font-family="sans-serif" font-size="14" lengthAdjust="spacing" textLength="172" x="43.5" y="951.0176">maintenanceFrequency: int</text><line style="stroke:#181818;stroke-width:0.5;" x1="24.5" x2="687.5" y1="958.0938" y2="958.0938"/><ellipse cx="34.5" cy="981.2031" fill="#84BE84" rx="3" ry="3" style="stroke:#038048;stroke-width:1.0;"/><text fill="#000000" font-family="sans-serif" font-size="14" lengthAdjust="spacing" textLength="635" x="43.5" y="976.627">Vehicle(VIN: String,brand: String, model: String, type: String, vehiclePlate: String, tareWeight: double,</text><text fill="#000000" font-family="sans-serif" font-size="14" lengthAdjust="spacing" textLength="582" x="43.5" y="994.2363">grossWeight: double, currentKm: double, acquisitionDate: Date, maintenanceFrequency: int)</text></g><!--class MaintenanceReport--><g id="elem_MaintenanceReport"><rect codeLine="55" fill="#F1F1F1" height="100.8281" id="MaintenanceReport" rx="2.5" ry="2.5" style="stroke:#181818;stroke-width:0.5;" width="414" x="724" y="821"/><ellipse cx="864.75" cy="837" fill="#ADD1B2" rx="11" ry="11" style="stroke:#181818;stroke-width:1.0;"/><path d="M867.5156,832.875 Q867.6719,832.6563 867.8594,832.5469 Q868.0469,832.4375 868.2656,832.4375 Q868.6406,832.4375 868.875,832.7031 Q869.1094,832.9531 869.1094,833.5625 L869.1094,835.0156 Q869.1094,835.625 868.875,835.8906 Q868.6406,836.1563 868.2656,836.1563 Q867.9219,836.1563 867.7188,835.9531 Q867.5156,835.7656 867.4063,835.25 Q867.3594,834.8906 867.1719,834.7031 Q866.8438,834.3281 866.2344,834.1094 Q865.625,833.8906 865,833.8906 Q864.2344,833.8906 863.5938,834.2188 Q862.9688,834.5469 862.4688,835.2969 Q861.9844,836.0469 861.9844,837.0781 L861.9844,838.1719 Q861.9844,839.4063 862.875,840.2344 Q863.7656,841.0469 865.3594,841.0469 Q866.2969,841.0469 866.9531,840.7969 Q867.3438,840.6406 867.7656,840.2031 Q868.0313,839.9375 868.1719,839.8594 Q868.3281,839.7813 868.5313,839.7813 Q868.8594,839.7813 869.1094,840.0469 Q869.375,840.2969 869.375,840.6406 Q869.375,840.9844 869.0313,841.3906 Q868.5313,841.9688 867.7344,842.2969 Q866.6563,842.75 865.3594,842.75 Q863.8438,842.75 862.6406,842.125 Q861.6563,841.625 860.9688,840.5625 Q860.2813,839.4844 860.2813,838.2031 L860.2813,837.0469 Q860.2813,835.7188 860.8906,834.5781 Q861.5156,833.4219 862.6094,832.8125 Q863.7031,832.1875 864.9375,832.1875 Q865.6719,832.1875 866.3125,832.3594 Q866.9688,832.5156 867.5156,832.875 Z " fill="#000000"/><text fill="#000000" font-family="sans-serif" font-size="14" lengthAdjust="spacing" textLength="124" x="885.25" y="842.7285">MaintenanceReport</text><line style="stroke:#181818;stroke-width:0.5;" x1="725" x2="1137" y1="853" y2="853"/><rect fill="none" height="6" style="stroke:#C82930;stroke-width:1.0;" width="6" x="732" y="864.3047"/><text fill="#000000" font-family="sans-serif" font-size="14" lengthAdjust="spacing" textLength="73" x="744" y="871.5332">data: String</text><rect fill="none" height="6" style="stroke:#C82930;stroke-width:1.0;" width="6" x="732" y="881.9141"/><text fill="#000000" font-family="sans-serif" font-size="14" lengthAdjust="spacing" textLength="156" x="744" y="889.1426">vehicleList: List&lt;vehicle&gt;</text><line style="stroke:#181818;stroke-width:0.5;" x1="725" x2="1137" y1="896.2188" y2="896.2188"/><ellipse cx="735" cy="910.5234" fill="#84BE84" rx="3" ry="3" style="stroke:#038048;stroke-width:1.0;"/><text fill="#000000" font-family="sans-serif" font-size="14" lengthAdjust="spacing" textLength="388" x="744" y="914.752">MaintenanceReport(data: String, vehicleList: List&lt;vehicleList&gt;</text></g><!--link ListMaintenanceUI to ListMaintenanceController--><g id="link_ListMaintenanceUI_ListMaintenanceController"><path codeLine="63" d="M648,91.25 C648,106.55 648,127.24 648,146.57 " fill="none" id="ListMaintenanceUI-to-ListMaintenanceController" style="stroke:#181818;stroke-width:1.0;stroke-dasharray:7.0,7.0;"/><polygon fill="#181818" points="648,151.98,652,142.98,648,146.98,644,142.98,648,151.98" style="stroke:#181818;stroke-width:1.0;"/></g><!--link ListMaintenanceController to Repositories--><g id="link_ListMaintenanceController_Repositories"><path codeLine="64" d="M587.89,253.02 C560.7,275.43 527.87,302.47 497.37,327.6 " fill="none" id="ListMaintenanceController-to-Repositories" style="stroke:#181818;stroke-width:1.0;stroke-dasharray:7.0,7.0;"/><polygon fill="#181818" points="493.28,330.97,502.7723,328.3438,497.1421,327.7945,497.6914,322.1643,493.28,330.97" style="stroke:#181818;stroke-width:1.0;"/><text fill="#000000" font-family="sans-serif" font-size="13" lengthAdjust="spacing" textLength="67" x="547" y="297.4951">repositories</text></g><!--link Repositories to Repositories--><g id="link_Repositories_Repositories"><path codeLine="65" d="M582.21,389.44 C603.29,392.86 617,399.05 617,408 C617,416.18 605.54,422.05 587.48,425.62 " fill="none" id="Repositories-to-Repositories" style="stroke:#181818;stroke-width:1.0;"/><polygon fill="#181818" points="582.21,426.56,591.7768,428.9002,587.1307,425.6731,590.3578,421.0271,582.21,426.56" style="stroke:#181818;stroke-width:1.0;"/><text fill="#000000" font-family="sans-serif" font-size="13" lengthAdjust="spacing" textLength="49" x="623" y="413.4951">instance</text></g><!--link ListMaintenanceController to MaintenanceRepository--><g id="link_ListMaintenanceController_MaintenanceRepository"><path codeLine="66" d="M663.59,253.07 C682.02,314.03 711.96,420.99 726,515 C728.05,528.74 729.3,543.67 730.05,557.62 " fill="none" id="ListMaintenanceController-to-MaintenanceRepository" style="stroke:#181818;stroke-width:1.0;stroke-dasharray:7.0,7.0;"/><polygon fill="#181818" points="730.31,562.71,733.8425,553.5164,730.0532,557.7166,725.853,553.9273,730.31,562.71" style="stroke:#181818;stroke-width:1.0;"/><text fill="#000000" font-family="sans-serif" font-size="13" lengthAdjust="spacing" textLength="136" x="721" y="413.4951">MaintenanceRepository</text></g><!--link Repositories to VehicleRepository--><g id="link_Repositories_VehicleRepository"><path codeLine="67" d="M384.18,485.07 C377.35,515.97 369.76,550.26 364.19,575.47 " fill="none" id="Repositories-to-VehicleRepository" style="stroke:#181818;stroke-width:1.0;"/><polygon fill="#181818" points="363.1,580.39,368.9571,572.472,364.1847,575.5091,361.1476,570.7366,363.1,580.39" style="stroke:#181818;stroke-width:1.0;"/><text fill="#000000" font-family="sans-serif" font-size="13" lengthAdjust="spacing" textLength="105" x="378" y="529.4951">VehicleRepository</text><text fill="#000000" font-family="sans-serif" font-size="13" lengthAdjust="spacing" textLength="7" x="356.8425" y="569.4827">1</text></g><!--link Repositories to MaintenanceRepository--><g id="link_Repositories_MaintenanceRepository"><path codeLine="68" d="M509.67,485.23 C533.85,501.46 559.56,518.16 584,533 C599.19,542.22 615.52,551.58 631.59,560.48 " fill="none" id="Repositories-to-MaintenanceRepository" style="stroke:#181818;stroke-width:1.0;"/><polygon fill="#181818" points="636.11,562.98,630.1743,555.1208,631.7359,560.5578,626.2988,562.1194,636.11,562.98" style="stroke:#181818;stroke-width:1.0;"/><text fill="#000000" font-family="sans-serif" font-size="13" lengthAdjust="spacing" textLength="136" x="585" y="529.4951">MaintenanceRepository</text><text fill="#000000" font-family="sans-serif" font-size="13" lengthAdjust="spacing" textLength="7" x="615.2739" y="552.2825">1</text></g><!--link VehicleRepository to Vehicle--><g id="link_VehicleRepository_Vehicle"><path codeLine="69" d="M356,646.66 C356,669.86 356,702.89 356,736.47 " fill="none" id="VehicleRepository-to-Vehicle" style="stroke:#181818;stroke-width:1.0;"/><polygon fill="#181818" points="356,741.87,360,732.87,356,736.87,352,732.87,356,741.87" style="stroke:#181818;stroke-width:1.0;"/><text fill="#000000" font-family="sans-serif" font-size="13" lengthAdjust="spacing" textLength="39" x="357" y="708.4951">vehicle</text><text fill="#000000" font-family="sans-serif" font-size="13" lengthAdjust="spacing" textLength="7" x="348.3766" y="667.5528">1</text><text fill="#000000" font-family="sans-serif" font-size="13" lengthAdjust="spacing" textLength="5" x="350.8477" y="730.9795">*</text></g><!--link MaintenanceRepository to Vehicle--><g id="link_MaintenanceRepository_Vehicle"><path codeLine="70" d="M658.25,664.16 C626.6,685.77 587.87,712.21 548.83,738.86 " fill="none" id="MaintenanceRepository-to-Vehicle" style="stroke:#181818;stroke-width:1.0;"/><polygon fill="#181818" points="544.56,741.78,554.2496,740.0159,548.6914,738.9638,549.7436,733.4056,544.56,741.78" style="stroke:#181818;stroke-width:1.0;"/><text fill="#000000" font-family="sans-serif" font-size="13" lengthAdjust="spacing" textLength="39" x="610" y="708.4951">vehicle</text><text fill="#000000" font-family="sans-serif" font-size="13" lengthAdjust="spacing" textLength="7" x="641.4805" y="685.2045">1</text><text fill="#000000" font-family="sans-serif" font-size="13" lengthAdjust="spacing" textLength="5" x="550.3166" y="731.3143">*</text></g><!--link MaintenanceRepository to MaintenanceReport--><g id="link_MaintenanceRepository_MaintenanceReport"><path codeLine="71" d="M769.8,664.16 C804.09,708.06 853.99,771.92 889.16,816.95 " fill="none" id="MaintenanceRepository-to-MaintenanceReport" style="stroke:#181818;stroke-width:1.0;"/><polygon fill="#181818" points="892.31,820.98,889.9348,811.4219,889.2373,817.0355,883.6236,816.3381,892.31,820.98" style="stroke:#181818;stroke-width:1.0;"/><text fill="#000000" font-family="sans-serif" font-size="13" lengthAdjust="spacing" textLength="112" x="802" y="708.4951">maintenanceReport</text><text fill="#000000" font-family="sans-serif" font-size="13" lengthAdjust="spacing" textLength="7" x="767.3228" y="685.2045">1</text><text fill="#000000" font-family="sans-serif" font-size="13" lengthAdjust="spacing" textLength="5" x="881.5177" y="810.2825">*</text></g><!--SRC=[lLMnRjim4Dtv5KGckQK3T1KABmaA6As3eaRTfGj3NMKY5AcGT0iXoB-NL2YP4gcs2P1wCApZkxltUATdSyTbIpLjS4lP7QrXRpi1M0EpLDO2a1a1vaWhzOlB6l-WmiGdWal0jci1jqfq_WcXK0vVQQ0MTfHB2v9A1b-WLThkEsEXmG-82MeC_iIDZJ1Vjm_e4UNFhfIqMWa1scLZzrdZdt3aJFIL3RTAToK-p4C1sao93F1TBepwdBUOvIKKeQtn1CkUvllGThDAIcfxLZIsu6164LmQwy7bvFZ_AAp1RaFxOfKXq2EIXXwQPz7ZinsBrHALyNQIalCvH_ST8XjqJizM7qiqywda1fLeDZS0bTly25gaPABXJvvVQuq2AcXpuWxRcnBlhNPCXz2jfhAQ1njLWPW7_VixZmLgduKZdk2fXc_0wwCZNQdJhVEAS59hPKp-Y9sq1ca_DlC3okvFtCsAAtdTD_FV8z_p7NpGS7y2oTn6kzWmgN0JHNG1PAASJ3MJYLgIrKao2Wd-BZFgIAgBv1MHPIqhFzY59TPsNE2AMZePnPzVYwVxIPSkBaEMA_ZVJozNuj3uydApxCresRLzNkmmfVktYVncOexhzHmxsEHV6koUuu99oujt5uT_STnSuhCwfrxdAlI5tWmCoc4wAEziBqnm-7GjojGVqUDl]--></g></svg>