<?xml version="1.0" encoding="UTF-8" standalone="no"?><svg xmlns="http://www.w3.org/2000/svg" xmlns:xlink="http://www.w3.org/1999/xlink" contentStyleType="text/css" height="552px" preserveAspectRatio="none" style="width:1136px;height:552px;background:#FFFFFF;" version="1.1" viewBox="0 0 1136 552" width="1136px" zoomAndPan="magnify"><defs/><g><rect fill="#FFFFFF" height="392.2188" style="stroke:#181818;stroke-width:1.0;" width="10" x="260" y="87.5703"/><rect fill="#FFFFFF" height="284.1641" style="stroke:#181818;stroke-width:1.0;" width="10" x="265" y="151.2734"/><rect fill="#FFFFFF" height="30.3516" style="stroke:#181818;stroke-width:1.0;" width="10" x="525" y="186.625"/><rect fill="#FFFFFF" height="30.3516" style="stroke:#181818;stroke-width:1.0;" width="10" x="632" y="247.3281"/><rect fill="#FFFFFF" height="91.0547" style="stroke:#181818;stroke-width:1.0;" width="10" x="774" y="308.0313"/><rect fill="#FFFFFF" height="30.3516" style="stroke:#181818;stroke-width:1.0;" width="10" x="1044" y="338.3828"/><rect fill="none" height="347.8672" style="stroke:#000000;stroke-width:1.5;" width="966.5" x="163.5" y="102.5703"/><line style="stroke:#181818;stroke-width:0.5;stroke-dasharray:5.0,5.0;" x1="264.5" x2="264.5" y1="55.2188" y2="497.7891"/><line style="stroke:#181818;stroke-width:0.5;stroke-dasharray:5.0,5.0;" x1="529.5" x2="529.5" y1="55.2188" y2="497.7891"/><line style="stroke:#181818;stroke-width:0.5;stroke-dasharray:5.0,5.0;" x1="636.5" x2="636.5" y1="55.2188" y2="497.7891"/><line style="stroke:#181818;stroke-width:0.5;stroke-dasharray:5.0,5.0;" x1="778.5" x2="778.5" y1="55.2188" y2="497.7891"/><line style="stroke:#181818;stroke-width:0.5;stroke-dasharray:5.0,5.0;" x1="1049" x2="1049" y1="55.2188" y2="497.7891"/><rect fill="#E3E3E3" height="31.6094" rx="2.5" ry="2.5" style="stroke:#181818;stroke-width:0.5;" width="183" x="173.5" y="22.6094"/><text fill="#000000" font-family="sans-serif" font-size="14" lengthAdjust="spacing" textLength="169" x="180.5" y="44.1426">:ListMaintenanceController</text><rect fill="#E3E3E3" height="31.6094" rx="2.5" ry="2.5" style="stroke:#181818;stroke-width:0.5;" width="183" x="173.5" y="496.7891"/><text fill="#000000" font-family="sans-serif" font-size="14" lengthAdjust="spacing" textLength="169" x="180.5" y="518.3223">:ListMaintenanceController</text><rect fill="#E3E3E3" height="31.6094" rx="2.5" ry="2.5" style="stroke:#181818;stroke-width:0.5;" width="97" x="481.5" y="22.6094"/><text fill="#000000" font-family="sans-serif" font-size="14" lengthAdjust="spacing" textLength="83" x="488.5" y="44.1426">:Repositories</text><rect fill="#E3E3E3" height="31.6094" rx="2.5" ry="2.5" style="stroke:#181818;stroke-width:0.5;" width="97" x="481.5" y="496.7891"/><text fill="#000000" font-family="sans-serif" font-size="14" lengthAdjust="spacing" textLength="83" x="488.5" y="518.3223">:Repositories</text><rect fill="#E3E3E3" height="49.2188" rx="2.5" ry="2.5" style="stroke:#181818;stroke-width:0.5;" width="97" x="588.5" y="5"/><text fill="#000000" font-family="sans-serif" font-size="14" lengthAdjust="spacing" textLength="74" x="600" y="26.5332">repositories</text><text fill="#000000" font-family="sans-serif" font-size="14" lengthAdjust="spacing" textLength="83" x="595.5" y="44.1426">:Repositories</text><rect fill="#E3E3E3" height="49.2188" rx="2.5" ry="2.5" style="stroke:#181818;stroke-width:0.5;" width="97" x="588.5" y="496.7891"/><text fill="#000000" font-family="sans-serif" font-size="14" lengthAdjust="spacing" textLength="74" x="600" y="518.3223">repositories</text><text fill="#000000" font-family="sans-serif" font-size="14" lengthAdjust="spacing" textLength="83" x="595.5" y="535.9316">:Repositories</text><rect fill="#E3E3E3" height="49.2188" rx="2.5" ry="2.5" style="stroke:#181818;stroke-width:0.5;" width="167" x="695.5" y="5"/><text fill="#000000" font-family="sans-serif" font-size="14" lengthAdjust="spacing" textLength="153" x="702.5" y="26.5332">maintenanceRepository:</text><text fill="#000000" font-family="sans-serif" font-size="14" lengthAdjust="spacing" textLength="149" x="704.5" y="44.1426">MaintenanceRepository</text><rect fill="#E3E3E3" height="49.2188" rx="2.5" ry="2.5" style="stroke:#181818;stroke-width:0.5;" width="167" x="695.5" y="496.7891"/><text fill="#000000" font-family="sans-serif" font-size="14" lengthAdjust="spacing" textLength="153" x="702.5" y="518.3223">maintenanceRepository:</text><text fill="#000000" font-family="sans-serif" font-size="14" lengthAdjust="spacing" textLength="149" x="704.5" y="535.9316">MaintenanceRepository</text><rect fill="#E3E3E3" height="49.2188" rx="2.5" ry="2.5" style="stroke:#181818;stroke-width:0.5;" width="142" x="978" y="5"/><text fill="#000000" font-family="sans-serif" font-size="14" lengthAdjust="spacing" textLength="124" x="987" y="26.5332">maintenanceReport</text><text fill="#000000" font-family="sans-serif" font-size="14" lengthAdjust="spacing" textLength="128" x="985" y="44.1426">:MaintenanceReport</text><rect fill="#E3E3E3" height="49.2188" rx="2.5" ry="2.5" style="stroke:#181818;stroke-width:0.5;" width="142" x="978" y="496.7891"/><text fill="#000000" font-family="sans-serif" font-size="14" lengthAdjust="spacing" textLength="124" x="987" y="518.3223">maintenanceReport</text><text fill="#000000" font-family="sans-serif" font-size="14" lengthAdjust="spacing" textLength="128" x="985" y="535.9316">:MaintenanceReport</text><rect fill="#FFFFFF" height="392.2188" style="stroke:#181818;stroke-width:1.0;" width="10" x="260" y="87.5703"/><rect fill="#FFFFFF" height="284.1641" style="stroke:#181818;stroke-width:1.0;" width="10" x="265" y="151.2734"/><rect fill="#FFFFFF" height="30.3516" style="stroke:#181818;stroke-width:1.0;" width="10" x="525" y="186.625"/><rect fill="#FFFFFF" height="30.3516" style="stroke:#181818;stroke-width:1.0;" width="10" x="632" y="247.3281"/><rect fill="#FFFFFF" height="91.0547" style="stroke:#181818;stroke-width:1.0;" width="10" x="774" y="308.0313"/><rect fill="#FFFFFF" height="30.3516" style="stroke:#181818;stroke-width:1.0;" width="10" x="1044" y="338.3828"/><polygon fill="#181818" points="248,83.5703,258,87.5703,248,91.5703,252,87.5703" style="stroke:#181818;stroke-width:1.0;"/><line style="stroke:#181818;stroke-width:1.0;" x1="0" x2="254" y1="87.5703" y2="87.5703"/><text fill="#000000" font-family="sans-serif" font-size="13" font-weight="bold" lengthAdjust="spacing" textLength="14" x="7" y="82.7139">11</text><text fill="#000000" font-family="sans-serif" font-size="13" lengthAdjust="spacing" textLength="223" x="25" y="82.7139">createMaintenanceReport(vehiclesList)</text><path d="M163.5,102.5703 L382.5,102.5703 L382.5,110.9219 L372.5,120.9219 L163.5,120.9219 L163.5,102.5703 " fill="#EEEEEE" style="stroke:#000000;stroke-width:1.5;"/><rect fill="none" height="347.8672" style="stroke:#000000;stroke-width:1.5;" width="966.5" x="163.5" y="102.5703"/><text fill="#000000" font-family="sans-serif" font-size="13" font-weight="bold" lengthAdjust="spacing" textLength="174" x="178.5" y="117.0654">Create Maintenance Report</text><line style="stroke:#181818;stroke-width:1.0;" x1="270" x2="317" y1="138.2734" y2="138.2734"/><line style="stroke:#181818;stroke-width:1.0;" x1="317" x2="317" y1="138.2734" y2="151.2734"/><line style="stroke:#181818;stroke-width:1.0;" x1="276" x2="317" y1="151.2734" y2="151.2734"/><polygon fill="#181818" points="286,147.2734,276,151.2734,286,155.2734,282,151.2734" style="stroke:#181818;stroke-width:1.0;"/><text fill="#000000" font-family="sans-serif" font-size="13" font-weight="bold" lengthAdjust="spacing" textLength="14" x="282" y="133.417">12</text><text fill="#000000" font-family="sans-serif" font-size="13" lengthAdjust="spacing" textLength="223" x="300" y="133.417">createMaintenanceReport(vehiclesList)</text><polygon fill="#181818" points="513,182.625,523,186.625,513,190.625,517,186.625" style="stroke:#181818;stroke-width:1.0;"/><line style="stroke:#181818;stroke-width:1.0;" x1="275" x2="519" y1="186.625" y2="186.625"/><text fill="#000000" font-family="sans-serif" font-size="13" font-weight="bold" lengthAdjust="spacing" textLength="14" x="282" y="181.7686">13</text><text fill="#000000" font-family="sans-serif" font-size="13" lengthAdjust="spacing" textLength="75" x="300" y="181.7686">getInstance()</text><polygon fill="#181818" points="286,212.9766,276,216.9766,286,220.9766,282,216.9766" style="stroke:#181818;stroke-width:1.0;"/><line style="stroke:#181818;stroke-width:1.0;stroke-dasharray:2.0,2.0;" x1="280" x2="529" y1="216.9766" y2="216.9766"/><text fill="#000000" font-family="sans-serif" font-size="13" font-weight="bold" lengthAdjust="spacing" textLength="14" x="292" y="212.1201">14</text><text fill="#000000" font-family="sans-serif" font-size="13" lengthAdjust="spacing" textLength="67" x="310" y="212.1201">repositories</text><polygon fill="#181818" points="620,243.3281,630,247.3281,620,251.3281,624,247.3281" style="stroke:#181818;stroke-width:1.0;"/><line style="stroke:#181818;stroke-width:1.0;" x1="275" x2="626" y1="247.3281" y2="247.3281"/><text fill="#000000" font-family="sans-serif" font-size="13" font-weight="bold" lengthAdjust="spacing" textLength="14" x="282" y="242.4717">15</text><text fill="#000000" font-family="sans-serif" font-size="13" lengthAdjust="spacing" textLength="162" x="300" y="242.4717">getMaintenanceRepository()</text><polygon fill="#181818" points="286,273.6797,276,277.6797,286,281.6797,282,277.6797" style="stroke:#181818;stroke-width:1.0;"/><line style="stroke:#181818;stroke-width:1.0;stroke-dasharray:2.0,2.0;" x1="280" x2="636" y1="277.6797" y2="277.6797"/><text fill="#000000" font-family="sans-serif" font-size="13" font-weight="bold" lengthAdjust="spacing" textLength="14" x="292" y="272.8232">16</text><text fill="#000000" font-family="sans-serif" font-size="13" lengthAdjust="spacing" textLength="136" x="310" y="272.8232">MaintenanceRepository</text><polygon fill="#181818" points="762,304.0313,772,308.0313,762,312.0313,766,308.0313" style="stroke:#181818;stroke-width:1.0;"/><line style="stroke:#181818;stroke-width:1.0;" x1="275" x2="768" y1="308.0313" y2="308.0313"/><text fill="#000000" font-family="sans-serif" font-size="13" font-weight="bold" lengthAdjust="spacing" textLength="14" x="282" y="303.1748">17</text><text fill="#000000" font-family="sans-serif" font-size="13" lengthAdjust="spacing" textLength="223" x="300" y="303.1748">createMaintenanceReport(vehiclesList)</text><polygon fill="#181818" points="1032,334.3828,1042,338.3828,1032,342.3828,1036,338.3828" style="stroke:#181818;stroke-width:1.0;"/><line style="stroke:#181818;stroke-width:1.0;" x1="784" x2="1038" y1="338.3828" y2="338.3828"/><text fill="#000000" font-family="sans-serif" font-size="13" font-weight="bold" lengthAdjust="spacing" textLength="14" x="791" y="333.5264">18</text><text fill="#000000" font-family="sans-serif" font-size="13" lengthAdjust="spacing" textLength="223" x="809" y="333.5264">createMaintenanceReport(vehiclesList)</text><polygon fill="#181818" points="795,364.7344,785,368.7344,795,372.7344,791,368.7344" style="stroke:#181818;stroke-width:1.0;"/><line style="stroke:#181818;stroke-width:1.0;stroke-dasharray:2.0,2.0;" x1="789" x2="1048" y1="368.7344" y2="368.7344"/><text fill="#000000" font-family="sans-serif" font-size="13" font-weight="bold" lengthAdjust="spacing" textLength="14" x="801" y="363.8779">19</text><text fill="#000000" font-family="sans-serif" font-size="13" lengthAdjust="spacing" textLength="112" x="819" y="363.8779">maintenanceReport</text><polygon fill="#181818" points="286,395.0859,276,399.0859,286,403.0859,282,399.0859" style="stroke:#181818;stroke-width:1.0;"/><line style="stroke:#181818;stroke-width:1.0;stroke-dasharray:2.0,2.0;" x1="280" x2="778" y1="399.0859" y2="399.0859"/><text fill="#000000" font-family="sans-serif" font-size="13" font-weight="bold" lengthAdjust="spacing" textLength="14" x="292" y="394.2295">20</text><text fill="#000000" font-family="sans-serif" font-size="13" lengthAdjust="spacing" textLength="112" x="310" y="394.2295">maintenanceReport</text><line style="stroke:#181818;stroke-width:1.0;stroke-dasharray:2.0,2.0;" x1="275" x2="317" y1="434.4375" y2="434.4375"/><line style="stroke:#181818;stroke-width:1.0;stroke-dasharray:2.0,2.0;" x1="317" x2="317" y1="434.4375" y2="447.4375"/><line style="stroke:#181818;stroke-width:1.0;stroke-dasharray:2.0,2.0;" x1="270" x2="317" y1="447.4375" y2="447.4375"/><polygon fill="#181818" points="280,443.4375,270,447.4375,280,451.4375,276,447.4375" style="stroke:#181818;stroke-width:1.0;"/><text fill="#000000" font-family="sans-serif" font-size="13" font-weight="bold" lengthAdjust="spacing" textLength="14" x="282" y="429.5811">21</text><text fill="#000000" font-family="sans-serif" font-size="13" lengthAdjust="spacing" textLength="112" x="300" y="429.5811">maintenanceReport</text><polygon fill="#181818" points="11,475.7891,1,479.7891,11,483.7891,7,479.7891" style="stroke:#181818;stroke-width:1.0;"/><line style="stroke:#181818;stroke-width:1.0;stroke-dasharray:2.0,2.0;" x1="5" x2="264" y1="479.7891" y2="479.7891"/><text fill="#000000" font-family="sans-serif" font-size="13" font-weight="bold" lengthAdjust="spacing" textLength="14" x="17" y="474.9326">13</text><text fill="#000000" font-family="sans-serif" font-size="13" lengthAdjust="spacing" textLength="77" x="35" y="474.9326">taskCategory</text><!--SRC=[fLIzRi8m4Dxp52Sc639KtQAgKiLK2QGA65dSS0qMYHtP5ohUlev3Y4CSAnHlNFpzdO_J9ovAfbW1XHGoFIfP892gCDAtBoLBJop3BLro18KfCP7bxWLzP0VvoqK6FopN64McJ3pb9HC4isJ5DQqP5uI2YHINKf2IUOvg1ap3ShTPtG4sM4hDIIgEsjwv5IvRNckJ57s8SX1xCIJuMdti-eYYCzIn9tknzjKjX_TBa5IHyRA-h_d854KHgqoiglX61IylKVnkEmC9f0ePuG0mF-EHfpdgkhqB0q-9dyt5fg5WJgPaLSBImbr1Q1NXUgpGeuBWENqFtYkkdkTPZNo6z2aqrSBpnIZ7JSet6wEe-lXKuslw1Dn96gKvuF_as-3rE3P9lKCr9RQTw61EAz85yu_lX8HXfJQIb_wfOUh5zRiFvlSx6bfLzBJDa5NtZpR1fd4J1zevs311RkSL7t0rqhXkGKmtCMuWz8BDJ3sgvsXrwmV5eTc3pKztnxxQobiSjpB4z6bfu9arDg3x0m00]--></g></svg>