<?xml version="1.0" encoding="UTF-8" standalone="no"?><svg xmlns="http://www.w3.org/2000/svg" xmlns:xlink="http://www.w3.org/1999/xlink" contentStyleType="text/css" height="356px" preserveAspectRatio="none" style="width:693px;height:356px;background:#FFFFFF;" version="1.1" viewBox="0 0 693 356" width="693px" zoomAndPan="magnify"><defs/><g><rect fill="#FFFFFF" height="99.0547" style="stroke:#181818;stroke-width:1.0;" width="10" x="260" y="87.5703"/><rect fill="#FFFFFF" height="37.3516" style="stroke:#181818;stroke-width:1.0;" width="10" x="260" y="246.8438"/><rect fill="#FFFFFF" height="50.2188" style="stroke:#181818;stroke-width:1.0;" width="10" x="601" y="196.625"/><rect fill="none" height="152.2734" style="stroke:#000000;stroke-width:1.5;" width="515.5" x="171.5" y="102.5703"/><line style="stroke:#181818;stroke-width:0.5;stroke-dasharray:5.0,5.0;" x1="264.5" x2="264.5" y1="55.2188" y2="302.1953"/><line style="stroke:#181818;stroke-width:0.5;stroke-dasharray:5.0,5.0;" x1="606" x2="606" y1="204.3828" y2="302.1953"/><rect fill="#E3E3E3" height="49.2188" rx="2.5" ry="2.5" style="stroke:#181818;stroke-width:0.5;" width="167" x="181.5" y="5"/><text fill="#000000" font-family="sans-serif" font-size="14" lengthAdjust="spacing" textLength="153" x="188.5" y="26.5332">maintenanceRepository:</text><text fill="#000000" font-family="sans-serif" font-size="14" lengthAdjust="spacing" textLength="149" x="190.5" y="44.1426">MaintenanceRepository</text><rect fill="#E3E3E3" height="49.2188" rx="2.5" ry="2.5" style="stroke:#181818;stroke-width:0.5;" width="167" x="181.5" y="301.1953"/><text fill="#000000" font-family="sans-serif" font-size="14" lengthAdjust="spacing" textLength="153" x="188.5" y="322.7285">maintenanceRepository:</text><text fill="#000000" font-family="sans-serif" font-size="14" lengthAdjust="spacing" textLength="149" x="190.5" y="340.3379">MaintenanceRepository</text><rect fill="#E3E3E3" height="49.2188" rx="2.5" ry="2.5" style="stroke:#181818;stroke-width:0.5;" width="142" x="535" y="301.1953"/><text fill="#000000" font-family="sans-serif" font-size="14" lengthAdjust="spacing" textLength="124" x="544" y="322.7285">maintenanceReport</text><text fill="#000000" font-family="sans-serif" font-size="14" lengthAdjust="spacing" textLength="128" x="542" y="340.3379">:MaintenanceReport</text><rect fill="#FFFFFF" height="99.0547" style="stroke:#181818;stroke-width:1.0;" width="10" x="260" y="87.5703"/><rect fill="#FFFFFF" height="37.3516" style="stroke:#181818;stroke-width:1.0;" width="10" x="260" y="246.8438"/><rect fill="#FFFFFF" height="50.2188" style="stroke:#181818;stroke-width:1.0;" width="10" x="601" y="196.625"/><polygon fill="#181818" points="248,83.5703,258,87.5703,248,91.5703,252,87.5703" style="stroke:#181818;stroke-width:1.0;"/><line style="stroke:#181818;stroke-width:1.0;" x1="0" x2="254" y1="87.5703" y2="87.5703"/><text fill="#000000" font-family="sans-serif" font-size="13" font-weight="bold" lengthAdjust="spacing" textLength="14" x="7" y="82.7139">11</text><text fill="#000000" font-family="sans-serif" font-size="13" lengthAdjust="spacing" textLength="223" x="25" y="82.7139">createMaintenanceReport(vehiclesList)</text><path d="M171.5,102.5703 L390.5,102.5703 L390.5,110.9219 L380.5,120.9219 L171.5,120.9219 L171.5,102.5703 " fill="#EEEEEE" style="stroke:#000000;stroke-width:1.5;"/><rect fill="none" height="152.2734" style="stroke:#000000;stroke-width:1.5;" width="515.5" x="171.5" y="102.5703"/><text fill="#000000" font-family="sans-serif" font-size="13" font-weight="bold" lengthAdjust="spacing" textLength="174" x="186.5" y="117.0654">Create Maintenance Report</text><line style="stroke:#181818;stroke-width:1.0;" x1="270" x2="312" y1="143.2734" y2="143.2734"/><line style="stroke:#181818;stroke-width:1.0;" x1="312" x2="312" y1="143.2734" y2="156.2734"/><line style="stroke:#181818;stroke-width:1.0;" x1="271" x2="312" y1="156.2734" y2="156.2734"/><polygon fill="#181818" points="281,152.2734,271,156.2734,281,160.2734,277,156.2734" style="stroke:#181818;stroke-width:1.0;"/><text fill="#000000" font-family="sans-serif" font-size="13" font-weight="bold" lengthAdjust="spacing" textLength="14" x="277" y="138.417">12</text><text fill="#000000" font-family="sans-serif" font-size="13" lengthAdjust="spacing" textLength="257" x="295" y="138.417">getVehiclesNeedingMaintenance(vehicleList)</text><polygon fill="#181818" points="523,182.625,533,186.625,523,190.625,527,186.625" style="stroke:#181818;stroke-width:1.0;"/><line style="stroke:#181818;stroke-width:1.0;" x1="265" x2="529" y1="186.625" y2="186.625"/><text fill="#000000" font-family="sans-serif" font-size="13" font-weight="bold" lengthAdjust="spacing" textLength="14" x="272" y="181.7686">13</text><text fill="#000000" font-family="sans-serif" font-size="13" lengthAdjust="spacing" textLength="223" x="290" y="181.7686">createMaintenanceReport(vehiclesList)</text><rect fill="#E3E3E3" height="49.2188" rx="2.5" ry="2.5" style="stroke:#181818;stroke-width:0.5;" width="142" x="535" y="164.2734"/><text fill="#000000" font-family="sans-serif" font-size="14" lengthAdjust="spacing" textLength="124" x="544" y="185.8066">maintenanceReport</text><text fill="#000000" font-family="sans-serif" font-size="14" lengthAdjust="spacing" textLength="128" x="542" y="203.416">:MaintenanceReport</text><polygon fill="#181818" points="281,242.8438,271,246.8438,281,250.8438,277,246.8438" style="stroke:#181818;stroke-width:1.0;"/><line style="stroke:#181818;stroke-width:1.0;stroke-dasharray:2.0,2.0;" x1="275" x2="605" y1="246.8438" y2="246.8438"/><text fill="#000000" font-family="sans-serif" font-size="13" font-weight="bold" lengthAdjust="spacing" textLength="14" x="287" y="241.9873">14</text><text fill="#000000" font-family="sans-serif" font-size="13" lengthAdjust="spacing" textLength="116" x="305" y="241.9873">maintenance Report</text><polygon fill="#181818" points="11,280.1953,1,284.1953,11,288.1953,7,284.1953" style="stroke:#181818;stroke-width:1.0;"/><line style="stroke:#181818;stroke-width:1.0;stroke-dasharray:2.0,2.0;" x1="5" x2="264" y1="284.1953" y2="284.1953"/><text fill="#000000" font-family="sans-serif" font-size="13" font-weight="bold" lengthAdjust="spacing" textLength="14" x="17" y="279.3389">13</text><text fill="#000000" font-family="sans-serif" font-size="13" lengthAdjust="spacing" textLength="112" x="35" y="279.3389">maintenanceReport</text><!--SRC=[bP8_JyD03CNt-nHM9wYKeMAB40ihPG29gOkvcCkfEL_aSuhwxOcQ1aKq__1eltl-wVdIqNEDWW52v6XBYO50fI6JVYSrsYCwUjTpHI1a5TbLGq4giOZVdXryOPN8cBQjtleQMM4JqBCI8rjwepechr7E-O7tO_qDO8BHoQofw87p_T_Uc9ceCTXev2Pyai1kPxAdyOMGWnL2fHk7knELtbQKNdpIUuDM_QdLJN0RQCj9R6fullWDTT0pmRN6KQOOSt2a7rUQLwAYFS90s8DsdF_U8GhRxTeKUlE25lBeXLEocJHQe6pcNE4srsMguReLvCH5TypkrV0hFLmwZrcs1h1VlHYN-G40]--></g></svg>