<?xml version="1.0" encoding="UTF-8" standalone="no"?><svg xmlns="http://www.w3.org/2000/svg" xmlns:xlink="http://www.w3.org/1999/xlink" contentStyleType="text/css" height="258px" preserveAspectRatio="none" style="width:341px;height:258px;background:#FFFFFF;" version="1.1" viewBox="0 0 341 258" width="341px" zoomAndPan="magnify"><defs/><g><!--class AnalyseParkEquipmentUsageUI--><g id="elem_AnalyseParkEquipmentUsageUI"><rect codeLine="7" fill="#F1F1F1" height="83.2188" id="AnalyseParkEquipmentUsageUI" rx="2.5" ry="2.5" style="stroke:#181818;stroke-width:0.5;" width="230" x="55.5" y="7"/><ellipse cx="70.5" cy="23" fill="#ADD1B2" rx="11" ry="11" style="stroke:#181818;stroke-width:1.0;"/><path d="M73.2656,18.875 Q73.4219,18.6563 73.6094,18.5469 Q73.7969,18.4375 74.0156,18.4375 Q74.3906,18.4375 74.625,18.7031 Q74.8594,18.9531 74.8594,19.5625 L74.8594,21.0156 Q74.8594,21.625 74.625,21.8906 Q74.3906,22.1563 74.0156,22.1563 Q73.6719,22.1563 73.4688,21.9531 Q73.2656,21.7656 73.1563,21.25 Q73.1094,20.8906 72.9219,20.7031 Q72.5938,20.3281 71.9844,20.1094 Q71.375,19.8906 70.75,19.8906 Q69.9844,19.8906 69.3438,20.2188 Q68.7188,20.5469 68.2188,21.2969 Q67.7344,22.0469 67.7344,23.0781 L67.7344,24.1719 Q67.7344,25.4063 68.625,26.2344 Q69.5156,27.0469 71.1094,27.0469 Q72.0469,27.0469 72.7031,26.7969 Q73.0938,26.6406 73.5156,26.2031 Q73.7813,25.9375 73.9219,25.8594 Q74.0781,25.7813 74.2813,25.7813 Q74.6094,25.7813 74.8594,26.0469 Q75.125,26.2969 75.125,26.6406 Q75.125,26.9844 74.7813,27.3906 Q74.2813,27.9688 73.4844,28.2969 Q72.4063,28.75 71.1094,28.75 Q69.5938,28.75 68.3906,28.125 Q67.4063,27.625 66.7188,26.5625 Q66.0313,25.4844 66.0313,24.2031 L66.0313,23.0469 Q66.0313,21.7188 66.6406,20.5781 Q67.2656,19.4219 68.3594,18.8125 Q69.4531,18.1875 70.6875,18.1875 Q71.4219,18.1875 72.0625,18.3594 Q72.7188,18.5156 73.2656,18.875 Z " fill="#000000"/><text fill="#000000" font-family="sans-serif" font-size="14" lengthAdjust="spacing" textLength="198" x="84.5" y="28.7285">AnalyseParkEquipmentUsageUI</text><line style="stroke:#181818;stroke-width:0.5;" x1="56.5" x2="284.5" y1="39" y2="39"/><line style="stroke:#181818;stroke-width:0.5;" x1="56.5" x2="284.5" y1="47" y2="47"/><ellipse cx="66.5" cy="61.3047" fill="#84BE84" rx="3" ry="3" style="stroke:#038048;stroke-width:1.0;"/><text fill="#000000" font-family="sans-serif" font-size="14" lengthAdjust="spacing" textLength="114" x="75.5" y="65.5332">uploadFile() : void</text><ellipse cx="66.5" cy="78.9141" fill="#84BE84" rx="3" ry="3" style="stroke:#038048;stroke-width:1.0;"/><text fill="#000000" font-family="sans-serif" font-size="14" lengthAdjust="spacing" textLength="97" x="75.5" y="83.1426">execute() : void</text></g><!--class AnalyseParkEquipmentUsageController--><g id="elem_AnalyseParkEquipmentUsageController"><rect codeLine="12" fill="#F1F1F1" height="83.2188" id="AnalyseParkEquipmentUsageController" rx="2.5" ry="2.5" style="stroke:#181818;stroke-width:0.5;" width="327" x="7" y="168"/><ellipse cx="43.15" cy="184" fill="#ADD1B2" rx="11" ry="11" style="stroke:#181818;stroke-width:1.0;"/><path d="M45.9156,179.875 Q46.0719,179.6563 46.2594,179.5469 Q46.4469,179.4375 46.6656,179.4375 Q47.0406,179.4375 47.275,179.7031 Q47.5094,179.9531 47.5094,180.5625 L47.5094,182.0156 Q47.5094,182.625 47.275,182.8906 Q47.0406,183.1563 46.6656,183.1563 Q46.3219,183.1563 46.1188,182.9531 Q45.9156,182.7656 45.8063,182.25 Q45.7594,181.8906 45.5719,181.7031 Q45.2438,181.3281 44.6344,181.1094 Q44.025,180.8906 43.4,180.8906 Q42.6344,180.8906 41.9938,181.2188 Q41.3688,181.5469 40.8688,182.2969 Q40.3844,183.0469 40.3844,184.0781 L40.3844,185.1719 Q40.3844,186.4063 41.275,187.2344 Q42.1656,188.0469 43.7594,188.0469 Q44.6969,188.0469 45.3531,187.7969 Q45.7438,187.6406 46.1656,187.2031 Q46.4313,186.9375 46.5719,186.8594 Q46.7281,186.7813 46.9313,186.7813 Q47.2594,186.7813 47.5094,187.0469 Q47.775,187.2969 47.775,187.6406 Q47.775,187.9844 47.4313,188.3906 Q46.9313,188.9688 46.1344,189.2969 Q45.0563,189.75 43.7594,189.75 Q42.2438,189.75 41.0406,189.125 Q40.0563,188.625 39.3688,187.5625 Q38.6813,186.4844 38.6813,185.2031 L38.6813,184.0469 Q38.6813,182.7188 39.2906,181.5781 Q39.9156,180.4219 41.0094,179.8125 Q42.1031,179.1875 43.3375,179.1875 Q44.0719,179.1875 44.7125,179.3594 Q45.3688,179.5156 45.9156,179.875 Z " fill="#000000"/><text fill="#000000" font-family="sans-serif" font-size="14" lengthAdjust="spacing" textLength="248" x="61.85" y="189.7285">AnalyseParkEquipmentUsageController</text><line style="stroke:#181818;stroke-width:0.5;" x1="8" x2="333" y1="200" y2="200"/><line style="stroke:#181818;stroke-width:0.5;" x1="8" x2="333" y1="208" y2="208"/><ellipse cx="18" cy="222.3047" fill="#84BE84" rx="3" ry="3" style="stroke:#038048;stroke-width:1.0;"/><text fill="#000000" font-family="sans-serif" font-size="14" lengthAdjust="spacing" textLength="301" x="27" y="226.5332">checksFormattingErrors(filename : String) : void</text><ellipse cx="18" cy="239.9141" fill="#84BE84" rx="3" ry="3" style="stroke:#038048;stroke-width:1.0;"/><text fill="#000000" font-family="sans-serif" font-size="14" lengthAdjust="spacing" textLength="258" x="27" y="244.1426">runsPythonScript(filename : String) : void</text></g><!--link AnalyseParkEquipmentUsageUI to AnalyseParkEquipmentUsageController--><g id="link_AnalyseParkEquipmentUsageUI_AnalyseParkEquipmentUsageController"><path codeLine="17" d="M170.5,90.03 C170.5,112.19 170.5,139.71 170.5,162.64 " fill="none" id="AnalyseParkEquipmentUsageUI-to-AnalyseParkEquipmentUsageController" style="stroke:#181818;stroke-width:1.0;"/><polygon fill="#181818" points="170.5,167.76,174.5,158.76,170.5,162.76,166.5,158.76,170.5,167.76" style="stroke:#181818;stroke-width:1.0;"/><text fill="#000000" font-family="sans-serif" font-size="13" lengthAdjust="spacing" textLength="28" x="171.5" y="134.4951">uses</text></g><!--SRC=[ZK_DIWD13BxFK-HcHVe2FGWYBNWhB7s0C9lT7JOx6PEiEeZlxXIa50_LtF9zoVTZSye55HSe66SSgVFA14hHCOzCmIu7Dc4lxocFC23RDSCfazT2K8JhUGdXZcbmS05Du-JGfxDYaXn2P3I3funSZOwey_vrJMMXx2Th_gSN-0pGvW7MmeBz8J5jxc47RvBw7uO-AAv-1N_zgViisLMOII_wSQ8usq5qGVVMQwygQfkX6MPSg6bthWt_PQvhjcFrIN8NDHM_yT1YtIgwtJx-A_0ELYCBtm00]--></g></svg>