<?xml version="1.0" encoding="UTF-8" standalone="no"?><svg xmlns="http://www.w3.org/2000/svg" xmlns:xlink="http://www.w3.org/1999/xlink" contentStyleType="text/css" height="455px" preserveAspectRatio="none" style="width:715px;height:455px;background:#FFFFFF;" version="1.1" viewBox="0 0 715 455" width="715px" zoomAndPan="magnify"><defs/><g><rect fill="#FFFFFF" height="263.1641" style="stroke:#181818;stroke-width:1.0;" width="10" x="18.5" y="92.6094"/><rect fill="#FFFFFF" height="133.6641" style="stroke:#181818;stroke-width:1.0;" width="10" x="317.5" y="114.9609"/><rect fill="#FFFFFF" height="30.3516" style="stroke:#181818;stroke-width:1.0;" width="10" x="317.5" y="325.4219"/><rect fill="#FFFFFF" height="76.7969" style="stroke:#181818;stroke-width:1.0;" width="10" x="568.5" y="248.625"/><line style="stroke:#181818;stroke-width:0.5;stroke-dasharray:5.0,5.0;" x1="23" x2="23" y1="82.6094" y2="373.7734"/><line style="stroke:#181818;stroke-width:0.5;stroke-dasharray:5.0,5.0;" x1="322.5" x2="322.5" y1="82.6094" y2="373.7734"/><line style="stroke:#181818;stroke-width:0.5;stroke-dasharray:5.0,5.0;" x1="573.5" x2="573.5" y1="154.2656" y2="373.7734"/><text fill="#000000" font-family="sans-serif" font-size="14" lengthAdjust="spacing" textLength="31" x="5" y="79.5332">GSM</text><ellipse cx="23.5" cy="13.5" fill="#E3E3E3" rx="8" ry="8" style="stroke:#181818;stroke-width:0.5;"/><path d="M23.5,21.5 L23.5,48.5 M10.5,29.5 L36.5,29.5 M23.5,48.5 L10.5,63.5 M23.5,48.5 L36.5,63.5 " fill="none" style="stroke:#181818;stroke-width:0.5;"/><text fill="#000000" font-family="sans-serif" font-size="14" lengthAdjust="spacing" textLength="31" x="5" y="387.3066">GSM</text><ellipse cx="23.5" cy="398.8828" fill="#E3E3E3" rx="8" ry="8" style="stroke:#181818;stroke-width:0.5;"/><path d="M23.5,406.8828 L23.5,433.8828 M10.5,414.8828 L36.5,414.8828 M23.5,433.8828 L10.5,448.8828 M23.5,433.8828 L36.5,448.8828 " fill="none" style="stroke:#181818;stroke-width:0.5;"/><rect fill="#E3E3E3" height="31.6094" rx="2.5" ry="2.5" style="stroke:#181818;stroke-width:0.5;" width="216" x="214.5" y="50"/><text fill="#000000" font-family="sans-serif" font-size="14" lengthAdjust="spacing" textLength="202" x="221.5" y="71.5332">:AnalyseParkEquipmentUsageUI</text><rect fill="#E3E3E3" height="31.6094" rx="2.5" ry="2.5" style="stroke:#181818;stroke-width:0.5;" width="216" x="214.5" y="372.7734"/><text fill="#000000" font-family="sans-serif" font-size="14" lengthAdjust="spacing" textLength="202" x="221.5" y="394.3066">:AnalyseParkEquipmentUsageUI</text><rect fill="#E3E3E3" height="31.6094" rx="2.5" ry="2.5" style="stroke:#181818;stroke-width:0.5;" width="266" x="440.5" y="372.7734"/><text fill="#000000" font-family="sans-serif" font-size="14" lengthAdjust="spacing" textLength="252" x="447.5" y="394.3066">:AnalyseParkEquipmentUsageController</text><rect fill="#FFFFFF" height="263.1641" style="stroke:#181818;stroke-width:1.0;" width="10" x="18.5" y="92.6094"/><rect fill="#FFFFFF" height="133.6641" style="stroke:#181818;stroke-width:1.0;" width="10" x="317.5" y="114.9609"/><rect fill="#FFFFFF" height="30.3516" style="stroke:#181818;stroke-width:1.0;" width="10" x="317.5" y="325.4219"/><rect fill="#FFFFFF" height="76.7969" style="stroke:#181818;stroke-width:1.0;" width="10" x="568.5" y="248.625"/><polygon fill="#181818" points="305.5,110.9609,315.5,114.9609,305.5,118.9609,309.5,114.9609" style="stroke:#181818;stroke-width:1.0;"/><line style="stroke:#181818;stroke-width:1.0;" x1="28.5" x2="311.5" y1="114.9609" y2="114.9609"/><text fill="#000000" font-family="sans-serif" font-size="13" font-weight="bold" lengthAdjust="spacing" textLength="7" x="35.5" y="110.1045">1</text><text fill="#000000" font-family="sans-serif" font-size="13" lengthAdjust="spacing" textLength="201" x="46.5" y="110.1045">wants to analyze equipment usage</text><polygon fill="#181818" points="428.5,141.3125,438.5,145.3125,428.5,149.3125,432.5,145.3125" style="stroke:#181818;stroke-width:1.0;"/><line style="stroke:#181818;stroke-width:1.0;" x1="327.5" x2="434.5" y1="145.3125" y2="145.3125"/><text fill="#000000" font-family="sans-serif" font-size="13" font-weight="bold" lengthAdjust="spacing" textLength="7" x="334.5" y="140.4561">2</text><text fill="#000000" font-family="sans-serif" font-size="13" lengthAdjust="spacing" textLength="43" x="345.5" y="140.4561">creates</text><rect fill="#E3E3E3" height="31.6094" rx="2.5" ry="2.5" style="stroke:#181818;stroke-width:0.5;" width="266" x="440.5" y="122.9609"/><text fill="#000000" font-family="sans-serif" font-size="14" lengthAdjust="spacing" textLength="252" x="447.5" y="144.4941">:AnalyseParkEquipmentUsageController</text><polygon fill="#181818" points="39.5,183.9219,29.5,187.9219,39.5,191.9219,35.5,187.9219" style="stroke:#181818;stroke-width:1.0;"/><line style="stroke:#181818;stroke-width:1.0;stroke-dasharray:2.0,2.0;" x1="33.5" x2="316.5" y1="187.9219" y2="187.9219"/><text fill="#000000" font-family="sans-serif" font-size="13" font-weight="bold" lengthAdjust="spacing" textLength="7" x="45.5" y="183.0654">3</text><text fill="#000000" font-family="sans-serif" font-size="13" lengthAdjust="spacing" textLength="254" x="56.5" y="183.0654">asks to upload the file (EquipmentUsed.csv)</text><polygon fill="#181818" points="305.5,214.2734,315.5,218.2734,305.5,222.2734,309.5,218.2734" style="stroke:#181818;stroke-width:1.0;"/><line style="stroke:#181818;stroke-width:1.0;" x1="28.5" x2="311.5" y1="218.2734" y2="218.2734"/><text fill="#000000" font-family="sans-serif" font-size="13" font-weight="bold" lengthAdjust="spacing" textLength="7" x="35.5" y="213.417">4</text><text fill="#000000" font-family="sans-serif" font-size="13" lengthAdjust="spacing" textLength="199" x="46.5" y="213.417">gives the file path (uploads the file)</text><polygon fill="#181818" points="556.5,244.625,566.5,248.625,556.5,252.625,560.5,248.625" style="stroke:#181818;stroke-width:1.0;"/><line style="stroke:#181818;stroke-width:1.0;" x1="322.5" x2="562.5" y1="248.625" y2="248.625"/><text fill="#000000" font-family="sans-serif" font-size="13" font-weight="bold" lengthAdjust="spacing" textLength="7" x="329.5" y="243.7686">5</text><text fill="#000000" font-family="sans-serif" font-size="13" lengthAdjust="spacing" textLength="77" x="340.5" y="243.7686">sends the file</text><rect fill="none" height="41.4453" style="stroke:#000000;stroke-width:1.5;" width="272" x="437.5" y="256.625"/><path d="M437.5,256.625 L499.5,256.625 L499.5,264.625 L489.5,274.625 L437.5,274.625 L437.5,256.625 " fill="#EEEEEE" style="stroke:#000000;stroke-width:2.0;"/><text fill="#000000" font-family="sans-serif" font-size="13" font-weight="bold" lengthAdjust="spacing" textLength="17" x="450.5" y="272.1201">ref</text><text fill="#000000" font-family="sans-serif" font-size="12" lengthAdjust="spacing" textLength="87" x="530" y="291.082">Create pie chart</text><polygon fill="#181818" points="338.5,321.4219,328.5,325.4219,338.5,329.4219,334.5,325.4219" style="stroke:#181818;stroke-width:1.0;"/><line style="stroke:#181818;stroke-width:1.0;stroke-dasharray:2.0,2.0;" x1="332.5" x2="572.5" y1="325.4219" y2="325.4219"/><text fill="#000000" font-family="sans-serif" font-size="13" font-weight="bold" lengthAdjust="spacing" textLength="7" x="344.5" y="320.5654">6</text><text fill="#000000" font-family="sans-serif" font-size="13" lengthAdjust="spacing" textLength="50" x="355.5" y="320.5654">pie chart</text><polygon fill="#181818" points="34.5,351.7734,24.5,355.7734,34.5,359.7734,30.5,355.7734" style="stroke:#181818;stroke-width:1.0;"/><line style="stroke:#181818;stroke-width:1.0;stroke-dasharray:2.0,2.0;" x1="28.5" x2="321.5" y1="355.7734" y2="355.7734"/><text fill="#000000" font-family="sans-serif" font-size="13" font-weight="bold" lengthAdjust="spacing" textLength="7" x="40.5" y="350.917">7</text><text fill="#000000" font-family="sans-serif" font-size="13" lengthAdjust="spacing" textLength="113" x="51.5" y="350.917">shows the pie chart</text><!--SRC=[ZP51QiCm44NtFiMGLH983-15eOHI0YsKfZd0L1xRmhAaQcI7zFGTAyHMInSr64kQ-Uz_ZxZJrcF07dfddMg3wmbY6AZWkU9HTTZGCLuCGI0LqJOcR-0MAtVMje4Q3LDHu12T7VeF2h9MqGLOFHrVLe0CyYr45RNI7cs4LVbWqLoONZ5qZv-3zZtPU68nF1sIudJuhs3lR0pE60f9k7z_Uqx-UiH8oLbUsDqB4aeu2uqXEi29zqL0DnWC4srHIW9HY6uYRhUYLO6amEbOpYTiAPPTuWtUEAmWjWIrbf6jivHKtIaUDp-2D7eaNjeznXRMLyXolCaYY8R9PiMYeZpil4uJ25I36obSTv0z-_GNu3M1QcN4Sr7WSj5raSnsjvnBNsQNeBydDO-4MtU-nlnJBEtPRhgWRm00]--></g></svg>