<?xml version="1.0" encoding="UTF-8" standalone="no"?><svg xmlns="http://www.w3.org/2000/svg" xmlns:xlink="http://www.w3.org/1999/xlink" contentStyleType="text/css" height="652px" preserveAspectRatio="none" style="width:885px;height:652px;background:#FFFFFF;" version="1.1" viewBox="0 0 885 652" width="885px" zoomAndPan="magnify"><defs/><g><rect fill="#FFFFFF" height="468.3672" style="stroke:#181818;stroke-width:1.0;" width="10" x="18.5" y="92.6094"/><rect fill="#FFFFFF" height="133.6641" style="stroke:#181818;stroke-width:1.0;" width="10" x="297.5" y="114.9609"/><rect fill="#FFFFFF" height="30.3516" style="stroke:#181818;stroke-width:1.0;" width="10" x="297.5" y="521.625"/><rect fill="#FFFFFF" height="119.4063" style="stroke:#181818;stroke-width:1.0;" width="10" x="460" y="248.625"/><rect fill="#FFFFFF" height="76.7969" style="stroke:#181818;stroke-width:1.0;" width="10" x="460" y="444.8281"/><rect fill="#FFFFFF" height="76.7969" style="stroke:#181818;stroke-width:1.0;" width="10" x="809.5" y="368.0313"/><line style="stroke:#181818;stroke-width:0.5;stroke-dasharray:5.0,5.0;" x1="23" x2="23" y1="82.6094" y2="569.9766"/><line style="stroke:#181818;stroke-width:0.5;stroke-dasharray:5.0,5.0;" x1="302" x2="302" y1="82.6094" y2="569.9766"/><line style="stroke:#181818;stroke-width:0.5;stroke-dasharray:5.0,5.0;" x1="464.5" x2="464.5" y1="154.2656" y2="569.9766"/><line style="stroke:#181818;stroke-width:0.5;stroke-dasharray:5.0,5.0;" x1="609.5" x2="609.5" y1="287.9297" y2="569.9766"/><line style="stroke:#181818;stroke-width:0.5;stroke-dasharray:5.0,5.0;" x1="705.5" x2="705.5" y1="82.6094" y2="569.9766"/><line style="stroke:#181818;stroke-width:0.5;stroke-dasharray:5.0,5.0;" x1="814.5" x2="814.5" y1="82.6094" y2="569.9766"/><text fill="#000000" font-family="sans-serif" font-size="14" lengthAdjust="spacing" textLength="31" x="5" y="79.5332">GSM</text><ellipse cx="23.5" cy="13.5" fill="#E3E3E3" rx="8" ry="8" style="stroke:#181818;stroke-width:0.5;"/><path d="M23.5,21.5 L23.5,48.5 M10.5,29.5 L36.5,29.5 M23.5,48.5 L10.5,63.5 M23.5,48.5 L36.5,63.5 " fill="none" style="stroke:#181818;stroke-width:0.5;"/><text fill="#000000" font-family="sans-serif" font-size="14" lengthAdjust="spacing" textLength="31" x="5" y="583.5098">GSM</text><ellipse cx="23.5" cy="595.0859" fill="#E3E3E3" rx="8" ry="8" style="stroke:#181818;stroke-width:0.5;"/><path d="M23.5,603.0859 L23.5,630.0859 M10.5,611.0859 L36.5,611.0859 M23.5,630.0859 L10.5,645.0859 M23.5,630.0859 L36.5,645.0859 " fill="none" style="stroke:#181818;stroke-width:0.5;"/><rect fill="#E3E3E3" height="31.6094" rx="2.5" ry="2.5" style="stroke:#181818;stroke-width:0.5;" width="123" x="241" y="50"/><text fill="#000000" font-family="sans-serif" font-size="14" lengthAdjust="spacing" textLength="109" x="248" y="71.5332">:WaterIrrigationUI</text><rect fill="#E3E3E3" height="31.6094" rx="2.5" ry="2.5" style="stroke:#181818;stroke-width:0.5;" width="123" x="241" y="568.9766"/><text fill="#000000" font-family="sans-serif" font-size="14" lengthAdjust="spacing" textLength="109" x="248" y="590.5098">:WaterIrrigationUI</text><rect fill="#E3E3E3" height="31.6094" rx="2.5" ry="2.5" style="stroke:#181818;stroke-width:0.5;" width="173" x="378.5" y="568.9766"/><text fill="#000000" font-family="sans-serif" font-size="14" lengthAdjust="spacing" textLength="159" x="385.5" y="590.5098">:WaterIrrigationController</text><rect fill="#E3E3E3" height="31.6094" rx="2.5" ry="2.5" style="stroke:#181818;stroke-width:0.5;" width="97" x="561.5" y="568.9766"/><text fill="#000000" font-family="sans-serif" font-size="14" lengthAdjust="spacing" textLength="83" x="568.5" y="590.5098">:ExternalCSV</text><rect fill="#E3E3E3" height="31.6094" rx="2.5" ry="2.5" style="stroke:#181818;stroke-width:0.5;" width="74" x="668.5" y="50"/><text fill="#000000" font-family="sans-serif" font-size="14" lengthAdjust="spacing" textLength="60" x="675.5" y="71.5332">:Graphviz</text><rect fill="#E3E3E3" height="31.6094" rx="2.5" ry="2.5" style="stroke:#181818;stroke-width:0.5;" width="74" x="668.5" y="568.9766"/><text fill="#000000" font-family="sans-serif" font-size="14" lengthAdjust="spacing" textLength="60" x="675.5" y="590.5098">:Graphviz</text><rect fill="#E3E3E3" height="31.6094" rx="2.5" ry="2.5" style="stroke:#181818;stroke-width:0.5;" width="124" x="752.5" y="50"/><text fill="#000000" font-family="sans-serif" font-size="14" lengthAdjust="spacing" textLength="110" x="759.5" y="71.5332">:KruskalAlgorithm</text><rect fill="#E3E3E3" height="31.6094" rx="2.5" ry="2.5" style="stroke:#181818;stroke-width:0.5;" width="124" x="752.5" y="568.9766"/><text fill="#000000" font-family="sans-serif" font-size="14" lengthAdjust="spacing" textLength="110" x="759.5" y="590.5098">:KruskalAlgorithm</text><rect fill="#FFFFFF" height="468.3672" style="stroke:#181818;stroke-width:1.0;" width="10" x="18.5" y="92.6094"/><rect fill="#FFFFFF" height="133.6641" style="stroke:#181818;stroke-width:1.0;" width="10" x="297.5" y="114.9609"/><rect fill="#FFFFFF" height="30.3516" style="stroke:#181818;stroke-width:1.0;" width="10" x="297.5" y="521.625"/><rect fill="#FFFFFF" height="119.4063" style="stroke:#181818;stroke-width:1.0;" width="10" x="460" y="248.625"/><rect fill="#FFFFFF" height="76.7969" style="stroke:#181818;stroke-width:1.0;" width="10" x="460" y="444.8281"/><rect fill="#FFFFFF" height="76.7969" style="stroke:#181818;stroke-width:1.0;" width="10" x="809.5" y="368.0313"/><polygon fill="#181818" points="285.5,110.9609,295.5,114.9609,285.5,118.9609,289.5,114.9609" style="stroke:#181818;stroke-width:1.0;"/><line style="stroke:#181818;stroke-width:1.0;" x1="28.5" x2="291.5" y1="114.9609" y2="114.9609"/><text fill="#000000" font-family="sans-serif" font-size="13" font-weight="bold" lengthAdjust="spacing" textLength="7" x="35.5" y="110.1045">1</text><text fill="#000000" font-family="sans-serif" font-size="13" lengthAdjust="spacing" textLength="239" x="46.5" y="110.1045">wants to calculate the minimum cost tree</text><polygon fill="#181818" points="366.5,141.3125,376.5,145.3125,366.5,149.3125,370.5,145.3125" style="stroke:#181818;stroke-width:1.0;"/><line style="stroke:#181818;stroke-width:1.0;" x1="307.5" x2="372.5" y1="145.3125" y2="145.3125"/><text fill="#000000" font-family="sans-serif" font-size="13" font-weight="bold" lengthAdjust="spacing" textLength="7" x="314.5" y="140.4561">2</text><text fill="#000000" font-family="sans-serif" font-size="13" lengthAdjust="spacing" textLength="36" x="325.5" y="140.4561">create</text><rect fill="#E3E3E3" height="31.6094" rx="2.5" ry="2.5" style="stroke:#181818;stroke-width:0.5;" width="173" x="378.5" y="122.9609"/><text fill="#000000" font-family="sans-serif" font-size="14" lengthAdjust="spacing" textLength="159" x="385.5" y="144.4941">:WaterIrrigationController</text><polygon fill="#181818" points="39.5,183.9219,29.5,187.9219,39.5,191.9219,35.5,187.9219" style="stroke:#181818;stroke-width:1.0;"/><line style="stroke:#181818;stroke-width:1.0;stroke-dasharray:2.0,2.0;" x1="33.5" x2="296.5" y1="187.9219" y2="187.9219"/><text fill="#000000" font-family="sans-serif" font-size="13" font-weight="bold" lengthAdjust="spacing" textLength="7" x="45.5" y="183.0654">3</text><text fill="#000000" font-family="sans-serif" font-size="13" lengthAdjust="spacing" textLength="77" x="56.5" y="183.0654">asks for a file</text><polygon fill="#181818" points="285.5,214.2734,295.5,218.2734,285.5,222.2734,289.5,218.2734" style="stroke:#181818;stroke-width:1.0;"/><line style="stroke:#181818;stroke-width:1.0;" x1="28.5" x2="291.5" y1="218.2734" y2="218.2734"/><text fill="#000000" font-family="sans-serif" font-size="13" font-weight="bold" lengthAdjust="spacing" textLength="7" x="35.5" y="213.417">4</text><text fill="#000000" font-family="sans-serif" font-size="13" lengthAdjust="spacing" textLength="87" x="46.5" y="213.417">uploads the file</text><polygon fill="#181818" points="448,244.625,458,248.625,448,252.625,452,248.625" style="stroke:#181818;stroke-width:1.0;"/><line style="stroke:#181818;stroke-width:1.0;" x1="302.5" x2="454" y1="248.625" y2="248.625"/><text fill="#000000" font-family="sans-serif" font-size="13" font-weight="bold" lengthAdjust="spacing" textLength="7" x="309.5" y="243.7686">5</text><text fill="#000000" font-family="sans-serif" font-size="13" lengthAdjust="spacing" textLength="96" x="320.5" y="243.7686">gives the filepath</text><polygon fill="#181818" points="549.5,274.9766,559.5,278.9766,549.5,282.9766,553.5,278.9766" style="stroke:#181818;stroke-width:1.0;"/><line style="stroke:#181818;stroke-width:1.0;" x1="470" x2="555.5" y1="278.9766" y2="278.9766"/><text fill="#000000" font-family="sans-serif" font-size="13" font-weight="bold" lengthAdjust="spacing" textLength="7" x="477" y="274.1201">6</text><text fill="#000000" font-family="sans-serif" font-size="13" lengthAdjust="spacing" textLength="36" x="488" y="274.1201">create</text><rect fill="#E3E3E3" height="31.6094" rx="2.5" ry="2.5" style="stroke:#181818;stroke-width:0.5;" width="97" x="561.5" y="256.625"/><text fill="#000000" font-family="sans-serif" font-size="14" lengthAdjust="spacing" textLength="83" x="568.5" y="278.1582">:ExternalCSV</text><rect fill="none" height="41.4453" style="stroke:#000000;stroke-width:1.5;" width="179" x="375.5" y="299.2344"/><path d="M375.5,299.2344 L437.5,299.2344 L437.5,307.2344 L427.5,317.2344 L375.5,317.2344 L375.5,299.2344 " fill="#EEEEEE" style="stroke:#000000;stroke-width:2.0;"/><text fill="#000000" font-family="sans-serif" font-size="13" font-weight="bold" lengthAdjust="spacing" textLength="17" x="388.5" y="314.7295">ref</text><text fill="#000000" font-family="sans-serif" font-size="12" lengthAdjust="spacing" textLength="96" x="417" y="333.6914">imports all routes</text><polygon fill="#181818" points="797.5,364.0313,807.5,368.0313,797.5,372.0313,801.5,368.0313" style="stroke:#181818;stroke-width:1.0;"/><line style="stroke:#181818;stroke-width:1.0;" x1="465" x2="803.5" y1="368.0313" y2="368.0313"/><text fill="#000000" font-family="sans-serif" font-size="13" font-weight="bold" lengthAdjust="spacing" textLength="7" x="472" y="363.1748">7</text><text fill="#000000" font-family="sans-serif" font-size="13" lengthAdjust="spacing" textLength="99" x="483" y="363.1748">asks to calculate</text><rect fill="none" height="41.4453" style="stroke:#000000;stroke-width:1.5;" width="130" x="749.5" y="376.0313"/><path d="M749.5,376.0313 L811.5,376.0313 L811.5,384.0313 L801.5,394.0313 L749.5,394.0313 L749.5,376.0313 " fill="#EEEEEE" style="stroke:#000000;stroke-width:2.0;"/><text fill="#000000" font-family="sans-serif" font-size="13" font-weight="bold" lengthAdjust="spacing" textLength="17" x="762.5" y="391.5264">ref</text><text fill="#000000" font-family="sans-serif" font-size="12" lengthAdjust="spacing" textLength="80" x="774.5" y="410.4883">calculates mst</text><polygon fill="#181818" points="481,440.8281,471,444.8281,481,448.8281,477,444.8281" style="stroke:#181818;stroke-width:1.0;"/><line style="stroke:#181818;stroke-width:1.0;" x1="475" x2="813.5" y1="444.8281" y2="444.8281"/><text fill="#000000" font-family="sans-serif" font-size="13" font-weight="bold" lengthAdjust="spacing" textLength="7" x="487" y="439.9717">8</text><text fill="#000000" font-family="sans-serif" font-size="13" lengthAdjust="spacing" textLength="102" x="498" y="439.9717">MST list of routes</text><rect fill="none" height="41.4453" style="stroke:#000000;stroke-width:1.5;" width="188" x="375.5" y="452.8281"/><path d="M375.5,452.8281 L437.5,452.8281 L437.5,460.8281 L427.5,470.8281 L375.5,470.8281 L375.5,452.8281 " fill="#EEEEEE" style="stroke:#000000;stroke-width:2.0;"/><text fill="#000000" font-family="sans-serif" font-size="13" font-weight="bold" lengthAdjust="spacing" textLength="17" x="388.5" y="468.3232">ref</text><text fill="#000000" font-family="sans-serif" font-size="12" lengthAdjust="spacing" textLength="180" x="379.5" y="487.2852">executes Graphviz and writes csv</text><polygon fill="#181818" points="318.5,517.625,308.5,521.625,318.5,525.625,314.5,521.625" style="stroke:#181818;stroke-width:1.0;"/><line style="stroke:#181818;stroke-width:1.0;stroke-dasharray:2.0,2.0;" x1="312.5" x2="464" y1="521.625" y2="521.625"/><text fill="#000000" font-family="sans-serif" font-size="13" font-weight="bold" lengthAdjust="spacing" textLength="7" x="324.5" y="516.7686">9</text><text fill="#000000" font-family="sans-serif" font-size="13" lengthAdjust="spacing" textLength="28" x="335.5" y="516.7686">done</text><polygon fill="#181818" points="39.5,547.9766,29.5,551.9766,39.5,555.9766,35.5,551.9766" style="stroke:#181818;stroke-width:1.0;"/><line style="stroke:#181818;stroke-width:1.0;stroke-dasharray:2.0,2.0;" x1="33.5" x2="301.5" y1="551.9766" y2="551.9766"/><text fill="#000000" font-family="sans-serif" font-size="13" font-weight="bold" lengthAdjust="spacing" textLength="14" x="45.5" y="547.1201">10</text><text fill="#000000" font-family="sans-serif" font-size="13" lengthAdjust="spacing" textLength="106" x="63.5" y="547.1201">operation success</text><!--SRC=[VL91Zjim3Bph5KGk1HR81t9Oe0YAHT3kfTcqPwxCs88bqQ1a9-thIyknr_LXSqX2QJZ36IgrBdOe621mPDi81u8iFPcqt7HeMwpfdFzu0Y6RCTP-3KWDLdnpiOOh-aJ6O9yvzk6Tn9WlZQi8hipvdUy6RMQ1tSlvTGUOG7-DScHdNOSnm-xm6pF9ISJLc1t7owdWBgVFOKUEMTXxaW8_lltyiMduTjU6YFvu_bKWfBMM6zIBODSCxc-1r6En0NoNFhNel_gQnUKc562RMcz6QsxGiOefer-mVzR1uG0txKsG6Inws_iHank2uA8BVG3BAMlcH1yKwlTosZ-FFfwUbC4AwR6UmLv9H-w32hT9SnL0k3hTnrgnxpnZbOfCkPpPzAvs0ttST9WRKz5QUVbVOYnToli8R3sE4Re23oGJqeMEHOsYzo3SPqg6OcKMXZ6cUUvr66lvGhHK9TX5f5HBLuAGSX5OjHT8qL6zXz_Nynjufn7pTHvhs_6__COMtScENJ0_3i1OmKtNhsSs3PF95UNyj2RVyqegZfyurTWVsvsMonr9UTcGUciffSsEfiy_]--></g></svg>