<?xml version="1.0" encoding="UTF-8" standalone="no"?><svg xmlns="http://www.w3.org/2000/svg" xmlns:xlink="http://www.w3.org/1999/xlink" contentStyleType="text/css" height="184px" preserveAspectRatio="none" style="width:845px;height:184px;background:#FFFFFF;" version="1.1" viewBox="0 0 845 184" width="845px" zoomAndPan="magnify"><defs/><g><!--class HRM--><g id="elem_HRM"><rect codeLine="13" fill="#F1F1F1" height="35.6094" id="HRM" rx="2.5" ry="2.5" style="stroke:#181818;stroke-width:0.5;" width="36" x="7" y="84.5"/><text fill="#000000" font-family="sans-serif" font-size="14" lengthAdjust="spacing" textLength="30" x="10" y="104.0332">HRM</text><line style="stroke:#181818;stroke-width:0.5;" x1="8" x2="42" y1="112.1094" y2="112.1094"/></g><!--class Job--><g id="elem_Job"><rect codeLine="16" fill="#F1F1F1" height="70.8281" id="Job" rx="2.5" ry="2.5" style="stroke:#181818;stroke-width:0.5;" width="81" x="163" y="7"/><text fill="#000000" font-family="sans-serif" font-size="14" lengthAdjust="spacing" textLength="22" x="192.5" y="26.5332">Job</text><line style="stroke:#181818;stroke-width:0.5;" x1="164" x2="243" y1="34.6094" y2="34.6094"/><text fill="#000000" font-family="sans-serif" font-size="14" lengthAdjust="spacing" textLength="22" x="169" y="53.1426">title</text><text fill="#000000" font-family="sans-serif" font-size="14" lengthAdjust="spacing" textLength="69" x="169" y="70.752">description</text></g><!--class Collaborator--><g id="elem_Collaborator"><rect codeLine="21" fill="#F1F1F1" height="53.2188" id="Collaborator" rx="2.5" ry="2.5" style="stroke:#181818;stroke-width:0.5;" width="105" x="330" y="76"/><text fill="#000000" font-family="sans-serif" font-size="14" lengthAdjust="spacing" textLength="78" x="343.5" y="95.5332">Collaborator</text><line style="stroke:#181818;stroke-width:0.5;" x1="331" x2="434" y1="103.6094" y2="103.6094"/><text fill="#000000" font-family="sans-serif" font-size="14" lengthAdjust="spacing" textLength="93" x="336" y="122.1426">admissionDate</text></g><!--class Person--><g id="elem_Person"><rect codeLine="25" fill="#F1F1F1" height="88.4375" id="Person" rx="2.5" ry="2.5" style="stroke:#181818;stroke-width:0.5;" width="68" x="531" y="58.5"/><text fill="#000000" font-family="sans-serif" font-size="14" lengthAdjust="spacing" textLength="45" x="542.5" y="78.0332">Person</text><line style="stroke:#181818;stroke-width:0.5;" x1="532" x2="598" y1="86.1094" y2="86.1094"/><text fill="#000000" font-family="sans-serif" font-size="14" lengthAdjust="spacing" textLength="35" x="537" y="104.6426">name</text><text fill="#000000" font-family="sans-serif" font-size="14" lengthAdjust="spacing" textLength="56" x="537" y="122.252">birthdate</text><text fill="#000000" font-family="sans-serif" font-size="14" lengthAdjust="spacing" textLength="46" x="537" y="139.8613">contact</text></g><!--class Address--><g id="elem_Address"><rect codeLine="32" fill="#F1F1F1" height="70.8281" id="Address" rx="2.5" ry="2.5" style="stroke:#181818;stroke-width:0.5;" width="63" x="744" y="18"/><text fill="#000000" font-family="sans-serif" font-size="14" lengthAdjust="spacing" textLength="52" x="749.5" y="37.5332">Address</text><line style="stroke:#181818;stroke-width:0.5;" x1="745" x2="806" y1="45.6094" y2="45.6094"/><text fill="#000000" font-family="sans-serif" font-size="14" lengthAdjust="spacing" textLength="51" x="750" y="64.1426">zipCode</text><text fill="#000000" font-family="sans-serif" font-size="14" lengthAdjust="spacing" textLength="21" x="750" y="81.752">city</text></g><!--class DocumentType--><g id="elem_DocumentType"><rect codeLine="37" fill="#F1F1F1" height="53.2188" id="DocumentType" rx="2.5" ry="2.5" style="stroke:#181818;stroke-width:0.5;" width="125" x="713" y="124"/><text fill="#000000" font-family="sans-serif" font-size="14" lengthAdjust="spacing" textLength="96" x="727.5" y="143.5332">DocumentType</text><line style="stroke:#181818;stroke-width:0.5;" x1="714" x2="837" y1="151.6094" y2="151.6094"/><text fill="#000000" font-family="sans-serif" font-size="14" lengthAdjust="spacing" textLength="113" x="719" y="170.1426">identificationCode</text></g><!--link Person to Address--><g id="link_Person_Address"><path codeLine="42" d="M599.04,94.74 C638.88,85.37 705.31,69.76 743.99,60.67 " fill="none" id="Person-Address" style="stroke:#181818;stroke-width:1.0;"/><polygon fill="#000000" points="642.3674,64.5317,632.8898,63.7404,634.2347,69.4623,642.3674,64.5317" style="stroke:#000000;stroke-width:1.0;"/><text fill="#000000" font-family="sans-serif" font-size="13" lengthAdjust="spacing" textLength="32" x="646.5" y="70.9951">has a</text><text fill="#000000" font-family="sans-serif" font-size="13" lengthAdjust="spacing" textLength="7" x="606.7826" y="108.2758">1</text><text fill="#000000" font-family="sans-serif" font-size="13" lengthAdjust="spacing" textLength="7" x="728.8939" y="77.7337">1</text></g><!--link Collaborator to Person--><g id="link_Collaborator_Person"><path codeLine="43" d="M435.22,102.5 C465.96,102.5 504.02,102.5 530.77,102.5 " fill="none" id="Collaborator-Person" style="stroke:#181818;stroke-width:1.0;"/><polygon fill="#000000" points="475,93.6758,465.9549,90.7369,465.9549,96.6147,475,93.6758" style="stroke:#000000;stroke-width:1.0;"/><text fill="#000000" font-family="sans-serif" font-size="13" lengthAdjust="spacing" textLength="21" x="479" y="98.9951">is a</text><text fill="#000000" font-family="sans-serif" font-size="13" lengthAdjust="spacing" textLength="7" x="443.1259" y="117.1295">1</text><text fill="#000000" font-family="sans-serif" font-size="13" lengthAdjust="spacing" textLength="7" x="515.9882" y="117.6363">1</text></g><!--link Person to DocumentType--><g id="link_Person_DocumentType"><path codeLine="44" d="M599.04,110.11 C629.47,117.11 675.4,127.69 712.64,136.26 " fill="none" id="Person-DocumentType" style="stroke:#181818;stroke-width:1.0;"/><polygon fill="#000000" points="638.8726,109.7974,630.7173,104.9043,629.3987,110.6324,638.8726,109.7974" style="stroke:#000000;stroke-width:1.0;"/><text fill="#000000" font-family="sans-serif" font-size="13" lengthAdjust="spacing" textLength="39" x="643" y="113.9951">has an</text><text fill="#000000" font-family="sans-serif" font-size="13" lengthAdjust="spacing" textLength="7" x="606.7826" y="126.8158">1</text><text fill="#000000" font-family="sans-serif" font-size="13" lengthAdjust="spacing" textLength="7" x="697.9671" y="149.0413">1</text></g><!--link HRM to Collaborator--><g id="link_HRM_Collaborator"><path codeLine="45" d="M43.27,104.33 C69.23,106.99 119.85,111.77 163,113.5 C198.97,114.94 208.03,114.94 244,113.5 C272.48,112.36 304.19,109.91 329.98,107.6 " fill="none" id="HRM-Collaborator" style="stroke:#181818;stroke-width:1.0;"/><polygon fill="#000000" points="180.9997,104.7328,171.9887,101.6909,171.9217,107.5684,180.9997,104.7328" style="stroke:#000000;stroke-width:1.0;"/><text fill="#000000" font-family="sans-serif" font-size="13" lengthAdjust="spacing" textLength="50" x="185" y="109.9951">registers</text><text fill="#000000" font-family="sans-serif" font-size="13" lengthAdjust="spacing" textLength="20" x="50.8676" y="120.5667">1..*</text><text fill="#000000" font-family="sans-serif" font-size="13" lengthAdjust="spacing" textLength="20" x="301.9696" y="122.7821">1..*</text></g><!--link HRM to Job--><g id="link_HRM_Job"><path codeLine="46" d="M43.24,96.64 C70.74,87.29 125.24,68.76 162.76,56.01 " fill="none" id="HRM-Job" style="stroke:#181818;stroke-width:1.0;"/><polygon fill="#000000" points="82.7339,57.0665,73.2243,57.1952,75.1161,62.7603,82.7339,57.0665" style="stroke:#000000;stroke-width:1.0;"/><text fill="#000000" font-family="sans-serif" font-size="13" lengthAdjust="spacing" textLength="45" x="87" y="63.9951">assigns</text><text fill="#000000" font-family="sans-serif" font-size="13" lengthAdjust="spacing" textLength="7" x="50.9849" y="89.3297">1</text><text fill="#000000" font-family="sans-serif" font-size="13" lengthAdjust="spacing" textLength="7" x="147.8798" y="73.3832">1</text></g><!--link Job to Collaborator--><g id="link_Job_Collaborator"><path codeLine="47" d="M244.22,55.97 C269.5,64.53 302.5,75.72 329.81,84.98 " fill="none" id="Job-Collaborator" style="stroke:#181818;stroke-width:1.0;"/><polygon fill="#000000" points="283.7354,60.2808,276.1124,54.5939,274.2256,60.1607,283.7354,60.2808" style="stroke:#000000;stroke-width:1.0;"/><text fill="#000000" font-family="sans-serif" font-size="13" lengthAdjust="spacing" textLength="11" x="288" y="63.9951">to</text><text fill="#000000" font-family="sans-serif" font-size="13" lengthAdjust="spacing" textLength="7" x="252.0967" y="73.3361">1</text><text fill="#000000" font-family="sans-serif" font-size="13" lengthAdjust="spacing" textLength="20" x="302.1697" y="97.323">1..*</text></g><!--SRC=[RPB1QiCm38RlVWhHos3GiLvpA9Jsi0q6ezqBABQQY2Psi5H6E_RkivCiJM6vHBA-_vUKM4xiEupOGXjyi7KCBO76CncPAXtQ4rPqq4j34Cag-ggP0rAZ2r_iApXY8sHCGqS53H2vgXKSPn47RsOQsw38HZLoULPwjS4V-4hmR4pDZi1ojAb77xUaTN1YZEb5yB9_Xs_pyvU-XJAba1vbJPeSEH8RkUkRJk0sD0sM8QA6E2hGjIoIg1qgtSWFYXByo7Xi1zEIezOkWpbB4ojQDJVLnhb88eFgojqsk15blTomNR3dbhn-NZhAR5hHAn_POXwt5oNs0VRKz2TISoTc76cnMi1osR_6TWNKA82mDdVxpS11MW0FsEWq9-vcWj7H9pP_wiNgwUbnHFleha-HRaJ5eibquYVV_6iAI4jpvNCvvrFvFwzqPzRc5m00]--></g></svg>