<?xml version="1.0" encoding="UTF-8" standalone="no"?><svg xmlns="http://www.w3.org/2000/svg" xmlns:xlink="http://www.w3.org/1999/xlink" contentStyleType="text/css" height="184px" preserveAspectRatio="none" style="width:869px;height:184px;background:#FFFFFF;" version="1.1" viewBox="0 0 869 184" width="869px" zoomAndPan="magnify"><defs/><g><!--class HRM--><g id="elem_HRM"><rect codeLine="13" fill="#F1F1F1" height="35.6094" id="HRM" rx="2.5" ry="2.5" style="stroke:#181818;stroke-width:0.5;" width="36" x="7" y="84.5"/><text fill="#000000" font-family="sans-serif" font-size="14" lengthAdjust="spacing" textLength="30" x="10" y="104.0332">HRM</text><line style="stroke:#181818;stroke-width:0.5;" x1="8" x2="42" y1="112.1094" y2="112.1094"/></g><!--class Job--><g id="elem_Job"><rect codeLine="16" fill="#F1F1F1" height="70.8281" id="Job" rx="2.5" ry="2.5" style="stroke:#181818;stroke-width:0.5;" width="81" x="163" y="7"/><text fill="#000000" font-family="sans-serif" font-size="14" lengthAdjust="spacing" textLength="22" x="192.5" y="26.5332">Job</text><line style="stroke:#181818;stroke-width:0.5;" x1="164" x2="243" y1="34.6094" y2="34.6094"/><text fill="#000000" font-family="sans-serif" font-size="14" lengthAdjust="spacing" textLength="22" x="169" y="53.1426">title</text><text fill="#000000" font-family="sans-serif" font-size="14" lengthAdjust="spacing" textLength="69" x="169" y="70.752">description</text></g><!--class Collaborator--><g id="elem_Collaborator"><rect codeLine="21" fill="#F1F1F1" height="53.2188" id="Collaborator" rx="2.5" ry="2.5" style="stroke:#181818;stroke-width:0.5;" width="105" x="330" y="76"/><text fill="#000000" font-family="sans-serif" font-size="14" lengthAdjust="spacing" textLength="78" x="343.5" y="95.5332">Collaborator</text><line style="stroke:#181818;stroke-width:0.5;" x1="331" x2="434" y1="103.6094" y2="103.6094"/><text fill="#000000" font-family="sans-serif" font-size="14" lengthAdjust="spacing" textLength="93" x="336" y="122.1426">admissionDate</text></g><!--class Person--><g id="elem_Person"><rect codeLine="25" fill="#F1F1F1" height="106.0469" id="Person" rx="2.5" ry="2.5" style="stroke:#181818;stroke-width:0.5;" width="99" x="531" y="49.5"/><text fill="#000000" font-family="sans-serif" font-size="14" lengthAdjust="spacing" textLength="45" x="558" y="69.0332">Person</text><line style="stroke:#181818;stroke-width:0.5;" x1="532" x2="629" y1="77.1094" y2="77.1094"/><text fill="#000000" font-family="sans-serif" font-size="14" lengthAdjust="spacing" textLength="35" x="537" y="95.6426">name</text><text fill="#000000" font-family="sans-serif" font-size="14" lengthAdjust="spacing" textLength="56" x="537" y="113.252">birthdate</text><text fill="#000000" font-family="sans-serif" font-size="14" lengthAdjust="spacing" textLength="87" x="537" y="130.8613">contactMobile</text><text fill="#000000" font-family="sans-serif" font-size="14" lengthAdjust="spacing" textLength="33" x="537" y="148.4707">email</text></g><!--class Address--><g id="elem_Address"><rect codeLine="32" fill="#F1F1F1" height="70.8281" id="Address" rx="2.5" ry="2.5" style="stroke:#181818;stroke-width:0.5;" width="63" x="768" y="18"/><text fill="#000000" font-family="sans-serif" font-size="14" lengthAdjust="spacing" textLength="52" x="773.5" y="37.5332">Address</text><line style="stroke:#181818;stroke-width:0.5;" x1="769" x2="830" y1="45.6094" y2="45.6094"/><text fill="#000000" font-family="sans-serif" font-size="14" lengthAdjust="spacing" textLength="51" x="774" y="64.1426">zipCode</text><text fill="#000000" font-family="sans-serif" font-size="14" lengthAdjust="spacing" textLength="21" x="774" y="81.752">city</text></g><!--class DocumentType--><g id="elem_DocumentType"><rect codeLine="37" fill="#F1F1F1" height="53.2188" id="DocumentType" rx="2.5" ry="2.5" style="stroke:#181818;stroke-width:0.5;" width="125" x="737" y="124"/><text fill="#000000" font-family="sans-serif" font-size="14" lengthAdjust="spacing" textLength="96" x="751.5" y="143.5332">DocumentType</text><line style="stroke:#181818;stroke-width:0.5;" x1="738" x2="861" y1="151.6094" y2="151.6094"/><text fill="#000000" font-family="sans-serif" font-size="14" lengthAdjust="spacing" textLength="113" x="743" y="170.1426">identificationCode</text></g><!--link Person to Address--><g id="link_Person_Address"><path codeLine="42" d="M630.2,91.5 C672.31,81.99 731.9,68.54 767.71,60.45 " fill="none" id="Person-Address" style="stroke:#181818;stroke-width:1.0;"/><polygon fill="#000000" points="669.8772,64.5745,660.4069,63.7,661.7016,69.4335,669.8772,64.5745" style="stroke:#000000;stroke-width:1.0;"/><text fill="#000000" font-family="sans-serif" font-size="13" lengthAdjust="spacing" textLength="32" x="674" y="70.9951">has a</text><text fill="#000000" font-family="sans-serif" font-size="13" lengthAdjust="spacing" textLength="7" x="638.0138" y="104.5769">1</text><text fill="#000000" font-family="sans-serif" font-size="13" lengthAdjust="spacing" textLength="7" x="752.9903" y="77.2727">1</text></g><!--link Collaborator to Person--><g id="link_Collaborator_Person"><path codeLine="43" d="M435.25,102.5 C464.85,102.5 501.76,102.5 530.83,102.5 " fill="none" id="Collaborator-Person" style="stroke:#181818;stroke-width:1.0;"/><polygon fill="#000000" points="475,93.6758,465.9549,90.7369,465.9549,96.6147,475,93.6758" style="stroke:#000000;stroke-width:1.0;"/><text fill="#000000" font-family="sans-serif" font-size="13" lengthAdjust="spacing" textLength="21" x="479" y="98.9951">is a</text><text fill="#000000" font-family="sans-serif" font-size="13" lengthAdjust="spacing" textLength="7" x="443.1602" y="117.1295">1</text><text fill="#000000" font-family="sans-serif" font-size="13" lengthAdjust="spacing" textLength="7" x="516.0207" y="117.1925">1</text></g><!--link Person to DocumentType--><g id="link_Person_DocumentType"><path codeLine="44" d="M630.2,113.27 C661.69,120.24 702.95,129.36 736.74,136.84 " fill="none" id="Person-DocumentType" style="stroke:#181818;stroke-width:1.0;"/><polygon fill="#000000" points="675.382,112.7558,667.1852,107.9325,665.9156,113.6716,675.382,112.7558" style="stroke:#000000;stroke-width:1.0;"/><text fill="#000000" font-family="sans-serif" font-size="13" lengthAdjust="spacing" textLength="21" x="679.5" y="116.9951">has</text><text fill="#000000" font-family="sans-serif" font-size="13" lengthAdjust="spacing" textLength="7" x="638.0138" y="129.5443">1</text><text fill="#000000" font-family="sans-serif" font-size="13" lengthAdjust="spacing" textLength="20" x="708.7819" y="149.7233">1..*</text></g><!--link HRM to Collaborator--><g id="link_HRM_Collaborator"><path codeLine="45" d="M43.27,104.33 C69.23,106.99 119.85,111.77 163,113.5 C198.97,114.94 208.03,114.94 244,113.5 C272.48,112.36 304.19,109.91 329.98,107.6 " fill="none" id="HRM-Collaborator" style="stroke:#181818;stroke-width:1.0;"/><polygon fill="#000000" points="180.9997,104.7328,171.9887,101.6909,171.9217,107.5684,180.9997,104.7328" style="stroke:#000000;stroke-width:1.0;"/><text fill="#000000" font-family="sans-serif" font-size="13" lengthAdjust="spacing" textLength="50" x="185" y="109.9951">registers</text><text fill="#000000" font-family="sans-serif" font-size="13" lengthAdjust="spacing" textLength="20" x="50.8676" y="120.5667">1..*</text><text fill="#000000" font-family="sans-serif" font-size="13" lengthAdjust="spacing" textLength="20" x="301.9696" y="122.7821">1..*</text></g><!--link HRM to Job--><g id="link_HRM_Job"><path codeLine="46" d="M43.24,96.64 C70.74,87.29 125.24,68.76 162.76,56.01 " fill="none" id="HRM-Job" style="stroke:#181818;stroke-width:1.0;"/><polygon fill="#000000" points="82.7339,57.0665,73.2243,57.1952,75.1161,62.7603,82.7339,57.0665" style="stroke:#000000;stroke-width:1.0;"/><text fill="#000000" font-family="sans-serif" font-size="13" lengthAdjust="spacing" textLength="45" x="87" y="63.9951">assigns</text><text fill="#000000" font-family="sans-serif" font-size="13" lengthAdjust="spacing" textLength="7" x="50.9849" y="89.3297">1</text><text fill="#000000" font-family="sans-serif" font-size="13" lengthAdjust="spacing" textLength="7" x="147.8798" y="73.3832">1</text></g><!--link Job to Collaborator--><g id="link_Job_Collaborator"><path codeLine="47" d="M244.22,55.97 C269.5,64.53 302.5,75.72 329.81,84.98 " fill="none" id="Job-Collaborator" style="stroke:#181818;stroke-width:1.0;"/><polygon fill="#000000" points="283.7354,60.2808,276.1124,54.5939,274.2256,60.1607,283.7354,60.2808" style="stroke:#000000;stroke-width:1.0;"/><text fill="#000000" font-family="sans-serif" font-size="13" lengthAdjust="spacing" textLength="11" x="288" y="63.9951">to</text><text fill="#000000" font-family="sans-serif" font-size="13" lengthAdjust="spacing" textLength="7" x="252.0967" y="73.3361">1</text><text fill="#000000" font-family="sans-serif" font-size="13" lengthAdjust="spacing" textLength="20" x="302.1697" y="97.323">1..*</text></g><!--SRC=[NPB1QiCm38RlVWhHos3GiLrxA9Jsi0qAezqBABQQY3fsi5H6E_RkivEiQPTBBFlx_rzAB4SE7IPieOqXsYR5ba3JYOnSJpgqHwnfhsTFaCWgXjhV0jAWYrySQZYW5pB6qq518oIk6mN7HSGnc1kDzIYoKarSdPJUR0nxlX0y6zEm8x2SRCxerorf4vqOOteHlEwsy6r-_ihtMEKIygEiMLDMZiGcxlhGAxYEtcCL4sfCem9TooAPsg3IH7vGaXX69c0xc5QSj745B5NkMD7gDbOyXbABx2UJbNE9H0QJ2tVhw4Obwtd2Dj6UMWhwUUwei7dYe7nWYwNxNfJP1zYHxtUauKxCsE7iPGRpUVyQunRGe032qjoDUmCEqWNmW8rE4_7qz3Y3kxPWC5sQykL7O4BlSXRvWjGicasl_3Mv_Aa5vA6v3kMurFUn_xpo5LgQNm00]--></g></svg>