<?xml version="1.0" encoding="UTF-8" standalone="no"?><svg xmlns="http://www.w3.org/2000/svg" xmlns:xlink="http://www.w3.org/1999/xlink" contentStyleType="text/css" height="854px" preserveAspectRatio="none" style="width:530px;height:854px;background:#FFFFFF;" version="1.1" viewBox="0 0 530 854" width="530px" zoomAndPan="magnify"><defs/><g><text fill="#000000" font-family="sans-serif" font-size="14" font-weight="bold" lengthAdjust="spacing" textLength="176" x="170" y="24.5332">Global Use Case Diagram</text><!--cluster actors--><g id="cluster_actors"><rect fill="none" height="243" rx="2.5" ry="2.5" style="stroke:#181818;stroke-width:1.0;" width="103" x="7" y="364.6094"/><text fill="#000000" font-family="sans-serif" font-size="14" font-weight="bold" lengthAdjust="spacing" textLength="87" x="15" y="381.1426">System User</text></g><!--cluster usecases--><g id="cluster_usecases"><rect fill="none" height="803" rx="2.5" ry="2.5" style="stroke:#181818;stroke-width:1.0;" width="386" x="138" y="45.6094"/><text fill="#000000" font-family="sans-serif" font-size="14" font-weight="bold" lengthAdjust="spacing" textLength="74" x="294" y="62.1426">Use Cases</text></g><!--entity HRM--><g id="elem_HRM"><ellipse cx="58" cy="409.1094" fill="#F1F1F1" rx="8" ry="8" style="stroke:#181818;stroke-width:0.5;"/><path d="M58,417.1094 L58,444.1094 M45,425.1094 L71,425.1094 M58,444.1094 L45,459.1094 M58,444.1094 L71,459.1094 " fill="none" style="stroke:#181818;stroke-width:0.5;"/><text fill="#000000" font-family="sans-serif" font-size="14" lengthAdjust="spacing" textLength="30" x="43" y="475.1426">HRM</text></g><!--entity VFM--><g id="elem_VFM"><ellipse cx="58" cy="522.1094" fill="#F1F1F1" rx="8" ry="8" style="stroke:#181818;stroke-width:0.5;"/><path d="M58,530.1094 L58,557.1094 M45,538.1094 L71,538.1094 M58,557.1094 L45,572.1094 M58,557.1094 L71,572.1094 " fill="none" style="stroke:#181818;stroke-width:0.5;"/><text fill="#000000" font-family="sans-serif" font-size="14" lengthAdjust="spacing" textLength="29" x="43.5" y="588.1426">VFM</text></g><g id="elem_US001"><ellipse cx="330.7783" cy="112.465" fill="#F1F1F1" rx="139.7783" ry="30.3557" style="stroke:#181818;stroke-width:0.5;"/><text fill="#000000" font-family="sans-serif" font-size="14" lengthAdjust="spacing" textLength="247" x="207.2783" y="116.1936">US001 - Register Skills for Collaborator</text></g><g id="elem_US002"><ellipse cx="330.9382" cy="199.697" fill="#F1F1F1" rx="93.4382" ry="21.0876" style="stroke:#181818;stroke-width:0.5;"/><text fill="#000000" font-family="sans-serif" font-size="14" lengthAdjust="spacing" textLength="146" x="257.9382" y="203.4255">US002 - Register a Job</text></g><g id="elem_US003"><ellipse cx="330.8751" cy="292.6844" fill="#F1F1F1" rx="170.8751" ry="36.575" style="stroke:#181818;stroke-width:0.5;"/><text fill="#000000" font-family="sans-serif" font-size="14" lengthAdjust="spacing" textLength="312" x="174.8751" y="296.4129">US003 - Register a collaborator and his attributes</text></g><g id="elem_US004"><ellipse cx="331.1055" cy="391.8305" fill="#F1F1F1" rx="126.6055" ry="27.7211" style="stroke:#181818;stroke-width:0.5;"/><text fill="#000000" font-family="sans-serif" font-size="14" lengthAdjust="spacing" textLength="219" x="221.6055" y="395.559">US004 - Assign skills to employees</text></g><g id="elem_US005"><ellipse cx="331.156" cy="492.4406" fill="#F1F1F1" rx="177.156" ry="37.8312" style="stroke:#181818;stroke-width:0.5;"/><text fill="#000000" font-family="sans-serif" font-size="14" lengthAdjust="spacing" textLength="325" x="168.656" y="496.1691">US005 - Generate a new team, based on the needs</text></g><g id="elem_US006"><ellipse cx="330.9716" cy="599.7037" fill="#F1F1F1" rx="155.9716" ry="33.5943" style="stroke:#181818;stroke-width:0.5;"/><text fill="#000000" font-family="sans-serif" font-size="14" lengthAdjust="spacing" textLength="281" x="190.4716" y="603.4322">US006 - Register a vehicle with his attributes</text></g><g id="elem_US007"><ellipse cx="331.0829" cy="697.426" fill="#F1F1F1" rx="134.5829" ry="29.3166" style="stroke:#181818;stroke-width:0.5;"/><text fill="#000000" font-family="sans-serif" font-size="14" lengthAdjust="spacing" textLength="236" x="213.0829" y="701.1545">US007 - Schedule a vehicle check-up</text></g><g id="elem_US008"><ellipse cx="331.1497" cy="797.7393" fill="#F1F1F1" rx="163.6497" ry="35.1299" style="stroke:#181818;stroke-width:0.5;"/><text fill="#000000" font-family="sans-serif" font-size="14" lengthAdjust="spacing" textLength="297" x="182.6497" y="801.4678">US008 - See the vehicles that need a check-up</text></g><!--link HRM to US001--><g id="link_HRM_US001"><path d="M63.95,400.4594 C73.4,331.8494 96.15,193.9994 130,160.6094 C147.5,143.3394 170.06,131.8894 193.68,124.3794 " fill="none" id="HRM-to-US001" style="stroke:#181818;stroke-width:1.0;"/><polygon fill="#181818" points="198.74,122.8294,188.9651,121.6243,193.9568,124.2858,191.2953,129.2774,198.74,122.8294" style="stroke:#181818;stroke-width:1.0;"/></g><!--link HRM to US002--><g id="link_HRM_US002"><path d="M61.57,400.3094 C66.78,354.4194 82.51,279.5894 130,238.6094 C158.02,214.4294 196.53,203.4994 232.29,199.0294 " fill="none" id="HRM-to-US002" style="stroke:#181818;stroke-width:1.0;"/><polygon fill="#181818" points="237.54,198.4194,228.1338,195.4999,232.5743,199.0044,229.0698,203.445,237.54,198.4194" style="stroke:#181818;stroke-width:1.0;"/></g><!--link HRM to US003--><g id="link_HRM_US003"><path d="M73.17,412.4394 C85.48,391.4494 105.21,363.2494 130,346.6094 C148.67,334.0794 170.15,324.4394 191.95,317.0394 " fill="none" id="HRM-to-US003" style="stroke:#181818;stroke-width:1.0;"/><polygon fill="#181818" points="196.9,315.3994,187.0995,314.4242,192.1523,316.9677,189.6088,322.0205,196.9,315.3994" style="stroke:#181818;stroke-width:1.0;"/></g><!--link HRM to US004--><g id="link_HRM_US004"><path d="M73.19,437.0994 C101.84,432.0194 168.84,420.1494 227.22,409.8094 " fill="none" id="HRM-to-US004" style="stroke:#181818;stroke-width:1.0;"/><polygon fill="#181818" points="232.48,408.8794,222.921,406.5075,227.5564,409.7499,224.3139,414.3853,232.48,408.8794" style="stroke:#181818;stroke-width:1.0;"/></g><!--link HRM to US005--><g id="link_HRM_US005"><path d="M73.19,442.3794 C96.56,446.9594 145.47,456.5194 194.39,466.0894 " fill="none" id="HRM-to-US005" style="stroke:#181818;stroke-width:1.0;"/><polygon fill="#181818" points="199.43,467.0694,191.3638,461.4182,194.5227,466.1108,189.8301,469.2698,199.43,467.0694" style="stroke:#181818;stroke-width:1.0;"/></g><!--link VFM to US006--><g id="link_VFM_US006"><path d="M72.81,555.0094 C97.58,559.2994 151.85,568.7094 204.18,577.7894 " fill="none" id="VFM-to-US006" style="stroke:#181818;stroke-width:1.0;"/><polygon fill="#181818" points="209.24,578.6694,201.0585,573.1865,204.3139,577.8127,199.6877,581.0682,209.24,578.6694" style="stroke:#181818;stroke-width:1.0;"/></g><!--link VFM to US007--><g id="link_VFM_US007"><path d="M72.67,581.4694 C84.7,603.7194 104.29,633.4994 130,650.6094 C152.64,665.6794 179.54,675.9394 206.15,682.9294 " fill="none" id="VFM-to-US007" style="stroke:#181818;stroke-width:1.0;"/><polygon fill="#181818" points="211.11,684.1894,203.3699,678.0991,206.2635,682.9599,201.4027,685.8535,211.11,684.1894" style="stroke:#181818;stroke-width:1.0;"/></g><!--link VFM to US008--><g id="link_VFM_US008"><path d="M62.85,591.6194 C69.25,635.1394 86.08,704.6894 130,744.6094 C146.12,759.2694 165.84,769.9494 186.53,777.7294 " fill="none" id="VFM-to-US008" style="stroke:#181818;stroke-width:1.0;"/><polygon fill="#181818" points="191.24,779.4394,184.1555,772.5976,186.5427,777.7261,181.4142,780.1133,191.24,779.4394" style="stroke:#181818;stroke-width:1.0;"/></g><!--SRC=[dT9DJ-Cm40RWkt_5Y3ELeFJhX8H0W92u42ttYJEDhJfsPK-eAiH_tuafsNGZBiaXaftn-zZZf9trUupOG1Dyq2Q6Xe1ZIohrN_QeTrXJmKT744ap-jeD2vB1AXoihs6BBf5IR5bAdrmeqS6VH72FydgmM4kvKews31mWsjemLBRBjC4hrOV3HN5CJ4stE5u09a3D8IRuL21F7i3ps-jWzFxughxE8dxWb0FQHBeRV2USHb9KN5rTmmpUgBOYHYXsrha4Mucy3yvX6I9AVix8nNczs32RtPvc9hhpeOlm4ifUcO-K-LJbvbpHWqC1-WgCbUuoHrksV4hBoqOxk9cwWuNiu2ubMtj8tzsLowTcxyAH1k9Y92wcYaiHdyYJd9Bap9uEm8JD9PHIKa7mm8Pacgf__7B4BwVog_EMVv2nMW8EbirlxLxb5Fc9UtqrLL-BNcX3LUjeeCkCtitQVK-kH-HwAhdfIABSrPCdbsoGSu-xl-v_V3F2Dnsk_W80]--></g></svg>