<?xml version="1.0" encoding="UTF-8" standalone="no"?><svg xmlns="http://www.w3.org/2000/svg" xmlns:xlink="http://www.w3.org/1999/xlink" contentStyleType="text/css" height="1176px" preserveAspectRatio="none" style="width:1314px;height:1176px;background:#FFFFFF;" version="1.1" viewBox="0 0 1314 1176" width="1314px" zoomAndPan="magnify"><defs/><g><rect fill="#FFFFFF" height="983.6172" style="stroke:#181818;stroke-width:1.0;" width="10" x="18" y="92.6094"/><rect fill="#FFFFFF" height="194.3672" style="stroke:#181818;stroke-width:1.0;" width="10" x="380" y="114.9609"/><rect fill="#FFFFFF" height="30.3516" style="stroke:#181818;stroke-width:1.0;" width="10" x="380" y="339.6797"/><rect fill="#FFFFFF" height="30.3516" style="stroke:#181818;stroke-width:1.0;" width="10" x="380" y="400.3828"/><rect fill="#FFFFFF" height="30.3516" style="stroke:#181818;stroke-width:1.0;" width="10" x="380" y="1045.875"/><rect fill="#FFFFFF" height="123.6641" style="stroke:#181818;stroke-width:1.0;" width="10" x="528.5" y="155.3125"/><rect fill="#FFFFFF" height="30.3516" style="stroke:#181818;stroke-width:1.0;" width="10" x="528.5" y="430.7344"/><rect fill="#FFFFFF" height="30.3516" style="stroke:#181818;stroke-width:1.0;" width="10" x="528.5" y="1015.5234"/><rect fill="#FFFFFF" height="30.3516" style="stroke:#181818;stroke-width:1.0;" width="10" x="659.5" y="187.9219"/><rect fill="#FFFFFF" height="30.3516" style="stroke:#181818;stroke-width:1.0;" width="10" x="766.5" y="248.625"/><rect fill="#FFFFFF" height="554.4375" style="stroke:#181818;stroke-width:1.0;" width="10" x="879" y="461.0859"/><rect fill="#FFFFFF" height="128.0547" style="stroke:#181818;stroke-width:1.0;" width="10" x="884" y="850.1172"/><rect fill="#FFFFFF" height="41.3516" style="stroke:#181818;stroke-width:1.0;" width="10" x="889" y="893.4688"/><rect fill="#FFFFFF" height="310.3281" style="stroke:#181818;stroke-width:1.0;" width="10" x="1093" y="501.4375"/><rect fill="#FFFFFF" height="214.7578" style="stroke:#181818;stroke-width:1.0;" width="10" x="1098" y="559.6563"/><rect fill="#FFFFFF" height="128.0547" style="stroke:#181818;stroke-width:1.0;" width="10" x="1103" y="603.0078"/><rect fill="#FFFFFF" height="41.3516" style="stroke:#181818;stroke-width:1.0;" width="10" x="1108" y="646.3594"/><line style="stroke:#181818;stroke-width:0.5;stroke-dasharray:5.0,5.0;" x1="23" x2="23" y1="82.6094" y2="1094.2266"/><line style="stroke:#181818;stroke-width:0.5;stroke-dasharray:5.0,5.0;" x1="384.5" x2="384.5" y1="82.6094" y2="1094.2266"/><line style="stroke:#181818;stroke-width:0.5;stroke-dasharray:5.0,5.0;" x1="533" x2="533" y1="154.2656" y2="1094.2266"/><line style="stroke:#181818;stroke-width:0.5;stroke-dasharray:5.0,5.0;" x1="664" x2="664" y1="82.6094" y2="1094.2266"/><line style="stroke:#181818;stroke-width:0.5;stroke-dasharray:5.0,5.0;" x1="771" x2="771" y1="82.6094" y2="1094.2266"/><line style="stroke:#181818;stroke-width:0.5;stroke-dasharray:5.0,5.0;" x1="884" x2="884" y1="82.6094" y2="1094.2266"/><line style="stroke:#181818;stroke-width:0.5;stroke-dasharray:5.0,5.0;" x1="1098" x2="1098" y1="509.1953" y2="1094.2266"/><text fill="#000000" font-family="sans-serif" font-size="14" lengthAdjust="spacing" textLength="30" x="5" y="79.5332">HRM</text><ellipse cx="23" cy="13.5" fill="#E3E3E3" rx="8" ry="8" style="stroke:#181818;stroke-width:0.5;"/><path d="M23,21.5 L23,48.5 M10,29.5 L36,29.5 M23,48.5 L10,63.5 M23,48.5 L36,63.5 " fill="none" style="stroke:#181818;stroke-width:0.5;"/><text fill="#000000" font-family="sans-serif" font-size="14" lengthAdjust="spacing" textLength="30" x="5" y="1107.7598">HRM</text><ellipse cx="23" cy="1119.3359" fill="#E3E3E3" rx="8" ry="8" style="stroke:#181818;stroke-width:0.5;"/><path d="M23,1127.3359 L23,1154.3359 M10,1135.3359 L36,1135.3359 M23,1154.3359 L10,1169.3359 M23,1154.3359 L36,1169.3359 " fill="none" style="stroke:#181818;stroke-width:0.5;"/><rect fill="#E3E3E3" height="31.6094" rx="2.5" ry="2.5" style="stroke:#181818;stroke-width:0.5;" width="95" x="337.5" y="50"/><text fill="#000000" font-family="sans-serif" font-size="14" lengthAdjust="spacing" textLength="81" x="344.5" y="71.5332">:CreateJobUI</text><rect fill="#E3E3E3" height="31.6094" rx="2.5" ry="2.5" style="stroke:#181818;stroke-width:0.5;" width="95" x="337.5" y="1093.2266"/><text fill="#000000" font-family="sans-serif" font-size="14" lengthAdjust="spacing" textLength="81" x="344.5" y="1114.7598">:CreateJobUI</text><rect fill="#E3E3E3" height="31.6094" rx="2.5" ry="2.5" style="stroke:#181818;stroke-width:0.5;" width="145" x="461" y="1093.2266"/><text fill="#000000" font-family="sans-serif" font-size="14" lengthAdjust="spacing" textLength="131" x="468" y="1114.7598">:CreateJobController</text><rect fill="#E3E3E3" height="31.6094" rx="2.5" ry="2.5" style="stroke:#181818;stroke-width:0.5;" width="97" x="616" y="50"/><text fill="#000000" font-family="sans-serif" font-size="14" lengthAdjust="spacing" textLength="83" x="623" y="71.5332">:Repositories</text><rect fill="#E3E3E3" height="31.6094" rx="2.5" ry="2.5" style="stroke:#181818;stroke-width:0.5;" width="97" x="616" y="1093.2266"/><text fill="#000000" font-family="sans-serif" font-size="14" lengthAdjust="spacing" textLength="83" x="623" y="1114.7598">:Repositories</text><rect fill="#E3E3E3" height="49.2188" rx="2.5" ry="2.5" style="stroke:#181818;stroke-width:0.5;" width="97" x="723" y="32.3906"/><text fill="#000000" font-family="sans-serif" font-size="14" lengthAdjust="spacing" textLength="74" x="734.5" y="53.9238">repositories</text><text fill="#000000" font-family="sans-serif" font-size="14" lengthAdjust="spacing" textLength="83" x="730" y="71.5332">:Repositories</text><rect fill="#E3E3E3" height="49.2188" rx="2.5" ry="2.5" style="stroke:#181818;stroke-width:0.5;" width="97" x="723" y="1093.2266"/><text fill="#000000" font-family="sans-serif" font-size="14" lengthAdjust="spacing" textLength="74" x="734.5" y="1114.7598">repositories</text><text fill="#000000" font-family="sans-serif" font-size="14" lengthAdjust="spacing" textLength="83" x="730" y="1132.3691">:Repositories</text><rect fill="#E3E3E3" height="49.2188" rx="2.5" ry="2.5" style="stroke:#181818;stroke-width:0.5;" width="108" x="830" y="32.3906"/><text fill="#000000" font-family="sans-serif" font-size="14" lengthAdjust="spacing" textLength="87" x="840.5" y="53.9238">jobRepository</text><text fill="#000000" font-family="sans-serif" font-size="14" lengthAdjust="spacing" textLength="94" x="837" y="71.5332">:JobRepository</text><rect fill="#E3E3E3" height="49.2188" rx="2.5" ry="2.5" style="stroke:#181818;stroke-width:0.5;" width="108" x="830" y="1093.2266"/><text fill="#000000" font-family="sans-serif" font-size="14" lengthAdjust="spacing" textLength="87" x="840.5" y="1114.7598">jobRepository</text><text fill="#000000" font-family="sans-serif" font-size="14" lengthAdjust="spacing" textLength="94" x="837" y="1132.3691">:JobRepository</text><rect fill="#E3E3E3" height="49.2188" rx="2.5" ry="2.5" style="stroke:#181818;stroke-width:0.5;" width="40" x="1078" y="1093.2266"/><text fill="#000000" font-family="sans-serif" font-size="14" lengthAdjust="spacing" textLength="19" x="1088.5" y="1114.7598">job</text><text fill="#000000" font-family="sans-serif" font-size="14" lengthAdjust="spacing" textLength="26" x="1085" y="1132.3691">:Job</text><rect fill="#FFFFFF" height="983.6172" style="stroke:#181818;stroke-width:1.0;" width="10" x="18" y="92.6094"/><rect fill="#FFFFFF" height="194.3672" style="stroke:#181818;stroke-width:1.0;" width="10" x="380" y="114.9609"/><rect fill="#FFFFFF" height="30.3516" style="stroke:#181818;stroke-width:1.0;" width="10" x="380" y="339.6797"/><rect fill="#FFFFFF" height="30.3516" style="stroke:#181818;stroke-width:1.0;" width="10" x="380" y="400.3828"/><rect fill="#FFFFFF" height="30.3516" style="stroke:#181818;stroke-width:1.0;" width="10" x="380" y="1045.875"/><rect fill="#FFFFFF" height="123.6641" style="stroke:#181818;stroke-width:1.0;" width="10" x="528.5" y="155.3125"/><rect fill="#FFFFFF" height="30.3516" style="stroke:#181818;stroke-width:1.0;" width="10" x="528.5" y="430.7344"/><rect fill="#FFFFFF" height="30.3516" style="stroke:#181818;stroke-width:1.0;" width="10" x="528.5" y="1015.5234"/><rect fill="#FFFFFF" height="30.3516" style="stroke:#181818;stroke-width:1.0;" width="10" x="659.5" y="187.9219"/><rect fill="#FFFFFF" height="30.3516" style="stroke:#181818;stroke-width:1.0;" width="10" x="766.5" y="248.625"/><rect fill="#FFFFFF" height="554.4375" style="stroke:#181818;stroke-width:1.0;" width="10" x="879" y="461.0859"/><rect fill="#FFFFFF" height="128.0547" style="stroke:#181818;stroke-width:1.0;" width="10" x="884" y="850.1172"/><rect fill="#FFFFFF" height="41.3516" style="stroke:#181818;stroke-width:1.0;" width="10" x="889" y="893.4688"/><rect fill="#FFFFFF" height="310.3281" style="stroke:#181818;stroke-width:1.0;" width="10" x="1093" y="501.4375"/><rect fill="#FFFFFF" height="214.7578" style="stroke:#181818;stroke-width:1.0;" width="10" x="1098" y="559.6563"/><rect fill="#FFFFFF" height="128.0547" style="stroke:#181818;stroke-width:1.0;" width="10" x="1103" y="603.0078"/><rect fill="#FFFFFF" height="41.3516" style="stroke:#181818;stroke-width:1.0;" width="10" x="1108" y="646.3594"/><polygon fill="#181818" points="368,110.9609,378,114.9609,368,118.9609,372,114.9609" style="stroke:#181818;stroke-width:1.0;"/><line style="stroke:#181818;stroke-width:1.0;" x1="28" x2="374" y1="114.9609" y2="114.9609"/><text fill="#000000" font-family="sans-serif" font-size="13" font-weight="bold" lengthAdjust="spacing" textLength="7" x="35" y="110.1045">1</text><text fill="#000000" font-family="sans-serif" font-size="13" lengthAdjust="spacing" textLength="142" x="46" y="110.1045">asks to create a new job</text><polygon fill="#181818" points="449,141.3125,459,145.3125,449,149.3125,453,145.3125" style="stroke:#181818;stroke-width:1.0;"/><line style="stroke:#181818;stroke-width:1.0;" x1="390" x2="455" y1="145.3125" y2="145.3125"/><text fill="#000000" font-family="sans-serif" font-size="13" font-weight="bold" lengthAdjust="spacing" textLength="7" x="397" y="140.4561">2</text><text fill="#000000" font-family="sans-serif" font-size="13" lengthAdjust="spacing" textLength="36" x="408" y="140.4561">create</text><rect fill="#E3E3E3" height="31.6094" rx="2.5" ry="2.5" style="stroke:#181818;stroke-width:0.5;" width="145" x="461" y="122.9609"/><text fill="#000000" font-family="sans-serif" font-size="14" lengthAdjust="spacing" textLength="131" x="468" y="144.4941">:CreateJobController</text><polygon fill="#181818" points="647.5,183.9219,657.5,187.9219,647.5,191.9219,651.5,187.9219" style="stroke:#181818;stroke-width:1.0;"/><line style="stroke:#181818;stroke-width:1.0;" x1="538.5" x2="653.5" y1="187.9219" y2="187.9219"/><text fill="#000000" font-family="sans-serif" font-size="13" font-weight="bold" lengthAdjust="spacing" textLength="7" x="545.5" y="183.0654">3</text><text fill="#000000" font-family="sans-serif" font-size="13" lengthAdjust="spacing" textLength="75" x="556.5" y="183.0654">getInstance()</text><polygon fill="#181818" points="549.5,214.2734,539.5,218.2734,549.5,222.2734,545.5,218.2734" style="stroke:#181818;stroke-width:1.0;"/><line style="stroke:#181818;stroke-width:1.0;stroke-dasharray:2.0,2.0;" x1="543.5" x2="663.5" y1="218.2734" y2="218.2734"/><text fill="#000000" font-family="sans-serif" font-size="13" font-weight="bold" lengthAdjust="spacing" textLength="7" x="555.5" y="213.417">4</text><text fill="#000000" font-family="sans-serif" font-size="13" lengthAdjust="spacing" textLength="67" x="566.5" y="213.417">repositories</text><polygon fill="#181818" points="754.5,244.625,764.5,248.625,754.5,252.625,758.5,248.625" style="stroke:#181818;stroke-width:1.0;"/><line style="stroke:#181818;stroke-width:1.0;" x1="538.5" x2="760.5" y1="248.625" y2="248.625"/><text fill="#000000" font-family="sans-serif" font-size="13" font-weight="bold" lengthAdjust="spacing" textLength="7" x="545.5" y="243.7686">5</text><text fill="#000000" font-family="sans-serif" font-size="13" lengthAdjust="spacing" textLength="108" x="556.5" y="243.7686">getJobRepository()</text><polygon fill="#181818" points="544.5,274.9766,534.5,278.9766,544.5,282.9766,540.5,278.9766" style="stroke:#181818;stroke-width:1.0;"/><line style="stroke:#181818;stroke-width:1.0;stroke-dasharray:2.0,2.0;" x1="538.5" x2="770.5" y1="278.9766" y2="278.9766"/><text fill="#000000" font-family="sans-serif" font-size="13" font-weight="bold" lengthAdjust="spacing" textLength="7" x="550.5" y="274.1201">6</text><text fill="#000000" font-family="sans-serif" font-size="13" lengthAdjust="spacing" textLength="79" x="561.5" y="274.1201">jobRepository</text><polygon fill="#181818" points="39,305.3281,29,309.3281,39,313.3281,35,309.3281" style="stroke:#181818;stroke-width:1.0;"/><line style="stroke:#181818;stroke-width:1.0;stroke-dasharray:2.0,2.0;" x1="33" x2="384" y1="309.3281" y2="309.3281"/><text fill="#000000" font-family="sans-serif" font-size="13" font-weight="bold" lengthAdjust="spacing" textLength="7" x="45" y="304.4717">7</text><text fill="#000000" font-family="sans-serif" font-size="13" lengthAdjust="spacing" textLength="133" x="56" y="304.4717">requests data (job title)</text><polygon fill="#181818" points="368,335.6797,378,339.6797,368,343.6797,372,339.6797" style="stroke:#181818;stroke-width:1.0;"/><line style="stroke:#181818;stroke-width:1.0;" x1="28" x2="374" y1="339.6797" y2="339.6797"/><text fill="#000000" font-family="sans-serif" font-size="13" font-weight="bold" lengthAdjust="spacing" textLength="7" x="35" y="334.8232">8</text><text fill="#000000" font-family="sans-serif" font-size="13" lengthAdjust="spacing" textLength="122" x="46" y="334.8232">types requested data</text><polygon fill="#181818" points="39,366.0313,29,370.0313,39,374.0313,35,370.0313" style="stroke:#181818;stroke-width:1.0;"/><line style="stroke:#181818;stroke-width:1.0;stroke-dasharray:2.0,2.0;" x1="33" x2="384" y1="370.0313" y2="370.0313"/><text fill="#000000" font-family="sans-serif" font-size="13" font-weight="bold" lengthAdjust="spacing" textLength="7" x="45" y="365.1748">9</text><text fill="#000000" font-family="sans-serif" font-size="13" lengthAdjust="spacing" textLength="273" x="56" y="365.1748">shows data (job title) and requests confirmation</text><polygon fill="#181818" points="368,396.3828,378,400.3828,368,404.3828,372,400.3828" style="stroke:#181818;stroke-width:1.0;"/><line style="stroke:#181818;stroke-width:1.0;" x1="28" x2="374" y1="400.3828" y2="400.3828"/><text fill="#000000" font-family="sans-serif" font-size="13" font-weight="bold" lengthAdjust="spacing" textLength="14" x="35" y="395.5264">10</text><text fill="#000000" font-family="sans-serif" font-size="13" lengthAdjust="spacing" textLength="78" x="53" y="395.5264">confirms data</text><polygon fill="#181818" points="516.5,426.7344,526.5,430.7344,516.5,434.7344,520.5,430.7344" style="stroke:#181818;stroke-width:1.0;"/><line style="stroke:#181818;stroke-width:1.0;" x1="385" x2="522.5" y1="430.7344" y2="430.7344"/><text fill="#000000" font-family="sans-serif" font-size="13" font-weight="bold" lengthAdjust="spacing" textLength="14" x="392" y="425.8779">11</text><text fill="#000000" font-family="sans-serif" font-size="13" lengthAdjust="spacing" textLength="85" x="410" y="425.8779">createJob(title)</text><polygon fill="#181818" points="867,457.0859,877,461.0859,867,465.0859,871,461.0859" style="stroke:#181818;stroke-width:1.0;"/><line style="stroke:#181818;stroke-width:1.0;" x1="533.5" x2="873" y1="461.0859" y2="461.0859"/><text fill="#000000" font-family="sans-serif" font-size="13" font-weight="bold" lengthAdjust="spacing" textLength="14" x="540.5" y="456.2295">12</text><text fill="#000000" font-family="sans-serif" font-size="13" lengthAdjust="spacing" textLength="85" x="558.5" y="456.2295">createJob(title)</text><polygon fill="#181818" points="1066,487.4375,1076,491.4375,1066,495.4375,1070,491.4375" style="stroke:#181818;stroke-width:1.0;"/><line style="stroke:#181818;stroke-width:1.0;" x1="889" x2="1072" y1="491.4375" y2="491.4375"/><text fill="#000000" font-family="sans-serif" font-size="13" font-weight="bold" lengthAdjust="spacing" textLength="14" x="896" y="486.5811">13</text><text fill="#000000" font-family="sans-serif" font-size="13" lengthAdjust="spacing" textLength="85" x="914" y="486.5811">createJob(title)</text><rect fill="#E3E3E3" height="49.2188" rx="2.5" ry="2.5" style="stroke:#181818;stroke-width:0.5;" width="40" x="1078" y="469.0859"/><text fill="#000000" font-family="sans-serif" font-size="14" lengthAdjust="spacing" textLength="19" x="1088.5" y="490.6191">job</text><text fill="#000000" font-family="sans-serif" font-size="14" lengthAdjust="spacing" textLength="26" x="1085" y="508.2285">:Job</text><line style="stroke:#181818;stroke-width:1.0;" x1="1103" x2="1150" y1="546.6563" y2="546.6563"/><line style="stroke:#181818;stroke-width:1.0;" x1="1150" x2="1150" y1="546.6563" y2="559.6563"/><line style="stroke:#181818;stroke-width:1.0;" x1="1109" x2="1150" y1="559.6563" y2="559.6563"/><polygon fill="#181818" points="1119,555.6563,1109,559.6563,1119,563.6563,1115,559.6563" style="stroke:#181818;stroke-width:1.0;"/><text fill="#000000" font-family="sans-serif" font-size="13" font-weight="bold" lengthAdjust="spacing" textLength="14" x="1115" y="541.7998">14</text><text fill="#000000" font-family="sans-serif" font-size="13" lengthAdjust="spacing" textLength="71" x="1133" y="541.7998">setTitle(title)</text><line style="stroke:#181818;stroke-width:1.0;" x1="1108" x2="1155" y1="590.0078" y2="590.0078"/><line style="stroke:#181818;stroke-width:1.0;" x1="1155" x2="1155" y1="590.0078" y2="603.0078"/><line style="stroke:#181818;stroke-width:1.0;" x1="1114" x2="1155" y1="603.0078" y2="603.0078"/><polygon fill="#181818" points="1124,599.0078,1114,603.0078,1124,607.0078,1120,603.0078" style="stroke:#181818;stroke-width:1.0;"/><text fill="#000000" font-family="sans-serif" font-size="13" font-weight="bold" lengthAdjust="spacing" textLength="14" x="1120" y="585.1514">15</text><text fill="#000000" font-family="sans-serif" font-size="13" lengthAdjust="spacing" textLength="89" x="1138" y="585.1514">verifyFilled(title)</text><line style="stroke:#181818;stroke-width:1.0;" x1="1113" x2="1160" y1="633.3594" y2="633.3594"/><line style="stroke:#181818;stroke-width:1.0;" x1="1160" x2="1160" y1="633.3594" y2="646.3594"/><line style="stroke:#181818;stroke-width:1.0;" x1="1119" x2="1160" y1="646.3594" y2="646.3594"/><polygon fill="#181818" points="1129,642.3594,1119,646.3594,1129,650.3594,1125,646.3594" style="stroke:#181818;stroke-width:1.0;"/><text fill="#000000" font-family="sans-serif" font-size="13" font-weight="bold" lengthAdjust="spacing" textLength="14" x="1125" y="628.5029">16</text><text fill="#000000" font-family="sans-serif" font-size="13" lengthAdjust="spacing" textLength="164" x="1143" y="628.5029">verifySpecialCharacters(title)</text><line style="stroke:#181818;stroke-width:1.0;stroke-dasharray:2.0,2.0;" x1="1118" x2="1160" y1="686.7109" y2="686.7109"/><line style="stroke:#181818;stroke-width:1.0;stroke-dasharray:2.0,2.0;" x1="1160" x2="1160" y1="686.7109" y2="699.7109"/><line style="stroke:#181818;stroke-width:1.0;stroke-dasharray:2.0,2.0;" x1="1113" x2="1160" y1="699.7109" y2="699.7109"/><polygon fill="#181818" points="1123,695.7109,1113,699.7109,1123,703.7109,1119,699.7109" style="stroke:#181818;stroke-width:1.0;"/><text fill="#000000" font-family="sans-serif" font-size="13" font-weight="bold" lengthAdjust="spacing" textLength="14" x="1125" y="681.8545">17</text><text fill="#000000" font-family="sans-serif" font-size="13" lengthAdjust="spacing" textLength="4" x="1143" y="681.8545"> </text><line style="stroke:#181818;stroke-width:1.0;stroke-dasharray:2.0,2.0;" x1="1113" x2="1155" y1="730.0625" y2="730.0625"/><line style="stroke:#181818;stroke-width:1.0;stroke-dasharray:2.0,2.0;" x1="1155" x2="1155" y1="730.0625" y2="743.0625"/><line style="stroke:#181818;stroke-width:1.0;stroke-dasharray:2.0,2.0;" x1="1108" x2="1155" y1="743.0625" y2="743.0625"/><polygon fill="#181818" points="1118,739.0625,1108,743.0625,1118,747.0625,1114,743.0625" style="stroke:#181818;stroke-width:1.0;"/><text fill="#000000" font-family="sans-serif" font-size="13" font-weight="bold" lengthAdjust="spacing" textLength="14" x="1120" y="725.2061">18</text><text fill="#000000" font-family="sans-serif" font-size="13" lengthAdjust="spacing" textLength="4" x="1138" y="725.2061"> </text><line style="stroke:#181818;stroke-width:1.0;stroke-dasharray:2.0,2.0;" x1="1108" x2="1150" y1="773.4141" y2="773.4141"/><line style="stroke:#181818;stroke-width:1.0;stroke-dasharray:2.0,2.0;" x1="1150" x2="1150" y1="773.4141" y2="786.4141"/><line style="stroke:#181818;stroke-width:1.0;stroke-dasharray:2.0,2.0;" x1="1103" x2="1150" y1="786.4141" y2="786.4141"/><polygon fill="#181818" points="1113,782.4141,1103,786.4141,1113,790.4141,1109,786.4141" style="stroke:#181818;stroke-width:1.0;"/><text fill="#000000" font-family="sans-serif" font-size="13" font-weight="bold" lengthAdjust="spacing" textLength="14" x="1115" y="768.5576">19</text><text fill="#000000" font-family="sans-serif" font-size="13" lengthAdjust="spacing" textLength="4" x="1133" y="768.5576"> </text><polygon fill="#181818" points="900,807.7656,890,811.7656,900,815.7656,896,811.7656" style="stroke:#181818;stroke-width:1.0;"/><line style="stroke:#181818;stroke-width:1.0;stroke-dasharray:2.0,2.0;" x1="894" x2="1097" y1="811.7656" y2="811.7656"/><text fill="#000000" font-family="sans-serif" font-size="13" font-weight="bold" lengthAdjust="spacing" textLength="14" x="906" y="806.9092">20</text><text fill="#000000" font-family="sans-serif" font-size="13" lengthAdjust="spacing" textLength="17" x="924" y="806.9092">job</text><line style="stroke:#181818;stroke-width:1.0;" x1="889" x2="936" y1="837.1172" y2="837.1172"/><line style="stroke:#181818;stroke-width:1.0;" x1="936" x2="936" y1="837.1172" y2="850.1172"/><line style="stroke:#181818;stroke-width:1.0;" x1="895" x2="936" y1="850.1172" y2="850.1172"/><polygon fill="#181818" points="905,846.1172,895,850.1172,905,854.1172,901,850.1172" style="stroke:#181818;stroke-width:1.0;"/><text fill="#000000" font-family="sans-serif" font-size="13" font-weight="bold" lengthAdjust="spacing" textLength="14" x="901" y="832.2607">21</text><text fill="#000000" font-family="sans-serif" font-size="13" lengthAdjust="spacing" textLength="172" x="919" y="832.2607">checkForDuplicates(job : Job)</text><line style="stroke:#181818;stroke-width:1.0;" x1="894" x2="941" y1="880.4688" y2="880.4688"/><line style="stroke:#181818;stroke-width:1.0;" x1="941" x2="941" y1="880.4688" y2="893.4688"/><line style="stroke:#181818;stroke-width:1.0;" x1="900" x2="941" y1="893.4688" y2="893.4688"/><polygon fill="#181818" points="910,889.4688,900,893.4688,910,897.4688,906,893.4688" style="stroke:#181818;stroke-width:1.0;"/><text fill="#000000" font-family="sans-serif" font-size="13" font-weight="bold" lengthAdjust="spacing" textLength="14" x="906" y="875.6123">22</text><text fill="#000000" font-family="sans-serif" font-size="13" lengthAdjust="spacing" textLength="66" x="924" y="875.6123">addJob(job)</text><line style="stroke:#181818;stroke-width:1.0;stroke-dasharray:2.0,2.0;" x1="899" x2="941" y1="933.8203" y2="933.8203"/><line style="stroke:#181818;stroke-width:1.0;stroke-dasharray:2.0,2.0;" x1="941" x2="941" y1="933.8203" y2="946.8203"/><line style="stroke:#181818;stroke-width:1.0;stroke-dasharray:2.0,2.0;" x1="894" x2="941" y1="946.8203" y2="946.8203"/><polygon fill="#181818" points="904,942.8203,894,946.8203,904,950.8203,900,946.8203" style="stroke:#181818;stroke-width:1.0;"/><text fill="#000000" font-family="sans-serif" font-size="13" font-weight="bold" lengthAdjust="spacing" textLength="14" x="906" y="928.9639">23</text><text fill="#000000" font-family="sans-serif" font-size="13" lengthAdjust="spacing" textLength="4" x="924" y="928.9639"> </text><line style="stroke:#181818;stroke-width:1.0;stroke-dasharray:2.0,2.0;" x1="894" x2="936" y1="977.1719" y2="977.1719"/><line style="stroke:#181818;stroke-width:1.0;stroke-dasharray:2.0,2.0;" x1="936" x2="936" y1="977.1719" y2="990.1719"/><line style="stroke:#181818;stroke-width:1.0;stroke-dasharray:2.0,2.0;" x1="889" x2="936" y1="990.1719" y2="990.1719"/><polygon fill="#181818" points="899,986.1719,889,990.1719,899,994.1719,895,990.1719" style="stroke:#181818;stroke-width:1.0;"/><text fill="#000000" font-family="sans-serif" font-size="13" font-weight="bold" lengthAdjust="spacing" textLength="14" x="901" y="972.3154">24</text><text fill="#000000" font-family="sans-serif" font-size="13" lengthAdjust="spacing" textLength="4" x="919" y="972.3154"> </text><polygon fill="#181818" points="549.5,1011.5234,539.5,1015.5234,549.5,1019.5234,545.5,1015.5234" style="stroke:#181818;stroke-width:1.0;"/><line style="stroke:#181818;stroke-width:1.0;stroke-dasharray:2.0,2.0;" x1="543.5" x2="883" y1="1015.5234" y2="1015.5234"/><text fill="#000000" font-family="sans-serif" font-size="13" font-weight="bold" lengthAdjust="spacing" textLength="14" x="555.5" y="1010.667">25</text><text fill="#000000" font-family="sans-serif" font-size="13" lengthAdjust="spacing" textLength="49" x="573.5" y="1010.667">success</text><polygon fill="#181818" points="401,1041.875,391,1045.875,401,1049.875,397,1045.875" style="stroke:#181818;stroke-width:1.0;"/><line style="stroke:#181818;stroke-width:1.0;stroke-dasharray:2.0,2.0;" x1="395" x2="532.5" y1="1045.875" y2="1045.875"/><text fill="#000000" font-family="sans-serif" font-size="13" font-weight="bold" lengthAdjust="spacing" textLength="14" x="407" y="1041.0186">26</text><text fill="#000000" font-family="sans-serif" font-size="13" lengthAdjust="spacing" textLength="49" x="425" y="1041.0186">success</text><polygon fill="#181818" points="34,1072.2266,24,1076.2266,34,1080.2266,30,1076.2266" style="stroke:#181818;stroke-width:1.0;"/><line style="stroke:#181818;stroke-width:1.0;stroke-dasharray:2.0,2.0;" x1="28" x2="384" y1="1076.2266" y2="1076.2266"/><text fill="#000000" font-family="sans-serif" font-size="13" font-weight="bold" lengthAdjust="spacing" textLength="14" x="40" y="1071.3701">27</text><text fill="#000000" font-family="sans-serif" font-size="13" lengthAdjust="spacing" textLength="310" x="58" y="1071.3701">displays success message (job created successfully)</text><!--SRC=[fLN1SjiW4Btp5OmliJEJ7_2XCnstQPr9PpgES-i5evL5Z40555T_tmLP62GxQQOwI0AzzvPzi2jx4AfXXjMqrahpokWQg3Cj41k_D8mVs1wUN2U16k2EgRrC0RPYXJuAjQSbanO8OQtJggrtO0YvgKG1jDJQxVGVmhZJXiw-RtxCABFqQzr8tG4G57A2YuOfHsVBbG7cu47ldjS1zho-1bXfvOoM4am0hhQRnn5q0uss0gCAi07pJUgTdynn9e7zKbFMpyVFsvpnqii4L8UKXtGSE1bYGkuf0OXFugqHhvZLsHGolD6xJ-W1NIBsOAdJb8VyAQCAZZxCcOnM4OGYmNjnUuka7do619FypQC6Dn2t1xTM5dUNmtnnXaU_8lJkf8wSr3PIm9GK0ta3-o2PKMcau770-GWXn79aOX8Yf96C0plaZkJed5_YxnQiixHWZj4vwb4dd8H5IlQsJTnsNGDsu4CH1APEvz5ifO_JK9IfuhmGhbKfJCsSqEhTHPp0zahqk1DyA8dvnUnos-AkPEw-enAOSPJl2w5uvMAeZZh92KnKwUcAQhu2XabyFv6zd-2sdZCm9umC_Gf6bDszm8PGV3nMptvgW0icLnNsDkx0s7yNwfNYNE9Tjje4zd58cBl9risAmdkBzYyoXV7clWpqIvAJpPiSZGhuuLwRBsqZ1KUk3GTywINwk5VEnc37sn7oDDwG6icCTSO9ZixfVx6dv5FnsPPpi5a7p9bNkzPeUNrT3hL_GJOlGYpiQGigX6qaw-n0fpNUy0VUDwI-5elXOzbAsIt8g5iae_Wt-Wi0]--></g></svg>