<?xml version="1.0" encoding="UTF-8" standalone="no"?><svg xmlns="http://www.w3.org/2000/svg" xmlns:xlink="http://www.w3.org/1999/xlink" contentStyleType="text/css" height="901px" preserveAspectRatio="none" style="width:445px;height:901px;background:#FFFFFF;" version="1.1" viewBox="0 0 445 901" width="445px" zoomAndPan="magnify"><defs/><g><!--class CreateJobUI--><g id="elem_CreateJobUI"><rect codeLine="7" fill="#F1F1F1" height="65.6094" id="CreateJobUI" rx="2.5" ry="2.5" style="stroke:#181818;stroke-width:0.5;" width="162" x="254" y="7"/><ellipse cx="292.85" cy="23" fill="#ADD1B2" rx="11" ry="11" style="stroke:#181818;stroke-width:1.0;"/><path d="M295.6156,18.875 Q295.7719,18.6563 295.9594,18.5469 Q296.1469,18.4375 296.3656,18.4375 Q296.7406,18.4375 296.975,18.7031 Q297.2094,18.9531 297.2094,19.5625 L297.2094,21.0156 Q297.2094,21.625 296.975,21.8906 Q296.7406,22.1563 296.3656,22.1563 Q296.0219,22.1563 295.8188,21.9531 Q295.6156,21.7656 295.5063,21.25 Q295.4594,20.8906 295.2719,20.7031 Q294.9438,20.3281 294.3344,20.1094 Q293.725,19.8906 293.1,19.8906 Q292.3344,19.8906 291.6938,20.2188 Q291.0688,20.5469 290.5688,21.2969 Q290.0844,22.0469 290.0844,23.0781 L290.0844,24.1719 Q290.0844,25.4063 290.975,26.2344 Q291.8656,27.0469 293.4594,27.0469 Q294.3969,27.0469 295.0531,26.7969 Q295.4438,26.6406 295.8656,26.2031 Q296.1313,25.9375 296.2719,25.8594 Q296.4281,25.7813 296.6313,25.7813 Q296.9594,25.7813 297.2094,26.0469 Q297.475,26.2969 297.475,26.6406 Q297.475,26.9844 297.1313,27.3906 Q296.6313,27.9688 295.8344,28.2969 Q294.7563,28.75 293.4594,28.75 Q291.9438,28.75 290.7406,28.125 Q289.7563,27.625 289.0688,26.5625 Q288.3813,25.4844 288.3813,24.2031 L288.3813,23.0469 Q288.3813,21.7188 288.9906,20.5781 Q289.6156,19.4219 290.7094,18.8125 Q291.8031,18.1875 293.0375,18.1875 Q293.7719,18.1875 294.4125,18.3594 Q295.0688,18.5156 295.6156,18.875 Z " fill="#000000"/><text fill="#000000" font-family="sans-serif" font-size="14" lengthAdjust="spacing" textLength="77" x="312.15" y="28.7285">CreateJobUI</text><line style="stroke:#181818;stroke-width:0.5;" x1="255" x2="415" y1="39" y2="39"/><line style="stroke:#181818;stroke-width:0.5;" x1="255" x2="415" y1="47" y2="47"/><ellipse cx="265" cy="61.3047" fill="#84BE84" rx="3" ry="3" style="stroke:#038048;stroke-width:1.0;"/><text fill="#000000" font-family="sans-serif" font-size="14" lengthAdjust="spacing" textLength="136" x="274" y="65.5332">createNewJob() : void</text></g><!--class CreateJobController--><g id="elem_CreateJobController"><rect codeLine="11" fill="#F1F1F1" height="100.8281" id="CreateJobController" rx="2.5" ry="2.5" style="stroke:#181818;stroke-width:0.5;" width="207" x="231.5" y="134"/><ellipse cx="268.1" cy="150" fill="#ADD1B2" rx="11" ry="11" style="stroke:#181818;stroke-width:1.0;"/><path d="M270.8656,145.875 Q271.0219,145.6563 271.2094,145.5469 Q271.3969,145.4375 271.6156,145.4375 Q271.9906,145.4375 272.225,145.7031 Q272.4594,145.9531 272.4594,146.5625 L272.4594,148.0156 Q272.4594,148.625 272.225,148.8906 Q271.9906,149.1563 271.6156,149.1563 Q271.2719,149.1563 271.0688,148.9531 Q270.8656,148.7656 270.7563,148.25 Q270.7094,147.8906 270.5219,147.7031 Q270.1938,147.3281 269.5844,147.1094 Q268.975,146.8906 268.35,146.8906 Q267.5844,146.8906 266.9438,147.2188 Q266.3188,147.5469 265.8188,148.2969 Q265.3344,149.0469 265.3344,150.0781 L265.3344,151.1719 Q265.3344,152.4063 266.225,153.2344 Q267.1156,154.0469 268.7094,154.0469 Q269.6469,154.0469 270.3031,153.7969 Q270.6938,153.6406 271.1156,153.2031 Q271.3813,152.9375 271.5219,152.8594 Q271.6781,152.7813 271.8813,152.7813 Q272.2094,152.7813 272.4594,153.0469 Q272.725,153.2969 272.725,153.6406 Q272.725,153.9844 272.3813,154.3906 Q271.8813,154.9688 271.0844,155.2969 Q270.0063,155.75 268.7094,155.75 Q267.1938,155.75 265.9906,155.125 Q265.0063,154.625 264.3188,153.5625 Q263.6313,152.4844 263.6313,151.2031 L263.6313,150.0469 Q263.6313,148.7188 264.2406,147.5781 Q264.8656,146.4219 265.9594,145.8125 Q267.0531,145.1875 268.2875,145.1875 Q269.0219,145.1875 269.6625,145.3594 Q270.3188,145.5156 270.8656,145.875 Z " fill="#000000"/><text fill="#000000" font-family="sans-serif" font-size="14" lengthAdjust="spacing" textLength="127" x="286.9" y="155.7285">CreateJobController</text><line style="stroke:#181818;stroke-width:0.5;" x1="232.5" x2="437.5" y1="166" y2="166"/><rect fill="none" height="6" style="stroke:#C82930;stroke-width:1.0;" width="6" x="239.5" y="177.3047"/><text fill="#000000" font-family="sans-serif" font-size="14" lengthAdjust="spacing" textLength="87" x="251.5" y="184.5332">jobRepository</text><line style="stroke:#181818;stroke-width:0.5;" x1="232.5" x2="437.5" y1="191.6094" y2="191.6094"/><ellipse cx="242.5" cy="205.9141" fill="#84BE84" rx="3" ry="3" style="stroke:#038048;stroke-width:1.0;"/><text fill="#000000" font-family="sans-serif" font-size="14" lengthAdjust="spacing" textLength="181" x="251.5" y="210.1426">createJob(title : String) : void</text><ellipse cx="242.5" cy="223.5234" fill="#84BE84" rx="3" ry="3" style="stroke:#038048;stroke-width:1.0;"/><text fill="#000000" font-family="sans-serif" font-size="14" lengthAdjust="spacing" textLength="137" x="251.5" y="227.752">CreateJobController()</text></g><!--class Repositories--><g id="elem_Repositories"><rect codeLine="18" fill="#F1F1F1" height="136.0469" id="Repositories" rx="2.5" ry="2.5" style="stroke:#181818;stroke-width:0.5;" width="248" x="7" y="313"/><ellipse cx="87.25" cy="329" fill="#ADD1B2" rx="11" ry="11" style="stroke:#181818;stroke-width:1.0;"/><path d="M90.0156,324.875 Q90.1719,324.6563 90.3594,324.5469 Q90.5469,324.4375 90.7656,324.4375 Q91.1406,324.4375 91.375,324.7031 Q91.6094,324.9531 91.6094,325.5625 L91.6094,327.0156 Q91.6094,327.625 91.375,327.8906 Q91.1406,328.1563 90.7656,328.1563 Q90.4219,328.1563 90.2188,327.9531 Q90.0156,327.7656 89.9063,327.25 Q89.8594,326.8906 89.6719,326.7031 Q89.3438,326.3281 88.7344,326.1094 Q88.125,325.8906 87.5,325.8906 Q86.7344,325.8906 86.0938,326.2188 Q85.4688,326.5469 84.9688,327.2969 Q84.4844,328.0469 84.4844,329.0781 L84.4844,330.1719 Q84.4844,331.4063 85.375,332.2344 Q86.2656,333.0469 87.8594,333.0469 Q88.7969,333.0469 89.4531,332.7969 Q89.8438,332.6406 90.2656,332.2031 Q90.5313,331.9375 90.6719,331.8594 Q90.8281,331.7813 91.0313,331.7813 Q91.3594,331.7813 91.6094,332.0469 Q91.875,332.2969 91.875,332.6406 Q91.875,332.9844 91.5313,333.3906 Q91.0313,333.9688 90.2344,334.2969 Q89.1563,334.75 87.8594,334.75 Q86.3438,334.75 85.1406,334.125 Q84.1563,333.625 83.4688,332.5625 Q82.7813,331.4844 82.7813,330.2031 L82.7813,329.0469 Q82.7813,327.7188 83.3906,326.5781 Q84.0156,325.4219 85.1094,324.8125 Q86.2031,324.1875 87.4375,324.1875 Q88.1719,324.1875 88.8125,324.3594 Q89.4688,324.5156 90.0156,324.875 Z " fill="#000000"/><text fill="#000000" font-family="sans-serif" font-size="14" lengthAdjust="spacing" textLength="79" x="107.75" y="334.7285">Repositories</text><line style="stroke:#181818;stroke-width:0.5;" x1="8" x2="254" y1="345" y2="345"/><rect fill="none" height="6" style="stroke:#C82930;stroke-width:1.0;" width="6" x="15" y="356.3047"/><text fill="#000000" font-family="sans-serif" font-size="14" lengthAdjust="spacing" textLength="144" x="27" y="363.5332">instance : Repositories</text><rect fill="none" height="6" style="stroke:#C82930;stroke-width:1.0;" width="6" x="15" y="373.9141"/><text fill="#000000" font-family="sans-serif" font-size="14" lengthAdjust="spacing" textLength="189" x="27" y="381.1426">jobRepository : JobRepository</text><line style="stroke:#181818;stroke-width:0.5;" x1="8" x2="254" y1="388.2188" y2="388.2188"/><ellipse cx="18" cy="402.5234" fill="#84BE84" rx="3" ry="3" style="stroke:#038048;stroke-width:1.0;"/><text fill="#000000" font-family="sans-serif" font-size="14" lengthAdjust="spacing" textLength="174" x="27" y="406.752">getInstance() : Repositories</text><ellipse cx="18" cy="420.1328" fill="#84BE84" rx="3" ry="3" style="stroke:#038048;stroke-width:1.0;"/><text fill="#000000" font-family="sans-serif" font-size="14" lengthAdjust="spacing" textLength="222" x="27" y="424.3613">getJobRepository() : JobRepository</text><rect fill="#F24D5C" height="6" style="stroke:#C82930;stroke-width:1.0;" width="6" x="15" y="434.7422"/><text fill="#000000" font-family="sans-serif" font-size="14" lengthAdjust="spacing" textLength="89" x="27" y="441.9707">Repositories()</text></g><!--class JobRepository--><g id="elem_JobRepository"><rect codeLine="26" fill="#F1F1F1" height="136.0469" id="JobRepository" rx="2.5" ry="2.5" style="stroke:#181818;stroke-width:0.5;" width="203" x="166.5" y="527"/><ellipse cx="218.75" cy="543" fill="#ADD1B2" rx="11" ry="11" style="stroke:#181818;stroke-width:1.0;"/><path d="M221.5156,538.875 Q221.6719,538.6563 221.8594,538.5469 Q222.0469,538.4375 222.2656,538.4375 Q222.6406,538.4375 222.875,538.7031 Q223.1094,538.9531 223.1094,539.5625 L223.1094,541.0156 Q223.1094,541.625 222.875,541.8906 Q222.6406,542.1563 222.2656,542.1563 Q221.9219,542.1563 221.7188,541.9531 Q221.5156,541.7656 221.4063,541.25 Q221.3594,540.8906 221.1719,540.7031 Q220.8438,540.3281 220.2344,540.1094 Q219.625,539.8906 219,539.8906 Q218.2344,539.8906 217.5938,540.2188 Q216.9688,540.5469 216.4688,541.2969 Q215.9844,542.0469 215.9844,543.0781 L215.9844,544.1719 Q215.9844,545.4063 216.875,546.2344 Q217.7656,547.0469 219.3594,547.0469 Q220.2969,547.0469 220.9531,546.7969 Q221.3438,546.6406 221.7656,546.2031 Q222.0313,545.9375 222.1719,545.8594 Q222.3281,545.7813 222.5313,545.7813 Q222.8594,545.7813 223.1094,546.0469 Q223.375,546.2969 223.375,546.6406 Q223.375,546.9844 223.0313,547.3906 Q222.5313,547.9688 221.7344,548.2969 Q220.6563,548.75 219.3594,548.75 Q217.8438,548.75 216.6406,548.125 Q215.6563,547.625 214.9688,546.5625 Q214.2813,545.4844 214.2813,544.2031 L214.2813,543.0469 Q214.2813,541.7188 214.8906,540.5781 Q215.5156,539.4219 216.6094,538.8125 Q217.7031,538.1875 218.9375,538.1875 Q219.6719,538.1875 220.3125,538.3594 Q220.9688,538.5156 221.5156,538.875 Z " fill="#000000"/><text fill="#000000" font-family="sans-serif" font-size="14" lengthAdjust="spacing" textLength="90" x="239.25" y="548.7285">JobRepository</text><line style="stroke:#181818;stroke-width:0.5;" x1="167.5" x2="368.5" y1="559" y2="559"/><rect fill="none" height="6" style="stroke:#C82930;stroke-width:1.0;" width="6" x="174.5" y="570.3047"/><text fill="#000000" font-family="sans-serif" font-size="14" lengthAdjust="spacing" textLength="113" x="186.5" y="577.5332">jobList : List&lt;Job&gt;</text><line style="stroke:#181818;stroke-width:0.5;" x1="167.5" x2="368.5" y1="584.6094" y2="584.6094"/><ellipse cx="177.5" cy="598.9141" fill="#84BE84" rx="3" ry="3" style="stroke:#038048;stroke-width:1.0;"/><text fill="#000000" font-family="sans-serif" font-size="14" lengthAdjust="spacing" textLength="177" x="186.5" y="603.1426">createJob(title : String) : Job</text><ellipse cx="177.5" cy="616.5234" fill="#84BE84" rx="3" ry="3" style="stroke:#038048;stroke-width:1.0;"/><text fill="#000000" font-family="sans-serif" font-size="14" lengthAdjust="spacing" textLength="173" x="186.5" y="620.752">checkForDuplicates() : void</text><ellipse cx="177.5" cy="634.1328" fill="#84BE84" rx="3" ry="3" style="stroke:#038048;stroke-width:1.0;"/><text fill="#000000" font-family="sans-serif" font-size="14" lengthAdjust="spacing" textLength="113" x="186.5" y="638.3613">addJob(job) : void</text><ellipse cx="177.5" cy="651.7422" fill="#84BE84" rx="3" ry="3" style="stroke:#038048;stroke-width:1.0;"/><text fill="#000000" font-family="sans-serif" font-size="14" lengthAdjust="spacing" textLength="146" x="186.5" y="655.9707">getJobList() : List&lt;Job&gt;</text></g><!--class Job--><g id="elem_Job"><rect codeLine="34" fill="#F1F1F1" height="153.6563" id="Job" rx="2.5" ry="2.5" style="stroke:#181818;stroke-width:0.5;" width="277" x="129.5" y="741"/><ellipse cx="252.75" cy="757" fill="#ADD1B2" rx="11" ry="11" style="stroke:#181818;stroke-width:1.0;"/><path d="M255.5156,752.875 Q255.6719,752.6563 255.8594,752.5469 Q256.0469,752.4375 256.2656,752.4375 Q256.6406,752.4375 256.875,752.7031 Q257.1094,752.9531 257.1094,753.5625 L257.1094,755.0156 Q257.1094,755.625 256.875,755.8906 Q256.6406,756.1563 256.2656,756.1563 Q255.9219,756.1563 255.7188,755.9531 Q255.5156,755.7656 255.4063,755.25 Q255.3594,754.8906 255.1719,754.7031 Q254.8438,754.3281 254.2344,754.1094 Q253.625,753.8906 253,753.8906 Q252.2344,753.8906 251.5938,754.2188 Q250.9688,754.5469 250.4688,755.2969 Q249.9844,756.0469 249.9844,757.0781 L249.9844,758.1719 Q249.9844,759.4063 250.875,760.2344 Q251.7656,761.0469 253.3594,761.0469 Q254.2969,761.0469 254.9531,760.7969 Q255.3438,760.6406 255.7656,760.2031 Q256.0313,759.9375 256.1719,759.8594 Q256.3281,759.7813 256.5313,759.7813 Q256.8594,759.7813 257.1094,760.0469 Q257.375,760.2969 257.375,760.6406 Q257.375,760.9844 257.0313,761.3906 Q256.5313,761.9688 255.7344,762.2969 Q254.6563,762.75 253.3594,762.75 Q251.8438,762.75 250.6406,762.125 Q249.6563,761.625 248.9688,760.5625 Q248.2813,759.4844 248.2813,758.2031 L248.2813,757.0469 Q248.2813,755.7188 248.8906,754.5781 Q249.5156,753.4219 250.6094,752.8125 Q251.7031,752.1875 252.9375,752.1875 Q253.6719,752.1875 254.3125,752.3594 Q254.9688,752.5156 255.5156,752.875 Z " fill="#000000"/><text fill="#000000" font-family="sans-serif" font-size="14" lengthAdjust="spacing" textLength="22" x="273.25" y="762.7285">Job</text><line style="stroke:#181818;stroke-width:0.5;" x1="130.5" x2="405.5" y1="773" y2="773"/><rect fill="none" height="6" style="stroke:#C82930;stroke-width:1.0;" width="6" x="137.5" y="784.3047"/><text fill="#000000" font-family="sans-serif" font-size="14" lengthAdjust="spacing" textLength="71" x="149.5" y="791.5332">title : String</text><line style="stroke:#181818;stroke-width:0.5;" x1="130.5" x2="405.5" y1="798.6094" y2="798.6094"/><ellipse cx="140.5" cy="812.9141" fill="#84BE84" rx="3" ry="3" style="stroke:#038048;stroke-width:1.0;"/><text fill="#000000" font-family="sans-serif" font-size="14" lengthAdjust="spacing" textLength="103" x="149.5" y="817.1426">Job(title : String)</text><ellipse cx="140.5" cy="830.5234" fill="#84BE84" rx="3" ry="3" style="stroke:#038048;stroke-width:1.0;"/><text fill="#000000" font-family="sans-serif" font-size="14" lengthAdjust="spacing" textLength="94" x="149.5" y="834.752">setTitle() : void</text><ellipse cx="140.5" cy="848.1328" fill="#84BE84" rx="3" ry="3" style="stroke:#038048;stroke-width:1.0;"/><text fill="#000000" font-family="sans-serif" font-size="14" lengthAdjust="spacing" textLength="106" x="149.5" y="852.3613">getTitle() : String</text><ellipse cx="140.5" cy="865.7422" fill="#84BE84" rx="3" ry="3" style="stroke:#038048;stroke-width:1.0;"/><text fill="#000000" font-family="sans-serif" font-size="14" lengthAdjust="spacing" textLength="169" x="149.5" y="869.9707">verifyFilled(job : Job) : void</text><ellipse cx="140.5" cy="883.3516" fill="#84BE84" rx="3" ry="3" style="stroke:#038048;stroke-width:1.0;"/><text fill="#000000" font-family="sans-serif" font-size="14" lengthAdjust="spacing" textLength="251" x="149.5" y="887.5801">verifySpecialCharacters(job : Job) : void</text></g><!--link CreateJobUI to CreateJobController--><g id="link_CreateJobUI_CreateJobController"><path codeLine="43" d="M335,73.34 C335,89.7 335,110.01 335,128.72 " fill="none" id="CreateJobUI-to-CreateJobController" style="stroke:#181818;stroke-width:1.0;stroke-dasharray:7.0,7.0;"/><polygon fill="#181818" points="335,133.95,339,124.95,335,128.95,331,124.95,335,133.95" style="stroke:#181818;stroke-width:1.0;"/></g><!--link Repositories to JobRepository--><g id="link_Repositories_JobRepository"><path codeLine="44" d="M174.35,449.08 C189.48,472.49 206.51,498.84 221.85,522.59 " fill="none" id="Repositories-to-JobRepository" style="stroke:#181818;stroke-width:1.0;"/><polygon fill="#181818" points="224.7,526.99,223.1745,517.26,221.9861,522.7906,216.4555,521.6022,224.7,526.99" style="stroke:#181818;stroke-width:1.0;"/><text fill="#000000" font-family="sans-serif" font-size="13" lengthAdjust="spacing" textLength="79" x="205" y="493.4951">jobRepository</text><text fill="#000000" font-family="sans-serif" font-size="13" lengthAdjust="spacing" textLength="7" x="212.5812" y="516.1882">1</text></g><!--link Repositories to Repositories--><g id="link_Repositories_Repositories"><path codeLine="45" d="M255.33,362.57 C275.86,365.18 290,371.32 290,381 C290,389.85 278.19,395.74 260.47,398.68 " fill="none" id="Repositories-to-Repositories" style="stroke:#181818;stroke-width:1.0;"/><polygon fill="#181818" points="255.33,399.43,264.8171,402.0748,260.2766,398.7009,263.6505,394.1603,255.33,399.43" style="stroke:#181818;stroke-width:1.0;"/><text fill="#000000" font-family="sans-serif" font-size="13" lengthAdjust="spacing" textLength="49" x="296" y="386.4951">instance</text></g><!--link JobRepository to Job--><g id="link_JobRepository_Job"><path codeLine="46" d="M268,663.21 C268,686.09 268,711.91 268,735.77 " fill="none" id="JobRepository-to-Job" style="stroke:#181818;stroke-width:1.0;"/><polygon fill="#181818" points="268,740.83,272,731.83,268,735.83,264,731.83,268,740.83" style="stroke:#181818;stroke-width:1.0;"/><text fill="#000000" font-family="sans-serif" font-size="13" lengthAdjust="spacing" textLength="24" x="269" y="707.4951">jobs</text><text fill="#000000" font-family="sans-serif" font-size="13" lengthAdjust="spacing" textLength="5" x="262.7617" y="730.2405">*</text></g><!--link CreateJobController to Repositories--><g id="link_CreateJobController_Repositories"><path codeLine="47" d="M282.99,235.08 C259.37,257.61 230.98,284.67 205.17,309.28 " fill="none" id="CreateJobController-to-Repositories" style="stroke:#181818;stroke-width:1.0;stroke-dasharray:7.0,7.0;"/><polygon fill="#181818" points="201.39,312.89,210.672,309.597,205.0171,309.4485,205.1656,303.7936,201.39,312.89" style="stroke:#181818;stroke-width:1.0;"/><text fill="#000000" font-family="sans-serif" font-size="13" lengthAdjust="spacing" textLength="67" x="253" y="279.4951">repositories</text></g><!--link CreateJobController to JobRepository--><g id="link_CreateJobController_JobRepository"><path codeLine="48" d="M341.62,235.16 C346.39,270.96 352,313 352,313 C352,313 352,449 352,449 C352,449 330.75,485.68 309.62,522.15 " fill="none" id="CreateJobController-to-JobRepository" style="stroke:#181818;stroke-width:1.0;stroke-dasharray:7.0,7.0;"/><polygon fill="#181818" points="307.05,526.59,315.015,520.797,309.5507,522.2603,308.0874,516.7959,307.05,526.59" style="stroke:#181818;stroke-width:1.0;"/><text fill="#000000" font-family="sans-serif" font-size="13" lengthAdjust="spacing" textLength="79" x="353" y="386.4951">jobRepository</text></g><!--SRC=[XLD1Ri8m4Bpx5IikG56GUeqgBbH8eAg7qZx0E4konOqZsmL5LVzUEqc3JKF99ShipEnuipO7AYkk-GTKN1nuZbjRImIDml8obyXCJp05pzI9oXpsN9gm8gb4MrS8bPAr_s1iB75lmIhGb1SMClAEf4h6XEJ6m58ZjxXHkxSrV35mpqmqq3EU73gPGWf7HHdx_gDOgj9g9ILgfqpUrUu5AsN8Abs7Hjx5adM7IM5hjSlTUpQi0R_9j2cDPpdQJUZRn8cGSwuU8pI_Ht7wTMdS10Ksqf3JCsvryBm4gFCPSaaYg4iVJ-HwxWZk9lb4nZg5Vpsu-kBsF1tQaGeKXvNIZv-L9E7uPXBFcsUPjt1TOhoTX6_P2CwzmwJTO1E84xGEC12jgnYqhxvmaGNo40-zZgXfNw_8hKFcixP7ZDKjPrkX82wNXRi2mg8s0tHtX73Hv_F5q1gpQ8MIP06Z-z75_qaXNlG_aWX8-xLXiKrZVjUOjvQ63Tqh7_J2K8VBTqtpV-OV]--></g></svg>