<?xml version="1.0" encoding="UTF-8" standalone="no"?><svg xmlns="http://www.w3.org/2000/svg" xmlns:xlink="http://www.w3.org/1999/xlink" contentStyleType="text/css" height="598px" preserveAspectRatio="none" style="width:503px;height:598px;background:#FFFFFF;" version="1.1" viewBox="0 0 503 598" width="503px" zoomAndPan="magnify"><defs/><g><rect fill="#FFFFFF" height="55.7031" style="stroke:#181818;stroke-width:1.0;" width="10" x="122" y="87.5703"/><rect fill="#FFFFFF" height="167.4063" style="stroke:#181818;stroke-width:1.0;" width="10" x="122" y="359.2891"/><rect fill="#FFFFFF" height="41.3516" style="stroke:#181818;stroke-width:1.0;" width="10" x="127" y="397.6406"/><rect fill="#FFFFFF" height="206.0156" style="stroke:#181818;stroke-width:1.0;" width="10" x="280" y="153.2734"/><rect fill="#FFFFFF" height="128.0547" style="stroke:#181818;stroke-width:1.0;" width="10" x="285" y="193.8828"/><rect fill="#FFFFFF" height="41.3516" style="stroke:#181818;stroke-width:1.0;" width="10" x="290" y="237.2344"/><rect fill="none" height="394.7734" style="stroke:#000000;stroke-width:1.5;" width="432.5" x="64.5" y="102.5703"/><line style="stroke:#181818;stroke-width:0.5;stroke-dasharray:5.0,5.0;" x1="126.5" x2="126.5" y1="55.2188" y2="544.6953"/><line style="stroke:#181818;stroke-width:0.5;stroke-dasharray:5.0,5.0;" x1="285" x2="285" y1="152.2266" y2="544.6953"/><rect fill="#E3E3E3" height="49.2188" rx="2.5" ry="2.5" style="stroke:#181818;stroke-width:0.5;" width="105" x="74.5" y="5"/><text fill="#000000" font-family="sans-serif" font-size="14" lengthAdjust="spacing" textLength="91" x="81.5" y="26.5332">jobRepository:</text><text fill="#000000" font-family="sans-serif" font-size="14" lengthAdjust="spacing" textLength="90" x="82" y="44.1426">JobRepository</text><rect fill="#E3E3E3" height="49.2188" rx="2.5" ry="2.5" style="stroke:#181818;stroke-width:0.5;" width="105" x="74.5" y="543.6953"/><text fill="#000000" font-family="sans-serif" font-size="14" lengthAdjust="spacing" textLength="91" x="81.5" y="565.2285">jobRepository:</text><text fill="#000000" font-family="sans-serif" font-size="14" lengthAdjust="spacing" textLength="90" x="82" y="582.8379">JobRepository</text><rect fill="#E3E3E3" height="31.6094" rx="2.5" ry="2.5" style="stroke:#181818;stroke-width:0.5;" width="40" x="265" y="543.6953"/><text fill="#000000" font-family="sans-serif" font-size="14" lengthAdjust="spacing" textLength="26" x="272" y="565.2285">:Job</text><rect fill="#FFFFFF" height="55.7031" style="stroke:#181818;stroke-width:1.0;" width="10" x="122" y="87.5703"/><rect fill="#FFFFFF" height="167.4063" style="stroke:#181818;stroke-width:1.0;" width="10" x="122" y="359.2891"/><rect fill="#FFFFFF" height="41.3516" style="stroke:#181818;stroke-width:1.0;" width="10" x="127" y="397.6406"/><rect fill="#FFFFFF" height="206.0156" style="stroke:#181818;stroke-width:1.0;" width="10" x="280" y="153.2734"/><rect fill="#FFFFFF" height="128.0547" style="stroke:#181818;stroke-width:1.0;" width="10" x="285" y="193.8828"/><rect fill="#FFFFFF" height="41.3516" style="stroke:#181818;stroke-width:1.0;" width="10" x="290" y="237.2344"/><polygon fill="#181818" points="110,83.5703,120,87.5703,110,91.5703,114,87.5703" style="stroke:#181818;stroke-width:1.0;"/><line style="stroke:#181818;stroke-width:1.0;" x1="0" x2="116" y1="87.5703" y2="87.5703"/><text fill="#000000" font-family="sans-serif" font-size="13" font-weight="bold" lengthAdjust="spacing" textLength="14" x="7" y="82.7139">12</text><text fill="#000000" font-family="sans-serif" font-size="13" lengthAdjust="spacing" textLength="85" x="25" y="82.7139">createJob(title)</text><path d="M64.5,102.5703 L178.5,102.5703 L178.5,110.9219 L168.5,120.9219 L64.5,120.9219 L64.5,102.5703 " fill="#EEEEEE" style="stroke:#000000;stroke-width:1.5;"/><rect fill="none" height="394.7734" style="stroke:#000000;stroke-width:1.5;" width="432.5" x="64.5" y="102.5703"/><text fill="#000000" font-family="sans-serif" font-size="13" font-weight="bold" lengthAdjust="spacing" textLength="69" x="79.5" y="117.0654">Create Job</text><polygon fill="#181818" points="253,139.2734,263,143.2734,253,147.2734,257,143.2734" style="stroke:#181818;stroke-width:1.0;"/><line style="stroke:#181818;stroke-width:1.0;" x1="127" x2="259" y1="143.2734" y2="143.2734"/><text fill="#000000" font-family="sans-serif" font-size="13" font-weight="bold" lengthAdjust="spacing" textLength="14" x="134" y="138.417">13</text><text fill="#000000" font-family="sans-serif" font-size="13" lengthAdjust="spacing" textLength="65" x="152" y="138.417">create(title)</text><rect fill="#E3E3E3" height="31.6094" rx="2.5" ry="2.5" style="stroke:#181818;stroke-width:0.5;" width="40" x="265" y="120.9219"/><text fill="#000000" font-family="sans-serif" font-size="14" lengthAdjust="spacing" textLength="26" x="272" y="142.4551">:Job</text><line style="stroke:#181818;stroke-width:1.0;" x1="290" x2="337" y1="180.8828" y2="180.8828"/><line style="stroke:#181818;stroke-width:1.0;" x1="337" x2="337" y1="180.8828" y2="193.8828"/><line style="stroke:#181818;stroke-width:1.0;" x1="296" x2="337" y1="193.8828" y2="193.8828"/><polygon fill="#181818" points="306,189.8828,296,193.8828,306,197.8828,302,193.8828" style="stroke:#181818;stroke-width:1.0;"/><text fill="#000000" font-family="sans-serif" font-size="13" font-weight="bold" lengthAdjust="spacing" textLength="14" x="302" y="176.0264">14</text><text fill="#000000" font-family="sans-serif" font-size="13" lengthAdjust="spacing" textLength="85" x="320" y="176.0264">verifyFilled(job)</text><line style="stroke:#181818;stroke-width:1.0;" x1="295" x2="342" y1="224.2344" y2="224.2344"/><line style="stroke:#181818;stroke-width:1.0;" x1="342" x2="342" y1="224.2344" y2="237.2344"/><line style="stroke:#181818;stroke-width:1.0;" x1="301" x2="342" y1="237.2344" y2="237.2344"/><polygon fill="#181818" points="311,233.2344,301,237.2344,311,241.2344,307,237.2344" style="stroke:#181818;stroke-width:1.0;"/><text fill="#000000" font-family="sans-serif" font-size="13" font-weight="bold" lengthAdjust="spacing" textLength="14" x="307" y="219.3779">15</text><text fill="#000000" font-family="sans-serif" font-size="13" lengthAdjust="spacing" textLength="160" x="325" y="219.3779">verifySpecialCharacters(job)</text><line style="stroke:#181818;stroke-width:1.0;stroke-dasharray:2.0,2.0;" x1="300" x2="342" y1="277.5859" y2="277.5859"/><line style="stroke:#181818;stroke-width:1.0;stroke-dasharray:2.0,2.0;" x1="342" x2="342" y1="277.5859" y2="290.5859"/><line style="stroke:#181818;stroke-width:1.0;stroke-dasharray:2.0,2.0;" x1="295" x2="342" y1="290.5859" y2="290.5859"/><polygon fill="#181818" points="305,286.5859,295,290.5859,305,294.5859,301,290.5859" style="stroke:#181818;stroke-width:1.0;"/><text fill="#000000" font-family="sans-serif" font-size="13" font-weight="bold" lengthAdjust="spacing" textLength="14" x="307" y="272.7295">16</text><text fill="#000000" font-family="sans-serif" font-size="13" lengthAdjust="spacing" textLength="4" x="325" y="272.7295"> </text><line style="stroke:#181818;stroke-width:1.0;stroke-dasharray:2.0,2.0;" x1="295" x2="337" y1="320.9375" y2="320.9375"/><line style="stroke:#181818;stroke-width:1.0;stroke-dasharray:2.0,2.0;" x1="337" x2="337" y1="320.9375" y2="333.9375"/><line style="stroke:#181818;stroke-width:1.0;stroke-dasharray:2.0,2.0;" x1="290" x2="337" y1="333.9375" y2="333.9375"/><polygon fill="#181818" points="300,329.9375,290,333.9375,300,337.9375,296,333.9375" style="stroke:#181818;stroke-width:1.0;"/><text fill="#000000" font-family="sans-serif" font-size="13" font-weight="bold" lengthAdjust="spacing" textLength="14" x="302" y="316.0811">17</text><text fill="#000000" font-family="sans-serif" font-size="13" lengthAdjust="spacing" textLength="4" x="320" y="316.0811"> </text><polygon fill="#181818" points="143,355.2891,133,359.2891,143,363.2891,139,359.2891" style="stroke:#181818;stroke-width:1.0;"/><line style="stroke:#181818;stroke-width:1.0;stroke-dasharray:2.0,2.0;" x1="137" x2="284" y1="359.2891" y2="359.2891"/><text fill="#000000" font-family="sans-serif" font-size="13" font-weight="bold" lengthAdjust="spacing" textLength="14" x="149" y="354.4326">18</text><text fill="#000000" font-family="sans-serif" font-size="13" lengthAdjust="spacing" textLength="17" x="167" y="354.4326">job</text><line style="stroke:#181818;stroke-width:1.0;" x1="132" x2="179" y1="384.6406" y2="384.6406"/><line style="stroke:#181818;stroke-width:1.0;" x1="179" x2="179" y1="384.6406" y2="397.6406"/><line style="stroke:#181818;stroke-width:1.0;" x1="138" x2="179" y1="397.6406" y2="397.6406"/><polygon fill="#181818" points="148,393.6406,138,397.6406,148,401.6406,144,397.6406" style="stroke:#181818;stroke-width:1.0;"/><text fill="#000000" font-family="sans-serif" font-size="13" font-weight="bold" lengthAdjust="spacing" textLength="14" x="144" y="379.7842">19</text><text fill="#000000" font-family="sans-serif" font-size="13" lengthAdjust="spacing" textLength="116" x="162" y="379.7842">check for duplicates</text><line style="stroke:#181818;stroke-width:1.0;stroke-dasharray:2.0,2.0;" x1="137" x2="179" y1="437.9922" y2="437.9922"/><line style="stroke:#181818;stroke-width:1.0;stroke-dasharray:2.0,2.0;" x1="179" x2="179" y1="437.9922" y2="450.9922"/><line style="stroke:#181818;stroke-width:1.0;stroke-dasharray:2.0,2.0;" x1="132" x2="179" y1="450.9922" y2="450.9922"/><polygon fill="#181818" points="142,446.9922,132,450.9922,142,454.9922,138,450.9922" style="stroke:#181818;stroke-width:1.0;"/><text fill="#000000" font-family="sans-serif" font-size="13" font-weight="bold" lengthAdjust="spacing" textLength="14" x="144" y="433.1357">20</text><text fill="#000000" font-family="sans-serif" font-size="13" lengthAdjust="spacing" textLength="4" x="162" y="433.1357"> </text><line style="stroke:#181818;stroke-width:1.0;" x1="132" x2="174" y1="481.3438" y2="481.3438"/><line style="stroke:#181818;stroke-width:1.0;" x1="174" x2="174" y1="481.3438" y2="494.3438"/><line style="stroke:#181818;stroke-width:1.0;" x1="127" x2="174" y1="494.3438" y2="494.3438"/><polygon fill="#181818" points="137,490.3438,127,494.3438,137,498.3438,133,494.3438" style="stroke:#181818;stroke-width:1.0;"/><text fill="#000000" font-family="sans-serif" font-size="13" font-weight="bold" lengthAdjust="spacing" textLength="14" x="139" y="476.4873">21</text><text fill="#000000" font-family="sans-serif" font-size="13" lengthAdjust="spacing" textLength="66" x="157" y="476.4873">addJob(job)</text><polygon fill="#181818" points="11,522.6953,1,526.6953,11,530.6953,7,526.6953" style="stroke:#181818;stroke-width:1.0;"/><line style="stroke:#181818;stroke-width:1.0;stroke-dasharray:2.0,2.0;" x1="5" x2="126" y1="526.6953" y2="526.6953"/><text fill="#000000" font-family="sans-serif" font-size="13" font-weight="bold" lengthAdjust="spacing" textLength="14" x="17" y="521.8389">22</text><text fill="#000000" font-family="sans-serif" font-size="13" lengthAdjust="spacing" textLength="17" x="35" y="521.8389">job</text><!--SRC=[bP8_RyCW4CLtFiKfIvD87jhHghf4wj2nMRjSu6oJO41mJfjlN_B7LeXigsNZxhqVy8vuqDPZm1PQPvriWci9E7Gauj3nA0zOqvPFXY2GPBIrkHV41fNxrhQ62aqa8R1ZPxjsHm6UNuHuQhGYg9pZdViHoSDQQe-MOR5tkq_oBcfsuLH-sO_x_G8mGbR9pMNgzHfHlELIA446GgPKNR9cGok1alKnbHwWeWwkyx2vo2ym0Mdbk2j_lHwuFVGiLJI1XjkwRm_q6pCHZnHqTNhNnf1QfanMuyQ-EEBTUf8QpQP94v5C8VuLS-KCjVmbOamsByaci9-sp0Gs5dm-s8Ra8Nse0AhpHik4YV-4FbB5x0ZdRrG2AdN-PaFa3-ybgyHhKOp6CtdkPECN]--></g></svg>