<?xml version="1.0" encoding="UTF-8" standalone="no"?><svg xmlns="http://www.w3.org/2000/svg" xmlns:xlink="http://www.w3.org/1999/xlink" contentStyleType="text/css" height="688px" preserveAspectRatio="none" style="width:925px;height:688px;background:#FFFFFF;" version="1.1" viewBox="0 0 925 688" width="925px" zoomAndPan="magnify"><defs/><g><text fill="#000000" font-family="sans-serif" font-size="14" font-weight="bold" lengthAdjust="spacing" textLength="100" x="405.5" y="24.5332">Domain Model</text><!--class HRM--><g id="elem_HRM"><rect codeLine="11" fill="#F1F1F1" height="35.6094" id="HRM" rx="2.5" ry="2.5" style="stroke:#181818;stroke-width:0.5;" width="36" x="7" y="509.6094"/><text fill="#000000" font-family="sans-serif" font-size="14" lengthAdjust="spacing" textLength="30" x="10" y="529.1426">HRM</text><line style="stroke:#181818;stroke-width:0.5;" x1="8" x2="42" y1="537.2188" y2="537.2188"/></g><!--class VFM--><g id="elem_VFM"><rect codeLine="14" fill="#F1F1F1" height="35.6094" id="VFM" rx="2.5" ry="2.5" style="stroke:#181818;stroke-width:0.5;" width="35" x="7.5" y="207.6094"/><text fill="#000000" font-family="sans-serif" font-size="14" lengthAdjust="spacing" textLength="29" x="10.5" y="227.1426">VFM</text><line style="stroke:#181818;stroke-width:0.5;" x1="8.5" x2="41.5" y1="235.2188" y2="235.2188"/></g><!--class Skill--><g id="elem_Skill"><rect codeLine="17" fill="#F1F1F1" height="53.2188" id="Skill" rx="2.5" ry="2.5" style="stroke:#181818;stroke-width:0.5;" width="85" x="206" y="345.1094"/><text fill="#000000" font-family="sans-serif" font-size="14" lengthAdjust="spacing" textLength="25" x="236" y="364.6426">Skill</text><line style="stroke:#181818;stroke-width:0.5;" x1="207" x2="290" y1="372.7188" y2="372.7188"/><text fill="#000000" font-family="sans-serif" font-size="14" lengthAdjust="spacing" textLength="73" x="212" y="391.252">designation</text></g><!--class Job--><g id="elem_Job"><rect codeLine="21" fill="#F1F1F1" height="70.8281" id="Job" rx="2.5" ry="2.5" style="stroke:#181818;stroke-width:0.5;" width="81" x="208" y="433.1094"/><text fill="#000000" font-family="sans-serif" font-size="14" lengthAdjust="spacing" textLength="22" x="237.5" y="452.6426">Job</text><line style="stroke:#181818;stroke-width:0.5;" x1="209" x2="288" y1="460.7188" y2="460.7188"/><text fill="#000000" font-family="sans-serif" font-size="14" lengthAdjust="spacing" textLength="22" x="214" y="479.252">title</text><text fill="#000000" font-family="sans-serif" font-size="14" lengthAdjust="spacing" textLength="69" x="214" y="496.8613">description</text></g><!--class Collaborator--><g id="elem_Collaborator"><rect codeLine="26" fill="#F1F1F1" height="53.2188" id="Collaborator" rx="2.5" ry="2.5" style="stroke:#181818;stroke-width:0.5;" width="105" x="426.5" y="501.1094"/><text fill="#000000" font-family="sans-serif" font-size="14" lengthAdjust="spacing" textLength="78" x="440" y="520.6426">Collaborator</text><line style="stroke:#181818;stroke-width:0.5;" x1="427.5" x2="530.5" y1="528.7188" y2="528.7188"/><text fill="#000000" font-family="sans-serif" font-size="14" lengthAdjust="spacing" textLength="93" x="432.5" y="547.252">admissionDate</text></g><!--class DocumentType--><g id="elem_DocumentType"><rect codeLine="30" fill="#F1F1F1" height="53.2188" id="DocumentType" rx="2.5" ry="2.5" style="stroke:#181818;stroke-width:0.5;" width="125" x="793" y="452.1094"/><text fill="#000000" font-family="sans-serif" font-size="14" lengthAdjust="spacing" textLength="96" x="807.5" y="471.6426">DocumentType</text><line style="stroke:#181818;stroke-width:0.5;" x1="794" x2="917" y1="479.7188" y2="479.7188"/><text fill="#000000" font-family="sans-serif" font-size="14" lengthAdjust="spacing" textLength="113" x="799" y="498.252">identificationCode</text></g><!--class Team--><g id="elem_Team"><rect codeLine="35" fill="#F1F1F1" height="53.2188" id="Team" rx="2.5" ry="2.5" style="stroke:#181818;stroke-width:0.5;" width="47" x="225" y="628.1094"/><text fill="#000000" font-family="sans-serif" font-size="14" lengthAdjust="spacing" textLength="36" x="230.5" y="647.6426">Team</text><line style="stroke:#181818;stroke-width:0.5;" x1="226" x2="271" y1="655.7188" y2="655.7188"/><text fill="#000000" font-family="sans-serif" font-size="14" lengthAdjust="spacing" textLength="35" x="231" y="674.252">name</text></g><!--class Vehicle--><g id="elem_Vehicle"><rect codeLine="39" fill="#F1F1F1" height="176.4844" id="Vehicle" rx="2.5" ry="2.5" style="stroke:#181818;stroke-width:0.5;" width="161" x="168" y="45.6094"/><text fill="#000000" font-family="sans-serif" font-size="14" lengthAdjust="spacing" textLength="46" x="225.5" y="65.1426">Vehicle</text><line style="stroke:#181818;stroke-width:0.5;" x1="169" x2="328" y1="73.2188" y2="73.2188"/><text fill="#000000" font-family="sans-serif" font-size="14" lengthAdjust="spacing" textLength="18" x="174" y="91.752">vin</text><text fill="#000000" font-family="sans-serif" font-size="14" lengthAdjust="spacing" textLength="76" x="174" y="109.3613">vehiclePlate</text><text fill="#000000" font-family="sans-serif" font-size="14" lengthAdjust="spacing" textLength="69" x="174" y="126.9707">tareWeight</text><text fill="#000000" font-family="sans-serif" font-size="14" lengthAdjust="spacing" textLength="79" x="174" y="144.5801">grossWeight</text><text fill="#000000" font-family="sans-serif" font-size="14" lengthAdjust="spacing" textLength="65" x="174" y="162.1895">currentKm</text><text fill="#000000" font-family="sans-serif" font-size="14" lengthAdjust="spacing" textLength="97" x="174" y="179.7988">acquisitionDate</text><text fill="#000000" font-family="sans-serif" font-size="14" lengthAdjust="spacing" textLength="149" x="174" y="197.4082">maintenanceFrequency</text><text fill="#000000" font-family="sans-serif" font-size="14" lengthAdjust="spacing" textLength="27" x="174" y="215.0176">type</text></g><!--class Brand--><g id="elem_Brand"><rect codeLine="50" fill="#F1F1F1" height="53.2188" id="Brand" rx="2.5" ry="2.5" style="stroke:#181818;stroke-width:0.5;" width="50" x="454" y="107.1094"/><text fill="#000000" font-family="sans-serif" font-size="14" lengthAdjust="spacing" textLength="38" x="460" y="126.6426">Brand</text><line style="stroke:#181818;stroke-width:0.5;" x1="455" x2="503" y1="134.7188" y2="134.7188"/><text fill="#000000" font-family="sans-serif" font-size="14" lengthAdjust="spacing" textLength="38" x="460" y="153.252">model</text></g><!--class VehicleCheckup--><g id="elem_VehicleCheckup"><rect codeLine="54" fill="#F1F1F1" height="70.8281" id="VehicleCheckup" rx="2.5" ry="2.5" style="stroke:#181818;stroke-width:0.5;" width="108" x="425" y="217.1094"/><text fill="#000000" font-family="sans-serif" font-size="14" lengthAdjust="spacing" textLength="102" x="428" y="236.6426">VehicleCheckup</text><line style="stroke:#181818;stroke-width:0.5;" x1="426" x2="532" y1="244.7188" y2="244.7188"/><text fill="#000000" font-family="sans-serif" font-size="14" lengthAdjust="spacing" textLength="28" x="431" y="263.252">date</text><text fill="#000000" font-family="sans-serif" font-size="14" lengthAdjust="spacing" textLength="65" x="431" y="280.8613">currentKm</text></g><!--class Person--><g id="elem_Person"><rect codeLine="59" fill="#F1F1F1" height="88.4375" id="Person" rx="2.5" ry="2.5" style="stroke:#181818;stroke-width:0.5;" width="68" x="618" y="483.6094"/><text fill="#000000" font-family="sans-serif" font-size="14" lengthAdjust="spacing" textLength="45" x="629.5" y="503.1426">Person</text><line style="stroke:#181818;stroke-width:0.5;" x1="619" x2="685" y1="511.2188" y2="511.2188"/><text fill="#000000" font-family="sans-serif" font-size="14" lengthAdjust="spacing" textLength="35" x="624" y="529.752">name</text><text fill="#000000" font-family="sans-serif" font-size="14" lengthAdjust="spacing" textLength="56" x="624" y="547.3613">birthdate</text><text fill="#000000" font-family="sans-serif" font-size="14" lengthAdjust="spacing" textLength="46" x="624" y="564.9707">contact</text></g><!--class Address--><g id="elem_Address"><rect codeLine="65" fill="#F1F1F1" height="70.8281" id="Address" rx="2.5" ry="2.5" style="stroke:#181818;stroke-width:0.5;" width="63" x="824" y="540.1094"/><text fill="#000000" font-family="sans-serif" font-size="14" lengthAdjust="spacing" textLength="52" x="829.5" y="559.6426">Address</text><line style="stroke:#181818;stroke-width:0.5;" x1="825" x2="886" y1="567.7188" y2="567.7188"/><text fill="#000000" font-family="sans-serif" font-size="14" lengthAdjust="spacing" textLength="51" x="830" y="586.252">zipCode</text><text fill="#000000" font-family="sans-serif" font-size="14" lengthAdjust="spacing" textLength="21" x="830" y="603.8613">city</text></g><!--link Vehicle to Brand--><g id="link_Vehicle_Brand"><path codeLine="70" d="M329.1,133.6094 C373.02,133.6094 424.48,133.6094 453.96,133.6094 " fill="none" id="Vehicle-Brand" style="stroke:#181818;stroke-width:1.0;"/><polygon fill="#000000" points="369,124.7852,359.9549,121.8462,359.9549,127.7241,369,124.7852" style="stroke:#000000;stroke-width:1.0;"/><text fill="#000000" font-family="sans-serif" font-size="13" lengthAdjust="spacing" textLength="21" x="373" y="130.1045">has</text><text fill="#000000" font-family="sans-serif" font-size="13" lengthAdjust="spacing" textLength="7" x="337.1158" y="147.8607">1</text><text fill="#000000" font-family="sans-serif" font-size="13" lengthAdjust="spacing" textLength="7" x="438.9331" y="149.3732">1</text></g><!--link HRM to Skill--><g id="link_HRM_Skill"><path codeLine="72" d="M38.62,509.5794 C47.38,497.8694 59.83,482.7594 73,471.6094 C113.9,436.9694 168.49,407.9194 205.65,390.2094 " fill="none" id="HRM-Skill" style="stroke:#181818;stroke-width:1.0;"/><polygon fill="#000000" points="85.5679,414.878,76.5002,417.7461,79.9178,422.5282,85.5679,414.878" style="stroke:#000000;stroke-width:1.0;"/><text fill="#000000" font-family="sans-serif" font-size="13" lengthAdjust="spacing" textLength="43" x="90.5" y="423.1045">creates</text><text fill="#000000" font-family="sans-serif" font-size="13" lengthAdjust="spacing" textLength="20" x="19.7739" y="498.8957">1..*</text><text fill="#000000" font-family="sans-serif" font-size="13" lengthAdjust="spacing" textLength="20" x="177.8877" y="407.6211">1..*</text></g><!--link HRM to Job--><g id="link_HRM_Job"><path codeLine="74" d="M43.01,523.0794 C77.96,513.7694 158.66,492.2694 207.58,479.2394 " fill="none" id="HRM-Job" style="stroke:#181818;stroke-width:1.0;"/><polygon fill="#000000" points="86.3315,487.4981,76.8347,486.9865,78.3478,492.6663,86.3315,487.4981" style="stroke:#000000;stroke-width:1.0;"/><text fill="#000000" font-family="sans-serif" font-size="13" lengthAdjust="spacing" textLength="43" x="90.5" y="494.1045">creates</text><text fill="#000000" font-family="sans-serif" font-size="13" lengthAdjust="spacing" textLength="20" x="50.8878" y="517.1548">1..*</text><text fill="#000000" font-family="sans-serif" font-size="13" lengthAdjust="spacing" textLength="20" x="180.1011" y="495.5092">1..*</text></g><!--link Collaborator to Person--><g id="link_Collaborator_Person"><path codeLine="76" d="M531.77,527.6094 C559.79,527.6094 593.55,527.6094 617.99,527.6094 " fill="none" id="Collaborator-Person" style="stroke:#181818;stroke-width:1.0;"/><polygon fill="#000000" points="573,518.7852,563.9549,515.8462,563.9549,521.7241,573,518.7852" style="stroke:#000000;stroke-width:1.0;"/><text fill="#000000" font-family="sans-serif" font-size="13" lengthAdjust="spacing" textLength="10" x="577" y="524.1045">is</text><text fill="#000000" font-family="sans-serif" font-size="13" lengthAdjust="spacing" textLength="7" x="539.3313" y="542.1884">1</text><text fill="#000000" font-family="sans-serif" font-size="13" lengthAdjust="spacing" textLength="7" x="602.7847" y="542.8451">1</text></g><!--link Person to DocumentType--><g id="link_Person_DocumentType"><path codeLine="77" d="M686.27,519.5194 C715.11,512.5094 757.6,502.1694 792.67,493.6494 " fill="none" id="Person-DocumentType" style="stroke:#181818;stroke-width:1.0;"/><polygon fill="#000000" points="731.3585,491.6039,721.8751,490.8851,723.2638,496.5966,731.3585,491.6039" style="stroke:#000000;stroke-width:1.0;"/><text fill="#000000" font-family="sans-serif" font-size="13" lengthAdjust="spacing" textLength="21" x="735.5" y="498.1045">has</text><text fill="#000000" font-family="sans-serif" font-size="13" lengthAdjust="spacing" textLength="7" x="694.0601" y="532.9871">1</text><text fill="#000000" font-family="sans-serif" font-size="13" lengthAdjust="spacing" textLength="20" x="765.1594" y="509.5273">1..*</text></g><!--link HRM to Collaborator--><g id="link_HRM_Collaborator"><path codeLine="78" d="M43.02,529.5194 C69.64,532.3894 122.76,537.6994 168,539.6094 C239.49,542.6294 257.5,542.4794 329,539.6094 C361.41,538.3094 397.7,535.4194 426.34,532.7994 " fill="none" id="HRM-Collaborator" style="stroke:#181818;stroke-width:1.0;"/><polygon fill="#000000" points="225.9998,530.8279,216.9802,527.8117,216.9299,533.6894,225.9998,530.8279" style="stroke:#000000;stroke-width:1.0;"/><text fill="#000000" font-family="sans-serif" font-size="13" lengthAdjust="spacing" textLength="50" x="230" y="536.1045">registers</text><text fill="#000000" font-family="sans-serif" font-size="13" lengthAdjust="spacing" textLength="20" x="50.9006" y="545.906">1..*</text><text fill="#000000" font-family="sans-serif" font-size="13" lengthAdjust="spacing" textLength="20" x="398.3117" y="547.993">1..*</text></g><!--link Job to Collaborator--><g id="link_Job_Collaborator"><path codeLine="80" d="M289.04,478.8194 C326.98,488.6194 384.48,503.4594 426.09,514.2094 " fill="none" id="Job-Collaborator" style="stroke:#181818;stroke-width:1.0;"/><polygon fill="#000000" points="373.8412,490.0353,365.8182,484.9282,364.3486,490.6194,373.8412,490.0353" style="stroke:#000000;stroke-width:1.0;"/><text fill="#000000" font-family="sans-serif" font-size="13" lengthAdjust="spacing" textLength="11" x="378" y="494.1045">to</text><text fill="#000000" font-family="sans-serif" font-size="13" lengthAdjust="spacing" textLength="7" x="296.8846" y="495.6048">1</text><text fill="#000000" font-family="sans-serif" font-size="13" lengthAdjust="spacing" textLength="20" x="398.4228" y="527.0545">1..*</text></g><!--link Skill to Collaborator--><g id="link_Skill_Collaborator"><path codeLine="83" d="M291.4,393.3794 C303.72,400.1594 317.09,407.8894 329,415.6094 C370.55,442.5394 415.66,477.2794 445.23,500.8894 " fill="none" id="Skill-Collaborator" style="stroke:#181818;stroke-width:1.0;"/><polygon fill="#000000" points="373.0983,431.6494,367.368,424.059,364.0008,428.8768,373.0983,431.6494" style="stroke:#000000;stroke-width:1.0;"/><text fill="#000000" font-family="sans-serif" font-size="13" lengthAdjust="spacing" textLength="11" x="378" y="434.1045">to</text><text fill="#000000" font-family="sans-serif" font-size="13" lengthAdjust="spacing" textLength="5" x="298.9194" y="411.8161">*</text><text fill="#000000" font-family="sans-serif" font-size="13" lengthAdjust="spacing" textLength="20" x="415.1082" y="490.3708">1..*</text></g><!--link HRM to Team--><g id="link_HRM_Team"><path codeLine="85" d="M33.12,545.7594 C40.61,562.5894 53.98,587.1494 73,601.6094 C119.38,636.8594 189.24,648.8194 224.86,652.7594 " fill="none" id="HRM-Team" style="stroke:#181818;stroke-width:1.0;"/><polygon fill="#000000" points="82.3662,595.2217,75.8999,588.2476,73.0355,593.3803,82.3662,595.2217" style="stroke:#000000;stroke-width:1.0;"/><text fill="#000000" font-family="sans-serif" font-size="13" lengthAdjust="spacing" textLength="50" x="87" y="598.1045">generate</text><text fill="#000000" font-family="sans-serif" font-size="13" lengthAdjust="spacing" textLength="20" x="12.5913" y="566.7135">1..*</text><text fill="#000000" font-family="sans-serif" font-size="13" lengthAdjust="spacing" textLength="20" x="197.0808" y="667.692">1..*</text></g><!--link Team to Collaborator--><g id="link_Team_Collaborator"><path codeLine="86" d="M272.11,649.2294 C301.76,641.5594 354.73,625.6794 395,601.6094 C416.54,588.7294 437.61,569.8494 453.13,554.3894 " fill="none" id="Team-Collaborator" style="stroke:#181818;stroke-width:1.0;"/><polygon fill="#000000" points="368.429,590.4647,359.053,592.0591,361.7808,597.2657,368.429,590.4647" style="stroke:#000000;stroke-width:1.0;"/><text fill="#000000" font-family="sans-serif" font-size="13" lengthAdjust="spacing" textLength="21" x="373" y="598.1045">has</text><text fill="#000000" font-family="sans-serif" font-size="13" lengthAdjust="spacing" textLength="20" x="279.8823" y="663.3457">1..*</text><text fill="#000000" font-family="sans-serif" font-size="13" lengthAdjust="spacing" textLength="20" x="424.8351" y="575.9427">1..*</text></g><!--link VFM to Vehicle--><g id="link_VFM_Vehicle"><path codeLine="88" d="M42.65,218.6994 C69.06,207.7294 122.23,185.6394 167.79,166.7194 " fill="none" id="VFM-Vehicle" style="stroke:#181818;stroke-width:1.0;"/><polygon fill="#000000" points="86.1175,168.8672,76.637,169.6227,78.8917,175.0509,86.1175,168.8672" style="stroke:#000000;stroke-width:1.0;"/><text fill="#000000" font-family="sans-serif" font-size="13" lengthAdjust="spacing" textLength="43" x="90.5" y="176.1045">creates</text><text fill="#000000" font-family="sans-serif" font-size="13" lengthAdjust="spacing" textLength="20" x="50.4266" y="212.1054">1..*</text><text fill="#000000" font-family="sans-serif" font-size="13" lengthAdjust="spacing" textLength="20" x="139.9946" y="183.7417">1..*</text></g><!--link VFM to VehicleCheckup--><g id="link_VFM_VehicleCheckup"><path codeLine="90" d="M42.86,230.5294 C69.25,237.9394 122.09,251.6594 168,256.6094 C257.77,266.2894 363,261.5694 424.88,257.1594 " fill="none" id="VFM-VehicleCheckup" style="stroke:#181818;stroke-width:1.0;"/><polygon fill="#000000" points="225.9879,248.1329,217.1691,244.5721,216.7603,250.4357,225.9879,248.1329" style="stroke:#000000;stroke-width:1.0;"/><text fill="#000000" font-family="sans-serif" font-size="13" lengthAdjust="spacing" textLength="50" x="230" y="253.1045">registers</text><text fill="#000000" font-family="sans-serif" font-size="13" lengthAdjust="spacing" textLength="20" x="50.3474" y="247.5965">1..*</text><text fill="#000000" font-family="sans-serif" font-size="13" lengthAdjust="spacing" textLength="5" x="411.9178" y="272.4561">*</text></g><!--link Vehicle to VehicleCheckup--><g id="link_Vehicle_VehicleCheckup"><path codeLine="92" d="M329.1,175.0594 C360.78,191.5594 396.39,210.1094 424.84,224.9294 " fill="none" id="Vehicle-VehicleCheckup" style="stroke:#181818;stroke-width:1.0;"/><polygon fill="#000000" points="368.4345,187.095,361.7701,180.3099,359.0547,185.5229,368.4345,187.095" style="stroke:#000000;stroke-width:1.0;"/><text fill="#000000" font-family="sans-serif" font-size="13" lengthAdjust="spacing" textLength="21" x="373" y="190.1045">has</text><text fill="#000000" font-family="sans-serif" font-size="13" lengthAdjust="spacing" textLength="7" x="337.1158" y="193.2614">1</text><text fill="#000000" font-family="sans-serif" font-size="13" lengthAdjust="spacing" textLength="5" x="411.8722" y="235.6938">*</text></g><!--link Person to Address--><g id="link_Person_Address"><path codeLine="95" d="M686.27,535.5394 C724.5,544.6394 786.72,559.4594 823.82,568.2994 " fill="none" id="Person-Address" style="stroke:#181818;stroke-width:1.0;"/><polygon fill="#000000" points="725.864,534.9436,717.7459,529.989,716.3841,535.7069,725.864,534.9436" style="stroke:#000000;stroke-width:1.0;"/><text fill="#000000" font-family="sans-serif" font-size="13" lengthAdjust="spacing" textLength="32" x="730" y="539.1045">has a</text><text fill="#000000" font-family="sans-serif" font-size="13" lengthAdjust="spacing" textLength="7" x="694.0601" y="552.3112">1</text><text fill="#000000" font-family="sans-serif" font-size="13" lengthAdjust="spacing" textLength="7" x="809.1244" y="582.0027">1</text></g><!--SRC=[XPDDRzim38Rl-XL2BWKAj5YlEHJe4XHRYm35KdHdHMPi8hBaIlI6TDX_7_NXsFaOwej5wI5VagB23csdl6fbwwpJZNSjIF8zY70uwPJUgHhMj3SWFMXIjZPJ83IgSh_HrdAhJ9YUQAD2U23okEa9lcjdr_W1yejei0AfqMiEbDOjKEEg80niIPAJ7kk6P8LH3vqLWf1OVkbQXLQkN0L6Y1HUVlknad_4ty5yUrnDhFKEZU5ZoLy50MkhKhm3yEGsvJWf3A3ss1s32sUCsZYloFdYeQeMGs1ggGX6SkbqtuAbrtq76UGABU4MTH9VSFQHBlWhSASoPrKxYVC63NA3ojaljFcVTrzCr4nvAmy_8VOhcRLt8KnitNlFwizjJbc_znYGXgJZNcmfWLLMmwE7znwitkV8NC2OpbUlR9LpQLF_JnDTDA1tVLUQFKGVzG_y2_ZWxBJckDYWfsPqSvQKfj7feQeyX92TFh1BNKmaqZvYGxjcTpDvSvD-AMKvbuqAybw8E2cpkzlRwmAaLPwGkTGUMFl_N1oK8-fe8AQgGtrpYH4irW58qQOpSaZmekwHp9mVO8s1E2JpLz6XYERqk54yul4isiUI9u7uaN4HLrdpKaF6M7bdTlrfj8i5nFcUoneiC0nyOVSYZVndbPPBu_TyZWvtFLx81NJaocIUjEziOYuvb2pERd4s36HX55F_0000]--></g></svg>