<?xml version="1.0" encoding="UTF-8" standalone="no"?><svg xmlns="http://www.w3.org/2000/svg" xmlns:xlink="http://www.w3.org/1999/xlink" contentStyleType="text/css" height="862px" preserveAspectRatio="none" style="width:1602px;height:862px;background:#FFFFFF;" version="1.1" viewBox="0 0 1602 862" width="1602px" zoomAndPan="magnify"><defs/><g><text fill="#000000" font-family="sans-serif" font-size="14" font-weight="bold" lengthAdjust="spacing" textLength="100" x="744" y="24.5332">Domain Model</text><!--class Skill--><g id="elem_Skill"><rect codeLine="11" fill="#F1F1F1" height="53.2188" id="Skill" rx="2.5" ry="2.5" style="stroke:#181818;stroke-width:0.5;" width="85" x="666.5" y="426.1094"/><text fill="#000000" font-family="sans-serif" font-size="14" lengthAdjust="spacing" textLength="25" x="696.5" y="445.6426">Skill</text><line style="stroke:#181818;stroke-width:0.5;" x1="667.5" x2="750.5" y1="453.7188" y2="453.7188"/><text fill="#000000" font-family="sans-serif" font-size="14" lengthAdjust="spacing" textLength="73" x="672.5" y="472.252">designation</text></g><!--class Job--><g id="elem_Job"><rect codeLine="15" fill="#F1F1F1" height="53.2188" id="Job" rx="2.5" ry="2.5" style="stroke:#181818;stroke-width:0.5;" width="34" x="692" y="249.1094"/><text fill="#000000" font-family="sans-serif" font-size="14" lengthAdjust="spacing" textLength="22" x="698" y="268.6426">Job</text><line style="stroke:#181818;stroke-width:0.5;" x1="693" x2="725" y1="276.7188" y2="276.7188"/><text fill="#000000" font-family="sans-serif" font-size="14" lengthAdjust="spacing" textLength="22" x="698" y="295.252">title</text></g><!--class Collaborator--><g id="elem_Collaborator"><rect codeLine="19" fill="#F1F1F1" height="141.2656" id="Collaborator" rx="2.5" ry="2.5" style="stroke:#181818;stroke-width:0.5;" width="115" x="849" y="285.1094"/><text fill="#000000" font-family="sans-serif" font-size="14" lengthAdjust="spacing" textLength="78" x="867.5" y="304.6426">Collaborator</text><line style="stroke:#181818;stroke-width:0.5;" x1="850" x2="963" y1="312.7188" y2="312.7188"/><text fill="#000000" font-family="sans-serif" font-size="14" lengthAdjust="spacing" textLength="35" x="855" y="331.252">name</text><text fill="#000000" font-family="sans-serif" font-size="14" lengthAdjust="spacing" textLength="56" x="855" y="348.8613">birthdate</text><text fill="#000000" font-family="sans-serif" font-size="14" lengthAdjust="spacing" textLength="93" x="855" y="366.4707">admissionDate</text><text fill="#000000" font-family="sans-serif" font-size="14" lengthAdjust="spacing" textLength="90" x="855" y="384.0801">mobileNumber</text><text fill="#000000" font-family="sans-serif" font-size="14" lengthAdjust="spacing" textLength="38" x="855" y="401.6895">e-mail</text><text fill="#000000" font-family="sans-serif" font-size="14" lengthAdjust="spacing" textLength="103" x="855" y="419.2988">taxpayerNumber</text></g><!--class Document--><g id="elem_Document"><rect codeLine="28" fill="#F1F1F1" height="70.8281" id="Document" rx="2.5" ry="2.5" style="stroke:#181818;stroke-width:0.5;" width="140" x="1121" y="382.1094"/><text fill="#000000" font-family="sans-serif" font-size="14" lengthAdjust="spacing" textLength="64" x="1159" y="401.6426">Document</text><line style="stroke:#181818;stroke-width:0.5;" x1="1122" x2="1260" y1="409.7188" y2="409.7188"/><text fill="#000000" font-family="sans-serif" font-size="14" lengthAdjust="spacing" textLength="94" x="1127" y="428.252">documentType</text><text fill="#000000" font-family="sans-serif" font-size="14" lengthAdjust="spacing" textLength="128" x="1127" y="445.8613">identificationNumber</text></g><!--class Team--><g id="elem_Team"><rect codeLine="34" fill="#F1F1F1" height="88.4375" id="Team" rx="2.5" ry="2.5" style="stroke:#181818;stroke-width:0.5;" width="144" x="392.5" y="360.6094"/><text fill="#000000" font-family="sans-serif" font-size="14" lengthAdjust="spacing" textLength="36" x="446.5" y="380.1426">Team</text><line style="stroke:#181818;stroke-width:0.5;" x1="393.5" x2="535.5" y1="388.2188" y2="388.2188"/><text fill="#000000" font-family="sans-serif" font-size="14" lengthAdjust="spacing" textLength="42" x="398.5" y="406.752">teamId</text><text fill="#000000" font-family="sans-serif" font-size="14" lengthAdjust="spacing" textLength="132" x="398.5" y="424.3613">maxNumberElements</text><text fill="#000000" font-family="sans-serif" font-size="14" lengthAdjust="spacing" textLength="129" x="398.5" y="441.9707">minNumberElements</text></g><!--class Vehicle--><g id="elem_Vehicle"><rect codeLine="40" fill="#F1F1F1" height="194.0938" id="Vehicle" rx="2.5" ry="2.5" style="stroke:#181818;stroke-width:0.5;" width="161" x="384" y="572.6094"/><text fill="#000000" font-family="sans-serif" font-size="14" lengthAdjust="spacing" textLength="46" x="441.5" y="592.1426">Vehicle</text><line style="stroke:#181818;stroke-width:0.5;" x1="385" x2="544" y1="600.2188" y2="600.2188"/><text fill="#000000" font-family="sans-serif" font-size="14" lengthAdjust="spacing" textLength="18" x="390" y="618.752">vin</text><text fill="#000000" font-family="sans-serif" font-size="14" lengthAdjust="spacing" textLength="76" x="390" y="636.3613">vehiclePlate</text><text fill="#000000" font-family="sans-serif" font-size="14" lengthAdjust="spacing" textLength="69" x="390" y="653.9707">tareWeight</text><text fill="#000000" font-family="sans-serif" font-size="14" lengthAdjust="spacing" textLength="79" x="390" y="671.5801">grossWeight</text><text fill="#000000" font-family="sans-serif" font-size="14" lengthAdjust="spacing" textLength="65" x="390" y="689.1895">currentKm</text><text fill="#000000" font-family="sans-serif" font-size="14" lengthAdjust="spacing" textLength="101" x="390" y="706.7988">registrationDate</text><text fill="#000000" font-family="sans-serif" font-size="14" lengthAdjust="spacing" textLength="97" x="390" y="724.4082">acquisitionDate</text><text fill="#000000" font-family="sans-serif" font-size="14" lengthAdjust="spacing" textLength="149" x="390" y="742.0176">maintenanceFrequency</text><text fill="#000000" font-family="sans-serif" font-size="14" lengthAdjust="spacing" textLength="27" x="390" y="759.627">type</text></g><!--class Brand--><g id="elem_Brand"><rect codeLine="52" fill="#F1F1F1" height="53.2188" id="Brand" rx="2.5" ry="2.5" style="stroke:#181818;stroke-width:0.5;" width="85" x="666.5" y="522.1094"/><text fill="#000000" font-family="sans-serif" font-size="14" lengthAdjust="spacing" textLength="38" x="690" y="541.6426">Brand</text><line style="stroke:#181818;stroke-width:0.5;" x1="667.5" x2="750.5" y1="549.7188" y2="549.7188"/><text fill="#000000" font-family="sans-serif" font-size="14" lengthAdjust="spacing" textLength="73" x="672.5" y="568.252">designation</text></g><!--class Model--><g id="elem_Model"><rect codeLine="56" fill="#F1F1F1" height="53.2188" id="Model" rx="2.5" ry="2.5" style="stroke:#181818;stroke-width:0.5;" width="85" x="422" y="484.1094"/><text fill="#000000" font-family="sans-serif" font-size="14" lengthAdjust="spacing" textLength="38" x="445.5" y="503.6426">Model</text><line style="stroke:#181818;stroke-width:0.5;" x1="423" x2="506" y1="511.7188" y2="511.7188"/><text fill="#000000" font-family="sans-serif" font-size="14" lengthAdjust="spacing" textLength="73" x="428" y="530.252">designation</text></g><!--class VehicleCheckup--><g id="elem_VehicleCheckup"><rect codeLine="60" fill="#F1F1F1" height="88.4375" id="VehicleCheckup" rx="2.5" ry="2.5" style="stroke:#181818;stroke-width:0.5;" width="108" x="655" y="625.6094"/><text fill="#000000" font-family="sans-serif" font-size="14" lengthAdjust="spacing" textLength="102" x="658" y="645.1426">VehicleCheckup</text><line style="stroke:#181818;stroke-width:0.5;" x1="656" x2="762" y1="653.2188" y2="653.2188"/><text fill="#000000" font-family="sans-serif" font-size="14" lengthAdjust="spacing" textLength="28" x="661" y="671.752">date</text><text fill="#000000" font-family="sans-serif" font-size="14" lengthAdjust="spacing" textLength="65" x="661" y="689.3613">currentKm</text><text fill="#000000" font-family="sans-serif" font-size="14" lengthAdjust="spacing" textLength="57" x="661" y="706.9707">vehicleID</text></g><!--class Address--><g id="elem_Address"><rect codeLine="74" fill="#F1F1F1" height="88.4375" id="Address" rx="2.5" ry="2.5" style="stroke:#181818;stroke-width:0.5;" width="63" x="1159.5" y="258.6094"/><text fill="#000000" font-family="sans-serif" font-size="14" lengthAdjust="spacing" textLength="52" x="1165" y="278.1426">Address</text><line style="stroke:#181818;stroke-width:0.5;" x1="1160.5" x2="1221.5" y1="286.2188" y2="286.2188"/><text fill="#000000" font-family="sans-serif" font-size="14" lengthAdjust="spacing" textLength="36" x="1165.5" y="304.752">street</text><text fill="#000000" font-family="sans-serif" font-size="14" lengthAdjust="spacing" textLength="51" x="1165.5" y="322.3613">zipCode</text><text fill="#000000" font-family="sans-serif" font-size="14" lengthAdjust="spacing" textLength="21" x="1165.5" y="339.9707">city</text></g><!--class WaterStatisticalAnalysis--><g id="elem_WaterStatisticalAnalysis"><rect codeLine="80" fill="#F1F1F1" height="35.6094" id="WaterStatisticalAnalysis" rx="2.5" ry="2.5" style="stroke:#181818;stroke-width:0.5;" width="156" x="1113" y="187.6094"/><text fill="#000000" font-family="sans-serif" font-size="14" lengthAdjust="spacing" textLength="150" x="1116" y="207.1426">WaterStatisticalAnalysis</text><line style="stroke:#181818;stroke-width:0.5;" x1="1114" x2="1268" y1="215.2188" y2="215.2188"/></g><!--class StatsUserPortal--><g id="elem_StatsUserPortal"><rect codeLine="83" fill="#F1F1F1" height="35.6094" id="StatsUserPortal" rx="2.5" ry="2.5" style="stroke:#181818;stroke-width:0.5;" width="104" x="1450.5" y="116.6094"/><text fill="#000000" font-family="sans-serif" font-size="14" lengthAdjust="spacing" textLength="98" x="1453.5" y="136.1426">StatsUserPortal</text><line style="stroke:#181818;stroke-width:0.5;" x1="1451.5" x2="1553.5" y1="144.2188" y2="144.2188"/></g><!--class ElectronicDevice--><g id="elem_ElectronicDevice"><rect codeLine="86" fill="#F1F1F1" height="35.6094" id="ElectronicDevice" rx="2.5" ry="2.5" style="stroke:#181818;stroke-width:0.5;" width="111" x="1135.5" y="45.6094"/><text fill="#000000" font-family="sans-serif" font-size="14" lengthAdjust="spacing" textLength="105" x="1138.5" y="65.1426">ElectronicDevice</text><line style="stroke:#181818;stroke-width:0.5;" x1="1136.5" x2="1245.5" y1="73.2188" y2="73.2188"/></g><!--class GreenSpace--><g id="elem_GreenSpace"><rect codeLine="89" fill="#F1F1F1" height="53.2188" id="GreenSpace" rx="2.5" ry="2.5" style="stroke:#181818;stroke-width:0.5;" width="86" x="863.5" y="157.1094"/><text fill="#000000" font-family="sans-serif" font-size="14" lengthAdjust="spacing" textLength="80" x="866.5" y="176.6426">GreenSpace</text><line style="stroke:#181818;stroke-width:0.5;" x1="864.5" x2="948.5" y1="184.7188" y2="184.7188"/><text fill="#000000" font-family="sans-serif" font-size="14" lengthAdjust="spacing" textLength="35" x="869.5" y="203.252">name</text></g><!--class Task--><g id="elem_Task"><rect codeLine="93" fill="#F1F1F1" height="70.8281" id="Task" rx="2.5" ry="2.5" style="stroke:#181818;stroke-width:0.5;" width="85" x="158" y="634.1094"/><text fill="#000000" font-family="sans-serif" font-size="14" lengthAdjust="spacing" textLength="31" x="185" y="653.6426">Task</text><line style="stroke:#181818;stroke-width:0.5;" x1="159" x2="242" y1="661.7188" y2="661.7188"/><text fill="#000000" font-family="sans-serif" font-size="14" lengthAdjust="spacing" textLength="73" x="164" y="680.252">designation</text><text fill="#000000" font-family="sans-serif" font-size="14" lengthAdjust="spacing" textLength="28" x="164" y="697.8613">date</text></g><!--class Equipment--><g id="elem_Equipment"><rect codeLine="98" fill="#F1F1F1" height="53.2188" id="Equipment" rx="2.5" ry="2.5" style="stroke:#181818;stroke-width:0.5;" width="85" x="422" y="802.1094"/><text fill="#000000" font-family="sans-serif" font-size="14" lengthAdjust="spacing" textLength="67" x="431" y="821.6426">Equipment</text><line style="stroke:#181818;stroke-width:0.5;" x1="423" x2="506" y1="829.7188" y2="829.7188"/><text fill="#000000" font-family="sans-serif" font-size="14" lengthAdjust="spacing" textLength="73" x="428" y="848.252">designation</text></g><!--class Agenda--><g id="elem_Agenda"><rect codeLine="102" fill="#F1F1F1" height="35.6094" id="Agenda" rx="2.5" ry="2.5" style="stroke:#181818;stroke-width:0.5;" width="55" x="7" y="651.6094"/><text fill="#000000" font-family="sans-serif" font-size="14" lengthAdjust="spacing" textLength="49" x="10" y="671.1426">Agenda</text><line style="stroke:#181818;stroke-width:0.5;" x1="8" x2="61" y1="679.2188" y2="679.2188"/></g><!--class Portal--><g id="elem_Portal"><rect codeLine="105" fill="#F1F1F1" height="35.6094" id="Portal" rx="2.5" ry="2.5" style="stroke:#181818;stroke-width:0.5;" width="43" x="1169.5" y="116.6094"/><text fill="#000000" font-family="sans-serif" font-size="14" lengthAdjust="spacing" textLength="37" x="1172.5" y="136.1426">Portal</text><line style="stroke:#181818;stroke-width:0.5;" x1="1170.5" x2="1211.5" y1="144.2188" y2="144.2188"/></g><!--class EquipmentStatisticalAnalysis--><g id="elem_EquipmentStatisticalAnalysis"><rect fill="#F1F1F1" height="35.6094" id="EquipmentStatisticalAnalysis" rx="2.5" ry="2.5" style="stroke:#181818;stroke-width:0.5;" width="185" x="1410" y="45.6094"/><text fill="#000000" font-family="sans-serif" font-size="14" lengthAdjust="spacing" textLength="179" x="1413" y="65.1426">EquipmentStatisticalAnalysis</text><line style="stroke:#181818;stroke-width:0.5;" x1="1411" x2="1594" y1="73.2188" y2="73.2188"/></g><!--link Vehicle to Brand--><g id="link_Vehicle_Brand"><path codeLine="108" d="M545.24,629.8194 C585.69,609.6394 633.14,585.9594 666.34,569.3994 " fill="none" id="Vehicle-Brand" style="stroke:#181818;stroke-width:1.0;"/><polygon fill="#000000" points="591.4741,579.5529,582.0683,580.9613,584.6925,586.2208,591.4741,579.5529" style="stroke:#000000;stroke-width:1.0;"/><text fill="#000000" font-family="sans-serif" font-size="13" lengthAdjust="spacing" textLength="21" x="596" y="587.1045">has</text><text fill="#000000" font-family="sans-serif" font-size="13" lengthAdjust="spacing" textLength="20" x="553.038" y="640.5936">1..*</text><text fill="#000000" font-family="sans-serif" font-size="13" lengthAdjust="spacing" textLength="7" x="651.4063" y="587.8542">1</text></g><!--link Model to Brand--><g id="link_Model_Brand"><path codeLine="110" d="M507.19,517.1394 C551.74,524.1194 621.95,535.1294 666.45,542.0994 " fill="none" id="Model-Brand" style="stroke:#181818;stroke-width:1.0;"/><polygon fill="#000000" points="582.0603,519.011,590.5413,523.315,591.4514,517.508,582.0603,519.011" style="stroke:#000000;stroke-width:1.0;"/><text fill="#000000" font-family="sans-serif" font-size="13" lengthAdjust="spacing" textLength="21" x="596" y="525.1045">has</text><text fill="#000000" font-family="sans-serif" font-size="13" lengthAdjust="spacing" textLength="20" x="514.9288" y="532.7783">1..*</text><text fill="#000000" font-family="sans-serif" font-size="13" lengthAdjust="spacing" textLength="7" x="651.5352" y="555.862">1</text></g><!--link Collaborator to Document--><g id="link_Collaborator_Document"><path codeLine="112" d="M964.33,368.0794 C1009.44,377.9794 1072.71,391.8694 1120.77,402.4194 " fill="none" id="Collaborator-Document" style="stroke:#181818;stroke-width:1.0;"/><polygon fill="#000000" points="1030.3837,368.8572,1022.1791,364.0473,1020.9189,369.7885,1030.3837,368.8572" style="stroke:#000000;stroke-width:1.0;"/><text fill="#000000" font-family="sans-serif" font-size="13" lengthAdjust="spacing" textLength="21" x="1034.5" y="373.1045">has</text><text fill="#000000" font-family="sans-serif" font-size="13" lengthAdjust="spacing" textLength="7" x="972.1879" y="384.2027">1</text><text fill="#000000" font-family="sans-serif" font-size="13" lengthAdjust="spacing" textLength="20" x="1093.1231" y="415.2541">1..*</text></g><!--link Job to Collaborator--><g id="link_Job_Collaborator"><path codeLine="114" d="M726.33,282.2894 C752.95,293.1794 806.89,315.2594 848.67,332.3494 " fill="none" id="Job-Collaborator" style="stroke:#181818;stroke-width:1.0;"/><polygon fill="#000000" points="802.6276,304.6787,795.3692,298.5332,793.1432,303.9733,802.6276,304.6787" style="stroke:#000000;stroke-width:1.0;"/><text fill="#000000" font-family="sans-serif" font-size="13" lengthAdjust="spacing" textLength="11" x="807" y="308.1045">to</text><text fill="#000000" font-family="sans-serif" font-size="13" lengthAdjust="spacing" textLength="7" x="734.0111" y="301.2222">1</text><text fill="#000000" font-family="sans-serif" font-size="13" lengthAdjust="spacing" textLength="20" x="820.8272" y="344.085">1..*</text></g><!--link Skill to Collaborator--><g id="link_Skill_Collaborator"><path codeLine="117" d="M751.75,432.5294 C772.08,422.6894 796.86,410.6194 819,399.6094 C828.65,394.8094 838.89,389.6594 848.81,384.6294 " fill="none" id="Skill-Collaborator" style="stroke:#181818;stroke-width:1.0;"/><polygon fill="#000000" points="802.4837,388.5724,793.072,389.9399,795.6732,395.2108,802.4837,388.5724" style="stroke:#000000;stroke-width:1.0;"/><text fill="#000000" font-family="sans-serif" font-size="13" lengthAdjust="spacing" textLength="11" x="807" y="396.1045">to</text><text fill="#000000" font-family="sans-serif" font-size="13" lengthAdjust="spacing" textLength="5" x="759.5273" y="443.9597">*</text><text fill="#000000" font-family="sans-serif" font-size="13" lengthAdjust="spacing" textLength="20" x="820.9833" y="402.4099">1..*</text></g><!--link Team to Skill--><g id="link_Team_Skill"><path codeLine="118" d="M536.62,418.6894 C578.83,427.0394 630.87,437.3394 666.46,444.3894 " fill="none" id="Team-Skill" style="stroke:#181818;stroke-width:1.0;"/><polygon fill="#000000" points="584.9048,419.756,576.6025,415.1167,575.4613,420.8827,584.9048,419.756" style="stroke:#000000;stroke-width:1.0;"/><text fill="#000000" font-family="sans-serif" font-size="13" lengthAdjust="spacing" textLength="35" x="589" y="424.1045">needs</text><text fill="#000000" font-family="sans-serif" font-size="13" lengthAdjust="spacing" textLength="25" x="544.4209" y="434.216">1..**</text><text fill="#000000" font-family="sans-serif" font-size="13" lengthAdjust="spacing" textLength="20" x="638.4148" y="457.861">1..*</text></g><!--link Team to Collaborator--><g id="link_Team_Collaborator"><path codeLine="120" d="M536.68,396.6794 C623.63,386.9994 768.97,370.8094 848.77,361.9294 " fill="none" id="Team-Collaborator" style="stroke:#181818;stroke-width:1.0;"/><polygon fill="#000000" points="700.9693,363.2318,691.6545,361.3119,692.305,367.1537,700.9693,363.2318" style="stroke:#000000;stroke-width:1.0;"/><text fill="#000000" font-family="sans-serif" font-size="13" lengthAdjust="spacing" textLength="21" x="705" y="369.1045">has</text><text fill="#000000" font-family="sans-serif" font-size="13" lengthAdjust="spacing" textLength="7" x="544.4845" y="410.1773">1</text><text fill="#000000" font-family="sans-serif" font-size="13" lengthAdjust="spacing" textLength="20" x="820.9387" y="377.0852">1..*</text></g><!--link Vehicle to VehicleCheckup--><g id="link_Vehicle_VehicleCheckup"><path codeLine="122" d="M545.24,669.6094 C581.27,669.6094 622.86,669.6094 654.98,669.6094 " fill="none" id="Vehicle-VehicleCheckup" style="stroke:#181818;stroke-width:1.0;"/><polygon fill="#000000" points="592,660.7852,582.9549,657.8462,582.9549,663.7241,592,660.7852" style="stroke:#000000;stroke-width:1.0;"/><text fill="#000000" font-family="sans-serif" font-size="13" lengthAdjust="spacing" textLength="21" x="596" y="666.1045">has</text><text fill="#000000" font-family="sans-serif" font-size="13" lengthAdjust="spacing" textLength="7" x="553.0059" y="683.8539">1</text><text fill="#000000" font-family="sans-serif" font-size="13" lengthAdjust="spacing" textLength="5" x="642.0319" y="684.2234">*</text></g><!--link Collaborator to Address--><g id="link_Collaborator_Address"><path codeLine="124" d="M964.23,348.1394 C998.7,343.2894 1043.54,336.4294 1083,328.6094 C1108.88,323.4794 1137.95,316.3294 1159.25,310.8194 " fill="none" id="Collaborator-Address" style="stroke:#181818;stroke-width:1.0;"/><polygon fill="#000000" points="1024.9109,318.8454,1015.4746,317.6589,1016.5794,323.432,1024.9109,318.8454" style="stroke:#000000;stroke-width:1.0;"/><text fill="#000000" font-family="sans-serif" font-size="13" lengthAdjust="spacing" textLength="32" x="1029" y="325.1045">has a</text><text fill="#000000" font-family="sans-serif" font-size="13" lengthAdjust="spacing" textLength="20" x="972.0613" y="361.7007">1..*</text><text fill="#000000" font-family="sans-serif" font-size="13" lengthAdjust="spacing" textLength="7" x="1144.5391" y="327.851">1</text></g><!--link GreenSpace to WaterStatisticalAnalysis--><g id="link_GreenSpace_WaterStatisticalAnalysis"><path codeLine="126" d="M949.89,194.6994 C963.84,197.8694 979.49,200.9194 994,202.6094 C1033.04,207.1494 1076.75,208.1994 1112.97,207.9894 " fill="none" id="GreenSpace-WaterStatisticalAnalysis" style="stroke:#181818;stroke-width:1.0;"/><polygon fill="#000000" points="1007.9835,194.1913,999.207,190.5274,998.7296,196.3858,1007.9835,194.1913" style="stroke:#000000;stroke-width:1.0;"/><text fill="#000000" font-family="sans-serif" font-size="13" lengthAdjust="spacing" textLength="66" x="1012" y="199.1045">is analysed</text><text fill="#000000" font-family="sans-serif" font-size="13" lengthAdjust="spacing" textLength="7" x="957.3631" y="211.2475">1</text><text fill="#000000" font-family="sans-serif" font-size="13" lengthAdjust="spacing" textLength="7" x="1097.9444" y="222.5428">1</text></g><!--link GreenSpace to Address--><g id="link_GreenSpace_Address"><path codeLine="128" d="M948.83,210.2394 C962.85,218.6494 978.81,227.5794 994,234.6094 C1050.55,260.7694 1120.18,282.6294 1159.38,294.0494 " fill="none" id="GreenSpace-Address" style="stroke:#181818;stroke-width:1.0;"/><polygon fill="#000000" points="1021.1455,227.6343,1013.8286,221.5586,1011.6548,227.0197,1021.1455,227.6343" style="stroke:#000000;stroke-width:1.0;"/><text fill="#000000" font-family="sans-serif" font-size="13" lengthAdjust="spacing" textLength="39" x="1025.5" y="231.1045">has an</text><text fill="#000000" font-family="sans-serif" font-size="13" lengthAdjust="spacing" textLength="7" x="950.8094" y="231.758">1</text><text fill="#000000" font-family="sans-serif" font-size="13" lengthAdjust="spacing" textLength="7" x="1144.6975" y="307.4126">1</text></g><!--link Task to Vehicle--><g id="link_Task_Vehicle"><path codeLine="130" d="M243.01,669.6094 C280.75,669.6094 337.45,669.6094 383.91,669.6094 " fill="none" id="Task-Vehicle" style="stroke:#181818;stroke-width:1.0;"/><polygon fill="#000000" points="298.5,660.7852,289.4549,657.8462,289.4549,663.7241,298.5,660.7852" style="stroke:#000000;stroke-width:1.0;"/><text fill="#000000" font-family="sans-serif" font-size="13" lengthAdjust="spacing" textLength="35" x="302.5" y="666.1045">needs</text><text fill="#000000" font-family="sans-serif" font-size="13" lengthAdjust="spacing" textLength="7" x="250.918" y="684.5245">1</text><text fill="#000000" font-family="sans-serif" font-size="13" lengthAdjust="spacing" textLength="5" x="370.9905" y="683.8793">*</text></g><!--link Task to Team--><g id="link_Task_Team"><path codeLine="132" d="M230.42,633.7594 C265.01,591.7794 325.6,521.0694 384,466.6094 C390.4,460.6394 397.33,454.6394 404.35,448.8394 " fill="none" id="Task-Team" style="stroke:#181818;stroke-width:1.0;"/><polygon fill="#000000" points="281.4256,486.1431,273.0878,490.7181,277.3694,494.7452,281.4256,486.1431" style="stroke:#000000;stroke-width:1.0;"/><text fill="#000000" font-family="sans-serif" font-size="13" lengthAdjust="spacing" textLength="66" x="287" y="495.1045">is assigned</text><text fill="#000000" font-family="sans-serif" font-size="13" lengthAdjust="spacing" textLength="7" x="228.2912" y="623.2179">1</text><text fill="#000000" font-family="sans-serif" font-size="13" lengthAdjust="spacing" textLength="7" x="387.2058" y="470.6518">1</text></g><!--link Task to Equipment--><g id="link_Task_Equipment"><path codeLine="134" d="M243.13,696.7894 C279.85,720.5294 335,755.6394 384,784.6094 C396.22,791.8294 409.68,799.4194 421.99,806.2094 " fill="none" id="Task-Equipment" style="stroke:#181818;stroke-width:1.0;"/><polygon fill="#000000" points="304.7652,710.3944,298.5831,703.1672,295.5157,708.1812,304.7652,710.3944" style="stroke:#000000;stroke-width:1.0;"/><text fill="#000000" font-family="sans-serif" font-size="13" lengthAdjust="spacing" textLength="21" x="309.5" y="713.1045">has</text><text fill="#000000" font-family="sans-serif" font-size="13" lengthAdjust="spacing" textLength="7" x="251.0586" y="716.376">1</text><text fill="#000000" font-family="sans-serif" font-size="13" lengthAdjust="spacing" textLength="5" x="408.9726" y="817.1513">*</text></g><!--link GreenSpace to ElectronicDevice--><g id="link_GreenSpace_ElectronicDevice"><path codeLine="136" d="M944.16,156.8694 C959.11,146.7794 976.88,135.7694 994,127.6094 C1039.88,105.7294 1095.17,88.4294 1135.31,77.3594 " fill="none" id="GreenSpace-ElectronicDevice" style="stroke:#181818;stroke-width:1.0;"/><polygon fill="#000000" points="1030.1165,84.8649,1020.6364,85.6252,1022.8938,91.0522,1030.1165,84.8649" style="stroke:#000000;stroke-width:1.0;"/><text fill="#000000" font-family="sans-serif" font-size="13" lengthAdjust="spacing" textLength="21" x="1034.5" y="92.1045">has</text><text fill="#000000" font-family="sans-serif" font-size="13" lengthAdjust="spacing" textLength="7" x="945.0595" y="146.3462">1</text><text fill="#000000" font-family="sans-serif" font-size="13" lengthAdjust="spacing" textLength="20" x="1107.304" y="93.5505">1..*</text></g><!--link ElectronicDevice to EquipmentStatisticalAnalysis--><g id="link_ElectronicDevice_EquipmentStatisticalAnalysis"><path codeLine="138" d="M1246.62,63.6094 C1291.74,63.6094 1356.76,63.6094 1409.84,63.6094 " fill="none" id="ElectronicDevice-EquipmentStatisticalAnalysis" style="stroke:#181818;stroke-width:1.0;"/><polygon fill="#000000" points="1309,54.7852,1299.9549,51.8462,1299.9549,57.7241,1309,54.7852" style="stroke:#000000;stroke-width:1.0;"/><text fill="#000000" font-family="sans-serif" font-size="13" lengthAdjust="spacing" textLength="66" x="1313" y="60.1045">is analysed</text><text fill="#000000" font-family="sans-serif" font-size="13" lengthAdjust="spacing" textLength="7" x="1254.5643" y="78.2294">1</text><text fill="#000000" font-family="sans-serif" font-size="13" lengthAdjust="spacing" textLength="7" x="1394.8768" y="77.7977">1</text></g><!--link GreenSpace to Portal--><g id="link_GreenSpace_Portal"><path codeLine="140" d="M949.79,176.2694 C1011.36,165.5994 1123.34,146.1694 1169.38,138.1894 " fill="none" id="GreenSpace-Portal" style="stroke:#181818;stroke-width:1.0;"/><polygon fill="#000000" points="1003.9265,143.9308,994.5122,142.5806,995.5166,148.372,1003.9265,143.9308" style="stroke:#000000;stroke-width:1.0;"/><text fill="#000000" font-family="sans-serif" font-size="13" lengthAdjust="spacing" textLength="74" x="1008" y="150.1045">is connected</text><text fill="#000000" font-family="sans-serif" font-size="13" lengthAdjust="spacing" textLength="7" x="957.5396" y="189.8848">1</text><text fill="#000000" font-family="sans-serif" font-size="13" lengthAdjust="spacing" textLength="7" x="1154.373" y="155.4939">1</text></g><!--link Portal to StatsUserPortal--><g id="link_Portal_StatsUserPortal"><path codeLine="142" d="M1212.79,134.6094 C1260.9,134.6094 1381.09,134.6094 1450.28,134.6094 " fill="none" id="Portal-StatsUserPortal" style="stroke:#181818;stroke-width:1.0;"/><polygon fill="#000000" points="1309,125.7852,1299.9549,122.8462,1299.9549,128.7241,1309,125.7852" style="stroke:#000000;stroke-width:1.0;"/><text fill="#000000" font-family="sans-serif" font-size="13" lengthAdjust="spacing" textLength="66" x="1313" y="131.1045">is analysed</text><text fill="#000000" font-family="sans-serif" font-size="13" lengthAdjust="spacing" textLength="7" x="1220.5351" y="150.6681">1</text><text fill="#000000" font-family="sans-serif" font-size="13" lengthAdjust="spacing" textLength="7" x="1435.4444" y="149.2817">1</text></g><!--link Agenda to Task--><g id="link_Agenda_Task"><path codeLine="144" d="M62.21,669.6094 C88.08,669.6094 127.69,669.6094 157.73,669.6094 " fill="none" id="Agenda-Task" style="stroke:#181818;stroke-width:1.0;"/><polygon fill="#000000" points="102,660.7852,92.9549,657.8462,92.9549,663.7241,102,660.7852" style="stroke:#000000;stroke-width:1.0;"/><text fill="#000000" font-family="sans-serif" font-size="13" lengthAdjust="spacing" textLength="21" x="106" y="666.1045">has</text><text fill="#000000" font-family="sans-serif" font-size="13" lengthAdjust="spacing" textLength="7" x="69.8174" y="685.1449">1</text><text fill="#000000" font-family="sans-serif" font-size="13" lengthAdjust="spacing" textLength="20" x="129.9794" y="684.3179">1..*</text></g><!--SRC=[ZLHDRzim3BtxLmYv12ZGOhiMmu2isOPkw50WtNPc9DOc8akk97TDX_ttqPBYhwRPSeWjyP5yV7gotv5fm44jQckih9ojKGJNOk7xI0Do1oLkmbwZS2W3c5AF0Ru2PN-HASKzQ3-EI0tUhq9mj6q3NajhDlICuarHaK8XoKak5Dzh39LLlj1u7qImmb5P1Q6ewqVM54MWmEtNjWOouiOgr4KHoulDZhGMlml1FuMUIWCnvSy1yCLkSpWM6G9NLclOMWV1kemmK6DysP8BbOAGLg1gyfwhhWyxjTsInczjlKKND_2SgUdK1fuQsAFBqRxVsigsHXCorxowspUf9EjW0jsJZFo7v9nzXwnedeDVhrNY0Ky9-L5ZLysdNJAptPx43wo8PS-L7icaPzgzrOVv0ZZyYTqfn6NfhFUZjMoTuxfVwxXoM98FBlBk5GBvq9AdoLvtUW4D68cV73wqQEG-jUj4w3b-S63KYHEDvtyYdcUygb3ksYO33nocrFFWr-ikUvdIRz5vQpg5bhqbbbDFT4ksSm0PRg8JqXPc3onVc63ParifvT3xn8fLGqoIFbDpnNCbZXJsmpW_kQNR11xI1tQ7NXdGUqzSeeTqKV_TexkrBe0UHTW1CZXhIAxnaIIEGf-vjzdm_SQH-Vle7VZTIurxAOS6VCpDoDR73cHLeb4mQZsYUJ3aukt5nTb2d9_pso9PG5oA2hnuNnJnn4z0tXN5v3PtyGYB2OUBDzJhlWbJp2Jzili6CQn87vV5sR-GyNB6-0IQqY-5GLInRyQTA9S93geaB0EdhXwWiy774cMlPInqwE7G1nwBLot6cVm7SONgzVnP8nDdPGCTuJ-HOmpXHvGdjVITZLBBUQ7USOC6nrX58URsxpFcWJ6Dli4HHVvJa6JmD0j_A0mtI_0S645dT_UbvEdsp0QBekHf_W80]--></g></svg>