<?xml version="1.0" encoding="UTF-8" standalone="no"?><svg xmlns="http://www.w3.org/2000/svg" xmlns:xlink="http://www.w3.org/1999/xlink" contentStyleType="text/css" height="1061px" preserveAspectRatio="none" style="width:1602px;height:1061px;background:#FFFFFF;" version="1.1" viewBox="0 0 1602 1061" width="1602px" zoomAndPan="magnify"><defs/><g><text fill="#000000" font-family="sans-serif" font-size="14" font-weight="bold" lengthAdjust="spacing" textLength="100" x="744" y="24.5332">Domain Model</text><!--class Skill--><g id="elem_Skill"><rect codeLine="11" fill="#F1F1F1" height="53.2188" id="Skill" rx="2.5" ry="2.5" style="stroke:#181818;stroke-width:0.5;" width="85" x="666.5" y="537.1094"/><text fill="#000000" font-family="sans-serif" font-size="14" lengthAdjust="spacing" textLength="25" x="696.5" y="556.6426">Skill</text><line style="stroke:#181818;stroke-width:0.5;" x1="667.5" x2="750.5" y1="564.7188" y2="564.7188"/><text fill="#000000" font-family="sans-serif" font-size="14" lengthAdjust="spacing" textLength="73" x="672.5" y="583.252">designation</text></g><!--class Job--><g id="elem_Job"><rect codeLine="15" fill="#F1F1F1" height="53.2188" id="Job" rx="2.5" ry="2.5" style="stroke:#181818;stroke-width:0.5;" width="34" x="692" y="360.1094"/><text fill="#000000" font-family="sans-serif" font-size="14" lengthAdjust="spacing" textLength="22" x="698" y="379.6426">Job</text><line style="stroke:#181818;stroke-width:0.5;" x1="693" x2="725" y1="387.7188" y2="387.7188"/><text fill="#000000" font-family="sans-serif" font-size="14" lengthAdjust="spacing" textLength="22" x="698" y="406.252">title</text></g><!--class Collaborator--><g id="elem_Collaborator"><rect codeLine="19" fill="#F1F1F1" height="141.2656" id="Collaborator" rx="2.5" ry="2.5" style="stroke:#181818;stroke-width:0.5;" width="115" x="849" y="396.1094"/><text fill="#000000" font-family="sans-serif" font-size="14" lengthAdjust="spacing" textLength="78" x="867.5" y="415.6426">Collaborator</text><line style="stroke:#181818;stroke-width:0.5;" x1="850" x2="963" y1="423.7188" y2="423.7188"/><text fill="#000000" font-family="sans-serif" font-size="14" lengthAdjust="spacing" textLength="35" x="855" y="442.252">name</text><text fill="#000000" font-family="sans-serif" font-size="14" lengthAdjust="spacing" textLength="56" x="855" y="459.8613">birthdate</text><text fill="#000000" font-family="sans-serif" font-size="14" lengthAdjust="spacing" textLength="93" x="855" y="477.4707">admissionDate</text><text fill="#000000" font-family="sans-serif" font-size="14" lengthAdjust="spacing" textLength="90" x="855" y="495.0801">mobileNumber</text><text fill="#000000" font-family="sans-serif" font-size="14" lengthAdjust="spacing" textLength="38" x="855" y="512.6895">e-mail</text><text fill="#000000" font-family="sans-serif" font-size="14" lengthAdjust="spacing" textLength="103" x="855" y="530.2988">taxpayerNumber</text></g><!--class Document--><g id="elem_Document"><rect codeLine="28" fill="#F1F1F1" height="70.8281" id="Document" rx="2.5" ry="2.5" style="stroke:#181818;stroke-width:0.5;" width="140" x="1121" y="471.1094"/><text fill="#000000" font-family="sans-serif" font-size="14" lengthAdjust="spacing" textLength="64" x="1159" y="490.6426">Document</text><line style="stroke:#181818;stroke-width:0.5;" x1="1122" x2="1260" y1="498.7188" y2="498.7188"/><text fill="#000000" font-family="sans-serif" font-size="14" lengthAdjust="spacing" textLength="94" x="1127" y="517.252">documentType</text><text fill="#000000" font-family="sans-serif" font-size="14" lengthAdjust="spacing" textLength="128" x="1127" y="534.8613">identificationNumber</text></g><!--class Team--><g id="elem_Team"><rect codeLine="34" fill="#F1F1F1" height="88.4375" id="Team" rx="2.5" ry="2.5" style="stroke:#181818;stroke-width:0.5;" width="144" x="392.5" y="471.6094"/><text fill="#000000" font-family="sans-serif" font-size="14" lengthAdjust="spacing" textLength="36" x="446.5" y="491.1426">Team</text><line style="stroke:#181818;stroke-width:0.5;" x1="393.5" x2="535.5" y1="499.2188" y2="499.2188"/><text fill="#000000" font-family="sans-serif" font-size="14" lengthAdjust="spacing" textLength="42" x="398.5" y="517.752">teamId</text><text fill="#000000" font-family="sans-serif" font-size="14" lengthAdjust="spacing" textLength="132" x="398.5" y="535.3613">maxNumberElements</text><text fill="#000000" font-family="sans-serif" font-size="14" lengthAdjust="spacing" textLength="129" x="398.5" y="552.9707">minNumberElements</text></g><!--class Vehicle--><g id="elem_Vehicle"><rect codeLine="40" fill="#F1F1F1" height="194.0938" id="Vehicle" rx="2.5" ry="2.5" style="stroke:#181818;stroke-width:0.5;" width="161" x="384" y="683.6094"/><text fill="#000000" font-family="sans-serif" font-size="14" lengthAdjust="spacing" textLength="46" x="441.5" y="703.1426">Vehicle</text><line style="stroke:#181818;stroke-width:0.5;" x1="385" x2="544" y1="711.2188" y2="711.2188"/><text fill="#000000" font-family="sans-serif" font-size="14" lengthAdjust="spacing" textLength="18" x="390" y="729.752">vin</text><text fill="#000000" font-family="sans-serif" font-size="14" lengthAdjust="spacing" textLength="76" x="390" y="747.3613">vehiclePlate</text><text fill="#000000" font-family="sans-serif" font-size="14" lengthAdjust="spacing" textLength="69" x="390" y="764.9707">tareWeight</text><text fill="#000000" font-family="sans-serif" font-size="14" lengthAdjust="spacing" textLength="79" x="390" y="782.5801">grossWeight</text><text fill="#000000" font-family="sans-serif" font-size="14" lengthAdjust="spacing" textLength="65" x="390" y="800.1895">currentKm</text><text fill="#000000" font-family="sans-serif" font-size="14" lengthAdjust="spacing" textLength="101" x="390" y="817.7988">registrationDate</text><text fill="#000000" font-family="sans-serif" font-size="14" lengthAdjust="spacing" textLength="97" x="390" y="835.4082">acquisitionDate</text><text fill="#000000" font-family="sans-serif" font-size="14" lengthAdjust="spacing" textLength="149" x="390" y="853.0176">maintenanceFrequency</text><text fill="#000000" font-family="sans-serif" font-size="14" lengthAdjust="spacing" textLength="27" x="390" y="870.627">type</text></g><!--class Brand--><g id="elem_Brand"><rect codeLine="52" fill="#F1F1F1" height="53.2188" id="Brand" rx="2.5" ry="2.5" style="stroke:#181818;stroke-width:0.5;" width="85" x="666.5" y="633.1094"/><text fill="#000000" font-family="sans-serif" font-size="14" lengthAdjust="spacing" textLength="38" x="690" y="652.6426">Brand</text><line style="stroke:#181818;stroke-width:0.5;" x1="667.5" x2="750.5" y1="660.7188" y2="660.7188"/><text fill="#000000" font-family="sans-serif" font-size="14" lengthAdjust="spacing" textLength="73" x="672.5" y="679.252">designation</text></g><!--class Model--><g id="elem_Model"><rect codeLine="56" fill="#F1F1F1" height="53.2188" id="Model" rx="2.5" ry="2.5" style="stroke:#181818;stroke-width:0.5;" width="85" x="422" y="595.1094"/><text fill="#000000" font-family="sans-serif" font-size="14" lengthAdjust="spacing" textLength="38" x="445.5" y="614.6426">Model</text><line style="stroke:#181818;stroke-width:0.5;" x1="423" x2="506" y1="622.7188" y2="622.7188"/><text fill="#000000" font-family="sans-serif" font-size="14" lengthAdjust="spacing" textLength="73" x="428" y="641.252">designation</text></g><!--class VehicleCheckup--><g id="elem_VehicleCheckup"><rect codeLine="60" fill="#F1F1F1" height="88.4375" id="VehicleCheckup" rx="2.5" ry="2.5" style="stroke:#181818;stroke-width:0.5;" width="108" x="655" y="736.6094"/><text fill="#000000" font-family="sans-serif" font-size="14" lengthAdjust="spacing" textLength="102" x="658" y="756.1426">VehicleCheckup</text><line style="stroke:#181818;stroke-width:0.5;" x1="656" x2="762" y1="764.2188" y2="764.2188"/><text fill="#000000" font-family="sans-serif" font-size="14" lengthAdjust="spacing" textLength="28" x="661" y="782.752">date</text><text fill="#000000" font-family="sans-serif" font-size="14" lengthAdjust="spacing" textLength="65" x="661" y="800.3613">currentKm</text><text fill="#000000" font-family="sans-serif" font-size="14" lengthAdjust="spacing" textLength="76" x="661" y="817.9707">vehiclePlate</text></g><!--class Address--><g id="elem_Address"><rect codeLine="74" fill="#F1F1F1" height="88.4375" id="Address" rx="2.5" ry="2.5" style="stroke:#181818;stroke-width:0.5;" width="63" x="1159.5" y="347.6094"/><text fill="#000000" font-family="sans-serif" font-size="14" lengthAdjust="spacing" textLength="52" x="1165" y="367.1426">Address</text><line style="stroke:#181818;stroke-width:0.5;" x1="1160.5" x2="1221.5" y1="375.2188" y2="375.2188"/><text fill="#000000" font-family="sans-serif" font-size="14" lengthAdjust="spacing" textLength="36" x="1165.5" y="393.752">street</text><text fill="#000000" font-family="sans-serif" font-size="14" lengthAdjust="spacing" textLength="51" x="1165.5" y="411.3613">zipCode</text><text fill="#000000" font-family="sans-serif" font-size="14" lengthAdjust="spacing" textLength="21" x="1165.5" y="428.9707">city</text></g><!--class WaterStatisticalAnalysis--><g id="elem_WaterStatisticalAnalysis"><rect codeLine="80" fill="#F1F1F1" height="35.6094" id="WaterStatisticalAnalysis" rx="2.5" ry="2.5" style="stroke:#181818;stroke-width:0.5;" width="156" x="1113" y="205.6094"/><text fill="#000000" font-family="sans-serif" font-size="14" lengthAdjust="spacing" textLength="150" x="1116" y="225.1426">WaterStatisticalAnalysis</text><line style="stroke:#181818;stroke-width:0.5;" x1="1114" x2="1268" y1="233.2188" y2="233.2188"/></g><!--class StatsUserPortal--><g id="elem_StatsUserPortal"><rect codeLine="83" fill="#F1F1F1" height="35.6094" id="StatsUserPortal" rx="2.5" ry="2.5" style="stroke:#181818;stroke-width:0.5;" width="104" x="1450.5" y="45.6094"/><text fill="#000000" font-family="sans-serif" font-size="14" lengthAdjust="spacing" textLength="98" x="1453.5" y="65.1426">StatsUserPortal</text><line style="stroke:#181818;stroke-width:0.5;" x1="1451.5" x2="1553.5" y1="73.2188" y2="73.2188"/></g><!--class ElectronicDevice--><g id="elem_ElectronicDevice"><rect codeLine="86" fill="#F1F1F1" height="35.6094" id="ElectronicDevice" rx="2.5" ry="2.5" style="stroke:#181818;stroke-width:0.5;" width="111" x="1135.5" y="276.6094"/><text fill="#000000" font-family="sans-serif" font-size="14" lengthAdjust="spacing" textLength="105" x="1138.5" y="296.1426">ElectronicDevice</text><line style="stroke:#181818;stroke-width:0.5;" x1="1136.5" x2="1245.5" y1="304.2188" y2="304.2188"/></g><!--class GreenSpace--><g id="elem_GreenSpace"><rect codeLine="89" fill="#F1F1F1" height="53.2188" id="GreenSpace" rx="2.5" ry="2.5" style="stroke:#181818;stroke-width:0.5;" width="86" x="863.5" y="197.1094"/><text fill="#000000" font-family="sans-serif" font-size="14" lengthAdjust="spacing" textLength="80" x="866.5" y="216.6426">GreenSpace</text><line style="stroke:#181818;stroke-width:0.5;" x1="864.5" x2="948.5" y1="224.7188" y2="224.7188"/><text fill="#000000" font-family="sans-serif" font-size="14" lengthAdjust="spacing" textLength="73" x="869.5" y="243.252">designation</text></g><!--class Task--><g id="elem_Task"><rect codeLine="93" fill="#F1F1F1" height="70.8281" id="Task" rx="2.5" ry="2.5" style="stroke:#181818;stroke-width:0.5;" width="85" x="158" y="875.1094"/><text fill="#000000" font-family="sans-serif" font-size="14" lengthAdjust="spacing" textLength="31" x="185" y="894.6426">Task</text><line style="stroke:#181818;stroke-width:0.5;" x1="159" x2="242" y1="902.7188" y2="902.7188"/><text fill="#000000" font-family="sans-serif" font-size="14" lengthAdjust="spacing" textLength="73" x="164" y="921.252">designation</text><text fill="#000000" font-family="sans-serif" font-size="14" lengthAdjust="spacing" textLength="28" x="164" y="938.8613">date</text></g><!--class Machines--><g id="elem_Machines"><rect codeLine="98" fill="#F1F1F1" height="53.2188" id="Machines" rx="2.5" ry="2.5" style="stroke:#181818;stroke-width:0.5;" width="85" x="422" y="913.1094"/><text fill="#000000" font-family="sans-serif" font-size="14" lengthAdjust="spacing" textLength="60" x="434.5" y="932.6426">Machines</text><line style="stroke:#181818;stroke-width:0.5;" x1="423" x2="506" y1="940.7188" y2="940.7188"/><text fill="#000000" font-family="sans-serif" font-size="14" lengthAdjust="spacing" textLength="73" x="428" y="959.252">designation</text></g><!--class GardenTools--><g id="elem_GardenTools"><rect codeLine="102" fill="#F1F1F1" height="53.2188" id="GardenTools" rx="2.5" ry="2.5" style="stroke:#181818;stroke-width:0.5;" width="89" x="420" y="1001.1094"/><text fill="#000000" font-family="sans-serif" font-size="14" lengthAdjust="spacing" textLength="83" x="423" y="1020.6426">GardenTools</text><line style="stroke:#181818;stroke-width:0.5;" x1="421" x2="508" y1="1028.7188" y2="1028.7188"/><text fill="#000000" font-family="sans-serif" font-size="14" lengthAdjust="spacing" textLength="73" x="426" y="1047.252">designation</text></g><!--class Agenda--><g id="elem_Agenda"><rect codeLine="106" fill="#F1F1F1" height="35.6094" id="Agenda" rx="2.5" ry="2.5" style="stroke:#181818;stroke-width:0.5;" width="55" x="7" y="892.6094"/><text fill="#000000" font-family="sans-serif" font-size="14" lengthAdjust="spacing" textLength="49" x="10" y="912.1426">Agenda</text><line style="stroke:#181818;stroke-width:0.5;" x1="8" x2="61" y1="920.2188" y2="920.2188"/></g><!--class Portal--><g id="elem_Portal"><rect codeLine="109" fill="#F1F1F1" height="35.6094" id="Portal" rx="2.5" ry="2.5" style="stroke:#181818;stroke-width:0.5;" width="43" x="1169.5" y="45.6094"/><text fill="#000000" font-family="sans-serif" font-size="14" lengthAdjust="spacing" textLength="37" x="1172.5" y="65.1426">Portal</text><line style="stroke:#181818;stroke-width:0.5;" x1="1170.5" x2="1211.5" y1="73.2188" y2="73.2188"/></g><!--class GardenEquipment--><g id="elem_GardenEquipment"><rect codeLine="112" fill="#F1F1F1" height="53.2188" id="GardenEquipment" rx="2.5" ry="2.5" style="stroke:#181818;stroke-width:0.5;" width="121" x="1130.5" y="117.1094"/><text fill="#000000" font-family="sans-serif" font-size="14" lengthAdjust="spacing" textLength="115" x="1133.5" y="136.6426">GardenEquipment</text><line style="stroke:#181818;stroke-width:0.5;" x1="1131.5" x2="1250.5" y1="144.7188" y2="144.7188"/><text fill="#000000" font-family="sans-serif" font-size="14" lengthAdjust="spacing" textLength="73" x="1136.5" y="163.252">designation</text></g><!--class EquipmentStatisticalAnalysis--><g id="elem_EquipmentStatisticalAnalysis"><rect fill="#F1F1F1" height="35.6094" id="EquipmentStatisticalAnalysis" rx="2.5" ry="2.5" style="stroke:#181818;stroke-width:0.5;" width="185" x="1410" y="276.6094"/><text fill="#000000" font-family="sans-serif" font-size="14" lengthAdjust="spacing" textLength="179" x="1413" y="296.1426">EquipmentStatisticalAnalysis</text><line style="stroke:#181818;stroke-width:0.5;" x1="1411" x2="1594" y1="304.2188" y2="304.2188"/></g><!--link Vehicle to Brand--><g id="link_Vehicle_Brand"><path codeLine="116" d="M545.24,740.8194 C585.69,720.6394 633.14,696.9594 666.34,680.3994 " fill="none" id="Vehicle-Brand" style="stroke:#181818;stroke-width:1.0;"/><polygon fill="#000000" points="591.4741,691.5529,582.0683,692.9613,584.6925,698.2208,591.4741,691.5529" style="stroke:#000000;stroke-width:1.0;"/><text fill="#000000" font-family="sans-serif" font-size="13" lengthAdjust="spacing" textLength="21" x="596" y="699.1045">has</text><text fill="#000000" font-family="sans-serif" font-size="13" lengthAdjust="spacing" textLength="20" x="553.038" y="751.5936">1..*</text><text fill="#000000" font-family="sans-serif" font-size="13" lengthAdjust="spacing" textLength="7" x="651.4063" y="698.8542">1</text></g><!--link Model to Brand--><g id="link_Model_Brand"><path codeLine="118" d="M507.19,628.1394 C551.74,635.1194 621.95,646.1294 666.45,653.0994 " fill="none" id="Model-Brand" style="stroke:#181818;stroke-width:1.0;"/><polygon fill="#000000" points="582.0603,630.011,590.5413,634.315,591.4514,628.508,582.0603,630.011" style="stroke:#000000;stroke-width:1.0;"/><text fill="#000000" font-family="sans-serif" font-size="13" lengthAdjust="spacing" textLength="21" x="596" y="636.1045">has</text><text fill="#000000" font-family="sans-serif" font-size="13" lengthAdjust="spacing" textLength="20" x="514.9288" y="643.7783">1..*</text><text fill="#000000" font-family="sans-serif" font-size="13" lengthAdjust="spacing" textLength="7" x="651.5352" y="666.862">1</text></g><!--link Collaborator to Document--><g id="link_Collaborator_Document"><path codeLine="120" d="M964.25,486.4094 C974.07,489.2294 984.26,491.7894 994,493.6094 C1035.57,501.3594 1082.85,504.6594 1120.56,505.9894 " fill="none" id="Collaborator-Document" style="stroke:#181818;stroke-width:1.0;"/><polygon fill="#000000" points="1030.4612,485.4066,1021.8516,481.3662,1021.121,487.1985,1030.4612,485.4066" style="stroke:#000000;stroke-width:1.0;"/><text fill="#000000" font-family="sans-serif" font-size="13" lengthAdjust="spacing" textLength="21" x="1034.5" y="490.1045">has</text><text fill="#000000" font-family="sans-serif" font-size="13" lengthAdjust="spacing" textLength="7" x="972.0977" y="503.4719">1</text><text fill="#000000" font-family="sans-serif" font-size="13" lengthAdjust="spacing" textLength="20" x="1092.8931" y="520.2128">1..*</text></g><!--link Job to Collaborator--><g id="link_Job_Collaborator"><path codeLine="122" d="M726.33,393.2894 C752.95,404.1794 806.89,426.2594 848.67,443.3494 " fill="none" id="Job-Collaborator" style="stroke:#181818;stroke-width:1.0;"/><polygon fill="#000000" points="802.6276,415.6787,795.3692,409.5332,793.1432,414.9733,802.6276,415.6787" style="stroke:#000000;stroke-width:1.0;"/><text fill="#000000" font-family="sans-serif" font-size="13" lengthAdjust="spacing" textLength="11" x="807" y="419.1045">to</text><text fill="#000000" font-family="sans-serif" font-size="13" lengthAdjust="spacing" textLength="5" x="733.8902" y="412.4066">*</text><text fill="#000000" font-family="sans-serif" font-size="13" lengthAdjust="spacing" textLength="20" x="820.8272" y="455.085">1..*</text></g><!--link Skill to Collaborator--><g id="link_Skill_Collaborator"><path codeLine="125" d="M751.75,543.5294 C772.08,533.6894 796.86,521.6194 819,510.6094 C828.65,505.8094 838.89,500.6594 848.81,495.6294 " fill="none" id="Skill-Collaborator" style="stroke:#181818;stroke-width:1.0;"/><polygon fill="#000000" points="802.4837,499.5724,793.072,500.9399,795.6732,506.2108,802.4837,499.5724" style="stroke:#000000;stroke-width:1.0;"/><text fill="#000000" font-family="sans-serif" font-size="13" lengthAdjust="spacing" textLength="11" x="807" y="507.1045">to</text><text fill="#000000" font-family="sans-serif" font-size="13" lengthAdjust="spacing" textLength="5" x="759.5273" y="554.9597">*</text><text fill="#000000" font-family="sans-serif" font-size="13" lengthAdjust="spacing" textLength="20" x="820.9833" y="513.4099">1..*</text></g><!--link Team to Skill--><g id="link_Team_Skill"><path codeLine="126" d="M536.62,529.6894 C578.83,538.0394 630.87,548.3394 666.46,555.3894 " fill="none" id="Team-Skill" style="stroke:#181818;stroke-width:1.0;"/><polygon fill="#000000" points="584.9048,530.756,576.6025,526.1167,575.4613,531.8827,584.9048,530.756" style="stroke:#000000;stroke-width:1.0;"/><text fill="#000000" font-family="sans-serif" font-size="13" lengthAdjust="spacing" textLength="35" x="589" y="535.1045">needs</text><text fill="#000000" font-family="sans-serif" font-size="13" lengthAdjust="spacing" textLength="25" x="544.4209" y="545.216">1..**</text><text fill="#000000" font-family="sans-serif" font-size="13" lengthAdjust="spacing" textLength="20" x="638.4148" y="568.861">1..*</text></g><!--link Team to Collaborator--><g id="link_Team_Collaborator"><path codeLine="128" d="M536.68,507.6794 C623.63,497.9994 768.97,481.8094 848.77,472.9294 " fill="none" id="Team-Collaborator" style="stroke:#181818;stroke-width:1.0;"/><polygon fill="#000000" points="700.9693,474.2318,691.6545,472.3119,692.305,478.1537,700.9693,474.2318" style="stroke:#000000;stroke-width:1.0;"/><text fill="#000000" font-family="sans-serif" font-size="13" lengthAdjust="spacing" textLength="21" x="705" y="480.1045">has</text><text fill="#000000" font-family="sans-serif" font-size="13" lengthAdjust="spacing" textLength="7" x="544.4845" y="521.1773">1</text><text fill="#000000" font-family="sans-serif" font-size="13" lengthAdjust="spacing" textLength="20" x="820.9387" y="488.0852">1..*</text></g><!--link Vehicle to VehicleCheckup--><g id="link_Vehicle_VehicleCheckup"><path codeLine="130" d="M545.24,780.6094 C581.27,780.6094 622.86,780.6094 654.98,780.6094 " fill="none" id="Vehicle-VehicleCheckup" style="stroke:#181818;stroke-width:1.0;"/><polygon fill="#000000" points="592,771.7852,582.9549,768.8462,582.9549,774.7241,592,771.7852" style="stroke:#000000;stroke-width:1.0;"/><text fill="#000000" font-family="sans-serif" font-size="13" lengthAdjust="spacing" textLength="21" x="596" y="777.1045">has</text><text fill="#000000" font-family="sans-serif" font-size="13" lengthAdjust="spacing" textLength="7" x="553.0059" y="794.8539">1</text><text fill="#000000" font-family="sans-serif" font-size="13" lengthAdjust="spacing" textLength="5" x="642.0319" y="795.2234">*</text></g><!--link Collaborator to Address--><g id="link_Collaborator_Address"><path codeLine="132" d="M964.33,451.5194 C1023.14,435.9094 1112.79,412.1094 1159.42,399.7294 " fill="none" id="Collaborator-Address" style="stroke:#181818;stroke-width:1.0;"/><polygon fill="#000000" points="1024.8326,410.5023,1015.3363,409.9825,1016.8444,415.6636,1024.8326,410.5023" style="stroke:#000000;stroke-width:1.0;"/><text fill="#000000" font-family="sans-serif" font-size="13" lengthAdjust="spacing" textLength="32" x="1029" y="417.1045">has a</text><text fill="#000000" font-family="sans-serif" font-size="13" lengthAdjust="spacing" textLength="20" x="972.1728" y="464.1997">1..*</text><text fill="#000000" font-family="sans-serif" font-size="13" lengthAdjust="spacing" textLength="7" x="1144.3078" y="416.9423">1</text></g><!--link GreenSpace to WaterStatisticalAnalysis--><g id="link_GreenSpace_WaterStatisticalAnalysis"><path codeLine="134" d="M949.79,223.6094 C992.74,223.6094 1060.21,223.6094 1112.72,223.6094 " fill="none" id="GreenSpace-WaterStatisticalAnalysis" style="stroke:#181818;stroke-width:1.0;"/><polygon fill="#000000" points="1008,214.7852,998.9549,211.8462,998.9549,217.7241,1008,214.7852" style="stroke:#000000;stroke-width:1.0;"/><text fill="#000000" font-family="sans-serif" font-size="13" lengthAdjust="spacing" textLength="66" x="1012" y="220.1045">is analysed</text><text fill="#000000" font-family="sans-serif" font-size="13" lengthAdjust="spacing" textLength="7" x="957.5396" y="238.4405">1</text><text fill="#000000" font-family="sans-serif" font-size="13" lengthAdjust="spacing" textLength="7" x="1097.9253" y="237.9024">1</text></g><!--link GreenSpace to Address--><g id="link_GreenSpace_Address"><path codeLine="136" d="M934.85,250.2494 C951.18,265.2994 972.8,283.7994 994,297.6094 C1049.02,333.4494 1119.79,363.9994 1159.49,379.8894 " fill="none" id="GreenSpace-Address" style="stroke:#181818;stroke-width:1.0;"/><polygon fill="#000000" points="1020.8306,291.2843,1014.4655,284.2178,1011.5275,289.3087,1020.8306,291.2843" style="stroke:#000000;stroke-width:1.0;"/><text fill="#000000" font-family="sans-serif" font-size="13" lengthAdjust="spacing" textLength="39" x="1025.5" y="294.1045">has an</text><text fill="#000000" font-family="sans-serif" font-size="13" lengthAdjust="spacing" textLength="7" x="933.5966" y="271.7703">1</text><text fill="#000000" font-family="sans-serif" font-size="13" lengthAdjust="spacing" textLength="7" x="1144.3939" y="392.5143">1</text></g><!--link GreenSpace to GardenEquipment--><g id="link_GreenSpace_GardenEquipment"><path codeLine="138" d="M949.68,210.7194 C963.75,206.4694 979.53,201.7794 994,197.6094 C1039.62,184.4694 1091.4,170.2294 1130.29,159.6794 " fill="none" id="GreenSpace-GardenEquipment" style="stroke:#181818;stroke-width:1.0;"/><polygon fill="#000000" points="1030.3116,163.4254,1020.8081,163.057,1022.4066,168.7134,1030.3116,163.4254" style="stroke:#000000;stroke-width:1.0;"/><text fill="#000000" font-family="sans-serif" font-size="13" lengthAdjust="spacing" textLength="21" x="1034.5" y="170.1045">has</text><text fill="#000000" font-family="sans-serif" font-size="13" lengthAdjust="spacing" textLength="7" x="957.4114" y="204.7656">1</text><text fill="#000000" font-family="sans-serif" font-size="13" lengthAdjust="spacing" textLength="5" x="1117.5863" y="176.1161">*</text></g><!--link Task to Vehicle--><g id="link_Task_Vehicle"><path codeLine="140" d="M243.01,890.0094 C280.75,871.2894 337.45,843.1494 383.91,820.0994 " fill="none" id="Task-Vehicle" style="stroke:#181818;stroke-width:1.0;"/><polygon fill="#000000" points="297.979,827.5628,288.5702,828.9504,291.1827,834.2157,297.979,827.5628" style="stroke:#000000;stroke-width:1.0;"/><text fill="#000000" font-family="sans-serif" font-size="13" lengthAdjust="spacing" textLength="35" x="302.5" y="835.1045">needs</text><text fill="#000000" font-family="sans-serif" font-size="13" lengthAdjust="spacing" textLength="7" x="250.918" y="901.3839">1</text><text fill="#000000" font-family="sans-serif" font-size="13" lengthAdjust="spacing" textLength="5" x="370.9905" y="838.1332">*</text></g><!--link Task to Machines--><g id="link_Task_Machines"><path codeLine="142" d="M243.01,915.2094 C291.93,920.6194 372.73,929.5594 421.75,934.9894 " fill="none" id="Task-Machines" style="stroke:#181818;stroke-width:1.0;"/><polygon fill="#000000" points="298.4697,910.3351,289.8027,906.4191,289.1562,912.2613,298.4697,910.3351" style="stroke:#000000;stroke-width:1.0;"/><text fill="#000000" font-family="sans-serif" font-size="13" lengthAdjust="spacing" textLength="35" x="302.5" y="915.1045">needs</text><text fill="#000000" font-family="sans-serif" font-size="13" lengthAdjust="spacing" textLength="7" x="250.918" y="930.9151">1</text><text fill="#000000" font-family="sans-serif" font-size="13" lengthAdjust="spacing" textLength="5" x="408.9727" y="949.0768">*</text></g><!--link Task to Team--><g id="link_Task_Team"><path codeLine="144" d="M215.35,874.8994 C241.46,810.5994 302.73,673.1394 384,577.6094 C389.22,571.4794 395.13,565.5494 401.31,559.9394 " fill="none" id="Task-Team" style="stroke:#181818;stroke-width:1.0;"/><polygon fill="#000000" points="280.5421,605.4796,273.4127,611.7742,278.4741,614.7626,280.5421,605.4796" style="stroke:#000000;stroke-width:1.0;"/><text fill="#000000" font-family="sans-serif" font-size="13" lengthAdjust="spacing" textLength="66" x="287" y="615.1045">is assigned</text><text fill="#000000" font-family="sans-serif" font-size="13" lengthAdjust="spacing" textLength="7" x="210.4427" y="864.3837">1</text><text fill="#000000" font-family="sans-serif" font-size="13" lengthAdjust="spacing" textLength="7" x="384.0981" y="581.4409">1</text></g><!--link Task to GardenTools--><g id="link_Task_GardenTools"><path codeLine="146" d="M243.25,936.5994 C252.86,942.1694 263.16,947.8194 273,952.6094 C322.05,976.4894 380.77,998.6994 419.93,1012.6494 " fill="none" id="Task-GardenTools" style="stroke:#181818;stroke-width:1.0;"/><polygon fill="#000000" points="305.0926,945.762,297.9465,939.4864,295.6225,944.8853,305.0926,945.762" style="stroke:#000000;stroke-width:1.0;"/><text fill="#000000" font-family="sans-serif" font-size="13" lengthAdjust="spacing" textLength="21" x="309.5" y="949.1045">has</text><text fill="#000000" font-family="sans-serif" font-size="13" lengthAdjust="spacing" textLength="7" x="250.9102" y="955.7674">1</text><text fill="#000000" font-family="sans-serif" font-size="13" lengthAdjust="spacing" textLength="5" x="407.134" y="1025.0027">*</text></g><!--link GreenSpace to ElectronicDevice--><g id="link_GreenSpace_ElectronicDevice"><path codeLine="148" d="M949.58,236.8694 C963.65,241.1394 979.45,245.7594 994,249.6094 C1041.42,262.1694 1095.83,274.4894 1135.27,283.0594 " fill="none" id="GreenSpace-ElectronicDevice" style="stroke:#181818;stroke-width:1.0;"/><polygon fill="#000000" points="1030.3521,241.9921,1022.284,236.9567,1020.8651,242.6607,1030.3521,241.9921" style="stroke:#000000;stroke-width:1.0;"/><text fill="#000000" font-family="sans-serif" font-size="13" lengthAdjust="spacing" textLength="21" x="1034.5" y="246.1045">has</text><text fill="#000000" font-family="sans-serif" font-size="13" lengthAdjust="spacing" textLength="7" x="957.5859" y="254.03">1</text><text fill="#000000" font-family="sans-serif" font-size="13" lengthAdjust="spacing" textLength="20" x="1107.67" y="296.1869">1..*</text></g><!--link ElectronicDevice to EquipmentStatisticalAnalysis--><g id="link_ElectronicDevice_EquipmentStatisticalAnalysis"><path codeLine="150" d="M1246.62,294.6094 C1291.74,294.6094 1356.76,294.6094 1409.84,294.6094 " fill="none" id="ElectronicDevice-EquipmentStatisticalAnalysis" style="stroke:#181818;stroke-width:1.0;"/><polygon fill="#000000" points="1309,285.7852,1299.9549,282.8462,1299.9549,288.7241,1309,285.7852" style="stroke:#000000;stroke-width:1.0;"/><text fill="#000000" font-family="sans-serif" font-size="13" lengthAdjust="spacing" textLength="66" x="1313" y="291.1045">is analysed</text><text fill="#000000" font-family="sans-serif" font-size="13" lengthAdjust="spacing" textLength="7" x="1254.5643" y="309.2294">1</text><text fill="#000000" font-family="sans-serif" font-size="13" lengthAdjust="spacing" textLength="7" x="1394.8768" y="308.7977">1</text></g><!--link GreenSpace to Portal--><g id="link_GreenSpace_Portal"><path codeLine="152" d="M933.39,196.9394 C949.72,181.1594 971.85,161.5794 994,147.6094 C1053.49,110.0694 1132.64,81.9894 1169.5,69.9994 " fill="none" id="GreenSpace-Portal" style="stroke:#181818;stroke-width:1.0;"/><polygon fill="#000000" points="1003.4039,92.4175,994.0455,94.1121,996.8289,99.2892,1003.4039,92.4175" style="stroke:#000000;stroke-width:1.0;"/><text fill="#000000" font-family="sans-serif" font-size="13" lengthAdjust="spacing" textLength="74" x="1008" y="100.1045">is connected</text><text fill="#000000" font-family="sans-serif" font-size="13" lengthAdjust="spacing" textLength="7" x="931.7989" y="186.4324">1</text><text fill="#000000" font-family="sans-serif" font-size="13" lengthAdjust="spacing" textLength="7" x="1154.5313" y="88.1996">1</text></g><!--link Portal to StatsUserPortal--><g id="link_Portal_StatsUserPortal"><path codeLine="154" d="M1212.79,63.6094 C1260.9,63.6094 1381.09,63.6094 1450.28,63.6094 " fill="none" id="Portal-StatsUserPortal" style="stroke:#181818;stroke-width:1.0;"/><polygon fill="#000000" points="1309,54.7852,1299.9549,51.8462,1299.9549,57.7241,1309,54.7852" style="stroke:#000000;stroke-width:1.0;"/><text fill="#000000" font-family="sans-serif" font-size="13" lengthAdjust="spacing" textLength="66" x="1313" y="60.1045">is analysed</text><text fill="#000000" font-family="sans-serif" font-size="13" lengthAdjust="spacing" textLength="7" x="1220.5351" y="79.6681">1</text><text fill="#000000" font-family="sans-serif" font-size="13" lengthAdjust="spacing" textLength="7" x="1435.4444" y="78.2817">1</text></g><!--link Agenda to Task--><g id="link_Agenda_Task"><path codeLine="156" d="M62.21,910.6094 C88.08,910.6094 127.69,910.6094 157.73,910.6094 " fill="none" id="Agenda-Task" style="stroke:#181818;stroke-width:1.0;"/><polygon fill="#000000" points="102,901.7852,92.9549,898.8462,92.9549,904.7241,102,901.7852" style="stroke:#000000;stroke-width:1.0;"/><text fill="#000000" font-family="sans-serif" font-size="13" lengthAdjust="spacing" textLength="21" x="106" y="907.1045">has</text><text fill="#000000" font-family="sans-serif" font-size="13" lengthAdjust="spacing" textLength="7" x="69.8174" y="926.1449">1</text><text fill="#000000" font-family="sans-serif" font-size="13" lengthAdjust="spacing" textLength="20" x="129.9794" y="925.3179">1..*</text></g><!--SRC=[ZLHDJnin4Btlhx1oYOG4Qg-egfGIYcX5XHJQdYVsi3kArmwsbnAg_lVEsiv-9QJbGDQUDn_l-Tb-GsOB3cfHMsDbvMoD8hW62zz5jY0tKE8gx3GAXpA0AVKGu2jGzXUPKZo2ziE8rE3z8WH7woRWhRHcHQyetXKLAHIIdEH2yRl6K5db2usFGGGh79LL48hQVcHDKGGAt7vfQo0Zxgn2NHInl5XjI6lnkn3yfz1JQI2c_Da3ljXr3iSYVU3AQWrhwo1Obn46QemVQtAXKX3I2bHDtdFLvNwdjclI-Asfr-ZY1fxpQ3grWPSjxD3bQDTlQMLJembvrhnws6rJITR117ea6UVlatFs0xAYcGT_tgeq1xmavBN6jffFksGckzqGFx0YbZrNUYQJVjFklTxp2-3m9xQd49UbizuFrh9nZkj-hUFAOKa-k3Xtfn38fuOyZVRQqmjem4ZyxF2fGIDtgLqhGZVZ9mT6dJZHUFudufdZLOLoqsmpS3_3UFGHSIumJnNkqNbhMf7cdIlcOrkqItPq01dkeXdI5cORp0zyCE_cMoZbqFiq60k7c5HzfUqLKqjZKjZrZ7voIxSApDC7DeXU6D0xJroYWxHH_zsZkxSkW1v4s0GoE6j8Bl6P90v2DzpRhFYAumav7y1l3iETgFsnWAp8e3zHwWOSk_p1MdqAjIZHA1YCUK0frRbcXsq7DsfSQ-_qsVkBYxEPE3_dhrdobhWK5NZniIYYbKv0FXJ5w9beun4M4_Otkg_NFZQpio5cb7xPFcuCAzAhzMzalFKnFeAcz4jX45Nict4dokK1UrKIbe7Zwz939yI74cK7PooqwDvA_HopDutBcVmFuWhLs_cJHkOD94ysiKJ7edNl4ROZyNf8YzZx-3WY_aIv4mNVcYvHcBOQkBrNzHZFAEtqcdOPqy1ma8xl4Ot_K-9qkH8RVj0CDqlm71X09s_CuI6ccpiX5cN9RFu2]--></g></svg>