<?xml version="1.0" encoding="UTF-8" standalone="no"?><svg xmlns="http://www.w3.org/2000/svg" xmlns:xlink="http://www.w3.org/1999/xlink" contentStyleType="text/css" height="1234px" preserveAspectRatio="none" style="width:2560px;height:1234px;background:#FFFFFF;" version="1.1" viewBox="0 0 2560 1234" width="2560px" zoomAndPan="magnify"><defs/><g><!--cluster UI--><g id="cluster_UI"><path d="M1883.5,6 L1898.5,6 A3.75,3.75 0 0 1 1901,8.5 L1908,29.6094 L2034.5,29.6094 A2.5,2.5 0 0 1 2037,32.1094 L2037,103.5 A2.5,2.5 0 0 1 2034.5,106 L1883.5,106 A2.5,2.5 0 0 1 1881,103.5 L1881,8.5 A2.5,2.5 0 0 1 1883.5,6 " fill="none" style="stroke:#000000;stroke-width:1.5;"/><line style="stroke:#000000;stroke-width:1.5;" x1="1881" x2="1908" y1="29.6094" y2="29.6094"/><text fill="#000000" font-family="sans-serif" font-size="14" font-weight="bold" lengthAdjust="spacing" textLength="14" x="1885" y="22.5332">UI</text></g><!--cluster CONTROLLER--><g id="cluster_CONTROLLER"><path d="M1662.5,139 L1758.5,139 A3.75,3.75 0 0 1 1761,141.5 L1768,162.6094 L2255.5,162.6094 A2.5,2.5 0 0 1 2258,165.1094 L2258,342.5 A2.5,2.5 0 0 1 2255.5,345 L1662.5,345 A2.5,2.5 0 0 1 1660,342.5 L1660,141.5 A2.5,2.5 0 0 1 1662.5,139 " fill="none" style="stroke:#000000;stroke-width:1.5;"/><line style="stroke:#000000;stroke-width:1.5;" x1="1660" x2="1768" y1="162.6094" y2="162.6094"/><text fill="#000000" font-family="sans-serif" font-size="14" font-weight="bold" lengthAdjust="spacing" textLength="95" x="1664" y="155.5332">CONTROLLER</text></g><!--cluster DOMAIN--><g id="cluster_DOMAIN"><path d="M8.5,378 L66.5,378 A3.75,3.75 0 0 1 69,380.5 L76,401.6094 L2550.5,401.6094 A2.5,2.5 0 0 1 2553,404.1094 L2553,1225 A2.5,2.5 0 0 1 2550.5,1227.5 L8.5,1227.5 A2.5,2.5 0 0 1 6,1225 L6,380.5 A2.5,2.5 0 0 1 8.5,378 " fill="none" style="stroke:#000000;stroke-width:1.5;"/><line style="stroke:#000000;stroke-width:1.5;" x1="6" x2="76" y1="401.6094" y2="401.6094"/><text fill="#000000" font-family="sans-serif" font-size="14" font-weight="bold" lengthAdjust="spacing" textLength="57" x="10" y="394.5332">DOMAIN</text></g><!--cluster REPOSITORY--><g id="cluster_REPOSITORY"><path d="M1260.5,422 L1352.5,422 A3.75,3.75 0 0 1 1355,424.5 L1362,445.6094 L2526.5,445.6094 A2.5,2.5 0 0 1 2529,448.1094 L2529,826 A2.5,2.5 0 0 1 2526.5,828.5 L1260.5,828.5 A2.5,2.5 0 0 1 1258,826 L1258,424.5 A2.5,2.5 0 0 1 1260.5,422 " fill="none" style="stroke:#000000;stroke-width:1.5;"/><line style="stroke:#000000;stroke-width:1.5;" x1="1258" x2="1362" y1="445.6094" y2="445.6094"/><text fill="#000000" font-family="sans-serif" font-size="14" font-weight="bold" lengthAdjust="spacing" textLength="91" x="1262" y="438.5332">REPOSITORY</text></g><!--cluster DTO--><g id="cluster_DTO"><path d="M32.5,676 L62.5,676 A3.75,3.75 0 0 1 65,678.5 L72,699.6094 L1231.5,699.6094 A2.5,2.5 0 0 1 1234,702.1094 L1234,1201 A2.5,2.5 0 0 1 1231.5,1203.5 L32.5,1203.5 A2.5,2.5 0 0 1 30,1201 L30,678.5 A2.5,2.5 0 0 1 32.5,676 " fill="none" style="stroke:#000000;stroke-width:1.5;"/><line style="stroke:#000000;stroke-width:1.5;" x1="30" x2="72" y1="699.6094" y2="699.6094"/><text fill="#000000" font-family="sans-serif" font-size="14" font-weight="bold" lengthAdjust="spacing" textLength="29" x="34" y="692.5332">DTO</text></g><!--cluster MODEL--><g id="cluster_MODEL"><path d="M1260.5,892.5 L1312.5,892.5 A3.75,3.75 0 0 1 1315,895 L1322,916.1094 L2415.5,916.1094 A2.5,2.5 0 0 1 2418,918.6094 L2418,1148 A2.5,2.5 0 0 1 2415.5,1150.5 L1260.5,1150.5 A2.5,2.5 0 0 1 1258,1148 L1258,895 A2.5,2.5 0 0 1 1260.5,892.5 " fill="none" style="stroke:#000000;stroke-width:1.5;"/><line style="stroke:#000000;stroke-width:1.5;" x1="1258" x2="1322" y1="916.1094" y2="916.1094"/><text fill="#000000" font-family="sans-serif" font-size="14" font-weight="bold" lengthAdjust="spacing" textLength="51" x="1262" y="909.0332">MODEL</text></g><!--class RecordEntryUI--><g id="elem_RecordEntryUI"><rect codeLine="5" fill="#F1F1F1" height="48" id="RecordEntryUI" rx="2.5" ry="2.5" style="stroke:#181818;stroke-width:0.5;" width="123" x="1897.5" y="42"/><ellipse cx="1912.5" cy="58" fill="#ADD1B2" rx="11" ry="11" style="stroke:#181818;stroke-width:1.0;"/><path d="M1915.2656,53.875 Q1915.4219,53.6563 1915.6094,53.5469 Q1915.7969,53.4375 1916.0156,53.4375 Q1916.3906,53.4375 1916.625,53.7031 Q1916.8594,53.9531 1916.8594,54.5625 L1916.8594,56.0156 Q1916.8594,56.625 1916.625,56.8906 Q1916.3906,57.1563 1916.0156,57.1563 Q1915.6719,57.1563 1915.4688,56.9531 Q1915.2656,56.7656 1915.1563,56.25 Q1915.1094,55.8906 1914.9219,55.7031 Q1914.5938,55.3281 1913.9844,55.1094 Q1913.375,54.8906 1912.75,54.8906 Q1911.9844,54.8906 1911.3438,55.2188 Q1910.7188,55.5469 1910.2188,56.2969 Q1909.7344,57.0469 1909.7344,58.0781 L1909.7344,59.1719 Q1909.7344,60.4063 1910.625,61.2344 Q1911.5156,62.0469 1913.1094,62.0469 Q1914.0469,62.0469 1914.7031,61.7969 Q1915.0938,61.6406 1915.5156,61.2031 Q1915.7813,60.9375 1915.9219,60.8594 Q1916.0781,60.7813 1916.2813,60.7813 Q1916.6094,60.7813 1916.8594,61.0469 Q1917.125,61.2969 1917.125,61.6406 Q1917.125,61.9844 1916.7813,62.3906 Q1916.2813,62.9688 1915.4844,63.2969 Q1914.4063,63.75 1913.1094,63.75 Q1911.5938,63.75 1910.3906,63.125 Q1909.4063,62.625 1908.7188,61.5625 Q1908.0313,60.4844 1908.0313,59.2031 L1908.0313,58.0469 Q1908.0313,56.7188 1908.6406,55.5781 Q1909.2656,54.4219 1910.3594,53.8125 Q1911.4531,53.1875 1912.6875,53.1875 Q1913.4219,53.1875 1914.0625,53.3594 Q1914.7188,53.5156 1915.2656,53.875 Z " fill="#000000"/><text fill="#000000" font-family="sans-serif" font-size="14" lengthAdjust="spacing" textLength="91" x="1926.5" y="63.7285">RecordEntryUI</text><line style="stroke:#181818;stroke-width:0.5;" x1="1898.5" x2="2019.5" y1="74" y2="74"/><line style="stroke:#181818;stroke-width:0.5;" x1="1898.5" x2="2019.5" y1="82" y2="82"/></g><!--class RecordEntryController--><g id="elem_RecordEntryController"><rect codeLine="10" fill="#F1F1F1" height="153.6563" id="RecordEntryController" rx="2.5" ry="2.5" style="stroke:#181818;stroke-width:0.5;" width="565" x="1676.5" y="175"/><ellipse cx="1884.25" cy="191" fill="#ADD1B2" rx="11" ry="11" style="stroke:#181818;stroke-width:1.0;"/><path d="M1887.0156,186.875 Q1887.1719,186.6563 1887.3594,186.5469 Q1887.5469,186.4375 1887.7656,186.4375 Q1888.1406,186.4375 1888.375,186.7031 Q1888.6094,186.9531 1888.6094,187.5625 L1888.6094,189.0156 Q1888.6094,189.625 1888.375,189.8906 Q1888.1406,190.1563 1887.7656,190.1563 Q1887.4219,190.1563 1887.2188,189.9531 Q1887.0156,189.7656 1886.9063,189.25 Q1886.8594,188.8906 1886.6719,188.7031 Q1886.3438,188.3281 1885.7344,188.1094 Q1885.125,187.8906 1884.5,187.8906 Q1883.7344,187.8906 1883.0938,188.2188 Q1882.4688,188.5469 1881.9688,189.2969 Q1881.4844,190.0469 1881.4844,191.0781 L1881.4844,192.1719 Q1881.4844,193.4063 1882.375,194.2344 Q1883.2656,195.0469 1884.8594,195.0469 Q1885.7969,195.0469 1886.4531,194.7969 Q1886.8438,194.6406 1887.2656,194.2031 Q1887.5313,193.9375 1887.6719,193.8594 Q1887.8281,193.7813 1888.0313,193.7813 Q1888.3594,193.7813 1888.6094,194.0469 Q1888.875,194.2969 1888.875,194.6406 Q1888.875,194.9844 1888.5313,195.3906 Q1888.0313,195.9688 1887.2344,196.2969 Q1886.1563,196.75 1884.8594,196.75 Q1883.3438,196.75 1882.1406,196.125 Q1881.1563,195.625 1880.4688,194.5625 Q1879.7813,193.4844 1879.7813,192.2031 L1879.7813,191.0469 Q1879.7813,189.7188 1880.3906,188.5781 Q1881.0156,187.4219 1882.1094,186.8125 Q1883.2031,186.1875 1884.4375,186.1875 Q1885.1719,186.1875 1885.8125,186.3594 Q1886.4688,186.5156 1887.0156,186.875 Z " fill="#000000"/><text fill="#000000" font-family="sans-serif" font-size="14" lengthAdjust="spacing" textLength="141" x="1904.75" y="196.7285">RecordEntryController</text><line style="stroke:#181818;stroke-width:0.5;" x1="1677.5" x2="2240.5" y1="207" y2="207"/><rect fill="none" height="6" style="stroke:#C82930;stroke-width:1.0;" width="6" x="1684.5" y="218.3047"/><text fill="#000000" font-family="sans-serif" font-size="14" lengthAdjust="spacing" textLength="161" x="1696.5" y="225.5332">repositories: Repositories</text><rect fill="none" height="6" style="stroke:#C82930;stroke-width:1.0;" width="6" x="1684.5" y="235.9141"/><text fill="#000000" font-family="sans-serif" font-size="14" lengthAdjust="spacing" textLength="209" x="1696.5" y="243.1426">entryRepository: EntryRepository</text><rect fill="none" height="6" style="stroke:#C82930;stroke-width:1.0;" width="6" x="1684.5" y="253.5234"/><text fill="#000000" font-family="sans-serif" font-size="14" lengthAdjust="spacing" textLength="211" x="1696.5" y="260.752">teamRepository: TeamRepository</text><line style="stroke:#181818;stroke-width:0.5;" x1="1677.5" x2="2240.5" y1="267.8281" y2="267.8281"/><ellipse cx="1687.5" cy="282.1328" fill="#84BE84" rx="3" ry="3" style="stroke:#038048;stroke-width:1.0;"/><text fill="#000000" font-family="sans-serif" font-size="14" lengthAdjust="spacing" textLength="151" x="1696.5" y="286.3613">RecordEntryController()</text><ellipse cx="1687.5" cy="299.7422" fill="#84BE84" rx="3" ry="3" style="stroke:#038048;stroke-width:1.0;"/><text fill="#000000" font-family="sans-serif" font-size="14" lengthAdjust="spacing" textLength="539" x="1696.5" y="303.9707">getAgendaEntryOfCollaboratorList(collaborator: UserSession): List&lt;AgendaEntryDto&gt;</text><ellipse cx="1687.5" cy="317.3516" fill="#84BE84" rx="3" ry="3" style="stroke:#038048;stroke-width:1.0;"/><text fill="#000000" font-family="sans-serif" font-size="14" lengthAdjust="spacing" textLength="380" x="1696.5" y="321.5801">recordEntryCompletion(entryDto: AgendaEntryDto): boolean</text></g><!--class Repositories--><g id="elem_Repositories"><rect codeLine="22" fill="#F1F1F1" height="171.2656" id="Repositories" rx="2.5" ry="2.5" style="stroke:#181818;stroke-width:0.5;" width="272" x="1555" y="458"/><ellipse cx="1647.25" cy="474" fill="#ADD1B2" rx="11" ry="11" style="stroke:#181818;stroke-width:1.0;"/><path d="M1650.0156,469.875 Q1650.1719,469.6563 1650.3594,469.5469 Q1650.5469,469.4375 1650.7656,469.4375 Q1651.1406,469.4375 1651.375,469.7031 Q1651.6094,469.9531 1651.6094,470.5625 L1651.6094,472.0156 Q1651.6094,472.625 1651.375,472.8906 Q1651.1406,473.1563 1650.7656,473.1563 Q1650.4219,473.1563 1650.2188,472.9531 Q1650.0156,472.7656 1649.9063,472.25 Q1649.8594,471.8906 1649.6719,471.7031 Q1649.3438,471.3281 1648.7344,471.1094 Q1648.125,470.8906 1647.5,470.8906 Q1646.7344,470.8906 1646.0938,471.2188 Q1645.4688,471.5469 1644.9688,472.2969 Q1644.4844,473.0469 1644.4844,474.0781 L1644.4844,475.1719 Q1644.4844,476.4063 1645.375,477.2344 Q1646.2656,478.0469 1647.8594,478.0469 Q1648.7969,478.0469 1649.4531,477.7969 Q1649.8438,477.6406 1650.2656,477.2031 Q1650.5313,476.9375 1650.6719,476.8594 Q1650.8281,476.7813 1651.0313,476.7813 Q1651.3594,476.7813 1651.6094,477.0469 Q1651.875,477.2969 1651.875,477.6406 Q1651.875,477.9844 1651.5313,478.3906 Q1651.0313,478.9688 1650.2344,479.2969 Q1649.1563,479.75 1647.8594,479.75 Q1646.3438,479.75 1645.1406,479.125 Q1644.1563,478.625 1643.4688,477.5625 Q1642.7813,476.4844 1642.7813,475.2031 L1642.7813,474.0469 Q1642.7813,472.7188 1643.3906,471.5781 Q1644.0156,470.4219 1645.1094,469.8125 Q1646.2031,469.1875 1647.4375,469.1875 Q1648.1719,469.1875 1648.8125,469.3594 Q1649.4688,469.5156 1650.0156,469.875 Z " fill="#000000"/><text fill="#000000" font-family="sans-serif" font-size="14" lengthAdjust="spacing" textLength="79" x="1667.75" y="479.7285">Repositories</text><line style="stroke:#181818;stroke-width:0.5;" x1="1556" x2="1826" y1="490" y2="490"/><rect fill="none" height="6" style="stroke:#C82930;stroke-width:1.0;" width="6" x="1563" y="501.3047"/><text fill="#000000" font-family="sans-serif" font-size="14" lengthAdjust="spacing" textLength="140" x="1575" y="508.5332">instance: Repositories</text><rect fill="none" height="6" style="stroke:#C82930;stroke-width:1.0;" width="6" x="1563" y="518.9141"/><text fill="#000000" font-family="sans-serif" font-size="14" lengthAdjust="spacing" textLength="209" x="1575" y="526.1426">entryRepository: EntryRepository</text><rect fill="none" height="6" style="stroke:#C82930;stroke-width:1.0;" width="6" x="1563" y="536.5234"/><text fill="#000000" font-family="sans-serif" font-size="14" lengthAdjust="spacing" textLength="211" x="1575" y="543.752">teamRepository: TeamRepository</text><line style="stroke:#181818;stroke-width:0.5;" x1="1556" x2="1826" y1="550.8281" y2="550.8281"/><rect fill="#F24D5C" height="6" style="stroke:#C82930;stroke-width:1.0;" width="6" x="1563" y="562.1328"/><text fill="#000000" font-family="sans-serif" font-size="14" lengthAdjust="spacing" textLength="89" x="1575" y="569.3613">Repositories()</text><ellipse cx="1566" cy="582.7422" fill="#84BE84" rx="3" ry="3" style="stroke:#038048;stroke-width:1.0;"/><text fill="#000000" font-family="sans-serif" font-size="14" lengthAdjust="spacing" textLength="170" x="1575" y="586.9707">getInstance(): Repositories</text><ellipse cx="1566" cy="600.3516" fill="#84BE84" rx="3" ry="3" style="stroke:#038048;stroke-width:1.0;"/><text fill="#000000" font-family="sans-serif" font-size="14" lengthAdjust="spacing" textLength="240" x="1575" y="604.5801">getEntryRepository(): EntryRepository</text><ellipse cx="1566" cy="617.9609" fill="#84BE84" rx="3" ry="3" style="stroke:#038048;stroke-width:1.0;"/><text fill="#000000" font-family="sans-serif" font-size="14" lengthAdjust="spacing" textLength="246" x="1575" y="622.1895">getTeamRepository(): TeamRepository</text></g><!--class EntryRepository--><g id="elem_EntryRepository"><rect codeLine="32" fill="#F1F1F1" height="118.4375" id="EntryRepository" rx="2.5" ry="2.5" style="stroke:#181818;stroke-width:0.5;" width="611" x="1274.5" y="694.5"/><ellipse cx="1525.25" cy="710.5" fill="#ADD1B2" rx="11" ry="11" style="stroke:#181818;stroke-width:1.0;"/><path d="M1528.0156,706.375 Q1528.1719,706.1563 1528.3594,706.0469 Q1528.5469,705.9375 1528.7656,705.9375 Q1529.1406,705.9375 1529.375,706.2031 Q1529.6094,706.4531 1529.6094,707.0625 L1529.6094,708.5156 Q1529.6094,709.125 1529.375,709.3906 Q1529.1406,709.6563 1528.7656,709.6563 Q1528.4219,709.6563 1528.2188,709.4531 Q1528.0156,709.2656 1527.9063,708.75 Q1527.8594,708.3906 1527.6719,708.2031 Q1527.3438,707.8281 1526.7344,707.6094 Q1526.125,707.3906 1525.5,707.3906 Q1524.7344,707.3906 1524.0938,707.7188 Q1523.4688,708.0469 1522.9688,708.7969 Q1522.4844,709.5469 1522.4844,710.5781 L1522.4844,711.6719 Q1522.4844,712.9063 1523.375,713.7344 Q1524.2656,714.5469 1525.8594,714.5469 Q1526.7969,714.5469 1527.4531,714.2969 Q1527.8438,714.1406 1528.2656,713.7031 Q1528.5313,713.4375 1528.6719,713.3594 Q1528.8281,713.2813 1529.0313,713.2813 Q1529.3594,713.2813 1529.6094,713.5469 Q1529.875,713.7969 1529.875,714.1406 Q1529.875,714.4844 1529.5313,714.8906 Q1529.0313,715.4688 1528.2344,715.7969 Q1527.1563,716.25 1525.8594,716.25 Q1524.3438,716.25 1523.1406,715.625 Q1522.1563,715.125 1521.4688,714.0625 Q1520.7813,712.9844 1520.7813,711.7031 L1520.7813,710.5469 Q1520.7813,709.2188 1521.3906,708.0781 Q1522.0156,706.9219 1523.1094,706.3125 Q1524.2031,705.6875 1525.4375,705.6875 Q1526.1719,705.6875 1526.8125,705.8594 Q1527.4688,706.0156 1528.0156,706.375 Z " fill="#000000"/><text fill="#000000" font-family="sans-serif" font-size="14" lengthAdjust="spacing" textLength="101" x="1545.75" y="716.2285">EntryRepository</text><line style="stroke:#181818;stroke-width:0.5;" x1="1275.5" x2="1884.5" y1="726.5" y2="726.5"/><rect fill="none" height="6" style="stroke:#C82930;stroke-width:1.0;" width="6" x="1282.5" y="737.8047"/><text fill="#000000" font-family="sans-serif" font-size="14" lengthAdjust="spacing" textLength="231" x="1294.5" y="745.0332">agendaEntryList: List&lt;AgendaEntry&gt;</text><line style="stroke:#181818;stroke-width:0.5;" x1="1275.5" x2="1884.5" y1="752.1094" y2="752.1094"/><ellipse cx="1285.5" cy="766.4141" fill="#84BE84" rx="3" ry="3" style="stroke:#038048;stroke-width:1.0;"/><text fill="#000000" font-family="sans-serif" font-size="14" lengthAdjust="spacing" textLength="111" x="1294.5" y="770.6426">EntryRepository()</text><ellipse cx="1285.5" cy="784.0234" fill="#84BE84" rx="3" ry="3" style="stroke:#038048;stroke-width:1.0;"/><text fill="#000000" font-family="sans-serif" font-size="14" lengthAdjust="spacing" textLength="273" x="1294.5" y="788.252">getAgendaEntriesList(): List&lt;AgendaEntry&gt;</text><ellipse cx="1285.5" cy="801.6328" fill="#84BE84" rx="3" ry="3" style="stroke:#038048;stroke-width:1.0;"/><text fill="#000000" font-family="sans-serif" font-size="14" lengthAdjust="spacing" textLength="585" x="1294.5" y="805.8613">recordAgendaEntryCompletion(agendaEntry: AgendaEntry, status: ProgressStatus): boolean</text></g><!--class TeamRepository--><g id="elem_TeamRepository"><rect codeLine="39" fill="#F1F1F1" height="100.8281" id="TeamRepository" rx="2.5" ry="2.5" style="stroke:#181818;stroke-width:0.5;" width="592" x="1921" y="703"/><ellipse cx="2160.75" cy="719" fill="#ADD1B2" rx="11" ry="11" style="stroke:#181818;stroke-width:1.0;"/><path d="M2163.5156,714.875 Q2163.6719,714.6563 2163.8594,714.5469 Q2164.0469,714.4375 2164.2656,714.4375 Q2164.6406,714.4375 2164.875,714.7031 Q2165.1094,714.9531 2165.1094,715.5625 L2165.1094,717.0156 Q2165.1094,717.625 2164.875,717.8906 Q2164.6406,718.1563 2164.2656,718.1563 Q2163.9219,718.1563 2163.7188,717.9531 Q2163.5156,717.7656 2163.4063,717.25 Q2163.3594,716.8906 2163.1719,716.7031 Q2162.8438,716.3281 2162.2344,716.1094 Q2161.625,715.8906 2161,715.8906 Q2160.2344,715.8906 2159.5938,716.2188 Q2158.9688,716.5469 2158.4688,717.2969 Q2157.9844,718.0469 2157.9844,719.0781 L2157.9844,720.1719 Q2157.9844,721.4063 2158.875,722.2344 Q2159.7656,723.0469 2161.3594,723.0469 Q2162.2969,723.0469 2162.9531,722.7969 Q2163.3438,722.6406 2163.7656,722.2031 Q2164.0313,721.9375 2164.1719,721.8594 Q2164.3281,721.7813 2164.5313,721.7813 Q2164.8594,721.7813 2165.1094,722.0469 Q2165.375,722.2969 2165.375,722.6406 Q2165.375,722.9844 2165.0313,723.3906 Q2164.5313,723.9688 2163.7344,724.2969 Q2162.6563,724.75 2161.3594,724.75 Q2159.8438,724.75 2158.6406,724.125 Q2157.6563,723.625 2156.9688,722.5625 Q2156.2813,721.4844 2156.2813,720.2031 L2156.2813,719.0469 Q2156.2813,717.7188 2156.8906,716.5781 Q2157.5156,715.4219 2158.6094,714.8125 Q2159.7031,714.1875 2160.9375,714.1875 Q2161.6719,714.1875 2162.3125,714.3594 Q2162.9688,714.5156 2163.5156,714.875 Z " fill="#000000"/><text fill="#000000" font-family="sans-serif" font-size="14" lengthAdjust="spacing" textLength="104" x="2181.25" y="724.7285">TeamRepository</text><line style="stroke:#181818;stroke-width:0.5;" x1="1922" x2="2512" y1="735" y2="735"/><rect fill="none" height="6" style="stroke:#C82930;stroke-width:1.0;" width="6" x="1929" y="746.3047"/><text fill="#000000" font-family="sans-serif" font-size="14" lengthAdjust="spacing" textLength="231" x="1941" y="753.5332">agendaEntryList: List&lt;AgendaEntry&gt;</text><line style="stroke:#181818;stroke-width:0.5;" x1="1922" x2="2512" y1="760.6094" y2="760.6094"/><ellipse cx="1932" cy="774.9141" fill="#84BE84" rx="3" ry="3" style="stroke:#038048;stroke-width:1.0;"/><text fill="#000000" font-family="sans-serif" font-size="14" lengthAdjust="spacing" textLength="114" x="1941" y="779.1426">TeamRepository()</text><ellipse cx="1932" cy="792.5234" fill="#84BE84" rx="3" ry="3" style="stroke:#038048;stroke-width:1.0;"/><text fill="#000000" font-family="sans-serif" font-size="14" lengthAdjust="spacing" textLength="566" x="1941" y="796.752">getAgendaEntriesAssignedToCollaborator(collaborator: UserSession): List&lt;AgendaEntry&gt;</text></g><!--class AgendaEntryMapper--><g id="elem_AgendaEntryMapper"><rect codeLine="47" fill="#F1F1F1" height="83.2188" id="AgendaEntryMapper" rx="2.5" ry="2.5" style="stroke:#181818;stroke-width:0.5;" width="401" x="623.5" y="712"/><ellipse cx="754.75" cy="728" fill="#ADD1B2" rx="11" ry="11" style="stroke:#181818;stroke-width:1.0;"/><path d="M757.5156,723.875 Q757.6719,723.6563 757.8594,723.5469 Q758.0469,723.4375 758.2656,723.4375 Q758.6406,723.4375 758.875,723.7031 Q759.1094,723.9531 759.1094,724.5625 L759.1094,726.0156 Q759.1094,726.625 758.875,726.8906 Q758.6406,727.1563 758.2656,727.1563 Q757.9219,727.1563 757.7188,726.9531 Q757.5156,726.7656 757.4063,726.25 Q757.3594,725.8906 757.1719,725.7031 Q756.8438,725.3281 756.2344,725.1094 Q755.625,724.8906 755,724.8906 Q754.2344,724.8906 753.5938,725.2188 Q752.9688,725.5469 752.4688,726.2969 Q751.9844,727.0469 751.9844,728.0781 L751.9844,729.1719 Q751.9844,730.4063 752.875,731.2344 Q753.7656,732.0469 755.3594,732.0469 Q756.2969,732.0469 756.9531,731.7969 Q757.3438,731.6406 757.7656,731.2031 Q758.0313,730.9375 758.1719,730.8594 Q758.3281,730.7813 758.5313,730.7813 Q758.8594,730.7813 759.1094,731.0469 Q759.375,731.2969 759.375,731.6406 Q759.375,731.9844 759.0313,732.3906 Q758.5313,732.9688 757.7344,733.2969 Q756.6563,733.75 755.3594,733.75 Q753.8438,733.75 752.6406,733.125 Q751.6563,732.625 750.9688,731.5625 Q750.2813,730.4844 750.2813,729.2031 L750.2813,728.0469 Q750.2813,726.7188 750.8906,725.5781 Q751.5156,724.4219 752.6094,723.8125 Q753.7031,723.1875 754.9375,723.1875 Q755.6719,723.1875 756.3125,723.3594 Q756.9688,723.5156 757.5156,723.875 Z " fill="#000000"/><text fill="#000000" font-family="sans-serif" font-size="14" lengthAdjust="spacing" textLength="130" x="775.25" y="733.7285">AgendaEntryMapper</text><line style="stroke:#181818;stroke-width:0.5;" x1="624.5" x2="1023.5" y1="744" y2="744"/><line style="stroke:#181818;stroke-width:0.5;" x1="624.5" x2="1023.5" y1="752" y2="752"/><ellipse cx="634.5" cy="766.3047" fill="#84BE84" rx="3" ry="3" style="stroke:#038048;stroke-width:1.0;"/><text fill="#000000" font-family="sans-serif" font-size="14" lengthAdjust="spacing" textLength="327" x="643.5" y="770.5332">toDto(agendaEntry: AgendaEntry): AgendaEntryDto</text><ellipse cx="634.5" cy="783.9141" fill="#84BE84" rx="3" ry="3" style="stroke:#038048;stroke-width:1.0;"/><text fill="#000000" font-family="sans-serif" font-size="14" lengthAdjust="spacing" textLength="375" x="643.5" y="788.1426">toDomain(agendaEntryDto: AgendaEntryDto): AgendaEntry</text></g><!--class AgendaEntryDto--><g id="elem_AgendaEntryDto"><rect codeLine="52" fill="#F1F1F1" height="312.1406" id="AgendaEntryDto" rx="2.5" ry="2.5" style="stroke:#181818;stroke-width:0.5;" width="1172" x="46" y="875.5"/><ellipse cx="575.75" cy="891.5" fill="#ADD1B2" rx="11" ry="11" style="stroke:#181818;stroke-width:1.0;"/><path d="M578.5156,887.375 Q578.6719,887.1563 578.8594,887.0469 Q579.0469,886.9375 579.2656,886.9375 Q579.6406,886.9375 579.875,887.2031 Q580.1094,887.4531 580.1094,888.0625 L580.1094,889.5156 Q580.1094,890.125 579.875,890.3906 Q579.6406,890.6563 579.2656,890.6563 Q578.9219,890.6563 578.7188,890.4531 Q578.5156,890.2656 578.4063,889.75 Q578.3594,889.3906 578.1719,889.2031 Q577.8438,888.8281 577.2344,888.6094 Q576.625,888.3906 576,888.3906 Q575.2344,888.3906 574.5938,888.7188 Q573.9688,889.0469 573.4688,889.7969 Q572.9844,890.5469 572.9844,891.5781 L572.9844,892.6719 Q572.9844,893.9063 573.875,894.7344 Q574.7656,895.5469 576.3594,895.5469 Q577.2969,895.5469 577.9531,895.2969 Q578.3438,895.1406 578.7656,894.7031 Q579.0313,894.4375 579.1719,894.3594 Q579.3281,894.2813 579.5313,894.2813 Q579.8594,894.2813 580.1094,894.5469 Q580.375,894.7969 580.375,895.1406 Q580.375,895.4844 580.0313,895.8906 Q579.5313,896.4688 578.7344,896.7969 Q577.6563,897.25 576.3594,897.25 Q574.8438,897.25 573.6406,896.625 Q572.6563,896.125 571.9688,895.0625 Q571.2813,893.9844 571.2813,892.7031 L571.2813,891.5469 Q571.2813,890.2188 571.8906,889.0781 Q572.5156,887.9219 573.6094,887.3125 Q574.7031,886.6875 575.9375,886.6875 Q576.6719,886.6875 577.3125,886.8594 Q577.9688,887.0156 578.5156,887.375 Z " fill="#000000"/><text fill="#000000" font-family="sans-serif" font-size="14" lengthAdjust="spacing" textLength="104" x="596.25" y="897.2285">AgendaEntryDto</text><line style="stroke:#181818;stroke-width:0.5;" x1="47" x2="1217" y1="907.5" y2="907.5"/><rect fill="none" height="6" style="stroke:#C82930;stroke-width:1.0;" width="6" x="54" y="918.8047"/><text fill="#000000" font-family="sans-serif" font-size="14" lengthAdjust="spacing" textLength="67" x="66" y="926.0332">title: String</text><rect fill="none" height="6" style="stroke:#C82930;stroke-width:1.0;" width="6" x="54" y="936.4141"/><text fill="#000000" font-family="sans-serif" font-size="14" lengthAdjust="spacing" textLength="114" x="66" y="943.6426">description: String</text><rect fill="none" height="6" style="stroke:#C82930;stroke-width:1.0;" width="6" x="54" y="954.0234"/><text fill="#000000" font-family="sans-serif" font-size="14" lengthAdjust="spacing" textLength="75" x="66" y="961.252">duration: int</text><rect fill="none" height="6" style="stroke:#C82930;stroke-width:1.0;" width="6" x="54" y="971.6328"/><text fill="#000000" font-family="sans-serif" font-size="14" lengthAdjust="spacing" textLength="191" x="66" y="978.8613">urgencyStatus: UrgencyStatus</text><rect fill="none" height="6" style="stroke:#C82930;stroke-width:1.0;" width="6" x="54" y="989.2422"/><text fill="#000000" font-family="sans-serif" font-size="14" lengthAdjust="spacing" textLength="187" x="66" y="996.4707">greenSpace: GreenSpaceDto</text><rect fill="none" height="6" style="stroke:#C82930;stroke-width:1.0;" width="6" x="54" y="1006.8516"/><text fill="#000000" font-family="sans-serif" font-size="14" lengthAdjust="spacing" textLength="149" x="66" y="1014.0801">startingDate: LocalDate</text><rect fill="none" height="6" style="stroke:#C82930;stroke-width:1.0;" width="6" x="54" y="1024.4609"/><text fill="#000000" font-family="sans-serif" font-size="14" lengthAdjust="spacing" textLength="201" x="66" y="1031.6895">progressStatus: ProgressStatus</text><line style="stroke:#181818;stroke-width:0.5;" x1="47" x2="1217" y1="1038.7656" y2="1038.7656"/><ellipse cx="57" cy="1053.0703" fill="#84BE84" rx="3" ry="3" style="stroke:#038048;stroke-width:1.0;"/><text fill="#000000" font-family="sans-serif" font-size="14" lengthAdjust="spacing" textLength="1146" x="66" y="1057.2988">AgendaEntryDto(title: String, description: String, duration: int, urgencyStatus: UrgencyStatus, greenSpace: GreenSpaceDto, startingDate: LocalDate, progressStatus: ProgressStatus)</text><ellipse cx="57" cy="1070.6797" fill="#84BE84" rx="3" ry="3" style="stroke:#038048;stroke-width:1.0;"/><text fill="#000000" font-family="sans-serif" font-size="14" lengthAdjust="spacing" textLength="102" x="66" y="1074.9082">getTitle(): String</text><ellipse cx="57" cy="1088.2891" fill="#84BE84" rx="3" ry="3" style="stroke:#038048;stroke-width:1.0;"/><text fill="#000000" font-family="sans-serif" font-size="14" lengthAdjust="spacing" textLength="146" x="66" y="1092.5176">getDescription(): String</text><ellipse cx="57" cy="1105.8984" fill="#84BE84" rx="3" ry="3" style="stroke:#038048;stroke-width:1.0;"/><text fill="#000000" font-family="sans-serif" font-size="14" lengthAdjust="spacing" textLength="107" x="66" y="1110.127">getDuration(): int</text><ellipse cx="57" cy="1123.5078" fill="#84BE84" rx="3" ry="3" style="stroke:#038048;stroke-width:1.0;"/><text fill="#000000" font-family="sans-serif" font-size="14" lengthAdjust="spacing" textLength="222" x="66" y="1127.7363">getUrgencyStatus(): UrgencyStatus</text><ellipse cx="57" cy="1141.1172" fill="#84BE84" rx="3" ry="3" style="stroke:#038048;stroke-width:1.0;"/><text fill="#000000" font-family="sans-serif" font-size="14" lengthAdjust="spacing" textLength="220" x="66" y="1145.3457">getGreenSpace(): GreenSpaceDto</text><ellipse cx="57" cy="1158.7266" fill="#84BE84" rx="3" ry="3" style="stroke:#038048;stroke-width:1.0;"/><text fill="#000000" font-family="sans-serif" font-size="14" lengthAdjust="spacing" textLength="181" x="66" y="1162.9551">getStartingDate(): LocalDate</text><ellipse cx="57" cy="1176.3359" fill="#84BE84" rx="3" ry="3" style="stroke:#038048;stroke-width:1.0;"/><text fill="#000000" font-family="sans-serif" font-size="14" lengthAdjust="spacing" textLength="232" x="66" y="1180.5645">getProgressStatus(): ProgressStatus</text></g><!--class AgendaEntry--><g id="elem_AgendaEntry"><rect codeLine="72" fill="#F1F1F1" height="206.4844" id="AgendaEntry" rx="2.5" ry="2.5" style="stroke:#181818;stroke-width:0.5;" width="1128" x="1274" y="928.5"/><ellipse cx="1792.75" cy="944.5" fill="#ADD1B2" rx="11" ry="11" style="stroke:#181818;stroke-width:1.0;"/><path d="M1795.5156,940.375 Q1795.6719,940.1563 1795.8594,940.0469 Q1796.0469,939.9375 1796.2656,939.9375 Q1796.6406,939.9375 1796.875,940.2031 Q1797.1094,940.4531 1797.1094,941.0625 L1797.1094,942.5156 Q1797.1094,943.125 1796.875,943.3906 Q1796.6406,943.6563 1796.2656,943.6563 Q1795.9219,943.6563 1795.7188,943.4531 Q1795.5156,943.2656 1795.4063,942.75 Q1795.3594,942.3906 1795.1719,942.2031 Q1794.8438,941.8281 1794.2344,941.6094 Q1793.625,941.3906 1793,941.3906 Q1792.2344,941.3906 1791.5938,941.7188 Q1790.9688,942.0469 1790.4688,942.7969 Q1789.9844,943.5469 1789.9844,944.5781 L1789.9844,945.6719 Q1789.9844,946.9063 1790.875,947.7344 Q1791.7656,948.5469 1793.3594,948.5469 Q1794.2969,948.5469 1794.9531,948.2969 Q1795.3438,948.1406 1795.7656,947.7031 Q1796.0313,947.4375 1796.1719,947.3594 Q1796.3281,947.2813 1796.5313,947.2813 Q1796.8594,947.2813 1797.1094,947.5469 Q1797.375,947.7969 1797.375,948.1406 Q1797.375,948.4844 1797.0313,948.8906 Q1796.5313,949.4688 1795.7344,949.7969 Q1794.6563,950.25 1793.3594,950.25 Q1791.8438,950.25 1790.6406,949.625 Q1789.6563,949.125 1788.9688,948.0625 Q1788.2813,946.9844 1788.2813,945.7031 L1788.2813,944.5469 Q1788.2813,943.2188 1788.8906,942.0781 Q1789.5156,940.9219 1790.6094,940.3125 Q1791.7031,939.6875 1792.9375,939.6875 Q1793.6719,939.6875 1794.3125,939.8594 Q1794.9688,940.0156 1795.5156,940.375 Z " fill="#000000"/><text fill="#000000" font-family="sans-serif" font-size="14" lengthAdjust="spacing" textLength="82" x="1813.25" y="950.2285">AgendaEntry</text><line style="stroke:#181818;stroke-width:0.5;" x1="1275" x2="2401" y1="960.5" y2="960.5"/><rect fill="none" height="6" style="stroke:#C82930;stroke-width:1.0;" width="6" x="1282" y="971.8047"/><text fill="#000000" font-family="sans-serif" font-size="14" lengthAdjust="spacing" textLength="67" x="1294" y="979.0332">title: String</text><rect fill="none" height="6" style="stroke:#C82930;stroke-width:1.0;" width="6" x="1282" y="989.4141"/><text fill="#000000" font-family="sans-serif" font-size="14" lengthAdjust="spacing" textLength="114" x="1294" y="996.6426">description: String</text><rect fill="none" height="6" style="stroke:#C82930;stroke-width:1.0;" width="6" x="1282" y="1007.0234"/><text fill="#000000" font-family="sans-serif" font-size="14" lengthAdjust="spacing" textLength="75" x="1294" y="1014.252">duration: int</text><rect fill="none" height="6" style="stroke:#C82930;stroke-width:1.0;" width="6" x="1282" y="1024.6328"/><text fill="#000000" font-family="sans-serif" font-size="14" lengthAdjust="spacing" textLength="191" x="1294" y="1031.8613">urgencyStatus: UrgencyStatus</text><rect fill="none" height="6" style="stroke:#C82930;stroke-width:1.0;" width="6" x="1282" y="1042.2422"/><text fill="#000000" font-family="sans-serif" font-size="14" lengthAdjust="spacing" textLength="165" x="1294" y="1049.4707">greenSpace: GreenSpace</text><rect fill="none" height="6" style="stroke:#C82930;stroke-width:1.0;" width="6" x="1282" y="1059.8516"/><text fill="#000000" font-family="sans-serif" font-size="14" lengthAdjust="spacing" textLength="149" x="1294" y="1067.0801">startingDate: LocalDate</text><rect fill="none" height="6" style="stroke:#C82930;stroke-width:1.0;" width="6" x="1282" y="1077.4609"/><text fill="#000000" font-family="sans-serif" font-size="14" lengthAdjust="spacing" textLength="201" x="1294" y="1084.6895">progressStatus: ProgressStatus</text><line style="stroke:#181818;stroke-width:0.5;" x1="1275" x2="2401" y1="1091.7656" y2="1091.7656"/><ellipse cx="1285" cy="1106.0703" fill="#84BE84" rx="3" ry="3" style="stroke:#038048;stroke-width:1.0;"/><text fill="#000000" font-family="sans-serif" font-size="14" lengthAdjust="spacing" textLength="1102" x="1294" y="1110.2988">AgendaEntry(title: String, description: String, duration: int, urgencyStatus: UrgencyStatus, greenSpace: GreenSpace, startingDate: LocalDate, progressStatus: ProgressStatus)</text><ellipse cx="1285" cy="1123.6797" fill="#84BE84" rx="3" ry="3" style="stroke:#038048;stroke-width:1.0;"/><text fill="#000000" font-family="sans-serif" font-size="14" lengthAdjust="spacing" textLength="246" x="1294" y="1127.9082">setStatus(status: ProgressStatus): void</text></g><!--link RecordEntryUI to RecordEntryController--><g id="link_RecordEntryUI_RecordEntryController"><path codeLine="86" d="M1959,90.3 C1959,110.51 1959,140.98 1959,169.97 " fill="none" id="RecordEntryUI-to-RecordEntryController" style="stroke:#181818;stroke-width:1.0;stroke-dasharray:7.0,7.0;"/><polygon fill="#181818" points="1959,174.99,1963,165.99,1959,169.99,1955,165.99,1959,174.99" style="stroke:#181818;stroke-width:1.0;"/></g><!--link RecordEntryController to Repositories--><g id="link_RecordEntryController_Repositories"><path codeLine="87" d="M1888.59,329.06 C1853.13,367.36 1809.94,414.02 1773,453.93 " fill="none" id="RecordEntryController-to-Repositories" style="stroke:#181818;stroke-width:1.0;stroke-dasharray:7.0,7.0;"/><polygon fill="#181818" points="1769.44,457.77,1778.49,453.8845,1772.8373,454.1015,1772.6204,448.4488,1769.44,457.77" style="stroke:#181818;stroke-width:1.0;"/></g><!--link Repositories to Repositories--><g id="link_Repositories_Repositories"><path codeLine="88" d="M1827.16,523.67 C1847.91,526.69 1862,533.3 1862,543.5 C1862,552.82 1850.23,559.14 1832.36,562.47 " fill="none" id="Repositories-to-Repositories" style="stroke:#181818;stroke-width:1.0;"/><polygon fill="#181818" points="1827.16,563.33,1836.6917,565.8094,1832.0931,562.515,1835.3876,557.9164,1827.16,563.33" style="stroke:#181818;stroke-width:1.0;"/><text fill="#000000" font-family="sans-serif" font-size="13" lengthAdjust="spacing" textLength="49" x="1868" y="548.9951">instance</text></g><!--link RecordEntryController to EntryRepository--><g id="link_RecordEntryController_EntryRepository"><path codeLine="89" d="M1974,329.35 C1985.66,412.02 1990.28,543.51 1924,629 C1903.8,655.06 1877.62,675.63 1848.72,691.87 " fill="none" id="RecordEntryController-to-EntryRepository" style="stroke:#181818;stroke-width:1.0;stroke-dasharray:7.0,7.0;"/><polygon fill="#181818" points="1844.06,694.44,1853.8721,693.5904,1848.4368,692.0227,1850.0045,686.5874,1844.06,694.44" style="stroke:#181818;stroke-width:1.0;"/></g><!--link RecordEntryController to TeamRepository--><g id="link_RecordEntryController_TeamRepository"><path codeLine="90" d="M1998.32,329.13 C2050.92,430.96 2142.87,608.98 2188.97,698.23 " fill="none" id="RecordEntryController-to-TeamRepository" style="stroke:#181818;stroke-width:1.0;stroke-dasharray:7.0,7.0;"/><polygon fill="#181818" points="2191.4,702.94,2190.8146,693.1086,2189.1013,698.4997,2183.7102,696.7864,2191.4,702.94" style="stroke:#181818;stroke-width:1.0;"/></g><!--link Repositories to EntryRepository--><g id="link_Repositories_EntryRepository"><path codeLine="91" d="M1645.85,629.1 C1635.06,649.32 1623.73,670.55 1613.57,689.6 " fill="none" id="Repositories-to-EntryRepository" style="stroke:#181818;stroke-width:1.0;"/><polygon fill="#181818" points="1611.01,694.39,1618.7778,688.3351,1613.3652,689.9794,1611.7208,684.5668,1611.01,694.39" style="stroke:#181818;stroke-width:1.0;"/></g><!--link Repositories to TeamRepository--><g id="link_Repositories_TeamRepository"><path codeLine="92" d="M1827.14,598.34 C1907.28,630.02 2008.07,669.88 2087.1,701.13 " fill="none" id="Repositories-to-TeamRepository" style="stroke:#181818;stroke-width:1.0;"/><polygon fill="#181818" points="2091.79,702.99,2084.8932,695.9591,2087.1408,701.1503,2081.9496,703.3979,2091.79,702.99" style="stroke:#181818;stroke-width:1.0;"/></g><!--link EntryRepository to AgendaEntry--><g id="link_EntryRepository_AgendaEntry"><path codeLine="93" d="M1634.4,812.7 C1664.76,845.18 1703.53,886.64 1739.07,924.66 " fill="none" id="EntryRepository-to-AgendaEntry" style="stroke:#181818;stroke-width:1.0;"/><polygon fill="#181818" points="1742.49,928.33,1739.2721,919.0217,1739.0779,924.6752,1733.4244,924.481,1742.49,928.33" style="stroke:#181818;stroke-width:1.0;"/><text fill="#000000" font-family="sans-serif" font-size="13" lengthAdjust="spacing" textLength="5" x="1730.2924" y="917.6562">*</text></g><!--link AgendaEntryMapper to AgendaEntryDto--><g id="link_AgendaEntryMapper_AgendaEntryDto"><path codeLine="94" d="M795.67,795.22 C781.15,816.09 762.44,842.99 742.88,871.11 " fill="none" id="AgendaEntryMapper-to-AgendaEntryDto" style="stroke:#181818;stroke-width:1.0;stroke-dasharray:7.0,7.0;"/><polygon fill="#181818" points="739.99,875.27,748.4054,870.1532,742.839,871.1611,741.8311,865.5948,739.99,875.27" style="stroke:#181818;stroke-width:1.0;"/></g><!--link AgendaEntryMapper to AgendaEntry--><g id="link_AgendaEntryMapper_AgendaEntry"><path codeLine="95" d="M972.8,795 C1100.18,829.67 1289.21,881.13 1458.13,927.1 " fill="none" id="AgendaEntryMapper-to-AgendaEntry" style="stroke:#181818;stroke-width:1.0;stroke-dasharray:7.0,7.0;"/><polygon fill="#181818" points="1463.12,928.46,1455.4865,922.2367,1458.2955,927.1468,1453.3854,929.9559,1463.12,928.46" style="stroke:#181818;stroke-width:1.0;"/></g><!--SRC=[rLPDYzim4BtxLuYzDEaw-mDC2In9A85alSJEeKUjhNZ5EfAHb9PGzhzNKhosFYo7qB9G7q9alHdFl7aZ3N_3f84C7W5_XINzXKa53h3cAEBTJeq90kBS8D3G-gnMqPSQ7GGG531SlGfGOeOAWIc96bYymGg1_HhyZe1yYXfo3dQeeAnS4S7EtSvxz1vr-4NwbE_IpMQr2zajgFobTOrOYr3F333KK8u5PHZnHEBxbG52oa6tTqx0odvXG0M2HnEPM-iEU3ySscHg82ea7Yj4IgX1wM4X8V25CYWzRJ0Nay9uaO0zHon3d4iQfmbGW6-6-LBGkU6RcLy_DZLIx4zGYqo0RIdzlL1Q8qXyvfVfzd7zr7BwyNAtUawpTPxkVXXaVvIafzZOlB272HUG52XGYHkhSLD5Bc3piqOnkeAism0dqv4GDT89IXcCnQbjxD2KII1OoR_DgkFQ8nRszLJAyFKnTwBnmlUZxQqb0LgGq-j-By8p08RyZ20j1SP0aYvEiZ-V6QsOr7Ycruui1ucn2VnxNjmINQ7bKVPZHL2PKxDxR-hSkP6SaMBNVtdgzPXXlOLDOnrvbpW5bMqT97pg7W2-DJr2R5Li-DWmNeHhP5jvDH9OrF94o2IXf7BsIiGBXXibdn3Y95dMsvW8P-_4v9UBSzQgQsyk7QYK7IAP95r6yhtxxr8pKqfbGaQnX48YDxI0jVhhe1fBnwwk7RPjUYOM7V4G0x6TT3oQPnnEBGvb4rz9OA0hSXMrEY06YgG1opwFKLYRcSAu1TK0Apc52bTLu_kC5JXSMWtE33xqQJTONmsr6L7WG947ktgRBbURiRx-dxhaKrlai_hZdpK7rx9I6WdUSZyfBZszICNOO_73mtnugeo6n-0BtfXXhD5iDhDtasuu6t7dJZXXf3FOU9_sFJa0nu4x02d8tTSxwmBohqKLYNFJNGL5Vm00]--></g></svg>