<?xml version="1.0" encoding="UTF-8" standalone="no"?><svg xmlns="http://www.w3.org/2000/svg" xmlns:xlink="http://www.w3.org/1999/xlink" contentStyleType="text/css" height="326px" preserveAspectRatio="none" style="width:694px;height:326px;background:#FFFFFF;" version="1.1" viewBox="0 0 694 326" width="694px" zoomAndPan="magnify"><defs/><g><rect fill="#FFFFFF" height="55.7031" style="stroke:#181818;stroke-width:1.0;" width="10" x="257" y="87.5703"/><rect fill="#FFFFFF" height="37.3516" style="stroke:#181818;stroke-width:1.0;" width="10" x="257" y="216.9766"/><rect fill="#FFFFFF" height="73.7031" style="stroke:#181818;stroke-width:1.0;" width="10" x="524" y="143.2734"/><rect fill="none" height="122.4063" style="stroke:#000000;stroke-width:1.5;" width="497" x="191" y="102.5703"/><line style="stroke:#181818;stroke-width:0.5;stroke-dasharray:5.0,5.0;" x1="262" x2="262" y1="55.2188" y2="272.3281"/><line style="stroke:#181818;stroke-width:0.5;stroke-dasharray:5.0,5.0;" x1="528.5" x2="528.5" y1="55.2188" y2="272.3281"/><rect fill="#E3E3E3" height="49.2188" rx="2.5" ry="2.5" style="stroke:#181818;stroke-width:0.5;" width="122" x="201" y="5"/><text fill="#000000" font-family="sans-serif" font-size="14" lengthAdjust="spacing" textLength="108" x="208" y="26.5332">TeamRepository:</text><text fill="#000000" font-family="sans-serif" font-size="14" lengthAdjust="spacing" textLength="104" x="210" y="44.1426">TeamRepository</text><rect fill="#E3E3E3" height="49.2188" rx="2.5" ry="2.5" style="stroke:#181818;stroke-width:0.5;" width="122" x="201" y="271.3281"/><text fill="#000000" font-family="sans-serif" font-size="14" lengthAdjust="spacing" textLength="108" x="208" y="292.8613">TeamRepository:</text><text fill="#000000" font-family="sans-serif" font-size="14" lengthAdjust="spacing" textLength="104" x="210" y="310.4707">TeamRepository</text><rect fill="#E3E3E3" height="49.2188" rx="2.5" ry="2.5" style="stroke:#181818;stroke-width:0.5;" width="51" x="503.5" y="5"/><text fill="#000000" font-family="sans-serif" font-size="14" lengthAdjust="spacing" textLength="32" x="513" y="26.5332">entry</text><text fill="#000000" font-family="sans-serif" font-size="14" lengthAdjust="spacing" textLength="37" x="510.5" y="44.1426">:Entry</text><rect fill="#E3E3E3" height="49.2188" rx="2.5" ry="2.5" style="stroke:#181818;stroke-width:0.5;" width="51" x="503.5" y="271.3281"/><text fill="#000000" font-family="sans-serif" font-size="14" lengthAdjust="spacing" textLength="32" x="513" y="292.8613">entry</text><text fill="#000000" font-family="sans-serif" font-size="14" lengthAdjust="spacing" textLength="37" x="510.5" y="310.4707">:Entry</text><rect fill="#FFFFFF" height="55.7031" style="stroke:#181818;stroke-width:1.0;" width="10" x="257" y="87.5703"/><rect fill="#FFFFFF" height="37.3516" style="stroke:#181818;stroke-width:1.0;" width="10" x="257" y="216.9766"/><rect fill="#FFFFFF" height="73.7031" style="stroke:#181818;stroke-width:1.0;" width="10" x="524" y="143.2734"/><polygon fill="#181818" points="245,83.5703,255,87.5703,245,91.5703,249,87.5703" style="stroke:#181818;stroke-width:1.0;"/><line style="stroke:#181818;stroke-width:1.0;" x1="0" x2="251" y1="87.5703" y2="87.5703"/><text fill="#000000" font-family="sans-serif" font-size="13" font-weight="bold" lengthAdjust="spacing" textLength="14" x="7" y="82.7139">13</text><text fill="#000000" font-family="sans-serif" font-size="13" lengthAdjust="spacing" textLength="220" x="25" y="82.7139">recordEntryCompletion(selectedEntry)</text><path d="M191,102.5703 L394,102.5703 L394,110.9219 L384,120.9219 L191,120.9219 L191,102.5703 " fill="#EEEEEE" style="stroke:#000000;stroke-width:1.5;"/><rect fill="none" height="122.4063" style="stroke:#000000;stroke-width:1.5;" width="497" x="191" y="102.5703"/><text fill="#000000" font-family="sans-serif" font-size="13" font-weight="bold" lengthAdjust="spacing" textLength="158" x="206" y="117.0654">Record Entry Completion</text><polygon fill="#181818" points="512,139.2734,522,143.2734,512,147.2734,516,143.2734" style="stroke:#181818;stroke-width:1.0;"/><line style="stroke:#181818;stroke-width:1.0;" x1="262" x2="518" y1="143.2734" y2="143.2734"/><text fill="#000000" font-family="sans-serif" font-size="13" font-weight="bold" lengthAdjust="spacing" textLength="14" x="269" y="138.417">14</text><text fill="#000000" font-family="sans-serif" font-size="13" lengthAdjust="spacing" textLength="220" x="287" y="138.417">recordEntryCompletion(selectedEntry)</text><line style="stroke:#181818;stroke-width:1.0;" x1="534" x2="576" y1="173.625" y2="173.625"/><line style="stroke:#181818;stroke-width:1.0;" x1="576" x2="576" y1="173.625" y2="186.625"/><line style="stroke:#181818;stroke-width:1.0;" x1="535" x2="576" y1="186.625" y2="186.625"/><polygon fill="#181818" points="545,182.625,535,186.625,545,190.625,541,186.625" style="stroke:#181818;stroke-width:1.0;"/><text fill="#000000" font-family="sans-serif" font-size="13" font-weight="bold" lengthAdjust="spacing" textLength="14" x="541" y="168.7686">15</text><text fill="#000000" font-family="sans-serif" font-size="13" lengthAdjust="spacing" textLength="117" x="559" y="168.7686">setStatus(complete)</text><polygon fill="#181818" points="278,212.9766,268,216.9766,278,220.9766,274,216.9766" style="stroke:#181818;stroke-width:1.0;"/><line style="stroke:#181818;stroke-width:1.0;stroke-dasharray:2.0,2.0;" x1="272" x2="528" y1="216.9766" y2="216.9766"/><text fill="#000000" font-family="sans-serif" font-size="13" font-weight="bold" lengthAdjust="spacing" textLength="14" x="284" y="212.1201">16</text><text fill="#000000" font-family="sans-serif" font-size="13" lengthAdjust="spacing" textLength="49" x="302" y="212.1201">success</text><polygon fill="#181818" points="11,250.3281,1,254.3281,11,258.3281,7,254.3281" style="stroke:#181818;stroke-width:1.0;"/><line style="stroke:#181818;stroke-width:1.0;stroke-dasharray:2.0,2.0;" x1="5" x2="261" y1="254.3281" y2="254.3281"/><text fill="#000000" font-family="sans-serif" font-size="13" font-weight="bold" lengthAdjust="spacing" textLength="14" x="17" y="249.4717">17</text><text fill="#000000" font-family="sans-serif" font-size="13" lengthAdjust="spacing" textLength="49" x="35" y="249.4717">success</text><!--SRC=[ZP0nRiCm34LtdOB8b0mPYcv6qQNe1PAEMLYPTOHOb21IBNpxsfQHn483L8i4ykd_Jyh5SSI47dpWOCyfU09DcOnSEn7j1Jiwwj0J9BAAtFNtW9on3J-EE_Z2NiWOCzRLMHUH5JOVXFv0COZJa8RcnEl21b1WNLh_9zOqdBXvd-wPdb_6ODR0sNzIWgTdit-jLA2PqeRKplXRyB4dTO6tGlqu1PNwpg1LzurATGW3u-bIo14EiqxnXPjIGIhNCKVX_ca_IRJqACJKlVQMkM4vnUREJqYFYffbQuiTxGgza7-jIBAr95B7A5OhztezfcWJjqkab_s-WcxoZoSqlm00]--></g></svg>