<?xml version="1.0" encoding="UTF-8" standalone="no"?><svg xmlns="http://www.w3.org/2000/svg" xmlns:xlink="http://www.w3.org/1999/xlink" contentStyleType="text/css" height="867px" preserveAspectRatio="none" style="width:1393px;height:867px;background:#FFFFFF;" version="1.1" viewBox="0 0 1393 867" width="1393px" zoomAndPan="magnify"><defs/><g><rect fill="#FFFFFF" height="683.5" style="stroke:#181818;stroke-width:1.0;" width="10" x="16.5" y="92.6094"/><rect fill="#FFFFFF" height="30.3516" style="stroke:#181818;stroke-width:1.0;" width="10" x="591.5" y="114.9609"/><rect fill="#FFFFFF" height="30.3516" style="stroke:#181818;stroke-width:1.0;" width="10" x="591.5" y="432.4063"/><rect fill="#FFFFFF" height="30.3516" style="stroke:#181818;stroke-width:1.0;" width="10" x="591.5" y="493.1094"/><rect fill="#FFFFFF" height="30.3516" style="stroke:#181818;stroke-width:1.0;" width="10" x="591.5" y="553.8125"/><rect fill="#FFFFFF" height="30.3516" style="stroke:#181818;stroke-width:1.0;" width="10" x="591.5" y="736.7578"/><rect fill="#FFFFFF" height="277.0938" style="stroke:#181818;stroke-width:1.0;" width="10" x="746" y="155.3125"/><rect fill="#FFFFFF" height="30.3516" style="stroke:#181818;stroke-width:1.0;" width="10" x="746" y="584.1641"/><rect fill="#FFFFFF" height="30.3516" style="stroke:#181818;stroke-width:1.0;" width="10" x="746" y="706.4063"/><rect fill="#FFFFFF" height="91.8906" style="stroke:#181818;stroke-width:1.0;" width="10" x="1109.5" y="614.5156"/><rect fill="#FFFFFF" height="30.3516" style="stroke:#181818;stroke-width:1.0;" width="10" x="1214" y="311"/><rect fill="#FFFFFF" height="30.3516" style="stroke:#181818;stroke-width:1.0;" width="10" x="1290.5" y="371.7031"/><line style="stroke:#181818;stroke-width:0.5;stroke-dasharray:5.0,5.0;" x1="21" x2="21" y1="82.6094" y2="785.1094"/><line style="stroke:#181818;stroke-width:0.5;stroke-dasharray:5.0,5.0;" x1="596" x2="596" y1="82.6094" y2="785.1094"/><line style="stroke:#181818;stroke-width:0.5;stroke-dasharray:5.0,5.0;" x1="750.5" x2="750.5" y1="154.2656" y2="785.1094"/><line style="stroke:#181818;stroke-width:0.5;stroke-dasharray:5.0,5.0;" x1="887.5" x2="887.5" y1="82.6094" y2="785.1094"/><line style="stroke:#181818;stroke-width:0.5;stroke-dasharray:5.0,5.0;" x1="994.5" x2="994.5" y1="82.6094" y2="785.1094"/><line style="stroke:#181818;stroke-width:0.5;stroke-dasharray:5.0,5.0;" x1="1114.5" x2="1114.5" y1="82.6094" y2="785.1094"/><line style="stroke:#181818;stroke-width:0.5;stroke-dasharray:5.0,5.0;" x1="1218.5" x2="1218.5" y1="82.6094" y2="785.1094"/><line style="stroke:#181818;stroke-width:0.5;stroke-dasharray:5.0,5.0;" x1="1295.5" x2="1295.5" y1="82.6094" y2="785.1094"/><line style="stroke:#181818;stroke-width:0.5;stroke-dasharray:5.0,5.0;" x1="1362.5" x2="1362.5" y1="82.6094" y2="785.1094"/><text fill="#000000" font-family="sans-serif" font-size="14" lengthAdjust="spacing" textLength="27" x="5" y="79.5332">CLB</text><ellipse cx="21.5" cy="13.5" fill="#E3E3E3" rx="8" ry="8" style="stroke:#181818;stroke-width:0.5;"/><path d="M21.5,21.5 L21.5,48.5 M8.5,29.5 L34.5,29.5 M21.5,48.5 L8.5,63.5 M21.5,48.5 L34.5,63.5 " fill="none" style="stroke:#181818;stroke-width:0.5;"/><text fill="#000000" font-family="sans-serif" font-size="14" lengthAdjust="spacing" textLength="27" x="5" y="798.6426">CLB</text><ellipse cx="21.5" cy="810.2188" fill="#E3E3E3" rx="8" ry="8" style="stroke:#181818;stroke-width:0.5;"/><path d="M21.5,818.2188 L21.5,845.2188 M8.5,826.2188 L34.5,826.2188 M21.5,845.2188 L8.5,860.2188 M21.5,845.2188 L34.5,860.2188 " fill="none" style="stroke:#181818;stroke-width:0.5;"/><rect fill="#E3E3E3" height="31.6094" rx="2.5" ry="2.5" style="stroke:#181818;stroke-width:0.5;" width="107" x="543" y="50"/><text fill="#000000" font-family="sans-serif" font-size="14" lengthAdjust="spacing" textLength="93" x="550" y="71.5332">:RecordTaskUI</text><rect fill="#E3E3E3" height="31.6094" rx="2.5" ry="2.5" style="stroke:#181818;stroke-width:0.5;" width="107" x="543" y="784.1094"/><text fill="#000000" font-family="sans-serif" font-size="14" lengthAdjust="spacing" textLength="93" x="550" y="805.6426">:RecordTaskUI</text><rect fill="#E3E3E3" height="31.6094" rx="2.5" ry="2.5" style="stroke:#181818;stroke-width:0.5;" width="157" x="672.5" y="784.1094"/><text fill="#000000" font-family="sans-serif" font-size="14" lengthAdjust="spacing" textLength="143" x="679.5" y="805.6426">:RecordTaskController</text><rect fill="#E3E3E3" height="31.6094" rx="2.5" ry="2.5" style="stroke:#181818;stroke-width:0.5;" width="97" x="839.5" y="50"/><text fill="#000000" font-family="sans-serif" font-size="14" lengthAdjust="spacing" textLength="83" x="846.5" y="71.5332">:Repositories</text><rect fill="#E3E3E3" height="31.6094" rx="2.5" ry="2.5" style="stroke:#181818;stroke-width:0.5;" width="97" x="839.5" y="784.1094"/><text fill="#000000" font-family="sans-serif" font-size="14" lengthAdjust="spacing" textLength="83" x="846.5" y="805.6426">:Repositories</text><rect fill="#E3E3E3" height="49.2188" rx="2.5" ry="2.5" style="stroke:#181818;stroke-width:0.5;" width="97" x="946.5" y="32.3906"/><text fill="#000000" font-family="sans-serif" font-size="14" lengthAdjust="spacing" textLength="74" x="958" y="53.9238">repositories</text><text fill="#000000" font-family="sans-serif" font-size="14" lengthAdjust="spacing" textLength="83" x="953.5" y="71.5332">:Repositories</text><rect fill="#E3E3E3" height="49.2188" rx="2.5" ry="2.5" style="stroke:#181818;stroke-width:0.5;" width="97" x="946.5" y="784.1094"/><text fill="#000000" font-family="sans-serif" font-size="14" lengthAdjust="spacing" textLength="74" x="958" y="805.6426">repositories</text><text fill="#000000" font-family="sans-serif" font-size="14" lengthAdjust="spacing" textLength="83" x="953.5" y="823.252">:Repositories</text><rect fill="#E3E3E3" height="49.2188" rx="2.5" ry="2.5" style="stroke:#181818;stroke-width:0.5;" width="122" x="1053.5" y="32.3906"/><text fill="#000000" font-family="sans-serif" font-size="14" lengthAdjust="spacing" textLength="108" x="1060.5" y="53.9238">TeamRepository:</text><text fill="#000000" font-family="sans-serif" font-size="14" lengthAdjust="spacing" textLength="104" x="1062.5" y="71.5332">TeamRepository</text><rect fill="#E3E3E3" height="49.2188" rx="2.5" ry="2.5" style="stroke:#181818;stroke-width:0.5;" width="122" x="1053.5" y="784.1094"/><text fill="#000000" font-family="sans-serif" font-size="14" lengthAdjust="spacing" textLength="108" x="1060.5" y="805.6426">TeamRepository:</text><text fill="#000000" font-family="sans-serif" font-size="14" lengthAdjust="spacing" textLength="104" x="1062.5" y="823.252">TeamRepository</text><rect fill="#E3E3E3" height="31.6094" rx="2.5" ry="2.5" style="stroke:#181818;stroke-width:0.5;" width="67" x="1185.5" y="50"/><text fill="#000000" font-family="sans-serif" font-size="14" lengthAdjust="spacing" textLength="53" x="1192.5" y="71.5332">:Agenda</text><rect fill="#E3E3E3" height="31.6094" rx="2.5" ry="2.5" style="stroke:#181818;stroke-width:0.5;" width="67" x="1185.5" y="784.1094"/><text fill="#000000" font-family="sans-serif" font-size="14" lengthAdjust="spacing" textLength="53" x="1192.5" y="805.6426">:Agenda</text><rect fill="#E3E3E3" height="31.6094" rx="2.5" ry="2.5" style="stroke:#181818;stroke-width:0.5;" width="66" x="1262.5" y="50"/><text fill="#000000" font-family="sans-serif" font-size="14" lengthAdjust="spacing" textLength="52" x="1269.5" y="71.5332">:taskList</text><rect fill="#E3E3E3" height="31.6094" rx="2.5" ry="2.5" style="stroke:#181818;stroke-width:0.5;" width="66" x="1262.5" y="784.1094"/><text fill="#000000" font-family="sans-serif" font-size="14" lengthAdjust="spacing" textLength="52" x="1269.5" y="805.6426">:taskList</text><rect fill="#E3E3E3" height="49.2188" rx="2.5" ry="2.5" style="stroke:#181818;stroke-width:0.5;" width="49" x="1338.5" y="32.3906"/><text fill="#000000" font-family="sans-serif" font-size="14" lengthAdjust="spacing" textLength="26" x="1350" y="53.9238">task</text><text fill="#000000" font-family="sans-serif" font-size="14" lengthAdjust="spacing" textLength="35" x="1345.5" y="71.5332">:Task</text><rect fill="#E3E3E3" height="49.2188" rx="2.5" ry="2.5" style="stroke:#181818;stroke-width:0.5;" width="49" x="1338.5" y="784.1094"/><text fill="#000000" font-family="sans-serif" font-size="14" lengthAdjust="spacing" textLength="26" x="1350" y="805.6426">task</text><text fill="#000000" font-family="sans-serif" font-size="14" lengthAdjust="spacing" textLength="35" x="1345.5" y="823.252">:Task</text><rect fill="#FFFFFF" height="683.5" style="stroke:#181818;stroke-width:1.0;" width="10" x="16.5" y="92.6094"/><rect fill="#FFFFFF" height="30.3516" style="stroke:#181818;stroke-width:1.0;" width="10" x="591.5" y="114.9609"/><rect fill="#FFFFFF" height="30.3516" style="stroke:#181818;stroke-width:1.0;" width="10" x="591.5" y="432.4063"/><rect fill="#FFFFFF" height="30.3516" style="stroke:#181818;stroke-width:1.0;" width="10" x="591.5" y="493.1094"/><rect fill="#FFFFFF" height="30.3516" style="stroke:#181818;stroke-width:1.0;" width="10" x="591.5" y="553.8125"/><rect fill="#FFFFFF" height="30.3516" style="stroke:#181818;stroke-width:1.0;" width="10" x="591.5" y="736.7578"/><rect fill="#FFFFFF" height="277.0938" style="stroke:#181818;stroke-width:1.0;" width="10" x="746" y="155.3125"/><rect fill="#FFFFFF" height="30.3516" style="stroke:#181818;stroke-width:1.0;" width="10" x="746" y="584.1641"/><rect fill="#FFFFFF" height="30.3516" style="stroke:#181818;stroke-width:1.0;" width="10" x="746" y="706.4063"/><rect fill="#FFFFFF" height="91.8906" style="stroke:#181818;stroke-width:1.0;" width="10" x="1109.5" y="614.5156"/><rect fill="#FFFFFF" height="30.3516" style="stroke:#181818;stroke-width:1.0;" width="10" x="1214" y="311"/><rect fill="#FFFFFF" height="30.3516" style="stroke:#181818;stroke-width:1.0;" width="10" x="1290.5" y="371.7031"/><polygon fill="#181818" points="579.5,110.9609,589.5,114.9609,579.5,118.9609,583.5,114.9609" style="stroke:#181818;stroke-width:1.0;"/><line style="stroke:#181818;stroke-width:1.0;" x1="26.5" x2="585.5" y1="114.9609" y2="114.9609"/><text fill="#000000" font-family="sans-serif" font-size="13" font-weight="bold" lengthAdjust="spacing" textLength="7" x="33.5" y="110.1045">1</text><text fill="#000000" font-family="sans-serif" font-size="13" lengthAdjust="spacing" textLength="180" x="44.5" y="110.1045">asks to record a complete task</text><polygon fill="#181818" points="660.5,141.3125,670.5,145.3125,660.5,149.3125,664.5,145.3125" style="stroke:#181818;stroke-width:1.0;"/><line style="stroke:#181818;stroke-width:1.0;" x1="596.5" x2="666.5" y1="145.3125" y2="145.3125"/><text fill="#000000" font-family="sans-serif" font-size="13" font-weight="bold" lengthAdjust="spacing" textLength="7" x="603.5" y="140.4561">2</text><text fill="#000000" font-family="sans-serif" font-size="13" lengthAdjust="spacing" textLength="36" x="614.5" y="140.4561">create</text><rect fill="#E3E3E3" height="31.6094" rx="2.5" ry="2.5" style="stroke:#181818;stroke-width:0.5;" width="157" x="672.5" y="122.9609"/><text fill="#000000" font-family="sans-serif" font-size="14" lengthAdjust="spacing" textLength="143" x="679.5" y="144.4941">:RecordTaskController</text><rect fill="none" height="56.5391" style="stroke:#000000;stroke-width:1.5;" width="163" x="669.5" y="165.5703"/><path d="M669.5,165.5703 L731.5,165.5703 L731.5,173.5703 L721.5,183.5703 L669.5,183.5703 L669.5,165.5703 " fill="#EEEEEE" style="stroke:#000000;stroke-width:2.0;"/><text fill="#000000" font-family="sans-serif" font-size="13" font-weight="bold" lengthAdjust="spacing" textLength="17" x="682.5" y="181.0654">ref</text><text fill="#000000" font-family="sans-serif" font-size="12" lengthAdjust="spacing" textLength="116" x="693" y="200.0273">Get Team Repository</text><text fill="#000000" font-family="sans-serif" font-size="12" lengthAdjust="spacing" textLength="3" x="749.5" y="215.1211"> </text><rect fill="none" height="56.5391" style="stroke:#000000;stroke-width:1.5;" width="163" x="669.5" y="227.1094"/><path d="M669.5,227.1094 L731.5,227.1094 L731.5,235.1094 L721.5,245.1094 L669.5,245.1094 L669.5,227.1094 " fill="#EEEEEE" style="stroke:#000000;stroke-width:2.0;"/><text fill="#000000" font-family="sans-serif" font-size="13" font-weight="bold" lengthAdjust="spacing" textLength="17" x="682.5" y="242.6045">ref</text><text fill="#000000" font-family="sans-serif" font-size="12" lengthAdjust="spacing" textLength="72" x="715" y="261.5664">Get Task List</text><text fill="#000000" font-family="sans-serif" font-size="12" lengthAdjust="spacing" textLength="3" x="749.5" y="276.6602"> </text><polygon fill="#181818" points="1202,307,1212,311,1202,315,1206,311" style="stroke:#181818;stroke-width:1.0;"/><line style="stroke:#181818;stroke-width:1.0;" x1="756" x2="1208" y1="311" y2="311"/><text fill="#000000" font-family="sans-serif" font-size="13" font-weight="bold" lengthAdjust="spacing" textLength="7" x="763" y="306.1436">3</text><text fill="#000000" font-family="sans-serif" font-size="13" lengthAdjust="spacing" textLength="165" x="774" y="306.1436">verifyExistingTasks(taskList)</text><polygon fill="#181818" points="767,337.3516,757,341.3516,767,345.3516,763,341.3516" style="stroke:#181818;stroke-width:1.0;"/><line style="stroke:#181818;stroke-width:1.0;stroke-dasharray:2.0,2.0;" x1="761" x2="1218" y1="341.3516" y2="341.3516"/><text fill="#000000" font-family="sans-serif" font-size="13" font-weight="bold" lengthAdjust="spacing" textLength="7" x="773" y="336.4951">4</text><text fill="#000000" font-family="sans-serif" font-size="13" lengthAdjust="spacing" textLength="46" x="784" y="336.4951">taskList</text><polygon fill="#181818" points="1278.5,367.7031,1288.5,371.7031,1278.5,375.7031,1282.5,371.7031" style="stroke:#181818;stroke-width:1.0;"/><line style="stroke:#181818;stroke-width:1.0;" x1="756" x2="1284.5" y1="371.7031" y2="371.7031"/><text fill="#000000" font-family="sans-serif" font-size="13" font-weight="bold" lengthAdjust="spacing" textLength="7" x="763" y="366.8467">5</text><text fill="#000000" font-family="sans-serif" font-size="13" lengthAdjust="spacing" textLength="165" x="774" y="366.8467">verifyExistingTasks(taskList)</text><polygon fill="#181818" points="767,398.0547,757,402.0547,767,406.0547,763,402.0547" style="stroke:#181818;stroke-width:1.0;"/><line style="stroke:#181818;stroke-width:1.0;stroke-dasharray:2.0,2.0;" x1="761" x2="1294.5" y1="402.0547" y2="402.0547"/><text fill="#000000" font-family="sans-serif" font-size="13" font-weight="bold" lengthAdjust="spacing" textLength="7" x="773" y="397.1982">6</text><text fill="#000000" font-family="sans-serif" font-size="13" lengthAdjust="spacing" textLength="46" x="784" y="397.1982">taskList</text><polygon fill="#181818" points="612.5,428.4063,602.5,432.4063,612.5,436.4063,608.5,432.4063" style="stroke:#181818;stroke-width:1.0;"/><line style="stroke:#181818;stroke-width:1.0;stroke-dasharray:2.0,2.0;" x1="606.5" x2="750" y1="432.4063" y2="432.4063"/><text fill="#000000" font-family="sans-serif" font-size="13" font-weight="bold" lengthAdjust="spacing" textLength="7" x="618.5" y="427.5498">7</text><text fill="#000000" font-family="sans-serif" font-size="13" lengthAdjust="spacing" textLength="46" x="629.5" y="427.5498">taskList</text><polygon fill="#181818" points="37.5,458.7578,27.5,462.7578,37.5,466.7578,33.5,462.7578" style="stroke:#181818;stroke-width:1.0;"/><line style="stroke:#181818;stroke-width:1.0;" x1="31.5" x2="595.5" y1="462.7578" y2="462.7578"/><text fill="#000000" font-family="sans-serif" font-size="13" font-weight="bold" lengthAdjust="spacing" textLength="7" x="43.5" y="457.9014">8</text><text fill="#000000" font-family="sans-serif" font-size="13" lengthAdjust="spacing" textLength="530" x="54.5" y="457.9014">shows the list of the task assign to the collaborator and requests to select the one to record</text><polygon fill="#181818" points="579.5,489.1094,589.5,493.1094,579.5,497.1094,583.5,493.1094" style="stroke:#181818;stroke-width:1.0;"/><line style="stroke:#181818;stroke-width:1.0;" x1="26.5" x2="585.5" y1="493.1094" y2="493.1094"/><text fill="#000000" font-family="sans-serif" font-size="13" font-weight="bold" lengthAdjust="spacing" textLength="7" x="33.5" y="488.2529">9</text><text fill="#000000" font-family="sans-serif" font-size="13" lengthAdjust="spacing" textLength="138" x="44.5" y="488.2529">select an assigned task</text><polygon fill="#181818" points="37.5,519.4609,27.5,523.4609,37.5,527.4609,33.5,523.4609" style="stroke:#181818;stroke-width:1.0;"/><line style="stroke:#181818;stroke-width:1.0;stroke-dasharray:2.0,2.0;" x1="31.5" x2="595.5" y1="523.4609" y2="523.4609"/><text fill="#000000" font-family="sans-serif" font-size="13" font-weight="bold" lengthAdjust="spacing" textLength="14" x="43.5" y="518.6045">10</text><text fill="#000000" font-family="sans-serif" font-size="13" lengthAdjust="spacing" textLength="212" x="61.5" y="518.6045">show task and requests confirmation</text><polygon fill="#181818" points="579.5,549.8125,589.5,553.8125,579.5,557.8125,583.5,553.8125" style="stroke:#181818;stroke-width:1.0;"/><line style="stroke:#181818;stroke-width:1.0;" x1="26.5" x2="585.5" y1="553.8125" y2="553.8125"/><text fill="#000000" font-family="sans-serif" font-size="13" font-weight="bold" lengthAdjust="spacing" textLength="14" x="33.5" y="548.9561">11</text><text fill="#000000" font-family="sans-serif" font-size="13" lengthAdjust="spacing" textLength="78" x="51.5" y="548.9561">confirms data</text><polygon fill="#181818" points="734,580.1641,744,584.1641,734,588.1641,738,584.1641" style="stroke:#181818;stroke-width:1.0;"/><line style="stroke:#181818;stroke-width:1.0;" x1="596.5" x2="740" y1="584.1641" y2="584.1641"/><text fill="#000000" font-family="sans-serif" font-size="13" font-weight="bold" lengthAdjust="spacing" textLength="14" x="603.5" y="579.3076">12</text><text fill="#000000" font-family="sans-serif" font-size="13" lengthAdjust="spacing" textLength="68" x="621.5" y="579.3076">submit data</text><polygon fill="#181818" points="1097.5,610.5156,1107.5,614.5156,1097.5,618.5156,1101.5,614.5156" style="stroke:#181818;stroke-width:1.0;"/><line style="stroke:#181818;stroke-width:1.0;" x1="751" x2="1103.5" y1="614.5156" y2="614.5156"/><text fill="#000000" font-family="sans-serif" font-size="13" font-weight="bold" lengthAdjust="spacing" textLength="14" x="758" y="609.6592">13</text><text fill="#000000" font-family="sans-serif" font-size="13" lengthAdjust="spacing" textLength="214" x="776" y="609.6592">recordTaskCompletion(selectedTask)</text><rect fill="none" height="56.5391" style="stroke:#000000;stroke-width:1.5;" width="145" x="1050.5" y="622.5156"/><path d="M1050.5,622.5156 L1112.5,622.5156 L1112.5,630.5156 L1102.5,640.5156 L1050.5,640.5156 L1050.5,622.5156 " fill="#EEEEEE" style="stroke:#000000;stroke-width:2.0;"/><text fill="#000000" font-family="sans-serif" font-size="13" font-weight="bold" lengthAdjust="spacing" textLength="17" x="1063.5" y="638.0107">ref</text><text fill="#000000" font-family="sans-serif" font-size="12" lengthAdjust="spacing" textLength="137" x="1054.5" y="656.9727">Record Task Completion</text><text fill="#000000" font-family="sans-serif" font-size="12" lengthAdjust="spacing" textLength="3" x="1121.5" y="672.0664"> </text><polygon fill="#181818" points="767,702.4063,757,706.4063,767,710.4063,763,706.4063" style="stroke:#181818;stroke-width:1.0;"/><line style="stroke:#181818;stroke-width:1.0;stroke-dasharray:2.0,2.0;" x1="761" x2="1113.5" y1="706.4063" y2="706.4063"/><text fill="#000000" font-family="sans-serif" font-size="13" font-weight="bold" lengthAdjust="spacing" textLength="14" x="773" y="701.5498">14</text><text fill="#000000" font-family="sans-serif" font-size="13" lengthAdjust="spacing" textLength="49" x="791" y="701.5498">success</text><polygon fill="#181818" points="612.5,732.7578,602.5,736.7578,612.5,740.7578,608.5,736.7578" style="stroke:#181818;stroke-width:1.0;"/><line style="stroke:#181818;stroke-width:1.0;stroke-dasharray:2.0,2.0;" x1="606.5" x2="750" y1="736.7578" y2="736.7578"/><text fill="#000000" font-family="sans-serif" font-size="13" font-weight="bold" lengthAdjust="spacing" textLength="14" x="618.5" y="731.9014">15</text><text fill="#000000" font-family="sans-serif" font-size="13" lengthAdjust="spacing" textLength="49" x="636.5" y="731.9014">success</text><polygon fill="#181818" points="37.5,763.1094,27.5,767.1094,37.5,771.1094,33.5,767.1094" style="stroke:#181818;stroke-width:1.0;"/><line style="stroke:#181818;stroke-width:1.0;stroke-dasharray:2.0,2.0;" x1="31.5" x2="595.5" y1="767.1094" y2="767.1094"/><text fill="#000000" font-family="sans-serif" font-size="13" font-weight="bold" lengthAdjust="spacing" textLength="14" x="43.5" y="762.2529">16</text><text fill="#000000" font-family="sans-serif" font-size="13" lengthAdjust="spacing" textLength="320" x="61.5" y="762.2529">displays success message (Task record as completed)</text><!--SRC=[dLNDRjim3BxxAOYSaW9vWHm6TCKm5CXXQDDRBupC949ioPEKTddxKR8jItRI9VEXLIZouyTVsQDK3HgieTPAYuFHDO4p9ofil6bG775Fh-vS4HWI3jM-IXNi0KlzATKUTbXPAee2JqwhKxqbmsVXj87Pq_hx3D02_o_Op4aX6rGEPgiN4jgK6xJ7j-UWylPyLUD9AsTqLP5fmJOlwubkewrabv9iq8c2ywlqn9bPRc8IYtSr1VYrVjpa5Xl2Ue1TlQjS4AnoqOZauvvKYK6lFOxk7OUwbjO5ZVv7aIjvCTFrMMaTyg48wPOVw2WakW3- -03BRvnLMB7UaG6rBoDd5124hXlE2GKlGJq2S1c2m7zip10-tGyF32CCiKQyBIarwgK34r-bA3Qq0_r1fXL3ylqa5zAMb6mmuonvKuxm1gGCaGE3Dd_ZwuYP2ZsO3xOj30VB7kJk_ECFGt03UJWxxskoo4nZn5rH9muxp6MNImQFnKtLadnUGkePzhR_nt5egp7BY7i7pyjeBTE- -IOOYNrMmgzQa9jvnHj7Vt8V7mWgprFlmjdZSuTRkLU-nxr8yAx0hJReTn26Sly-aNLX22nLlCs2dbOqZ4KnxUd987Msg3g7LDumGHd_ZcxAIMYrawP69tb7tK2YqxTGeiDRXjUxFcrhwGQBk-StxS1yoJ6wIJPrM2mSoRpD5GNnube3JMOutemsQQOKLy182QvyxKlIxeI1OOvvSIkC8bsc2HM2hBqMrnV4_fdWs6mZ5tVFJMoyKjgcmhFj8Q7cF_oumpoaf7yMR7mNoiM5HlmB]--></g></svg>