<?xml version="1.0" encoding="UTF-8" standalone="no"?><svg xmlns="http://www.w3.org/2000/svg" xmlns:xlink="http://www.w3.org/1999/xlink" contentStyleType="text/css" height="1394px" preserveAspectRatio="none" style="width:2001px;height:1394px;background:#FFFFFF;" version="1.1" viewBox="0 0 2001 1394" width="2001px" zoomAndPan="magnify"><defs/><g><rect fill="#FFFFFF" height="1211" style="stroke:#181818;stroke-width:1.0;" width="10" x="16.5" y="92.6094"/><rect fill="#FFFFFF" height="30.3516" style="stroke:#181818;stroke-width:1.0;" width="10" x="646.5" y="114.9609"/><rect fill="#FFFFFF" height="365.7344" style="stroke:#181818;stroke-width:1.0;" width="10" x="646.5" y="370.0313"/><rect fill="#FFFFFF" height="30.3516" style="stroke:#181818;stroke-width:1.0;" width="10" x="646.5" y="766.1172"/><rect fill="#FFFFFF" height="30.3516" style="stroke:#181818;stroke-width:1.0;" width="10" x="646.5" y="826.8203"/><rect fill="#FFFFFF" height="30.3516" style="stroke:#181818;stroke-width:1.0;" width="10" x="646.5" y="1264.2578"/><rect fill="#FFFFFF" height="184.3672" style="stroke:#181818;stroke-width:1.0;" width="10" x="977.5" y="155.3125"/><rect fill="#FFFFFF" height="91.0547" style="stroke:#181818;stroke-width:1.0;" width="10" x="977.5" y="370.0313"/><rect fill="#FFFFFF" height="91.0547" style="stroke:#181818;stroke-width:1.0;" width="10" x="977.5" y="614.3594"/><rect fill="#FFFFFF" height="181.625" style="stroke:#181818;stroke-width:1.0;" width="10" x="977.5" y="857.1719"/><rect fill="#FFFFFF" height="30.3516" style="stroke:#181818;stroke-width:1.0;" width="10" x="977.5" y="1233.9063"/><rect fill="#FFFFFF" height="30.3516" style="stroke:#181818;stroke-width:1.0;" width="10" x="1115.5" y="187.9219"/><rect fill="#FFFFFF" height="30.3516" style="stroke:#181818;stroke-width:1.0;" width="10" x="1222.5" y="248.625"/><rect fill="#FFFFFF" height="30.3516" style="stroke:#181818;stroke-width:1.0;" width="10" x="1222.5" y="309.3281"/><rect fill="#FFFFFF" height="30.3516" style="stroke:#181818;stroke-width:1.0;" width="10" x="1369.5" y="400.3828"/><rect fill="#FFFFFF" height="195.1094" style="stroke:#181818;stroke-width:1.0;" width="10" x="1369.5" y="1038.7969"/><rect fill="#FFFFFF" height="30.3516" style="stroke:#181818;stroke-width:1.0;" width="10" x="1500" y="644.7109"/><rect fill="#FFFFFF" height="153.2734" style="stroke:#181818;stroke-width:1.0;" width="10" x="1643" y="461.0859"/><rect fill="#FFFFFF" height="120.9219" style="stroke:#181818;stroke-width:1.0;" width="10" x="1643" y="887.5234"/><rect fill="#FFFFFF" height="50.2188" style="stroke:#181818;stroke-width:1.0;" width="10" x="1776" y="927.875"/><rect fill="#FFFFFF" height="30.3516" style="stroke:#181818;stroke-width:1.0;" width="10" x="1776" y="1069.1484"/><rect fill="#FFFFFF" height="73.7031" style="stroke:#181818;stroke-width:1.0;" width="10" x="1776" y="1129.8516"/><rect fill="#FFFFFF" height="50.2188" style="stroke:#181818;stroke-width:1.0;" width="10" x="1919" y="526.7891"/><rect fill="none" height="108.9219" style="stroke:#000000;stroke-width:1.5;" width="429" x="1566" y="476.0859"/><line style="stroke:#181818;stroke-width:0.5;stroke-dasharray:5.0,5.0;" x1="21" x2="21" y1="82.6094" y2="1312.6094"/><line style="stroke:#181818;stroke-width:0.5;stroke-dasharray:5.0,5.0;" x1="651" x2="651" y1="82.6094" y2="1312.6094"/><line style="stroke:#181818;stroke-width:0.5;stroke-dasharray:5.0,5.0;" x1="982" x2="982" y1="154.2656" y2="1312.6094"/><line style="stroke:#181818;stroke-width:0.5;stroke-dasharray:5.0,5.0;" x1="1120" x2="1120" y1="82.6094" y2="1312.6094"/><line style="stroke:#181818;stroke-width:0.5;stroke-dasharray:5.0,5.0;" x1="1227" x2="1227" y1="82.6094" y2="1312.6094"/><line style="stroke:#181818;stroke-width:0.5;stroke-dasharray:5.0,5.0;" x1="1374" x2="1374" y1="82.6094" y2="1312.6094"/><line style="stroke:#181818;stroke-width:0.5;stroke-dasharray:5.0,5.0;" x1="1505" x2="1505" y1="82.6094" y2="1312.6094"/><line style="stroke:#181818;stroke-width:0.5;stroke-dasharray:5.0,5.0;" x1="1648" x2="1648" y1="82.6094" y2="1312.6094"/><line style="stroke:#181818;stroke-width:0.5;stroke-dasharray:5.0,5.0;" x1="1781" x2="1781" y1="935.6328" y2="1312.6094"/><line style="stroke:#181818;stroke-width:0.5;stroke-dasharray:5.0,5.0;" x1="1924" x2="1924" y1="534.5469" y2="1312.6094"/><text fill="#000000" font-family="sans-serif" font-size="14" lengthAdjust="spacing" textLength="27" x="5" y="79.5332">CLB</text><ellipse cx="21.5" cy="13.5" fill="#E3E3E3" rx="8" ry="8" style="stroke:#181818;stroke-width:0.5;"/><path d="M21.5,21.5 L21.5,48.5 M8.5,29.5 L34.5,29.5 M21.5,48.5 L8.5,63.5 M21.5,48.5 L34.5,63.5 " fill="none" style="stroke:#181818;stroke-width:0.5;"/><text fill="#000000" font-family="sans-serif" font-size="14" lengthAdjust="spacing" textLength="27" x="5" y="1326.1426">CLB</text><ellipse cx="21.5" cy="1337.7188" fill="#E3E3E3" rx="8" ry="8" style="stroke:#181818;stroke-width:0.5;"/><path d="M21.5,1345.7188 L21.5,1372.7188 M8.5,1353.7188 L34.5,1353.7188 M21.5,1372.7188 L8.5,1387.7188 M21.5,1372.7188 L34.5,1387.7188 " fill="none" style="stroke:#181818;stroke-width:0.5;"/><rect fill="#E3E3E3" height="31.6094" rx="2.5" ry="2.5" style="stroke:#181818;stroke-width:0.5;" width="109" x="597" y="50"/><text fill="#000000" font-family="sans-serif" font-size="14" lengthAdjust="spacing" textLength="95" x="604" y="71.5332">:RecordEntryUI</text><rect fill="#E3E3E3" height="31.6094" rx="2.5" ry="2.5" style="stroke:#181818;stroke-width:0.5;" width="109" x="597" y="1311.6094"/><text fill="#000000" font-family="sans-serif" font-size="14" lengthAdjust="spacing" textLength="95" x="604" y="1333.1426">:RecordEntryUI</text><rect fill="#E3E3E3" height="31.6094" rx="2.5" ry="2.5" style="stroke:#181818;stroke-width:0.5;" width="159" x="903" y="1311.6094"/><text fill="#000000" font-family="sans-serif" font-size="14" lengthAdjust="spacing" textLength="145" x="910" y="1333.1426">:RecordEntryController</text><rect fill="#E3E3E3" height="31.6094" rx="2.5" ry="2.5" style="stroke:#181818;stroke-width:0.5;" width="97" x="1072" y="50"/><text fill="#000000" font-family="sans-serif" font-size="14" lengthAdjust="spacing" textLength="83" x="1079" y="71.5332">:Repositories</text><rect fill="#E3E3E3" height="31.6094" rx="2.5" ry="2.5" style="stroke:#181818;stroke-width:0.5;" width="97" x="1072" y="1311.6094"/><text fill="#000000" font-family="sans-serif" font-size="14" lengthAdjust="spacing" textLength="83" x="1079" y="1333.1426">:Repositories</text><rect fill="#E3E3E3" height="49.2188" rx="2.5" ry="2.5" style="stroke:#181818;stroke-width:0.5;" width="97" x="1179" y="32.3906"/><text fill="#000000" font-family="sans-serif" font-size="14" lengthAdjust="spacing" textLength="74" x="1190.5" y="53.9238">repositories</text><text fill="#000000" font-family="sans-serif" font-size="14" lengthAdjust="spacing" textLength="83" x="1186" y="71.5332">:Repositories</text><rect fill="#E3E3E3" height="49.2188" rx="2.5" ry="2.5" style="stroke:#181818;stroke-width:0.5;" width="97" x="1179" y="1311.6094"/><text fill="#000000" font-family="sans-serif" font-size="14" lengthAdjust="spacing" textLength="74" x="1190.5" y="1333.1426">repositories</text><text fill="#000000" font-family="sans-serif" font-size="14" lengthAdjust="spacing" textLength="83" x="1186" y="1350.752">:Repositories</text><rect fill="#E3E3E3" height="49.2188" rx="2.5" ry="2.5" style="stroke:#181818;stroke-width:0.5;" width="119" x="1315" y="32.3906"/><text fill="#000000" font-family="sans-serif" font-size="14" lengthAdjust="spacing" textLength="104" x="1322.5" y="53.9238">entryRepository:</text><text fill="#000000" font-family="sans-serif" font-size="14" lengthAdjust="spacing" textLength="105" x="1322" y="71.5332">:EntryRepository</text><rect fill="#E3E3E3" height="49.2188" rx="2.5" ry="2.5" style="stroke:#181818;stroke-width:0.5;" width="119" x="1315" y="1311.6094"/><text fill="#000000" font-family="sans-serif" font-size="14" lengthAdjust="spacing" textLength="104" x="1322.5" y="1333.1426">entryRepository:</text><text fill="#000000" font-family="sans-serif" font-size="14" lengthAdjust="spacing" textLength="105" x="1322" y="1350.752">:EntryRepository</text><rect fill="#E3E3E3" height="49.2188" rx="2.5" ry="2.5" style="stroke:#181818;stroke-width:0.5;" width="122" x="1444" y="32.3906"/><text fill="#000000" font-family="sans-serif" font-size="14" lengthAdjust="spacing" textLength="103" x="1453.5" y="53.9238">teamRepository:</text><text fill="#000000" font-family="sans-serif" font-size="14" lengthAdjust="spacing" textLength="108" x="1451" y="71.5332">:TeamRepository</text><rect fill="#E3E3E3" height="49.2188" rx="2.5" ry="2.5" style="stroke:#181818;stroke-width:0.5;" width="122" x="1444" y="1311.6094"/><text fill="#000000" font-family="sans-serif" font-size="14" lengthAdjust="spacing" textLength="103" x="1453.5" y="1333.1426">teamRepository:</text><text fill="#000000" font-family="sans-serif" font-size="14" lengthAdjust="spacing" textLength="108" x="1451" y="1350.752">:TeamRepository</text><rect fill="#E3E3E3" height="31.6094" rx="2.5" ry="2.5" style="stroke:#181818;stroke-width:0.5;" width="144" x="1576" y="50"/><text fill="#000000" font-family="sans-serif" font-size="14" lengthAdjust="spacing" textLength="130" x="1583" y="71.5332">AgendaEntryMapper</text><rect fill="#E3E3E3" height="31.6094" rx="2.5" ry="2.5" style="stroke:#181818;stroke-width:0.5;" width="144" x="1576" y="1311.6094"/><text fill="#000000" font-family="sans-serif" font-size="14" lengthAdjust="spacing" textLength="130" x="1583" y="1333.1426">AgendaEntryMapper</text><rect fill="#E3E3E3" height="49.2188" rx="2.5" ry="2.5" style="stroke:#181818;stroke-width:0.5;" width="100" x="1731" y="1311.6094"/><text fill="#000000" font-family="sans-serif" font-size="14" lengthAdjust="spacing" textLength="81" x="1740.5" y="1333.1426">agendaEntry</text><text fill="#000000" font-family="sans-serif" font-size="14" lengthAdjust="spacing" textLength="86" x="1738" y="1350.752">:AgendaEntry</text><rect fill="#E3E3E3" height="49.2188" rx="2.5" ry="2.5" style="stroke:#181818;stroke-width:0.5;" width="122" x="1863" y="1311.6094"/><text fill="#000000" font-family="sans-serif" font-size="14" lengthAdjust="spacing" textLength="103" x="1872.5" y="1333.1426">agendaEntryDto</text><text fill="#000000" font-family="sans-serif" font-size="14" lengthAdjust="spacing" textLength="108" x="1870" y="1350.752">:AgendaEntryDto</text><rect fill="#FFFFFF" height="1211" style="stroke:#181818;stroke-width:1.0;" width="10" x="16.5" y="92.6094"/><rect fill="#FFFFFF" height="30.3516" style="stroke:#181818;stroke-width:1.0;" width="10" x="646.5" y="114.9609"/><rect fill="#FFFFFF" height="365.7344" style="stroke:#181818;stroke-width:1.0;" width="10" x="646.5" y="370.0313"/><rect fill="#FFFFFF" height="30.3516" style="stroke:#181818;stroke-width:1.0;" width="10" x="646.5" y="766.1172"/><rect fill="#FFFFFF" height="30.3516" style="stroke:#181818;stroke-width:1.0;" width="10" x="646.5" y="826.8203"/><rect fill="#FFFFFF" height="30.3516" style="stroke:#181818;stroke-width:1.0;" width="10" x="646.5" y="1264.2578"/><rect fill="#FFFFFF" height="184.3672" style="stroke:#181818;stroke-width:1.0;" width="10" x="977.5" y="155.3125"/><rect fill="#FFFFFF" height="91.0547" style="stroke:#181818;stroke-width:1.0;" width="10" x="977.5" y="370.0313"/><rect fill="#FFFFFF" height="91.0547" style="stroke:#181818;stroke-width:1.0;" width="10" x="977.5" y="614.3594"/><rect fill="#FFFFFF" height="181.625" style="stroke:#181818;stroke-width:1.0;" width="10" x="977.5" y="857.1719"/><rect fill="#FFFFFF" height="30.3516" style="stroke:#181818;stroke-width:1.0;" width="10" x="977.5" y="1233.9063"/><rect fill="#FFFFFF" height="30.3516" style="stroke:#181818;stroke-width:1.0;" width="10" x="1115.5" y="187.9219"/><rect fill="#FFFFFF" height="30.3516" style="stroke:#181818;stroke-width:1.0;" width="10" x="1222.5" y="248.625"/><rect fill="#FFFFFF" height="30.3516" style="stroke:#181818;stroke-width:1.0;" width="10" x="1222.5" y="309.3281"/><rect fill="#FFFFFF" height="30.3516" style="stroke:#181818;stroke-width:1.0;" width="10" x="1369.5" y="400.3828"/><rect fill="#FFFFFF" height="195.1094" style="stroke:#181818;stroke-width:1.0;" width="10" x="1369.5" y="1038.7969"/><rect fill="#FFFFFF" height="30.3516" style="stroke:#181818;stroke-width:1.0;" width="10" x="1500" y="644.7109"/><rect fill="#FFFFFF" height="153.2734" style="stroke:#181818;stroke-width:1.0;" width="10" x="1643" y="461.0859"/><rect fill="#FFFFFF" height="120.9219" style="stroke:#181818;stroke-width:1.0;" width="10" x="1643" y="887.5234"/><rect fill="#FFFFFF" height="50.2188" style="stroke:#181818;stroke-width:1.0;" width="10" x="1776" y="927.875"/><rect fill="#FFFFFF" height="30.3516" style="stroke:#181818;stroke-width:1.0;" width="10" x="1776" y="1069.1484"/><rect fill="#FFFFFF" height="73.7031" style="stroke:#181818;stroke-width:1.0;" width="10" x="1776" y="1129.8516"/><rect fill="#FFFFFF" height="50.2188" style="stroke:#181818;stroke-width:1.0;" width="10" x="1919" y="526.7891"/><polygon fill="#181818" points="634.5,110.9609,644.5,114.9609,634.5,118.9609,638.5,114.9609" style="stroke:#181818;stroke-width:1.0;"/><line style="stroke:#181818;stroke-width:1.0;" x1="26.5" x2="640.5" y1="114.9609" y2="114.9609"/><text fill="#000000" font-family="sans-serif" font-size="13" font-weight="bold" lengthAdjust="spacing" textLength="7" x="33.5" y="110.1045">1</text><text fill="#000000" font-family="sans-serif" font-size="13" lengthAdjust="spacing" textLength="228" x="44.5" y="110.1045">asks to record a complete agendaEntry</text><polygon fill="#181818" points="891,141.3125,901,145.3125,891,149.3125,895,145.3125" style="stroke:#181818;stroke-width:1.0;"/><line style="stroke:#181818;stroke-width:1.0;" x1="651.5" x2="897" y1="145.3125" y2="145.3125"/><text fill="#000000" font-family="sans-serif" font-size="13" font-weight="bold" lengthAdjust="spacing" textLength="7" x="658.5" y="140.4561">2</text><text fill="#000000" font-family="sans-serif" font-size="13" lengthAdjust="spacing" textLength="36" x="669.5" y="140.4561">create</text><rect fill="#E3E3E3" height="31.6094" rx="2.5" ry="2.5" style="stroke:#181818;stroke-width:0.5;" width="159" x="903" y="122.9609"/><text fill="#000000" font-family="sans-serif" font-size="14" lengthAdjust="spacing" textLength="145" x="910" y="144.4941">:RecordEntryController</text><polygon fill="#181818" points="1103.5,183.9219,1113.5,187.9219,1103.5,191.9219,1107.5,187.9219" style="stroke:#181818;stroke-width:1.0;"/><line style="stroke:#181818;stroke-width:1.0;" x1="987.5" x2="1109.5" y1="187.9219" y2="187.9219"/><text fill="#000000" font-family="sans-serif" font-size="13" font-weight="bold" lengthAdjust="spacing" textLength="7" x="994.5" y="183.0654">3</text><text fill="#000000" font-family="sans-serif" font-size="13" lengthAdjust="spacing" textLength="75" x="1005.5" y="183.0654">getInstance()</text><polygon fill="#181818" points="998.5,214.2734,988.5,218.2734,998.5,222.2734,994.5,218.2734" style="stroke:#181818;stroke-width:1.0;"/><line style="stroke:#181818;stroke-width:1.0;stroke-dasharray:2.0,2.0;" x1="992.5" x2="1119.5" y1="218.2734" y2="218.2734"/><text fill="#000000" font-family="sans-serif" font-size="13" font-weight="bold" lengthAdjust="spacing" textLength="7" x="1004.5" y="213.417">4</text><text fill="#000000" font-family="sans-serif" font-size="13" lengthAdjust="spacing" textLength="67" x="1015.5" y="213.417">repositories</text><polygon fill="#181818" points="1210.5,244.625,1220.5,248.625,1210.5,252.625,1214.5,248.625" style="stroke:#181818;stroke-width:1.0;"/><line style="stroke:#181818;stroke-width:1.0;" x1="987.5" x2="1216.5" y1="248.625" y2="248.625"/><text fill="#000000" font-family="sans-serif" font-size="13" font-weight="bold" lengthAdjust="spacing" textLength="7" x="994.5" y="243.7686">5</text><text fill="#000000" font-family="sans-serif" font-size="13" lengthAdjust="spacing" textLength="120" x="1005.5" y="243.7686">getTeamRepository()</text><polygon fill="#181818" points="998.5,274.9766,988.5,278.9766,998.5,282.9766,994.5,278.9766" style="stroke:#181818;stroke-width:1.0;"/><line style="stroke:#181818;stroke-width:1.0;stroke-dasharray:2.0,2.0;" x1="992.5" x2="1226.5" y1="278.9766" y2="278.9766"/><text fill="#000000" font-family="sans-serif" font-size="13" font-weight="bold" lengthAdjust="spacing" textLength="7" x="1004.5" y="274.1201">6</text><text fill="#000000" font-family="sans-serif" font-size="13" lengthAdjust="spacing" textLength="91" x="1015.5" y="274.1201">teamRepository</text><polygon fill="#181818" points="1210.5,305.3281,1220.5,309.3281,1210.5,313.3281,1214.5,309.3281" style="stroke:#181818;stroke-width:1.0;"/><line style="stroke:#181818;stroke-width:1.0;" x1="987.5" x2="1216.5" y1="309.3281" y2="309.3281"/><text fill="#000000" font-family="sans-serif" font-size="13" font-weight="bold" lengthAdjust="spacing" textLength="7" x="994.5" y="304.4717">7</text><text fill="#000000" font-family="sans-serif" font-size="13" lengthAdjust="spacing" textLength="119" x="1005.5" y="304.4717">getEntryRepository()</text><polygon fill="#181818" points="993.5,335.6797,983.5,339.6797,993.5,343.6797,989.5,339.6797" style="stroke:#181818;stroke-width:1.0;"/><line style="stroke:#181818;stroke-width:1.0;stroke-dasharray:2.0,2.0;" x1="987.5" x2="1226.5" y1="339.6797" y2="339.6797"/><text fill="#000000" font-family="sans-serif" font-size="13" font-weight="bold" lengthAdjust="spacing" textLength="7" x="999.5" y="334.8232">8</text><text fill="#000000" font-family="sans-serif" font-size="13" lengthAdjust="spacing" textLength="91" x="1010.5" y="334.8232">entryRepository</text><polygon fill="#181818" points="965.5,366.0313,975.5,370.0313,965.5,374.0313,969.5,370.0313" style="stroke:#181818;stroke-width:1.0;"/><line style="stroke:#181818;stroke-width:1.0;" x1="656.5" x2="971.5" y1="370.0313" y2="370.0313"/><text fill="#000000" font-family="sans-serif" font-size="13" font-weight="bold" lengthAdjust="spacing" textLength="7" x="663.5" y="365.1748">9</text><text fill="#000000" font-family="sans-serif" font-size="13" lengthAdjust="spacing" textLength="204" x="674.5" y="365.1748">getAgendaEntryOfCollaboratorList()</text><polygon fill="#181818" points="1357.5,396.3828,1367.5,400.3828,1357.5,404.3828,1361.5,400.3828" style="stroke:#181818;stroke-width:1.0;"/><line style="stroke:#181818;stroke-width:1.0;" x1="987.5" x2="1363.5" y1="400.3828" y2="400.3828"/><text fill="#000000" font-family="sans-serif" font-size="13" font-weight="bold" lengthAdjust="spacing" textLength="14" x="994.5" y="395.5264">10</text><text fill="#000000" font-family="sans-serif" font-size="13" lengthAdjust="spacing" textLength="132" x="1012.5" y="395.5264">getAgendaEntriesList()</text><polygon fill="#181818" points="998.5,426.7344,988.5,430.7344,998.5,434.7344,994.5,430.7344" style="stroke:#181818;stroke-width:1.0;"/><line style="stroke:#181818;stroke-width:1.0;stroke-dasharray:2.0,2.0;" x1="992.5" x2="1373.5" y1="430.7344" y2="430.7344"/><text fill="#000000" font-family="sans-serif" font-size="13" font-weight="bold" lengthAdjust="spacing" textLength="14" x="1004.5" y="425.8779">11</text><text fill="#000000" font-family="sans-serif" font-size="13" lengthAdjust="spacing" textLength="94" x="1022.5" y="425.8779">agendaEntryList</text><polygon fill="#181818" points="1631,457.0859,1641,461.0859,1631,465.0859,1635,461.0859" style="stroke:#181818;stroke-width:1.0;"/><line style="stroke:#181818;stroke-width:1.0;" x1="982.5" x2="1637" y1="461.0859" y2="461.0859"/><text fill="#000000" font-family="sans-serif" font-size="13" font-weight="bold" lengthAdjust="spacing" textLength="14" x="989.5" y="456.2295">12</text><text fill="#000000" font-family="sans-serif" font-size="13" lengthAdjust="spacing" textLength="52" x="1007.5" y="456.2295">toDtoList</text><path d="M1566,476.0859 L1639,476.0859 L1639,484.4375 L1629,494.4375 L1566,494.4375 L1566,476.0859 " fill="#EEEEEE" style="stroke:#000000;stroke-width:1.5;"/><rect fill="none" height="108.9219" style="stroke:#000000;stroke-width:1.5;" width="429" x="1566" y="476.0859"/><text fill="#000000" font-family="sans-serif" font-size="13" font-weight="bold" lengthAdjust="spacing" textLength="28" x="1581" y="490.5811">loop</text><polygon fill="#181818" points="1851,512.7891,1861,516.7891,1851,520.7891,1855,516.7891" style="stroke:#181818;stroke-width:1.0;"/><line style="stroke:#181818;stroke-width:1.0;" x1="1653" x2="1857" y1="516.7891" y2="516.7891"/><text fill="#000000" font-family="sans-serif" font-size="13" font-weight="bold" lengthAdjust="spacing" textLength="14" x="1660" y="511.9326">13</text><text fill="#000000" font-family="sans-serif" font-size="13" lengthAdjust="spacing" textLength="36" x="1678" y="511.9326">create</text><rect fill="#E3E3E3" height="49.2188" rx="2.5" ry="2.5" style="stroke:#181818;stroke-width:0.5;" width="122" x="1863" y="494.4375"/><text fill="#000000" font-family="sans-serif" font-size="14" lengthAdjust="spacing" textLength="103" x="1872.5" y="515.9707">agendaEntryDto</text><text fill="#000000" font-family="sans-serif" font-size="14" lengthAdjust="spacing" textLength="108" x="1870" y="533.5801">:AgendaEntryDto</text><polygon fill="#181818" points="1664,573.0078,1654,577.0078,1664,581.0078,1660,577.0078" style="stroke:#181818;stroke-width:1.0;"/><line style="stroke:#181818;stroke-width:1.0;stroke-dasharray:2.0,2.0;" x1="1658" x2="1923" y1="577.0078" y2="577.0078"/><text fill="#000000" font-family="sans-serif" font-size="13" font-weight="bold" lengthAdjust="spacing" textLength="14" x="1670" y="572.1514">14</text><text fill="#000000" font-family="sans-serif" font-size="13" lengthAdjust="spacing" textLength="93" x="1688" y="572.1514">agendaEntryDto</text><polygon fill="#181818" points="998.5,610.3594,988.5,614.3594,998.5,618.3594,994.5,614.3594" style="stroke:#181818;stroke-width:1.0;"/><line style="stroke:#181818;stroke-width:1.0;stroke-dasharray:2.0,2.0;" x1="992.5" x2="1647" y1="614.3594" y2="614.3594"/><text fill="#000000" font-family="sans-serif" font-size="13" font-weight="bold" lengthAdjust="spacing" textLength="14" x="1004.5" y="609.5029">15</text><text fill="#000000" font-family="sans-serif" font-size="13" lengthAdjust="spacing" textLength="114" x="1022.5" y="609.5029">agendaEntryDtoList</text><polygon fill="#181818" points="1488,640.7109,1498,644.7109,1488,648.7109,1492,644.7109" style="stroke:#181818;stroke-width:1.0;"/><line style="stroke:#181818;stroke-width:1.0;" x1="987.5" x2="1494" y1="644.7109" y2="644.7109"/><text fill="#000000" font-family="sans-serif" font-size="13" font-weight="bold" lengthAdjust="spacing" textLength="14" x="994.5" y="639.8545">16</text><text fill="#000000" font-family="sans-serif" font-size="13" lengthAdjust="spacing" textLength="395" x="1012.5" y="639.8545">getAgendaEntriesAssignedToCollaborator(CLB, agendaEntryDtoList)</text><polygon fill="#181818" points="998.5,671.0625,988.5,675.0625,998.5,679.0625,994.5,675.0625" style="stroke:#181818;stroke-width:1.0;"/><line style="stroke:#181818;stroke-width:1.0;stroke-dasharray:2.0,2.0;" x1="992.5" x2="1504" y1="675.0625" y2="675.0625"/><text fill="#000000" font-family="sans-serif" font-size="13" font-weight="bold" lengthAdjust="spacing" textLength="14" x="1004.5" y="670.2061">17</text><text fill="#000000" font-family="sans-serif" font-size="13" lengthAdjust="spacing" textLength="114" x="1022.5" y="670.2061">agendaEntryDtoList</text><polygon fill="#181818" points="667.5,701.4141,657.5,705.4141,667.5,709.4141,663.5,705.4141" style="stroke:#181818;stroke-width:1.0;"/><line style="stroke:#181818;stroke-width:1.0;stroke-dasharray:2.0,2.0;" x1="661.5" x2="981.5" y1="705.4141" y2="705.4141"/><text fill="#000000" font-family="sans-serif" font-size="13" font-weight="bold" lengthAdjust="spacing" textLength="14" x="673.5" y="700.5576">18</text><text fill="#000000" font-family="sans-serif" font-size="13" lengthAdjust="spacing" textLength="114" x="691.5" y="700.5576">agendaEntryDtoList</text><polygon fill="#181818" points="37.5,731.7656,27.5,735.7656,37.5,739.7656,33.5,735.7656" style="stroke:#181818;stroke-width:1.0;"/><line style="stroke:#181818;stroke-width:1.0;" x1="31.5" x2="650.5" y1="735.7656" y2="735.7656"/><text fill="#000000" font-family="sans-serif" font-size="13" font-weight="bold" lengthAdjust="spacing" textLength="14" x="43.5" y="730.9092">19</text><text fill="#000000" font-family="sans-serif" font-size="13" lengthAdjust="spacing" textLength="578" x="61.5" y="730.9092">shows the list of the agendaEntry assign to the collaborator and requests to select the one to record</text><polygon fill="#181818" points="634.5,762.1172,644.5,766.1172,634.5,770.1172,638.5,766.1172" style="stroke:#181818;stroke-width:1.0;"/><line style="stroke:#181818;stroke-width:1.0;" x1="26.5" x2="640.5" y1="766.1172" y2="766.1172"/><text fill="#000000" font-family="sans-serif" font-size="13" font-weight="bold" lengthAdjust="spacing" textLength="14" x="33.5" y="761.2607">20</text><text fill="#000000" font-family="sans-serif" font-size="13" lengthAdjust="spacing" textLength="186" x="51.5" y="761.2607">select an assigned agendaEntry</text><polygon fill="#181818" points="37.5,792.4688,27.5,796.4688,37.5,800.4688,33.5,796.4688" style="stroke:#181818;stroke-width:1.0;"/><line style="stroke:#181818;stroke-width:1.0;stroke-dasharray:2.0,2.0;" x1="31.5" x2="650.5" y1="796.4688" y2="796.4688"/><text fill="#000000" font-family="sans-serif" font-size="13" font-weight="bold" lengthAdjust="spacing" textLength="14" x="43.5" y="791.6123">21</text><text fill="#000000" font-family="sans-serif" font-size="13" lengthAdjust="spacing" textLength="260" x="61.5" y="791.6123">show agendaEntry and requests confirmation</text><polygon fill="#181818" points="634.5,822.8203,644.5,826.8203,634.5,830.8203,638.5,826.8203" style="stroke:#181818;stroke-width:1.0;"/><line style="stroke:#181818;stroke-width:1.0;" x1="26.5" x2="640.5" y1="826.8203" y2="826.8203"/><text fill="#000000" font-family="sans-serif" font-size="13" font-weight="bold" lengthAdjust="spacing" textLength="14" x="33.5" y="821.9639">22</text><text fill="#000000" font-family="sans-serif" font-size="13" lengthAdjust="spacing" textLength="78" x="51.5" y="821.9639">confirms data</text><polygon fill="#181818" points="965.5,853.1719,975.5,857.1719,965.5,861.1719,969.5,857.1719" style="stroke:#181818;stroke-width:1.0;"/><line style="stroke:#181818;stroke-width:1.0;" x1="651.5" x2="971.5" y1="857.1719" y2="857.1719"/><text fill="#000000" font-family="sans-serif" font-size="13" font-weight="bold" lengthAdjust="spacing" textLength="14" x="658.5" y="852.3154">23</text><text fill="#000000" font-family="sans-serif" font-size="13" lengthAdjust="spacing" textLength="284" x="676.5" y="852.3154">recordEntryCompletion(selectedAgendaEntryDto)</text><polygon fill="#181818" points="1631,883.5234,1641,887.5234,1631,891.5234,1635,887.5234" style="stroke:#181818;stroke-width:1.0;"/><line style="stroke:#181818;stroke-width:1.0;" x1="987.5" x2="1637" y1="887.5234" y2="887.5234"/><text fill="#000000" font-family="sans-serif" font-size="13" font-weight="bold" lengthAdjust="spacing" textLength="14" x="994.5" y="882.667">24</text><text fill="#000000" font-family="sans-serif" font-size="13" lengthAdjust="spacing" textLength="207" x="1012.5" y="882.667">toDomain(selectedAgendaEntryDto)</text><polygon fill="#181818" points="1719,913.875,1729,917.875,1719,921.875,1723,917.875" style="stroke:#181818;stroke-width:1.0;"/><line style="stroke:#181818;stroke-width:1.0;" x1="1653" x2="1725" y1="917.875" y2="917.875"/><text fill="#000000" font-family="sans-serif" font-size="13" font-weight="bold" lengthAdjust="spacing" textLength="14" x="1660" y="913.0186">25</text><text fill="#000000" font-family="sans-serif" font-size="13" lengthAdjust="spacing" textLength="36" x="1678" y="913.0186">create</text><rect fill="#E3E3E3" height="49.2188" rx="2.5" ry="2.5" style="stroke:#181818;stroke-width:0.5;" width="100" x="1731" y="895.5234"/><text fill="#000000" font-family="sans-serif" font-size="14" lengthAdjust="spacing" textLength="81" x="1740.5" y="917.0566">agendaEntry</text><text fill="#000000" font-family="sans-serif" font-size="14" lengthAdjust="spacing" textLength="86" x="1738" y="934.666">:AgendaEntry</text><polygon fill="#181818" points="1664,974.0938,1654,978.0938,1664,982.0938,1660,978.0938" style="stroke:#181818;stroke-width:1.0;"/><line style="stroke:#181818;stroke-width:1.0;stroke-dasharray:2.0,2.0;" x1="1658" x2="1780" y1="978.0938" y2="978.0938"/><text fill="#000000" font-family="sans-serif" font-size="13" font-weight="bold" lengthAdjust="spacing" textLength="14" x="1670" y="973.2373">26</text><text fill="#000000" font-family="sans-serif" font-size="13" lengthAdjust="spacing" textLength="73" x="1688" y="973.2373">agendaEntry</text><polygon fill="#181818" points="998.5,1004.4453,988.5,1008.4453,998.5,1012.4453,994.5,1008.4453" style="stroke:#181818;stroke-width:1.0;"/><line style="stroke:#181818;stroke-width:1.0;stroke-dasharray:2.0,2.0;" x1="992.5" x2="1647" y1="1008.4453" y2="1008.4453"/><text fill="#000000" font-family="sans-serif" font-size="13" font-weight="bold" lengthAdjust="spacing" textLength="14" x="1004.5" y="1003.5889">27</text><text fill="#000000" font-family="sans-serif" font-size="13" lengthAdjust="spacing" textLength="73" x="1022.5" y="1003.5889">agendaEntry</text><polygon fill="#181818" points="1357.5,1034.7969,1367.5,1038.7969,1357.5,1042.7969,1361.5,1038.7969" style="stroke:#181818;stroke-width:1.0;"/><line style="stroke:#181818;stroke-width:1.0;" x1="982.5" x2="1363.5" y1="1038.7969" y2="1038.7969"/><text fill="#000000" font-family="sans-serif" font-size="13" font-weight="bold" lengthAdjust="spacing" textLength="14" x="989.5" y="1033.9404">28</text><text fill="#000000" font-family="sans-serif" font-size="13" lengthAdjust="spacing" textLength="345" x="1007.5" y="1033.9404">recordAgendaEntryCompletion(agendaEntry, COMPLETED)</text><polygon fill="#181818" points="1764,1065.1484,1774,1069.1484,1764,1073.1484,1768,1069.1484" style="stroke:#181818;stroke-width:1.0;"/><line style="stroke:#181818;stroke-width:1.0;" x1="1379.5" x2="1770" y1="1069.1484" y2="1069.1484"/><text fill="#000000" font-family="sans-serif" font-size="13" font-weight="bold" lengthAdjust="spacing" textLength="14" x="1386.5" y="1064.292">29</text><text fill="#000000" font-family="sans-serif" font-size="13" lengthAdjust="spacing" textLength="144" x="1404.5" y="1064.292">setStatus(COMPLETED)</text><polygon fill="#181818" points="1390.5,1095.5,1380.5,1099.5,1390.5,1103.5,1386.5,1099.5" style="stroke:#181818;stroke-width:1.0;"/><line style="stroke:#181818;stroke-width:1.0;" x1="1384.5" x2="1780" y1="1099.5" y2="1099.5"/><text fill="#000000" font-family="sans-serif" font-size="13" font-weight="bold" lengthAdjust="spacing" textLength="14" x="1396.5" y="1094.6436">30</text><text fill="#000000" font-family="sans-serif" font-size="13" lengthAdjust="spacing" textLength="49" x="1414.5" y="1094.6436">success</text><polygon fill="#181818" points="1764,1125.8516,1774,1129.8516,1764,1133.8516,1768,1129.8516" style="stroke:#181818;stroke-width:1.0;"/><line style="stroke:#181818;stroke-width:1.0;" x1="1379.5" x2="1770" y1="1129.8516" y2="1129.8516"/><text fill="#000000" font-family="sans-serif" font-size="13" font-weight="bold" lengthAdjust="spacing" textLength="14" x="1386.5" y="1124.9951">31</text><text fill="#000000" font-family="sans-serif" font-size="13" lengthAdjust="spacing" textLength="150" x="1404.5" y="1124.9951">setAvailable(agendaEntry)</text><line style="stroke:#181818;stroke-width:1.0;" x1="1786" x2="1828" y1="1160.2031" y2="1160.2031"/><line style="stroke:#181818;stroke-width:1.0;" x1="1828" x2="1828" y1="1160.2031" y2="1173.2031"/><line style="stroke:#181818;stroke-width:1.0;" x1="1787" x2="1828" y1="1173.2031" y2="1173.2031"/><polygon fill="#181818" points="1797,1169.2031,1787,1173.2031,1797,1177.2031,1793,1173.2031" style="stroke:#181818;stroke-width:1.0;"/><text fill="#000000" font-family="sans-serif" font-size="13" font-weight="bold" lengthAdjust="spacing" textLength="14" x="1793" y="1155.3467">32</text><text fill="#000000" font-family="sans-serif" font-size="13" lengthAdjust="spacing" textLength="101" x="1811" y="1155.3467">setTeamAvailable</text><polygon fill="#181818" points="1390.5,1199.5547,1380.5,1203.5547,1390.5,1207.5547,1386.5,1203.5547" style="stroke:#181818;stroke-width:1.0;"/><line style="stroke:#181818;stroke-width:1.0;stroke-dasharray:2.0,2.0;" x1="1384.5" x2="1780" y1="1203.5547" y2="1203.5547"/><text fill="#000000" font-family="sans-serif" font-size="13" font-weight="bold" lengthAdjust="spacing" textLength="14" x="1396.5" y="1198.6982">33</text><text fill="#000000" font-family="sans-serif" font-size="13" lengthAdjust="spacing" textLength="49" x="1414.5" y="1198.6982">success</text><polygon fill="#181818" points="998.5,1229.9063,988.5,1233.9063,998.5,1237.9063,994.5,1233.9063" style="stroke:#181818;stroke-width:1.0;"/><line style="stroke:#181818;stroke-width:1.0;stroke-dasharray:2.0,2.0;" x1="992.5" x2="1373.5" y1="1233.9063" y2="1233.9063"/><text fill="#000000" font-family="sans-serif" font-size="13" font-weight="bold" lengthAdjust="spacing" textLength="14" x="1004.5" y="1229.0498">34</text><text fill="#000000" font-family="sans-serif" font-size="13" lengthAdjust="spacing" textLength="49" x="1022.5" y="1229.0498">success</text><polygon fill="#181818" points="667.5,1260.2578,657.5,1264.2578,667.5,1268.2578,663.5,1264.2578" style="stroke:#181818;stroke-width:1.0;"/><line style="stroke:#181818;stroke-width:1.0;stroke-dasharray:2.0,2.0;" x1="661.5" x2="981.5" y1="1264.2578" y2="1264.2578"/><text fill="#000000" font-family="sans-serif" font-size="13" font-weight="bold" lengthAdjust="spacing" textLength="14" x="673.5" y="1259.4014">35</text><text fill="#000000" font-family="sans-serif" font-size="13" lengthAdjust="spacing" textLength="49" x="691.5" y="1259.4014">success</text><polygon fill="#181818" points="37.5,1290.6094,27.5,1294.6094,37.5,1298.6094,33.5,1294.6094" style="stroke:#181818;stroke-width:1.0;"/><line style="stroke:#181818;stroke-width:1.0;stroke-dasharray:2.0,2.0;" x1="31.5" x2="650.5" y1="1294.6094" y2="1294.6094"/><text fill="#000000" font-family="sans-serif" font-size="13" font-weight="bold" lengthAdjust="spacing" textLength="14" x="43.5" y="1289.7529">36</text><text fill="#000000" font-family="sans-serif" font-size="13" lengthAdjust="spacing" textLength="390" x="61.5" y="1289.7529">displays a success message (agendaEntry recorded as completed)</text><!--SRC=[hLVDRk8m4Bxp55PFWDeNuB0IIpbKechLqjjUt6IWLfCu6vjMlFsEtU3Cn35GkZb0i6U- -ViyOyoxgchPo5AKkjBPMwDB4BRPmSY4dLfcxt8BptPVW6WWixBQ5bJ0lCbSVwfgApQoC30QoPtLrQvyXGRVCwiRSRLO_RuIqWZy7g6MLPcgPMN5rUm9Cjtaoyes-vSxB_DobnPPQFpKHG7D5zpwQHK9rzeeDAh0U9cmi7zMpdFqZQiqHEDF5GCyhkPhhW7EbGvtXbfBlkGLmnhNjY1BhhncArxtiCHLvrkeSkbnxsLTjraWlxcuxCJH2b7sQkHtKktMQgw92rwPounyeTM7jE1BF1Buu8ku-ONb53FKU3V2QiSVBAMG8jDbZRK02kIr0WxIm2-u1p4GoLLxEaMqh06K2BivKAN3QkUG8qbOzfxXYWCSeCPCRC7ULGPPdi5umjG2uX2bcAHx1eJ4JHl5J53ICLKIp4apXpWSGuNtd3CfvRzdTEImH-ayv3HD-HX3nKxrpiQFlEeTlUDk3J64iw4ZblUK4FrXiy0-8rzr8z7GIXbB_BwGRo4HFMF8WPu11jZr4ROVbabwo6boYAdq912PdryD1NcWyO0V0_FnfXrl6nEJABIkur8JSUS5Rp7JQNJk8tlzfXG9idsVDXPgJx-lJc8-PWbt1W9amGtLwqIMQIu7Wq_Jxj0KOjRDZL7R2lArfcGVO-U-7d0jGSymgkA47xOkYhZ3vG65cP96EdNUSJBDyDwYFt4elO4eK5VeZNydg3YrN7hSt78x6KcHa5Za1lxkm5W_s0mKU3NoShg2RjIDuW4L3STMLrQjGSZFduei6kuyzJ3JrKOrfRGAPyWPBhNoHkJIodFcifYr0RVND3_TqTZuApZ8-HrYylFXJG-KxrAwbEgqlVCQr40x8e13bv08crwl8YcosMz3dDd7cj1H2qFzvWXqejCS7sEXwCGJKdfYwrei7kuVLylrydPouHo9nrLl2B8I-MDbdwsqEpDEsBwmN3m1PfTbOCpFwfGCOFuX5JQT0cWo_rCKaJ7NS8F1CpbxOHPEN6GIY8Ctc6yDmz1oU-Wf6fxkkxaoTI7t-8_e02fA_C1o2Lgpzg2urcx2dvzyCj2B_m40]--></g></svg>