<?xml version="1.0" encoding="UTF-8" standalone="no"?><svg xmlns="http://www.w3.org/2000/svg" xmlns:xlink="http://www.w3.org/1999/xlink" contentStyleType="text/css" height="326px" preserveAspectRatio="none" style="width:682px;height:326px;background:#FFFFFF;" version="1.1" viewBox="0 0 682 326" width="682px" zoomAndPan="magnify"><defs/><g><rect fill="#FFFFFF" height="55.7031" style="stroke:#181818;stroke-width:1.0;" width="10" x="251" y="87.5703"/><rect fill="#FFFFFF" height="37.3516" style="stroke:#181818;stroke-width:1.0;" width="10" x="251" y="216.9766"/><rect fill="#FFFFFF" height="73.7031" style="stroke:#181818;stroke-width:1.0;" width="10" x="512" y="143.2734"/><rect fill="none" height="122.4063" style="stroke:#000000;stroke-width:1.5;" width="491" x="185" y="102.5703"/><line style="stroke:#181818;stroke-width:0.5;stroke-dasharray:5.0,5.0;" x1="256" x2="256" y1="55.2188" y2="272.3281"/><line style="stroke:#181818;stroke-width:0.5;stroke-dasharray:5.0,5.0;" x1="516.5" x2="516.5" y1="55.2188" y2="272.3281"/><rect fill="#E3E3E3" height="49.2188" rx="2.5" ry="2.5" style="stroke:#181818;stroke-width:0.5;" width="122" x="195" y="5"/><text fill="#000000" font-family="sans-serif" font-size="14" lengthAdjust="spacing" textLength="108" x="202" y="26.5332">TeamRepository:</text><text fill="#000000" font-family="sans-serif" font-size="14" lengthAdjust="spacing" textLength="104" x="204" y="44.1426">TeamRepository</text><rect fill="#E3E3E3" height="49.2188" rx="2.5" ry="2.5" style="stroke:#181818;stroke-width:0.5;" width="122" x="195" y="271.3281"/><text fill="#000000" font-family="sans-serif" font-size="14" lengthAdjust="spacing" textLength="108" x="202" y="292.8613">TeamRepository:</text><text fill="#000000" font-family="sans-serif" font-size="14" lengthAdjust="spacing" textLength="104" x="204" y="310.4707">TeamRepository</text><rect fill="#E3E3E3" height="49.2188" rx="2.5" ry="2.5" style="stroke:#181818;stroke-width:0.5;" width="49" x="492.5" y="5"/><text fill="#000000" font-family="sans-serif" font-size="14" lengthAdjust="spacing" textLength="26" x="504" y="26.5332">task</text><text fill="#000000" font-family="sans-serif" font-size="14" lengthAdjust="spacing" textLength="35" x="499.5" y="44.1426">:Task</text><rect fill="#E3E3E3" height="49.2188" rx="2.5" ry="2.5" style="stroke:#181818;stroke-width:0.5;" width="49" x="492.5" y="271.3281"/><text fill="#000000" font-family="sans-serif" font-size="14" lengthAdjust="spacing" textLength="26" x="504" y="292.8613">task</text><text fill="#000000" font-family="sans-serif" font-size="14" lengthAdjust="spacing" textLength="35" x="499.5" y="310.4707">:Task</text><rect fill="#FFFFFF" height="55.7031" style="stroke:#181818;stroke-width:1.0;" width="10" x="251" y="87.5703"/><rect fill="#FFFFFF" height="37.3516" style="stroke:#181818;stroke-width:1.0;" width="10" x="251" y="216.9766"/><rect fill="#FFFFFF" height="73.7031" style="stroke:#181818;stroke-width:1.0;" width="10" x="512" y="143.2734"/><polygon fill="#181818" points="239,83.5703,249,87.5703,239,91.5703,243,87.5703" style="stroke:#181818;stroke-width:1.0;"/><line style="stroke:#181818;stroke-width:1.0;" x1="0" x2="245" y1="87.5703" y2="87.5703"/><text fill="#000000" font-family="sans-serif" font-size="13" font-weight="bold" lengthAdjust="spacing" textLength="14" x="7" y="82.7139">13</text><text fill="#000000" font-family="sans-serif" font-size="13" lengthAdjust="spacing" textLength="214" x="25" y="82.7139">recordTaskCompletion(selectedTask)</text><path d="M185,102.5703 L385,102.5703 L385,110.9219 L375,120.9219 L185,120.9219 L185,102.5703 " fill="#EEEEEE" style="stroke:#000000;stroke-width:1.5;"/><rect fill="none" height="122.4063" style="stroke:#000000;stroke-width:1.5;" width="491" x="185" y="102.5703"/><text fill="#000000" font-family="sans-serif" font-size="13" font-weight="bold" lengthAdjust="spacing" textLength="155" x="200" y="117.0654">Record Task Completion</text><polygon fill="#181818" points="500,139.2734,510,143.2734,500,147.2734,504,143.2734" style="stroke:#181818;stroke-width:1.0;"/><line style="stroke:#181818;stroke-width:1.0;" x1="256" x2="506" y1="143.2734" y2="143.2734"/><text fill="#000000" font-family="sans-serif" font-size="13" font-weight="bold" lengthAdjust="spacing" textLength="14" x="263" y="138.417">14</text><text fill="#000000" font-family="sans-serif" font-size="13" lengthAdjust="spacing" textLength="214" x="281" y="138.417">recordTaskCompletion(selectedTask)</text><line style="stroke:#181818;stroke-width:1.0;" x1="522" x2="564" y1="173.625" y2="173.625"/><line style="stroke:#181818;stroke-width:1.0;" x1="564" x2="564" y1="173.625" y2="186.625"/><line style="stroke:#181818;stroke-width:1.0;" x1="523" x2="564" y1="186.625" y2="186.625"/><polygon fill="#181818" points="533,182.625,523,186.625,533,190.625,529,186.625" style="stroke:#181818;stroke-width:1.0;"/><text fill="#000000" font-family="sans-serif" font-size="13" font-weight="bold" lengthAdjust="spacing" textLength="14" x="529" y="168.7686">15</text><text fill="#000000" font-family="sans-serif" font-size="13" lengthAdjust="spacing" textLength="117" x="547" y="168.7686">setStatus(complete)</text><polygon fill="#181818" points="272,212.9766,262,216.9766,272,220.9766,268,216.9766" style="stroke:#181818;stroke-width:1.0;"/><line style="stroke:#181818;stroke-width:1.0;stroke-dasharray:2.0,2.0;" x1="266" x2="516" y1="216.9766" y2="216.9766"/><text fill="#000000" font-family="sans-serif" font-size="13" font-weight="bold" lengthAdjust="spacing" textLength="14" x="278" y="212.1201">16</text><text fill="#000000" font-family="sans-serif" font-size="13" lengthAdjust="spacing" textLength="49" x="296" y="212.1201">success</text><polygon fill="#181818" points="11,250.3281,1,254.3281,11,258.3281,7,254.3281" style="stroke:#181818;stroke-width:1.0;"/><line style="stroke:#181818;stroke-width:1.0;stroke-dasharray:2.0,2.0;" x1="5" x2="255" y1="254.3281" y2="254.3281"/><text fill="#000000" font-family="sans-serif" font-size="13" font-weight="bold" lengthAdjust="spacing" textLength="14" x="17" y="249.4717">17</text><text fill="#000000" font-family="sans-serif" font-size="13" lengthAdjust="spacing" textLength="49" x="35" y="249.4717">success</text><!--SRC=[ZP0zRiCm38LtdOB8b0mUYcn6qQKtI39cOMNM4MpzGAHQvFQrPAEkrGQe5Wdaq_iUoODn0IDQiDvvVOlU4aXCfFYx4r0FsDDPxYD192te-l6dW6_O-K_ZUdZ7aKafDTN5Q1FG2UmkXFP4mRCH7-_jrMqBEq26RMdxNv27gsilqpLhfuTIcCIxPDyemjDHDI-L1RGvgezTLhzw6qOIuzsUQPmce58-ADHYFb2evYkOJXzz2d0gBWKAgy-ig90vH9Rz2vt_T_GeGEwklJ8mBASWLXIJd0KbyLxFA3eiuOhkhyLmqfgOVqN8c2susegQdSbrIvpdfgb4g_lZuTGN]--></g></svg>