<?xml version="1.0" encoding="UTF-8" standalone="no"?><svg xmlns="http://www.w3.org/2000/svg" xmlns:xlink="http://www.w3.org/1999/xlink" contentStyleType="text/css" height="1210px" preserveAspectRatio="none" style="width:2560px;height:1210px;background:#FFFFFF;" version="1.1" viewBox="0 0 2560 1210" width="2560px" zoomAndPan="magnify"><defs/><g><!--cluster UI--><g id="cluster_UI"><path d="M655.5,6 L670.5,6 A3.75,3.75 0 0 1 673,8.5 L680,29.6094 L806.5,29.6094 A2.5,2.5 0 0 1 809,32.1094 L809,103.5 A2.5,2.5 0 0 1 806.5,106 L655.5,106 A2.5,2.5 0 0 1 653,103.5 L653,8.5 A2.5,2.5 0 0 1 655.5,6 " fill="none" style="stroke:#000000;stroke-width:1.5;"/><line style="stroke:#000000;stroke-width:1.5;" x1="653" x2="680" y1="29.6094" y2="29.6094"/><text fill="#000000" font-family="sans-serif" font-size="14" font-weight="bold" lengthAdjust="spacing" textLength="14" x="657" y="22.5332">UI</text></g><!--cluster CONTROLLER--><g id="cluster_CONTROLLER"><path d="M434.5,139 L530.5,139 A3.75,3.75 0 0 1 533,141.5 L540,162.6094 L1027.5,162.6094 A2.5,2.5 0 0 1 1030,165.1094 L1030,342.5 A2.5,2.5 0 0 1 1027.5,345 L434.5,345 A2.5,2.5 0 0 1 432,342.5 L432,141.5 A2.5,2.5 0 0 1 434.5,139 " fill="none" style="stroke:#000000;stroke-width:1.5;"/><line style="stroke:#000000;stroke-width:1.5;" x1="432" x2="540" y1="162.6094" y2="162.6094"/><text fill="#000000" font-family="sans-serif" font-size="14" font-weight="bold" lengthAdjust="spacing" textLength="95" x="436" y="155.5332">CONTROLLER</text></g><!--cluster DOMAIN--><g id="cluster_DOMAIN"><path d="M8.5,378 L66.5,378 A3.75,3.75 0 0 1 69,380.5 L76,401.6094 L1322.5,401.6094 A2.5,2.5 0 0 1 1325,404.1094 L1325,1181 A2.5,2.5 0 0 1 1322.5,1183.5 L8.5,1183.5 A2.5,2.5 0 0 1 6,1181 L6,380.5 A2.5,2.5 0 0 1 8.5,378 " fill="none" style="stroke:#000000;stroke-width:1.5;"/><line style="stroke:#000000;stroke-width:1.5;" x1="6" x2="76" y1="401.6094" y2="401.6094"/><text fill="#000000" font-family="sans-serif" font-size="14" font-weight="bold" lengthAdjust="spacing" textLength="57" x="10" y="394.5332">DOMAIN</text></g><!--cluster REPOSITORY--><g id="cluster_REPOSITORY"><path d="M32.5,422 L124.5,422 A3.75,3.75 0 0 1 127,424.5 L134,445.6094 L1298.5,445.6094 A2.5,2.5 0 0 1 1301,448.1094 L1301,826 A2.5,2.5 0 0 1 1298.5,828.5 L32.5,828.5 A2.5,2.5 0 0 1 30,826 L30,424.5 A2.5,2.5 0 0 1 32.5,422 " fill="none" style="stroke:#000000;stroke-width:1.5;"/><line style="stroke:#000000;stroke-width:1.5;" x1="30" x2="134" y1="445.6094" y2="445.6094"/><text fill="#000000" font-family="sans-serif" font-size="14" font-weight="bold" lengthAdjust="spacing" textLength="91" x="34" y="438.5332">REPOSITORY</text></g><!--cluster MODEL--><g id="cluster_MODEL"><path d="M87.5,883.5 L139.5,883.5 A3.75,3.75 0 0 1 142,886 L149,907.1094 L1242.5,907.1094 A2.5,2.5 0 0 1 1245,909.6094 L1245,1157 A2.5,2.5 0 0 1 1242.5,1159.5 L87.5,1159.5 A2.5,2.5 0 0 1 85,1157 L85,886 A2.5,2.5 0 0 1 87.5,883.5 " fill="none" style="stroke:#000000;stroke-width:1.5;"/><line style="stroke:#000000;stroke-width:1.5;" x1="85" x2="149" y1="907.1094" y2="907.1094"/><text fill="#000000" font-family="sans-serif" font-size="14" font-weight="bold" lengthAdjust="spacing" textLength="51" x="89" y="900.0332">MODEL</text></g><!--cluster DTO--><g id="cluster_DTO"><path d="M1351.5,676 L1381.5,676 A3.75,3.75 0 0 1 1384,678.5 L1391,699.6094 L2550.5,699.6094 A2.5,2.5 0 0 1 2553,702.1094 L2553,1201 A2.5,2.5 0 0 1 2550.5,1203.5 L1351.5,1203.5 A2.5,2.5 0 0 1 1349,1201 L1349,678.5 A2.5,2.5 0 0 1 1351.5,676 " fill="none" style="stroke:#000000;stroke-width:1.5;"/><line style="stroke:#000000;stroke-width:1.5;" x1="1349" x2="1391" y1="699.6094" y2="699.6094"/><text fill="#000000" font-family="sans-serif" font-size="14" font-weight="bold" lengthAdjust="spacing" textLength="29" x="1353" y="692.5332">DTO</text></g><!--class RecordEntryUI--><g id="elem_RecordEntryUI"><rect codeLine="5" fill="#F1F1F1" height="48" id="RecordEntryUI" rx="2.5" ry="2.5" style="stroke:#181818;stroke-width:0.5;" width="123" x="669.5" y="42"/><ellipse cx="684.5" cy="58" fill="#ADD1B2" rx="11" ry="11" style="stroke:#181818;stroke-width:1.0;"/><path d="M687.2656,53.875 Q687.4219,53.6563 687.6094,53.5469 Q687.7969,53.4375 688.0156,53.4375 Q688.3906,53.4375 688.625,53.7031 Q688.8594,53.9531 688.8594,54.5625 L688.8594,56.0156 Q688.8594,56.625 688.625,56.8906 Q688.3906,57.1563 688.0156,57.1563 Q687.6719,57.1563 687.4688,56.9531 Q687.2656,56.7656 687.1563,56.25 Q687.1094,55.8906 686.9219,55.7031 Q686.5938,55.3281 685.9844,55.1094 Q685.375,54.8906 684.75,54.8906 Q683.9844,54.8906 683.3438,55.2188 Q682.7188,55.5469 682.2188,56.2969 Q681.7344,57.0469 681.7344,58.0781 L681.7344,59.1719 Q681.7344,60.4063 682.625,61.2344 Q683.5156,62.0469 685.1094,62.0469 Q686.0469,62.0469 686.7031,61.7969 Q687.0938,61.6406 687.5156,61.2031 Q687.7813,60.9375 687.9219,60.8594 Q688.0781,60.7813 688.2813,60.7813 Q688.6094,60.7813 688.8594,61.0469 Q689.125,61.2969 689.125,61.6406 Q689.125,61.9844 688.7813,62.3906 Q688.2813,62.9688 687.4844,63.2969 Q686.4063,63.75 685.1094,63.75 Q683.5938,63.75 682.3906,63.125 Q681.4063,62.625 680.7188,61.5625 Q680.0313,60.4844 680.0313,59.2031 L680.0313,58.0469 Q680.0313,56.7188 680.6406,55.5781 Q681.2656,54.4219 682.3594,53.8125 Q683.4531,53.1875 684.6875,53.1875 Q685.4219,53.1875 686.0625,53.3594 Q686.7188,53.5156 687.2656,53.875 Z " fill="#000000"/><text fill="#000000" font-family="sans-serif" font-size="14" lengthAdjust="spacing" textLength="91" x="698.5" y="63.7285">RecordEntryUI</text><line style="stroke:#181818;stroke-width:0.5;" x1="670.5" x2="791.5" y1="74" y2="74"/><line style="stroke:#181818;stroke-width:0.5;" x1="670.5" x2="791.5" y1="82" y2="82"/></g><!--class RecordEntryController--><g id="elem_RecordEntryController"><rect codeLine="10" fill="#F1F1F1" height="153.6563" id="RecordEntryController" rx="2.5" ry="2.5" style="stroke:#181818;stroke-width:0.5;" width="565" x="448.5" y="175"/><ellipse cx="656.25" cy="191" fill="#ADD1B2" rx="11" ry="11" style="stroke:#181818;stroke-width:1.0;"/><path d="M659.0156,186.875 Q659.1719,186.6563 659.3594,186.5469 Q659.5469,186.4375 659.7656,186.4375 Q660.1406,186.4375 660.375,186.7031 Q660.6094,186.9531 660.6094,187.5625 L660.6094,189.0156 Q660.6094,189.625 660.375,189.8906 Q660.1406,190.1563 659.7656,190.1563 Q659.4219,190.1563 659.2188,189.9531 Q659.0156,189.7656 658.9063,189.25 Q658.8594,188.8906 658.6719,188.7031 Q658.3438,188.3281 657.7344,188.1094 Q657.125,187.8906 656.5,187.8906 Q655.7344,187.8906 655.0938,188.2188 Q654.4688,188.5469 653.9688,189.2969 Q653.4844,190.0469 653.4844,191.0781 L653.4844,192.1719 Q653.4844,193.4063 654.375,194.2344 Q655.2656,195.0469 656.8594,195.0469 Q657.7969,195.0469 658.4531,194.7969 Q658.8438,194.6406 659.2656,194.2031 Q659.5313,193.9375 659.6719,193.8594 Q659.8281,193.7813 660.0313,193.7813 Q660.3594,193.7813 660.6094,194.0469 Q660.875,194.2969 660.875,194.6406 Q660.875,194.9844 660.5313,195.3906 Q660.0313,195.9688 659.2344,196.2969 Q658.1563,196.75 656.8594,196.75 Q655.3438,196.75 654.1406,196.125 Q653.1563,195.625 652.4688,194.5625 Q651.7813,193.4844 651.7813,192.2031 L651.7813,191.0469 Q651.7813,189.7188 652.3906,188.5781 Q653.0156,187.4219 654.1094,186.8125 Q655.2031,186.1875 656.4375,186.1875 Q657.1719,186.1875 657.8125,186.3594 Q658.4688,186.5156 659.0156,186.875 Z " fill="#000000"/><text fill="#000000" font-family="sans-serif" font-size="14" lengthAdjust="spacing" textLength="141" x="676.75" y="196.7285">RecordEntryController</text><line style="stroke:#181818;stroke-width:0.5;" x1="449.5" x2="1012.5" y1="207" y2="207"/><rect fill="none" height="6" style="stroke:#C82930;stroke-width:1.0;" width="6" x="456.5" y="218.3047"/><text fill="#000000" font-family="sans-serif" font-size="14" lengthAdjust="spacing" textLength="161" x="468.5" y="225.5332">repositories: Repositories</text><rect fill="none" height="6" style="stroke:#C82930;stroke-width:1.0;" width="6" x="456.5" y="235.9141"/><text fill="#000000" font-family="sans-serif" font-size="14" lengthAdjust="spacing" textLength="209" x="468.5" y="243.1426">entryRepository: EntryRepository</text><rect fill="none" height="6" style="stroke:#C82930;stroke-width:1.0;" width="6" x="456.5" y="253.5234"/><text fill="#000000" font-family="sans-serif" font-size="14" lengthAdjust="spacing" textLength="211" x="468.5" y="260.752">teamRepository: TeamRepository</text><line style="stroke:#181818;stroke-width:0.5;" x1="449.5" x2="1012.5" y1="267.8281" y2="267.8281"/><ellipse cx="459.5" cy="282.1328" fill="#84BE84" rx="3" ry="3" style="stroke:#038048;stroke-width:1.0;"/><text fill="#000000" font-family="sans-serif" font-size="14" lengthAdjust="spacing" textLength="151" x="468.5" y="286.3613">RecordEntryController()</text><ellipse cx="459.5" cy="299.7422" fill="#84BE84" rx="3" ry="3" style="stroke:#038048;stroke-width:1.0;"/><text fill="#000000" font-family="sans-serif" font-size="14" lengthAdjust="spacing" textLength="539" x="468.5" y="303.9707">getAgendaEntryOfCollaboratorList(collaborator: UserSession): List&lt;AgendaEntryDto&gt;</text><ellipse cx="459.5" cy="317.3516" fill="#84BE84" rx="3" ry="3" style="stroke:#038048;stroke-width:1.0;"/><text fill="#000000" font-family="sans-serif" font-size="14" lengthAdjust="spacing" textLength="380" x="468.5" y="321.5801">recordEntryCompletion(entryDto: AgendaEntryDto): boolean</text></g><!--class Repositories--><g id="elem_Repositories"><rect codeLine="22" fill="#F1F1F1" height="171.2656" id="Repositories" rx="2.5" ry="2.5" style="stroke:#181818;stroke-width:0.5;" width="272" x="327" y="458"/><ellipse cx="419.25" cy="474" fill="#ADD1B2" rx="11" ry="11" style="stroke:#181818;stroke-width:1.0;"/><path d="M422.0156,469.875 Q422.1719,469.6563 422.3594,469.5469 Q422.5469,469.4375 422.7656,469.4375 Q423.1406,469.4375 423.375,469.7031 Q423.6094,469.9531 423.6094,470.5625 L423.6094,472.0156 Q423.6094,472.625 423.375,472.8906 Q423.1406,473.1563 422.7656,473.1563 Q422.4219,473.1563 422.2188,472.9531 Q422.0156,472.7656 421.9063,472.25 Q421.8594,471.8906 421.6719,471.7031 Q421.3438,471.3281 420.7344,471.1094 Q420.125,470.8906 419.5,470.8906 Q418.7344,470.8906 418.0938,471.2188 Q417.4688,471.5469 416.9688,472.2969 Q416.4844,473.0469 416.4844,474.0781 L416.4844,475.1719 Q416.4844,476.4063 417.375,477.2344 Q418.2656,478.0469 419.8594,478.0469 Q420.7969,478.0469 421.4531,477.7969 Q421.8438,477.6406 422.2656,477.2031 Q422.5313,476.9375 422.6719,476.8594 Q422.8281,476.7813 423.0313,476.7813 Q423.3594,476.7813 423.6094,477.0469 Q423.875,477.2969 423.875,477.6406 Q423.875,477.9844 423.5313,478.3906 Q423.0313,478.9688 422.2344,479.2969 Q421.1563,479.75 419.8594,479.75 Q418.3438,479.75 417.1406,479.125 Q416.1563,478.625 415.4688,477.5625 Q414.7813,476.4844 414.7813,475.2031 L414.7813,474.0469 Q414.7813,472.7188 415.3906,471.5781 Q416.0156,470.4219 417.1094,469.8125 Q418.2031,469.1875 419.4375,469.1875 Q420.1719,469.1875 420.8125,469.3594 Q421.4688,469.5156 422.0156,469.875 Z " fill="#000000"/><text fill="#000000" font-family="sans-serif" font-size="14" lengthAdjust="spacing" textLength="79" x="439.75" y="479.7285">Repositories</text><line style="stroke:#181818;stroke-width:0.5;" x1="328" x2="598" y1="490" y2="490"/><rect fill="none" height="6" style="stroke:#C82930;stroke-width:1.0;" width="6" x="335" y="501.3047"/><text fill="#000000" font-family="sans-serif" font-size="14" lengthAdjust="spacing" textLength="140" x="347" y="508.5332">instance: Repositories</text><rect fill="none" height="6" style="stroke:#C82930;stroke-width:1.0;" width="6" x="335" y="518.9141"/><text fill="#000000" font-family="sans-serif" font-size="14" lengthAdjust="spacing" textLength="209" x="347" y="526.1426">entryRepository: EntryRepository</text><rect fill="none" height="6" style="stroke:#C82930;stroke-width:1.0;" width="6" x="335" y="536.5234"/><text fill="#000000" font-family="sans-serif" font-size="14" lengthAdjust="spacing" textLength="211" x="347" y="543.752">teamRepository: TeamRepository</text><line style="stroke:#181818;stroke-width:0.5;" x1="328" x2="598" y1="550.8281" y2="550.8281"/><rect fill="#F24D5C" height="6" style="stroke:#C82930;stroke-width:1.0;" width="6" x="335" y="562.1328"/><text fill="#000000" font-family="sans-serif" font-size="14" lengthAdjust="spacing" textLength="89" x="347" y="569.3613">Repositories()</text><ellipse cx="338" cy="582.7422" fill="#84BE84" rx="3" ry="3" style="stroke:#038048;stroke-width:1.0;"/><text fill="#000000" font-family="sans-serif" font-size="14" lengthAdjust="spacing" textLength="170" x="347" y="586.9707">getInstance(): Repositories</text><ellipse cx="338" cy="600.3516" fill="#84BE84" rx="3" ry="3" style="stroke:#038048;stroke-width:1.0;"/><text fill="#000000" font-family="sans-serif" font-size="14" lengthAdjust="spacing" textLength="240" x="347" y="604.5801">getEntryRepository(): EntryRepository</text><ellipse cx="338" cy="617.9609" fill="#84BE84" rx="3" ry="3" style="stroke:#038048;stroke-width:1.0;"/><text fill="#000000" font-family="sans-serif" font-size="14" lengthAdjust="spacing" textLength="246" x="347" y="622.1895">getTeamRepository(): TeamRepository</text></g><!--class EntryRepository--><g id="elem_EntryRepository"><rect codeLine="32" fill="#F1F1F1" height="118.4375" id="EntryRepository" rx="2.5" ry="2.5" style="stroke:#181818;stroke-width:0.5;" width="611" x="46.5" y="694.5"/><ellipse cx="297.25" cy="710.5" fill="#ADD1B2" rx="11" ry="11" style="stroke:#181818;stroke-width:1.0;"/><path d="M300.0156,706.375 Q300.1719,706.1563 300.3594,706.0469 Q300.5469,705.9375 300.7656,705.9375 Q301.1406,705.9375 301.375,706.2031 Q301.6094,706.4531 301.6094,707.0625 L301.6094,708.5156 Q301.6094,709.125 301.375,709.3906 Q301.1406,709.6563 300.7656,709.6563 Q300.4219,709.6563 300.2188,709.4531 Q300.0156,709.2656 299.9063,708.75 Q299.8594,708.3906 299.6719,708.2031 Q299.3438,707.8281 298.7344,707.6094 Q298.125,707.3906 297.5,707.3906 Q296.7344,707.3906 296.0938,707.7188 Q295.4688,708.0469 294.9688,708.7969 Q294.4844,709.5469 294.4844,710.5781 L294.4844,711.6719 Q294.4844,712.9063 295.375,713.7344 Q296.2656,714.5469 297.8594,714.5469 Q298.7969,714.5469 299.4531,714.2969 Q299.8438,714.1406 300.2656,713.7031 Q300.5313,713.4375 300.6719,713.3594 Q300.8281,713.2813 301.0313,713.2813 Q301.3594,713.2813 301.6094,713.5469 Q301.875,713.7969 301.875,714.1406 Q301.875,714.4844 301.5313,714.8906 Q301.0313,715.4688 300.2344,715.7969 Q299.1563,716.25 297.8594,716.25 Q296.3438,716.25 295.1406,715.625 Q294.1563,715.125 293.4688,714.0625 Q292.7813,712.9844 292.7813,711.7031 L292.7813,710.5469 Q292.7813,709.2188 293.3906,708.0781 Q294.0156,706.9219 295.1094,706.3125 Q296.2031,705.6875 297.4375,705.6875 Q298.1719,705.6875 298.8125,705.8594 Q299.4688,706.0156 300.0156,706.375 Z " fill="#000000"/><text fill="#000000" font-family="sans-serif" font-size="14" lengthAdjust="spacing" textLength="101" x="317.75" y="716.2285">EntryRepository</text><line style="stroke:#181818;stroke-width:0.5;" x1="47.5" x2="656.5" y1="726.5" y2="726.5"/><rect fill="none" height="6" style="stroke:#C82930;stroke-width:1.0;" width="6" x="54.5" y="737.8047"/><text fill="#000000" font-family="sans-serif" font-size="14" lengthAdjust="spacing" textLength="231" x="66.5" y="745.0332">agendaEntryList: List&lt;AgendaEntry&gt;</text><line style="stroke:#181818;stroke-width:0.5;" x1="47.5" x2="656.5" y1="752.1094" y2="752.1094"/><ellipse cx="57.5" cy="766.4141" fill="#84BE84" rx="3" ry="3" style="stroke:#038048;stroke-width:1.0;"/><text fill="#000000" font-family="sans-serif" font-size="14" lengthAdjust="spacing" textLength="111" x="66.5" y="770.6426">EntryRepository()</text><ellipse cx="57.5" cy="784.0234" fill="#84BE84" rx="3" ry="3" style="stroke:#038048;stroke-width:1.0;"/><text fill="#000000" font-family="sans-serif" font-size="14" lengthAdjust="spacing" textLength="273" x="66.5" y="788.252">getAgendaEntriesList(): List&lt;AgendaEntry&gt;</text><ellipse cx="57.5" cy="801.6328" fill="#84BE84" rx="3" ry="3" style="stroke:#038048;stroke-width:1.0;"/><text fill="#000000" font-family="sans-serif" font-size="14" lengthAdjust="spacing" textLength="585" x="66.5" y="805.8613">recordAgendaEntryCompletion(agendaEntry: AgendaEntry, status: ProgressStatus): boolean</text></g><!--class TeamRepository--><g id="elem_TeamRepository"><rect codeLine="39" fill="#F1F1F1" height="100.8281" id="TeamRepository" rx="2.5" ry="2.5" style="stroke:#181818;stroke-width:0.5;" width="592" x="693" y="703"/><ellipse cx="932.75" cy="719" fill="#ADD1B2" rx="11" ry="11" style="stroke:#181818;stroke-width:1.0;"/><path d="M935.5156,714.875 Q935.6719,714.6563 935.8594,714.5469 Q936.0469,714.4375 936.2656,714.4375 Q936.6406,714.4375 936.875,714.7031 Q937.1094,714.9531 937.1094,715.5625 L937.1094,717.0156 Q937.1094,717.625 936.875,717.8906 Q936.6406,718.1563 936.2656,718.1563 Q935.9219,718.1563 935.7188,717.9531 Q935.5156,717.7656 935.4063,717.25 Q935.3594,716.8906 935.1719,716.7031 Q934.8438,716.3281 934.2344,716.1094 Q933.625,715.8906 933,715.8906 Q932.2344,715.8906 931.5938,716.2188 Q930.9688,716.5469 930.4688,717.2969 Q929.9844,718.0469 929.9844,719.0781 L929.9844,720.1719 Q929.9844,721.4063 930.875,722.2344 Q931.7656,723.0469 933.3594,723.0469 Q934.2969,723.0469 934.9531,722.7969 Q935.3438,722.6406 935.7656,722.2031 Q936.0313,721.9375 936.1719,721.8594 Q936.3281,721.7813 936.5313,721.7813 Q936.8594,721.7813 937.1094,722.0469 Q937.375,722.2969 937.375,722.6406 Q937.375,722.9844 937.0313,723.3906 Q936.5313,723.9688 935.7344,724.2969 Q934.6563,724.75 933.3594,724.75 Q931.8438,724.75 930.6406,724.125 Q929.6563,723.625 928.9688,722.5625 Q928.2813,721.4844 928.2813,720.2031 L928.2813,719.0469 Q928.2813,717.7188 928.8906,716.5781 Q929.5156,715.4219 930.6094,714.8125 Q931.7031,714.1875 932.9375,714.1875 Q933.6719,714.1875 934.3125,714.3594 Q934.9688,714.5156 935.5156,714.875 Z " fill="#000000"/><text fill="#000000" font-family="sans-serif" font-size="14" lengthAdjust="spacing" textLength="104" x="953.25" y="724.7285">TeamRepository</text><line style="stroke:#181818;stroke-width:0.5;" x1="694" x2="1284" y1="735" y2="735"/><rect fill="none" height="6" style="stroke:#C82930;stroke-width:1.0;" width="6" x="701" y="746.3047"/><text fill="#000000" font-family="sans-serif" font-size="14" lengthAdjust="spacing" textLength="231" x="713" y="753.5332">agendaEntryList: List&lt;AgendaEntry&gt;</text><line style="stroke:#181818;stroke-width:0.5;" x1="694" x2="1284" y1="760.6094" y2="760.6094"/><ellipse cx="704" cy="774.9141" fill="#84BE84" rx="3" ry="3" style="stroke:#038048;stroke-width:1.0;"/><text fill="#000000" font-family="sans-serif" font-size="14" lengthAdjust="spacing" textLength="114" x="713" y="779.1426">TeamRepository()</text><ellipse cx="704" cy="792.5234" fill="#84BE84" rx="3" ry="3" style="stroke:#038048;stroke-width:1.0;"/><text fill="#000000" font-family="sans-serif" font-size="14" lengthAdjust="spacing" textLength="566" x="713" y="796.752">getAgendaEntriesAssignedToCollaborator(collaborator: UserSession): List&lt;AgendaEntry&gt;</text></g><!--class AgendaEntry--><g id="elem_AgendaEntry"><rect codeLine="47" fill="#F1F1F1" height="224.0938" id="AgendaEntry" rx="2.5" ry="2.5" style="stroke:#181818;stroke-width:0.5;" width="1128" x="101" y="919.5"/><ellipse cx="619.75" cy="935.5" fill="#ADD1B2" rx="11" ry="11" style="stroke:#181818;stroke-width:1.0;"/><path d="M622.5156,931.375 Q622.6719,931.1563 622.8594,931.0469 Q623.0469,930.9375 623.2656,930.9375 Q623.6406,930.9375 623.875,931.2031 Q624.1094,931.4531 624.1094,932.0625 L624.1094,933.5156 Q624.1094,934.125 623.875,934.3906 Q623.6406,934.6563 623.2656,934.6563 Q622.9219,934.6563 622.7188,934.4531 Q622.5156,934.2656 622.4063,933.75 Q622.3594,933.3906 622.1719,933.2031 Q621.8438,932.8281 621.2344,932.6094 Q620.625,932.3906 620,932.3906 Q619.2344,932.3906 618.5938,932.7188 Q617.9688,933.0469 617.4688,933.7969 Q616.9844,934.5469 616.9844,935.5781 L616.9844,936.6719 Q616.9844,937.9063 617.875,938.7344 Q618.7656,939.5469 620.3594,939.5469 Q621.2969,939.5469 621.9531,939.2969 Q622.3438,939.1406 622.7656,938.7031 Q623.0313,938.4375 623.1719,938.3594 Q623.3281,938.2813 623.5313,938.2813 Q623.8594,938.2813 624.1094,938.5469 Q624.375,938.7969 624.375,939.1406 Q624.375,939.4844 624.0313,939.8906 Q623.5313,940.4688 622.7344,940.7969 Q621.6563,941.25 620.3594,941.25 Q618.8438,941.25 617.6406,940.625 Q616.6563,940.125 615.9688,939.0625 Q615.2813,937.9844 615.2813,936.7031 L615.2813,935.5469 Q615.2813,934.2188 615.8906,933.0781 Q616.5156,931.9219 617.6094,931.3125 Q618.7031,930.6875 619.9375,930.6875 Q620.6719,930.6875 621.3125,930.8594 Q621.9688,931.0156 622.5156,931.375 Z " fill="#000000"/><text fill="#000000" font-family="sans-serif" font-size="14" lengthAdjust="spacing" textLength="82" x="640.25" y="941.2285">AgendaEntry</text><line style="stroke:#181818;stroke-width:0.5;" x1="102" x2="1228" y1="951.5" y2="951.5"/><rect fill="none" height="6" style="stroke:#C82930;stroke-width:1.0;" width="6" x="109" y="962.8047"/><text fill="#000000" font-family="sans-serif" font-size="14" lengthAdjust="spacing" textLength="67" x="121" y="970.0332">title: String</text><rect fill="none" height="6" style="stroke:#C82930;stroke-width:1.0;" width="6" x="109" y="980.4141"/><text fill="#000000" font-family="sans-serif" font-size="14" lengthAdjust="spacing" textLength="114" x="121" y="987.6426">description: String</text><rect fill="none" height="6" style="stroke:#C82930;stroke-width:1.0;" width="6" x="109" y="998.0234"/><text fill="#000000" font-family="sans-serif" font-size="14" lengthAdjust="spacing" textLength="75" x="121" y="1005.252">duration: int</text><rect fill="none" height="6" style="stroke:#C82930;stroke-width:1.0;" width="6" x="109" y="1015.6328"/><text fill="#000000" font-family="sans-serif" font-size="14" lengthAdjust="spacing" textLength="191" x="121" y="1022.8613">urgencyStatus: UrgencyStatus</text><rect fill="none" height="6" style="stroke:#C82930;stroke-width:1.0;" width="6" x="109" y="1033.2422"/><text fill="#000000" font-family="sans-serif" font-size="14" lengthAdjust="spacing" textLength="165" x="121" y="1040.4707">greenSpace: GreenSpace</text><rect fill="none" height="6" style="stroke:#C82930;stroke-width:1.0;" width="6" x="109" y="1050.8516"/><text fill="#000000" font-family="sans-serif" font-size="14" lengthAdjust="spacing" textLength="149" x="121" y="1058.0801">startingDate: LocalDate</text><rect fill="none" height="6" style="stroke:#C82930;stroke-width:1.0;" width="6" x="109" y="1068.4609"/><text fill="#000000" font-family="sans-serif" font-size="14" lengthAdjust="spacing" textLength="201" x="121" y="1075.6895">progressStatus: ProgressStatus</text><line style="stroke:#181818;stroke-width:0.5;" x1="102" x2="1228" y1="1082.7656" y2="1082.7656"/><ellipse cx="112" cy="1097.0703" fill="#84BE84" rx="3" ry="3" style="stroke:#038048;stroke-width:1.0;"/><text fill="#000000" font-family="sans-serif" font-size="14" lengthAdjust="spacing" textLength="1102" x="121" y="1101.2988">AgendaEntry(title: String, description: String, duration: int, urgencyStatus: UrgencyStatus, greenSpace: GreenSpace, startingDate: LocalDate, progressStatus: ProgressStatus)</text><ellipse cx="112" cy="1114.6797" fill="#84BE84" rx="3" ry="3" style="stroke:#038048;stroke-width:1.0;"/><text fill="#000000" font-family="sans-serif" font-size="14" lengthAdjust="spacing" textLength="246" x="121" y="1118.9082">setStatus(status: ProgressStatus): void</text><ellipse cx="112" cy="1132.2891" fill="#84BE84" rx="3" ry="3" style="stroke:#038048;stroke-width:1.0;"/><text fill="#000000" font-family="sans-serif" font-size="14" lengthAdjust="spacing" textLength="291" x="121" y="1136.5176">setAvailable(agendaEntry: AgendaEntry): void</text></g><!--class AgendaEntryMapper--><g id="elem_AgendaEntryMapper"><rect codeLine="62" fill="#F1F1F1" height="83.2188" id="AgendaEntryMapper" rx="2.5" ry="2.5" style="stroke:#181818;stroke-width:0.5;" width="401" x="1557.5" y="712"/><ellipse cx="1688.75" cy="728" fill="#ADD1B2" rx="11" ry="11" style="stroke:#181818;stroke-width:1.0;"/><path d="M1691.5156,723.875 Q1691.6719,723.6563 1691.8594,723.5469 Q1692.0469,723.4375 1692.2656,723.4375 Q1692.6406,723.4375 1692.875,723.7031 Q1693.1094,723.9531 1693.1094,724.5625 L1693.1094,726.0156 Q1693.1094,726.625 1692.875,726.8906 Q1692.6406,727.1563 1692.2656,727.1563 Q1691.9219,727.1563 1691.7188,726.9531 Q1691.5156,726.7656 1691.4063,726.25 Q1691.3594,725.8906 1691.1719,725.7031 Q1690.8438,725.3281 1690.2344,725.1094 Q1689.625,724.8906 1689,724.8906 Q1688.2344,724.8906 1687.5938,725.2188 Q1686.9688,725.5469 1686.4688,726.2969 Q1685.9844,727.0469 1685.9844,728.0781 L1685.9844,729.1719 Q1685.9844,730.4063 1686.875,731.2344 Q1687.7656,732.0469 1689.3594,732.0469 Q1690.2969,732.0469 1690.9531,731.7969 Q1691.3438,731.6406 1691.7656,731.2031 Q1692.0313,730.9375 1692.1719,730.8594 Q1692.3281,730.7813 1692.5313,730.7813 Q1692.8594,730.7813 1693.1094,731.0469 Q1693.375,731.2969 1693.375,731.6406 Q1693.375,731.9844 1693.0313,732.3906 Q1692.5313,732.9688 1691.7344,733.2969 Q1690.6563,733.75 1689.3594,733.75 Q1687.8438,733.75 1686.6406,733.125 Q1685.6563,732.625 1684.9688,731.5625 Q1684.2813,730.4844 1684.2813,729.2031 L1684.2813,728.0469 Q1684.2813,726.7188 1684.8906,725.5781 Q1685.5156,724.4219 1686.6094,723.8125 Q1687.7031,723.1875 1688.9375,723.1875 Q1689.6719,723.1875 1690.3125,723.3594 Q1690.9688,723.5156 1691.5156,723.875 Z " fill="#000000"/><text fill="#000000" font-family="sans-serif" font-size="14" lengthAdjust="spacing" textLength="130" x="1709.25" y="733.7285">AgendaEntryMapper</text><line style="stroke:#181818;stroke-width:0.5;" x1="1558.5" x2="1957.5" y1="744" y2="744"/><line style="stroke:#181818;stroke-width:0.5;" x1="1558.5" x2="1957.5" y1="752" y2="752"/><ellipse cx="1568.5" cy="766.3047" fill="#84BE84" rx="3" ry="3" style="stroke:#038048;stroke-width:1.0;"/><text fill="#000000" font-family="sans-serif" font-size="14" lengthAdjust="spacing" textLength="327" x="1577.5" y="770.5332">toDto(agendaEntry: AgendaEntry): AgendaEntryDto</text><ellipse cx="1568.5" cy="783.9141" fill="#84BE84" rx="3" ry="3" style="stroke:#038048;stroke-width:1.0;"/><text fill="#000000" font-family="sans-serif" font-size="14" lengthAdjust="spacing" textLength="375" x="1577.5" y="788.1426">toDomain(agendaEntryDto: AgendaEntryDto): AgendaEntry</text></g><!--class AgendaEntryDto--><g id="elem_AgendaEntryDto"><rect codeLine="67" fill="#F1F1F1" height="312.1406" id="AgendaEntryDto" rx="2.5" ry="2.5" style="stroke:#181818;stroke-width:0.5;" width="1172" x="1365" y="875.5"/><ellipse cx="1894.75" cy="891.5" fill="#ADD1B2" rx="11" ry="11" style="stroke:#181818;stroke-width:1.0;"/><path d="M1897.5156,887.375 Q1897.6719,887.1563 1897.8594,887.0469 Q1898.0469,886.9375 1898.2656,886.9375 Q1898.6406,886.9375 1898.875,887.2031 Q1899.1094,887.4531 1899.1094,888.0625 L1899.1094,889.5156 Q1899.1094,890.125 1898.875,890.3906 Q1898.6406,890.6563 1898.2656,890.6563 Q1897.9219,890.6563 1897.7188,890.4531 Q1897.5156,890.2656 1897.4063,889.75 Q1897.3594,889.3906 1897.1719,889.2031 Q1896.8438,888.8281 1896.2344,888.6094 Q1895.625,888.3906 1895,888.3906 Q1894.2344,888.3906 1893.5938,888.7188 Q1892.9688,889.0469 1892.4688,889.7969 Q1891.9844,890.5469 1891.9844,891.5781 L1891.9844,892.6719 Q1891.9844,893.9063 1892.875,894.7344 Q1893.7656,895.5469 1895.3594,895.5469 Q1896.2969,895.5469 1896.9531,895.2969 Q1897.3438,895.1406 1897.7656,894.7031 Q1898.0313,894.4375 1898.1719,894.3594 Q1898.3281,894.2813 1898.5313,894.2813 Q1898.8594,894.2813 1899.1094,894.5469 Q1899.375,894.7969 1899.375,895.1406 Q1899.375,895.4844 1899.0313,895.8906 Q1898.5313,896.4688 1897.7344,896.7969 Q1896.6563,897.25 1895.3594,897.25 Q1893.8438,897.25 1892.6406,896.625 Q1891.6563,896.125 1890.9688,895.0625 Q1890.2813,893.9844 1890.2813,892.7031 L1890.2813,891.5469 Q1890.2813,890.2188 1890.8906,889.0781 Q1891.5156,887.9219 1892.6094,887.3125 Q1893.7031,886.6875 1894.9375,886.6875 Q1895.6719,886.6875 1896.3125,886.8594 Q1896.9688,887.0156 1897.5156,887.375 Z " fill="#000000"/><text fill="#000000" font-family="sans-serif" font-size="14" lengthAdjust="spacing" textLength="104" x="1915.25" y="897.2285">AgendaEntryDto</text><line style="stroke:#181818;stroke-width:0.5;" x1="1366" x2="2536" y1="907.5" y2="907.5"/><rect fill="none" height="6" style="stroke:#C82930;stroke-width:1.0;" width="6" x="1373" y="918.8047"/><text fill="#000000" font-family="sans-serif" font-size="14" lengthAdjust="spacing" textLength="67" x="1385" y="926.0332">title: String</text><rect fill="none" height="6" style="stroke:#C82930;stroke-width:1.0;" width="6" x="1373" y="936.4141"/><text fill="#000000" font-family="sans-serif" font-size="14" lengthAdjust="spacing" textLength="114" x="1385" y="943.6426">description: String</text><rect fill="none" height="6" style="stroke:#C82930;stroke-width:1.0;" width="6" x="1373" y="954.0234"/><text fill="#000000" font-family="sans-serif" font-size="14" lengthAdjust="spacing" textLength="75" x="1385" y="961.252">duration: int</text><rect fill="none" height="6" style="stroke:#C82930;stroke-width:1.0;" width="6" x="1373" y="971.6328"/><text fill="#000000" font-family="sans-serif" font-size="14" lengthAdjust="spacing" textLength="191" x="1385" y="978.8613">urgencyStatus: UrgencyStatus</text><rect fill="none" height="6" style="stroke:#C82930;stroke-width:1.0;" width="6" x="1373" y="989.2422"/><text fill="#000000" font-family="sans-serif" font-size="14" lengthAdjust="spacing" textLength="187" x="1385" y="996.4707">greenSpace: GreenSpaceDto</text><rect fill="none" height="6" style="stroke:#C82930;stroke-width:1.0;" width="6" x="1373" y="1006.8516"/><text fill="#000000" font-family="sans-serif" font-size="14" lengthAdjust="spacing" textLength="149" x="1385" y="1014.0801">startingDate: LocalDate</text><rect fill="none" height="6" style="stroke:#C82930;stroke-width:1.0;" width="6" x="1373" y="1024.4609"/><text fill="#000000" font-family="sans-serif" font-size="14" lengthAdjust="spacing" textLength="201" x="1385" y="1031.6895">progressStatus: ProgressStatus</text><line style="stroke:#181818;stroke-width:0.5;" x1="1366" x2="2536" y1="1038.7656" y2="1038.7656"/><ellipse cx="1376" cy="1053.0703" fill="#84BE84" rx="3" ry="3" style="stroke:#038048;stroke-width:1.0;"/><text fill="#000000" font-family="sans-serif" font-size="14" lengthAdjust="spacing" textLength="1146" x="1385" y="1057.2988">AgendaEntryDto(title: String, description: String, duration: int, urgencyStatus: UrgencyStatus, greenSpace: GreenSpaceDto, startingDate: LocalDate, progressStatus: ProgressStatus)</text><ellipse cx="1376" cy="1070.6797" fill="#84BE84" rx="3" ry="3" style="stroke:#038048;stroke-width:1.0;"/><text fill="#000000" font-family="sans-serif" font-size="14" lengthAdjust="spacing" textLength="102" x="1385" y="1074.9082">getTitle(): String</text><ellipse cx="1376" cy="1088.2891" fill="#84BE84" rx="3" ry="3" style="stroke:#038048;stroke-width:1.0;"/><text fill="#000000" font-family="sans-serif" font-size="14" lengthAdjust="spacing" textLength="146" x="1385" y="1092.5176">getDescription(): String</text><ellipse cx="1376" cy="1105.8984" fill="#84BE84" rx="3" ry="3" style="stroke:#038048;stroke-width:1.0;"/><text fill="#000000" font-family="sans-serif" font-size="14" lengthAdjust="spacing" textLength="107" x="1385" y="1110.127">getDuration(): int</text><ellipse cx="1376" cy="1123.5078" fill="#84BE84" rx="3" ry="3" style="stroke:#038048;stroke-width:1.0;"/><text fill="#000000" font-family="sans-serif" font-size="14" lengthAdjust="spacing" textLength="222" x="1385" y="1127.7363">getUrgencyStatus(): UrgencyStatus</text><ellipse cx="1376" cy="1141.1172" fill="#84BE84" rx="3" ry="3" style="stroke:#038048;stroke-width:1.0;"/><text fill="#000000" font-family="sans-serif" font-size="14" lengthAdjust="spacing" textLength="220" x="1385" y="1145.3457">getGreenSpace(): GreenSpaceDto</text><ellipse cx="1376" cy="1158.7266" fill="#84BE84" rx="3" ry="3" style="stroke:#038048;stroke-width:1.0;"/><text fill="#000000" font-family="sans-serif" font-size="14" lengthAdjust="spacing" textLength="181" x="1385" y="1162.9551">getStartingDate(): LocalDate</text><ellipse cx="1376" cy="1176.3359" fill="#84BE84" rx="3" ry="3" style="stroke:#038048;stroke-width:1.0;"/><text fill="#000000" font-family="sans-serif" font-size="14" lengthAdjust="spacing" textLength="232" x="1385" y="1180.5645">getProgressStatus(): ProgressStatus</text></g><!--link RecordEntryUI to RecordEntryController--><g id="link_RecordEntryUI_RecordEntryController"><path codeLine="86" d="M731,90.3 C731,110.51 731,140.98 731,169.97 " fill="none" id="RecordEntryUI-to-RecordEntryController" style="stroke:#181818;stroke-width:1.0;stroke-dasharray:7.0,7.0;"/><polygon fill="#181818" points="731,174.99,735,165.99,731,169.99,727,165.99,731,174.99" style="stroke:#181818;stroke-width:1.0;"/></g><!--link RecordEntryController to Repositories--><g id="link_RecordEntryController_Repositories"><path codeLine="87" d="M660.59,329.06 C625.13,367.36 581.94,414.02 545,453.93 " fill="none" id="RecordEntryController-to-Repositories" style="stroke:#181818;stroke-width:1.0;stroke-dasharray:7.0,7.0;"/><polygon fill="#181818" points="541.44,457.77,550.49,453.8845,544.8373,454.1015,544.6204,448.4488,541.44,457.77" style="stroke:#181818;stroke-width:1.0;"/></g><!--link Repositories to Repositories--><g id="link_Repositories_Repositories"><path codeLine="88" d="M599.16,523.67 C619.91,526.69 634,533.3 634,543.5 C634,552.82 622.23,559.14 604.36,562.47 " fill="none" id="Repositories-to-Repositories" style="stroke:#181818;stroke-width:1.0;"/><polygon fill="#181818" points="599.16,563.33,608.6917,565.8094,604.0931,562.515,607.3876,557.9164,599.16,563.33" style="stroke:#181818;stroke-width:1.0;"/><text fill="#000000" font-family="sans-serif" font-size="13" lengthAdjust="spacing" textLength="49" x="640" y="548.9951">instance</text></g><!--link RecordEntryController to EntryRepository--><g id="link_RecordEntryController_EntryRepository"><path codeLine="89" d="M746,329.35 C757.66,412.02 762.28,543.51 696,629 C675.8,655.06 649.62,675.63 620.72,691.87 " fill="none" id="RecordEntryController-to-EntryRepository" style="stroke:#181818;stroke-width:1.0;stroke-dasharray:7.0,7.0;"/><polygon fill="#181818" points="616.06,694.44,625.8721,693.5904,620.4368,692.0227,622.0045,686.5874,616.06,694.44" style="stroke:#181818;stroke-width:1.0;"/></g><!--link RecordEntryController to TeamRepository--><g id="link_RecordEntryController_TeamRepository"><path codeLine="90" d="M770.32,329.13 C822.92,430.96 914.87,608.98 960.97,698.23 " fill="none" id="RecordEntryController-to-TeamRepository" style="stroke:#181818;stroke-width:1.0;stroke-dasharray:7.0,7.0;"/><polygon fill="#181818" points="963.4,702.94,962.8146,693.1086,961.1013,698.4997,955.7102,696.7864,963.4,702.94" style="stroke:#181818;stroke-width:1.0;"/></g><!--link Repositories to EntryRepository--><g id="link_Repositories_EntryRepository"><path codeLine="91" d="M417.85,629.1 C407.06,649.32 395.73,670.55 385.57,689.6 " fill="none" id="Repositories-to-EntryRepository" style="stroke:#181818;stroke-width:1.0;"/><polygon fill="#181818" points="383.01,694.39,390.7778,688.3351,385.3652,689.9794,383.7208,684.5668,383.01,694.39" style="stroke:#181818;stroke-width:1.0;"/></g><!--link Repositories to TeamRepository--><g id="link_Repositories_TeamRepository"><path codeLine="92" d="M599.14,598.34 C679.28,630.02 780.07,669.88 859.1,701.13 " fill="none" id="Repositories-to-TeamRepository" style="stroke:#181818;stroke-width:1.0;"/><polygon fill="#181818" points="863.79,702.99,856.8932,695.9591,859.1408,701.1503,853.9496,703.3979,863.79,702.99" style="stroke:#181818;stroke-width:1.0;"/></g><!--link EntryRepository to AgendaEntry--><g id="link_EntryRepository_AgendaEntry"><path codeLine="93" d="M418,812.7 C452.05,842.72 494.82,880.44 535.15,916 " fill="none" id="EntryRepository-to-AgendaEntry" style="stroke:#181818;stroke-width:1.0;"/><polygon fill="#181818" points="539.05,919.44,534.9446,910.4876,535.2996,916.1333,529.6539,916.4883,539.05,919.44" style="stroke:#181818;stroke-width:1.0;"/><text fill="#000000" font-family="sans-serif" font-size="13" lengthAdjust="spacing" textLength="5" x="525.0184" y="908.5025">*</text></g><!--link AgendaEntryMapper to AgendaEntryDto--><g id="link_AgendaEntryMapper_AgendaEntryDto"><path codeLine="94" d="M1786.48,795.22 C1801.07,816.09 1819.88,842.99 1839.54,871.11 " fill="none" id="AgendaEntryMapper-to-AgendaEntryDto" style="stroke:#181818;stroke-width:1.0;stroke-dasharray:7.0,7.0;"/><polygon fill="#181818" points="1842.45,875.27,1840.5861,865.5991,1839.5913,871.1678,1834.0226,870.173,1842.45,875.27" style="stroke:#181818;stroke-width:1.0;"/></g><!--link AgendaEntryMapper to AgendaEntry--><g id="link_AgendaEntryMapper_AgendaEntry"><path codeLine="95" d="M1597.6,795 C1469.05,827.46 1282.24,874.64 1109.51,918.25 " fill="none" id="AgendaEntryMapper-to-AgendaEntry" style="stroke:#181818;stroke-width:1.0;stroke-dasharray:7.0,7.0;"/><polygon fill="#181818" points="1104.66,919.48,1114.3673,921.1441,1109.5065,918.2505,1112.4001,913.3897,1104.66,919.48" style="stroke:#181818;stroke-width:1.0;"/></g><!--SRC=[rLPDR-8m4BtdLrYzRDXD-mFG2Wa1MY51Kn5wsAERJ5EhmOviqnLQzR_lED1WEt4GsWzfSq3OVZEUUM_6jdfblAQIxeXweONumNX9dccb85BjIiKu47seWTIYEfXHzAc2Pqsq89ALBveKJ4AkcU1HJVDNMW9vN9AV4S4lhwXIP0EvaCM2QtbeLzwZzwZ5pzBxxIPThHQRaDrCuA-eAf0dXFbkYOHQAAQ5PA36Y3-FB10O1-tQOKmMxeG5rK1tDdBhZ5lWb_xGuf65A45FI-05RK3fymmXz4b8YfvMJEaujoR6v561p40ff74q9WRmrJAVQp6nV4jxzrrTWM4_XXDoJ5nBzFSaH0MKTvcVf-lfylx4wSVaPl6GPijjklbkaVqXoPbYQ_787kDAKvv3G8ahrRXAaIFOtjOIenLaUGem7Ws4s22ze8p1K9oDZHkQCGa4Y_oxh7gkEyJIivwcChhrCV6YwOJVZVPiZGGq1JcwxFTOU1R0AZyhIAS24uAawptsvuCKfSGQpvgnLvQznBW4_ZullaGNQ9bYFvOSYgsmk_UgpfrOoLafVhJQEfqlLfqki-mxEMkcA-om30FafRTMWCebguqS8SGUeswM6TVUsbxYjlaXEwdrQ0yzACe8FCCaC99lxNyFXB9BZI7CgKROIkIqCdyzLEqKXLyada0MCR53HDANU-Accmncc0IIIa9v91T2zujBWJuknC5-U1Eiw5fDtoZ3UgiWs6A-wNjxqBVd_3OTgh8rhMldQZrkhWLU7qExkXTDrrhiA7DEXlxhoPe8dmMkrV_K5purVxirZ6Z_g3jmgp_M8EOADL6RYwX7f0OmF-Sn23jbPZ2-e0t0ISwWmges-7F61XoMjW5d5X_DhTghRmDr6J7WWCZjxU4-fk_k9lrlqQZ_yNp4MoyVvq5tU-kkZjidtO0x_rqKHdhFeSxMNKyUm7FWFviCvERpZNEST0yv4ubtRbq4HRy0]--></g></svg>