<?xml version="1.0" encoding="UTF-8" standalone="no"?><svg xmlns="http://www.w3.org/2000/svg" xmlns:xlink="http://www.w3.org/1999/xlink" contentStyleType="text/css" height="968px" preserveAspectRatio="none" style="width:1548px;height:968px;background:#FFFFFF;" version="1.1" viewBox="0 0 1548 968" width="1548px" zoomAndPan="magnify"><defs/><g><rect fill="#FFFFFF" height="785.0469" style="stroke:#181818;stroke-width:1.0;" width="10" x="16.5" y="92.6094"/><rect fill="#FFFFFF" height="30.3516" style="stroke:#181818;stroke-width:1.0;" width="10" x="602.5" y="114.9609"/><rect fill="#FFFFFF" height="30.3516" style="stroke:#181818;stroke-width:1.0;" width="10" x="602.5" y="491.4375"/><rect fill="#FFFFFF" height="30.3516" style="stroke:#181818;stroke-width:1.0;" width="10" x="602.5" y="552.1406"/><rect fill="#FFFFFF" height="30.3516" style="stroke:#181818;stroke-width:1.0;" width="10" x="602.5" y="612.8438"/><rect fill="#FFFFFF" height="30.3516" style="stroke:#181818;stroke-width:1.0;" width="10" x="602.5" y="838.3047"/><rect fill="#FFFFFF" height="336.125" style="stroke:#181818;stroke-width:1.0;" width="10" x="758" y="155.3125"/><rect fill="#FFFFFF" height="30.3516" style="stroke:#181818;stroke-width:1.0;" width="10" x="758" y="643.1953"/><rect fill="#FFFFFF" height="30.3516" style="stroke:#181818;stroke-width:1.0;" width="10" x="758" y="807.9531"/><rect fill="#FFFFFF" height="30.3516" style="stroke:#181818;stroke-width:1.0;" width="10" x="896" y="187.9219"/><rect fill="#FFFFFF" height="30.3516" style="stroke:#181818;stroke-width:1.0;" width="10" x="1003" y="248.625"/><rect fill="#FFFFFF" height="30.3516" style="stroke:#181818;stroke-width:1.0;" width="10" x="1122.5" y="309.3281"/><rect fill="#FFFFFF" height="30.3516" style="stroke:#181818;stroke-width:1.0;" width="10" x="1122.5" y="673.5469"/><rect fill="#FFFFFF" height="30.3516" style="stroke:#181818;stroke-width:1.0;" width="10" x="1122.5" y="777.6016"/><rect fill="#FFFFFF" height="30.3516" style="stroke:#181818;stroke-width:1.0;" width="10" x="1227" y="370.0313"/><rect fill="#FFFFFF" height="30.3516" style="stroke:#181818;stroke-width:1.0;" width="10" x="1305.5" y="430.7344"/><rect fill="#FFFFFF" height="73.7031" style="stroke:#181818;stroke-width:1.0;" width="10" x="1389.5" y="703.8984"/><line style="stroke:#181818;stroke-width:0.5;stroke-dasharray:5.0,5.0;" x1="21" x2="21" y1="82.6094" y2="886.6563"/><line style="stroke:#181818;stroke-width:0.5;stroke-dasharray:5.0,5.0;" x1="607" x2="607" y1="82.6094" y2="886.6563"/><line style="stroke:#181818;stroke-width:0.5;stroke-dasharray:5.0,5.0;" x1="762.5" x2="762.5" y1="154.2656" y2="886.6563"/><line style="stroke:#181818;stroke-width:0.5;stroke-dasharray:5.0,5.0;" x1="900.5" x2="900.5" y1="82.6094" y2="886.6563"/><line style="stroke:#181818;stroke-width:0.5;stroke-dasharray:5.0,5.0;" x1="1007.5" x2="1007.5" y1="82.6094" y2="886.6563"/><line style="stroke:#181818;stroke-width:0.5;stroke-dasharray:5.0,5.0;" x1="1127.5" x2="1127.5" y1="82.6094" y2="886.6563"/><line style="stroke:#181818;stroke-width:0.5;stroke-dasharray:5.0,5.0;" x1="1231.5" x2="1231.5" y1="82.6094" y2="886.6563"/><line style="stroke:#181818;stroke-width:0.5;stroke-dasharray:5.0,5.0;" x1="1310.5" x2="1310.5" y1="82.6094" y2="886.6563"/><line style="stroke:#181818;stroke-width:0.5;stroke-dasharray:5.0,5.0;" x1="1394" x2="1394" y1="82.6094" y2="886.6563"/><text fill="#000000" font-family="sans-serif" font-size="14" lengthAdjust="spacing" textLength="27" x="5" y="79.5332">CLB</text><ellipse cx="21.5" cy="13.5" fill="#E3E3E3" rx="8" ry="8" style="stroke:#181818;stroke-width:0.5;"/><path d="M21.5,21.5 L21.5,48.5 M8.5,29.5 L34.5,29.5 M21.5,48.5 L8.5,63.5 M21.5,48.5 L34.5,63.5 " fill="none" style="stroke:#181818;stroke-width:0.5;"/><text fill="#000000" font-family="sans-serif" font-size="14" lengthAdjust="spacing" textLength="27" x="5" y="900.1895">CLB</text><ellipse cx="21.5" cy="911.7656" fill="#E3E3E3" rx="8" ry="8" style="stroke:#181818;stroke-width:0.5;"/><path d="M21.5,919.7656 L21.5,946.7656 M8.5,927.7656 L34.5,927.7656 M21.5,946.7656 L8.5,961.7656 M21.5,946.7656 L34.5,961.7656 " fill="none" style="stroke:#181818;stroke-width:0.5;"/><rect fill="#E3E3E3" height="31.6094" rx="2.5" ry="2.5" style="stroke:#181818;stroke-width:0.5;" width="109" x="553" y="50"/><text fill="#000000" font-family="sans-serif" font-size="14" lengthAdjust="spacing" textLength="95" x="560" y="71.5332">:RecordEntryUI</text><rect fill="#E3E3E3" height="31.6094" rx="2.5" ry="2.5" style="stroke:#181818;stroke-width:0.5;" width="109" x="553" y="885.6563"/><text fill="#000000" font-family="sans-serif" font-size="14" lengthAdjust="spacing" textLength="95" x="560" y="907.1895">:RecordEntryUI</text><rect fill="#E3E3E3" height="31.6094" rx="2.5" ry="2.5" style="stroke:#181818;stroke-width:0.5;" width="159" x="683.5" y="885.6563"/><text fill="#000000" font-family="sans-serif" font-size="14" lengthAdjust="spacing" textLength="145" x="690.5" y="907.1895">:RecordEntryController</text><rect fill="#E3E3E3" height="31.6094" rx="2.5" ry="2.5" style="stroke:#181818;stroke-width:0.5;" width="97" x="852.5" y="50"/><text fill="#000000" font-family="sans-serif" font-size="14" lengthAdjust="spacing" textLength="83" x="859.5" y="71.5332">:Repositories</text><rect fill="#E3E3E3" height="31.6094" rx="2.5" ry="2.5" style="stroke:#181818;stroke-width:0.5;" width="97" x="852.5" y="885.6563"/><text fill="#000000" font-family="sans-serif" font-size="14" lengthAdjust="spacing" textLength="83" x="859.5" y="907.1895">:Repositories</text><rect fill="#E3E3E3" height="49.2188" rx="2.5" ry="2.5" style="stroke:#181818;stroke-width:0.5;" width="97" x="959.5" y="32.3906"/><text fill="#000000" font-family="sans-serif" font-size="14" lengthAdjust="spacing" textLength="74" x="971" y="53.9238">repositories</text><text fill="#000000" font-family="sans-serif" font-size="14" lengthAdjust="spacing" textLength="83" x="966.5" y="71.5332">:Repositories</text><rect fill="#E3E3E3" height="49.2188" rx="2.5" ry="2.5" style="stroke:#181818;stroke-width:0.5;" width="97" x="959.5" y="885.6563"/><text fill="#000000" font-family="sans-serif" font-size="14" lengthAdjust="spacing" textLength="74" x="971" y="907.1895">repositories</text><text fill="#000000" font-family="sans-serif" font-size="14" lengthAdjust="spacing" textLength="83" x="966.5" y="924.7988">:Repositories</text><rect fill="#E3E3E3" height="49.2188" rx="2.5" ry="2.5" style="stroke:#181818;stroke-width:0.5;" width="122" x="1066.5" y="32.3906"/><text fill="#000000" font-family="sans-serif" font-size="14" lengthAdjust="spacing" textLength="108" x="1073.5" y="53.9238">TeamRepository:</text><text fill="#000000" font-family="sans-serif" font-size="14" lengthAdjust="spacing" textLength="104" x="1075.5" y="71.5332">TeamRepository</text><rect fill="#E3E3E3" height="49.2188" rx="2.5" ry="2.5" style="stroke:#181818;stroke-width:0.5;" width="122" x="1066.5" y="885.6563"/><text fill="#000000" font-family="sans-serif" font-size="14" lengthAdjust="spacing" textLength="108" x="1073.5" y="907.1895">TeamRepository:</text><text fill="#000000" font-family="sans-serif" font-size="14" lengthAdjust="spacing" textLength="104" x="1075.5" y="924.7988">TeamRepository</text><rect fill="#E3E3E3" height="31.6094" rx="2.5" ry="2.5" style="stroke:#181818;stroke-width:0.5;" width="67" x="1198.5" y="50"/><text fill="#000000" font-family="sans-serif" font-size="14" lengthAdjust="spacing" textLength="53" x="1205.5" y="71.5332">:Agenda</text><rect fill="#E3E3E3" height="31.6094" rx="2.5" ry="2.5" style="stroke:#181818;stroke-width:0.5;" width="67" x="1198.5" y="885.6563"/><text fill="#000000" font-family="sans-serif" font-size="14" lengthAdjust="spacing" textLength="53" x="1205.5" y="907.1895">:Agenda</text><rect fill="#E3E3E3" height="31.6094" rx="2.5" ry="2.5" style="stroke:#181818;stroke-width:0.5;" width="70" x="1275.5" y="50"/><text fill="#000000" font-family="sans-serif" font-size="14" lengthAdjust="spacing" textLength="56" x="1282.5" y="71.5332">:toDoList</text><rect fill="#E3E3E3" height="31.6094" rx="2.5" ry="2.5" style="stroke:#181818;stroke-width:0.5;" width="70" x="1275.5" y="885.6563"/><text fill="#000000" font-family="sans-serif" font-size="14" lengthAdjust="spacing" textLength="56" x="1282.5" y="907.1895">:toDoList</text><rect fill="#E3E3E3" height="49.2188" rx="2.5" ry="2.5" style="stroke:#181818;stroke-width:0.5;" width="51" x="1369" y="32.3906"/><text fill="#000000" font-family="sans-serif" font-size="14" lengthAdjust="spacing" textLength="32" x="1378.5" y="53.9238">entry</text><text fill="#000000" font-family="sans-serif" font-size="14" lengthAdjust="spacing" textLength="37" x="1376" y="71.5332">:Entry</text><rect fill="#E3E3E3" height="49.2188" rx="2.5" ry="2.5" style="stroke:#181818;stroke-width:0.5;" width="51" x="1369" y="885.6563"/><text fill="#000000" font-family="sans-serif" font-size="14" lengthAdjust="spacing" textLength="32" x="1378.5" y="907.1895">entry</text><text fill="#000000" font-family="sans-serif" font-size="14" lengthAdjust="spacing" textLength="37" x="1376" y="924.7988">:Entry</text><rect fill="#FFFFFF" height="785.0469" style="stroke:#181818;stroke-width:1.0;" width="10" x="16.5" y="92.6094"/><rect fill="#FFFFFF" height="30.3516" style="stroke:#181818;stroke-width:1.0;" width="10" x="602.5" y="114.9609"/><rect fill="#FFFFFF" height="30.3516" style="stroke:#181818;stroke-width:1.0;" width="10" x="602.5" y="491.4375"/><rect fill="#FFFFFF" height="30.3516" style="stroke:#181818;stroke-width:1.0;" width="10" x="602.5" y="552.1406"/><rect fill="#FFFFFF" height="30.3516" style="stroke:#181818;stroke-width:1.0;" width="10" x="602.5" y="612.8438"/><rect fill="#FFFFFF" height="30.3516" style="stroke:#181818;stroke-width:1.0;" width="10" x="602.5" y="838.3047"/><rect fill="#FFFFFF" height="336.125" style="stroke:#181818;stroke-width:1.0;" width="10" x="758" y="155.3125"/><rect fill="#FFFFFF" height="30.3516" style="stroke:#181818;stroke-width:1.0;" width="10" x="758" y="643.1953"/><rect fill="#FFFFFF" height="30.3516" style="stroke:#181818;stroke-width:1.0;" width="10" x="758" y="807.9531"/><rect fill="#FFFFFF" height="30.3516" style="stroke:#181818;stroke-width:1.0;" width="10" x="896" y="187.9219"/><rect fill="#FFFFFF" height="30.3516" style="stroke:#181818;stroke-width:1.0;" width="10" x="1003" y="248.625"/><rect fill="#FFFFFF" height="30.3516" style="stroke:#181818;stroke-width:1.0;" width="10" x="1122.5" y="309.3281"/><rect fill="#FFFFFF" height="30.3516" style="stroke:#181818;stroke-width:1.0;" width="10" x="1122.5" y="673.5469"/><rect fill="#FFFFFF" height="30.3516" style="stroke:#181818;stroke-width:1.0;" width="10" x="1122.5" y="777.6016"/><rect fill="#FFFFFF" height="30.3516" style="stroke:#181818;stroke-width:1.0;" width="10" x="1227" y="370.0313"/><rect fill="#FFFFFF" height="30.3516" style="stroke:#181818;stroke-width:1.0;" width="10" x="1305.5" y="430.7344"/><rect fill="#FFFFFF" height="73.7031" style="stroke:#181818;stroke-width:1.0;" width="10" x="1389.5" y="703.8984"/><polygon fill="#181818" points="590.5,110.9609,600.5,114.9609,590.5,118.9609,594.5,114.9609" style="stroke:#181818;stroke-width:1.0;"/><line style="stroke:#181818;stroke-width:1.0;" x1="26.5" x2="596.5" y1="114.9609" y2="114.9609"/><text fill="#000000" font-family="sans-serif" font-size="13" font-weight="bold" lengthAdjust="spacing" textLength="7" x="33.5" y="110.1045">1</text><text fill="#000000" font-family="sans-serif" font-size="13" lengthAdjust="spacing" textLength="184" x="44.5" y="110.1045">asks to record a complete entry</text><polygon fill="#181818" points="671.5,141.3125,681.5,145.3125,671.5,149.3125,675.5,145.3125" style="stroke:#181818;stroke-width:1.0;"/><line style="stroke:#181818;stroke-width:1.0;" x1="607.5" x2="677.5" y1="145.3125" y2="145.3125"/><text fill="#000000" font-family="sans-serif" font-size="13" font-weight="bold" lengthAdjust="spacing" textLength="7" x="614.5" y="140.4561">2</text><text fill="#000000" font-family="sans-serif" font-size="13" lengthAdjust="spacing" textLength="36" x="625.5" y="140.4561">create</text><rect fill="#E3E3E3" height="31.6094" rx="2.5" ry="2.5" style="stroke:#181818;stroke-width:0.5;" width="159" x="683.5" y="122.9609"/><text fill="#000000" font-family="sans-serif" font-size="14" lengthAdjust="spacing" textLength="145" x="690.5" y="144.4941">:RecordEntryController</text><polygon fill="#181818" points="884,183.9219,894,187.9219,884,191.9219,888,187.9219" style="stroke:#181818;stroke-width:1.0;"/><line style="stroke:#181818;stroke-width:1.0;" x1="768" x2="890" y1="187.9219" y2="187.9219"/><text fill="#000000" font-family="sans-serif" font-size="13" font-weight="bold" lengthAdjust="spacing" textLength="7" x="775" y="183.0654">3</text><text fill="#000000" font-family="sans-serif" font-size="13" lengthAdjust="spacing" textLength="75" x="786" y="183.0654">getInstance()</text><polygon fill="#181818" points="779,214.2734,769,218.2734,779,222.2734,775,218.2734" style="stroke:#181818;stroke-width:1.0;"/><line style="stroke:#181818;stroke-width:1.0;stroke-dasharray:2.0,2.0;" x1="773" x2="900" y1="218.2734" y2="218.2734"/><text fill="#000000" font-family="sans-serif" font-size="13" font-weight="bold" lengthAdjust="spacing" textLength="7" x="785" y="213.417">4</text><text fill="#000000" font-family="sans-serif" font-size="13" lengthAdjust="spacing" textLength="67" x="796" y="213.417">repositories</text><polygon fill="#181818" points="991,244.625,1001,248.625,991,252.625,995,248.625" style="stroke:#181818;stroke-width:1.0;"/><line style="stroke:#181818;stroke-width:1.0;" x1="768" x2="997" y1="248.625" y2="248.625"/><text fill="#000000" font-family="sans-serif" font-size="13" font-weight="bold" lengthAdjust="spacing" textLength="7" x="775" y="243.7686">5</text><text fill="#000000" font-family="sans-serif" font-size="13" lengthAdjust="spacing" textLength="120" x="786" y="243.7686">getTeamRepository()</text><polygon fill="#181818" points="779,274.9766,769,278.9766,779,282.9766,775,278.9766" style="stroke:#181818;stroke-width:1.0;"/><line style="stroke:#181818;stroke-width:1.0;stroke-dasharray:2.0,2.0;" x1="773" x2="1007" y1="278.9766" y2="278.9766"/><text fill="#000000" font-family="sans-serif" font-size="13" font-weight="bold" lengthAdjust="spacing" textLength="7" x="785" y="274.1201">6</text><text fill="#000000" font-family="sans-serif" font-size="13" lengthAdjust="spacing" textLength="94" x="796" y="274.1201">TeamRepository</text><polygon fill="#181818" points="1110.5,305.3281,1120.5,309.3281,1110.5,313.3281,1114.5,309.3281" style="stroke:#181818;stroke-width:1.0;"/><line style="stroke:#181818;stroke-width:1.0;" x1="768" x2="1116.5" y1="309.3281" y2="309.3281"/><text fill="#000000" font-family="sans-serif" font-size="13" font-weight="bold" lengthAdjust="spacing" textLength="7" x="775" y="304.4717">7</text><text fill="#000000" font-family="sans-serif" font-size="13" lengthAdjust="spacing" textLength="143" x="786" y="304.4717">getTasksOfCollaborator()</text><polygon fill="#181818" points="779,335.6797,769,339.6797,779,343.6797,775,339.6797" style="stroke:#181818;stroke-width:1.0;"/><line style="stroke:#181818;stroke-width:1.0;stroke-dasharray:2.0,2.0;" x1="773" x2="1126.5" y1="339.6797" y2="339.6797"/><text fill="#000000" font-family="sans-serif" font-size="13" font-weight="bold" lengthAdjust="spacing" textLength="7" x="785" y="334.8232">8</text><text fill="#000000" font-family="sans-serif" font-size="13" lengthAdjust="spacing" textLength="51" x="796" y="334.8232">ToDoList</text><polygon fill="#181818" points="1215,366.0313,1225,370.0313,1215,374.0313,1219,370.0313" style="stroke:#181818;stroke-width:1.0;"/><line style="stroke:#181818;stroke-width:1.0;" x1="768" x2="1221" y1="370.0313" y2="370.0313"/><text fill="#000000" font-family="sans-serif" font-size="13" font-weight="bold" lengthAdjust="spacing" textLength="7" x="775" y="365.1748">9</text><text fill="#000000" font-family="sans-serif" font-size="13" lengthAdjust="spacing" textLength="165" x="786" y="365.1748">verifyExistingTasks(taskList)</text><polygon fill="#181818" points="779,396.3828,769,400.3828,779,404.3828,775,400.3828" style="stroke:#181818;stroke-width:1.0;"/><line style="stroke:#181818;stroke-width:1.0;stroke-dasharray:2.0,2.0;" x1="773" x2="1231" y1="400.3828" y2="400.3828"/><text fill="#000000" font-family="sans-serif" font-size="13" font-weight="bold" lengthAdjust="spacing" textLength="14" x="785" y="395.5264">10</text><text fill="#000000" font-family="sans-serif" font-size="13" lengthAdjust="spacing" textLength="51" x="803" y="395.5264">ToDoList</text><polygon fill="#181818" points="1293.5,426.7344,1303.5,430.7344,1293.5,434.7344,1297.5,430.7344" style="stroke:#181818;stroke-width:1.0;"/><line style="stroke:#181818;stroke-width:1.0;" x1="768" x2="1299.5" y1="430.7344" y2="430.7344"/><text fill="#000000" font-family="sans-serif" font-size="13" font-weight="bold" lengthAdjust="spacing" textLength="14" x="775" y="425.8779">11</text><text fill="#000000" font-family="sans-serif" font-size="13" lengthAdjust="spacing" textLength="165" x="793" y="425.8779">verifyExistingTasks(taskList)</text><polygon fill="#181818" points="779,457.0859,769,461.0859,779,465.0859,775,461.0859" style="stroke:#181818;stroke-width:1.0;"/><line style="stroke:#181818;stroke-width:1.0;stroke-dasharray:2.0,2.0;" x1="773" x2="1309.5" y1="461.0859" y2="461.0859"/><text fill="#000000" font-family="sans-serif" font-size="13" font-weight="bold" lengthAdjust="spacing" textLength="14" x="785" y="456.2295">12</text><text fill="#000000" font-family="sans-serif" font-size="13" lengthAdjust="spacing" textLength="51" x="803" y="456.2295">ToDoList</text><polygon fill="#181818" points="623.5,487.4375,613.5,491.4375,623.5,495.4375,619.5,491.4375" style="stroke:#181818;stroke-width:1.0;"/><line style="stroke:#181818;stroke-width:1.0;stroke-dasharray:2.0,2.0;" x1="617.5" x2="762" y1="491.4375" y2="491.4375"/><text fill="#000000" font-family="sans-serif" font-size="13" font-weight="bold" lengthAdjust="spacing" textLength="14" x="629.5" y="486.5811">13</text><text fill="#000000" font-family="sans-serif" font-size="13" lengthAdjust="spacing" textLength="51" x="647.5" y="486.5811">ToDoList</text><polygon fill="#181818" points="37.5,517.7891,27.5,521.7891,37.5,525.7891,33.5,521.7891" style="stroke:#181818;stroke-width:1.0;"/><line style="stroke:#181818;stroke-width:1.0;" x1="31.5" x2="606.5" y1="521.7891" y2="521.7891"/><text fill="#000000" font-family="sans-serif" font-size="13" font-weight="bold" lengthAdjust="spacing" textLength="14" x="43.5" y="516.9326">14</text><text fill="#000000" font-family="sans-serif" font-size="13" lengthAdjust="spacing" textLength="534" x="61.5" y="516.9326">shows the list of the entry assign to the collaborator and requests to select the one to record</text><polygon fill="#181818" points="590.5,548.1406,600.5,552.1406,590.5,556.1406,594.5,552.1406" style="stroke:#181818;stroke-width:1.0;"/><line style="stroke:#181818;stroke-width:1.0;" x1="26.5" x2="596.5" y1="552.1406" y2="552.1406"/><text fill="#000000" font-family="sans-serif" font-size="13" font-weight="bold" lengthAdjust="spacing" textLength="14" x="33.5" y="547.2842">15</text><text fill="#000000" font-family="sans-serif" font-size="13" lengthAdjust="spacing" textLength="142" x="51.5" y="547.2842">select an assigned entry</text><polygon fill="#181818" points="37.5,578.4922,27.5,582.4922,37.5,586.4922,33.5,582.4922" style="stroke:#181818;stroke-width:1.0;"/><line style="stroke:#181818;stroke-width:1.0;stroke-dasharray:2.0,2.0;" x1="31.5" x2="606.5" y1="582.4922" y2="582.4922"/><text fill="#000000" font-family="sans-serif" font-size="13" font-weight="bold" lengthAdjust="spacing" textLength="14" x="43.5" y="577.6357">16</text><text fill="#000000" font-family="sans-serif" font-size="13" lengthAdjust="spacing" textLength="216" x="61.5" y="577.6357">show entry and requests confirmation</text><polygon fill="#181818" points="590.5,608.8438,600.5,612.8438,590.5,616.8438,594.5,612.8438" style="stroke:#181818;stroke-width:1.0;"/><line style="stroke:#181818;stroke-width:1.0;" x1="26.5" x2="596.5" y1="612.8438" y2="612.8438"/><text fill="#000000" font-family="sans-serif" font-size="13" font-weight="bold" lengthAdjust="spacing" textLength="14" x="33.5" y="607.9873">17</text><text fill="#000000" font-family="sans-serif" font-size="13" lengthAdjust="spacing" textLength="78" x="51.5" y="607.9873">confirms data</text><polygon fill="#181818" points="746,639.1953,756,643.1953,746,647.1953,750,643.1953" style="stroke:#181818;stroke-width:1.0;"/><line style="stroke:#181818;stroke-width:1.0;" x1="607.5" x2="752" y1="643.1953" y2="643.1953"/><text fill="#000000" font-family="sans-serif" font-size="13" font-weight="bold" lengthAdjust="spacing" textLength="14" x="614.5" y="638.3389">18</text><text fill="#000000" font-family="sans-serif" font-size="13" lengthAdjust="spacing" textLength="68" x="632.5" y="638.3389">submit data</text><polygon fill="#181818" points="1110.5,669.5469,1120.5,673.5469,1110.5,677.5469,1114.5,673.5469" style="stroke:#181818;stroke-width:1.0;"/><line style="stroke:#181818;stroke-width:1.0;" x1="763" x2="1116.5" y1="673.5469" y2="673.5469"/><text fill="#000000" font-family="sans-serif" font-size="13" font-weight="bold" lengthAdjust="spacing" textLength="14" x="770" y="668.6904">19</text><text fill="#000000" font-family="sans-serif" font-size="13" lengthAdjust="spacing" textLength="220" x="788" y="668.6904">recordEntryCompletion(selectedEntry)</text><polygon fill="#181818" points="1377.5,699.8984,1387.5,703.8984,1377.5,707.8984,1381.5,703.8984" style="stroke:#181818;stroke-width:1.0;"/><line style="stroke:#181818;stroke-width:1.0;" x1="1127.5" x2="1383.5" y1="703.8984" y2="703.8984"/><text fill="#000000" font-family="sans-serif" font-size="13" font-weight="bold" lengthAdjust="spacing" textLength="14" x="1134.5" y="699.042">20</text><text fill="#000000" font-family="sans-serif" font-size="13" lengthAdjust="spacing" textLength="220" x="1152.5" y="699.042">recordEntryCompletion(selectedEntry)</text><line style="stroke:#181818;stroke-width:1.0;" x1="1399.5" x2="1441.5" y1="734.25" y2="734.25"/><line style="stroke:#181818;stroke-width:1.0;" x1="1441.5" x2="1441.5" y1="734.25" y2="747.25"/><line style="stroke:#181818;stroke-width:1.0;" x1="1400.5" x2="1441.5" y1="747.25" y2="747.25"/><polygon fill="#181818" points="1410.5,743.25,1400.5,747.25,1410.5,751.25,1406.5,747.25" style="stroke:#181818;stroke-width:1.0;"/><text fill="#000000" font-family="sans-serif" font-size="13" font-weight="bold" lengthAdjust="spacing" textLength="14" x="1406.5" y="729.3936">21</text><text fill="#000000" font-family="sans-serif" font-size="13" lengthAdjust="spacing" textLength="117" x="1424.5" y="729.3936">setStatus(complete)</text><polygon fill="#181818" points="1143.5,773.6016,1133.5,777.6016,1143.5,781.6016,1139.5,777.6016" style="stroke:#181818;stroke-width:1.0;"/><line style="stroke:#181818;stroke-width:1.0;stroke-dasharray:2.0,2.0;" x1="1137.5" x2="1393.5" y1="777.6016" y2="777.6016"/><text fill="#000000" font-family="sans-serif" font-size="13" font-weight="bold" lengthAdjust="spacing" textLength="14" x="1149.5" y="772.7451">22</text><text fill="#000000" font-family="sans-serif" font-size="13" lengthAdjust="spacing" textLength="49" x="1167.5" y="772.7451">success</text><polygon fill="#181818" points="779,803.9531,769,807.9531,779,811.9531,775,807.9531" style="stroke:#181818;stroke-width:1.0;"/><line style="stroke:#181818;stroke-width:1.0;stroke-dasharray:2.0,2.0;" x1="773" x2="1126.5" y1="807.9531" y2="807.9531"/><text fill="#000000" font-family="sans-serif" font-size="13" font-weight="bold" lengthAdjust="spacing" textLength="14" x="785" y="803.0967">23</text><text fill="#000000" font-family="sans-serif" font-size="13" lengthAdjust="spacing" textLength="49" x="803" y="803.0967">success</text><polygon fill="#181818" points="623.5,834.3047,613.5,838.3047,623.5,842.3047,619.5,838.3047" style="stroke:#181818;stroke-width:1.0;"/><line style="stroke:#181818;stroke-width:1.0;stroke-dasharray:2.0,2.0;" x1="617.5" x2="762" y1="838.3047" y2="838.3047"/><text fill="#000000" font-family="sans-serif" font-size="13" font-weight="bold" lengthAdjust="spacing" textLength="14" x="629.5" y="833.4482">24</text><text fill="#000000" font-family="sans-serif" font-size="13" lengthAdjust="spacing" textLength="49" x="647.5" y="833.4482">success</text><polygon fill="#181818" points="37.5,864.6563,27.5,868.6563,37.5,872.6563,33.5,868.6563" style="stroke:#181818;stroke-width:1.0;"/><line style="stroke:#181818;stroke-width:1.0;stroke-dasharray:2.0,2.0;" x1="31.5" x2="606.5" y1="868.6563" y2="868.6563"/><text fill="#000000" font-family="sans-serif" font-size="13" font-weight="bold" lengthAdjust="spacing" textLength="14" x="43.5" y="863.7998">25</text><text fill="#000000" font-family="sans-serif" font-size="13" lengthAdjust="spacing" textLength="323" x="61.5" y="863.7998">displays success message (Entry record as completed)</text><!--SRC=[fLPDR-8m4BtdLumuGQN-WHmgTLaEbP1sLUYj5-CCmIAnixRJBlz-nyvtd53evX2CFVFcUJpp77CMic2QvP0hgVX9gnp1wX8ZqwuKZ9zPYZjxoH0qSijaclKDp8abwbF858uiCnX54IkjacL-G4rZRfM6nNhxOm7C0Fr6v6O55mMJ5XRnAtAbausq-lBsuctUNkPDrehUAijGLt3xrsrWN2WZAAX0ustQYSjEEEh4RUYYUnxlCWJulNtU3ptsoF8EDdwNmmdlDPmQaNnEKIRCsrN3qRfLFzLM65iXrN-YeH6wV11VdnTlw4UHpxduO1PzjYEWXmRm-4IPXPWCpmQiScT9MGK6NEK5fGN18thx5e7Ema-uXxm9mwNyuO5mk4QoQ5SJx3l1wEaekHCRBBiP1pnnJZ6aQ5-aePhZk5n5auXJvnl4dp22ntetCVGhOE3QszINOPfzk781ptnO0dFyVNa5X3rAnt1KJJCSGwY6rD2_fkSguTTnJUt43aepMfdZE0eVi1t1DxmfJbkyCvIl8JVagnOXi0_KudZP_2KyEWFFVsdfxGBCCA_RAs1SOzx1T0gfJM_j-psENOC7UMrmxyde95h5jD600AFdxpiqu3WX1AGfCQc_-YGvEI5aZgSw-h5N4b8Q8rBfjCRDyLwT0PC9TTsV4etrOcGmewl5soc9dJn5eRG4WbRxCba7nEGM9Hlie27SPyMLF0gTCokeqs-WKTiRI9XbjwYeYrqUSc4xZtaXlK50WnxN_NlJQpnjPLcb2wlvrLmL3QhWlxJWgRgNliFdkbRCtZ7rFGWJJqMbnycWtLbcIxDihi5Lw5bxJUNOb9oZCTTeRzfYl3kVyxew5VUsL7rPIMrVZKBShH5jYoN251cxc0OISdhHHoKigymsdoAc_HP9LXCjzmy0]--></g></svg>