<?xml version="1.0" encoding="UTF-8" standalone="no"?><svg xmlns="http://www.w3.org/2000/svg" xmlns:xlink="http://www.w3.org/1999/xlink" contentStyleType="text/css" height="1505px" preserveAspectRatio="none" style="width:2287px;height:1505px;background:#FFFFFF;" version="1.1" viewBox="0 0 2287 1505" width="2287px" zoomAndPan="magnify"><defs/><g><rect fill="#FFFFFF" height="1321.4063" style="stroke:#181818;stroke-width:1.0;" width="10" x="16.5" y="92.6094"/><rect fill="#FFFFFF" height="30.3516" style="stroke:#181818;stroke-width:1.0;" width="10" x="646.5" y="114.9609"/><rect fill="#FFFFFF" height="305.0313" style="stroke:#181818;stroke-width:1.0;" width="10" x="646.5" y="370.0313"/><rect fill="#FFFFFF" height="30.3516" style="stroke:#181818;stroke-width:1.0;" width="10" x="646.5" y="705.4141"/><rect fill="#FFFFFF" height="30.3516" style="stroke:#181818;stroke-width:1.0;" width="10" x="646.5" y="766.1172"/><rect fill="#FFFFFF" height="30.3516" style="stroke:#181818;stroke-width:1.0;" width="10" x="646.5" y="1374.6641"/><rect fill="#FFFFFF" height="184.3672" style="stroke:#181818;stroke-width:1.0;" width="10" x="1005.5" y="155.3125"/><rect fill="#FFFFFF" height="91.0547" style="stroke:#181818;stroke-width:1.0;" width="10" x="1005.5" y="370.0313"/><rect fill="#FFFFFF" height="30.3516" style="stroke:#181818;stroke-width:1.0;" width="10" x="1005.5" y="614.3594"/><rect fill="#FFFFFF" height="30.3516" style="stroke:#181818;stroke-width:1.0;" width="10" x="1005.5" y="796.4688"/><rect fill="#FFFFFF" height="30.3516" style="stroke:#181818;stroke-width:1.0;" width="10" x="1005.5" y="947.7422"/><rect fill="#FFFFFF" height="30.3516" style="stroke:#181818;stroke-width:1.0;" width="10" x="1005.5" y="1101.5"/><rect fill="#FFFFFF" height="30.3516" style="stroke:#181818;stroke-width:1.0;" width="10" x="1005.5" y="1222.9063"/><rect fill="#FFFFFF" height="30.3516" style="stroke:#181818;stroke-width:1.0;" width="10" x="1005.5" y="1344.3125"/><rect fill="#FFFFFF" height="30.3516" style="stroke:#181818;stroke-width:1.0;" width="10" x="1143.5" y="187.9219"/><rect fill="#FFFFFF" height="30.3516" style="stroke:#181818;stroke-width:1.0;" width="10" x="1250.5" y="248.625"/><rect fill="#FFFFFF" height="30.3516" style="stroke:#181818;stroke-width:1.0;" width="10" x="1250.5" y="309.3281"/><rect fill="#FFFFFF" height="30.3516" style="stroke:#181818;stroke-width:1.0;" width="10" x="1397.5" y="400.3828"/><rect fill="#FFFFFF" height="91.0547" style="stroke:#181818;stroke-width:1.0;" width="10" x="1397.5" y="1253.2578"/><rect fill="#FFFFFF" height="91.0547" style="stroke:#181818;stroke-width:1.0;" width="10" x="1528" y="1131.8516"/><rect fill="#FFFFFF" height="123.4063" style="stroke:#181818;stroke-width:1.0;" width="10" x="1665" y="978.0938"/><rect fill="#FFFFFF" height="153.2734" style="stroke:#181818;stroke-width:1.0;" width="10" x="1813" y="461.0859"/><rect fill="#FFFFFF" height="120.9219" style="stroke:#181818;stroke-width:1.0;" width="10" x="1813" y="826.8203"/><rect fill="#FFFFFF" height="50.2188" style="stroke:#181818;stroke-width:1.0;" width="10" x="1946" y="867.1719"/><rect fill="#FFFFFF" height="30.3516" style="stroke:#181818;stroke-width:1.0;" width="10" x="1946" y="1283.6094"/><rect fill="#FFFFFF" height="50.2188" style="stroke:#181818;stroke-width:1.0;" width="10" x="2067" y="526.7891"/><rect fill="#FFFFFF" height="30.3516" style="stroke:#181818;stroke-width:1.0;" width="10" x="2165" y="1162.2031"/><rect fill="#FFFFFF" height="30.3516" style="stroke:#181818;stroke-width:1.0;" width="10" x="2234" y="1033.7969"/><rect fill="none" height="108.9219" style="stroke:#000000;stroke-width:1.5;" width="407" x="1736" y="476.0859"/><rect fill="none" height="79.0547" style="stroke:#000000;stroke-width:1.5;" width="687" x="1594" y="993.0938"/><line style="stroke:#181818;stroke-width:0.5;stroke-dasharray:5.0,5.0;" x1="21" x2="21" y1="82.6094" y2="1423.0156"/><line style="stroke:#181818;stroke-width:0.5;stroke-dasharray:5.0,5.0;" x1="651" x2="651" y1="82.6094" y2="1423.0156"/><line style="stroke:#181818;stroke-width:0.5;stroke-dasharray:5.0,5.0;" x1="1010" x2="1010" y1="154.2656" y2="1423.0156"/><line style="stroke:#181818;stroke-width:0.5;stroke-dasharray:5.0,5.0;" x1="1148" x2="1148" y1="82.6094" y2="1423.0156"/><line style="stroke:#181818;stroke-width:0.5;stroke-dasharray:5.0,5.0;" x1="1255" x2="1255" y1="82.6094" y2="1423.0156"/><line style="stroke:#181818;stroke-width:0.5;stroke-dasharray:5.0,5.0;" x1="1402" x2="1402" y1="82.6094" y2="1423.0156"/><line style="stroke:#181818;stroke-width:0.5;stroke-dasharray:5.0,5.0;" x1="1533" x2="1533" y1="82.6094" y2="1423.0156"/><line style="stroke:#181818;stroke-width:0.5;stroke-dasharray:5.0,5.0;" x1="1670" x2="1670" y1="82.6094" y2="1423.0156"/><line style="stroke:#181818;stroke-width:0.5;stroke-dasharray:5.0,5.0;" x1="1818" x2="1818" y1="82.6094" y2="1423.0156"/><line style="stroke:#181818;stroke-width:0.5;stroke-dasharray:5.0,5.0;" x1="1951" x2="1951" y1="874.9297" y2="1423.0156"/><line style="stroke:#181818;stroke-width:0.5;stroke-dasharray:5.0,5.0;" x1="2072" x2="2072" y1="534.5469" y2="1423.0156"/><line style="stroke:#181818;stroke-width:0.5;stroke-dasharray:5.0,5.0;" x1="2170" x2="2170" y1="82.6094" y2="1423.0156"/><line style="stroke:#181818;stroke-width:0.5;stroke-dasharray:5.0,5.0;" x1="2239" x2="2239" y1="82.6094" y2="1423.0156"/><text fill="#000000" font-family="sans-serif" font-size="14" lengthAdjust="spacing" textLength="27" x="5" y="79.5332">CLB</text><ellipse cx="21.5" cy="13.5" fill="#E3E3E3" rx="8" ry="8" style="stroke:#181818;stroke-width:0.5;"/><path d="M21.5,21.5 L21.5,48.5 M8.5,29.5 L34.5,29.5 M21.5,48.5 L8.5,63.5 M21.5,48.5 L34.5,63.5 " fill="none" style="stroke:#181818;stroke-width:0.5;"/><text fill="#000000" font-family="sans-serif" font-size="14" lengthAdjust="spacing" textLength="27" x="5" y="1436.5488">CLB</text><ellipse cx="21.5" cy="1448.125" fill="#E3E3E3" rx="8" ry="8" style="stroke:#181818;stroke-width:0.5;"/><path d="M21.5,1456.125 L21.5,1483.125 M8.5,1464.125 L34.5,1464.125 M21.5,1483.125 L8.5,1498.125 M21.5,1483.125 L34.5,1498.125 " fill="none" style="stroke:#181818;stroke-width:0.5;"/><rect fill="#E3E3E3" height="31.6094" rx="2.5" ry="2.5" style="stroke:#181818;stroke-width:0.5;" width="109" x="597" y="50"/><text fill="#000000" font-family="sans-serif" font-size="14" lengthAdjust="spacing" textLength="95" x="604" y="71.5332">:RecordEntryUI</text><rect fill="#E3E3E3" height="31.6094" rx="2.5" ry="2.5" style="stroke:#181818;stroke-width:0.5;" width="109" x="597" y="1422.0156"/><text fill="#000000" font-family="sans-serif" font-size="14" lengthAdjust="spacing" textLength="95" x="604" y="1443.5488">:RecordEntryUI</text><rect fill="#E3E3E3" height="31.6094" rx="2.5" ry="2.5" style="stroke:#181818;stroke-width:0.5;" width="159" x="931" y="1422.0156"/><text fill="#000000" font-family="sans-serif" font-size="14" lengthAdjust="spacing" textLength="145" x="938" y="1443.5488">:RecordEntryController</text><rect fill="#E3E3E3" height="31.6094" rx="2.5" ry="2.5" style="stroke:#181818;stroke-width:0.5;" width="97" x="1100" y="50"/><text fill="#000000" font-family="sans-serif" font-size="14" lengthAdjust="spacing" textLength="83" x="1107" y="71.5332">:Repositories</text><rect fill="#E3E3E3" height="31.6094" rx="2.5" ry="2.5" style="stroke:#181818;stroke-width:0.5;" width="97" x="1100" y="1422.0156"/><text fill="#000000" font-family="sans-serif" font-size="14" lengthAdjust="spacing" textLength="83" x="1107" y="1443.5488">:Repositories</text><rect fill="#E3E3E3" height="49.2188" rx="2.5" ry="2.5" style="stroke:#181818;stroke-width:0.5;" width="97" x="1207" y="32.3906"/><text fill="#000000" font-family="sans-serif" font-size="14" lengthAdjust="spacing" textLength="74" x="1218.5" y="53.9238">repositories</text><text fill="#000000" font-family="sans-serif" font-size="14" lengthAdjust="spacing" textLength="83" x="1214" y="71.5332">:Repositories</text><rect fill="#E3E3E3" height="49.2188" rx="2.5" ry="2.5" style="stroke:#181818;stroke-width:0.5;" width="97" x="1207" y="1422.0156"/><text fill="#000000" font-family="sans-serif" font-size="14" lengthAdjust="spacing" textLength="74" x="1218.5" y="1443.5488">repositories</text><text fill="#000000" font-family="sans-serif" font-size="14" lengthAdjust="spacing" textLength="83" x="1214" y="1461.1582">:Repositories</text><rect fill="#E3E3E3" height="49.2188" rx="2.5" ry="2.5" style="stroke:#181818;stroke-width:0.5;" width="119" x="1343" y="32.3906"/><text fill="#000000" font-family="sans-serif" font-size="14" lengthAdjust="spacing" textLength="100" x="1352.5" y="53.9238">entryRepository</text><text fill="#000000" font-family="sans-serif" font-size="14" lengthAdjust="spacing" textLength="105" x="1350" y="71.5332">:EntryRepository</text><rect fill="#E3E3E3" height="49.2188" rx="2.5" ry="2.5" style="stroke:#181818;stroke-width:0.5;" width="119" x="1343" y="1422.0156"/><text fill="#000000" font-family="sans-serif" font-size="14" lengthAdjust="spacing" textLength="100" x="1352.5" y="1443.5488">entryRepository</text><text fill="#000000" font-family="sans-serif" font-size="14" lengthAdjust="spacing" textLength="105" x="1350" y="1461.1582">:EntryRepository</text><rect fill="#E3E3E3" height="49.2188" rx="2.5" ry="2.5" style="stroke:#181818;stroke-width:0.5;" width="122" x="1472" y="32.3906"/><text fill="#000000" font-family="sans-serif" font-size="14" lengthAdjust="spacing" textLength="99" x="1483.5" y="53.9238">teamRepository</text><text fill="#000000" font-family="sans-serif" font-size="14" lengthAdjust="spacing" textLength="108" x="1479" y="71.5332">:TeamRepository</text><rect fill="#E3E3E3" height="49.2188" rx="2.5" ry="2.5" style="stroke:#181818;stroke-width:0.5;" width="122" x="1472" y="1422.0156"/><text fill="#000000" font-family="sans-serif" font-size="14" lengthAdjust="spacing" textLength="99" x="1483.5" y="1443.5488">teamRepository</text><text fill="#000000" font-family="sans-serif" font-size="14" lengthAdjust="spacing" textLength="108" x="1479" y="1461.1582">:TeamRepository</text><rect fill="#E3E3E3" height="49.2188" rx="2.5" ry="2.5" style="stroke:#181818;stroke-width:0.5;" width="132" x="1604" y="32.3906"/><text fill="#000000" font-family="sans-serif" font-size="14" lengthAdjust="spacing" textLength="112" x="1614" y="53.9238">vehicleRepository</text><text fill="#000000" font-family="sans-serif" font-size="14" lengthAdjust="spacing" textLength="118" x="1611" y="71.5332">:VehicleRepository</text><rect fill="#E3E3E3" height="49.2188" rx="2.5" ry="2.5" style="stroke:#181818;stroke-width:0.5;" width="132" x="1604" y="1422.0156"/><text fill="#000000" font-family="sans-serif" font-size="14" lengthAdjust="spacing" textLength="112" x="1614" y="1443.5488">vehicleRepository</text><text fill="#000000" font-family="sans-serif" font-size="14" lengthAdjust="spacing" textLength="118" x="1611" y="1461.1582">:VehicleRepository</text><rect fill="#E3E3E3" height="31.6094" rx="2.5" ry="2.5" style="stroke:#181818;stroke-width:0.5;" width="144" x="1746" y="50"/><text fill="#000000" font-family="sans-serif" font-size="14" lengthAdjust="spacing" textLength="130" x="1753" y="71.5332">AgendaEntryMapper</text><rect fill="#E3E3E3" height="31.6094" rx="2.5" ry="2.5" style="stroke:#181818;stroke-width:0.5;" width="144" x="1746" y="1422.0156"/><text fill="#000000" font-family="sans-serif" font-size="14" lengthAdjust="spacing" textLength="130" x="1753" y="1443.5488">AgendaEntryMapper</text><rect fill="#E3E3E3" height="49.2188" rx="2.5" ry="2.5" style="stroke:#181818;stroke-width:0.5;" width="100" x="1901" y="1422.0156"/><text fill="#000000" font-family="sans-serif" font-size="14" lengthAdjust="spacing" textLength="81" x="1910.5" y="1443.5488">agendaEntry</text><text fill="#000000" font-family="sans-serif" font-size="14" lengthAdjust="spacing" textLength="86" x="1908" y="1461.1582">:AgendaEntry</text><rect fill="#E3E3E3" height="49.2188" rx="2.5" ry="2.5" style="stroke:#181818;stroke-width:0.5;" width="122" x="2011" y="1422.0156"/><text fill="#000000" font-family="sans-serif" font-size="14" lengthAdjust="spacing" textLength="103" x="2020.5" y="1443.5488">agendaEntryDto</text><text fill="#000000" font-family="sans-serif" font-size="14" lengthAdjust="spacing" textLength="108" x="2018" y="1461.1582">:AgendaEntryDto</text><rect fill="#E3E3E3" height="49.2188" rx="2.5" ry="2.5" style="stroke:#181818;stroke-width:0.5;" width="54" x="2143" y="32.3906"/><text fill="#000000" font-family="sans-serif" font-size="14" lengthAdjust="spacing" textLength="31" x="2154.5" y="53.9238">team</text><text fill="#000000" font-family="sans-serif" font-size="14" lengthAdjust="spacing" textLength="40" x="2150" y="71.5332">:Team</text><rect fill="#E3E3E3" height="49.2188" rx="2.5" ry="2.5" style="stroke:#181818;stroke-width:0.5;" width="54" x="2143" y="1422.0156"/><text fill="#000000" font-family="sans-serif" font-size="14" lengthAdjust="spacing" textLength="31" x="2154.5" y="1443.5488">team</text><text fill="#000000" font-family="sans-serif" font-size="14" lengthAdjust="spacing" textLength="40" x="2150" y="1461.1582">:Team</text><rect fill="#E3E3E3" height="49.2188" rx="2.5" ry="2.5" style="stroke:#181818;stroke-width:0.5;" width="64" x="2207" y="32.3906"/><text fill="#000000" font-family="sans-serif" font-size="14" lengthAdjust="spacing" textLength="44" x="2217" y="53.9238">vehicle</text><text fill="#000000" font-family="sans-serif" font-size="14" lengthAdjust="spacing" textLength="50" x="2214" y="71.5332">:Vehicle</text><rect fill="#E3E3E3" height="49.2188" rx="2.5" ry="2.5" style="stroke:#181818;stroke-width:0.5;" width="64" x="2207" y="1422.0156"/><text fill="#000000" font-family="sans-serif" font-size="14" lengthAdjust="spacing" textLength="44" x="2217" y="1443.5488">vehicle</text><text fill="#000000" font-family="sans-serif" font-size="14" lengthAdjust="spacing" textLength="50" x="2214" y="1461.1582">:Vehicle</text><rect fill="#FFFFFF" height="1321.4063" style="stroke:#181818;stroke-width:1.0;" width="10" x="16.5" y="92.6094"/><rect fill="#FFFFFF" height="30.3516" style="stroke:#181818;stroke-width:1.0;" width="10" x="646.5" y="114.9609"/><rect fill="#FFFFFF" height="305.0313" style="stroke:#181818;stroke-width:1.0;" width="10" x="646.5" y="370.0313"/><rect fill="#FFFFFF" height="30.3516" style="stroke:#181818;stroke-width:1.0;" width="10" x="646.5" y="705.4141"/><rect fill="#FFFFFF" height="30.3516" style="stroke:#181818;stroke-width:1.0;" width="10" x="646.5" y="766.1172"/><rect fill="#FFFFFF" height="30.3516" style="stroke:#181818;stroke-width:1.0;" width="10" x="646.5" y="1374.6641"/><rect fill="#FFFFFF" height="184.3672" style="stroke:#181818;stroke-width:1.0;" width="10" x="1005.5" y="155.3125"/><rect fill="#FFFFFF" height="91.0547" style="stroke:#181818;stroke-width:1.0;" width="10" x="1005.5" y="370.0313"/><rect fill="#FFFFFF" height="30.3516" style="stroke:#181818;stroke-width:1.0;" width="10" x="1005.5" y="614.3594"/><rect fill="#FFFFFF" height="30.3516" style="stroke:#181818;stroke-width:1.0;" width="10" x="1005.5" y="796.4688"/><rect fill="#FFFFFF" height="30.3516" style="stroke:#181818;stroke-width:1.0;" width="10" x="1005.5" y="947.7422"/><rect fill="#FFFFFF" height="30.3516" style="stroke:#181818;stroke-width:1.0;" width="10" x="1005.5" y="1101.5"/><rect fill="#FFFFFF" height="30.3516" style="stroke:#181818;stroke-width:1.0;" width="10" x="1005.5" y="1222.9063"/><rect fill="#FFFFFF" height="30.3516" style="stroke:#181818;stroke-width:1.0;" width="10" x="1005.5" y="1344.3125"/><rect fill="#FFFFFF" height="30.3516" style="stroke:#181818;stroke-width:1.0;" width="10" x="1143.5" y="187.9219"/><rect fill="#FFFFFF" height="30.3516" style="stroke:#181818;stroke-width:1.0;" width="10" x="1250.5" y="248.625"/><rect fill="#FFFFFF" height="30.3516" style="stroke:#181818;stroke-width:1.0;" width="10" x="1250.5" y="309.3281"/><rect fill="#FFFFFF" height="30.3516" style="stroke:#181818;stroke-width:1.0;" width="10" x="1397.5" y="400.3828"/><rect fill="#FFFFFF" height="91.0547" style="stroke:#181818;stroke-width:1.0;" width="10" x="1397.5" y="1253.2578"/><rect fill="#FFFFFF" height="91.0547" style="stroke:#181818;stroke-width:1.0;" width="10" x="1528" y="1131.8516"/><rect fill="#FFFFFF" height="123.4063" style="stroke:#181818;stroke-width:1.0;" width="10" x="1665" y="978.0938"/><rect fill="#FFFFFF" height="153.2734" style="stroke:#181818;stroke-width:1.0;" width="10" x="1813" y="461.0859"/><rect fill="#FFFFFF" height="120.9219" style="stroke:#181818;stroke-width:1.0;" width="10" x="1813" y="826.8203"/><rect fill="#FFFFFF" height="50.2188" style="stroke:#181818;stroke-width:1.0;" width="10" x="1946" y="867.1719"/><rect fill="#FFFFFF" height="30.3516" style="stroke:#181818;stroke-width:1.0;" width="10" x="1946" y="1283.6094"/><rect fill="#FFFFFF" height="50.2188" style="stroke:#181818;stroke-width:1.0;" width="10" x="2067" y="526.7891"/><rect fill="#FFFFFF" height="30.3516" style="stroke:#181818;stroke-width:1.0;" width="10" x="2165" y="1162.2031"/><rect fill="#FFFFFF" height="30.3516" style="stroke:#181818;stroke-width:1.0;" width="10" x="2234" y="1033.7969"/><polygon fill="#181818" points="634.5,110.9609,644.5,114.9609,634.5,118.9609,638.5,114.9609" style="stroke:#181818;stroke-width:1.0;"/><line style="stroke:#181818;stroke-width:1.0;" x1="26.5" x2="640.5" y1="114.9609" y2="114.9609"/><text fill="#000000" font-family="sans-serif" font-size="13" font-weight="bold" lengthAdjust="spacing" textLength="7" x="33.5" y="110.1045">1</text><text fill="#000000" font-family="sans-serif" font-size="13" lengthAdjust="spacing" textLength="228" x="44.5" y="110.1045">asks to record a complete agendaEntry</text><polygon fill="#181818" points="919,141.3125,929,145.3125,919,149.3125,923,145.3125" style="stroke:#181818;stroke-width:1.0;"/><line style="stroke:#181818;stroke-width:1.0;" x1="651.5" x2="925" y1="145.3125" y2="145.3125"/><text fill="#000000" font-family="sans-serif" font-size="13" font-weight="bold" lengthAdjust="spacing" textLength="7" x="658.5" y="140.4561">2</text><text fill="#000000" font-family="sans-serif" font-size="13" lengthAdjust="spacing" textLength="36" x="669.5" y="140.4561">create</text><rect fill="#E3E3E3" height="31.6094" rx="2.5" ry="2.5" style="stroke:#181818;stroke-width:0.5;" width="159" x="931" y="122.9609"/><text fill="#000000" font-family="sans-serif" font-size="14" lengthAdjust="spacing" textLength="145" x="938" y="144.4941">:RecordEntryController</text><polygon fill="#181818" points="1131.5,183.9219,1141.5,187.9219,1131.5,191.9219,1135.5,187.9219" style="stroke:#181818;stroke-width:1.0;"/><line style="stroke:#181818;stroke-width:1.0;" x1="1015.5" x2="1137.5" y1="187.9219" y2="187.9219"/><text fill="#000000" font-family="sans-serif" font-size="13" font-weight="bold" lengthAdjust="spacing" textLength="7" x="1022.5" y="183.0654">3</text><text fill="#000000" font-family="sans-serif" font-size="13" lengthAdjust="spacing" textLength="75" x="1033.5" y="183.0654">getInstance()</text><polygon fill="#181818" points="1026.5,214.2734,1016.5,218.2734,1026.5,222.2734,1022.5,218.2734" style="stroke:#181818;stroke-width:1.0;"/><line style="stroke:#181818;stroke-width:1.0;stroke-dasharray:2.0,2.0;" x1="1020.5" x2="1147.5" y1="218.2734" y2="218.2734"/><text fill="#000000" font-family="sans-serif" font-size="13" font-weight="bold" lengthAdjust="spacing" textLength="7" x="1032.5" y="213.417">4</text><text fill="#000000" font-family="sans-serif" font-size="13" lengthAdjust="spacing" textLength="67" x="1043.5" y="213.417">repositories</text><polygon fill="#181818" points="1238.5,244.625,1248.5,248.625,1238.5,252.625,1242.5,248.625" style="stroke:#181818;stroke-width:1.0;"/><line style="stroke:#181818;stroke-width:1.0;" x1="1015.5" x2="1244.5" y1="248.625" y2="248.625"/><text fill="#000000" font-family="sans-serif" font-size="13" font-weight="bold" lengthAdjust="spacing" textLength="7" x="1022.5" y="243.7686">5</text><text fill="#000000" font-family="sans-serif" font-size="13" lengthAdjust="spacing" textLength="120" x="1033.5" y="243.7686">getTeamRepository()</text><polygon fill="#181818" points="1026.5,274.9766,1016.5,278.9766,1026.5,282.9766,1022.5,278.9766" style="stroke:#181818;stroke-width:1.0;"/><line style="stroke:#181818;stroke-width:1.0;stroke-dasharray:2.0,2.0;" x1="1020.5" x2="1254.5" y1="278.9766" y2="278.9766"/><text fill="#000000" font-family="sans-serif" font-size="13" font-weight="bold" lengthAdjust="spacing" textLength="7" x="1032.5" y="274.1201">6</text><text fill="#000000" font-family="sans-serif" font-size="13" lengthAdjust="spacing" textLength="91" x="1043.5" y="274.1201">teamRepository</text><polygon fill="#181818" points="1238.5,305.3281,1248.5,309.3281,1238.5,313.3281,1242.5,309.3281" style="stroke:#181818;stroke-width:1.0;"/><line style="stroke:#181818;stroke-width:1.0;" x1="1015.5" x2="1244.5" y1="309.3281" y2="309.3281"/><text fill="#000000" font-family="sans-serif" font-size="13" font-weight="bold" lengthAdjust="spacing" textLength="7" x="1022.5" y="304.4717">7</text><text fill="#000000" font-family="sans-serif" font-size="13" lengthAdjust="spacing" textLength="119" x="1033.5" y="304.4717">getEntryRepository()</text><polygon fill="#181818" points="1021.5,335.6797,1011.5,339.6797,1021.5,343.6797,1017.5,339.6797" style="stroke:#181818;stroke-width:1.0;"/><line style="stroke:#181818;stroke-width:1.0;stroke-dasharray:2.0,2.0;" x1="1015.5" x2="1254.5" y1="339.6797" y2="339.6797"/><text fill="#000000" font-family="sans-serif" font-size="13" font-weight="bold" lengthAdjust="spacing" textLength="7" x="1027.5" y="334.8232">8</text><text fill="#000000" font-family="sans-serif" font-size="13" lengthAdjust="spacing" textLength="91" x="1038.5" y="334.8232">entryRepository</text><polygon fill="#181818" points="993.5,366.0313,1003.5,370.0313,993.5,374.0313,997.5,370.0313" style="stroke:#181818;stroke-width:1.0;"/><line style="stroke:#181818;stroke-width:1.0;" x1="656.5" x2="999.5" y1="370.0313" y2="370.0313"/><text fill="#000000" font-family="sans-serif" font-size="13" font-weight="bold" lengthAdjust="spacing" textLength="7" x="663.5" y="365.1748">9</text><text fill="#000000" font-family="sans-serif" font-size="13" lengthAdjust="spacing" textLength="229" x="674.5" y="365.1748">getAgendaEntryOfCollaboratorList(CLB)</text><polygon fill="#181818" points="1385.5,396.3828,1395.5,400.3828,1385.5,404.3828,1389.5,400.3828" style="stroke:#181818;stroke-width:1.0;"/><line style="stroke:#181818;stroke-width:1.0;" x1="1015.5" x2="1391.5" y1="400.3828" y2="400.3828"/><text fill="#000000" font-family="sans-serif" font-size="13" font-weight="bold" lengthAdjust="spacing" textLength="14" x="1022.5" y="395.5264">10</text><text fill="#000000" font-family="sans-serif" font-size="13" lengthAdjust="spacing" textLength="273" x="1040.5" y="395.5264">getAgendaEntriesAssignedToCollaborator(CLB)</text><polygon fill="#181818" points="1026.5,426.7344,1016.5,430.7344,1026.5,434.7344,1022.5,430.7344" style="stroke:#181818;stroke-width:1.0;"/><line style="stroke:#181818;stroke-width:1.0;stroke-dasharray:2.0,2.0;" x1="1020.5" x2="1401.5" y1="430.7344" y2="430.7344"/><text fill="#000000" font-family="sans-serif" font-size="13" font-weight="bold" lengthAdjust="spacing" textLength="14" x="1032.5" y="425.8779">11</text><text fill="#000000" font-family="sans-serif" font-size="13" lengthAdjust="spacing" textLength="94" x="1050.5" y="425.8779">agendaEntryList</text><polygon fill="#181818" points="1801,457.0859,1811,461.0859,1801,465.0859,1805,461.0859" style="stroke:#181818;stroke-width:1.0;"/><line style="stroke:#181818;stroke-width:1.0;" x1="1010.5" x2="1807" y1="461.0859" y2="461.0859"/><text fill="#000000" font-family="sans-serif" font-size="13" font-weight="bold" lengthAdjust="spacing" textLength="14" x="1017.5" y="456.2295">12</text><text fill="#000000" font-family="sans-serif" font-size="13" lengthAdjust="spacing" textLength="154" x="1035.5" y="456.2295">toDtoList(agendaEntryList)</text><path d="M1736,476.0859 L1809,476.0859 L1809,484.4375 L1799,494.4375 L1736,494.4375 L1736,476.0859 " fill="#EEEEEE" style="stroke:#000000;stroke-width:1.5;"/><rect fill="none" height="108.9219" style="stroke:#000000;stroke-width:1.5;" width="407" x="1736" y="476.0859"/><text fill="#000000" font-family="sans-serif" font-size="13" font-weight="bold" lengthAdjust="spacing" textLength="28" x="1751" y="490.5811">loop</text><polygon fill="#181818" points="1999,512.7891,2009,516.7891,1999,520.7891,2003,516.7891" style="stroke:#181818;stroke-width:1.0;"/><line style="stroke:#181818;stroke-width:1.0;" x1="1823" x2="2005" y1="516.7891" y2="516.7891"/><text fill="#000000" font-family="sans-serif" font-size="13" font-weight="bold" lengthAdjust="spacing" textLength="14" x="1830" y="511.9326">13</text><text fill="#000000" font-family="sans-serif" font-size="13" lengthAdjust="spacing" textLength="36" x="1848" y="511.9326">create</text><rect fill="#E3E3E3" height="49.2188" rx="2.5" ry="2.5" style="stroke:#181818;stroke-width:0.5;" width="122" x="2011" y="494.4375"/><text fill="#000000" font-family="sans-serif" font-size="14" lengthAdjust="spacing" textLength="103" x="2020.5" y="515.9707">agendaEntryDto</text><text fill="#000000" font-family="sans-serif" font-size="14" lengthAdjust="spacing" textLength="108" x="2018" y="533.5801">:AgendaEntryDto</text><polygon fill="#181818" points="1834,573.0078,1824,577.0078,1834,581.0078,1830,577.0078" style="stroke:#181818;stroke-width:1.0;"/><line style="stroke:#181818;stroke-width:1.0;stroke-dasharray:2.0,2.0;" x1="1828" x2="2071" y1="577.0078" y2="577.0078"/><text fill="#000000" font-family="sans-serif" font-size="13" font-weight="bold" lengthAdjust="spacing" textLength="14" x="1840" y="572.1514">14</text><text fill="#000000" font-family="sans-serif" font-size="13" lengthAdjust="spacing" textLength="93" x="1858" y="572.1514">agendaEntryDto</text><polygon fill="#181818" points="1026.5,610.3594,1016.5,614.3594,1026.5,618.3594,1022.5,614.3594" style="stroke:#181818;stroke-width:1.0;"/><line style="stroke:#181818;stroke-width:1.0;stroke-dasharray:2.0,2.0;" x1="1020.5" x2="1817" y1="614.3594" y2="614.3594"/><text fill="#000000" font-family="sans-serif" font-size="13" font-weight="bold" lengthAdjust="spacing" textLength="14" x="1032.5" y="609.5029">15</text><text fill="#000000" font-family="sans-serif" font-size="13" lengthAdjust="spacing" textLength="114" x="1050.5" y="609.5029">agendaEntryDtoList</text><polygon fill="#181818" points="667.5,640.7109,657.5,644.7109,667.5,648.7109,663.5,644.7109" style="stroke:#181818;stroke-width:1.0;"/><line style="stroke:#181818;stroke-width:1.0;stroke-dasharray:2.0,2.0;" x1="661.5" x2="1009.5" y1="644.7109" y2="644.7109"/><text fill="#000000" font-family="sans-serif" font-size="13" font-weight="bold" lengthAdjust="spacing" textLength="14" x="673.5" y="639.8545">16</text><text fill="#000000" font-family="sans-serif" font-size="13" lengthAdjust="spacing" textLength="114" x="691.5" y="639.8545">agendaEntryDtoList</text><polygon fill="#181818" points="37.5,671.0625,27.5,675.0625,37.5,679.0625,33.5,675.0625" style="stroke:#181818;stroke-width:1.0;"/><line style="stroke:#181818;stroke-width:1.0;" x1="31.5" x2="650.5" y1="675.0625" y2="675.0625"/><text fill="#000000" font-family="sans-serif" font-size="13" font-weight="bold" lengthAdjust="spacing" textLength="14" x="43.5" y="670.2061">17</text><text fill="#000000" font-family="sans-serif" font-size="13" lengthAdjust="spacing" textLength="578" x="61.5" y="670.2061">shows the list of the agendaEntry assign to the collaborator and requests to select the one to record</text><polygon fill="#181818" points="634.5,701.4141,644.5,705.4141,634.5,709.4141,638.5,705.4141" style="stroke:#181818;stroke-width:1.0;"/><line style="stroke:#181818;stroke-width:1.0;" x1="26.5" x2="640.5" y1="705.4141" y2="705.4141"/><text fill="#000000" font-family="sans-serif" font-size="13" font-weight="bold" lengthAdjust="spacing" textLength="14" x="33.5" y="700.5576">18</text><text fill="#000000" font-family="sans-serif" font-size="13" lengthAdjust="spacing" textLength="186" x="51.5" y="700.5576">select an assigned agendaEntry</text><polygon fill="#181818" points="37.5,731.7656,27.5,735.7656,37.5,739.7656,33.5,735.7656" style="stroke:#181818;stroke-width:1.0;"/><line style="stroke:#181818;stroke-width:1.0;stroke-dasharray:2.0,2.0;" x1="31.5" x2="650.5" y1="735.7656" y2="735.7656"/><text fill="#000000" font-family="sans-serif" font-size="13" font-weight="bold" lengthAdjust="spacing" textLength="14" x="43.5" y="730.9092">19</text><text fill="#000000" font-family="sans-serif" font-size="13" lengthAdjust="spacing" textLength="260" x="61.5" y="730.9092">show agendaEntry and requests confirmation</text><polygon fill="#181818" points="634.5,762.1172,644.5,766.1172,634.5,770.1172,638.5,766.1172" style="stroke:#181818;stroke-width:1.0;"/><line style="stroke:#181818;stroke-width:1.0;" x1="26.5" x2="640.5" y1="766.1172" y2="766.1172"/><text fill="#000000" font-family="sans-serif" font-size="13" font-weight="bold" lengthAdjust="spacing" textLength="14" x="33.5" y="761.2607">20</text><text fill="#000000" font-family="sans-serif" font-size="13" lengthAdjust="spacing" textLength="78" x="51.5" y="761.2607">confirms data</text><polygon fill="#181818" points="993.5,792.4688,1003.5,796.4688,993.5,800.4688,997.5,796.4688" style="stroke:#181818;stroke-width:1.0;"/><line style="stroke:#181818;stroke-width:1.0;" x1="651.5" x2="999.5" y1="796.4688" y2="796.4688"/><text fill="#000000" font-family="sans-serif" font-size="13" font-weight="bold" lengthAdjust="spacing" textLength="14" x="658.5" y="791.6123">21</text><text fill="#000000" font-family="sans-serif" font-size="13" lengthAdjust="spacing" textLength="312" x="676.5" y="791.6123">recordEntryCompletion(selectedAgendaEntryDto, flag)</text><polygon fill="#181818" points="1801,822.8203,1811,826.8203,1801,830.8203,1805,826.8203" style="stroke:#181818;stroke-width:1.0;"/><line style="stroke:#181818;stroke-width:1.0;" x1="1010.5" x2="1807" y1="826.8203" y2="826.8203"/><text fill="#000000" font-family="sans-serif" font-size="13" font-weight="bold" lengthAdjust="spacing" textLength="14" x="1017.5" y="821.9639">22</text><text fill="#000000" font-family="sans-serif" font-size="13" lengthAdjust="spacing" textLength="207" x="1035.5" y="821.9639">toDomain(selectedAgendaEntryDto)</text><polygon fill="#181818" points="1889,853.1719,1899,857.1719,1889,861.1719,1893,857.1719" style="stroke:#181818;stroke-width:1.0;"/><line style="stroke:#181818;stroke-width:1.0;" x1="1823" x2="1895" y1="857.1719" y2="857.1719"/><text fill="#000000" font-family="sans-serif" font-size="13" font-weight="bold" lengthAdjust="spacing" textLength="14" x="1830" y="852.3154">23</text><text fill="#000000" font-family="sans-serif" font-size="13" lengthAdjust="spacing" textLength="36" x="1848" y="852.3154">create</text><rect fill="#E3E3E3" height="49.2188" rx="2.5" ry="2.5" style="stroke:#181818;stroke-width:0.5;" width="100" x="1901" y="834.8203"/><text fill="#000000" font-family="sans-serif" font-size="14" lengthAdjust="spacing" textLength="81" x="1910.5" y="856.3535">agendaEntry</text><text fill="#000000" font-family="sans-serif" font-size="14" lengthAdjust="spacing" textLength="86" x="1908" y="873.9629">:AgendaEntry</text><polygon fill="#181818" points="1834,913.3906,1824,917.3906,1834,921.3906,1830,917.3906" style="stroke:#181818;stroke-width:1.0;"/><line style="stroke:#181818;stroke-width:1.0;stroke-dasharray:2.0,2.0;" x1="1828" x2="1950" y1="917.3906" y2="917.3906"/><text fill="#000000" font-family="sans-serif" font-size="13" font-weight="bold" lengthAdjust="spacing" textLength="14" x="1840" y="912.5342">24</text><text fill="#000000" font-family="sans-serif" font-size="13" lengthAdjust="spacing" textLength="73" x="1858" y="912.5342">agendaEntry</text><polygon fill="#181818" points="1026.5,943.7422,1016.5,947.7422,1026.5,951.7422,1022.5,947.7422" style="stroke:#181818;stroke-width:1.0;"/><line style="stroke:#181818;stroke-width:1.0;stroke-dasharray:2.0,2.0;" x1="1020.5" x2="1817" y1="947.7422" y2="947.7422"/><text fill="#000000" font-family="sans-serif" font-size="13" font-weight="bold" lengthAdjust="spacing" textLength="14" x="1032.5" y="942.8857">25</text><text fill="#000000" font-family="sans-serif" font-size="13" lengthAdjust="spacing" textLength="73" x="1050.5" y="942.8857">agendaEntry</text><polygon fill="#181818" points="1653,974.0938,1663,978.0938,1653,982.0938,1657,978.0938" style="stroke:#181818;stroke-width:1.0;"/><line style="stroke:#181818;stroke-width:1.0;" x1="1010.5" x2="1659" y1="978.0938" y2="978.0938"/><text fill="#000000" font-family="sans-serif" font-size="13" font-weight="bold" lengthAdjust="spacing" textLength="14" x="1017.5" y="973.2373">26</text><text fill="#000000" font-family="sans-serif" font-size="13" lengthAdjust="spacing" textLength="250" x="1035.5" y="973.2373">setVehicleAvailable(assignedVehicles, flag)</text><path d="M1594,993.0938 L1667,993.0938 L1667,1001.4453 L1657,1011.4453 L1594,1011.4453 L1594,993.0938 " fill="#EEEEEE" style="stroke:#000000;stroke-width:1.5;"/><rect fill="none" height="79.0547" style="stroke:#000000;stroke-width:1.5;" width="687" x="1594" y="993.0938"/><text fill="#000000" font-family="sans-serif" font-size="13" font-weight="bold" lengthAdjust="spacing" textLength="28" x="1609" y="1007.5889">loop</text><polygon fill="#181818" points="2222,1029.7969,2232,1033.7969,2222,1037.7969,2226,1033.7969" style="stroke:#181818;stroke-width:1.0;"/><line style="stroke:#181818;stroke-width:1.0;" x1="1675" x2="2228" y1="1033.7969" y2="1033.7969"/><text fill="#000000" font-family="sans-serif" font-size="13" font-weight="bold" lengthAdjust="spacing" textLength="14" x="1682" y="1028.9404">27</text><text fill="#000000" font-family="sans-serif" font-size="13" lengthAdjust="spacing" textLength="97" x="1700" y="1028.9404">setAvailable(flag)</text><polygon fill="#181818" points="1686,1060.1484,1676,1064.1484,1686,1068.1484,1682,1064.1484" style="stroke:#181818;stroke-width:1.0;"/><line style="stroke:#181818;stroke-width:1.0;stroke-dasharray:2.0,2.0;" x1="1680" x2="2238" y1="1064.1484" y2="1064.1484"/><text fill="#000000" font-family="sans-serif" font-size="13" font-weight="bold" lengthAdjust="spacing" textLength="14" x="1692" y="1059.292">28</text><text fill="#000000" font-family="sans-serif" font-size="13" lengthAdjust="spacing" textLength="4" x="1710" y="1059.292"> </text><polygon fill="#181818" points="1026.5,1097.5,1016.5,1101.5,1026.5,1105.5,1022.5,1101.5" style="stroke:#181818;stroke-width:1.0;"/><line style="stroke:#181818;stroke-width:1.0;stroke-dasharray:2.0,2.0;" x1="1020.5" x2="1669" y1="1101.5" y2="1101.5"/><text fill="#000000" font-family="sans-serif" font-size="13" font-weight="bold" lengthAdjust="spacing" textLength="14" x="1032.5" y="1096.6436">29</text><text fill="#000000" font-family="sans-serif" font-size="13" lengthAdjust="spacing" textLength="49" x="1050.5" y="1096.6436">success</text><polygon fill="#181818" points="1516,1127.8516,1526,1131.8516,1516,1135.8516,1520,1131.8516" style="stroke:#181818;stroke-width:1.0;"/><line style="stroke:#181818;stroke-width:1.0;" x1="1010.5" x2="1522" y1="1131.8516" y2="1131.8516"/><text fill="#000000" font-family="sans-serif" font-size="13" font-weight="bold" lengthAdjust="spacing" textLength="14" x="1017.5" y="1126.9951">30</text><text fill="#000000" font-family="sans-serif" font-size="13" lengthAdjust="spacing" textLength="166" x="1035.5" y="1126.9951">setTeamAvailable(team, flag)</text><polygon fill="#181818" points="2153,1158.2031,2163,1162.2031,2153,1166.2031,2157,1162.2031" style="stroke:#181818;stroke-width:1.0;"/><line style="stroke:#181818;stroke-width:1.0;" x1="1538" x2="2159" y1="1162.2031" y2="1162.2031"/><text fill="#000000" font-family="sans-serif" font-size="13" font-weight="bold" lengthAdjust="spacing" textLength="14" x="1545" y="1157.3467">31</text><text fill="#000000" font-family="sans-serif" font-size="13" lengthAdjust="spacing" textLength="97" x="1563" y="1157.3467">setAvailable(flag)</text><polygon fill="#181818" points="1549,1188.5547,1539,1192.5547,1549,1196.5547,1545,1192.5547" style="stroke:#181818;stroke-width:1.0;"/><line style="stroke:#181818;stroke-width:1.0;stroke-dasharray:2.0,2.0;" x1="1543" x2="2169" y1="1192.5547" y2="1192.5547"/><text fill="#000000" font-family="sans-serif" font-size="13" font-weight="bold" lengthAdjust="spacing" textLength="14" x="1555" y="1187.6982">32</text><text fill="#000000" font-family="sans-serif" font-size="13" lengthAdjust="spacing" textLength="4" x="1573" y="1187.6982"> </text><polygon fill="#181818" points="1026.5,1218.9063,1016.5,1222.9063,1026.5,1226.9063,1022.5,1222.9063" style="stroke:#181818;stroke-width:1.0;"/><line style="stroke:#181818;stroke-width:1.0;stroke-dasharray:2.0,2.0;" x1="1020.5" x2="1532" y1="1222.9063" y2="1222.9063"/><text fill="#000000" font-family="sans-serif" font-size="13" font-weight="bold" lengthAdjust="spacing" textLength="14" x="1032.5" y="1218.0498">33</text><text fill="#000000" font-family="sans-serif" font-size="13" lengthAdjust="spacing" textLength="49" x="1050.5" y="1218.0498">success</text><polygon fill="#181818" points="1385.5,1249.2578,1395.5,1253.2578,1385.5,1257.2578,1389.5,1253.2578" style="stroke:#181818;stroke-width:1.0;"/><line style="stroke:#181818;stroke-width:1.0;" x1="1010.5" x2="1391.5" y1="1253.2578" y2="1253.2578"/><text fill="#000000" font-family="sans-serif" font-size="13" font-weight="bold" lengthAdjust="spacing" textLength="14" x="1017.5" y="1248.4014">34</text><text fill="#000000" font-family="sans-serif" font-size="13" lengthAdjust="spacing" textLength="345" x="1035.5" y="1248.4014">recordAgendaEntryCompletion(agendaEntry, COMPLETED)</text><polygon fill="#181818" points="1934,1279.6094,1944,1283.6094,1934,1287.6094,1938,1283.6094" style="stroke:#181818;stroke-width:1.0;"/><line style="stroke:#181818;stroke-width:1.0;" x1="1407.5" x2="1940" y1="1283.6094" y2="1283.6094"/><text fill="#000000" font-family="sans-serif" font-size="13" font-weight="bold" lengthAdjust="spacing" textLength="14" x="1414.5" y="1278.7529">35</text><text fill="#000000" font-family="sans-serif" font-size="13" lengthAdjust="spacing" textLength="144" x="1432.5" y="1278.7529">setStatus(COMPLETED)</text><polygon fill="#181818" points="1418.5,1309.9609,1408.5,1313.9609,1418.5,1317.9609,1414.5,1313.9609" style="stroke:#181818;stroke-width:1.0;"/><line style="stroke:#181818;stroke-width:1.0;" x1="1412.5" x2="1950" y1="1313.9609" y2="1313.9609"/><text fill="#000000" font-family="sans-serif" font-size="13" font-weight="bold" lengthAdjust="spacing" textLength="14" x="1424.5" y="1309.1045">36</text><text fill="#000000" font-family="sans-serif" font-size="13" lengthAdjust="spacing" textLength="49" x="1442.5" y="1309.1045">success</text><polygon fill="#181818" points="1026.5,1340.3125,1016.5,1344.3125,1026.5,1348.3125,1022.5,1344.3125" style="stroke:#181818;stroke-width:1.0;"/><line style="stroke:#181818;stroke-width:1.0;stroke-dasharray:2.0,2.0;" x1="1020.5" x2="1401.5" y1="1344.3125" y2="1344.3125"/><text fill="#000000" font-family="sans-serif" font-size="13" font-weight="bold" lengthAdjust="spacing" textLength="14" x="1032.5" y="1339.4561">37</text><text fill="#000000" font-family="sans-serif" font-size="13" lengthAdjust="spacing" textLength="49" x="1050.5" y="1339.4561">success</text><polygon fill="#181818" points="667.5,1370.6641,657.5,1374.6641,667.5,1378.6641,663.5,1374.6641" style="stroke:#181818;stroke-width:1.0;"/><line style="stroke:#181818;stroke-width:1.0;stroke-dasharray:2.0,2.0;" x1="661.5" x2="1009.5" y1="1374.6641" y2="1374.6641"/><text fill="#000000" font-family="sans-serif" font-size="13" font-weight="bold" lengthAdjust="spacing" textLength="14" x="673.5" y="1369.8076">38</text><text fill="#000000" font-family="sans-serif" font-size="13" lengthAdjust="spacing" textLength="49" x="691.5" y="1369.8076">success</text><polygon fill="#181818" points="37.5,1401.0156,27.5,1405.0156,37.5,1409.0156,33.5,1405.0156" style="stroke:#181818;stroke-width:1.0;"/><line style="stroke:#181818;stroke-width:1.0;stroke-dasharray:2.0,2.0;" x1="31.5" x2="650.5" y1="1405.0156" y2="1405.0156"/><text fill="#000000" font-family="sans-serif" font-size="13" font-weight="bold" lengthAdjust="spacing" textLength="14" x="43.5" y="1400.1592">39</text><text fill="#000000" font-family="sans-serif" font-size="13" lengthAdjust="spacing" textLength="390" x="61.5" y="1400.1592">displays a success message (agendaEntry recorded as completed)</text><!--SRC=[hLVDRk8m4BxdAQoU06rVWCDABEsX4bMhbkvfBsvYm6eIPsFJYhVViKcScTW9FrqEGCRpFz-C9_f3bXMlUS4ALQfqLwj2C5FlHQBzISNJ3xuLh-QG2rQBrF1ocsC6lUEP-fBbbcruhaMIyBrHvRvu5pNyJusgsSrozUk6SStWDm4f8rDPyTAmc_cBI5MTtPUcFhmzE9wtXs6MfO9lbUUYFgfRlwm2vaff2KQbq8x74mwlqdeElb6H6adyAKC5pwl5cae8wqgd5uJkASN9UHeLDe8NH7PD24wq9L79Jx6JQIw8yEy-pSaZJgfYiHLbnfrdZxogcZIYPyhEEtQmXOIT67eU5BipYae2mGbJdZ15JM8ShtsEfg9B00uxSR2Jdzm81xY4mGV-iDkV02us1zOFKAeicW5OZBDK5HKWGs2ld9JN0w1q1Fi17Q39Ocys0srfBO33dsO22xNKpY4BMKzsdW75Aem0TSwsmZoK6dek5PCf4VCQOm0ddFOJOMAtJHHpXbk0YA9WJfffux3zmfpd5Db3_hl-2XnsMZeFQTSC-HYg2ftgjUgtlEeDWd6tOWYXQEY0vJn5NVEqMSBKu- -gvc1e9RMP0A2d8RmkWvpFHSyUm62XjToM8bihR9bQ9LQwSKTjUJhA6sep6yjGtf3AGU-FOmi0ec2CkCJqb4-7jBkq38VIp4F2aIjLXQ10xDOjEjbcis121FPwip1a9ESkZoJsddnV7CKyPWbE8W6Iu685RD8-MiCcbz7WZ-ZiZ1whwqVriA5JRGG3VmxBYVg2MRyJB0TPfZRkFz8Abu45khqEx4cAmCuuPAGMV_T26tTVQ973_kFuL2cw6oG9vtvmvpIol6mCYkpyouP4Gvt77gQgtCYwu4R2Q3x3fOPViumRVivrn-PDmCqkvYvDC3Ov1YSoUi__O9kSRwVVlnan1bsdguBB8Ql_izyZtOsCnMx_G3TUaW8kTDZlQehziPuUjH1htn7LbpTkh5ve_RJ0DysEjlZa4feh5vEs1Pe3tKVAsPN3YsuGknjcVIAIGAuwDpl_GczYLfCXvRSq1sF5QrNrMUB3c3ZlXx7UfwdGWulRa2Td5B9Tu5nwx4EN8hkGNLqs_tuJnDsUMElMn6M5SIyAmR6bkdHvioC52LLqBfsRyQYTIzOnFsXHRwDnYxht1ri-FJwlxjVtTzSEldWXqDf6XfwxoiohuMQl9mEshno0D06n78zDlkiOm-sKdInlbxMBwkitWPxseKgTNWSogQkS7-1bkbNA2lW2U32CaGPBTkFG_bKtcqPMX7y0]--></g></svg>