<?xml version="1.0" encoding="UTF-8" standalone="no"?><svg xmlns="http://www.w3.org/2000/svg" xmlns:xlink="http://www.w3.org/1999/xlink" contentStyleType="text/css" height="283px" preserveAspectRatio="none" style="width:409px;height:283px;background:#FFFFFF;" version="1.1" viewBox="0 0 409 283" width="409px" zoomAndPan="magnify"><defs/><g><rect fill="#FFFFFF" height="153.7578" style="stroke:#181818;stroke-width:1.0;" width="10" x="94.5" y="65.2188"/><rect fill="#FFFFFF" height="30.3516" style="stroke:#181818;stroke-width:1.0;" width="10" x="232.5" y="112.9219"/><rect fill="#FFFFFF" height="30.3516" style="stroke:#181818;stroke-width:1.0;" width="10" x="339.5" y="173.625"/><rect fill="none" height="139.7578" style="stroke:#000000;stroke-width:1.5;" width="393" x="10" y="72.2188"/><line style="stroke:#181818;stroke-width:0.5;stroke-dasharray:5.0,5.0;" x1="99" x2="99" y1="55.2188" y2="228.9766"/><line style="stroke:#181818;stroke-width:0.5;stroke-dasharray:5.0,5.0;" x1="237" x2="237" y1="55.2188" y2="228.9766"/><line style="stroke:#181818;stroke-width:0.5;stroke-dasharray:5.0,5.0;" x1="344" x2="344" y1="55.2188" y2="228.9766"/><rect fill="#E3E3E3" height="31.6094" rx="2.5" ry="2.5" style="stroke:#181818;stroke-width:0.5;" width="159" x="20" y="22.6094"/><text fill="#000000" font-family="sans-serif" font-size="14" lengthAdjust="spacing" textLength="145" x="27" y="44.1426">:RecordEntryController</text><rect fill="#E3E3E3" height="31.6094" rx="2.5" ry="2.5" style="stroke:#181818;stroke-width:0.5;" width="159" x="20" y="227.9766"/><text fill="#000000" font-family="sans-serif" font-size="14" lengthAdjust="spacing" textLength="145" x="27" y="249.5098">:RecordEntryController</text><rect fill="#E3E3E3" height="31.6094" rx="2.5" ry="2.5" style="stroke:#181818;stroke-width:0.5;" width="97" x="189" y="22.6094"/><text fill="#000000" font-family="sans-serif" font-size="14" lengthAdjust="spacing" textLength="83" x="196" y="44.1426">:Repositories</text><rect fill="#E3E3E3" height="31.6094" rx="2.5" ry="2.5" style="stroke:#181818;stroke-width:0.5;" width="97" x="189" y="227.9766"/><text fill="#000000" font-family="sans-serif" font-size="14" lengthAdjust="spacing" textLength="83" x="196" y="249.5098">:Repositories</text><rect fill="#E3E3E3" height="49.2188" rx="2.5" ry="2.5" style="stroke:#181818;stroke-width:0.5;" width="97" x="296" y="5"/><text fill="#000000" font-family="sans-serif" font-size="14" lengthAdjust="spacing" textLength="74" x="307.5" y="26.5332">repositories</text><text fill="#000000" font-family="sans-serif" font-size="14" lengthAdjust="spacing" textLength="83" x="303" y="44.1426">:Repositories</text><rect fill="#E3E3E3" height="49.2188" rx="2.5" ry="2.5" style="stroke:#181818;stroke-width:0.5;" width="97" x="296" y="227.9766"/><text fill="#000000" font-family="sans-serif" font-size="14" lengthAdjust="spacing" textLength="74" x="307.5" y="249.5098">repositories</text><text fill="#000000" font-family="sans-serif" font-size="14" lengthAdjust="spacing" textLength="83" x="303" y="267.1191">:Repositories</text><rect fill="#FFFFFF" height="153.7578" style="stroke:#181818;stroke-width:1.0;" width="10" x="94.5" y="65.2188"/><rect fill="#FFFFFF" height="30.3516" style="stroke:#181818;stroke-width:1.0;" width="10" x="232.5" y="112.9219"/><rect fill="#FFFFFF" height="30.3516" style="stroke:#181818;stroke-width:1.0;" width="10" x="339.5" y="173.625"/><path d="M10,72.2188 L188,72.2188 L188,80.5703 L178,90.5703 L10,90.5703 L10,72.2188 " fill="#EEEEEE" style="stroke:#000000;stroke-width:1.5;"/><rect fill="none" height="139.7578" style="stroke:#000000;stroke-width:1.5;" width="393" x="10" y="72.2188"/><text fill="#000000" font-family="sans-serif" font-size="13" font-weight="bold" lengthAdjust="spacing" textLength="133" x="25" y="86.7139">Get Team Repository</text><polygon fill="#181818" points="220.5,108.9219,230.5,112.9219,220.5,116.9219,224.5,112.9219" style="stroke:#181818;stroke-width:1.0;"/><line style="stroke:#181818;stroke-width:1.0;" x1="104.5" x2="226.5" y1="112.9219" y2="112.9219"/><text fill="#000000" font-family="sans-serif" font-size="13" font-weight="bold" lengthAdjust="spacing" textLength="7" x="111.5" y="108.0654">3</text><text fill="#000000" font-family="sans-serif" font-size="13" lengthAdjust="spacing" textLength="75" x="122.5" y="108.0654">getInstance()</text><polygon fill="#181818" points="115.5,139.2734,105.5,143.2734,115.5,147.2734,111.5,143.2734" style="stroke:#181818;stroke-width:1.0;"/><line style="stroke:#181818;stroke-width:1.0;stroke-dasharray:2.0,2.0;" x1="109.5" x2="236.5" y1="143.2734" y2="143.2734"/><text fill="#000000" font-family="sans-serif" font-size="13" font-weight="bold" lengthAdjust="spacing" textLength="7" x="121.5" y="138.417">4</text><text fill="#000000" font-family="sans-serif" font-size="13" lengthAdjust="spacing" textLength="67" x="132.5" y="138.417">repositories</text><polygon fill="#181818" points="327.5,169.625,337.5,173.625,327.5,177.625,331.5,173.625" style="stroke:#181818;stroke-width:1.0;"/><line style="stroke:#181818;stroke-width:1.0;" x1="104.5" x2="333.5" y1="173.625" y2="173.625"/><text fill="#000000" font-family="sans-serif" font-size="13" font-weight="bold" lengthAdjust="spacing" textLength="7" x="111.5" y="168.7686">5</text><text fill="#000000" font-family="sans-serif" font-size="13" lengthAdjust="spacing" textLength="120" x="122.5" y="168.7686">getTeamRepository()</text><polygon fill="#181818" points="115.5,199.9766,105.5,203.9766,115.5,207.9766,111.5,203.9766" style="stroke:#181818;stroke-width:1.0;"/><line style="stroke:#181818;stroke-width:1.0;stroke-dasharray:2.0,2.0;" x1="109.5" x2="343.5" y1="203.9766" y2="203.9766"/><text fill="#000000" font-family="sans-serif" font-size="13" font-weight="bold" lengthAdjust="spacing" textLength="7" x="121.5" y="199.1201">6</text><text fill="#000000" font-family="sans-serif" font-size="13" lengthAdjust="spacing" textLength="94" x="132.5" y="199.1201">TeamRepository</text><!--SRC=[ZL4xRuCm4DxzAqvPsWwPkZ5KggAggfIXIXYxNCm5h80FsKSJ_drjK7W88lK63zptFFp5s1eTLb2nPLquhWZ4DQJyiAbHNp2dexGbWICjQFDo2l05PdmrDeSpbfwKUYfCHd1cbXFVb0eeCThKQ0KsoO4qk-p3Ycjt75ukIt8RG0-xzB1VW6lsHjWPyXrc-D0UJOmXRESKDs7ysAN0z_uzLTW4NbEToC6hKWgrc5yKwXCe29CxRchu986KGiNHjb_V9n9W-xOMAu6SvClwS2vDpoypsc2uLcU6ZBC2WcqmZUO9J0lFg1dzt-RU8ru7kkInzaXxbB-xvY9mfp8cd4izoZXAaStKPD7_b3y0]--></g></svg>