<?xml version="1.0" encoding="UTF-8" standalone="no"?><svg xmlns="http://www.w3.org/2000/svg" xmlns:xlink="http://www.w3.org/1999/xlink" contentStyleType="text/css" height="440px" preserveAspectRatio="none" style="width:628px;height:440px;background:#FFFFFF;" version="1.1" viewBox="0 0 628 440" width="628px" zoomAndPan="magnify"><defs/><g><text fill="#000000" font-family="sans-serif" font-size="14" font-weight="bold" lengthAdjust="spacing" textLength="351" x="137.5" y="29.5332">System Sequence Diagram (SSD) - Alternative One</text><rect fill="#FFFFFF" height="183.1094" style="stroke:#181818;stroke-width:1.0;" width="10" x="80" y="148.8281"/><rect fill="#FFFFFF" height="30.3516" style="stroke:#181818;stroke-width:1.0;" width="10" x="585" y="171.1797"/><rect fill="#FFFFFF" height="30.3516" style="stroke:#181818;stroke-width:1.0;" width="10" x="585" y="231.8828"/><rect fill="#FFFFFF" height="30.3516" style="stroke:#181818;stroke-width:1.0;" width="10" x="585" y="292.5859"/><line style="stroke:#181818;stroke-width:0.5;stroke-dasharray:5.0,5.0;" x1="85" x2="85" y1="138.8281" y2="340.9375"/><line style="stroke:#181818;stroke-width:0.5;stroke-dasharray:5.0,5.0;" x1="590" x2="590" y1="138.8281" y2="340.9375"/><text fill="#000000" font-family="sans-serif" font-size="14" lengthAdjust="spacing" textLength="31" x="66.5" y="118.1426">GSM</text><text fill="#000000" font-family="sans-serif" font-size="14" lengthAdjust="spacing" textLength="154" x="5" y="135.752">(Green Space Manager)</text><ellipse cx="85" cy="52.1094" fill="#E3E3E3" rx="8" ry="8" style="stroke:#181818;stroke-width:0.5;"/><path d="M85,60.1094 L85,87.1094 M72,68.1094 L98,68.1094 M85,87.1094 L72,102.1094 M85,87.1094 L98,102.1094 " fill="none" style="stroke:#181818;stroke-width:0.5;"/><text fill="#000000" font-family="sans-serif" font-size="14" lengthAdjust="spacing" textLength="31" x="66.5" y="354.4707">GSM</text><text fill="#000000" font-family="sans-serif" font-size="14" lengthAdjust="spacing" textLength="154" x="5" y="372.0801">(Green Space Manager)</text><ellipse cx="85" cy="383.6563" fill="#E3E3E3" rx="8" ry="8" style="stroke:#181818;stroke-width:0.5;"/><path d="M85,391.6563 L85,418.6563 M72,399.6563 L98,399.6563 M85,418.6563 L72,433.6563 M85,418.6563 L98,433.6563 " fill="none" style="stroke:#181818;stroke-width:0.5;"/><rect fill="#E3E3E3" height="31.6094" rx="2.5" ry="2.5" style="stroke:#181818;stroke-width:0.5;" width="64" x="558" y="106.2188"/><text fill="#000000" font-family="sans-serif" font-size="14" lengthAdjust="spacing" textLength="50" x="565" y="127.752">:System</text><rect fill="#E3E3E3" height="31.6094" rx="2.5" ry="2.5" style="stroke:#181818;stroke-width:0.5;" width="64" x="558" y="339.9375"/><text fill="#000000" font-family="sans-serif" font-size="14" lengthAdjust="spacing" textLength="50" x="565" y="361.4707">:System</text><rect fill="#FFFFFF" height="183.1094" style="stroke:#181818;stroke-width:1.0;" width="10" x="80" y="148.8281"/><rect fill="#FFFFFF" height="30.3516" style="stroke:#181818;stroke-width:1.0;" width="10" x="585" y="171.1797"/><rect fill="#FFFFFF" height="30.3516" style="stroke:#181818;stroke-width:1.0;" width="10" x="585" y="231.8828"/><rect fill="#FFFFFF" height="30.3516" style="stroke:#181818;stroke-width:1.0;" width="10" x="585" y="292.5859"/><polygon fill="#181818" points="573,167.1797,583,171.1797,573,175.1797,577,171.1797" style="stroke:#181818;stroke-width:1.0;"/><line style="stroke:#181818;stroke-width:1.0;" x1="90" x2="579" y1="171.1797" y2="171.1797"/><text fill="#000000" font-family="sans-serif" font-size="13" font-weight="bold" lengthAdjust="spacing" textLength="7" x="97" y="166.3232">1</text><text fill="#000000" font-family="sans-serif" font-size="13" lengthAdjust="spacing" textLength="325" x="108" y="166.3232">requests statistical analysis of water consumption costs</text><polygon fill="#181818" points="101,197.5313,91,201.5313,101,205.5313,97,201.5313" style="stroke:#181818;stroke-width:1.0;"/><line style="stroke:#181818;stroke-width:1.0;stroke-dasharray:2.0,2.0;" x1="95" x2="589" y1="201.5313" y2="201.5313"/><text fill="#000000" font-family="sans-serif" font-size="13" font-weight="bold" lengthAdjust="spacing" textLength="7" x="107" y="196.6748">2</text><text fill="#000000" font-family="sans-serif" font-size="13" lengthAdjust="spacing" textLength="326" x="118" y="196.6748">requests input data (e.g., time period, park identification)</text><polygon fill="#181818" points="573,227.8828,583,231.8828,573,235.8828,577,231.8828" style="stroke:#181818;stroke-width:1.0;"/><line style="stroke:#181818;stroke-width:1.0;" x1="90" x2="579" y1="231.8828" y2="231.8828"/><text fill="#000000" font-family="sans-serif" font-size="13" font-weight="bold" lengthAdjust="spacing" textLength="7" x="97" y="227.0264">3</text><text fill="#000000" font-family="sans-serif" font-size="13" lengthAdjust="spacing" textLength="108" x="108" y="227.0264">provides input data</text><polygon fill="#181818" points="101,258.2344,91,262.2344,101,266.2344,97,262.2344" style="stroke:#181818;stroke-width:1.0;"/><line style="stroke:#181818;stroke-width:1.0;stroke-dasharray:2.0,2.0;" x1="95" x2="589" y1="262.2344" y2="262.2344"/><text fill="#000000" font-family="sans-serif" font-size="13" font-weight="bold" lengthAdjust="spacing" textLength="7" x="107" y="257.3779">4</text><text fill="#000000" font-family="sans-serif" font-size="13" lengthAdjust="spacing" textLength="287" x="118" y="257.3779">validates input data and initiates analysis process</text><polygon fill="#181818" points="573,288.5859,583,292.5859,573,296.5859,577,292.5859" style="stroke:#181818;stroke-width:1.0;"/><line style="stroke:#181818;stroke-width:1.0;" x1="90" x2="579" y1="292.5859" y2="292.5859"/><text fill="#000000" font-family="sans-serif" font-size="13" font-weight="bold" lengthAdjust="spacing" textLength="7" x="97" y="287.7295">5</text><text fill="#000000" font-family="sans-serif" font-size="13" lengthAdjust="spacing" textLength="142" x="108" y="287.7295">receives analysis results</text><polygon fill="#181818" points="101,318.9375,91,322.9375,101,326.9375,97,322.9375" style="stroke:#181818;stroke-width:1.0;"/><line style="stroke:#181818;stroke-width:1.0;stroke-dasharray:2.0,2.0;" x1="95" x2="589" y1="322.9375" y2="322.9375"/><text fill="#000000" font-family="sans-serif" font-size="13" font-weight="bold" lengthAdjust="spacing" textLength="7" x="107" y="318.0811">6</text><text fill="#000000" font-family="sans-serif" font-size="13" lengthAdjust="spacing" textLength="460" x="118" y="318.0811">presents analysis outcomes (e.g., bar plot, average costs, statistical indicators)</text><!--SRC=[bL8zRy903DtpAomca80Vm52f4X8Jwf2rYxcOO76vIsqdY7zV9tmehTg1ctoo_Txpi_NCgKN11fgSSZX9RWXCEYhqcMandB6cqgwHG2WOfZfE2_I4LRvmgk68KQaeZCrBowiQDL3ILqSf46mPww5yNfRR1QpWFHf9GkEUu2Dv6tQMKzSSI3mEbWLcktB_cUOx8KfGkX22FION8uiPe8Ad2zTW7BZ5P33Rt4Z7v2qSeRX7ex6w07yUmEhj8N3ZGxb4DGKrbwCEXn6S9rwL5V8HBjuk47BIhccDS_BOwqUm9_o33-xl3hzofe5mGkF6TGOL6iASrlLw2SRkUql2kLgwuN86hYWP7rtAmBSOKIlwa-ptEAtatjkdF2ygxJ6oj_s0S4Cg_xBnc7ZQuso1L5yHw4T4llK9Y91syML3MszpboOukRFW9wmFNmyeqCPiIy2Un0_djhZbZqrpgWQRi-X_Ddy3]--></g></svg>