<?xml version="1.0" encoding="UTF-8" standalone="no"?><svg xmlns="http://www.w3.org/2000/svg" xmlns:xlink="http://www.w3.org/1999/xlink" contentStyleType="text/css" height="526px" preserveAspectRatio="none" style="width:981px;height:526px;background:#FFFFFF;" version="1.1" viewBox="0 0 981 526" width="981px" zoomAndPan="magnify"><defs/><g><rect fill="#FFFFFF" height="342.7734" style="stroke:#181818;stroke-width:1.0;" width="10" x="18.5" y="92.6094"/><rect fill="#FFFFFF" height="311.4219" style="stroke:#181818;stroke-width:1.0;" width="10" x="249.5" y="114.9609"/><rect fill="#FFFFFF" height="250.7188" style="stroke:#181818;stroke-width:1.0;" width="10" x="464.5" y="145.3125"/><rect fill="#FFFFFF" height="190.0156" style="stroke:#181818;stroke-width:1.0;" width="10" x="689.5" y="175.6641"/><rect fill="#FFFFFF" height="41.3516" style="stroke:#181818;stroke-width:1.0;" width="10" x="694.5" y="214.0156"/><rect fill="#FFFFFF" height="32.6094" style="stroke:#181818;stroke-width:1.0;" width="10" x="942.5" y="302.7188"/><line style="stroke:#181818;stroke-width:0.5;stroke-dasharray:5.0,5.0;" x1="23" x2="23" y1="82.6094" y2="444.3828"/><line style="stroke:#181818;stroke-width:0.5;stroke-dasharray:5.0,5.0;" x1="254.5" x2="254.5" y1="82.6094" y2="444.3828"/><line style="stroke:#181818;stroke-width:0.5;stroke-dasharray:5.0,5.0;" x1="469.5" x2="469.5" y1="82.6094" y2="444.3828"/><line style="stroke:#181818;stroke-width:0.5;stroke-dasharray:5.0,5.0;" x1="694.5" x2="694.5" y1="82.6094" y2="444.3828"/><line style="stroke:#181818;stroke-width:0.5;stroke-dasharray:5.0,5.0;" x1="947.5" x2="947.5" y1="301.6719" y2="444.3828"/><text fill="#000000" font-family="sans-serif" font-size="14" lengthAdjust="spacing" textLength="31" x="5" y="79.5332">GSM</text><ellipse cx="23.5" cy="13.5" fill="#E3E3E3" rx="8" ry="8" style="stroke:#181818;stroke-width:0.5;"/><path d="M23.5,21.5 L23.5,48.5 M10.5,29.5 L36.5,29.5 M23.5,48.5 L10.5,63.5 M23.5,48.5 L36.5,63.5 " fill="none" style="stroke:#181818;stroke-width:0.5;"/><text fill="#000000" font-family="sans-serif" font-size="14" lengthAdjust="spacing" textLength="31" x="5" y="457.916">GSM</text><ellipse cx="23.5" cy="469.4922" fill="#E3E3E3" rx="8" ry="8" style="stroke:#181818;stroke-width:0.5;"/><path d="M23.5,477.4922 L23.5,504.4922 M10.5,485.4922 L36.5,485.4922 M23.5,504.4922 L10.5,519.4922 M23.5,504.4922 L36.5,519.4922 " fill="none" style="stroke:#181818;stroke-width:0.5;"/><rect fill="#E3E3E3" height="31.6094" rx="2.5" ry="2.5" style="stroke:#181818;stroke-width:0.5;" width="68" x="220.5" y="50"/><text fill="#000000" font-family="sans-serif" font-size="14" lengthAdjust="spacing" textLength="54" x="227.5" y="71.5332">:RouteUI</text><rect fill="#E3E3E3" height="31.6094" rx="2.5" ry="2.5" style="stroke:#181818;stroke-width:0.5;" width="68" x="220.5" y="443.3828"/><text fill="#000000" font-family="sans-serif" font-size="14" lengthAdjust="spacing" textLength="54" x="227.5" y="464.916">:RouteUI</text><rect fill="#E3E3E3" height="31.6094" rx="2.5" ry="2.5" style="stroke:#181818;stroke-width:0.5;" width="118" x="410.5" y="50"/><text fill="#000000" font-family="sans-serif" font-size="14" lengthAdjust="spacing" textLength="104" x="417.5" y="71.5332">:RouteController</text><rect fill="#E3E3E3" height="31.6094" rx="2.5" ry="2.5" style="stroke:#181818;stroke-width:0.5;" width="118" x="410.5" y="443.3828"/><text fill="#000000" font-family="sans-serif" font-size="14" lengthAdjust="spacing" textLength="104" x="417.5" y="464.916">:RouteController</text><rect fill="#E3E3E3" height="31.6094" rx="2.5" ry="2.5" style="stroke:#181818;stroke-width:0.5;" width="124" x="632.5" y="50"/><text fill="#000000" font-family="sans-serif" font-size="14" lengthAdjust="spacing" textLength="110" x="639.5" y="71.5332">:RouteRepository</text><rect fill="#E3E3E3" height="31.6094" rx="2.5" ry="2.5" style="stroke:#181818;stroke-width:0.5;" width="124" x="632.5" y="443.3828"/><text fill="#000000" font-family="sans-serif" font-size="14" lengthAdjust="spacing" textLength="110" x="639.5" y="464.916">:RouteRepository</text><rect fill="#E3E3E3" height="31.6094" rx="2.5" ry="2.5" style="stroke:#181818;stroke-width:0.5;" width="56" x="919.5" y="443.3828"/><text fill="#000000" font-family="sans-serif" font-size="14" lengthAdjust="spacing" textLength="42" x="926.5" y="464.916">:Route</text><rect fill="#FFFFFF" height="342.7734" style="stroke:#181818;stroke-width:1.0;" width="10" x="18.5" y="92.6094"/><rect fill="#FFFFFF" height="311.4219" style="stroke:#181818;stroke-width:1.0;" width="10" x="249.5" y="114.9609"/><rect fill="#FFFFFF" height="250.7188" style="stroke:#181818;stroke-width:1.0;" width="10" x="464.5" y="145.3125"/><rect fill="#FFFFFF" height="190.0156" style="stroke:#181818;stroke-width:1.0;" width="10" x="689.5" y="175.6641"/><rect fill="#FFFFFF" height="41.3516" style="stroke:#181818;stroke-width:1.0;" width="10" x="694.5" y="214.0156"/><rect fill="#FFFFFF" height="32.6094" style="stroke:#181818;stroke-width:1.0;" width="10" x="942.5" y="302.7188"/><polygon fill="#181818" points="237.5,110.9609,247.5,114.9609,237.5,118.9609,241.5,114.9609" style="stroke:#181818;stroke-width:1.0;"/><line style="stroke:#181818;stroke-width:1.0;" x1="28.5" x2="243.5" y1="114.9609" y2="114.9609"/><text fill="#000000" font-family="sans-serif" font-size="13" font-weight="bold" lengthAdjust="spacing" textLength="7" x="35.5" y="110.1045">1</text><text fill="#000000" font-family="sans-serif" font-size="13" lengthAdjust="spacing" textLength="163" x="46.5" y="110.1045">requests to import a .csv file</text><polygon fill="#181818" points="452.5,141.3125,462.5,145.3125,452.5,149.3125,456.5,145.3125" style="stroke:#181818;stroke-width:1.0;"/><line style="stroke:#181818;stroke-width:1.0;" x1="259.5" x2="458.5" y1="145.3125" y2="145.3125"/><text fill="#000000" font-family="sans-serif" font-size="13" font-weight="bold" lengthAdjust="spacing" textLength="7" x="266.5" y="140.4561">2</text><text fill="#000000" font-family="sans-serif" font-size="13" lengthAdjust="spacing" textLength="127" x="277.5" y="140.4561">sendFilePath(filePath)</text><polygon fill="#181818" points="677.5,171.6641,687.5,175.6641,677.5,179.6641,681.5,175.6641" style="stroke:#181818;stroke-width:1.0;"/><line style="stroke:#181818;stroke-width:1.0;" x1="474.5" x2="683.5" y1="175.6641" y2="175.6641"/><text fill="#000000" font-family="sans-serif" font-size="13" font-weight="bold" lengthAdjust="spacing" textLength="7" x="481.5" y="170.8076">3</text><text fill="#000000" font-family="sans-serif" font-size="13" lengthAdjust="spacing" textLength="185" x="492.5" y="170.8076">importRoutesFromCSV(filePath)</text><line style="stroke:#181818;stroke-width:1.0;" x1="699.5" x2="746.5" y1="201.0156" y2="201.0156"/><line style="stroke:#181818;stroke-width:1.0;" x1="746.5" x2="746.5" y1="201.0156" y2="214.0156"/><line style="stroke:#181818;stroke-width:1.0;" x1="705.5" x2="746.5" y1="214.0156" y2="214.0156"/><polygon fill="#181818" points="715.5,210.0156,705.5,214.0156,715.5,218.0156,711.5,214.0156" style="stroke:#181818;stroke-width:1.0;"/><text fill="#000000" font-family="sans-serif" font-size="13" font-weight="bold" lengthAdjust="spacing" textLength="7" x="711.5" y="196.1592">4</text><text fill="#000000" font-family="sans-serif" font-size="13" lengthAdjust="spacing" textLength="128" x="722.5" y="196.1592">validateRoutes(routes)</text><line style="stroke:#181818;stroke-width:1.0;stroke-dasharray:2.0,2.0;" x1="704.5" x2="746.5" y1="254.3672" y2="254.3672"/><line style="stroke:#181818;stroke-width:1.0;stroke-dasharray:2.0,2.0;" x1="746.5" x2="746.5" y1="254.3672" y2="267.3672"/><line style="stroke:#181818;stroke-width:1.0;stroke-dasharray:2.0,2.0;" x1="699.5" x2="746.5" y1="267.3672" y2="267.3672"/><polygon fill="#181818" points="709.5,263.3672,699.5,267.3672,709.5,271.3672,705.5,267.3672" style="stroke:#181818;stroke-width:1.0;"/><text fill="#000000" font-family="sans-serif" font-size="13" font-weight="bold" lengthAdjust="spacing" textLength="7" x="711.5" y="249.5107">5</text><text fill="#000000" font-family="sans-serif" font-size="13" lengthAdjust="spacing" textLength="4" x="722.5" y="249.5107"> </text><polygon fill="#181818" points="907.5,288.7188,917.5,292.7188,907.5,296.7188,911.5,292.7188" style="stroke:#181818;stroke-width:1.0;"/><line style="stroke:#181818;stroke-width:1.0;" x1="699.5" x2="913.5" y1="292.7188" y2="292.7188"/><text fill="#000000" font-family="sans-serif" font-size="13" font-weight="bold" lengthAdjust="spacing" textLength="7" x="706.5" y="287.8623">6</text><text fill="#000000" font-family="sans-serif" font-size="13" lengthAdjust="spacing" textLength="185" x="717.5" y="287.8623">importRoutesFromCSV(filePath)</text><rect fill="#E3E3E3" height="31.6094" rx="2.5" ry="2.5" style="stroke:#181818;stroke-width:0.5;" width="56" x="919.5" y="270.3672"/><text fill="#000000" font-family="sans-serif" font-size="14" lengthAdjust="spacing" textLength="42" x="926.5" y="291.9004">:Route</text><polygon fill="#181818" points="710.5,331.3281,700.5,335.3281,710.5,339.3281,706.5,335.3281" style="stroke:#181818;stroke-width:1.0;"/><line style="stroke:#181818;stroke-width:1.0;stroke-dasharray:2.0,2.0;" x1="704.5" x2="946.5" y1="335.3281" y2="335.3281"/><text fill="#000000" font-family="sans-serif" font-size="13" font-weight="bold" lengthAdjust="spacing" textLength="7" x="716.5" y="330.4717">7</text><text fill="#000000" font-family="sans-serif" font-size="13" lengthAdjust="spacing" textLength="36" x="727.5" y="330.4717">routes</text><polygon fill="#181818" points="485.5,361.6797,475.5,365.6797,485.5,369.6797,481.5,365.6797" style="stroke:#181818;stroke-width:1.0;"/><line style="stroke:#181818;stroke-width:1.0;stroke-dasharray:2.0,2.0;" x1="479.5" x2="693.5" y1="365.6797" y2="365.6797"/><text fill="#000000" font-family="sans-serif" font-size="13" font-weight="bold" lengthAdjust="spacing" textLength="7" x="491.5" y="360.8232">8</text><text fill="#000000" font-family="sans-serif" font-size="13" lengthAdjust="spacing" textLength="36" x="502.5" y="360.8232">routes</text><polygon fill="#181818" points="270.5,392.0313,260.5,396.0313,270.5,400.0313,266.5,396.0313" style="stroke:#181818;stroke-width:1.0;"/><line style="stroke:#181818;stroke-width:1.0;stroke-dasharray:2.0,2.0;" x1="264.5" x2="468.5" y1="396.0313" y2="396.0313"/><text fill="#000000" font-family="sans-serif" font-size="13" font-weight="bold" lengthAdjust="spacing" textLength="7" x="276.5" y="391.1748">9</text><text fill="#000000" font-family="sans-serif" font-size="13" lengthAdjust="spacing" textLength="170" x="287.5" y="391.1748">displayConfirmation(success)</text><polygon fill="#181818" points="39.5,422.3828,29.5,426.3828,39.5,430.3828,35.5,426.3828" style="stroke:#181818;stroke-width:1.0;"/><line style="stroke:#181818;stroke-width:1.0;stroke-dasharray:2.0,2.0;" x1="33.5" x2="253.5" y1="426.3828" y2="426.3828"/><text fill="#000000" font-family="sans-serif" font-size="13" font-weight="bold" lengthAdjust="spacing" textLength="14" x="45.5" y="421.5264">10</text><text fill="#000000" font-family="sans-serif" font-size="13" lengthAdjust="spacing" textLength="179" x="63.5" y="421.5264">displays confirmation message</text><!--SRC=[ZPF1Ri8m38RlUGgB4qFQ7e33BaXC72PDC7RtKXSYsgIBNIRUVcw0Dg1EeeV6LVxF-MsdV72-mOWrrC47ku-X9f3Oak5-fq5xm1rjv5GHHBA2VbVb0jvZ4NwTtq695PCns4hmRVrDKMCh8SBaRVC-0MJGrIWbphe6lS1alWwjq7QLThUhiSr5y193LL5CeiNdUaorfYQmqyDEIJLyZecJP5Kt8Sh5f3kYKB9dz0NFhse6vbhlJqii31B09JqWl5W-Gkcq2Jsepeq2YgazvPXyiLJ51yf-Mbw2fq7V5M4wgHA3LGNFXoIJlDHnB3PVOtnMdiducsnpE6Bb2fMVqqrZMlx90lsJvxj9c6aAUi3AjS6psSDr3JEvHdSUT2GfXyaS3D2TTMtmc3vtd6PmdNRXkAdmf1UkTB56SS5FkRMMMBkM9KZJwyQjO7TRUfB1PYpK2kglawDwKVu0]--></g></svg>