<?xml version="1.0" encoding="UTF-8" standalone="no"?><svg xmlns="http://www.w3.org/2000/svg" xmlns:xlink="http://www.w3.org/1999/xlink" contentStyleType="text/css" height="525px" preserveAspectRatio="none" style="width:573px;height:525px;background:#FFFFFF;" version="1.1" viewBox="0 0 573 525" width="573px" zoomAndPan="magnify"><defs/><g><!--class Route--><g id="elem_Route"><rect codeLine="9" fill="#F1F1F1" height="171.2656" id="Route" rx="2.5" ry="2.5" style="stroke:#181818;stroke-width:0.5;" width="433" x="7" y="347"/><ellipse cx="200.25" cy="363" fill="#ADD1B2" rx="11" ry="11" style="stroke:#181818;stroke-width:1.0;"/><path d="M203.0156,358.875 Q203.1719,358.6563 203.3594,358.5469 Q203.5469,358.4375 203.7656,358.4375 Q204.1406,358.4375 204.375,358.7031 Q204.6094,358.9531 204.6094,359.5625 L204.6094,361.0156 Q204.6094,361.625 204.375,361.8906 Q204.1406,362.1563 203.7656,362.1563 Q203.4219,362.1563 203.2188,361.9531 Q203.0156,361.7656 202.9063,361.25 Q202.8594,360.8906 202.6719,360.7031 Q202.3438,360.3281 201.7344,360.1094 Q201.125,359.8906 200.5,359.8906 Q199.7344,359.8906 199.0938,360.2188 Q198.4688,360.5469 197.9688,361.2969 Q197.4844,362.0469 197.4844,363.0781 L197.4844,364.1719 Q197.4844,365.4063 198.375,366.2344 Q199.2656,367.0469 200.8594,367.0469 Q201.7969,367.0469 202.4531,366.7969 Q202.8438,366.6406 203.2656,366.2031 Q203.5313,365.9375 203.6719,365.8594 Q203.8281,365.7813 204.0313,365.7813 Q204.3594,365.7813 204.6094,366.0469 Q204.875,366.2969 204.875,366.6406 Q204.875,366.9844 204.5313,367.3906 Q204.0313,367.9688 203.2344,368.2969 Q202.1563,368.75 200.8594,368.75 Q199.3438,368.75 198.1406,368.125 Q197.1563,367.625 196.4688,366.5625 Q195.7813,365.4844 195.7813,364.2031 L195.7813,363.0469 Q195.7813,361.7188 196.3906,360.5781 Q197.0156,359.4219 198.1094,358.8125 Q199.2031,358.1875 200.4375,358.1875 Q201.1719,358.1875 201.8125,358.3594 Q202.4688,358.5156 203.0156,358.875 Z " fill="#000000"/><text fill="#000000" font-family="sans-serif" font-size="14" lengthAdjust="spacing" textLength="38" x="220.75" y="368.7285">Route</text><line style="stroke:#181818;stroke-width:0.5;" x1="8" x2="439" y1="379" y2="379"/><text fill="#000000" font-family="sans-serif" font-size="14" lengthAdjust="spacing" textLength="143" x="13" y="397.5332">-startPoint: WaterPoint</text><text fill="#000000" font-family="sans-serif" font-size="14" lengthAdjust="spacing" textLength="139" x="13" y="415.1426">-endPoint: WaterPoint</text><text fill="#000000" font-family="sans-serif" font-size="14" lengthAdjust="spacing" textLength="82" x="13" y="432.752">-cost: double</text><line style="stroke:#181818;stroke-width:0.5;" x1="8" x2="439" y1="439.8281" y2="439.8281"/><text fill="#000000" font-family="sans-serif" font-size="14" lengthAdjust="spacing" textLength="118" x="13" y="458.3613">+getCost(): double</text><text fill="#000000" font-family="sans-serif" font-size="14" lengthAdjust="spacing" textLength="178" x="13" y="475.9707">+getStartPoint(): WaterPoint</text><text fill="#000000" font-family="sans-serif" font-size="14" lengthAdjust="spacing" textLength="173" x="13" y="493.5801">+getEndPoint(): WaterPoint</text><text fill="#000000" font-family="sans-serif" font-size="14" lengthAdjust="spacing" textLength="421" x="13" y="511.1895">+Route(startPoint: WaterPoint, endPoint: WaterPoint, cost: double)</text></g><!--class WaterPoint--><g id="elem_WaterPoint"><rect codeLine="20" fill="#F1F1F1" height="100.8281" id="WaterPoint" rx="2.5" ry="2.5" style="stroke:#181818;stroke-width:0.5;" width="180" x="351.5" y="15.5"/><ellipse cx="402.25" cy="31.5" fill="#ADD1B2" rx="11" ry="11" style="stroke:#181818;stroke-width:1.0;"/><path d="M405.0156,27.375 Q405.1719,27.1563 405.3594,27.0469 Q405.5469,26.9375 405.7656,26.9375 Q406.1406,26.9375 406.375,27.2031 Q406.6094,27.4531 406.6094,28.0625 L406.6094,29.5156 Q406.6094,30.125 406.375,30.3906 Q406.1406,30.6563 405.7656,30.6563 Q405.4219,30.6563 405.2188,30.4531 Q405.0156,30.2656 404.9063,29.75 Q404.8594,29.3906 404.6719,29.2031 Q404.3438,28.8281 403.7344,28.6094 Q403.125,28.3906 402.5,28.3906 Q401.7344,28.3906 401.0938,28.7188 Q400.4688,29.0469 399.9688,29.7969 Q399.4844,30.5469 399.4844,31.5781 L399.4844,32.6719 Q399.4844,33.9063 400.375,34.7344 Q401.2656,35.5469 402.8594,35.5469 Q403.7969,35.5469 404.4531,35.2969 Q404.8438,35.1406 405.2656,34.7031 Q405.5313,34.4375 405.6719,34.3594 Q405.8281,34.2813 406.0313,34.2813 Q406.3594,34.2813 406.6094,34.5469 Q406.875,34.7969 406.875,35.1406 Q406.875,35.4844 406.5313,35.8906 Q406.0313,36.4688 405.2344,36.7969 Q404.1563,37.25 402.8594,37.25 Q401.3438,37.25 400.1406,36.625 Q399.1563,36.125 398.4688,35.0625 Q397.7813,33.9844 397.7813,32.7031 L397.7813,31.5469 Q397.7813,30.2188 398.3906,29.0781 Q399.0156,27.9219 400.1094,27.3125 Q401.2031,26.6875 402.4375,26.6875 Q403.1719,26.6875 403.8125,26.8594 Q404.4688,27.0156 405.0156,27.375 Z " fill="#000000"/><text fill="#000000" font-family="sans-serif" font-size="14" lengthAdjust="spacing" textLength="70" x="422.75" y="37.2285">WaterPoint</text><line style="stroke:#181818;stroke-width:0.5;" x1="352.5" x2="530.5" y1="47.5" y2="47.5"/><text fill="#000000" font-family="sans-serif" font-size="14" lengthAdjust="spacing" textLength="63" x="357.5" y="66.0332">-ID: String</text><line style="stroke:#181818;stroke-width:0.5;" x1="352.5" x2="530.5" y1="73.1094" y2="73.1094"/><text fill="#000000" font-family="sans-serif" font-size="14" lengthAdjust="spacing" textLength="96" x="357.5" y="91.6426">+getID(): String</text><text fill="#000000" font-family="sans-serif" font-size="14" lengthAdjust="spacing" textLength="168" x="357.5" y="109.252">+WaterPoint(nome: String)</text></g><!--class RoutePointsReader--><g id="elem_RoutePointsReader"><rect codeLine="27" fill="#F1F1F1" height="65.6094" id="RoutePointsReader" rx="2.5" ry="2.5" style="stroke:#181818;stroke-width:0.5;" width="351" x="215" y="203"/><ellipse cx="324.25" cy="219" fill="#ADD1B2" rx="11" ry="11" style="stroke:#181818;stroke-width:1.0;"/><path d="M327.0156,214.875 Q327.1719,214.6563 327.3594,214.5469 Q327.5469,214.4375 327.7656,214.4375 Q328.1406,214.4375 328.375,214.7031 Q328.6094,214.9531 328.6094,215.5625 L328.6094,217.0156 Q328.6094,217.625 328.375,217.8906 Q328.1406,218.1563 327.7656,218.1563 Q327.4219,218.1563 327.2188,217.9531 Q327.0156,217.7656 326.9063,217.25 Q326.8594,216.8906 326.6719,216.7031 Q326.3438,216.3281 325.7344,216.1094 Q325.125,215.8906 324.5,215.8906 Q323.7344,215.8906 323.0938,216.2188 Q322.4688,216.5469 321.9688,217.2969 Q321.4844,218.0469 321.4844,219.0781 L321.4844,220.1719 Q321.4844,221.4063 322.375,222.2344 Q323.2656,223.0469 324.8594,223.0469 Q325.7969,223.0469 326.4531,222.7969 Q326.8438,222.6406 327.2656,222.2031 Q327.5313,221.9375 327.6719,221.8594 Q327.8281,221.7813 328.0313,221.7813 Q328.3594,221.7813 328.6094,222.0469 Q328.875,222.2969 328.875,222.6406 Q328.875,222.9844 328.5313,223.3906 Q328.0313,223.9688 327.2344,224.2969 Q326.1563,224.75 324.8594,224.75 Q323.3438,224.75 322.1406,224.125 Q321.1563,223.625 320.4688,222.5625 Q319.7813,221.4844 319.7813,220.2031 L319.7813,219.0469 Q319.7813,217.7188 320.3906,216.5781 Q321.0156,215.4219 322.1094,214.8125 Q323.2031,214.1875 324.4375,214.1875 Q325.1719,214.1875 325.8125,214.3594 Q326.4688,214.5156 327.0156,214.875 Z " fill="#000000"/><text fill="#000000" font-family="sans-serif" font-size="14" lengthAdjust="spacing" textLength="124" x="344.75" y="224.7285">RoutePointsReader</text><line style="stroke:#181818;stroke-width:0.5;" x1="216" x2="565" y1="235" y2="235"/><line style="stroke:#181818;stroke-width:0.5;" x1="216" x2="565" y1="243" y2="243"/><text fill="#000000" font-family="sans-serif" font-size="14" lengthAdjust="spacing" textLength="339" x="221" y="261.5332">+importRoutesFromCSV(filePath: String): List&lt;Route&gt;</text></g><!--class Main--><g id="elem_Main"><rect codeLine="31" fill="#F1F1F1" height="118.4375" id="Main" rx="2.5" ry="2.5" style="stroke:#181818;stroke-width:0.5;" width="276" x="40.5" y="7"/><ellipse cx="159.25" cy="23" fill="#ADD1B2" rx="11" ry="11" style="stroke:#181818;stroke-width:1.0;"/><path d="M162.0156,18.875 Q162.1719,18.6563 162.3594,18.5469 Q162.5469,18.4375 162.7656,18.4375 Q163.1406,18.4375 163.375,18.7031 Q163.6094,18.9531 163.6094,19.5625 L163.6094,21.0156 Q163.6094,21.625 163.375,21.8906 Q163.1406,22.1563 162.7656,22.1563 Q162.4219,22.1563 162.2188,21.9531 Q162.0156,21.7656 161.9063,21.25 Q161.8594,20.8906 161.6719,20.7031 Q161.3438,20.3281 160.7344,20.1094 Q160.125,19.8906 159.5,19.8906 Q158.7344,19.8906 158.0938,20.2188 Q157.4688,20.5469 156.9688,21.2969 Q156.4844,22.0469 156.4844,23.0781 L156.4844,24.1719 Q156.4844,25.4063 157.375,26.2344 Q158.2656,27.0469 159.8594,27.0469 Q160.7969,27.0469 161.4531,26.7969 Q161.8438,26.6406 162.2656,26.2031 Q162.5313,25.9375 162.6719,25.8594 Q162.8281,25.7813 163.0313,25.7813 Q163.3594,25.7813 163.6094,26.0469 Q163.875,26.2969 163.875,26.6406 Q163.875,26.9844 163.5313,27.3906 Q163.0313,27.9688 162.2344,28.2969 Q161.1563,28.75 159.8594,28.75 Q158.3438,28.75 157.1406,28.125 Q156.1563,27.625 155.4688,26.5625 Q154.7813,25.4844 154.7813,24.2031 L154.7813,23.0469 Q154.7813,21.7188 155.3906,20.5781 Q156.0156,19.4219 157.1094,18.8125 Q158.2031,18.1875 159.4375,18.1875 Q160.1719,18.1875 160.8125,18.3594 Q161.4688,18.5156 162.0156,18.875 Z " fill="#000000"/><text fill="#000000" font-family="sans-serif" font-size="14" lengthAdjust="spacing" textLength="30" x="179.75" y="28.7285">Main</text><line style="stroke:#181818;stroke-width:0.5;" x1="41.5" x2="315.5" y1="39" y2="39"/><text fill="#000000" font-family="sans-serif" font-size="14" lengthAdjust="spacing" textLength="101" x="46.5" y="57.5332">-unidade: String</text><text fill="#000000" font-family="sans-serif" font-size="14" lengthAdjust="spacing" textLength="103" x="46.5" y="75.1426">-caminho: String</text><line style="stroke:#181818;stroke-width:0.5;" x1="41.5" x2="315.5" y1="82.2188" y2="82.2188"/><text fill="#000000" font-family="sans-serif" font-size="14" lengthAdjust="spacing" textLength="245" x="46.5" y="100.752">+writeGraph(routes: List&lt;Route&gt;): void</text><text fill="#000000" font-family="sans-serif" font-size="14" lengthAdjust="spacing" textLength="264" x="46.5" y="118.3613">+executarDOT(nomeArquivo: String): void</text></g><!--link RoutePointsReader to Route--><g id="link_RoutePointsReader_Route"><path codeLine="39" d="M362.92,269.12 C345.53,289.38 322.14,316.62 299.5,342.99 " fill="none" id="RoutePointsReader-to-Route" style="stroke:#181818;stroke-width:1.0;stroke-dasharray:7.0,7.0;"/><polygon fill="#181818" points="296.16,346.87,305.0541,342.6399,299.414,343.0737,298.9801,337.4335,296.16,346.87" style="stroke:#181818;stroke-width:1.0;"/><text fill="#000000" font-family="sans-serif" font-size="13" lengthAdjust="spacing" textLength="43" x="336.5" y="313.4951">creates</text></g><!--link Main to RoutePointsReader--><g id="link_Main_RoutePointsReader"><path codeLine="40" d="M251.76,125.05 C283.13,149.91 318.74,178.13 346.03,199.76 " fill="none" id="Main-to-RoutePointsReader" style="stroke:#181818;stroke-width:1.0;"/><polygon fill="#181818" points="349.99,202.9,345.4026,194.1848,346.0649,199.8027,340.4469,200.465,349.99,202.9" style="stroke:#181818;stroke-width:1.0;"/><text fill="#000000" font-family="sans-serif" font-size="13" lengthAdjust="spacing" textLength="28" x="310.5" y="169.4951">uses</text><text fill="#000000" font-family="sans-serif" font-size="13" lengthAdjust="spacing" textLength="7" x="333.9129" y="191.9948">1</text></g><!--link Main to Route--><g id="link_Main_Route"><path codeLine="41" d="M168.6,125.28 C163.34,165.84 159.47,221.03 167.5,269 C171.55,293.18 178.77,318.57 186.7,341.92 " fill="none" id="Main-to-Route" style="stroke:#181818;stroke-width:1.0;"/><polygon fill="#181818" points="188.41,346.86,189.2612,337.048,186.7818,342.1325,181.6973,339.6531,188.41,346.86" style="stroke:#181818;stroke-width:1.0;"/><text fill="#000000" font-family="sans-serif" font-size="13" lengthAdjust="spacing" textLength="28" x="168.5" y="241.4951">uses</text><text fill="#000000" font-family="sans-serif" font-size="13" lengthAdjust="spacing" textLength="7" x="177.9731" y="336.0191">1</text></g><!--SRC=[TP9FJy904CNl_HGJBfRm9tfj30a1DIGQ2JLwNhP3kw7ThRkp81g_kyjQseArf_RzNcVUpEwLsGfPCiqAA9HKFDEgG21jCMX8oVYMfHZJ8KVGo8d9D6yRJCOIjHSoXGtBJPlaGY8TIeHIvOVZHnTJcbJG0Zndnao9j5XRmWLNCXQV2DT1u0cib9FXAm3tZC0GqxHKGb84RunG-_SAeap-GrmP9oVAhjqiNXj0YZHpSjYlGQt7TPiZlQZc7NTLhqxkCuVTMOUTCOTd2Vl1zsdynbBlO36F87RxacbhaiNycAIIVzNcrr2wWpxHLd6VqplC2bc2kken056Kxg0yD_VkcipYrt0ZSbmookf24JmAGxVUDMcgFZ4Xwx1MYiHLFelcZeCLGcRgSewz5eGFcfLPg7thimwktqw9fFBY1tBhDZn_Vl7ZJVMx5JlL2kVDBjNVASVZINMl8k0QtPvCu5EFHXFetVGw5XE1DPsk4_a1]--></g></svg>