<?xml version="1.0" encoding="UTF-8" standalone="no"?><svg xmlns="http://www.w3.org/2000/svg" xmlns:xlink="http://www.w3.org/1999/xlink" contentStyleType="text/css" height="526px" preserveAspectRatio="none" style="width:1036px;height:526px;background:#FFFFFF;" version="1.1" viewBox="0 0 1036 526" width="1036px" zoomAndPan="magnify"><defs/><g><rect fill="#FFFFFF" height="342.7734" style="stroke:#181818;stroke-width:1.0;" width="10" x="101" y="92.6094"/><rect fill="#FFFFFF" height="311.4219" style="stroke:#181818;stroke-width:1.0;" width="10" x="332" y="114.9609"/><rect fill="#FFFFFF" height="240.7188" style="stroke:#181818;stroke-width:1.0;" width="10" x="547" y="155.3125"/><rect fill="#FFFFFF" height="177.7578" style="stroke:#181818;stroke-width:1.0;" width="10" x="772" y="187.9219"/><rect fill="#FFFFFF" height="41.3516" style="stroke:#181818;stroke-width:1.0;" width="10" x="777" y="286.9766"/><rect fill="#FFFFFF" height="30.3516" style="stroke:#181818;stroke-width:1.0;" width="10" x="997" y="218.2734"/><line style="stroke:#181818;stroke-width:0.5;stroke-dasharray:5.0,5.0;" x1="106" x2="106" y1="82.6094" y2="444.3828"/><line style="stroke:#181818;stroke-width:0.5;stroke-dasharray:5.0,5.0;" x1="337" x2="337" y1="82.6094" y2="444.3828"/><line style="stroke:#181818;stroke-width:0.5;stroke-dasharray:5.0,5.0;" x1="552" x2="552" y1="154.2656" y2="444.3828"/><line style="stroke:#181818;stroke-width:0.5;stroke-dasharray:5.0,5.0;" x1="777" x2="777" y1="82.6094" y2="444.3828"/><line style="stroke:#181818;stroke-width:0.5;stroke-dasharray:5.0,5.0;" x1="1002" x2="1002" y1="82.6094" y2="444.3828"/><text fill="#000000" font-family="sans-serif" font-size="14" lengthAdjust="spacing" textLength="196" x="5" y="79.5332">Green Spaces Manager (GSM)</text><ellipse cx="106" cy="13.5" fill="#E3E3E3" rx="8" ry="8" style="stroke:#181818;stroke-width:0.5;"/><path d="M106,21.5 L106,48.5 M93,29.5 L119,29.5 M106,48.5 L93,63.5 M106,48.5 L119,63.5 " fill="none" style="stroke:#181818;stroke-width:0.5;"/><text fill="#000000" font-family="sans-serif" font-size="14" lengthAdjust="spacing" textLength="196" x="5" y="457.916">Green Spaces Manager (GSM)</text><ellipse cx="106" cy="469.4922" fill="#E3E3E3" rx="8" ry="8" style="stroke:#181818;stroke-width:0.5;"/><path d="M106,477.4922 L106,504.4922 M93,485.4922 L119,485.4922 M106,504.4922 L93,519.4922 M106,504.4922 L119,519.4922 " fill="none" style="stroke:#181818;stroke-width:0.5;"/><rect fill="#E3E3E3" height="31.6094" rx="2.5" ry="2.5" style="stroke:#181818;stroke-width:0.5;" width="68" x="303" y="50"/><text fill="#000000" font-family="sans-serif" font-size="14" lengthAdjust="spacing" textLength="54" x="310" y="71.5332">:RouteUI</text><rect fill="#E3E3E3" height="31.6094" rx="2.5" ry="2.5" style="stroke:#181818;stroke-width:0.5;" width="68" x="303" y="443.3828"/><text fill="#000000" font-family="sans-serif" font-size="14" lengthAdjust="spacing" textLength="54" x="310" y="464.916">:RouteUI</text><rect fill="#E3E3E3" height="31.6094" rx="2.5" ry="2.5" style="stroke:#181818;stroke-width:0.5;" width="118" x="493" y="443.3828"/><text fill="#000000" font-family="sans-serif" font-size="14" lengthAdjust="spacing" textLength="104" x="500" y="464.916">:RouteController</text><rect fill="#E3E3E3" height="31.6094" rx="2.5" ry="2.5" style="stroke:#181818;stroke-width:0.5;" width="124" x="715" y="50"/><text fill="#000000" font-family="sans-serif" font-size="14" lengthAdjust="spacing" textLength="110" x="722" y="71.5332">:RouteRepository</text><rect fill="#E3E3E3" height="31.6094" rx="2.5" ry="2.5" style="stroke:#181818;stroke-width:0.5;" width="124" x="715" y="443.3828"/><text fill="#000000" font-family="sans-serif" font-size="14" lengthAdjust="spacing" textLength="110" x="722" y="464.916">:RouteRepository</text><rect fill="#E3E3E3" height="31.6094" rx="2.5" ry="2.5" style="stroke:#181818;stroke-width:0.5;" width="56" x="974" y="50"/><text fill="#000000" font-family="sans-serif" font-size="14" lengthAdjust="spacing" textLength="42" x="981" y="71.5332">:Route</text><rect fill="#E3E3E3" height="31.6094" rx="2.5" ry="2.5" style="stroke:#181818;stroke-width:0.5;" width="56" x="974" y="443.3828"/><text fill="#000000" font-family="sans-serif" font-size="14" lengthAdjust="spacing" textLength="42" x="981" y="464.916">:Route</text><rect fill="#FFFFFF" height="342.7734" style="stroke:#181818;stroke-width:1.0;" width="10" x="101" y="92.6094"/><rect fill="#FFFFFF" height="311.4219" style="stroke:#181818;stroke-width:1.0;" width="10" x="332" y="114.9609"/><rect fill="#FFFFFF" height="240.7188" style="stroke:#181818;stroke-width:1.0;" width="10" x="547" y="155.3125"/><rect fill="#FFFFFF" height="177.7578" style="stroke:#181818;stroke-width:1.0;" width="10" x="772" y="187.9219"/><rect fill="#FFFFFF" height="41.3516" style="stroke:#181818;stroke-width:1.0;" width="10" x="777" y="286.9766"/><rect fill="#FFFFFF" height="30.3516" style="stroke:#181818;stroke-width:1.0;" width="10" x="997" y="218.2734"/><polygon fill="#181818" points="320,110.9609,330,114.9609,320,118.9609,324,114.9609" style="stroke:#181818;stroke-width:1.0;"/><line style="stroke:#181818;stroke-width:1.0;" x1="111" x2="326" y1="114.9609" y2="114.9609"/><text fill="#000000" font-family="sans-serif" font-size="13" font-weight="bold" lengthAdjust="spacing" textLength="7" x="118" y="110.1045">1</text><text fill="#000000" font-family="sans-serif" font-size="13" lengthAdjust="spacing" textLength="163" x="129" y="110.1045">requests to import a .csv file</text><polygon fill="#181818" points="481,141.3125,491,145.3125,481,149.3125,485,145.3125" style="stroke:#181818;stroke-width:1.0;"/><line style="stroke:#181818;stroke-width:1.0;" x1="342" x2="487" y1="145.3125" y2="145.3125"/><text fill="#000000" font-family="sans-serif" font-size="13" font-weight="bold" lengthAdjust="spacing" textLength="7" x="349" y="140.4561">2</text><text fill="#000000" font-family="sans-serif" font-size="13" lengthAdjust="spacing" textLength="43" x="360" y="140.4561">creates</text><rect fill="#E3E3E3" height="31.6094" rx="2.5" ry="2.5" style="stroke:#181818;stroke-width:0.5;" width="118" x="493" y="122.9609"/><text fill="#000000" font-family="sans-serif" font-size="14" lengthAdjust="spacing" textLength="104" x="500" y="144.4941">:RouteController</text><polygon fill="#181818" points="760,183.9219,770,187.9219,760,191.9219,764,187.9219" style="stroke:#181818;stroke-width:1.0;"/><line style="stroke:#181818;stroke-width:1.0;" x1="557" x2="766" y1="187.9219" y2="187.9219"/><text fill="#000000" font-family="sans-serif" font-size="13" font-weight="bold" lengthAdjust="spacing" textLength="7" x="564" y="183.0654">3</text><text fill="#000000" font-family="sans-serif" font-size="13" lengthAdjust="spacing" textLength="185" x="575" y="183.0654">importRoutesFromCSV(filePath)</text><polygon fill="#181818" points="985,214.2734,995,218.2734,985,222.2734,989,218.2734" style="stroke:#181818;stroke-width:1.0;"/><line style="stroke:#181818;stroke-width:1.0;" x1="782" x2="991" y1="218.2734" y2="218.2734"/><text fill="#000000" font-family="sans-serif" font-size="13" font-weight="bold" lengthAdjust="spacing" textLength="7" x="789" y="213.417">4</text><text fill="#000000" font-family="sans-serif" font-size="13" lengthAdjust="spacing" textLength="185" x="800" y="213.417">importRoutesFromCSV(filePath)</text><polygon fill="#181818" points="793,244.625,783,248.625,793,252.625,789,248.625" style="stroke:#181818;stroke-width:1.0;"/><line style="stroke:#181818;stroke-width:1.0;stroke-dasharray:2.0,2.0;" x1="787" x2="1001" y1="248.625" y2="248.625"/><text fill="#000000" font-family="sans-serif" font-size="13" font-weight="bold" lengthAdjust="spacing" textLength="7" x="799" y="243.7686">5</text><text fill="#000000" font-family="sans-serif" font-size="13" lengthAdjust="spacing" textLength="36" x="810" y="243.7686">routes</text><line style="stroke:#181818;stroke-width:1.0;" x1="782" x2="829" y1="273.9766" y2="273.9766"/><line style="stroke:#181818;stroke-width:1.0;" x1="829" x2="829" y1="273.9766" y2="286.9766"/><line style="stroke:#181818;stroke-width:1.0;" x1="788" x2="829" y1="286.9766" y2="286.9766"/><polygon fill="#181818" points="798,282.9766,788,286.9766,798,290.9766,794,286.9766" style="stroke:#181818;stroke-width:1.0;"/><text fill="#000000" font-family="sans-serif" font-size="13" font-weight="bold" lengthAdjust="spacing" textLength="7" x="794" y="269.1201">6</text><text fill="#000000" font-family="sans-serif" font-size="13" lengthAdjust="spacing" textLength="128" x="805" y="269.1201">validateRoutes(routes)</text><line style="stroke:#181818;stroke-width:1.0;stroke-dasharray:2.0,2.0;" x1="787" x2="829" y1="327.3281" y2="327.3281"/><line style="stroke:#181818;stroke-width:1.0;stroke-dasharray:2.0,2.0;" x1="829" x2="829" y1="327.3281" y2="340.3281"/><line style="stroke:#181818;stroke-width:1.0;stroke-dasharray:2.0,2.0;" x1="782" x2="829" y1="340.3281" y2="340.3281"/><polygon fill="#181818" points="792,336.3281,782,340.3281,792,344.3281,788,340.3281" style="stroke:#181818;stroke-width:1.0;"/><text fill="#000000" font-family="sans-serif" font-size="13" font-weight="bold" lengthAdjust="spacing" textLength="7" x="794" y="322.4717">7</text><text fill="#000000" font-family="sans-serif" font-size="13" lengthAdjust="spacing" textLength="4" x="805" y="322.4717"> </text><polygon fill="#181818" points="568,361.6797,558,365.6797,568,369.6797,564,365.6797" style="stroke:#181818;stroke-width:1.0;"/><line style="stroke:#181818;stroke-width:1.0;stroke-dasharray:2.0,2.0;" x1="562" x2="776" y1="365.6797" y2="365.6797"/><text fill="#000000" font-family="sans-serif" font-size="13" font-weight="bold" lengthAdjust="spacing" textLength="7" x="574" y="360.8232">8</text><text fill="#000000" font-family="sans-serif" font-size="13" lengthAdjust="spacing" textLength="36" x="585" y="360.8232">routes</text><polygon fill="#181818" points="353,392.0313,343,396.0313,353,400.0313,349,396.0313" style="stroke:#181818;stroke-width:1.0;"/><line style="stroke:#181818;stroke-width:1.0;stroke-dasharray:2.0,2.0;" x1="347" x2="551" y1="396.0313" y2="396.0313"/><text fill="#000000" font-family="sans-serif" font-size="13" font-weight="bold" lengthAdjust="spacing" textLength="7" x="359" y="391.1748">9</text><text fill="#000000" font-family="sans-serif" font-size="13" lengthAdjust="spacing" textLength="170" x="370" y="391.1748">displayConfirmation(success)</text><polygon fill="#181818" points="122,422.3828,112,426.3828,122,430.3828,118,426.3828" style="stroke:#181818;stroke-width:1.0;"/><line style="stroke:#181818;stroke-width:1.0;stroke-dasharray:2.0,2.0;" x1="116" x2="336" y1="426.3828" y2="426.3828"/><text fill="#000000" font-family="sans-serif" font-size="13" font-weight="bold" lengthAdjust="spacing" textLength="14" x="128" y="421.5264">10</text><text fill="#000000" font-family="sans-serif" font-size="13" lengthAdjust="spacing" textLength="179" x="146" y="421.5264">displays confirmation message</text><!--SRC=[ZPB1Ri8m38RlUGgBom29FG27NP26E21DTEnkKfT6j4cNk6oy_PmWse8wRJrKRVr_V__O3YTZ6_HOG-siqwLtDG7xbbJeAWtg4nufuqj5u4apscCr58GIS_Tbx14Ah08fXIqxszO7yaezbIOdA9pZW_jMgDbvcAmzaOLCd2d05gtOUvYki-ri0XX07fHOiz6cGSimMUvSoxJVfEf-CrPSESlULHNv95gzxyPKEsfSC9BXabJzwvWuIJPrupp7aqXsSqQc54_93HOl4WQMqfJFbW87O0ScwG7XMOSp54OwrO6IN0aWcCI3-LnGxKageTV4u2gMHTN74-NLE0KBhpAdLVOnZVPloEMivmT7KY3Nm4CSRwVvoowIdMNVWlZvzWQBkuJIXUILD3cDmEe-oX0zOsLoKL_ZJAzE_ppKdTNZtuVW0nHxt8N-1Kbpk4qvDw6fy2ABLXXV8njdfw7Lii8ITM2G9XZ7B63SaeuCe0Sir0BAuWzHMP0V]--></g></svg>