<?xml version="1.0" encoding="UTF-8" standalone="no"?><svg xmlns="http://www.w3.org/2000/svg" xmlns:xlink="http://www.w3.org/1999/xlink" contentStyleType="text/css" height="526px" preserveAspectRatio="none" style="width:953px;height:526px;background:#FFFFFF;" version="1.1" viewBox="0 0 953 526" width="953px" zoomAndPan="magnify"><defs/><g><rect fill="#FFFFFF" height="342.7734" style="stroke:#181818;stroke-width:1.0;" width="10" x="18.5" y="92.6094"/><rect fill="#FFFFFF" height="311.4219" style="stroke:#181818;stroke-width:1.0;" width="10" x="249.5" y="114.9609"/><rect fill="#FFFFFF" height="240.7188" style="stroke:#181818;stroke-width:1.0;" width="10" x="464.5" y="155.3125"/><rect fill="#FFFFFF" height="177.7578" style="stroke:#181818;stroke-width:1.0;" width="10" x="689.5" y="187.9219"/><rect fill="#FFFFFF" height="41.3516" style="stroke:#181818;stroke-width:1.0;" width="10" x="694.5" y="286.9766"/><rect fill="#FFFFFF" height="30.3516" style="stroke:#181818;stroke-width:1.0;" width="10" x="914.5" y="218.2734"/><line style="stroke:#181818;stroke-width:0.5;stroke-dasharray:5.0,5.0;" x1="23" x2="23" y1="82.6094" y2="444.3828"/><line style="stroke:#181818;stroke-width:0.5;stroke-dasharray:5.0,5.0;" x1="254.5" x2="254.5" y1="82.6094" y2="444.3828"/><line style="stroke:#181818;stroke-width:0.5;stroke-dasharray:5.0,5.0;" x1="469.5" x2="469.5" y1="154.2656" y2="444.3828"/><line style="stroke:#181818;stroke-width:0.5;stroke-dasharray:5.0,5.0;" x1="694.5" x2="694.5" y1="82.6094" y2="444.3828"/><line style="stroke:#181818;stroke-width:0.5;stroke-dasharray:5.0,5.0;" x1="919.5" x2="919.5" y1="82.6094" y2="444.3828"/><text fill="#000000" font-family="sans-serif" font-size="14" lengthAdjust="spacing" textLength="31" x="5" y="79.5332">GSM</text><ellipse cx="23.5" cy="13.5" fill="#E3E3E3" rx="8" ry="8" style="stroke:#181818;stroke-width:0.5;"/><path d="M23.5,21.5 L23.5,48.5 M10.5,29.5 L36.5,29.5 M23.5,48.5 L10.5,63.5 M23.5,48.5 L36.5,63.5 " fill="none" style="stroke:#181818;stroke-width:0.5;"/><text fill="#000000" font-family="sans-serif" font-size="14" lengthAdjust="spacing" textLength="31" x="5" y="457.916">GSM</text><ellipse cx="23.5" cy="469.4922" fill="#E3E3E3" rx="8" ry="8" style="stroke:#181818;stroke-width:0.5;"/><path d="M23.5,477.4922 L23.5,504.4922 M10.5,485.4922 L36.5,485.4922 M23.5,504.4922 L10.5,519.4922 M23.5,504.4922 L36.5,519.4922 " fill="none" style="stroke:#181818;stroke-width:0.5;"/><rect fill="#E3E3E3" height="31.6094" rx="2.5" ry="2.5" style="stroke:#181818;stroke-width:0.5;" width="68" x="220.5" y="50"/><text fill="#000000" font-family="sans-serif" font-size="14" lengthAdjust="spacing" textLength="54" x="227.5" y="71.5332">:RouteUI</text><rect fill="#E3E3E3" height="31.6094" rx="2.5" ry="2.5" style="stroke:#181818;stroke-width:0.5;" width="68" x="220.5" y="443.3828"/><text fill="#000000" font-family="sans-serif" font-size="14" lengthAdjust="spacing" textLength="54" x="227.5" y="464.916">:RouteUI</text><rect fill="#E3E3E3" height="31.6094" rx="2.5" ry="2.5" style="stroke:#181818;stroke-width:0.5;" width="118" x="410.5" y="443.3828"/><text fill="#000000" font-family="sans-serif" font-size="14" lengthAdjust="spacing" textLength="104" x="417.5" y="464.916">:RouteController</text><rect fill="#E3E3E3" height="31.6094" rx="2.5" ry="2.5" style="stroke:#181818;stroke-width:0.5;" width="124" x="632.5" y="50"/><text fill="#000000" font-family="sans-serif" font-size="14" lengthAdjust="spacing" textLength="110" x="639.5" y="71.5332">:RouteRepository</text><rect fill="#E3E3E3" height="31.6094" rx="2.5" ry="2.5" style="stroke:#181818;stroke-width:0.5;" width="124" x="632.5" y="443.3828"/><text fill="#000000" font-family="sans-serif" font-size="14" lengthAdjust="spacing" textLength="110" x="639.5" y="464.916">:RouteRepository</text><rect fill="#E3E3E3" height="31.6094" rx="2.5" ry="2.5" style="stroke:#181818;stroke-width:0.5;" width="56" x="891.5" y="50"/><text fill="#000000" font-family="sans-serif" font-size="14" lengthAdjust="spacing" textLength="42" x="898.5" y="71.5332">:Route</text><rect fill="#E3E3E3" height="31.6094" rx="2.5" ry="2.5" style="stroke:#181818;stroke-width:0.5;" width="56" x="891.5" y="443.3828"/><text fill="#000000" font-family="sans-serif" font-size="14" lengthAdjust="spacing" textLength="42" x="898.5" y="464.916">:Route</text><rect fill="#FFFFFF" height="342.7734" style="stroke:#181818;stroke-width:1.0;" width="10" x="18.5" y="92.6094"/><rect fill="#FFFFFF" height="311.4219" style="stroke:#181818;stroke-width:1.0;" width="10" x="249.5" y="114.9609"/><rect fill="#FFFFFF" height="240.7188" style="stroke:#181818;stroke-width:1.0;" width="10" x="464.5" y="155.3125"/><rect fill="#FFFFFF" height="177.7578" style="stroke:#181818;stroke-width:1.0;" width="10" x="689.5" y="187.9219"/><rect fill="#FFFFFF" height="41.3516" style="stroke:#181818;stroke-width:1.0;" width="10" x="694.5" y="286.9766"/><rect fill="#FFFFFF" height="30.3516" style="stroke:#181818;stroke-width:1.0;" width="10" x="914.5" y="218.2734"/><polygon fill="#181818" points="237.5,110.9609,247.5,114.9609,237.5,118.9609,241.5,114.9609" style="stroke:#181818;stroke-width:1.0;"/><line style="stroke:#181818;stroke-width:1.0;" x1="28.5" x2="243.5" y1="114.9609" y2="114.9609"/><text fill="#000000" font-family="sans-serif" font-size="13" font-weight="bold" lengthAdjust="spacing" textLength="7" x="35.5" y="110.1045">1</text><text fill="#000000" font-family="sans-serif" font-size="13" lengthAdjust="spacing" textLength="163" x="46.5" y="110.1045">requests to import a .csv file</text><polygon fill="#181818" points="398.5,141.3125,408.5,145.3125,398.5,149.3125,402.5,145.3125" style="stroke:#181818;stroke-width:1.0;"/><line style="stroke:#181818;stroke-width:1.0;" x1="259.5" x2="404.5" y1="145.3125" y2="145.3125"/><text fill="#000000" font-family="sans-serif" font-size="13" font-weight="bold" lengthAdjust="spacing" textLength="7" x="266.5" y="140.4561">2</text><text fill="#000000" font-family="sans-serif" font-size="13" lengthAdjust="spacing" textLength="43" x="277.5" y="140.4561">creates</text><rect fill="#E3E3E3" height="31.6094" rx="2.5" ry="2.5" style="stroke:#181818;stroke-width:0.5;" width="118" x="410.5" y="122.9609"/><text fill="#000000" font-family="sans-serif" font-size="14" lengthAdjust="spacing" textLength="104" x="417.5" y="144.4941">:RouteController</text><polygon fill="#181818" points="677.5,183.9219,687.5,187.9219,677.5,191.9219,681.5,187.9219" style="stroke:#181818;stroke-width:1.0;"/><line style="stroke:#181818;stroke-width:1.0;" x1="474.5" x2="683.5" y1="187.9219" y2="187.9219"/><text fill="#000000" font-family="sans-serif" font-size="13" font-weight="bold" lengthAdjust="spacing" textLength="7" x="481.5" y="183.0654">3</text><text fill="#000000" font-family="sans-serif" font-size="13" lengthAdjust="spacing" textLength="185" x="492.5" y="183.0654">importRoutesFromCSV(filePath)</text><polygon fill="#181818" points="902.5,214.2734,912.5,218.2734,902.5,222.2734,906.5,218.2734" style="stroke:#181818;stroke-width:1.0;"/><line style="stroke:#181818;stroke-width:1.0;" x1="699.5" x2="908.5" y1="218.2734" y2="218.2734"/><text fill="#000000" font-family="sans-serif" font-size="13" font-weight="bold" lengthAdjust="spacing" textLength="7" x="706.5" y="213.417">4</text><text fill="#000000" font-family="sans-serif" font-size="13" lengthAdjust="spacing" textLength="185" x="717.5" y="213.417">importRoutesFromCSV(filePath)</text><polygon fill="#181818" points="710.5,244.625,700.5,248.625,710.5,252.625,706.5,248.625" style="stroke:#181818;stroke-width:1.0;"/><line style="stroke:#181818;stroke-width:1.0;stroke-dasharray:2.0,2.0;" x1="704.5" x2="918.5" y1="248.625" y2="248.625"/><text fill="#000000" font-family="sans-serif" font-size="13" font-weight="bold" lengthAdjust="spacing" textLength="7" x="716.5" y="243.7686">5</text><text fill="#000000" font-family="sans-serif" font-size="13" lengthAdjust="spacing" textLength="36" x="727.5" y="243.7686">routes</text><line style="stroke:#181818;stroke-width:1.0;" x1="699.5" x2="746.5" y1="273.9766" y2="273.9766"/><line style="stroke:#181818;stroke-width:1.0;" x1="746.5" x2="746.5" y1="273.9766" y2="286.9766"/><line style="stroke:#181818;stroke-width:1.0;" x1="705.5" x2="746.5" y1="286.9766" y2="286.9766"/><polygon fill="#181818" points="715.5,282.9766,705.5,286.9766,715.5,290.9766,711.5,286.9766" style="stroke:#181818;stroke-width:1.0;"/><text fill="#000000" font-family="sans-serif" font-size="13" font-weight="bold" lengthAdjust="spacing" textLength="7" x="711.5" y="269.1201">6</text><text fill="#000000" font-family="sans-serif" font-size="13" lengthAdjust="spacing" textLength="128" x="722.5" y="269.1201">validateRoutes(routes)</text><line style="stroke:#181818;stroke-width:1.0;stroke-dasharray:2.0,2.0;" x1="704.5" x2="746.5" y1="327.3281" y2="327.3281"/><line style="stroke:#181818;stroke-width:1.0;stroke-dasharray:2.0,2.0;" x1="746.5" x2="746.5" y1="327.3281" y2="340.3281"/><line style="stroke:#181818;stroke-width:1.0;stroke-dasharray:2.0,2.0;" x1="699.5" x2="746.5" y1="340.3281" y2="340.3281"/><polygon fill="#181818" points="709.5,336.3281,699.5,340.3281,709.5,344.3281,705.5,340.3281" style="stroke:#181818;stroke-width:1.0;"/><text fill="#000000" font-family="sans-serif" font-size="13" font-weight="bold" lengthAdjust="spacing" textLength="7" x="711.5" y="322.4717">7</text><text fill="#000000" font-family="sans-serif" font-size="13" lengthAdjust="spacing" textLength="4" x="722.5" y="322.4717"> </text><polygon fill="#181818" points="485.5,361.6797,475.5,365.6797,485.5,369.6797,481.5,365.6797" style="stroke:#181818;stroke-width:1.0;"/><line style="stroke:#181818;stroke-width:1.0;stroke-dasharray:2.0,2.0;" x1="479.5" x2="693.5" y1="365.6797" y2="365.6797"/><text fill="#000000" font-family="sans-serif" font-size="13" font-weight="bold" lengthAdjust="spacing" textLength="7" x="491.5" y="360.8232">8</text><text fill="#000000" font-family="sans-serif" font-size="13" lengthAdjust="spacing" textLength="36" x="502.5" y="360.8232">routes</text><polygon fill="#181818" points="270.5,392.0313,260.5,396.0313,270.5,400.0313,266.5,396.0313" style="stroke:#181818;stroke-width:1.0;"/><line style="stroke:#181818;stroke-width:1.0;stroke-dasharray:2.0,2.0;" x1="264.5" x2="468.5" y1="396.0313" y2="396.0313"/><text fill="#000000" font-family="sans-serif" font-size="13" font-weight="bold" lengthAdjust="spacing" textLength="7" x="276.5" y="391.1748">9</text><text fill="#000000" font-family="sans-serif" font-size="13" lengthAdjust="spacing" textLength="170" x="287.5" y="391.1748">displayConfirmation(success)</text><polygon fill="#181818" points="39.5,422.3828,29.5,426.3828,39.5,430.3828,35.5,426.3828" style="stroke:#181818;stroke-width:1.0;"/><line style="stroke:#181818;stroke-width:1.0;stroke-dasharray:2.0,2.0;" x1="33.5" x2="253.5" y1="426.3828" y2="426.3828"/><text fill="#000000" font-family="sans-serif" font-size="13" font-weight="bold" lengthAdjust="spacing" textLength="14" x="45.5" y="421.5264">10</text><text fill="#000000" font-family="sans-serif" font-size="13" lengthAdjust="spacing" textLength="179" x="63.5" y="421.5264">displays confirmation message</text><!--SRC=[ZPF1Ri8m38RlUGgBozWazW0STa7Qn67I16Dtaxeqeesxn6NZxUS4qHR4jFNGAlN__VrZft7lV8i16sZOiwq2DmGIEZAnhxHezxYZjHnhWa1MqE_giI1MMF2NypieiOva37R2lcks58ovgrn1K3BBbhyDMk40avVrwmGmWZwDUeYphaKlC9clk1FQB7DrixnLNB2Nm7LD8OiMxwjRgXMr79r-x9XLm_AME4kMJSj1KcGDwGuebECPlS7iISF0N7V_sL6K2CBWiXuG7cqyGEcq9JseoOq2YcayU7XGr0RIIXmqARX9PLKDyLHvCix1uhCEPB7-c2RxDvJgVk17MpAWryX37S-x-SikaRtbq8Bq-ho2sKL2xKBsofg2Ri3cCieOFM3j2bMVuanFJl_Sr8NLzTV7u1MKUjo7_WN9SpXFkN2nhV6e1wrqeK5nxAUnivQYHXqPv0ccCIkOJabFHh0Z5Xe5zGSQetf0VW00]--></g></svg>