<?xml version="1.0" encoding="UTF-8" standalone="no"?><svg xmlns="http://www.w3.org/2000/svg" xmlns:xlink="http://www.w3.org/1999/xlink" contentStyleType="text/css" height="539px" preserveAspectRatio="none" style="width:635px;height:539px;background:#FFFFFF;" version="1.1" viewBox="0 0 635 539" width="635px" zoomAndPan="magnify"><defs/><g><rect fill="#FFFFFF" height="346.7734" style="stroke:#181818;stroke-width:1.0;" width="10" x="18.5" y="92.6094"/><rect fill="#FFFFFF" height="133.6641" style="stroke:#181818;stroke-width:1.0;" width="10" x="262.5" y="114.9609"/><rect fill="#FFFFFF" height="30.3516" style="stroke:#181818;stroke-width:1.0;" width="10" x="262.5" y="409.0313"/><rect fill="#FFFFFF" height="160.4063" style="stroke:#181818;stroke-width:1.0;" width="10" x="437" y="248.625"/><rect fill="#FFFFFF" height="41.3516" style="stroke:#181818;stroke-width:1.0;" width="10" x="442" y="286.9766"/><line style="stroke:#181818;stroke-width:0.5;stroke-dasharray:5.0,5.0;" x1="23" x2="23" y1="82.6094" y2="457.3828"/><line style="stroke:#181818;stroke-width:0.5;stroke-dasharray:5.0,5.0;" x1="267" x2="267" y1="82.6094" y2="457.3828"/><line style="stroke:#181818;stroke-width:0.5;stroke-dasharray:5.0,5.0;" x1="441.5" x2="441.5" y1="154.2656" y2="457.3828"/><text fill="#000000" font-family="sans-serif" font-size="14" lengthAdjust="spacing" textLength="31" x="5" y="79.5332">GSM</text><ellipse cx="23.5" cy="13.5" fill="#E3E3E3" rx="8" ry="8" style="stroke:#181818;stroke-width:0.5;"/><path d="M23.5,21.5 L23.5,48.5 M10.5,29.5 L36.5,29.5 M23.5,48.5 L10.5,63.5 M23.5,48.5 L36.5,63.5 " fill="none" style="stroke:#181818;stroke-width:0.5;"/><text fill="#000000" font-family="sans-serif" font-size="14" lengthAdjust="spacing" textLength="31" x="5" y="470.916">GSM</text><ellipse cx="23.5" cy="482.4922" fill="#E3E3E3" rx="8" ry="8" style="stroke:#181818;stroke-width:0.5;"/><path d="M23.5,490.4922 L23.5,517.4922 M10.5,498.4922 L36.5,498.4922 M23.5,517.4922 L10.5,532.4922 M23.5,517.4922 L36.5,532.4922 " fill="none" style="stroke:#181818;stroke-width:0.5;"/><rect fill="#E3E3E3" height="31.6094" rx="2.5" ry="2.5" style="stroke:#181818;stroke-width:0.5;" width="133" x="201" y="50"/><text fill="#000000" font-family="sans-serif" font-size="14" lengthAdjust="spacing" textLength="119" x="208" y="71.5332">:AnalyseParkUseUI</text><rect fill="#E3E3E3" height="31.6094" rx="2.5" ry="2.5" style="stroke:#181818;stroke-width:0.5;" width="133" x="201" y="456.3828"/><text fill="#000000" font-family="sans-serif" font-size="14" lengthAdjust="spacing" textLength="119" x="208" y="477.916">:AnalyseParkUseUI</text><rect fill="#E3E3E3" height="31.6094" rx="2.5" ry="2.5" style="stroke:#181818;stroke-width:0.5;" width="183" x="350.5" y="456.3828"/><text fill="#000000" font-family="sans-serif" font-size="14" lengthAdjust="spacing" textLength="169" x="357.5" y="477.916">:AnalyseParkUseController</text><rect fill="#FFFFFF" height="346.7734" style="stroke:#181818;stroke-width:1.0;" width="10" x="18.5" y="92.6094"/><rect fill="#FFFFFF" height="133.6641" style="stroke:#181818;stroke-width:1.0;" width="10" x="262.5" y="114.9609"/><rect fill="#FFFFFF" height="30.3516" style="stroke:#181818;stroke-width:1.0;" width="10" x="262.5" y="409.0313"/><rect fill="#FFFFFF" height="160.4063" style="stroke:#181818;stroke-width:1.0;" width="10" x="437" y="248.625"/><rect fill="#FFFFFF" height="41.3516" style="stroke:#181818;stroke-width:1.0;" width="10" x="442" y="286.9766"/><polygon fill="#181818" points="250.5,110.9609,260.5,114.9609,250.5,118.9609,254.5,114.9609" style="stroke:#181818;stroke-width:1.0;"/><line style="stroke:#181818;stroke-width:1.0;" x1="28.5" x2="256.5" y1="114.9609" y2="114.9609"/><text fill="#000000" font-family="sans-serif" font-size="13" font-weight="bold" lengthAdjust="spacing" textLength="7" x="35.5" y="110.1045">1</text><text fill="#000000" font-family="sans-serif" font-size="13" lengthAdjust="spacing" textLength="161" x="46.5" y="110.1045">wants to create the statistic</text><polygon fill="#181818" points="338.5,141.3125,348.5,145.3125,338.5,149.3125,342.5,145.3125" style="stroke:#181818;stroke-width:1.0;"/><line style="stroke:#181818;stroke-width:1.0;" x1="272.5" x2="344.5" y1="145.3125" y2="145.3125"/><text fill="#000000" font-family="sans-serif" font-size="13" font-weight="bold" lengthAdjust="spacing" textLength="7" x="279.5" y="140.4561">2</text><text fill="#000000" font-family="sans-serif" font-size="13" lengthAdjust="spacing" textLength="43" x="290.5" y="140.4561">creates</text><rect fill="#E3E3E3" height="31.6094" rx="2.5" ry="2.5" style="stroke:#181818;stroke-width:0.5;" width="183" x="350.5" y="122.9609"/><text fill="#000000" font-family="sans-serif" font-size="14" lengthAdjust="spacing" textLength="169" x="357.5" y="144.4941">:AnalyseParkUseController</text><polygon fill="#181818" points="39.5,183.9219,29.5,187.9219,39.5,191.9219,35.5,187.9219" style="stroke:#181818;stroke-width:1.0;"/><line style="stroke:#181818;stroke-width:1.0;stroke-dasharray:2.0,2.0;" x1="33.5" x2="261.5" y1="187.9219" y2="187.9219"/><text fill="#000000" font-family="sans-serif" font-size="13" font-weight="bold" lengthAdjust="spacing" textLength="7" x="45.5" y="183.0654">3</text><text fill="#000000" font-family="sans-serif" font-size="13" lengthAdjust="spacing" textLength="162" x="56.5" y="183.0654">asks to upload the file (.csv)</text><polygon fill="#181818" points="250.5,214.2734,260.5,218.2734,250.5,222.2734,254.5,218.2734" style="stroke:#181818;stroke-width:1.0;"/><line style="stroke:#181818;stroke-width:1.0;" x1="28.5" x2="256.5" y1="218.2734" y2="218.2734"/><text fill="#000000" font-family="sans-serif" font-size="13" font-weight="bold" lengthAdjust="spacing" textLength="7" x="35.5" y="213.417">4</text><text fill="#000000" font-family="sans-serif" font-size="13" lengthAdjust="spacing" textLength="199" x="46.5" y="213.417">gives the file path (uploads the file)</text><polygon fill="#181818" points="425,244.625,435,248.625,425,252.625,429,248.625" style="stroke:#181818;stroke-width:1.0;"/><line style="stroke:#181818;stroke-width:1.0;" x1="267.5" x2="431" y1="248.625" y2="248.625"/><text fill="#000000" font-family="sans-serif" font-size="13" font-weight="bold" lengthAdjust="spacing" textLength="7" x="274.5" y="243.7686">5</text><text fill="#000000" font-family="sans-serif" font-size="13" lengthAdjust="spacing" textLength="77" x="285.5" y="243.7686">sends the file</text><line style="stroke:#181818;stroke-width:1.0;" x1="447" x2="494" y1="273.9766" y2="273.9766"/><line style="stroke:#181818;stroke-width:1.0;" x1="494" x2="494" y1="273.9766" y2="286.9766"/><line style="stroke:#181818;stroke-width:1.0;" x1="453" x2="494" y1="286.9766" y2="286.9766"/><polygon fill="#181818" points="463,282.9766,453,286.9766,463,290.9766,459,286.9766" style="stroke:#181818;stroke-width:1.0;"/><text fill="#000000" font-family="sans-serif" font-size="13" font-weight="bold" lengthAdjust="spacing" textLength="7" x="459" y="269.1201">6</text><text fill="#000000" font-family="sans-serif" font-size="13" lengthAdjust="spacing" textLength="158" x="470" y="269.1201">checks for formatting errors</text><line style="stroke:#181818;stroke-width:1.0;stroke-dasharray:2.0,2.0;" x1="452" x2="494" y1="327.3281" y2="327.3281"/><line style="stroke:#181818;stroke-width:1.0;stroke-dasharray:2.0,2.0;" x1="494" x2="494" y1="327.3281" y2="340.3281"/><line style="stroke:#181818;stroke-width:1.0;stroke-dasharray:2.0,2.0;" x1="447" x2="494" y1="340.3281" y2="340.3281"/><polygon fill="#181818" points="457,336.3281,447,340.3281,457,344.3281,453,340.3281" style="stroke:#181818;stroke-width:1.0;"/><text fill="#000000" font-family="sans-serif" font-size="13" font-weight="bold" lengthAdjust="spacing" textLength="7" x="459" y="322.4717">7</text><text fill="#000000" font-family="sans-serif" font-size="13" lengthAdjust="spacing" textLength="4" x="470" y="322.4717"> </text><line style="stroke:#181818;stroke-width:1.0;" x1="447" x2="489" y1="365.6797" y2="365.6797"/><line style="stroke:#181818;stroke-width:1.0;" x1="489" x2="489" y1="365.6797" y2="378.6797"/><line style="stroke:#181818;stroke-width:1.0;" x1="448" x2="489" y1="378.6797" y2="378.6797"/><polygon fill="#181818" points="458,374.6797,448,378.6797,458,382.6797,454,378.6797" style="stroke:#181818;stroke-width:1.0;"/><text fill="#000000" font-family="sans-serif" font-size="13" font-weight="bold" lengthAdjust="spacing" textLength="7" x="454" y="360.8232">8</text><text fill="#000000" font-family="sans-serif" font-size="13" lengthAdjust="spacing" textLength="126" x="465" y="360.8232">runs the python script</text><polygon fill="#181818" points="283.5,405.0313,273.5,409.0313,283.5,413.0313,279.5,409.0313" style="stroke:#181818;stroke-width:1.0;"/><line style="stroke:#181818;stroke-width:1.0;stroke-dasharray:2.0,2.0;" x1="277.5" x2="441" y1="409.0313" y2="409.0313"/><text fill="#000000" font-family="sans-serif" font-size="13" font-weight="bold" lengthAdjust="spacing" textLength="7" x="289.5" y="404.1748">9</text><text fill="#000000" font-family="sans-serif" font-size="13" lengthAdjust="spacing" textLength="39" x="300.5" y="404.1748">results</text><polygon fill="#181818" points="34.5,435.3828,24.5,439.3828,34.5,443.3828,30.5,439.3828" style="stroke:#181818;stroke-width:1.0;"/><line style="stroke:#181818;stroke-width:1.0;stroke-dasharray:2.0,2.0;" x1="28.5" x2="266.5" y1="439.3828" y2="439.3828"/><text fill="#000000" font-family="sans-serif" font-size="13" font-weight="bold" lengthAdjust="spacing" textLength="14" x="40.5" y="434.5264">10</text><text fill="#000000" font-family="sans-serif" font-size="13" lengthAdjust="spacing" textLength="148" x="58.5" y="434.5264">shows the results window</text><!--SRC=[VLBDRi8m3BxtAInEWCGUW0FIn652sgHfZ0VmWccZfabbko3UVcuwbOwX7Q8azlTZEv7QnnOP6sXIJAxYr10eTrJ8c6dHrLZINg-1WCafnZ9C0LBXCLryBE64GQWeiDCKk-QBsCvE4yFiPVys0nImlJ2MUkTRZ0gpzNF4S1LwHwuFGeTTXXrs_wAsAIgd48WpUllvyPgT_1cLieSjM6rC1zPmCGa1JU2O-hnM1AAeNipWHZDFWnkfbrikZJZW9OSjtckkpQ_EObqR4XwpsCdRPEPFJiwBNyQbFvFS42rg1VE1Tmil9gx64OgJP76aQNtZENUS6JUcgyXPQISRjwq6LVid8UR4yf2vskJBnEAHB7TngAUzQfKYY6FVwYWnTCeaNL3vetK_t76AKgNB8Fj31Vj0zelk6fxSZFSD]--></g></svg>