<?xml version="1.0" encoding="UTF-8" standalone="no"?>
<!DOCTYPE svg PUBLIC "-//W3C//DTD SVG 1.1//EN"
 "http://www.w3.org/Graphics/SVG/1.1/DTD/svg11.dtd">
<!-- Generated by graphviz version 10.0.1 (20240210.2158)
 -->
<!-- Title: G Pages: 1 -->
<svg width="264pt" height="1018pt"
 viewBox="0.00 0.00 264.00 1017.50" xmlns="http://www.w3.org/2000/svg" xmlns:xlink="http://www.w3.org/1999/xlink">
<g id="graph0" class="graph" transform="scale(1 1) rotate(0) translate(4 1013.5)">
<title>G</title>
<polygon fill="white" stroke="none" points="-4,4 -4,-1013.5 260,-1013.5 260,4 -4,4"/>
<!-- 22 -->
<g id="node1" class="node">
<title>22</title>
<ellipse fill="none" stroke="black" cx="186" cy="-372" rx="27" ry="18"/>
<text text-anchor="middle" x="186" y="-366.95" font-family="Helvetica,Arial,sans-serif" font-size="14.00">22</text>
</g>
<!-- 23 -->
<g id="node2" class="node">
<title>23</title>
<ellipse fill="none" stroke="black" cx="186" cy="-283.5" rx="27" ry="18"/>
<text text-anchor="middle" x="186" y="-278.45" font-family="Helvetica,Arial,sans-serif" font-size="14.00">23</text>
</g>
<!-- 22&#45;&#45;23 -->
<g id="edge1" class="edge">
<title>22&#45;&#45;23</title>
<path fill="none" stroke="black" d="M186,-353.91C186,-338.84 186,-316.99 186,-301.85"/>
<text text-anchor="middle" x="196.12" y="-322.7" font-family="Helvetica,Arial,sans-serif" font-size="14.00">1.0</text>
</g>
<!-- 3 -->
<g id="node7" class="node">
<title>3</title>
<ellipse fill="none" stroke="black" cx="157" cy="-195" rx="27" ry="18"/>
<text text-anchor="middle" x="157" y="-189.95" font-family="Helvetica,Arial,sans-serif" font-size="14.00">3</text>
</g>
<!-- 23&#45;&#45;3 -->
<g id="edge4" class="edge">
<title>23&#45;&#45;3</title>
<path fill="none" stroke="black" d="M178.82,-265.9C176.43,-260.13 173.85,-253.58 171.75,-247.5 167.8,-236.07 164.06,-222.97 161.33,-212.84"/>
<text text-anchor="middle" x="182.12" y="-234.2" font-family="Helvetica,Arial,sans-serif" font-size="14.00">2.0</text>
</g>
<!-- 4 -->
<g id="node12" class="node">
<title>4</title>
<ellipse fill="none" stroke="black" cx="229" cy="-195" rx="27" ry="18"/>
<text text-anchor="middle" x="229" y="-189.95" font-family="Helvetica,Arial,sans-serif" font-size="14.00">4</text>
</g>
<!-- 23&#45;&#45;4 -->
<g id="edge11" class="edge">
<title>23&#45;&#45;4</title>
<path fill="none" stroke="black" d="M194.09,-266.23C201.73,-250.86 213.13,-227.93 220.8,-212.49"/>
<text text-anchor="middle" x="221.12" y="-234.2" font-family="Helvetica,Arial,sans-serif" font-size="14.00">5.0</text>
</g>
<!-- 10 -->
<g id="node3" class="node">
<title>10</title>
<ellipse fill="none" stroke="black" cx="27" cy="-372" rx="27" ry="18"/>
<text text-anchor="middle" x="27" y="-366.95" font-family="Helvetica,Arial,sans-serif" font-size="14.00">10</text>
</g>
<!-- 11 -->
<g id="node4" class="node">
<title>11</title>
<ellipse fill="none" stroke="black" cx="27" cy="-283.5" rx="27" ry="18"/>
<text text-anchor="middle" x="27" y="-278.45" font-family="Helvetica,Arial,sans-serif" font-size="14.00">11</text>
</g>
<!-- 10&#45;&#45;11 -->
<g id="edge2" class="edge">
<title>10&#45;&#45;11</title>
<path fill="none" stroke="black" d="M27,-353.91C27,-338.84 27,-316.99 27,-301.85"/>
<text text-anchor="middle" x="37.12" y="-322.7" font-family="Helvetica,Arial,sans-serif" font-size="14.00">1.0</text>
</g>
<!-- 18 -->
<g id="node5" class="node">
<title>18</title>
<ellipse fill="none" stroke="black" cx="114" cy="-549" rx="27" ry="18"/>
<text text-anchor="middle" x="114" y="-543.95" font-family="Helvetica,Arial,sans-serif" font-size="14.00">18</text>
</g>
<!-- 19 -->
<g id="node6" class="node">
<title>19</title>
<ellipse fill="none" stroke="black" cx="107" cy="-460.5" rx="27" ry="18"/>
<text text-anchor="middle" x="107" y="-455.45" font-family="Helvetica,Arial,sans-serif" font-size="14.00">19</text>
</g>
<!-- 18&#45;&#45;19 -->
<g id="edge3" class="edge">
<title>18&#45;&#45;19</title>
<path fill="none" stroke="black" d="M110.39,-530.99C109.34,-525.3 108.32,-518.9 107.75,-513 106.66,-501.61 106.47,-488.73 106.56,-478.7"/>
<text text-anchor="middle" x="118.12" y="-499.7" font-family="Helvetica,Arial,sans-serif" font-size="14.00">2.0</text>
</g>
<!-- 20 -->
<g id="node11" class="node">
<title>20</title>
<ellipse fill="none" stroke="black" cx="186" cy="-460.5" rx="27" ry="18"/>
<text text-anchor="middle" x="186" y="-455.45" font-family="Helvetica,Arial,sans-serif" font-size="14.00">20</text>
</g>
<!-- 18&#45;&#45;20 -->
<g id="edge13" class="edge">
<title>18&#45;&#45;20</title>
<path fill="none" stroke="black" d="M126.54,-532.93C139.68,-517.15 160.19,-492.51 173.36,-476.68"/>
<text text-anchor="middle" x="167.12" y="-499.7" font-family="Helvetica,Arial,sans-serif" font-size="14.00">6.0</text>
</g>
<!-- 5 -->
<g id="node8" class="node">
<title>5</title>
<ellipse fill="none" stroke="black" cx="229" cy="-106.5" rx="27" ry="18"/>
<text text-anchor="middle" x="229" y="-101.45" font-family="Helvetica,Arial,sans-serif" font-size="14.00">5</text>
</g>
<!-- 6 -->
<g id="node9" class="node">
<title>6</title>
<ellipse fill="none" stroke="black" cx="229" cy="-18" rx="27" ry="18"/>
<text text-anchor="middle" x="229" y="-12.95" font-family="Helvetica,Arial,sans-serif" font-size="14.00">6</text>
</g>
<!-- 5&#45;&#45;6 -->
<g id="edge5" class="edge">
<title>5&#45;&#45;6</title>
<path fill="none" stroke="black" d="M229,-88.41C229,-73.34 229,-51.49 229,-36.35"/>
<text text-anchor="middle" x="239.12" y="-57.2" font-family="Helvetica,Arial,sans-serif" font-size="14.00">2.0</text>
</g>
<!-- 21 -->
<g id="node10" class="node">
<title>21</title>
<ellipse fill="none" stroke="black" cx="193" cy="-549" rx="27" ry="18"/>
<text text-anchor="middle" x="193" y="-543.95" font-family="Helvetica,Arial,sans-serif" font-size="14.00">21</text>
</g>
<!-- 21&#45;&#45;20 -->
<g id="edge6" class="edge">
<title>21&#45;&#45;20</title>
<path fill="none" stroke="black" d="M191.62,-530.91C190.4,-515.84 188.63,-493.99 187.4,-478.85"/>
<text text-anchor="middle" x="201.12" y="-499.7" font-family="Helvetica,Arial,sans-serif" font-size="14.00">4.0</text>
</g>
<!-- 20&#45;&#45;22 -->
<g id="edge17" class="edge">
<title>20&#45;&#45;22</title>
<path fill="none" stroke="black" d="M186,-442.41C186,-427.34 186,-405.49 186,-390.35"/>
<text text-anchor="middle" x="196.12" y="-411.2" font-family="Helvetica,Arial,sans-serif" font-size="14.00">9.0</text>
</g>
<!-- 4&#45;&#45;5 -->
<g id="edge7" class="edge">
<title>4&#45;&#45;5</title>
<path fill="none" stroke="black" d="M229,-176.91C229,-161.84 229,-139.99 229,-124.85"/>
<text text-anchor="middle" x="239.12" y="-145.7" font-family="Helvetica,Arial,sans-serif" font-size="14.00">4.0</text>
</g>
<!-- 8 -->
<g id="node13" class="node">
<title>8</title>
<ellipse fill="none" stroke="black" cx="27" cy="-549" rx="27" ry="18"/>
<text text-anchor="middle" x="27" y="-543.95" font-family="Helvetica,Arial,sans-serif" font-size="14.00">8</text>
</g>
<!-- 9 -->
<g id="node14" class="node">
<title>9</title>
<ellipse fill="none" stroke="black" cx="27" cy="-460.5" rx="27" ry="18"/>
<text text-anchor="middle" x="27" y="-455.45" font-family="Helvetica,Arial,sans-serif" font-size="14.00">9</text>
</g>
<!-- 8&#45;&#45;9 -->
<g id="edge8" class="edge">
<title>8&#45;&#45;9</title>
<path fill="none" stroke="black" d="M27,-530.91C27,-515.84 27,-493.99 27,-478.85"/>
<text text-anchor="middle" x="37.12" y="-499.7" font-family="Helvetica,Arial,sans-serif" font-size="14.00">4.0</text>
</g>
<!-- 9&#45;&#45;10 -->
<g id="edge20" class="edge">
<title>9&#45;&#45;10</title>
<path fill="none" stroke="black" d="M27,-442.41C27,-427.34 27,-405.49 27,-390.35"/>
<text text-anchor="middle" x="41.25" y="-411.2" font-family="Helvetica,Arial,sans-serif" font-size="14.00">15.0</text>
</g>
<!-- 14 -->
<g id="node15" class="node">
<title>14</title>
<ellipse fill="none" stroke="black" cx="86" cy="-814.5" rx="27" ry="18"/>
<text text-anchor="middle" x="86" y="-809.45" font-family="Helvetica,Arial,sans-serif" font-size="14.00">14</text>
</g>
<!-- 16 -->
<g id="node16" class="node">
<title>16</title>
<ellipse fill="none" stroke="black" cx="122" cy="-726" rx="27" ry="18"/>
<text text-anchor="middle" x="122" y="-720.95" font-family="Helvetica,Arial,sans-serif" font-size="14.00">16</text>
</g>
<!-- 14&#45;&#45;16 -->
<g id="edge9" class="edge">
<title>14&#45;&#45;16</title>
<path fill="none" stroke="black" d="M92.94,-796.82C99.32,-781.5 108.71,-758.93 115.08,-743.63"/>
<text text-anchor="middle" x="118.12" y="-765.2" font-family="Helvetica,Arial,sans-serif" font-size="14.00">5.0</text>
</g>
<!-- 17 -->
<g id="node18" class="node">
<title>17</title>
<ellipse fill="none" stroke="black" cx="122" cy="-637.5" rx="27" ry="18"/>
<text text-anchor="middle" x="122" y="-632.45" font-family="Helvetica,Arial,sans-serif" font-size="14.00">17</text>
</g>
<!-- 16&#45;&#45;17 -->
<g id="edge15" class="edge">
<title>16&#45;&#45;17</title>
<path fill="none" stroke="black" d="M122,-707.91C122,-692.84 122,-670.99 122,-655.85"/>
<text text-anchor="middle" x="132.12" y="-676.7" font-family="Helvetica,Arial,sans-serif" font-size="14.00">8.0</text>
</g>
<!-- 15 -->
<g id="node17" class="node">
<title>15</title>
<ellipse fill="none" stroke="black" cx="158" cy="-814.5" rx="27" ry="18"/>
<text text-anchor="middle" x="158" y="-809.45" font-family="Helvetica,Arial,sans-serif" font-size="14.00">15</text>
</g>
<!-- 15&#45;&#45;16 -->
<g id="edge10" class="edge">
<title>15&#45;&#45;16</title>
<path fill="none" stroke="black" d="M151.06,-796.82C144.68,-781.5 135.29,-758.93 128.92,-743.63"/>
<text text-anchor="middle" x="154.12" y="-765.2" font-family="Helvetica,Arial,sans-serif" font-size="14.00">5.0</text>
</g>
<!-- 17&#45;&#45;18 -->
<g id="edge12" class="edge">
<title>17&#45;&#45;18</title>
<path fill="none" stroke="black" d="M120.42,-619.41C119.03,-604.34 117.01,-582.49 115.6,-567.35"/>
<text text-anchor="middle" x="129.12" y="-588.2" font-family="Helvetica,Arial,sans-serif" font-size="14.00">6.0</text>
</g>
<!-- 7 -->
<g id="node19" class="node">
<title>7</title>
<ellipse fill="none" stroke="black" cx="39" cy="-637.5" rx="27" ry="18"/>
<text text-anchor="middle" x="39" y="-632.45" font-family="Helvetica,Arial,sans-serif" font-size="14.00">7</text>
</g>
<!-- 7&#45;&#45;18 -->
<g id="edge19" class="edge">
<title>7&#45;&#45;18</title>
<path fill="none" stroke="black" d="M52.06,-621.43C65.75,-605.65 87.11,-581.01 100.83,-565.18"/>
<text text-anchor="middle" x="98.25" y="-588.2" font-family="Helvetica,Arial,sans-serif" font-size="14.00">11.0</text>
</g>
<!-- 7&#45;&#45;8 -->
<g id="edge14" class="edge">
<title>7&#45;&#45;8</title>
<path fill="none" stroke="black" d="M32.47,-619.66C30.57,-613.98 28.74,-607.55 27.75,-601.5 25.9,-590.21 25.71,-577.33 25.98,-567.28"/>
<text text-anchor="middle" x="38.12" y="-588.2" font-family="Helvetica,Arial,sans-serif" font-size="14.00">6.0</text>
</g>
<!-- 13 -->
<g id="node20" class="node">
<title>13</title>
<ellipse fill="none" stroke="black" cx="86" cy="-903" rx="27" ry="18"/>
<text text-anchor="middle" x="86" y="-897.95" font-family="Helvetica,Arial,sans-serif" font-size="14.00">13</text>
</g>
<!-- 13&#45;&#45;14 -->
<g id="edge16" class="edge">
<title>13&#45;&#45;14</title>
<path fill="none" stroke="black" d="M86,-884.91C86,-869.84 86,-847.99 86,-832.85"/>
<text text-anchor="middle" x="96.12" y="-853.7" font-family="Helvetica,Arial,sans-serif" font-size="14.00">9.0</text>
</g>
<!-- 12 -->
<g id="node21" class="node">
<title>12</title>
<ellipse fill="none" stroke="black" cx="86" cy="-991.5" rx="27" ry="18"/>
<text text-anchor="middle" x="86" y="-986.45" font-family="Helvetica,Arial,sans-serif" font-size="14.00">12</text>
</g>
<!-- 12&#45;&#45;13 -->
<g id="edge18" class="edge">
<title>12&#45;&#45;13</title>
<path fill="none" stroke="black" d="M86,-973.41C86,-958.34 86,-936.49 86,-921.35"/>
<text text-anchor="middle" x="100.25" y="-942.2" font-family="Helvetica,Arial,sans-serif" font-size="14.00">11.0</text>
</g>
</g>
</svg>
