<?xml version="1.0" encoding="UTF-8" standalone="no"?><svg xmlns="http://www.w3.org/2000/svg" xmlns:xlink="http://www.w3.org/1999/xlink" contentStyleType="text/css" height="421px" preserveAspectRatio="none" style="width:550px;height:421px;background:#FFFFFF;" version="1.1" viewBox="0 0 550 421" width="550px" zoomAndPan="magnify"><defs/><g><text fill="#000000" font-family="sans-serif" font-size="14" font-weight="bold" lengthAdjust="spacing" textLength="284" x="132.25" y="29.5332">System Sequence Diagram (SSD) - US006</text><rect fill="#FFFFFF" height="199.4609" style="stroke:#181818;stroke-width:1.0;" width="10" x="17.5" y="131.2188"/><rect fill="#FFFFFF" height="46.7031" style="stroke:#181818;stroke-width:1.0;" width="10" x="507.5" y="153.5703"/><rect fill="#FFFFFF" height="30.3516" style="stroke:#181818;stroke-width:1.0;" width="10" x="507.5" y="230.625"/><rect fill="#FFFFFF" height="30.3516" style="stroke:#181818;stroke-width:1.0;" width="10" x="507.5" y="291.3281"/><line style="stroke:#181818;stroke-width:0.5;stroke-dasharray:5.0,5.0;" x1="22" x2="22" y1="121.2188" y2="339.6797"/><line style="stroke:#181818;stroke-width:0.5;stroke-dasharray:5.0,5.0;" x1="512.5" x2="512.5" y1="121.2188" y2="339.6797"/><text fill="#000000" font-family="sans-serif" font-size="14" lengthAdjust="spacing" textLength="29" x="5" y="118.1426">VFM</text><ellipse cx="22.5" cy="52.1094" fill="#E3E3E3" rx="8" ry="8" style="stroke:#181818;stroke-width:0.5;"/><path d="M22.5,60.1094 L22.5,87.1094 M9.5,68.1094 L35.5,68.1094 M22.5,87.1094 L9.5,102.1094 M22.5,87.1094 L35.5,102.1094 " fill="none" style="stroke:#181818;stroke-width:0.5;"/><text fill="#000000" font-family="sans-serif" font-size="14" lengthAdjust="spacing" textLength="29" x="5" y="353.2129">VFM</text><ellipse cx="22.5" cy="364.7891" fill="#E3E3E3" rx="8" ry="8" style="stroke:#181818;stroke-width:0.5;"/><path d="M22.5,372.7891 L22.5,399.7891 M9.5,380.7891 L35.5,380.7891 M22.5,399.7891 L9.5,414.7891 M22.5,399.7891 L35.5,414.7891 " fill="none" style="stroke:#181818;stroke-width:0.5;"/><rect fill="#E3E3E3" height="31.6094" rx="2.5" ry="2.5" style="stroke:#181818;stroke-width:0.5;" width="64" x="480.5" y="88.6094"/><text fill="#000000" font-family="sans-serif" font-size="14" lengthAdjust="spacing" textLength="50" x="487.5" y="110.1426">:System</text><rect fill="#E3E3E3" height="31.6094" rx="2.5" ry="2.5" style="stroke:#181818;stroke-width:0.5;" width="64" x="480.5" y="338.6797"/><text fill="#000000" font-family="sans-serif" font-size="14" lengthAdjust="spacing" textLength="50" x="487.5" y="360.2129">:System</text><rect fill="#FFFFFF" height="199.4609" style="stroke:#181818;stroke-width:1.0;" width="10" x="17.5" y="131.2188"/><rect fill="#FFFFFF" height="46.7031" style="stroke:#181818;stroke-width:1.0;" width="10" x="507.5" y="153.5703"/><rect fill="#FFFFFF" height="30.3516" style="stroke:#181818;stroke-width:1.0;" width="10" x="507.5" y="230.625"/><rect fill="#FFFFFF" height="30.3516" style="stroke:#181818;stroke-width:1.0;" width="10" x="507.5" y="291.3281"/><polygon fill="#181818" points="495.5,149.5703,505.5,153.5703,495.5,157.5703,499.5,153.5703" style="stroke:#181818;stroke-width:1.0;"/><line style="stroke:#181818;stroke-width:1.0;" x1="27.5" x2="501.5" y1="153.5703" y2="153.5703"/><text fill="#000000" font-family="sans-serif" font-size="13" font-weight="bold" lengthAdjust="spacing" textLength="7" x="34.5" y="148.7139">1</text><text fill="#000000" font-family="sans-serif" font-size="13" lengthAdjust="spacing" textLength="166" x="45.5" y="148.7139">requests to register a vehicle</text><polygon fill="#181818" points="38.5,196.2734,28.5,200.2734,38.5,204.2734,34.5,200.2734" style="stroke:#181818;stroke-width:1.0;"/><line style="stroke:#181818;stroke-width:1.0;stroke-dasharray:2.0,2.0;" x1="32.5" x2="511.5" y1="200.2734" y2="200.2734"/><text fill="#000000" font-family="sans-serif" font-size="13" font-weight="bold" lengthAdjust="spacing" textLength="7" x="44.5" y="187.2412">2</text><text fill="#000000" font-family="sans-serif" font-size="13" lengthAdjust="spacing" textLength="406" x="55.5" y="179.0654">requests vehicle data (VIN, Vehicle Plate, Tare Weight, Gross Weight,</text><text fill="#000000" font-family="sans-serif" font-size="13" lengthAdjust="spacing" textLength="441" x="59.5" y="195.417">Current Km, Acquisition Date, Maintenance Frequency, Brand, Model, Type)</text><polygon fill="#181818" points="495.5,226.625,505.5,230.625,495.5,234.625,499.5,230.625" style="stroke:#181818;stroke-width:1.0;"/><line style="stroke:#181818;stroke-width:1.0;" x1="27.5" x2="501.5" y1="230.625" y2="230.625"/><text fill="#000000" font-family="sans-serif" font-size="13" font-weight="bold" lengthAdjust="spacing" textLength="7" x="34.5" y="225.7686">3</text><text fill="#000000" font-family="sans-serif" font-size="13" lengthAdjust="spacing" textLength="175" x="45.5" y="225.7686">types and selects vehicle data</text><polygon fill="#181818" points="38.5,256.9766,28.5,260.9766,38.5,264.9766,34.5,260.9766" style="stroke:#181818;stroke-width:1.0;"/><line style="stroke:#181818;stroke-width:1.0;stroke-dasharray:2.0,2.0;" x1="32.5" x2="511.5" y1="260.9766" y2="260.9766"/><text fill="#000000" font-family="sans-serif" font-size="13" font-weight="bold" lengthAdjust="spacing" textLength="7" x="44.5" y="256.1201">4</text><text fill="#000000" font-family="sans-serif" font-size="13" lengthAdjust="spacing" textLength="236" x="55.5" y="256.1201">shows all data and requests confirmation</text><polygon fill="#181818" points="495.5,287.3281,505.5,291.3281,495.5,295.3281,499.5,291.3281" style="stroke:#181818;stroke-width:1.0;"/><line style="stroke:#181818;stroke-width:1.0;" x1="27.5" x2="501.5" y1="291.3281" y2="291.3281"/><text fill="#000000" font-family="sans-serif" font-size="13" font-weight="bold" lengthAdjust="spacing" textLength="7" x="34.5" y="286.4717">5</text><text fill="#000000" font-family="sans-serif" font-size="13" lengthAdjust="spacing" textLength="78" x="45.5" y="286.4717">confirms data</text><polygon fill="#181818" points="38.5,317.6797,28.5,321.6797,38.5,325.6797,34.5,321.6797" style="stroke:#181818;stroke-width:1.0;"/><line style="stroke:#181818;stroke-width:1.0;stroke-dasharray:2.0,2.0;" x1="32.5" x2="511.5" y1="321.6797" y2="321.6797"/><text fill="#000000" font-family="sans-serif" font-size="13" font-weight="bold" lengthAdjust="spacing" textLength="7" x="44.5" y="316.8232">6</text><text fill="#000000" font-family="sans-serif" font-size="13" lengthAdjust="spacing" textLength="215" x="55.5" y="316.8232">shows vehicle registration information</text><!--SRC=[bP5FQyCm3CNl_XIYfnPIw6c77WRRIiSO7ODitMKNpL4JKyTERQKbttxAlzADCQWlKMpfv_UUuzwu2WEMK7hdTH5yIS2X9XNF9nNgFUQKScC90cb6bzlBXbXWva_6vR136qafDYojQHEPIaZfK9FJ12k3UTi-JTFL3ERmdYuMDqfXpTxLvHS5gJNx09FjUZC1Z21V9LUmqQP2np1Pzipki2-x6ND4fgvRWImfO7uxthyKpQ8WSWJsKkT6jWCW7AamMeoq8sV8I8LX3P2vy5hi1MmOXmmPORfzUabWEsozMa4by8Q1u8DCNd02Zy77EFvzEdYeGo3nz5mcSASFjOc6ZNUmwaOtQ1oJmpQtTUWJR1Au3-WoEVKPMU4t5SqwfHdzQU1t42m34GG1aQmyv4yJwieaOk5FGhEsZw35diFHtkrCAB6rT8t2OIxsWgxJCmWQBVKl7Je9ODpE_o_d6m00]--></g></svg>