<?xml version="1.0" encoding="UTF-8" standalone="no"?><svg xmlns="http://www.w3.org/2000/svg" xmlns:xlink="http://www.w3.org/1999/xlink" contentStyleType="text/css" height="1888px" preserveAspectRatio="none" style="width:912px;height:1888px;background:#FFFFFF;" version="1.1" viewBox="0 0 912 1888" width="912px" zoomAndPan="magnify"><defs/><g><!--class RegisterCollaboratorUI--><g id="elem_RegisterCollaboratorUI"><rect codeLine="7" fill="#F1F1F1" height="83.2188" id="RegisterCollaboratorUI" rx="2.5" ry="2.5" style="stroke:#181818;stroke-width:0.5;" width="200" x="406.5" y="7"/><ellipse cx="432.75" cy="23" fill="#ADD1B2" rx="11" ry="11" style="stroke:#181818;stroke-width:1.0;"/><path d="M435.5156,18.875 Q435.6719,18.6563 435.8594,18.5469 Q436.0469,18.4375 436.2656,18.4375 Q436.6406,18.4375 436.875,18.7031 Q437.1094,18.9531 437.1094,19.5625 L437.1094,21.0156 Q437.1094,21.625 436.875,21.8906 Q436.6406,22.1563 436.2656,22.1563 Q435.9219,22.1563 435.7188,21.9531 Q435.5156,21.7656 435.4063,21.25 Q435.3594,20.8906 435.1719,20.7031 Q434.8438,20.3281 434.2344,20.1094 Q433.625,19.8906 433,19.8906 Q432.2344,19.8906 431.5938,20.2188 Q430.9688,20.5469 430.4688,21.2969 Q429.9844,22.0469 429.9844,23.0781 L429.9844,24.1719 Q429.9844,25.4063 430.875,26.2344 Q431.7656,27.0469 433.3594,27.0469 Q434.2969,27.0469 434.9531,26.7969 Q435.3438,26.6406 435.7656,26.2031 Q436.0313,25.9375 436.1719,25.8594 Q436.3281,25.7813 436.5313,25.7813 Q436.8594,25.7813 437.1094,26.0469 Q437.375,26.2969 437.375,26.6406 Q437.375,26.9844 437.0313,27.3906 Q436.5313,27.9688 435.7344,28.2969 Q434.6563,28.75 433.3594,28.75 Q431.8438,28.75 430.6406,28.125 Q429.6563,27.625 428.9688,26.5625 Q428.2813,25.4844 428.2813,24.2031 L428.2813,23.0469 Q428.2813,21.7188 428.8906,20.5781 Q429.5156,19.4219 430.6094,18.8125 Q431.7031,18.1875 432.9375,18.1875 Q433.6719,18.1875 434.3125,18.3594 Q434.9688,18.5156 435.5156,18.875 Z " fill="#000000"/><text fill="#000000" font-family="sans-serif" font-size="14" lengthAdjust="spacing" textLength="143" x="449.25" y="28.7285">RegisterCollaboratorUI</text><line style="stroke:#181818;stroke-width:0.5;" x1="407.5" x2="605.5" y1="39" y2="39"/><rect fill="none" height="6" style="stroke:#C82930;stroke-width:1.0;" width="6" x="414.5" y="50.3047"/><text fill="#000000" font-family="sans-serif" font-size="14" lengthAdjust="spacing" textLength="108" x="426.5" y="57.5332">parseDate : Date</text><line style="stroke:#181818;stroke-width:0.5;" x1="407.5" x2="605.5" y1="64.6094" y2="64.6094"/><ellipse cx="417.5" cy="78.9141" fill="#84BE84" rx="3" ry="3" style="stroke:#038048;stroke-width:1.0;"/><text fill="#000000" font-family="sans-serif" font-size="14" lengthAdjust="spacing" textLength="174" x="426.5" y="83.1426">registerCollaborator() : void</text></g><!--class RegisterCollaboratorController--><g id="elem_RegisterCollaboratorController"><rect codeLine="12" fill="#F1F1F1" height="171.2656" id="RegisterCollaboratorController" rx="2.5" ry="2.5" style="stroke:#181818;stroke-width:0.5;" width="650" x="181.5" y="151"/><ellipse cx="405.75" cy="167" fill="#ADD1B2" rx="11" ry="11" style="stroke:#181818;stroke-width:1.0;"/><path d="M408.5156,162.875 Q408.6719,162.6563 408.8594,162.5469 Q409.0469,162.4375 409.2656,162.4375 Q409.6406,162.4375 409.875,162.7031 Q410.1094,162.9531 410.1094,163.5625 L410.1094,165.0156 Q410.1094,165.625 409.875,165.8906 Q409.6406,166.1563 409.2656,166.1563 Q408.9219,166.1563 408.7188,165.9531 Q408.5156,165.7656 408.4063,165.25 Q408.3594,164.8906 408.1719,164.7031 Q407.8438,164.3281 407.2344,164.1094 Q406.625,163.8906 406,163.8906 Q405.2344,163.8906 404.5938,164.2188 Q403.9688,164.5469 403.4688,165.2969 Q402.9844,166.0469 402.9844,167.0781 L402.9844,168.1719 Q402.9844,169.4063 403.875,170.2344 Q404.7656,171.0469 406.3594,171.0469 Q407.2969,171.0469 407.9531,170.7969 Q408.3438,170.6406 408.7656,170.2031 Q409.0313,169.9375 409.1719,169.8594 Q409.3281,169.7813 409.5313,169.7813 Q409.8594,169.7813 410.1094,170.0469 Q410.375,170.2969 410.375,170.6406 Q410.375,170.9844 410.0313,171.3906 Q409.5313,171.9688 408.7344,172.2969 Q407.6563,172.75 406.3594,172.75 Q404.8438,172.75 403.6406,172.125 Q402.6563,171.625 401.9688,170.5625 Q401.2813,169.4844 401.2813,168.2031 L401.2813,167.0469 Q401.2813,165.7188 401.8906,164.5781 Q402.5156,163.4219 403.6094,162.8125 Q404.7031,162.1875 405.9375,162.1875 Q406.6719,162.1875 407.3125,162.3594 Q407.9688,162.5156 408.5156,162.875 Z " fill="#000000"/><text fill="#000000" font-family="sans-serif" font-size="14" lengthAdjust="spacing" textLength="193" x="426.25" y="172.7285">RegisterCollaboratorController</text><line style="stroke:#181818;stroke-width:0.5;" x1="182.5" x2="830.5" y1="183" y2="183"/><rect fill="none" height="6" style="stroke:#C82930;stroke-width:1.0;" width="6" x="189.5" y="194.3047"/><text fill="#000000" font-family="sans-serif" font-size="14" lengthAdjust="spacing" textLength="189" x="201.5" y="201.5332">jobRepository : JobRepository</text><rect fill="none" height="6" style="stroke:#C82930;stroke-width:1.0;" width="6" x="189.5" y="211.9141"/><text fill="#000000" font-family="sans-serif" font-size="14" lengthAdjust="spacing" textLength="301" x="201.5" y="219.1426">collaboratorRepository : CollaboratorRepository</text><line style="stroke:#181818;stroke-width:0.5;" x1="182.5" x2="830.5" y1="226.2188" y2="226.2188"/><ellipse cx="192.5" cy="240.5234" fill="#84BE84" rx="3" ry="3" style="stroke:#038048;stroke-width:1.0;"/><text fill="#000000" font-family="sans-serif" font-size="14" lengthAdjust="spacing" textLength="203" x="201.5" y="244.752">RegisterCollaboratorController()</text><ellipse cx="192.5" cy="275.7422" fill="#84BE84" rx="3" ry="3" style="stroke:#038048;stroke-width:1.0;"/><text fill="#000000" font-family="sans-serif" font-size="14" lengthAdjust="spacing" textLength="410" x="201.5" y="262.3613">createCLB(name : String, birthdate : Date, contactMobile : String,</text><text fill="#000000" font-family="sans-serif" font-size="14" lengthAdjust="spacing" textLength="380" x="201.5" y="279.9707">email : String, address : String, zipCode : String, city : String,</text><text fill="#000000" font-family="sans-serif" font-size="14" lengthAdjust="spacing" textLength="624" x="201.5" y="297.5801">documentType, identificationNumber, admissionDate : Date, identificationNumber : String, job : Job)</text><ellipse cx="192.5" cy="310.9609" fill="#84BE84" rx="3" ry="3" style="stroke:#038048;stroke-width:1.0;"/><text fill="#000000" font-family="sans-serif" font-size="14" lengthAdjust="spacing" textLength="131" x="201.5" y="315.1895">getJobs() : List&lt;Job&gt;</text></g><!--class Repositories--><g id="elem_Repositories"><rect codeLine="22" fill="#F1F1F1" height="171.2656" id="Repositories" rx="2.5" ry="2.5" style="stroke:#181818;stroke-width:0.5;" width="360" x="326.5" y="400"/><ellipse cx="462.75" cy="416" fill="#ADD1B2" rx="11" ry="11" style="stroke:#181818;stroke-width:1.0;"/><path d="M465.5156,411.875 Q465.6719,411.6563 465.8594,411.5469 Q466.0469,411.4375 466.2656,411.4375 Q466.6406,411.4375 466.875,411.7031 Q467.1094,411.9531 467.1094,412.5625 L467.1094,414.0156 Q467.1094,414.625 466.875,414.8906 Q466.6406,415.1563 466.2656,415.1563 Q465.9219,415.1563 465.7188,414.9531 Q465.5156,414.7656 465.4063,414.25 Q465.3594,413.8906 465.1719,413.7031 Q464.8438,413.3281 464.2344,413.1094 Q463.625,412.8906 463,412.8906 Q462.2344,412.8906 461.5938,413.2188 Q460.9688,413.5469 460.4688,414.2969 Q459.9844,415.0469 459.9844,416.0781 L459.9844,417.1719 Q459.9844,418.4063 460.875,419.2344 Q461.7656,420.0469 463.3594,420.0469 Q464.2969,420.0469 464.9531,419.7969 Q465.3438,419.6406 465.7656,419.2031 Q466.0313,418.9375 466.1719,418.8594 Q466.3281,418.7813 466.5313,418.7813 Q466.8594,418.7813 467.1094,419.0469 Q467.375,419.2969 467.375,419.6406 Q467.375,419.9844 467.0313,420.3906 Q466.5313,420.9688 465.7344,421.2969 Q464.6563,421.75 463.3594,421.75 Q461.8438,421.75 460.6406,421.125 Q459.6563,420.625 458.9688,419.5625 Q458.2813,418.4844 458.2813,417.2031 L458.2813,416.0469 Q458.2813,414.7188 458.8906,413.5781 Q459.5156,412.4219 460.6094,411.8125 Q461.7031,411.1875 462.9375,411.1875 Q463.6719,411.1875 464.3125,411.3594 Q464.9688,411.5156 465.5156,411.875 Z " fill="#000000"/><text fill="#000000" font-family="sans-serif" font-size="14" lengthAdjust="spacing" textLength="79" x="483.25" y="421.7285">Repositories</text><line style="stroke:#181818;stroke-width:0.5;" x1="327.5" x2="685.5" y1="432" y2="432"/><rect fill="none" height="6" style="stroke:#C82930;stroke-width:1.0;" width="6" x="334.5" y="443.3047"/><text fill="#000000" font-family="sans-serif" font-size="14" lengthAdjust="spacing" textLength="144" x="346.5" y="450.5332">instance : Repositories</text><rect fill="none" height="6" style="stroke:#C82930;stroke-width:1.0;" width="6" x="334.5" y="460.9141"/><text fill="#000000" font-family="sans-serif" font-size="14" lengthAdjust="spacing" textLength="189" x="346.5" y="468.1426">jobRepository : JobRepository</text><rect fill="none" height="6" style="stroke:#C82930;stroke-width:1.0;" width="6" x="334.5" y="478.5234"/><text fill="#000000" font-family="sans-serif" font-size="14" lengthAdjust="spacing" textLength="301" x="346.5" y="485.752">collaboratorRepository : CollaboratorRepository</text><line style="stroke:#181818;stroke-width:0.5;" x1="327.5" x2="685.5" y1="492.8281" y2="492.8281"/><rect fill="#F24D5C" height="6" style="stroke:#C82930;stroke-width:1.0;" width="6" x="334.5" y="504.1328"/><text fill="#000000" font-family="sans-serif" font-size="14" lengthAdjust="spacing" textLength="89" x="346.5" y="511.3613">Repositories()</text><ellipse cx="337.5" cy="524.7422" fill="#84BE84" rx="3" ry="3" style="stroke:#038048;stroke-width:1.0;"/><text fill="#000000" font-family="sans-serif" font-size="14" lengthAdjust="spacing" textLength="174" x="346.5" y="528.9707">getInstance() : Repositories</text><ellipse cx="337.5" cy="542.3516" fill="#84BE84" rx="3" ry="3" style="stroke:#038048;stroke-width:1.0;"/><text fill="#000000" font-family="sans-serif" font-size="14" lengthAdjust="spacing" textLength="222" x="346.5" y="546.5801">getJobRepository() : JobRepository</text><ellipse cx="337.5" cy="559.9609" fill="#84BE84" rx="3" ry="3" style="stroke:#038048;stroke-width:1.0;"/><text fill="#000000" font-family="sans-serif" font-size="14" lengthAdjust="spacing" textLength="334" x="346.5" y="564.1895">getCollaboratorRepository() : CollaboratorRepository</text></g><!--class CollaboratorRepository--><g id="elem_CollaboratorRepository"><rect codeLine="32" fill="#F1F1F1" height="206.4844" id="CollaboratorRepository" rx="2.5" ry="2.5" style="stroke:#181818;stroke-width:0.5;" width="409" x="26" y="649"/><ellipse cx="153.25" cy="665" fill="#ADD1B2" rx="11" ry="11" style="stroke:#181818;stroke-width:1.0;"/><path d="M156.0156,660.875 Q156.1719,660.6563 156.3594,660.5469 Q156.5469,660.4375 156.7656,660.4375 Q157.1406,660.4375 157.375,660.7031 Q157.6094,660.9531 157.6094,661.5625 L157.6094,663.0156 Q157.6094,663.625 157.375,663.8906 Q157.1406,664.1563 156.7656,664.1563 Q156.4219,664.1563 156.2188,663.9531 Q156.0156,663.7656 155.9063,663.25 Q155.8594,662.8906 155.6719,662.7031 Q155.3438,662.3281 154.7344,662.1094 Q154.125,661.8906 153.5,661.8906 Q152.7344,661.8906 152.0938,662.2188 Q151.4688,662.5469 150.9688,663.2969 Q150.4844,664.0469 150.4844,665.0781 L150.4844,666.1719 Q150.4844,667.4063 151.375,668.2344 Q152.2656,669.0469 153.8594,669.0469 Q154.7969,669.0469 155.4531,668.7969 Q155.8438,668.6406 156.2656,668.2031 Q156.5313,667.9375 156.6719,667.8594 Q156.8281,667.7813 157.0313,667.7813 Q157.3594,667.7813 157.6094,668.0469 Q157.875,668.2969 157.875,668.6406 Q157.875,668.9844 157.5313,669.3906 Q157.0313,669.9688 156.2344,670.2969 Q155.1563,670.75 153.8594,670.75 Q152.3438,670.75 151.1406,670.125 Q150.1563,669.625 149.4688,668.5625 Q148.7813,667.4844 148.7813,666.2031 L148.7813,665.0469 Q148.7813,663.7188 149.3906,662.5781 Q150.0156,661.4219 151.1094,660.8125 Q152.2031,660.1875 153.4375,660.1875 Q154.1719,660.1875 154.8125,660.3594 Q155.4688,660.5156 156.0156,660.875 Z " fill="#000000"/><text fill="#000000" font-family="sans-serif" font-size="14" lengthAdjust="spacing" textLength="146" x="173.75" y="670.7285">CollaboratorRepository</text><line style="stroke:#181818;stroke-width:0.5;" x1="27" x2="434" y1="681" y2="681"/><rect fill="none" height="6" style="stroke:#C82930;stroke-width:1.0;" width="6" x="34" y="692.3047"/><text fill="#000000" font-family="sans-serif" font-size="14" lengthAdjust="spacing" textLength="225" x="46" y="699.5332">collaboratorList : List&lt;Collaborator&gt;</text><line style="stroke:#181818;stroke-width:0.5;" x1="27" x2="434" y1="706.6094" y2="706.6094"/><ellipse cx="37" cy="720.9141" fill="#84BE84" rx="3" ry="3" style="stroke:#038048;stroke-width:1.0;"/><text fill="#000000" font-family="sans-serif" font-size="14" lengthAdjust="spacing" textLength="156" x="46" y="725.1426">CollaboratorRepository()</text><ellipse cx="37" cy="764.9375" fill="#84BE84" rx="3" ry="3" style="stroke:#038048;stroke-width:1.0;"/><text fill="#000000" font-family="sans-serif" font-size="14" lengthAdjust="spacing" textLength="383" x="46" y="742.752">create(name : String, birthdate : Date, contactMobile : String,</text><text fill="#000000" font-family="sans-serif" font-size="14" lengthAdjust="spacing" textLength="380" x="46" y="760.3613">email : String, address : String, zipCode : String, city : String,</text><text fill="#000000" font-family="sans-serif" font-size="14" lengthAdjust="spacing" textLength="332" x="46" y="777.9707">documentType : String, identificationNumber : String,</text><text fill="#000000" font-family="sans-serif" font-size="14" lengthAdjust="spacing" textLength="339" x="46" y="795.5801">admissionDate : Date, taxpayerNumber : int, job : Job)</text><ellipse cx="37" cy="808.9609" fill="#84BE84" rx="3" ry="3" style="stroke:#038048;stroke-width:1.0;"/><text fill="#000000" font-family="sans-serif" font-size="14" lengthAdjust="spacing" textLength="173" x="46" y="813.1895">checkForDuplicates() : void</text><ellipse cx="37" cy="826.5703" fill="#84BE84" rx="3" ry="3" style="stroke:#038048;stroke-width:1.0;"/><text fill="#000000" font-family="sans-serif" font-size="14" lengthAdjust="spacing" textLength="225" x="46" y="830.7988">addCollaborator(collaborator) : void</text><ellipse cx="37" cy="844.1797" fill="#84BE84" rx="3" ry="3" style="stroke:#038048;stroke-width:1.0;"/><text fill="#000000" font-family="sans-serif" font-size="14" lengthAdjust="spacing" textLength="258" x="46" y="848.4082">getCollaboratorList() : List&lt;Collaborator&gt;</text></g><!--class JobRepository--><g id="elem_JobRepository"><rect codeLine="41" fill="#F1F1F1" height="118.4375" id="JobRepository" rx="2.5" ry="2.5" style="stroke:#181818;stroke-width:0.5;" width="203" x="665" y="693"/><ellipse cx="717.25" cy="709" fill="#ADD1B2" rx="11" ry="11" style="stroke:#181818;stroke-width:1.0;"/><path d="M720.0156,704.875 Q720.1719,704.6563 720.3594,704.5469 Q720.5469,704.4375 720.7656,704.4375 Q721.1406,704.4375 721.375,704.7031 Q721.6094,704.9531 721.6094,705.5625 L721.6094,707.0156 Q721.6094,707.625 721.375,707.8906 Q721.1406,708.1563 720.7656,708.1563 Q720.4219,708.1563 720.2188,707.9531 Q720.0156,707.7656 719.9063,707.25 Q719.8594,706.8906 719.6719,706.7031 Q719.3438,706.3281 718.7344,706.1094 Q718.125,705.8906 717.5,705.8906 Q716.7344,705.8906 716.0938,706.2188 Q715.4688,706.5469 714.9688,707.2969 Q714.4844,708.0469 714.4844,709.0781 L714.4844,710.1719 Q714.4844,711.4063 715.375,712.2344 Q716.2656,713.0469 717.8594,713.0469 Q718.7969,713.0469 719.4531,712.7969 Q719.8438,712.6406 720.2656,712.2031 Q720.5313,711.9375 720.6719,711.8594 Q720.8281,711.7813 721.0313,711.7813 Q721.3594,711.7813 721.6094,712.0469 Q721.875,712.2969 721.875,712.6406 Q721.875,712.9844 721.5313,713.3906 Q721.0313,713.9688 720.2344,714.2969 Q719.1563,714.75 717.8594,714.75 Q716.3438,714.75 715.1406,714.125 Q714.1563,713.625 713.4688,712.5625 Q712.7813,711.4844 712.7813,710.2031 L712.7813,709.0469 Q712.7813,707.7188 713.3906,706.5781 Q714.0156,705.4219 715.1094,704.8125 Q716.2031,704.1875 717.4375,704.1875 Q718.1719,704.1875 718.8125,704.3594 Q719.4688,704.5156 720.0156,704.875 Z " fill="#000000"/><text fill="#000000" font-family="sans-serif" font-size="14" lengthAdjust="spacing" textLength="90" x="737.75" y="714.7285">JobRepository</text><line style="stroke:#181818;stroke-width:0.5;" x1="666" x2="867" y1="725" y2="725"/><line style="stroke:#181818;stroke-width:0.5;" x1="666" x2="867" y1="733" y2="733"/><ellipse cx="676" cy="747.3047" fill="#84BE84" rx="3" ry="3" style="stroke:#038048;stroke-width:1.0;"/><text fill="#000000" font-family="sans-serif" font-size="14" lengthAdjust="spacing" textLength="177" x="685" y="751.5332">createJob(title : String) : Job</text><ellipse cx="676" cy="764.9141" fill="#84BE84" rx="3" ry="3" style="stroke:#038048;stroke-width:1.0;"/><text fill="#000000" font-family="sans-serif" font-size="14" lengthAdjust="spacing" textLength="173" x="685" y="769.1426">checkForDuplicates() : void</text><ellipse cx="676" cy="782.5234" fill="#84BE84" rx="3" ry="3" style="stroke:#038048;stroke-width:1.0;"/><text fill="#000000" font-family="sans-serif" font-size="14" lengthAdjust="spacing" textLength="113" x="685" y="786.752">addJob(job) : void</text><ellipse cx="676" cy="800.1328" fill="#84BE84" rx="3" ry="3" style="stroke:#038048;stroke-width:1.0;"/><text fill="#000000" font-family="sans-serif" font-size="14" lengthAdjust="spacing" textLength="146" x="685" y="804.3613">getJobList() : List&lt;Job&gt;</text></g><!--class Collaborator--><g id="elem_Collaborator"><rect codeLine="48" fill="#F1F1F1" height="664.3281" id="Collaborator" rx="2.5" ry="2.5" style="stroke:#181818;stroke-width:0.5;" width="447" x="7" y="933"/><ellipse cx="187.25" cy="949" fill="#ADD1B2" rx="11" ry="11" style="stroke:#181818;stroke-width:1.0;"/><path d="M190.0156,944.875 Q190.1719,944.6563 190.3594,944.5469 Q190.5469,944.4375 190.7656,944.4375 Q191.1406,944.4375 191.375,944.7031 Q191.6094,944.9531 191.6094,945.5625 L191.6094,947.0156 Q191.6094,947.625 191.375,947.8906 Q191.1406,948.1563 190.7656,948.1563 Q190.4219,948.1563 190.2188,947.9531 Q190.0156,947.7656 189.9063,947.25 Q189.8594,946.8906 189.6719,946.7031 Q189.3438,946.3281 188.7344,946.1094 Q188.125,945.8906 187.5,945.8906 Q186.7344,945.8906 186.0938,946.2188 Q185.4688,946.5469 184.9688,947.2969 Q184.4844,948.0469 184.4844,949.0781 L184.4844,950.1719 Q184.4844,951.4063 185.375,952.2344 Q186.2656,953.0469 187.8594,953.0469 Q188.7969,953.0469 189.4531,952.7969 Q189.8438,952.6406 190.2656,952.2031 Q190.5313,951.9375 190.6719,951.8594 Q190.8281,951.7813 191.0313,951.7813 Q191.3594,951.7813 191.6094,952.0469 Q191.875,952.2969 191.875,952.6406 Q191.875,952.9844 191.5313,953.3906 Q191.0313,953.9688 190.2344,954.2969 Q189.1563,954.75 187.8594,954.75 Q186.3438,954.75 185.1406,954.125 Q184.1563,953.625 183.4688,952.5625 Q182.7813,951.4844 182.7813,950.2031 L182.7813,949.0469 Q182.7813,947.7188 183.3906,946.5781 Q184.0156,945.4219 185.1094,944.8125 Q186.2031,944.1875 187.4375,944.1875 Q188.1719,944.1875 188.8125,944.3594 Q189.4688,944.5156 190.0156,944.875 Z " fill="#000000"/><text fill="#000000" font-family="sans-serif" font-size="14" lengthAdjust="spacing" textLength="78" x="207.75" y="954.7285">Collaborator</text><line style="stroke:#181818;stroke-width:0.5;" x1="8" x2="453" y1="965" y2="965"/><rect fill="none" height="6" style="stroke:#C82930;stroke-width:1.0;" width="6" x="15" y="976.3047"/><text fill="#000000" font-family="sans-serif" font-size="14" lengthAdjust="spacing" textLength="84" x="27" y="983.5332">name : String</text><rect fill="none" height="6" style="stroke:#C82930;stroke-width:1.0;" width="6" x="15" y="993.9141"/><text fill="#000000" font-family="sans-serif" font-size="14" lengthAdjust="spacing" textLength="98" x="27" y="1001.1426">birthdate : Date</text><rect fill="none" height="6" style="stroke:#C82930;stroke-width:1.0;" width="6" x="15" y="1011.5234"/><text fill="#000000" font-family="sans-serif" font-size="14" lengthAdjust="spacing" textLength="136" x="27" y="1018.752">contactMobile : String</text><rect fill="none" height="6" style="stroke:#C82930;stroke-width:1.0;" width="6" x="15" y="1029.1328"/><text fill="#000000" font-family="sans-serif" font-size="14" lengthAdjust="spacing" textLength="82" x="27" y="1036.3613">email : String</text><rect fill="none" height="6" style="stroke:#C82930;stroke-width:1.0;" width="6" x="15" y="1046.7422"/><text fill="#000000" font-family="sans-serif" font-size="14" lengthAdjust="spacing" textLength="135" x="27" y="1053.9707">admissionDate : Date</text><rect fill="none" height="6" style="stroke:#C82930;stroke-width:1.0;" width="6" x="15" y="1064.3516"/><text fill="#000000" font-family="sans-serif" font-size="14" lengthAdjust="spacing" textLength="53" x="27" y="1071.5801">job : Job</text><rect fill="none" height="6" style="stroke:#C82930;stroke-width:1.0;" width="6" x="15" y="1081.9609"/><text fill="#000000" font-family="sans-serif" font-size="14" lengthAdjust="spacing" textLength="130" x="27" y="1089.1895">taxpayerNumber : int</text><rect fill="none" height="6" style="stroke:#C82930;stroke-width:1.0;" width="6" x="15" y="1099.5703"/><text fill="#000000" font-family="sans-serif" font-size="14" lengthAdjust="spacing" textLength="143" x="27" y="1106.7988">documentType : String</text><rect fill="none" height="6" style="stroke:#C82930;stroke-width:1.0;" width="6" x="15" y="1117.1797"/><text fill="#000000" font-family="sans-serif" font-size="14" lengthAdjust="spacing" textLength="177" x="27" y="1124.4082">identificationNumber : String</text><line style="stroke:#181818;stroke-width:0.5;" x1="8" x2="453" y1="1131.4844" y2="1131.4844"/><ellipse cx="18" cy="1172.2031" fill="#84BE84" rx="3" ry="3" style="stroke:#038048;stroke-width:1.0;"/><text fill="#000000" font-family="sans-serif" font-size="14" lengthAdjust="spacing" textLength="421" x="27" y="1150.0176">Collaborator(name : String, birthdate : Date, contactMobile : String,</text><text fill="#000000" font-family="sans-serif" font-size="14" lengthAdjust="spacing" textLength="380" x="27" y="1167.627">email : String, address : String, zipCode : String, city : String,</text><text fill="#000000" font-family="sans-serif" font-size="14" lengthAdjust="spacing" textLength="332" x="27" y="1185.2363">documentType : String, identificationNumber : String,</text><text fill="#000000" font-family="sans-serif" font-size="14" lengthAdjust="spacing" textLength="339" x="27" y="1202.8457">admissionDate : Date, taxpayerNumber : int, job : Job)</text><ellipse cx="18" cy="1216.2266" fill="#84BE84" rx="3" ry="3" style="stroke:#038048;stroke-width:1.0;"/><text fill="#000000" font-family="sans-serif" font-size="14" lengthAdjust="spacing" textLength="216" x="27" y="1220.4551">verifyFilled(collaborator) : boolean</text><ellipse cx="18" cy="1233.8359" fill="#84BE84" rx="3" ry="3" style="stroke:#038048;stroke-width:1.0;"/><text fill="#000000" font-family="sans-serif" font-size="14" lengthAdjust="spacing" textLength="245" x="27" y="1238.0645">verifyNineDigits(collaborator) : boolean</text><ellipse cx="18" cy="1251.4453" fill="#84BE84" rx="3" ry="3" style="stroke:#038048;stroke-width:1.0;"/><text fill="#000000" font-family="sans-serif" font-size="14" lengthAdjust="spacing" textLength="216" x="27" y="1255.6738">verifyEmail(collaborator) : boolean</text><ellipse cx="18" cy="1269.0547" fill="#84BE84" rx="3" ry="3" style="stroke:#038048;stroke-width:1.0;"/><text fill="#000000" font-family="sans-serif" font-size="14" lengthAdjust="spacing" textLength="235" x="27" y="1273.2832">verifyZipCode(collaborator) : boolean</text><ellipse cx="18" cy="1286.6641" fill="#84BE84" rx="3" ry="3" style="stroke:#038048;stroke-width:1.0;"/><text fill="#000000" font-family="sans-serif" font-size="14" lengthAdjust="spacing" textLength="211" x="27" y="1290.8926">verifyBirth(collaborator) : boolean</text><ellipse cx="18" cy="1304.2734" fill="#84BE84" rx="3" ry="3" style="stroke:#038048;stroke-width:1.0;"/><text fill="#000000" font-family="sans-serif" font-size="14" lengthAdjust="spacing" textLength="310" x="27" y="1308.502">verifyIdentificationNumber(collaborator) : boolean</text><ellipse cx="18" cy="1321.8828" fill="#84BE84" rx="3" ry="3" style="stroke:#038048;stroke-width:1.0;"/><text fill="#000000" font-family="sans-serif" font-size="14" lengthAdjust="spacing" textLength="276" x="27" y="1326.1113">verifyAdmissionDate(collaborator) : boolean</text><ellipse cx="18" cy="1339.4922" fill="#84BE84" rx="3" ry="3" style="stroke:#038048;stroke-width:1.0;"/><text fill="#000000" font-family="sans-serif" font-size="14" lengthAdjust="spacing" textLength="219" x="27" y="1343.7207">setAddress(address : String) : void</text><ellipse cx="18" cy="1357.1016" fill="#84BE84" rx="3" ry="3" style="stroke:#038048;stroke-width:1.0;"/><text fill="#000000" font-family="sans-serif" font-size="14" lengthAdjust="spacing" textLength="296" x="27" y="1361.3301">setAdmissionDate(admissionDate : Date) : void</text><ellipse cx="18" cy="1374.7109" fill="#84BE84" rx="3" ry="3" style="stroke:#038048;stroke-width:1.0;"/><text fill="#000000" font-family="sans-serif" font-size="14" lengthAdjust="spacing" textLength="222" x="27" y="1378.9395">setBirthdate(birthdate : Date) : void</text><ellipse cx="18" cy="1392.3203" fill="#84BE84" rx="3" ry="3" style="stroke:#038048;stroke-width:1.0;"/><text fill="#000000" font-family="sans-serif" font-size="14" lengthAdjust="spacing" textLength="161" x="27" y="1396.5488">setCity(city : String) : void</text><ellipse cx="18" cy="1409.9297" fill="#84BE84" rx="3" ry="3" style="stroke:#038048;stroke-width:1.0;"/><text fill="#000000" font-family="sans-serif" font-size="14" lengthAdjust="spacing" textLength="225" x="27" y="1414.1582">setContactMobile(mobile : int) : void</text><ellipse cx="18" cy="1427.5391" fill="#84BE84" rx="3" ry="3" style="stroke:#038048;stroke-width:1.0;"/><text fill="#000000" font-family="sans-serif" font-size="14" lengthAdjust="spacing" textLength="306" x="27" y="1431.7676">setDocumentType(documentType : String) : void</text><ellipse cx="18" cy="1445.1484" fill="#84BE84" rx="3" ry="3" style="stroke:#038048;stroke-width:1.0;"/><text fill="#000000" font-family="sans-serif" font-size="14" lengthAdjust="spacing" textLength="183" x="27" y="1449.377">setEmail(email : String) : void</text><ellipse cx="18" cy="1462.7578" fill="#84BE84" rx="3" ry="3" style="stroke:#038048;stroke-width:1.0;"/><text fill="#000000" font-family="sans-serif" font-size="14" lengthAdjust="spacing" textLength="372" x="27" y="1466.9863">setIdentificationNumber(identificationNumber : String) : void</text><ellipse cx="18" cy="1480.3672" fill="#84BE84" rx="3" ry="3" style="stroke:#038048;stroke-width:1.0;"/><text fill="#000000" font-family="sans-serif" font-size="14" lengthAdjust="spacing" textLength="142" x="27" y="1484.5957">setJob(job : Job) : void</text><ellipse cx="18" cy="1497.9766" fill="#84BE84" rx="3" ry="3" style="stroke:#038048;stroke-width:1.0;"/><text fill="#000000" font-family="sans-serif" font-size="14" lengthAdjust="spacing" textLength="187" x="27" y="1502.2051">setName(name : String) : void</text><ellipse cx="18" cy="1515.5859" fill="#84BE84" rx="3" ry="3" style="stroke:#038048;stroke-width:1.0;"/><text fill="#000000" font-family="sans-serif" font-size="14" lengthAdjust="spacing" textLength="305" x="27" y="1519.8145">setTaxpayerNumber(taxpayerNumber : int) : void</text><ellipse cx="18" cy="1533.1953" fill="#84BE84" rx="3" ry="3" style="stroke:#038048;stroke-width:1.0;"/><text fill="#000000" font-family="sans-serif" font-size="14" lengthAdjust="spacing" textLength="217" x="27" y="1537.4238">setZipCode(zipcode : String) : void</text><ellipse cx="18" cy="1550.8047" fill="#84BE84" rx="3" ry="3" style="stroke:#038048;stroke-width:1.0;"/><text fill="#000000" font-family="sans-serif" font-size="14" lengthAdjust="spacing" textLength="165" x="27" y="1555.0332">getTaxpayerNumber() : int</text><ellipse cx="18" cy="1568.4141" fill="#84BE84" rx="3" ry="3" style="stroke:#038048;stroke-width:1.0;"/><text fill="#000000" font-family="sans-serif" font-size="14" lengthAdjust="spacing" textLength="115" x="27" y="1572.6426">getName() : String</text><ellipse cx="18" cy="1586.0234" fill="#84BE84" rx="3" ry="3" style="stroke:#038048;stroke-width:1.0;"/><text fill="#000000" font-family="sans-serif" font-size="14" lengthAdjust="spacing" textLength="129" x="27" y="1590.252">getBirthdate() : Date</text></g><!--class Address--><g id="elem_Address"><rect codeLine="83" fill="#F1F1F1" height="206.4844" id="Address" rx="2.5" ry="2.5" style="stroke:#181818;stroke-width:0.5;" width="158" x="151.5" y="1675"/><ellipse cx="200.25" cy="1691" fill="#ADD1B2" rx="11" ry="11" style="stroke:#181818;stroke-width:1.0;"/><path d="M203.0156,1686.875 Q203.1719,1686.6563 203.3594,1686.5469 Q203.5469,1686.4375 203.7656,1686.4375 Q204.1406,1686.4375 204.375,1686.7031 Q204.6094,1686.9531 204.6094,1687.5625 L204.6094,1689.0156 Q204.6094,1689.625 204.375,1689.8906 Q204.1406,1690.1563 203.7656,1690.1563 Q203.4219,1690.1563 203.2188,1689.9531 Q203.0156,1689.7656 202.9063,1689.25 Q202.8594,1688.8906 202.6719,1688.7031 Q202.3438,1688.3281 201.7344,1688.1094 Q201.125,1687.8906 200.5,1687.8906 Q199.7344,1687.8906 199.0938,1688.2188 Q198.4688,1688.5469 197.9688,1689.2969 Q197.4844,1690.0469 197.4844,1691.0781 L197.4844,1692.1719 Q197.4844,1693.4063 198.375,1694.2344 Q199.2656,1695.0469 200.8594,1695.0469 Q201.7969,1695.0469 202.4531,1694.7969 Q202.8438,1694.6406 203.2656,1694.2031 Q203.5313,1693.9375 203.6719,1693.8594 Q203.8281,1693.7813 204.0313,1693.7813 Q204.3594,1693.7813 204.6094,1694.0469 Q204.875,1694.2969 204.875,1694.6406 Q204.875,1694.9844 204.5313,1695.3906 Q204.0313,1695.9688 203.2344,1696.2969 Q202.1563,1696.75 200.8594,1696.75 Q199.3438,1696.75 198.1406,1696.125 Q197.1563,1695.625 196.4688,1694.5625 Q195.7813,1693.4844 195.7813,1692.2031 L195.7813,1691.0469 Q195.7813,1689.7188 196.3906,1688.5781 Q197.0156,1687.4219 198.1094,1686.8125 Q199.2031,1686.1875 200.4375,1686.1875 Q201.1719,1686.1875 201.8125,1686.3594 Q202.4688,1686.5156 203.0156,1686.875 Z " fill="#000000"/><text fill="#000000" font-family="sans-serif" font-size="14" lengthAdjust="spacing" textLength="52" x="220.75" y="1696.7285">Address</text><line style="stroke:#181818;stroke-width:0.5;" x1="152.5" x2="308.5" y1="1707" y2="1707"/><rect fill="none" height="6" style="stroke:#C82930;stroke-width:1.0;" width="6" x="159.5" y="1718.3047"/><text fill="#000000" font-family="sans-serif" font-size="14" lengthAdjust="spacing" textLength="100" x="171.5" y="1725.5332">address : String</text><rect fill="none" height="6" style="stroke:#C82930;stroke-width:1.0;" width="6" x="159.5" y="1735.9141"/><text fill="#000000" font-family="sans-serif" font-size="14" lengthAdjust="spacing" textLength="70" x="171.5" y="1743.1426">city : String</text><rect fill="none" height="6" style="stroke:#C82930;stroke-width:1.0;" width="6" x="159.5" y="1753.5234"/><text fill="#000000" font-family="sans-serif" font-size="14" lengthAdjust="spacing" textLength="97" x="171.5" y="1760.752">zipcode : String</text><line style="stroke:#181818;stroke-width:0.5;" x1="152.5" x2="308.5" y1="1767.8281" y2="1767.8281"/><ellipse cx="162.5" cy="1782.1328" fill="#84BE84" rx="3" ry="3" style="stroke:#038048;stroke-width:1.0;"/><text fill="#000000" font-family="sans-serif" font-size="14" lengthAdjust="spacing" textLength="119" x="171.5" y="1786.3613">setAddress() : void</text><ellipse cx="162.5" cy="1799.7422" fill="#84BE84" rx="3" ry="3" style="stroke:#038048;stroke-width:1.0;"/><text fill="#000000" font-family="sans-serif" font-size="14" lengthAdjust="spacing" textLength="91" x="171.5" y="1803.9707">setCity() : void</text><ellipse cx="162.5" cy="1817.3516" fill="#84BE84" rx="3" ry="3" style="stroke:#038048;stroke-width:1.0;"/><text fill="#000000" font-family="sans-serif" font-size="14" lengthAdjust="spacing" textLength="120" x="171.5" y="1821.5801">setZipCode() : void</text><ellipse cx="162.5" cy="1834.9609" fill="#84BE84" rx="3" ry="3" style="stroke:#038048;stroke-width:1.0;"/><text fill="#000000" font-family="sans-serif" font-size="14" lengthAdjust="spacing" textLength="131" x="171.5" y="1839.1895">getAddress() : String</text><ellipse cx="162.5" cy="1852.5703" fill="#84BE84" rx="3" ry="3" style="stroke:#038048;stroke-width:1.0;"/><text fill="#000000" font-family="sans-serif" font-size="14" lengthAdjust="spacing" textLength="103" x="171.5" y="1856.7988">getCity() : String</text><ellipse cx="162.5" cy="1870.1797" fill="#84BE84" rx="3" ry="3" style="stroke:#038048;stroke-width:1.0;"/><text fill="#000000" font-family="sans-serif" font-size="14" lengthAdjust="spacing" textLength="132" x="171.5" y="1874.4082">getZipCode() : String</text></g><!--class Job--><g id="elem_Job"><rect codeLine="95" fill="#F1F1F1" height="153.6563" id="Job" rx="2.5" ry="2.5" style="stroke:#181818;stroke-width:0.5;" width="277" x="628" y="1188"/><ellipse cx="751.25" cy="1204" fill="#ADD1B2" rx="11" ry="11" style="stroke:#181818;stroke-width:1.0;"/><path d="M754.0156,1199.875 Q754.1719,1199.6563 754.3594,1199.5469 Q754.5469,1199.4375 754.7656,1199.4375 Q755.1406,1199.4375 755.375,1199.7031 Q755.6094,1199.9531 755.6094,1200.5625 L755.6094,1202.0156 Q755.6094,1202.625 755.375,1202.8906 Q755.1406,1203.1563 754.7656,1203.1563 Q754.4219,1203.1563 754.2188,1202.9531 Q754.0156,1202.7656 753.9063,1202.25 Q753.8594,1201.8906 753.6719,1201.7031 Q753.3438,1201.3281 752.7344,1201.1094 Q752.125,1200.8906 751.5,1200.8906 Q750.7344,1200.8906 750.0938,1201.2188 Q749.4688,1201.5469 748.9688,1202.2969 Q748.4844,1203.0469 748.4844,1204.0781 L748.4844,1205.1719 Q748.4844,1206.4063 749.375,1207.2344 Q750.2656,1208.0469 751.8594,1208.0469 Q752.7969,1208.0469 753.4531,1207.7969 Q753.8438,1207.6406 754.2656,1207.2031 Q754.5313,1206.9375 754.6719,1206.8594 Q754.8281,1206.7813 755.0313,1206.7813 Q755.3594,1206.7813 755.6094,1207.0469 Q755.875,1207.2969 755.875,1207.6406 Q755.875,1207.9844 755.5313,1208.3906 Q755.0313,1208.9688 754.2344,1209.2969 Q753.1563,1209.75 751.8594,1209.75 Q750.3438,1209.75 749.1406,1209.125 Q748.1563,1208.625 747.4688,1207.5625 Q746.7813,1206.4844 746.7813,1205.2031 L746.7813,1204.0469 Q746.7813,1202.7188 747.3906,1201.5781 Q748.0156,1200.4219 749.1094,1199.8125 Q750.2031,1199.1875 751.4375,1199.1875 Q752.1719,1199.1875 752.8125,1199.3594 Q753.4688,1199.5156 754.0156,1199.875 Z " fill="#000000"/><text fill="#000000" font-family="sans-serif" font-size="14" lengthAdjust="spacing" textLength="22" x="771.75" y="1209.7285">Job</text><line style="stroke:#181818;stroke-width:0.5;" x1="629" x2="904" y1="1220" y2="1220"/><rect fill="none" height="6" style="stroke:#C82930;stroke-width:1.0;" width="6" x="636" y="1231.3047"/><text fill="#000000" font-family="sans-serif" font-size="14" lengthAdjust="spacing" textLength="71" x="648" y="1238.5332">title : String</text><line style="stroke:#181818;stroke-width:0.5;" x1="629" x2="904" y1="1245.6094" y2="1245.6094"/><ellipse cx="639" cy="1259.9141" fill="#84BE84" rx="3" ry="3" style="stroke:#038048;stroke-width:1.0;"/><text fill="#000000" font-family="sans-serif" font-size="14" lengthAdjust="spacing" textLength="103" x="648" y="1264.1426">Job(title : String)</text><ellipse cx="639" cy="1277.5234" fill="#84BE84" rx="3" ry="3" style="stroke:#038048;stroke-width:1.0;"/><text fill="#000000" font-family="sans-serif" font-size="14" lengthAdjust="spacing" textLength="94" x="648" y="1281.752">setTitle() : void</text><ellipse cx="639" cy="1295.1328" fill="#84BE84" rx="3" ry="3" style="stroke:#038048;stroke-width:1.0;"/><text fill="#000000" font-family="sans-serif" font-size="14" lengthAdjust="spacing" textLength="106" x="648" y="1299.3613">getTitle() : String</text><ellipse cx="639" cy="1312.7422" fill="#84BE84" rx="3" ry="3" style="stroke:#038048;stroke-width:1.0;"/><text fill="#000000" font-family="sans-serif" font-size="14" lengthAdjust="spacing" textLength="169" x="648" y="1316.9707">verifyFilled(job : Job) : void</text><ellipse cx="639" cy="1330.3516" fill="#84BE84" rx="3" ry="3" style="stroke:#038048;stroke-width:1.0;"/><text fill="#000000" font-family="sans-serif" font-size="14" lengthAdjust="spacing" textLength="251" x="648" y="1334.5801">verifySpecialCharacters(job : Job) : void</text></g><!--link RegisterCollaboratorUI to RegisterCollaboratorController--><g id="link_RegisterCollaboratorUI_RegisterCollaboratorController"><path codeLine="106" d="M506.5,90.32 C506.5,106.64 506.5,126.14 506.5,145.46 " fill="none" id="RegisterCollaboratorUI-to-RegisterCollaboratorController" style="stroke:#181818;stroke-width:1.0;stroke-dasharray:7.0,7.0;"/><polygon fill="#181818" points="506.5,150.91,510.5,141.91,506.5,145.91,502.5,141.91,506.5,150.91" style="stroke:#181818;stroke-width:1.0;"/></g><!--link RegisterCollaboratorController to Repositories--><g id="link_RegisterCollaboratorController_Repositories"><path codeLine="107" d="M506.5,322.16 C506.5,345.63 506.5,371.18 506.5,394.92 " fill="none" id="RegisterCollaboratorController-to-Repositories" style="stroke:#181818;stroke-width:1.0;stroke-dasharray:7.0,7.0;"/><polygon fill="#181818" points="506.5,399.95,510.5,390.95,506.5,394.95,502.5,390.95,506.5,399.95" style="stroke:#181818;stroke-width:1.0;"/><text fill="#000000" font-family="sans-serif" font-size="13" lengthAdjust="spacing" textLength="67" x="507.5" y="366.4951">repositories</text></g><!--link Repositories to Repositories--><g id="link_Repositories_Repositories"><path codeLine="108" d="M686.87,465.66 C707.85,469.32 721.5,475.93 721.5,485.5 C721.5,494.24 710.1,500.52 692.11,504.33 " fill="none" id="Repositories-to-Repositories" style="stroke:#181818;stroke-width:1.0;"/><polygon fill="#181818" points="686.87,505.34,696.4625,507.5725,691.7804,504.3979,694.9551,499.7158,686.87,505.34" style="stroke:#181818;stroke-width:1.0;"/><text fill="#000000" font-family="sans-serif" font-size="13" lengthAdjust="spacing" textLength="49" x="727.5" y="490.9951">instance</text></g><!--link Repositories to JobRepository--><g id="link_Repositories_JobRepository"><path codeLine="109" d="M589.84,571.28 C627.39,609.48 670.92,653.77 705.38,688.82 " fill="none" id="Repositories-to-JobRepository" style="stroke:#181818;stroke-width:1.0;"/><polygon fill="#181818" points="709.11,692.62,705.6302,683.4064,705.596,689.0631,699.9392,689.0288,709.11,692.62" style="stroke:#181818;stroke-width:1.0;"/><text fill="#000000" font-family="sans-serif" font-size="13" lengthAdjust="spacing" textLength="79" x="637.5" y="615.4951">jobRepository</text></g><!--link Repositories to CollaboratorRepository--><g id="link_Repositories_CollaboratorRepository"><path codeLine="110" d="M418.03,571.28 C393.54,594.76 366.64,620.53 341.05,645.05 " fill="none" id="Repositories-to-CollaboratorRepository" style="stroke:#181818;stroke-width:1.0;"/><polygon fill="#181818" points="337.29,648.66,346.5521,645.3112,340.8964,645.1967,341.0109,639.541,337.29,648.66" style="stroke:#181818;stroke-width:1.0;"/><text fill="#000000" font-family="sans-serif" font-size="13" lengthAdjust="spacing" textLength="129" x="386.5" y="615.4951">collaboratorRepository</text><text fill="#000000" font-family="sans-serif" font-size="13" lengthAdjust="spacing" textLength="7" x="337.8754" y="637.9737">1</text></g><!--link CollaboratorRepository to Collaborator--><g id="link_CollaboratorRepository_Collaborator"><path codeLine="111" d="M230.5,855.18 C230.5,877.3 230.5,901.85 230.5,927.62 " fill="none" id="CollaboratorRepository-to-Collaborator" style="stroke:#181818;stroke-width:1.0;"/><polygon fill="#181818" points="230.5,932.79,234.5,923.79,230.5,927.79,226.5,923.79,230.5,932.79" style="stroke:#181818;stroke-width:1.0;"/><text fill="#000000" font-family="sans-serif" font-size="13" lengthAdjust="spacing" textLength="74" x="231.5" y="899.4951">collaborators</text><text fill="#000000" font-family="sans-serif" font-size="13" lengthAdjust="spacing" textLength="5" x="225.4414" y="922.3117">*</text></g><!--link RegisterCollaboratorController to CollaboratorRepository--><g id="link_RegisterCollaboratorController_CollaboratorRepository"><path codeLine="112" d="M335.25,322.08 C255.31,361.57 177.5,400 177.5,400 C177.5,400 177.5,571 177.5,571 C177.5,571 187.55,605.14 198.9,643.69 " fill="none" id="RegisterCollaboratorController-to-CollaboratorRepository" style="stroke:#181818;stroke-width:1.0;stroke-dasharray:7.0,7.0;"/><polygon fill="#181818" points="200.44,648.9,201.7253,639.1354,199.023,644.105,194.0533,641.4026,200.44,648.9" style="stroke:#181818;stroke-width:1.0;"/><text fill="#000000" font-family="sans-serif" font-size="13" lengthAdjust="spacing" textLength="129" x="178.5" y="490.9951">collaboratorRepository</text></g><!--link RegisterCollaboratorController to JobRepository--><g id="link_RegisterCollaboratorController_JobRepository"><path codeLine="113" d="M650.68,322.08 C717.99,361.57 783.5,400 783.5,400 C783.5,400 783.5,571 783.5,571 C783.5,571 777.41,635.49 772.52,687.27 " fill="none" id="RegisterCollaboratorController-to-JobRepository" style="stroke:#181818;stroke-width:1.0;stroke-dasharray:7.0,7.0;"/><polygon fill="#181818" points="772.02,692.56,776.8518,683.9778,772.492,687.5823,768.8875,683.2226,772.02,692.56" style="stroke:#181818;stroke-width:1.0;"/><text fill="#000000" font-family="sans-serif" font-size="13" lengthAdjust="spacing" textLength="79" x="784.5" y="490.9951">jobRepository</text></g><!--link JobRepository to Job--><g id="link_JobRepository_Job"><path codeLine="114" d="M766.5,811.12 C766.5,902.19 766.5,1078.78 766.5,1182.5 " fill="none" id="JobRepository-to-Job" style="stroke:#181818;stroke-width:1.0;"/><polygon fill="#181818" points="766.5,1187.69,770.5,1178.69,766.5,1182.69,762.5,1178.69,766.5,1187.69" style="stroke:#181818;stroke-width:1.0;"/><text fill="#000000" font-family="sans-serif" font-size="13" lengthAdjust="spacing" textLength="24" x="767.5" y="899.4951">jobs</text><text fill="#000000" font-family="sans-serif" font-size="13" lengthAdjust="spacing" textLength="5" x="761.2617" y="1177.0871">*</text></g><!--link Collaborator to Address--><g id="link_Collaborator_Address"><path codeLine="115" d="M230.5,1597.2 C230.5,1622.85 230.5,1647.37 230.5,1669.61 " fill="none" id="Collaborator-to-Address" style="stroke:#181818;stroke-width:1.0;"/><polygon fill="#181818" points="230.5,1674.62,234.5,1665.62,230.5,1669.62,226.5,1665.62,230.5,1674.62" style="stroke:#181818;stroke-width:1.0;"/><text fill="#000000" font-family="sans-serif" font-size="13" lengthAdjust="spacing" textLength="21" x="231.5" y="1641.4951">has</text><text fill="#000000" font-family="sans-serif" font-size="13" lengthAdjust="spacing" textLength="7" x="223.2539" y="1664.279">1</text></g><!--SRC=[vLVVJzim47xFNs7nGhfIfBsY2GdI8O4O3y1U9bxSn4qzqZYo3LitxN_VENRIS-osOTAaIUEbnFVvVFVTT_wXdddTK4dNfA7vCotPWzvKZ4YMQrgN5KjK3r0hMeXll2x9abOAMofUCxrf66b4jJ4VIN9SiQKcMX39ovKc1JSUkQYJ9A-eKkIUbLnf9ZDHLNGX9DL2VhucFvEfZ5ZI2JaZhu8NoGnML6nEDOCHyvFyskSo4xMMyCqak2RmD_ig5lUi4Og3TGC-Rl2tXUJ8WOVDeePsqdJ_wkd4eaWk6GITtLwcDLsR71wq14fFo89BlIgsUPsG76RJN7yI2ruXv5FDrfHNQ2ej2ic0WEt83zvaei3kSwuts4SXyfSrg_KZbEs4y0B-vKkUKrEZkvVrWadZTysLWe4v3Yk6HGi1lvPLc_7nb9HCUoItnGnfjyWunUsKVUoxHLGBl8L2V82lSwmDX-TCTKeWl5OWyjoaXktEYeTS-VwQU4purowQDeKWdkb85gT_n67FKzpUCOPpCoHtNEDPvpQCNJ5uRV0FzG227H3uKntl2qs_DtJ3P3-1rpfe1yXynVBdAo7dBqrbbc1gkxbP1AJYxNsOzG5qK6nJZ6q7-5NfI-nfnbLsQki1fbHpZPXs8dEWGw53vCO5vEoFM-twqVdzYMFj-zDJXniRIiGDntNYZBvMt62iYCxKrynznohh2k0LwZzKyokJVBcvud365O5G5q9KZDOUz0vk1tDUSgr6mJyQOaOXlrY2Hc4lJML68QyZx8sQU85PtJjZHgALwyweVUMpAogcBwnUqg5k_3PiWJYiMEc3APUTZDEXe0De1f9CFLs64Dm2wRhh151N09qZMj8eHy4KAnU_cm9GjAPxUGvSk5tEzSBGUWVxWByP1917hxtIMBS5Spg5mrQGuwqWs6i7pYTunofTU9E1Y4fSw4bmjtO2wxRceSxSzG1NtWuDOmqK6zVGpjo3NB6VGJwzfy4uzkLC-73iZn__97JT7JaYdSLKrHZIy8pUZcDVtjwvGqqMyz2mdDCgMy5hAuStXeh08OKasV6gEZqzF_0wIWuydgm7T8S-WoSYkg9wjjai07TNxH1uCxXIUrVi47xq_YZRTSEENxsJ7VZMsxiZ_-hXEr5ZQ7bhE2DSxkV4jtPftBIA0AJo4kv8wpluZAoeIdu3]--></g></svg>