<?xml version="1.0" encoding="UTF-8" standalone="no"?><svg xmlns="http://www.w3.org/2000/svg" xmlns:xlink="http://www.w3.org/1999/xlink" contentStyleType="text/css" height="1147px" preserveAspectRatio="none" style="width:1035px;height:1147px;background:#FFFFFF;" version="1.1" viewBox="0 0 1035 1147" width="1035px" zoomAndPan="magnify"><defs/><g><!--class RegisterCollaboratorUI--><g id="elem_RegisterCollaboratorUI"><rect codeLine="7" fill="#F1F1F1" height="48" id="RegisterCollaboratorUI" rx="2.5" ry="2.5" style="stroke:#181818;stroke-width:0.5;" width="175" x="506" y="7"/><ellipse cx="521" cy="23" fill="#ADD1B2" rx="11" ry="11" style="stroke:#181818;stroke-width:1.0;"/><path d="M523.7656,18.875 Q523.9219,18.6563 524.1094,18.5469 Q524.2969,18.4375 524.5156,18.4375 Q524.8906,18.4375 525.125,18.7031 Q525.3594,18.9531 525.3594,19.5625 L525.3594,21.0156 Q525.3594,21.625 525.125,21.8906 Q524.8906,22.1563 524.5156,22.1563 Q524.1719,22.1563 523.9688,21.9531 Q523.7656,21.7656 523.6563,21.25 Q523.6094,20.8906 523.4219,20.7031 Q523.0938,20.3281 522.4844,20.1094 Q521.875,19.8906 521.25,19.8906 Q520.4844,19.8906 519.8438,20.2188 Q519.2188,20.5469 518.7188,21.2969 Q518.2344,22.0469 518.2344,23.0781 L518.2344,24.1719 Q518.2344,25.4063 519.125,26.2344 Q520.0156,27.0469 521.6094,27.0469 Q522.5469,27.0469 523.2031,26.7969 Q523.5938,26.6406 524.0156,26.2031 Q524.2813,25.9375 524.4219,25.8594 Q524.5781,25.7813 524.7813,25.7813 Q525.1094,25.7813 525.3594,26.0469 Q525.625,26.2969 525.625,26.6406 Q525.625,26.9844 525.2813,27.3906 Q524.7813,27.9688 523.9844,28.2969 Q522.9063,28.75 521.6094,28.75 Q520.0938,28.75 518.8906,28.125 Q517.9063,27.625 517.2188,26.5625 Q516.5313,25.4844 516.5313,24.2031 L516.5313,23.0469 Q516.5313,21.7188 517.1406,20.5781 Q517.7656,19.4219 518.8594,18.8125 Q519.9531,18.1875 521.1875,18.1875 Q521.9219,18.1875 522.5625,18.3594 Q523.2188,18.5156 523.7656,18.875 Z " fill="#000000"/><text fill="#000000" font-family="sans-serif" font-size="14" lengthAdjust="spacing" textLength="143" x="535" y="28.7285">RegisterCollaboratorUI</text><line style="stroke:#181818;stroke-width:0.5;" x1="507" x2="680" y1="39" y2="39"/><line style="stroke:#181818;stroke-width:0.5;" x1="507" x2="680" y1="47" y2="47"/></g><!--class RegisterCollaboratorController--><g id="elem_RegisterCollaboratorController"><rect codeLine="10" fill="#F1F1F1" height="153.6563" id="RegisterCollaboratorController" rx="2.5" ry="2.5" style="stroke:#181818;stroke-width:0.5;" width="650" x="268.5" y="116"/><ellipse cx="492.75" cy="132" fill="#ADD1B2" rx="11" ry="11" style="stroke:#181818;stroke-width:1.0;"/><path d="M495.5156,127.875 Q495.6719,127.6563 495.8594,127.5469 Q496.0469,127.4375 496.2656,127.4375 Q496.6406,127.4375 496.875,127.7031 Q497.1094,127.9531 497.1094,128.5625 L497.1094,130.0156 Q497.1094,130.625 496.875,130.8906 Q496.6406,131.1563 496.2656,131.1563 Q495.9219,131.1563 495.7188,130.9531 Q495.5156,130.7656 495.4063,130.25 Q495.3594,129.8906 495.1719,129.7031 Q494.8438,129.3281 494.2344,129.1094 Q493.625,128.8906 493,128.8906 Q492.2344,128.8906 491.5938,129.2188 Q490.9688,129.5469 490.4688,130.2969 Q489.9844,131.0469 489.9844,132.0781 L489.9844,133.1719 Q489.9844,134.4063 490.875,135.2344 Q491.7656,136.0469 493.3594,136.0469 Q494.2969,136.0469 494.9531,135.7969 Q495.3438,135.6406 495.7656,135.2031 Q496.0313,134.9375 496.1719,134.8594 Q496.3281,134.7813 496.5313,134.7813 Q496.8594,134.7813 497.1094,135.0469 Q497.375,135.2969 497.375,135.6406 Q497.375,135.9844 497.0313,136.3906 Q496.5313,136.9688 495.7344,137.2969 Q494.6563,137.75 493.3594,137.75 Q491.8438,137.75 490.6406,137.125 Q489.6563,136.625 488.9688,135.5625 Q488.2813,134.4844 488.2813,133.2031 L488.2813,132.0469 Q488.2813,130.7188 488.8906,129.5781 Q489.5156,128.4219 490.6094,127.8125 Q491.7031,127.1875 492.9375,127.1875 Q493.6719,127.1875 494.3125,127.3594 Q494.9688,127.5156 495.5156,127.875 Z " fill="#000000"/><text fill="#000000" font-family="sans-serif" font-size="14" lengthAdjust="spacing" textLength="193" x="513.25" y="137.7285">RegisterCollaboratorController</text><line style="stroke:#181818;stroke-width:0.5;" x1="269.5" x2="917.5" y1="148" y2="148"/><line style="stroke:#181818;stroke-width:0.5;" x1="269.5" x2="917.5" y1="156" y2="156"/><ellipse cx="279.5" cy="187.9141" fill="#84BE84" rx="3" ry="3" style="stroke:#038048;stroke-width:1.0;"/><text fill="#000000" font-family="sans-serif" font-size="14" lengthAdjust="spacing" textLength="410" x="288.5" y="174.5332">createCLB(name : String, birthdate : Date, contactMobile : String,</text><text fill="#000000" font-family="sans-serif" font-size="14" lengthAdjust="spacing" textLength="380" x="288.5" y="192.1426">email : String, address : String, zipCode : String, city : String,</text><text fill="#000000" font-family="sans-serif" font-size="14" lengthAdjust="spacing" textLength="624" x="288.5" y="209.752">documentType, identificationNumber, admissionDate : Date, identificationNumber : String, job : Job)</text><ellipse cx="279.5" cy="223.1328" fill="#84BE84" rx="3" ry="3" style="stroke:#038048;stroke-width:1.0;"/><text fill="#000000" font-family="sans-serif" font-size="14" lengthAdjust="spacing" textLength="126" x="288.5" y="227.3613">assignJob(job : Job)</text><ellipse cx="279.5" cy="240.7422" fill="#84BE84" rx="3" ry="3" style="stroke:#038048;stroke-width:1.0;"/><text fill="#000000" font-family="sans-serif" font-size="14" lengthAdjust="spacing" textLength="185" x="288.5" y="244.9707">getInstance() : JobRepository</text><ellipse cx="279.5" cy="258.3516" fill="#84BE84" rx="3" ry="3" style="stroke:#038048;stroke-width:1.0;"/><text fill="#000000" font-family="sans-serif" font-size="14" lengthAdjust="spacing" textLength="241" x="288.5" y="262.5801">getInstance() : CollaboratorRepository</text></g><!--class Repositories--><g id="elem_Repositories"><rect codeLine="18" fill="#F1F1F1" height="83.2188" id="Repositories" rx="2.5" ry="2.5" style="stroke:#181818;stroke-width:0.5;" width="360" x="413.5" y="348"/><ellipse cx="549.75" cy="364" fill="#ADD1B2" rx="11" ry="11" style="stroke:#181818;stroke-width:1.0;"/><path d="M552.5156,359.875 Q552.6719,359.6563 552.8594,359.5469 Q553.0469,359.4375 553.2656,359.4375 Q553.6406,359.4375 553.875,359.7031 Q554.1094,359.9531 554.1094,360.5625 L554.1094,362.0156 Q554.1094,362.625 553.875,362.8906 Q553.6406,363.1563 553.2656,363.1563 Q552.9219,363.1563 552.7188,362.9531 Q552.5156,362.7656 552.4063,362.25 Q552.3594,361.8906 552.1719,361.7031 Q551.8438,361.3281 551.2344,361.1094 Q550.625,360.8906 550,360.8906 Q549.2344,360.8906 548.5938,361.2188 Q547.9688,361.5469 547.4688,362.2969 Q546.9844,363.0469 546.9844,364.0781 L546.9844,365.1719 Q546.9844,366.4063 547.875,367.2344 Q548.7656,368.0469 550.3594,368.0469 Q551.2969,368.0469 551.9531,367.7969 Q552.3438,367.6406 552.7656,367.2031 Q553.0313,366.9375 553.1719,366.8594 Q553.3281,366.7813 553.5313,366.7813 Q553.8594,366.7813 554.1094,367.0469 Q554.375,367.2969 554.375,367.6406 Q554.375,367.9844 554.0313,368.3906 Q553.5313,368.9688 552.7344,369.2969 Q551.6563,369.75 550.3594,369.75 Q548.8438,369.75 547.6406,369.125 Q546.6563,368.625 545.9688,367.5625 Q545.2813,366.4844 545.2813,365.2031 L545.2813,364.0469 Q545.2813,362.7188 545.8906,361.5781 Q546.5156,360.4219 547.6094,359.8125 Q548.7031,359.1875 549.9375,359.1875 Q550.6719,359.1875 551.3125,359.3594 Q551.9688,359.5156 552.5156,359.875 Z " fill="#000000"/><text fill="#000000" font-family="sans-serif" font-size="14" lengthAdjust="spacing" textLength="79" x="570.25" y="369.7285">Repositories</text><line style="stroke:#181818;stroke-width:0.5;" x1="414.5" x2="772.5" y1="380" y2="380"/><line style="stroke:#181818;stroke-width:0.5;" x1="414.5" x2="772.5" y1="388" y2="388"/><ellipse cx="424.5" cy="402.3047" fill="#84BE84" rx="3" ry="3" style="stroke:#038048;stroke-width:1.0;"/><text fill="#000000" font-family="sans-serif" font-size="14" lengthAdjust="spacing" textLength="222" x="433.5" y="406.5332">getJobRepository() : JobRepository</text><ellipse cx="424.5" cy="419.9141" fill="#84BE84" rx="3" ry="3" style="stroke:#038048;stroke-width:1.0;"/><text fill="#000000" font-family="sans-serif" font-size="14" lengthAdjust="spacing" textLength="334" x="433.5" y="424.1426">getCollaboratorRepository() : CollaboratorRepository</text></g><!--class CollaboratorRepository--><g id="elem_CollaboratorRepository"><rect codeLine="23" fill="#F1F1F1" height="136.0469" id="CollaboratorRepository" rx="2.5" ry="2.5" style="stroke:#181818;stroke-width:0.5;" width="701" x="7" y="509"/><ellipse cx="280.25" cy="525" fill="#ADD1B2" rx="11" ry="11" style="stroke:#181818;stroke-width:1.0;"/><path d="M283.0156,520.875 Q283.1719,520.6563 283.3594,520.5469 Q283.5469,520.4375 283.7656,520.4375 Q284.1406,520.4375 284.375,520.7031 Q284.6094,520.9531 284.6094,521.5625 L284.6094,523.0156 Q284.6094,523.625 284.375,523.8906 Q284.1406,524.1563 283.7656,524.1563 Q283.4219,524.1563 283.2188,523.9531 Q283.0156,523.7656 282.9063,523.25 Q282.8594,522.8906 282.6719,522.7031 Q282.3438,522.3281 281.7344,522.1094 Q281.125,521.8906 280.5,521.8906 Q279.7344,521.8906 279.0938,522.2188 Q278.4688,522.5469 277.9688,523.2969 Q277.4844,524.0469 277.4844,525.0781 L277.4844,526.1719 Q277.4844,527.4063 278.375,528.2344 Q279.2656,529.0469 280.8594,529.0469 Q281.7969,529.0469 282.4531,528.7969 Q282.8438,528.6406 283.2656,528.2031 Q283.5313,527.9375 283.6719,527.8594 Q283.8281,527.7813 284.0313,527.7813 Q284.3594,527.7813 284.6094,528.0469 Q284.875,528.2969 284.875,528.6406 Q284.875,528.9844 284.5313,529.3906 Q284.0313,529.9688 283.2344,530.2969 Q282.1563,530.75 280.8594,530.75 Q279.3438,530.75 278.1406,530.125 Q277.1563,529.625 276.4688,528.5625 Q275.7813,527.4844 275.7813,526.2031 L275.7813,525.0469 Q275.7813,523.7188 276.3906,522.5781 Q277.0156,521.4219 278.1094,520.8125 Q279.2031,520.1875 280.4375,520.1875 Q281.1719,520.1875 281.8125,520.3594 Q282.4688,520.5156 283.0156,520.875 Z " fill="#000000"/><text fill="#000000" font-family="sans-serif" font-size="14" lengthAdjust="spacing" textLength="146" x="300.75" y="530.7285">CollaboratorRepository</text><line style="stroke:#181818;stroke-width:0.5;" x1="8" x2="707" y1="541" y2="541"/><line style="stroke:#181818;stroke-width:0.5;" x1="8" x2="707" y1="549" y2="549"/><ellipse cx="18" cy="580.9141" fill="#84BE84" rx="3" ry="3" style="stroke:#038048;stroke-width:1.0;"/><text fill="#000000" font-family="sans-serif" font-size="14" lengthAdjust="spacing" textLength="383" x="27" y="567.5332">create(name : String, birthdate : Date, contactMobile : String,</text><text fill="#000000" font-family="sans-serif" font-size="14" lengthAdjust="spacing" textLength="380" x="27" y="585.1426">email : String, address : String, zipCode : String, city : String,</text><text fill="#000000" font-family="sans-serif" font-size="14" lengthAdjust="spacing" textLength="675" x="27" y="602.752">documentType : String, identificationNumber : String, admissionDate : Date, taxpayerNumber : int, job : Job)</text><ellipse cx="18" cy="616.1328" fill="#84BE84" rx="3" ry="3" style="stroke:#038048;stroke-width:1.0;"/><text fill="#000000" font-family="sans-serif" font-size="14" lengthAdjust="spacing" textLength="135" x="27" y="620.3613">checkForDuplicates()</text><ellipse cx="18" cy="633.7422" fill="#84BE84" rx="3" ry="3" style="stroke:#038048;stroke-width:1.0;"/><text fill="#000000" font-family="sans-serif" font-size="14" lengthAdjust="spacing" textLength="187" x="27" y="637.9707">addCollaborator(collaborator)</text></g><!--class JobRepository--><g id="elem_JobRepository"><rect codeLine="30" fill="#F1F1F1" height="83.2188" id="JobRepository" rx="2.5" ry="2.5" style="stroke:#181818;stroke-width:0.5;" width="203" x="788" y="535.5"/><ellipse cx="840.25" cy="551.5" fill="#ADD1B2" rx="11" ry="11" style="stroke:#181818;stroke-width:1.0;"/><path d="M843.0156,547.375 Q843.1719,547.1563 843.3594,547.0469 Q843.5469,546.9375 843.7656,546.9375 Q844.1406,546.9375 844.375,547.2031 Q844.6094,547.4531 844.6094,548.0625 L844.6094,549.5156 Q844.6094,550.125 844.375,550.3906 Q844.1406,550.6563 843.7656,550.6563 Q843.4219,550.6563 843.2188,550.4531 Q843.0156,550.2656 842.9063,549.75 Q842.8594,549.3906 842.6719,549.2031 Q842.3438,548.8281 841.7344,548.6094 Q841.125,548.3906 840.5,548.3906 Q839.7344,548.3906 839.0938,548.7188 Q838.4688,549.0469 837.9688,549.7969 Q837.4844,550.5469 837.4844,551.5781 L837.4844,552.6719 Q837.4844,553.9063 838.375,554.7344 Q839.2656,555.5469 840.8594,555.5469 Q841.7969,555.5469 842.4531,555.2969 Q842.8438,555.1406 843.2656,554.7031 Q843.5313,554.4375 843.6719,554.3594 Q843.8281,554.2813 844.0313,554.2813 Q844.3594,554.2813 844.6094,554.5469 Q844.875,554.7969 844.875,555.1406 Q844.875,555.4844 844.5313,555.8906 Q844.0313,556.4688 843.2344,556.7969 Q842.1563,557.25 840.8594,557.25 Q839.3438,557.25 838.1406,556.625 Q837.1563,556.125 836.4688,555.0625 Q835.7813,553.9844 835.7813,552.7031 L835.7813,551.5469 Q835.7813,550.2188 836.3906,549.0781 Q837.0156,547.9219 838.1094,547.3125 Q839.2031,546.6875 840.4375,546.6875 Q841.1719,546.6875 841.8125,546.8594 Q842.4688,547.0156 843.0156,547.375 Z " fill="#000000"/><text fill="#000000" font-family="sans-serif" font-size="14" lengthAdjust="spacing" textLength="90" x="860.75" y="557.2285">JobRepository</text><line style="stroke:#181818;stroke-width:0.5;" x1="789" x2="990" y1="567.5" y2="567.5"/><line style="stroke:#181818;stroke-width:0.5;" x1="789" x2="990" y1="575.5" y2="575.5"/><ellipse cx="799" cy="589.8047" fill="#84BE84" rx="3" ry="3" style="stroke:#038048;stroke-width:1.0;"/><text fill="#000000" font-family="sans-serif" font-size="14" lengthAdjust="spacing" textLength="177" x="808" y="594.0332">createJob(title : String) : Job</text><ellipse cx="799" cy="607.4141" fill="#84BE84" rx="3" ry="3" style="stroke:#038048;stroke-width:1.0;"/><text fill="#000000" font-family="sans-serif" font-size="14" lengthAdjust="spacing" textLength="173" x="808" y="611.6426">checkForDuplicates() : void</text></g><!--class Collaborator--><g id="elem_Collaborator"><rect codeLine="35" fill="#F1F1F1" height="417.7969" id="Collaborator" rx="2.5" ry="2.5" style="stroke:#181818;stroke-width:0.5;" width="650" x="32.5" y="723"/><ellipse cx="314.25" cy="739" fill="#ADD1B2" rx="11" ry="11" style="stroke:#181818;stroke-width:1.0;"/><path d="M317.0156,734.875 Q317.1719,734.6563 317.3594,734.5469 Q317.5469,734.4375 317.7656,734.4375 Q318.1406,734.4375 318.375,734.7031 Q318.6094,734.9531 318.6094,735.5625 L318.6094,737.0156 Q318.6094,737.625 318.375,737.8906 Q318.1406,738.1563 317.7656,738.1563 Q317.4219,738.1563 317.2188,737.9531 Q317.0156,737.7656 316.9063,737.25 Q316.8594,736.8906 316.6719,736.7031 Q316.3438,736.3281 315.7344,736.1094 Q315.125,735.8906 314.5,735.8906 Q313.7344,735.8906 313.0938,736.2188 Q312.4688,736.5469 311.9688,737.2969 Q311.4844,738.0469 311.4844,739.0781 L311.4844,740.1719 Q311.4844,741.4063 312.375,742.2344 Q313.2656,743.0469 314.8594,743.0469 Q315.7969,743.0469 316.4531,742.7969 Q316.8438,742.6406 317.2656,742.2031 Q317.5313,741.9375 317.6719,741.8594 Q317.8281,741.7813 318.0313,741.7813 Q318.3594,741.7813 318.6094,742.0469 Q318.875,742.2969 318.875,742.6406 Q318.875,742.9844 318.5313,743.3906 Q318.0313,743.9688 317.2344,744.2969 Q316.1563,744.75 314.8594,744.75 Q313.3438,744.75 312.1406,744.125 Q311.1563,743.625 310.4688,742.5625 Q309.7813,741.4844 309.7813,740.2031 L309.7813,739.0469 Q309.7813,737.7188 310.3906,736.5781 Q311.0156,735.4219 312.1094,734.8125 Q313.2031,734.1875 314.4375,734.1875 Q315.1719,734.1875 315.8125,734.3594 Q316.4688,734.5156 317.0156,734.875 Z " fill="#000000"/><text fill="#000000" font-family="sans-serif" font-size="14" lengthAdjust="spacing" textLength="78" x="334.75" y="744.7285">Collaborator</text><line style="stroke:#181818;stroke-width:0.5;" x1="33.5" x2="681.5" y1="755" y2="755"/><rect fill="none" height="6" style="stroke:#C82930;stroke-width:1.0;" width="6" x="40.5" y="766.3047"/><text fill="#000000" font-family="sans-serif" font-size="14" lengthAdjust="spacing" textLength="84" x="52.5" y="773.5332">name : String</text><rect fill="none" height="6" style="stroke:#C82930;stroke-width:1.0;" width="6" x="40.5" y="783.9141"/><text fill="#000000" font-family="sans-serif" font-size="14" lengthAdjust="spacing" textLength="98" x="52.5" y="791.1426">birthdate : Date</text><rect fill="none" height="6" style="stroke:#C82930;stroke-width:1.0;" width="6" x="40.5" y="801.5234"/><text fill="#000000" font-family="sans-serif" font-size="14" lengthAdjust="spacing" textLength="136" x="52.5" y="808.752">contactMobile : String</text><rect fill="none" height="6" style="stroke:#C82930;stroke-width:1.0;" width="6" x="40.5" y="819.1328"/><text fill="#000000" font-family="sans-serif" font-size="14" lengthAdjust="spacing" textLength="82" x="52.5" y="826.3613">email : String</text><rect fill="none" height="6" style="stroke:#C82930;stroke-width:1.0;" width="6" x="40.5" y="836.7422"/><text fill="#000000" font-family="sans-serif" font-size="14" lengthAdjust="spacing" textLength="100" x="52.5" y="843.9707">address : String</text><rect fill="none" height="6" style="stroke:#C82930;stroke-width:1.0;" width="6" x="40.5" y="854.3516"/><text fill="#000000" font-family="sans-serif" font-size="14" lengthAdjust="spacing" textLength="100" x="52.5" y="861.5801">zipCode : String</text><rect fill="none" height="6" style="stroke:#C82930;stroke-width:1.0;" width="6" x="40.5" y="871.9609"/><text fill="#000000" font-family="sans-serif" font-size="14" lengthAdjust="spacing" textLength="70" x="52.5" y="879.1895">city : String</text><rect fill="none" height="6" style="stroke:#C82930;stroke-width:1.0;" width="6" x="40.5" y="889.5703"/><text fill="#000000" font-family="sans-serif" font-size="14" lengthAdjust="spacing" textLength="135" x="52.5" y="896.7988">admissionDate : Date</text><rect fill="none" height="6" style="stroke:#C82930;stroke-width:1.0;" width="6" x="40.5" y="907.1797"/><text fill="#000000" font-family="sans-serif" font-size="14" lengthAdjust="spacing" textLength="53" x="52.5" y="914.4082">job : Job</text><rect fill="none" height="6" style="stroke:#C82930;stroke-width:1.0;" width="6" x="40.5" y="924.7891"/><text fill="#000000" font-family="sans-serif" font-size="14" lengthAdjust="spacing" textLength="130" x="52.5" y="932.0176">taxpayerNumber : int</text><rect fill="none" height="6" style="stroke:#C82930;stroke-width:1.0;" width="6" x="40.5" y="942.3984"/><text fill="#000000" font-family="sans-serif" font-size="14" lengthAdjust="spacing" textLength="143" x="52.5" y="949.627">documentType : String</text><rect fill="none" height="6" style="stroke:#C82930;stroke-width:1.0;" width="6" x="40.5" y="960.0078"/><text fill="#000000" font-family="sans-serif" font-size="14" lengthAdjust="spacing" textLength="177" x="52.5" y="967.2363">identificationNumber : String</text><line style="stroke:#181818;stroke-width:0.5;" x1="33.5" x2="681.5" y1="974.3125" y2="974.3125"/><ellipse cx="43.5" cy="1006.2266" fill="#84BE84" rx="3" ry="3" style="stroke:#038048;stroke-width:1.0;"/><text fill="#000000" font-family="sans-serif" font-size="14" lengthAdjust="spacing" textLength="421" x="52.5" y="992.8457">Collaborator(name : String, birthdate : Date, contactMobile : String,</text><text fill="#000000" font-family="sans-serif" font-size="14" lengthAdjust="spacing" textLength="380" x="52.5" y="1010.4551">email : String, address : String, zipCode : String, city : String,</text><text fill="#000000" font-family="sans-serif" font-size="14" lengthAdjust="spacing" textLength="624" x="52.5" y="1028.0645">documentType, identificationNumber, admissionDate : Date, identificationNumber : String, job : Job)</text><ellipse cx="43.5" cy="1041.4453" fill="#84BE84" rx="3" ry="3" style="stroke:#038048;stroke-width:1.0;"/><text fill="#000000" font-family="sans-serif" font-size="14" lengthAdjust="spacing" textLength="153" x="52.5" y="1045.6738">verifyFilled(collaborator)</text><ellipse cx="43.5" cy="1059.0547" fill="#84BE84" rx="3" ry="3" style="stroke:#038048;stroke-width:1.0;"/><text fill="#000000" font-family="sans-serif" font-size="14" lengthAdjust="spacing" textLength="160" x="52.5" y="1063.2832">verifyMobile(collaborator)</text><ellipse cx="43.5" cy="1076.6641" fill="#84BE84" rx="3" ry="3" style="stroke:#038048;stroke-width:1.0;"/><text fill="#000000" font-family="sans-serif" font-size="14" lengthAdjust="spacing" textLength="153" x="52.5" y="1080.8926">verifyEmail(collaborator)</text><ellipse cx="43.5" cy="1094.2734" fill="#84BE84" rx="3" ry="3" style="stroke:#038048;stroke-width:1.0;"/><text fill="#000000" font-family="sans-serif" font-size="14" lengthAdjust="spacing" textLength="172" x="52.5" y="1098.502">verifyZipCode(collaborator)</text><ellipse cx="43.5" cy="1111.8828" fill="#84BE84" rx="3" ry="3" style="stroke:#038048;stroke-width:1.0;"/><text fill="#000000" font-family="sans-serif" font-size="14" lengthAdjust="spacing" textLength="148" x="52.5" y="1116.1113">verifyBirth(collaborator)</text><ellipse cx="43.5" cy="1129.4922" fill="#84BE84" rx="3" ry="3" style="stroke:#038048;stroke-width:1.0;"/><text fill="#000000" font-family="sans-serif" font-size="14" lengthAdjust="spacing" textLength="217" x="52.5" y="1133.7207">verifyDocumentCode(collaborator)</text></g><!--class Job--><g id="elem_Job"><rect codeLine="57" fill="#F1F1F1" height="118.4375" id="Job" rx="2.5" ry="2.5" style="stroke:#181818;stroke-width:0.5;" width="277" x="751" y="873"/><ellipse cx="874.25" cy="889" fill="#ADD1B2" rx="11" ry="11" style="stroke:#181818;stroke-width:1.0;"/><path d="M877.0156,884.875 Q877.1719,884.6563 877.3594,884.5469 Q877.5469,884.4375 877.7656,884.4375 Q878.1406,884.4375 878.375,884.7031 Q878.6094,884.9531 878.6094,885.5625 L878.6094,887.0156 Q878.6094,887.625 878.375,887.8906 Q878.1406,888.1563 877.7656,888.1563 Q877.4219,888.1563 877.2188,887.9531 Q877.0156,887.7656 876.9063,887.25 Q876.8594,886.8906 876.6719,886.7031 Q876.3438,886.3281 875.7344,886.1094 Q875.125,885.8906 874.5,885.8906 Q873.7344,885.8906 873.0938,886.2188 Q872.4688,886.5469 871.9688,887.2969 Q871.4844,888.0469 871.4844,889.0781 L871.4844,890.1719 Q871.4844,891.4063 872.375,892.2344 Q873.2656,893.0469 874.8594,893.0469 Q875.7969,893.0469 876.4531,892.7969 Q876.8438,892.6406 877.2656,892.2031 Q877.5313,891.9375 877.6719,891.8594 Q877.8281,891.7813 878.0313,891.7813 Q878.3594,891.7813 878.6094,892.0469 Q878.875,892.2969 878.875,892.6406 Q878.875,892.9844 878.5313,893.3906 Q878.0313,893.9688 877.2344,894.2969 Q876.1563,894.75 874.8594,894.75 Q873.3438,894.75 872.1406,894.125 Q871.1563,893.625 870.4688,892.5625 Q869.7813,891.4844 869.7813,890.2031 L869.7813,889.0469 Q869.7813,887.7188 870.3906,886.5781 Q871.0156,885.4219 872.1094,884.8125 Q873.2031,884.1875 874.4375,884.1875 Q875.1719,884.1875 875.8125,884.3594 Q876.4688,884.5156 877.0156,884.875 Z " fill="#000000"/><text fill="#000000" font-family="sans-serif" font-size="14" lengthAdjust="spacing" textLength="22" x="894.75" y="894.7285">Job</text><line style="stroke:#181818;stroke-width:0.5;" x1="752" x2="1027" y1="905" y2="905"/><rect fill="none" height="6" style="stroke:#C82930;stroke-width:1.0;" width="6" x="759" y="916.3047"/><text fill="#000000" font-family="sans-serif" font-size="14" lengthAdjust="spacing" textLength="71" x="771" y="923.5332">title : String</text><line style="stroke:#181818;stroke-width:0.5;" x1="752" x2="1027" y1="930.6094" y2="930.6094"/><ellipse cx="762" cy="944.9141" fill="#84BE84" rx="3" ry="3" style="stroke:#038048;stroke-width:1.0;"/><text fill="#000000" font-family="sans-serif" font-size="14" lengthAdjust="spacing" textLength="103" x="771" y="949.1426">Job(title : String)</text><ellipse cx="762" cy="962.5234" fill="#84BE84" rx="3" ry="3" style="stroke:#038048;stroke-width:1.0;"/><text fill="#000000" font-family="sans-serif" font-size="14" lengthAdjust="spacing" textLength="169" x="771" y="966.752">verifyFilled(job : Job) : void</text><ellipse cx="762" cy="980.1328" fill="#84BE84" rx="3" ry="3" style="stroke:#038048;stroke-width:1.0;"/><text fill="#000000" font-family="sans-serif" font-size="14" lengthAdjust="spacing" textLength="251" x="771" y="984.3613">verifySpecialCharacters(job : Job) : void</text></g><!--link RegisterCollaboratorUI to RegisterCollaboratorController--><g id="link_RegisterCollaboratorUI_RegisterCollaboratorController"><path codeLine="66" d="M593.5,55.27 C593.5,70.13 593.5,90.37 593.5,110.72 " fill="none" id="RegisterCollaboratorUI-to-RegisterCollaboratorController" style="stroke:#181818;stroke-width:1.0;stroke-dasharray:7.0,7.0;"/><polygon fill="#181818" points="593.5,115.9,597.5,106.9,593.5,110.9,589.5,106.9,593.5,115.9" style="stroke:#181818;stroke-width:1.0;"/></g><!--link RegisterCollaboratorController to Repositories--><g id="link_RegisterCollaboratorController_Repositories"><path codeLine="67" d="M593.5,270.03 C593.5,294.6 593.5,321.05 593.5,342.72 " fill="none" id="RegisterCollaboratorController-to-Repositories" style="stroke:#181818;stroke-width:1.0;stroke-dasharray:7.0,7.0;"/><polygon fill="#181818" points="593.5,347.84,597.5,338.84,593.5,342.84,589.5,338.84,593.5,347.84" style="stroke:#181818;stroke-width:1.0;"/><text fill="#000000" font-family="sans-serif" font-size="13" lengthAdjust="spacing" textLength="67" x="594.5" y="314.4951">repositories</text></g><!--link Repositories to Repositories--><g id="link_Repositories_Repositories"><path codeLine="68" d="M773.87,376.7 C794.85,379.06 808.5,383.33 808.5,389.5 C808.5,395.14 797.1,399.19 779.11,401.65 " fill="none" id="Repositories-to-Repositories" style="stroke:#181818;stroke-width:1.0;"/><polygon fill="#181818" points="773.87,402.3,783.2936,405.1628,778.832,401.6851,782.3098,397.2236,773.87,402.3" style="stroke:#181818;stroke-width:1.0;"/><text fill="#000000" font-family="sans-serif" font-size="13" lengthAdjust="spacing" textLength="49" x="814.5" y="394.9951">instance</text></g><!--link Repositories to JobRepository--><g id="link_Repositories_JobRepository"><path codeLine="69" d="M658.46,431.21 C706.36,461.23 771.43,502.01 820.31,532.64 " fill="none" id="Repositories-to-JobRepository" style="stroke:#181818;stroke-width:1.0;"/><polygon fill="#181818" points="824.69,535.39,819.1978,527.2147,820.4564,532.7297,814.9414,533.9884,824.69,535.39" style="stroke:#181818;stroke-width:1.0;"/><text fill="#000000" font-family="sans-serif" font-size="13" lengthAdjust="spacing" textLength="79" x="734.5" y="475.4951">jobRepository</text></g><!--link Repositories to CollaboratorRepository--><g id="link_Repositories_CollaboratorRepository"><path codeLine="70" d="M531.3,431.1 C507.29,446.77 485.5,461 485.5,461 C485.5,461 462.64,481.54 436.25,505.25 " fill="none" id="Repositories-to-CollaboratorRepository" style="stroke:#181818;stroke-width:1.0;"/><polygon fill="#181818" points="432.33,508.77,441.6955,505.7225,436.0465,505.4252,436.3438,499.7761,432.33,508.77" style="stroke:#181818;stroke-width:1.0;"/><text fill="#000000" font-family="sans-serif" font-size="13" lengthAdjust="spacing" textLength="129" x="486.5" y="475.4951">collaboratorRepository</text><text fill="#000000" font-family="sans-serif" font-size="13" lengthAdjust="spacing" textLength="7" x="433.1317" y="497.9441">1</text></g><!--link CollaboratorRepository to Collaborator--><g id="link_CollaboratorRepository_Collaborator"><path codeLine="71" d="M357.5,645.23 C357.5,666.61 357.5,691.51 357.5,717.54 " fill="none" id="CollaboratorRepository-to-Collaborator" style="stroke:#181818;stroke-width:1.0;"/><polygon fill="#181818" points="357.5,722.76,361.5,713.76,357.5,717.76,353.5,713.76,357.5,722.76" style="stroke:#181818;stroke-width:1.0;"/><text fill="#000000" font-family="sans-serif" font-size="13" lengthAdjust="spacing" textLength="74" x="358.5" y="689.4951">collaborators</text><text fill="#000000" font-family="sans-serif" font-size="13" lengthAdjust="spacing" textLength="5" x="352.4102" y="712.458">*</text></g><!--link RegisterCollaboratorController to CollaboratorRepository--><g id="link_RegisterCollaboratorController_CollaboratorRepository"><path codeLine="72" d="M430.93,270.1 C348.04,308.9 264.5,348 264.5,348 C264.5,348 264.5,431 264.5,431 C264.5,431 288.03,467.68 311.42,504.15 " fill="none" id="RegisterCollaboratorController-to-CollaboratorRepository" style="stroke:#181818;stroke-width:1.0;stroke-dasharray:7.0,7.0;"/><polygon fill="#181818" points="314.27,508.59,312.7829,498.8541,311.5727,504.3799,306.0468,503.1697,314.27,508.59" style="stroke:#181818;stroke-width:1.0;"/><text fill="#000000" font-family="sans-serif" font-size="13" lengthAdjust="spacing" textLength="129" x="265.5" y="394.9951">collaboratorRepository</text></g><!--link RegisterCollaboratorController to JobRepository--><g id="link_RegisterCollaboratorController_JobRepository"><path codeLine="73" d="M729.88,270.1 C799.42,308.9 869.5,348 869.5,348 C869.5,348 879.64,463.56 885.48,530.14 " fill="none" id="RegisterCollaboratorController-to-JobRepository" style="stroke:#181818;stroke-width:1.0;stroke-dasharray:7.0,7.0;"/><polygon fill="#181818" points="885.92,535.24,889.108,525.9214,885.4776,530.2596,881.1394,526.6292,885.92,535.24" style="stroke:#181818;stroke-width:1.0;"/><text fill="#000000" font-family="sans-serif" font-size="13" lengthAdjust="spacing" textLength="79" x="878.5" y="394.9951">jobRepository</text></g><!--link JobRepository to Job--><g id="link_JobRepository_Job"><path codeLine="74" d="M889.5,618.84 C889.5,679.89 889.5,795.49 889.5,867.59 " fill="none" id="JobRepository-to-Job" style="stroke:#181818;stroke-width:1.0;"/><polygon fill="#181818" points="889.5,872.71,893.5,863.71,889.5,867.71,885.5,863.71,889.5,872.71" style="stroke:#181818;stroke-width:1.0;"/><text fill="#000000" font-family="sans-serif" font-size="13" lengthAdjust="spacing" textLength="24" x="890.5" y="689.4951">jobs</text><text fill="#000000" font-family="sans-serif" font-size="13" lengthAdjust="spacing" textLength="5" x="884.1953" y="861.9989">*</text></g><!--SRC=[vLR1ZjCm4BtdAwozqBBjIbnxuB0jA-qAE6pXWhWuzZGTwiIHxIu4nBypsRYftJhfSaCYbyOpBy_sUsDFxGwhcXjUifgB7IzWxHe5p81ml2eKPBO7s2sN-ZjM1TjmPSECmWfSKmEhjMhQGPQzKh1np6bciDWw9h5bH5rbcL3SMlO81Le7PgcLuhast6dp-PxzodwF8PQwSeR6O0Z9wBbcmW1ti7n_Ewbu2Mp1rixG6cSiH-Esad8KMz7FZ0dwcWltGUUe0kJN2agEAlYKIsc0bd2C_CHwgML8Bz0r8OVKObz2vJwH3ZE6abvnWuAtc_wuBtCmBM-9rb9W5IuhXGqc-gPp6ZteVEftJE9WKL5WSfOgmDrNbfmJC9bsgKUejKNIhXd0XFe6uD087qIm1zc99E8UcermQVwngVkPq_aJw_yXtmFO1LFJbU3uZvetO7euLYvH068BOdUdpMfVgtO2i9E-DgGCHPk8O30DF8siEWZQwTaMbaCNAEMzzQ34v9H_qYZJnddsEOjyyh5JitmuxPXFngxvuAbrFdpgtu4_DB5dEBV4fte7_3ZbapSWKlz_kP6UmE2ckKEwcEL9oOM0RfiZW7VjhaVoNxezZo1kMub7yYkloG3Dd2MFiy-DoXAThRxcuuFabv8uOLqcql6eyk5u1PXr3GAvMcwf_mfgaZO1fmLbsK2VlRbvUw71PXVwRySGT8O5_Mau3hCeDv-VWT7te7DWV3Sjsd8BciCP_EhDrK2VM32HRZ03-6UsrrVnxHMJs9V8yhVBUG7bk2Pnzh2DX-UA8AJD_W00]--></g></svg>