<?xml version="1.0" encoding="UTF-8" standalone="no"?><svg xmlns="http://www.w3.org/2000/svg" xmlns:xlink="http://www.w3.org/1999/xlink" contentStyleType="text/css" height="1902px" preserveAspectRatio="none" style="width:2239px;height:1902px;background:#FFFFFF;" version="1.1" viewBox="0 0 2239 1902" width="2239px" zoomAndPan="magnify"><defs/><g><rect fill="#FFFFFF" height="1709.7422" style="stroke:#181818;stroke-width:1.0;" width="10" x="18" y="92.6094"/><rect fill="#FFFFFF" height="72.9609" style="stroke:#181818;stroke-width:1.0;" width="10" x="419" y="114.9609"/><rect fill="#FFFFFF" height="30.3516" style="stroke:#181818;stroke-width:1.0;" width="10" x="419" y="218.2734"/><rect fill="#FFFFFF" height="30.3516" style="stroke:#181818;stroke-width:1.0;" width="10" x="419" y="461.0859"/><rect fill="#FFFFFF" height="30.3516" style="stroke:#181818;stroke-width:1.0;" width="10" x="419" y="521.7891"/><rect fill="#FFFFFF" height="30.3516" style="stroke:#181818;stroke-width:1.0;" width="10" x="419" y="582.4922"/><rect fill="#FFFFFF" height="30.3516" style="stroke:#181818;stroke-width:1.0;" width="10" x="419" y="1772"/><rect fill="#FFFFFF" height="212.4609" style="stroke:#181818;stroke-width:1.0;" width="10" x="615" y="248.625"/><rect fill="#FFFFFF" height="168.1094" style="stroke:#181818;stroke-width:1.0;" width="10" x="615" y="612.8438"/><rect fill="#FFFFFF" height="30.3516" style="stroke:#181818;stroke-width:1.0;" width="10" x="615" y="1741.6484"/><rect fill="#FFFFFF" height="30.3516" style="stroke:#181818;stroke-width:1.0;" width="10" x="779" y="278.9766"/><rect fill="#FFFFFF" height="30.3516" style="stroke:#181818;stroke-width:1.0;" width="10" x="779" y="643.1953"/><rect fill="#FFFFFF" height="30.3516" style="stroke:#181818;stroke-width:1.0;" width="10" x="886" y="339.6797"/><rect fill="#FFFFFF" height="30.3516" style="stroke:#181818;stroke-width:1.0;" width="10" x="886" y="703.8984"/><rect fill="#FFFFFF" height="46.7031" style="stroke:#181818;stroke-width:1.0;" width="10" x="1131" y="780.9531"/><rect fill="#FFFFFF" height="160.4063" style="stroke:#181818;stroke-width:1.0;" width="10" x="1131" y="1581.2422"/><rect fill="#FFFFFF" height="41.3516" style="stroke:#181818;stroke-width:1.0;" width="10" x="1136" y="1619.5938"/><rect fill="#FFFFFF" height="30.3516" style="stroke:#181818;stroke-width:1.0;" width="10" x="1396" y="400.3828"/><rect fill="#FFFFFF" height="743.5859" style="stroke:#181818;stroke-width:1.0;" width="10" x="1695" y="837.6563"/><rect fill="#FFFFFF" height="677.8828" style="stroke:#181818;stroke-width:1.0;" width="10" x="1700" y="866.0078"/><rect fill="#FFFFFF" height="591.1797" style="stroke:#181818;stroke-width:1.0;" width="10" x="1705" y="909.3594"/><rect fill="#FFFFFF" height="504.4766" style="stroke:#181818;stroke-width:1.0;" width="10" x="1710" y="952.7109"/><rect fill="#FFFFFF" height="417.7734" style="stroke:#181818;stroke-width:1.0;" width="10" x="1715" y="996.0625"/><rect fill="#FFFFFF" height="331.0703" style="stroke:#181818;stroke-width:1.0;" width="10" x="1720" y="1039.4141"/><rect fill="#FFFFFF" height="244.3672" style="stroke:#181818;stroke-width:1.0;" width="10" x="1725" y="1082.7656"/><rect fill="#FFFFFF" height="162.6641" style="stroke:#181818;stroke-width:1.0;" width="10" x="2011" y="1128.1172"/><rect fill="#FFFFFF" height="41.3516" style="stroke:#181818;stroke-width:1.0;" width="10" x="2016" y="1212.0781"/><line style="stroke:#181818;stroke-width:0.5;stroke-dasharray:5.0,5.0;" x1="23" x2="23" y1="82.6094" y2="1820.3516"/><line style="stroke:#181818;stroke-width:0.5;stroke-dasharray:5.0,5.0;" x1="423.5" x2="423.5" y1="82.6094" y2="1820.3516"/><line style="stroke:#181818;stroke-width:0.5;stroke-dasharray:5.0,5.0;" x1="619.5" x2="619.5" y1="154.2656" y2="1820.3516"/><line style="stroke:#181818;stroke-width:0.5;stroke-dasharray:5.0,5.0;" x1="783.5" x2="783.5" y1="82.6094" y2="1820.3516"/><line style="stroke:#181818;stroke-width:0.5;stroke-dasharray:5.0,5.0;" x1="890.5" x2="890.5" y1="82.6094" y2="1820.3516"/><line style="stroke:#181818;stroke-width:0.5;stroke-dasharray:5.0,5.0;" x1="1135.5" x2="1135.5" y1="82.6094" y2="1820.3516"/><line style="stroke:#181818;stroke-width:0.5;stroke-dasharray:5.0,5.0;" x1="1400.5" x2="1400.5" y1="82.6094" y2="1820.3516"/><line style="stroke:#181818;stroke-width:0.5;stroke-dasharray:5.0,5.0;" x1="1700" x2="1700" y1="822.3047" y2="1820.3516"/><line style="stroke:#181818;stroke-width:0.5;stroke-dasharray:5.0,5.0;" x1="2016" x2="2016" y1="1127.0703" y2="1820.3516"/><text fill="#000000" font-family="sans-serif" font-size="14" lengthAdjust="spacing" textLength="30" x="5" y="79.5332">HRM</text><ellipse cx="23" cy="13.5" fill="#E3E3E3" rx="8" ry="8" style="stroke:#181818;stroke-width:0.5;"/><path d="M23,21.5 L23,48.5 M10,29.5 L36,29.5 M23,48.5 L10,63.5 M23,48.5 L36,63.5 " fill="none" style="stroke:#181818;stroke-width:0.5;"/><text fill="#000000" font-family="sans-serif" font-size="14" lengthAdjust="spacing" textLength="30" x="5" y="1833.8848">HRM</text><ellipse cx="23" cy="1845.4609" fill="#E3E3E3" rx="8" ry="8" style="stroke:#181818;stroke-width:0.5;"/><path d="M23,1853.4609 L23,1880.4609 M10,1861.4609 L36,1861.4609 M23,1880.4609 L10,1895.4609 M23,1880.4609 L36,1895.4609 " fill="none" style="stroke:#181818;stroke-width:0.5;"/><rect fill="#E3E3E3" height="31.6094" rx="2.5" ry="2.5" style="stroke:#181818;stroke-width:0.5;" width="161" x="343.5" y="50"/><text fill="#000000" font-family="sans-serif" font-size="14" lengthAdjust="spacing" textLength="147" x="350.5" y="71.5332">:RegisterCollaboratorUI</text><rect fill="#E3E3E3" height="31.6094" rx="2.5" ry="2.5" style="stroke:#181818;stroke-width:0.5;" width="161" x="343.5" y="1819.3516"/><text fill="#000000" font-family="sans-serif" font-size="14" lengthAdjust="spacing" textLength="147" x="350.5" y="1840.8848">:RegisterCollaboratorUI</text><rect fill="#E3E3E3" height="31.6094" rx="2.5" ry="2.5" style="stroke:#181818;stroke-width:0.5;" width="211" x="514.5" y="1819.3516"/><text fill="#000000" font-family="sans-serif" font-size="14" lengthAdjust="spacing" textLength="197" x="521.5" y="1840.8848">:RegisterCollaboratorController</text><rect fill="#E3E3E3" height="31.6094" rx="2.5" ry="2.5" style="stroke:#181818;stroke-width:0.5;" width="97" x="735.5" y="50"/><text fill="#000000" font-family="sans-serif" font-size="14" lengthAdjust="spacing" textLength="83" x="742.5" y="71.5332">:Repositories</text><rect fill="#E3E3E3" height="31.6094" rx="2.5" ry="2.5" style="stroke:#181818;stroke-width:0.5;" width="97" x="735.5" y="1819.3516"/><text fill="#000000" font-family="sans-serif" font-size="14" lengthAdjust="spacing" textLength="83" x="742.5" y="1840.8848">:Repositories</text><rect fill="#E3E3E3" height="49.2188" rx="2.5" ry="2.5" style="stroke:#181818;stroke-width:0.5;" width="97" x="842.5" y="32.3906"/><text fill="#000000" font-family="sans-serif" font-size="14" lengthAdjust="spacing" textLength="74" x="854" y="53.9238">repositories</text><text fill="#000000" font-family="sans-serif" font-size="14" lengthAdjust="spacing" textLength="83" x="849.5" y="71.5332">:Repositories</text><rect fill="#E3E3E3" height="49.2188" rx="2.5" ry="2.5" style="stroke:#181818;stroke-width:0.5;" width="97" x="842.5" y="1819.3516"/><text fill="#000000" font-family="sans-serif" font-size="14" lengthAdjust="spacing" textLength="74" x="854" y="1840.8848">repositories</text><text fill="#000000" font-family="sans-serif" font-size="14" lengthAdjust="spacing" textLength="83" x="849.5" y="1858.4941">:Repositories</text><rect fill="#E3E3E3" height="49.2188" rx="2.5" ry="2.5" style="stroke:#181818;stroke-width:0.5;" width="161" x="1055.5" y="32.3906"/><text fill="#000000" font-family="sans-serif" font-size="14" lengthAdjust="spacing" textLength="147" x="1062.5" y="53.9238">collaboratorRepository:</text><text fill="#000000" font-family="sans-serif" font-size="14" lengthAdjust="spacing" textLength="146" x="1063" y="71.5332">CollaboratorRepository</text><rect fill="#E3E3E3" height="49.2188" rx="2.5" ry="2.5" style="stroke:#181818;stroke-width:0.5;" width="161" x="1055.5" y="1819.3516"/><text fill="#000000" font-family="sans-serif" font-size="14" lengthAdjust="spacing" textLength="147" x="1062.5" y="1840.8848">collaboratorRepository:</text><text fill="#000000" font-family="sans-serif" font-size="14" lengthAdjust="spacing" textLength="146" x="1063" y="1858.4941">CollaboratorRepository</text><rect fill="#E3E3E3" height="49.2188" rx="2.5" ry="2.5" style="stroke:#181818;stroke-width:0.5;" width="105" x="1348.5" y="32.3906"/><text fill="#000000" font-family="sans-serif" font-size="14" lengthAdjust="spacing" textLength="91" x="1355.5" y="53.9238">jobRepository:</text><text fill="#000000" font-family="sans-serif" font-size="14" lengthAdjust="spacing" textLength="90" x="1356" y="71.5332">JobRepository</text><rect fill="#E3E3E3" height="49.2188" rx="2.5" ry="2.5" style="stroke:#181818;stroke-width:0.5;" width="105" x="1348.5" y="1819.3516"/><text fill="#000000" font-family="sans-serif" font-size="14" lengthAdjust="spacing" textLength="91" x="1355.5" y="1840.8848">jobRepository:</text><text fill="#000000" font-family="sans-serif" font-size="14" lengthAdjust="spacing" textLength="90" x="1356" y="1858.4941">JobRepository</text><rect fill="#E3E3E3" height="31.6094" rx="2.5" ry="2.5" style="stroke:#181818;stroke-width:0.5;" width="96" x="1652" y="1819.3516"/><text fill="#000000" font-family="sans-serif" font-size="14" lengthAdjust="spacing" textLength="82" x="1659" y="1840.8848">:Collaborator</text><rect fill="#E3E3E3" height="31.6094" rx="2.5" ry="2.5" style="stroke:#181818;stroke-width:0.5;" width="70" x="1981" y="1819.3516"/><text fill="#000000" font-family="sans-serif" font-size="14" lengthAdjust="spacing" textLength="56" x="1988" y="1840.8848">:Address</text><rect fill="#FFFFFF" height="1709.7422" style="stroke:#181818;stroke-width:1.0;" width="10" x="18" y="92.6094"/><rect fill="#FFFFFF" height="72.9609" style="stroke:#181818;stroke-width:1.0;" width="10" x="419" y="114.9609"/><rect fill="#FFFFFF" height="30.3516" style="stroke:#181818;stroke-width:1.0;" width="10" x="419" y="218.2734"/><rect fill="#FFFFFF" height="30.3516" style="stroke:#181818;stroke-width:1.0;" width="10" x="419" y="461.0859"/><rect fill="#FFFFFF" height="30.3516" style="stroke:#181818;stroke-width:1.0;" width="10" x="419" y="521.7891"/><rect fill="#FFFFFF" height="30.3516" style="stroke:#181818;stroke-width:1.0;" width="10" x="419" y="582.4922"/><rect fill="#FFFFFF" height="30.3516" style="stroke:#181818;stroke-width:1.0;" width="10" x="419" y="1772"/><rect fill="#FFFFFF" height="212.4609" style="stroke:#181818;stroke-width:1.0;" width="10" x="615" y="248.625"/><rect fill="#FFFFFF" height="168.1094" style="stroke:#181818;stroke-width:1.0;" width="10" x="615" y="612.8438"/><rect fill="#FFFFFF" height="30.3516" style="stroke:#181818;stroke-width:1.0;" width="10" x="615" y="1741.6484"/><rect fill="#FFFFFF" height="30.3516" style="stroke:#181818;stroke-width:1.0;" width="10" x="779" y="278.9766"/><rect fill="#FFFFFF" height="30.3516" style="stroke:#181818;stroke-width:1.0;" width="10" x="779" y="643.1953"/><rect fill="#FFFFFF" height="30.3516" style="stroke:#181818;stroke-width:1.0;" width="10" x="886" y="339.6797"/><rect fill="#FFFFFF" height="30.3516" style="stroke:#181818;stroke-width:1.0;" width="10" x="886" y="703.8984"/><rect fill="#FFFFFF" height="46.7031" style="stroke:#181818;stroke-width:1.0;" width="10" x="1131" y="780.9531"/><rect fill="#FFFFFF" height="160.4063" style="stroke:#181818;stroke-width:1.0;" width="10" x="1131" y="1581.2422"/><rect fill="#FFFFFF" height="41.3516" style="stroke:#181818;stroke-width:1.0;" width="10" x="1136" y="1619.5938"/><rect fill="#FFFFFF" height="30.3516" style="stroke:#181818;stroke-width:1.0;" width="10" x="1396" y="400.3828"/><rect fill="#FFFFFF" height="743.5859" style="stroke:#181818;stroke-width:1.0;" width="10" x="1695" y="837.6563"/><rect fill="#FFFFFF" height="677.8828" style="stroke:#181818;stroke-width:1.0;" width="10" x="1700" y="866.0078"/><rect fill="#FFFFFF" height="591.1797" style="stroke:#181818;stroke-width:1.0;" width="10" x="1705" y="909.3594"/><rect fill="#FFFFFF" height="504.4766" style="stroke:#181818;stroke-width:1.0;" width="10" x="1710" y="952.7109"/><rect fill="#FFFFFF" height="417.7734" style="stroke:#181818;stroke-width:1.0;" width="10" x="1715" y="996.0625"/><rect fill="#FFFFFF" height="331.0703" style="stroke:#181818;stroke-width:1.0;" width="10" x="1720" y="1039.4141"/><rect fill="#FFFFFF" height="244.3672" style="stroke:#181818;stroke-width:1.0;" width="10" x="1725" y="1082.7656"/><rect fill="#FFFFFF" height="162.6641" style="stroke:#181818;stroke-width:1.0;" width="10" x="2011" y="1128.1172"/><rect fill="#FFFFFF" height="41.3516" style="stroke:#181818;stroke-width:1.0;" width="10" x="2016" y="1212.0781"/><polygon fill="#181818" points="407,110.9609,417,114.9609,407,118.9609,411,114.9609" style="stroke:#181818;stroke-width:1.0;"/><line style="stroke:#181818;stroke-width:1.0;" x1="28" x2="413" y1="114.9609" y2="114.9609"/><text fill="#000000" font-family="sans-serif" font-size="13" font-weight="bold" lengthAdjust="spacing" textLength="7" x="35" y="110.1045">1</text><text fill="#000000" font-family="sans-serif" font-size="13" lengthAdjust="spacing" textLength="192" x="46" y="110.1045">asks to create a new collaborator</text><polygon fill="#181818" points="502.5,141.3125,512.5,145.3125,502.5,149.3125,506.5,145.3125" style="stroke:#181818;stroke-width:1.0;"/><line style="stroke:#181818;stroke-width:1.0;" x1="429" x2="508.5" y1="145.3125" y2="145.3125"/><text fill="#000000" font-family="sans-serif" font-size="13" font-weight="bold" lengthAdjust="spacing" textLength="7" x="436" y="140.4561">2</text><text fill="#000000" font-family="sans-serif" font-size="13" lengthAdjust="spacing" textLength="36" x="447" y="140.4561">create</text><rect fill="#E3E3E3" height="31.6094" rx="2.5" ry="2.5" style="stroke:#181818;stroke-width:0.5;" width="211" x="514.5" y="122.9609"/><text fill="#000000" font-family="sans-serif" font-size="14" lengthAdjust="spacing" textLength="197" x="521.5" y="144.4941">:RegisterCollaboratorController</text><polygon fill="#181818" points="39,183.9219,29,187.9219,39,191.9219,35,187.9219" style="stroke:#181818;stroke-width:1.0;"/><line style="stroke:#181818;stroke-width:1.0;stroke-dasharray:2.0,2.0;" x1="33" x2="423" y1="187.9219" y2="187.9219"/><text fill="#000000" font-family="sans-serif" font-size="13" font-weight="bold" lengthAdjust="spacing" textLength="7" x="45" y="183.0654">3</text><text fill="#000000" font-family="sans-serif" font-size="13" lengthAdjust="spacing" textLength="278" x="56" y="183.0654">requests data (collaborator personal information)</text><polygon fill="#181818" points="407,214.2734,417,218.2734,407,222.2734,411,218.2734" style="stroke:#181818;stroke-width:1.0;"/><line style="stroke:#181818;stroke-width:1.0;" x1="28" x2="413" y1="218.2734" y2="218.2734"/><text fill="#000000" font-family="sans-serif" font-size="13" font-weight="bold" lengthAdjust="spacing" textLength="7" x="35" y="213.417">4</text><text fill="#000000" font-family="sans-serif" font-size="13" lengthAdjust="spacing" textLength="122" x="46" y="213.417">types requested data</text><polygon fill="#181818" points="603,244.625,613,248.625,603,252.625,607,248.625" style="stroke:#181818;stroke-width:1.0;"/><line style="stroke:#181818;stroke-width:1.0;" x1="424" x2="609" y1="248.625" y2="248.625"/><text fill="#000000" font-family="sans-serif" font-size="13" font-weight="bold" lengthAdjust="spacing" textLength="7" x="431" y="243.7686">5</text><text fill="#000000" font-family="sans-serif" font-size="13" lengthAdjust="spacing" textLength="64" x="442" y="243.7686">get job List</text><polygon fill="#181818" points="767,274.9766,777,278.9766,767,282.9766,771,278.9766" style="stroke:#181818;stroke-width:1.0;"/><line style="stroke:#181818;stroke-width:1.0;" x1="625" x2="773" y1="278.9766" y2="278.9766"/><text fill="#000000" font-family="sans-serif" font-size="13" font-weight="bold" lengthAdjust="spacing" textLength="7" x="632" y="274.1201">6</text><text fill="#000000" font-family="sans-serif" font-size="13" lengthAdjust="spacing" textLength="75" x="643" y="274.1201">getInstance()</text><polygon fill="#181818" points="636,305.3281,626,309.3281,636,313.3281,632,309.3281" style="stroke:#181818;stroke-width:1.0;"/><line style="stroke:#181818;stroke-width:1.0;stroke-dasharray:2.0,2.0;" x1="630" x2="783" y1="309.3281" y2="309.3281"/><text fill="#000000" font-family="sans-serif" font-size="13" font-weight="bold" lengthAdjust="spacing" textLength="7" x="642" y="304.4717">7</text><text fill="#000000" font-family="sans-serif" font-size="13" lengthAdjust="spacing" textLength="67" x="653" y="304.4717">repositories</text><polygon fill="#181818" points="874,335.6797,884,339.6797,874,343.6797,878,339.6797" style="stroke:#181818;stroke-width:1.0;"/><line style="stroke:#181818;stroke-width:1.0;" x1="625" x2="880" y1="339.6797" y2="339.6797"/><text fill="#000000" font-family="sans-serif" font-size="13" font-weight="bold" lengthAdjust="spacing" textLength="7" x="632" y="334.8232">8</text><text fill="#000000" font-family="sans-serif" font-size="13" lengthAdjust="spacing" textLength="108" x="643" y="334.8232">getJobRepository()</text><polygon fill="#181818" points="636,366.0313,626,370.0313,636,374.0313,632,370.0313" style="stroke:#181818;stroke-width:1.0;"/><line style="stroke:#181818;stroke-width:1.0;stroke-dasharray:2.0,2.0;" x1="630" x2="890" y1="370.0313" y2="370.0313"/><text fill="#000000" font-family="sans-serif" font-size="13" font-weight="bold" lengthAdjust="spacing" textLength="7" x="642" y="365.1748">9</text><text fill="#000000" font-family="sans-serif" font-size="13" lengthAdjust="spacing" textLength="79" x="653" y="365.1748">jobRepository</text><polygon fill="#181818" points="1384,396.3828,1394,400.3828,1384,404.3828,1388,400.3828" style="stroke:#181818;stroke-width:1.0;"/><line style="stroke:#181818;stroke-width:1.0;" x1="625" x2="1390" y1="400.3828" y2="400.3828"/><text fill="#000000" font-family="sans-serif" font-size="13" font-weight="bold" lengthAdjust="spacing" textLength="14" x="632" y="395.5264">10</text><text fill="#000000" font-family="sans-serif" font-size="13" lengthAdjust="spacing" textLength="53" x="650" y="395.5264">getJobs()</text><polygon fill="#181818" points="636,426.7344,626,430.7344,636,434.7344,632,430.7344" style="stroke:#181818;stroke-width:1.0;"/><line style="stroke:#181818;stroke-width:1.0;stroke-dasharray:2.0,2.0;" x1="630" x2="1400" y1="430.7344" y2="430.7344"/><text fill="#000000" font-family="sans-serif" font-size="13" font-weight="bold" lengthAdjust="spacing" textLength="14" x="642" y="425.8779">11</text><text fill="#000000" font-family="sans-serif" font-size="13" lengthAdjust="spacing" textLength="45" x="660" y="425.8779">jobsList</text><polygon fill="#181818" points="440,457.0859,430,461.0859,440,465.0859,436,461.0859" style="stroke:#181818;stroke-width:1.0;"/><line style="stroke:#181818;stroke-width:1.0;stroke-dasharray:2.0,2.0;" x1="434" x2="619" y1="461.0859" y2="461.0859"/><text fill="#000000" font-family="sans-serif" font-size="13" font-weight="bold" lengthAdjust="spacing" textLength="14" x="446" y="456.2295">12</text><text fill="#000000" font-family="sans-serif" font-size="13" lengthAdjust="spacing" textLength="42" x="464" y="456.2295">job List</text><polygon fill="#181818" points="39,487.4375,29,491.4375,39,495.4375,35,491.4375" style="stroke:#181818;stroke-width:1.0;"/><line style="stroke:#181818;stroke-width:1.0;stroke-dasharray:2.0,2.0;" x1="33" x2="423" y1="491.4375" y2="491.4375"/><text fill="#000000" font-family="sans-serif" font-size="13" font-weight="bold" lengthAdjust="spacing" textLength="14" x="45" y="486.5811">13</text><text fill="#000000" font-family="sans-serif" font-size="13" lengthAdjust="spacing" textLength="280" x="63" y="486.5811">shows the list of jobs and requests to select one</text><polygon fill="#181818" points="407,517.7891,417,521.7891,407,525.7891,411,521.7891" style="stroke:#181818;stroke-width:1.0;"/><line style="stroke:#181818;stroke-width:1.0;" x1="28" x2="413" y1="521.7891" y2="521.7891"/><text fill="#000000" font-family="sans-serif" font-size="13" font-weight="bold" lengthAdjust="spacing" textLength="14" x="35" y="516.9326">14</text><text fill="#000000" font-family="sans-serif" font-size="13" lengthAdjust="spacing" textLength="78" x="53" y="516.9326">select the job</text><polygon fill="#181818" points="39,548.1406,29,552.1406,39,556.1406,35,552.1406" style="stroke:#181818;stroke-width:1.0;"/><line style="stroke:#181818;stroke-width:1.0;stroke-dasharray:2.0,2.0;" x1="33" x2="423" y1="552.1406" y2="552.1406"/><text fill="#000000" font-family="sans-serif" font-size="13" font-weight="bold" lengthAdjust="spacing" textLength="14" x="45" y="547.2842">15</text><text fill="#000000" font-family="sans-serif" font-size="13" lengthAdjust="spacing" textLength="254" x="63" y="547.2842">shows all data and requests for confirmation</text><polygon fill="#181818" points="407,578.4922,417,582.4922,407,586.4922,411,582.4922" style="stroke:#181818;stroke-width:1.0;"/><line style="stroke:#181818;stroke-width:1.0;" x1="28" x2="413" y1="582.4922" y2="582.4922"/><text fill="#000000" font-family="sans-serif" font-size="13" font-weight="bold" lengthAdjust="spacing" textLength="14" x="35" y="577.6357">16</text><text fill="#000000" font-family="sans-serif" font-size="13" lengthAdjust="spacing" textLength="100" x="53" y="577.6357">confirms the data</text><polygon fill="#181818" points="603,608.8438,613,612.8438,603,616.8438,607,612.8438" style="stroke:#181818;stroke-width:1.0;"/><line style="stroke:#181818;stroke-width:1.0;" x1="424" x2="609" y1="612.8438" y2="612.8438"/><text fill="#000000" font-family="sans-serif" font-size="13" font-weight="bold" lengthAdjust="spacing" textLength="14" x="431" y="607.9873">17</text><text fill="#000000" font-family="sans-serif" font-size="13" lengthAdjust="spacing" textLength="107" x="449" y="607.9873">create collaborator</text><polygon fill="#181818" points="767,639.1953,777,643.1953,767,647.1953,771,643.1953" style="stroke:#181818;stroke-width:1.0;"/><line style="stroke:#181818;stroke-width:1.0;" x1="625" x2="773" y1="643.1953" y2="643.1953"/><text fill="#000000" font-family="sans-serif" font-size="13" font-weight="bold" lengthAdjust="spacing" textLength="14" x="632" y="638.3389">18</text><text fill="#000000" font-family="sans-serif" font-size="13" lengthAdjust="spacing" textLength="75" x="650" y="638.3389">getInstance()</text><polygon fill="#181818" points="636,669.5469,626,673.5469,636,677.5469,632,673.5469" style="stroke:#181818;stroke-width:1.0;"/><line style="stroke:#181818;stroke-width:1.0;stroke-dasharray:2.0,2.0;" x1="630" x2="783" y1="673.5469" y2="673.5469"/><text fill="#000000" font-family="sans-serif" font-size="13" font-weight="bold" lengthAdjust="spacing" textLength="14" x="642" y="668.6904">19</text><text fill="#000000" font-family="sans-serif" font-size="13" lengthAdjust="spacing" textLength="67" x="660" y="668.6904">repositories</text><polygon fill="#181818" points="874,699.8984,884,703.8984,874,707.8984,878,703.8984" style="stroke:#181818;stroke-width:1.0;"/><line style="stroke:#181818;stroke-width:1.0;" x1="625" x2="880" y1="703.8984" y2="703.8984"/><text fill="#000000" font-family="sans-serif" font-size="13" font-weight="bold" lengthAdjust="spacing" textLength="14" x="632" y="699.042">20</text><text fill="#000000" font-family="sans-serif" font-size="13" lengthAdjust="spacing" textLength="157" x="650" y="699.042">getCollaboratorRepository()</text><polygon fill="#181818" points="636,730.25,626,734.25,636,738.25,632,734.25" style="stroke:#181818;stroke-width:1.0;"/><line style="stroke:#181818;stroke-width:1.0;stroke-dasharray:2.0,2.0;" x1="630" x2="890" y1="734.25" y2="734.25"/><text fill="#000000" font-family="sans-serif" font-size="13" font-weight="bold" lengthAdjust="spacing" textLength="14" x="642" y="729.3936">21</text><text fill="#000000" font-family="sans-serif" font-size="13" lengthAdjust="spacing" textLength="129" x="660" y="729.3936">collaboratorRepository</text><polygon fill="#181818" points="1119,776.9531,1129,780.9531,1119,784.9531,1123,780.9531" style="stroke:#181818;stroke-width:1.0;"/><line style="stroke:#181818;stroke-width:1.0;" x1="620" x2="1125" y1="780.9531" y2="780.9531"/><text fill="#000000" font-family="sans-serif" font-size="13" font-weight="bold" lengthAdjust="spacing" textLength="14" x="627" y="767.9209">22</text><text fill="#000000" font-family="sans-serif" font-size="13" lengthAdjust="spacing" textLength="396" x="645" y="759.7451">createCLB(name, birthdate, contactMobile, email, address, zipCode,</text><text fill="#000000" font-family="sans-serif" font-size="13" lengthAdjust="spacing" textLength="465" x="649" y="776.0967">city, documentType, identificationNumber, admissionDate, job, taxpayerNumber)</text><polygon fill="#181818" points="1640,823.6563,1650,827.6563,1640,831.6563,1644,827.6563" style="stroke:#181818;stroke-width:1.0;"/><line style="stroke:#181818;stroke-width:1.0;" x1="1136" x2="1646" y1="827.6563" y2="827.6563"/><text fill="#000000" font-family="sans-serif" font-size="13" font-weight="bold" lengthAdjust="spacing" textLength="14" x="1143" y="814.624">23</text><text fill="#000000" font-family="sans-serif" font-size="13" lengthAdjust="spacing" textLength="371" x="1161" y="806.4482">create(name, birthdate, contactMobile, email, address, zipCode,</text><text fill="#000000" font-family="sans-serif" font-size="13" lengthAdjust="spacing" textLength="465" x="1165" y="822.7998">city, documentType, identificationNumber, admissionDate, job, taxpayerNumber)</text><rect fill="#E3E3E3" height="31.6094" rx="2.5" ry="2.5" style="stroke:#181818;stroke-width:0.5;" width="96" x="1652" y="793.0469"/><text fill="#000000" font-family="sans-serif" font-size="14" lengthAdjust="spacing" textLength="82" x="1659" y="814.5801">:Collaborator</text><line style="stroke:#181818;stroke-width:1.0;" x1="1705" x2="1752" y1="853.0078" y2="853.0078"/><line style="stroke:#181818;stroke-width:1.0;" x1="1752" x2="1752" y1="853.0078" y2="866.0078"/><line style="stroke:#181818;stroke-width:1.0;" x1="1711" x2="1752" y1="866.0078" y2="866.0078"/><polygon fill="#181818" points="1721,862.0078,1711,866.0078,1721,870.0078,1717,866.0078" style="stroke:#181818;stroke-width:1.0;"/><text fill="#000000" font-family="sans-serif" font-size="13" font-weight="bold" lengthAdjust="spacing" textLength="14" x="1717" y="848.1514">24</text><text fill="#000000" font-family="sans-serif" font-size="13" lengthAdjust="spacing" textLength="135" x="1735" y="848.1514">verifyFilled(collaborator)</text><line style="stroke:#181818;stroke-width:1.0;" x1="1710" x2="1757" y1="896.3594" y2="896.3594"/><line style="stroke:#181818;stroke-width:1.0;" x1="1757" x2="1757" y1="896.3594" y2="909.3594"/><line style="stroke:#181818;stroke-width:1.0;" x1="1716" x2="1757" y1="909.3594" y2="909.3594"/><polygon fill="#181818" points="1726,905.3594,1716,909.3594,1726,913.3594,1722,909.3594" style="stroke:#181818;stroke-width:1.0;"/><text fill="#000000" font-family="sans-serif" font-size="13" font-weight="bold" lengthAdjust="spacing" textLength="14" x="1722" y="891.5029">25</text><text fill="#000000" font-family="sans-serif" font-size="13" lengthAdjust="spacing" textLength="163" x="1740" y="891.5029">verifyNineDigits(collaborator)</text><line style="stroke:#181818;stroke-width:1.0;" x1="1715" x2="1762" y1="939.7109" y2="939.7109"/><line style="stroke:#181818;stroke-width:1.0;" x1="1762" x2="1762" y1="939.7109" y2="952.7109"/><line style="stroke:#181818;stroke-width:1.0;" x1="1721" x2="1762" y1="952.7109" y2="952.7109"/><polygon fill="#181818" points="1731,948.7109,1721,952.7109,1731,956.7109,1727,952.7109" style="stroke:#181818;stroke-width:1.0;"/><text fill="#000000" font-family="sans-serif" font-size="13" font-weight="bold" lengthAdjust="spacing" textLength="14" x="1727" y="934.8545">26</text><text fill="#000000" font-family="sans-serif" font-size="13" lengthAdjust="spacing" textLength="137" x="1745" y="934.8545">verifyEmail(collaborator)</text><line style="stroke:#181818;stroke-width:1.0;" x1="1720" x2="1767" y1="983.0625" y2="983.0625"/><line style="stroke:#181818;stroke-width:1.0;" x1="1767" x2="1767" y1="983.0625" y2="996.0625"/><line style="stroke:#181818;stroke-width:1.0;" x1="1726" x2="1767" y1="996.0625" y2="996.0625"/><polygon fill="#181818" points="1736,992.0625,1726,996.0625,1736,1000.0625,1732,996.0625" style="stroke:#181818;stroke-width:1.0;"/><text fill="#000000" font-family="sans-serif" font-size="13" font-weight="bold" lengthAdjust="spacing" textLength="14" x="1732" y="978.2061">27</text><text fill="#000000" font-family="sans-serif" font-size="13" lengthAdjust="spacing" textLength="131" x="1750" y="978.2061">verifyBirth(collaborator)</text><line style="stroke:#181818;stroke-width:1.0;" x1="1725" x2="1772" y1="1026.4141" y2="1026.4141"/><line style="stroke:#181818;stroke-width:1.0;" x1="1772" x2="1772" y1="1026.4141" y2="1039.4141"/><line style="stroke:#181818;stroke-width:1.0;" x1="1731" x2="1772" y1="1039.4141" y2="1039.4141"/><polygon fill="#181818" points="1741,1035.4141,1731,1039.4141,1741,1043.4141,1737,1039.4141" style="stroke:#181818;stroke-width:1.0;"/><text fill="#000000" font-family="sans-serif" font-size="13" font-weight="bold" lengthAdjust="spacing" textLength="14" x="1737" y="1021.5576">28</text><text fill="#000000" font-family="sans-serif" font-size="13" lengthAdjust="spacing" textLength="192" x="1755" y="1021.5576">verifyAdmissionDate(collaborator)</text><line style="stroke:#181818;stroke-width:1.0;" x1="1730" x2="1777" y1="1069.7656" y2="1069.7656"/><line style="stroke:#181818;stroke-width:1.0;" x1="1777" x2="1777" y1="1069.7656" y2="1082.7656"/><line style="stroke:#181818;stroke-width:1.0;" x1="1736" x2="1777" y1="1082.7656" y2="1082.7656"/><polygon fill="#181818" points="1746,1078.7656,1736,1082.7656,1746,1086.7656,1742,1082.7656" style="stroke:#181818;stroke-width:1.0;"/><text fill="#000000" font-family="sans-serif" font-size="13" font-weight="bold" lengthAdjust="spacing" textLength="14" x="1742" y="1064.9092">29</text><text fill="#000000" font-family="sans-serif" font-size="13" lengthAdjust="spacing" textLength="221" x="1760" y="1064.9092">verifyIdentificationNumber(collaborator)</text><polygon fill="#181818" points="1969,1114.1172,1979,1118.1172,1969,1122.1172,1973,1118.1172" style="stroke:#181818;stroke-width:1.0;"/><line style="stroke:#181818;stroke-width:1.0;" x1="1735" x2="1975" y1="1118.1172" y2="1118.1172"/><text fill="#000000" font-family="sans-serif" font-size="13" font-weight="bold" lengthAdjust="spacing" textLength="14" x="1742" y="1113.2607">30</text><text fill="#000000" font-family="sans-serif" font-size="13" lengthAdjust="spacing" textLength="204" x="1760" y="1113.2607">setAddress(address, city, zipCode)</text><rect fill="#E3E3E3" height="31.6094" rx="2.5" ry="2.5" style="stroke:#181818;stroke-width:0.5;" width="70" x="1981" y="1095.7656"/><text fill="#000000" font-family="sans-serif" font-size="14" lengthAdjust="spacing" textLength="56" x="1988" y="1117.2988">:Address</text><line style="stroke:#181818;stroke-width:1.0;" x1="2021" x2="2063" y1="1160.7266" y2="1160.7266"/><line style="stroke:#181818;stroke-width:1.0;" x1="2063" x2="2063" y1="1160.7266" y2="1173.7266"/><line style="stroke:#181818;stroke-width:1.0;" x1="2022" x2="2063" y1="1173.7266" y2="1173.7266"/><polygon fill="#181818" points="2032,1169.7266,2022,1173.7266,2032,1177.7266,2028,1173.7266" style="stroke:#181818;stroke-width:1.0;"/><text fill="#000000" font-family="sans-serif" font-size="13" font-weight="bold" lengthAdjust="spacing" textLength="14" x="2028" y="1155.8701">31</text><text fill="#000000" font-family="sans-serif" font-size="13" lengthAdjust="spacing" textLength="186" x="2046" y="1155.8701">Address(address, city, zipCode)</text><line style="stroke:#181818;stroke-width:1.0;" x1="2021" x2="2068" y1="1199.0781" y2="1199.0781"/><line style="stroke:#181818;stroke-width:1.0;" x1="2068" x2="2068" y1="1199.0781" y2="1212.0781"/><line style="stroke:#181818;stroke-width:1.0;" x1="2027" x2="2068" y1="1212.0781" y2="1212.0781"/><polygon fill="#181818" points="2037,1208.0781,2027,1212.0781,2037,1216.0781,2033,1212.0781" style="stroke:#181818;stroke-width:1.0;"/><text fill="#000000" font-family="sans-serif" font-size="13" font-weight="bold" lengthAdjust="spacing" textLength="14" x="2033" y="1194.2217">32</text><text fill="#000000" font-family="sans-serif" font-size="13" lengthAdjust="spacing" textLength="151" x="2051" y="1194.2217">verifyZipCode(collaborator)</text><line style="stroke:#181818;stroke-width:1.0;stroke-dasharray:2.0,2.0;" x1="2026" x2="2068" y1="1252.4297" y2="1252.4297"/><line style="stroke:#181818;stroke-width:1.0;stroke-dasharray:2.0,2.0;" x1="2068" x2="2068" y1="1252.4297" y2="1265.4297"/><line style="stroke:#181818;stroke-width:1.0;stroke-dasharray:2.0,2.0;" x1="2021" x2="2068" y1="1265.4297" y2="1265.4297"/><polygon fill="#181818" points="2031,1261.4297,2021,1265.4297,2031,1269.4297,2027,1265.4297" style="stroke:#181818;stroke-width:1.0;"/><text fill="#000000" font-family="sans-serif" font-size="13" font-weight="bold" lengthAdjust="spacing" textLength="14" x="2033" y="1247.5732">33</text><text fill="#000000" font-family="sans-serif" font-size="13" lengthAdjust="spacing" textLength="4" x="2051" y="1247.5732"> </text><polygon fill="#181818" points="1746,1286.7813,1736,1290.7813,1746,1294.7813,1742,1290.7813" style="stroke:#181818;stroke-width:1.0;"/><line style="stroke:#181818;stroke-width:1.0;stroke-dasharray:2.0,2.0;" x1="1740" x2="2015" y1="1290.7813" y2="1290.7813"/><text fill="#000000" font-family="sans-serif" font-size="13" font-weight="bold" lengthAdjust="spacing" textLength="14" x="1752" y="1285.9248">34</text><text fill="#000000" font-family="sans-serif" font-size="13" lengthAdjust="spacing" textLength="46" x="1770" y="1285.9248">address</text><line style="stroke:#181818;stroke-width:1.0;stroke-dasharray:2.0,2.0;" x1="1735" x2="1777" y1="1326.1328" y2="1326.1328"/><line style="stroke:#181818;stroke-width:1.0;stroke-dasharray:2.0,2.0;" x1="1777" x2="1777" y1="1326.1328" y2="1339.1328"/><line style="stroke:#181818;stroke-width:1.0;stroke-dasharray:2.0,2.0;" x1="1730" x2="1777" y1="1339.1328" y2="1339.1328"/><polygon fill="#181818" points="1740,1335.1328,1730,1339.1328,1740,1343.1328,1736,1339.1328" style="stroke:#181818;stroke-width:1.0;"/><text fill="#000000" font-family="sans-serif" font-size="13" font-weight="bold" lengthAdjust="spacing" textLength="14" x="1742" y="1321.2764">35</text><text fill="#000000" font-family="sans-serif" font-size="13" lengthAdjust="spacing" textLength="4" x="1760" y="1321.2764"> </text><line style="stroke:#181818;stroke-width:1.0;stroke-dasharray:2.0,2.0;" x1="1730" x2="1772" y1="1369.4844" y2="1369.4844"/><line style="stroke:#181818;stroke-width:1.0;stroke-dasharray:2.0,2.0;" x1="1772" x2="1772" y1="1369.4844" y2="1382.4844"/><line style="stroke:#181818;stroke-width:1.0;stroke-dasharray:2.0,2.0;" x1="1725" x2="1772" y1="1382.4844" y2="1382.4844"/><polygon fill="#181818" points="1735,1378.4844,1725,1382.4844,1735,1386.4844,1731,1382.4844" style="stroke:#181818;stroke-width:1.0;"/><text fill="#000000" font-family="sans-serif" font-size="13" font-weight="bold" lengthAdjust="spacing" textLength="14" x="1737" y="1364.6279">36</text><text fill="#000000" font-family="sans-serif" font-size="13" lengthAdjust="spacing" textLength="4" x="1755" y="1364.6279"> </text><line style="stroke:#181818;stroke-width:1.0;stroke-dasharray:2.0,2.0;" x1="1725" x2="1767" y1="1412.8359" y2="1412.8359"/><line style="stroke:#181818;stroke-width:1.0;stroke-dasharray:2.0,2.0;" x1="1767" x2="1767" y1="1412.8359" y2="1425.8359"/><line style="stroke:#181818;stroke-width:1.0;stroke-dasharray:2.0,2.0;" x1="1720" x2="1767" y1="1425.8359" y2="1425.8359"/><polygon fill="#181818" points="1730,1421.8359,1720,1425.8359,1730,1429.8359,1726,1425.8359" style="stroke:#181818;stroke-width:1.0;"/><text fill="#000000" font-family="sans-serif" font-size="13" font-weight="bold" lengthAdjust="spacing" textLength="14" x="1732" y="1407.9795">37</text><text fill="#000000" font-family="sans-serif" font-size="13" lengthAdjust="spacing" textLength="4" x="1750" y="1407.9795"> </text><line style="stroke:#181818;stroke-width:1.0;stroke-dasharray:2.0,2.0;" x1="1720" x2="1762" y1="1456.1875" y2="1456.1875"/><line style="stroke:#181818;stroke-width:1.0;stroke-dasharray:2.0,2.0;" x1="1762" x2="1762" y1="1456.1875" y2="1469.1875"/><line style="stroke:#181818;stroke-width:1.0;stroke-dasharray:2.0,2.0;" x1="1715" x2="1762" y1="1469.1875" y2="1469.1875"/><polygon fill="#181818" points="1725,1465.1875,1715,1469.1875,1725,1473.1875,1721,1469.1875" style="stroke:#181818;stroke-width:1.0;"/><text fill="#000000" font-family="sans-serif" font-size="13" font-weight="bold" lengthAdjust="spacing" textLength="14" x="1727" y="1451.3311">38</text><text fill="#000000" font-family="sans-serif" font-size="13" lengthAdjust="spacing" textLength="4" x="1745" y="1451.3311"> </text><line style="stroke:#181818;stroke-width:1.0;stroke-dasharray:2.0,2.0;" x1="1715" x2="1757" y1="1499.5391" y2="1499.5391"/><line style="stroke:#181818;stroke-width:1.0;stroke-dasharray:2.0,2.0;" x1="1757" x2="1757" y1="1499.5391" y2="1512.5391"/><line style="stroke:#181818;stroke-width:1.0;stroke-dasharray:2.0,2.0;" x1="1710" x2="1757" y1="1512.5391" y2="1512.5391"/><polygon fill="#181818" points="1720,1508.5391,1710,1512.5391,1720,1516.5391,1716,1512.5391" style="stroke:#181818;stroke-width:1.0;"/><text fill="#000000" font-family="sans-serif" font-size="13" font-weight="bold" lengthAdjust="spacing" textLength="14" x="1722" y="1494.6826">39</text><text fill="#000000" font-family="sans-serif" font-size="13" lengthAdjust="spacing" textLength="4" x="1740" y="1494.6826"> </text><line style="stroke:#181818;stroke-width:1.0;stroke-dasharray:2.0,2.0;" x1="1710" x2="1752" y1="1542.8906" y2="1542.8906"/><line style="stroke:#181818;stroke-width:1.0;stroke-dasharray:2.0,2.0;" x1="1752" x2="1752" y1="1542.8906" y2="1555.8906"/><line style="stroke:#181818;stroke-width:1.0;stroke-dasharray:2.0,2.0;" x1="1705" x2="1752" y1="1555.8906" y2="1555.8906"/><polygon fill="#181818" points="1715,1551.8906,1705,1555.8906,1715,1559.8906,1711,1555.8906" style="stroke:#181818;stroke-width:1.0;"/><text fill="#000000" font-family="sans-serif" font-size="13" font-weight="bold" lengthAdjust="spacing" textLength="14" x="1717" y="1538.0342">40</text><text fill="#000000" font-family="sans-serif" font-size="13" lengthAdjust="spacing" textLength="4" x="1735" y="1538.0342"> </text><polygon fill="#181818" points="1152,1577.2422,1142,1581.2422,1152,1585.2422,1148,1581.2422" style="stroke:#181818;stroke-width:1.0;"/><line style="stroke:#181818;stroke-width:1.0;stroke-dasharray:2.0,2.0;" x1="1146" x2="1699" y1="1581.2422" y2="1581.2422"/><text fill="#000000" font-family="sans-serif" font-size="13" font-weight="bold" lengthAdjust="spacing" textLength="14" x="1158" y="1576.3857">41</text><text fill="#000000" font-family="sans-serif" font-size="13" lengthAdjust="spacing" textLength="67" x="1176" y="1576.3857">collaborator</text><line style="stroke:#181818;stroke-width:1.0;" x1="1141" x2="1188" y1="1606.5938" y2="1606.5938"/><line style="stroke:#181818;stroke-width:1.0;" x1="1188" x2="1188" y1="1606.5938" y2="1619.5938"/><line style="stroke:#181818;stroke-width:1.0;" x1="1147" x2="1188" y1="1619.5938" y2="1619.5938"/><polygon fill="#181818" points="1157,1615.5938,1147,1619.5938,1157,1623.5938,1153,1619.5938" style="stroke:#181818;stroke-width:1.0;"/><text fill="#000000" font-family="sans-serif" font-size="13" font-weight="bold" lengthAdjust="spacing" textLength="14" x="1153" y="1601.7373">42</text><text fill="#000000" font-family="sans-serif" font-size="13" lengthAdjust="spacing" textLength="223" x="1171" y="1601.7373">check for duplicates (taxpayerNumber)</text><line style="stroke:#181818;stroke-width:1.0;stroke-dasharray:2.0,2.0;" x1="1146" x2="1188" y1="1659.9453" y2="1659.9453"/><line style="stroke:#181818;stroke-width:1.0;stroke-dasharray:2.0,2.0;" x1="1188" x2="1188" y1="1659.9453" y2="1672.9453"/><line style="stroke:#181818;stroke-width:1.0;stroke-dasharray:2.0,2.0;" x1="1141" x2="1188" y1="1672.9453" y2="1672.9453"/><polygon fill="#181818" points="1151,1668.9453,1141,1672.9453,1151,1676.9453,1147,1672.9453" style="stroke:#181818;stroke-width:1.0;"/><text fill="#000000" font-family="sans-serif" font-size="13" font-weight="bold" lengthAdjust="spacing" textLength="14" x="1153" y="1655.0889">43</text><text fill="#000000" font-family="sans-serif" font-size="13" lengthAdjust="spacing" textLength="4" x="1171" y="1655.0889"> </text><line style="stroke:#181818;stroke-width:1.0;" x1="1141" x2="1183" y1="1698.2969" y2="1698.2969"/><line style="stroke:#181818;stroke-width:1.0;" x1="1183" x2="1183" y1="1698.2969" y2="1711.2969"/><line style="stroke:#181818;stroke-width:1.0;" x1="1142" x2="1183" y1="1711.2969" y2="1711.2969"/><polygon fill="#181818" points="1152,1707.2969,1142,1711.2969,1152,1715.2969,1148,1711.2969" style="stroke:#181818;stroke-width:1.0;"/><text fill="#000000" font-family="sans-serif" font-size="13" font-weight="bold" lengthAdjust="spacing" textLength="14" x="1148" y="1693.4404">44</text><text fill="#000000" font-family="sans-serif" font-size="13" lengthAdjust="spacing" textLength="165" x="1166" y="1693.4404">addCollaborator(collaborator)</text><polygon fill="#181818" points="636,1737.6484,626,1741.6484,636,1745.6484,632,1741.6484" style="stroke:#181818;stroke-width:1.0;"/><line style="stroke:#181818;stroke-width:1.0;stroke-dasharray:2.0,2.0;" x1="630" x2="1135" y1="1741.6484" y2="1741.6484"/><text fill="#000000" font-family="sans-serif" font-size="13" font-weight="bold" lengthAdjust="spacing" textLength="14" x="642" y="1736.792">45</text><text fill="#000000" font-family="sans-serif" font-size="13" lengthAdjust="spacing" textLength="67" x="660" y="1736.792">collaborator</text><polygon fill="#181818" points="440,1768,430,1772,440,1776,436,1772" style="stroke:#181818;stroke-width:1.0;"/><line style="stroke:#181818;stroke-width:1.0;stroke-dasharray:2.0,2.0;" x1="434" x2="619" y1="1772" y2="1772"/><text fill="#000000" font-family="sans-serif" font-size="13" font-weight="bold" lengthAdjust="spacing" textLength="14" x="446" y="1767.1436">46</text><text fill="#000000" font-family="sans-serif" font-size="13" lengthAdjust="spacing" textLength="49" x="464" y="1767.1436">success</text><polygon fill="#181818" points="34,1798.3516,24,1802.3516,34,1806.3516,30,1802.3516" style="stroke:#181818;stroke-width:1.0;"/><line style="stroke:#181818;stroke-width:1.0;stroke-dasharray:2.0,2.0;" x1="28" x2="423" y1="1802.3516" y2="1802.3516"/><text fill="#000000" font-family="sans-serif" font-size="13" font-weight="bold" lengthAdjust="spacing" textLength="14" x="40" y="1797.4951">47</text><text fill="#000000" font-family="sans-serif" font-size="13" lengthAdjust="spacing" textLength="349" x="58" y="1797.4951">shows success message (collaborator created successfully)</text><!--SRC=[pLTDSzem4BtxL-pa11du0nmoav2qfKCo6PfSEha8Um4LMt8bEIdzzLr9jf5iauzBsmksfFTsLxjFAwFtN9HCiG8AAMIwKx90CAh2HBSh9KltR8lVp257K9WQ9hPv2D0xbiaNBhQmORd6966LaQ8grgZeFJLImTcNrUqPC0tqJ8XbUCfB9WoSpLQuvTgWciiyPskf6E4V5mxyk7W7TYw5KJH6vJZpXzMonogbvWJbg1tcSoxNTZB6gG3s9Fgi- -NbGyn8Wp1Q-67s9EQ32pw-vTNgvZwsyyE7qzA_XcF7YX2TxONE6XSTo6MMATH-6_LxahZQy6Tcq5KbeH-ONb3IOKQulGOZ8LLerna8V85mkqSk5IaX3Z5jwi_FYUrPVfhchU4PAUTdXTfeo9XXC0gDGObAIy5ou68ZLS4CbsASP1Wv2UCpXn9rOn8pP_DKI3FOeh4PX2M9fskr7JZXs1_BQnG2ZhmGcaIVucXyXBSQQg7Jsf_Rwr4xeSEMrFYncl8-efg7Zfpi7Cuwg7SKwo7muD2DzGZLkj6XzTXGJ0WsH0kwcxsOwdrEBrnvXfBjyjihKIiFlPCl9BaTGav4a1ld4vZ8ZieXGMhCgGE15DWjPAIF6cRDaPbJRXklBC-zAYDlf4IIlDZmMf0dzJXhO3x-rxJO7exuC7LCnpdxXw8SxcDlgdEuB_PasZhqFR7D3Gr7WXKuWJLNPaVvf5TAiI7whLppd8POC9vFWFbcDe7Vl9pB32TF0b9k3XF8P5eLACm3TOe9y8nU-OQdhf9txcwox89hJHFNpWKfPGA6_IhP0PN7Z7iA3ehZExb_J2_e6JI__tC3Fk9mRCElIq2nFwFYcyCdJhTf5dNeyPkaEoxmcc-vqHyatjX4V91pPTFwGSvbcAlNk4FanK3wt-6_lckTBZIQUZXgY-uhNPS-CD7SqVKpC4M6th8opFBx-Ev1fqBl-JsQ27Kq1FFPOgV1BYKUsD5ayjhQtrnAsaYE7IbiqnruzrpLhI3kQ3jCz-ugoQeoj_gXxvPHzumEzvGcJ3lJFyKzRoxxOSVkL3aqMbz5fpSNzmdN-9BsZg_ls2fDExNktV43LtnDWu9-w6z5vqlGTy-iGMsgF3zqlmI34Hd-0m00]--></g></svg>