<?xml version="1.0" encoding="UTF-8" standalone="no"?><svg xmlns="http://www.w3.org/2000/svg" xmlns:xlink="http://www.w3.org/1999/xlink" contentStyleType="text/css" height="560px" preserveAspectRatio="none" style="width:820px;height:560px;background:#FFFFFF;" version="1.1" viewBox="0 0 820 560" width="820px" zoomAndPan="magnify"><defs/><g><!--class HRM--><g id="elem_HRM"><rect codeLine="5" fill="#F1F1F1" height="48" id="HRM" rx="2.5" ry="2.5" style="stroke:#181818;stroke-width:0.5;" width="62" x="65" y="33.5"/><ellipse cx="80" cy="49.5" fill="#ADD1B2" rx="11" ry="11" style="stroke:#181818;stroke-width:1.0;"/><path d="M82.7656,45.375 Q82.9219,45.1563 83.1094,45.0469 Q83.2969,44.9375 83.5156,44.9375 Q83.8906,44.9375 84.125,45.2031 Q84.3594,45.4531 84.3594,46.0625 L84.3594,47.5156 Q84.3594,48.125 84.125,48.3906 Q83.8906,48.6563 83.5156,48.6563 Q83.1719,48.6563 82.9688,48.4531 Q82.7656,48.2656 82.6563,47.75 Q82.6094,47.3906 82.4219,47.2031 Q82.0938,46.8281 81.4844,46.6094 Q80.875,46.3906 80.25,46.3906 Q79.4844,46.3906 78.8438,46.7188 Q78.2188,47.0469 77.7188,47.7969 Q77.2344,48.5469 77.2344,49.5781 L77.2344,50.6719 Q77.2344,51.9063 78.125,52.7344 Q79.0156,53.5469 80.6094,53.5469 Q81.5469,53.5469 82.2031,53.2969 Q82.5938,53.1406 83.0156,52.7031 Q83.2813,52.4375 83.4219,52.3594 Q83.5781,52.2813 83.7813,52.2813 Q84.1094,52.2813 84.3594,52.5469 Q84.625,52.7969 84.625,53.1406 Q84.625,53.4844 84.2813,53.8906 Q83.7813,54.4688 82.9844,54.7969 Q81.9063,55.25 80.6094,55.25 Q79.0938,55.25 77.8906,54.625 Q76.9063,54.125 76.2188,53.0625 Q75.5313,51.9844 75.5313,50.7031 L75.5313,49.5469 Q75.5313,48.2188 76.1406,47.0781 Q76.7656,45.9219 77.8594,45.3125 Q78.9531,44.6875 80.1875,44.6875 Q80.9219,44.6875 81.5625,44.8594 Q82.2188,45.0156 82.7656,45.375 Z " fill="#000000"/><text fill="#000000" font-family="sans-serif" font-size="14" lengthAdjust="spacing" textLength="30" x="94" y="55.2285">HRM</text><line style="stroke:#181818;stroke-width:0.5;" x1="66" x2="126" y1="65.5" y2="65.5"/><line style="stroke:#181818;stroke-width:0.5;" x1="66" x2="126" y1="73.5" y2="73.5"/></g><!--class RegisterCollaboratorUI--><g id="elem_RegisterCollaboratorUI"><rect codeLine="8" fill="#F1F1F1" height="48" id="RegisterCollaboratorUI" rx="2.5" ry="2.5" style="stroke:#181818;stroke-width:0.5;" width="175" x="162.5" y="33.5"/><ellipse cx="177.5" cy="49.5" fill="#ADD1B2" rx="11" ry="11" style="stroke:#181818;stroke-width:1.0;"/><path d="M180.2656,45.375 Q180.4219,45.1563 180.6094,45.0469 Q180.7969,44.9375 181.0156,44.9375 Q181.3906,44.9375 181.625,45.2031 Q181.8594,45.4531 181.8594,46.0625 L181.8594,47.5156 Q181.8594,48.125 181.625,48.3906 Q181.3906,48.6563 181.0156,48.6563 Q180.6719,48.6563 180.4688,48.4531 Q180.2656,48.2656 180.1563,47.75 Q180.1094,47.3906 179.9219,47.2031 Q179.5938,46.8281 178.9844,46.6094 Q178.375,46.3906 177.75,46.3906 Q176.9844,46.3906 176.3438,46.7188 Q175.7188,47.0469 175.2188,47.7969 Q174.7344,48.5469 174.7344,49.5781 L174.7344,50.6719 Q174.7344,51.9063 175.625,52.7344 Q176.5156,53.5469 178.1094,53.5469 Q179.0469,53.5469 179.7031,53.2969 Q180.0938,53.1406 180.5156,52.7031 Q180.7813,52.4375 180.9219,52.3594 Q181.0781,52.2813 181.2813,52.2813 Q181.6094,52.2813 181.8594,52.5469 Q182.125,52.7969 182.125,53.1406 Q182.125,53.4844 181.7813,53.8906 Q181.2813,54.4688 180.4844,54.7969 Q179.4063,55.25 178.1094,55.25 Q176.5938,55.25 175.3906,54.625 Q174.4063,54.125 173.7188,53.0625 Q173.0313,51.9844 173.0313,50.7031 L173.0313,49.5469 Q173.0313,48.2188 173.6406,47.0781 Q174.2656,45.9219 175.3594,45.3125 Q176.4531,44.6875 177.6875,44.6875 Q178.4219,44.6875 179.0625,44.8594 Q179.7188,45.0156 180.2656,45.375 Z " fill="#000000"/><text fill="#000000" font-family="sans-serif" font-size="14" lengthAdjust="spacing" textLength="143" x="191.5" y="55.2285">RegisterCollaboratorUI</text><line style="stroke:#181818;stroke-width:0.5;" x1="163.5" x2="336.5" y1="65.5" y2="65.5"/><line style="stroke:#181818;stroke-width:0.5;" x1="163.5" x2="336.5" y1="73.5" y2="73.5"/></g><!--class RegisterCollaboratorController--><g id="elem_RegisterCollaboratorController"><rect codeLine="11" fill="#F1F1F1" height="100.8281" id="RegisterCollaboratorController" rx="2.5" ry="2.5" style="stroke:#181818;stroke-width:0.5;" width="225" x="372.5" y="7"/><ellipse cx="387.5" cy="23" fill="#ADD1B2" rx="11" ry="11" style="stroke:#181818;stroke-width:1.0;"/><path d="M390.2656,18.875 Q390.4219,18.6563 390.6094,18.5469 Q390.7969,18.4375 391.0156,18.4375 Q391.3906,18.4375 391.625,18.7031 Q391.8594,18.9531 391.8594,19.5625 L391.8594,21.0156 Q391.8594,21.625 391.625,21.8906 Q391.3906,22.1563 391.0156,22.1563 Q390.6719,22.1563 390.4688,21.9531 Q390.2656,21.7656 390.1563,21.25 Q390.1094,20.8906 389.9219,20.7031 Q389.5938,20.3281 388.9844,20.1094 Q388.375,19.8906 387.75,19.8906 Q386.9844,19.8906 386.3438,20.2188 Q385.7188,20.5469 385.2188,21.2969 Q384.7344,22.0469 384.7344,23.0781 L384.7344,24.1719 Q384.7344,25.4063 385.625,26.2344 Q386.5156,27.0469 388.1094,27.0469 Q389.0469,27.0469 389.7031,26.7969 Q390.0938,26.6406 390.5156,26.2031 Q390.7813,25.9375 390.9219,25.8594 Q391.0781,25.7813 391.2813,25.7813 Q391.6094,25.7813 391.8594,26.0469 Q392.125,26.2969 392.125,26.6406 Q392.125,26.9844 391.7813,27.3906 Q391.2813,27.9688 390.4844,28.2969 Q389.4063,28.75 388.1094,28.75 Q386.5938,28.75 385.3906,28.125 Q384.4063,27.625 383.7188,26.5625 Q383.0313,25.4844 383.0313,24.2031 L383.0313,23.0469 Q383.0313,21.7188 383.6406,20.5781 Q384.2656,19.4219 385.3594,18.8125 Q386.4531,18.1875 387.6875,18.1875 Q388.4219,18.1875 389.0625,18.3594 Q389.7188,18.5156 390.2656,18.875 Z " fill="#000000"/><text fill="#000000" font-family="sans-serif" font-size="14" lengthAdjust="spacing" textLength="193" x="401.5" y="28.7285">RegisterCollaboratorController</text><line style="stroke:#181818;stroke-width:0.5;" x1="373.5" x2="596.5" y1="39" y2="39"/><line style="stroke:#181818;stroke-width:0.5;" x1="373.5" x2="596.5" y1="47" y2="47"/><ellipse cx="383.5" cy="61.3047" fill="#84BE84" rx="3" ry="3" style="stroke:#038048;stroke-width:1.0;"/><text fill="#000000" font-family="sans-serif" font-size="14" lengthAdjust="spacing" textLength="128" x="392.5" y="65.5332">createCollaborator()</text><ellipse cx="383.5" cy="78.9141" fill="#84BE84" rx="3" ry="3" style="stroke:#038048;stroke-width:1.0;"/><text fill="#000000" font-family="sans-serif" font-size="14" lengthAdjust="spacing" textLength="73" x="392.5" y="83.1426">assignJob()</text><ellipse cx="383.5" cy="96.5234" fill="#84BE84" rx="3" ry="3" style="stroke:#038048;stroke-width:1.0;"/><text fill="#000000" font-family="sans-serif" font-size="14" lengthAdjust="spacing" textLength="83" x="392.5" y="100.752">assignSkills()</text></g><!--class Repositories--><g id="elem_Repositories"><rect codeLine="17" fill="#F1F1F1" height="65.6094" id="Repositories" rx="2.5" ry="2.5" style="stroke:#181818;stroke-width:0.5;" width="111" x="632.5" y="24.5"/><ellipse cx="647.5" cy="40.5" fill="#ADD1B2" rx="11" ry="11" style="stroke:#181818;stroke-width:1.0;"/><path d="M650.2656,36.375 Q650.4219,36.1563 650.6094,36.0469 Q650.7969,35.9375 651.0156,35.9375 Q651.3906,35.9375 651.625,36.2031 Q651.8594,36.4531 651.8594,37.0625 L651.8594,38.5156 Q651.8594,39.125 651.625,39.3906 Q651.3906,39.6563 651.0156,39.6563 Q650.6719,39.6563 650.4688,39.4531 Q650.2656,39.2656 650.1563,38.75 Q650.1094,38.3906 649.9219,38.2031 Q649.5938,37.8281 648.9844,37.6094 Q648.375,37.3906 647.75,37.3906 Q646.9844,37.3906 646.3438,37.7188 Q645.7188,38.0469 645.2188,38.7969 Q644.7344,39.5469 644.7344,40.5781 L644.7344,41.6719 Q644.7344,42.9063 645.625,43.7344 Q646.5156,44.5469 648.1094,44.5469 Q649.0469,44.5469 649.7031,44.2969 Q650.0938,44.1406 650.5156,43.7031 Q650.7813,43.4375 650.9219,43.3594 Q651.0781,43.2813 651.2813,43.2813 Q651.6094,43.2813 651.8594,43.5469 Q652.125,43.7969 652.125,44.1406 Q652.125,44.4844 651.7813,44.8906 Q651.2813,45.4688 650.4844,45.7969 Q649.4063,46.25 648.1094,46.25 Q646.5938,46.25 645.3906,45.625 Q644.4063,45.125 643.7188,44.0625 Q643.0313,42.9844 643.0313,41.7031 L643.0313,40.5469 Q643.0313,39.2188 643.6406,38.0781 Q644.2656,36.9219 645.3594,36.3125 Q646.4531,35.6875 647.6875,35.6875 Q648.4219,35.6875 649.0625,35.8594 Q649.7188,36.0156 650.2656,36.375 Z " fill="#000000"/><text fill="#000000" font-family="sans-serif" font-size="14" lengthAdjust="spacing" textLength="79" x="661.5" y="46.2285">Repositories</text><line style="stroke:#181818;stroke-width:0.5;" x1="633.5" x2="742.5" y1="56.5" y2="56.5"/><line style="stroke:#181818;stroke-width:0.5;" x1="633.5" x2="742.5" y1="64.5" y2="64.5"/><ellipse cx="643.5" cy="78.8047" fill="#84BE84" rx="3" ry="3" style="stroke:#038048;stroke-width:1.0;"/><text fill="#000000" font-family="sans-serif" font-size="14" lengthAdjust="spacing" textLength="83" x="652.5" y="83.0332">getInstance()</text></g><!--class CollaboratorRepository--><g id="elem_CollaboratorRepository"><rect codeLine="21" fill="#F1F1F1" height="83.2188" id="CollaboratorRepository" rx="2.5" ry="2.5" style="stroke:#181818;stroke-width:0.5;" width="178" x="7" y="247.5"/><ellipse cx="22" cy="263.5" fill="#ADD1B2" rx="11" ry="11" style="stroke:#181818;stroke-width:1.0;"/><path d="M24.7656,259.375 Q24.9219,259.1563 25.1094,259.0469 Q25.2969,258.9375 25.5156,258.9375 Q25.8906,258.9375 26.125,259.2031 Q26.3594,259.4531 26.3594,260.0625 L26.3594,261.5156 Q26.3594,262.125 26.125,262.3906 Q25.8906,262.6563 25.5156,262.6563 Q25.1719,262.6563 24.9688,262.4531 Q24.7656,262.2656 24.6563,261.75 Q24.6094,261.3906 24.4219,261.2031 Q24.0938,260.8281 23.4844,260.6094 Q22.875,260.3906 22.25,260.3906 Q21.4844,260.3906 20.8438,260.7188 Q20.2188,261.0469 19.7188,261.7969 Q19.2344,262.5469 19.2344,263.5781 L19.2344,264.6719 Q19.2344,265.9063 20.125,266.7344 Q21.0156,267.5469 22.6094,267.5469 Q23.5469,267.5469 24.2031,267.2969 Q24.5938,267.1406 25.0156,266.7031 Q25.2813,266.4375 25.4219,266.3594 Q25.5781,266.2813 25.7813,266.2813 Q26.1094,266.2813 26.3594,266.5469 Q26.625,266.7969 26.625,267.1406 Q26.625,267.4844 26.2813,267.8906 Q25.7813,268.4688 24.9844,268.7969 Q23.9063,269.25 22.6094,269.25 Q21.0938,269.25 19.8906,268.625 Q18.9063,268.125 18.2188,267.0625 Q17.5313,265.9844 17.5313,264.7031 L17.5313,263.5469 Q17.5313,262.2188 18.1406,261.0781 Q18.7656,259.9219 19.8594,259.3125 Q20.9531,258.6875 22.1875,258.6875 Q22.9219,258.6875 23.5625,258.8594 Q24.2188,259.0156 24.7656,259.375 Z " fill="#000000"/><text fill="#000000" font-family="sans-serif" font-size="14" lengthAdjust="spacing" textLength="146" x="36" y="269.2285">CollaboratorRepository</text><line style="stroke:#181818;stroke-width:0.5;" x1="8" x2="184" y1="279.5" y2="279.5"/><line style="stroke:#181818;stroke-width:0.5;" x1="8" x2="184" y1="287.5" y2="287.5"/><ellipse cx="18" cy="301.8047" fill="#84BE84" rx="3" ry="3" style="stroke:#038048;stroke-width:1.0;"/><text fill="#000000" font-family="sans-serif" font-size="14" lengthAdjust="spacing" textLength="128" x="27" y="306.0332">createCollaborator()</text><ellipse cx="18" cy="319.4141" fill="#84BE84" rx="3" ry="3" style="stroke:#038048;stroke-width:1.0;"/><text fill="#000000" font-family="sans-serif" font-size="14" lengthAdjust="spacing" textLength="135" x="27" y="323.6426">checkForDuplicates()</text></g><!--class JobRepository--><g id="elem_JobRepository"><rect codeLine="26" fill="#F1F1F1" height="65.6094" id="JobRepository" rx="2.5" ry="2.5" style="stroke:#181818;stroke-width:0.5;" width="122" x="220" y="256"/><ellipse cx="235" cy="272" fill="#ADD1B2" rx="11" ry="11" style="stroke:#181818;stroke-width:1.0;"/><path d="M237.7656,267.875 Q237.9219,267.6563 238.1094,267.5469 Q238.2969,267.4375 238.5156,267.4375 Q238.8906,267.4375 239.125,267.7031 Q239.3594,267.9531 239.3594,268.5625 L239.3594,270.0156 Q239.3594,270.625 239.125,270.8906 Q238.8906,271.1563 238.5156,271.1563 Q238.1719,271.1563 237.9688,270.9531 Q237.7656,270.7656 237.6563,270.25 Q237.6094,269.8906 237.4219,269.7031 Q237.0938,269.3281 236.4844,269.1094 Q235.875,268.8906 235.25,268.8906 Q234.4844,268.8906 233.8438,269.2188 Q233.2188,269.5469 232.7188,270.2969 Q232.2344,271.0469 232.2344,272.0781 L232.2344,273.1719 Q232.2344,274.4063 233.125,275.2344 Q234.0156,276.0469 235.6094,276.0469 Q236.5469,276.0469 237.2031,275.7969 Q237.5938,275.6406 238.0156,275.2031 Q238.2813,274.9375 238.4219,274.8594 Q238.5781,274.7813 238.7813,274.7813 Q239.1094,274.7813 239.3594,275.0469 Q239.625,275.2969 239.625,275.6406 Q239.625,275.9844 239.2813,276.3906 Q238.7813,276.9688 237.9844,277.2969 Q236.9063,277.75 235.6094,277.75 Q234.0938,277.75 232.8906,277.125 Q231.9063,276.625 231.2188,275.5625 Q230.5313,274.4844 230.5313,273.2031 L230.5313,272.0469 Q230.5313,270.7188 231.1406,269.5781 Q231.7656,268.4219 232.8594,267.8125 Q233.9531,267.1875 235.1875,267.1875 Q235.9219,267.1875 236.5625,267.3594 Q237.2188,267.5156 237.7656,267.875 Z " fill="#000000"/><text fill="#000000" font-family="sans-serif" font-size="14" lengthAdjust="spacing" textLength="90" x="249" y="277.7285">JobRepository</text><line style="stroke:#181818;stroke-width:0.5;" x1="221" x2="341" y1="288" y2="288"/><line style="stroke:#181818;stroke-width:0.5;" x1="221" x2="341" y1="296" y2="296"/><ellipse cx="231" cy="310.3047" fill="#84BE84" rx="3" ry="3" style="stroke:#038048;stroke-width:1.0;"/><text fill="#000000" font-family="sans-serif" font-size="14" lengthAdjust="spacing" textLength="59" x="240" y="314.5332">getJobs()</text></g><!--class SkillsRepository--><g id="elem_SkillsRepository"><rect codeLine="30" fill="#F1F1F1" height="65.6094" id="SkillsRepository" rx="2.5" ry="2.5" style="stroke:#181818;stroke-width:0.5;" width="132" x="377" y="256"/><ellipse cx="392" cy="272" fill="#ADD1B2" rx="11" ry="11" style="stroke:#181818;stroke-width:1.0;"/><path d="M394.7656,267.875 Q394.9219,267.6563 395.1094,267.5469 Q395.2969,267.4375 395.5156,267.4375 Q395.8906,267.4375 396.125,267.7031 Q396.3594,267.9531 396.3594,268.5625 L396.3594,270.0156 Q396.3594,270.625 396.125,270.8906 Q395.8906,271.1563 395.5156,271.1563 Q395.1719,271.1563 394.9688,270.9531 Q394.7656,270.7656 394.6563,270.25 Q394.6094,269.8906 394.4219,269.7031 Q394.0938,269.3281 393.4844,269.1094 Q392.875,268.8906 392.25,268.8906 Q391.4844,268.8906 390.8438,269.2188 Q390.2188,269.5469 389.7188,270.2969 Q389.2344,271.0469 389.2344,272.0781 L389.2344,273.1719 Q389.2344,274.4063 390.125,275.2344 Q391.0156,276.0469 392.6094,276.0469 Q393.5469,276.0469 394.2031,275.7969 Q394.5938,275.6406 395.0156,275.2031 Q395.2813,274.9375 395.4219,274.8594 Q395.5781,274.7813 395.7813,274.7813 Q396.1094,274.7813 396.3594,275.0469 Q396.625,275.2969 396.625,275.6406 Q396.625,275.9844 396.2813,276.3906 Q395.7813,276.9688 394.9844,277.2969 Q393.9063,277.75 392.6094,277.75 Q391.0938,277.75 389.8906,277.125 Q388.9063,276.625 388.2188,275.5625 Q387.5313,274.4844 387.5313,273.2031 L387.5313,272.0469 Q387.5313,270.7188 388.1406,269.5781 Q388.7656,268.4219 389.8594,267.8125 Q390.9531,267.1875 392.1875,267.1875 Q392.9219,267.1875 393.5625,267.3594 Q394.2188,267.5156 394.7656,267.875 Z " fill="#000000"/><text fill="#000000" font-family="sans-serif" font-size="14" lengthAdjust="spacing" textLength="100" x="406" y="277.7285">SkillsRepository</text><line style="stroke:#181818;stroke-width:0.5;" x1="378" x2="508" y1="288" y2="288"/><line style="stroke:#181818;stroke-width:0.5;" x1="378" x2="508" y1="296" y2="296"/><ellipse cx="388" cy="310.3047" fill="#84BE84" rx="3" ry="3" style="stroke:#038048;stroke-width:1.0;"/><text fill="#000000" font-family="sans-serif" font-size="14" lengthAdjust="spacing" textLength="62" x="397" y="314.5332">getSkills()</text></g><!--class Collaborator--><g id="elem_Collaborator"><rect codeLine="34" fill="#F1F1F1" height="241.7031" id="Collaborator" rx="2.5" ry="2.5" style="stroke:#181818;stroke-width:0.5;" width="269" x="544.5" y="168"/><ellipse cx="635.75" cy="184" fill="#ADD1B2" rx="11" ry="11" style="stroke:#181818;stroke-width:1.0;"/><path d="M638.5156,179.875 Q638.6719,179.6563 638.8594,179.5469 Q639.0469,179.4375 639.2656,179.4375 Q639.6406,179.4375 639.875,179.7031 Q640.1094,179.9531 640.1094,180.5625 L640.1094,182.0156 Q640.1094,182.625 639.875,182.8906 Q639.6406,183.1563 639.2656,183.1563 Q638.9219,183.1563 638.7188,182.9531 Q638.5156,182.7656 638.4063,182.25 Q638.3594,181.8906 638.1719,181.7031 Q637.8438,181.3281 637.2344,181.1094 Q636.625,180.8906 636,180.8906 Q635.2344,180.8906 634.5938,181.2188 Q633.9688,181.5469 633.4688,182.2969 Q632.9844,183.0469 632.9844,184.0781 L632.9844,185.1719 Q632.9844,186.4063 633.875,187.2344 Q634.7656,188.0469 636.3594,188.0469 Q637.2969,188.0469 637.9531,187.7969 Q638.3438,187.6406 638.7656,187.2031 Q639.0313,186.9375 639.1719,186.8594 Q639.3281,186.7813 639.5313,186.7813 Q639.8594,186.7813 640.1094,187.0469 Q640.375,187.2969 640.375,187.6406 Q640.375,187.9844 640.0313,188.3906 Q639.5313,188.9688 638.7344,189.2969 Q637.6563,189.75 636.3594,189.75 Q634.8438,189.75 633.6406,189.125 Q632.6563,188.625 631.9688,187.5625 Q631.2813,186.4844 631.2813,185.2031 L631.2813,184.0469 Q631.2813,182.7188 631.8906,181.5781 Q632.5156,180.4219 633.6094,179.8125 Q634.7031,179.1875 635.9375,179.1875 Q636.6719,179.1875 637.3125,179.3594 Q637.9688,179.5156 638.5156,179.875 Z " fill="#000000"/><text fill="#000000" font-family="sans-serif" font-size="14" lengthAdjust="spacing" textLength="78" x="656.25" y="189.7285">Collaborator</text><line style="stroke:#181818;stroke-width:0.5;" x1="545.5" x2="812.5" y1="200" y2="200"/><rect fill="none" height="6" style="stroke:#C82930;stroke-width:1.0;" width="6" x="552.5" y="211.3047"/><text fill="#000000" font-family="sans-serif" font-size="14" lengthAdjust="spacing" textLength="80" x="564.5" y="218.5332">name: String</text><rect fill="none" height="6" style="stroke:#C82930;stroke-width:1.0;" width="6" x="552.5" y="228.9141"/><text fill="#000000" font-family="sans-serif" font-size="14" lengthAdjust="spacing" textLength="94" x="564.5" y="236.1426">birthdate: Date</text><rect fill="none" height="6" style="stroke:#C82930;stroke-width:1.0;" width="6" x="552.5" y="246.5234"/><text fill="#000000" font-family="sans-serif" font-size="14" lengthAdjust="spacing" textLength="132" x="564.5" y="253.752">contactMobile: String</text><rect fill="none" height="6" style="stroke:#C82930;stroke-width:1.0;" width="6" x="552.5" y="264.1328"/><text fill="#000000" font-family="sans-serif" font-size="14" lengthAdjust="spacing" textLength="78" x="564.5" y="271.3613">email: String</text><rect fill="none" height="6" style="stroke:#C82930;stroke-width:1.0;" width="6" x="552.5" y="281.7422"/><text fill="#000000" font-family="sans-serif" font-size="14" lengthAdjust="spacing" textLength="96" x="564.5" y="288.9707">address: String</text><rect fill="none" height="6" style="stroke:#C82930;stroke-width:1.0;" width="6" x="552.5" y="299.3516"/><text fill="#000000" font-family="sans-serif" font-size="14" lengthAdjust="spacing" textLength="96" x="564.5" y="306.5801">zipCode: String</text><rect fill="none" height="6" style="stroke:#C82930;stroke-width:1.0;" width="6" x="552.5" y="316.9609"/><text fill="#000000" font-family="sans-serif" font-size="14" lengthAdjust="spacing" textLength="66" x="564.5" y="324.1895">city: String</text><rect fill="none" height="6" style="stroke:#C82930;stroke-width:1.0;" width="6" x="552.5" y="334.5703"/><text fill="#000000" font-family="sans-serif" font-size="14" lengthAdjust="spacing" textLength="243" x="564.5" y="341.7988">documentTypes: List&lt;DocumentType&gt;</text><rect fill="none" height="6" style="stroke:#C82930;stroke-width:1.0;" width="6" x="552.5" y="352.1797"/><text fill="#000000" font-family="sans-serif" font-size="14" lengthAdjust="spacing" textLength="131" x="564.5" y="359.4082">admissionDate: Date</text><rect fill="none" height="6" style="stroke:#C82930;stroke-width:1.0;" width="6" x="552.5" y="369.7891"/><text fill="#000000" font-family="sans-serif" font-size="14" lengthAdjust="spacing" textLength="49" x="564.5" y="377.0176">job: Job</text><rect fill="none" height="6" style="stroke:#C82930;stroke-width:1.0;" width="6" x="552.5" y="387.3984"/><text fill="#000000" font-family="sans-serif" font-size="14" lengthAdjust="spacing" textLength="101" x="564.5" y="394.627">skills: List&lt;Skill&gt;</text><line style="stroke:#181818;stroke-width:0.5;" x1="545.5" x2="812.5" y1="401.7031" y2="401.7031"/></g><!--class Job--><g id="elem_Job"><rect codeLine="48" fill="#F1F1F1" height="83.2188" id="Job" rx="2.5" ry="2.5" style="stroke:#181818;stroke-width:0.5;" width="140" x="26" y="470"/><ellipse cx="80.75" cy="486" fill="#ADD1B2" rx="11" ry="11" style="stroke:#181818;stroke-width:1.0;"/><path d="M83.5156,481.875 Q83.6719,481.6563 83.8594,481.5469 Q84.0469,481.4375 84.2656,481.4375 Q84.6406,481.4375 84.875,481.7031 Q85.1094,481.9531 85.1094,482.5625 L85.1094,484.0156 Q85.1094,484.625 84.875,484.8906 Q84.6406,485.1563 84.2656,485.1563 Q83.9219,485.1563 83.7188,484.9531 Q83.5156,484.7656 83.4063,484.25 Q83.3594,483.8906 83.1719,483.7031 Q82.8438,483.3281 82.2344,483.1094 Q81.625,482.8906 81,482.8906 Q80.2344,482.8906 79.5938,483.2188 Q78.9688,483.5469 78.4688,484.2969 Q77.9844,485.0469 77.9844,486.0781 L77.9844,487.1719 Q77.9844,488.4063 78.875,489.2344 Q79.7656,490.0469 81.3594,490.0469 Q82.2969,490.0469 82.9531,489.7969 Q83.3438,489.6406 83.7656,489.2031 Q84.0313,488.9375 84.1719,488.8594 Q84.3281,488.7813 84.5313,488.7813 Q84.8594,488.7813 85.1094,489.0469 Q85.375,489.2969 85.375,489.6406 Q85.375,489.9844 85.0313,490.3906 Q84.5313,490.9688 83.7344,491.2969 Q82.6563,491.75 81.3594,491.75 Q79.8438,491.75 78.6406,491.125 Q77.6563,490.625 76.9688,489.5625 Q76.2813,488.4844 76.2813,487.2031 L76.2813,486.0469 Q76.2813,484.7188 76.8906,483.5781 Q77.5156,482.4219 78.6094,481.8125 Q79.7031,481.1875 80.9375,481.1875 Q81.6719,481.1875 82.3125,481.3594 Q82.9688,481.5156 83.5156,481.875 Z " fill="#000000"/><text fill="#000000" font-family="sans-serif" font-size="14" lengthAdjust="spacing" textLength="22" x="101.25" y="491.7285">Job</text><line style="stroke:#181818;stroke-width:0.5;" x1="27" x2="165" y1="502" y2="502"/><rect fill="none" height="6" style="stroke:#C82930;stroke-width:1.0;" width="6" x="34" y="513.3047"/><text fill="#000000" font-family="sans-serif" font-size="14" lengthAdjust="spacing" textLength="67" x="46" y="520.5332">title: String</text><rect fill="none" height="6" style="stroke:#C82930;stroke-width:1.0;" width="6" x="34" y="530.9141"/><text fill="#000000" font-family="sans-serif" font-size="14" lengthAdjust="spacing" textLength="114" x="46" y="538.1426">description: String</text><line style="stroke:#181818;stroke-width:0.5;" x1="27" x2="165" y1="545.2188" y2="545.2188"/></g><!--class Skill--><g id="elem_Skill"><rect codeLine="53" fill="#F1F1F1" height="65.6094" id="Skill" rx="2.5" ry="2.5" style="stroke:#181818;stroke-width:0.5;" width="106" x="201" y="478.5"/><ellipse cx="238.05" cy="494.5" fill="#ADD1B2" rx="11" ry="11" style="stroke:#181818;stroke-width:1.0;"/><path d="M240.8156,490.375 Q240.9719,490.1563 241.1594,490.0469 Q241.3469,489.9375 241.5656,489.9375 Q241.9406,489.9375 242.175,490.2031 Q242.4094,490.4531 242.4094,491.0625 L242.4094,492.5156 Q242.4094,493.125 242.175,493.3906 Q241.9406,493.6563 241.5656,493.6563 Q241.2219,493.6563 241.0188,493.4531 Q240.8156,493.2656 240.7063,492.75 Q240.6594,492.3906 240.4719,492.2031 Q240.1438,491.8281 239.5344,491.6094 Q238.925,491.3906 238.3,491.3906 Q237.5344,491.3906 236.8938,491.7188 Q236.2688,492.0469 235.7688,492.7969 Q235.2844,493.5469 235.2844,494.5781 L235.2844,495.6719 Q235.2844,496.9063 236.175,497.7344 Q237.0656,498.5469 238.6594,498.5469 Q239.5969,498.5469 240.2531,498.2969 Q240.6438,498.1406 241.0656,497.7031 Q241.3313,497.4375 241.4719,497.3594 Q241.6281,497.2813 241.8313,497.2813 Q242.1594,497.2813 242.4094,497.5469 Q242.675,497.7969 242.675,498.1406 Q242.675,498.4844 242.3313,498.8906 Q241.8313,499.4688 241.0344,499.7969 Q239.9563,500.25 238.6594,500.25 Q237.1438,500.25 235.9406,499.625 Q234.9563,499.125 234.2688,498.0625 Q233.5813,496.9844 233.5813,495.7031 L233.5813,494.5469 Q233.5813,493.2188 234.1906,492.0781 Q234.8156,490.9219 235.9094,490.3125 Q237.0031,489.6875 238.2375,489.6875 Q238.9719,489.6875 239.6125,489.8594 Q240.2688,490.0156 240.8156,490.375 Z " fill="#000000"/><text fill="#000000" font-family="sans-serif" font-size="14" lengthAdjust="spacing" textLength="25" x="256.95" y="500.2285">Skill</text><line style="stroke:#181818;stroke-width:0.5;" x1="202" x2="306" y1="510.5" y2="510.5"/><rect fill="none" height="6" style="stroke:#C82930;stroke-width:1.0;" width="6" x="209" y="521.8047"/><text fill="#000000" font-family="sans-serif" font-size="14" lengthAdjust="spacing" textLength="80" x="221" y="529.0332">name: String</text><line style="stroke:#181818;stroke-width:0.5;" x1="202" x2="306" y1="536.1094" y2="536.1094"/></g><!--class DocumentType--><g id="elem_DocumentType"><rect codeLine="57" fill="#F1F1F1" height="65.6094" id="DocumentType" rx="2.5" ry="2.5" style="stroke:#181818;stroke-width:0.5;" width="184" x="342" y="478.5"/><ellipse cx="382.2" cy="494.5" fill="#ADD1B2" rx="11" ry="11" style="stroke:#181818;stroke-width:1.0;"/><path d="M384.9656,490.375 Q385.1219,490.1563 385.3094,490.0469 Q385.4969,489.9375 385.7156,489.9375 Q386.0906,489.9375 386.325,490.2031 Q386.5594,490.4531 386.5594,491.0625 L386.5594,492.5156 Q386.5594,493.125 386.325,493.3906 Q386.0906,493.6563 385.7156,493.6563 Q385.3719,493.6563 385.1688,493.4531 Q384.9656,493.2656 384.8563,492.75 Q384.8094,492.3906 384.6219,492.2031 Q384.2938,491.8281 383.6844,491.6094 Q383.075,491.3906 382.45,491.3906 Q381.6844,491.3906 381.0438,491.7188 Q380.4188,492.0469 379.9188,492.7969 Q379.4344,493.5469 379.4344,494.5781 L379.4344,495.6719 Q379.4344,496.9063 380.325,497.7344 Q381.2156,498.5469 382.8094,498.5469 Q383.7469,498.5469 384.4031,498.2969 Q384.7938,498.1406 385.2156,497.7031 Q385.4813,497.4375 385.6219,497.3594 Q385.7781,497.2813 385.9813,497.2813 Q386.3094,497.2813 386.5594,497.5469 Q386.825,497.7969 386.825,498.1406 Q386.825,498.4844 386.4813,498.8906 Q385.9813,499.4688 385.1844,499.7969 Q384.1063,500.25 382.8094,500.25 Q381.2938,500.25 380.0906,499.625 Q379.1063,499.125 378.4188,498.0625 Q377.7313,496.9844 377.7313,495.7031 L377.7313,494.5469 Q377.7313,493.2188 378.3406,492.0781 Q378.9656,490.9219 380.0594,490.3125 Q381.1531,489.6875 382.3875,489.6875 Q383.1219,489.6875 383.7625,489.8594 Q384.4188,490.0156 384.9656,490.375 Z " fill="#000000"/><text fill="#000000" font-family="sans-serif" font-size="14" lengthAdjust="spacing" textLength="96" x="401.8" y="500.2285">DocumentType</text><line style="stroke:#181818;stroke-width:0.5;" x1="343" x2="525" y1="510.5" y2="510.5"/><rect fill="none" height="6" style="stroke:#C82930;stroke-width:1.0;" width="6" x="350" y="521.8047"/><text fill="#000000" font-family="sans-serif" font-size="14" lengthAdjust="spacing" textLength="158" x="362" y="529.0332">identificationCode: String</text><line style="stroke:#181818;stroke-width:0.5;" x1="343" x2="525" y1="536.1094" y2="536.1094"/></g><!--SRC=[ZLB1JiCm3BttAt848NvWGhjiGWonomOVa2PUPvecKUm95RH_nnibIhj9q4CbFp_Rpy-X5dtKINSgQjFg1hRSEr0936lVEAWe4sYlRVX0twYTTbHc77hWFeAAmVMdeAgCqqJgQRDMNzNnDzn0WyIG5i4vNOUaEQItrL-CHV2S98OaJ2NVdJ89D4D9khaTKj856_ySwWcoRT4v4h2O5GEXr29Gxjm0hpp9xWPARZagr_N_qMFsODh7a9Q7wD08QwH1T5vf9o8aCIB-oB_ElLojL38mxvNN7SpKbfESS81gJBot8cgcbl8VK2E6QyFhKAERLa2dqKqmRMq2eWdwYN4HxBJU8FSJo0PpwC3pgxmWQV8Y3-1XMM3pFAP3EMNmowdWzr3FJbOE8Ptz63gTpPcF7C-ECFB5WXR898miSt9cV8NhXcPEAJrJqGg2kzC3aCOZNuxLDm00]--></g></svg>