<?xml version="1.0" encoding="UTF-8" standalone="no"?><svg xmlns="http://www.w3.org/2000/svg" xmlns:xlink="http://www.w3.org/1999/xlink" contentStyleType="text/css" height="1193px" preserveAspectRatio="none" style="width:1629px;height:1193px;background:#FFFFFF;" version="1.1" viewBox="0 0 1629 1193" width="1629px" zoomAndPan="magnify"><defs/><g><rect fill="#FFFFFF" height="1056.0703" style="stroke:#181818;stroke-width:1.0;" width="10" x="22" y="65.2188"/><rect fill="#FFFFFF" height="166.3672" style="stroke:#181818;stroke-width:1.0;" width="10" x="489" y="87.5703"/><rect fill="#FFFFFF" height="91.0547" style="stroke:#181818;stroke-width:1.0;" width="10" x="489" y="587.3828"/><rect fill="#FFFFFF" height="91.0547" style="stroke:#181818;stroke-width:1.0;" width="10" x="489" y="862.3828"/><rect fill="#FFFFFF" height="30.3516" style="stroke:#181818;stroke-width:1.0;" width="10" x="489" y="1090.9375"/><rect fill="#FFFFFF" height="93.1484" style="stroke:#181818;stroke-width:1.0;" width="10" x="925" y="253.9375"/><rect fill="#FFFFFF" height="76.7969" style="stroke:#181818;stroke-width:1.0;" width="10" x="925" y="510.5859"/><rect fill="#FFFFFF" height="30.3516" style="stroke:#181818;stroke-width:1.0;" width="10" x="925" y="678.4375"/><rect fill="#FFFFFF" height="76.7969" style="stroke:#181818;stroke-width:1.0;" width="10" x="925" y="785.5859"/><rect fill="#FFFFFF" height="30.3516" style="stroke:#181818;stroke-width:1.0;" width="10" x="925" y="953.4375"/><rect fill="#FFFFFF" height="30.3516" style="stroke:#181818;stroke-width:1.0;" width="10" x="925" y="1060.5859"/><rect fill="#FFFFFF" height="163.5" style="stroke:#181818;stroke-width:1.0;" width="10" x="1366" y="347.0859"/><rect fill="#FFFFFF" height="163.5" style="stroke:#181818;stroke-width:1.0;" width="10" x="1366" y="347.0859"/><rect fill="#FFFFFF" height="41.3516" style="stroke:#181818;stroke-width:1.0;" width="10" x="1371" y="431.8828"/><rect fill="#FFFFFF" height="76.7969" style="stroke:#181818;stroke-width:1.0;" width="10" x="1361" y="708.7891"/><rect fill="#FFFFFF" height="76.7969" style="stroke:#181818;stroke-width:1.0;" width="10" x="1361" y="983.7891"/><line style="stroke:#181818;stroke-width:0.5;stroke-dasharray:5.0,5.0;" x1="27" x2="27" y1="55.2188" y2="1139.2891"/><line style="stroke:#181818;stroke-width:0.5;stroke-dasharray:5.0,5.0;" x1="493.5" x2="493.5" y1="55.2188" y2="1139.2891"/><line style="stroke:#181818;stroke-width:0.5;stroke-dasharray:5.0,5.0;" x1="929.5" x2="929.5" y1="126.875" y2="1139.2891"/><line style="stroke:#181818;stroke-width:0.5;stroke-dasharray:5.0,5.0;" x1="1093.5" x2="1093.5" y1="55.2188" y2="1139.2891"/><line style="stroke:#181818;stroke-width:0.5;stroke-dasharray:5.0,5.0;" x1="1200.5" x2="1200.5" y1="55.2188" y2="1139.2891"/><line style="stroke:#181818;stroke-width:0.5;stroke-dasharray:5.0,5.0;" x1="1365.5" x2="1365.5" y1="55.2188" y2="1139.2891"/><rect fill="#E3E3E3" height="31.6094" rx="2.5" ry="2.5" style="stroke:#181818;stroke-width:0.5;" width="44" x="5" y="22.6094"/><text fill="#000000" font-family="sans-serif" font-size="14" lengthAdjust="spacing" textLength="30" x="12" y="44.1426">HRM</text><rect fill="#E3E3E3" height="31.6094" rx="2.5" ry="2.5" style="stroke:#181818;stroke-width:0.5;" width="44" x="5" y="1138.2891"/><text fill="#000000" font-family="sans-serif" font-size="14" lengthAdjust="spacing" textLength="30" x="12" y="1159.8223">HRM</text><rect fill="#E3E3E3" height="31.6094" rx="2.5" ry="2.5" style="stroke:#181818;stroke-width:0.5;" width="161" x="413.5" y="22.6094"/><text fill="#000000" font-family="sans-serif" font-size="14" lengthAdjust="spacing" textLength="147" x="420.5" y="44.1426">:RegisterCollaboratorUI</text><rect fill="#E3E3E3" height="31.6094" rx="2.5" ry="2.5" style="stroke:#181818;stroke-width:0.5;" width="161" x="413.5" y="1138.2891"/><text fill="#000000" font-family="sans-serif" font-size="14" lengthAdjust="spacing" textLength="147" x="420.5" y="1159.8223">:RegisterCollaboratorUI</text><rect fill="#E3E3E3" height="31.6094" rx="2.5" ry="2.5" style="stroke:#181818;stroke-width:0.5;" width="211" x="824.5" y="1138.2891"/><text fill="#000000" font-family="sans-serif" font-size="14" lengthAdjust="spacing" textLength="197" x="831.5" y="1159.8223">:RegisterCollaboratorController</text><rect fill="#E3E3E3" height="31.6094" rx="2.5" ry="2.5" style="stroke:#181818;stroke-width:0.5;" width="97" x="1045.5" y="22.6094"/><text fill="#000000" font-family="sans-serif" font-size="14" lengthAdjust="spacing" textLength="83" x="1052.5" y="44.1426">:Repositories</text><rect fill="#E3E3E3" height="31.6094" rx="2.5" ry="2.5" style="stroke:#181818;stroke-width:0.5;" width="97" x="1045.5" y="1138.2891"/><text fill="#000000" font-family="sans-serif" font-size="14" lengthAdjust="spacing" textLength="83" x="1052.5" y="1159.8223">:Repositories</text><rect fill="#E3E3E3" height="49.2188" rx="2.5" ry="2.5" style="stroke:#181818;stroke-width:0.5;" width="97" x="1152.5" y="5"/><text fill="#000000" font-family="sans-serif" font-size="14" lengthAdjust="spacing" textLength="74" x="1164" y="26.5332">repositories</text><text fill="#000000" font-family="sans-serif" font-size="14" lengthAdjust="spacing" textLength="83" x="1159.5" y="44.1426">:Repositories</text><rect fill="#E3E3E3" height="49.2188" rx="2.5" ry="2.5" style="stroke:#181818;stroke-width:0.5;" width="97" x="1152.5" y="1138.2891"/><text fill="#000000" font-family="sans-serif" font-size="14" lengthAdjust="spacing" textLength="74" x="1164" y="1159.8223">repositories</text><text fill="#000000" font-family="sans-serif" font-size="14" lengthAdjust="spacing" textLength="83" x="1159.5" y="1177.4316">:Repositories</text><rect fill="#E3E3E3" height="49.2188" rx="2.5" ry="2.5" style="stroke:#181818;stroke-width:0.5;" width="161" x="1285.5" y="5"/><text fill="#000000" font-family="sans-serif" font-size="14" lengthAdjust="spacing" textLength="147" x="1292.5" y="26.5332">collaboratorRepository:</text><text fill="#000000" font-family="sans-serif" font-size="14" lengthAdjust="spacing" textLength="146" x="1293" y="44.1426">CollaboratorRepository</text><rect fill="#E3E3E3" height="49.2188" rx="2.5" ry="2.5" style="stroke:#181818;stroke-width:0.5;" width="161" x="1285.5" y="1138.2891"/><text fill="#000000" font-family="sans-serif" font-size="14" lengthAdjust="spacing" textLength="147" x="1292.5" y="1159.8223">collaboratorRepository:</text><text fill="#000000" font-family="sans-serif" font-size="14" lengthAdjust="spacing" textLength="146" x="1293" y="1177.4316">CollaboratorRepository</text><rect fill="#FFFFFF" height="1056.0703" style="stroke:#181818;stroke-width:1.0;" width="10" x="22" y="65.2188"/><rect fill="#FFFFFF" height="166.3672" style="stroke:#181818;stroke-width:1.0;" width="10" x="489" y="87.5703"/><rect fill="#FFFFFF" height="91.0547" style="stroke:#181818;stroke-width:1.0;" width="10" x="489" y="587.3828"/><rect fill="#FFFFFF" height="91.0547" style="stroke:#181818;stroke-width:1.0;" width="10" x="489" y="862.3828"/><rect fill="#FFFFFF" height="30.3516" style="stroke:#181818;stroke-width:1.0;" width="10" x="489" y="1090.9375"/><rect fill="#FFFFFF" height="93.1484" style="stroke:#181818;stroke-width:1.0;" width="10" x="925" y="253.9375"/><rect fill="#FFFFFF" height="76.7969" style="stroke:#181818;stroke-width:1.0;" width="10" x="925" y="510.5859"/><rect fill="#FFFFFF" height="30.3516" style="stroke:#181818;stroke-width:1.0;" width="10" x="925" y="678.4375"/><rect fill="#FFFFFF" height="76.7969" style="stroke:#181818;stroke-width:1.0;" width="10" x="925" y="785.5859"/><rect fill="#FFFFFF" height="30.3516" style="stroke:#181818;stroke-width:1.0;" width="10" x="925" y="953.4375"/><rect fill="#FFFFFF" height="30.3516" style="stroke:#181818;stroke-width:1.0;" width="10" x="925" y="1060.5859"/><rect fill="#FFFFFF" height="163.5" style="stroke:#181818;stroke-width:1.0;" width="10" x="1366" y="347.0859"/><rect fill="#FFFFFF" height="163.5" style="stroke:#181818;stroke-width:1.0;" width="10" x="1366" y="347.0859"/><rect fill="#FFFFFF" height="41.3516" style="stroke:#181818;stroke-width:1.0;" width="10" x="1371" y="431.8828"/><rect fill="#FFFFFF" height="76.7969" style="stroke:#181818;stroke-width:1.0;" width="10" x="1361" y="708.7891"/><rect fill="#FFFFFF" height="76.7969" style="stroke:#181818;stroke-width:1.0;" width="10" x="1361" y="983.7891"/><polygon fill="#181818" points="477,83.5703,487,87.5703,477,91.5703,481,87.5703" style="stroke:#181818;stroke-width:1.0;"/><line style="stroke:#181818;stroke-width:1.0;" x1="32" x2="483" y1="87.5703" y2="87.5703"/><text fill="#000000" font-family="sans-serif" font-size="13" font-weight="bold" lengthAdjust="spacing" textLength="7" x="39" y="82.7139">1</text><text fill="#000000" font-family="sans-serif" font-size="13" lengthAdjust="spacing" textLength="205" x="50" y="82.7139">wants to register a new collaborator</text><polygon fill="#181818" points="812.5,113.9219,822.5,117.9219,812.5,121.9219,816.5,117.9219" style="stroke:#181818;stroke-width:1.0;"/><line style="stroke:#181818;stroke-width:1.0;" x1="499" x2="818.5" y1="117.9219" y2="117.9219"/><text fill="#000000" font-family="sans-serif" font-size="13" font-weight="bold" lengthAdjust="spacing" textLength="7" x="506" y="113.0654">2</text><text fill="#000000" font-family="sans-serif" font-size="13" lengthAdjust="spacing" textLength="36" x="517" y="113.0654">create</text><rect fill="#E3E3E3" height="31.6094" rx="2.5" ry="2.5" style="stroke:#181818;stroke-width:0.5;" width="211" x="824.5" y="95.5703"/><text fill="#000000" font-family="sans-serif" font-size="14" lengthAdjust="spacing" textLength="197" x="831.5" y="117.1035">:RegisterCollaboratorController</text><polygon fill="#181818" points="43,172.8828,33,176.8828,43,180.8828,39,176.8828" style="stroke:#181818;stroke-width:1.0;"/><line style="stroke:#181818;stroke-width:1.0;stroke-dasharray:2.0,2.0;" x1="37" x2="488" y1="176.8828" y2="176.8828"/><text fill="#000000" font-family="sans-serif" font-size="13" font-weight="bold" lengthAdjust="spacing" textLength="7" x="49" y="163.8506">3</text><text fill="#000000" font-family="sans-serif" font-size="13" lengthAdjust="spacing" textLength="422" x="60" y="155.6748">asks for the info needed (name, birthdate, contactMobile, email, address,</text><text fill="#000000" font-family="sans-serif" font-size="13" lengthAdjust="spacing" textLength="370" x="64" y="172.0264">zipCode, city, documentType[], documentCode, admissionDate)</text><polygon fill="#181818" points="477,203.2344,487,207.2344,477,211.2344,481,207.2344" style="stroke:#181818;stroke-width:1.0;"/><line style="stroke:#181818;stroke-width:1.0;" x1="32" x2="483" y1="207.2344" y2="207.2344"/><text fill="#000000" font-family="sans-serif" font-size="13" font-weight="bold" lengthAdjust="spacing" textLength="7" x="39" y="202.3779">4</text><text fill="#000000" font-family="sans-serif" font-size="13" lengthAdjust="spacing" textLength="139" x="50" y="202.3779">provides the needed info</text><polygon fill="#181818" points="913,249.9375,923,253.9375,913,257.9375,917,253.9375" style="stroke:#181818;stroke-width:1.0;"/><line style="stroke:#181818;stroke-width:1.0;" x1="494" x2="919" y1="253.9375" y2="253.9375"/><text fill="#000000" font-family="sans-serif" font-size="13" font-weight="bold" lengthAdjust="spacing" textLength="7" x="501" y="240.9053">5</text><text fill="#000000" font-family="sans-serif" font-size="13" lengthAdjust="spacing" textLength="396" x="512" y="232.7295">createCLB(name, birthdate, contactMobile, email, address, zipCode,</text><text fill="#000000" font-family="sans-serif" font-size="13" lengthAdjust="spacing" textLength="315" x="516" y="249.0811">city, documentType[], documentCode, admissionDate)</text><rect fill="none" height="41.4453" style="stroke:#000000;stroke-width:1.5;" width="217" x="821.5" y="261.9375"/><path d="M821.5,261.9375 L883.5,261.9375 L883.5,269.9375 L873.5,279.9375 L821.5,279.9375 L821.5,261.9375 " fill="#EEEEEE" style="stroke:#000000;stroke-width:2.0;"/><text fill="#000000" font-family="sans-serif" font-size="13" font-weight="bold" lengthAdjust="spacing" textLength="17" x="834.5" y="277.4326">ref</text><text fill="#000000" font-family="sans-serif" font-size="12" lengthAdjust="spacing" textLength="152" x="854" y="296.3945">Get Collaborator Repository</text><polygon fill="#181818" points="1354,343.0859,1364,347.0859,1354,351.0859,1358,347.0859" style="stroke:#181818;stroke-width:1.0;"/><line style="stroke:#181818;stroke-width:1.0;" x1="930" x2="1360" y1="347.0859" y2="347.0859"/><text fill="#000000" font-family="sans-serif" font-size="13" font-weight="bold" lengthAdjust="spacing" textLength="7" x="937" y="334.0537">6</text><text fill="#000000" font-family="sans-serif" font-size="13" lengthAdjust="spacing" textLength="396" x="948" y="325.8779">createCLB(name, birthdate, contactMobile, email, address, zipCode,</text><text fill="#000000" font-family="sans-serif" font-size="13" lengthAdjust="spacing" textLength="315" x="952" y="342.2295">city, documentType[], documentCode, admissionDate)</text><rect fill="none" height="41.4453" style="stroke:#000000;stroke-width:1.5;" width="167" x="1282.5" y="355.0859"/><path d="M1282.5,355.0859 L1344.5,355.0859 L1344.5,363.0859 L1334.5,373.0859 L1282.5,373.0859 L1282.5,355.0859 " fill="#EEEEEE" style="stroke:#000000;stroke-width:2.0;"/><text fill="#000000" font-family="sans-serif" font-size="13" font-weight="bold" lengthAdjust="spacing" textLength="17" x="1295.5" y="370.5811">ref</text><text fill="#000000" font-family="sans-serif" font-size="12" lengthAdjust="spacing" textLength="108" x="1312" y="389.543">Create Collaborator</text><line style="stroke:#181818;stroke-width:1.0;" x1="1376" x2="1423" y1="418.8828" y2="418.8828"/><line style="stroke:#181818;stroke-width:1.0;" x1="1423" x2="1423" y1="418.8828" y2="431.8828"/><line style="stroke:#181818;stroke-width:1.0;" x1="1382" x2="1423" y1="431.8828" y2="431.8828"/><polygon fill="#181818" points="1392,427.8828,1382,431.8828,1392,435.8828,1388,431.8828" style="stroke:#181818;stroke-width:1.0;"/><text fill="#000000" font-family="sans-serif" font-size="13" font-weight="bold" lengthAdjust="spacing" textLength="7" x="1388" y="414.0264">7</text><text fill="#000000" font-family="sans-serif" font-size="13" lengthAdjust="spacing" textLength="223" x="1399" y="414.0264">check for duplicates (documentCode[])</text><line style="stroke:#181818;stroke-width:1.0;stroke-dasharray:2.0,2.0;" x1="1381" x2="1423" y1="472.2344" y2="472.2344"/><line style="stroke:#181818;stroke-width:1.0;stroke-dasharray:2.0,2.0;" x1="1423" x2="1423" y1="472.2344" y2="485.2344"/><line style="stroke:#181818;stroke-width:1.0;stroke-dasharray:2.0,2.0;" x1="1376" x2="1423" y1="485.2344" y2="485.2344"/><polygon fill="#181818" points="1386,481.2344,1376,485.2344,1386,489.2344,1382,485.2344" style="stroke:#181818;stroke-width:1.0;"/><text fill="#000000" font-family="sans-serif" font-size="13" font-weight="bold" lengthAdjust="spacing" textLength="7" x="1388" y="467.3779">8</text><text fill="#000000" font-family="sans-serif" font-size="13" lengthAdjust="spacing" textLength="4" x="1399" y="467.3779"> </text><polygon fill="#181818" points="946,506.5859,936,510.5859,946,514.5859,942,510.5859" style="stroke:#181818;stroke-width:1.0;"/><line style="stroke:#181818;stroke-width:1.0;stroke-dasharray:2.0,2.0;" x1="940" x2="1365" y1="510.5859" y2="510.5859"/><text fill="#000000" font-family="sans-serif" font-size="13" font-weight="bold" lengthAdjust="spacing" textLength="7" x="952" y="505.7295">9</text><text fill="#000000" font-family="sans-serif" font-size="13" lengthAdjust="spacing" textLength="67" x="963" y="505.7295">collaborator</text><rect fill="none" height="41.4453" style="stroke:#000000;stroke-width:1.5;" width="217" x="821.5" y="518.5859"/><path d="M821.5,518.5859 L883.5,518.5859 L883.5,526.5859 L873.5,536.5859 L821.5,536.5859 L821.5,518.5859 " fill="#EEEEEE" style="stroke:#000000;stroke-width:2.0;"/><text fill="#000000" font-family="sans-serif" font-size="13" font-weight="bold" lengthAdjust="spacing" textLength="17" x="834.5" y="534.0811">ref</text><text fill="#000000" font-family="sans-serif" font-size="12" lengthAdjust="spacing" textLength="65" x="897.5" y="553.043">Get Job List</text><polygon fill="#181818" points="510,583.3828,500,587.3828,510,591.3828,506,587.3828" style="stroke:#181818;stroke-width:1.0;"/><line style="stroke:#181818;stroke-width:1.0;stroke-dasharray:2.0,2.0;" x1="504" x2="929" y1="587.3828" y2="587.3828"/><text fill="#000000" font-family="sans-serif" font-size="13" font-weight="bold" lengthAdjust="spacing" textLength="14" x="516" y="582.5264">10</text><text fill="#000000" font-family="sans-serif" font-size="13" lengthAdjust="spacing" textLength="45" x="534" y="582.5264">jobsList</text><polygon fill="#181818" points="43,613.7344,33,617.7344,43,621.7344,39,617.7344" style="stroke:#181818;stroke-width:1.0;"/><line style="stroke:#181818;stroke-width:1.0;stroke-dasharray:2.0,2.0;" x1="37" x2="488" y1="617.7344" y2="617.7344"/><text fill="#000000" font-family="sans-serif" font-size="13" font-weight="bold" lengthAdjust="spacing" textLength="14" x="49" y="612.8779">11</text><text fill="#000000" font-family="sans-serif" font-size="13" lengthAdjust="spacing" textLength="258" x="67" y="612.8779">shows the list of jobs and asks to select one</text><polygon fill="#181818" points="477,644.0859,487,648.0859,477,652.0859,481,648.0859" style="stroke:#181818;stroke-width:1.0;"/><line style="stroke:#181818;stroke-width:1.0;" x1="32" x2="483" y1="648.0859" y2="648.0859"/><text fill="#000000" font-family="sans-serif" font-size="13" font-weight="bold" lengthAdjust="spacing" textLength="14" x="39" y="643.2295">12</text><text fill="#000000" font-family="sans-serif" font-size="13" lengthAdjust="spacing" textLength="124" x="57" y="643.2295">select the desired job</text><polygon fill="#181818" points="913,674.4375,923,678.4375,913,682.4375,917,678.4375" style="stroke:#181818;stroke-width:1.0;"/><line style="stroke:#181818;stroke-width:1.0;" x1="494" x2="919" y1="678.4375" y2="678.4375"/><text fill="#000000" font-family="sans-serif" font-size="13" font-weight="bold" lengthAdjust="spacing" textLength="14" x="501" y="673.5811">13</text><text fill="#000000" font-family="sans-serif" font-size="13" lengthAdjust="spacing" textLength="17" x="519" y="673.5811">job</text><polygon fill="#181818" points="1349,704.7891,1359,708.7891,1349,712.7891,1353,708.7891" style="stroke:#181818;stroke-width:1.0;"/><line style="stroke:#181818;stroke-width:1.0;" x1="930" x2="1355" y1="708.7891" y2="708.7891"/><text fill="#000000" font-family="sans-serif" font-size="13" font-weight="bold" lengthAdjust="spacing" textLength="14" x="937" y="703.9326">14</text><text fill="#000000" font-family="sans-serif" font-size="13" lengthAdjust="spacing" textLength="83" x="955" y="703.9326">assignJob(job)</text><rect fill="none" height="41.4453" style="stroke:#000000;stroke-width:1.5;" width="167" x="1282.5" y="716.7891"/><path d="M1282.5,716.7891 L1344.5,716.7891 L1344.5,724.7891 L1334.5,734.7891 L1282.5,734.7891 L1282.5,716.7891 " fill="#EEEEEE" style="stroke:#000000;stroke-width:2.0;"/><text fill="#000000" font-family="sans-serif" font-size="13" font-weight="bold" lengthAdjust="spacing" textLength="17" x="1295.5" y="732.2842">ref</text><text fill="#000000" font-family="sans-serif" font-size="12" lengthAdjust="spacing" textLength="122" x="1305" y="751.2461">Assign the chosen job</text><polygon fill="#181818" points="946,781.5859,936,785.5859,946,789.5859,942,785.5859" style="stroke:#181818;stroke-width:1.0;"/><line style="stroke:#181818;stroke-width:1.0;stroke-dasharray:2.0,2.0;" x1="940" x2="1365" y1="785.5859" y2="785.5859"/><text fill="#000000" font-family="sans-serif" font-size="13" font-weight="bold" lengthAdjust="spacing" textLength="14" x="952" y="780.7295">15</text><text fill="#000000" font-family="sans-serif" font-size="13" lengthAdjust="spacing" textLength="67" x="970" y="780.7295">collaborator</text><rect fill="none" height="41.4453" style="stroke:#000000;stroke-width:1.5;" width="217" x="821.5" y="793.5859"/><path d="M821.5,793.5859 L883.5,793.5859 L883.5,801.5859 L873.5,811.5859 L821.5,811.5859 L821.5,793.5859 " fill="#EEEEEE" style="stroke:#000000;stroke-width:2.0;"/><text fill="#000000" font-family="sans-serif" font-size="13" font-weight="bold" lengthAdjust="spacing" textLength="17" x="834.5" y="809.0811">ref</text><text fill="#000000" font-family="sans-serif" font-size="12" lengthAdjust="spacing" textLength="75" x="892.5" y="828.043">Get Skills List</text><polygon fill="#181818" points="510,858.3828,500,862.3828,510,866.3828,506,862.3828" style="stroke:#181818;stroke-width:1.0;"/><line style="stroke:#181818;stroke-width:1.0;stroke-dasharray:2.0,2.0;" x1="504" x2="929" y1="862.3828" y2="862.3828"/><text fill="#000000" font-family="sans-serif" font-size="13" font-weight="bold" lengthAdjust="spacing" textLength="14" x="516" y="857.5264">16</text><text fill="#000000" font-family="sans-serif" font-size="13" lengthAdjust="spacing" textLength="51" x="534" y="857.5264">skillsList</text><polygon fill="#181818" points="43,888.7344,33,892.7344,43,896.7344,39,892.7344" style="stroke:#181818;stroke-width:1.0;"/><line style="stroke:#181818;stroke-width:1.0;stroke-dasharray:2.0,2.0;" x1="37" x2="488" y1="892.7344" y2="892.7344"/><text fill="#000000" font-family="sans-serif" font-size="13" font-weight="bold" lengthAdjust="spacing" textLength="14" x="49" y="887.8779">17</text><text fill="#000000" font-family="sans-serif" font-size="13" lengthAdjust="spacing" textLength="312" x="67" y="887.8779">shows the list of skills and asks to select one or more</text><polygon fill="#181818" points="477,919.0859,487,923.0859,477,927.0859,481,923.0859" style="stroke:#181818;stroke-width:1.0;"/><line style="stroke:#181818;stroke-width:1.0;" x1="32" x2="483" y1="923.0859" y2="923.0859"/><text fill="#000000" font-family="sans-serif" font-size="13" font-weight="bold" lengthAdjust="spacing" textLength="14" x="39" y="918.2295">18</text><text fill="#000000" font-family="sans-serif" font-size="13" lengthAdjust="spacing" textLength="137" x="57" y="918.2295">select the desired skills</text><polygon fill="#181818" points="913,949.4375,923,953.4375,913,957.4375,917,953.4375" style="stroke:#181818;stroke-width:1.0;"/><line style="stroke:#181818;stroke-width:1.0;" x1="494" x2="919" y1="953.4375" y2="953.4375"/><text fill="#000000" font-family="sans-serif" font-size="13" font-weight="bold" lengthAdjust="spacing" textLength="14" x="501" y="948.5811">19</text><text fill="#000000" font-family="sans-serif" font-size="13" lengthAdjust="spacing" textLength="102" x="519" y="948.5811">selectedSkillsList</text><polygon fill="#181818" points="1349,979.7891,1359,983.7891,1349,987.7891,1353,983.7891" style="stroke:#181818;stroke-width:1.0;"/><line style="stroke:#181818;stroke-width:1.0;" x1="930" x2="1355" y1="983.7891" y2="983.7891"/><text fill="#000000" font-family="sans-serif" font-size="13" font-weight="bold" lengthAdjust="spacing" textLength="14" x="937" y="978.9326">20</text><text fill="#000000" font-family="sans-serif" font-size="13" lengthAdjust="spacing" textLength="116" x="955" y="978.9326">assignSkills(skills[])</text><rect fill="none" height="41.4453" style="stroke:#000000;stroke-width:1.5;" width="167" x="1282.5" y="991.7891"/><path d="M1282.5,991.7891 L1344.5,991.7891 L1344.5,999.7891 L1334.5,1009.7891 L1282.5,1009.7891 L1282.5,991.7891 " fill="#EEEEEE" style="stroke:#000000;stroke-width:2.0;"/><text fill="#000000" font-family="sans-serif" font-size="13" font-weight="bold" lengthAdjust="spacing" textLength="17" x="1295.5" y="1007.2842">ref</text><text fill="#000000" font-family="sans-serif" font-size="12" lengthAdjust="spacing" textLength="137" x="1297.5" y="1026.2461">Assign the chosen skills.</text><polygon fill="#181818" points="946,1056.5859,936,1060.5859,946,1064.5859,942,1060.5859" style="stroke:#181818;stroke-width:1.0;"/><line style="stroke:#181818;stroke-width:1.0;stroke-dasharray:2.0,2.0;" x1="940" x2="1365" y1="1060.5859" y2="1060.5859"/><text fill="#000000" font-family="sans-serif" font-size="13" font-weight="bold" lengthAdjust="spacing" textLength="14" x="952" y="1055.7295">21</text><text fill="#000000" font-family="sans-serif" font-size="13" lengthAdjust="spacing" textLength="67" x="970" y="1055.7295">collaborator</text><polygon fill="#181818" points="510,1086.9375,500,1090.9375,510,1094.9375,506,1090.9375" style="stroke:#181818;stroke-width:1.0;"/><line style="stroke:#181818;stroke-width:1.0;" x1="504" x2="929" y1="1090.9375" y2="1090.9375"/><text fill="#000000" font-family="sans-serif" font-size="13" font-weight="bold" lengthAdjust="spacing" textLength="14" x="516" y="1086.0811">22</text><text fill="#000000" font-family="sans-serif" font-size="13" lengthAdjust="spacing" textLength="49" x="534" y="1086.0811">success</text><polygon fill="#181818" points="38,1117.2891,28,1121.2891,38,1125.2891,34,1121.2891" style="stroke:#181818;stroke-width:1.0;"/><line style="stroke:#181818;stroke-width:1.0;stroke-dasharray:2.0,2.0;" x1="32" x2="493" y1="1121.2891" y2="1121.2891"/><text fill="#000000" font-family="sans-serif" font-size="13" font-weight="bold" lengthAdjust="spacing" textLength="14" x="44" y="1116.4326">23</text><text fill="#000000" font-family="sans-serif" font-size="13" lengthAdjust="spacing" textLength="158" x="62" y="1116.4326">displays operation success</text><!--SRC=[pLN1JXin4BtlLuou453e1-I0H4D5gOA40fo0WxEUJTnuFIlR8Kg_lhDssAntGmajXwuK9VREUvxtPiPnIsKgOKK99HdA5vPA16zNcBdcJINofPZZdTze18kv5sQksm5k8IIjbPb38RJ3B1ChJsPLpj1c6OTubQjA60z7twStHo0Sy7VwOZJ5kN8UxPYq5ZEomfDzk0x13zS7n8x9UCjhj04plfzEUgYAdE9GXIx4N6cQrPjfd6s5FPa-wdPoSPyYybOQJVXcz6J6Ur_4_2PVfzzkCxOgz-f5U0oMy0VEpbamZ63Dt0uyiUDHBGWmk8RsQJiqUyGenjR2JqyPdrla5s6Njslc4H-yT52G1Rz0KAOWPaI94WP6b3Y4cR9-8Hasv6ECP_ORcYdDIoo5qaCGKbfqRlXau9UgnYJhIEKtGv2Khqeq_dvJuUFpRXrZX2oLSuhC9PEV93ehIozAeWivRTEfKykEazJTWjQEBNX1gmgL2yza89NGDC-EstoSUA5iwHAZeXiCQRdKUCIr-AZ-HZqRyHVw9ROBr_mEJGlRns81n6hJtVgvGW_jre9TRpLnQ6JDa6L1QQquDDp_eJaesgtYAFHrf_lrCmwv9-BxYhl4sLPwOi82ysMO1BcgTDrEt823TlwFpoSzfbUYXYaHrO_PDbaxspwWlzDfYBSR0RfTyODcCE7BOd_KgqEn9SxEmxZyf9aBa3VhixrQEfDOJwjc750HE40mUxXV-CfogFbl0iXWCkhRxHhA0wyiJpf3qv6iD_uq7ar7DxKKt6Hpmz87Z7s_pmvgj8l06JBD5-JGXBnwHdwqrXqfXutwtL9fxTAwTakvzJT4_cir8yiRzGGUcPBiktMD96bfOnZAkxrfSc9TVtftLonrn0_Y4VMSViRLqgzuvF_osLL_5HMTM-Kvtws7bqigLscnSK0LslWdk8U3KQqL8ty3]--></g></svg>