<?xml version="1.0" encoding="UTF-8" standalone="no"?><svg xmlns="http://www.w3.org/2000/svg" xmlns:xlink="http://www.w3.org/1999/xlink" contentStyleType="text/css" height="955px" preserveAspectRatio="none" style="width:1183px;height:955px;background:#FFFFFF;" version="1.1" viewBox="0 0 1183 955" width="1183px" zoomAndPan="magnify"><defs/><g><rect fill="#FFFFFF" height="72.0547" style="stroke:#181818;stroke-width:1.0;" width="10" x="433" y="103.9219"/><rect fill="#FFFFFF" height="124.0547" style="stroke:#181818;stroke-width:1.0;" width="10" x="433" y="758.8984"/><rect fill="#FFFFFF" height="41.3516" style="stroke:#181818;stroke-width:1.0;" width="10" x="438" y="797.25"/><rect fill="#FFFFFF" height="572.9219" style="stroke:#181818;stroke-width:1.0;" width="10" x="897" y="185.9766"/><rect fill="#FFFFFF" height="507.2188" style="stroke:#181818;stroke-width:1.0;" width="10" x="902" y="214.3281"/><rect fill="#FFFFFF" height="420.5156" style="stroke:#181818;stroke-width:1.0;" width="10" x="907" y="257.6797"/><rect fill="#FFFFFF" height="333.8125" style="stroke:#181818;stroke-width:1.0;" width="10" x="912" y="301.0313"/><rect fill="#FFFFFF" height="247.1094" style="stroke:#181818;stroke-width:1.0;" width="10" x="917" y="344.3828"/><rect fill="#FFFFFF" height="160.4063" style="stroke:#181818;stroke-width:1.0;" width="10" x="922" y="387.7344"/><rect fill="#FFFFFF" height="41.3516" style="stroke:#181818;stroke-width:1.0;" width="10" x="927" y="456.4375"/><rect fill="none" height="734.6797" style="stroke:#000000;stroke-width:1.5;" width="829.5" x="347.5" y="118.9219"/><rect fill="none" height="105.0547" style="stroke:#000000;stroke-width:1.5;" width="321" x="846" y="407.7344"/><line style="stroke:#181818;stroke-width:0.5;stroke-dasharray:5.0,5.0;" x1="437.5" x2="437.5" y1="55.2188" y2="900.9531"/><line style="stroke:#181818;stroke-width:0.5;stroke-dasharray:5.0,5.0;" x1="902" x2="902" y1="170.625" y2="900.9531"/><rect fill="#E3E3E3" height="49.2188" rx="2.5" ry="2.5" style="stroke:#181818;stroke-width:0.5;" width="161" x="357.5" y="5"/><text fill="#000000" font-family="sans-serif" font-size="14" lengthAdjust="spacing" textLength="147" x="364.5" y="26.5332">collaboratorRepository:</text><text fill="#000000" font-family="sans-serif" font-size="14" lengthAdjust="spacing" textLength="146" x="365" y="44.1426">CollaboratorRepository</text><rect fill="#E3E3E3" height="49.2188" rx="2.5" ry="2.5" style="stroke:#181818;stroke-width:0.5;" width="161" x="357.5" y="899.9531"/><text fill="#000000" font-family="sans-serif" font-size="14" lengthAdjust="spacing" textLength="147" x="364.5" y="921.4863">collaboratorRepository:</text><text fill="#000000" font-family="sans-serif" font-size="14" lengthAdjust="spacing" textLength="146" x="365" y="939.0957">CollaboratorRepository</text><rect fill="#E3E3E3" height="31.6094" rx="2.5" ry="2.5" style="stroke:#181818;stroke-width:0.5;" width="92" x="856" y="899.9531"/><text fill="#000000" font-family="sans-serif" font-size="14" lengthAdjust="spacing" textLength="78" x="863" y="921.4863">Collaborator</text><rect fill="#FFFFFF" height="72.0547" style="stroke:#181818;stroke-width:1.0;" width="10" x="433" y="103.9219"/><rect fill="#FFFFFF" height="124.0547" style="stroke:#181818;stroke-width:1.0;" width="10" x="433" y="758.8984"/><rect fill="#FFFFFF" height="41.3516" style="stroke:#181818;stroke-width:1.0;" width="10" x="438" y="797.25"/><rect fill="#FFFFFF" height="572.9219" style="stroke:#181818;stroke-width:1.0;" width="10" x="897" y="185.9766"/><rect fill="#FFFFFF" height="507.2188" style="stroke:#181818;stroke-width:1.0;" width="10" x="902" y="214.3281"/><rect fill="#FFFFFF" height="420.5156" style="stroke:#181818;stroke-width:1.0;" width="10" x="907" y="257.6797"/><rect fill="#FFFFFF" height="333.8125" style="stroke:#181818;stroke-width:1.0;" width="10" x="912" y="301.0313"/><rect fill="#FFFFFF" height="247.1094" style="stroke:#181818;stroke-width:1.0;" width="10" x="917" y="344.3828"/><rect fill="#FFFFFF" height="160.4063" style="stroke:#181818;stroke-width:1.0;" width="10" x="922" y="387.7344"/><rect fill="#FFFFFF" height="41.3516" style="stroke:#181818;stroke-width:1.0;" width="10" x="927" y="456.4375"/><polygon fill="#181818" points="421,99.9219,431,103.9219,421,107.9219,425,103.9219" style="stroke:#181818;stroke-width:1.0;"/><line style="stroke:#181818;stroke-width:1.0;stroke-dasharray:2.0,2.0;" x1="0" x2="427" y1="103.9219" y2="103.9219"/><text fill="#000000" font-family="sans-serif" font-size="13" font-weight="bold" lengthAdjust="spacing" textLength="14" x="7" y="90.8896">10</text><text fill="#000000" font-family="sans-serif" font-size="13" lengthAdjust="spacing" textLength="396" x="25" y="82.7139">createCLB(name, birthdate, contactMobile, email, address, zipCode,</text><text fill="#000000" font-family="sans-serif" font-size="13" lengthAdjust="spacing" textLength="315" x="29" y="99.0654">city, documentType[], documentCode, admissionDate)</text><path d="M347.5,118.9219 L525.5,118.9219 L525.5,127.2734 L515.5,137.2734 L347.5,137.2734 L347.5,118.9219 " fill="#EEEEEE" style="stroke:#000000;stroke-width:1.5;"/><rect fill="none" height="734.6797" style="stroke:#000000;stroke-width:1.5;" width="829.5" x="347.5" y="118.9219"/><text fill="#000000" font-family="sans-serif" font-size="13" font-weight="bold" lengthAdjust="spacing" textLength="133" x="362.5" y="133.417">Register collaborator</text><polygon fill="#181818" points="844,171.9766,854,175.9766,844,179.9766,848,175.9766" style="stroke:#181818;stroke-width:1.0;"/><line style="stroke:#181818;stroke-width:1.0;" x1="438" x2="850" y1="175.9766" y2="175.9766"/><text fill="#000000" font-family="sans-serif" font-size="13" font-weight="bold" lengthAdjust="spacing" textLength="14" x="445" y="162.9443">11</text><text fill="#000000" font-family="sans-serif" font-size="13" lengthAdjust="spacing" textLength="371" x="463" y="154.7686">create(name, birthdate, contactMobile, email, address, zipCode,</text><text fill="#000000" font-family="sans-serif" font-size="13" lengthAdjust="spacing" textLength="315" x="467" y="171.1201">city, documentType[], documentCode, admissionDate)</text><rect fill="#E3E3E3" height="31.6094" rx="2.5" ry="2.5" style="stroke:#181818;stroke-width:0.5;" width="92" x="856" y="141.3672"/><text fill="#000000" font-family="sans-serif" font-size="14" lengthAdjust="spacing" textLength="78" x="863" y="162.9004">Collaborator</text><line style="stroke:#181818;stroke-width:1.0;" x1="907" x2="954" y1="201.3281" y2="201.3281"/><line style="stroke:#181818;stroke-width:1.0;" x1="954" x2="954" y1="201.3281" y2="214.3281"/><line style="stroke:#181818;stroke-width:1.0;" x1="913" x2="954" y1="214.3281" y2="214.3281"/><polygon fill="#181818" points="923,210.3281,913,214.3281,923,218.3281,919,214.3281" style="stroke:#181818;stroke-width:1.0;"/><text fill="#000000" font-family="sans-serif" font-size="13" font-weight="bold" lengthAdjust="spacing" textLength="14" x="919" y="196.4717">12</text><text fill="#000000" font-family="sans-serif" font-size="13" lengthAdjust="spacing" textLength="135" x="937" y="196.4717">verifyFilled(collaborator)</text><line style="stroke:#181818;stroke-width:1.0;" x1="912" x2="959" y1="244.6797" y2="244.6797"/><line style="stroke:#181818;stroke-width:1.0;" x1="959" x2="959" y1="244.6797" y2="257.6797"/><line style="stroke:#181818;stroke-width:1.0;" x1="918" x2="959" y1="257.6797" y2="257.6797"/><polygon fill="#181818" points="928,253.6797,918,257.6797,928,261.6797,924,257.6797" style="stroke:#181818;stroke-width:1.0;"/><text fill="#000000" font-family="sans-serif" font-size="13" font-weight="bold" lengthAdjust="spacing" textLength="14" x="924" y="239.8232">13</text><text fill="#000000" font-family="sans-serif" font-size="13" lengthAdjust="spacing" textLength="142" x="942" y="239.8232">verifyMobile(collaborator)</text><line style="stroke:#181818;stroke-width:1.0;" x1="917" x2="964" y1="288.0313" y2="288.0313"/><line style="stroke:#181818;stroke-width:1.0;" x1="964" x2="964" y1="288.0313" y2="301.0313"/><line style="stroke:#181818;stroke-width:1.0;" x1="923" x2="964" y1="301.0313" y2="301.0313"/><polygon fill="#181818" points="933,297.0313,923,301.0313,933,305.0313,929,301.0313" style="stroke:#181818;stroke-width:1.0;"/><text fill="#000000" font-family="sans-serif" font-size="13" font-weight="bold" lengthAdjust="spacing" textLength="14" x="929" y="283.1748">14</text><text fill="#000000" font-family="sans-serif" font-size="13" lengthAdjust="spacing" textLength="137" x="947" y="283.1748">verifyEmail(collaborator)</text><line style="stroke:#181818;stroke-width:1.0;" x1="922" x2="969" y1="331.3828" y2="331.3828"/><line style="stroke:#181818;stroke-width:1.0;" x1="969" x2="969" y1="331.3828" y2="344.3828"/><line style="stroke:#181818;stroke-width:1.0;" x1="928" x2="969" y1="344.3828" y2="344.3828"/><polygon fill="#181818" points="938,340.3828,928,344.3828,938,348.3828,934,344.3828" style="stroke:#181818;stroke-width:1.0;"/><text fill="#000000" font-family="sans-serif" font-size="13" font-weight="bold" lengthAdjust="spacing" textLength="14" x="934" y="326.5264">15</text><text fill="#000000" font-family="sans-serif" font-size="13" lengthAdjust="spacing" textLength="151" x="952" y="326.5264">verifyZipCode(collaborator)</text><line style="stroke:#181818;stroke-width:1.0;" x1="927" x2="974" y1="374.7344" y2="374.7344"/><line style="stroke:#181818;stroke-width:1.0;" x1="974" x2="974" y1="374.7344" y2="387.7344"/><line style="stroke:#181818;stroke-width:1.0;" x1="933" x2="974" y1="387.7344" y2="387.7344"/><polygon fill="#181818" points="943,383.7344,933,387.7344,943,391.7344,939,387.7344" style="stroke:#181818;stroke-width:1.0;"/><text fill="#000000" font-family="sans-serif" font-size="13" font-weight="bold" lengthAdjust="spacing" textLength="14" x="939" y="369.8779">16</text><text fill="#000000" font-family="sans-serif" font-size="13" lengthAdjust="spacing" textLength="131" x="957" y="369.8779">verifyBirth(collaborator)</text><path d="M846,407.7344 L919,407.7344 L919,416.0859 L909,426.0859 L846,426.0859 L846,407.7344 " fill="#EEEEEE" style="stroke:#000000;stroke-width:1.5;"/><rect fill="none" height="105.0547" style="stroke:#000000;stroke-width:1.5;" width="321" x="846" y="407.7344"/><text fill="#000000" font-family="sans-serif" font-size="13" font-weight="bold" lengthAdjust="spacing" textLength="28" x="861" y="422.2295">loop</text><text fill="#000000" font-family="sans-serif" font-size="11" font-weight="bold" lengthAdjust="spacing" textLength="169" x="934" y="421.1533">[for all documentType objects]</text><line style="stroke:#181818;stroke-width:1.0;" x1="932" x2="979" y1="443.4375" y2="443.4375"/><line style="stroke:#181818;stroke-width:1.0;" x1="979" x2="979" y1="443.4375" y2="456.4375"/><line style="stroke:#181818;stroke-width:1.0;" x1="938" x2="979" y1="456.4375" y2="456.4375"/><polygon fill="#181818" points="948,452.4375,938,456.4375,948,460.4375,944,456.4375" style="stroke:#181818;stroke-width:1.0;"/><text fill="#000000" font-family="sans-serif" font-size="13" font-weight="bold" lengthAdjust="spacing" textLength="14" x="944" y="438.5811">17</text><text fill="#000000" font-family="sans-serif" font-size="13" lengthAdjust="spacing" textLength="193" x="962" y="438.5811">verifyDocumentCode(collaborator)</text><line style="stroke:#181818;stroke-width:1.0;stroke-dasharray:2.0,2.0;" x1="937" x2="979" y1="496.7891" y2="496.7891"/><line style="stroke:#181818;stroke-width:1.0;stroke-dasharray:2.0,2.0;" x1="979" x2="979" y1="496.7891" y2="509.7891"/><line style="stroke:#181818;stroke-width:1.0;stroke-dasharray:2.0,2.0;" x1="932" x2="979" y1="509.7891" y2="509.7891"/><polygon fill="#181818" points="942,505.7891,932,509.7891,942,513.7891,938,509.7891" style="stroke:#181818;stroke-width:1.0;"/><text fill="#000000" font-family="sans-serif" font-size="13" font-weight="bold" lengthAdjust="spacing" textLength="14" x="944" y="491.9326">18</text><text fill="#000000" font-family="sans-serif" font-size="13" lengthAdjust="spacing" textLength="4" x="962" y="491.9326"> </text><line style="stroke:#181818;stroke-width:1.0;stroke-dasharray:2.0,2.0;" x1="932" x2="974" y1="547.1406" y2="547.1406"/><line style="stroke:#181818;stroke-width:1.0;stroke-dasharray:2.0,2.0;" x1="974" x2="974" y1="547.1406" y2="560.1406"/><line style="stroke:#181818;stroke-width:1.0;stroke-dasharray:2.0,2.0;" x1="927" x2="974" y1="560.1406" y2="560.1406"/><polygon fill="#181818" points="937,556.1406,927,560.1406,937,564.1406,933,560.1406" style="stroke:#181818;stroke-width:1.0;"/><text fill="#000000" font-family="sans-serif" font-size="13" font-weight="bold" lengthAdjust="spacing" textLength="14" x="939" y="542.2842">19</text><text fill="#000000" font-family="sans-serif" font-size="13" lengthAdjust="spacing" textLength="4" x="957" y="542.2842"> </text><line style="stroke:#181818;stroke-width:1.0;stroke-dasharray:2.0,2.0;" x1="927" x2="969" y1="590.4922" y2="590.4922"/><line style="stroke:#181818;stroke-width:1.0;stroke-dasharray:2.0,2.0;" x1="969" x2="969" y1="590.4922" y2="603.4922"/><line style="stroke:#181818;stroke-width:1.0;stroke-dasharray:2.0,2.0;" x1="922" x2="969" y1="603.4922" y2="603.4922"/><polygon fill="#181818" points="932,599.4922,922,603.4922,932,607.4922,928,603.4922" style="stroke:#181818;stroke-width:1.0;"/><text fill="#000000" font-family="sans-serif" font-size="13" font-weight="bold" lengthAdjust="spacing" textLength="14" x="934" y="585.6357">20</text><text fill="#000000" font-family="sans-serif" font-size="13" lengthAdjust="spacing" textLength="4" x="952" y="585.6357"> </text><line style="stroke:#181818;stroke-width:1.0;stroke-dasharray:2.0,2.0;" x1="922" x2="964" y1="633.8438" y2="633.8438"/><line style="stroke:#181818;stroke-width:1.0;stroke-dasharray:2.0,2.0;" x1="964" x2="964" y1="633.8438" y2="646.8438"/><line style="stroke:#181818;stroke-width:1.0;stroke-dasharray:2.0,2.0;" x1="917" x2="964" y1="646.8438" y2="646.8438"/><polygon fill="#181818" points="927,642.8438,917,646.8438,927,650.8438,923,646.8438" style="stroke:#181818;stroke-width:1.0;"/><text fill="#000000" font-family="sans-serif" font-size="13" font-weight="bold" lengthAdjust="spacing" textLength="14" x="929" y="628.9873">21</text><text fill="#000000" font-family="sans-serif" font-size="13" lengthAdjust="spacing" textLength="4" x="947" y="628.9873"> </text><line style="stroke:#181818;stroke-width:1.0;stroke-dasharray:2.0,2.0;" x1="917" x2="959" y1="677.1953" y2="677.1953"/><line style="stroke:#181818;stroke-width:1.0;stroke-dasharray:2.0,2.0;" x1="959" x2="959" y1="677.1953" y2="690.1953"/><line style="stroke:#181818;stroke-width:1.0;stroke-dasharray:2.0,2.0;" x1="912" x2="959" y1="690.1953" y2="690.1953"/><polygon fill="#181818" points="922,686.1953,912,690.1953,922,694.1953,918,690.1953" style="stroke:#181818;stroke-width:1.0;"/><text fill="#000000" font-family="sans-serif" font-size="13" font-weight="bold" lengthAdjust="spacing" textLength="14" x="924" y="672.3389">22</text><text fill="#000000" font-family="sans-serif" font-size="13" lengthAdjust="spacing" textLength="4" x="942" y="672.3389"> </text><line style="stroke:#181818;stroke-width:1.0;stroke-dasharray:2.0,2.0;" x1="912" x2="954" y1="720.5469" y2="720.5469"/><line style="stroke:#181818;stroke-width:1.0;stroke-dasharray:2.0,2.0;" x1="954" x2="954" y1="720.5469" y2="733.5469"/><line style="stroke:#181818;stroke-width:1.0;stroke-dasharray:2.0,2.0;" x1="907" x2="954" y1="733.5469" y2="733.5469"/><polygon fill="#181818" points="917,729.5469,907,733.5469,917,737.5469,913,733.5469" style="stroke:#181818;stroke-width:1.0;"/><text fill="#000000" font-family="sans-serif" font-size="13" font-weight="bold" lengthAdjust="spacing" textLength="14" x="919" y="715.6904">23</text><text fill="#000000" font-family="sans-serif" font-size="13" lengthAdjust="spacing" textLength="4" x="937" y="715.6904"> </text><polygon fill="#181818" points="454,754.8984,444,758.8984,454,762.8984,450,758.8984" style="stroke:#181818;stroke-width:1.0;"/><line style="stroke:#181818;stroke-width:1.0;stroke-dasharray:2.0,2.0;" x1="448" x2="901" y1="758.8984" y2="758.8984"/><text fill="#000000" font-family="sans-serif" font-size="13" font-weight="bold" lengthAdjust="spacing" textLength="14" x="460" y="754.042">24</text><text fill="#000000" font-family="sans-serif" font-size="13" lengthAdjust="spacing" textLength="67" x="478" y="754.042">collaborator</text><line style="stroke:#181818;stroke-width:1.0;" x1="443" x2="490" y1="784.25" y2="784.25"/><line style="stroke:#181818;stroke-width:1.0;" x1="490" x2="490" y1="784.25" y2="797.25"/><line style="stroke:#181818;stroke-width:1.0;" x1="449" x2="490" y1="797.25" y2="797.25"/><polygon fill="#181818" points="459,793.25,449,797.25,459,801.25,455,797.25" style="stroke:#181818;stroke-width:1.0;"/><text fill="#000000" font-family="sans-serif" font-size="13" font-weight="bold" lengthAdjust="spacing" textLength="14" x="455" y="779.3936">25</text><text fill="#000000" font-family="sans-serif" font-size="13" lengthAdjust="spacing" textLength="223" x="473" y="779.3936">check for duplicates (documentCode[])</text><line style="stroke:#181818;stroke-width:1.0;stroke-dasharray:2.0,2.0;" x1="448" x2="490" y1="837.6016" y2="837.6016"/><line style="stroke:#181818;stroke-width:1.0;stroke-dasharray:2.0,2.0;" x1="490" x2="490" y1="837.6016" y2="850.6016"/><line style="stroke:#181818;stroke-width:1.0;stroke-dasharray:2.0,2.0;" x1="443" x2="490" y1="850.6016" y2="850.6016"/><polygon fill="#181818" points="453,846.6016,443,850.6016,453,854.6016,449,850.6016" style="stroke:#181818;stroke-width:1.0;"/><text fill="#000000" font-family="sans-serif" font-size="13" font-weight="bold" lengthAdjust="spacing" textLength="14" x="455" y="832.7451">26</text><text fill="#000000" font-family="sans-serif" font-size="13" lengthAdjust="spacing" textLength="4" x="473" y="832.7451"> </text><polygon fill="#181818" points="11,878.9531,1,882.9531,11,886.9531,7,882.9531" style="stroke:#181818;stroke-width:1.0;"/><line style="stroke:#181818;stroke-width:1.0;stroke-dasharray:2.0,2.0;" x1="5" x2="437" y1="882.9531" y2="882.9531"/><text fill="#000000" font-family="sans-serif" font-size="13" font-weight="bold" lengthAdjust="spacing" textLength="14" x="17" y="878.0967">27</text><text fill="#000000" font-family="sans-serif" font-size="13" lengthAdjust="spacing" textLength="67" x="35" y="878.0967">collaborator</text><!--SRC=[rLJ1Rjim3BthAuYUqi86jcinzD2qEtN0aFQqjWTQOXmriYX8SWVlwyVOZUSqMR4km83vOebyUdea_PpMrWUCs433dlKgSaEGOqigZPc0UeqrtURE4KJI6Ntjfe2qGiFVhQzXYIwHKXBELjk0FiE9PkUmueYPuu829okBxlp1pmycJW0Jp6yk5zTVTtccy2r8AMmp-xQfACB73weiBrxEdeEEX9baD_FOK06LZNbb95I0PfzHvozSMITRQj2w0j2OI2aLyCE6EHig7Znecxi23Eks8P_lka3tZx_sFKhEDJObo_vAo4-L4DjdMMsB07dgo6s01TKsPL4wRKcV7w3bXRpFpc2h_HyBD_HQUgzjyqmJOr3MCFHR53zJjClkitMEp6nQt-cxIORgZYIvthJcI8vlGpkFPBdSZEzFECQeOmwmv0ZetCu8WQidyLzwwxghoOZVhNpW6cExNyGO9czwZUfl3lyFq8E5YI4spdnjtJTkshFJ2yiEtuhqkX-sQOEpMk09PbEVtZ_k_rEsH2FJ0VFAbDIdiZoiV1_-krRy1000]--></g></svg>