<?xml version="1.0" encoding="UTF-8" standalone="no"?><svg xmlns="http://www.w3.org/2000/svg" xmlns:xlink="http://www.w3.org/1999/xlink" contentStyleType="text/css" height="1236px" preserveAspectRatio="none" style="width:912px;height:1236px;background:#FFFFFF;" version="1.1" viewBox="0 0 912 1236" width="912px" zoomAndPan="magnify"><defs/><g><!--class RegisterCollaboratorUI--><g id="elem_RegisterCollaboratorUI"><rect codeLine="7" fill="#F1F1F1" height="48" id="RegisterCollaboratorUI" rx="2.5" ry="2.5" style="stroke:#181818;stroke-width:0.5;" width="175" x="419" y="7"/><ellipse cx="434" cy="23" fill="#ADD1B2" rx="11" ry="11" style="stroke:#181818;stroke-width:1.0;"/><path d="M436.7656,18.875 Q436.9219,18.6563 437.1094,18.5469 Q437.2969,18.4375 437.5156,18.4375 Q437.8906,18.4375 438.125,18.7031 Q438.3594,18.9531 438.3594,19.5625 L438.3594,21.0156 Q438.3594,21.625 438.125,21.8906 Q437.8906,22.1563 437.5156,22.1563 Q437.1719,22.1563 436.9688,21.9531 Q436.7656,21.7656 436.6563,21.25 Q436.6094,20.8906 436.4219,20.7031 Q436.0938,20.3281 435.4844,20.1094 Q434.875,19.8906 434.25,19.8906 Q433.4844,19.8906 432.8438,20.2188 Q432.2188,20.5469 431.7188,21.2969 Q431.2344,22.0469 431.2344,23.0781 L431.2344,24.1719 Q431.2344,25.4063 432.125,26.2344 Q433.0156,27.0469 434.6094,27.0469 Q435.5469,27.0469 436.2031,26.7969 Q436.5938,26.6406 437.0156,26.2031 Q437.2813,25.9375 437.4219,25.8594 Q437.5781,25.7813 437.7813,25.7813 Q438.1094,25.7813 438.3594,26.0469 Q438.625,26.2969 438.625,26.6406 Q438.625,26.9844 438.2813,27.3906 Q437.7813,27.9688 436.9844,28.2969 Q435.9063,28.75 434.6094,28.75 Q433.0938,28.75 431.8906,28.125 Q430.9063,27.625 430.2188,26.5625 Q429.5313,25.4844 429.5313,24.2031 L429.5313,23.0469 Q429.5313,21.7188 430.1406,20.5781 Q430.7656,19.4219 431.8594,18.8125 Q432.9531,18.1875 434.1875,18.1875 Q434.9219,18.1875 435.5625,18.3594 Q436.2188,18.5156 436.7656,18.875 Z " fill="#000000"/><text fill="#000000" font-family="sans-serif" font-size="14" lengthAdjust="spacing" textLength="143" x="448" y="28.7285">RegisterCollaboratorUI</text><line style="stroke:#181818;stroke-width:0.5;" x1="420" x2="593" y1="39" y2="39"/><line style="stroke:#181818;stroke-width:0.5;" x1="420" x2="593" y1="47" y2="47"/></g><!--class RegisterCollaboratorController--><g id="elem_RegisterCollaboratorController"><rect codeLine="10" fill="#F1F1F1" height="136.0469" id="RegisterCollaboratorController" rx="2.5" ry="2.5" style="stroke:#181818;stroke-width:0.5;" width="650" x="181.5" y="116"/><ellipse cx="405.75" cy="132" fill="#ADD1B2" rx="11" ry="11" style="stroke:#181818;stroke-width:1.0;"/><path d="M408.5156,127.875 Q408.6719,127.6563 408.8594,127.5469 Q409.0469,127.4375 409.2656,127.4375 Q409.6406,127.4375 409.875,127.7031 Q410.1094,127.9531 410.1094,128.5625 L410.1094,130.0156 Q410.1094,130.625 409.875,130.8906 Q409.6406,131.1563 409.2656,131.1563 Q408.9219,131.1563 408.7188,130.9531 Q408.5156,130.7656 408.4063,130.25 Q408.3594,129.8906 408.1719,129.7031 Q407.8438,129.3281 407.2344,129.1094 Q406.625,128.8906 406,128.8906 Q405.2344,128.8906 404.5938,129.2188 Q403.9688,129.5469 403.4688,130.2969 Q402.9844,131.0469 402.9844,132.0781 L402.9844,133.1719 Q402.9844,134.4063 403.875,135.2344 Q404.7656,136.0469 406.3594,136.0469 Q407.2969,136.0469 407.9531,135.7969 Q408.3438,135.6406 408.7656,135.2031 Q409.0313,134.9375 409.1719,134.8594 Q409.3281,134.7813 409.5313,134.7813 Q409.8594,134.7813 410.1094,135.0469 Q410.375,135.2969 410.375,135.6406 Q410.375,135.9844 410.0313,136.3906 Q409.5313,136.9688 408.7344,137.2969 Q407.6563,137.75 406.3594,137.75 Q404.8438,137.75 403.6406,137.125 Q402.6563,136.625 401.9688,135.5625 Q401.2813,134.4844 401.2813,133.2031 L401.2813,132.0469 Q401.2813,130.7188 401.8906,129.5781 Q402.5156,128.4219 403.6094,127.8125 Q404.7031,127.1875 405.9375,127.1875 Q406.6719,127.1875 407.3125,127.3594 Q407.9688,127.5156 408.5156,127.875 Z " fill="#000000"/><text fill="#000000" font-family="sans-serif" font-size="14" lengthAdjust="spacing" textLength="193" x="426.25" y="137.7285">RegisterCollaboratorController</text><line style="stroke:#181818;stroke-width:0.5;" x1="182.5" x2="830.5" y1="148" y2="148"/><line style="stroke:#181818;stroke-width:0.5;" x1="182.5" x2="830.5" y1="156" y2="156"/><ellipse cx="192.5" cy="187.9141" fill="#84BE84" rx="3" ry="3" style="stroke:#038048;stroke-width:1.0;"/><text fill="#000000" font-family="sans-serif" font-size="14" lengthAdjust="spacing" textLength="410" x="201.5" y="174.5332">createCLB(name : String, birthdate : Date, contactMobile : String,</text><text fill="#000000" font-family="sans-serif" font-size="14" lengthAdjust="spacing" textLength="380" x="201.5" y="192.1426">email : String, address : String, zipCode : String, city : String,</text><text fill="#000000" font-family="sans-serif" font-size="14" lengthAdjust="spacing" textLength="624" x="201.5" y="209.752">documentType, identificationNumber, admissionDate : Date, identificationNumber : String, job : Job)</text><ellipse cx="192.5" cy="223.1328" fill="#84BE84" rx="3" ry="3" style="stroke:#038048;stroke-width:1.0;"/><text fill="#000000" font-family="sans-serif" font-size="14" lengthAdjust="spacing" textLength="222" x="201.5" y="227.3613">getJobRepository() : JobRepository</text><ellipse cx="192.5" cy="240.7422" fill="#84BE84" rx="3" ry="3" style="stroke:#038048;stroke-width:1.0;"/><text fill="#000000" font-family="sans-serif" font-size="14" lengthAdjust="spacing" textLength="334" x="201.5" y="244.9707">getCollaboratorRepository() : CollaboratorRepository</text></g><!--class Repositories--><g id="elem_Repositories"><rect codeLine="17" fill="#F1F1F1" height="136.0469" id="Repositories" rx="2.5" ry="2.5" style="stroke:#181818;stroke-width:0.5;" width="360" x="326.5" y="330"/><ellipse cx="462.75" cy="346" fill="#ADD1B2" rx="11" ry="11" style="stroke:#181818;stroke-width:1.0;"/><path d="M465.5156,341.875 Q465.6719,341.6563 465.8594,341.5469 Q466.0469,341.4375 466.2656,341.4375 Q466.6406,341.4375 466.875,341.7031 Q467.1094,341.9531 467.1094,342.5625 L467.1094,344.0156 Q467.1094,344.625 466.875,344.8906 Q466.6406,345.1563 466.2656,345.1563 Q465.9219,345.1563 465.7188,344.9531 Q465.5156,344.7656 465.4063,344.25 Q465.3594,343.8906 465.1719,343.7031 Q464.8438,343.3281 464.2344,343.1094 Q463.625,342.8906 463,342.8906 Q462.2344,342.8906 461.5938,343.2188 Q460.9688,343.5469 460.4688,344.2969 Q459.9844,345.0469 459.9844,346.0781 L459.9844,347.1719 Q459.9844,348.4063 460.875,349.2344 Q461.7656,350.0469 463.3594,350.0469 Q464.2969,350.0469 464.9531,349.7969 Q465.3438,349.6406 465.7656,349.2031 Q466.0313,348.9375 466.1719,348.8594 Q466.3281,348.7813 466.5313,348.7813 Q466.8594,348.7813 467.1094,349.0469 Q467.375,349.2969 467.375,349.6406 Q467.375,349.9844 467.0313,350.3906 Q466.5313,350.9688 465.7344,351.2969 Q464.6563,351.75 463.3594,351.75 Q461.8438,351.75 460.6406,351.125 Q459.6563,350.625 458.9688,349.5625 Q458.2813,348.4844 458.2813,347.2031 L458.2813,346.0469 Q458.2813,344.7188 458.8906,343.5781 Q459.5156,342.4219 460.6094,341.8125 Q461.7031,341.1875 462.9375,341.1875 Q463.6719,341.1875 464.3125,341.3594 Q464.9688,341.5156 465.5156,341.875 Z " fill="#000000"/><text fill="#000000" font-family="sans-serif" font-size="14" lengthAdjust="spacing" textLength="79" x="483.25" y="351.7285">Repositories</text><line style="stroke:#181818;stroke-width:0.5;" x1="327.5" x2="685.5" y1="362" y2="362"/><rect fill="none" height="6" style="stroke:#C82930;stroke-width:1.0;" width="6" x="334.5" y="373.3047"/><text fill="#000000" font-family="sans-serif" font-size="14" lengthAdjust="spacing" textLength="185" x="346.5" y="380.5332">jobRepository: JobRepository</text><rect fill="none" height="6" style="stroke:#C82930;stroke-width:1.0;" width="6" x="334.5" y="390.9141"/><text fill="#000000" font-family="sans-serif" font-size="14" lengthAdjust="spacing" textLength="297" x="346.5" y="398.1426">collaboratorRepository: CollaboratorRepository</text><line style="stroke:#181818;stroke-width:0.5;" x1="327.5" x2="685.5" y1="405.2188" y2="405.2188"/><ellipse cx="337.5" cy="419.5234" fill="#84BE84" rx="3" ry="3" style="stroke:#038048;stroke-width:1.0;"/><text fill="#000000" font-family="sans-serif" font-size="14" lengthAdjust="spacing" textLength="170" x="346.5" y="423.752">getInstance(): Repositories</text><ellipse cx="337.5" cy="437.1328" fill="#84BE84" rx="3" ry="3" style="stroke:#038048;stroke-width:1.0;"/><text fill="#000000" font-family="sans-serif" font-size="14" lengthAdjust="spacing" textLength="222" x="346.5" y="441.3613">getJobRepository() : JobRepository</text><ellipse cx="337.5" cy="454.7422" fill="#84BE84" rx="3" ry="3" style="stroke:#038048;stroke-width:1.0;"/><text fill="#000000" font-family="sans-serif" font-size="14" lengthAdjust="spacing" textLength="334" x="346.5" y="458.9707">getCollaboratorRepository() : CollaboratorRepository</text></g><!--class CollaboratorRepository--><g id="elem_CollaboratorRepository"><rect codeLine="26" fill="#F1F1F1" height="153.6563" id="CollaboratorRepository" rx="2.5" ry="2.5" style="stroke:#181818;stroke-width:0.5;" width="409" x="26" y="544"/><ellipse cx="153.25" cy="560" fill="#ADD1B2" rx="11" ry="11" style="stroke:#181818;stroke-width:1.0;"/><path d="M156.0156,555.875 Q156.1719,555.6563 156.3594,555.5469 Q156.5469,555.4375 156.7656,555.4375 Q157.1406,555.4375 157.375,555.7031 Q157.6094,555.9531 157.6094,556.5625 L157.6094,558.0156 Q157.6094,558.625 157.375,558.8906 Q157.1406,559.1563 156.7656,559.1563 Q156.4219,559.1563 156.2188,558.9531 Q156.0156,558.7656 155.9063,558.25 Q155.8594,557.8906 155.6719,557.7031 Q155.3438,557.3281 154.7344,557.1094 Q154.125,556.8906 153.5,556.8906 Q152.7344,556.8906 152.0938,557.2188 Q151.4688,557.5469 150.9688,558.2969 Q150.4844,559.0469 150.4844,560.0781 L150.4844,561.1719 Q150.4844,562.4063 151.375,563.2344 Q152.2656,564.0469 153.8594,564.0469 Q154.7969,564.0469 155.4531,563.7969 Q155.8438,563.6406 156.2656,563.2031 Q156.5313,562.9375 156.6719,562.8594 Q156.8281,562.7813 157.0313,562.7813 Q157.3594,562.7813 157.6094,563.0469 Q157.875,563.2969 157.875,563.6406 Q157.875,563.9844 157.5313,564.3906 Q157.0313,564.9688 156.2344,565.2969 Q155.1563,565.75 153.8594,565.75 Q152.3438,565.75 151.1406,565.125 Q150.1563,564.625 149.4688,563.5625 Q148.7813,562.4844 148.7813,561.2031 L148.7813,560.0469 Q148.7813,558.7188 149.3906,557.5781 Q150.0156,556.4219 151.1094,555.8125 Q152.2031,555.1875 153.4375,555.1875 Q154.1719,555.1875 154.8125,555.3594 Q155.4688,555.5156 156.0156,555.875 Z " fill="#000000"/><text fill="#000000" font-family="sans-serif" font-size="14" lengthAdjust="spacing" textLength="146" x="173.75" y="565.7285">CollaboratorRepository</text><line style="stroke:#181818;stroke-width:0.5;" x1="27" x2="434" y1="576" y2="576"/><line style="stroke:#181818;stroke-width:0.5;" x1="27" x2="434" y1="584" y2="584"/><ellipse cx="37" cy="624.7188" fill="#84BE84" rx="3" ry="3" style="stroke:#038048;stroke-width:1.0;"/><text fill="#000000" font-family="sans-serif" font-size="14" lengthAdjust="spacing" textLength="383" x="46" y="602.5332">create(name : String, birthdate : Date, contactMobile : String,</text><text fill="#000000" font-family="sans-serif" font-size="14" lengthAdjust="spacing" textLength="380" x="46" y="620.1426">email : String, address : String, zipCode : String, city : String,</text><text fill="#000000" font-family="sans-serif" font-size="14" lengthAdjust="spacing" textLength="332" x="46" y="637.752">documentType : String, identificationNumber : String,</text><text fill="#000000" font-family="sans-serif" font-size="14" lengthAdjust="spacing" textLength="339" x="46" y="655.3613">admissionDate : Date, taxpayerNumber : int, job : Job)</text><ellipse cx="37" cy="668.7422" fill="#84BE84" rx="3" ry="3" style="stroke:#038048;stroke-width:1.0;"/><text fill="#000000" font-family="sans-serif" font-size="14" lengthAdjust="spacing" textLength="173" x="46" y="672.9707">checkForDuplicates() : void</text><ellipse cx="37" cy="686.3516" fill="#84BE84" rx="3" ry="3" style="stroke:#038048;stroke-width:1.0;"/><text fill="#000000" font-family="sans-serif" font-size="14" lengthAdjust="spacing" textLength="225" x="46" y="690.5801">addCollaborator(collaborator) : void</text></g><!--class JobRepository--><g id="elem_JobRepository"><rect codeLine="33" fill="#F1F1F1" height="83.2188" id="JobRepository" rx="2.5" ry="2.5" style="stroke:#181818;stroke-width:0.5;" width="203" x="665" y="579.5"/><ellipse cx="717.25" cy="595.5" fill="#ADD1B2" rx="11" ry="11" style="stroke:#181818;stroke-width:1.0;"/><path d="M720.0156,591.375 Q720.1719,591.1563 720.3594,591.0469 Q720.5469,590.9375 720.7656,590.9375 Q721.1406,590.9375 721.375,591.2031 Q721.6094,591.4531 721.6094,592.0625 L721.6094,593.5156 Q721.6094,594.125 721.375,594.3906 Q721.1406,594.6563 720.7656,594.6563 Q720.4219,594.6563 720.2188,594.4531 Q720.0156,594.2656 719.9063,593.75 Q719.8594,593.3906 719.6719,593.2031 Q719.3438,592.8281 718.7344,592.6094 Q718.125,592.3906 717.5,592.3906 Q716.7344,592.3906 716.0938,592.7188 Q715.4688,593.0469 714.9688,593.7969 Q714.4844,594.5469 714.4844,595.5781 L714.4844,596.6719 Q714.4844,597.9063 715.375,598.7344 Q716.2656,599.5469 717.8594,599.5469 Q718.7969,599.5469 719.4531,599.2969 Q719.8438,599.1406 720.2656,598.7031 Q720.5313,598.4375 720.6719,598.3594 Q720.8281,598.2813 721.0313,598.2813 Q721.3594,598.2813 721.6094,598.5469 Q721.875,598.7969 721.875,599.1406 Q721.875,599.4844 721.5313,599.8906 Q721.0313,600.4688 720.2344,600.7969 Q719.1563,601.25 717.8594,601.25 Q716.3438,601.25 715.1406,600.625 Q714.1563,600.125 713.4688,599.0625 Q712.7813,597.9844 712.7813,596.7031 L712.7813,595.5469 Q712.7813,594.2188 713.3906,593.0781 Q714.0156,591.9219 715.1094,591.3125 Q716.2031,590.6875 717.4375,590.6875 Q718.1719,590.6875 718.8125,590.8594 Q719.4688,591.0156 720.0156,591.375 Z " fill="#000000"/><text fill="#000000" font-family="sans-serif" font-size="14" lengthAdjust="spacing" textLength="90" x="737.75" y="601.2285">JobRepository</text><line style="stroke:#181818;stroke-width:0.5;" x1="666" x2="867" y1="611.5" y2="611.5"/><line style="stroke:#181818;stroke-width:0.5;" x1="666" x2="867" y1="619.5" y2="619.5"/><ellipse cx="676" cy="633.8047" fill="#84BE84" rx="3" ry="3" style="stroke:#038048;stroke-width:1.0;"/><text fill="#000000" font-family="sans-serif" font-size="14" lengthAdjust="spacing" textLength="177" x="685" y="638.0332">createJob(title : String) : Job</text><ellipse cx="676" cy="651.4141" fill="#84BE84" rx="3" ry="3" style="stroke:#038048;stroke-width:1.0;"/><text fill="#000000" font-family="sans-serif" font-size="14" lengthAdjust="spacing" textLength="173" x="685" y="655.6426">checkForDuplicates() : void</text></g><!--class Collaborator--><g id="elem_Collaborator"><rect codeLine="38" fill="#F1F1F1" height="453.0156" id="Collaborator" rx="2.5" ry="2.5" style="stroke:#181818;stroke-width:0.5;" width="447" x="7" y="776"/><ellipse cx="187.25" cy="792" fill="#ADD1B2" rx="11" ry="11" style="stroke:#181818;stroke-width:1.0;"/><path d="M190.0156,787.875 Q190.1719,787.6563 190.3594,787.5469 Q190.5469,787.4375 190.7656,787.4375 Q191.1406,787.4375 191.375,787.7031 Q191.6094,787.9531 191.6094,788.5625 L191.6094,790.0156 Q191.6094,790.625 191.375,790.8906 Q191.1406,791.1563 190.7656,791.1563 Q190.4219,791.1563 190.2188,790.9531 Q190.0156,790.7656 189.9063,790.25 Q189.8594,789.8906 189.6719,789.7031 Q189.3438,789.3281 188.7344,789.1094 Q188.125,788.8906 187.5,788.8906 Q186.7344,788.8906 186.0938,789.2188 Q185.4688,789.5469 184.9688,790.2969 Q184.4844,791.0469 184.4844,792.0781 L184.4844,793.1719 Q184.4844,794.4063 185.375,795.2344 Q186.2656,796.0469 187.8594,796.0469 Q188.7969,796.0469 189.4531,795.7969 Q189.8438,795.6406 190.2656,795.2031 Q190.5313,794.9375 190.6719,794.8594 Q190.8281,794.7813 191.0313,794.7813 Q191.3594,794.7813 191.6094,795.0469 Q191.875,795.2969 191.875,795.6406 Q191.875,795.9844 191.5313,796.3906 Q191.0313,796.9688 190.2344,797.2969 Q189.1563,797.75 187.8594,797.75 Q186.3438,797.75 185.1406,797.125 Q184.1563,796.625 183.4688,795.5625 Q182.7813,794.4844 182.7813,793.2031 L182.7813,792.0469 Q182.7813,790.7188 183.3906,789.5781 Q184.0156,788.4219 185.1094,787.8125 Q186.2031,787.1875 187.4375,787.1875 Q188.1719,787.1875 188.8125,787.3594 Q189.4688,787.5156 190.0156,787.875 Z " fill="#000000"/><text fill="#000000" font-family="sans-serif" font-size="14" lengthAdjust="spacing" textLength="78" x="207.75" y="797.7285">Collaborator</text><line style="stroke:#181818;stroke-width:0.5;" x1="8" x2="453" y1="808" y2="808"/><rect fill="none" height="6" style="stroke:#C82930;stroke-width:1.0;" width="6" x="15" y="819.3047"/><text fill="#000000" font-family="sans-serif" font-size="14" lengthAdjust="spacing" textLength="84" x="27" y="826.5332">name : String</text><rect fill="none" height="6" style="stroke:#C82930;stroke-width:1.0;" width="6" x="15" y="836.9141"/><text fill="#000000" font-family="sans-serif" font-size="14" lengthAdjust="spacing" textLength="98" x="27" y="844.1426">birthdate : Date</text><rect fill="none" height="6" style="stroke:#C82930;stroke-width:1.0;" width="6" x="15" y="854.5234"/><text fill="#000000" font-family="sans-serif" font-size="14" lengthAdjust="spacing" textLength="136" x="27" y="861.752">contactMobile : String</text><rect fill="none" height="6" style="stroke:#C82930;stroke-width:1.0;" width="6" x="15" y="872.1328"/><text fill="#000000" font-family="sans-serif" font-size="14" lengthAdjust="spacing" textLength="82" x="27" y="879.3613">email : String</text><rect fill="none" height="6" style="stroke:#C82930;stroke-width:1.0;" width="6" x="15" y="889.7422"/><text fill="#000000" font-family="sans-serif" font-size="14" lengthAdjust="spacing" textLength="100" x="27" y="896.9707">address : String</text><rect fill="none" height="6" style="stroke:#C82930;stroke-width:1.0;" width="6" x="15" y="907.3516"/><text fill="#000000" font-family="sans-serif" font-size="14" lengthAdjust="spacing" textLength="100" x="27" y="914.5801">zipCode : String</text><rect fill="none" height="6" style="stroke:#C82930;stroke-width:1.0;" width="6" x="15" y="924.9609"/><text fill="#000000" font-family="sans-serif" font-size="14" lengthAdjust="spacing" textLength="70" x="27" y="932.1895">city : String</text><rect fill="none" height="6" style="stroke:#C82930;stroke-width:1.0;" width="6" x="15" y="942.5703"/><text fill="#000000" font-family="sans-serif" font-size="14" lengthAdjust="spacing" textLength="135" x="27" y="949.7988">admissionDate : Date</text><rect fill="none" height="6" style="stroke:#C82930;stroke-width:1.0;" width="6" x="15" y="960.1797"/><text fill="#000000" font-family="sans-serif" font-size="14" lengthAdjust="spacing" textLength="53" x="27" y="967.4082">job : Job</text><rect fill="none" height="6" style="stroke:#C82930;stroke-width:1.0;" width="6" x="15" y="977.7891"/><text fill="#000000" font-family="sans-serif" font-size="14" lengthAdjust="spacing" textLength="130" x="27" y="985.0176">taxpayerNumber : int</text><rect fill="none" height="6" style="stroke:#C82930;stroke-width:1.0;" width="6" x="15" y="995.3984"/><text fill="#000000" font-family="sans-serif" font-size="14" lengthAdjust="spacing" textLength="143" x="27" y="1002.627">documentType : String</text><rect fill="none" height="6" style="stroke:#C82930;stroke-width:1.0;" width="6" x="15" y="1013.0078"/><text fill="#000000" font-family="sans-serif" font-size="14" lengthAdjust="spacing" textLength="177" x="27" y="1020.2363">identificationNumber : String</text><line style="stroke:#181818;stroke-width:0.5;" x1="8" x2="453" y1="1027.3125" y2="1027.3125"/><ellipse cx="18" cy="1068.0313" fill="#84BE84" rx="3" ry="3" style="stroke:#038048;stroke-width:1.0;"/><text fill="#000000" font-family="sans-serif" font-size="14" lengthAdjust="spacing" textLength="421" x="27" y="1045.8457">Collaborator(name : String, birthdate : Date, contactMobile : String,</text><text fill="#000000" font-family="sans-serif" font-size="14" lengthAdjust="spacing" textLength="380" x="27" y="1063.4551">email : String, address : String, zipCode : String, city : String,</text><text fill="#000000" font-family="sans-serif" font-size="14" lengthAdjust="spacing" textLength="332" x="27" y="1081.0645">documentType : String, identificationNumber : String,</text><text fill="#000000" font-family="sans-serif" font-size="14" lengthAdjust="spacing" textLength="339" x="27" y="1098.6738">admissionDate : Date, taxpayerNumber : int, job : Job)</text><ellipse cx="18" cy="1112.0547" fill="#84BE84" rx="3" ry="3" style="stroke:#038048;stroke-width:1.0;"/><text fill="#000000" font-family="sans-serif" font-size="14" lengthAdjust="spacing" textLength="191" x="27" y="1116.2832">verifyFilled(collaborator) : void</text><ellipse cx="18" cy="1129.6641" fill="#84BE84" rx="3" ry="3" style="stroke:#038048;stroke-width:1.0;"/><text fill="#000000" font-family="sans-serif" font-size="14" lengthAdjust="spacing" textLength="198" x="27" y="1133.8926">verifyMobile(collaborator) : void</text><ellipse cx="18" cy="1147.2734" fill="#84BE84" rx="3" ry="3" style="stroke:#038048;stroke-width:1.0;"/><text fill="#000000" font-family="sans-serif" font-size="14" lengthAdjust="spacing" textLength="191" x="27" y="1151.502">verifyEmail(collaborator) : void</text><ellipse cx="18" cy="1164.8828" fill="#84BE84" rx="3" ry="3" style="stroke:#038048;stroke-width:1.0;"/><text fill="#000000" font-family="sans-serif" font-size="14" lengthAdjust="spacing" textLength="210" x="27" y="1169.1113">verifyZipCode(collaborator) : void</text><ellipse cx="18" cy="1182.4922" fill="#84BE84" rx="3" ry="3" style="stroke:#038048;stroke-width:1.0;"/><text fill="#000000" font-family="sans-serif" font-size="14" lengthAdjust="spacing" textLength="186" x="27" y="1186.7207">verifyBirth(collaborator) : void</text><ellipse cx="18" cy="1200.1016" fill="#84BE84" rx="3" ry="3" style="stroke:#038048;stroke-width:1.0;"/><text fill="#000000" font-family="sans-serif" font-size="14" lengthAdjust="spacing" textLength="255" x="27" y="1204.3301">verifyDocumentCode(collaborator) : void</text><ellipse cx="18" cy="1217.7109" fill="#84BE84" rx="3" ry="3" style="stroke:#038048;stroke-width:1.0;"/><text fill="#000000" font-family="sans-serif" font-size="14" lengthAdjust="spacing" textLength="265" x="27" y="1221.9395">verifyTaxpayerNumber(collaborator) : void</text></g><!--class Job--><g id="elem_Job"><rect codeLine="61" fill="#F1F1F1" height="118.4375" id="Job" rx="2.5" ry="2.5" style="stroke:#181818;stroke-width:0.5;" width="277" x="628" y="943.5"/><ellipse cx="751.25" cy="959.5" fill="#ADD1B2" rx="11" ry="11" style="stroke:#181818;stroke-width:1.0;"/><path d="M754.0156,955.375 Q754.1719,955.1563 754.3594,955.0469 Q754.5469,954.9375 754.7656,954.9375 Q755.1406,954.9375 755.375,955.2031 Q755.6094,955.4531 755.6094,956.0625 L755.6094,957.5156 Q755.6094,958.125 755.375,958.3906 Q755.1406,958.6563 754.7656,958.6563 Q754.4219,958.6563 754.2188,958.4531 Q754.0156,958.2656 753.9063,957.75 Q753.8594,957.3906 753.6719,957.2031 Q753.3438,956.8281 752.7344,956.6094 Q752.125,956.3906 751.5,956.3906 Q750.7344,956.3906 750.0938,956.7188 Q749.4688,957.0469 748.9688,957.7969 Q748.4844,958.5469 748.4844,959.5781 L748.4844,960.6719 Q748.4844,961.9063 749.375,962.7344 Q750.2656,963.5469 751.8594,963.5469 Q752.7969,963.5469 753.4531,963.2969 Q753.8438,963.1406 754.2656,962.7031 Q754.5313,962.4375 754.6719,962.3594 Q754.8281,962.2813 755.0313,962.2813 Q755.3594,962.2813 755.6094,962.5469 Q755.875,962.7969 755.875,963.1406 Q755.875,963.4844 755.5313,963.8906 Q755.0313,964.4688 754.2344,964.7969 Q753.1563,965.25 751.8594,965.25 Q750.3438,965.25 749.1406,964.625 Q748.1563,964.125 747.4688,963.0625 Q746.7813,961.9844 746.7813,960.7031 L746.7813,959.5469 Q746.7813,958.2188 747.3906,957.0781 Q748.0156,955.9219 749.1094,955.3125 Q750.2031,954.6875 751.4375,954.6875 Q752.1719,954.6875 752.8125,954.8594 Q753.4688,955.0156 754.0156,955.375 Z " fill="#000000"/><text fill="#000000" font-family="sans-serif" font-size="14" lengthAdjust="spacing" textLength="22" x="771.75" y="965.2285">Job</text><line style="stroke:#181818;stroke-width:0.5;" x1="629" x2="904" y1="975.5" y2="975.5"/><rect fill="none" height="6" style="stroke:#C82930;stroke-width:1.0;" width="6" x="636" y="986.8047"/><text fill="#000000" font-family="sans-serif" font-size="14" lengthAdjust="spacing" textLength="71" x="648" y="994.0332">title : String</text><line style="stroke:#181818;stroke-width:0.5;" x1="629" x2="904" y1="1001.1094" y2="1001.1094"/><ellipse cx="639" cy="1015.4141" fill="#84BE84" rx="3" ry="3" style="stroke:#038048;stroke-width:1.0;"/><text fill="#000000" font-family="sans-serif" font-size="14" lengthAdjust="spacing" textLength="103" x="648" y="1019.6426">Job(title : String)</text><ellipse cx="639" cy="1033.0234" fill="#84BE84" rx="3" ry="3" style="stroke:#038048;stroke-width:1.0;"/><text fill="#000000" font-family="sans-serif" font-size="14" lengthAdjust="spacing" textLength="169" x="648" y="1037.252">verifyFilled(job : Job) : void</text><ellipse cx="639" cy="1050.6328" fill="#84BE84" rx="3" ry="3" style="stroke:#038048;stroke-width:1.0;"/><text fill="#000000" font-family="sans-serif" font-size="14" lengthAdjust="spacing" textLength="251" x="648" y="1054.8613">verifySpecialCharacters(job : Job) : void</text></g><!--link RegisterCollaboratorUI to RegisterCollaboratorController--><g id="link_RegisterCollaboratorUI_RegisterCollaboratorController"><path codeLine="70" d="M506.5,55.26 C506.5,70.29 506.5,90.72 506.5,110.84 " fill="none" id="RegisterCollaboratorUI-to-RegisterCollaboratorController" style="stroke:#181818;stroke-width:1.0;stroke-dasharray:7.0,7.0;"/><polygon fill="#181818" points="506.5,115.95,510.5,106.95,506.5,110.95,502.5,106.95,506.5,115.95" style="stroke:#181818;stroke-width:1.0;"/></g><!--link RegisterCollaboratorController to Repositories--><g id="link_RegisterCollaboratorController_Repositories"><path codeLine="71" d="M506.5,252.08 C506.5,275.2 506.5,301.19 506.5,324.7 " fill="none" id="RegisterCollaboratorController-to-Repositories" style="stroke:#181818;stroke-width:1.0;stroke-dasharray:7.0,7.0;"/><polygon fill="#181818" points="506.5,329.99,510.5,320.99,506.5,324.99,502.5,320.99,506.5,329.99" style="stroke:#181818;stroke-width:1.0;"/><text fill="#000000" font-family="sans-serif" font-size="13" lengthAdjust="spacing" textLength="67" x="507.5" y="296.4951">repositories</text></g><!--link Repositories to Repositories--><g id="link_Repositories_Repositories"><path codeLine="72" d="M686.87,381.04 C707.85,384.17 721.5,389.82 721.5,398 C721.5,405.47 710.1,410.84 692.11,414.1 " fill="none" id="Repositories-to-Repositories" style="stroke:#181818;stroke-width:1.0;"/><polygon fill="#181818" points="686.87,414.96,696.4005,417.4439,691.8035,414.1473,695.1001,409.5503,686.87,414.96" style="stroke:#181818;stroke-width:1.0;"/><text fill="#000000" font-family="sans-serif" font-size="13" lengthAdjust="spacing" textLength="49" x="727.5" y="403.4951">instance</text></g><!--link Repositories to JobRepository--><g id="link_Repositories_JobRepository"><path codeLine="73" d="M585.57,466.21 C627.51,501.86 677.87,544.66 714.79,576.05 " fill="none" id="Repositories-to-JobRepository" style="stroke:#181818;stroke-width:1.0;"/><polygon fill="#181818" points="718.77,579.43,714.4848,570.5623,714.9536,576.1996,709.3162,576.6685,718.77,579.43" style="stroke:#181818;stroke-width:1.0;"/><text fill="#000000" font-family="sans-serif" font-size="13" lengthAdjust="spacing" textLength="79" x="637.5" y="510.4951">jobRepository</text></g><!--link Repositories to CollaboratorRepository--><g id="link_Repositories_CollaboratorRepository"><path codeLine="74" d="M422.57,466.21 C393.27,489.66 360.12,516.21 329.7,540.57 " fill="none" id="Repositories-to-CollaboratorRepository" style="stroke:#181818;stroke-width:1.0;"/><polygon fill="#181818" points="325.62,543.83,335.1432,541.3185,329.5202,540.7013,330.1373,535.0782,325.62,543.83" style="stroke:#181818;stroke-width:1.0;"/><text fill="#000000" font-family="sans-serif" font-size="13" lengthAdjust="spacing" textLength="129" x="386.5" y="510.4951">collaboratorRepository</text><text fill="#000000" font-family="sans-serif" font-size="13" lengthAdjust="spacing" textLength="7" x="327.3525" y="533.2405">1</text></g><!--link CollaboratorRepository to Collaborator--><g id="link_CollaboratorRepository_Collaborator"><path codeLine="75" d="M230.5,698.34 C230.5,719.95 230.5,744.66 230.5,770.44 " fill="none" id="CollaboratorRepository-to-Collaborator" style="stroke:#181818;stroke-width:1.0;"/><polygon fill="#181818" points="230.5,775.61,234.5,766.61,230.5,770.61,226.5,766.61,230.5,775.61" style="stroke:#181818;stroke-width:1.0;"/><text fill="#000000" font-family="sans-serif" font-size="13" lengthAdjust="spacing" textLength="74" x="231.5" y="742.4951">collaborators</text><text fill="#000000" font-family="sans-serif" font-size="13" lengthAdjust="spacing" textLength="5" x="225.418" y="765.4033">*</text></g><!--link RegisterCollaboratorController to CollaboratorRepository--><g id="link_RegisterCollaboratorController_CollaboratorRepository"><path codeLine="76" d="M354.04,252.19 C267.98,290.12 177.5,330 177.5,330 C177.5,330 177.5,466 177.5,466 C177.5,466 189.83,501.82 202.59,538.9 " fill="none" id="RegisterCollaboratorController-to-CollaboratorRepository" style="stroke:#181818;stroke-width:1.0;stroke-dasharray:7.0,7.0;"/><polygon fill="#181818" points="204.31,543.9,205.1612,534.088,202.6818,539.1725,197.5973,536.6931,204.31,543.9" style="stroke:#181818;stroke-width:1.0;"/><text fill="#000000" font-family="sans-serif" font-size="13" lengthAdjust="spacing" textLength="129" x="178.5" y="403.4951">collaboratorRepository</text></g><!--link RegisterCollaboratorController to JobRepository--><g id="link_RegisterCollaboratorController_JobRepository"><path codeLine="77" d="M634.86,252.19 C707.32,290.12 783.5,330 783.5,330 C783.5,330 783.5,466 783.5,466 C783.5,466 776.59,528.59 771.58,573.97 " fill="none" id="RegisterCollaboratorController-to-JobRepository" style="stroke:#181818;stroke-width:1.0;stroke-dasharray:7.0,7.0;"/><polygon fill="#181818" points="771.01,579.14,775.9875,570.6415,771.5669,574.1711,768.0372,569.7505,771.01,579.14" style="stroke:#181818;stroke-width:1.0;"/><text fill="#000000" font-family="sans-serif" font-size="13" lengthAdjust="spacing" textLength="79" x="784.5" y="403.4951">jobRepository</text></g><!--link JobRepository to Job--><g id="link_JobRepository_Job"><path codeLine="78" d="M766.5,662.61 C766.5,728.66 766.5,859.83 766.5,938.2 " fill="none" id="JobRepository-to-Job" style="stroke:#181818;stroke-width:1.0;"/><polygon fill="#181818" points="766.5,943.28,770.5,934.28,766.5,938.28,762.5,934.28,766.5,943.28" style="stroke:#181818;stroke-width:1.0;"/><text fill="#000000" font-family="sans-serif" font-size="13" lengthAdjust="spacing" textLength="24" x="767.5" y="742.4951">jobs</text><text fill="#000000" font-family="sans-serif" font-size="13" lengthAdjust="spacing" textLength="5" x="761.1953" y="932.5774">*</text></g><!--SRC=[vLR1RXen4BtlLrXS2Wr4wfL33u56IjJs4D9BbOln3ii4hxsoJTfjrN_lRDOiDXYMzbIfNC0pp-EPzyQCxGPLnGqlMSN5XXUmSBK4Pa0uhWe9cUq0Tirp_GrLmLPSsj0ZKO6hAs2LbdMpoB8t4bQEESqC5cl7ScmYebPP9YItbZr0WTQ1cMaf-L8RxhJvSiT-Ph_E8MPQEKDhC8HazBbYmW1tCFjuCrIy13Pb2sSenp5Red7hd7naczFNc0dQpONxf9Se0-IJWfAZ3BRoF3T0AUmjFx2QwJmCBz3LOOnSYsq9oZqI3sE6EVt45GhU5FrvMox1D75Bj9OCyp2j53Ouw5alQNMlboDVSG6ELWzGQOl4IJqSjVwzPGyCoJlOaNPbeG3UY60ztPFdy9ZKgHEH37lwk2xLEsMfvGGCHzFew1PnQT5_LNDNSjf_q6l_KAC5i9ukUbBfvdFyUyLhCDq6L2xHSs8DOdEhpNnRoUO8iAzylcZCFO9A2TaRXdtGGVTCHzBj26xv9TVGeGkOyrfxq9bKaaBkUfT5kddReNZUd5RGEsCLlV5GIcy-r7CNFnIrYt0ia7TrUlXrIZMlGoJ2VzYfBs1mLTyY3OaytOGXhYsy7_UXeQCVzhNbf1zuqoZH3vjx1YyB-XWnT1e_OKbblE-iFD45xYvMV5jzJebht7eYXVRwHHMrc4K50hcShUcL8UWfO1DmIYZBJhmchg_VzpmZifvNHXiXc8DJUXe5iodoJIP7OFH3xHWO_m5EMJHPZ-63TuCJmsdAqYCtEu5_ZVPs4Fz5na7i9RJyQJeNX3pFIUpTbN7_sX64jDbl]--></g></svg>