<?xml version="1.0" encoding="UTF-8" standalone="no"?><svg xmlns="http://www.w3.org/2000/svg" xmlns:xlink="http://www.w3.org/1999/xlink" contentStyleType="text/css" height="1731px" preserveAspectRatio="none" style="width:1800px;height:1731px;background:#FFFFFF;" version="1.1" viewBox="0 0 1800 1731" width="1800px" zoomAndPan="magnify"><defs/><g><rect fill="#FFFFFF" height="1539.0781" style="stroke:#181818;stroke-width:1.0;" width="10" x="18" y="92.6094"/><rect fill="#FFFFFF" height="72.9609" style="stroke:#181818;stroke-width:1.0;" width="10" x="419" y="114.9609"/><rect fill="#FFFFFF" height="30.3516" style="stroke:#181818;stroke-width:1.0;" width="10" x="419" y="218.2734"/><rect fill="#FFFFFF" height="30.3516" style="stroke:#181818;stroke-width:1.0;" width="10" x="419" y="461.0859"/><rect fill="#FFFFFF" height="30.3516" style="stroke:#181818;stroke-width:1.0;" width="10" x="419" y="521.7891"/><rect fill="#FFFFFF" height="30.3516" style="stroke:#181818;stroke-width:1.0;" width="10" x="419" y="582.4922"/><rect fill="#FFFFFF" height="30.3516" style="stroke:#181818;stroke-width:1.0;" width="10" x="419" y="1601.3359"/><rect fill="#FFFFFF" height="212.4609" style="stroke:#181818;stroke-width:1.0;" width="10" x="615" y="248.625"/><rect fill="#FFFFFF" height="168.1094" style="stroke:#181818;stroke-width:1.0;" width="10" x="615" y="612.8438"/><rect fill="#FFFFFF" height="30.3516" style="stroke:#181818;stroke-width:1.0;" width="10" x="615" y="1570.9844"/><rect fill="#FFFFFF" height="30.3516" style="stroke:#181818;stroke-width:1.0;" width="10" x="779" y="278.9766"/><rect fill="#FFFFFF" height="30.3516" style="stroke:#181818;stroke-width:1.0;" width="10" x="779" y="643.1953"/><rect fill="#FFFFFF" height="30.3516" style="stroke:#181818;stroke-width:1.0;" width="10" x="886" y="339.6797"/><rect fill="#FFFFFF" height="30.3516" style="stroke:#181818;stroke-width:1.0;" width="10" x="886" y="703.8984"/><rect fill="#FFFFFF" height="46.7031" style="stroke:#181818;stroke-width:1.0;" width="10" x="1058" y="780.9531"/><rect fill="#FFFFFF" height="160.4063" style="stroke:#181818;stroke-width:1.0;" width="10" x="1058" y="1410.5781"/><rect fill="#FFFFFF" height="41.3516" style="stroke:#181818;stroke-width:1.0;" width="10" x="1063" y="1448.9297"/><rect fill="#FFFFFF" height="30.3516" style="stroke:#181818;stroke-width:1.0;" width="10" x="1323" y="400.3828"/><rect fill="#FFFFFF" height="572.9219" style="stroke:#181818;stroke-width:1.0;" width="10" x="1524" y="837.6563"/><rect fill="#FFFFFF" height="507.2188" style="stroke:#181818;stroke-width:1.0;" width="10" x="1529" y="866.0078"/><rect fill="#FFFFFF" height="420.5156" style="stroke:#181818;stroke-width:1.0;" width="10" x="1534" y="909.3594"/><rect fill="#FFFFFF" height="333.8125" style="stroke:#181818;stroke-width:1.0;" width="10" x="1539" y="952.7109"/><rect fill="#FFFFFF" height="247.1094" style="stroke:#181818;stroke-width:1.0;" width="10" x="1544" y="996.0625"/><rect fill="#FFFFFF" height="160.4063" style="stroke:#181818;stroke-width:1.0;" width="10" x="1549" y="1039.4141"/><rect fill="#FFFFFF" height="41.3516" style="stroke:#181818;stroke-width:1.0;" width="10" x="1554" y="1108.1172"/><rect fill="none" height="105.0547" style="stroke:#000000;stroke-width:1.5;" width="323" x="1471" y="1059.4141"/><line style="stroke:#181818;stroke-width:0.5;stroke-dasharray:5.0,5.0;" x1="23" x2="23" y1="82.6094" y2="1649.6875"/><line style="stroke:#181818;stroke-width:0.5;stroke-dasharray:5.0,5.0;" x1="423.5" x2="423.5" y1="82.6094" y2="1649.6875"/><line style="stroke:#181818;stroke-width:0.5;stroke-dasharray:5.0,5.0;" x1="619.5" x2="619.5" y1="154.2656" y2="1649.6875"/><line style="stroke:#181818;stroke-width:0.5;stroke-dasharray:5.0,5.0;" x1="783.5" x2="783.5" y1="82.6094" y2="1649.6875"/><line style="stroke:#181818;stroke-width:0.5;stroke-dasharray:5.0,5.0;" x1="890.5" x2="890.5" y1="82.6094" y2="1649.6875"/><line style="stroke:#181818;stroke-width:0.5;stroke-dasharray:5.0,5.0;" x1="1062.5" x2="1062.5" y1="82.6094" y2="1649.6875"/><line style="stroke:#181818;stroke-width:0.5;stroke-dasharray:5.0,5.0;" x1="1327.5" x2="1327.5" y1="82.6094" y2="1649.6875"/><line style="stroke:#181818;stroke-width:0.5;stroke-dasharray:5.0,5.0;" x1="1529" x2="1529" y1="822.3047" y2="1649.6875"/><text fill="#000000" font-family="sans-serif" font-size="14" lengthAdjust="spacing" textLength="30" x="5" y="79.5332">HRM</text><ellipse cx="23" cy="13.5" fill="#E3E3E3" rx="8" ry="8" style="stroke:#181818;stroke-width:0.5;"/><path d="M23,21.5 L23,48.5 M10,29.5 L36,29.5 M23,48.5 L10,63.5 M23,48.5 L36,63.5 " fill="none" style="stroke:#181818;stroke-width:0.5;"/><text fill="#000000" font-family="sans-serif" font-size="14" lengthAdjust="spacing" textLength="30" x="5" y="1663.2207">HRM</text><ellipse cx="23" cy="1674.7969" fill="#E3E3E3" rx="8" ry="8" style="stroke:#181818;stroke-width:0.5;"/><path d="M23,1682.7969 L23,1709.7969 M10,1690.7969 L36,1690.7969 M23,1709.7969 L10,1724.7969 M23,1709.7969 L36,1724.7969 " fill="none" style="stroke:#181818;stroke-width:0.5;"/><rect fill="#E3E3E3" height="31.6094" rx="2.5" ry="2.5" style="stroke:#181818;stroke-width:0.5;" width="161" x="343.5" y="50"/><text fill="#000000" font-family="sans-serif" font-size="14" lengthAdjust="spacing" textLength="147" x="350.5" y="71.5332">:RegisterCollaboratorUI</text><rect fill="#E3E3E3" height="31.6094" rx="2.5" ry="2.5" style="stroke:#181818;stroke-width:0.5;" width="161" x="343.5" y="1648.6875"/><text fill="#000000" font-family="sans-serif" font-size="14" lengthAdjust="spacing" textLength="147" x="350.5" y="1670.2207">:RegisterCollaboratorUI</text><rect fill="#E3E3E3" height="31.6094" rx="2.5" ry="2.5" style="stroke:#181818;stroke-width:0.5;" width="211" x="514.5" y="1648.6875"/><text fill="#000000" font-family="sans-serif" font-size="14" lengthAdjust="spacing" textLength="197" x="521.5" y="1670.2207">:RegisterCollaboratorController</text><rect fill="#E3E3E3" height="31.6094" rx="2.5" ry="2.5" style="stroke:#181818;stroke-width:0.5;" width="97" x="735.5" y="50"/><text fill="#000000" font-family="sans-serif" font-size="14" lengthAdjust="spacing" textLength="83" x="742.5" y="71.5332">:Repositories</text><rect fill="#E3E3E3" height="31.6094" rx="2.5" ry="2.5" style="stroke:#181818;stroke-width:0.5;" width="97" x="735.5" y="1648.6875"/><text fill="#000000" font-family="sans-serif" font-size="14" lengthAdjust="spacing" textLength="83" x="742.5" y="1670.2207">:Repositories</text><rect fill="#E3E3E3" height="49.2188" rx="2.5" ry="2.5" style="stroke:#181818;stroke-width:0.5;" width="97" x="842.5" y="32.3906"/><text fill="#000000" font-family="sans-serif" font-size="14" lengthAdjust="spacing" textLength="74" x="854" y="53.9238">repositories</text><text fill="#000000" font-family="sans-serif" font-size="14" lengthAdjust="spacing" textLength="83" x="849.5" y="71.5332">:Repositories</text><rect fill="#E3E3E3" height="49.2188" rx="2.5" ry="2.5" style="stroke:#181818;stroke-width:0.5;" width="97" x="842.5" y="1648.6875"/><text fill="#000000" font-family="sans-serif" font-size="14" lengthAdjust="spacing" textLength="74" x="854" y="1670.2207">repositories</text><text fill="#000000" font-family="sans-serif" font-size="14" lengthAdjust="spacing" textLength="83" x="849.5" y="1687.8301">:Repositories</text><rect fill="#E3E3E3" height="49.2188" rx="2.5" ry="2.5" style="stroke:#181818;stroke-width:0.5;" width="161" x="982.5" y="32.3906"/><text fill="#000000" font-family="sans-serif" font-size="14" lengthAdjust="spacing" textLength="147" x="989.5" y="53.9238">collaboratorRepository:</text><text fill="#000000" font-family="sans-serif" font-size="14" lengthAdjust="spacing" textLength="146" x="990" y="71.5332">CollaboratorRepository</text><rect fill="#E3E3E3" height="49.2188" rx="2.5" ry="2.5" style="stroke:#181818;stroke-width:0.5;" width="161" x="982.5" y="1648.6875"/><text fill="#000000" font-family="sans-serif" font-size="14" lengthAdjust="spacing" textLength="147" x="989.5" y="1670.2207">collaboratorRepository:</text><text fill="#000000" font-family="sans-serif" font-size="14" lengthAdjust="spacing" textLength="146" x="990" y="1687.8301">CollaboratorRepository</text><rect fill="#E3E3E3" height="49.2188" rx="2.5" ry="2.5" style="stroke:#181818;stroke-width:0.5;" width="105" x="1275.5" y="32.3906"/><text fill="#000000" font-family="sans-serif" font-size="14" lengthAdjust="spacing" textLength="91" x="1282.5" y="53.9238">jobRepository:</text><text fill="#000000" font-family="sans-serif" font-size="14" lengthAdjust="spacing" textLength="90" x="1283" y="71.5332">JobRepository</text><rect fill="#E3E3E3" height="49.2188" rx="2.5" ry="2.5" style="stroke:#181818;stroke-width:0.5;" width="105" x="1275.5" y="1648.6875"/><text fill="#000000" font-family="sans-serif" font-size="14" lengthAdjust="spacing" textLength="91" x="1282.5" y="1670.2207">jobRepository:</text><text fill="#000000" font-family="sans-serif" font-size="14" lengthAdjust="spacing" textLength="90" x="1283" y="1687.8301">JobRepository</text><rect fill="#E3E3E3" height="31.6094" rx="2.5" ry="2.5" style="stroke:#181818;stroke-width:0.5;" width="96" x="1481" y="1648.6875"/><text fill="#000000" font-family="sans-serif" font-size="14" lengthAdjust="spacing" textLength="82" x="1488" y="1670.2207">:Collaborator</text><rect fill="#FFFFFF" height="1539.0781" style="stroke:#181818;stroke-width:1.0;" width="10" x="18" y="92.6094"/><rect fill="#FFFFFF" height="72.9609" style="stroke:#181818;stroke-width:1.0;" width="10" x="419" y="114.9609"/><rect fill="#FFFFFF" height="30.3516" style="stroke:#181818;stroke-width:1.0;" width="10" x="419" y="218.2734"/><rect fill="#FFFFFF" height="30.3516" style="stroke:#181818;stroke-width:1.0;" width="10" x="419" y="461.0859"/><rect fill="#FFFFFF" height="30.3516" style="stroke:#181818;stroke-width:1.0;" width="10" x="419" y="521.7891"/><rect fill="#FFFFFF" height="30.3516" style="stroke:#181818;stroke-width:1.0;" width="10" x="419" y="582.4922"/><rect fill="#FFFFFF" height="30.3516" style="stroke:#181818;stroke-width:1.0;" width="10" x="419" y="1601.3359"/><rect fill="#FFFFFF" height="212.4609" style="stroke:#181818;stroke-width:1.0;" width="10" x="615" y="248.625"/><rect fill="#FFFFFF" height="168.1094" style="stroke:#181818;stroke-width:1.0;" width="10" x="615" y="612.8438"/><rect fill="#FFFFFF" height="30.3516" style="stroke:#181818;stroke-width:1.0;" width="10" x="615" y="1570.9844"/><rect fill="#FFFFFF" height="30.3516" style="stroke:#181818;stroke-width:1.0;" width="10" x="779" y="278.9766"/><rect fill="#FFFFFF" height="30.3516" style="stroke:#181818;stroke-width:1.0;" width="10" x="779" y="643.1953"/><rect fill="#FFFFFF" height="30.3516" style="stroke:#181818;stroke-width:1.0;" width="10" x="886" y="339.6797"/><rect fill="#FFFFFF" height="30.3516" style="stroke:#181818;stroke-width:1.0;" width="10" x="886" y="703.8984"/><rect fill="#FFFFFF" height="46.7031" style="stroke:#181818;stroke-width:1.0;" width="10" x="1058" y="780.9531"/><rect fill="#FFFFFF" height="160.4063" style="stroke:#181818;stroke-width:1.0;" width="10" x="1058" y="1410.5781"/><rect fill="#FFFFFF" height="41.3516" style="stroke:#181818;stroke-width:1.0;" width="10" x="1063" y="1448.9297"/><rect fill="#FFFFFF" height="30.3516" style="stroke:#181818;stroke-width:1.0;" width="10" x="1323" y="400.3828"/><rect fill="#FFFFFF" height="572.9219" style="stroke:#181818;stroke-width:1.0;" width="10" x="1524" y="837.6563"/><rect fill="#FFFFFF" height="507.2188" style="stroke:#181818;stroke-width:1.0;" width="10" x="1529" y="866.0078"/><rect fill="#FFFFFF" height="420.5156" style="stroke:#181818;stroke-width:1.0;" width="10" x="1534" y="909.3594"/><rect fill="#FFFFFF" height="333.8125" style="stroke:#181818;stroke-width:1.0;" width="10" x="1539" y="952.7109"/><rect fill="#FFFFFF" height="247.1094" style="stroke:#181818;stroke-width:1.0;" width="10" x="1544" y="996.0625"/><rect fill="#FFFFFF" height="160.4063" style="stroke:#181818;stroke-width:1.0;" width="10" x="1549" y="1039.4141"/><rect fill="#FFFFFF" height="41.3516" style="stroke:#181818;stroke-width:1.0;" width="10" x="1554" y="1108.1172"/><polygon fill="#181818" points="407,110.9609,417,114.9609,407,118.9609,411,114.9609" style="stroke:#181818;stroke-width:1.0;"/><line style="stroke:#181818;stroke-width:1.0;" x1="28" x2="413" y1="114.9609" y2="114.9609"/><text fill="#000000" font-family="sans-serif" font-size="13" font-weight="bold" lengthAdjust="spacing" textLength="7" x="35" y="110.1045">1</text><text fill="#000000" font-family="sans-serif" font-size="13" lengthAdjust="spacing" textLength="192" x="46" y="110.1045">asks to create a new collaborator</text><polygon fill="#181818" points="502.5,141.3125,512.5,145.3125,502.5,149.3125,506.5,145.3125" style="stroke:#181818;stroke-width:1.0;"/><line style="stroke:#181818;stroke-width:1.0;" x1="429" x2="508.5" y1="145.3125" y2="145.3125"/><text fill="#000000" font-family="sans-serif" font-size="13" font-weight="bold" lengthAdjust="spacing" textLength="7" x="436" y="140.4561">2</text><text fill="#000000" font-family="sans-serif" font-size="13" lengthAdjust="spacing" textLength="36" x="447" y="140.4561">create</text><rect fill="#E3E3E3" height="31.6094" rx="2.5" ry="2.5" style="stroke:#181818;stroke-width:0.5;" width="211" x="514.5" y="122.9609"/><text fill="#000000" font-family="sans-serif" font-size="14" lengthAdjust="spacing" textLength="197" x="521.5" y="144.4941">:RegisterCollaboratorController</text><polygon fill="#181818" points="39,183.9219,29,187.9219,39,191.9219,35,187.9219" style="stroke:#181818;stroke-width:1.0;"/><line style="stroke:#181818;stroke-width:1.0;stroke-dasharray:2.0,2.0;" x1="33" x2="423" y1="187.9219" y2="187.9219"/><text fill="#000000" font-family="sans-serif" font-size="13" font-weight="bold" lengthAdjust="spacing" textLength="7" x="45" y="183.0654">3</text><text fill="#000000" font-family="sans-serif" font-size="13" lengthAdjust="spacing" textLength="278" x="56" y="183.0654">requests data (collaborator personal information)</text><polygon fill="#181818" points="407,214.2734,417,218.2734,407,222.2734,411,218.2734" style="stroke:#181818;stroke-width:1.0;"/><line style="stroke:#181818;stroke-width:1.0;" x1="28" x2="413" y1="218.2734" y2="218.2734"/><text fill="#000000" font-family="sans-serif" font-size="13" font-weight="bold" lengthAdjust="spacing" textLength="7" x="35" y="213.417">4</text><text fill="#000000" font-family="sans-serif" font-size="13" lengthAdjust="spacing" textLength="122" x="46" y="213.417">types requested data</text><polygon fill="#181818" points="603,244.625,613,248.625,603,252.625,607,248.625" style="stroke:#181818;stroke-width:1.0;"/><line style="stroke:#181818;stroke-width:1.0;" x1="424" x2="609" y1="248.625" y2="248.625"/><text fill="#000000" font-family="sans-serif" font-size="13" font-weight="bold" lengthAdjust="spacing" textLength="7" x="431" y="243.7686">5</text><text fill="#000000" font-family="sans-serif" font-size="13" lengthAdjust="spacing" textLength="64" x="442" y="243.7686">get job List</text><polygon fill="#181818" points="767,274.9766,777,278.9766,767,282.9766,771,278.9766" style="stroke:#181818;stroke-width:1.0;"/><line style="stroke:#181818;stroke-width:1.0;" x1="625" x2="773" y1="278.9766" y2="278.9766"/><text fill="#000000" font-family="sans-serif" font-size="13" font-weight="bold" lengthAdjust="spacing" textLength="7" x="632" y="274.1201">6</text><text fill="#000000" font-family="sans-serif" font-size="13" lengthAdjust="spacing" textLength="75" x="643" y="274.1201">getInstance()</text><polygon fill="#181818" points="636,305.3281,626,309.3281,636,313.3281,632,309.3281" style="stroke:#181818;stroke-width:1.0;"/><line style="stroke:#181818;stroke-width:1.0;stroke-dasharray:2.0,2.0;" x1="630" x2="783" y1="309.3281" y2="309.3281"/><text fill="#000000" font-family="sans-serif" font-size="13" font-weight="bold" lengthAdjust="spacing" textLength="7" x="642" y="304.4717">7</text><text fill="#000000" font-family="sans-serif" font-size="13" lengthAdjust="spacing" textLength="67" x="653" y="304.4717">repositories</text><polygon fill="#181818" points="874,335.6797,884,339.6797,874,343.6797,878,339.6797" style="stroke:#181818;stroke-width:1.0;"/><line style="stroke:#181818;stroke-width:1.0;" x1="625" x2="880" y1="339.6797" y2="339.6797"/><text fill="#000000" font-family="sans-serif" font-size="13" font-weight="bold" lengthAdjust="spacing" textLength="7" x="632" y="334.8232">8</text><text fill="#000000" font-family="sans-serif" font-size="13" lengthAdjust="spacing" textLength="108" x="643" y="334.8232">getJobRepository()</text><polygon fill="#181818" points="636,366.0313,626,370.0313,636,374.0313,632,370.0313" style="stroke:#181818;stroke-width:1.0;"/><line style="stroke:#181818;stroke-width:1.0;stroke-dasharray:2.0,2.0;" x1="630" x2="890" y1="370.0313" y2="370.0313"/><text fill="#000000" font-family="sans-serif" font-size="13" font-weight="bold" lengthAdjust="spacing" textLength="7" x="642" y="365.1748">9</text><text fill="#000000" font-family="sans-serif" font-size="13" lengthAdjust="spacing" textLength="79" x="653" y="365.1748">jobRepository</text><polygon fill="#181818" points="1311,396.3828,1321,400.3828,1311,404.3828,1315,400.3828" style="stroke:#181818;stroke-width:1.0;"/><line style="stroke:#181818;stroke-width:1.0;" x1="625" x2="1317" y1="400.3828" y2="400.3828"/><text fill="#000000" font-family="sans-serif" font-size="13" font-weight="bold" lengthAdjust="spacing" textLength="14" x="632" y="395.5264">10</text><text fill="#000000" font-family="sans-serif" font-size="13" lengthAdjust="spacing" textLength="53" x="650" y="395.5264">getJobs()</text><polygon fill="#181818" points="636,426.7344,626,430.7344,636,434.7344,632,430.7344" style="stroke:#181818;stroke-width:1.0;"/><line style="stroke:#181818;stroke-width:1.0;stroke-dasharray:2.0,2.0;" x1="630" x2="1327" y1="430.7344" y2="430.7344"/><text fill="#000000" font-family="sans-serif" font-size="13" font-weight="bold" lengthAdjust="spacing" textLength="14" x="642" y="425.8779">11</text><text fill="#000000" font-family="sans-serif" font-size="13" lengthAdjust="spacing" textLength="45" x="660" y="425.8779">jobsList</text><polygon fill="#181818" points="440,457.0859,430,461.0859,440,465.0859,436,461.0859" style="stroke:#181818;stroke-width:1.0;"/><line style="stroke:#181818;stroke-width:1.0;stroke-dasharray:2.0,2.0;" x1="434" x2="619" y1="461.0859" y2="461.0859"/><text fill="#000000" font-family="sans-serif" font-size="13" font-weight="bold" lengthAdjust="spacing" textLength="14" x="446" y="456.2295">12</text><text fill="#000000" font-family="sans-serif" font-size="13" lengthAdjust="spacing" textLength="42" x="464" y="456.2295">job List</text><polygon fill="#181818" points="39,487.4375,29,491.4375,39,495.4375,35,491.4375" style="stroke:#181818;stroke-width:1.0;"/><line style="stroke:#181818;stroke-width:1.0;stroke-dasharray:2.0,2.0;" x1="33" x2="423" y1="491.4375" y2="491.4375"/><text fill="#000000" font-family="sans-serif" font-size="13" font-weight="bold" lengthAdjust="spacing" textLength="14" x="45" y="486.5811">13</text><text fill="#000000" font-family="sans-serif" font-size="13" lengthAdjust="spacing" textLength="280" x="63" y="486.5811">shows the list of jobs and requests to select one</text><polygon fill="#181818" points="407,517.7891,417,521.7891,407,525.7891,411,521.7891" style="stroke:#181818;stroke-width:1.0;"/><line style="stroke:#181818;stroke-width:1.0;" x1="28" x2="413" y1="521.7891" y2="521.7891"/><text fill="#000000" font-family="sans-serif" font-size="13" font-weight="bold" lengthAdjust="spacing" textLength="14" x="35" y="516.9326">14</text><text fill="#000000" font-family="sans-serif" font-size="13" lengthAdjust="spacing" textLength="78" x="53" y="516.9326">select the job</text><polygon fill="#181818" points="39,548.1406,29,552.1406,39,556.1406,35,552.1406" style="stroke:#181818;stroke-width:1.0;"/><line style="stroke:#181818;stroke-width:1.0;stroke-dasharray:2.0,2.0;" x1="33" x2="423" y1="552.1406" y2="552.1406"/><text fill="#000000" font-family="sans-serif" font-size="13" font-weight="bold" lengthAdjust="spacing" textLength="14" x="45" y="547.2842">15</text><text fill="#000000" font-family="sans-serif" font-size="13" lengthAdjust="spacing" textLength="254" x="63" y="547.2842">shows all data and requests for confirmation</text><polygon fill="#181818" points="407,578.4922,417,582.4922,407,586.4922,411,582.4922" style="stroke:#181818;stroke-width:1.0;"/><line style="stroke:#181818;stroke-width:1.0;" x1="28" x2="413" y1="582.4922" y2="582.4922"/><text fill="#000000" font-family="sans-serif" font-size="13" font-weight="bold" lengthAdjust="spacing" textLength="14" x="35" y="577.6357">16</text><text fill="#000000" font-family="sans-serif" font-size="13" lengthAdjust="spacing" textLength="100" x="53" y="577.6357">confirms the data</text><polygon fill="#181818" points="603,608.8438,613,612.8438,603,616.8438,607,612.8438" style="stroke:#181818;stroke-width:1.0;"/><line style="stroke:#181818;stroke-width:1.0;" x1="424" x2="609" y1="612.8438" y2="612.8438"/><text fill="#000000" font-family="sans-serif" font-size="13" font-weight="bold" lengthAdjust="spacing" textLength="14" x="431" y="607.9873">17</text><text fill="#000000" font-family="sans-serif" font-size="13" lengthAdjust="spacing" textLength="107" x="449" y="607.9873">create collaborator</text><polygon fill="#181818" points="767,639.1953,777,643.1953,767,647.1953,771,643.1953" style="stroke:#181818;stroke-width:1.0;"/><line style="stroke:#181818;stroke-width:1.0;" x1="625" x2="773" y1="643.1953" y2="643.1953"/><text fill="#000000" font-family="sans-serif" font-size="13" font-weight="bold" lengthAdjust="spacing" textLength="14" x="632" y="638.3389">18</text><text fill="#000000" font-family="sans-serif" font-size="13" lengthAdjust="spacing" textLength="75" x="650" y="638.3389">getInstance()</text><polygon fill="#181818" points="636,669.5469,626,673.5469,636,677.5469,632,673.5469" style="stroke:#181818;stroke-width:1.0;"/><line style="stroke:#181818;stroke-width:1.0;stroke-dasharray:2.0,2.0;" x1="630" x2="783" y1="673.5469" y2="673.5469"/><text fill="#000000" font-family="sans-serif" font-size="13" font-weight="bold" lengthAdjust="spacing" textLength="14" x="642" y="668.6904">19</text><text fill="#000000" font-family="sans-serif" font-size="13" lengthAdjust="spacing" textLength="67" x="660" y="668.6904">repositories</text><polygon fill="#181818" points="874,699.8984,884,703.8984,874,707.8984,878,703.8984" style="stroke:#181818;stroke-width:1.0;"/><line style="stroke:#181818;stroke-width:1.0;" x1="625" x2="880" y1="703.8984" y2="703.8984"/><text fill="#000000" font-family="sans-serif" font-size="13" font-weight="bold" lengthAdjust="spacing" textLength="14" x="632" y="699.042">20</text><text fill="#000000" font-family="sans-serif" font-size="13" lengthAdjust="spacing" textLength="157" x="650" y="699.042">getCollaboratorRepository()</text><polygon fill="#181818" points="636,730.25,626,734.25,636,738.25,632,734.25" style="stroke:#181818;stroke-width:1.0;"/><line style="stroke:#181818;stroke-width:1.0;stroke-dasharray:2.0,2.0;" x1="630" x2="890" y1="734.25" y2="734.25"/><text fill="#000000" font-family="sans-serif" font-size="13" font-weight="bold" lengthAdjust="spacing" textLength="14" x="642" y="729.3936">21</text><text fill="#000000" font-family="sans-serif" font-size="13" lengthAdjust="spacing" textLength="129" x="660" y="729.3936">collaboratorRepository</text><polygon fill="#181818" points="1046,776.9531,1056,780.9531,1046,784.9531,1050,780.9531" style="stroke:#181818;stroke-width:1.0;"/><line style="stroke:#181818;stroke-width:1.0;" x1="620" x2="1052" y1="780.9531" y2="780.9531"/><text fill="#000000" font-family="sans-serif" font-size="13" font-weight="bold" lengthAdjust="spacing" textLength="14" x="627" y="767.9209">22</text><text fill="#000000" font-family="sans-serif" font-size="13" lengthAdjust="spacing" textLength="396" x="645" y="759.7451">createCLB(name, birthdate, contactMobile, email, address, zipCode,</text><text fill="#000000" font-family="sans-serif" font-size="13" lengthAdjust="spacing" textLength="340" x="649" y="776.0967">city, documentType[], documentCode, admissionDate, job)</text><polygon fill="#181818" points="1469,823.6563,1479,827.6563,1469,831.6563,1473,827.6563" style="stroke:#181818;stroke-width:1.0;"/><line style="stroke:#181818;stroke-width:1.0;" x1="1063" x2="1475" y1="827.6563" y2="827.6563"/><text fill="#000000" font-family="sans-serif" font-size="13" font-weight="bold" lengthAdjust="spacing" textLength="14" x="1070" y="814.624">23</text><text fill="#000000" font-family="sans-serif" font-size="13" lengthAdjust="spacing" textLength="371" x="1088" y="806.4482">create(name, birthdate, contactMobile, email, address, zipCode,</text><text fill="#000000" font-family="sans-serif" font-size="13" lengthAdjust="spacing" textLength="340" x="1092" y="822.7998">city, documentType[], documentCode, admissionDate, job)</text><rect fill="#E3E3E3" height="31.6094" rx="2.5" ry="2.5" style="stroke:#181818;stroke-width:0.5;" width="96" x="1481" y="793.0469"/><text fill="#000000" font-family="sans-serif" font-size="14" lengthAdjust="spacing" textLength="82" x="1488" y="814.5801">:Collaborator</text><line style="stroke:#181818;stroke-width:1.0;" x1="1534" x2="1581" y1="853.0078" y2="853.0078"/><line style="stroke:#181818;stroke-width:1.0;" x1="1581" x2="1581" y1="853.0078" y2="866.0078"/><line style="stroke:#181818;stroke-width:1.0;" x1="1540" x2="1581" y1="866.0078" y2="866.0078"/><polygon fill="#181818" points="1550,862.0078,1540,866.0078,1550,870.0078,1546,866.0078" style="stroke:#181818;stroke-width:1.0;"/><text fill="#000000" font-family="sans-serif" font-size="13" font-weight="bold" lengthAdjust="spacing" textLength="14" x="1546" y="848.1514">24</text><text fill="#000000" font-family="sans-serif" font-size="13" lengthAdjust="spacing" textLength="135" x="1564" y="848.1514">verifyFilled(collaborator)</text><line style="stroke:#181818;stroke-width:1.0;" x1="1539" x2="1586" y1="896.3594" y2="896.3594"/><line style="stroke:#181818;stroke-width:1.0;" x1="1586" x2="1586" y1="896.3594" y2="909.3594"/><line style="stroke:#181818;stroke-width:1.0;" x1="1545" x2="1586" y1="909.3594" y2="909.3594"/><polygon fill="#181818" points="1555,905.3594,1545,909.3594,1555,913.3594,1551,909.3594" style="stroke:#181818;stroke-width:1.0;"/><text fill="#000000" font-family="sans-serif" font-size="13" font-weight="bold" lengthAdjust="spacing" textLength="14" x="1551" y="891.5029">25</text><text fill="#000000" font-family="sans-serif" font-size="13" lengthAdjust="spacing" textLength="142" x="1569" y="891.5029">verifyMobile(collaborator)</text><line style="stroke:#181818;stroke-width:1.0;" x1="1544" x2="1591" y1="939.7109" y2="939.7109"/><line style="stroke:#181818;stroke-width:1.0;" x1="1591" x2="1591" y1="939.7109" y2="952.7109"/><line style="stroke:#181818;stroke-width:1.0;" x1="1550" x2="1591" y1="952.7109" y2="952.7109"/><polygon fill="#181818" points="1560,948.7109,1550,952.7109,1560,956.7109,1556,952.7109" style="stroke:#181818;stroke-width:1.0;"/><text fill="#000000" font-family="sans-serif" font-size="13" font-weight="bold" lengthAdjust="spacing" textLength="14" x="1556" y="934.8545">26</text><text fill="#000000" font-family="sans-serif" font-size="13" lengthAdjust="spacing" textLength="137" x="1574" y="934.8545">verifyEmail(collaborator)</text><line style="stroke:#181818;stroke-width:1.0;" x1="1549" x2="1596" y1="983.0625" y2="983.0625"/><line style="stroke:#181818;stroke-width:1.0;" x1="1596" x2="1596" y1="983.0625" y2="996.0625"/><line style="stroke:#181818;stroke-width:1.0;" x1="1555" x2="1596" y1="996.0625" y2="996.0625"/><polygon fill="#181818" points="1565,992.0625,1555,996.0625,1565,1000.0625,1561,996.0625" style="stroke:#181818;stroke-width:1.0;"/><text fill="#000000" font-family="sans-serif" font-size="13" font-weight="bold" lengthAdjust="spacing" textLength="14" x="1561" y="978.2061">27</text><text fill="#000000" font-family="sans-serif" font-size="13" lengthAdjust="spacing" textLength="151" x="1579" y="978.2061">verifyZipCode(collaborator)</text><line style="stroke:#181818;stroke-width:1.0;" x1="1554" x2="1601" y1="1026.4141" y2="1026.4141"/><line style="stroke:#181818;stroke-width:1.0;" x1="1601" x2="1601" y1="1026.4141" y2="1039.4141"/><line style="stroke:#181818;stroke-width:1.0;" x1="1560" x2="1601" y1="1039.4141" y2="1039.4141"/><polygon fill="#181818" points="1570,1035.4141,1560,1039.4141,1570,1043.4141,1566,1039.4141" style="stroke:#181818;stroke-width:1.0;"/><text fill="#000000" font-family="sans-serif" font-size="13" font-weight="bold" lengthAdjust="spacing" textLength="14" x="1566" y="1021.5576">28</text><text fill="#000000" font-family="sans-serif" font-size="13" lengthAdjust="spacing" textLength="131" x="1584" y="1021.5576">verifyBirth(collaborator)</text><path d="M1471,1059.4141 L1544,1059.4141 L1544,1067.7656 L1534,1077.7656 L1471,1077.7656 L1471,1059.4141 " fill="#EEEEEE" style="stroke:#000000;stroke-width:1.5;"/><rect fill="none" height="105.0547" style="stroke:#000000;stroke-width:1.5;" width="323" x="1471" y="1059.4141"/><text fill="#000000" font-family="sans-serif" font-size="13" font-weight="bold" lengthAdjust="spacing" textLength="28" x="1486" y="1073.9092">loop</text><text fill="#000000" font-family="sans-serif" font-size="11" font-weight="bold" lengthAdjust="spacing" textLength="169" x="1559" y="1072.833">[for all documentType objects]</text><line style="stroke:#181818;stroke-width:1.0;" x1="1559" x2="1606" y1="1095.1172" y2="1095.1172"/><line style="stroke:#181818;stroke-width:1.0;" x1="1606" x2="1606" y1="1095.1172" y2="1108.1172"/><line style="stroke:#181818;stroke-width:1.0;" x1="1565" x2="1606" y1="1108.1172" y2="1108.1172"/><polygon fill="#181818" points="1575,1104.1172,1565,1108.1172,1575,1112.1172,1571,1108.1172" style="stroke:#181818;stroke-width:1.0;"/><text fill="#000000" font-family="sans-serif" font-size="13" font-weight="bold" lengthAdjust="spacing" textLength="14" x="1571" y="1090.2607">29</text><text fill="#000000" font-family="sans-serif" font-size="13" lengthAdjust="spacing" textLength="193" x="1589" y="1090.2607">verifyDocumentCode(collaborator)</text><line style="stroke:#181818;stroke-width:1.0;stroke-dasharray:2.0,2.0;" x1="1564" x2="1606" y1="1148.4688" y2="1148.4688"/><line style="stroke:#181818;stroke-width:1.0;stroke-dasharray:2.0,2.0;" x1="1606" x2="1606" y1="1148.4688" y2="1161.4688"/><line style="stroke:#181818;stroke-width:1.0;stroke-dasharray:2.0,2.0;" x1="1559" x2="1606" y1="1161.4688" y2="1161.4688"/><polygon fill="#181818" points="1569,1157.4688,1559,1161.4688,1569,1165.4688,1565,1161.4688" style="stroke:#181818;stroke-width:1.0;"/><text fill="#000000" font-family="sans-serif" font-size="13" font-weight="bold" lengthAdjust="spacing" textLength="14" x="1571" y="1143.6123">30</text><text fill="#000000" font-family="sans-serif" font-size="13" lengthAdjust="spacing" textLength="4" x="1589" y="1143.6123"> </text><line style="stroke:#181818;stroke-width:1.0;stroke-dasharray:2.0,2.0;" x1="1559" x2="1601" y1="1198.8203" y2="1198.8203"/><line style="stroke:#181818;stroke-width:1.0;stroke-dasharray:2.0,2.0;" x1="1601" x2="1601" y1="1198.8203" y2="1211.8203"/><line style="stroke:#181818;stroke-width:1.0;stroke-dasharray:2.0,2.0;" x1="1554" x2="1601" y1="1211.8203" y2="1211.8203"/><polygon fill="#181818" points="1564,1207.8203,1554,1211.8203,1564,1215.8203,1560,1211.8203" style="stroke:#181818;stroke-width:1.0;"/><text fill="#000000" font-family="sans-serif" font-size="13" font-weight="bold" lengthAdjust="spacing" textLength="14" x="1566" y="1193.9639">31</text><text fill="#000000" font-family="sans-serif" font-size="13" lengthAdjust="spacing" textLength="4" x="1584" y="1193.9639"> </text><line style="stroke:#181818;stroke-width:1.0;stroke-dasharray:2.0,2.0;" x1="1554" x2="1596" y1="1242.1719" y2="1242.1719"/><line style="stroke:#181818;stroke-width:1.0;stroke-dasharray:2.0,2.0;" x1="1596" x2="1596" y1="1242.1719" y2="1255.1719"/><line style="stroke:#181818;stroke-width:1.0;stroke-dasharray:2.0,2.0;" x1="1549" x2="1596" y1="1255.1719" y2="1255.1719"/><polygon fill="#181818" points="1559,1251.1719,1549,1255.1719,1559,1259.1719,1555,1255.1719" style="stroke:#181818;stroke-width:1.0;"/><text fill="#000000" font-family="sans-serif" font-size="13" font-weight="bold" lengthAdjust="spacing" textLength="14" x="1561" y="1237.3154">32</text><text fill="#000000" font-family="sans-serif" font-size="13" lengthAdjust="spacing" textLength="4" x="1579" y="1237.3154"> </text><line style="stroke:#181818;stroke-width:1.0;stroke-dasharray:2.0,2.0;" x1="1549" x2="1591" y1="1285.5234" y2="1285.5234"/><line style="stroke:#181818;stroke-width:1.0;stroke-dasharray:2.0,2.0;" x1="1591" x2="1591" y1="1285.5234" y2="1298.5234"/><line style="stroke:#181818;stroke-width:1.0;stroke-dasharray:2.0,2.0;" x1="1544" x2="1591" y1="1298.5234" y2="1298.5234"/><polygon fill="#181818" points="1554,1294.5234,1544,1298.5234,1554,1302.5234,1550,1298.5234" style="stroke:#181818;stroke-width:1.0;"/><text fill="#000000" font-family="sans-serif" font-size="13" font-weight="bold" lengthAdjust="spacing" textLength="14" x="1556" y="1280.667">33</text><text fill="#000000" font-family="sans-serif" font-size="13" lengthAdjust="spacing" textLength="4" x="1574" y="1280.667"> </text><line style="stroke:#181818;stroke-width:1.0;stroke-dasharray:2.0,2.0;" x1="1544" x2="1586" y1="1328.875" y2="1328.875"/><line style="stroke:#181818;stroke-width:1.0;stroke-dasharray:2.0,2.0;" x1="1586" x2="1586" y1="1328.875" y2="1341.875"/><line style="stroke:#181818;stroke-width:1.0;stroke-dasharray:2.0,2.0;" x1="1539" x2="1586" y1="1341.875" y2="1341.875"/><polygon fill="#181818" points="1549,1337.875,1539,1341.875,1549,1345.875,1545,1341.875" style="stroke:#181818;stroke-width:1.0;"/><text fill="#000000" font-family="sans-serif" font-size="13" font-weight="bold" lengthAdjust="spacing" textLength="14" x="1551" y="1324.0186">34</text><text fill="#000000" font-family="sans-serif" font-size="13" lengthAdjust="spacing" textLength="4" x="1569" y="1324.0186"> </text><line style="stroke:#181818;stroke-width:1.0;stroke-dasharray:2.0,2.0;" x1="1539" x2="1581" y1="1372.2266" y2="1372.2266"/><line style="stroke:#181818;stroke-width:1.0;stroke-dasharray:2.0,2.0;" x1="1581" x2="1581" y1="1372.2266" y2="1385.2266"/><line style="stroke:#181818;stroke-width:1.0;stroke-dasharray:2.0,2.0;" x1="1534" x2="1581" y1="1385.2266" y2="1385.2266"/><polygon fill="#181818" points="1544,1381.2266,1534,1385.2266,1544,1389.2266,1540,1385.2266" style="stroke:#181818;stroke-width:1.0;"/><text fill="#000000" font-family="sans-serif" font-size="13" font-weight="bold" lengthAdjust="spacing" textLength="14" x="1546" y="1367.3701">35</text><text fill="#000000" font-family="sans-serif" font-size="13" lengthAdjust="spacing" textLength="4" x="1564" y="1367.3701"> </text><polygon fill="#181818" points="1079,1406.5781,1069,1410.5781,1079,1414.5781,1075,1410.5781" style="stroke:#181818;stroke-width:1.0;"/><line style="stroke:#181818;stroke-width:1.0;stroke-dasharray:2.0,2.0;" x1="1073" x2="1528" y1="1410.5781" y2="1410.5781"/><text fill="#000000" font-family="sans-serif" font-size="13" font-weight="bold" lengthAdjust="spacing" textLength="14" x="1085" y="1405.7217">36</text><text fill="#000000" font-family="sans-serif" font-size="13" lengthAdjust="spacing" textLength="67" x="1103" y="1405.7217">collaborator</text><line style="stroke:#181818;stroke-width:1.0;" x1="1068" x2="1115" y1="1435.9297" y2="1435.9297"/><line style="stroke:#181818;stroke-width:1.0;" x1="1115" x2="1115" y1="1435.9297" y2="1448.9297"/><line style="stroke:#181818;stroke-width:1.0;" x1="1074" x2="1115" y1="1448.9297" y2="1448.9297"/><polygon fill="#181818" points="1084,1444.9297,1074,1448.9297,1084,1452.9297,1080,1448.9297" style="stroke:#181818;stroke-width:1.0;"/><text fill="#000000" font-family="sans-serif" font-size="13" font-weight="bold" lengthAdjust="spacing" textLength="14" x="1080" y="1431.0732">37</text><text fill="#000000" font-family="sans-serif" font-size="13" lengthAdjust="spacing" textLength="223" x="1098" y="1431.0732">check for duplicates (documentCode[])</text><line style="stroke:#181818;stroke-width:1.0;stroke-dasharray:2.0,2.0;" x1="1073" x2="1115" y1="1489.2813" y2="1489.2813"/><line style="stroke:#181818;stroke-width:1.0;stroke-dasharray:2.0,2.0;" x1="1115" x2="1115" y1="1489.2813" y2="1502.2813"/><line style="stroke:#181818;stroke-width:1.0;stroke-dasharray:2.0,2.0;" x1="1068" x2="1115" y1="1502.2813" y2="1502.2813"/><polygon fill="#181818" points="1078,1498.2813,1068,1502.2813,1078,1506.2813,1074,1502.2813" style="stroke:#181818;stroke-width:1.0;"/><text fill="#000000" font-family="sans-serif" font-size="13" font-weight="bold" lengthAdjust="spacing" textLength="14" x="1080" y="1484.4248">38</text><text fill="#000000" font-family="sans-serif" font-size="13" lengthAdjust="spacing" textLength="4" x="1098" y="1484.4248"> </text><line style="stroke:#181818;stroke-width:1.0;" x1="1068" x2="1110" y1="1527.6328" y2="1527.6328"/><line style="stroke:#181818;stroke-width:1.0;" x1="1110" x2="1110" y1="1527.6328" y2="1540.6328"/><line style="stroke:#181818;stroke-width:1.0;" x1="1069" x2="1110" y1="1540.6328" y2="1540.6328"/><polygon fill="#181818" points="1079,1536.6328,1069,1540.6328,1079,1544.6328,1075,1540.6328" style="stroke:#181818;stroke-width:1.0;"/><text fill="#000000" font-family="sans-serif" font-size="13" font-weight="bold" lengthAdjust="spacing" textLength="14" x="1075" y="1522.7764">39</text><text fill="#000000" font-family="sans-serif" font-size="13" lengthAdjust="spacing" textLength="165" x="1093" y="1522.7764">addCollaborator(collaborator)</text><polygon fill="#181818" points="636,1566.9844,626,1570.9844,636,1574.9844,632,1570.9844" style="stroke:#181818;stroke-width:1.0;"/><line style="stroke:#181818;stroke-width:1.0;stroke-dasharray:2.0,2.0;" x1="630" x2="1062" y1="1570.9844" y2="1570.9844"/><text fill="#000000" font-family="sans-serif" font-size="13" font-weight="bold" lengthAdjust="spacing" textLength="14" x="642" y="1566.1279">40</text><text fill="#000000" font-family="sans-serif" font-size="13" lengthAdjust="spacing" textLength="67" x="660" y="1566.1279">collaborator</text><polygon fill="#181818" points="440,1597.3359,430,1601.3359,440,1605.3359,436,1601.3359" style="stroke:#181818;stroke-width:1.0;"/><line style="stroke:#181818;stroke-width:1.0;stroke-dasharray:2.0,2.0;" x1="434" x2="619" y1="1601.3359" y2="1601.3359"/><text fill="#000000" font-family="sans-serif" font-size="13" font-weight="bold" lengthAdjust="spacing" textLength="14" x="446" y="1596.4795">41</text><text fill="#000000" font-family="sans-serif" font-size="13" lengthAdjust="spacing" textLength="49" x="464" y="1596.4795">success</text><polygon fill="#181818" points="34,1627.6875,24,1631.6875,34,1635.6875,30,1631.6875" style="stroke:#181818;stroke-width:1.0;"/><line style="stroke:#181818;stroke-width:1.0;stroke-dasharray:2.0,2.0;" x1="28" x2="423" y1="1631.6875" y2="1631.6875"/><text fill="#000000" font-family="sans-serif" font-size="13" font-weight="bold" lengthAdjust="spacing" textLength="14" x="40" y="1626.8311">42</text><text fill="#000000" font-family="sans-serif" font-size="13" lengthAdjust="spacing" textLength="349" x="58" y="1626.8311">shows success message (collaborator created successfully)</text><!--SRC=[nLPDKzim4BtxL-nmIfZa3-J0J0cqfHDcc1Gk1GwAlKb4PCcLP9ZqrtSbsOxaV50kvM9RrdkxgzstQviDbnNJh8HIIPMljIeHhAunCzrEnV8DM-5FknK86dFBv4h40BDcXNhZSWLB9Wnc6QkjadMvG4tFkLKQphxFRy-06Q1xHYpBSrunQU5iCiSLDnRrL0d15aepmZ_SUF33pJzWfqfQJMlKdZEzdy_sM9KodA0SZSTy4shXNgOu7S6Uv3xhRlRbFcNaKHWTV3jvajE36o6-sUNy-YwrynB2wUW_uhLd9OZUyM9dhOlC9vw_Cei-vHbTO7n16OK9GJO6h89Sezjd8F4DuhFik5I1Z3Z4T7azFoTsO8NNzDuPdf0iVjTeh862MGQ3s1XKg8sIJ02NIwLBPhcImwp0n4aSdzrMQ5gJM7YRnqAQm0gjIm_CI1bzgzt2gy9T7AyjFtZoZJIaw1m7mnsy4qW77JV-_5btmeWTTgJMZnDCy94KD7RaDULnpa5pehJOaGUFRgqdgCwDYQsdXb92T23QCFtifTJWStpXotCesJw_UoNgv67MweqajqOGH0Irz3w1oMAd71AaGK7Z1PJ4VY4JVJGmPuxC77FRUcL215KctaY997cvv8qWZ-fnqi92_AUqs3L7samzqsdEFb6KXuVKk-eyFFJsPDev30Elomqj1vALE885rtPD-QH7Ih4b-grQS45BB1aN8s15eT6O4VpXrLGLE7gIa7Ex7K6Xyhf4QUzfKZm-xzOUHRoI6qD5lVB6IIF3FQr6PGW3ETp65tIFnjndXnfYYzSkq2Qj5EKhQhxSVkNq-IkIgJjybnHEy47IjJlk1pc_Gae-oBfqAJ_5oOHIbUzZt-5Hca4jNcX0c4DchwBqlnjHuFOAaY7D4USxEmNwdrljtgxJul7J0_UrrGW_xTGrvXkVsgAk1Cy9Rc0GA_VnUNYaWzeWtPjz9UzvcxZMYITHhoYnqMR47ZzSsYk-pRFkszLyE-eyfqOz-UqwyEbgQ53IXVw5UtyuOLOKBMfP2x7j_-54ApBy5m00]--></g></svg>