<?xml version="1.0" encoding="UTF-8" standalone="no"?><svg xmlns="http://www.w3.org/2000/svg" xmlns:xlink="http://www.w3.org/1999/xlink" contentStyleType="text/css" height="313px" preserveAspectRatio="none" style="width:484px;height:313px;background:#FFFFFF;" version="1.1" viewBox="0 0 484 313" width="484px" zoomAndPan="magnify"><defs/><g><rect fill="#FFFFFF" height="162.7578" style="stroke:#181818;stroke-width:1.0;" width="10" x="144" y="87.5703"/><rect fill="#FFFFFF" height="30.3516" style="stroke:#181818;stroke-width:1.0;" width="10" x="308" y="143.2734"/><rect fill="#FFFFFF" height="30.3516" style="stroke:#181818;stroke-width:1.0;" width="10" x="415" y="203.9766"/><rect fill="none" height="139.7578" style="stroke:#000000;stroke-width:1.5;" width="445" x="33.5" y="102.5703"/><line style="stroke:#181818;stroke-width:0.5;stroke-dasharray:5.0,5.0;" x1="148.5" x2="148.5" y1="55.2188" y2="259.3281"/><line style="stroke:#181818;stroke-width:0.5;stroke-dasharray:5.0,5.0;" x1="312.5" x2="312.5" y1="55.2188" y2="259.3281"/><line style="stroke:#181818;stroke-width:0.5;stroke-dasharray:5.0,5.0;" x1="419.5" x2="419.5" y1="55.2188" y2="259.3281"/><rect fill="#E3E3E3" height="31.6094" rx="2.5" ry="2.5" style="stroke:#181818;stroke-width:0.5;" width="211" x="43.5" y="22.6094"/><text fill="#000000" font-family="sans-serif" font-size="14" lengthAdjust="spacing" textLength="197" x="50.5" y="44.1426">:RegisterCollaboratorController</text><rect fill="#E3E3E3" height="31.6094" rx="2.5" ry="2.5" style="stroke:#181818;stroke-width:0.5;" width="211" x="43.5" y="258.3281"/><text fill="#000000" font-family="sans-serif" font-size="14" lengthAdjust="spacing" textLength="197" x="50.5" y="279.8613">:RegisterCollaboratorController</text><rect fill="#E3E3E3" height="31.6094" rx="2.5" ry="2.5" style="stroke:#181818;stroke-width:0.5;" width="97" x="264.5" y="22.6094"/><text fill="#000000" font-family="sans-serif" font-size="14" lengthAdjust="spacing" textLength="83" x="271.5" y="44.1426">:Repositories</text><rect fill="#E3E3E3" height="31.6094" rx="2.5" ry="2.5" style="stroke:#181818;stroke-width:0.5;" width="97" x="264.5" y="258.3281"/><text fill="#000000" font-family="sans-serif" font-size="14" lengthAdjust="spacing" textLength="83" x="271.5" y="279.8613">:Repositories</text><rect fill="#E3E3E3" height="49.2188" rx="2.5" ry="2.5" style="stroke:#181818;stroke-width:0.5;" width="97" x="371.5" y="5"/><text fill="#000000" font-family="sans-serif" font-size="14" lengthAdjust="spacing" textLength="74" x="383" y="26.5332">repositories</text><text fill="#000000" font-family="sans-serif" font-size="14" lengthAdjust="spacing" textLength="83" x="378.5" y="44.1426">:Repositories</text><rect fill="#E3E3E3" height="49.2188" rx="2.5" ry="2.5" style="stroke:#181818;stroke-width:0.5;" width="97" x="371.5" y="258.3281"/><text fill="#000000" font-family="sans-serif" font-size="14" lengthAdjust="spacing" textLength="74" x="383" y="279.8613">repositories</text><text fill="#000000" font-family="sans-serif" font-size="14" lengthAdjust="spacing" textLength="83" x="378.5" y="297.4707">:Repositories</text><rect fill="#FFFFFF" height="162.7578" style="stroke:#181818;stroke-width:1.0;" width="10" x="144" y="87.5703"/><rect fill="#FFFFFF" height="30.3516" style="stroke:#181818;stroke-width:1.0;" width="10" x="308" y="143.2734"/><rect fill="#FFFFFF" height="30.3516" style="stroke:#181818;stroke-width:1.0;" width="10" x="415" y="203.9766"/><polygon fill="#181818" points="132,83.5703,142,87.5703,132,91.5703,136,87.5703" style="stroke:#181818;stroke-width:1.0;"/><line style="stroke:#181818;stroke-width:1.0;" x1="0" x2="138" y1="87.5703" y2="87.5703"/><text fill="#000000" font-family="sans-serif" font-size="13" font-weight="bold" lengthAdjust="spacing" textLength="14" x="7" y="82.7139">17</text><text fill="#000000" font-family="sans-serif" font-size="13" lengthAdjust="spacing" textLength="107" x="25" y="82.7139">create collaborator</text><path d="M33.5,102.5703 L254.5,102.5703 L254.5,110.9219 L244.5,120.9219 L33.5,120.9219 L33.5,102.5703 " fill="#EEEEEE" style="stroke:#000000;stroke-width:1.5;"/><rect fill="none" height="139.7578" style="stroke:#000000;stroke-width:1.5;" width="445" x="33.5" y="102.5703"/><text fill="#000000" font-family="sans-serif" font-size="13" font-weight="bold" lengthAdjust="spacing" textLength="176" x="48.5" y="117.0654">Get Collaborator Repository</text><polygon fill="#181818" points="296,139.2734,306,143.2734,296,147.2734,300,143.2734" style="stroke:#181818;stroke-width:1.0;"/><line style="stroke:#181818;stroke-width:1.0;" x1="154" x2="302" y1="143.2734" y2="143.2734"/><text fill="#000000" font-family="sans-serif" font-size="13" font-weight="bold" lengthAdjust="spacing" textLength="14" x="161" y="138.417">18</text><text fill="#000000" font-family="sans-serif" font-size="13" lengthAdjust="spacing" textLength="75" x="179" y="138.417">getInstance()</text><polygon fill="#181818" points="165,169.625,155,173.625,165,177.625,161,173.625" style="stroke:#181818;stroke-width:1.0;"/><line style="stroke:#181818;stroke-width:1.0;stroke-dasharray:2.0,2.0;" x1="159" x2="312" y1="173.625" y2="173.625"/><text fill="#000000" font-family="sans-serif" font-size="13" font-weight="bold" lengthAdjust="spacing" textLength="14" x="171" y="168.7686">19</text><text fill="#000000" font-family="sans-serif" font-size="13" lengthAdjust="spacing" textLength="67" x="189" y="168.7686">repositories</text><polygon fill="#181818" points="403,199.9766,413,203.9766,403,207.9766,407,203.9766" style="stroke:#181818;stroke-width:1.0;"/><line style="stroke:#181818;stroke-width:1.0;" x1="154" x2="409" y1="203.9766" y2="203.9766"/><text fill="#000000" font-family="sans-serif" font-size="13" font-weight="bold" lengthAdjust="spacing" textLength="14" x="161" y="199.1201">20</text><text fill="#000000" font-family="sans-serif" font-size="13" lengthAdjust="spacing" textLength="157" x="179" y="199.1201">getCollaboratorRepository()</text><polygon fill="#181818" points="165,230.3281,155,234.3281,165,238.3281,161,234.3281" style="stroke:#181818;stroke-width:1.0;"/><line style="stroke:#181818;stroke-width:1.0;stroke-dasharray:2.0,2.0;" x1="159" x2="419" y1="234.3281" y2="234.3281"/><text fill="#000000" font-family="sans-serif" font-size="13" font-weight="bold" lengthAdjust="spacing" textLength="14" x="171" y="229.4717">21</text><text fill="#000000" font-family="sans-serif" font-size="13" lengthAdjust="spacing" textLength="129" x="189" y="229.4717">collaboratorRepository</text><!--SRC=[RP2nRi8m48RtUueJ4nqOEbNAKAbYG9KO46NiSd6kniAne_E5YhUl4vhWAjqI-_ll_yxfua97GYssCKHpbjWoglGCQRxfo5p8yeVUFAEmKGhMbq0wKnE_NR3uHJun0FKQGz_MBFZy0f0fTSPr51HNrP6jIygoZTvJ7OKqvk-WalzPLaW9jwVZVf7gOd8PTPn6PkTZFHp-vQJ0FiCoTTY_dG0shsD5XKQObD4KAa16tNKu7It0IkmxtB5YAOppv1l006AUEIbXXPRrFQJyKeRNJu-Hi_ICRdvTSgPqXuQNeQbdMEBUKIezZCh6SU4nC3HDQ_yRApllxyIX-G40]--></g></svg>