<?xml version="1.0" encoding="UTF-8" standalone="no"?><svg xmlns="http://www.w3.org/2000/svg" xmlns:xlink="http://www.w3.org/1999/xlink" contentStyleType="text/css" height="1147px" preserveAspectRatio="none" style="width:978px;height:1147px;background:#FFFFFF;" version="1.1" viewBox="0 0 978 1147" width="978px" zoomAndPan="magnify"><defs/><g><!--class RegisterCollaboratorUI--><g id="elem_RegisterCollaboratorUI"><rect codeLine="7" fill="#F1F1F1" height="48" id="RegisterCollaboratorUI" rx="2.5" ry="2.5" style="stroke:#181818;stroke-width:0.5;" width="175" x="449.5" y="7"/><ellipse cx="464.5" cy="23" fill="#ADD1B2" rx="11" ry="11" style="stroke:#181818;stroke-width:1.0;"/><path d="M467.2656,18.875 Q467.4219,18.6563 467.6094,18.5469 Q467.7969,18.4375 468.0156,18.4375 Q468.3906,18.4375 468.625,18.7031 Q468.8594,18.9531 468.8594,19.5625 L468.8594,21.0156 Q468.8594,21.625 468.625,21.8906 Q468.3906,22.1563 468.0156,22.1563 Q467.6719,22.1563 467.4688,21.9531 Q467.2656,21.7656 467.1563,21.25 Q467.1094,20.8906 466.9219,20.7031 Q466.5938,20.3281 465.9844,20.1094 Q465.375,19.8906 464.75,19.8906 Q463.9844,19.8906 463.3438,20.2188 Q462.7188,20.5469 462.2188,21.2969 Q461.7344,22.0469 461.7344,23.0781 L461.7344,24.1719 Q461.7344,25.4063 462.625,26.2344 Q463.5156,27.0469 465.1094,27.0469 Q466.0469,27.0469 466.7031,26.7969 Q467.0938,26.6406 467.5156,26.2031 Q467.7813,25.9375 467.9219,25.8594 Q468.0781,25.7813 468.2813,25.7813 Q468.6094,25.7813 468.8594,26.0469 Q469.125,26.2969 469.125,26.6406 Q469.125,26.9844 468.7813,27.3906 Q468.2813,27.9688 467.4844,28.2969 Q466.4063,28.75 465.1094,28.75 Q463.5938,28.75 462.3906,28.125 Q461.4063,27.625 460.7188,26.5625 Q460.0313,25.4844 460.0313,24.2031 L460.0313,23.0469 Q460.0313,21.7188 460.6406,20.5781 Q461.2656,19.4219 462.3594,18.8125 Q463.4531,18.1875 464.6875,18.1875 Q465.4219,18.1875 466.0625,18.3594 Q466.7188,18.5156 467.2656,18.875 Z " fill="#000000"/><text fill="#000000" font-family="sans-serif" font-size="14" lengthAdjust="spacing" textLength="143" x="478.5" y="28.7285">RegisterCollaboratorUI</text><line style="stroke:#181818;stroke-width:0.5;" x1="450.5" x2="623.5" y1="39" y2="39"/><line style="stroke:#181818;stroke-width:0.5;" x1="450.5" x2="623.5" y1="47" y2="47"/></g><!--class RegisterCollaboratorController--><g id="elem_RegisterCollaboratorController"><rect codeLine="10" fill="#F1F1F1" height="153.6563" id="RegisterCollaboratorController" rx="2.5" ry="2.5" style="stroke:#181818;stroke-width:0.5;" width="618" x="228" y="116"/><ellipse cx="436.25" cy="132" fill="#ADD1B2" rx="11" ry="11" style="stroke:#181818;stroke-width:1.0;"/><path d="M439.0156,127.875 Q439.1719,127.6563 439.3594,127.5469 Q439.5469,127.4375 439.7656,127.4375 Q440.1406,127.4375 440.375,127.7031 Q440.6094,127.9531 440.6094,128.5625 L440.6094,130.0156 Q440.6094,130.625 440.375,130.8906 Q440.1406,131.1563 439.7656,131.1563 Q439.4219,131.1563 439.2188,130.9531 Q439.0156,130.7656 438.9063,130.25 Q438.8594,129.8906 438.6719,129.7031 Q438.3438,129.3281 437.7344,129.1094 Q437.125,128.8906 436.5,128.8906 Q435.7344,128.8906 435.0938,129.2188 Q434.4688,129.5469 433.9688,130.2969 Q433.4844,131.0469 433.4844,132.0781 L433.4844,133.1719 Q433.4844,134.4063 434.375,135.2344 Q435.2656,136.0469 436.8594,136.0469 Q437.7969,136.0469 438.4531,135.7969 Q438.8438,135.6406 439.2656,135.2031 Q439.5313,134.9375 439.6719,134.8594 Q439.8281,134.7813 440.0313,134.7813 Q440.3594,134.7813 440.6094,135.0469 Q440.875,135.2969 440.875,135.6406 Q440.875,135.9844 440.5313,136.3906 Q440.0313,136.9688 439.2344,137.2969 Q438.1563,137.75 436.8594,137.75 Q435.3438,137.75 434.1406,137.125 Q433.1563,136.625 432.4688,135.5625 Q431.7813,134.4844 431.7813,133.2031 L431.7813,132.0469 Q431.7813,130.7188 432.3906,129.5781 Q433.0156,128.4219 434.1094,127.8125 Q435.2031,127.1875 436.4375,127.1875 Q437.1719,127.1875 437.8125,127.3594 Q438.4688,127.5156 439.0156,127.875 Z " fill="#000000"/><text fill="#000000" font-family="sans-serif" font-size="14" lengthAdjust="spacing" textLength="193" x="456.75" y="137.7285">RegisterCollaboratorController</text><line style="stroke:#181818;stroke-width:0.5;" x1="229" x2="845" y1="148" y2="148"/><line style="stroke:#181818;stroke-width:0.5;" x1="229" x2="845" y1="156" y2="156"/><ellipse cx="239" cy="187.9141" fill="#84BE84" rx="3" ry="3" style="stroke:#038048;stroke-width:1.0;"/><text fill="#000000" font-family="sans-serif" font-size="14" lengthAdjust="spacing" textLength="410" x="248" y="174.5332">createCLB(name : String, birthdate : Date, contactMobile : String,</text><text fill="#000000" font-family="sans-serif" font-size="14" lengthAdjust="spacing" textLength="380" x="248" y="192.1426">email : String, address : String, zipCode : String, city : String,</text><text fill="#000000" font-family="sans-serif" font-size="14" lengthAdjust="spacing" textLength="592" x="248" y="209.752">documentType, identificationNumber, admissionDate : Date, documentCode : String, job : Job)</text><ellipse cx="239" cy="223.1328" fill="#84BE84" rx="3" ry="3" style="stroke:#038048;stroke-width:1.0;"/><text fill="#000000" font-family="sans-serif" font-size="14" lengthAdjust="spacing" textLength="126" x="248" y="227.3613">assignJob(job : Job)</text><ellipse cx="239" cy="240.7422" fill="#84BE84" rx="3" ry="3" style="stroke:#038048;stroke-width:1.0;"/><text fill="#000000" font-family="sans-serif" font-size="14" lengthAdjust="spacing" textLength="185" x="248" y="244.9707">getInstance() : JobRepository</text><ellipse cx="239" cy="258.3516" fill="#84BE84" rx="3" ry="3" style="stroke:#038048;stroke-width:1.0;"/><text fill="#000000" font-family="sans-serif" font-size="14" lengthAdjust="spacing" textLength="241" x="248" y="262.5801">getInstance() : CollaboratorRepository</text></g><!--class Repositories--><g id="elem_Repositories"><rect codeLine="18" fill="#F1F1F1" height="83.2188" id="Repositories" rx="2.5" ry="2.5" style="stroke:#181818;stroke-width:0.5;" width="360" x="357" y="348"/><ellipse cx="493.25" cy="364" fill="#ADD1B2" rx="11" ry="11" style="stroke:#181818;stroke-width:1.0;"/><path d="M496.0156,359.875 Q496.1719,359.6563 496.3594,359.5469 Q496.5469,359.4375 496.7656,359.4375 Q497.1406,359.4375 497.375,359.7031 Q497.6094,359.9531 497.6094,360.5625 L497.6094,362.0156 Q497.6094,362.625 497.375,362.8906 Q497.1406,363.1563 496.7656,363.1563 Q496.4219,363.1563 496.2188,362.9531 Q496.0156,362.7656 495.9063,362.25 Q495.8594,361.8906 495.6719,361.7031 Q495.3438,361.3281 494.7344,361.1094 Q494.125,360.8906 493.5,360.8906 Q492.7344,360.8906 492.0938,361.2188 Q491.4688,361.5469 490.9688,362.2969 Q490.4844,363.0469 490.4844,364.0781 L490.4844,365.1719 Q490.4844,366.4063 491.375,367.2344 Q492.2656,368.0469 493.8594,368.0469 Q494.7969,368.0469 495.4531,367.7969 Q495.8438,367.6406 496.2656,367.2031 Q496.5313,366.9375 496.6719,366.8594 Q496.8281,366.7813 497.0313,366.7813 Q497.3594,366.7813 497.6094,367.0469 Q497.875,367.2969 497.875,367.6406 Q497.875,367.9844 497.5313,368.3906 Q497.0313,368.9688 496.2344,369.2969 Q495.1563,369.75 493.8594,369.75 Q492.3438,369.75 491.1406,369.125 Q490.1563,368.625 489.4688,367.5625 Q488.7813,366.4844 488.7813,365.2031 L488.7813,364.0469 Q488.7813,362.7188 489.3906,361.5781 Q490.0156,360.4219 491.1094,359.8125 Q492.2031,359.1875 493.4375,359.1875 Q494.1719,359.1875 494.8125,359.3594 Q495.4688,359.5156 496.0156,359.875 Z " fill="#000000"/><text fill="#000000" font-family="sans-serif" font-size="14" lengthAdjust="spacing" textLength="79" x="513.75" y="369.7285">Repositories</text><line style="stroke:#181818;stroke-width:0.5;" x1="358" x2="716" y1="380" y2="380"/><line style="stroke:#181818;stroke-width:0.5;" x1="358" x2="716" y1="388" y2="388"/><ellipse cx="368" cy="402.3047" fill="#84BE84" rx="3" ry="3" style="stroke:#038048;stroke-width:1.0;"/><text fill="#000000" font-family="sans-serif" font-size="14" lengthAdjust="spacing" textLength="222" x="377" y="406.5332">getJobRepository() : JobRepository</text><ellipse cx="368" cy="419.9141" fill="#84BE84" rx="3" ry="3" style="stroke:#038048;stroke-width:1.0;"/><text fill="#000000" font-family="sans-serif" font-size="14" lengthAdjust="spacing" textLength="334" x="377" y="424.1426">getCollaboratorRepository() : CollaboratorRepository</text></g><!--class CollaboratorRepository--><g id="elem_CollaboratorRepository"><rect codeLine="23" fill="#F1F1F1" height="136.0469" id="CollaboratorRepository" rx="2.5" ry="2.5" style="stroke:#181818;stroke-width:0.5;" width="618" x="7" y="509"/><ellipse cx="238.75" cy="525" fill="#ADD1B2" rx="11" ry="11" style="stroke:#181818;stroke-width:1.0;"/><path d="M241.5156,520.875 Q241.6719,520.6563 241.8594,520.5469 Q242.0469,520.4375 242.2656,520.4375 Q242.6406,520.4375 242.875,520.7031 Q243.1094,520.9531 243.1094,521.5625 L243.1094,523.0156 Q243.1094,523.625 242.875,523.8906 Q242.6406,524.1563 242.2656,524.1563 Q241.9219,524.1563 241.7188,523.9531 Q241.5156,523.7656 241.4063,523.25 Q241.3594,522.8906 241.1719,522.7031 Q240.8438,522.3281 240.2344,522.1094 Q239.625,521.8906 239,521.8906 Q238.2344,521.8906 237.5938,522.2188 Q236.9688,522.5469 236.4688,523.2969 Q235.9844,524.0469 235.9844,525.0781 L235.9844,526.1719 Q235.9844,527.4063 236.875,528.2344 Q237.7656,529.0469 239.3594,529.0469 Q240.2969,529.0469 240.9531,528.7969 Q241.3438,528.6406 241.7656,528.2031 Q242.0313,527.9375 242.1719,527.8594 Q242.3281,527.7813 242.5313,527.7813 Q242.8594,527.7813 243.1094,528.0469 Q243.375,528.2969 243.375,528.6406 Q243.375,528.9844 243.0313,529.3906 Q242.5313,529.9688 241.7344,530.2969 Q240.6563,530.75 239.3594,530.75 Q237.8438,530.75 236.6406,530.125 Q235.6563,529.625 234.9688,528.5625 Q234.2813,527.4844 234.2813,526.2031 L234.2813,525.0469 Q234.2813,523.7188 234.8906,522.5781 Q235.5156,521.4219 236.6094,520.8125 Q237.7031,520.1875 238.9375,520.1875 Q239.6719,520.1875 240.3125,520.3594 Q240.9688,520.5156 241.5156,520.875 Z " fill="#000000"/><text fill="#000000" font-family="sans-serif" font-size="14" lengthAdjust="spacing" textLength="146" x="259.25" y="530.7285">CollaboratorRepository</text><line style="stroke:#181818;stroke-width:0.5;" x1="8" x2="624" y1="541" y2="541"/><line style="stroke:#181818;stroke-width:0.5;" x1="8" x2="624" y1="549" y2="549"/><ellipse cx="18" cy="580.9141" fill="#84BE84" rx="3" ry="3" style="stroke:#038048;stroke-width:1.0;"/><text fill="#000000" font-family="sans-serif" font-size="14" lengthAdjust="spacing" textLength="383" x="27" y="567.5332">create(name : String, birthdate : Date, contactMobile : String,</text><text fill="#000000" font-family="sans-serif" font-size="14" lengthAdjust="spacing" textLength="380" x="27" y="585.1426">email : String, address : String, zipCode : String, city : String,</text><text fill="#000000" font-family="sans-serif" font-size="14" lengthAdjust="spacing" textLength="592" x="27" y="602.752">documentType, identificationNumber, admissionDate : Date, documentCode : String, job : Job)</text><ellipse cx="18" cy="616.1328" fill="#84BE84" rx="3" ry="3" style="stroke:#038048;stroke-width:1.0;"/><text fill="#000000" font-family="sans-serif" font-size="14" lengthAdjust="spacing" textLength="135" x="27" y="620.3613">checkForDuplicates()</text><ellipse cx="18" cy="633.7422" fill="#84BE84" rx="3" ry="3" style="stroke:#038048;stroke-width:1.0;"/><text fill="#000000" font-family="sans-serif" font-size="14" lengthAdjust="spacing" textLength="187" x="27" y="637.9707">addCollaborator(collaborator)</text></g><!--class JobRepository--><g id="elem_JobRepository"><rect codeLine="30" fill="#F1F1F1" height="83.2188" id="JobRepository" rx="2.5" ry="2.5" style="stroke:#181818;stroke-width:0.5;" width="203" x="731.5" y="535.5"/><ellipse cx="783.75" cy="551.5" fill="#ADD1B2" rx="11" ry="11" style="stroke:#181818;stroke-width:1.0;"/><path d="M786.5156,547.375 Q786.6719,547.1563 786.8594,547.0469 Q787.0469,546.9375 787.2656,546.9375 Q787.6406,546.9375 787.875,547.2031 Q788.1094,547.4531 788.1094,548.0625 L788.1094,549.5156 Q788.1094,550.125 787.875,550.3906 Q787.6406,550.6563 787.2656,550.6563 Q786.9219,550.6563 786.7188,550.4531 Q786.5156,550.2656 786.4063,549.75 Q786.3594,549.3906 786.1719,549.2031 Q785.8438,548.8281 785.2344,548.6094 Q784.625,548.3906 784,548.3906 Q783.2344,548.3906 782.5938,548.7188 Q781.9688,549.0469 781.4688,549.7969 Q780.9844,550.5469 780.9844,551.5781 L780.9844,552.6719 Q780.9844,553.9063 781.875,554.7344 Q782.7656,555.5469 784.3594,555.5469 Q785.2969,555.5469 785.9531,555.2969 Q786.3438,555.1406 786.7656,554.7031 Q787.0313,554.4375 787.1719,554.3594 Q787.3281,554.2813 787.5313,554.2813 Q787.8594,554.2813 788.1094,554.5469 Q788.375,554.7969 788.375,555.1406 Q788.375,555.4844 788.0313,555.8906 Q787.5313,556.4688 786.7344,556.7969 Q785.6563,557.25 784.3594,557.25 Q782.8438,557.25 781.6406,556.625 Q780.6563,556.125 779.9688,555.0625 Q779.2813,553.9844 779.2813,552.7031 L779.2813,551.5469 Q779.2813,550.2188 779.8906,549.0781 Q780.5156,547.9219 781.6094,547.3125 Q782.7031,546.6875 783.9375,546.6875 Q784.6719,546.6875 785.3125,546.8594 Q785.9688,547.0156 786.5156,547.375 Z " fill="#000000"/><text fill="#000000" font-family="sans-serif" font-size="14" lengthAdjust="spacing" textLength="90" x="804.25" y="557.2285">JobRepository</text><line style="stroke:#181818;stroke-width:0.5;" x1="732.5" x2="933.5" y1="567.5" y2="567.5"/><line style="stroke:#181818;stroke-width:0.5;" x1="732.5" x2="933.5" y1="575.5" y2="575.5"/><ellipse cx="742.5" cy="589.8047" fill="#84BE84" rx="3" ry="3" style="stroke:#038048;stroke-width:1.0;"/><text fill="#000000" font-family="sans-serif" font-size="14" lengthAdjust="spacing" textLength="177" x="751.5" y="594.0332">createJob(title : String) : Job</text><ellipse cx="742.5" cy="607.4141" fill="#84BE84" rx="3" ry="3" style="stroke:#038048;stroke-width:1.0;"/><text fill="#000000" font-family="sans-serif" font-size="14" lengthAdjust="spacing" textLength="173" x="751.5" y="611.6426">checkForDuplicates() : void</text></g><!--class Collaborator--><g id="elem_Collaborator"><rect codeLine="35" fill="#F1F1F1" height="417.7969" id="Collaborator" rx="2.5" ry="2.5" style="stroke:#181818;stroke-width:0.5;" width="618" x="7" y="723"/><ellipse cx="272.75" cy="739" fill="#ADD1B2" rx="11" ry="11" style="stroke:#181818;stroke-width:1.0;"/><path d="M275.5156,734.875 Q275.6719,734.6563 275.8594,734.5469 Q276.0469,734.4375 276.2656,734.4375 Q276.6406,734.4375 276.875,734.7031 Q277.1094,734.9531 277.1094,735.5625 L277.1094,737.0156 Q277.1094,737.625 276.875,737.8906 Q276.6406,738.1563 276.2656,738.1563 Q275.9219,738.1563 275.7188,737.9531 Q275.5156,737.7656 275.4063,737.25 Q275.3594,736.8906 275.1719,736.7031 Q274.8438,736.3281 274.2344,736.1094 Q273.625,735.8906 273,735.8906 Q272.2344,735.8906 271.5938,736.2188 Q270.9688,736.5469 270.4688,737.2969 Q269.9844,738.0469 269.9844,739.0781 L269.9844,740.1719 Q269.9844,741.4063 270.875,742.2344 Q271.7656,743.0469 273.3594,743.0469 Q274.2969,743.0469 274.9531,742.7969 Q275.3438,742.6406 275.7656,742.2031 Q276.0313,741.9375 276.1719,741.8594 Q276.3281,741.7813 276.5313,741.7813 Q276.8594,741.7813 277.1094,742.0469 Q277.375,742.2969 277.375,742.6406 Q277.375,742.9844 277.0313,743.3906 Q276.5313,743.9688 275.7344,744.2969 Q274.6563,744.75 273.3594,744.75 Q271.8438,744.75 270.6406,744.125 Q269.6563,743.625 268.9688,742.5625 Q268.2813,741.4844 268.2813,740.2031 L268.2813,739.0469 Q268.2813,737.7188 268.8906,736.5781 Q269.5156,735.4219 270.6094,734.8125 Q271.7031,734.1875 272.9375,734.1875 Q273.6719,734.1875 274.3125,734.3594 Q274.9688,734.5156 275.5156,734.875 Z " fill="#000000"/><text fill="#000000" font-family="sans-serif" font-size="14" lengthAdjust="spacing" textLength="78" x="293.25" y="744.7285">Collaborator</text><line style="stroke:#181818;stroke-width:0.5;" x1="8" x2="624" y1="755" y2="755"/><rect fill="none" height="6" style="stroke:#C82930;stroke-width:1.0;" width="6" x="15" y="766.3047"/><text fill="#000000" font-family="sans-serif" font-size="14" lengthAdjust="spacing" textLength="84" x="27" y="773.5332">name : String</text><rect fill="none" height="6" style="stroke:#C82930;stroke-width:1.0;" width="6" x="15" y="783.9141"/><text fill="#000000" font-family="sans-serif" font-size="14" lengthAdjust="spacing" textLength="98" x="27" y="791.1426">birthdate : Date</text><rect fill="none" height="6" style="stroke:#C82930;stroke-width:1.0;" width="6" x="15" y="801.5234"/><text fill="#000000" font-family="sans-serif" font-size="14" lengthAdjust="spacing" textLength="136" x="27" y="808.752">contactMobile : String</text><rect fill="none" height="6" style="stroke:#C82930;stroke-width:1.0;" width="6" x="15" y="819.1328"/><text fill="#000000" font-family="sans-serif" font-size="14" lengthAdjust="spacing" textLength="82" x="27" y="826.3613">email : String</text><rect fill="none" height="6" style="stroke:#C82930;stroke-width:1.0;" width="6" x="15" y="836.7422"/><text fill="#000000" font-family="sans-serif" font-size="14" lengthAdjust="spacing" textLength="100" x="27" y="843.9707">address : String</text><rect fill="none" height="6" style="stroke:#C82930;stroke-width:1.0;" width="6" x="15" y="854.3516"/><text fill="#000000" font-family="sans-serif" font-size="14" lengthAdjust="spacing" textLength="100" x="27" y="861.5801">zipCode : String</text><rect fill="none" height="6" style="stroke:#C82930;stroke-width:1.0;" width="6" x="15" y="871.9609"/><text fill="#000000" font-family="sans-serif" font-size="14" lengthAdjust="spacing" textLength="70" x="27" y="879.1895">city : String</text><rect fill="none" height="6" style="stroke:#C82930;stroke-width:1.0;" width="6" x="15" y="889.5703"/><text fill="#000000" font-family="sans-serif" font-size="14" lengthAdjust="spacing" textLength="247" x="27" y="896.7988">documentTypes : List&lt;DocumentType&gt;</text><rect fill="none" height="6" style="stroke:#C82930;stroke-width:1.0;" width="6" x="15" y="907.1797"/><text fill="#000000" font-family="sans-serif" font-size="14" lengthAdjust="spacing" textLength="135" x="27" y="914.4082">admissionDate : Date</text><rect fill="none" height="6" style="stroke:#C82930;stroke-width:1.0;" width="6" x="15" y="924.7891"/><text fill="#000000" font-family="sans-serif" font-size="14" lengthAdjust="spacing" textLength="53" x="27" y="932.0176">job : Job</text><rect fill="none" height="6" style="stroke:#C82930;stroke-width:1.0;" width="6" x="15" y="942.3984"/><text fill="#000000" font-family="sans-serif" font-size="14" lengthAdjust="spacing" textLength="143" x="27" y="949.627">documentType : String</text><rect fill="none" height="6" style="stroke:#C82930;stroke-width:1.0;" width="6" x="15" y="960.0078"/><text fill="#000000" font-family="sans-serif" font-size="14" lengthAdjust="spacing" textLength="177" x="27" y="967.2363">identificationNumber : String</text><line style="stroke:#181818;stroke-width:0.5;" x1="8" x2="624" y1="974.3125" y2="974.3125"/><ellipse cx="18" cy="1006.2266" fill="#84BE84" rx="3" ry="3" style="stroke:#038048;stroke-width:1.0;"/><text fill="#000000" font-family="sans-serif" font-size="14" lengthAdjust="spacing" textLength="421" x="27" y="992.8457">Collaborator(name : String, birthdate : Date, contactMobile : String,</text><text fill="#000000" font-family="sans-serif" font-size="14" lengthAdjust="spacing" textLength="380" x="27" y="1010.4551">email : String, address : String, zipCode : String, city : String,</text><text fill="#000000" font-family="sans-serif" font-size="14" lengthAdjust="spacing" textLength="592" x="27" y="1028.0645">documentType, identificationNumber, admissionDate : Date, documentCode : String, job : Job)</text><ellipse cx="18" cy="1041.4453" fill="#84BE84" rx="3" ry="3" style="stroke:#038048;stroke-width:1.0;"/><text fill="#000000" font-family="sans-serif" font-size="14" lengthAdjust="spacing" textLength="153" x="27" y="1045.6738">verifyFilled(collaborator)</text><ellipse cx="18" cy="1059.0547" fill="#84BE84" rx="3" ry="3" style="stroke:#038048;stroke-width:1.0;"/><text fill="#000000" font-family="sans-serif" font-size="14" lengthAdjust="spacing" textLength="160" x="27" y="1063.2832">verifyMobile(collaborator)</text><ellipse cx="18" cy="1076.6641" fill="#84BE84" rx="3" ry="3" style="stroke:#038048;stroke-width:1.0;"/><text fill="#000000" font-family="sans-serif" font-size="14" lengthAdjust="spacing" textLength="153" x="27" y="1080.8926">verifyEmail(collaborator)</text><ellipse cx="18" cy="1094.2734" fill="#84BE84" rx="3" ry="3" style="stroke:#038048;stroke-width:1.0;"/><text fill="#000000" font-family="sans-serif" font-size="14" lengthAdjust="spacing" textLength="172" x="27" y="1098.502">verifyZipCode(collaborator)</text><ellipse cx="18" cy="1111.8828" fill="#84BE84" rx="3" ry="3" style="stroke:#038048;stroke-width:1.0;"/><text fill="#000000" font-family="sans-serif" font-size="14" lengthAdjust="spacing" textLength="148" x="27" y="1116.1113">verifyBirth(collaborator)</text><ellipse cx="18" cy="1129.4922" fill="#84BE84" rx="3" ry="3" style="stroke:#038048;stroke-width:1.0;"/><text fill="#000000" font-family="sans-serif" font-size="14" lengthAdjust="spacing" textLength="217" x="27" y="1133.7207">verifyDocumentCode(collaborator)</text></g><!--class Job--><g id="elem_Job"><rect codeLine="57" fill="#F1F1F1" height="118.4375" id="Job" rx="2.5" ry="2.5" style="stroke:#181818;stroke-width:0.5;" width="277" x="694.5" y="873"/><ellipse cx="817.75" cy="889" fill="#ADD1B2" rx="11" ry="11" style="stroke:#181818;stroke-width:1.0;"/><path d="M820.5156,884.875 Q820.6719,884.6563 820.8594,884.5469 Q821.0469,884.4375 821.2656,884.4375 Q821.6406,884.4375 821.875,884.7031 Q822.1094,884.9531 822.1094,885.5625 L822.1094,887.0156 Q822.1094,887.625 821.875,887.8906 Q821.6406,888.1563 821.2656,888.1563 Q820.9219,888.1563 820.7188,887.9531 Q820.5156,887.7656 820.4063,887.25 Q820.3594,886.8906 820.1719,886.7031 Q819.8438,886.3281 819.2344,886.1094 Q818.625,885.8906 818,885.8906 Q817.2344,885.8906 816.5938,886.2188 Q815.9688,886.5469 815.4688,887.2969 Q814.9844,888.0469 814.9844,889.0781 L814.9844,890.1719 Q814.9844,891.4063 815.875,892.2344 Q816.7656,893.0469 818.3594,893.0469 Q819.2969,893.0469 819.9531,892.7969 Q820.3438,892.6406 820.7656,892.2031 Q821.0313,891.9375 821.1719,891.8594 Q821.3281,891.7813 821.5313,891.7813 Q821.8594,891.7813 822.1094,892.0469 Q822.375,892.2969 822.375,892.6406 Q822.375,892.9844 822.0313,893.3906 Q821.5313,893.9688 820.7344,894.2969 Q819.6563,894.75 818.3594,894.75 Q816.8438,894.75 815.6406,894.125 Q814.6563,893.625 813.9688,892.5625 Q813.2813,891.4844 813.2813,890.2031 L813.2813,889.0469 Q813.2813,887.7188 813.8906,886.5781 Q814.5156,885.4219 815.6094,884.8125 Q816.7031,884.1875 817.9375,884.1875 Q818.6719,884.1875 819.3125,884.3594 Q819.9688,884.5156 820.5156,884.875 Z " fill="#000000"/><text fill="#000000" font-family="sans-serif" font-size="14" lengthAdjust="spacing" textLength="22" x="838.25" y="894.7285">Job</text><line style="stroke:#181818;stroke-width:0.5;" x1="695.5" x2="970.5" y1="905" y2="905"/><rect fill="none" height="6" style="stroke:#C82930;stroke-width:1.0;" width="6" x="702.5" y="916.3047"/><text fill="#000000" font-family="sans-serif" font-size="14" lengthAdjust="spacing" textLength="71" x="714.5" y="923.5332">title : String</text><line style="stroke:#181818;stroke-width:0.5;" x1="695.5" x2="970.5" y1="930.6094" y2="930.6094"/><ellipse cx="705.5" cy="944.9141" fill="#84BE84" rx="3" ry="3" style="stroke:#038048;stroke-width:1.0;"/><text fill="#000000" font-family="sans-serif" font-size="14" lengthAdjust="spacing" textLength="103" x="714.5" y="949.1426">Job(title : String)</text><ellipse cx="705.5" cy="962.5234" fill="#84BE84" rx="3" ry="3" style="stroke:#038048;stroke-width:1.0;"/><text fill="#000000" font-family="sans-serif" font-size="14" lengthAdjust="spacing" textLength="169" x="714.5" y="966.752">verifyFilled(job : Job) : void</text><ellipse cx="705.5" cy="980.1328" fill="#84BE84" rx="3" ry="3" style="stroke:#038048;stroke-width:1.0;"/><text fill="#000000" font-family="sans-serif" font-size="14" lengthAdjust="spacing" textLength="251" x="714.5" y="984.3613">verifySpecialCharacters(job : Job) : void</text></g><!--link RegisterCollaboratorUI to RegisterCollaboratorController--><g id="link_RegisterCollaboratorUI_RegisterCollaboratorController"><path codeLine="66" d="M537,55.27 C537,70.13 537,90.37 537,110.72 " fill="none" id="RegisterCollaboratorUI-to-RegisterCollaboratorController" style="stroke:#181818;stroke-width:1.0;stroke-dasharray:7.0,7.0;"/><polygon fill="#181818" points="537,115.9,541,106.9,537,110.9,533,106.9,537,115.9" style="stroke:#181818;stroke-width:1.0;"/></g><!--link RegisterCollaboratorController to Repositories--><g id="link_RegisterCollaboratorController_Repositories"><path codeLine="67" d="M537,270.03 C537,294.6 537,321.05 537,342.72 " fill="none" id="RegisterCollaboratorController-to-Repositories" style="stroke:#181818;stroke-width:1.0;stroke-dasharray:7.0,7.0;"/><polygon fill="#181818" points="537,347.84,541,338.84,537,342.84,533,338.84,537,347.84" style="stroke:#181818;stroke-width:1.0;"/><text fill="#000000" font-family="sans-serif" font-size="13" lengthAdjust="spacing" textLength="67" x="538" y="314.4951">repositories</text></g><!--link Repositories to Repositories--><g id="link_Repositories_Repositories"><path codeLine="68" d="M717.37,376.7 C738.35,379.06 752,383.33 752,389.5 C752,395.14 740.6,399.19 722.61,401.65 " fill="none" id="Repositories-to-Repositories" style="stroke:#181818;stroke-width:1.0;"/><polygon fill="#181818" points="717.37,402.3,726.7936,405.1628,722.332,401.6851,725.8098,397.2236,717.37,402.3" style="stroke:#181818;stroke-width:1.0;"/><text fill="#000000" font-family="sans-serif" font-size="13" lengthAdjust="spacing" textLength="49" x="758" y="394.9951">instance</text></g><!--link Repositories to JobRepository--><g id="link_Repositories_JobRepository"><path codeLine="69" d="M601.96,431.21 C649.86,461.23 714.93,502.01 763.81,532.64 " fill="none" id="Repositories-to-JobRepository" style="stroke:#181818;stroke-width:1.0;"/><polygon fill="#181818" points="768.19,535.39,762.6978,527.2147,763.9564,532.7297,758.4414,533.9884,768.19,535.39" style="stroke:#181818;stroke-width:1.0;"/><text fill="#000000" font-family="sans-serif" font-size="13" lengthAdjust="spacing" textLength="79" x="678" y="475.4951">jobRepository</text></g><!--link Repositories to CollaboratorRepository--><g id="link_Repositories_CollaboratorRepository"><path codeLine="70" d="M474.8,431.1 C450.79,446.77 429,461 429,461 C429,461 408.99,481.37 385.8,504.96 " fill="none" id="Repositories-to-CollaboratorRepository" style="stroke:#181818;stroke-width:1.0;"/><polygon fill="#181818" points="382.06,508.77,391.2235,505.1602,385.5668,505.206,385.521,499.5493,382.06,508.77" style="stroke:#181818;stroke-width:1.0;"/><text fill="#000000" font-family="sans-serif" font-size="13" lengthAdjust="spacing" textLength="129" x="430" y="475.4951">collaboratorRepository</text><text fill="#000000" font-family="sans-serif" font-size="13" lengthAdjust="spacing" textLength="7" x="381.9025" y="497.9441">1</text></g><!--link CollaboratorRepository to Collaborator--><g id="link_CollaboratorRepository_Collaborator"><path codeLine="71" d="M316,645.23 C316,666.61 316,691.51 316,717.54 " fill="none" id="CollaboratorRepository-to-Collaborator" style="stroke:#181818;stroke-width:1.0;"/><polygon fill="#181818" points="316,722.76,320,713.76,316,717.76,312,713.76,316,722.76" style="stroke:#181818;stroke-width:1.0;"/><text fill="#000000" font-family="sans-serif" font-size="13" lengthAdjust="spacing" textLength="74" x="317" y="689.4951">collaborators</text><text fill="#000000" font-family="sans-serif" font-size="13" lengthAdjust="spacing" textLength="5" x="310.9102" y="712.458">*</text></g><!--link RegisterCollaboratorController to CollaboratorRepository--><g id="link_RegisterCollaboratorController_CollaboratorRepository"><path codeLine="72" d="M374.43,270.1 C291.54,308.9 208,348 208,348 C208,348 208,431 208,431 C208,431 235.32,467.68 262.48,504.15 " fill="none" id="RegisterCollaboratorController-to-CollaboratorRepository" style="stroke:#181818;stroke-width:1.0;stroke-dasharray:7.0,7.0;"/><polygon fill="#181818" points="265.79,508.59,263.6284,498.9813,262.806,504.578,257.2093,503.7557,265.79,508.59" style="stroke:#181818;stroke-width:1.0;"/><text fill="#000000" font-family="sans-serif" font-size="13" lengthAdjust="spacing" textLength="129" x="209" y="394.9951">collaboratorRepository</text></g><!--link RegisterCollaboratorController to JobRepository--><g id="link_RegisterCollaboratorController_JobRepository"><path codeLine="73" d="M673.38,270.1 C742.92,308.9 813,348 813,348 C813,348 823.14,463.56 828.98,530.14 " fill="none" id="RegisterCollaboratorController-to-JobRepository" style="stroke:#181818;stroke-width:1.0;stroke-dasharray:7.0,7.0;"/><polygon fill="#181818" points="829.42,535.24,832.608,525.9214,828.9776,530.2596,824.6394,526.6292,829.42,535.24" style="stroke:#181818;stroke-width:1.0;"/><text fill="#000000" font-family="sans-serif" font-size="13" lengthAdjust="spacing" textLength="79" x="822" y="394.9951">jobRepository</text></g><!--link JobRepository to Job--><g id="link_JobRepository_Job"><path codeLine="74" d="M833,618.84 C833,679.89 833,795.49 833,867.59 " fill="none" id="JobRepository-to-Job" style="stroke:#181818;stroke-width:1.0;"/><polygon fill="#181818" points="833,872.71,837,863.71,833,867.71,829,863.71,833,872.71" style="stroke:#181818;stroke-width:1.0;"/><text fill="#000000" font-family="sans-serif" font-size="13" lengthAdjust="spacing" textLength="24" x="834" y="689.4951">jobs</text><text fill="#000000" font-family="sans-serif" font-size="13" lengthAdjust="spacing" textLength="5" x="827.6953" y="861.9989">*</text></g><!--SRC=[tLQnRjim4Dtr5OINs8qTeAjHP8ZT00dI3d6x55qeyYnVJ8a2IQTGY_vxJn4baxAif6kysBnxV2JVE_9izrYKtF2SbLpiUGORLobW1eJZHQOWiHt0xhZKlx38s9Oh6sOK5k2g4bYfLLKFakH2mTOnfvd1REUOn9eHTP4aGd5hsIDaQ1sObLQAfzfmfyttE_Od-Jk6MEd26Hg38IIZpoKJ1hY3rSFDjE0vi2NRE4DxdBCKZTj9ob5iJLzp9cWs5-wBJb45o9y5v1nLC9LBQO2sS8pyndAbPKWlq5KXXzJYa4FXlf4ESuQIVk8M1QyF_VMGfs1gtXojfS0wt5OxixV0aqvfTA_JcJyfYO9PGO7fIIe3TrTOSap0TDQa7g7K5acpwWmcr3K0XmRu889jvIQIYFlSQeGRvXzRkbjvED-p_DtxBNOWzhVQh0-bged1JhjIa3BKQ2g2mIomC7AcrQ-HhwuZXouGnblfGGEBK_vPenpsoRClM6IBZ_MzyU5XWtmoDia7-qxvSD-kbZ_qpCT2tsgU1tfaFgs3u7MtrAbvFjLPvUs8l7ZlPVaC1hVLBT8hB7k55mAQuuq0FjUd7Sd_QCuwWhYffHt9huCJ3S3YMkZNoP1qHqnumxhAZw-Jtyh0FMioaOv7bTjB5c0s9GZaQhMZPYke8ze1E6qeISuqrQkhwrUwQV9AisqOWdQmf7y8ns4IvHQB4p3wndCAZ5-ePLrkGKSuWKy-JiuqXoKJmrtb3Fw5xSCaViDY4liMMVvtEs-W7DSaphR7k7-f24BQv1y0]--></g></svg>