<?xml version="1.0" encoding="UTF-8" standalone="no"?><svg xmlns="http://www.w3.org/2000/svg" xmlns:xlink="http://www.w3.org/1999/xlink" contentStyleType="text/css" height="1085px" preserveAspectRatio="none" style="width:1337px;height:1085px;background:#FFFFFF;" version="1.1" viewBox="0 0 1337 1085" width="1337px" zoomAndPan="magnify"><defs/><g><rect fill="#FFFFFF" height="72.0547" style="stroke:#181818;stroke-width:1.0;" width="10" x="481" y="103.9219"/><rect fill="#FFFFFF" height="167.4063" style="stroke:#181818;stroke-width:1.0;" width="10" x="481" y="845.6016"/><rect fill="#FFFFFF" height="41.3516" style="stroke:#181818;stroke-width:1.0;" width="10" x="486" y="883.9531"/><rect fill="#FFFFFF" height="659.625" style="stroke:#181818;stroke-width:1.0;" width="10" x="1018" y="185.9766"/><rect fill="#FFFFFF" height="593.9219" style="stroke:#181818;stroke-width:1.0;" width="10" x="1023" y="214.3281"/><rect fill="#FFFFFF" height="507.2188" style="stroke:#181818;stroke-width:1.0;" width="10" x="1028" y="257.6797"/><rect fill="#FFFFFF" height="420.5156" style="stroke:#181818;stroke-width:1.0;" width="10" x="1033" y="301.0313"/><rect fill="#FFFFFF" height="333.8125" style="stroke:#181818;stroke-width:1.0;" width="10" x="1038" y="344.3828"/><rect fill="#FFFFFF" height="247.1094" style="stroke:#181818;stroke-width:1.0;" width="10" x="1043" y="387.7344"/><rect fill="#FFFFFF" height="160.4063" style="stroke:#181818;stroke-width:1.0;" width="10" x="1048" y="431.0859"/><rect fill="#FFFFFF" height="41.3516" style="stroke:#181818;stroke-width:1.0;" width="10" x="1053" y="499.7891"/><rect fill="none" height="864.7344" style="stroke:#000000;stroke-width:1.5;" width="935.5" x="395.5" y="118.9219"/><rect fill="none" height="105.0547" style="stroke:#000000;stroke-width:1.5;" width="354" x="967" y="451.0859"/><line style="stroke:#181818;stroke-width:0.5;stroke-dasharray:5.0,5.0;" x1="485.5" x2="485.5" y1="55.2188" y2="1031.0078"/><line style="stroke:#181818;stroke-width:0.5;stroke-dasharray:5.0,5.0;" x1="1023" x2="1023" y1="170.625" y2="1031.0078"/><rect fill="#E3E3E3" height="49.2188" rx="2.5" ry="2.5" style="stroke:#181818;stroke-width:0.5;" width="161" x="405.5" y="5"/><text fill="#000000" font-family="sans-serif" font-size="14" lengthAdjust="spacing" textLength="147" x="412.5" y="26.5332">collaboratorRepository:</text><text fill="#000000" font-family="sans-serif" font-size="14" lengthAdjust="spacing" textLength="146" x="413" y="44.1426">CollaboratorRepository</text><rect fill="#E3E3E3" height="49.2188" rx="2.5" ry="2.5" style="stroke:#181818;stroke-width:0.5;" width="161" x="405.5" y="1030.0078"/><text fill="#000000" font-family="sans-serif" font-size="14" lengthAdjust="spacing" textLength="147" x="412.5" y="1051.541">collaboratorRepository:</text><text fill="#000000" font-family="sans-serif" font-size="14" lengthAdjust="spacing" textLength="146" x="413" y="1069.1504">CollaboratorRepository</text><rect fill="#E3E3E3" height="31.6094" rx="2.5" ry="2.5" style="stroke:#181818;stroke-width:0.5;" width="92" x="977" y="1030.0078"/><text fill="#000000" font-family="sans-serif" font-size="14" lengthAdjust="spacing" textLength="78" x="984" y="1051.541">Collaborator</text><rect fill="#FFFFFF" height="72.0547" style="stroke:#181818;stroke-width:1.0;" width="10" x="481" y="103.9219"/><rect fill="#FFFFFF" height="167.4063" style="stroke:#181818;stroke-width:1.0;" width="10" x="481" y="845.6016"/><rect fill="#FFFFFF" height="41.3516" style="stroke:#181818;stroke-width:1.0;" width="10" x="486" y="883.9531"/><rect fill="#FFFFFF" height="659.625" style="stroke:#181818;stroke-width:1.0;" width="10" x="1018" y="185.9766"/><rect fill="#FFFFFF" height="593.9219" style="stroke:#181818;stroke-width:1.0;" width="10" x="1023" y="214.3281"/><rect fill="#FFFFFF" height="507.2188" style="stroke:#181818;stroke-width:1.0;" width="10" x="1028" y="257.6797"/><rect fill="#FFFFFF" height="420.5156" style="stroke:#181818;stroke-width:1.0;" width="10" x="1033" y="301.0313"/><rect fill="#FFFFFF" height="333.8125" style="stroke:#181818;stroke-width:1.0;" width="10" x="1038" y="344.3828"/><rect fill="#FFFFFF" height="247.1094" style="stroke:#181818;stroke-width:1.0;" width="10" x="1043" y="387.7344"/><rect fill="#FFFFFF" height="160.4063" style="stroke:#181818;stroke-width:1.0;" width="10" x="1048" y="431.0859"/><rect fill="#FFFFFF" height="41.3516" style="stroke:#181818;stroke-width:1.0;" width="10" x="1053" y="499.7891"/><polygon fill="#181818" points="469,99.9219,479,103.9219,469,107.9219,473,103.9219" style="stroke:#181818;stroke-width:1.0;"/><line style="stroke:#181818;stroke-width:1.0;stroke-dasharray:2.0,2.0;" x1="0" x2="475" y1="103.9219" y2="103.9219"/><text fill="#000000" font-family="sans-serif" font-size="13" font-weight="bold" lengthAdjust="spacing" textLength="14" x="7" y="90.8896">22</text><text fill="#000000" font-family="sans-serif" font-size="13" lengthAdjust="spacing" textLength="396" x="25" y="82.7139">createCLB(name, birthdate, contactMobile, email, address, zipCode,</text><text fill="#000000" font-family="sans-serif" font-size="13" lengthAdjust="spacing" textLength="440" x="29" y="99.0654">city, documentType, identificationNumber, admissionDate, taxpayerNumber)</text><path d="M395.5,118.9219 L573.5,118.9219 L573.5,127.2734 L563.5,137.2734 L395.5,137.2734 L395.5,118.9219 " fill="#EEEEEE" style="stroke:#000000;stroke-width:1.5;"/><rect fill="none" height="864.7344" style="stroke:#000000;stroke-width:1.5;" width="935.5" x="395.5" y="118.9219"/><text fill="#000000" font-family="sans-serif" font-size="13" font-weight="bold" lengthAdjust="spacing" textLength="133" x="410.5" y="133.417">Register collaborator</text><polygon fill="#181818" points="965,171.9766,975,175.9766,965,179.9766,969,175.9766" style="stroke:#181818;stroke-width:1.0;"/><line style="stroke:#181818;stroke-width:1.0;" x1="486" x2="971" y1="175.9766" y2="175.9766"/><text fill="#000000" font-family="sans-serif" font-size="13" font-weight="bold" lengthAdjust="spacing" textLength="14" x="493" y="162.9443">23</text><text fill="#000000" font-family="sans-serif" font-size="13" lengthAdjust="spacing" textLength="371" x="511" y="154.7686">create(name, birthdate, contactMobile, email, address, zipCode,</text><text fill="#000000" font-family="sans-serif" font-size="13" lengthAdjust="spacing" textLength="440" x="515" y="171.1201">city, documentType, identificationNumber, admissionDate, taxpayerNumber)</text><rect fill="#E3E3E3" height="31.6094" rx="2.5" ry="2.5" style="stroke:#181818;stroke-width:0.5;" width="92" x="977" y="141.3672"/><text fill="#000000" font-family="sans-serif" font-size="14" lengthAdjust="spacing" textLength="78" x="984" y="162.9004">Collaborator</text><line style="stroke:#181818;stroke-width:1.0;" x1="1028" x2="1075" y1="201.3281" y2="201.3281"/><line style="stroke:#181818;stroke-width:1.0;" x1="1075" x2="1075" y1="201.3281" y2="214.3281"/><line style="stroke:#181818;stroke-width:1.0;" x1="1034" x2="1075" y1="214.3281" y2="214.3281"/><polygon fill="#181818" points="1044,210.3281,1034,214.3281,1044,218.3281,1040,214.3281" style="stroke:#181818;stroke-width:1.0;"/><text fill="#000000" font-family="sans-serif" font-size="13" font-weight="bold" lengthAdjust="spacing" textLength="14" x="1040" y="196.4717">24</text><text fill="#000000" font-family="sans-serif" font-size="13" lengthAdjust="spacing" textLength="135" x="1058" y="196.4717">verifyFilled(collaborator)</text><line style="stroke:#181818;stroke-width:1.0;" x1="1033" x2="1080" y1="244.6797" y2="244.6797"/><line style="stroke:#181818;stroke-width:1.0;" x1="1080" x2="1080" y1="244.6797" y2="257.6797"/><line style="stroke:#181818;stroke-width:1.0;" x1="1039" x2="1080" y1="257.6797" y2="257.6797"/><polygon fill="#181818" points="1049,253.6797,1039,257.6797,1049,261.6797,1045,257.6797" style="stroke:#181818;stroke-width:1.0;"/><text fill="#000000" font-family="sans-serif" font-size="13" font-weight="bold" lengthAdjust="spacing" textLength="14" x="1045" y="239.8232">25</text><text fill="#000000" font-family="sans-serif" font-size="13" lengthAdjust="spacing" textLength="163" x="1063" y="239.8232">verifyNineDigits(collaborator)</text><line style="stroke:#181818;stroke-width:1.0;" x1="1038" x2="1085" y1="288.0313" y2="288.0313"/><line style="stroke:#181818;stroke-width:1.0;" x1="1085" x2="1085" y1="288.0313" y2="301.0313"/><line style="stroke:#181818;stroke-width:1.0;" x1="1044" x2="1085" y1="301.0313" y2="301.0313"/><polygon fill="#181818" points="1054,297.0313,1044,301.0313,1054,305.0313,1050,301.0313" style="stroke:#181818;stroke-width:1.0;"/><text fill="#000000" font-family="sans-serif" font-size="13" font-weight="bold" lengthAdjust="spacing" textLength="14" x="1050" y="283.1748">26</text><text fill="#000000" font-family="sans-serif" font-size="13" lengthAdjust="spacing" textLength="137" x="1068" y="283.1748">verifyEmail(collaborator)</text><line style="stroke:#181818;stroke-width:1.0;" x1="1043" x2="1090" y1="331.3828" y2="331.3828"/><line style="stroke:#181818;stroke-width:1.0;" x1="1090" x2="1090" y1="331.3828" y2="344.3828"/><line style="stroke:#181818;stroke-width:1.0;" x1="1049" x2="1090" y1="344.3828" y2="344.3828"/><polygon fill="#181818" points="1059,340.3828,1049,344.3828,1059,348.3828,1055,344.3828" style="stroke:#181818;stroke-width:1.0;"/><text fill="#000000" font-family="sans-serif" font-size="13" font-weight="bold" lengthAdjust="spacing" textLength="14" x="1055" y="326.5264">27</text><text fill="#000000" font-family="sans-serif" font-size="13" lengthAdjust="spacing" textLength="151" x="1073" y="326.5264">verifyZipCode(collaborator)</text><line style="stroke:#181818;stroke-width:1.0;" x1="1048" x2="1095" y1="374.7344" y2="374.7344"/><line style="stroke:#181818;stroke-width:1.0;" x1="1095" x2="1095" y1="374.7344" y2="387.7344"/><line style="stroke:#181818;stroke-width:1.0;" x1="1054" x2="1095" y1="387.7344" y2="387.7344"/><polygon fill="#181818" points="1064,383.7344,1054,387.7344,1064,391.7344,1060,387.7344" style="stroke:#181818;stroke-width:1.0;"/><text fill="#000000" font-family="sans-serif" font-size="13" font-weight="bold" lengthAdjust="spacing" textLength="14" x="1060" y="369.8779">28</text><text fill="#000000" font-family="sans-serif" font-size="13" lengthAdjust="spacing" textLength="131" x="1078" y="369.8779">verifyBirth(collaborator)</text><line style="stroke:#181818;stroke-width:1.0;" x1="1053" x2="1100" y1="418.0859" y2="418.0859"/><line style="stroke:#181818;stroke-width:1.0;" x1="1100" x2="1100" y1="418.0859" y2="431.0859"/><line style="stroke:#181818;stroke-width:1.0;" x1="1059" x2="1100" y1="431.0859" y2="431.0859"/><polygon fill="#181818" points="1069,427.0859,1059,431.0859,1069,435.0859,1065,431.0859" style="stroke:#181818;stroke-width:1.0;"/><text fill="#000000" font-family="sans-serif" font-size="13" font-weight="bold" lengthAdjust="spacing" textLength="14" x="1065" y="413.2295">29</text><text fill="#000000" font-family="sans-serif" font-size="13" lengthAdjust="spacing" textLength="192" x="1083" y="413.2295">verifyAdmissionDate(collaborator)</text><path d="M967,451.0859 L1040,451.0859 L1040,459.4375 L1030,469.4375 L967,469.4375 L967,451.0859 " fill="#EEEEEE" style="stroke:#000000;stroke-width:1.5;"/><rect fill="none" height="105.0547" style="stroke:#000000;stroke-width:1.5;" width="354" x="967" y="451.0859"/><text fill="#000000" font-family="sans-serif" font-size="13" font-weight="bold" lengthAdjust="spacing" textLength="28" x="982" y="465.5811">loop</text><text fill="#000000" font-family="sans-serif" font-size="11" font-weight="bold" lengthAdjust="spacing" textLength="169" x="1055" y="464.5049">[for all documentType objects]</text><line style="stroke:#181818;stroke-width:1.0;" x1="1058" x2="1105" y1="486.7891" y2="486.7891"/><line style="stroke:#181818;stroke-width:1.0;" x1="1105" x2="1105" y1="486.7891" y2="499.7891"/><line style="stroke:#181818;stroke-width:1.0;" x1="1064" x2="1105" y1="499.7891" y2="499.7891"/><polygon fill="#181818" points="1074,495.7891,1064,499.7891,1074,503.7891,1070,499.7891" style="stroke:#181818;stroke-width:1.0;"/><text fill="#000000" font-family="sans-serif" font-size="13" font-weight="bold" lengthAdjust="spacing" textLength="14" x="1070" y="481.9326">30</text><text fill="#000000" font-family="sans-serif" font-size="13" lengthAdjust="spacing" textLength="221" x="1088" y="481.9326">verifyIdentificationNumber(collaborator)</text><line style="stroke:#181818;stroke-width:1.0;stroke-dasharray:2.0,2.0;" x1="1063" x2="1105" y1="540.1406" y2="540.1406"/><line style="stroke:#181818;stroke-width:1.0;stroke-dasharray:2.0,2.0;" x1="1105" x2="1105" y1="540.1406" y2="553.1406"/><line style="stroke:#181818;stroke-width:1.0;stroke-dasharray:2.0,2.0;" x1="1058" x2="1105" y1="553.1406" y2="553.1406"/><polygon fill="#181818" points="1068,549.1406,1058,553.1406,1068,557.1406,1064,553.1406" style="stroke:#181818;stroke-width:1.0;"/><text fill="#000000" font-family="sans-serif" font-size="13" font-weight="bold" lengthAdjust="spacing" textLength="14" x="1070" y="535.2842">31</text><text fill="#000000" font-family="sans-serif" font-size="13" lengthAdjust="spacing" textLength="4" x="1088" y="535.2842"> </text><line style="stroke:#181818;stroke-width:1.0;stroke-dasharray:2.0,2.0;" x1="1058" x2="1100" y1="590.4922" y2="590.4922"/><line style="stroke:#181818;stroke-width:1.0;stroke-dasharray:2.0,2.0;" x1="1100" x2="1100" y1="590.4922" y2="603.4922"/><line style="stroke:#181818;stroke-width:1.0;stroke-dasharray:2.0,2.0;" x1="1053" x2="1100" y1="603.4922" y2="603.4922"/><polygon fill="#181818" points="1063,599.4922,1053,603.4922,1063,607.4922,1059,603.4922" style="stroke:#181818;stroke-width:1.0;"/><text fill="#000000" font-family="sans-serif" font-size="13" font-weight="bold" lengthAdjust="spacing" textLength="14" x="1065" y="585.6357">32</text><text fill="#000000" font-family="sans-serif" font-size="13" lengthAdjust="spacing" textLength="4" x="1083" y="585.6357"> </text><line style="stroke:#181818;stroke-width:1.0;stroke-dasharray:2.0,2.0;" x1="1053" x2="1095" y1="633.8438" y2="633.8438"/><line style="stroke:#181818;stroke-width:1.0;stroke-dasharray:2.0,2.0;" x1="1095" x2="1095" y1="633.8438" y2="646.8438"/><line style="stroke:#181818;stroke-width:1.0;stroke-dasharray:2.0,2.0;" x1="1048" x2="1095" y1="646.8438" y2="646.8438"/><polygon fill="#181818" points="1058,642.8438,1048,646.8438,1058,650.8438,1054,646.8438" style="stroke:#181818;stroke-width:1.0;"/><text fill="#000000" font-family="sans-serif" font-size="13" font-weight="bold" lengthAdjust="spacing" textLength="14" x="1060" y="628.9873">33</text><text fill="#000000" font-family="sans-serif" font-size="13" lengthAdjust="spacing" textLength="4" x="1078" y="628.9873"> </text><line style="stroke:#181818;stroke-width:1.0;stroke-dasharray:2.0,2.0;" x1="1048" x2="1090" y1="677.1953" y2="677.1953"/><line style="stroke:#181818;stroke-width:1.0;stroke-dasharray:2.0,2.0;" x1="1090" x2="1090" y1="677.1953" y2="690.1953"/><line style="stroke:#181818;stroke-width:1.0;stroke-dasharray:2.0,2.0;" x1="1043" x2="1090" y1="690.1953" y2="690.1953"/><polygon fill="#181818" points="1053,686.1953,1043,690.1953,1053,694.1953,1049,690.1953" style="stroke:#181818;stroke-width:1.0;"/><text fill="#000000" font-family="sans-serif" font-size="13" font-weight="bold" lengthAdjust="spacing" textLength="14" x="1055" y="672.3389">34</text><text fill="#000000" font-family="sans-serif" font-size="13" lengthAdjust="spacing" textLength="4" x="1073" y="672.3389"> </text><line style="stroke:#181818;stroke-width:1.0;stroke-dasharray:2.0,2.0;" x1="1043" x2="1085" y1="720.5469" y2="720.5469"/><line style="stroke:#181818;stroke-width:1.0;stroke-dasharray:2.0,2.0;" x1="1085" x2="1085" y1="720.5469" y2="733.5469"/><line style="stroke:#181818;stroke-width:1.0;stroke-dasharray:2.0,2.0;" x1="1038" x2="1085" y1="733.5469" y2="733.5469"/><polygon fill="#181818" points="1048,729.5469,1038,733.5469,1048,737.5469,1044,733.5469" style="stroke:#181818;stroke-width:1.0;"/><text fill="#000000" font-family="sans-serif" font-size="13" font-weight="bold" lengthAdjust="spacing" textLength="14" x="1050" y="715.6904">35</text><text fill="#000000" font-family="sans-serif" font-size="13" lengthAdjust="spacing" textLength="4" x="1068" y="715.6904"> </text><line style="stroke:#181818;stroke-width:1.0;stroke-dasharray:2.0,2.0;" x1="1038" x2="1080" y1="763.8984" y2="763.8984"/><line style="stroke:#181818;stroke-width:1.0;stroke-dasharray:2.0,2.0;" x1="1080" x2="1080" y1="763.8984" y2="776.8984"/><line style="stroke:#181818;stroke-width:1.0;stroke-dasharray:2.0,2.0;" x1="1033" x2="1080" y1="776.8984" y2="776.8984"/><polygon fill="#181818" points="1043,772.8984,1033,776.8984,1043,780.8984,1039,776.8984" style="stroke:#181818;stroke-width:1.0;"/><text fill="#000000" font-family="sans-serif" font-size="13" font-weight="bold" lengthAdjust="spacing" textLength="14" x="1045" y="759.042">36</text><text fill="#000000" font-family="sans-serif" font-size="13" lengthAdjust="spacing" textLength="4" x="1063" y="759.042"> </text><line style="stroke:#181818;stroke-width:1.0;stroke-dasharray:2.0,2.0;" x1="1033" x2="1075" y1="807.25" y2="807.25"/><line style="stroke:#181818;stroke-width:1.0;stroke-dasharray:2.0,2.0;" x1="1075" x2="1075" y1="807.25" y2="820.25"/><line style="stroke:#181818;stroke-width:1.0;stroke-dasharray:2.0,2.0;" x1="1028" x2="1075" y1="820.25" y2="820.25"/><polygon fill="#181818" points="1038,816.25,1028,820.25,1038,824.25,1034,820.25" style="stroke:#181818;stroke-width:1.0;"/><text fill="#000000" font-family="sans-serif" font-size="13" font-weight="bold" lengthAdjust="spacing" textLength="14" x="1040" y="802.3936">37</text><text fill="#000000" font-family="sans-serif" font-size="13" lengthAdjust="spacing" textLength="4" x="1058" y="802.3936"> </text><polygon fill="#181818" points="502,841.6016,492,845.6016,502,849.6016,498,845.6016" style="stroke:#181818;stroke-width:1.0;"/><line style="stroke:#181818;stroke-width:1.0;stroke-dasharray:2.0,2.0;" x1="496" x2="1022" y1="845.6016" y2="845.6016"/><text fill="#000000" font-family="sans-serif" font-size="13" font-weight="bold" lengthAdjust="spacing" textLength="14" x="508" y="840.7451">38</text><text fill="#000000" font-family="sans-serif" font-size="13" lengthAdjust="spacing" textLength="67" x="526" y="840.7451">collaborator</text><line style="stroke:#181818;stroke-width:1.0;" x1="491" x2="538" y1="870.9531" y2="870.9531"/><line style="stroke:#181818;stroke-width:1.0;" x1="538" x2="538" y1="870.9531" y2="883.9531"/><line style="stroke:#181818;stroke-width:1.0;" x1="497" x2="538" y1="883.9531" y2="883.9531"/><polygon fill="#181818" points="507,879.9531,497,883.9531,507,887.9531,503,883.9531" style="stroke:#181818;stroke-width:1.0;"/><text fill="#000000" font-family="sans-serif" font-size="13" font-weight="bold" lengthAdjust="spacing" textLength="14" x="503" y="866.0967">39</text><text fill="#000000" font-family="sans-serif" font-size="13" lengthAdjust="spacing" textLength="253" x="521" y="866.0967">check for duplicates (identificationNumber[])</text><line style="stroke:#181818;stroke-width:1.0;stroke-dasharray:2.0,2.0;" x1="496" x2="538" y1="924.3047" y2="924.3047"/><line style="stroke:#181818;stroke-width:1.0;stroke-dasharray:2.0,2.0;" x1="538" x2="538" y1="924.3047" y2="937.3047"/><line style="stroke:#181818;stroke-width:1.0;stroke-dasharray:2.0,2.0;" x1="491" x2="538" y1="937.3047" y2="937.3047"/><polygon fill="#181818" points="501,933.3047,491,937.3047,501,941.3047,497,937.3047" style="stroke:#181818;stroke-width:1.0;"/><text fill="#000000" font-family="sans-serif" font-size="13" font-weight="bold" lengthAdjust="spacing" textLength="14" x="503" y="919.4482">40</text><text fill="#000000" font-family="sans-serif" font-size="13" lengthAdjust="spacing" textLength="4" x="521" y="919.4482"> </text><line style="stroke:#181818;stroke-width:1.0;" x1="491" x2="533" y1="962.6563" y2="962.6563"/><line style="stroke:#181818;stroke-width:1.0;" x1="533" x2="533" y1="962.6563" y2="975.6563"/><line style="stroke:#181818;stroke-width:1.0;" x1="492" x2="533" y1="975.6563" y2="975.6563"/><polygon fill="#181818" points="502,971.6563,492,975.6563,502,979.6563,498,975.6563" style="stroke:#181818;stroke-width:1.0;"/><text fill="#000000" font-family="sans-serif" font-size="13" font-weight="bold" lengthAdjust="spacing" textLength="14" x="498" y="957.7998">41</text><text fill="#000000" font-family="sans-serif" font-size="13" lengthAdjust="spacing" textLength="165" x="516" y="957.7998">addCollaborator(collaborator)</text><polygon fill="#181818" points="11,1009.0078,1,1013.0078,11,1017.0078,7,1013.0078" style="stroke:#181818;stroke-width:1.0;"/><line style="stroke:#181818;stroke-width:1.0;stroke-dasharray:2.0,2.0;" x1="5" x2="485" y1="1013.0078" y2="1013.0078"/><text fill="#000000" font-family="sans-serif" font-size="13" font-weight="bold" lengthAdjust="spacing" textLength="14" x="17" y="1008.1514">42</text><text fill="#000000" font-family="sans-serif" font-size="13" lengthAdjust="spacing" textLength="67" x="35" y="1008.1514">collaborator</text><!--SRC=[rLLDRzim3BthLn0zfOLzwJ4O2gnf1mpOYY7RQUiEjCGuN6H9aEHktg-VR3UUapW1WbmsNIpnur6FfEYmOUFGOmMLDLQklQq8egz9X47ZK6wmfC-nqGIUP4HJwh51MAEoFzcKi48TI8WaZYpPeObm9QtMM5YFqVebEHiuRPhvirbCAgu00om-t2yVF-tYZCstHa9W7Qsfgu8ytDwAFBzxzPs3z8IHqcbciA8C2lPnhP8e0sbDH1a_se9rEbA5h3D0fJo5aC5lTWkhA7is83as6IWhwufC_DAuPCugRNd54YDRyzG5Rxqh3Y497heG4NyvRCZtwckHml5BqcofGLgbjxM39PKSOhh_E56TlZVDxzBtvWQsZFu9Eehs2NKtRjTOCGZJ7lhQ91ulv7dLl6EjISt6hA_F1dbYGmzSSWmN0ZssIRiGuskVw0jHxjl2deDn0kljk8f7C2Un_vPJM-jWPJsWrZkT0xRuaOP1ECNb_KHldPsU7dEGxRRU82QZkhkEhdw6z_zaUihbYEjaJjAhROVA_jGv4VdWpR-YxE2jIMwwXb6rqstbAS1iQiXy-tuu5hU00-B4fDaFEcz7tVZliDTX8hM6U9FdqvGFyO_by0y0]--></g></svg>