<?xml version="1.0" encoding="UTF-8" standalone="no"?><svg xmlns="http://www.w3.org/2000/svg" xmlns:xlink="http://www.w3.org/1999/xlink" contentStyleType="text/css" height="325px" preserveAspectRatio="none" style="width:809px;height:325px;background:#FFFFFF;" version="1.1" viewBox="0 0 809 325" width="809px" zoomAndPan="magnify"><defs/><g><rect fill="#FFFFFF" height="149.4063" style="stroke:#181818;stroke-width:1.0;" width="10" x="610" y="103.9219"/><rect fill="#FFFFFF" height="41.3516" style="stroke:#181818;stroke-width:1.0;" width="10" x="615" y="167.625"/><rect fill="none" height="105.0547" style="stroke:#000000;stroke-width:1.5;" width="230" x="573" y="118.9219"/><line style="stroke:#181818;stroke-width:0.5;stroke-dasharray:5.0,5.0;" x1="70" x2="70" y1="55.2188" y2="271.3281"/><line style="stroke:#181818;stroke-width:0.5;stroke-dasharray:5.0,5.0;" x1="615" x2="615" y1="55.2188" y2="271.3281"/><rect fill="#E3E3E3" height="49.2188" rx="2.5" ry="2.5" style="stroke:#181818;stroke-width:0.5;" width="130" x="5" y="5"/><text fill="#000000" font-family="sans-serif" font-size="14" lengthAdjust="spacing" textLength="116" x="12" y="26.5332">vehicleRepository:</text><text fill="#000000" font-family="sans-serif" font-size="14" lengthAdjust="spacing" textLength="114" x="13" y="44.1426">VehicleRepository</text><rect fill="#E3E3E3" height="49.2188" rx="2.5" ry="2.5" style="stroke:#181818;stroke-width:0.5;" width="130" x="5" y="270.3281"/><text fill="#000000" font-family="sans-serif" font-size="14" lengthAdjust="spacing" textLength="116" x="12" y="291.8613">vehicleRepository:</text><text fill="#000000" font-family="sans-serif" font-size="14" lengthAdjust="spacing" textLength="114" x="13" y="309.4707">VehicleRepository</text><rect fill="#E3E3E3" height="49.2188" rx="2.5" ry="2.5" style="stroke:#181818;stroke-width:0.5;" width="64" x="583" y="5"/><text fill="#000000" font-family="sans-serif" font-size="14" lengthAdjust="spacing" textLength="44" x="593" y="26.5332">vehicle</text><text fill="#000000" font-family="sans-serif" font-size="14" lengthAdjust="spacing" textLength="50" x="590" y="44.1426">:Vehicle</text><rect fill="#E3E3E3" height="49.2188" rx="2.5" ry="2.5" style="stroke:#181818;stroke-width:0.5;" width="64" x="583" y="270.3281"/><text fill="#000000" font-family="sans-serif" font-size="14" lengthAdjust="spacing" textLength="44" x="593" y="291.8613">vehicle</text><text fill="#000000" font-family="sans-serif" font-size="14" lengthAdjust="spacing" textLength="50" x="590" y="309.4707">:Vehicle</text><rect fill="#FFFFFF" height="149.4063" style="stroke:#181818;stroke-width:1.0;" width="10" x="610" y="103.9219"/><rect fill="#FFFFFF" height="41.3516" style="stroke:#181818;stroke-width:1.0;" width="10" x="615" y="167.625"/><polygon fill="#181818" points="598,99.9219,608,103.9219,598,107.9219,602,103.9219" style="stroke:#181818;stroke-width:1.0;"/><line style="stroke:#181818;stroke-width:1.0;" x1="70" x2="604" y1="103.9219" y2="103.9219"/><text fill="#000000" font-family="sans-serif" font-size="13" font-weight="bold" lengthAdjust="spacing" textLength="7" x="77" y="90.8896">8</text><text fill="#000000" font-family="sans-serif" font-size="13" lengthAdjust="spacing" textLength="399" x="88" y="82.7139">registerVehicle(VIN, Brand, Model, Type, Vehicle Plate, Tare Weight,</text><text fill="#000000" font-family="sans-serif" font-size="13" lengthAdjust="spacing" textLength="510" x="88" y="99.0654">Gross Weight, Current Km, Registration date Acquisition Date, Maintenance Frequency)</text><path d="M573,118.9219 L722,118.9219 L722,127.2734 L712,137.2734 L573,137.2734 L573,118.9219 " fill="#EEEEEE" style="stroke:#000000;stroke-width:1.5;"/><rect fill="none" height="105.0547" style="stroke:#000000;stroke-width:1.5;" width="230" x="573" y="118.9219"/><text fill="#000000" font-family="sans-serif" font-size="13" font-weight="bold" lengthAdjust="spacing" textLength="104" x="588" y="133.417">Register Vehicle</text><line style="stroke:#181818;stroke-width:1.0;" x1="620" x2="667" y1="154.625" y2="154.625"/><line style="stroke:#181818;stroke-width:1.0;" x1="667" x2="667" y1="154.625" y2="167.625"/><line style="stroke:#181818;stroke-width:1.0;" x1="626" x2="667" y1="167.625" y2="167.625"/><polygon fill="#181818" points="636,163.625,626,167.625,636,171.625,632,167.625" style="stroke:#181818;stroke-width:1.0;"/><text fill="#000000" font-family="sans-serif" font-size="13" font-weight="bold" lengthAdjust="spacing" textLength="18" x="632" y="149.7686">8.1</text><text fill="#000000" font-family="sans-serif" font-size="13" lengthAdjust="spacing" textLength="137" x="654" y="149.7686">validateVehicle(vehicle))</text><line style="stroke:#181818;stroke-width:1.0;stroke-dasharray:2.0,2.0;" x1="625" x2="667" y1="207.9766" y2="207.9766"/><line style="stroke:#181818;stroke-width:1.0;stroke-dasharray:2.0,2.0;" x1="667" x2="667" y1="207.9766" y2="220.9766"/><line style="stroke:#181818;stroke-width:1.0;stroke-dasharray:2.0,2.0;" x1="620" x2="667" y1="220.9766" y2="220.9766"/><polygon fill="#181818" points="630,216.9766,620,220.9766,630,224.9766,626,220.9766" style="stroke:#181818;stroke-width:1.0;"/><text fill="#000000" font-family="sans-serif" font-size="13" font-weight="bold" lengthAdjust="spacing" textLength="18" x="632" y="203.1201">8.2</text><text fill="#000000" font-family="sans-serif" font-size="13" lengthAdjust="spacing" textLength="4" x="654" y="203.1201"> </text><polygon fill="#181818" points="81,249.3281,71,253.3281,81,257.3281,77,253.3281" style="stroke:#181818;stroke-width:1.0;"/><line style="stroke:#181818;stroke-width:1.0;stroke-dasharray:2.0,2.0;" x1="75" x2="614" y1="253.3281" y2="253.3281"/><text fill="#000000" font-family="sans-serif" font-size="13" font-weight="bold" lengthAdjust="spacing" textLength="7" x="87" y="248.4717">9</text><text fill="#000000" font-family="sans-serif" font-size="13" lengthAdjust="spacing" textLength="39" x="98" y="248.4717">vehicle</text><!--SRC=[ZP9DRy8m38Rl-HKMfo5ratRRE4pQjz34D374BbnCwhKHgLESbAd_VYaKHEaabblyyVXzdVYLuH852oWSEvsBAmY2LAJy8LEYNc56dw6s148w86VskC3dcBeVmnbye_MaL0m7eqs9762meTneIrCgdJV1IJrQyFmqDW3qq8l-2Lhmg2tSDJsFbS8gEAwA9GdSA3WwFIHStZKjesWaCpwGj1KNy_5x0W-2d2OmSIdP16PrISaU0HyMGxpEK0Y-o6HvI631h-AyFzmVAn6AMj-A1ARR0OB1E8OqziAzNbScocW2JrlO10q7OcHDy2AqheXrFOn-T32RfgLnr_Z8n5LbYumcMqtRrB7tgskbElxx9n8FEzYWDOso_GxQ3G-7PnWTUV-PjnjufZAbBhUrGfns7lXMTR2ztmMj2tNA-mK0]--></g></svg>