<?xml version="1.0" encoding="UTF-8" standalone="no"?><svg xmlns="http://www.w3.org/2000/svg" xmlns:xlink="http://www.w3.org/1999/xlink" contentStyleType="text/css" height="1210px" preserveAspectRatio="none" style="width:2296px;height:1210px;background:#FFFFFF;" version="1.1" viewBox="0 0 2296 1210" width="2296px" zoomAndPan="magnify"><defs/><g><!--cluster UI--><g id="cluster_UI"><path d="M1342.5,6 L1357.5,6 A3.75,3.75 0 0 1 1360,8.5 L1367,29.6094 L1521.5,29.6094 A2.5,2.5 0 0 1 1524,32.1094 L1524,103.5 A2.5,2.5 0 0 1 1521.5,106 L1342.5,106 A2.5,2.5 0 0 1 1340,103.5 L1340,8.5 A2.5,2.5 0 0 1 1342.5,6 " fill="none" style="stroke:#000000;stroke-width:1.5;"/><line style="stroke:#000000;stroke-width:1.5;" x1="1340" x2="1367" y1="29.6094" y2="29.6094"/><text fill="#000000" font-family="sans-serif" font-size="14" font-weight="bold" lengthAdjust="spacing" textLength="14" x="1344" y="22.5332">UI</text></g><!--cluster CONTROLLER--><g id="cluster_CONTROLLER"><path d="M1231.5,139 L1327.5,139 A3.75,3.75 0 0 1 1330,141.5 L1337,162.6094 L1632.5,162.6094 A2.5,2.5 0 0 1 1635,165.1094 L1635,324.5 A2.5,2.5 0 0 1 1632.5,327 L1231.5,327 A2.5,2.5 0 0 1 1229,324.5 L1229,141.5 A2.5,2.5 0 0 1 1231.5,139 " fill="none" style="stroke:#000000;stroke-width:1.5;"/><line style="stroke:#000000;stroke-width:1.5;" x1="1229" x2="1337" y1="162.6094" y2="162.6094"/><text fill="#000000" font-family="sans-serif" font-size="14" font-weight="bold" lengthAdjust="spacing" textLength="95" x="1233" y="155.5332">CONTROLLER</text></g><!--cluster DOMAIN--><g id="cluster_DOMAIN"><path d="M8.5,377 L66.5,377 A3.75,3.75 0 0 1 69,379.5 L76,400.6094 L1438.5,400.6094 A2.5,2.5 0 0 1 1441,403.1094 L1441,1181 A2.5,2.5 0 0 1 1438.5,1183.5 L8.5,1183.5 A2.5,2.5 0 0 1 6,1181 L6,379.5 A2.5,2.5 0 0 1 8.5,377 " fill="none" style="stroke:#000000;stroke-width:1.5;"/><line style="stroke:#000000;stroke-width:1.5;" x1="6" x2="76" y1="400.6094" y2="400.6094"/><text fill="#000000" font-family="sans-serif" font-size="14" font-weight="bold" lengthAdjust="spacing" textLength="57" x="10" y="393.5332">DOMAIN</text></g><!--cluster REPOSITORY--><g id="cluster_REPOSITORY"><path d="M937.5,421 L1029.5,421 A3.75,3.75 0 0 1 1032,423.5 L1039,444.6094 L1406.5,444.6094 A2.5,2.5 0 0 1 1409,447.1094 L1409,808 A2.5,2.5 0 0 1 1406.5,810.5 L937.5,810.5 A2.5,2.5 0 0 1 935,808 L935,423.5 A2.5,2.5 0 0 1 937.5,421 " fill="none" style="stroke:#000000;stroke-width:1.5;"/><line style="stroke:#000000;stroke-width:1.5;" x1="935" x2="1039" y1="444.6094" y2="444.6094"/><text fill="#000000" font-family="sans-serif" font-size="14" font-weight="bold" lengthAdjust="spacing" textLength="91" x="939" y="437.5332">REPOSITORY</text></g><!--cluster MODEL--><g id="cluster_MODEL"><path d="M32.5,865.5 L84.5,865.5 A3.75,3.75 0 0 1 87,868 L94,889.1094 L1414.5,889.1094 A2.5,2.5 0 0 1 1417,891.6094 L1417,1157 A2.5,2.5 0 0 1 1414.5,1159.5 L32.5,1159.5 A2.5,2.5 0 0 1 30,1157 L30,868 A2.5,2.5 0 0 1 32.5,865.5 " fill="none" style="stroke:#000000;stroke-width:1.5;"/><line style="stroke:#000000;stroke-width:1.5;" x1="30" x2="94" y1="889.1094" y2="889.1094"/><text fill="#000000" font-family="sans-serif" font-size="14" font-weight="bold" lengthAdjust="spacing" textLength="51" x="34" y="882.0332">MODEL</text></g><!--cluster DTO--><g id="cluster_DTO"><path d="M1467.5,640 L1497.5,640 A3.75,3.75 0 0 1 1500,642.5 L1507,663.6094 L2286.5,663.6094 A2.5,2.5 0 0 1 2289,666.1094 L2289,1201 A2.5,2.5 0 0 1 2286.5,1203.5 L1467.5,1203.5 A2.5,2.5 0 0 1 1465,1201 L1465,642.5 A2.5,2.5 0 0 1 1467.5,640 " fill="none" style="stroke:#000000;stroke-width:1.5;"/><line style="stroke:#000000;stroke-width:1.5;" x1="1465" x2="1507" y1="663.6094" y2="663.6094"/><text fill="#000000" font-family="sans-serif" font-size="14" font-weight="bold" lengthAdjust="spacing" textLength="29" x="1469" y="656.5332">DTO</text></g><!--cluster EXTERNAL--><g id="cluster_EXTERNAL"><path d="M1471.5,438.5 L1544.5,438.5 A3.75,3.75 0 0 1 1547,441 L1554,462.1094 L1750.5,462.1094 A2.5,2.5 0 0 1 1753,464.6094 L1753,589 A2.5,2.5 0 0 1 1750.5,591.5 L1471.5,591.5 A2.5,2.5 0 0 1 1469,589 L1469,441 A2.5,2.5 0 0 1 1471.5,438.5 " fill="none" style="stroke:#000000;stroke-width:1.5;"/><line style="stroke:#000000;stroke-width:1.5;" x1="1469" x2="1554" y1="462.1094" y2="462.1094"/><text fill="#000000" font-family="sans-serif" font-size="14" font-weight="bold" lengthAdjust="spacing" textLength="72" x="1473" y="455.0332">EXTERNAL</text></g><!--class AddAgendaEntryUI--><g id="elem_AddAgendaEntryUI"><rect codeLine="5" fill="#F1F1F1" height="48" id="AddAgendaEntryUI" rx="2.5" ry="2.5" style="stroke:#181818;stroke-width:0.5;" width="151" x="1356.5" y="42"/><ellipse cx="1371.5" cy="58" fill="#ADD1B2" rx="11" ry="11" style="stroke:#181818;stroke-width:1.0;"/><path d="M1374.2656,53.875 Q1374.4219,53.6563 1374.6094,53.5469 Q1374.7969,53.4375 1375.0156,53.4375 Q1375.3906,53.4375 1375.625,53.7031 Q1375.8594,53.9531 1375.8594,54.5625 L1375.8594,56.0156 Q1375.8594,56.625 1375.625,56.8906 Q1375.3906,57.1563 1375.0156,57.1563 Q1374.6719,57.1563 1374.4688,56.9531 Q1374.2656,56.7656 1374.1563,56.25 Q1374.1094,55.8906 1373.9219,55.7031 Q1373.5938,55.3281 1372.9844,55.1094 Q1372.375,54.8906 1371.75,54.8906 Q1370.9844,54.8906 1370.3438,55.2188 Q1369.7188,55.5469 1369.2188,56.2969 Q1368.7344,57.0469 1368.7344,58.0781 L1368.7344,59.1719 Q1368.7344,60.4063 1369.625,61.2344 Q1370.5156,62.0469 1372.1094,62.0469 Q1373.0469,62.0469 1373.7031,61.7969 Q1374.0938,61.6406 1374.5156,61.2031 Q1374.7813,60.9375 1374.9219,60.8594 Q1375.0781,60.7813 1375.2813,60.7813 Q1375.6094,60.7813 1375.8594,61.0469 Q1376.125,61.2969 1376.125,61.6406 Q1376.125,61.9844 1375.7813,62.3906 Q1375.2813,62.9688 1374.4844,63.2969 Q1373.4063,63.75 1372.1094,63.75 Q1370.5938,63.75 1369.3906,63.125 Q1368.4063,62.625 1367.7188,61.5625 Q1367.0313,60.4844 1367.0313,59.2031 L1367.0313,58.0469 Q1367.0313,56.7188 1367.6406,55.5781 Q1368.2656,54.4219 1369.3594,53.8125 Q1370.4531,53.1875 1371.6875,53.1875 Q1372.4219,53.1875 1373.0625,53.3594 Q1373.7188,53.5156 1374.2656,53.875 Z " fill="#000000"/><text fill="#000000" font-family="sans-serif" font-size="14" lengthAdjust="spacing" textLength="119" x="1385.5" y="63.7285">AddAgendaEntryUI</text><line style="stroke:#181818;stroke-width:0.5;" x1="1357.5" x2="1506.5" y1="74" y2="74"/><line style="stroke:#181818;stroke-width:0.5;" x1="1357.5" x2="1506.5" y1="82" y2="82"/></g><!--class AddAgendaEntryController--><g id="elem_AddAgendaEntryController"><rect codeLine="10" fill="#F1F1F1" height="136.0469" id="AddAgendaEntryController" rx="2.5" ry="2.5" style="stroke:#181818;stroke-width:0.5;" width="373" x="1245.5" y="175"/><ellipse cx="1343.25" cy="191" fill="#ADD1B2" rx="11" ry="11" style="stroke:#181818;stroke-width:1.0;"/><path d="M1346.0156,186.875 Q1346.1719,186.6563 1346.3594,186.5469 Q1346.5469,186.4375 1346.7656,186.4375 Q1347.1406,186.4375 1347.375,186.7031 Q1347.6094,186.9531 1347.6094,187.5625 L1347.6094,189.0156 Q1347.6094,189.625 1347.375,189.8906 Q1347.1406,190.1563 1346.7656,190.1563 Q1346.4219,190.1563 1346.2188,189.9531 Q1346.0156,189.7656 1345.9063,189.25 Q1345.8594,188.8906 1345.6719,188.7031 Q1345.3438,188.3281 1344.7344,188.1094 Q1344.125,187.8906 1343.5,187.8906 Q1342.7344,187.8906 1342.0938,188.2188 Q1341.4688,188.5469 1340.9688,189.2969 Q1340.4844,190.0469 1340.4844,191.0781 L1340.4844,192.1719 Q1340.4844,193.4063 1341.375,194.2344 Q1342.2656,195.0469 1343.8594,195.0469 Q1344.7969,195.0469 1345.4531,194.7969 Q1345.8438,194.6406 1346.2656,194.2031 Q1346.5313,193.9375 1346.6719,193.8594 Q1346.8281,193.7813 1347.0313,193.7813 Q1347.3594,193.7813 1347.6094,194.0469 Q1347.875,194.2969 1347.875,194.6406 Q1347.875,194.9844 1347.5313,195.3906 Q1347.0313,195.9688 1346.2344,196.2969 Q1345.1563,196.75 1343.8594,196.75 Q1342.3438,196.75 1341.1406,196.125 Q1340.1563,195.625 1339.4688,194.5625 Q1338.7813,193.4844 1338.7813,192.2031 L1338.7813,191.0469 Q1338.7813,189.7188 1339.3906,188.5781 Q1340.0156,187.4219 1341.1094,186.8125 Q1342.2031,186.1875 1343.4375,186.1875 Q1344.1719,186.1875 1344.8125,186.3594 Q1345.4688,186.5156 1346.0156,186.875 Z " fill="#000000"/><text fill="#000000" font-family="sans-serif" font-size="14" lengthAdjust="spacing" textLength="169" x="1363.75" y="196.7285">AddAgendaEntryController</text><line style="stroke:#181818;stroke-width:0.5;" x1="1246.5" x2="1617.5" y1="207" y2="207"/><rect fill="none" height="6" style="stroke:#C82930;stroke-width:1.0;" width="6" x="1253.5" y="218.3047"/><text fill="#000000" font-family="sans-serif" font-size="14" lengthAdjust="spacing" textLength="161" x="1265.5" y="225.5332">repositories: Repositories</text><rect fill="none" height="6" style="stroke:#C82930;stroke-width:1.0;" width="6" x="1253.5" y="235.9141"/><text fill="#000000" font-family="sans-serif" font-size="14" lengthAdjust="spacing" textLength="209" x="1265.5" y="243.1426">entryRepository: EntryRepository</text><line style="stroke:#181818;stroke-width:0.5;" x1="1246.5" x2="1617.5" y1="250.2188" y2="250.2188"/><ellipse cx="1256.5" cy="264.5234" fill="#84BE84" rx="3" ry="3" style="stroke:#038048;stroke-width:1.0;"/><text fill="#000000" font-family="sans-serif" font-size="14" lengthAdjust="spacing" textLength="179" x="1265.5" y="268.752">AddAgendaEntryController()</text><ellipse cx="1256.5" cy="282.1328" fill="#84BE84" rx="3" ry="3" style="stroke:#038048;stroke-width:1.0;"/><text fill="#000000" font-family="sans-serif" font-size="14" lengthAdjust="spacing" textLength="347" x="1265.5" y="286.3613">getToDoEntry(gsm: UserSession): List&lt;ToDoEntryDto&gt;</text><ellipse cx="1256.5" cy="299.7422" fill="#84BE84" rx="3" ry="3" style="stroke:#038048;stroke-width:1.0;"/><text fill="#000000" font-family="sans-serif" font-size="14" lengthAdjust="spacing" textLength="335" x="1265.5" y="303.9707">addAgendaEntry (agendaEntryDto: AgendaEntryDto)</text></g><!--class Repositories--><g id="elem_Repositories"><rect codeLine="21" fill="#F1F1F1" height="136.0469" id="Repositories" rx="2.5" ry="2.5" style="stroke:#181818;stroke-width:0.5;" width="266" x="1034" y="457"/><ellipse cx="1123.25" cy="473" fill="#ADD1B2" rx="11" ry="11" style="stroke:#181818;stroke-width:1.0;"/><path d="M1126.0156,468.875 Q1126.1719,468.6563 1126.3594,468.5469 Q1126.5469,468.4375 1126.7656,468.4375 Q1127.1406,468.4375 1127.375,468.7031 Q1127.6094,468.9531 1127.6094,469.5625 L1127.6094,471.0156 Q1127.6094,471.625 1127.375,471.8906 Q1127.1406,472.1563 1126.7656,472.1563 Q1126.4219,472.1563 1126.2188,471.9531 Q1126.0156,471.7656 1125.9063,471.25 Q1125.8594,470.8906 1125.6719,470.7031 Q1125.3438,470.3281 1124.7344,470.1094 Q1124.125,469.8906 1123.5,469.8906 Q1122.7344,469.8906 1122.0938,470.2188 Q1121.4688,470.5469 1120.9688,471.2969 Q1120.4844,472.0469 1120.4844,473.0781 L1120.4844,474.1719 Q1120.4844,475.4063 1121.375,476.2344 Q1122.2656,477.0469 1123.8594,477.0469 Q1124.7969,477.0469 1125.4531,476.7969 Q1125.8438,476.6406 1126.2656,476.2031 Q1126.5313,475.9375 1126.6719,475.8594 Q1126.8281,475.7813 1127.0313,475.7813 Q1127.3594,475.7813 1127.6094,476.0469 Q1127.875,476.2969 1127.875,476.6406 Q1127.875,476.9844 1127.5313,477.3906 Q1127.0313,477.9688 1126.2344,478.2969 Q1125.1563,478.75 1123.8594,478.75 Q1122.3438,478.75 1121.1406,478.125 Q1120.1563,477.625 1119.4688,476.5625 Q1118.7813,475.4844 1118.7813,474.2031 L1118.7813,473.0469 Q1118.7813,471.7188 1119.3906,470.5781 Q1120.0156,469.4219 1121.1094,468.8125 Q1122.2031,468.1875 1123.4375,468.1875 Q1124.1719,468.1875 1124.8125,468.3594 Q1125.4688,468.5156 1126.0156,468.875 Z " fill="#000000"/><text fill="#000000" font-family="sans-serif" font-size="14" lengthAdjust="spacing" textLength="79" x="1143.75" y="478.7285">Repositories</text><line style="stroke:#181818;stroke-width:0.5;" x1="1035" x2="1299" y1="489" y2="489"/><rect fill="none" height="6" style="stroke:#C82930;stroke-width:1.0;" width="6" x="1042" y="500.3047"/><text fill="#000000" font-family="sans-serif" font-size="14" lengthAdjust="spacing" textLength="140" x="1054" y="507.5332">instance: Repositories</text><rect fill="none" height="6" style="stroke:#C82930;stroke-width:1.0;" width="6" x="1042" y="517.9141"/><text fill="#000000" font-family="sans-serif" font-size="14" lengthAdjust="spacing" textLength="209" x="1054" y="525.1426">entryRepository: EntryRepository</text><line style="stroke:#181818;stroke-width:0.5;" x1="1035" x2="1299" y1="532.2188" y2="532.2188"/><rect fill="#F24D5C" height="6" style="stroke:#C82930;stroke-width:1.0;" width="6" x="1042" y="543.5234"/><text fill="#000000" font-family="sans-serif" font-size="14" lengthAdjust="spacing" textLength="89" x="1054" y="550.752">Repositories()</text><ellipse cx="1045" cy="564.1328" fill="#84BE84" rx="3" ry="3" style="stroke:#038048;stroke-width:1.0;"/><text fill="#000000" font-family="sans-serif" font-size="14" lengthAdjust="spacing" textLength="170" x="1054" y="568.3613">getInstance(): Repositories</text><ellipse cx="1045" cy="581.7422" fill="#84BE84" rx="3" ry="3" style="stroke:#038048;stroke-width:1.0;"/><text fill="#000000" font-family="sans-serif" font-size="14" lengthAdjust="spacing" textLength="240" x="1054" y="585.9707">getEntryRepository(): EntryRepository</text></g><!--class EntryRepository--><g id="elem_EntryRepository"><rect codeLine="29" fill="#F1F1F1" height="136.0469" id="EntryRepository" rx="2.5" ry="2.5" style="stroke:#181818;stroke-width:0.5;" width="442" x="951" y="658.5"/><ellipse cx="1117.25" cy="674.5" fill="#ADD1B2" rx="11" ry="11" style="stroke:#181818;stroke-width:1.0;"/><path d="M1120.0156,670.375 Q1120.1719,670.1563 1120.3594,670.0469 Q1120.5469,669.9375 1120.7656,669.9375 Q1121.1406,669.9375 1121.375,670.2031 Q1121.6094,670.4531 1121.6094,671.0625 L1121.6094,672.5156 Q1121.6094,673.125 1121.375,673.3906 Q1121.1406,673.6563 1120.7656,673.6563 Q1120.4219,673.6563 1120.2188,673.4531 Q1120.0156,673.2656 1119.9063,672.75 Q1119.8594,672.3906 1119.6719,672.2031 Q1119.3438,671.8281 1118.7344,671.6094 Q1118.125,671.3906 1117.5,671.3906 Q1116.7344,671.3906 1116.0938,671.7188 Q1115.4688,672.0469 1114.9688,672.7969 Q1114.4844,673.5469 1114.4844,674.5781 L1114.4844,675.6719 Q1114.4844,676.9063 1115.375,677.7344 Q1116.2656,678.5469 1117.8594,678.5469 Q1118.7969,678.5469 1119.4531,678.2969 Q1119.8438,678.1406 1120.2656,677.7031 Q1120.5313,677.4375 1120.6719,677.3594 Q1120.8281,677.2813 1121.0313,677.2813 Q1121.3594,677.2813 1121.6094,677.5469 Q1121.875,677.7969 1121.875,678.1406 Q1121.875,678.4844 1121.5313,678.8906 Q1121.0313,679.4688 1120.2344,679.7969 Q1119.1563,680.25 1117.8594,680.25 Q1116.3438,680.25 1115.1406,679.625 Q1114.1563,679.125 1113.4688,678.0625 Q1112.7813,676.9844 1112.7813,675.7031 L1112.7813,674.5469 Q1112.7813,673.2188 1113.3906,672.0781 Q1114.0156,670.9219 1115.1094,670.3125 Q1116.2031,669.6875 1117.4375,669.6875 Q1118.1719,669.6875 1118.8125,669.8594 Q1119.4688,670.0156 1120.0156,670.375 Z " fill="#000000"/><text fill="#000000" font-family="sans-serif" font-size="14" lengthAdjust="spacing" textLength="101" x="1137.75" y="680.2285">EntryRepository</text><line style="stroke:#181818;stroke-width:0.5;" x1="952" x2="1392" y1="690.5" y2="690.5"/><rect fill="none" height="6" style="stroke:#C82930;stroke-width:1.0;" width="6" x="959" y="701.8047"/><text fill="#000000" font-family="sans-serif" font-size="14" lengthAdjust="spacing" textLength="199" x="971" y="709.0332">toDoEntryList: List&lt;ToDoEntry&gt;</text><rect fill="none" height="6" style="stroke:#C82930;stroke-width:1.0;" width="6" x="959" y="719.4141"/><text fill="#000000" font-family="sans-serif" font-size="14" lengthAdjust="spacing" textLength="231" x="971" y="726.6426">agendaEntryList: List&lt;AgendaEntry&gt;</text><line style="stroke:#181818;stroke-width:0.5;" x1="952" x2="1392" y1="733.7188" y2="733.7188"/><ellipse cx="962" cy="748.0234" fill="#84BE84" rx="3" ry="3" style="stroke:#038048;stroke-width:1.0;"/><text fill="#000000" font-family="sans-serif" font-size="14" lengthAdjust="spacing" textLength="111" x="971" y="752.252">EntryRepository()</text><ellipse cx="962" cy="765.6328" fill="#84BE84" rx="3" ry="3" style="stroke:#038048;stroke-width:1.0;"/><text fill="#000000" font-family="sans-serif" font-size="14" lengthAdjust="spacing" textLength="416" x="971" y="769.8613">getToDoEntryListByGSM(gsm: UserSession): List&lt;ToDoEntryDto&gt;</text><ellipse cx="962" cy="783.2422" fill="#84BE84" rx="3" ry="3" style="stroke:#038048;stroke-width:1.0;"/><text fill="#000000" font-family="sans-serif" font-size="14" lengthAdjust="spacing" textLength="321" x="971" y="787.4707">addAgendaEntry(agendaEntry: AgendaEntry): void</text></g><!--class AgendaEntry--><g id="elem_AgendaEntry"><rect codeLine="41" fill="#F1F1F1" height="241.7031" id="AgendaEntry" rx="2.5" ry="2.5" style="stroke:#181818;stroke-width:0.5;" width="1128" x="46" y="901.5"/><ellipse cx="564.75" cy="917.5" fill="#ADD1B2" rx="11" ry="11" style="stroke:#181818;stroke-width:1.0;"/><path d="M567.5156,913.375 Q567.6719,913.1563 567.8594,913.0469 Q568.0469,912.9375 568.2656,912.9375 Q568.6406,912.9375 568.875,913.2031 Q569.1094,913.4531 569.1094,914.0625 L569.1094,915.5156 Q569.1094,916.125 568.875,916.3906 Q568.6406,916.6563 568.2656,916.6563 Q567.9219,916.6563 567.7188,916.4531 Q567.5156,916.2656 567.4063,915.75 Q567.3594,915.3906 567.1719,915.2031 Q566.8438,914.8281 566.2344,914.6094 Q565.625,914.3906 565,914.3906 Q564.2344,914.3906 563.5938,914.7188 Q562.9688,915.0469 562.4688,915.7969 Q561.9844,916.5469 561.9844,917.5781 L561.9844,918.6719 Q561.9844,919.9063 562.875,920.7344 Q563.7656,921.5469 565.3594,921.5469 Q566.2969,921.5469 566.9531,921.2969 Q567.3438,921.1406 567.7656,920.7031 Q568.0313,920.4375 568.1719,920.3594 Q568.3281,920.2813 568.5313,920.2813 Q568.8594,920.2813 569.1094,920.5469 Q569.375,920.7969 569.375,921.1406 Q569.375,921.4844 569.0313,921.8906 Q568.5313,922.4688 567.7344,922.7969 Q566.6563,923.25 565.3594,923.25 Q563.8438,923.25 562.6406,922.625 Q561.6563,922.125 560.9688,921.0625 Q560.2813,919.9844 560.2813,918.7031 L560.2813,917.5469 Q560.2813,916.2188 560.8906,915.0781 Q561.5156,913.9219 562.6094,913.3125 Q563.7031,912.6875 564.9375,912.6875 Q565.6719,912.6875 566.3125,912.8594 Q566.9688,913.0156 567.5156,913.375 Z " fill="#000000"/><text fill="#000000" font-family="sans-serif" font-size="14" lengthAdjust="spacing" textLength="82" x="585.25" y="923.2285">AgendaEntry</text><line style="stroke:#181818;stroke-width:0.5;" x1="47" x2="1173" y1="933.5" y2="933.5"/><rect fill="none" height="6" style="stroke:#C82930;stroke-width:1.0;" width="6" x="54" y="944.8047"/><text fill="#000000" font-family="sans-serif" font-size="14" lengthAdjust="spacing" textLength="67" x="66" y="952.0332">title: String</text><rect fill="none" height="6" style="stroke:#C82930;stroke-width:1.0;" width="6" x="54" y="962.4141"/><text fill="#000000" font-family="sans-serif" font-size="14" lengthAdjust="spacing" textLength="114" x="66" y="969.6426">description: String</text><rect fill="none" height="6" style="stroke:#C82930;stroke-width:1.0;" width="6" x="54" y="980.0234"/><text fill="#000000" font-family="sans-serif" font-size="14" lengthAdjust="spacing" textLength="75" x="66" y="987.252">duration: int</text><rect fill="none" height="6" style="stroke:#C82930;stroke-width:1.0;" width="6" x="54" y="997.6328"/><text fill="#000000" font-family="sans-serif" font-size="14" lengthAdjust="spacing" textLength="191" x="66" y="1004.8613">urgencyStatus: UrgencyStatus</text><rect fill="none" height="6" style="stroke:#C82930;stroke-width:1.0;" width="6" x="54" y="1015.2422"/><text fill="#000000" font-family="sans-serif" font-size="14" lengthAdjust="spacing" textLength="165" x="66" y="1022.4707">greenSpace: GreenSpace</text><rect fill="none" height="6" style="stroke:#C82930;stroke-width:1.0;" width="6" x="54" y="1032.8516"/><text fill="#000000" font-family="sans-serif" font-size="14" lengthAdjust="spacing" textLength="149" x="66" y="1040.0801">startingDate: LocalDate</text><rect fill="none" height="6" style="stroke:#C82930;stroke-width:1.0;" width="6" x="54" y="1050.4609"/><text fill="#000000" font-family="sans-serif" font-size="14" lengthAdjust="spacing" textLength="201" x="66" y="1057.6895">progressStatus: ProgressStatus</text><line style="stroke:#181818;stroke-width:0.5;" x1="47" x2="1173" y1="1064.7656" y2="1064.7656"/><ellipse cx="57" cy="1079.0703" fill="#84BE84" rx="3" ry="3" style="stroke:#038048;stroke-width:1.0;"/><text fill="#000000" font-family="sans-serif" font-size="14" lengthAdjust="spacing" textLength="1102" x="66" y="1083.2988">AgendaEntry(title: String, description: String, duration: int, urgencyStatus: UrgencyStatus, greenSpace: GreenSpace, startingDate: LocalDate, progressStatus: ProgressStatus)</text><ellipse cx="57" cy="1096.6797" fill="#84BE84" rx="3" ry="3" style="stroke:#038048;stroke-width:1.0;"/><text fill="#000000" font-family="sans-serif" font-size="14" lengthAdjust="spacing" textLength="303" x="66" y="1100.9082">setProgressStatus(status: ProgressStatus): void</text><ellipse cx="57" cy="1114.2891" fill="#84BE84" rx="3" ry="3" style="stroke:#038048;stroke-width:1.0;"/><text fill="#000000" font-family="sans-serif" font-size="14" lengthAdjust="spacing" textLength="242" x="66" y="1118.5176">setStartingDate(date: LocalDate): void</text><ellipse cx="57" cy="1131.8984" fill="#84BE84" rx="3" ry="3" style="stroke:#038048;stroke-width:1.0;"/><text fill="#000000" font-family="sans-serif" font-size="14" lengthAdjust="spacing" textLength="222" x="66" y="1136.127">getUrgencyStatus(): UrgencyStatus</text></g><!--class ToDoEntry--><g id="elem_ToDoEntry"><rect codeLine="55" fill="#F1F1F1" height="118.4375" id="ToDoEntry" rx="2.5" ry="2.5" style="stroke:#181818;stroke-width:0.5;" width="191" x="1209.5" y="963.5"/><ellipse cx="1266.75" cy="979.5" fill="#ADD1B2" rx="11" ry="11" style="stroke:#181818;stroke-width:1.0;"/><path d="M1269.5156,975.375 Q1269.6719,975.1563 1269.8594,975.0469 Q1270.0469,974.9375 1270.2656,974.9375 Q1270.6406,974.9375 1270.875,975.2031 Q1271.1094,975.4531 1271.1094,976.0625 L1271.1094,977.5156 Q1271.1094,978.125 1270.875,978.3906 Q1270.6406,978.6563 1270.2656,978.6563 Q1269.9219,978.6563 1269.7188,978.4531 Q1269.5156,978.2656 1269.4063,977.75 Q1269.3594,977.3906 1269.1719,977.2031 Q1268.8438,976.8281 1268.2344,976.6094 Q1267.625,976.3906 1267,976.3906 Q1266.2344,976.3906 1265.5938,976.7188 Q1264.9688,977.0469 1264.4688,977.7969 Q1263.9844,978.5469 1263.9844,979.5781 L1263.9844,980.6719 Q1263.9844,981.9063 1264.875,982.7344 Q1265.7656,983.5469 1267.3594,983.5469 Q1268.2969,983.5469 1268.9531,983.2969 Q1269.3438,983.1406 1269.7656,982.7031 Q1270.0313,982.4375 1270.1719,982.3594 Q1270.3281,982.2813 1270.5313,982.2813 Q1270.8594,982.2813 1271.1094,982.5469 Q1271.375,982.7969 1271.375,983.1406 Q1271.375,983.4844 1271.0313,983.8906 Q1270.5313,984.4688 1269.7344,984.7969 Q1268.6563,985.25 1267.3594,985.25 Q1265.8438,985.25 1264.6406,984.625 Q1263.6563,984.125 1262.9688,983.0625 Q1262.2813,981.9844 1262.2813,980.7031 L1262.2813,979.5469 Q1262.2813,978.2188 1262.8906,977.0781 Q1263.5156,975.9219 1264.6094,975.3125 Q1265.7031,974.6875 1266.9375,974.6875 Q1267.6719,974.6875 1268.3125,974.8594 Q1268.9688,975.0156 1269.5156,975.375 Z " fill="#000000"/><text fill="#000000" font-family="sans-serif" font-size="14" lengthAdjust="spacing" textLength="68" x="1287.25" y="985.2285">ToDoEntry</text><line style="stroke:#181818;stroke-width:0.5;" x1="1210.5" x2="1399.5" y1="995.5" y2="995.5"/><rect fill="none" height="6" style="stroke:#C82930;stroke-width:1.0;" width="6" x="1217.5" y="1006.8047"/><text fill="#000000" font-family="sans-serif" font-size="14" lengthAdjust="spacing" textLength="67" x="1229.5" y="1014.0332">title: String</text><rect fill="none" height="6" style="stroke:#C82930;stroke-width:1.0;" width="6" x="1217.5" y="1024.4141"/><text fill="#000000" font-family="sans-serif" font-size="14" lengthAdjust="spacing" textLength="114" x="1229.5" y="1031.6426">description: String</text><rect fill="none" height="6" style="stroke:#C82930;stroke-width:1.0;" width="6" x="1217.5" y="1042.0234"/><text fill="#000000" font-family="sans-serif" font-size="14" lengthAdjust="spacing" textLength="75" x="1229.5" y="1049.252">duration: int</text><rect fill="none" height="6" style="stroke:#C82930;stroke-width:1.0;" width="6" x="1217.5" y="1059.6328"/><text fill="#000000" font-family="sans-serif" font-size="14" lengthAdjust="spacing" textLength="165" x="1229.5" y="1066.8613">greenSpace: GreenSpace</text><line style="stroke:#181818;stroke-width:0.5;" x1="1210.5" x2="1399.5" y1="1073.9375" y2="1073.9375"/></g><!--class ToDoEntryDto--><g id="elem_ToDoEntryDto"><rect codeLine="64" fill="#F1F1F1" height="329.75" id="ToDoEntryDto" rx="2.5" ry="2.5" style="stroke:#181818;stroke-width:0.5;" width="792" x="1481" y="857.5"/><ellipse cx="1827.75" cy="873.5" fill="#ADD1B2" rx="11" ry="11" style="stroke:#181818;stroke-width:1.0;"/><path d="M1830.5156,869.375 Q1830.6719,869.1563 1830.8594,869.0469 Q1831.0469,868.9375 1831.2656,868.9375 Q1831.6406,868.9375 1831.875,869.2031 Q1832.1094,869.4531 1832.1094,870.0625 L1832.1094,871.5156 Q1832.1094,872.125 1831.875,872.3906 Q1831.6406,872.6563 1831.2656,872.6563 Q1830.9219,872.6563 1830.7188,872.4531 Q1830.5156,872.2656 1830.4063,871.75 Q1830.3594,871.3906 1830.1719,871.2031 Q1829.8438,870.8281 1829.2344,870.6094 Q1828.625,870.3906 1828,870.3906 Q1827.2344,870.3906 1826.5938,870.7188 Q1825.9688,871.0469 1825.4688,871.7969 Q1824.9844,872.5469 1824.9844,873.5781 L1824.9844,874.6719 Q1824.9844,875.9063 1825.875,876.7344 Q1826.7656,877.5469 1828.3594,877.5469 Q1829.2969,877.5469 1829.9531,877.2969 Q1830.3438,877.1406 1830.7656,876.7031 Q1831.0313,876.4375 1831.1719,876.3594 Q1831.3281,876.2813 1831.5313,876.2813 Q1831.8594,876.2813 1832.1094,876.5469 Q1832.375,876.7969 1832.375,877.1406 Q1832.375,877.4844 1832.0313,877.8906 Q1831.5313,878.4688 1830.7344,878.7969 Q1829.6563,879.25 1828.3594,879.25 Q1826.8438,879.25 1825.6406,878.625 Q1824.6563,878.125 1823.9688,877.0625 Q1823.2813,875.9844 1823.2813,874.7031 L1823.2813,873.5469 Q1823.2813,872.2188 1823.8906,871.0781 Q1824.5156,869.9219 1825.6094,869.3125 Q1826.7031,868.6875 1827.9375,868.6875 Q1828.6719,868.6875 1829.3125,868.8594 Q1829.9688,869.0156 1830.5156,869.375 Z " fill="#000000"/><text fill="#000000" font-family="sans-serif" font-size="14" lengthAdjust="spacing" textLength="90" x="1848.25" y="879.2285">ToDoEntryDto</text><line style="stroke:#181818;stroke-width:0.5;" x1="1482" x2="2272" y1="889.5" y2="889.5"/><rect fill="none" height="6" style="stroke:#C82930;stroke-width:1.0;" width="6" x="1489" y="900.8047"/><text fill="#000000" font-family="sans-serif" font-size="14" lengthAdjust="spacing" textLength="67" x="1501" y="908.0332">title: String</text><rect fill="none" height="6" style="stroke:#C82930;stroke-width:1.0;" width="6" x="1489" y="918.4141"/><text fill="#000000" font-family="sans-serif" font-size="14" lengthAdjust="spacing" textLength="114" x="1501" y="925.6426">description: String</text><rect fill="none" height="6" style="stroke:#C82930;stroke-width:1.0;" width="6" x="1489" y="936.0234"/><text fill="#000000" font-family="sans-serif" font-size="14" lengthAdjust="spacing" textLength="75" x="1501" y="943.252">duration: int</text><rect fill="none" height="6" style="stroke:#C82930;stroke-width:1.0;" width="6" x="1489" y="953.6328"/><text fill="#000000" font-family="sans-serif" font-size="14" lengthAdjust="spacing" textLength="187" x="1501" y="960.8613">greenSpace: GreenSpaceDto</text><rect fill="none" height="6" style="stroke:#C82930;stroke-width:1.0;" width="6" x="1489" y="971.2422"/><text fill="#000000" font-family="sans-serif" font-size="14" lengthAdjust="spacing" textLength="191" x="1501" y="978.4707">urgencyStatus: UrgencyStatus</text><line style="stroke:#181818;stroke-width:0.5;" x1="1482" x2="2272" y1="985.5469" y2="985.5469"/><ellipse cx="1492" cy="999.8516" fill="#84BE84" rx="3" ry="3" style="stroke:#038048;stroke-width:1.0;"/><text fill="#000000" font-family="sans-serif" font-size="14" lengthAdjust="spacing" textLength="766" x="1501" y="1004.0801">ToDoEntryDto(title: String, description: String, duration: int, urgencyStatus: UrgencyStatus, greenSpace: GreenSpaceDto)</text><ellipse cx="1492" cy="1017.4609" fill="#84BE84" rx="3" ry="3" style="stroke:#038048;stroke-width:1.0;"/><text fill="#000000" font-family="sans-serif" font-size="14" lengthAdjust="spacing" textLength="102" x="1501" y="1021.6895">getTitle(): String</text><ellipse cx="1492" cy="1035.0703" fill="#84BE84" rx="3" ry="3" style="stroke:#038048;stroke-width:1.0;"/><text fill="#000000" font-family="sans-serif" font-size="14" lengthAdjust="spacing" textLength="146" x="1501" y="1039.2988">getDescription(): String</text><ellipse cx="1492" cy="1052.6797" fill="#84BE84" rx="3" ry="3" style="stroke:#038048;stroke-width:1.0;"/><text fill="#000000" font-family="sans-serif" font-size="14" lengthAdjust="spacing" textLength="107" x="1501" y="1056.9082">getDuration(): int</text><ellipse cx="1492" cy="1070.2891" fill="#84BE84" rx="3" ry="3" style="stroke:#038048;stroke-width:1.0;"/><text fill="#000000" font-family="sans-serif" font-size="14" lengthAdjust="spacing" textLength="222" x="1501" y="1074.5176">getUrgencyStatus(): UrgencyStatus</text><ellipse cx="1492" cy="1087.8984" fill="#84BE84" rx="3" ry="3" style="stroke:#038048;stroke-width:1.0;"/><text fill="#000000" font-family="sans-serif" font-size="14" lengthAdjust="spacing" textLength="220" x="1501" y="1092.127">getGreenSpace(): GreenSpaceDto</text><ellipse cx="1492" cy="1105.5078" fill="#84BE84" rx="3" ry="3" style="stroke:#038048;stroke-width:1.0;"/><text fill="#000000" font-family="sans-serif" font-size="14" lengthAdjust="spacing" textLength="241" x="1501" y="1109.7363">setDescription(desription: String): void</text><ellipse cx="1492" cy="1123.1172" fill="#84BE84" rx="3" ry="3" style="stroke:#038048;stroke-width:1.0;"/><text fill="#000000" font-family="sans-serif" font-size="14" lengthAdjust="spacing" textLength="192" x="1501" y="1127.3457">setDuration(duration: int): void</text><ellipse cx="1492" cy="1140.7266" fill="#84BE84" rx="3" ry="3" style="stroke:#038048;stroke-width:1.0;"/><text fill="#000000" font-family="sans-serif" font-size="14" lengthAdjust="spacing" textLength="330" x="1501" y="1144.9551">setGreenSpace(greenSpace: GreenSpaceDto): void</text><ellipse cx="1492" cy="1158.3359" fill="#84BE84" rx="3" ry="3" style="stroke:#038048;stroke-width:1.0;"/><text fill="#000000" font-family="sans-serif" font-size="14" lengthAdjust="spacing" textLength="157" x="1501" y="1162.5645">setTitle(title: String): void</text><ellipse cx="1492" cy="1175.9453" fill="#84BE84" rx="3" ry="3" style="stroke:#038048;stroke-width:1.0;"/><text fill="#000000" font-family="sans-serif" font-size="14" lengthAdjust="spacing" textLength="346" x="1501" y="1180.1738">setUrgencyStatus(urgencyStatus: UrgencyStatus): void</text></g><!--class ToDoEntryMapper--><g id="elem_ToDoEntryMapper"><rect codeLine="83" fill="#F1F1F1" height="100.8281" id="ToDoEntryMapper" rx="2.5" ry="2.5" style="stroke:#181818;stroke-width:0.5;" width="416" x="1575" y="676"/><ellipse cx="1720.75" cy="692" fill="#ADD1B2" rx="11" ry="11" style="stroke:#181818;stroke-width:1.0;"/><path d="M1723.5156,687.875 Q1723.6719,687.6563 1723.8594,687.5469 Q1724.0469,687.4375 1724.2656,687.4375 Q1724.6406,687.4375 1724.875,687.7031 Q1725.1094,687.9531 1725.1094,688.5625 L1725.1094,690.0156 Q1725.1094,690.625 1724.875,690.8906 Q1724.6406,691.1563 1724.2656,691.1563 Q1723.9219,691.1563 1723.7188,690.9531 Q1723.5156,690.7656 1723.4063,690.25 Q1723.3594,689.8906 1723.1719,689.7031 Q1722.8438,689.3281 1722.2344,689.1094 Q1721.625,688.8906 1721,688.8906 Q1720.2344,688.8906 1719.5938,689.2188 Q1718.9688,689.5469 1718.4688,690.2969 Q1717.9844,691.0469 1717.9844,692.0781 L1717.9844,693.1719 Q1717.9844,694.4063 1718.875,695.2344 Q1719.7656,696.0469 1721.3594,696.0469 Q1722.2969,696.0469 1722.9531,695.7969 Q1723.3438,695.6406 1723.7656,695.2031 Q1724.0313,694.9375 1724.1719,694.8594 Q1724.3281,694.7813 1724.5313,694.7813 Q1724.8594,694.7813 1725.1094,695.0469 Q1725.375,695.2969 1725.375,695.6406 Q1725.375,695.9844 1725.0313,696.3906 Q1724.5313,696.9688 1723.7344,697.2969 Q1722.6563,697.75 1721.3594,697.75 Q1719.8438,697.75 1718.6406,697.125 Q1717.6563,696.625 1716.9688,695.5625 Q1716.2813,694.4844 1716.2813,693.2031 L1716.2813,692.0469 Q1716.2813,690.7188 1716.8906,689.5781 Q1717.5156,688.4219 1718.6094,687.8125 Q1719.7031,687.1875 1720.9375,687.1875 Q1721.6719,687.1875 1722.3125,687.3594 Q1722.9688,687.5156 1723.5156,687.875 Z " fill="#000000"/><text fill="#000000" font-family="sans-serif" font-size="14" lengthAdjust="spacing" textLength="116" x="1741.25" y="697.7285">ToDoEntryMapper</text><line style="stroke:#181818;stroke-width:0.5;" x1="1576" x2="1990" y1="708" y2="708"/><line style="stroke:#181818;stroke-width:0.5;" x1="1576" x2="1990" y1="716" y2="716"/><ellipse cx="1586" cy="730.3047" fill="#84BE84" rx="3" ry="3" style="stroke:#038048;stroke-width:1.0;"/><text fill="#000000" font-family="sans-serif" font-size="14" lengthAdjust="spacing" textLength="281" x="1595" y="734.5332">toDto(toDoEntry: ToDoEntry): ToDoEntryDto</text><ellipse cx="1586" cy="747.9141" fill="#84BE84" rx="3" ry="3" style="stroke:#038048;stroke-width:1.0;"/><text fill="#000000" font-family="sans-serif" font-size="14" lengthAdjust="spacing" textLength="329" x="1595" y="752.1426">toDomain(toDoEntryDto: ToDoEntryDto): ToDoEntry</text><ellipse cx="1586" cy="765.5234" fill="#84BE84" rx="3" ry="3" style="stroke:#038048;stroke-width:1.0;"/><text fill="#000000" font-family="sans-serif" font-size="14" lengthAdjust="spacing" textLength="390" x="1595" y="769.752">toDtoList(toDoEntries: List&lt;ToDoEntry&gt;): List&lt;ToDoEntryDto&gt;</text></g><!--class ApplicationSession--><g id="elem_ApplicationSession"><rect codeLine="92" fill="#F1F1F1" height="100.8281" id="ApplicationSession" rx="2.5" ry="2.5" style="stroke:#181818;stroke-width:0.5;" width="251" x="1485.5" y="474.5"/><ellipse cx="1547.25" cy="490.5" fill="#ADD1B2" rx="11" ry="11" style="stroke:#181818;stroke-width:1.0;"/><path d="M1550.0156,486.375 Q1550.1719,486.1563 1550.3594,486.0469 Q1550.5469,485.9375 1550.7656,485.9375 Q1551.1406,485.9375 1551.375,486.2031 Q1551.6094,486.4531 1551.6094,487.0625 L1551.6094,488.5156 Q1551.6094,489.125 1551.375,489.3906 Q1551.1406,489.6563 1550.7656,489.6563 Q1550.4219,489.6563 1550.2188,489.4531 Q1550.0156,489.2656 1549.9063,488.75 Q1549.8594,488.3906 1549.6719,488.2031 Q1549.3438,487.8281 1548.7344,487.6094 Q1548.125,487.3906 1547.5,487.3906 Q1546.7344,487.3906 1546.0938,487.7188 Q1545.4688,488.0469 1544.9688,488.7969 Q1544.4844,489.5469 1544.4844,490.5781 L1544.4844,491.6719 Q1544.4844,492.9063 1545.375,493.7344 Q1546.2656,494.5469 1547.8594,494.5469 Q1548.7969,494.5469 1549.4531,494.2969 Q1549.8438,494.1406 1550.2656,493.7031 Q1550.5313,493.4375 1550.6719,493.3594 Q1550.8281,493.2813 1551.0313,493.2813 Q1551.3594,493.2813 1551.6094,493.5469 Q1551.875,493.7969 1551.875,494.1406 Q1551.875,494.4844 1551.5313,494.8906 Q1551.0313,495.4688 1550.2344,495.7969 Q1549.1563,496.25 1547.8594,496.25 Q1546.3438,496.25 1545.1406,495.625 Q1544.1563,495.125 1543.4688,494.0625 Q1542.7813,492.9844 1542.7813,491.7031 L1542.7813,490.5469 Q1542.7813,489.2188 1543.3906,488.0781 Q1544.0156,486.9219 1545.1094,486.3125 Q1546.2031,485.6875 1547.4375,485.6875 Q1548.1719,485.6875 1548.8125,485.8594 Q1549.4688,486.0156 1550.0156,486.375 Z " fill="#000000"/><text fill="#000000" font-family="sans-serif" font-size="14" lengthAdjust="spacing" textLength="119" x="1567.75" y="496.2285">ApplicationSession</text><line style="stroke:#181818;stroke-width:0.5;" x1="1486.5" x2="1735.5" y1="506.5" y2="506.5"/><ellipse cx="1496.5" cy="520.8047" fill="none" rx="3" ry="3" style="stroke:#038048;stroke-width:1.0;"/><text fill="#000000" font-family="sans-serif" font-size="14" lengthAdjust="spacing" textLength="204" x="1505.5" y="525.0332">getInstance : ApplicationSession</text><ellipse cx="1496.5" cy="538.4141" fill="none" rx="3" ry="3" style="stroke:#038048;stroke-width:1.0;"/><text fill="#000000" font-family="sans-serif" font-size="14" lengthAdjust="spacing" textLength="225" x="1505.5" y="542.6426">getSortAlgorithmClassName : String</text><ellipse cx="1496.5" cy="556.0234" fill="none" rx="3" ry="3" style="stroke:#038048;stroke-width:1.0;"/><text fill="#000000" font-family="sans-serif" font-size="14" lengthAdjust="spacing" textLength="209" x="1505.5" y="560.252">getCurrentSession : UserSession</text><line style="stroke:#181818;stroke-width:0.5;" x1="1486.5" x2="1735.5" y1="567.3281" y2="567.3281"/></g><!--link AddAgendaEntryUI to AddAgendaEntryController--><g id="link_AddAgendaEntryUI_AddAgendaEntryController"><path codeLine="99" d="M1432,90.24 C1432,110.55 1432,141.14 1432,169.56 " fill="none" id="AddAgendaEntryUI-to-AddAgendaEntryController" style="stroke:#181818;stroke-width:1.0;stroke-dasharray:7.0,7.0;"/><polygon fill="#181818" points="1432,174.83,1436,165.83,1432,169.83,1428,165.83,1432,174.83" style="stroke:#181818;stroke-width:1.0;"/></g><!--link AddAgendaEntryController to Repositories--><g id="link_AddAgendaEntryController_Repositories"><path codeLine="100" d="M1368.53,311.07 C1327.87,354.03 1275.18,409.7 1233.87,453.34 " fill="none" id="AddAgendaEntryController-to-Repositories" style="stroke:#181818;stroke-width:1.0;stroke-dasharray:7.0,7.0;"/><polygon fill="#181818" points="1230.41,457,1239.5064,453.2244,1233.8515,453.3729,1233.703,447.718,1230.41,457" style="stroke:#181818;stroke-width:1.0;"/></g><!--link Repositories to Repositories--><g id="link_Repositories_Repositories"><path codeLine="101" d="M1300.09,508.16 C1320.85,510.68 1335,516.29 1335,525 C1335,532.96 1323.18,538.33 1305.29,541.12 " fill="none" id="Repositories-to-Repositories" style="stroke:#181818;stroke-width:1.0;"/><polygon fill="#181818" points="1300.09,541.84,1309.5532,544.5691,1305.0428,541.1549,1308.457,536.6445,1300.09,541.84" style="stroke:#181818;stroke-width:1.0;"/><text fill="#000000" font-family="sans-serif" font-size="13" lengthAdjust="spacing" textLength="49" x="1341" y="530.4951">instance</text></g><!--link AddAgendaEntryController to EntryRepository--><g id="link_AddAgendaEntryController_EntryRepository"><path codeLine="102" d="M1442.77,311.26 C1451.3,387.58 1453.78,512.69 1397,599.5 C1382.7,621.37 1363.22,639.81 1341.68,655.26 " fill="none" id="AddAgendaEntryController-to-EntryRepository" style="stroke:#181818;stroke-width:1.0;stroke-dasharray:7.0,7.0;"/><polygon fill="#181818" points="1337.34,658.31,1347.0034,656.4076,1341.4308,655.435,1342.4034,649.8624,1337.34,658.31" style="stroke:#181818;stroke-width:1.0;"/></g><!--link Repositories to EntryRepository--><g id="link_Repositories_EntryRepository"><path codeLine="103" d="M1168.69,593.26 C1169.17,612.39 1169.69,633.31 1170.18,652.75 " fill="none" id="Repositories-to-EntryRepository" style="stroke:#181818;stroke-width:1.0;"/><polygon fill="#181818" points="1170.31,658.19,1174.1033,649.1009,1170.1957,653.1913,1166.1054,649.2838,1170.31,658.19" style="stroke:#181818;stroke-width:1.0;"/></g><!--link EntryRepository to AgendaEntry--><g id="link_EntryRepository_AgendaEntry"><path codeLine="104" d="M1043.77,794.58 C984.57,825.55 912.37,863.32 844,899.09 " fill="none" id="EntryRepository-to-AgendaEntry" style="stroke:#181818;stroke-width:1.0;"/><polygon fill="#181818" points="839.5,901.44,849.3299,900.8297,843.9344,899.1301,845.6341,893.7346,839.5,901.44" style="stroke:#181818;stroke-width:1.0;"/><text fill="#000000" font-family="sans-serif" font-size="13" lengthAdjust="spacing" textLength="5" x="849.0422" y="890.688">*</text></g><!--link AgendaEntry to ToDoEntry--><g id="link_AgendaEntry_ToDoEntry"><path codeLine="105" d="M1174.01,1022.5 C1184.03,1022.5 1194.05,1022.5 1204.07,1022.5 " fill="none" id="AgendaEntry-to-ToDoEntry" style="stroke:#181818;stroke-width:1.0;"/><polygon fill="#181818" points="1209.32,1022.5,1200.3315,1018.4743,1204.32,1022.4857,1200.3086,1026.4743,1209.32,1022.5" style="stroke:#181818;stroke-width:1.0;"/></g><!--link ToDoEntryMapper to ToDoEntryDto--><g id="link_ToDoEntryMapper_ToDoEntryDto"><path codeLine="106" d="M1798.84,777.04 C1805.69,798.47 1814.15,824.92 1822.94,852.43 " fill="none" id="ToDoEntryMapper-to-ToDoEntryDto" style="stroke:#181818;stroke-width:1.0;stroke-dasharray:7.0,7.0;"/><polygon fill="#181818" points="1824.47,857.21,1825.5601,847.4217,1822.9575,852.4442,1817.9349,849.8416,1824.47,857.21" style="stroke:#181818;stroke-width:1.0;"/></g><!--link ToDoEntryMapper to ToDoEntry--><g id="link_ToDoEntryMapper_ToDoEntry"><path codeLine="107" d="M1625.74,777.14 C1572.32,797.73 1513.85,824.59 1465,857.5 C1423.47,885.48 1384.1,925.6 1354.8,959.15 " fill="none" id="ToDoEntryMapper-to-ToDoEntry" style="stroke:#181818;stroke-width:1.0;stroke-dasharray:7.0,7.0;"/><polygon fill="#181818" points="1351.28,963.21,1360.1911,959.0157,1354.5492,959.4268,1354.1381,953.785,1351.28,963.21" style="stroke:#181818;stroke-width:1.0;"/></g><!--link EntryRepository to ToDoEntry--><g id="link_EntryRepository_ToDoEntry"><path codeLine="108" d="M1202.35,794.58 C1224.63,843.83 1254.69,910.29 1276.52,958.54 " fill="none" id="EntryRepository-to-ToDoEntry" style="stroke:#181818;stroke-width:1.0;"/><polygon fill="#181818" points="1278.61,963.15,1278.5529,953.3013,1276.5528,958.5928,1271.2613,956.5928,1278.61,963.15" style="stroke:#181818;stroke-width:1.0;"/></g><!--link AddAgendaEntryController to ApplicationSession--><g id="link_AddAgendaEntryController_ApplicationSession"><path codeLine="109" d="M1474.87,311.07 C1505.94,359.65 1547.39,424.5 1576.36,469.82 " fill="none" id="AddAgendaEntryController-to-ApplicationSession" style="stroke:#181818;stroke-width:1.0;stroke-dasharray:7.0,7.0;"/><polygon fill="#181818" points="1579.13,474.14,1577.6664,464.4005,1576.4428,469.9235,1570.9199,468.6999,1579.13,474.14" style="stroke:#181818;stroke-width:1.0;"/><text fill="#000000" font-family="sans-serif" font-size="13" lengthAdjust="spacing" textLength="107" x="1506" y="357.4951">getCurrentSession</text></g><!--SRC=[lLPDQ-Cm4BtxLuXUDjcc_G5c2MGJKm99NE8KjaTXgwweOnb9sIKi_Uyh-KCUIRPBzz0SGfHvevbvUYEDUADbXJa-8_6AC_Q7bZbwmOKWWJ2MWfO4oMj5KCMAgru5tmho8f5aYDFyLQACSf9AoigWmkaRpWbwsgA_0LAVjC12e5MMhN9IPZWg9RyQutlm7XYNTNmu7UFTBZfEkAwP-cP5GNWBqfyxn4d519MCKo92T0Gh029w0sExXYYo_p3Gsz6Wipa0vKIUs8RLa5akpY5w4eGdH0Z5n3n4Eoha3uFOIBO4pjYAW6QuNoXaY5RMUkxJjOdtg-sXPQ7xynWznids51-V0JqDZv0KO6oeeQMGk4p927UVvA-1mvq0RuQxRHjpDf-8MYETEDfXBBGYo2xR0NgLo-vyz6cvPxPqmE2G01mSrT99tilSB-u44_XvVKZsdzJIa9wWd2mjgQr-Cve1lbhM0aj7-tWJxJm9GS5wF59PAFaaagihnB5bHAISLlg264DSE6xCj9IExS9LsFIQI2mlghcVuDA1vfoGCb55g4mUp6y7f5J7fKfXWwM2xLYA2_tJGLMSgTs4wC8-Mck7VCYyHSHYgFQ5NUvYiiB5I56BiJeM7wJkIb0GQGDcOjZFKOxnJa0UiynEPjX9gTwgKJVqyB62TcurQ7hWwmJuaQhUpULi-cTpYhtkWTrhjyz4yX_cFf7wMEOgVl1V7NPhrV1LIZVFdtLhwjXQDpuZjNtJ9pE5QhFJ48UypwYqW_SvQ-meuNNNm0GLSmvn0ttJU7K9MxoEeK4-uzIE-3O4MqSy1hLPcZfYRuU9_jxZghAcl2QUUg-rz3fKs3lCGqkUlXyxOrhshlMO1JtW1aDHzHjitEj1qvaMXjzfwwAe2-vkYUZNAJeULhksnlQHhQg2flNXji-_JG6w1RCJ2WVmFZnXNAwAN8rNylMyrc4E-AoT1-x2sc5zuLoDU-s6o9f60dFfgMAymVx-VZawFGUZixpsicP0QrgzkxEjePbNftTqXqHlKnVW3eiQS_Fz1hxl0Ho2bBbNZAjSdO4bo4d0OEpUEbcdBm5rOjufwXdl7m00]--></g></svg>