<?xml version="1.0" encoding="UTF-8" standalone="no"?><svg xmlns="http://www.w3.org/2000/svg" xmlns:xlink="http://www.w3.org/1999/xlink" contentStyleType="text/css" height="1438px" preserveAspectRatio="none" style="width:2313px;height:1438px;background:#FFFFFF;" version="1.1" viewBox="0 0 2313 1438" width="2313px" zoomAndPan="magnify"><defs/><g><rect fill="#FFFFFF" height="1254.3516" style="stroke:#181818;stroke-width:1.0;" width="10" x="18.5" y="92.6094"/><rect fill="#FFFFFF" height="620.8047" style="stroke:#181818;stroke-width:1.0;" width="10" x="403.5" y="114.9609"/><rect fill="#FFFFFF" height="30.3516" style="stroke:#181818;stroke-width:1.0;" width="10" x="403.5" y="766.1172"/><rect fill="#FFFFFF" height="30.3516" style="stroke:#181818;stroke-width:1.0;" width="10" x="403.5" y="826.8203"/><rect fill="#FFFFFF" height="30.3516" style="stroke:#181818;stroke-width:1.0;" width="10" x="403.5" y="887.5234"/><rect fill="#FFFFFF" height="30.3516" style="stroke:#181818;stroke-width:1.0;" width="10" x="403.5" y="948.2266"/><rect fill="#FFFFFF" height="30.3516" style="stroke:#181818;stroke-width:1.0;" width="10" x="403.5" y="1307.6094"/><rect fill="#FFFFFF" height="123.6641" style="stroke:#181818;stroke-width:1.0;" width="10" x="806.5" y="155.3125"/><rect fill="#FFFFFF" height="151.7578" style="stroke:#181818;stroke-width:1.0;" width="10" x="806.5" y="309.3281"/><rect fill="#FFFFFF" height="213.9766" style="stroke:#181818;stroke-width:1.0;" width="10" x="806.5" y="491.4375"/><rect fill="#FFFFFF" height="30.3516" style="stroke:#181818;stroke-width:1.0;" width="10" x="806.5" y="978.5781"/><rect fill="#FFFFFF" height="30.3516" style="stroke:#181818;stroke-width:1.0;" width="10" x="806.5" y="1277.2578"/><rect fill="#FFFFFF" height="30.3516" style="stroke:#181818;stroke-width:1.0;" width="10" x="958.5" y="187.9219"/><rect fill="#FFFFFF" height="30.3516" style="stroke:#181818;stroke-width:1.0;" width="10" x="1065.5" y="248.625"/><rect fill="#FFFFFF" height="30.3516" style="stroke:#181818;stroke-width:1.0;" width="10" x="1209.5" y="461.0859"/><rect fill="#FFFFFF" height="268.3281" style="stroke:#181818;stroke-width:1.0;" width="10" x="1209.5" y="1008.9297"/><rect fill="#FFFFFF" height="120.9219" style="stroke:#181818;stroke-width:1.0;" width="10" x="1536.5" y="1039.2813"/><rect fill="#FFFFFF" height="50.2188" style="stroke:#181818;stroke-width:1.0;" width="10" x="1670.5" y="1079.6328"/><rect fill="#FFFFFF" height="153.2734" style="stroke:#181818;stroke-width:1.0;" width="10" x="1797.5" y="521.7891"/><rect fill="#FFFFFF" height="50.2188" style="stroke:#181818;stroke-width:1.0;" width="10" x="1954.5" y="587.4922"/><rect fill="#FFFFFF" height="30.3516" style="stroke:#181818;stroke-width:1.0;" width="10" x="2087" y="339.6797"/><rect fill="#FFFFFF" height="30.3516" style="stroke:#181818;stroke-width:1.0;" width="10" x="2234" y="400.3828"/><rect fill="none" height="108.9219" style="stroke:#000000;stroke-width:1.5;" width="298" x="1725.5" y="536.7891"/><line style="stroke:#181818;stroke-width:0.5;stroke-dasharray:5.0,5.0;" x1="23" x2="23" y1="82.6094" y2="1355.9609"/><line style="stroke:#181818;stroke-width:0.5;stroke-dasharray:5.0,5.0;" x1="408" x2="408" y1="82.6094" y2="1355.9609"/><line style="stroke:#181818;stroke-width:0.5;stroke-dasharray:5.0,5.0;" x1="811" x2="811" y1="154.2656" y2="1355.9609"/><line style="stroke:#181818;stroke-width:0.5;stroke-dasharray:5.0,5.0;" x1="963" x2="963" y1="82.6094" y2="1355.9609"/><line style="stroke:#181818;stroke-width:0.5;stroke-dasharray:5.0,5.0;" x1="1070" x2="1070" y1="82.6094" y2="1355.9609"/><line style="stroke:#181818;stroke-width:0.5;stroke-dasharray:5.0,5.0;" x1="1214" x2="1214" y1="82.6094" y2="1355.9609"/><line style="stroke:#181818;stroke-width:0.5;stroke-dasharray:5.0,5.0;" x1="1541.5" x2="1541.5" y1="82.6094" y2="1355.9609"/><line style="stroke:#181818;stroke-width:0.5;stroke-dasharray:5.0,5.0;" x1="1675.5" x2="1675.5" y1="1087.3906" y2="1355.9609"/><line style="stroke:#181818;stroke-width:0.5;stroke-dasharray:5.0,5.0;" x1="1802.5" x2="1802.5" y1="82.6094" y2="1355.9609"/><line style="stroke:#181818;stroke-width:0.5;stroke-dasharray:5.0,5.0;" x1="1959.5" x2="1959.5" y1="595.25" y2="1355.9609"/><line style="stroke:#181818;stroke-width:0.5;stroke-dasharray:5.0,5.0;" x1="2091.5" x2="2091.5" y1="82.6094" y2="1355.9609"/><line style="stroke:#181818;stroke-width:0.5;stroke-dasharray:5.0,5.0;" x1="2238.5" x2="2238.5" y1="82.6094" y2="1355.9609"/><text fill="#000000" font-family="sans-serif" font-size="14" lengthAdjust="spacing" textLength="31" x="5" y="79.5332">GSM</text><ellipse cx="23.5" cy="13.5" fill="#E3E3E3" rx="8" ry="8" style="stroke:#181818;stroke-width:0.5;"/><path d="M23.5,21.5 L23.5,48.5 M10.5,29.5 L36.5,29.5 M23.5,48.5 L10.5,63.5 M23.5,48.5 L36.5,63.5 " fill="none" style="stroke:#181818;stroke-width:0.5;"/><text fill="#000000" font-family="sans-serif" font-size="14" lengthAdjust="spacing" textLength="31" x="5" y="1369.4941">GSM</text><ellipse cx="23.5" cy="1381.0703" fill="#E3E3E3" rx="8" ry="8" style="stroke:#181818;stroke-width:0.5;"/><path d="M23.5,1389.0703 L23.5,1416.0703 M10.5,1397.0703 L36.5,1397.0703 M23.5,1416.0703 L10.5,1431.0703 M23.5,1416.0703 L36.5,1431.0703 " fill="none" style="stroke:#181818;stroke-width:0.5;"/><rect fill="#E3E3E3" height="31.6094" rx="2.5" ry="2.5" style="stroke:#181818;stroke-width:0.5;" width="137" x="340" y="50"/><text fill="#000000" font-family="sans-serif" font-size="14" lengthAdjust="spacing" textLength="123" x="347" y="71.5332">:AddAgendaEntryUI</text><rect fill="#E3E3E3" height="31.6094" rx="2.5" ry="2.5" style="stroke:#181818;stroke-width:0.5;" width="137" x="340" y="1354.9609"/><text fill="#000000" font-family="sans-serif" font-size="14" lengthAdjust="spacing" textLength="123" x="347" y="1376.4941">:AddAgendaEntryUI</text><rect fill="#E3E3E3" height="31.6094" rx="2.5" ry="2.5" style="stroke:#181818;stroke-width:0.5;" width="187" x="718" y="1354.9609"/><text fill="#000000" font-family="sans-serif" font-size="14" lengthAdjust="spacing" textLength="173" x="725" y="1376.4941">:AddAgendaEntryController</text><rect fill="#E3E3E3" height="31.6094" rx="2.5" ry="2.5" style="stroke:#181818;stroke-width:0.5;" width="97" x="915" y="50"/><text fill="#000000" font-family="sans-serif" font-size="14" lengthAdjust="spacing" textLength="83" x="922" y="71.5332">:Repositories</text><rect fill="#E3E3E3" height="31.6094" rx="2.5" ry="2.5" style="stroke:#181818;stroke-width:0.5;" width="97" x="915" y="1354.9609"/><text fill="#000000" font-family="sans-serif" font-size="14" lengthAdjust="spacing" textLength="83" x="922" y="1376.4941">:Repositories</text><rect fill="#E3E3E3" height="49.2188" rx="2.5" ry="2.5" style="stroke:#181818;stroke-width:0.5;" width="97" x="1022" y="32.3906"/><text fill="#000000" font-family="sans-serif" font-size="14" lengthAdjust="spacing" textLength="74" x="1033.5" y="53.9238">repositories</text><text fill="#000000" font-family="sans-serif" font-size="14" lengthAdjust="spacing" textLength="83" x="1029" y="71.5332">:Repositories</text><rect fill="#E3E3E3" height="49.2188" rx="2.5" ry="2.5" style="stroke:#181818;stroke-width:0.5;" width="97" x="1022" y="1354.9609"/><text fill="#000000" font-family="sans-serif" font-size="14" lengthAdjust="spacing" textLength="74" x="1033.5" y="1376.4941">repositories</text><text fill="#000000" font-family="sans-serif" font-size="14" lengthAdjust="spacing" textLength="83" x="1029" y="1394.1035">:Repositories</text><rect fill="#E3E3E3" height="49.2188" rx="2.5" ry="2.5" style="stroke:#181818;stroke-width:0.5;" width="119" x="1155" y="32.3906"/><text fill="#000000" font-family="sans-serif" font-size="14" lengthAdjust="spacing" textLength="100" x="1164.5" y="53.9238">entryRepository</text><text fill="#000000" font-family="sans-serif" font-size="14" lengthAdjust="spacing" textLength="105" x="1162" y="71.5332">:EntryRepository</text><rect fill="#E3E3E3" height="49.2188" rx="2.5" ry="2.5" style="stroke:#181818;stroke-width:0.5;" width="119" x="1155" y="1354.9609"/><text fill="#000000" font-family="sans-serif" font-size="14" lengthAdjust="spacing" textLength="100" x="1164.5" y="1376.4941">entryRepository</text><text fill="#000000" font-family="sans-serif" font-size="14" lengthAdjust="spacing" textLength="105" x="1162" y="1394.1035">:EntryRepository</text><rect fill="#E3E3E3" height="31.6094" rx="2.5" ry="2.5" style="stroke:#181818;stroke-width:0.5;" width="148" x="1467.5" y="50"/><text fill="#000000" font-family="sans-serif" font-size="14" lengthAdjust="spacing" textLength="134" x="1474.5" y="71.5332">:AgendaEntryMapper</text><rect fill="#E3E3E3" height="31.6094" rx="2.5" ry="2.5" style="stroke:#181818;stroke-width:0.5;" width="148" x="1467.5" y="1354.9609"/><text fill="#000000" font-family="sans-serif" font-size="14" lengthAdjust="spacing" textLength="134" x="1474.5" y="1376.4941">:AgendaEntryMapper</text><rect fill="#E3E3E3" height="49.2188" rx="2.5" ry="2.5" style="stroke:#181818;stroke-width:0.5;" width="100" x="1625.5" y="1354.9609"/><text fill="#000000" font-family="sans-serif" font-size="14" lengthAdjust="spacing" textLength="81" x="1635" y="1376.4941">agendaEntry</text><text fill="#000000" font-family="sans-serif" font-size="14" lengthAdjust="spacing" textLength="86" x="1632.5" y="1394.1035">:AgendaEntry</text><rect fill="#E3E3E3" height="31.6094" rx="2.5" ry="2.5" style="stroke:#181818;stroke-width:0.5;" width="134" x="1735.5" y="50"/><text fill="#000000" font-family="sans-serif" font-size="14" lengthAdjust="spacing" textLength="120" x="1742.5" y="71.5332">:ToDoEntryMapper</text><rect fill="#E3E3E3" height="31.6094" rx="2.5" ry="2.5" style="stroke:#181818;stroke-width:0.5;" width="134" x="1735.5" y="1354.9609"/><text fill="#000000" font-family="sans-serif" font-size="14" lengthAdjust="spacing" textLength="120" x="1742.5" y="1376.4941">:ToDoEntryMapper</text><rect fill="#E3E3E3" height="49.2188" rx="2.5" ry="2.5" style="stroke:#181818;stroke-width:0.5;" width="108" x="1905.5" y="1354.9609"/><text fill="#000000" font-family="sans-serif" font-size="14" lengthAdjust="spacing" textLength="85" x="1917" y="1376.4941">toDoEntryDto</text><text fill="#000000" font-family="sans-serif" font-size="14" lengthAdjust="spacing" textLength="94" x="1912.5" y="1394.1035">:ToDoEntryDto</text><rect fill="#E3E3E3" height="31.6094" rx="2.5" ry="2.5" style="stroke:#181818;stroke-width:0.5;" width="137" x="2023.5" y="50"/><text fill="#000000" font-family="sans-serif" font-size="14" lengthAdjust="spacing" textLength="123" x="2030.5" y="71.5332">:ApplicationSession</text><rect fill="#E3E3E3" height="31.6094" rx="2.5" ry="2.5" style="stroke:#181818;stroke-width:0.5;" width="137" x="2023.5" y="1354.9609"/><text fill="#000000" font-family="sans-serif" font-size="14" lengthAdjust="spacing" textLength="123" x="2030.5" y="1376.4941">:ApplicationSession</text><rect fill="#E3E3E3" height="49.2188" rx="2.5" ry="2.5" style="stroke:#181818;stroke-width:0.5;" width="137" x="2170.5" y="32.3906"/><text fill="#000000" font-family="sans-serif" font-size="14" lengthAdjust="spacing" textLength="118" x="2180" y="53.9238">applicationSession</text><text fill="#000000" font-family="sans-serif" font-size="14" lengthAdjust="spacing" textLength="123" x="2177.5" y="71.5332">:ApplicationSession</text><rect fill="#E3E3E3" height="49.2188" rx="2.5" ry="2.5" style="stroke:#181818;stroke-width:0.5;" width="137" x="2170.5" y="1354.9609"/><text fill="#000000" font-family="sans-serif" font-size="14" lengthAdjust="spacing" textLength="118" x="2180" y="1376.4941">applicationSession</text><text fill="#000000" font-family="sans-serif" font-size="14" lengthAdjust="spacing" textLength="123" x="2177.5" y="1394.1035">:ApplicationSession</text><rect fill="#FFFFFF" height="1254.3516" style="stroke:#181818;stroke-width:1.0;" width="10" x="18.5" y="92.6094"/><rect fill="#FFFFFF" height="620.8047" style="stroke:#181818;stroke-width:1.0;" width="10" x="403.5" y="114.9609"/><rect fill="#FFFFFF" height="30.3516" style="stroke:#181818;stroke-width:1.0;" width="10" x="403.5" y="766.1172"/><rect fill="#FFFFFF" height="30.3516" style="stroke:#181818;stroke-width:1.0;" width="10" x="403.5" y="826.8203"/><rect fill="#FFFFFF" height="30.3516" style="stroke:#181818;stroke-width:1.0;" width="10" x="403.5" y="887.5234"/><rect fill="#FFFFFF" height="30.3516" style="stroke:#181818;stroke-width:1.0;" width="10" x="403.5" y="948.2266"/><rect fill="#FFFFFF" height="30.3516" style="stroke:#181818;stroke-width:1.0;" width="10" x="403.5" y="1307.6094"/><rect fill="#FFFFFF" height="123.6641" style="stroke:#181818;stroke-width:1.0;" width="10" x="806.5" y="155.3125"/><rect fill="#FFFFFF" height="151.7578" style="stroke:#181818;stroke-width:1.0;" width="10" x="806.5" y="309.3281"/><rect fill="#FFFFFF" height="213.9766" style="stroke:#181818;stroke-width:1.0;" width="10" x="806.5" y="491.4375"/><rect fill="#FFFFFF" height="30.3516" style="stroke:#181818;stroke-width:1.0;" width="10" x="806.5" y="978.5781"/><rect fill="#FFFFFF" height="30.3516" style="stroke:#181818;stroke-width:1.0;" width="10" x="806.5" y="1277.2578"/><rect fill="#FFFFFF" height="30.3516" style="stroke:#181818;stroke-width:1.0;" width="10" x="958.5" y="187.9219"/><rect fill="#FFFFFF" height="30.3516" style="stroke:#181818;stroke-width:1.0;" width="10" x="1065.5" y="248.625"/><rect fill="#FFFFFF" height="30.3516" style="stroke:#181818;stroke-width:1.0;" width="10" x="1209.5" y="461.0859"/><rect fill="#FFFFFF" height="268.3281" style="stroke:#181818;stroke-width:1.0;" width="10" x="1209.5" y="1008.9297"/><rect fill="#FFFFFF" height="120.9219" style="stroke:#181818;stroke-width:1.0;" width="10" x="1536.5" y="1039.2813"/><rect fill="#FFFFFF" height="50.2188" style="stroke:#181818;stroke-width:1.0;" width="10" x="1670.5" y="1079.6328"/><rect fill="#FFFFFF" height="153.2734" style="stroke:#181818;stroke-width:1.0;" width="10" x="1797.5" y="521.7891"/><rect fill="#FFFFFF" height="50.2188" style="stroke:#181818;stroke-width:1.0;" width="10" x="1954.5" y="587.4922"/><rect fill="#FFFFFF" height="30.3516" style="stroke:#181818;stroke-width:1.0;" width="10" x="2087" y="339.6797"/><rect fill="#FFFFFF" height="30.3516" style="stroke:#181818;stroke-width:1.0;" width="10" x="2234" y="400.3828"/><polygon fill="#181818" points="391.5,110.9609,401.5,114.9609,391.5,118.9609,395.5,114.9609" style="stroke:#181818;stroke-width:1.0;"/><line style="stroke:#181818;stroke-width:1.0;" x1="28.5" x2="397.5" y1="114.9609" y2="114.9609"/><text fill="#000000" font-family="sans-serif" font-size="13" font-weight="bold" lengthAdjust="spacing" textLength="7" x="35.5" y="110.1045">1</text><text fill="#000000" font-family="sans-serif" font-size="13" lengthAdjust="spacing" textLength="245" x="46.5" y="110.1045">requests to add a new entry in the Agenda</text><polygon fill="#181818" points="706,141.3125,716,145.3125,706,149.3125,710,145.3125" style="stroke:#181818;stroke-width:1.0;"/><line style="stroke:#181818;stroke-width:1.0;" x1="413.5" x2="712" y1="145.3125" y2="145.3125"/><text fill="#000000" font-family="sans-serif" font-size="13" font-weight="bold" lengthAdjust="spacing" textLength="7" x="420.5" y="140.4561">2</text><text fill="#000000" font-family="sans-serif" font-size="13" lengthAdjust="spacing" textLength="36" x="431.5" y="140.4561">create</text><rect fill="#E3E3E3" height="31.6094" rx="2.5" ry="2.5" style="stroke:#181818;stroke-width:0.5;" width="187" x="718" y="122.9609"/><text fill="#000000" font-family="sans-serif" font-size="14" lengthAdjust="spacing" textLength="173" x="725" y="144.4941">:AddAgendaEntryController</text><polygon fill="#181818" points="946.5,183.9219,956.5,187.9219,946.5,191.9219,950.5,187.9219" style="stroke:#181818;stroke-width:1.0;"/><line style="stroke:#181818;stroke-width:1.0;" x1="816.5" x2="952.5" y1="187.9219" y2="187.9219"/><text fill="#000000" font-family="sans-serif" font-size="13" font-weight="bold" lengthAdjust="spacing" textLength="7" x="823.5" y="183.0654">3</text><text fill="#000000" font-family="sans-serif" font-size="13" lengthAdjust="spacing" textLength="75" x="834.5" y="183.0654">getInstance()</text><polygon fill="#181818" points="827.5,214.2734,817.5,218.2734,827.5,222.2734,823.5,218.2734" style="stroke:#181818;stroke-width:1.0;"/><line style="stroke:#181818;stroke-width:1.0;stroke-dasharray:2.0,2.0;" x1="821.5" x2="962.5" y1="218.2734" y2="218.2734"/><text fill="#000000" font-family="sans-serif" font-size="13" font-weight="bold" lengthAdjust="spacing" textLength="7" x="833.5" y="213.417">4</text><text fill="#000000" font-family="sans-serif" font-size="13" lengthAdjust="spacing" textLength="67" x="844.5" y="213.417">repositories</text><polygon fill="#181818" points="1053.5,244.625,1063.5,248.625,1053.5,252.625,1057.5,248.625" style="stroke:#181818;stroke-width:1.0;"/><line style="stroke:#181818;stroke-width:1.0;" x1="816.5" x2="1059.5" y1="248.625" y2="248.625"/><text fill="#000000" font-family="sans-serif" font-size="13" font-weight="bold" lengthAdjust="spacing" textLength="7" x="823.5" y="243.7686">5</text><text fill="#000000" font-family="sans-serif" font-size="13" lengthAdjust="spacing" textLength="119" x="834.5" y="243.7686">getEntryRepository()</text><polygon fill="#181818" points="822.5,274.9766,812.5,278.9766,822.5,282.9766,818.5,278.9766" style="stroke:#181818;stroke-width:1.0;"/><line style="stroke:#181818;stroke-width:1.0;stroke-dasharray:2.0,2.0;" x1="816.5" x2="1069.5" y1="278.9766" y2="278.9766"/><text fill="#000000" font-family="sans-serif" font-size="13" font-weight="bold" lengthAdjust="spacing" textLength="7" x="828.5" y="274.1201">6</text><text fill="#000000" font-family="sans-serif" font-size="13" lengthAdjust="spacing" textLength="91" x="839.5" y="274.1201">entryRepository</text><polygon fill="#181818" points="794.5,305.3281,804.5,309.3281,794.5,313.3281,798.5,309.3281" style="stroke:#181818;stroke-width:1.0;"/><line style="stroke:#181818;stroke-width:1.0;" x1="413.5" x2="800.5" y1="309.3281" y2="309.3281"/><text fill="#000000" font-family="sans-serif" font-size="13" font-weight="bold" lengthAdjust="spacing" textLength="7" x="420.5" y="304.4717">7</text><text fill="#000000" font-family="sans-serif" font-size="13" lengthAdjust="spacing" textLength="138" x="431.5" y="304.4717">getToDoEntryList(GSM)</text><polygon fill="#181818" points="2075,335.6797,2085,339.6797,2075,343.6797,2079,339.6797" style="stroke:#181818;stroke-width:1.0;"/><line style="stroke:#181818;stroke-width:1.0;" x1="816.5" x2="2081" y1="339.6797" y2="339.6797"/><text fill="#000000" font-family="sans-serif" font-size="13" font-weight="bold" lengthAdjust="spacing" textLength="7" x="823.5" y="334.8232">8</text><text fill="#000000" font-family="sans-serif" font-size="13" lengthAdjust="spacing" textLength="75" x="834.5" y="334.8232">getInstance()</text><polygon fill="#181818" points="827.5,366.0313,817.5,370.0313,827.5,374.0313,823.5,370.0313" style="stroke:#181818;stroke-width:1.0;"/><line style="stroke:#181818;stroke-width:1.0;stroke-dasharray:2.0,2.0;" x1="821.5" x2="2091" y1="370.0313" y2="370.0313"/><text fill="#000000" font-family="sans-serif" font-size="13" font-weight="bold" lengthAdjust="spacing" textLength="7" x="833.5" y="365.1748">9</text><text fill="#000000" font-family="sans-serif" font-size="13" lengthAdjust="spacing" textLength="109" x="844.5" y="365.1748">applicationSession</text><polygon fill="#181818" points="2222,396.3828,2232,400.3828,2222,404.3828,2226,400.3828" style="stroke:#181818;stroke-width:1.0;"/><line style="stroke:#181818;stroke-width:1.0;" x1="816.5" x2="2228" y1="400.3828" y2="400.3828"/><text fill="#000000" font-family="sans-serif" font-size="13" font-weight="bold" lengthAdjust="spacing" textLength="14" x="823.5" y="395.5264">10</text><text fill="#000000" font-family="sans-serif" font-size="13" lengthAdjust="spacing" textLength="115" x="841.5" y="395.5264">getCurrentSession()</text><polygon fill="#181818" points="827.5,426.7344,817.5,430.7344,827.5,434.7344,823.5,430.7344" style="stroke:#181818;stroke-width:1.0;"/><line style="stroke:#181818;stroke-width:1.0;stroke-dasharray:2.0,2.0;" x1="821.5" x2="2238" y1="430.7344" y2="430.7344"/><text fill="#000000" font-family="sans-serif" font-size="13" font-weight="bold" lengthAdjust="spacing" textLength="14" x="833.5" y="425.8779">11</text><text fill="#000000" font-family="sans-serif" font-size="13" lengthAdjust="spacing" textLength="65" x="851.5" y="425.8779">loggedUser</text><polygon fill="#181818" points="1197.5,457.0859,1207.5,461.0859,1197.5,465.0859,1201.5,461.0859" style="stroke:#181818;stroke-width:1.0;"/><line style="stroke:#181818;stroke-width:1.0;" x1="811.5" x2="1203.5" y1="461.0859" y2="461.0859"/><text fill="#000000" font-family="sans-serif" font-size="13" font-weight="bold" lengthAdjust="spacing" textLength="14" x="818.5" y="456.2295">12</text><text fill="#000000" font-family="sans-serif" font-size="13" lengthAdjust="spacing" textLength="173" x="836.5" y="456.2295">getToDoEntryList(loggedUser)</text><polygon fill="#181818" points="827.5,487.4375,817.5,491.4375,827.5,495.4375,823.5,491.4375" style="stroke:#181818;stroke-width:1.0;"/><line style="stroke:#181818;stroke-width:1.0;stroke-dasharray:2.0,2.0;" x1="821.5" x2="1213.5" y1="491.4375" y2="491.4375"/><text fill="#000000" font-family="sans-serif" font-size="13" font-weight="bold" lengthAdjust="spacing" textLength="14" x="833.5" y="486.5811">13</text><text fill="#000000" font-family="sans-serif" font-size="13" lengthAdjust="spacing" textLength="79" x="851.5" y="486.5811">toDoEntryList</text><polygon fill="#181818" points="1785.5,517.7891,1795.5,521.7891,1785.5,525.7891,1789.5,521.7891" style="stroke:#181818;stroke-width:1.0;"/><line style="stroke:#181818;stroke-width:1.0;" x1="816.5" x2="1791.5" y1="521.7891" y2="521.7891"/><text fill="#000000" font-family="sans-serif" font-size="13" font-weight="bold" lengthAdjust="spacing" textLength="14" x="823.5" y="516.9326">14</text><text fill="#000000" font-family="sans-serif" font-size="13" lengthAdjust="spacing" textLength="139" x="841.5" y="516.9326">toDtoList(toDoEntryList)</text><path d="M1725.5,536.7891 L1798.5,536.7891 L1798.5,545.1406 L1788.5,555.1406 L1725.5,555.1406 L1725.5,536.7891 " fill="#EEEEEE" style="stroke:#000000;stroke-width:1.5;"/><rect fill="none" height="108.9219" style="stroke:#000000;stroke-width:1.5;" width="298" x="1725.5" y="536.7891"/><text fill="#000000" font-family="sans-serif" font-size="13" font-weight="bold" lengthAdjust="spacing" textLength="28" x="1740.5" y="551.2842">loop</text><polygon fill="#181818" points="1893.5,573.4922,1903.5,577.4922,1893.5,581.4922,1897.5,577.4922" style="stroke:#181818;stroke-width:1.0;"/><line style="stroke:#181818;stroke-width:1.0;" x1="1807.5" x2="1899.5" y1="577.4922" y2="577.4922"/><text fill="#000000" font-family="sans-serif" font-size="13" font-weight="bold" lengthAdjust="spacing" textLength="14" x="1814.5" y="572.6357">15</text><text fill="#000000" font-family="sans-serif" font-size="13" lengthAdjust="spacing" textLength="36" x="1832.5" y="572.6357">create</text><rect fill="#E3E3E3" height="49.2188" rx="2.5" ry="2.5" style="stroke:#181818;stroke-width:0.5;" width="108" x="1905.5" y="555.1406"/><text fill="#000000" font-family="sans-serif" font-size="14" lengthAdjust="spacing" textLength="85" x="1917" y="576.6738">toDoEntryDto</text><text fill="#000000" font-family="sans-serif" font-size="14" lengthAdjust="spacing" textLength="94" x="1912.5" y="594.2832">:ToDoEntryDto</text><polygon fill="#181818" points="1818.5,633.7109,1808.5,637.7109,1818.5,641.7109,1814.5,637.7109" style="stroke:#181818;stroke-width:1.0;"/><line style="stroke:#181818;stroke-width:1.0;stroke-dasharray:2.0,2.0;" x1="1812.5" x2="1958.5" y1="637.7109" y2="637.7109"/><text fill="#000000" font-family="sans-serif" font-size="13" font-weight="bold" lengthAdjust="spacing" textLength="14" x="1824.5" y="632.8545">16</text><text fill="#000000" font-family="sans-serif" font-size="13" lengthAdjust="spacing" textLength="105" x="1842.5" y="632.8545">toDoEntryListDTO</text><polygon fill="#181818" points="827.5,671.0625,817.5,675.0625,827.5,679.0625,823.5,675.0625" style="stroke:#181818;stroke-width:1.0;"/><line style="stroke:#181818;stroke-width:1.0;stroke-dasharray:2.0,2.0;" x1="821.5" x2="1801.5" y1="675.0625" y2="675.0625"/><text fill="#000000" font-family="sans-serif" font-size="13" font-weight="bold" lengthAdjust="spacing" textLength="14" x="833.5" y="670.2061">17</text><text fill="#000000" font-family="sans-serif" font-size="13" lengthAdjust="spacing" textLength="84" x="851.5" y="670.2061">toDoEntryDTO</text><polygon fill="#181818" points="424.5,701.4141,414.5,705.4141,424.5,709.4141,420.5,705.4141" style="stroke:#181818;stroke-width:1.0;"/><line style="stroke:#181818;stroke-width:1.0;stroke-dasharray:2.0,2.0;" x1="418.5" x2="810.5" y1="705.4141" y2="705.4141"/><text fill="#000000" font-family="sans-serif" font-size="13" font-weight="bold" lengthAdjust="spacing" textLength="14" x="430.5" y="700.5576">18</text><text fill="#000000" font-family="sans-serif" font-size="13" lengthAdjust="spacing" textLength="99" x="448.5" y="700.5576">toDoEntryDtoList</text><polygon fill="#181818" points="39.5,731.7656,29.5,735.7656,39.5,739.7656,35.5,735.7656" style="stroke:#181818;stroke-width:1.0;"/><line style="stroke:#181818;stroke-width:1.0;" x1="33.5" x2="407.5" y1="735.7656" y2="735.7656"/><text fill="#000000" font-family="sans-serif" font-size="13" font-weight="bold" lengthAdjust="spacing" textLength="14" x="45.5" y="730.9092">19</text><text fill="#000000" font-family="sans-serif" font-size="13" lengthAdjust="spacing" textLength="333" x="63.5" y="730.9092">shows the list of To-Do entries and requests to select one</text><polygon fill="#181818" points="391.5,762.1172,401.5,766.1172,391.5,770.1172,395.5,766.1172" style="stroke:#181818;stroke-width:1.0;"/><line style="stroke:#181818;stroke-width:1.0;" x1="28.5" x2="397.5" y1="766.1172" y2="766.1172"/><text fill="#000000" font-family="sans-serif" font-size="13" font-weight="bold" lengthAdjust="spacing" textLength="14" x="35.5" y="761.2607">20</text><text fill="#000000" font-family="sans-serif" font-size="13" lengthAdjust="spacing" textLength="124" x="53.5" y="761.2607">selects a To-Do entry</text><polygon fill="#181818" points="39.5,792.4688,29.5,796.4688,39.5,800.4688,35.5,796.4688" style="stroke:#181818;stroke-width:1.0;"/><line style="stroke:#181818;stroke-width:1.0;stroke-dasharray:2.0,2.0;" x1="33.5" x2="407.5" y1="796.4688" y2="796.4688"/><text fill="#000000" font-family="sans-serif" font-size="13" font-weight="bold" lengthAdjust="spacing" textLength="14" x="45.5" y="791.6123">21</text><text fill="#000000" font-family="sans-serif" font-size="13" lengthAdjust="spacing" textLength="252" x="63.5" y="791.6123">requests starting date for the selected entry</text><polygon fill="#181818" points="391.5,822.8203,401.5,826.8203,391.5,830.8203,395.5,826.8203" style="stroke:#181818;stroke-width:1.0;"/><line style="stroke:#181818;stroke-width:1.0;" x1="28.5" x2="397.5" y1="826.8203" y2="826.8203"/><text fill="#000000" font-family="sans-serif" font-size="13" font-weight="bold" lengthAdjust="spacing" textLength="14" x="35.5" y="821.9639">22</text><text fill="#000000" font-family="sans-serif" font-size="13" lengthAdjust="spacing" textLength="108" x="53.5" y="821.9639">types starting date</text><polygon fill="#181818" points="39.5,853.1719,29.5,857.1719,39.5,861.1719,35.5,857.1719" style="stroke:#181818;stroke-width:1.0;"/><line style="stroke:#181818;stroke-width:1.0;stroke-dasharray:2.0,2.0;" x1="33.5" x2="407.5" y1="857.1719" y2="857.1719"/><text fill="#000000" font-family="sans-serif" font-size="13" font-weight="bold" lengthAdjust="spacing" textLength="14" x="45.5" y="852.3154">23</text><text fill="#000000" font-family="sans-serif" font-size="13" lengthAdjust="spacing" textLength="270" x="63.5" y="852.3154">requests progress status for the selected entry</text><polygon fill="#181818" points="391.5,883.5234,401.5,887.5234,391.5,891.5234,395.5,887.5234" style="stroke:#181818;stroke-width:1.0;"/><line style="stroke:#181818;stroke-width:1.0;" x1="28.5" x2="397.5" y1="887.5234" y2="887.5234"/><text fill="#000000" font-family="sans-serif" font-size="13" font-weight="bold" lengthAdjust="spacing" textLength="14" x="35.5" y="882.667">24</text><text fill="#000000" font-family="sans-serif" font-size="13" lengthAdjust="spacing" textLength="136" x="53.5" y="882.667">selects progress status</text><polygon fill="#181818" points="39.5,913.875,29.5,917.875,39.5,921.875,35.5,917.875" style="stroke:#181818;stroke-width:1.0;"/><line style="stroke:#181818;stroke-width:1.0;stroke-dasharray:2.0,2.0;" x1="33.5" x2="407.5" y1="917.875" y2="917.875"/><text fill="#000000" font-family="sans-serif" font-size="13" font-weight="bold" lengthAdjust="spacing" textLength="14" x="45.5" y="913.0186">25</text><text fill="#000000" font-family="sans-serif" font-size="13" lengthAdjust="spacing" textLength="238" x="63.5" y="913.0186">Shows all data and requests confirmation</text><polygon fill="#181818" points="391.5,944.2266,401.5,948.2266,391.5,952.2266,395.5,948.2266" style="stroke:#181818;stroke-width:1.0;"/><line style="stroke:#181818;stroke-width:1.0;" x1="28.5" x2="397.5" y1="948.2266" y2="948.2266"/><text fill="#000000" font-family="sans-serif" font-size="13" font-weight="bold" lengthAdjust="spacing" textLength="14" x="35.5" y="943.3701">26</text><text fill="#000000" font-family="sans-serif" font-size="13" lengthAdjust="spacing" textLength="78" x="53.5" y="943.3701">confirms data</text><polygon fill="#181818" points="794.5,974.5781,804.5,978.5781,794.5,982.5781,798.5,978.5781" style="stroke:#181818;stroke-width:1.0;"/><line style="stroke:#181818;stroke-width:1.0;" x1="408.5" x2="800.5" y1="978.5781" y2="978.5781"/><text fill="#000000" font-family="sans-serif" font-size="13" font-weight="bold" lengthAdjust="spacing" textLength="14" x="415.5" y="973.7217">27</text><text fill="#000000" font-family="sans-serif" font-size="13" lengthAdjust="spacing" textLength="356" x="433.5" y="973.7217">addAgendaEntry(toDoEntryDto, startingDate, progressStatus)</text><polygon fill="#181818" points="1197.5,1004.9297,1207.5,1008.9297,1197.5,1012.9297,1201.5,1008.9297" style="stroke:#181818;stroke-width:1.0;"/><line style="stroke:#181818;stroke-width:1.0;" x1="811.5" x2="1203.5" y1="1008.9297" y2="1008.9297"/><text fill="#000000" font-family="sans-serif" font-size="13" font-weight="bold" lengthAdjust="spacing" textLength="14" x="818.5" y="1004.0732">28</text><text fill="#000000" font-family="sans-serif" font-size="13" lengthAdjust="spacing" textLength="356" x="836.5" y="1004.0732">addAgendaEntry(toDoEntryDto, startingDate, progressStatus)</text><polygon fill="#181818" points="1524.5,1035.2813,1534.5,1039.2813,1524.5,1043.2813,1528.5,1039.2813" style="stroke:#181818;stroke-width:1.0;"/><line style="stroke:#181818;stroke-width:1.0;" x1="1219.5" x2="1530.5" y1="1039.2813" y2="1039.2813"/><text fill="#000000" font-family="sans-serif" font-size="13" font-weight="bold" lengthAdjust="spacing" textLength="14" x="1226.5" y="1034.4248">29</text><text fill="#000000" font-family="sans-serif" font-size="13" lengthAdjust="spacing" textLength="141" x="1244.5" y="1034.4248">toDomain(toDoEntryDto)</text><polygon fill="#181818" points="1613.5,1065.6328,1623.5,1069.6328,1613.5,1073.6328,1617.5,1069.6328" style="stroke:#181818;stroke-width:1.0;"/><line style="stroke:#181818;stroke-width:1.0;" x1="1546.5" x2="1619.5" y1="1069.6328" y2="1069.6328"/><text fill="#000000" font-family="sans-serif" font-size="13" font-weight="bold" lengthAdjust="spacing" textLength="14" x="1553.5" y="1064.7764">30</text><text fill="#000000" font-family="sans-serif" font-size="13" lengthAdjust="spacing" textLength="36" x="1571.5" y="1064.7764">create</text><rect fill="#E3E3E3" height="49.2188" rx="2.5" ry="2.5" style="stroke:#181818;stroke-width:0.5;" width="100" x="1625.5" y="1047.2813"/><text fill="#000000" font-family="sans-serif" font-size="14" lengthAdjust="spacing" textLength="81" x="1635" y="1068.8145">agendaEntry</text><text fill="#000000" font-family="sans-serif" font-size="14" lengthAdjust="spacing" textLength="86" x="1632.5" y="1086.4238">:AgendaEntry</text><polygon fill="#181818" points="1557.5,1125.8516,1547.5,1129.8516,1557.5,1133.8516,1553.5,1129.8516" style="stroke:#181818;stroke-width:1.0;"/><line style="stroke:#181818;stroke-width:1.0;stroke-dasharray:2.0,2.0;" x1="1551.5" x2="1674.5" y1="1129.8516" y2="1129.8516"/><text fill="#000000" font-family="sans-serif" font-size="13" font-weight="bold" lengthAdjust="spacing" textLength="14" x="1563.5" y="1124.9951">31</text><text fill="#000000" font-family="sans-serif" font-size="13" lengthAdjust="spacing" textLength="73" x="1581.5" y="1124.9951">agendaEntry</text><polygon fill="#181818" points="1230.5,1156.2031,1220.5,1160.2031,1230.5,1164.2031,1226.5,1160.2031" style="stroke:#181818;stroke-width:1.0;"/><line style="stroke:#181818;stroke-width:1.0;stroke-dasharray:2.0,2.0;" x1="1224.5" x2="1540.5" y1="1160.2031" y2="1160.2031"/><text fill="#000000" font-family="sans-serif" font-size="13" font-weight="bold" lengthAdjust="spacing" textLength="14" x="1236.5" y="1155.3467">32</text><text fill="#000000" font-family="sans-serif" font-size="13" lengthAdjust="spacing" textLength="73" x="1254.5" y="1155.3467">agendaEntry</text><line style="stroke:#181818;stroke-width:1.0;" x1="1219.5" x2="1261.5" y1="1190.5547" y2="1190.5547"/><line style="stroke:#181818;stroke-width:1.0;" x1="1261.5" x2="1261.5" y1="1190.5547" y2="1203.5547"/><line style="stroke:#181818;stroke-width:1.0;" x1="1220.5" x2="1261.5" y1="1203.5547" y2="1203.5547"/><polygon fill="#181818" points="1230.5,1199.5547,1220.5,1203.5547,1230.5,1207.5547,1226.5,1203.5547" style="stroke:#181818;stroke-width:1.0;"/><text fill="#000000" font-family="sans-serif" font-size="13" font-weight="bold" lengthAdjust="spacing" textLength="14" x="1226.5" y="1185.6982">33</text><text fill="#000000" font-family="sans-serif" font-size="13" lengthAdjust="spacing" textLength="249" x="1244.5" y="1185.6982">setStartingDate(agendaEntry, startingDate)</text><line style="stroke:#181818;stroke-width:1.0;" x1="1219.5" x2="1261.5" y1="1233.9063" y2="1233.9063"/><line style="stroke:#181818;stroke-width:1.0;" x1="1261.5" x2="1261.5" y1="1233.9063" y2="1246.9063"/><line style="stroke:#181818;stroke-width:1.0;" x1="1220.5" x2="1261.5" y1="1246.9063" y2="1246.9063"/><polygon fill="#181818" points="1230.5,1242.9063,1220.5,1246.9063,1230.5,1250.9063,1226.5,1246.9063" style="stroke:#181818;stroke-width:1.0;"/><text fill="#000000" font-family="sans-serif" font-size="13" font-weight="bold" lengthAdjust="spacing" textLength="14" x="1226.5" y="1229.0498">34</text><text fill="#000000" font-family="sans-serif" font-size="13" lengthAdjust="spacing" textLength="285" x="1244.5" y="1229.0498">setProgressStatus(agendaEntry, progressStatus)</text><polygon fill="#181818" points="827.5,1273.2578,817.5,1277.2578,827.5,1281.2578,823.5,1277.2578" style="stroke:#181818;stroke-width:1.0;"/><line style="stroke:#181818;stroke-width:1.0;stroke-dasharray:2.0,2.0;" x1="821.5" x2="1213.5" y1="1277.2578" y2="1277.2578"/><text fill="#000000" font-family="sans-serif" font-size="13" font-weight="bold" lengthAdjust="spacing" textLength="14" x="833.5" y="1272.4014">35</text><text fill="#000000" font-family="sans-serif" font-size="13" lengthAdjust="spacing" textLength="49" x="851.5" y="1272.4014">success</text><polygon fill="#181818" points="424.5,1303.6094,414.5,1307.6094,424.5,1311.6094,420.5,1307.6094" style="stroke:#181818;stroke-width:1.0;"/><line style="stroke:#181818;stroke-width:1.0;stroke-dasharray:2.0,2.0;" x1="418.5" x2="810.5" y1="1307.6094" y2="1307.6094"/><text fill="#000000" font-family="sans-serif" font-size="13" font-weight="bold" lengthAdjust="spacing" textLength="14" x="430.5" y="1302.7529">36</text><text fill="#000000" font-family="sans-serif" font-size="13" lengthAdjust="spacing" textLength="49" x="448.5" y="1302.7529">success</text><polygon fill="#181818" points="39.5,1333.9609,29.5,1337.9609,39.5,1341.9609,35.5,1337.9609" style="stroke:#181818;stroke-width:1.0;"/><line style="stroke:#181818;stroke-width:1.0;stroke-dasharray:2.0,2.0;" x1="33.5" x2="407.5" y1="1337.9609" y2="1337.9609"/><text fill="#000000" font-family="sans-serif" font-size="13" font-weight="bold" lengthAdjust="spacing" textLength="14" x="45.5" y="1333.1045">37</text><text fill="#000000" font-family="sans-serif" font-size="13" lengthAdjust="spacing" textLength="325" x="63.5" y="1333.1045">displays a success message (entry added successfully)</text><!--SRC=[hLV1RkCW4BtdAr1FITKUzff3fQgfLfLQRTMajxsmDd5H2NW1RvM_tm77c07iTBNr8N5WvhqPUCmGyyvbIpKza8EIgdhJwi28rHrRc33JqkgTDcnhZu8HpIfBPIDY0_D6Q_N1PKFsL1YsMD3EAjaTVZ4DxvLLcbnytpvT46e8V2_0o_AAjrHQSh6-hUlRXicQtakhZwyFtkprOTRgJi6d4e9fRtstUtbCx5zOgmm7QiwCjma3nortyKE4s4L77Zzb3l3yUBl37io5CkA2qpqUyNvXBCreJEU9jkqfbMmKUz5n6kWYuzGv8TkfZKgfaZ7iOOV9ZLN0j8j-OcSOI1DhMy4hQhcIMsOCVFN1PSD9Qjcyox2CbTj-yqhZVwXbNcCB0W-yaEiR41DPWt1_TynOGwmYjAu99P9z4B-5X4jYtzXf-Rndm08X-W7t00wWER6HoyirgJG3Yp0RNBmQmx1xl0ku5ZG8aJNCFaW3fwfYonNo2v0byI9BzvJGhuU0tGACWaQ-DViypv29Emnzw8dafpBmfmTDUOWelkGqJOM8WQA9VjbBk-NZ389zvCOkGHchSpitv9fhS7RJ4691zAbj0JvQ5NeU85g30brcFgHLE4DzNdUTrh0Pfy6vx4h7C3Ckq4Jv2TKqh7urK7zcyYgUzr9IGOs5FH-fLbFYyW8efZfMSJGVXaDEQs9ZrYcc4Qz8Drr3agfDF9zLFaF4F74GqwgFh8HIRQwOb3AE0gWlBqbM3ATfNR-OPe1PlvB5BCVSDhiVSt91PB4Dr7TCdgKsAdFiW0bPYQYqcFsE3VqdRgX865a9mmNCzR0rNB7KX_5DIe0lKNkWljueNpIXdXCgQzJX31DmKIDAzbiISGmDBUwDlJMWHAZ7-JuO8WkiK0oXcyCbi7RsUxZqkN1xQ5P7c6U2iSUM9MZJeKp4qchLQ2WK3iPsvZ-Y6POcGIn7X8BP-YsZGhWKADwXIiazrmTVqCv6iHxCZKVwrFraxUuuqNLm6SllAgpk1Y2kGcvRdzggf4oWcQXHysNuQmBvmYfzaz-mJuVpGBb4qKqKqFo6dhVqZ0BpVgfYnfVvEGOlkL9IqN-5sJl354yXYtHh9nZAw5EhXNOdXZVCRYDzB2Cwh9pLFs4-8vLXr5I1Pvgz0-og2Xo-fC_ZZX4ZbzG_NtvgRbf1Zwwedu380JuWMxBi__N0mOHAU9hSTq8SLmjyvFy2]--></g></svg>