<?xml version="1.0" encoding="UTF-8" standalone="no"?><svg xmlns="http://www.w3.org/2000/svg" xmlns:xlink="http://www.w3.org/1999/xlink" contentStyleType="text/css" height="1316px" preserveAspectRatio="none" style="width:2017px;height:1316px;background:#FFFFFF;" version="1.1" viewBox="0 0 2017 1316" width="2017px" zoomAndPan="magnify"><defs/><g><rect fill="#FFFFFF" height="1132.9453" style="stroke:#181818;stroke-width:1.0;" width="10" x="18.5" y="92.6094"/><rect fill="#FFFFFF" height="499.3984" style="stroke:#181818;stroke-width:1.0;" width="10" x="403.5" y="114.9609"/><rect fill="#FFFFFF" height="30.3516" style="stroke:#181818;stroke-width:1.0;" width="10" x="403.5" y="644.7109"/><rect fill="#FFFFFF" height="30.3516" style="stroke:#181818;stroke-width:1.0;" width="10" x="403.5" y="705.4141"/><rect fill="#FFFFFF" height="30.3516" style="stroke:#181818;stroke-width:1.0;" width="10" x="403.5" y="766.1172"/><rect fill="#FFFFFF" height="30.3516" style="stroke:#181818;stroke-width:1.0;" width="10" x="403.5" y="826.8203"/><rect fill="#FFFFFF" height="30.3516" style="stroke:#181818;stroke-width:1.0;" width="10" x="403.5" y="1186.2031"/><rect fill="#FFFFFF" height="123.6641" style="stroke:#181818;stroke-width:1.0;" width="10" x="802.5" y="155.3125"/><rect fill="#FFFFFF" height="30.3516" style="stroke:#181818;stroke-width:1.0;" width="10" x="802.5" y="309.3281"/><rect fill="#FFFFFF" height="213.9766" style="stroke:#181818;stroke-width:1.0;" width="10" x="802.5" y="370.0313"/><rect fill="#FFFFFF" height="30.3516" style="stroke:#181818;stroke-width:1.0;" width="10" x="802.5" y="857.1719"/><rect fill="#FFFFFF" height="30.3516" style="stroke:#181818;stroke-width:1.0;" width="10" x="802.5" y="1155.8516"/><rect fill="#FFFFFF" height="30.3516" style="stroke:#181818;stroke-width:1.0;" width="10" x="954.5" y="187.9219"/><rect fill="#FFFFFF" height="30.3516" style="stroke:#181818;stroke-width:1.0;" width="10" x="1061.5" y="248.625"/><rect fill="#FFFFFF" height="30.3516" style="stroke:#181818;stroke-width:1.0;" width="10" x="1201.5" y="339.6797"/><rect fill="#FFFFFF" height="268.3281" style="stroke:#181818;stroke-width:1.0;" width="10" x="1201.5" y="887.5234"/><rect fill="#FFFFFF" height="120.9219" style="stroke:#181818;stroke-width:1.0;" width="10" x="1524.5" y="917.875"/><rect fill="#FFFFFF" height="50.2188" style="stroke:#181818;stroke-width:1.0;" width="10" x="1658.5" y="958.2266"/><rect fill="#FFFFFF" height="153.2734" style="stroke:#181818;stroke-width:1.0;" width="10" x="1785.5" y="400.3828"/><rect fill="#FFFFFF" height="50.2188" style="stroke:#181818;stroke-width:1.0;" width="10" x="1942.5" y="466.0859"/><rect fill="none" height="108.9219" style="stroke:#000000;stroke-width:1.5;" width="298" x="1713.5" y="415.3828"/><line style="stroke:#181818;stroke-width:0.5;stroke-dasharray:5.0,5.0;" x1="23" x2="23" y1="82.6094" y2="1234.5547"/><line style="stroke:#181818;stroke-width:0.5;stroke-dasharray:5.0,5.0;" x1="408" x2="408" y1="82.6094" y2="1234.5547"/><line style="stroke:#181818;stroke-width:0.5;stroke-dasharray:5.0,5.0;" x1="807" x2="807" y1="154.2656" y2="1234.5547"/><line style="stroke:#181818;stroke-width:0.5;stroke-dasharray:5.0,5.0;" x1="959" x2="959" y1="82.6094" y2="1234.5547"/><line style="stroke:#181818;stroke-width:0.5;stroke-dasharray:5.0,5.0;" x1="1066" x2="1066" y1="82.6094" y2="1234.5547"/><line style="stroke:#181818;stroke-width:0.5;stroke-dasharray:5.0,5.0;" x1="1206" x2="1206" y1="82.6094" y2="1234.5547"/><line style="stroke:#181818;stroke-width:0.5;stroke-dasharray:5.0,5.0;" x1="1529.5" x2="1529.5" y1="82.6094" y2="1234.5547"/><line style="stroke:#181818;stroke-width:0.5;stroke-dasharray:5.0,5.0;" x1="1663.5" x2="1663.5" y1="965.9844" y2="1234.5547"/><line style="stroke:#181818;stroke-width:0.5;stroke-dasharray:5.0,5.0;" x1="1790.5" x2="1790.5" y1="82.6094" y2="1234.5547"/><line style="stroke:#181818;stroke-width:0.5;stroke-dasharray:5.0,5.0;" x1="1947.5" x2="1947.5" y1="473.8438" y2="1234.5547"/><text fill="#000000" font-family="sans-serif" font-size="14" lengthAdjust="spacing" textLength="31" x="5" y="79.5332">GSM</text><ellipse cx="23.5" cy="13.5" fill="#E3E3E3" rx="8" ry="8" style="stroke:#181818;stroke-width:0.5;"/><path d="M23.5,21.5 L23.5,48.5 M10.5,29.5 L36.5,29.5 M23.5,48.5 L10.5,63.5 M23.5,48.5 L36.5,63.5 " fill="none" style="stroke:#181818;stroke-width:0.5;"/><text fill="#000000" font-family="sans-serif" font-size="14" lengthAdjust="spacing" textLength="31" x="5" y="1248.0879">GSM</text><ellipse cx="23.5" cy="1259.6641" fill="#E3E3E3" rx="8" ry="8" style="stroke:#181818;stroke-width:0.5;"/><path d="M23.5,1267.6641 L23.5,1294.6641 M10.5,1275.6641 L36.5,1275.6641 M23.5,1294.6641 L10.5,1309.6641 M23.5,1294.6641 L36.5,1309.6641 " fill="none" style="stroke:#181818;stroke-width:0.5;"/><rect fill="#E3E3E3" height="31.6094" rx="2.5" ry="2.5" style="stroke:#181818;stroke-width:0.5;" width="137" x="340" y="50"/><text fill="#000000" font-family="sans-serif" font-size="14" lengthAdjust="spacing" textLength="123" x="347" y="71.5332">:AddAgendaEntryUI</text><rect fill="#E3E3E3" height="31.6094" rx="2.5" ry="2.5" style="stroke:#181818;stroke-width:0.5;" width="137" x="340" y="1233.5547"/><text fill="#000000" font-family="sans-serif" font-size="14" lengthAdjust="spacing" textLength="123" x="347" y="1255.0879">:AddAgendaEntryUI</text><rect fill="#E3E3E3" height="31.6094" rx="2.5" ry="2.5" style="stroke:#181818;stroke-width:0.5;" width="187" x="714" y="1233.5547"/><text fill="#000000" font-family="sans-serif" font-size="14" lengthAdjust="spacing" textLength="173" x="721" y="1255.0879">:AddAgendaEntryController</text><rect fill="#E3E3E3" height="31.6094" rx="2.5" ry="2.5" style="stroke:#181818;stroke-width:0.5;" width="97" x="911" y="50"/><text fill="#000000" font-family="sans-serif" font-size="14" lengthAdjust="spacing" textLength="83" x="918" y="71.5332">:Repositories</text><rect fill="#E3E3E3" height="31.6094" rx="2.5" ry="2.5" style="stroke:#181818;stroke-width:0.5;" width="97" x="911" y="1233.5547"/><text fill="#000000" font-family="sans-serif" font-size="14" lengthAdjust="spacing" textLength="83" x="918" y="1255.0879">:Repositories</text><rect fill="#E3E3E3" height="49.2188" rx="2.5" ry="2.5" style="stroke:#181818;stroke-width:0.5;" width="97" x="1018" y="32.3906"/><text fill="#000000" font-family="sans-serif" font-size="14" lengthAdjust="spacing" textLength="74" x="1029.5" y="53.9238">repositories</text><text fill="#000000" font-family="sans-serif" font-size="14" lengthAdjust="spacing" textLength="83" x="1025" y="71.5332">:Repositories</text><rect fill="#E3E3E3" height="49.2188" rx="2.5" ry="2.5" style="stroke:#181818;stroke-width:0.5;" width="97" x="1018" y="1233.5547"/><text fill="#000000" font-family="sans-serif" font-size="14" lengthAdjust="spacing" textLength="74" x="1029.5" y="1255.0879">repositories</text><text fill="#000000" font-family="sans-serif" font-size="14" lengthAdjust="spacing" textLength="83" x="1025" y="1272.6973">:Repositories</text><rect fill="#E3E3E3" height="49.2188" rx="2.5" ry="2.5" style="stroke:#181818;stroke-width:0.5;" width="119" x="1147" y="32.3906"/><text fill="#000000" font-family="sans-serif" font-size="14" lengthAdjust="spacing" textLength="100" x="1156.5" y="53.9238">entryRepository</text><text fill="#000000" font-family="sans-serif" font-size="14" lengthAdjust="spacing" textLength="105" x="1154" y="71.5332">:EntryRepository</text><rect fill="#E3E3E3" height="49.2188" rx="2.5" ry="2.5" style="stroke:#181818;stroke-width:0.5;" width="119" x="1147" y="1233.5547"/><text fill="#000000" font-family="sans-serif" font-size="14" lengthAdjust="spacing" textLength="100" x="1156.5" y="1255.0879">entryRepository</text><text fill="#000000" font-family="sans-serif" font-size="14" lengthAdjust="spacing" textLength="105" x="1154" y="1272.6973">:EntryRepository</text><rect fill="#E3E3E3" height="31.6094" rx="2.5" ry="2.5" style="stroke:#181818;stroke-width:0.5;" width="148" x="1455.5" y="50"/><text fill="#000000" font-family="sans-serif" font-size="14" lengthAdjust="spacing" textLength="134" x="1462.5" y="71.5332">:AgendaEntryMapper</text><rect fill="#E3E3E3" height="31.6094" rx="2.5" ry="2.5" style="stroke:#181818;stroke-width:0.5;" width="148" x="1455.5" y="1233.5547"/><text fill="#000000" font-family="sans-serif" font-size="14" lengthAdjust="spacing" textLength="134" x="1462.5" y="1255.0879">:AgendaEntryMapper</text><rect fill="#E3E3E3" height="49.2188" rx="2.5" ry="2.5" style="stroke:#181818;stroke-width:0.5;" width="100" x="1613.5" y="1233.5547"/><text fill="#000000" font-family="sans-serif" font-size="14" lengthAdjust="spacing" textLength="81" x="1623" y="1255.0879">agendaEntry</text><text fill="#000000" font-family="sans-serif" font-size="14" lengthAdjust="spacing" textLength="86" x="1620.5" y="1272.6973">:AgendaEntry</text><rect fill="#E3E3E3" height="31.6094" rx="2.5" ry="2.5" style="stroke:#181818;stroke-width:0.5;" width="134" x="1723.5" y="50"/><text fill="#000000" font-family="sans-serif" font-size="14" lengthAdjust="spacing" textLength="120" x="1730.5" y="71.5332">:ToDoEntryMapper</text><rect fill="#E3E3E3" height="31.6094" rx="2.5" ry="2.5" style="stroke:#181818;stroke-width:0.5;" width="134" x="1723.5" y="1233.5547"/><text fill="#000000" font-family="sans-serif" font-size="14" lengthAdjust="spacing" textLength="120" x="1730.5" y="1255.0879">:ToDoEntryMapper</text><rect fill="#E3E3E3" height="49.2188" rx="2.5" ry="2.5" style="stroke:#181818;stroke-width:0.5;" width="108" x="1893.5" y="1233.5547"/><text fill="#000000" font-family="sans-serif" font-size="14" lengthAdjust="spacing" textLength="85" x="1905" y="1255.0879">toDoEntryDto</text><text fill="#000000" font-family="sans-serif" font-size="14" lengthAdjust="spacing" textLength="94" x="1900.5" y="1272.6973">:ToDoEntryDto</text><rect fill="#FFFFFF" height="1132.9453" style="stroke:#181818;stroke-width:1.0;" width="10" x="18.5" y="92.6094"/><rect fill="#FFFFFF" height="499.3984" style="stroke:#181818;stroke-width:1.0;" width="10" x="403.5" y="114.9609"/><rect fill="#FFFFFF" height="30.3516" style="stroke:#181818;stroke-width:1.0;" width="10" x="403.5" y="644.7109"/><rect fill="#FFFFFF" height="30.3516" style="stroke:#181818;stroke-width:1.0;" width="10" x="403.5" y="705.4141"/><rect fill="#FFFFFF" height="30.3516" style="stroke:#181818;stroke-width:1.0;" width="10" x="403.5" y="766.1172"/><rect fill="#FFFFFF" height="30.3516" style="stroke:#181818;stroke-width:1.0;" width="10" x="403.5" y="826.8203"/><rect fill="#FFFFFF" height="30.3516" style="stroke:#181818;stroke-width:1.0;" width="10" x="403.5" y="1186.2031"/><rect fill="#FFFFFF" height="123.6641" style="stroke:#181818;stroke-width:1.0;" width="10" x="802.5" y="155.3125"/><rect fill="#FFFFFF" height="30.3516" style="stroke:#181818;stroke-width:1.0;" width="10" x="802.5" y="309.3281"/><rect fill="#FFFFFF" height="213.9766" style="stroke:#181818;stroke-width:1.0;" width="10" x="802.5" y="370.0313"/><rect fill="#FFFFFF" height="30.3516" style="stroke:#181818;stroke-width:1.0;" width="10" x="802.5" y="857.1719"/><rect fill="#FFFFFF" height="30.3516" style="stroke:#181818;stroke-width:1.0;" width="10" x="802.5" y="1155.8516"/><rect fill="#FFFFFF" height="30.3516" style="stroke:#181818;stroke-width:1.0;" width="10" x="954.5" y="187.9219"/><rect fill="#FFFFFF" height="30.3516" style="stroke:#181818;stroke-width:1.0;" width="10" x="1061.5" y="248.625"/><rect fill="#FFFFFF" height="30.3516" style="stroke:#181818;stroke-width:1.0;" width="10" x="1201.5" y="339.6797"/><rect fill="#FFFFFF" height="268.3281" style="stroke:#181818;stroke-width:1.0;" width="10" x="1201.5" y="887.5234"/><rect fill="#FFFFFF" height="120.9219" style="stroke:#181818;stroke-width:1.0;" width="10" x="1524.5" y="917.875"/><rect fill="#FFFFFF" height="50.2188" style="stroke:#181818;stroke-width:1.0;" width="10" x="1658.5" y="958.2266"/><rect fill="#FFFFFF" height="153.2734" style="stroke:#181818;stroke-width:1.0;" width="10" x="1785.5" y="400.3828"/><rect fill="#FFFFFF" height="50.2188" style="stroke:#181818;stroke-width:1.0;" width="10" x="1942.5" y="466.0859"/><polygon fill="#181818" points="391.5,110.9609,401.5,114.9609,391.5,118.9609,395.5,114.9609" style="stroke:#181818;stroke-width:1.0;"/><line style="stroke:#181818;stroke-width:1.0;" x1="28.5" x2="397.5" y1="114.9609" y2="114.9609"/><text fill="#000000" font-family="sans-serif" font-size="13" font-weight="bold" lengthAdjust="spacing" textLength="7" x="35.5" y="110.1045">1</text><text fill="#000000" font-family="sans-serif" font-size="13" lengthAdjust="spacing" textLength="245" x="46.5" y="110.1045">requests to add a new entry in the Agenda</text><polygon fill="#181818" points="702,141.3125,712,145.3125,702,149.3125,706,145.3125" style="stroke:#181818;stroke-width:1.0;"/><line style="stroke:#181818;stroke-width:1.0;" x1="413.5" x2="708" y1="145.3125" y2="145.3125"/><text fill="#000000" font-family="sans-serif" font-size="13" font-weight="bold" lengthAdjust="spacing" textLength="7" x="420.5" y="140.4561">2</text><text fill="#000000" font-family="sans-serif" font-size="13" lengthAdjust="spacing" textLength="36" x="431.5" y="140.4561">create</text><rect fill="#E3E3E3" height="31.6094" rx="2.5" ry="2.5" style="stroke:#181818;stroke-width:0.5;" width="187" x="714" y="122.9609"/><text fill="#000000" font-family="sans-serif" font-size="14" lengthAdjust="spacing" textLength="173" x="721" y="144.4941">:AddAgendaEntryController</text><polygon fill="#181818" points="942.5,183.9219,952.5,187.9219,942.5,191.9219,946.5,187.9219" style="stroke:#181818;stroke-width:1.0;"/><line style="stroke:#181818;stroke-width:1.0;" x1="812.5" x2="948.5" y1="187.9219" y2="187.9219"/><text fill="#000000" font-family="sans-serif" font-size="13" font-weight="bold" lengthAdjust="spacing" textLength="7" x="819.5" y="183.0654">3</text><text fill="#000000" font-family="sans-serif" font-size="13" lengthAdjust="spacing" textLength="75" x="830.5" y="183.0654">getInstance()</text><polygon fill="#181818" points="823.5,214.2734,813.5,218.2734,823.5,222.2734,819.5,218.2734" style="stroke:#181818;stroke-width:1.0;"/><line style="stroke:#181818;stroke-width:1.0;stroke-dasharray:2.0,2.0;" x1="817.5" x2="958.5" y1="218.2734" y2="218.2734"/><text fill="#000000" font-family="sans-serif" font-size="13" font-weight="bold" lengthAdjust="spacing" textLength="7" x="829.5" y="213.417">4</text><text fill="#000000" font-family="sans-serif" font-size="13" lengthAdjust="spacing" textLength="67" x="840.5" y="213.417">repositories</text><polygon fill="#181818" points="1049.5,244.625,1059.5,248.625,1049.5,252.625,1053.5,248.625" style="stroke:#181818;stroke-width:1.0;"/><line style="stroke:#181818;stroke-width:1.0;" x1="812.5" x2="1055.5" y1="248.625" y2="248.625"/><text fill="#000000" font-family="sans-serif" font-size="13" font-weight="bold" lengthAdjust="spacing" textLength="7" x="819.5" y="243.7686">5</text><text fill="#000000" font-family="sans-serif" font-size="13" lengthAdjust="spacing" textLength="119" x="830.5" y="243.7686">getEntryRepository()</text><polygon fill="#181818" points="818.5,274.9766,808.5,278.9766,818.5,282.9766,814.5,278.9766" style="stroke:#181818;stroke-width:1.0;"/><line style="stroke:#181818;stroke-width:1.0;stroke-dasharray:2.0,2.0;" x1="812.5" x2="1065.5" y1="278.9766" y2="278.9766"/><text fill="#000000" font-family="sans-serif" font-size="13" font-weight="bold" lengthAdjust="spacing" textLength="7" x="824.5" y="274.1201">6</text><text fill="#000000" font-family="sans-serif" font-size="13" lengthAdjust="spacing" textLength="91" x="835.5" y="274.1201">entryRepository</text><polygon fill="#181818" points="790.5,305.3281,800.5,309.3281,790.5,313.3281,794.5,309.3281" style="stroke:#181818;stroke-width:1.0;"/><line style="stroke:#181818;stroke-width:1.0;" x1="413.5" x2="796.5" y1="309.3281" y2="309.3281"/><text fill="#000000" font-family="sans-serif" font-size="13" font-weight="bold" lengthAdjust="spacing" textLength="7" x="420.5" y="304.4717">7</text><text fill="#000000" font-family="sans-serif" font-size="13" lengthAdjust="spacing" textLength="138" x="431.5" y="304.4717">getToDoEntryList(GSM)</text><polygon fill="#181818" points="1189.5,335.6797,1199.5,339.6797,1189.5,343.6797,1193.5,339.6797" style="stroke:#181818;stroke-width:1.0;"/><line style="stroke:#181818;stroke-width:1.0;" x1="807.5" x2="1195.5" y1="339.6797" y2="339.6797"/><text fill="#000000" font-family="sans-serif" font-size="13" font-weight="bold" lengthAdjust="spacing" textLength="7" x="814.5" y="334.8232">8</text><text fill="#000000" font-family="sans-serif" font-size="13" lengthAdjust="spacing" textLength="184" x="825.5" y="334.8232">getToDoEntryListByGSM(GSM)</text><polygon fill="#181818" points="823.5,366.0313,813.5,370.0313,823.5,374.0313,819.5,370.0313" style="stroke:#181818;stroke-width:1.0;"/><line style="stroke:#181818;stroke-width:1.0;stroke-dasharray:2.0,2.0;" x1="817.5" x2="1205.5" y1="370.0313" y2="370.0313"/><text fill="#000000" font-family="sans-serif" font-size="13" font-weight="bold" lengthAdjust="spacing" textLength="7" x="829.5" y="365.1748">9</text><text fill="#000000" font-family="sans-serif" font-size="13" lengthAdjust="spacing" textLength="79" x="840.5" y="365.1748">toDoEntryList</text><polygon fill="#181818" points="1773.5,396.3828,1783.5,400.3828,1773.5,404.3828,1777.5,400.3828" style="stroke:#181818;stroke-width:1.0;"/><line style="stroke:#181818;stroke-width:1.0;" x1="812.5" x2="1779.5" y1="400.3828" y2="400.3828"/><text fill="#000000" font-family="sans-serif" font-size="13" font-weight="bold" lengthAdjust="spacing" textLength="14" x="819.5" y="395.5264">10</text><text fill="#000000" font-family="sans-serif" font-size="13" lengthAdjust="spacing" textLength="139" x="837.5" y="395.5264">toDtoList(toDoEntryList)</text><path d="M1713.5,415.3828 L1786.5,415.3828 L1786.5,423.7344 L1776.5,433.7344 L1713.5,433.7344 L1713.5,415.3828 " fill="#EEEEEE" style="stroke:#000000;stroke-width:1.5;"/><rect fill="none" height="108.9219" style="stroke:#000000;stroke-width:1.5;" width="298" x="1713.5" y="415.3828"/><text fill="#000000" font-family="sans-serif" font-size="13" font-weight="bold" lengthAdjust="spacing" textLength="28" x="1728.5" y="429.8779">loop</text><polygon fill="#181818" points="1881.5,452.0859,1891.5,456.0859,1881.5,460.0859,1885.5,456.0859" style="stroke:#181818;stroke-width:1.0;"/><line style="stroke:#181818;stroke-width:1.0;" x1="1795.5" x2="1887.5" y1="456.0859" y2="456.0859"/><text fill="#000000" font-family="sans-serif" font-size="13" font-weight="bold" lengthAdjust="spacing" textLength="14" x="1802.5" y="451.2295">11</text><text fill="#000000" font-family="sans-serif" font-size="13" lengthAdjust="spacing" textLength="36" x="1820.5" y="451.2295">create</text><rect fill="#E3E3E3" height="49.2188" rx="2.5" ry="2.5" style="stroke:#181818;stroke-width:0.5;" width="108" x="1893.5" y="433.7344"/><text fill="#000000" font-family="sans-serif" font-size="14" lengthAdjust="spacing" textLength="85" x="1905" y="455.2676">toDoEntryDto</text><text fill="#000000" font-family="sans-serif" font-size="14" lengthAdjust="spacing" textLength="94" x="1900.5" y="472.877">:ToDoEntryDto</text><polygon fill="#181818" points="1806.5,512.3047,1796.5,516.3047,1806.5,520.3047,1802.5,516.3047" style="stroke:#181818;stroke-width:1.0;"/><line style="stroke:#181818;stroke-width:1.0;stroke-dasharray:2.0,2.0;" x1="1800.5" x2="1946.5" y1="516.3047" y2="516.3047"/><text fill="#000000" font-family="sans-serif" font-size="13" font-weight="bold" lengthAdjust="spacing" textLength="14" x="1812.5" y="511.4482">12</text><text fill="#000000" font-family="sans-serif" font-size="13" lengthAdjust="spacing" textLength="105" x="1830.5" y="511.4482">toDoEntryListDTO</text><polygon fill="#181818" points="823.5,549.6563,813.5,553.6563,823.5,557.6563,819.5,553.6563" style="stroke:#181818;stroke-width:1.0;"/><line style="stroke:#181818;stroke-width:1.0;stroke-dasharray:2.0,2.0;" x1="817.5" x2="1789.5" y1="553.6563" y2="553.6563"/><text fill="#000000" font-family="sans-serif" font-size="13" font-weight="bold" lengthAdjust="spacing" textLength="14" x="829.5" y="548.7998">13</text><text fill="#000000" font-family="sans-serif" font-size="13" lengthAdjust="spacing" textLength="84" x="847.5" y="548.7998">toDoEntryDTO</text><polygon fill="#181818" points="424.5,580.0078,414.5,584.0078,424.5,588.0078,420.5,584.0078" style="stroke:#181818;stroke-width:1.0;"/><line style="stroke:#181818;stroke-width:1.0;stroke-dasharray:2.0,2.0;" x1="418.5" x2="806.5" y1="584.0078" y2="584.0078"/><text fill="#000000" font-family="sans-serif" font-size="13" font-weight="bold" lengthAdjust="spacing" textLength="14" x="430.5" y="579.1514">14</text><text fill="#000000" font-family="sans-serif" font-size="13" lengthAdjust="spacing" textLength="99" x="448.5" y="579.1514">toDoEntryDtoList</text><polygon fill="#181818" points="39.5,610.3594,29.5,614.3594,39.5,618.3594,35.5,614.3594" style="stroke:#181818;stroke-width:1.0;"/><line style="stroke:#181818;stroke-width:1.0;" x1="33.5" x2="407.5" y1="614.3594" y2="614.3594"/><text fill="#000000" font-family="sans-serif" font-size="13" font-weight="bold" lengthAdjust="spacing" textLength="14" x="45.5" y="609.5029">15</text><text fill="#000000" font-family="sans-serif" font-size="13" lengthAdjust="spacing" textLength="333" x="63.5" y="609.5029">shows the list of To-Do entries and requests to select one</text><polygon fill="#181818" points="391.5,640.7109,401.5,644.7109,391.5,648.7109,395.5,644.7109" style="stroke:#181818;stroke-width:1.0;"/><line style="stroke:#181818;stroke-width:1.0;" x1="28.5" x2="397.5" y1="644.7109" y2="644.7109"/><text fill="#000000" font-family="sans-serif" font-size="13" font-weight="bold" lengthAdjust="spacing" textLength="14" x="35.5" y="639.8545">16</text><text fill="#000000" font-family="sans-serif" font-size="13" lengthAdjust="spacing" textLength="124" x="53.5" y="639.8545">selects a To-Do entry</text><polygon fill="#181818" points="39.5,671.0625,29.5,675.0625,39.5,679.0625,35.5,675.0625" style="stroke:#181818;stroke-width:1.0;"/><line style="stroke:#181818;stroke-width:1.0;stroke-dasharray:2.0,2.0;" x1="33.5" x2="407.5" y1="675.0625" y2="675.0625"/><text fill="#000000" font-family="sans-serif" font-size="13" font-weight="bold" lengthAdjust="spacing" textLength="14" x="45.5" y="670.2061">17</text><text fill="#000000" font-family="sans-serif" font-size="13" lengthAdjust="spacing" textLength="252" x="63.5" y="670.2061">requests starting date for the selected entry</text><polygon fill="#181818" points="391.5,701.4141,401.5,705.4141,391.5,709.4141,395.5,705.4141" style="stroke:#181818;stroke-width:1.0;"/><line style="stroke:#181818;stroke-width:1.0;" x1="28.5" x2="397.5" y1="705.4141" y2="705.4141"/><text fill="#000000" font-family="sans-serif" font-size="13" font-weight="bold" lengthAdjust="spacing" textLength="14" x="35.5" y="700.5576">18</text><text fill="#000000" font-family="sans-serif" font-size="13" lengthAdjust="spacing" textLength="108" x="53.5" y="700.5576">types starting date</text><polygon fill="#181818" points="39.5,731.7656,29.5,735.7656,39.5,739.7656,35.5,735.7656" style="stroke:#181818;stroke-width:1.0;"/><line style="stroke:#181818;stroke-width:1.0;stroke-dasharray:2.0,2.0;" x1="33.5" x2="407.5" y1="735.7656" y2="735.7656"/><text fill="#000000" font-family="sans-serif" font-size="13" font-weight="bold" lengthAdjust="spacing" textLength="14" x="45.5" y="730.9092">19</text><text fill="#000000" font-family="sans-serif" font-size="13" lengthAdjust="spacing" textLength="266" x="63.5" y="730.9092">requests urgency status for the selected entry</text><polygon fill="#181818" points="391.5,762.1172,401.5,766.1172,391.5,770.1172,395.5,766.1172" style="stroke:#181818;stroke-width:1.0;"/><line style="stroke:#181818;stroke-width:1.0;" x1="28.5" x2="397.5" y1="766.1172" y2="766.1172"/><text fill="#000000" font-family="sans-serif" font-size="13" font-weight="bold" lengthAdjust="spacing" textLength="14" x="35.5" y="761.2607">20</text><text fill="#000000" font-family="sans-serif" font-size="13" lengthAdjust="spacing" textLength="132" x="53.5" y="761.2607">selects urgency status</text><polygon fill="#181818" points="39.5,792.4688,29.5,796.4688,39.5,800.4688,35.5,796.4688" style="stroke:#181818;stroke-width:1.0;"/><line style="stroke:#181818;stroke-width:1.0;stroke-dasharray:2.0,2.0;" x1="33.5" x2="407.5" y1="796.4688" y2="796.4688"/><text fill="#000000" font-family="sans-serif" font-size="13" font-weight="bold" lengthAdjust="spacing" textLength="14" x="45.5" y="791.6123">21</text><text fill="#000000" font-family="sans-serif" font-size="13" lengthAdjust="spacing" textLength="238" x="63.5" y="791.6123">Shows all data and requests confirmation</text><polygon fill="#181818" points="391.5,822.8203,401.5,826.8203,391.5,830.8203,395.5,826.8203" style="stroke:#181818;stroke-width:1.0;"/><line style="stroke:#181818;stroke-width:1.0;" x1="28.5" x2="397.5" y1="826.8203" y2="826.8203"/><text fill="#000000" font-family="sans-serif" font-size="13" font-weight="bold" lengthAdjust="spacing" textLength="14" x="35.5" y="821.9639">22</text><text fill="#000000" font-family="sans-serif" font-size="13" lengthAdjust="spacing" textLength="78" x="53.5" y="821.9639">confirms data</text><polygon fill="#181818" points="790.5,853.1719,800.5,857.1719,790.5,861.1719,794.5,857.1719" style="stroke:#181818;stroke-width:1.0;"/><line style="stroke:#181818;stroke-width:1.0;" x1="408.5" x2="796.5" y1="857.1719" y2="857.1719"/><text fill="#000000" font-family="sans-serif" font-size="13" font-weight="bold" lengthAdjust="spacing" textLength="14" x="415.5" y="852.3154">23</text><text fill="#000000" font-family="sans-serif" font-size="13" lengthAdjust="spacing" textLength="352" x="433.5" y="852.3154">addAgendaEntry(toDoEntryDto, startingDate, urgencyStatus)</text><polygon fill="#181818" points="1189.5,883.5234,1199.5,887.5234,1189.5,891.5234,1193.5,887.5234" style="stroke:#181818;stroke-width:1.0;"/><line style="stroke:#181818;stroke-width:1.0;" x1="807.5" x2="1195.5" y1="887.5234" y2="887.5234"/><text fill="#000000" font-family="sans-serif" font-size="13" font-weight="bold" lengthAdjust="spacing" textLength="14" x="814.5" y="882.667">24</text><text fill="#000000" font-family="sans-serif" font-size="13" lengthAdjust="spacing" textLength="352" x="832.5" y="882.667">addAgendaEntry(toDoEntryDto, startingDate, urgencyStatus)</text><polygon fill="#181818" points="1512.5,913.875,1522.5,917.875,1512.5,921.875,1516.5,917.875" style="stroke:#181818;stroke-width:1.0;"/><line style="stroke:#181818;stroke-width:1.0;" x1="1211.5" x2="1518.5" y1="917.875" y2="917.875"/><text fill="#000000" font-family="sans-serif" font-size="13" font-weight="bold" lengthAdjust="spacing" textLength="14" x="1218.5" y="913.0186">25</text><text fill="#000000" font-family="sans-serif" font-size="13" lengthAdjust="spacing" textLength="141" x="1236.5" y="913.0186">toDomain(toDoEntryDto)</text><polygon fill="#181818" points="1601.5,944.2266,1611.5,948.2266,1601.5,952.2266,1605.5,948.2266" style="stroke:#181818;stroke-width:1.0;"/><line style="stroke:#181818;stroke-width:1.0;" x1="1534.5" x2="1607.5" y1="948.2266" y2="948.2266"/><text fill="#000000" font-family="sans-serif" font-size="13" font-weight="bold" lengthAdjust="spacing" textLength="14" x="1541.5" y="943.3701">26</text><text fill="#000000" font-family="sans-serif" font-size="13" lengthAdjust="spacing" textLength="36" x="1559.5" y="943.3701">create</text><rect fill="#E3E3E3" height="49.2188" rx="2.5" ry="2.5" style="stroke:#181818;stroke-width:0.5;" width="100" x="1613.5" y="925.875"/><text fill="#000000" font-family="sans-serif" font-size="14" lengthAdjust="spacing" textLength="81" x="1623" y="947.4082">agendaEntry</text><text fill="#000000" font-family="sans-serif" font-size="14" lengthAdjust="spacing" textLength="86" x="1620.5" y="965.0176">:AgendaEntry</text><polygon fill="#181818" points="1545.5,1004.4453,1535.5,1008.4453,1545.5,1012.4453,1541.5,1008.4453" style="stroke:#181818;stroke-width:1.0;"/><line style="stroke:#181818;stroke-width:1.0;stroke-dasharray:2.0,2.0;" x1="1539.5" x2="1662.5" y1="1008.4453" y2="1008.4453"/><text fill="#000000" font-family="sans-serif" font-size="13" font-weight="bold" lengthAdjust="spacing" textLength="14" x="1551.5" y="1003.5889">27</text><text fill="#000000" font-family="sans-serif" font-size="13" lengthAdjust="spacing" textLength="73" x="1569.5" y="1003.5889">agendaEntry</text><polygon fill="#181818" points="1222.5,1034.7969,1212.5,1038.7969,1222.5,1042.7969,1218.5,1038.7969" style="stroke:#181818;stroke-width:1.0;"/><line style="stroke:#181818;stroke-width:1.0;stroke-dasharray:2.0,2.0;" x1="1216.5" x2="1528.5" y1="1038.7969" y2="1038.7969"/><text fill="#000000" font-family="sans-serif" font-size="13" font-weight="bold" lengthAdjust="spacing" textLength="14" x="1228.5" y="1033.9404">28</text><text fill="#000000" font-family="sans-serif" font-size="13" lengthAdjust="spacing" textLength="73" x="1246.5" y="1033.9404">agendaEntry</text><line style="stroke:#181818;stroke-width:1.0;" x1="1211.5" x2="1253.5" y1="1069.1484" y2="1069.1484"/><line style="stroke:#181818;stroke-width:1.0;" x1="1253.5" x2="1253.5" y1="1069.1484" y2="1082.1484"/><line style="stroke:#181818;stroke-width:1.0;" x1="1212.5" x2="1253.5" y1="1082.1484" y2="1082.1484"/><polygon fill="#181818" points="1222.5,1078.1484,1212.5,1082.1484,1222.5,1086.1484,1218.5,1082.1484" style="stroke:#181818;stroke-width:1.0;"/><text fill="#000000" font-family="sans-serif" font-size="13" font-weight="bold" lengthAdjust="spacing" textLength="14" x="1218.5" y="1064.292">29</text><text fill="#000000" font-family="sans-serif" font-size="13" lengthAdjust="spacing" textLength="249" x="1236.5" y="1064.292">setStartingDate(agendaEntry, startingDate)</text><line style="stroke:#181818;stroke-width:1.0;" x1="1211.5" x2="1253.5" y1="1112.5" y2="1112.5"/><line style="stroke:#181818;stroke-width:1.0;" x1="1253.5" x2="1253.5" y1="1112.5" y2="1125.5"/><line style="stroke:#181818;stroke-width:1.0;" x1="1212.5" x2="1253.5" y1="1125.5" y2="1125.5"/><polygon fill="#181818" points="1222.5,1121.5,1212.5,1125.5,1222.5,1129.5,1218.5,1125.5" style="stroke:#181818;stroke-width:1.0;"/><text fill="#000000" font-family="sans-serif" font-size="13" font-weight="bold" lengthAdjust="spacing" textLength="14" x="1218.5" y="1107.6436">30</text><text fill="#000000" font-family="sans-serif" font-size="13" lengthAdjust="spacing" textLength="281" x="1236.5" y="1107.6436">updateEntryStatus(agendaEntry, urgencyStatus)</text><polygon fill="#181818" points="823.5,1151.8516,813.5,1155.8516,823.5,1159.8516,819.5,1155.8516" style="stroke:#181818;stroke-width:1.0;"/><line style="stroke:#181818;stroke-width:1.0;stroke-dasharray:2.0,2.0;" x1="817.5" x2="1205.5" y1="1155.8516" y2="1155.8516"/><text fill="#000000" font-family="sans-serif" font-size="13" font-weight="bold" lengthAdjust="spacing" textLength="14" x="829.5" y="1150.9951">31</text><text fill="#000000" font-family="sans-serif" font-size="13" lengthAdjust="spacing" textLength="49" x="847.5" y="1150.9951">success</text><polygon fill="#181818" points="424.5,1182.2031,414.5,1186.2031,424.5,1190.2031,420.5,1186.2031" style="stroke:#181818;stroke-width:1.0;"/><line style="stroke:#181818;stroke-width:1.0;stroke-dasharray:2.0,2.0;" x1="418.5" x2="806.5" y1="1186.2031" y2="1186.2031"/><text fill="#000000" font-family="sans-serif" font-size="13" font-weight="bold" lengthAdjust="spacing" textLength="14" x="430.5" y="1181.3467">32</text><text fill="#000000" font-family="sans-serif" font-size="13" lengthAdjust="spacing" textLength="49" x="448.5" y="1181.3467">success</text><polygon fill="#181818" points="39.5,1212.5547,29.5,1216.5547,39.5,1220.5547,35.5,1216.5547" style="stroke:#181818;stroke-width:1.0;"/><line style="stroke:#181818;stroke-width:1.0;stroke-dasharray:2.0,2.0;" x1="33.5" x2="407.5" y1="1216.5547" y2="1216.5547"/><text fill="#000000" font-family="sans-serif" font-size="13" font-weight="bold" lengthAdjust="spacing" textLength="14" x="45.5" y="1211.6982">33</text><text fill="#000000" font-family="sans-serif" font-size="13" lengthAdjust="spacing" textLength="325" x="63.5" y="1211.6982">displays a success message (entry added successfully)</text><!--SRC=[hLPDRzim3BtdLn0z9K7x1t8eq3N3KA35XYQzxQBPIYhKbZnBNk5_FqgEPL6MqWoh3_cGoFT8aNgqVXEoOIsheLPI5Q-jgZcOjkCBxNSQLhon8z-PlkBGyi8mUQn20_tAIlKkv14EhD9yiM2TKRAhV_4MVnT6jN3rRVTq1Km3VY_GouX2D4mQkDhSbUNTaSkIVPMcxLyUdDdBmrchUuMVggfuwwplzy-FaVqpRvGMI2suTZP-eTy96pz6I5tQmEEdd0FyUBpRKmzkGvbmqUahNN5-VYtEQ4hdYJNDAPNPAlLYqpRI1SQnSqIsLriLKqLhrCECcrkZa6aV_ANEkE2ABFummrrv5u0F_e2RMwmZRB1dVdTS6mr60IjBO23vExZJ0o71lF9JvCxJOs4Fk0Nx80wYsJh3Uhs1ekLeuNUzYsi4lsmVvuAkYV9ZP4Tk7gJ6XYxuSaNyF6IgRuYbVLBeDsF0zW2cNYA-9R-SPyp4zk4GUjHjkGnSuv8j1n745pLoBaGA56mCnvwgbelJzygZq6Q9dR7wbyhvBETONte4eu2fo9AdCbrBik-N_Vbim8ISEQO9BqcNpo-wXk3uZ79dHPWpvOslCR6gb6hcxHfJXb4WzNeDiokMftK2a6N0NNUIoIodtBRxxpECu709MMY3ga79PwbDNJv9MaIM8aeTvb2nKTL2XIIDCRiOz5fOPTpWp5JlsabVXRwW3aXzirNkAg9A09CbqKtDAvoyeEHGae1ZbCbGSGThH0bG-_FgwYFphAYBE11mgfVM_e1Jt8OxGFComFmW6DCtF4BBXvA9fMjnG1IzHJ6T_ezWnfEXWEbuI2WxLp1MLJO1HkjJA7aGRSsCGD7-A8ZDQAuTqaKpRsFdPZ3Tbs7pNVkptIB4zPZQpcMsIhKbicG4whm2VqeSdwZGj_FNfTF5h9cG9BYCUCvVjsOoDAUWl1UfPVXcTex1DLmggU35xvnGPdaIMSILpJ2aqNEdHQeJmcjkTa5xB0CwsZYhop6xneg9MncwZA963VZ1dBSnTaN1jVwK4K-7HOYSQlxpsbCAtLIijtf-0e8QFp1PM0wlqNWjKGLFcuUkglhLWbxulm00]--></g></svg>