<?xml version="1.0" encoding="UTF-8" standalone="no"?><svg xmlns="http://www.w3.org/2000/svg" xmlns:xlink="http://www.w3.org/1999/xlink" contentStyleType="text/css" height="405px" preserveAspectRatio="none" style="width:634px;height:405px;background:#FFFFFF;" version="1.1" viewBox="0 0 634 405" width="634px" zoomAndPan="magnify"><defs/><g><text fill="#000000" font-family="sans-serif" font-size="14" font-weight="bold" lengthAdjust="spacing" textLength="284" x="174.25" y="29.5332">System Sequence Diagram (SSD) - US006</text><rect fill="#FFFFFF" height="183.1094" style="stroke:#181818;stroke-width:1.0;" width="10" x="16.5" y="131.2188"/><rect fill="#FFFFFF" height="30.3516" style="stroke:#181818;stroke-width:1.0;" width="10" x="591.5" y="153.5703"/><rect fill="#FFFFFF" height="30.3516" style="stroke:#181818;stroke-width:1.0;" width="10" x="591.5" y="214.2734"/><rect fill="#FFFFFF" height="30.3516" style="stroke:#181818;stroke-width:1.0;" width="10" x="591.5" y="274.9766"/><line style="stroke:#181818;stroke-width:0.5;stroke-dasharray:5.0,5.0;" x1="21" x2="21" y1="121.2188" y2="323.3281"/><line style="stroke:#181818;stroke-width:0.5;stroke-dasharray:5.0,5.0;" x1="596.5" x2="596.5" y1="121.2188" y2="323.3281"/><text fill="#000000" font-family="sans-serif" font-size="14" lengthAdjust="spacing" textLength="27" x="5" y="118.1426">CLB</text><ellipse cx="21.5" cy="52.1094" fill="#E3E3E3" rx="8" ry="8" style="stroke:#181818;stroke-width:0.5;"/><path d="M21.5,60.1094 L21.5,87.1094 M8.5,68.1094 L34.5,68.1094 M21.5,87.1094 L8.5,102.1094 M21.5,87.1094 L34.5,102.1094 " fill="none" style="stroke:#181818;stroke-width:0.5;"/><text fill="#000000" font-family="sans-serif" font-size="14" lengthAdjust="spacing" textLength="27" x="5" y="336.8613">CLB</text><ellipse cx="21.5" cy="348.4375" fill="#E3E3E3" rx="8" ry="8" style="stroke:#181818;stroke-width:0.5;"/><path d="M21.5,356.4375 L21.5,383.4375 M8.5,364.4375 L34.5,364.4375 M21.5,383.4375 L8.5,398.4375 M21.5,383.4375 L34.5,398.4375 " fill="none" style="stroke:#181818;stroke-width:0.5;"/><rect fill="#E3E3E3" height="31.6094" rx="2.5" ry="2.5" style="stroke:#181818;stroke-width:0.5;" width="64" x="564.5" y="88.6094"/><text fill="#000000" font-family="sans-serif" font-size="14" lengthAdjust="spacing" textLength="50" x="571.5" y="110.1426">:System</text><rect fill="#E3E3E3" height="31.6094" rx="2.5" ry="2.5" style="stroke:#181818;stroke-width:0.5;" width="64" x="564.5" y="322.3281"/><text fill="#000000" font-family="sans-serif" font-size="14" lengthAdjust="spacing" textLength="50" x="571.5" y="343.8613">:System</text><rect fill="#FFFFFF" height="183.1094" style="stroke:#181818;stroke-width:1.0;" width="10" x="16.5" y="131.2188"/><rect fill="#FFFFFF" height="30.3516" style="stroke:#181818;stroke-width:1.0;" width="10" x="591.5" y="153.5703"/><rect fill="#FFFFFF" height="30.3516" style="stroke:#181818;stroke-width:1.0;" width="10" x="591.5" y="214.2734"/><rect fill="#FFFFFF" height="30.3516" style="stroke:#181818;stroke-width:1.0;" width="10" x="591.5" y="274.9766"/><polygon fill="#181818" points="579.5,149.5703,589.5,153.5703,579.5,157.5703,583.5,153.5703" style="stroke:#181818;stroke-width:1.0;"/><line style="stroke:#181818;stroke-width:1.0;" x1="26.5" x2="585.5" y1="153.5703" y2="153.5703"/><text fill="#000000" font-family="sans-serif" font-size="13" font-weight="bold" lengthAdjust="spacing" textLength="7" x="33.5" y="148.7139">1</text><text fill="#000000" font-family="sans-serif" font-size="13" lengthAdjust="spacing" textLength="180" x="44.5" y="148.7139">asks to record a complete task</text><polygon fill="#181818" points="37.5,179.9219,27.5,183.9219,37.5,187.9219,33.5,183.9219" style="stroke:#181818;stroke-width:1.0;"/><line style="stroke:#181818;stroke-width:1.0;stroke-dasharray:2.0,2.0;" x1="31.5" x2="595.5" y1="183.9219" y2="183.9219"/><text fill="#000000" font-family="sans-serif" font-size="13" font-weight="bold" lengthAdjust="spacing" textLength="7" x="43.5" y="179.0654">2</text><text fill="#000000" font-family="sans-serif" font-size="13" lengthAdjust="spacing" textLength="530" x="54.5" y="179.0654">shows the list of the task assign to the collaborator and requests to select the one to record</text><polygon fill="#181818" points="579.5,210.2734,589.5,214.2734,579.5,218.2734,583.5,214.2734" style="stroke:#181818;stroke-width:1.0;"/><line style="stroke:#181818;stroke-width:1.0;" x1="26.5" x2="585.5" y1="214.2734" y2="214.2734"/><text fill="#000000" font-family="sans-serif" font-size="13" font-weight="bold" lengthAdjust="spacing" textLength="7" x="33.5" y="209.417">3</text><text fill="#000000" font-family="sans-serif" font-size="13" lengthAdjust="spacing" textLength="106" x="44.5" y="209.417">select assign task</text><polygon fill="#181818" points="37.5,240.625,27.5,244.625,37.5,248.625,33.5,244.625" style="stroke:#181818;stroke-width:1.0;"/><line style="stroke:#181818;stroke-width:1.0;stroke-dasharray:2.0,2.0;" x1="31.5" x2="595.5" y1="244.625" y2="244.625"/><text fill="#000000" font-family="sans-serif" font-size="13" font-weight="bold" lengthAdjust="spacing" textLength="7" x="43.5" y="239.7686">4</text><text fill="#000000" font-family="sans-serif" font-size="13" lengthAdjust="spacing" textLength="212" x="54.5" y="239.7686">show task and requests confirmation</text><polygon fill="#181818" points="579.5,270.9766,589.5,274.9766,579.5,278.9766,583.5,274.9766" style="stroke:#181818;stroke-width:1.0;"/><line style="stroke:#181818;stroke-width:1.0;" x1="26.5" x2="585.5" y1="274.9766" y2="274.9766"/><text fill="#000000" font-family="sans-serif" font-size="13" font-weight="bold" lengthAdjust="spacing" textLength="7" x="33.5" y="270.1201">5</text><text fill="#000000" font-family="sans-serif" font-size="13" lengthAdjust="spacing" textLength="78" x="44.5" y="270.1201">confirms data</text><polygon fill="#181818" points="37.5,301.3281,27.5,305.3281,37.5,309.3281,33.5,305.3281" style="stroke:#181818;stroke-width:1.0;"/><line style="stroke:#181818;stroke-width:1.0;stroke-dasharray:2.0,2.0;" x1="31.5" x2="595.5" y1="305.3281" y2="305.3281"/><text fill="#000000" font-family="sans-serif" font-size="13" font-weight="bold" lengthAdjust="spacing" textLength="7" x="43.5" y="300.4717">6</text><text fill="#000000" font-family="sans-serif" font-size="13" lengthAdjust="spacing" textLength="327" x="54.5" y="300.4717">displays success message (Task record has completed)</text><!--SRC=[dLAzKiCm3Dxp5BfExT0x9eOE3D2HBV00ggCcljfMi1HwVNjaDoqz3eRY8TP5dxuVstBmQSIC4I8dTaFcIA1veaQkdH7T0NjgzHG8CZd5r8TRW0pOyT6d7lOOX9f6lHgqFObIX9O-9agEOEknB_1bssvNi8Rtzk7XiMbmKavJt56ssYbdMBoyFYy01MnlJ4AzyoCcXSNcp5cRvxBE-4zKgkW6R5a1wwUB_iR01m7bufrp1mYEunZ8HjHQTUHASc65USqaQ-Chj1iBoqTZ6mY25mNUrxeGcOxuFXMbyijn2BZZZ2KIfixaxI14gnMXO0TPSPpesrpLxUXNEpzZpHmNrHBb7rbcwxV-7AUzpn7LSxh7q3mdqA7YdLQWyp86F0d8v1o9GBIFFJjOlXM3yzqDADVRwrP_cFi2]--></g></svg>