<?xml version="1.0" encoding="UTF-8" standalone="no"?><svg xmlns="http://www.w3.org/2000/svg" xmlns:xlink="http://www.w3.org/1999/xlink" contentStyleType="text/css" height="1316px" preserveAspectRatio="none" style="width:3508px;height:1316px;background:#FFFFFF;" version="1.1" viewBox="0 0 3508 1316" width="3508px" zoomAndPan="magnify"><defs/><g><!--cluster UI--><g id="cluster_UI"><path d="M1503.5,6 L1518.5,6 A3.75,3.75 0 0 1 1521,8.5 L1528,29.6094 L1716.5,29.6094 A2.5,2.5 0 0 1 1719,32.1094 L1719,103.5 A2.5,2.5 0 0 1 1716.5,106 L1503.5,106 A2.5,2.5 0 0 1 1501,103.5 L1501,8.5 A2.5,2.5 0 0 1 1503.5,6 " fill="none" style="stroke:#000000;stroke-width:1.5;"/><line style="stroke:#000000;stroke-width:1.5;" x1="1501" x2="1528" y1="29.6094" y2="29.6094"/><text fill="#000000" font-family="sans-serif" font-size="14" font-weight="bold" lengthAdjust="spacing" textLength="14" x="1505" y="22.5332">UI</text></g><!--cluster CONTROLLER--><g id="cluster_CONTROLLER"><path d="M1379.5,139 L1475.5,139 A3.75,3.75 0 0 1 1478,141.5 L1485,162.6094 L1840.5,162.6094 A2.5,2.5 0 0 1 1843,165.1094 L1843,342.5 A2.5,2.5 0 0 1 1840.5,345 L1379.5,345 A2.5,2.5 0 0 1 1377,342.5 L1377,141.5 A2.5,2.5 0 0 1 1379.5,139 " fill="none" style="stroke:#000000;stroke-width:1.5;"/><line style="stroke:#000000;stroke-width:1.5;" x1="1377" x2="1485" y1="162.6094" y2="162.6094"/><text fill="#000000" font-family="sans-serif" font-size="14" font-weight="bold" lengthAdjust="spacing" textLength="95" x="1381" y="155.5332">CONTROLLER</text></g><!--cluster DOMAIN--><g id="cluster_DOMAIN"><path d="M8.5,395 L66.5,395 A3.75,3.75 0 0 1 69,397.5 L76,418.6094 L1878.5,418.6094 A2.5,2.5 0 0 1 1881,421.1094 L1881,1234 A2.5,2.5 0 0 1 1878.5,1236.5 L8.5,1236.5 A2.5,2.5 0 0 1 6,1234 L6,397.5 A2.5,2.5 0 0 1 8.5,395 " fill="none" style="stroke:#000000;stroke-width:1.5;"/><line style="stroke:#000000;stroke-width:1.5;" x1="6" x2="76" y1="418.6094" y2="418.6094"/><text fill="#000000" font-family="sans-serif" font-size="14" font-weight="bold" lengthAdjust="spacing" textLength="57" x="10" y="411.5332">DOMAIN</text></g><!--cluster REPOSITORY--><g id="cluster_REPOSITORY"><path d="M947.5,439 L1039.5,439 A3.75,3.75 0 0 1 1042,441.5 L1049,462.6094 L1606.5,462.6094 A2.5,2.5 0 0 1 1609,465.1094 L1609,826 A2.5,2.5 0 0 1 1606.5,828.5 L947.5,828.5 A2.5,2.5 0 0 1 945,826 L945,441.5 A2.5,2.5 0 0 1 947.5,439 " fill="none" style="stroke:#000000;stroke-width:1.5;"/><line style="stroke:#000000;stroke-width:1.5;" x1="945" x2="1049" y1="462.6094" y2="462.6094"/><text fill="#000000" font-family="sans-serif" font-size="14" font-weight="bold" lengthAdjust="spacing" textLength="91" x="949" y="455.5332">REPOSITORY</text></g><!--cluster MODEL--><g id="cluster_MODEL"><path d="M32.5,936.5 L84.5,936.5 A3.75,3.75 0 0 1 87,939 L94,960.1094 L1854.5,960.1094 A2.5,2.5 0 0 1 1857,962.6094 L1857,1210 A2.5,2.5 0 0 1 1854.5,1212.5 L32.5,1212.5 A2.5,2.5 0 0 1 30,1210 L30,939 A2.5,2.5 0 0 1 32.5,936.5 " fill="none" style="stroke:#000000;stroke-width:1.5;"/><line style="stroke:#000000;stroke-width:1.5;" x1="30" x2="94" y1="960.1094" y2="960.1094"/><text fill="#000000" font-family="sans-serif" font-size="14" font-weight="bold" lengthAdjust="spacing" textLength="51" x="34" y="953.0332">MODEL</text></g><!--cluster EXTERNAL--><g id="cluster_EXTERNAL"><path d="M1907.5,456.5 L1980.5,456.5 A3.75,3.75 0 0 1 1983,459 L1990,480.1094 L2186.5,480.1094 A2.5,2.5 0 0 1 2189,482.6094 L2189,607 A2.5,2.5 0 0 1 2186.5,609.5 L1907.5,609.5 A2.5,2.5 0 0 1 1905,607 L1905,459 A2.5,2.5 0 0 1 1907.5,456.5 " fill="none" style="stroke:#000000;stroke-width:1.5;"/><line style="stroke:#000000;stroke-width:1.5;" x1="1905" x2="1990" y1="480.1094" y2="480.1094"/><text fill="#000000" font-family="sans-serif" font-size="14" font-weight="bold" lengthAdjust="spacing" textLength="72" x="1909" y="473.0332">EXTERNAL</text></g><!--cluster DTO--><g id="cluster_DTO"><path d="M1907.5,658 L1937.5,658 A3.75,3.75 0 0 1 1940,660.5 L1947,681.6094 L3498.5,681.6094 A2.5,2.5 0 0 1 3501,684.1094 L3501,1307 A2.5,2.5 0 0 1 3498.5,1309.5 L1907.5,1309.5 A2.5,2.5 0 0 1 1905,1307 L1905,660.5 A2.5,2.5 0 0 1 1907.5,658 " fill="none" style="stroke:#000000;stroke-width:1.5;"/><line style="stroke:#000000;stroke-width:1.5;" x1="1905" x2="1947" y1="681.6094" y2="681.6094"/><text fill="#000000" font-family="sans-serif" font-size="14" font-weight="bold" lengthAdjust="spacing" textLength="29" x="1909" y="674.5332">DTO</text></g><!--class PostponeAgendaEntryUI--><g id="elem_PostponeAgendaEntryUI"><rect codeLine="5" fill="#F1F1F1" height="48" id="PostponeAgendaEntryUI" rx="2.5" ry="2.5" style="stroke:#181818;stroke-width:0.5;" width="186" x="1517" y="42"/><ellipse cx="1532" cy="58" fill="#ADD1B2" rx="11" ry="11" style="stroke:#181818;stroke-width:1.0;"/><path d="M1534.7656,53.875 Q1534.9219,53.6563 1535.1094,53.5469 Q1535.2969,53.4375 1535.5156,53.4375 Q1535.8906,53.4375 1536.125,53.7031 Q1536.3594,53.9531 1536.3594,54.5625 L1536.3594,56.0156 Q1536.3594,56.625 1536.125,56.8906 Q1535.8906,57.1563 1535.5156,57.1563 Q1535.1719,57.1563 1534.9688,56.9531 Q1534.7656,56.7656 1534.6563,56.25 Q1534.6094,55.8906 1534.4219,55.7031 Q1534.0938,55.3281 1533.4844,55.1094 Q1532.875,54.8906 1532.25,54.8906 Q1531.4844,54.8906 1530.8438,55.2188 Q1530.2188,55.5469 1529.7188,56.2969 Q1529.2344,57.0469 1529.2344,58.0781 L1529.2344,59.1719 Q1529.2344,60.4063 1530.125,61.2344 Q1531.0156,62.0469 1532.6094,62.0469 Q1533.5469,62.0469 1534.2031,61.7969 Q1534.5938,61.6406 1535.0156,61.2031 Q1535.2813,60.9375 1535.4219,60.8594 Q1535.5781,60.7813 1535.7813,60.7813 Q1536.1094,60.7813 1536.3594,61.0469 Q1536.625,61.2969 1536.625,61.6406 Q1536.625,61.9844 1536.2813,62.3906 Q1535.7813,62.9688 1534.9844,63.2969 Q1533.9063,63.75 1532.6094,63.75 Q1531.0938,63.75 1529.8906,63.125 Q1528.9063,62.625 1528.2188,61.5625 Q1527.5313,60.4844 1527.5313,59.2031 L1527.5313,58.0469 Q1527.5313,56.7188 1528.1406,55.5781 Q1528.7656,54.4219 1529.8594,53.8125 Q1530.9531,53.1875 1532.1875,53.1875 Q1532.9219,53.1875 1533.5625,53.3594 Q1534.2188,53.5156 1534.7656,53.875 Z " fill="#000000"/><text fill="#000000" font-family="sans-serif" font-size="14" lengthAdjust="spacing" textLength="154" x="1546" y="63.7285">PostponeAgendaEntryUI</text><line style="stroke:#181818;stroke-width:0.5;" x1="1518" x2="1702" y1="74" y2="74"/><line style="stroke:#181818;stroke-width:0.5;" x1="1518" x2="1702" y1="82" y2="82"/></g><!--class CancelAgendaEntryController--><g id="elem_CancelAgendaEntryController"><rect codeLine="10" fill="#F1F1F1" height="153.6563" id="CancelAgendaEntryController" rx="2.5" ry="2.5" style="stroke:#181818;stroke-width:0.5;" width="433" x="1393.5" y="175"/><ellipse cx="1511.75" cy="191" fill="#ADD1B2" rx="11" ry="11" style="stroke:#181818;stroke-width:1.0;"/><path d="M1514.5156,186.875 Q1514.6719,186.6563 1514.8594,186.5469 Q1515.0469,186.4375 1515.2656,186.4375 Q1515.6406,186.4375 1515.875,186.7031 Q1516.1094,186.9531 1516.1094,187.5625 L1516.1094,189.0156 Q1516.1094,189.625 1515.875,189.8906 Q1515.6406,190.1563 1515.2656,190.1563 Q1514.9219,190.1563 1514.7188,189.9531 Q1514.5156,189.7656 1514.4063,189.25 Q1514.3594,188.8906 1514.1719,188.7031 Q1513.8438,188.3281 1513.2344,188.1094 Q1512.625,187.8906 1512,187.8906 Q1511.2344,187.8906 1510.5938,188.2188 Q1509.9688,188.5469 1509.4688,189.2969 Q1508.9844,190.0469 1508.9844,191.0781 L1508.9844,192.1719 Q1508.9844,193.4063 1509.875,194.2344 Q1510.7656,195.0469 1512.3594,195.0469 Q1513.2969,195.0469 1513.9531,194.7969 Q1514.3438,194.6406 1514.7656,194.2031 Q1515.0313,193.9375 1515.1719,193.8594 Q1515.3281,193.7813 1515.5313,193.7813 Q1515.8594,193.7813 1516.1094,194.0469 Q1516.375,194.2969 1516.375,194.6406 Q1516.375,194.9844 1516.0313,195.3906 Q1515.5313,195.9688 1514.7344,196.2969 Q1513.6563,196.75 1512.3594,196.75 Q1510.8438,196.75 1509.6406,196.125 Q1508.6563,195.625 1507.9688,194.5625 Q1507.2813,193.4844 1507.2813,192.2031 L1507.2813,191.0469 Q1507.2813,189.7188 1507.8906,188.5781 Q1508.5156,187.4219 1509.6094,186.8125 Q1510.7031,186.1875 1511.9375,186.1875 Q1512.6719,186.1875 1513.3125,186.3594 Q1513.9688,186.5156 1514.5156,186.875 Z " fill="#000000"/><text fill="#000000" font-family="sans-serif" font-size="14" lengthAdjust="spacing" textLength="188" x="1532.25" y="196.7285">CancelAgendaEntryController</text><line style="stroke:#181818;stroke-width:0.5;" x1="1394.5" x2="1825.5" y1="207" y2="207"/><rect fill="none" height="6" style="stroke:#C82930;stroke-width:1.0;" width="6" x="1401.5" y="218.3047"/><text fill="#000000" font-family="sans-serif" font-size="14" lengthAdjust="spacing" textLength="161" x="1413.5" y="225.5332">repositories: Repositories</text><rect fill="none" height="6" style="stroke:#C82930;stroke-width:1.0;" width="6" x="1401.5" y="235.9141"/><text fill="#000000" font-family="sans-serif" font-size="14" lengthAdjust="spacing" textLength="209" x="1413.5" y="243.1426">entryRepository: EntryRepository</text><line style="stroke:#181818;stroke-width:0.5;" x1="1394.5" x2="1825.5" y1="250.2188" y2="250.2188"/><ellipse cx="1404.5" cy="264.5234" fill="#84BE84" rx="3" ry="3" style="stroke:#038048;stroke-width:1.0;"/><text fill="#000000" font-family="sans-serif" font-size="14" lengthAdjust="spacing" textLength="198" x="1413.5" y="268.752">CancelAgendaEntryController()</text><ellipse cx="1404.5" cy="282.1328" fill="#84BE84" rx="3" ry="3" style="stroke:#038048;stroke-width:1.0;"/><text fill="#000000" font-family="sans-serif" font-size="14" lengthAdjust="spacing" textLength="397" x="1413.5" y="286.3613">getAgendaEntryList(gsm: UserSession): List&lt;AgendaEntryDto&gt;</text><ellipse cx="1404.5" cy="299.7422" fill="#84BE84" rx="3" ry="3" style="stroke:#038048;stroke-width:1.0;"/><text fill="#000000" font-family="sans-serif" font-size="14" lengthAdjust="spacing" textLength="407" x="1413.5" y="303.9707">cancelAgendaEntry(agendaEntryDto: AgendaEntryDto): boolean</text><rect fill="#F24D5C" height="6" style="stroke:#C82930;stroke-width:1.0;" width="6" x="1401.5" y="314.3516"/><text fill="#000000" font-family="sans-serif" font-size="14" lengthAdjust="spacing" textLength="354" x="1413.5" y="321.5801">notifyTeam(agendaEntryDto: AgendaEntryDto): boolean</text></g><!--class Repositories--><g id="elem_Repositories"><rect codeLine="22" fill="#F1F1F1" height="136.0469" id="Repositories" rx="2.5" ry="2.5" style="stroke:#181818;stroke-width:0.5;" width="266" x="1156" y="475"/><ellipse cx="1245.25" cy="491" fill="#ADD1B2" rx="11" ry="11" style="stroke:#181818;stroke-width:1.0;"/><path d="M1248.0156,486.875 Q1248.1719,486.6563 1248.3594,486.5469 Q1248.5469,486.4375 1248.7656,486.4375 Q1249.1406,486.4375 1249.375,486.7031 Q1249.6094,486.9531 1249.6094,487.5625 L1249.6094,489.0156 Q1249.6094,489.625 1249.375,489.8906 Q1249.1406,490.1563 1248.7656,490.1563 Q1248.4219,490.1563 1248.2188,489.9531 Q1248.0156,489.7656 1247.9063,489.25 Q1247.8594,488.8906 1247.6719,488.7031 Q1247.3438,488.3281 1246.7344,488.1094 Q1246.125,487.8906 1245.5,487.8906 Q1244.7344,487.8906 1244.0938,488.2188 Q1243.4688,488.5469 1242.9688,489.2969 Q1242.4844,490.0469 1242.4844,491.0781 L1242.4844,492.1719 Q1242.4844,493.4063 1243.375,494.2344 Q1244.2656,495.0469 1245.8594,495.0469 Q1246.7969,495.0469 1247.4531,494.7969 Q1247.8438,494.6406 1248.2656,494.2031 Q1248.5313,493.9375 1248.6719,493.8594 Q1248.8281,493.7813 1249.0313,493.7813 Q1249.3594,493.7813 1249.6094,494.0469 Q1249.875,494.2969 1249.875,494.6406 Q1249.875,494.9844 1249.5313,495.3906 Q1249.0313,495.9688 1248.2344,496.2969 Q1247.1563,496.75 1245.8594,496.75 Q1244.3438,496.75 1243.1406,496.125 Q1242.1563,495.625 1241.4688,494.5625 Q1240.7813,493.4844 1240.7813,492.2031 L1240.7813,491.0469 Q1240.7813,489.7188 1241.3906,488.5781 Q1242.0156,487.4219 1243.1094,486.8125 Q1244.2031,486.1875 1245.4375,486.1875 Q1246.1719,486.1875 1246.8125,486.3594 Q1247.4688,486.5156 1248.0156,486.875 Z " fill="#000000"/><text fill="#000000" font-family="sans-serif" font-size="14" lengthAdjust="spacing" textLength="79" x="1265.75" y="496.7285">Repositories</text><line style="stroke:#181818;stroke-width:0.5;" x1="1157" x2="1421" y1="507" y2="507"/><rect fill="none" height="6" style="stroke:#C82930;stroke-width:1.0;" width="6" x="1164" y="518.3047"/><text fill="#000000" font-family="sans-serif" font-size="14" lengthAdjust="spacing" textLength="140" x="1176" y="525.5332">instance: Repositories</text><rect fill="none" height="6" style="stroke:#C82930;stroke-width:1.0;" width="6" x="1164" y="535.9141"/><text fill="#000000" font-family="sans-serif" font-size="14" lengthAdjust="spacing" textLength="209" x="1176" y="543.1426">entryRepository: EntryRepository</text><line style="stroke:#181818;stroke-width:0.5;" x1="1157" x2="1421" y1="550.2188" y2="550.2188"/><ellipse cx="1167" cy="564.5234" fill="#84BE84" rx="3" ry="3" style="stroke:#038048;stroke-width:1.0;"/><text fill="#000000" font-family="sans-serif" font-size="14" lengthAdjust="spacing" textLength="89" x="1176" y="568.752">Repositories()</text><ellipse cx="1167" cy="582.1328" fill="#84BE84" rx="3" ry="3" style="stroke:#038048;stroke-width:1.0;"/><text fill="#000000" font-family="sans-serif" font-size="14" lengthAdjust="spacing" textLength="170" x="1176" y="586.3613">getInstance(): Repositories</text><ellipse cx="1167" cy="599.7422" fill="#84BE84" rx="3" ry="3" style="stroke:#038048;stroke-width:1.0;"/><text fill="#000000" font-family="sans-serif" font-size="14" lengthAdjust="spacing" textLength="240" x="1176" y="603.9707">getEntryRepository(): EntryRepository</text></g><!--class EntryRepository--><g id="elem_EntryRepository"><rect codeLine="30" fill="#F1F1F1" height="136.0469" id="EntryRepository" rx="2.5" ry="2.5" style="stroke:#181818;stroke-width:0.5;" width="631" x="961.5" y="676.5"/><ellipse cx="1222.25" cy="692.5" fill="#ADD1B2" rx="11" ry="11" style="stroke:#181818;stroke-width:1.0;"/><path d="M1225.0156,688.375 Q1225.1719,688.1563 1225.3594,688.0469 Q1225.5469,687.9375 1225.7656,687.9375 Q1226.1406,687.9375 1226.375,688.2031 Q1226.6094,688.4531 1226.6094,689.0625 L1226.6094,690.5156 Q1226.6094,691.125 1226.375,691.3906 Q1226.1406,691.6563 1225.7656,691.6563 Q1225.4219,691.6563 1225.2188,691.4531 Q1225.0156,691.2656 1224.9063,690.75 Q1224.8594,690.3906 1224.6719,690.2031 Q1224.3438,689.8281 1223.7344,689.6094 Q1223.125,689.3906 1222.5,689.3906 Q1221.7344,689.3906 1221.0938,689.7188 Q1220.4688,690.0469 1219.9688,690.7969 Q1219.4844,691.5469 1219.4844,692.5781 L1219.4844,693.6719 Q1219.4844,694.9063 1220.375,695.7344 Q1221.2656,696.5469 1222.8594,696.5469 Q1223.7969,696.5469 1224.4531,696.2969 Q1224.8438,696.1406 1225.2656,695.7031 Q1225.5313,695.4375 1225.6719,695.3594 Q1225.8281,695.2813 1226.0313,695.2813 Q1226.3594,695.2813 1226.6094,695.5469 Q1226.875,695.7969 1226.875,696.1406 Q1226.875,696.4844 1226.5313,696.8906 Q1226.0313,697.4688 1225.2344,697.7969 Q1224.1563,698.25 1222.8594,698.25 Q1221.3438,698.25 1220.1406,697.625 Q1219.1563,697.125 1218.4688,696.0625 Q1217.7813,694.9844 1217.7813,693.7031 L1217.7813,692.5469 Q1217.7813,691.2188 1218.3906,690.0781 Q1219.0156,688.9219 1220.1094,688.3125 Q1221.2031,687.6875 1222.4375,687.6875 Q1223.1719,687.6875 1223.8125,687.8594 Q1224.4688,688.0156 1225.0156,688.375 Z " fill="#000000"/><text fill="#000000" font-family="sans-serif" font-size="14" lengthAdjust="spacing" textLength="101" x="1242.75" y="698.2285">EntryRepository</text><line style="stroke:#181818;stroke-width:0.5;" x1="962.5" x2="1591.5" y1="708.5" y2="708.5"/><rect fill="none" height="6" style="stroke:#C82930;stroke-width:1.0;" width="6" x="969.5" y="719.8047"/><text fill="#000000" font-family="sans-serif" font-size="14" lengthAdjust="spacing" textLength="231" x="981.5" y="727.0332">agendaEntryList: List&lt;AgendaEntry&gt;</text><line style="stroke:#181818;stroke-width:0.5;" x1="962.5" x2="1591.5" y1="734.1094" y2="734.1094"/><ellipse cx="972.5" cy="748.4141" fill="#84BE84" rx="3" ry="3" style="stroke:#038048;stroke-width:1.0;"/><text fill="#000000" font-family="sans-serif" font-size="14" lengthAdjust="spacing" textLength="111" x="981.5" y="752.6426">EntryRepository()</text><ellipse cx="972.5" cy="766.0234" fill="#84BE84" rx="3" ry="3" style="stroke:#038048;stroke-width:1.0;"/><text fill="#000000" font-family="sans-serif" font-size="14" lengthAdjust="spacing" textLength="444" x="981.5" y="770.252">getAgendaEntryListByGSM(gsm: UserSession): List&lt;AgendaEntryDto&gt;</text><ellipse cx="972.5" cy="783.6328" fill="#84BE84" rx="3" ry="3" style="stroke:#038048;stroke-width:1.0;"/><text fill="#000000" font-family="sans-serif" font-size="14" lengthAdjust="spacing" textLength="605" x="981.5" y="787.8613">updateAgendaEntry(agendaEntryDto: AgendaEntryDto, CANCELLED: ProgressStatus): boolean</text><rect fill="#F24D5C" height="6" style="stroke:#C82930;stroke-width:1.0;" width="6" x="969.5" y="798.2422"/><text fill="#000000" font-family="sans-serif" font-size="14" lengthAdjust="spacing" textLength="527" x="981.5" y="805.4707">updateEntryStatus(agendaEntry: AgendaEntry, CANCELLED: ProgressStatus): void</text></g><!--class AgendaEntry--><g id="elem_AgendaEntry"><rect codeLine="42" fill="#F1F1F1" height="224.0938" id="AgendaEntry" rx="2.5" ry="2.5" style="stroke:#181818;stroke-width:0.5;" width="1128" x="713" y="972.5"/><ellipse cx="1231.75" cy="988.5" fill="#ADD1B2" rx="11" ry="11" style="stroke:#181818;stroke-width:1.0;"/><path d="M1234.5156,984.375 Q1234.6719,984.1563 1234.8594,984.0469 Q1235.0469,983.9375 1235.2656,983.9375 Q1235.6406,983.9375 1235.875,984.2031 Q1236.1094,984.4531 1236.1094,985.0625 L1236.1094,986.5156 Q1236.1094,987.125 1235.875,987.3906 Q1235.6406,987.6563 1235.2656,987.6563 Q1234.9219,987.6563 1234.7188,987.4531 Q1234.5156,987.2656 1234.4063,986.75 Q1234.3594,986.3906 1234.1719,986.2031 Q1233.8438,985.8281 1233.2344,985.6094 Q1232.625,985.3906 1232,985.3906 Q1231.2344,985.3906 1230.5938,985.7188 Q1229.9688,986.0469 1229.4688,986.7969 Q1228.9844,987.5469 1228.9844,988.5781 L1228.9844,989.6719 Q1228.9844,990.9063 1229.875,991.7344 Q1230.7656,992.5469 1232.3594,992.5469 Q1233.2969,992.5469 1233.9531,992.2969 Q1234.3438,992.1406 1234.7656,991.7031 Q1235.0313,991.4375 1235.1719,991.3594 Q1235.3281,991.2813 1235.5313,991.2813 Q1235.8594,991.2813 1236.1094,991.5469 Q1236.375,991.7969 1236.375,992.1406 Q1236.375,992.4844 1236.0313,992.8906 Q1235.5313,993.4688 1234.7344,993.7969 Q1233.6563,994.25 1232.3594,994.25 Q1230.8438,994.25 1229.6406,993.625 Q1228.6563,993.125 1227.9688,992.0625 Q1227.2813,990.9844 1227.2813,989.7031 L1227.2813,988.5469 Q1227.2813,987.2188 1227.8906,986.0781 Q1228.5156,984.9219 1229.6094,984.3125 Q1230.7031,983.6875 1231.9375,983.6875 Q1232.6719,983.6875 1233.3125,983.8594 Q1233.9688,984.0156 1234.5156,984.375 Z " fill="#000000"/><text fill="#000000" font-family="sans-serif" font-size="14" lengthAdjust="spacing" textLength="82" x="1252.25" y="994.2285">AgendaEntry</text><line style="stroke:#181818;stroke-width:0.5;" x1="714" x2="1840" y1="1004.5" y2="1004.5"/><rect fill="none" height="6" style="stroke:#C82930;stroke-width:1.0;" width="6" x="721" y="1015.8047"/><text fill="#000000" font-family="sans-serif" font-size="14" lengthAdjust="spacing" textLength="67" x="733" y="1023.0332">title: String</text><rect fill="none" height="6" style="stroke:#C82930;stroke-width:1.0;" width="6" x="721" y="1033.4141"/><text fill="#000000" font-family="sans-serif" font-size="14" lengthAdjust="spacing" textLength="114" x="733" y="1040.6426">description: String</text><rect fill="none" height="6" style="stroke:#C82930;stroke-width:1.0;" width="6" x="721" y="1051.0234"/><text fill="#000000" font-family="sans-serif" font-size="14" lengthAdjust="spacing" textLength="75" x="733" y="1058.252">duration: int</text><rect fill="none" height="6" style="stroke:#C82930;stroke-width:1.0;" width="6" x="721" y="1068.6328"/><text fill="#000000" font-family="sans-serif" font-size="14" lengthAdjust="spacing" textLength="191" x="733" y="1075.8613">urgencyStatus: UrgencyStatus</text><rect fill="none" height="6" style="stroke:#C82930;stroke-width:1.0;" width="6" x="721" y="1086.2422"/><text fill="#000000" font-family="sans-serif" font-size="14" lengthAdjust="spacing" textLength="165" x="733" y="1093.4707">greenSpace: GreenSpace</text><rect fill="none" height="6" style="stroke:#C82930;stroke-width:1.0;" width="6" x="721" y="1103.8516"/><text fill="#000000" font-family="sans-serif" font-size="14" lengthAdjust="spacing" textLength="149" x="733" y="1111.0801">startingDate: LocalDate</text><rect fill="none" height="6" style="stroke:#C82930;stroke-width:1.0;" width="6" x="721" y="1121.4609"/><text fill="#000000" font-family="sans-serif" font-size="14" lengthAdjust="spacing" textLength="201" x="733" y="1128.6895">progressStatus: ProgressStatus</text><line style="stroke:#181818;stroke-width:0.5;" x1="714" x2="1840" y1="1135.7656" y2="1135.7656"/><ellipse cx="724" cy="1150.0703" fill="#84BE84" rx="3" ry="3" style="stroke:#038048;stroke-width:1.0;"/><text fill="#000000" font-family="sans-serif" font-size="14" lengthAdjust="spacing" textLength="1102" x="733" y="1154.2988">AgendaEntry(title: String, description: String, duration: int, urgencyStatus: UrgencyStatus, greenSpace: GreenSpace, startingDate: LocalDate, progressStatus: ProgressStatus)</text><ellipse cx="724" cy="1167.6797" fill="#84BE84" rx="3" ry="3" style="stroke:#038048;stroke-width:1.0;"/><text fill="#000000" font-family="sans-serif" font-size="14" lengthAdjust="spacing" textLength="303" x="733" y="1171.9082">setProgressStatus(status: ProgressStatus): void</text><ellipse cx="724" cy="1185.2891" fill="#84BE84" rx="3" ry="3" style="stroke:#038048;stroke-width:1.0;"/><text fill="#000000" font-family="sans-serif" font-size="14" lengthAdjust="spacing" textLength="242" x="733" y="1189.5176">setStartingDate(date: LocalDate): void</text></g><!--class NotificationService--><g id="elem_NotificationService"><rect codeLine="55" fill="#F1F1F1" height="83.2188" id="NotificationService" rx="2.5" ry="2.5" style="stroke:#181818;stroke-width:0.5;" width="632" x="46" y="1043"/><ellipse cx="299.75" cy="1059" fill="#ADD1B2" rx="11" ry="11" style="stroke:#181818;stroke-width:1.0;"/><path d="M302.5156,1054.875 Q302.6719,1054.6563 302.8594,1054.5469 Q303.0469,1054.4375 303.2656,1054.4375 Q303.6406,1054.4375 303.875,1054.7031 Q304.1094,1054.9531 304.1094,1055.5625 L304.1094,1057.0156 Q304.1094,1057.625 303.875,1057.8906 Q303.6406,1058.1563 303.2656,1058.1563 Q302.9219,1058.1563 302.7188,1057.9531 Q302.5156,1057.7656 302.4063,1057.25 Q302.3594,1056.8906 302.1719,1056.7031 Q301.8438,1056.3281 301.2344,1056.1094 Q300.625,1055.8906 300,1055.8906 Q299.2344,1055.8906 298.5938,1056.2188 Q297.9688,1056.5469 297.4688,1057.2969 Q296.9844,1058.0469 296.9844,1059.0781 L296.9844,1060.1719 Q296.9844,1061.4063 297.875,1062.2344 Q298.7656,1063.0469 300.3594,1063.0469 Q301.2969,1063.0469 301.9531,1062.7969 Q302.3438,1062.6406 302.7656,1062.2031 Q303.0313,1061.9375 303.1719,1061.8594 Q303.3281,1061.7813 303.5313,1061.7813 Q303.8594,1061.7813 304.1094,1062.0469 Q304.375,1062.2969 304.375,1062.6406 Q304.375,1062.9844 304.0313,1063.3906 Q303.5313,1063.9688 302.7344,1064.2969 Q301.6563,1064.75 300.3594,1064.75 Q298.8438,1064.75 297.6406,1064.125 Q296.6563,1063.625 295.9688,1062.5625 Q295.2813,1061.4844 295.2813,1060.2031 L295.2813,1059.0469 Q295.2813,1057.7188 295.8906,1056.5781 Q296.5156,1055.4219 297.6094,1054.8125 Q298.7031,1054.1875 299.9375,1054.1875 Q300.6719,1054.1875 301.3125,1054.3594 Q301.9688,1054.5156 302.5156,1054.875 Z " fill="#000000"/><text fill="#000000" font-family="sans-serif" font-size="14" lengthAdjust="spacing" textLength="116" x="320.25" y="1064.7285">NotificationService</text><line style="stroke:#181818;stroke-width:0.5;" x1="47" x2="677" y1="1075" y2="1075"/><line style="stroke:#181818;stroke-width:0.5;" x1="47" x2="677" y1="1083" y2="1083"/><rect fill="#F24D5C" height="6" style="stroke:#C82930;stroke-width:1.0;" width="6" x="54" y="1094.3047"/><text fill="#000000" font-family="sans-serif" font-size="14" lengthAdjust="spacing" textLength="606" x="66" y="1101.5332">buildEmailBodyCancel(collaboratorsList: List&lt;Collaborator&gt; , agendaEntry: AgendaEntry): String</text><ellipse cx="57" cy="1114.9141" fill="#84BE84" rx="3" ry="3" style="stroke:#038048;stroke-width:1.0;"/><text fill="#000000" font-family="sans-serif" font-size="14" lengthAdjust="spacing" textLength="590" x="66" y="1119.1426">notifyTeamCancel(collaboratorsList: List&lt;Collaborator&gt;, agendaEntry: AgendaEntry): boolean</text></g><!--class ApplicationSession--><g id="elem_ApplicationSession"><rect codeLine="64" fill="#F1F1F1" height="100.8281" id="ApplicationSession" rx="2.5" ry="2.5" style="stroke:#181818;stroke-width:0.5;" width="251" x="1921.5" y="492.5"/><ellipse cx="1983.25" cy="508.5" fill="#ADD1B2" rx="11" ry="11" style="stroke:#181818;stroke-width:1.0;"/><path d="M1986.0156,504.375 Q1986.1719,504.1563 1986.3594,504.0469 Q1986.5469,503.9375 1986.7656,503.9375 Q1987.1406,503.9375 1987.375,504.2031 Q1987.6094,504.4531 1987.6094,505.0625 L1987.6094,506.5156 Q1987.6094,507.125 1987.375,507.3906 Q1987.1406,507.6563 1986.7656,507.6563 Q1986.4219,507.6563 1986.2188,507.4531 Q1986.0156,507.2656 1985.9063,506.75 Q1985.8594,506.3906 1985.6719,506.2031 Q1985.3438,505.8281 1984.7344,505.6094 Q1984.125,505.3906 1983.5,505.3906 Q1982.7344,505.3906 1982.0938,505.7188 Q1981.4688,506.0469 1980.9688,506.7969 Q1980.4844,507.5469 1980.4844,508.5781 L1980.4844,509.6719 Q1980.4844,510.9063 1981.375,511.7344 Q1982.2656,512.5469 1983.8594,512.5469 Q1984.7969,512.5469 1985.4531,512.2969 Q1985.8438,512.1406 1986.2656,511.7031 Q1986.5313,511.4375 1986.6719,511.3594 Q1986.8281,511.2813 1987.0313,511.2813 Q1987.3594,511.2813 1987.6094,511.5469 Q1987.875,511.7969 1987.875,512.1406 Q1987.875,512.4844 1987.5313,512.8906 Q1987.0313,513.4688 1986.2344,513.7969 Q1985.1563,514.25 1983.8594,514.25 Q1982.3438,514.25 1981.1406,513.625 Q1980.1563,513.125 1979.4688,512.0625 Q1978.7813,510.9844 1978.7813,509.7031 L1978.7813,508.5469 Q1978.7813,507.2188 1979.3906,506.0781 Q1980.0156,504.9219 1981.1094,504.3125 Q1982.2031,503.6875 1983.4375,503.6875 Q1984.1719,503.6875 1984.8125,503.8594 Q1985.4688,504.0156 1986.0156,504.375 Z " fill="#000000"/><text fill="#000000" font-family="sans-serif" font-size="14" lengthAdjust="spacing" textLength="119" x="2003.75" y="514.2285">ApplicationSession</text><line style="stroke:#181818;stroke-width:0.5;" x1="1922.5" x2="2171.5" y1="524.5" y2="524.5"/><ellipse cx="1932.5" cy="538.8047" fill="none" rx="3" ry="3" style="stroke:#038048;stroke-width:1.0;"/><text fill="#000000" font-family="sans-serif" font-size="14" lengthAdjust="spacing" textLength="204" x="1941.5" y="543.0332">getInstance : ApplicationSession</text><ellipse cx="1932.5" cy="556.4141" fill="none" rx="3" ry="3" style="stroke:#038048;stroke-width:1.0;"/><text fill="#000000" font-family="sans-serif" font-size="14" lengthAdjust="spacing" textLength="225" x="1941.5" y="560.6426">getSortAlgorithmClassName : String</text><ellipse cx="1932.5" cy="574.0234" fill="none" rx="3" ry="3" style="stroke:#038048;stroke-width:1.0;"/><text fill="#000000" font-family="sans-serif" font-size="14" lengthAdjust="spacing" textLength="209" x="1941.5" y="578.252">getCurrentSession : UserSession</text><line style="stroke:#181818;stroke-width:0.5;" x1="1922.5" x2="2171.5" y1="585.3281" y2="585.3281"/></g><!--class AgendaEntryMapper--><g id="elem_AgendaEntryMapper"><rect codeLine="72" fill="#F1F1F1" height="100.8281" id="AgendaEntryMapper" rx="2.5" ry="2.5" style="stroke:#181818;stroke-width:0.5;" width="462" x="2196" y="694"/><ellipse cx="2357.75" cy="710" fill="#ADD1B2" rx="11" ry="11" style="stroke:#181818;stroke-width:1.0;"/><path d="M2360.5156,705.875 Q2360.6719,705.6563 2360.8594,705.5469 Q2361.0469,705.4375 2361.2656,705.4375 Q2361.6406,705.4375 2361.875,705.7031 Q2362.1094,705.9531 2362.1094,706.5625 L2362.1094,708.0156 Q2362.1094,708.625 2361.875,708.8906 Q2361.6406,709.1563 2361.2656,709.1563 Q2360.9219,709.1563 2360.7188,708.9531 Q2360.5156,708.7656 2360.4063,708.25 Q2360.3594,707.8906 2360.1719,707.7031 Q2359.8438,707.3281 2359.2344,707.1094 Q2358.625,706.8906 2358,706.8906 Q2357.2344,706.8906 2356.5938,707.2188 Q2355.9688,707.5469 2355.4688,708.2969 Q2354.9844,709.0469 2354.9844,710.0781 L2354.9844,711.1719 Q2354.9844,712.4063 2355.875,713.2344 Q2356.7656,714.0469 2358.3594,714.0469 Q2359.2969,714.0469 2359.9531,713.7969 Q2360.3438,713.6406 2360.7656,713.2031 Q2361.0313,712.9375 2361.1719,712.8594 Q2361.3281,712.7813 2361.5313,712.7813 Q2361.8594,712.7813 2362.1094,713.0469 Q2362.375,713.2969 2362.375,713.6406 Q2362.375,713.9844 2362.0313,714.3906 Q2361.5313,714.9688 2360.7344,715.2969 Q2359.6563,715.75 2358.3594,715.75 Q2356.8438,715.75 2355.6406,715.125 Q2354.6563,714.625 2353.9688,713.5625 Q2353.2813,712.4844 2353.2813,711.2031 L2353.2813,710.0469 Q2353.2813,708.7188 2353.8906,707.5781 Q2354.5156,706.4219 2355.6094,705.8125 Q2356.7031,705.1875 2357.9375,705.1875 Q2358.6719,705.1875 2359.3125,705.3594 Q2359.9688,705.5156 2360.5156,705.875 Z " fill="#000000"/><text fill="#000000" font-family="sans-serif" font-size="14" lengthAdjust="spacing" textLength="130" x="2378.25" y="715.7285">AgendaEntryMapper</text><line style="stroke:#181818;stroke-width:0.5;" x1="2197" x2="2657" y1="726" y2="726"/><line style="stroke:#181818;stroke-width:0.5;" x1="2197" x2="2657" y1="734" y2="734"/><ellipse cx="2207" cy="748.3047" fill="#84BE84" rx="3" ry="3" style="stroke:#038048;stroke-width:1.0;"/><text fill="#000000" font-family="sans-serif" font-size="14" lengthAdjust="spacing" textLength="327" x="2216" y="752.5332">toDto(agendaEntry: AgendaEntry): AgendaEntryDto</text><ellipse cx="2207" cy="765.9141" fill="#84BE84" rx="3" ry="3" style="stroke:#038048;stroke-width:1.0;"/><text fill="#000000" font-family="sans-serif" font-size="14" lengthAdjust="spacing" textLength="375" x="2216" y="770.1426">toDomain(agendaEntryDto: AgendaEntryDto): AgendaEntry</text><ellipse cx="2207" cy="783.5234" fill="#84BE84" rx="3" ry="3" style="stroke:#038048;stroke-width:1.0;"/><text fill="#000000" font-family="sans-serif" font-size="14" lengthAdjust="spacing" textLength="436" x="2216" y="787.752">toDtoList(agendaEntries: List&lt;AgendaEntry&gt;): List&lt;AgendaEntryDto&gt;</text></g><!--class AgendaEntryDto--><g id="elem_AgendaEntryDto"><rect codeLine="78" fill="#F1F1F1" height="417.7969" id="AgendaEntryDto" rx="2.5" ry="2.5" style="stroke:#181818;stroke-width:0.5;" width="1564" x="1921" y="875.5"/><ellipse cx="2646.75" cy="891.5" fill="#ADD1B2" rx="11" ry="11" style="stroke:#181818;stroke-width:1.0;"/><path d="M2649.5156,887.375 Q2649.6719,887.1563 2649.8594,887.0469 Q2650.0469,886.9375 2650.2656,886.9375 Q2650.6406,886.9375 2650.875,887.2031 Q2651.1094,887.4531 2651.1094,888.0625 L2651.1094,889.5156 Q2651.1094,890.125 2650.875,890.3906 Q2650.6406,890.6563 2650.2656,890.6563 Q2649.9219,890.6563 2649.7188,890.4531 Q2649.5156,890.2656 2649.4063,889.75 Q2649.3594,889.3906 2649.1719,889.2031 Q2648.8438,888.8281 2648.2344,888.6094 Q2647.625,888.3906 2647,888.3906 Q2646.2344,888.3906 2645.5938,888.7188 Q2644.9688,889.0469 2644.4688,889.7969 Q2643.9844,890.5469 2643.9844,891.5781 L2643.9844,892.6719 Q2643.9844,893.9063 2644.875,894.7344 Q2645.7656,895.5469 2647.3594,895.5469 Q2648.2969,895.5469 2648.9531,895.2969 Q2649.3438,895.1406 2649.7656,894.7031 Q2650.0313,894.4375 2650.1719,894.3594 Q2650.3281,894.2813 2650.5313,894.2813 Q2650.8594,894.2813 2651.1094,894.5469 Q2651.375,894.7969 2651.375,895.1406 Q2651.375,895.4844 2651.0313,895.8906 Q2650.5313,896.4688 2649.7344,896.7969 Q2648.6563,897.25 2647.3594,897.25 Q2645.8438,897.25 2644.6406,896.625 Q2643.6563,896.125 2642.9688,895.0625 Q2642.2813,893.9844 2642.2813,892.7031 L2642.2813,891.5469 Q2642.2813,890.2188 2642.8906,889.0781 Q2643.5156,887.9219 2644.6094,887.3125 Q2645.7031,886.6875 2646.9375,886.6875 Q2647.6719,886.6875 2648.3125,886.8594 Q2648.9688,887.0156 2649.5156,887.375 Z " fill="#000000"/><text fill="#000000" font-family="sans-serif" font-size="14" lengthAdjust="spacing" textLength="104" x="2667.25" y="897.2285">AgendaEntryDto</text><line style="stroke:#181818;stroke-width:0.5;" x1="1922" x2="3484" y1="907.5" y2="907.5"/><rect fill="none" height="6" style="stroke:#C82930;stroke-width:1.0;" width="6" x="1929" y="918.8047"/><text fill="#000000" font-family="sans-serif" font-size="14" lengthAdjust="spacing" textLength="67" x="1941" y="926.0332">title: String</text><rect fill="none" height="6" style="stroke:#C82930;stroke-width:1.0;" width="6" x="1929" y="936.4141"/><text fill="#000000" font-family="sans-serif" font-size="14" lengthAdjust="spacing" textLength="114" x="1941" y="943.6426">description: String</text><rect fill="none" height="6" style="stroke:#C82930;stroke-width:1.0;" width="6" x="1929" y="954.0234"/><text fill="#000000" font-family="sans-serif" font-size="14" lengthAdjust="spacing" textLength="75" x="1941" y="961.252">duration: int</text><rect fill="none" height="6" style="stroke:#C82930;stroke-width:1.0;" width="6" x="1929" y="971.6328"/><text fill="#000000" font-family="sans-serif" font-size="14" lengthAdjust="spacing" textLength="191" x="1941" y="978.8613">urgencyStatus: UrgencyStatus</text><rect fill="none" height="6" style="stroke:#C82930;stroke-width:1.0;" width="6" x="1929" y="989.2422"/><text fill="#000000" font-family="sans-serif" font-size="14" lengthAdjust="spacing" textLength="187" x="1941" y="996.4707">greenSpace: GreenSpaceDto</text><rect fill="none" height="6" style="stroke:#C82930;stroke-width:1.0;" width="6" x="1929" y="1006.8516"/><text fill="#000000" font-family="sans-serif" font-size="14" lengthAdjust="spacing" textLength="149" x="1941" y="1014.0801">startingDate: LocalDate</text><rect fill="none" height="6" style="stroke:#C82930;stroke-width:1.0;" width="6" x="1929" y="1024.4609"/><text fill="#000000" font-family="sans-serif" font-size="14" lengthAdjust="spacing" textLength="201" x="1941" y="1031.6895">progressStatus: ProgressStatus</text><rect fill="none" height="6" style="stroke:#C82930;stroke-width:1.0;" width="6" x="1929" y="1042.0703"/><text fill="#000000" font-family="sans-serif" font-size="14" lengthAdjust="spacing" textLength="207" x="1941" y="1049.2988">assignedTeam: List&lt;VehicleDto&gt;</text><rect fill="none" height="6" style="stroke:#C82930;stroke-width:1.0;" width="6" x="1929" y="1059.6797"/><text fill="#000000" font-family="sans-serif" font-size="14" lengthAdjust="spacing" textLength="159" x="1941" y="1066.9082">assignedTeam: TeamDto</text><line style="stroke:#181818;stroke-width:0.5;" x1="1922" x2="3484" y1="1073.9844" y2="1073.9844"/><ellipse cx="1932" cy="1088.2891" fill="#84BE84" rx="3" ry="3" style="stroke:#038048;stroke-width:1.0;"/><text fill="#000000" font-family="sans-serif" font-size="14" lengthAdjust="spacing" textLength="1538" x="1941" y="1092.5176">AgendaEntryDto(title: String, description: String, duration: int, urgencyStatus: UrgencyStatus, greenSpace: GreenSpaceDto, startingDate: LocalDate, progressStatus: ProgressStatus, assignedTeam: TeamDto, assignedVehicle: List&lt;VehicleDto&gt;)</text><ellipse cx="1932" cy="1105.8984" fill="#84BE84" rx="3" ry="3" style="stroke:#038048;stroke-width:1.0;"/><text fill="#000000" font-family="sans-serif" font-size="14" lengthAdjust="spacing" textLength="102" x="1941" y="1110.127">getTitle(): String</text><ellipse cx="1932" cy="1123.5078" fill="#84BE84" rx="3" ry="3" style="stroke:#038048;stroke-width:1.0;"/><text fill="#000000" font-family="sans-serif" font-size="14" lengthAdjust="spacing" textLength="146" x="1941" y="1127.7363">getDescription(): String</text><ellipse cx="1932" cy="1141.1172" fill="#84BE84" rx="3" ry="3" style="stroke:#038048;stroke-width:1.0;"/><text fill="#000000" font-family="sans-serif" font-size="14" lengthAdjust="spacing" textLength="107" x="1941" y="1145.3457">getDuration(): int</text><ellipse cx="1932" cy="1158.7266" fill="#84BE84" rx="3" ry="3" style="stroke:#038048;stroke-width:1.0;"/><text fill="#000000" font-family="sans-serif" font-size="14" lengthAdjust="spacing" textLength="222" x="1941" y="1162.9551">getUrgencyStatus(): UrgencyStatus</text><ellipse cx="1932" cy="1176.3359" fill="#84BE84" rx="3" ry="3" style="stroke:#038048;stroke-width:1.0;"/><text fill="#000000" font-family="sans-serif" font-size="14" lengthAdjust="spacing" textLength="220" x="1941" y="1180.5645">getGreenSpace(): GreenSpaceDto</text><ellipse cx="1932" cy="1193.9453" fill="#84BE84" rx="3" ry="3" style="stroke:#038048;stroke-width:1.0;"/><text fill="#000000" font-family="sans-serif" font-size="14" lengthAdjust="spacing" textLength="181" x="1941" y="1198.1738">getStartingDate(): LocalDate</text><ellipse cx="1932" cy="1211.5547" fill="#84BE84" rx="3" ry="3" style="stroke:#038048;stroke-width:1.0;"/><text fill="#000000" font-family="sans-serif" font-size="14" lengthAdjust="spacing" textLength="232" x="1941" y="1215.7832">getProgressStatus(): ProgressStatus</text><ellipse cx="1932" cy="1229.1641" fill="#84BE84" rx="3" ry="3" style="stroke:#038048;stroke-width:1.0;"/><text fill="#000000" font-family="sans-serif" font-size="14" lengthAdjust="spacing" textLength="190" x="1941" y="1233.3926">getAssignedTeam(): TeamDto</text><ellipse cx="1932" cy="1246.7734" fill="#84BE84" rx="3" ry="3" style="stroke:#038048;stroke-width:1.0;"/><text fill="#000000" font-family="sans-serif" font-size="14" lengthAdjust="spacing" textLength="248" x="1941" y="1251.002">getAssignedVehicle(): List&lt;VehicleDto&gt;</text><ellipse cx="1932" cy="1264.3828" fill="#84BE84" rx="3" ry="3" style="stroke:#038048;stroke-width:1.0;"/><text fill="#000000" font-family="sans-serif" font-size="14" lengthAdjust="spacing" textLength="254" x="1941" y="1268.6113">setAssignedTeam(team: TeamDto): void</text><ellipse cx="1932" cy="1281.9922" fill="#84BE84" rx="3" ry="3" style="stroke:#038048;stroke-width:1.0;"/><text fill="#000000" font-family="sans-serif" font-size="14" lengthAdjust="spacing" textLength="347" x="1941" y="1286.2207">setAssignedVehicle(vehicleList: List&lt;VehicleDto&gt;): void</text></g><!--link PostponeAgendaEntryUI to CancelAgendaEntryController--><g id="link_PostponeAgendaEntryUI_CancelAgendaEntryController"><path codeLine="103" d="M1610,90.3 C1610,110.51 1610,140.98 1610,169.97 " fill="none" id="PostponeAgendaEntryUI-to-CancelAgendaEntryController" style="stroke:#181818;stroke-width:1.0;stroke-dasharray:7.0,7.0;"/><polygon fill="#181818" points="1610,174.99,1614,165.99,1610,169.99,1606,165.99,1610,174.99" style="stroke:#181818;stroke-width:1.0;"/></g><!--link CancelAgendaEntryController to Repositories--><g id="link_CancelAgendaEntryController_Repositories"><path codeLine="104" d="M1525.24,329.31 C1476.37,373.31 1415.34,428.25 1367.56,471.27 " fill="none" id="CancelAgendaEntryController-to-Repositories" style="stroke:#181818;stroke-width:1.0;stroke-dasharray:7.0,7.0;"/><polygon fill="#181818" points="1363.56,474.87,1372.9255,471.8225,1367.2765,471.5252,1367.5738,465.8761,1363.56,474.87" style="stroke:#181818;stroke-width:1.0;"/></g><!--link Repositories to Repositories--><g id="link_Repositories_Repositories"><path codeLine="105" d="M1422.09,526.16 C1442.85,528.68 1457,534.29 1457,543 C1457,550.96 1445.18,556.33 1427.29,559.12 " fill="none" id="Repositories-to-Repositories" style="stroke:#181818;stroke-width:1.0;"/><polygon fill="#181818" points="1422.09,559.84,1431.5532,562.5691,1427.0428,559.1549,1430.457,554.6445,1422.09,559.84" style="stroke:#181818;stroke-width:1.0;"/><text fill="#000000" font-family="sans-serif" font-size="13" lengthAdjust="spacing" textLength="49" x="1463" y="548.4951">instance</text></g><!--link CancelAgendaEntryController to EntryRepository--><g id="link_CancelAgendaEntryController_EntryRepository"><path codeLine="106" d="M1608.76,329.31 C1603.72,409.07 1584.83,534.02 1519,617.5 C1501.67,639.47 1479.46,658.01 1455.53,673.54 " fill="none" id="CancelAgendaEntryController-to-EntryRepository" style="stroke:#181818;stroke-width:1.0;stroke-dasharray:7.0,7.0;"/><polygon fill="#181818" points="1451.05,676.4,1460.7895,674.9364,1455.2665,673.7128,1456.4901,668.1899,1451.05,676.4" style="stroke:#181818;stroke-width:1.0;"/></g><!--link Repositories to EntryRepository--><g id="link_Repositories_EntryRepository"><path codeLine="107" d="M1284.95,611.26 C1283.8,630.39 1282.55,651.31 1281.38,670.75 " fill="none" id="Repositories-to-EntryRepository" style="stroke:#181818;stroke-width:1.0;"/><polygon fill="#181818" points="1281.05,676.19,1285.5818,667.4457,1281.3495,671.199,1277.5962,666.9666,1281.05,676.19" style="stroke:#181818;stroke-width:1.0;"/></g><!--link EntryRepository to AgendaEntry--><g id="link_EntryRepository_AgendaEntry"><path codeLine="108" d="M1277,812.68 C1277,856.7 1277,915.41 1277,966.92 " fill="none" id="EntryRepository-to-AgendaEntry" style="stroke:#181818;stroke-width:1.0;"/><polygon fill="#181818" points="1277,972.2,1281,963.2,1277,967.2,1273,963.2,1277,972.2" style="stroke:#181818;stroke-width:1.0;"/><text fill="#000000" font-family="sans-serif" font-size="13" lengthAdjust="spacing" textLength="5" x="1271.832" y="961.6211">*</text></g><!--link AgendaEntryMapper to AgendaEntryDto--><g id="link_AgendaEntryMapper_AgendaEntryDto"><path codeLine="109" d="M2467.43,795.01 C2484.84,816.33 2506.49,842.85 2529.56,871.1 " fill="none" id="AgendaEntryMapper-to-AgendaEntryDto" style="stroke:#181818;stroke-width:1.0;stroke-dasharray:7.0,7.0;"/><polygon fill="#181818" points="2532.98,875.28,2530.371,865.783,2529.8115,871.4121,2524.1824,870.8526,2532.98,875.28" style="stroke:#181818;stroke-width:1.0;"/></g><!--link AgendaEntryMapper to AgendaEntry--><g id="link_AgendaEntryMapper_AgendaEntry"><path codeLine="110" d="M2212.37,795.07 C2117.69,817.94 2005.36,846.43 1905,875.5 C1805.74,904.25 1698.67,938.49 1601.54,970.81 " fill="none" id="AgendaEntryMapper-to-AgendaEntry" style="stroke:#181818;stroke-width:1.0;stroke-dasharray:7.0,7.0;"/><polygon fill="#181818" points="1596.63,972.44,1606.4339,973.3798,1601.372,970.8546,1603.8972,965.7926,1596.63,972.44" style="stroke:#181818;stroke-width:1.0;"/></g><!--link CancelAgendaEntryController to NotificationService--><g id="link_CancelAgendaEntryController_NotificationService"><path codeLine="111" d="M1639.3,329.23 C1681.79,454.25 1741.84,702.34 1609,836.5 C1537.56,908.65 793.01,845.51 696,875.5 C585.68,909.61 475.42,989.36 413.25,1039.61 " fill="none" id="CancelAgendaEntryController-to-NotificationService" style="stroke:#181818;stroke-width:1.0;stroke-dasharray:7.0,7.0;"/><polygon fill="#181818" points="409.22,1042.88,418.7227,1040.292,413.0949,1039.72,413.6668,1034.0922,409.22,1042.88" style="stroke:#181818;stroke-width:1.0;"/></g><!--link CancelAgendaEntryController to ApplicationSession--><g id="link_CancelAgendaEntryController_ApplicationSession"><path codeLine="112" d="M1725.1,329.12 C1801.44,379.6 1899.66,444.56 1967.42,489.37 " fill="none" id="CancelAgendaEntryController-to-ApplicationSession" style="stroke:#181818;stroke-width:1.0;stroke-dasharray:7.0,7.0;"/><polygon fill="#181818" points="1971.84,492.29,1966.5374,483.9904,1967.6688,489.533,1962.1262,490.6644,1971.84,492.29" style="stroke:#181818;stroke-width:1.0;"/><text fill="#000000" font-family="sans-serif" font-size="13" lengthAdjust="spacing" textLength="107" x="1790" y="375.4951">getCurrentSession</text></g><!--SRC=[rLTRQzim57xthn1xcREu_G5c15B7b40k9Kx7zgZQgYEgM4PIEiBeVvzakuuklZI33PQ7n96_S_lEqJaIVy552Hay0dw06Vs9YnmyGyAHnzit11S8Y7E9G4d9MVtpFXFqB82WWE7y84266Ke5feLNmlG5vWWyBi4l3yXFIY3du85oKT82pNDKP30k13ktY3VlpMlbekrclzkkLl7Ea8zWaIAYIKTKVbD246jmwdC362efnu8oZ7W8Tje_3OIKWlRTEGInkT12fqDs_Oc6ov7GG2lCXP_pOmWUEM89ubnICmc1Ml-guHQ2pZGbgMtCXmOs1AQirFX4AK6mq88hgC3Fvps2n-kaZImijklvSjCm-xwuYn-soNA_tVtGAA_JenEjlQmzmWKNAhAUV5oPavegNPEMY3OPoyQcFncmMY4jEqgWpxGao0pR0ZgHGxCat0AOMVuuphZ-McLsTxvFrbVNMgtjL6PGe8_NMm2Y-IQAvUPSXE21qPn9Quc0uiGxIh6ceBPHQQYHkWt3mB3sLuepJyj4am-ZGDVRHRnoQbCpuIH8O45aNIQ2oRvdlSiGJnakLLVhGvmOh5_ZGjXnCsasRMAMkT7_Mb0PA2eI6OJqvBvzja2od9cGBYmacpAvD8L4FLgeqg3Dfj5AlvvuWuYWA_R033SOZ33e2IheYoCOSTtU21m94-3pRhccSXpfHFF3pqndR25dtszKZyLfnKQ2s2jEaLDQJoTCilW8CRcZsRcU8tug9mTyef97ohZM4Y9jVGO2qBT79fsLEDMQ_ZM61ktOs_covUJJ-uwBl-_ZtMQ-SlPSMPAMdweZcVHCjHODmWwuWque4tEIooOk3iT86Td0evBjuaFYenDZSgOqwe3H7VMOzA6ttmurZpKiI-EqqN0lg6oD_W2JPXFj4AUoIehnQQqjTFfGdJekMgeJa3DmFZ8Pt88tqVzJ6xKP_mkTLCvvMLPvWJAr0Hj-lw43JWbokBN1wjlsSMhn_Q-wSpNY_x111zrnNPORGbnwEiuuUnMltzVi961nOM0Grd2YC7PjLG235eNgBx0AV-5AWVkhh08R8sRILseLr9fbav79hOw16jiAtrr76h1Xt9-C56Wr7GtjGazexq2rxRpMlzhiqNFkJDYcxNJV4szlPqCtCM_eTgXaZHk0SLUvkJ7VXkrjPLIfVKjmzDe0-xQWC9- -V3BwkZjlb2bhWeo2HdtlEC2CohX3MavLPz9wlm40]--></g></svg>