<?xml version="1.0" encoding="UTF-8" standalone="no"?><svg xmlns="http://www.w3.org/2000/svg" xmlns:xlink="http://www.w3.org/1999/xlink" contentStyleType="text/css" height="1472px" preserveAspectRatio="none" style="width:2043px;height:1472px;background:#FFFFFF;" version="1.1" viewBox="0 0 2043 1472" width="2043px" zoomAndPan="magnify"><defs/><g><rect fill="#FFFFFF" height="1289" style="stroke:#181818;stroke-width:1.0;" width="10" x="18.5" y="92.6094"/><rect fill="#FFFFFF" height="499.3984" style="stroke:#181818;stroke-width:1.0;" width="10" x="456.5" y="114.9609"/><rect fill="#FFFFFF" height="30.3516" style="stroke:#181818;stroke-width:1.0;" width="10" x="456.5" y="644.7109"/><rect fill="#FFFFFF" height="30.3516" style="stroke:#181818;stroke-width:1.0;" width="10" x="456.5" y="705.4141"/><rect fill="#FFFFFF" height="30.3516" style="stroke:#181818;stroke-width:1.0;" width="10" x="456.5" y="1342.2578"/><rect fill="#FFFFFF" height="123.6641" style="stroke:#181818;stroke-width:1.0;" width="10" x="673.5" y="155.3125"/><rect fill="#FFFFFF" height="91.0547" style="stroke:#181818;stroke-width:1.0;" width="10" x="673.5" y="309.3281"/><rect fill="#FFFFFF" height="30.3516" style="stroke:#181818;stroke-width:1.0;" width="10" x="673.5" y="553.6563"/><rect fill="#FFFFFF" height="30.3516" style="stroke:#181818;stroke-width:1.0;" width="10" x="673.5" y="735.7656"/><rect fill="#FFFFFF" height="30.3516" style="stroke:#181818;stroke-width:1.0;" width="10" x="673.5" y="887.0391"/><rect fill="#FFFFFF" height="30.3516" style="stroke:#181818;stroke-width:1.0;" width="10" x="673.5" y="991.0938"/><rect fill="#FFFFFF" height="30.3516" style="stroke:#181818;stroke-width:1.0;" width="10" x="673.5" y="1311.9063"/><rect fill="#FFFFFF" height="30.3516" style="stroke:#181818;stroke-width:1.0;" width="10" x="835" y="187.9219"/><rect fill="#FFFFFF" height="30.3516" style="stroke:#181818;stroke-width:1.0;" width="10" x="942" y="248.625"/><rect fill="#FFFFFF" height="30.3516" style="stroke:#181818;stroke-width:1.0;" width="10" x="1060" y="339.6797"/><rect fill="#FFFFFF" height="73.7031" style="stroke:#181818;stroke-width:1.0;" width="10" x="1060" y="917.3906"/><rect fill="#FFFFFF" height="290.4609" style="stroke:#181818;stroke-width:1.0;" width="10" x="1369" y="1021.4453"/><rect fill="#FFFFFF" height="41.3516" style="stroke:#181818;stroke-width:1.0;" width="10" x="1374" y="1059.7969"/><rect fill="#FFFFFF" height="41.3516" style="stroke:#181818;stroke-width:1.0;" width="10" x="1374" y="1146.5"/><rect fill="#FFFFFF" height="41.3516" style="stroke:#181818;stroke-width:1.0;" width="10" x="1374" y="1233.2031"/><rect fill="#FFFFFF" height="153.2734" style="stroke:#181818;stroke-width:1.0;" width="10" x="1716" y="400.3828"/><rect fill="#FFFFFF" height="120.9219" style="stroke:#181818;stroke-width:1.0;" width="10" x="1716" y="766.1172"/><rect fill="#FFFFFF" height="50.2188" style="stroke:#181818;stroke-width:1.0;" width="10" x="1861" y="466.0859"/><rect fill="#FFFFFF" height="50.2188" style="stroke:#181818;stroke-width:1.0;" width="10" x="1982" y="806.4688"/><rect fill="none" height="108.9219" style="stroke:#000000;stroke-width:1.5;" width="300" x="1637" y="415.3828"/><line style="stroke:#181818;stroke-width:0.5;stroke-dasharray:5.0,5.0;" x1="23" x2="23" y1="82.6094" y2="1390.6094"/><line style="stroke:#181818;stroke-width:0.5;stroke-dasharray:5.0,5.0;" x1="461.5" x2="461.5" y1="82.6094" y2="1390.6094"/><line style="stroke:#181818;stroke-width:0.5;stroke-dasharray:5.0,5.0;" x1="678.5" x2="678.5" y1="154.2656" y2="1390.6094"/><line style="stroke:#181818;stroke-width:0.5;stroke-dasharray:5.0,5.0;" x1="839.5" x2="839.5" y1="82.6094" y2="1390.6094"/><line style="stroke:#181818;stroke-width:0.5;stroke-dasharray:5.0,5.0;" x1="946.5" x2="946.5" y1="82.6094" y2="1390.6094"/><line style="stroke:#181818;stroke-width:0.5;stroke-dasharray:5.0,5.0;" x1="1064.5" x2="1064.5" y1="82.6094" y2="1390.6094"/><line style="stroke:#181818;stroke-width:0.5;stroke-dasharray:5.0,5.0;" x1="1374" x2="1374" y1="82.6094" y2="1390.6094"/><line style="stroke:#181818;stroke-width:0.5;stroke-dasharray:5.0,5.0;" x1="1721" x2="1721" y1="82.6094" y2="1390.6094"/><line style="stroke:#181818;stroke-width:0.5;stroke-dasharray:5.0,5.0;" x1="1866" x2="1866" y1="473.8438" y2="1390.6094"/><line style="stroke:#181818;stroke-width:0.5;stroke-dasharray:5.0,5.0;" x1="1987" x2="1987" y1="814.2266" y2="1390.6094"/><text fill="#000000" font-family="sans-serif" font-size="14" lengthAdjust="spacing" textLength="31" x="5" y="79.5332">GSM</text><ellipse cx="23.5" cy="13.5" fill="#E3E3E3" rx="8" ry="8" style="stroke:#181818;stroke-width:0.5;"/><path d="M23.5,21.5 L23.5,48.5 M10.5,29.5 L36.5,29.5 M23.5,48.5 L10.5,63.5 M23.5,48.5 L36.5,63.5 " fill="none" style="stroke:#181818;stroke-width:0.5;"/><text fill="#000000" font-family="sans-serif" font-size="14" lengthAdjust="spacing" textLength="31" x="5" y="1404.1426">GSM</text><ellipse cx="23.5" cy="1415.7188" fill="#E3E3E3" rx="8" ry="8" style="stroke:#181818;stroke-width:0.5;"/><path d="M23.5,1423.7188 L23.5,1450.7188 M10.5,1431.7188 L36.5,1431.7188 M23.5,1450.7188 L10.5,1465.7188 M23.5,1450.7188 L36.5,1465.7188 " fill="none" style="stroke:#181818;stroke-width:0.5;"/><rect fill="#E3E3E3" height="31.6094" rx="2.5" ry="2.5" style="stroke:#181818;stroke-width:0.5;" width="156" x="383.5" y="50"/><text fill="#000000" font-family="sans-serif" font-size="14" lengthAdjust="spacing" textLength="142" x="390.5" y="71.5332">:CancelAgendaEntryUI</text><rect fill="#E3E3E3" height="31.6094" rx="2.5" ry="2.5" style="stroke:#181818;stroke-width:0.5;" width="156" x="383.5" y="1389.6094"/><text fill="#000000" font-family="sans-serif" font-size="14" lengthAdjust="spacing" textLength="142" x="390.5" y="1411.1426">:CancelAgendaEntryUI</text><rect fill="#E3E3E3" height="31.6094" rx="2.5" ry="2.5" style="stroke:#181818;stroke-width:0.5;" width="206" x="575.5" y="1389.6094"/><text fill="#000000" font-family="sans-serif" font-size="14" lengthAdjust="spacing" textLength="192" x="582.5" y="1411.1426">:CancelAgendaEntryController</text><rect fill="#E3E3E3" height="31.6094" rx="2.5" ry="2.5" style="stroke:#181818;stroke-width:0.5;" width="97" x="791.5" y="50"/><text fill="#000000" font-family="sans-serif" font-size="14" lengthAdjust="spacing" textLength="83" x="798.5" y="71.5332">:Repositories</text><rect fill="#E3E3E3" height="31.6094" rx="2.5" ry="2.5" style="stroke:#181818;stroke-width:0.5;" width="97" x="791.5" y="1389.6094"/><text fill="#000000" font-family="sans-serif" font-size="14" lengthAdjust="spacing" textLength="83" x="798.5" y="1411.1426">:Repositories</text><rect fill="#E3E3E3" height="49.2188" rx="2.5" ry="2.5" style="stroke:#181818;stroke-width:0.5;" width="97" x="898.5" y="32.3906"/><text fill="#000000" font-family="sans-serif" font-size="14" lengthAdjust="spacing" textLength="74" x="910" y="53.9238">repositories</text><text fill="#000000" font-family="sans-serif" font-size="14" lengthAdjust="spacing" textLength="83" x="905.5" y="71.5332">:Repositories</text><rect fill="#E3E3E3" height="49.2188" rx="2.5" ry="2.5" style="stroke:#181818;stroke-width:0.5;" width="97" x="898.5" y="1389.6094"/><text fill="#000000" font-family="sans-serif" font-size="14" lengthAdjust="spacing" textLength="74" x="910" y="1411.1426">repositories</text><text fill="#000000" font-family="sans-serif" font-size="14" lengthAdjust="spacing" textLength="83" x="905.5" y="1428.752">:Repositories</text><rect fill="#E3E3E3" height="49.2188" rx="2.5" ry="2.5" style="stroke:#181818;stroke-width:0.5;" width="119" x="1005.5" y="32.3906"/><text fill="#000000" font-family="sans-serif" font-size="14" lengthAdjust="spacing" textLength="100" x="1015" y="53.9238">entryRepository</text><text fill="#000000" font-family="sans-serif" font-size="14" lengthAdjust="spacing" textLength="105" x="1012.5" y="71.5332">:EntryRepository</text><rect fill="#E3E3E3" height="49.2188" rx="2.5" ry="2.5" style="stroke:#181818;stroke-width:0.5;" width="119" x="1005.5" y="1389.6094"/><text fill="#000000" font-family="sans-serif" font-size="14" lengthAdjust="spacing" textLength="100" x="1015" y="1411.1426">entryRepository</text><text fill="#000000" font-family="sans-serif" font-size="14" lengthAdjust="spacing" textLength="105" x="1012.5" y="1428.752">:EntryRepository</text><rect fill="#E3E3E3" height="31.6094" rx="2.5" ry="2.5" style="stroke:#181818;stroke-width:0.5;" width="134" x="1307" y="50"/><text fill="#000000" font-family="sans-serif" font-size="14" lengthAdjust="spacing" textLength="120" x="1314" y="71.5332">:NotificationService</text><rect fill="#E3E3E3" height="31.6094" rx="2.5" ry="2.5" style="stroke:#181818;stroke-width:0.5;" width="134" x="1307" y="1389.6094"/><text fill="#000000" font-family="sans-serif" font-size="14" lengthAdjust="spacing" textLength="120" x="1314" y="1411.1426">:NotificationService</text><rect fill="#E3E3E3" height="31.6094" rx="2.5" ry="2.5" style="stroke:#181818;stroke-width:0.5;" width="148" x="1647" y="50"/><text fill="#000000" font-family="sans-serif" font-size="14" lengthAdjust="spacing" textLength="134" x="1654" y="71.5332">:AgendaEntryMapper</text><rect fill="#E3E3E3" height="31.6094" rx="2.5" ry="2.5" style="stroke:#181818;stroke-width:0.5;" width="148" x="1647" y="1389.6094"/><text fill="#000000" font-family="sans-serif" font-size="14" lengthAdjust="spacing" textLength="134" x="1654" y="1411.1426">:AgendaEntryMapper</text><rect fill="#E3E3E3" height="49.2188" rx="2.5" ry="2.5" style="stroke:#181818;stroke-width:0.5;" width="122" x="1805" y="1389.6094"/><text fill="#000000" font-family="sans-serif" font-size="14" lengthAdjust="spacing" textLength="103" x="1814.5" y="1411.1426">agendaEntryDto</text><text fill="#000000" font-family="sans-serif" font-size="14" lengthAdjust="spacing" textLength="108" x="1812" y="1428.752">:AgendaEntryDto</text><rect fill="#E3E3E3" height="49.2188" rx="2.5" ry="2.5" style="stroke:#181818;stroke-width:0.5;" width="100" x="1937" y="1389.6094"/><text fill="#000000" font-family="sans-serif" font-size="14" lengthAdjust="spacing" textLength="81" x="1946.5" y="1411.1426">agendaEntry</text><text fill="#000000" font-family="sans-serif" font-size="14" lengthAdjust="spacing" textLength="86" x="1944" y="1428.752">:AgendaEntry</text><rect fill="#FFFFFF" height="1289" style="stroke:#181818;stroke-width:1.0;" width="10" x="18.5" y="92.6094"/><rect fill="#FFFFFF" height="499.3984" style="stroke:#181818;stroke-width:1.0;" width="10" x="456.5" y="114.9609"/><rect fill="#FFFFFF" height="30.3516" style="stroke:#181818;stroke-width:1.0;" width="10" x="456.5" y="644.7109"/><rect fill="#FFFFFF" height="30.3516" style="stroke:#181818;stroke-width:1.0;" width="10" x="456.5" y="705.4141"/><rect fill="#FFFFFF" height="30.3516" style="stroke:#181818;stroke-width:1.0;" width="10" x="456.5" y="1342.2578"/><rect fill="#FFFFFF" height="123.6641" style="stroke:#181818;stroke-width:1.0;" width="10" x="673.5" y="155.3125"/><rect fill="#FFFFFF" height="91.0547" style="stroke:#181818;stroke-width:1.0;" width="10" x="673.5" y="309.3281"/><rect fill="#FFFFFF" height="30.3516" style="stroke:#181818;stroke-width:1.0;" width="10" x="673.5" y="553.6563"/><rect fill="#FFFFFF" height="30.3516" style="stroke:#181818;stroke-width:1.0;" width="10" x="673.5" y="735.7656"/><rect fill="#FFFFFF" height="30.3516" style="stroke:#181818;stroke-width:1.0;" width="10" x="673.5" y="887.0391"/><rect fill="#FFFFFF" height="30.3516" style="stroke:#181818;stroke-width:1.0;" width="10" x="673.5" y="991.0938"/><rect fill="#FFFFFF" height="30.3516" style="stroke:#181818;stroke-width:1.0;" width="10" x="673.5" y="1311.9063"/><rect fill="#FFFFFF" height="30.3516" style="stroke:#181818;stroke-width:1.0;" width="10" x="835" y="187.9219"/><rect fill="#FFFFFF" height="30.3516" style="stroke:#181818;stroke-width:1.0;" width="10" x="942" y="248.625"/><rect fill="#FFFFFF" height="30.3516" style="stroke:#181818;stroke-width:1.0;" width="10" x="1060" y="339.6797"/><rect fill="#FFFFFF" height="73.7031" style="stroke:#181818;stroke-width:1.0;" width="10" x="1060" y="917.3906"/><rect fill="#FFFFFF" height="290.4609" style="stroke:#181818;stroke-width:1.0;" width="10" x="1369" y="1021.4453"/><rect fill="#FFFFFF" height="41.3516" style="stroke:#181818;stroke-width:1.0;" width="10" x="1374" y="1059.7969"/><rect fill="#FFFFFF" height="41.3516" style="stroke:#181818;stroke-width:1.0;" width="10" x="1374" y="1146.5"/><rect fill="#FFFFFF" height="41.3516" style="stroke:#181818;stroke-width:1.0;" width="10" x="1374" y="1233.2031"/><rect fill="#FFFFFF" height="153.2734" style="stroke:#181818;stroke-width:1.0;" width="10" x="1716" y="400.3828"/><rect fill="#FFFFFF" height="120.9219" style="stroke:#181818;stroke-width:1.0;" width="10" x="1716" y="766.1172"/><rect fill="#FFFFFF" height="50.2188" style="stroke:#181818;stroke-width:1.0;" width="10" x="1861" y="466.0859"/><rect fill="#FFFFFF" height="50.2188" style="stroke:#181818;stroke-width:1.0;" width="10" x="1982" y="806.4688"/><polygon fill="#181818" points="444.5,110.9609,454.5,114.9609,444.5,118.9609,448.5,114.9609" style="stroke:#181818;stroke-width:1.0;"/><line style="stroke:#181818;stroke-width:1.0;" x1="28.5" x2="450.5" y1="114.9609" y2="114.9609"/><text fill="#000000" font-family="sans-serif" font-size="13" font-weight="bold" lengthAdjust="spacing" textLength="7" x="35.5" y="110.1045">1</text><text fill="#000000" font-family="sans-serif" font-size="13" lengthAdjust="spacing" textLength="197" x="46.5" y="110.1045">asks to postpone an agenda entry</text><polygon fill="#181818" points="563.5,141.3125,573.5,145.3125,563.5,149.3125,567.5,145.3125" style="stroke:#181818;stroke-width:1.0;"/><line style="stroke:#181818;stroke-width:1.0;" x1="466.5" x2="569.5" y1="145.3125" y2="145.3125"/><text fill="#000000" font-family="sans-serif" font-size="13" font-weight="bold" lengthAdjust="spacing" textLength="7" x="473.5" y="140.4561">2</text><text fill="#000000" font-family="sans-serif" font-size="13" lengthAdjust="spacing" textLength="36" x="484.5" y="140.4561">create</text><rect fill="#E3E3E3" height="31.6094" rx="2.5" ry="2.5" style="stroke:#181818;stroke-width:0.5;" width="206" x="575.5" y="122.9609"/><text fill="#000000" font-family="sans-serif" font-size="14" lengthAdjust="spacing" textLength="192" x="582.5" y="144.4941">:CancelAgendaEntryController</text><polygon fill="#181818" points="823,183.9219,833,187.9219,823,191.9219,827,187.9219" style="stroke:#181818;stroke-width:1.0;"/><line style="stroke:#181818;stroke-width:1.0;" x1="683.5" x2="829" y1="187.9219" y2="187.9219"/><text fill="#000000" font-family="sans-serif" font-size="13" font-weight="bold" lengthAdjust="spacing" textLength="7" x="690.5" y="183.0654">3</text><text fill="#000000" font-family="sans-serif" font-size="13" lengthAdjust="spacing" textLength="75" x="701.5" y="183.0654">getInstance()</text><polygon fill="#181818" points="694.5,214.2734,684.5,218.2734,694.5,222.2734,690.5,218.2734" style="stroke:#181818;stroke-width:1.0;"/><line style="stroke:#181818;stroke-width:1.0;stroke-dasharray:2.0,2.0;" x1="688.5" x2="839" y1="218.2734" y2="218.2734"/><text fill="#000000" font-family="sans-serif" font-size="13" font-weight="bold" lengthAdjust="spacing" textLength="7" x="700.5" y="213.417">4</text><text fill="#000000" font-family="sans-serif" font-size="13" lengthAdjust="spacing" textLength="67" x="711.5" y="213.417">repositories</text><polygon fill="#181818" points="930,244.625,940,248.625,930,252.625,934,248.625" style="stroke:#181818;stroke-width:1.0;"/><line style="stroke:#181818;stroke-width:1.0;" x1="683.5" x2="936" y1="248.625" y2="248.625"/><text fill="#000000" font-family="sans-serif" font-size="13" font-weight="bold" lengthAdjust="spacing" textLength="7" x="690.5" y="243.7686">5</text><text fill="#000000" font-family="sans-serif" font-size="13" lengthAdjust="spacing" textLength="119" x="701.5" y="243.7686">getEntryRepository()</text><polygon fill="#181818" points="689.5,274.9766,679.5,278.9766,689.5,282.9766,685.5,278.9766" style="stroke:#181818;stroke-width:1.0;"/><line style="stroke:#181818;stroke-width:1.0;stroke-dasharray:2.0,2.0;" x1="683.5" x2="946" y1="278.9766" y2="278.9766"/><text fill="#000000" font-family="sans-serif" font-size="13" font-weight="bold" lengthAdjust="spacing" textLength="7" x="695.5" y="274.1201">6</text><text fill="#000000" font-family="sans-serif" font-size="13" lengthAdjust="spacing" textLength="91" x="706.5" y="274.1201">entryRepository</text><polygon fill="#181818" points="661.5,305.3281,671.5,309.3281,661.5,313.3281,665.5,309.3281" style="stroke:#181818;stroke-width:1.0;"/><line style="stroke:#181818;stroke-width:1.0;" x1="466.5" x2="667.5" y1="309.3281" y2="309.3281"/><text fill="#000000" font-family="sans-serif" font-size="13" font-weight="bold" lengthAdjust="spacing" textLength="7" x="473.5" y="304.4717">7</text><text fill="#000000" font-family="sans-serif" font-size="13" lengthAdjust="spacing" textLength="152" x="484.5" y="304.4717">getAgendaEntryList(GSM)</text><polygon fill="#181818" points="1048,335.6797,1058,339.6797,1048,343.6797,1052,339.6797" style="stroke:#181818;stroke-width:1.0;"/><line style="stroke:#181818;stroke-width:1.0;" x1="683.5" x2="1054" y1="339.6797" y2="339.6797"/><text fill="#000000" font-family="sans-serif" font-size="13" font-weight="bold" lengthAdjust="spacing" textLength="7" x="690.5" y="334.8232">8</text><text fill="#000000" font-family="sans-serif" font-size="13" lengthAdjust="spacing" textLength="198" x="701.5" y="334.8232">getAgendaEntryListByGSM(GSM)</text><polygon fill="#181818" points="694.5,366.0313,684.5,370.0313,694.5,374.0313,690.5,370.0313" style="stroke:#181818;stroke-width:1.0;"/><line style="stroke:#181818;stroke-width:1.0;stroke-dasharray:2.0,2.0;" x1="688.5" x2="1064" y1="370.0313" y2="370.0313"/><text fill="#000000" font-family="sans-serif" font-size="13" font-weight="bold" lengthAdjust="spacing" textLength="7" x="700.5" y="365.1748">9</text><text fill="#000000" font-family="sans-serif" font-size="13" lengthAdjust="spacing" textLength="94" x="711.5" y="365.1748">agendaEntryList</text><polygon fill="#181818" points="1704,396.3828,1714,400.3828,1704,404.3828,1708,400.3828" style="stroke:#181818;stroke-width:1.0;"/><line style="stroke:#181818;stroke-width:1.0;" x1="678.5" x2="1710" y1="400.3828" y2="400.3828"/><text fill="#000000" font-family="sans-serif" font-size="13" font-weight="bold" lengthAdjust="spacing" textLength="14" x="685.5" y="395.5264">10</text><text fill="#000000" font-family="sans-serif" font-size="13" lengthAdjust="spacing" textLength="112" x="703.5" y="395.5264">toDto(agendaEntry)</text><path d="M1637,415.3828 L1710,415.3828 L1710,423.7344 L1700,433.7344 L1637,433.7344 L1637,415.3828 " fill="#EEEEEE" style="stroke:#000000;stroke-width:1.5;"/><rect fill="none" height="108.9219" style="stroke:#000000;stroke-width:1.5;" width="300" x="1637" y="415.3828"/><text fill="#000000" font-family="sans-serif" font-size="13" font-weight="bold" lengthAdjust="spacing" textLength="28" x="1652" y="429.8779">loop</text><polygon fill="#181818" points="1793,452.0859,1803,456.0859,1793,460.0859,1797,456.0859" style="stroke:#181818;stroke-width:1.0;"/><line style="stroke:#181818;stroke-width:1.0;" x1="1726" x2="1799" y1="456.0859" y2="456.0859"/><text fill="#000000" font-family="sans-serif" font-size="13" font-weight="bold" lengthAdjust="spacing" textLength="14" x="1733" y="451.2295">11</text><text fill="#000000" font-family="sans-serif" font-size="13" lengthAdjust="spacing" textLength="36" x="1751" y="451.2295">create</text><rect fill="#E3E3E3" height="49.2188" rx="2.5" ry="2.5" style="stroke:#181818;stroke-width:0.5;" width="122" x="1805" y="433.7344"/><text fill="#000000" font-family="sans-serif" font-size="14" lengthAdjust="spacing" textLength="103" x="1814.5" y="455.2676">agendaEntryDto</text><text fill="#000000" font-family="sans-serif" font-size="14" lengthAdjust="spacing" textLength="108" x="1812" y="472.877">:AgendaEntryDto</text><polygon fill="#181818" points="1737,512.3047,1727,516.3047,1737,520.3047,1733,516.3047" style="stroke:#181818;stroke-width:1.0;"/><line style="stroke:#181818;stroke-width:1.0;stroke-dasharray:2.0,2.0;" x1="1731" x2="1865" y1="516.3047" y2="516.3047"/><text fill="#000000" font-family="sans-serif" font-size="13" font-weight="bold" lengthAdjust="spacing" textLength="14" x="1743" y="511.4482">12</text><text fill="#000000" font-family="sans-serif" font-size="13" lengthAdjust="spacing" textLength="93" x="1761" y="511.4482">agendaEntryDto</text><polygon fill="#181818" points="694.5,549.6563,684.5,553.6563,694.5,557.6563,690.5,553.6563" style="stroke:#181818;stroke-width:1.0;"/><line style="stroke:#181818;stroke-width:1.0;stroke-dasharray:2.0,2.0;" x1="688.5" x2="1720" y1="553.6563" y2="553.6563"/><text fill="#000000" font-family="sans-serif" font-size="13" font-weight="bold" lengthAdjust="spacing" textLength="14" x="700.5" y="548.7998">13</text><text fill="#000000" font-family="sans-serif" font-size="13" lengthAdjust="spacing" textLength="114" x="718.5" y="548.7998">agendaEntryDtoList</text><polygon fill="#181818" points="477.5,580.0078,467.5,584.0078,477.5,588.0078,473.5,584.0078" style="stroke:#181818;stroke-width:1.0;"/><line style="stroke:#181818;stroke-width:1.0;stroke-dasharray:2.0,2.0;" x1="471.5" x2="677.5" y1="584.0078" y2="584.0078"/><text fill="#000000" font-family="sans-serif" font-size="13" font-weight="bold" lengthAdjust="spacing" textLength="14" x="483.5" y="579.1514">14</text><text fill="#000000" font-family="sans-serif" font-size="13" lengthAdjust="spacing" textLength="114" x="501.5" y="579.1514">agendaEntryDtoList</text><polygon fill="#181818" points="39.5,610.3594,29.5,614.3594,39.5,618.3594,35.5,614.3594" style="stroke:#181818;stroke-width:1.0;"/><line style="stroke:#181818;stroke-width:1.0;" x1="33.5" x2="460.5" y1="614.3594" y2="614.3594"/><text fill="#000000" font-family="sans-serif" font-size="13" font-weight="bold" lengthAdjust="spacing" textLength="14" x="45.5" y="609.5029">15</text><text fill="#000000" font-family="sans-serif" font-size="13" lengthAdjust="spacing" textLength="331" x="63.5" y="609.5029">shows the list of agenda entry and requests to select one</text><polygon fill="#181818" points="444.5,640.7109,454.5,644.7109,444.5,648.7109,448.5,644.7109" style="stroke:#181818;stroke-width:1.0;"/><line style="stroke:#181818;stroke-width:1.0;" x1="28.5" x2="450.5" y1="644.7109" y2="644.7109"/><text fill="#000000" font-family="sans-serif" font-size="13" font-weight="bold" lengthAdjust="spacing" textLength="14" x="35.5" y="639.8545">16</text><text fill="#000000" font-family="sans-serif" font-size="13" lengthAdjust="spacing" textLength="139" x="53.5" y="639.8545">selects an agenda entry</text><polygon fill="#181818" points="39.5,671.0625,29.5,675.0625,39.5,679.0625,35.5,675.0625" style="stroke:#181818;stroke-width:1.0;"/><line style="stroke:#181818;stroke-width:1.0;stroke-dasharray:2.0,2.0;" x1="33.5" x2="460.5" y1="675.0625" y2="675.0625"/><text fill="#000000" font-family="sans-serif" font-size="13" font-weight="bold" lengthAdjust="spacing" textLength="14" x="45.5" y="670.2061">17</text><text fill="#000000" font-family="sans-serif" font-size="13" lengthAdjust="spacing" textLength="238" x="63.5" y="670.2061">Shows all data and requests confirmation</text><polygon fill="#181818" points="444.5,701.4141,454.5,705.4141,444.5,709.4141,448.5,705.4141" style="stroke:#181818;stroke-width:1.0;"/><line style="stroke:#181818;stroke-width:1.0;" x1="28.5" x2="450.5" y1="705.4141" y2="705.4141"/><text fill="#000000" font-family="sans-serif" font-size="13" font-weight="bold" lengthAdjust="spacing" textLength="14" x="35.5" y="700.5576">18</text><text fill="#000000" font-family="sans-serif" font-size="13" lengthAdjust="spacing" textLength="78" x="53.5" y="700.5576">confirms data</text><polygon fill="#181818" points="661.5,731.7656,671.5,735.7656,661.5,739.7656,665.5,735.7656" style="stroke:#181818;stroke-width:1.0;"/><line style="stroke:#181818;stroke-width:1.0;" x1="461.5" x2="667.5" y1="735.7656" y2="735.7656"/><text fill="#000000" font-family="sans-serif" font-size="13" font-weight="bold" lengthAdjust="spacing" textLength="14" x="468.5" y="730.9092">19</text><text fill="#000000" font-family="sans-serif" font-size="13" lengthAdjust="spacing" textLength="170" x="486.5" y="730.9092">cancelEntry(agendaEntryDto)</text><polygon fill="#181818" points="1704,762.1172,1714,766.1172,1704,770.1172,1708,766.1172" style="stroke:#181818;stroke-width:1.0;"/><line style="stroke:#181818;stroke-width:1.0;" x1="678.5" x2="1710" y1="766.1172" y2="766.1172"/><text fill="#000000" font-family="sans-serif" font-size="13" font-weight="bold" lengthAdjust="spacing" textLength="14" x="685.5" y="761.2607">20</text><text fill="#000000" font-family="sans-serif" font-size="13" lengthAdjust="spacing" textLength="156" x="703.5" y="761.2607">toDomain(agendaEntryDto)</text><polygon fill="#181818" points="1925,792.4688,1935,796.4688,1925,800.4688,1929,796.4688" style="stroke:#181818;stroke-width:1.0;"/><line style="stroke:#181818;stroke-width:1.0;" x1="1726" x2="1931" y1="796.4688" y2="796.4688"/><text fill="#000000" font-family="sans-serif" font-size="13" font-weight="bold" lengthAdjust="spacing" textLength="14" x="1733" y="791.6123">21</text><text fill="#000000" font-family="sans-serif" font-size="13" lengthAdjust="spacing" textLength="36" x="1751" y="791.6123">create</text><rect fill="#E3E3E3" height="49.2188" rx="2.5" ry="2.5" style="stroke:#181818;stroke-width:0.5;" width="100" x="1937" y="774.1172"/><text fill="#000000" font-family="sans-serif" font-size="14" lengthAdjust="spacing" textLength="81" x="1946.5" y="795.6504">agendaEntry</text><text fill="#000000" font-family="sans-serif" font-size="14" lengthAdjust="spacing" textLength="86" x="1944" y="813.2598">:AgendaEntry</text><polygon fill="#181818" points="1737,852.6875,1727,856.6875,1737,860.6875,1733,856.6875" style="stroke:#181818;stroke-width:1.0;"/><line style="stroke:#181818;stroke-width:1.0;stroke-dasharray:2.0,2.0;" x1="1731" x2="1986" y1="856.6875" y2="856.6875"/><text fill="#000000" font-family="sans-serif" font-size="13" font-weight="bold" lengthAdjust="spacing" textLength="14" x="1743" y="851.8311">22</text><text fill="#000000" font-family="sans-serif" font-size="13" lengthAdjust="spacing" textLength="73" x="1761" y="851.8311">agendaEntry</text><polygon fill="#181818" points="694.5,883.0391,684.5,887.0391,694.5,891.0391,690.5,887.0391" style="stroke:#181818;stroke-width:1.0;"/><line style="stroke:#181818;stroke-width:1.0;stroke-dasharray:2.0,2.0;" x1="688.5" x2="1720" y1="887.0391" y2="887.0391"/><text fill="#000000" font-family="sans-serif" font-size="13" font-weight="bold" lengthAdjust="spacing" textLength="14" x="700.5" y="882.1826">23</text><text fill="#000000" font-family="sans-serif" font-size="13" lengthAdjust="spacing" textLength="73" x="718.5" y="882.1826">agendaEntry</text><polygon fill="#181818" points="1048,913.3906,1058,917.3906,1048,921.3906,1052,917.3906" style="stroke:#181818;stroke-width:1.0;"/><line style="stroke:#181818;stroke-width:1.0;" x1="678.5" x2="1054" y1="917.3906" y2="917.3906"/><text fill="#000000" font-family="sans-serif" font-size="13" font-weight="bold" lengthAdjust="spacing" textLength="14" x="685.5" y="912.5342">24</text><text fill="#000000" font-family="sans-serif" font-size="13" lengthAdjust="spacing" textLength="293" x="703.5" y="912.5342">updateAgendaEntry(agendaEntryDto, CANCELED)</text><line style="stroke:#181818;stroke-width:1.0;" x1="1070" x2="1112" y1="947.7422" y2="947.7422"/><line style="stroke:#181818;stroke-width:1.0;" x1="1112" x2="1112" y1="947.7422" y2="960.7422"/><line style="stroke:#181818;stroke-width:1.0;" x1="1071" x2="1112" y1="960.7422" y2="960.7422"/><polygon fill="#181818" points="1081,956.7422,1071,960.7422,1081,964.7422,1077,960.7422" style="stroke:#181818;stroke-width:1.0;"/><text fill="#000000" font-family="sans-serif" font-size="13" font-weight="bold" lengthAdjust="spacing" textLength="14" x="1077" y="942.8857">25</text><text fill="#000000" font-family="sans-serif" font-size="13" lengthAdjust="spacing" textLength="267" x="1095" y="942.8857">updateEntryStatus(agendaEntry, CANCELED)</text><polygon fill="#181818" points="694.5,987.0938,684.5,991.0938,694.5,995.0938,690.5,991.0938" style="stroke:#181818;stroke-width:1.0;"/><line style="stroke:#181818;stroke-width:1.0;stroke-dasharray:2.0,2.0;" x1="688.5" x2="1064" y1="991.0938" y2="991.0938"/><text fill="#000000" font-family="sans-serif" font-size="13" font-weight="bold" lengthAdjust="spacing" textLength="14" x="700.5" y="986.2373">26</text><text fill="#000000" font-family="sans-serif" font-size="13" lengthAdjust="spacing" textLength="49" x="718.5" y="986.2373">success</text><polygon fill="#181818" points="1357,1017.4453,1367,1021.4453,1357,1025.4453,1361,1021.4453" style="stroke:#181818;stroke-width:1.0;"/><line style="stroke:#181818;stroke-width:1.0;" x1="678.5" x2="1363" y1="1021.4453" y2="1021.4453"/><text fill="#000000" font-family="sans-serif" font-size="13" font-weight="bold" lengthAdjust="spacing" textLength="14" x="685.5" y="1016.5889">27</text><text fill="#000000" font-family="sans-serif" font-size="13" lengthAdjust="spacing" textLength="222" x="703.5" y="1016.5889">notifyTeam(agendaEntry, CANCELED)</text><line style="stroke:#181818;stroke-width:1.0;" x1="1379" x2="1426" y1="1046.7969" y2="1046.7969"/><line style="stroke:#181818;stroke-width:1.0;" x1="1426" x2="1426" y1="1046.7969" y2="1059.7969"/><line style="stroke:#181818;stroke-width:1.0;" x1="1385" x2="1426" y1="1059.7969" y2="1059.7969"/><polygon fill="#181818" points="1395,1055.7969,1385,1059.7969,1395,1063.7969,1391,1059.7969" style="stroke:#181818;stroke-width:1.0;"/><text fill="#000000" font-family="sans-serif" font-size="13" font-weight="bold" lengthAdjust="spacing" textLength="14" x="1391" y="1041.9404">28</text><text fill="#000000" font-family="sans-serif" font-size="13" lengthAdjust="spacing" textLength="178" x="1409" y="1041.9404">getTeamByEntry(agendaEntry)</text><line style="stroke:#181818;stroke-width:1.0;stroke-dasharray:2.0,2.0;" x1="1384" x2="1426" y1="1100.1484" y2="1100.1484"/><line style="stroke:#181818;stroke-width:1.0;stroke-dasharray:2.0,2.0;" x1="1426" x2="1426" y1="1100.1484" y2="1113.1484"/><line style="stroke:#181818;stroke-width:1.0;stroke-dasharray:2.0,2.0;" x1="1379" x2="1426" y1="1113.1484" y2="1113.1484"/><polygon fill="#181818" points="1389,1109.1484,1379,1113.1484,1389,1117.1484,1385,1113.1484" style="stroke:#181818;stroke-width:1.0;"/><text fill="#000000" font-family="sans-serif" font-size="13" font-weight="bold" lengthAdjust="spacing" textLength="14" x="1391" y="1095.292">29</text><text fill="#000000" font-family="sans-serif" font-size="13" lengthAdjust="spacing" textLength="38" x="1409" y="1095.292">teamD</text><line style="stroke:#181818;stroke-width:1.0;" x1="1379" x2="1426" y1="1133.5" y2="1133.5"/><line style="stroke:#181818;stroke-width:1.0;" x1="1426" x2="1426" y1="1133.5" y2="1146.5"/><line style="stroke:#181818;stroke-width:1.0;" x1="1385" x2="1426" y1="1146.5" y2="1146.5"/><polygon fill="#181818" points="1395,1142.5,1385,1146.5,1395,1150.5,1391,1146.5" style="stroke:#181818;stroke-width:1.0;"/><text fill="#000000" font-family="sans-serif" font-size="13" font-weight="bold" lengthAdjust="spacing" textLength="14" x="1391" y="1128.6436">30</text><text fill="#000000" font-family="sans-serif" font-size="13" lengthAdjust="spacing" textLength="152" x="1409" y="1128.6436">getCollaboratorsList(team)</text><line style="stroke:#181818;stroke-width:1.0;stroke-dasharray:2.0,2.0;" x1="1384" x2="1426" y1="1186.8516" y2="1186.8516"/><line style="stroke:#181818;stroke-width:1.0;stroke-dasharray:2.0,2.0;" x1="1426" x2="1426" y1="1186.8516" y2="1199.8516"/><line style="stroke:#181818;stroke-width:1.0;stroke-dasharray:2.0,2.0;" x1="1379" x2="1426" y1="1199.8516" y2="1199.8516"/><polygon fill="#181818" points="1389,1195.8516,1379,1199.8516,1389,1203.8516,1385,1199.8516" style="stroke:#181818;stroke-width:1.0;"/><text fill="#000000" font-family="sans-serif" font-size="13" font-weight="bold" lengthAdjust="spacing" textLength="14" x="1391" y="1181.9951">31</text><text fill="#000000" font-family="sans-serif" font-size="13" lengthAdjust="spacing" textLength="95" x="1409" y="1181.9951">collaboratorsList</text><line style="stroke:#181818;stroke-width:1.0;" x1="1379" x2="1426" y1="1220.2031" y2="1220.2031"/><line style="stroke:#181818;stroke-width:1.0;" x1="1426" x2="1426" y1="1220.2031" y2="1233.2031"/><line style="stroke:#181818;stroke-width:1.0;" x1="1385" x2="1426" y1="1233.2031" y2="1233.2031"/><polygon fill="#181818" points="1395,1229.2031,1385,1233.2031,1395,1237.2031,1391,1233.2031" style="stroke:#181818;stroke-width:1.0;"/><text fill="#000000" font-family="sans-serif" font-size="13" font-weight="bold" lengthAdjust="spacing" textLength="14" x="1391" y="1215.3467">32</text><text fill="#000000" font-family="sans-serif" font-size="13" lengthAdjust="spacing" textLength="305" x="1409" y="1215.3467">notifyTeam(collaboratorsList, agendaEntry, newDate)</text><line style="stroke:#181818;stroke-width:1.0;stroke-dasharray:2.0,2.0;" x1="1384" x2="1426" y1="1273.5547" y2="1273.5547"/><line style="stroke:#181818;stroke-width:1.0;stroke-dasharray:2.0,2.0;" x1="1426" x2="1426" y1="1273.5547" y2="1286.5547"/><line style="stroke:#181818;stroke-width:1.0;stroke-dasharray:2.0,2.0;" x1="1379" x2="1426" y1="1286.5547" y2="1286.5547"/><polygon fill="#181818" points="1389,1282.5547,1379,1286.5547,1389,1290.5547,1385,1286.5547" style="stroke:#181818;stroke-width:1.0;"/><text fill="#000000" font-family="sans-serif" font-size="13" font-weight="bold" lengthAdjust="spacing" textLength="14" x="1391" y="1268.6982">33</text><text fill="#000000" font-family="sans-serif" font-size="13" lengthAdjust="spacing" textLength="49" x="1409" y="1268.6982">success</text><polygon fill="#181818" points="694.5,1307.9063,684.5,1311.9063,694.5,1315.9063,690.5,1311.9063" style="stroke:#181818;stroke-width:1.0;"/><line style="stroke:#181818;stroke-width:1.0;stroke-dasharray:2.0,2.0;" x1="688.5" x2="1373" y1="1311.9063" y2="1311.9063"/><text fill="#000000" font-family="sans-serif" font-size="13" font-weight="bold" lengthAdjust="spacing" textLength="14" x="700.5" y="1307.0498">34</text><text fill="#000000" font-family="sans-serif" font-size="13" lengthAdjust="spacing" textLength="49" x="718.5" y="1307.0498">success</text><polygon fill="#181818" points="477.5,1338.2578,467.5,1342.2578,477.5,1346.2578,473.5,1342.2578" style="stroke:#181818;stroke-width:1.0;"/><line style="stroke:#181818;stroke-width:1.0;stroke-dasharray:2.0,2.0;" x1="471.5" x2="677.5" y1="1342.2578" y2="1342.2578"/><text fill="#000000" font-family="sans-serif" font-size="13" font-weight="bold" lengthAdjust="spacing" textLength="14" x="483.5" y="1337.4014">35</text><text fill="#000000" font-family="sans-serif" font-size="13" lengthAdjust="spacing" textLength="49" x="501.5" y="1337.4014">success</text><polygon fill="#181818" points="39.5,1368.6094,29.5,1372.6094,39.5,1376.6094,35.5,1372.6094" style="stroke:#181818;stroke-width:1.0;"/><line style="stroke:#181818;stroke-width:1.0;stroke-dasharray:2.0,2.0;" x1="33.5" x2="460.5" y1="1372.6094" y2="1372.6094"/><text fill="#000000" font-family="sans-serif" font-size="13" font-weight="bold" lengthAdjust="spacing" textLength="14" x="45.5" y="1367.7529">36</text><text fill="#000000" font-family="sans-serif" font-size="13" lengthAdjust="spacing" textLength="386" x="63.5" y="1367.7529">displays a success message (agendaEntry canceled successfully)</text><!--SRC=[lLTDJ-Cm4BtdLumujHNyWHoGIbkja0fQKRZjnQHkQv7OsTW1vT_ls2Mf7TjfYbXwADLutlFpVDd8DyPBKf422i55TgX4GK5LDKrajrAIx8tiwKOrEOMAPehmVMuxo0FPYW_6zx0ZkQH9GcebU5syqWf_PqfKSFLhyt05H0B-JH2bMCPAmXLSfGl2CvhFzvHloOghgdcvDvulz-SS5mA_HPxJoW0Mpq_h7kI9ba8o5C2eD3wTeTamVGhKwK8g2_67-mI_r_Dd5q6rb1ClWbQknU0wMq_Xer1inpAYcE0RMhspZ1h_WBs7j0BnGChoCmYUrKMHq_9I2TGwTmnz2ZH5yIwuZqmIathsJXGrIKy0F_W3RcunjP2Y_vi49G33f4h1AH0EHtem8JM0ZWAhmHZq1-58ejCDiraAMKNHerlj8AOUEhF-60X20rM0WlPKtNEfT9LDfWwkemoLZ-EfFo7scrPm2dQ5ETWj7RzFUn9TZaVflQABdS3KhoVPq5WQUpKTanaWirQFyGzapUYrQcNDf9fWQKmloM5ttX3RNODqBgL3U-f6PxqpTx58WRZCiL1465krNbjYa9N0zffO_DDaA9B1W_ZjxlZbGfHUidqjha1KDPk1rrT3U-ivCRGFhfkGXiBWZYIFnGh3FEw92ww0m25FvUrkEPHMFxx1KCJAj9jryGszXd7xHK_C56zOyO73ya0XHoo8dJCfSN9kSQpyhQbKPgHAckCr3JXKazuMxHYr1_7HMuwRlrfL9sjZP94yXorHn9MH2RvZLM4kiBCgqjPT6gPHenynva5WeZfn8pmDXHTvBfWlNkPDmug2C1xTxBlQTaoNNjgYWpkCQSwHdJcs3UFSNss_uMi23rENM5pKukmbyXeMyyV5QhrQVY6baGkWTws411dBHX5LIrkGhURCBQMRkCuoAkNvw-cY-NKRUeVYRbnRcsTAYfZYY-CNUl1waGofYOh4Pu5MUDTukPx6E-RhCg8w58fO3dNFVpdw0lyn8g-Y8lY0a-Q5fNNyxCcpleQVZO9LfPwIQt0AbzEF9OhusV24UlRRWZ8y6aPiSsP8k0ySUuzGkm-_8xPCbZbfy2dH4a61NvWXiDlsyyAdszPhL-SvDhDxn_y3]--></g></svg>