<?xml version="1.0" encoding="UTF-8" standalone="no"?><svg xmlns="http://www.w3.org/2000/svg" xmlns:xlink="http://www.w3.org/1999/xlink" contentStyleType="text/css" height="936px" preserveAspectRatio="none" style="width:1010px;height:936px;background:#FFFFFF;" version="1.1" viewBox="0 0 1010 936" width="1010px" zoomAndPan="magnify"><defs/><g><!--class CancelAgendaEntryUI--><g id="elem_CancelAgendaEntryUI"><rect codeLine="5" fill="#F1F1F1" height="48" id="CancelAgendaEntryUI" rx="2.5" ry="2.5" style="stroke:#181818;stroke-width:0.5;" width="170" x="424.5" y="7"/><ellipse cx="439.5" cy="23" fill="#ADD1B2" rx="11" ry="11" style="stroke:#181818;stroke-width:1.0;"/><path d="M442.2656,18.875 Q442.4219,18.6563 442.6094,18.5469 Q442.7969,18.4375 443.0156,18.4375 Q443.3906,18.4375 443.625,18.7031 Q443.8594,18.9531 443.8594,19.5625 L443.8594,21.0156 Q443.8594,21.625 443.625,21.8906 Q443.3906,22.1563 443.0156,22.1563 Q442.6719,22.1563 442.4688,21.9531 Q442.2656,21.7656 442.1563,21.25 Q442.1094,20.8906 441.9219,20.7031 Q441.5938,20.3281 440.9844,20.1094 Q440.375,19.8906 439.75,19.8906 Q438.9844,19.8906 438.3438,20.2188 Q437.7188,20.5469 437.2188,21.2969 Q436.7344,22.0469 436.7344,23.0781 L436.7344,24.1719 Q436.7344,25.4063 437.625,26.2344 Q438.5156,27.0469 440.1094,27.0469 Q441.0469,27.0469 441.7031,26.7969 Q442.0938,26.6406 442.5156,26.2031 Q442.7813,25.9375 442.9219,25.8594 Q443.0781,25.7813 443.2813,25.7813 Q443.6094,25.7813 443.8594,26.0469 Q444.125,26.2969 444.125,26.6406 Q444.125,26.9844 443.7813,27.3906 Q443.2813,27.9688 442.4844,28.2969 Q441.4063,28.75 440.1094,28.75 Q438.5938,28.75 437.3906,28.125 Q436.4063,27.625 435.7188,26.5625 Q435.0313,25.4844 435.0313,24.2031 L435.0313,23.0469 Q435.0313,21.7188 435.6406,20.5781 Q436.2656,19.4219 437.3594,18.8125 Q438.4531,18.1875 439.6875,18.1875 Q440.4219,18.1875 441.0625,18.3594 Q441.7188,18.5156 442.2656,18.875 Z " fill="#000000"/><text fill="#000000" font-family="sans-serif" font-size="14" lengthAdjust="spacing" textLength="138" x="453.5" y="28.7285">CancelAgendaEntryUI</text><line style="stroke:#181818;stroke-width:0.5;" x1="425.5" x2="593.5" y1="39" y2="39"/><line style="stroke:#181818;stroke-width:0.5;" x1="425.5" x2="593.5" y1="47" y2="47"/></g><!--class CancelAgendaEntryController--><g id="elem_CancelAgendaEntryController"><rect codeLine="8" fill="#F1F1F1" height="136.0469" id="CancelAgendaEntryController" rx="2.5" ry="2.5" style="stroke:#181818;stroke-width:0.5;" width="473" x="273" y="116"/><ellipse cx="411.25" cy="132" fill="#ADD1B2" rx="11" ry="11" style="stroke:#181818;stroke-width:1.0;"/><path d="M414.0156,127.875 Q414.1719,127.6563 414.3594,127.5469 Q414.5469,127.4375 414.7656,127.4375 Q415.1406,127.4375 415.375,127.7031 Q415.6094,127.9531 415.6094,128.5625 L415.6094,130.0156 Q415.6094,130.625 415.375,130.8906 Q415.1406,131.1563 414.7656,131.1563 Q414.4219,131.1563 414.2188,130.9531 Q414.0156,130.7656 413.9063,130.25 Q413.8594,129.8906 413.6719,129.7031 Q413.3438,129.3281 412.7344,129.1094 Q412.125,128.8906 411.5,128.8906 Q410.7344,128.8906 410.0938,129.2188 Q409.4688,129.5469 408.9688,130.2969 Q408.4844,131.0469 408.4844,132.0781 L408.4844,133.1719 Q408.4844,134.4063 409.375,135.2344 Q410.2656,136.0469 411.8594,136.0469 Q412.7969,136.0469 413.4531,135.7969 Q413.8438,135.6406 414.2656,135.2031 Q414.5313,134.9375 414.6719,134.8594 Q414.8281,134.7813 415.0313,134.7813 Q415.3594,134.7813 415.6094,135.0469 Q415.875,135.2969 415.875,135.6406 Q415.875,135.9844 415.5313,136.3906 Q415.0313,136.9688 414.2344,137.2969 Q413.1563,137.75 411.8594,137.75 Q410.3438,137.75 409.1406,137.125 Q408.1563,136.625 407.4688,135.5625 Q406.7813,134.4844 406.7813,133.2031 L406.7813,132.0469 Q406.7813,130.7188 407.3906,129.5781 Q408.0156,128.4219 409.1094,127.8125 Q410.2031,127.1875 411.4375,127.1875 Q412.1719,127.1875 412.8125,127.3594 Q413.4688,127.5156 414.0156,127.875 Z " fill="#000000"/><text fill="#000000" font-family="sans-serif" font-size="14" lengthAdjust="spacing" textLength="188" x="431.75" y="137.7285">CancelAgendaEntryController</text><line style="stroke:#181818;stroke-width:0.5;" x1="274" x2="745" y1="148" y2="148"/><rect fill="none" height="6" style="stroke:#C82930;stroke-width:1.0;" width="6" x="281" y="159.3047"/><text fill="#000000" font-family="sans-serif" font-size="14" lengthAdjust="spacing" textLength="245" x="293" y="166.5332">agendaRepository : AgendaRepository</text><rect fill="none" height="6" style="stroke:#C82930;stroke-width:1.0;" width="6" x="281" y="176.9141"/><text fill="#000000" font-family="sans-serif" font-size="14" lengthAdjust="spacing" textLength="215" x="293" y="184.1426">teamRepository : TeamRepository</text><line style="stroke:#181818;stroke-width:0.5;" x1="274" x2="745" y1="191.2188" y2="191.2188"/><ellipse cx="284" cy="205.5234" fill="#84BE84" rx="3" ry="3" style="stroke:#038048;stroke-width:1.0;"/><text fill="#000000" font-family="sans-serif" font-size="14" lengthAdjust="spacing" textLength="447" x="293" y="209.752">cancelAgendaEntry(agendaEntry : AgendaEntry, reason : String) : void</text><ellipse cx="284" cy="223.1328" fill="#84BE84" rx="3" ry="3" style="stroke:#038048;stroke-width:1.0;"/><text fill="#000000" font-family="sans-serif" font-size="14" lengthAdjust="spacing" textLength="233" x="293" y="227.3613">getAgendaList() : List&lt;AgendaEntry&gt;</text><ellipse cx="284" cy="240.7422" fill="#84BE84" rx="3" ry="3" style="stroke:#038048;stroke-width:1.0;"/><text fill="#000000" font-family="sans-serif" font-size="14" lengthAdjust="spacing" textLength="344" x="293" y="244.9707">getTeamForEntry(agendaEntry : AgendaEntry) : Team</text></g><!--class Repositories--><g id="elem_Repositories"><rect codeLine="16" fill="#F1F1F1" height="171.2656" id="Repositories" rx="2.5" ry="2.5" style="stroke:#181818;stroke-width:0.5;" width="302" x="358.5" y="330"/><ellipse cx="465.75" cy="346" fill="#ADD1B2" rx="11" ry="11" style="stroke:#181818;stroke-width:1.0;"/><path d="M468.5156,341.875 Q468.6719,341.6563 468.8594,341.5469 Q469.0469,341.4375 469.2656,341.4375 Q469.6406,341.4375 469.875,341.7031 Q470.1094,341.9531 470.1094,342.5625 L470.1094,344.0156 Q470.1094,344.625 469.875,344.8906 Q469.6406,345.1563 469.2656,345.1563 Q468.9219,345.1563 468.7188,344.9531 Q468.5156,344.7656 468.4063,344.25 Q468.3594,343.8906 468.1719,343.7031 Q467.8438,343.3281 467.2344,343.1094 Q466.625,342.8906 466,342.8906 Q465.2344,342.8906 464.5938,343.2188 Q463.9688,343.5469 463.4688,344.2969 Q462.9844,345.0469 462.9844,346.0781 L462.9844,347.1719 Q462.9844,348.4063 463.875,349.2344 Q464.7656,350.0469 466.3594,350.0469 Q467.2969,350.0469 467.9531,349.7969 Q468.3438,349.6406 468.7656,349.2031 Q469.0313,348.9375 469.1719,348.8594 Q469.3281,348.7813 469.5313,348.7813 Q469.8594,348.7813 470.1094,349.0469 Q470.375,349.2969 470.375,349.6406 Q470.375,349.9844 470.0313,350.3906 Q469.5313,350.9688 468.7344,351.2969 Q467.6563,351.75 466.3594,351.75 Q464.8438,351.75 463.6406,351.125 Q462.6563,350.625 461.9688,349.5625 Q461.2813,348.4844 461.2813,347.2031 L461.2813,346.0469 Q461.2813,344.7188 461.8906,343.5781 Q462.5156,342.4219 463.6094,341.8125 Q464.7031,341.1875 465.9375,341.1875 Q466.6719,341.1875 467.3125,341.3594 Q467.9688,341.5156 468.5156,341.875 Z " fill="#000000"/><text fill="#000000" font-family="sans-serif" font-size="14" lengthAdjust="spacing" textLength="79" x="486.25" y="351.7285">Repositories</text><line style="stroke:#181818;stroke-width:0.5;" x1="359.5" x2="659.5" y1="362" y2="362"/><rect fill="none" height="6" style="stroke:#C82930;stroke-width:1.0;" width="6" x="366.5" y="373.3047"/><text fill="#000000" font-family="sans-serif" font-size="14" lengthAdjust="spacing" textLength="144" x="378.5" y="380.5332">instance : Repositories</text><rect fill="none" height="6" style="stroke:#C82930;stroke-width:1.0;" width="6" x="366.5" y="390.9141"/><text fill="#000000" font-family="sans-serif" font-size="14" lengthAdjust="spacing" textLength="245" x="378.5" y="398.1426">agendaRepository : AgendaRepository</text><rect fill="none" height="6" style="stroke:#C82930;stroke-width:1.0;" width="6" x="366.5" y="408.5234"/><text fill="#000000" font-family="sans-serif" font-size="14" lengthAdjust="spacing" textLength="215" x="378.5" y="415.752">teamRepository : TeamRepository</text><line style="stroke:#181818;stroke-width:0.5;" x1="359.5" x2="659.5" y1="422.8281" y2="422.8281"/><rect fill="#F24D5C" height="6" style="stroke:#C82930;stroke-width:1.0;" width="6" x="366.5" y="434.1328"/><text fill="#000000" font-family="sans-serif" font-size="14" lengthAdjust="spacing" textLength="89" x="378.5" y="441.3613">Repositories()</text><ellipse cx="369.5" cy="454.7422" fill="#84BE84" rx="3" ry="3" style="stroke:#038048;stroke-width:1.0;"/><text fill="#000000" font-family="sans-serif" font-size="14" lengthAdjust="spacing" textLength="174" x="378.5" y="458.9707">getInstance() : Repositories</text><ellipse cx="369.5" cy="472.3516" fill="#84BE84" rx="3" ry="3" style="stroke:#038048;stroke-width:1.0;"/><text fill="#000000" font-family="sans-serif" font-size="14" lengthAdjust="spacing" textLength="276" x="378.5" y="476.5801">getAgendaRepository() : AgendaRepository</text><ellipse cx="369.5" cy="489.9609" fill="#84BE84" rx="3" ry="3" style="stroke:#038048;stroke-width:1.0;"/><text fill="#000000" font-family="sans-serif" font-size="14" lengthAdjust="spacing" textLength="250" x="378.5" y="494.1895">getTeamRepository() : TeamRepository</text></g><!--class AgendaRepository--><g id="elem_AgendaRepository"><rect codeLine="26" fill="#F1F1F1" height="153.6563" id="AgendaRepository" rx="2.5" ry="2.5" style="stroke:#181818;stroke-width:0.5;" width="473" x="7" y="579"/><ellipse cx="180.75" cy="595" fill="#ADD1B2" rx="11" ry="11" style="stroke:#181818;stroke-width:1.0;"/><path d="M183.5156,590.875 Q183.6719,590.6563 183.8594,590.5469 Q184.0469,590.4375 184.2656,590.4375 Q184.6406,590.4375 184.875,590.7031 Q185.1094,590.9531 185.1094,591.5625 L185.1094,593.0156 Q185.1094,593.625 184.875,593.8906 Q184.6406,594.1563 184.2656,594.1563 Q183.9219,594.1563 183.7188,593.9531 Q183.5156,593.7656 183.4063,593.25 Q183.3594,592.8906 183.1719,592.7031 Q182.8438,592.3281 182.2344,592.1094 Q181.625,591.8906 181,591.8906 Q180.2344,591.8906 179.5938,592.2188 Q178.9688,592.5469 178.4688,593.2969 Q177.9844,594.0469 177.9844,595.0781 L177.9844,596.1719 Q177.9844,597.4063 178.875,598.2344 Q179.7656,599.0469 181.3594,599.0469 Q182.2969,599.0469 182.9531,598.7969 Q183.3438,598.6406 183.7656,598.2031 Q184.0313,597.9375 184.1719,597.8594 Q184.3281,597.7813 184.5313,597.7813 Q184.8594,597.7813 185.1094,598.0469 Q185.375,598.2969 185.375,598.6406 Q185.375,598.9844 185.0313,599.3906 Q184.5313,599.9688 183.7344,600.2969 Q182.6563,600.75 181.3594,600.75 Q179.8438,600.75 178.6406,600.125 Q177.6563,599.625 176.9688,598.5625 Q176.2813,597.4844 176.2813,596.2031 L176.2813,595.0469 Q176.2813,593.7188 176.8906,592.5781 Q177.5156,591.4219 178.6094,590.8125 Q179.7031,590.1875 180.9375,590.1875 Q181.6719,590.1875 182.3125,590.3594 Q182.9688,590.5156 183.5156,590.875 Z " fill="#000000"/><text fill="#000000" font-family="sans-serif" font-size="14" lengthAdjust="spacing" textLength="117" x="201.25" y="600.7285">AgendaRepository</text><line style="stroke:#181818;stroke-width:0.5;" x1="8" x2="479" y1="611" y2="611"/><rect fill="none" height="6" style="stroke:#C82930;stroke-width:1.0;" width="6" x="15" y="622.3047"/><text fill="#000000" font-family="sans-serif" font-size="14" lengthAdjust="spacing" textLength="224" x="27" y="629.5332">agendaEntries : List&lt;AgendaEntry&gt;</text><line style="stroke:#181818;stroke-width:0.5;" x1="8" x2="479" y1="636.6094" y2="636.6094"/><ellipse cx="18" cy="650.9141" fill="#84BE84" rx="3" ry="3" style="stroke:#038048;stroke-width:1.0;"/><text fill="#000000" font-family="sans-serif" font-size="14" lengthAdjust="spacing" textLength="421" x="27" y="655.1426">createAgendaEntry(status : String, startDate : Date) : AgendaEntry</text><ellipse cx="18" cy="668.5234" fill="#84BE84" rx="3" ry="3" style="stroke:#038048;stroke-width:1.0;"/><text fill="#000000" font-family="sans-serif" font-size="14" lengthAdjust="spacing" textLength="447" x="27" y="672.752">cancelAgendaEntry(agendaEntry : AgendaEntry, reason : String) : void</text><ellipse cx="18" cy="686.1328" fill="#84BE84" rx="3" ry="3" style="stroke:#038048;stroke-width:1.0;"/><text fill="#000000" font-family="sans-serif" font-size="14" lengthAdjust="spacing" textLength="173" x="27" y="690.3613">checkForDuplicates() : void</text><ellipse cx="18" cy="703.7422" fill="#84BE84" rx="3" ry="3" style="stroke:#038048;stroke-width:1.0;"/><text fill="#000000" font-family="sans-serif" font-size="14" lengthAdjust="spacing" textLength="329" x="27" y="707.9707">addAgendaEntry(agendaEntry : AgendaEntry) : void</text><ellipse cx="18" cy="721.3516" fill="#84BE84" rx="3" ry="3" style="stroke:#038048;stroke-width:1.0;"/><text fill="#000000" font-family="sans-serif" font-size="14" lengthAdjust="spacing" textLength="233" x="27" y="725.5801">getAgendaList() : List&lt;AgendaEntry&gt;</text></g><!--class TeamRepository--><g id="elem_TeamRepository"><rect codeLine="35" fill="#F1F1F1" height="153.6563" id="TeamRepository" rx="2.5" ry="2.5" style="stroke:#181818;stroke-width:0.5;" width="438" x="565.5" y="579"/><ellipse cx="728.25" cy="595" fill="#ADD1B2" rx="11" ry="11" style="stroke:#181818;stroke-width:1.0;"/><path d="M731.0156,590.875 Q731.1719,590.6563 731.3594,590.5469 Q731.5469,590.4375 731.7656,590.4375 Q732.1406,590.4375 732.375,590.7031 Q732.6094,590.9531 732.6094,591.5625 L732.6094,593.0156 Q732.6094,593.625 732.375,593.8906 Q732.1406,594.1563 731.7656,594.1563 Q731.4219,594.1563 731.2188,593.9531 Q731.0156,593.7656 730.9063,593.25 Q730.8594,592.8906 730.6719,592.7031 Q730.3438,592.3281 729.7344,592.1094 Q729.125,591.8906 728.5,591.8906 Q727.7344,591.8906 727.0938,592.2188 Q726.4688,592.5469 725.9688,593.2969 Q725.4844,594.0469 725.4844,595.0781 L725.4844,596.1719 Q725.4844,597.4063 726.375,598.2344 Q727.2656,599.0469 728.8594,599.0469 Q729.7969,599.0469 730.4531,598.7969 Q730.8438,598.6406 731.2656,598.2031 Q731.5313,597.9375 731.6719,597.8594 Q731.8281,597.7813 732.0313,597.7813 Q732.3594,597.7813 732.6094,598.0469 Q732.875,598.2969 732.875,598.6406 Q732.875,598.9844 732.5313,599.3906 Q732.0313,599.9688 731.2344,600.2969 Q730.1563,600.75 728.8594,600.75 Q727.3438,600.75 726.1406,600.125 Q725.1563,599.625 724.4688,598.5625 Q723.7813,597.4844 723.7813,596.2031 L723.7813,595.0469 Q723.7813,593.7188 724.3906,592.5781 Q725.0156,591.4219 726.1094,590.8125 Q727.2031,590.1875 728.4375,590.1875 Q729.1719,590.1875 729.8125,590.3594 Q730.4688,590.5156 731.0156,590.875 Z " fill="#000000"/><text fill="#000000" font-family="sans-serif" font-size="14" lengthAdjust="spacing" textLength="104" x="748.75" y="600.7285">TeamRepository</text><line style="stroke:#181818;stroke-width:0.5;" x1="566.5" x2="1002.5" y1="611" y2="611"/><rect fill="none" height="6" style="stroke:#C82930;stroke-width:1.0;" width="6" x="573.5" y="622.3047"/><text fill="#000000" font-family="sans-serif" font-size="14" lengthAdjust="spacing" textLength="139" x="585.5" y="629.5332">teamList : List&lt;Team&gt;</text><line style="stroke:#181818;stroke-width:0.5;" x1="566.5" x2="1002.5" y1="636.6094" y2="636.6094"/><ellipse cx="576.5" cy="650.9141" fill="#84BE84" rx="3" ry="3" style="stroke:#038048;stroke-width:1.0;"/><text fill="#000000" font-family="sans-serif" font-size="14" lengthAdjust="spacing" textLength="412" x="585.5" y="655.1426">createTeam(name : String, members : List&lt;Collaborator&gt;) : Team</text><ellipse cx="576.5" cy="668.5234" fill="#84BE84" rx="3" ry="3" style="stroke:#038048;stroke-width:1.0;"/><text fill="#000000" font-family="sans-serif" font-size="14" lengthAdjust="spacing" textLength="173" x="585.5" y="672.752">checkForDuplicates() : void</text><ellipse cx="576.5" cy="686.1328" fill="#84BE84" rx="3" ry="3" style="stroke:#038048;stroke-width:1.0;"/><text fill="#000000" font-family="sans-serif" font-size="14" lengthAdjust="spacing" textLength="187" x="585.5" y="690.3613">addTeam(team : Team) : void</text><ellipse cx="576.5" cy="703.7422" fill="#84BE84" rx="3" ry="3" style="stroke:#038048;stroke-width:1.0;"/><text fill="#000000" font-family="sans-serif" font-size="14" lengthAdjust="spacing" textLength="344" x="585.5" y="707.9707">getTeamForEntry(agendaEntry : AgendaEntry) : Team</text><ellipse cx="576.5" cy="721.3516" fill="#84BE84" rx="3" ry="3" style="stroke:#038048;stroke-width:1.0;"/><text fill="#000000" font-family="sans-serif" font-size="14" lengthAdjust="spacing" textLength="335" x="585.5" y="725.5801">notifyCancellation(agendaEntry : AgendaEntry) : void</text></g><!--class AgendaEntry--><g id="elem_AgendaEntry"><rect codeLine="44" fill="#F1F1F1" height="118.4375" id="AgendaEntry" rx="2.5" ry="2.5" style="stroke:#181818;stroke-width:0.5;" width="219" x="134" y="811"/><ellipse cx="198.25" cy="827" fill="#ADD1B2" rx="11" ry="11" style="stroke:#181818;stroke-width:1.0;"/><path d="M201.0156,822.875 Q201.1719,822.6563 201.3594,822.5469 Q201.5469,822.4375 201.7656,822.4375 Q202.1406,822.4375 202.375,822.7031 Q202.6094,822.9531 202.6094,823.5625 L202.6094,825.0156 Q202.6094,825.625 202.375,825.8906 Q202.1406,826.1563 201.7656,826.1563 Q201.4219,826.1563 201.2188,825.9531 Q201.0156,825.7656 200.9063,825.25 Q200.8594,824.8906 200.6719,824.7031 Q200.3438,824.3281 199.7344,824.1094 Q199.125,823.8906 198.5,823.8906 Q197.7344,823.8906 197.0938,824.2188 Q196.4688,824.5469 195.9688,825.2969 Q195.4844,826.0469 195.4844,827.0781 L195.4844,828.1719 Q195.4844,829.4063 196.375,830.2344 Q197.2656,831.0469 198.8594,831.0469 Q199.7969,831.0469 200.4531,830.7969 Q200.8438,830.6406 201.2656,830.2031 Q201.5313,829.9375 201.6719,829.8594 Q201.8281,829.7813 202.0313,829.7813 Q202.3594,829.7813 202.6094,830.0469 Q202.875,830.2969 202.875,830.6406 Q202.875,830.9844 202.5313,831.3906 Q202.0313,831.9688 201.2344,832.2969 Q200.1563,832.75 198.8594,832.75 Q197.3438,832.75 196.1406,832.125 Q195.1563,831.625 194.4688,830.5625 Q193.7813,829.4844 193.7813,828.2031 L193.7813,827.0469 Q193.7813,825.7188 194.3906,824.5781 Q195.0156,823.4219 196.1094,822.8125 Q197.2031,822.1875 198.4375,822.1875 Q199.1719,822.1875 199.8125,822.3594 Q200.4688,822.5156 201.0156,822.875 Z " fill="#000000"/><text fill="#000000" font-family="sans-serif" font-size="14" lengthAdjust="spacing" textLength="82" x="218.75" y="832.7285">AgendaEntry</text><line style="stroke:#181818;stroke-width:0.5;" x1="135" x2="352" y1="843" y2="843"/><rect fill="none" height="6" style="stroke:#C82930;stroke-width:1.0;" width="6" x="142" y="854.3047"/><text fill="#000000" font-family="sans-serif" font-size="14" lengthAdjust="spacing" textLength="143" x="154" y="861.5332">agendaEntryID : String</text><rect fill="none" height="6" style="stroke:#C82930;stroke-width:1.0;" width="6" x="142" y="871.9141"/><text fill="#000000" font-family="sans-serif" font-size="14" lengthAdjust="spacing" textLength="87" x="154" y="879.1426">status : String</text><rect fill="none" height="6" style="stroke:#C82930;stroke-width:1.0;" width="6" x="142" y="889.5234"/><text fill="#000000" font-family="sans-serif" font-size="14" lengthAdjust="spacing" textLength="100" x="154" y="896.752">startDate : Date</text><rect fill="none" height="6" style="stroke:#C82930;stroke-width:1.0;" width="6" x="142" y="907.1328"/><text fill="#000000" font-family="sans-serif" font-size="14" lengthAdjust="spacing" textLength="193" x="154" y="914.3613">reasonForCancellation : String</text><line style="stroke:#181818;stroke-width:0.5;" x1="135" x2="352" y1="921.4375" y2="921.4375"/></g><!--class Team--><g id="elem_Team"><rect codeLine="51" fill="#F1F1F1" height="100.8281" id="Team" rx="2.5" ry="2.5" style="stroke:#181818;stroke-width:0.5;" width="212" x="678.5" y="819.5"/><ellipse cx="762.25" cy="835.5" fill="#ADD1B2" rx="11" ry="11" style="stroke:#181818;stroke-width:1.0;"/><path d="M765.0156,831.375 Q765.1719,831.1563 765.3594,831.0469 Q765.5469,830.9375 765.7656,830.9375 Q766.1406,830.9375 766.375,831.2031 Q766.6094,831.4531 766.6094,832.0625 L766.6094,833.5156 Q766.6094,834.125 766.375,834.3906 Q766.1406,834.6563 765.7656,834.6563 Q765.4219,834.6563 765.2188,834.4531 Q765.0156,834.2656 764.9063,833.75 Q764.8594,833.3906 764.6719,833.2031 Q764.3438,832.8281 763.7344,832.6094 Q763.125,832.3906 762.5,832.3906 Q761.7344,832.3906 761.0938,832.7188 Q760.4688,833.0469 759.9688,833.7969 Q759.4844,834.5469 759.4844,835.5781 L759.4844,836.6719 Q759.4844,837.9063 760.375,838.7344 Q761.2656,839.5469 762.8594,839.5469 Q763.7969,839.5469 764.4531,839.2969 Q764.8438,839.1406 765.2656,838.7031 Q765.5313,838.4375 765.6719,838.3594 Q765.8281,838.2813 766.0313,838.2813 Q766.3594,838.2813 766.6094,838.5469 Q766.875,838.7969 766.875,839.1406 Q766.875,839.4844 766.5313,839.8906 Q766.0313,840.4688 765.2344,840.7969 Q764.1563,841.25 762.8594,841.25 Q761.3438,841.25 760.1406,840.625 Q759.1563,840.125 758.4688,839.0625 Q757.7813,837.9844 757.7813,836.7031 L757.7813,835.5469 Q757.7813,834.2188 758.3906,833.0781 Q759.0156,831.9219 760.1094,831.3125 Q761.2031,830.6875 762.4375,830.6875 Q763.1719,830.6875 763.8125,830.8594 Q764.4688,831.0156 765.0156,831.375 Z " fill="#000000"/><text fill="#000000" font-family="sans-serif" font-size="14" lengthAdjust="spacing" textLength="36" x="782.75" y="841.2285">Team</text><line style="stroke:#181818;stroke-width:0.5;" x1="679.5" x2="889.5" y1="851.5" y2="851.5"/><rect fill="none" height="6" style="stroke:#C82930;stroke-width:1.0;" width="6" x="686.5" y="862.8047"/><text fill="#000000" font-family="sans-serif" font-size="14" lengthAdjust="spacing" textLength="93" x="698.5" y="870.0332">teamID : String</text><rect fill="none" height="6" style="stroke:#C82930;stroke-width:1.0;" width="6" x="686.5" y="880.4141"/><text fill="#000000" font-family="sans-serif" font-size="14" lengthAdjust="spacing" textLength="84" x="698.5" y="887.6426">name : String</text><rect fill="none" height="6" style="stroke:#C82930;stroke-width:1.0;" width="6" x="686.5" y="898.0234"/><text fill="#000000" font-family="sans-serif" font-size="14" lengthAdjust="spacing" textLength="186" x="698.5" y="905.252">members : List&lt;Collaborator&gt;</text><line style="stroke:#181818;stroke-width:0.5;" x1="679.5" x2="889.5" y1="912.3281" y2="912.3281"/></g><!--link CancelAgendaEntryUI to CancelAgendaEntryController--><g id="link_CancelAgendaEntryUI_CancelAgendaEntryController"><path codeLine="57" d="M509.5,55.26 C509.5,70.29 509.5,90.72 509.5,110.84 " fill="none" id="CancelAgendaEntryUI-to-CancelAgendaEntryController" style="stroke:#181818;stroke-width:1.0;stroke-dasharray:7.0,7.0;"/><polygon fill="#181818" points="509.5,115.95,513.5,106.95,509.5,110.95,505.5,106.95,509.5,115.95" style="stroke:#181818;stroke-width:1.0;"/></g><!--link CancelAgendaEntryController to Repositories--><g id="link_CancelAgendaEntryController_Repositories"><path codeLine="58" d="M509.5,252.31 C509.5,274.9 509.5,300.48 509.5,324.53 " fill="none" id="CancelAgendaEntryController-to-Repositories" style="stroke:#181818;stroke-width:1.0;stroke-dasharray:7.0,7.0;"/><polygon fill="#181818" points="509.5,329.64,513.5,320.64,509.5,324.64,505.5,320.64,509.5,329.64" style="stroke:#181818;stroke-width:1.0;"/><text fill="#000000" font-family="sans-serif" font-size="13" lengthAdjust="spacing" textLength="67" x="510.5" y="296.4951">repositories</text></g><!--link Repositories to Repositories--><g id="link_Repositories_Repositories"><path codeLine="59" d="M660.57,394.75 C681.51,398.17 695.5,405.09 695.5,415.5 C695.5,425.02 683.81,431.62 665.81,435.29 " fill="none" id="Repositories-to-Repositories" style="stroke:#181818;stroke-width:1.0;"/><polygon fill="#181818" points="660.57,436.25,670.1433,438.5633,665.4882,435.3493,668.7022,430.6941,660.57,436.25" style="stroke:#181818;stroke-width:1.0;"/><text fill="#000000" font-family="sans-serif" font-size="13" lengthAdjust="spacing" textLength="49" x="701.5" y="420.9951">instance</text></g><!--link Repositories to AgendaRepository--><g id="link_Repositories_AgendaRepository"><path codeLine="60" d="M414.97,501.26 C388.07,525.38 358.87,551.56 332.32,575.36 " fill="none" id="Repositories-to-AgendaRepository" style="stroke:#181818;stroke-width:1.0;"/><polygon fill="#181818" points="328.43,578.85,337.8013,575.8204,332.1528,575.5123,332.4609,569.8638,328.43,578.85" style="stroke:#181818;stroke-width:1.0;"/><text fill="#000000" font-family="sans-serif" font-size="13" lengthAdjust="spacing" textLength="104" x="377.5" y="545.4951">agendaRepository</text><text fill="#000000" font-family="sans-serif" font-size="13" lengthAdjust="spacing" textLength="7" x="329.1913" y="568.2624">1</text></g><!--link Repositories to TeamRepository--><g id="link_Repositories_TeamRepository"><path codeLine="61" d="M607.23,501.26 C635.04,525.38 665.22,551.56 692.67,575.36 " fill="none" id="Repositories-to-TeamRepository" style="stroke:#181818;stroke-width:1.0;"/><polygon fill="#181818" points="696.7,578.85,692.5224,569.9311,692.923,575.5737,687.2803,575.9743,696.7,578.85" style="stroke:#181818;stroke-width:1.0;"/><text fill="#000000" font-family="sans-serif" font-size="13" lengthAdjust="spacing" textLength="91" x="656.5" y="545.4951">teamRepository</text><text fill="#000000" font-family="sans-serif" font-size="13" lengthAdjust="spacing" textLength="7" x="680.998" y="568.2624">1</text></g><!--link CancelAgendaEntryController to AgendaRepository--><g id="link_CancelAgendaEntryController_AgendaRepository"><path codeLine="62" d="M382.06,252.19 C310.13,290.12 234.5,330 234.5,330 C234.5,330 234.5,501 234.5,501 C234.5,501 236.59,536.82 238.76,573.9 " fill="none" id="CancelAgendaEntryController-to-AgendaRepository" style="stroke:#181818;stroke-width:1.0;stroke-dasharray:7.0,7.0;"/><polygon fill="#181818" points="239.05,578.9,242.53,569.6865,238.7648,573.9081,234.5431,570.1429,239.05,578.9" style="stroke:#181818;stroke-width:1.0;"/><text fill="#000000" font-family="sans-serif" font-size="13" lengthAdjust="spacing" textLength="104" x="235.5" y="420.9951">agendaRepository</text></g><!--link CancelAgendaEntryController to TeamRepository--><g id="link_CancelAgendaEntryController_TeamRepository"><path codeLine="63" d="M623.96,252.19 C688.57,290.12 756.5,330 756.5,330 C756.5,330 769.2,477.42 777.49,573.68 " fill="none" id="CancelAgendaEntryController-to-TeamRepository" style="stroke:#181818;stroke-width:1.0;stroke-dasharray:7.0,7.0;"/><polygon fill="#181818" points="777.94,578.8,781.1545,569.4905,777.5118,573.8184,773.1839,570.1756,777.94,578.8" style="stroke:#181818;stroke-width:1.0;"/><text fill="#000000" font-family="sans-serif" font-size="13" lengthAdjust="spacing" textLength="91" x="772.5" y="420.9951">teamRepository</text></g><!--link AgendaRepository to AgendaEntry--><g id="link_AgendaRepository_AgendaEntry"><path codeLine="64" d="M243.5,733.24 C243.5,756.96 243.5,782.86 243.5,805.61 " fill="none" id="AgendaRepository-to-AgendaEntry" style="stroke:#181818;stroke-width:1.0;"/><polygon fill="#181818" points="243.5,810.71,247.5,801.71,243.5,805.71,239.5,801.71,243.5,810.71" style="stroke:#181818;stroke-width:1.0;"/><text fill="#000000" font-family="sans-serif" font-size="13" lengthAdjust="spacing" textLength="83" x="244.5" y="777.4951">agendaEntries</text><text fill="#000000" font-family="sans-serif" font-size="13" lengthAdjust="spacing" textLength="5" x="238.1953" y="799.9989">*</text></g><!--link TeamRepository to Team--><g id="link_TeamRepository_Team"><path codeLine="65" d="M784.5,733.24 C784.5,759.95 784.5,789.4 784.5,814.02 " fill="none" id="TeamRepository-to-Team" style="stroke:#181818;stroke-width:1.0;"/><polygon fill="#181818" points="784.5,819.2,788.5,810.2,784.5,814.2,780.5,810.2,784.5,819.2" style="stroke:#181818;stroke-width:1.0;"/><text fill="#000000" font-family="sans-serif" font-size="13" lengthAdjust="spacing" textLength="50" x="785.5" y="777.4951">teamList</text><text fill="#000000" font-family="sans-serif" font-size="13" lengthAdjust="spacing" textLength="5" x="779.1484" y="808.4632">*</text></g><!--SRC=[jLHDR-8m4BtdLrYSmcwfr2jQ8LMmAo7rj6L_mDHnKml7ZcotgwZQ_xxZn3YsGu5MBGS8Cs- -thoCsNFPWeQ6j43tKBDxsmb6DACMP2rOOGB0F46b_d9PaqSG9lO8BfdjMaPQ9JhtfoYe06F86YHbuhPcieAVqkhkpvQy5l_UTAyLVYiXc4OOmS-2GE_zpLfbk5Mw8qjocvayqZ9e4jmkCVIexuJcDKiOdqFo_jyLqW16IRJUMus3p_7fHV7AfwgP7T1ttDZIETt3ZoZ3QaIwPdufVQRatBSzSXG6uCm4KhWqris1wDZllR6fd7yHZpZIrdVHZpxf8-9d3EwXH-i6aZ9mLZpmaYV91EFOT8ozlHEAoxKi5W9EOvzDsFOLGOEs6qIXpVtCqsLzlgBe4wDxLCdckHMSOaLJPWYegeigVK2gWTgKya2iquMBEWGxM4gcivGI6XPnsB3cWUcmY3M-tV2WD63gLL3xEwRlQxXMVEnqq7U-QKESL9O_TiD14c2vaXTmcubnW4vrs6qtWH3lpAGsMXEzUVEW6HmfRc-CJVQMR6jQDrcEjvtQa4j-x8XVNwzENU_Yr6LtiSbLM-A4qV58V8l517muVbFWx6OslGlBoUax7hZBprvw1y-ET4dXSpdEzJ2fqJV_RPO8S9cUm29BUWZP3U_GuQqkYly0]--></g></svg>