<?xml version="1.0" encoding="UTF-8" standalone="no"?><svg xmlns="http://www.w3.org/2000/svg" xmlns:xlink="http://www.w3.org/1999/xlink" contentStyleType="text/css" height="466px" preserveAspectRatio="none" style="width:425px;height:466px;background:#FFFFFF;" version="1.1" viewBox="0 0 425 466" width="425px" zoomAndPan="magnify"><defs/><g><text fill="#000000" font-family="sans-serif" font-size="14" font-weight="bold" lengthAdjust="spacing" textLength="284" x="69.75" y="29.5332">System Sequence Diagram (SSD) - US028</text><rect fill="#FFFFFF" height="243.8125" style="stroke:#181818;stroke-width:1.0;" width="10" x="16.5" y="131.2188"/><rect fill="#FFFFFF" height="30.3516" style="stroke:#181818;stroke-width:1.0;" width="10" x="382.5" y="153.5703"/><rect fill="#FFFFFF" height="30.3516" style="stroke:#181818;stroke-width:1.0;" width="10" x="382.5" y="214.2734"/><rect fill="#FFFFFF" height="30.3516" style="stroke:#181818;stroke-width:1.0;" width="10" x="382.5" y="274.9766"/><rect fill="#FFFFFF" height="30.3516" style="stroke:#181818;stroke-width:1.0;" width="10" x="382.5" y="335.6797"/><line style="stroke:#181818;stroke-width:0.5;stroke-dasharray:5.0,5.0;" x1="21" x2="21" y1="121.2188" y2="384.0313"/><line style="stroke:#181818;stroke-width:0.5;stroke-dasharray:5.0,5.0;" x1="387.5" x2="387.5" y1="121.2188" y2="384.0313"/><text fill="#000000" font-family="sans-serif" font-size="14" lengthAdjust="spacing" textLength="27" x="5" y="118.1426">CLB</text><ellipse cx="21.5" cy="52.1094" fill="#E3E3E3" rx="8" ry="8" style="stroke:#181818;stroke-width:0.5;"/><path d="M21.5,60.1094 L21.5,87.1094 M8.5,68.1094 L34.5,68.1094 M21.5,87.1094 L8.5,102.1094 M21.5,87.1094 L34.5,102.1094 " fill="none" style="stroke:#181818;stroke-width:0.5;"/><text fill="#000000" font-family="sans-serif" font-size="14" lengthAdjust="spacing" textLength="27" x="5" y="397.5645">CLB</text><ellipse cx="21.5" cy="409.1406" fill="#E3E3E3" rx="8" ry="8" style="stroke:#181818;stroke-width:0.5;"/><path d="M21.5,417.1406 L21.5,444.1406 M8.5,425.1406 L34.5,425.1406 M21.5,444.1406 L8.5,459.1406 M21.5,444.1406 L34.5,459.1406 " fill="none" style="stroke:#181818;stroke-width:0.5;"/><rect fill="#E3E3E3" height="31.6094" rx="2.5" ry="2.5" style="stroke:#181818;stroke-width:0.5;" width="64" x="355.5" y="88.6094"/><text fill="#000000" font-family="sans-serif" font-size="14" lengthAdjust="spacing" textLength="50" x="362.5" y="110.1426">:System</text><rect fill="#E3E3E3" height="31.6094" rx="2.5" ry="2.5" style="stroke:#181818;stroke-width:0.5;" width="64" x="355.5" y="383.0313"/><text fill="#000000" font-family="sans-serif" font-size="14" lengthAdjust="spacing" textLength="50" x="362.5" y="404.5645">:System</text><rect fill="#FFFFFF" height="243.8125" style="stroke:#181818;stroke-width:1.0;" width="10" x="16.5" y="131.2188"/><rect fill="#FFFFFF" height="30.3516" style="stroke:#181818;stroke-width:1.0;" width="10" x="382.5" y="153.5703"/><rect fill="#FFFFFF" height="30.3516" style="stroke:#181818;stroke-width:1.0;" width="10" x="382.5" y="214.2734"/><rect fill="#FFFFFF" height="30.3516" style="stroke:#181818;stroke-width:1.0;" width="10" x="382.5" y="274.9766"/><rect fill="#FFFFFF" height="30.3516" style="stroke:#181818;stroke-width:1.0;" width="10" x="382.5" y="335.6797"/><polygon fill="#181818" points="370.5,149.5703,380.5,153.5703,370.5,157.5703,374.5,153.5703" style="stroke:#181818;stroke-width:1.0;"/><line style="stroke:#181818;stroke-width:1.0;" x1="26.5" x2="376.5" y1="153.5703" y2="153.5703"/><text fill="#000000" font-family="sans-serif" font-size="13" font-weight="bold" lengthAdjust="spacing" textLength="7" x="33.5" y="148.7139">1</text><text fill="#000000" font-family="sans-serif" font-size="13" lengthAdjust="spacing" textLength="260" x="44.5" y="148.7139">asks to consult the entry assigned to himself</text><polygon fill="#181818" points="37.5,179.9219,27.5,183.9219,37.5,187.9219,33.5,183.9219" style="stroke:#181818;stroke-width:1.0;"/><line style="stroke:#181818;stroke-width:1.0;stroke-dasharray:2.0,2.0;" x1="31.5" x2="386.5" y1="183.9219" y2="183.9219"/><text fill="#000000" font-family="sans-serif" font-size="13" font-weight="bold" lengthAdjust="spacing" textLength="7" x="43.5" y="179.0654">2</text><text fill="#000000" font-family="sans-serif" font-size="13" lengthAdjust="spacing" textLength="321" x="54.5" y="179.0654">asks to select the beginning and end date of the search</text><polygon fill="#181818" points="370.5,210.2734,380.5,214.2734,370.5,218.2734,374.5,214.2734" style="stroke:#181818;stroke-width:1.0;"/><line style="stroke:#181818;stroke-width:1.0;" x1="26.5" x2="376.5" y1="214.2734" y2="214.2734"/><text fill="#000000" font-family="sans-serif" font-size="13" font-weight="bold" lengthAdjust="spacing" textLength="7" x="33.5" y="209.417">3</text><text fill="#000000" font-family="sans-serif" font-size="13" lengthAdjust="spacing" textLength="202" x="44.5" y="209.417">selects the beginning and end date</text><polygon fill="#181818" points="37.5,240.625,27.5,244.625,37.5,248.625,33.5,244.625" style="stroke:#181818;stroke-width:1.0;"/><line style="stroke:#181818;stroke-width:1.0;stroke-dasharray:2.0,2.0;" x1="31.5" x2="386.5" y1="244.625" y2="244.625"/><text fill="#000000" font-family="sans-serif" font-size="13" font-weight="bold" lengthAdjust="spacing" textLength="7" x="43.5" y="239.7686">4</text><text fill="#000000" font-family="sans-serif" font-size="13" lengthAdjust="spacing" textLength="304" x="54.5" y="239.7686">asks to select the type of status he wants to consult</text><polygon fill="#181818" points="370.5,270.9766,380.5,274.9766,370.5,278.9766,374.5,274.9766" style="stroke:#181818;stroke-width:1.0;"/><line style="stroke:#181818;stroke-width:1.0;" x1="26.5" x2="376.5" y1="274.9766" y2="274.9766"/><text fill="#000000" font-family="sans-serif" font-size="13" font-weight="bold" lengthAdjust="spacing" textLength="7" x="33.5" y="270.1201">5</text><text fill="#000000" font-family="sans-serif" font-size="13" lengthAdjust="spacing" textLength="212" x="44.5" y="270.1201">Selects the type he wants to consult</text><polygon fill="#181818" points="37.5,301.3281,27.5,305.3281,37.5,309.3281,33.5,305.3281" style="stroke:#181818;stroke-width:1.0;"/><line style="stroke:#181818;stroke-width:1.0;stroke-dasharray:2.0,2.0;" x1="31.5" x2="386.5" y1="305.3281" y2="305.3281"/><text fill="#000000" font-family="sans-serif" font-size="13" font-weight="bold" lengthAdjust="spacing" textLength="7" x="43.5" y="300.4717">6</text><text fill="#000000" font-family="sans-serif" font-size="13" lengthAdjust="spacing" textLength="120" x="54.5" y="300.4717">asks for confirmation</text><polygon fill="#181818" points="370.5,331.6797,380.5,335.6797,370.5,339.6797,374.5,335.6797" style="stroke:#181818;stroke-width:1.0;"/><line style="stroke:#181818;stroke-width:1.0;" x1="26.5" x2="376.5" y1="335.6797" y2="335.6797"/><text fill="#000000" font-family="sans-serif" font-size="13" font-weight="bold" lengthAdjust="spacing" textLength="7" x="33.5" y="330.8232">7</text><text fill="#000000" font-family="sans-serif" font-size="13" lengthAdjust="spacing" textLength="229" x="44.5" y="330.8232">confirms that he wants to create the list</text><polygon fill="#181818" points="37.5,362.0313,27.5,366.0313,37.5,370.0313,33.5,366.0313" style="stroke:#181818;stroke-width:1.0;"/><line style="stroke:#181818;stroke-width:1.0;stroke-dasharray:2.0,2.0;" x1="31.5" x2="386.5" y1="366.0313" y2="366.0313"/><text fill="#000000" font-family="sans-serif" font-size="13" font-weight="bold" lengthAdjust="spacing" textLength="7" x="43.5" y="361.1748">8</text><text fill="#000000" font-family="sans-serif" font-size="13" lengthAdjust="spacing" textLength="224" x="54.5" y="361.1748">displays greens spaces sorted by date</text><!--SRC=[fPFDJiCm383lVGfh9pXCGfpG3XnWHsuL3-2cRXkjTKhiClNjSR8V1eo9YLuInVRdJqug6yyZHXnW21nS5yD0e76YGewH4Tq6MofrxWaYEKLk-zC4wR0EMyyjDDWB5OLwjTHo5gK1IdgRY1t1scERqc_ASdqBItWjx-uVYW8d3JmD5KNREmqH5iylJmj00LiBQw7U-H5POR7QCNDmjyqr_XsLSdO1zja6be-7_YjBtWXe01TOfbv1Em9YZRD5nBTCTOfsVX3gcqmuCWzDqk6UjpHqwh0wOAtAXfAf5RMUEKq2kROUDTI94feS5SBekiogwMoBx-Oxj5nW_qjNvp7BYQ9E0dQojJ6VpkeQsV94DfD_u_rTjx7NO9MDZmEg3to5phuiwQ1-LOcKQfDcx-M2qZajgBsCFSu2RIHY0R7VWsm9KUqTLVFdhVpm_000]--></g></svg>