<?xml version="1.0" encoding="UTF-8" standalone="no"?><svg xmlns="http://www.w3.org/2000/svg" xmlns:xlink="http://www.w3.org/1999/xlink" contentStyleType="text/css" height="911px" preserveAspectRatio="none" style="width:1134px;height:911px;background:#FFFFFF;" version="1.1" viewBox="0 0 1134 911" width="1134px" zoomAndPan="magnify"><defs/><g><rect fill="#FFFFFF" height="727.8984" style="stroke:#181818;stroke-width:1.0;" width="10" x="18.5" y="92.6094"/><rect fill="#FFFFFF" height="133.6641" style="stroke:#181818;stroke-width:1.0;" width="10" x="297.5" y="114.9609"/><rect fill="#FFFFFF" height="30.3516" style="stroke:#181818;stroke-width:1.0;" width="10" x="297.5" y="781.1563"/><rect fill="#FFFFFF" height="133.6641" style="stroke:#181818;stroke-width:1.0;" width="10" x="460" y="248.625"/><rect fill="#FFFFFF" height="238.4609" style="stroke:#181818;stroke-width:1.0;" width="10" x="460" y="542.6953"/><rect fill="#FFFFFF" height="62.9609" style="stroke:#181818;stroke-width:1.0;" width="10" x="669" y="288.9766"/><rect fill="#FFFFFF" height="73.7031" style="stroke:#181818;stroke-width:1.0;" width="10" x="669" y="677.1016"/><rect fill="#FFFFFF" height="73.7031" style="stroke:#181818;stroke-width:1.0;" width="10" x="768" y="573.0469"/><rect fill="#FFFFFF" height="160.4063" style="stroke:#181818;stroke-width:1.0;" width="10" x="912" y="382.2891"/><line style="stroke:#181818;stroke-width:0.5;stroke-dasharray:5.0,5.0;" x1="23" x2="23" y1="82.6094" y2="829.5078"/><line style="stroke:#181818;stroke-width:0.5;stroke-dasharray:5.0,5.0;" x1="302" x2="302" y1="82.6094" y2="829.5078"/><line style="stroke:#181818;stroke-width:0.5;stroke-dasharray:5.0,5.0;" x1="464.5" x2="464.5" y1="154.2656" y2="829.5078"/><line style="stroke:#181818;stroke-width:0.5;stroke-dasharray:5.0,5.0;" x1="673.5" x2="673.5" y1="287.9297" y2="829.5078"/><line style="stroke:#181818;stroke-width:0.5;stroke-dasharray:5.0,5.0;" x1="773" x2="773" y1="82.6094" y2="829.5078"/><line style="stroke:#181818;stroke-width:0.5;stroke-dasharray:5.0,5.0;" x1="917" x2="917" y1="82.6094" y2="829.5078"/><text fill="#000000" font-family="sans-serif" font-size="14" lengthAdjust="spacing" textLength="31" x="5" y="79.5332">GSM</text><ellipse cx="23.5" cy="13.5" fill="#E3E3E3" rx="8" ry="8" style="stroke:#181818;stroke-width:0.5;"/><path d="M23.5,21.5 L23.5,48.5 M10.5,29.5 L36.5,29.5 M23.5,48.5 L10.5,63.5 M23.5,48.5 L36.5,63.5 " fill="none" style="stroke:#181818;stroke-width:0.5;"/><text fill="#000000" font-family="sans-serif" font-size="14" lengthAdjust="spacing" textLength="31" x="5" y="843.041">GSM</text><ellipse cx="23.5" cy="854.6172" fill="#E3E3E3" rx="8" ry="8" style="stroke:#181818;stroke-width:0.5;"/><path d="M23.5,862.6172 L23.5,889.6172 M10.5,870.6172 L36.5,870.6172 M23.5,889.6172 L10.5,904.6172 M23.5,889.6172 L36.5,904.6172 " fill="none" style="stroke:#181818;stroke-width:0.5;"/><rect fill="#E3E3E3" height="31.6094" rx="2.5" ry="2.5" style="stroke:#181818;stroke-width:0.5;" width="123" x="241" y="50"/><text fill="#000000" font-family="sans-serif" font-size="14" lengthAdjust="spacing" textLength="109" x="248" y="71.5332">:WaterIrrigationUI</text><rect fill="#E3E3E3" height="31.6094" rx="2.5" ry="2.5" style="stroke:#181818;stroke-width:0.5;" width="123" x="241" y="828.5078"/><text fill="#000000" font-family="sans-serif" font-size="14" lengthAdjust="spacing" textLength="109" x="248" y="850.041">:WaterIrrigationUI</text><rect fill="#E3E3E3" height="31.6094" rx="2.5" ry="2.5" style="stroke:#181818;stroke-width:0.5;" width="173" x="378.5" y="828.5078"/><text fill="#000000" font-family="sans-serif" font-size="14" lengthAdjust="spacing" textLength="159" x="385.5" y="850.041">:WaterIrrigationController</text><rect fill="#E3E3E3" height="31.6094" rx="2.5" ry="2.5" style="stroke:#181818;stroke-width:0.5;" width="97" x="625.5" y="828.5078"/><text fill="#000000" font-family="sans-serif" font-size="14" lengthAdjust="spacing" textLength="83" x="632.5" y="850.041">:ExternalCSV</text><rect fill="#E3E3E3" height="31.6094" rx="2.5" ry="2.5" style="stroke:#181818;stroke-width:0.5;" width="74" x="736" y="50"/><text fill="#000000" font-family="sans-serif" font-size="14" lengthAdjust="spacing" textLength="60" x="743" y="71.5332">:Graphviz</text><rect fill="#E3E3E3" height="31.6094" rx="2.5" ry="2.5" style="stroke:#181818;stroke-width:0.5;" width="74" x="736" y="828.5078"/><text fill="#000000" font-family="sans-serif" font-size="14" lengthAdjust="spacing" textLength="60" x="743" y="850.041">:Graphviz</text><rect fill="#E3E3E3" height="31.6094" rx="2.5" ry="2.5" style="stroke:#181818;stroke-width:0.5;" width="124" x="855" y="50"/><text fill="#000000" font-family="sans-serif" font-size="14" lengthAdjust="spacing" textLength="110" x="862" y="71.5332">:KruskalAlgorithm</text><rect fill="#E3E3E3" height="31.6094" rx="2.5" ry="2.5" style="stroke:#181818;stroke-width:0.5;" width="124" x="855" y="828.5078"/><text fill="#000000" font-family="sans-serif" font-size="14" lengthAdjust="spacing" textLength="110" x="862" y="850.041">:KruskalAlgorithm</text><rect fill="#FFFFFF" height="727.8984" style="stroke:#181818;stroke-width:1.0;" width="10" x="18.5" y="92.6094"/><rect fill="#FFFFFF" height="133.6641" style="stroke:#181818;stroke-width:1.0;" width="10" x="297.5" y="114.9609"/><rect fill="#FFFFFF" height="30.3516" style="stroke:#181818;stroke-width:1.0;" width="10" x="297.5" y="781.1563"/><rect fill="#FFFFFF" height="133.6641" style="stroke:#181818;stroke-width:1.0;" width="10" x="460" y="248.625"/><rect fill="#FFFFFF" height="238.4609" style="stroke:#181818;stroke-width:1.0;" width="10" x="460" y="542.6953"/><rect fill="#FFFFFF" height="62.9609" style="stroke:#181818;stroke-width:1.0;" width="10" x="669" y="288.9766"/><rect fill="#FFFFFF" height="73.7031" style="stroke:#181818;stroke-width:1.0;" width="10" x="669" y="677.1016"/><rect fill="#FFFFFF" height="73.7031" style="stroke:#181818;stroke-width:1.0;" width="10" x="768" y="573.0469"/><rect fill="#FFFFFF" height="160.4063" style="stroke:#181818;stroke-width:1.0;" width="10" x="912" y="382.2891"/><polygon fill="#181818" points="285.5,110.9609,295.5,114.9609,285.5,118.9609,289.5,114.9609" style="stroke:#181818;stroke-width:1.0;"/><line style="stroke:#181818;stroke-width:1.0;" x1="28.5" x2="291.5" y1="114.9609" y2="114.9609"/><text fill="#000000" font-family="sans-serif" font-size="13" font-weight="bold" lengthAdjust="spacing" textLength="7" x="35.5" y="110.1045">1</text><text fill="#000000" font-family="sans-serif" font-size="13" lengthAdjust="spacing" textLength="239" x="46.5" y="110.1045">wants to calculate the minimum cost tree</text><polygon fill="#181818" points="366.5,141.3125,376.5,145.3125,366.5,149.3125,370.5,145.3125" style="stroke:#181818;stroke-width:1.0;"/><line style="stroke:#181818;stroke-width:1.0;" x1="307.5" x2="372.5" y1="145.3125" y2="145.3125"/><text fill="#000000" font-family="sans-serif" font-size="13" font-weight="bold" lengthAdjust="spacing" textLength="7" x="314.5" y="140.4561">2</text><text fill="#000000" font-family="sans-serif" font-size="13" lengthAdjust="spacing" textLength="36" x="325.5" y="140.4561">create</text><rect fill="#E3E3E3" height="31.6094" rx="2.5" ry="2.5" style="stroke:#181818;stroke-width:0.5;" width="173" x="378.5" y="122.9609"/><text fill="#000000" font-family="sans-serif" font-size="14" lengthAdjust="spacing" textLength="159" x="385.5" y="144.4941">:WaterIrrigationController</text><polygon fill="#181818" points="39.5,183.9219,29.5,187.9219,39.5,191.9219,35.5,187.9219" style="stroke:#181818;stroke-width:1.0;"/><line style="stroke:#181818;stroke-width:1.0;stroke-dasharray:2.0,2.0;" x1="33.5" x2="296.5" y1="187.9219" y2="187.9219"/><text fill="#000000" font-family="sans-serif" font-size="13" font-weight="bold" lengthAdjust="spacing" textLength="7" x="45.5" y="183.0654">3</text><text fill="#000000" font-family="sans-serif" font-size="13" lengthAdjust="spacing" textLength="77" x="56.5" y="183.0654">asks for a file</text><polygon fill="#181818" points="285.5,214.2734,295.5,218.2734,285.5,222.2734,289.5,218.2734" style="stroke:#181818;stroke-width:1.0;"/><line style="stroke:#181818;stroke-width:1.0;" x1="28.5" x2="291.5" y1="218.2734" y2="218.2734"/><text fill="#000000" font-family="sans-serif" font-size="13" font-weight="bold" lengthAdjust="spacing" textLength="7" x="35.5" y="213.417">4</text><text fill="#000000" font-family="sans-serif" font-size="13" lengthAdjust="spacing" textLength="87" x="46.5" y="213.417">uploads the file</text><polygon fill="#181818" points="448,244.625,458,248.625,448,252.625,452,248.625" style="stroke:#181818;stroke-width:1.0;"/><line style="stroke:#181818;stroke-width:1.0;" x1="302.5" x2="454" y1="248.625" y2="248.625"/><text fill="#000000" font-family="sans-serif" font-size="13" font-weight="bold" lengthAdjust="spacing" textLength="7" x="309.5" y="243.7686">5</text><text fill="#000000" font-family="sans-serif" font-size="13" lengthAdjust="spacing" textLength="96" x="320.5" y="243.7686">gives the filepath</text><polygon fill="#181818" points="613.5,274.9766,623.5,278.9766,613.5,282.9766,617.5,278.9766" style="stroke:#181818;stroke-width:1.0;"/><line style="stroke:#181818;stroke-width:1.0;" x1="470" x2="619.5" y1="278.9766" y2="278.9766"/><text fill="#000000" font-family="sans-serif" font-size="13" font-weight="bold" lengthAdjust="spacing" textLength="7" x="477" y="274.1201">6</text><text fill="#000000" font-family="sans-serif" font-size="13" lengthAdjust="spacing" textLength="36" x="488" y="274.1201">create</text><rect fill="#E3E3E3" height="31.6094" rx="2.5" ry="2.5" style="stroke:#181818;stroke-width:0.5;" width="97" x="625.5" y="256.625"/><text fill="#000000" font-family="sans-serif" font-size="14" lengthAdjust="spacing" textLength="83" x="632.5" y="278.1582">:ExternalCSV</text><polygon fill="#181818" points="657,317.5859,667,321.5859,657,325.5859,661,321.5859" style="stroke:#181818;stroke-width:1.0;"/><line style="stroke:#181818;stroke-width:1.0;" x1="470" x2="663" y1="321.5859" y2="321.5859"/><text fill="#000000" font-family="sans-serif" font-size="13" font-weight="bold" lengthAdjust="spacing" textLength="7" x="477" y="316.7295">7</text><text fill="#000000" font-family="sans-serif" font-size="13" lengthAdjust="spacing" textLength="164" x="488" y="316.7295">import all routes from the file</text><polygon fill="#181818" points="481,347.9375,471,351.9375,481,355.9375,477,351.9375" style="stroke:#181818;stroke-width:1.0;"/><line style="stroke:#181818;stroke-width:1.0;stroke-dasharray:2.0,2.0;" x1="475" x2="673" y1="351.9375" y2="351.9375"/><text fill="#000000" font-family="sans-serif" font-size="13" font-weight="bold" lengthAdjust="spacing" textLength="7" x="487" y="347.0811">8</text><text fill="#000000" font-family="sans-serif" font-size="13" lengthAdjust="spacing" textLength="108" x="498" y="347.0811">gives all the routes</text><polygon fill="#181818" points="900,378.2891,910,382.2891,900,386.2891,904,382.2891" style="stroke:#181818;stroke-width:1.0;"/><line style="stroke:#181818;stroke-width:1.0;" x1="465" x2="906" y1="382.2891" y2="382.2891"/><text fill="#000000" font-family="sans-serif" font-size="13" font-weight="bold" lengthAdjust="spacing" textLength="7" x="472" y="377.4326">9</text><text fill="#000000" font-family="sans-serif" font-size="13" lengthAdjust="spacing" textLength="99" x="483" y="377.4326">asks to calculate</text><line style="stroke:#181818;stroke-width:1.0;" x1="922" x2="964" y1="412.6406" y2="412.6406"/><line style="stroke:#181818;stroke-width:1.0;" x1="964" x2="964" y1="412.6406" y2="425.6406"/><line style="stroke:#181818;stroke-width:1.0;" x1="923" x2="964" y1="425.6406" y2="425.6406"/><polygon fill="#181818" points="933,421.6406,923,425.6406,933,429.6406,929,425.6406" style="stroke:#181818;stroke-width:1.0;"/><text fill="#000000" font-family="sans-serif" font-size="13" font-weight="bold" lengthAdjust="spacing" textLength="14" x="929" y="407.7842">10</text><text fill="#000000" font-family="sans-serif" font-size="13" lengthAdjust="spacing" textLength="148" x="947" y="407.7842">sort all the routes by cost</text><line style="stroke:#181818;stroke-width:1.0;" x1="922" x2="964" y1="455.9922" y2="455.9922"/><line style="stroke:#181818;stroke-width:1.0;" x1="964" x2="964" y1="455.9922" y2="468.9922"/><line style="stroke:#181818;stroke-width:1.0;" x1="923" x2="964" y1="468.9922" y2="468.9922"/><polygon fill="#181818" points="933,464.9922,923,468.9922,933,472.9922,929,468.9922" style="stroke:#181818;stroke-width:1.0;"/><text fill="#000000" font-family="sans-serif" font-size="13" font-weight="bold" lengthAdjust="spacing" textLength="14" x="929" y="451.1357">11</text><text fill="#000000" font-family="sans-serif" font-size="13" lengthAdjust="spacing" textLength="106" x="947" y="451.1357">initializes vertexes</text><line style="stroke:#181818;stroke-width:1.0;" x1="922" x2="964" y1="499.3438" y2="499.3438"/><line style="stroke:#181818;stroke-width:1.0;" x1="964" x2="964" y1="499.3438" y2="512.3438"/><line style="stroke:#181818;stroke-width:1.0;" x1="923" x2="964" y1="512.3438" y2="512.3438"/><polygon fill="#181818" points="933,508.3438,923,512.3438,933,516.3438,929,512.3438" style="stroke:#181818;stroke-width:1.0;"/><text fill="#000000" font-family="sans-serif" font-size="13" font-weight="bold" lengthAdjust="spacing" textLength="14" x="929" y="494.4873">12</text><text fill="#000000" font-family="sans-serif" font-size="13" lengthAdjust="spacing" textLength="180" x="947" y="494.4873">Kruskal's algorithm to find MST</text><polygon fill="#181818" points="481,538.6953,471,542.6953,481,546.6953,477,542.6953" style="stroke:#181818;stroke-width:1.0;"/><line style="stroke:#181818;stroke-width:1.0;" x1="475" x2="916" y1="542.6953" y2="542.6953"/><text fill="#000000" font-family="sans-serif" font-size="13" font-weight="bold" lengthAdjust="spacing" textLength="14" x="487" y="537.8389">13</text><text fill="#000000" font-family="sans-serif" font-size="13" lengthAdjust="spacing" textLength="102" x="505" y="537.8389">MST list of routes</text><polygon fill="#181818" points="756,569.0469,766,573.0469,756,577.0469,760,573.0469" style="stroke:#181818;stroke-width:1.0;"/><line style="stroke:#181818;stroke-width:1.0;" x1="470" x2="762" y1="573.0469" y2="573.0469"/><text fill="#000000" font-family="sans-serif" font-size="13" font-weight="bold" lengthAdjust="spacing" textLength="14" x="477" y="568.1904">14</text><text fill="#000000" font-family="sans-serif" font-size="13" lengthAdjust="spacing" textLength="98" x="495" y="568.1904">execute(listMST)</text><line style="stroke:#181818;stroke-width:1.0;" x1="778" x2="820" y1="603.3984" y2="603.3984"/><line style="stroke:#181818;stroke-width:1.0;" x1="820" x2="820" y1="603.3984" y2="616.3984"/><line style="stroke:#181818;stroke-width:1.0;" x1="779" x2="820" y1="616.3984" y2="616.3984"/><polygon fill="#181818" points="789,612.3984,779,616.3984,789,620.3984,785,616.3984" style="stroke:#181818;stroke-width:1.0;"/><text fill="#000000" font-family="sans-serif" font-size="13" font-weight="bold" lengthAdjust="spacing" textLength="14" x="785" y="598.542">15</text><text fill="#000000" font-family="sans-serif" font-size="13" lengthAdjust="spacing" textLength="102" x="803" y="598.542">write and execute</text><polygon fill="#181818" points="481,642.75,471,646.75,481,650.75,477,646.75" style="stroke:#181818;stroke-width:1.0;"/><line style="stroke:#181818;stroke-width:1.0;stroke-dasharray:2.0,2.0;" x1="475" x2="772" y1="646.75" y2="646.75"/><text fill="#000000" font-family="sans-serif" font-size="13" font-weight="bold" lengthAdjust="spacing" textLength="14" x="487" y="641.8936">16</text><text fill="#000000" font-family="sans-serif" font-size="13" lengthAdjust="spacing" textLength="64" x="505" y="641.8936">graph done</text><polygon fill="#181818" points="657,673.1016,667,677.1016,657,681.1016,661,677.1016" style="stroke:#181818;stroke-width:1.0;"/><line style="stroke:#181818;stroke-width:1.0;" x1="470" x2="663" y1="677.1016" y2="677.1016"/><text fill="#000000" font-family="sans-serif" font-size="13" font-weight="bold" lengthAdjust="spacing" textLength="14" x="477" y="672.2451">17</text><text fill="#000000" font-family="sans-serif" font-size="13" lengthAdjust="spacing" textLength="133" x="495" y="672.2451">writeMSTCSV(listMST)</text><line style="stroke:#181818;stroke-width:1.0;" x1="679" x2="721" y1="707.4531" y2="707.4531"/><line style="stroke:#181818;stroke-width:1.0;" x1="721" x2="721" y1="707.4531" y2="720.4531"/><line style="stroke:#181818;stroke-width:1.0;" x1="680" x2="721" y1="720.4531" y2="720.4531"/><polygon fill="#181818" points="690,716.4531,680,720.4531,690,724.4531,686,720.4531" style="stroke:#181818;stroke-width:1.0;"/><text fill="#000000" font-family="sans-serif" font-size="13" font-weight="bold" lengthAdjust="spacing" textLength="14" x="686" y="702.5967">18</text><text fill="#000000" font-family="sans-serif" font-size="13" lengthAdjust="spacing" textLength="57" x="704" y="702.5967">writes csv</text><polygon fill="#181818" points="481,746.8047,471,750.8047,481,754.8047,477,750.8047" style="stroke:#181818;stroke-width:1.0;"/><line style="stroke:#181818;stroke-width:1.0;stroke-dasharray:2.0,2.0;" x1="475" x2="673" y1="750.8047" y2="750.8047"/><text fill="#000000" font-family="sans-serif" font-size="13" font-weight="bold" lengthAdjust="spacing" textLength="14" x="487" y="745.9482">19</text><text fill="#000000" font-family="sans-serif" font-size="13" lengthAdjust="spacing" textLength="51" x="505" y="745.9482">csv done</text><polygon fill="#181818" points="318.5,777.1563,308.5,781.1563,318.5,785.1563,314.5,781.1563" style="stroke:#181818;stroke-width:1.0;"/><line style="stroke:#181818;stroke-width:1.0;stroke-dasharray:2.0,2.0;" x1="312.5" x2="464" y1="781.1563" y2="781.1563"/><text fill="#000000" font-family="sans-serif" font-size="13" font-weight="bold" lengthAdjust="spacing" textLength="14" x="324.5" y="776.2998">20</text><text fill="#000000" font-family="sans-serif" font-size="13" lengthAdjust="spacing" textLength="28" x="342.5" y="776.2998">done</text><polygon fill="#181818" points="39.5,807.5078,29.5,811.5078,39.5,815.5078,35.5,811.5078" style="stroke:#181818;stroke-width:1.0;"/><line style="stroke:#181818;stroke-width:1.0;stroke-dasharray:2.0,2.0;" x1="33.5" x2="301.5" y1="811.5078" y2="811.5078"/><text fill="#000000" font-family="sans-serif" font-size="13" font-weight="bold" lengthAdjust="spacing" textLength="14" x="45.5" y="806.6514">21</text><text fill="#000000" font-family="sans-serif" font-size="13" lengthAdjust="spacing" textLength="106" x="63.5" y="806.6514">operation success</text><!--SRC=[VLJBRjim4BppAnQ-f0tW7_0XG64KWP7cKiVjUKsj948KAP2KxEJhkwIUbetgO9dapEpiW_ALCWqwhA6snihIsPeWk9Q4dquQb1KMT0oVci2H36WAlGJu4ZDxKQQ07BKd8R0DrhJrcPmGJwNA279hmzbU1SfW7MnUZ-yRG0_y5gmHb5GDcW2RtLyCv0xEgGA3ikPqIBZJuV-mlJN1MQt99VZ-u_Ul5U7dbGa6zVxu9q68rxnSeLuTDcMdlXAaY8iLuCsrlaBzGnVMgL3M2LZvIekOckhOLafAy0ziNzWuxE32N0_1WaGjMnqneIIebL5rMuEqFd3DYMO9plTqsBx4F9wVMK4wuctUWosBHkqT1wuyrzK1Ggwu7yk8RQCjPZw5IOUZ6fyLggFvfC5GYeoMaQV_gOo9nRf3mPPs9k1Op1MMaQfkh0k0MeEpRU30EO_Ox6j4nhHk_4L6HFMifSDri5ZziHpB6YyvAPDfbVgLQ3FTZpRde73-JBrPGxbjGQ5MNmpfo0Mwii4LPfYJfvZ8C2hHNAvC1k_7Zma-vCnRe1MFWSqVP9pyFkvAcb4MO0-IQT-Y28jzd-7z5FUu1U72dWYGxGpK4R9eHDh8hBafPQztt-aaoA7vWZrmCJPjwlSTrOFqtODvuDqx3xSZC0xz6dNRT1xiuVxqrySsvDAt0tmh9Nc_kWNzymy0]--></g></svg>