<?xml version="1.0" encoding="UTF-8" standalone="no"?><svg xmlns="http://www.w3.org/2000/svg" xmlns:xlink="http://www.w3.org/1999/xlink" contentStyleType="text/css" height="539px" preserveAspectRatio="none" style="width:766px;height:539px;background:#FFFFFF;" version="1.1" viewBox="0 0 766 539" width="766px" zoomAndPan="magnify"><defs/><g><rect fill="#FFFFFF" height="346.7734" style="stroke:#181818;stroke-width:1.0;" width="10" x="18.5" y="92.6094"/><rect fill="#FFFFFF" height="72.9609" style="stroke:#181818;stroke-width:1.0;" width="10" x="317.5" y="114.9609"/><rect fill="#FFFFFF" height="221.1094" style="stroke:#181818;stroke-width:1.0;" width="10" x="317.5" y="218.2734"/><rect fill="#FFFFFF" height="160.4063" style="stroke:#181818;stroke-width:1.0;" width="10" x="568.5" y="248.625"/><rect fill="#FFFFFF" height="41.3516" style="stroke:#181818;stroke-width:1.0;" width="10" x="573.5" y="286.9766"/><line style="stroke:#181818;stroke-width:0.5;stroke-dasharray:5.0,5.0;" x1="23" x2="23" y1="82.6094" y2="457.3828"/><line style="stroke:#181818;stroke-width:0.5;stroke-dasharray:5.0,5.0;" x1="322.5" x2="322.5" y1="82.6094" y2="457.3828"/><line style="stroke:#181818;stroke-width:0.5;stroke-dasharray:5.0,5.0;" x1="573.5" x2="573.5" y1="154.2656" y2="457.3828"/><text fill="#000000" font-family="sans-serif" font-size="14" lengthAdjust="spacing" textLength="31" x="5" y="79.5332">GSM</text><ellipse cx="23.5" cy="13.5" fill="#E3E3E3" rx="8" ry="8" style="stroke:#181818;stroke-width:0.5;"/><path d="M23.5,21.5 L23.5,48.5 M10.5,29.5 L36.5,29.5 M23.5,48.5 L10.5,63.5 M23.5,48.5 L36.5,63.5 " fill="none" style="stroke:#181818;stroke-width:0.5;"/><text fill="#000000" font-family="sans-serif" font-size="14" lengthAdjust="spacing" textLength="31" x="5" y="470.916">GSM</text><ellipse cx="23.5" cy="482.4922" fill="#E3E3E3" rx="8" ry="8" style="stroke:#181818;stroke-width:0.5;"/><path d="M23.5,490.4922 L23.5,517.4922 M10.5,498.4922 L36.5,498.4922 M23.5,517.4922 L10.5,532.4922 M23.5,517.4922 L36.5,532.4922 " fill="none" style="stroke:#181818;stroke-width:0.5;"/><rect fill="#E3E3E3" height="31.6094" rx="2.5" ry="2.5" style="stroke:#181818;stroke-width:0.5;" width="216" x="214.5" y="50"/><text fill="#000000" font-family="sans-serif" font-size="14" lengthAdjust="spacing" textLength="202" x="221.5" y="71.5332">:AnalyseParkEquipmentUsageUI</text><rect fill="#E3E3E3" height="31.6094" rx="2.5" ry="2.5" style="stroke:#181818;stroke-width:0.5;" width="216" x="214.5" y="456.3828"/><text fill="#000000" font-family="sans-serif" font-size="14" lengthAdjust="spacing" textLength="202" x="221.5" y="477.916">:AnalyseParkEquipmentUsageUI</text><rect fill="#E3E3E3" height="31.6094" rx="2.5" ry="2.5" style="stroke:#181818;stroke-width:0.5;" width="266" x="440.5" y="456.3828"/><text fill="#000000" font-family="sans-serif" font-size="14" lengthAdjust="spacing" textLength="252" x="447.5" y="477.916">:AnalyseParkEquipmentUsageController</text><rect fill="#FFFFFF" height="346.7734" style="stroke:#181818;stroke-width:1.0;" width="10" x="18.5" y="92.6094"/><rect fill="#FFFFFF" height="72.9609" style="stroke:#181818;stroke-width:1.0;" width="10" x="317.5" y="114.9609"/><rect fill="#FFFFFF" height="221.1094" style="stroke:#181818;stroke-width:1.0;" width="10" x="317.5" y="218.2734"/><rect fill="#FFFFFF" height="160.4063" style="stroke:#181818;stroke-width:1.0;" width="10" x="568.5" y="248.625"/><rect fill="#FFFFFF" height="41.3516" style="stroke:#181818;stroke-width:1.0;" width="10" x="573.5" y="286.9766"/><polygon fill="#181818" points="305.5,110.9609,315.5,114.9609,305.5,118.9609,309.5,114.9609" style="stroke:#181818;stroke-width:1.0;"/><line style="stroke:#181818;stroke-width:1.0;" x1="28.5" x2="311.5" y1="114.9609" y2="114.9609"/><text fill="#000000" font-family="sans-serif" font-size="13" font-weight="bold" lengthAdjust="spacing" textLength="7" x="35.5" y="110.1045">1</text><text fill="#000000" font-family="sans-serif" font-size="13" lengthAdjust="spacing" textLength="201" x="46.5" y="110.1045">wants to analyze equipment usage</text><polygon fill="#181818" points="428.5,141.3125,438.5,145.3125,428.5,149.3125,432.5,145.3125" style="stroke:#181818;stroke-width:1.0;"/><line style="stroke:#181818;stroke-width:1.0;" x1="327.5" x2="434.5" y1="145.3125" y2="145.3125"/><text fill="#000000" font-family="sans-serif" font-size="13" font-weight="bold" lengthAdjust="spacing" textLength="7" x="334.5" y="140.4561">2</text><text fill="#000000" font-family="sans-serif" font-size="13" lengthAdjust="spacing" textLength="43" x="345.5" y="140.4561">creates</text><rect fill="#E3E3E3" height="31.6094" rx="2.5" ry="2.5" style="stroke:#181818;stroke-width:0.5;" width="266" x="440.5" y="122.9609"/><text fill="#000000" font-family="sans-serif" font-size="14" lengthAdjust="spacing" textLength="252" x="447.5" y="144.4941">:AnalyseParkEquipmentUsageController</text><polygon fill="#181818" points="39.5,183.9219,29.5,187.9219,39.5,191.9219,35.5,187.9219" style="stroke:#181818;stroke-width:1.0;"/><line style="stroke:#181818;stroke-width:1.0;stroke-dasharray:2.0,2.0;" x1="33.5" x2="321.5" y1="187.9219" y2="187.9219"/><text fill="#000000" font-family="sans-serif" font-size="13" font-weight="bold" lengthAdjust="spacing" textLength="7" x="45.5" y="183.0654">3</text><text fill="#000000" font-family="sans-serif" font-size="13" lengthAdjust="spacing" textLength="254" x="56.5" y="183.0654">asks to upload the file (EquipmentUsed.csv)</text><polygon fill="#181818" points="305.5,214.2734,315.5,218.2734,305.5,222.2734,309.5,218.2734" style="stroke:#181818;stroke-width:1.0;"/><line style="stroke:#181818;stroke-width:1.0;" x1="28.5" x2="311.5" y1="218.2734" y2="218.2734"/><text fill="#000000" font-family="sans-serif" font-size="13" font-weight="bold" lengthAdjust="spacing" textLength="7" x="35.5" y="213.417">4</text><text fill="#000000" font-family="sans-serif" font-size="13" lengthAdjust="spacing" textLength="199" x="46.5" y="213.417">gives the file path (uploads the file)</text><polygon fill="#181818" points="556.5,244.625,566.5,248.625,556.5,252.625,560.5,248.625" style="stroke:#181818;stroke-width:1.0;"/><line style="stroke:#181818;stroke-width:1.0;" x1="327.5" x2="562.5" y1="248.625" y2="248.625"/><text fill="#000000" font-family="sans-serif" font-size="13" font-weight="bold" lengthAdjust="spacing" textLength="7" x="334.5" y="243.7686">5</text><text fill="#000000" font-family="sans-serif" font-size="13" lengthAdjust="spacing" textLength="77" x="345.5" y="243.7686">sends the file</text><line style="stroke:#181818;stroke-width:1.0;" x1="578.5" x2="625.5" y1="273.9766" y2="273.9766"/><line style="stroke:#181818;stroke-width:1.0;" x1="625.5" x2="625.5" y1="273.9766" y2="286.9766"/><line style="stroke:#181818;stroke-width:1.0;" x1="584.5" x2="625.5" y1="286.9766" y2="286.9766"/><polygon fill="#181818" points="594.5,282.9766,584.5,286.9766,594.5,290.9766,590.5,286.9766" style="stroke:#181818;stroke-width:1.0;"/><text fill="#000000" font-family="sans-serif" font-size="13" font-weight="bold" lengthAdjust="spacing" textLength="7" x="590.5" y="269.1201">6</text><text fill="#000000" font-family="sans-serif" font-size="13" lengthAdjust="spacing" textLength="158" x="601.5" y="269.1201">checks for formatting errors</text><line style="stroke:#181818;stroke-width:1.0;stroke-dasharray:2.0,2.0;" x1="583.5" x2="625.5" y1="327.3281" y2="327.3281"/><line style="stroke:#181818;stroke-width:1.0;stroke-dasharray:2.0,2.0;" x1="625.5" x2="625.5" y1="327.3281" y2="340.3281"/><line style="stroke:#181818;stroke-width:1.0;stroke-dasharray:2.0,2.0;" x1="578.5" x2="625.5" y1="340.3281" y2="340.3281"/><polygon fill="#181818" points="588.5,336.3281,578.5,340.3281,588.5,344.3281,584.5,340.3281" style="stroke:#181818;stroke-width:1.0;"/><text fill="#000000" font-family="sans-serif" font-size="13" font-weight="bold" lengthAdjust="spacing" textLength="7" x="590.5" y="322.4717">7</text><text fill="#000000" font-family="sans-serif" font-size="13" lengthAdjust="spacing" textLength="4" x="601.5" y="322.4717"> </text><line style="stroke:#181818;stroke-width:1.0;" x1="578.5" x2="620.5" y1="365.6797" y2="365.6797"/><line style="stroke:#181818;stroke-width:1.0;" x1="620.5" x2="620.5" y1="365.6797" y2="378.6797"/><line style="stroke:#181818;stroke-width:1.0;" x1="579.5" x2="620.5" y1="378.6797" y2="378.6797"/><polygon fill="#181818" points="589.5,374.6797,579.5,378.6797,589.5,382.6797,585.5,378.6797" style="stroke:#181818;stroke-width:1.0;"/><text fill="#000000" font-family="sans-serif" font-size="13" font-weight="bold" lengthAdjust="spacing" textLength="7" x="585.5" y="360.8232">8</text><text fill="#000000" font-family="sans-serif" font-size="13" lengthAdjust="spacing" textLength="90" x="596.5" y="360.8232">create pie chart</text><polygon fill="#181818" points="338.5,405.0313,328.5,409.0313,338.5,413.0313,334.5,409.0313" style="stroke:#181818;stroke-width:1.0;"/><line style="stroke:#181818;stroke-width:1.0;stroke-dasharray:2.0,2.0;" x1="332.5" x2="572.5" y1="409.0313" y2="409.0313"/><text fill="#000000" font-family="sans-serif" font-size="13" font-weight="bold" lengthAdjust="spacing" textLength="7" x="344.5" y="404.1748">9</text><text fill="#000000" font-family="sans-serif" font-size="13" lengthAdjust="spacing" textLength="50" x="355.5" y="404.1748">pie chart</text><polygon fill="#181818" points="34.5,435.3828,24.5,439.3828,34.5,443.3828,30.5,439.3828" style="stroke:#181818;stroke-width:1.0;"/><line style="stroke:#181818;stroke-width:1.0;stroke-dasharray:2.0,2.0;" x1="28.5" x2="321.5" y1="439.3828" y2="439.3828"/><text fill="#000000" font-family="sans-serif" font-size="13" font-weight="bold" lengthAdjust="spacing" textLength="14" x="40.5" y="434.5264">10</text><text fill="#000000" font-family="sans-serif" font-size="13" lengthAdjust="spacing" textLength="113" x="58.5" y="434.5264">shows the pie chart</text><!--SRC=[ZP71QiCm38RlUGhHKrle7Y27mYXZ53OOw_e0cgCc9ewTMKfBz_HJNDPueuCTJ69PtwzV4hVMznYnWoxuO9eOEWA90nLyVUdHj5ZJJiwE898HzBNB4xZ1Afoih-60ZgaeS93WX-wTeluR2H5cZxld6I23VWkbn1hRenUObVSUtPdf1MFxy37OlYClUzQ2-sqYzjl_0flW9GRdA2Pmy_RwbEhR8mgbodfWjLP9AE6aQWmI04UzJmBw5eDXL9j8TQ24SgFYSgciYQGFdC8Q7sLBBTaclQ5t0IkGXk1WTMJpp2LLTuQFYwAYN3stLTiZyGJtA0tCBv9JUF67EUMPV9QOzP_6aPAcPDEGKTC7tP2U3aN6BLAC8V9DShLEbyp-JTaq7kWjQGNTtHM-j3Z5V-ly72WtuNHfvIQXdMUtSRrV]--></g></svg>