<?xml version="1.0" encoding="UTF-8" standalone="no"?><svg xmlns="http://www.w3.org/2000/svg" xmlns:xlink="http://www.w3.org/1999/xlink" contentStyleType="text/css" height="1396px" preserveAspectRatio="none" style="width:1235px;height:1396px;background:#FFFFFF;" version="1.1" viewBox="0 0 1235 1396" width="1235px" zoomAndPan="magnify"><defs/><g><!--class ListMaintenanceUI--><g id="elem_ListMaintenanceUI"><rect codeLine="5" fill="#F1F1F1" height="100.8281" id="ListMaintenanceUI" rx="2.5" ry="2.5" style="stroke:#181818;stroke-width:0.5;" width="269" x="538" y="7"/><ellipse cx="610.75" cy="23" fill="#ADD1B2" rx="11" ry="11" style="stroke:#181818;stroke-width:1.0;"/><path d="M613.5156,18.875 Q613.6719,18.6563 613.8594,18.5469 Q614.0469,18.4375 614.2656,18.4375 Q614.6406,18.4375 614.875,18.7031 Q615.1094,18.9531 615.1094,19.5625 L615.1094,21.0156 Q615.1094,21.625 614.875,21.8906 Q614.6406,22.1563 614.2656,22.1563 Q613.9219,22.1563 613.7188,21.9531 Q613.5156,21.7656 613.4063,21.25 Q613.3594,20.8906 613.1719,20.7031 Q612.8438,20.3281 612.2344,20.1094 Q611.625,19.8906 611,19.8906 Q610.2344,19.8906 609.5938,20.2188 Q608.9688,20.5469 608.4688,21.2969 Q607.9844,22.0469 607.9844,23.0781 L607.9844,24.1719 Q607.9844,25.4063 608.875,26.2344 Q609.7656,27.0469 611.3594,27.0469 Q612.2969,27.0469 612.9531,26.7969 Q613.3438,26.6406 613.7656,26.2031 Q614.0313,25.9375 614.1719,25.8594 Q614.3281,25.7813 614.5313,25.7813 Q614.8594,25.7813 615.1094,26.0469 Q615.375,26.2969 615.375,26.6406 Q615.375,26.9844 615.0313,27.3906 Q614.5313,27.9688 613.7344,28.2969 Q612.6563,28.75 611.3594,28.75 Q609.8438,28.75 608.6406,28.125 Q607.6563,27.625 606.9688,26.5625 Q606.2813,25.4844 606.2813,24.2031 L606.2813,23.0469 Q606.2813,21.7188 606.8906,20.5781 Q607.5156,19.4219 608.6094,18.8125 Q609.7031,18.1875 610.9375,18.1875 Q611.6719,18.1875 612.3125,18.3594 Q612.9688,18.5156 613.5156,18.875 Z " fill="#000000"/><text fill="#000000" font-family="sans-serif" font-size="14" lengthAdjust="spacing" textLength="115" x="631.25" y="28.7285">ListMaintenanceUI</text><line style="stroke:#181818;stroke-width:0.5;" x1="539" x2="806" y1="39" y2="39"/><rect fill="none" height="6" style="stroke:#C82930;stroke-width:1.0;" width="6" x="546" y="50.3047"/><text fill="#000000" font-family="sans-serif" font-size="14" lengthAdjust="spacing" textLength="236" x="558" y="57.5332">controller : ListMaintenanceController</text><line style="stroke:#181818;stroke-width:0.5;" x1="539" x2="806" y1="64.6094" y2="64.6094"/><ellipse cx="549" cy="78.9141" fill="#84BE84" rx="3" ry="3" style="stroke:#038048;stroke-width:1.0;"/><text fill="#000000" font-family="sans-serif" font-size="14" lengthAdjust="spacing" textLength="125" x="558" y="83.1426">ListMaintenanceUI()</text><ellipse cx="549" cy="96.5234" fill="#84BE84" rx="3" ry="3" style="stroke:#038048;stroke-width:1.0;"/><text fill="#000000" font-family="sans-serif" font-size="14" lengthAdjust="spacing" textLength="243" x="558" y="100.752">listVehiclesNeedingMaintenance() void</text></g><!--class ListMaintenanceController--><g id="elem_ListMaintenanceController"><rect codeLine="11" fill="#F1F1F1" height="136.0469" id="ListMaintenanceController" rx="2.5" ry="2.5" style="stroke:#181818;stroke-width:0.5;" width="422" x="461.5" y="169"/><ellipse cx="585.75" cy="185" fill="#ADD1B2" rx="11" ry="11" style="stroke:#181818;stroke-width:1.0;"/><path d="M588.5156,180.875 Q588.6719,180.6563 588.8594,180.5469 Q589.0469,180.4375 589.2656,180.4375 Q589.6406,180.4375 589.875,180.7031 Q590.1094,180.9531 590.1094,181.5625 L590.1094,183.0156 Q590.1094,183.625 589.875,183.8906 Q589.6406,184.1563 589.2656,184.1563 Q588.9219,184.1563 588.7188,183.9531 Q588.5156,183.7656 588.4063,183.25 Q588.3594,182.8906 588.1719,182.7031 Q587.8438,182.3281 587.2344,182.1094 Q586.625,181.8906 586,181.8906 Q585.2344,181.8906 584.5938,182.2188 Q583.9688,182.5469 583.4688,183.2969 Q582.9844,184.0469 582.9844,185.0781 L582.9844,186.1719 Q582.9844,187.4063 583.875,188.2344 Q584.7656,189.0469 586.3594,189.0469 Q587.2969,189.0469 587.9531,188.7969 Q588.3438,188.6406 588.7656,188.2031 Q589.0313,187.9375 589.1719,187.8594 Q589.3281,187.7813 589.5313,187.7813 Q589.8594,187.7813 590.1094,188.0469 Q590.375,188.2969 590.375,188.6406 Q590.375,188.9844 590.0313,189.3906 Q589.5313,189.9688 588.7344,190.2969 Q587.6563,190.75 586.3594,190.75 Q584.8438,190.75 583.6406,190.125 Q582.6563,189.625 581.9688,188.5625 Q581.2813,187.4844 581.2813,186.2031 L581.2813,185.0469 Q581.2813,183.7188 581.8906,182.5781 Q582.5156,181.4219 583.6094,180.8125 Q584.7031,180.1875 585.9375,180.1875 Q586.6719,180.1875 587.3125,180.3594 Q587.9688,180.5156 588.5156,180.875 Z " fill="#000000"/><text fill="#000000" font-family="sans-serif" font-size="14" lengthAdjust="spacing" textLength="165" x="606.25" y="190.7285">ListMaintenanceController</text><line style="stroke:#181818;stroke-width:0.5;" x1="462.5" x2="882.5" y1="201" y2="201"/><rect fill="none" height="6" style="stroke:#C82930;stroke-width:1.0;" width="6" x="469.5" y="212.3047"/><text fill="#000000" font-family="sans-serif" font-size="14" lengthAdjust="spacing" textLength="238" x="481.5" y="219.5332">vehicleRepository : VehicleRepository</text><rect fill="none" height="6" style="stroke:#C82930;stroke-width:1.0;" width="6" x="469.5" y="229.9141"/><text fill="#000000" font-family="sans-serif" font-size="14" lengthAdjust="spacing" textLength="310" x="481.5" y="237.1426">maintenanceRepository : MaintenanceRepository</text><line style="stroke:#181818;stroke-width:0.5;" x1="462.5" x2="882.5" y1="244.2188" y2="244.2188"/><ellipse cx="472.5" cy="258.5234" fill="#84BE84" rx="3" ry="3" style="stroke:#038048;stroke-width:1.0;"/><text fill="#000000" font-family="sans-serif" font-size="14" lengthAdjust="spacing" textLength="175" x="481.5" y="262.752">ListMaintenanceController()</text><ellipse cx="472.5" cy="276.1328" fill="#84BE84" rx="3" ry="3" style="stroke:#038048;stroke-width:1.0;"/><text fill="#000000" font-family="sans-serif" font-size="14" lengthAdjust="spacing" textLength="338" x="481.5" y="280.3613">getVehiclesNeedingMaintenanceList() : List &lt;Vehicle&gt;</text><ellipse cx="472.5" cy="293.7422" fill="#84BE84" rx="3" ry="3" style="stroke:#038048;stroke-width:1.0;"/><text fill="#000000" font-family="sans-serif" font-size="14" lengthAdjust="spacing" textLength="396" x="481.5" y="297.9707">createMaintenanceReport(List &lt;Vehicle&gt; : vehiclesList) : String</text></g><!--class Repositories--><g id="elem_Repositories"><rect codeLine="20" fill="#F1F1F1" height="171.2656" id="Repositories" rx="2.5" ry="2.5" style="stroke:#181818;stroke-width:0.5;" width="366" x="323.5" y="383"/><ellipse cx="462.75" cy="399" fill="#ADD1B2" rx="11" ry="11" style="stroke:#181818;stroke-width:1.0;"/><path d="M465.5156,394.875 Q465.6719,394.6563 465.8594,394.5469 Q466.0469,394.4375 466.2656,394.4375 Q466.6406,394.4375 466.875,394.7031 Q467.1094,394.9531 467.1094,395.5625 L467.1094,397.0156 Q467.1094,397.625 466.875,397.8906 Q466.6406,398.1563 466.2656,398.1563 Q465.9219,398.1563 465.7188,397.9531 Q465.5156,397.7656 465.4063,397.25 Q465.3594,396.8906 465.1719,396.7031 Q464.8438,396.3281 464.2344,396.1094 Q463.625,395.8906 463,395.8906 Q462.2344,395.8906 461.5938,396.2188 Q460.9688,396.5469 460.4688,397.2969 Q459.9844,398.0469 459.9844,399.0781 L459.9844,400.1719 Q459.9844,401.4063 460.875,402.2344 Q461.7656,403.0469 463.3594,403.0469 Q464.2969,403.0469 464.9531,402.7969 Q465.3438,402.6406 465.7656,402.2031 Q466.0313,401.9375 466.1719,401.8594 Q466.3281,401.7813 466.5313,401.7813 Q466.8594,401.7813 467.1094,402.0469 Q467.375,402.2969 467.375,402.6406 Q467.375,402.9844 467.0313,403.3906 Q466.5313,403.9688 465.7344,404.2969 Q464.6563,404.75 463.3594,404.75 Q461.8438,404.75 460.6406,404.125 Q459.6563,403.625 458.9688,402.5625 Q458.2813,401.4844 458.2813,400.2031 L458.2813,399.0469 Q458.2813,397.7188 458.8906,396.5781 Q459.5156,395.4219 460.6094,394.8125 Q461.7031,394.1875 462.9375,394.1875 Q463.6719,394.1875 464.3125,394.3594 Q464.9688,394.5156 465.5156,394.875 Z " fill="#000000"/><text fill="#000000" font-family="sans-serif" font-size="14" lengthAdjust="spacing" textLength="79" x="483.25" y="404.7285">Repositories</text><line style="stroke:#181818;stroke-width:0.5;" x1="324.5" x2="688.5" y1="415" y2="415"/><rect fill="none" height="6" style="stroke:#C82930;stroke-width:1.0;" width="6" x="331.5" y="426.3047"/><text fill="#000000" font-family="sans-serif" font-size="14" lengthAdjust="spacing" textLength="144" x="343.5" y="433.5332">instance : Repositories</text><rect fill="none" height="6" style="stroke:#C82930;stroke-width:1.0;" width="6" x="331.5" y="443.9141"/><text fill="#000000" font-family="sans-serif" font-size="14" lengthAdjust="spacing" textLength="238" x="343.5" y="451.1426">vehicleRepository : VehicleRepository</text><rect fill="none" height="6" style="stroke:#C82930;stroke-width:1.0;" width="6" x="331.5" y="461.5234"/><text fill="#000000" font-family="sans-serif" font-size="14" lengthAdjust="spacing" textLength="310" x="343.5" y="468.752">maintenanceRepository : MaintenanceRepository</text><line style="stroke:#181818;stroke-width:0.5;" x1="324.5" x2="688.5" y1="475.8281" y2="475.8281"/><rect fill="#F24D5C" height="6" style="stroke:#C82930;stroke-width:1.0;" width="6" x="331.5" y="487.1328"/><text fill="#000000" font-family="sans-serif" font-size="14" lengthAdjust="spacing" textLength="89" x="343.5" y="494.3613">Repositories()</text><ellipse cx="334.5" cy="507.7422" fill="#84BE84" rx="3" ry="3" style="stroke:#038048;stroke-width:1.0;"/><text fill="#000000" font-family="sans-serif" font-size="14" lengthAdjust="spacing" textLength="174" x="343.5" y="511.9707">getInstance() : Repositories</text><ellipse cx="334.5" cy="525.3516" fill="#84BE84" rx="3" ry="3" style="stroke:#038048;stroke-width:1.0;"/><text fill="#000000" font-family="sans-serif" font-size="14" lengthAdjust="spacing" textLength="270" x="343.5" y="529.5801">getVehicleRepository() : VehicleRepository</text><ellipse cx="334.5" cy="542.9609" fill="#84BE84" rx="3" ry="3" style="stroke:#038048;stroke-width:1.0;"/><text fill="#000000" font-family="sans-serif" font-size="14" lengthAdjust="spacing" textLength="340" x="343.5" y="547.1895">getMaintenanceRepository() : MaintenanceRepository</text></g><!--class VehicleRepository--><g id="elem_VehicleRepository"><rect codeLine="31" fill="#F1F1F1" height="100.8281" id="VehicleRepository" rx="2.5" ry="2.5" style="stroke:#181818;stroke-width:0.5;" width="590" x="153.5" y="881"/><ellipse cx="387.25" cy="897" fill="#ADD1B2" rx="11" ry="11" style="stroke:#181818;stroke-width:1.0;"/><path d="M390.0156,892.875 Q390.1719,892.6563 390.3594,892.5469 Q390.5469,892.4375 390.7656,892.4375 Q391.1406,892.4375 391.375,892.7031 Q391.6094,892.9531 391.6094,893.5625 L391.6094,895.0156 Q391.6094,895.625 391.375,895.8906 Q391.1406,896.1563 390.7656,896.1563 Q390.4219,896.1563 390.2188,895.9531 Q390.0156,895.7656 389.9063,895.25 Q389.8594,894.8906 389.6719,894.7031 Q389.3438,894.3281 388.7344,894.1094 Q388.125,893.8906 387.5,893.8906 Q386.7344,893.8906 386.0938,894.2188 Q385.4688,894.5469 384.9688,895.2969 Q384.4844,896.0469 384.4844,897.0781 L384.4844,898.1719 Q384.4844,899.4063 385.375,900.2344 Q386.2656,901.0469 387.8594,901.0469 Q388.7969,901.0469 389.4531,900.7969 Q389.8438,900.6406 390.2656,900.2031 Q390.5313,899.9375 390.6719,899.8594 Q390.8281,899.7813 391.0313,899.7813 Q391.3594,899.7813 391.6094,900.0469 Q391.875,900.2969 391.875,900.6406 Q391.875,900.9844 391.5313,901.3906 Q391.0313,901.9688 390.2344,902.2969 Q389.1563,902.75 387.8594,902.75 Q386.3438,902.75 385.1406,902.125 Q384.1563,901.625 383.4688,900.5625 Q382.7813,899.4844 382.7813,898.2031 L382.7813,897.0469 Q382.7813,895.7188 383.3906,894.5781 Q384.0156,893.4219 385.1094,892.8125 Q386.2031,892.1875 387.4375,892.1875 Q388.1719,892.1875 388.8125,892.3594 Q389.4688,892.5156 390.0156,892.875 Z " fill="#000000"/><text fill="#000000" font-family="sans-serif" font-size="14" lengthAdjust="spacing" textLength="114" x="407.75" y="902.7285">VehicleRepository</text><line style="stroke:#181818;stroke-width:0.5;" x1="154.5" x2="742.5" y1="913" y2="913"/><rect fill="none" height="6" style="stroke:#C82930;stroke-width:1.0;" width="6" x="161.5" y="924.3047"/><text fill="#000000" font-family="sans-serif" font-size="14" lengthAdjust="spacing" textLength="293" x="173.5" y="931.5332">vehicleNeedingMaintenanceList : List&lt;vehicle&gt;</text><line style="stroke:#181818;stroke-width:0.5;" x1="154.5" x2="742.5" y1="938.6094" y2="938.6094"/><ellipse cx="164.5" cy="952.9141" fill="#84BE84" rx="3" ry="3" style="stroke:#038048;stroke-width:1.0;"/><text fill="#000000" font-family="sans-serif" font-size="14" lengthAdjust="spacing" textLength="310" x="173.5" y="957.1426">getVehiclesNeedingMaintenance() : List&lt;vehicle&gt;</text><ellipse cx="164.5" cy="970.5234" fill="#84BE84" rx="3" ry="3" style="stroke:#038048;stroke-width:1.0;"/><text fill="#000000" font-family="sans-serif" font-size="14" lengthAdjust="spacing" textLength="564" x="173.5" y="974.752">getLastMaintenanceKm(String vehiclePlate, List&lt;Maintenance&gt; maintenanceList) : double</text></g><!--class MaintenanceRepository--><g id="elem_MaintenanceRepository"><rect codeLine="38" fill="#F1F1F1" height="136.0469" id="MaintenanceRepository" rx="2.5" ry="2.5" style="stroke:#181818;stroke-width:0.5;" width="496" x="590.5" y="632"/><ellipse cx="759.75" cy="648" fill="#ADD1B2" rx="11" ry="11" style="stroke:#181818;stroke-width:1.0;"/><path d="M762.5156,643.875 Q762.6719,643.6563 762.8594,643.5469 Q763.0469,643.4375 763.2656,643.4375 Q763.6406,643.4375 763.875,643.7031 Q764.1094,643.9531 764.1094,644.5625 L764.1094,646.0156 Q764.1094,646.625 763.875,646.8906 Q763.6406,647.1563 763.2656,647.1563 Q762.9219,647.1563 762.7188,646.9531 Q762.5156,646.7656 762.4063,646.25 Q762.3594,645.8906 762.1719,645.7031 Q761.8438,645.3281 761.2344,645.1094 Q760.625,644.8906 760,644.8906 Q759.2344,644.8906 758.5938,645.2188 Q757.9688,645.5469 757.4688,646.2969 Q756.9844,647.0469 756.9844,648.0781 L756.9844,649.1719 Q756.9844,650.4063 757.875,651.2344 Q758.7656,652.0469 760.3594,652.0469 Q761.2969,652.0469 761.9531,651.7969 Q762.3438,651.6406 762.7656,651.2031 Q763.0313,650.9375 763.1719,650.8594 Q763.3281,650.7813 763.5313,650.7813 Q763.8594,650.7813 764.1094,651.0469 Q764.375,651.2969 764.375,651.6406 Q764.375,651.9844 764.0313,652.3906 Q763.5313,652.9688 762.7344,653.2969 Q761.6563,653.75 760.3594,653.75 Q758.8438,653.75 757.6406,653.125 Q756.6563,652.625 755.9688,651.5625 Q755.2813,650.4844 755.2813,649.2031 L755.2813,648.0469 Q755.2813,646.7188 755.8906,645.5781 Q756.5156,644.4219 757.6094,643.8125 Q758.7031,643.1875 759.9375,643.1875 Q760.6719,643.1875 761.3125,643.3594 Q761.9688,643.5156 762.5156,643.875 Z " fill="#000000"/><text fill="#000000" font-family="sans-serif" font-size="14" lengthAdjust="spacing" textLength="149" x="780.25" y="653.7285">MaintenanceRepository</text><line style="stroke:#181818;stroke-width:0.5;" x1="591.5" x2="1085.5" y1="664" y2="664"/><rect fill="none" height="6" style="stroke:#C82930;stroke-width:1.0;" width="6" x="598.5" y="675.3047"/><text fill="#000000" font-family="sans-serif" font-size="14" lengthAdjust="spacing" textLength="217" x="610.5" y="682.5332">maintenanceReport : Maintenance</text><line style="stroke:#181818;stroke-width:0.5;" x1="591.5" x2="1085.5" y1="689.6094" y2="689.6094"/><ellipse cx="601.5" cy="703.9141" fill="#84BE84" rx="3" ry="3" style="stroke:#038048;stroke-width:1.0;"/><text fill="#000000" font-family="sans-serif" font-size="14" lengthAdjust="spacing" textLength="159" x="610.5" y="708.1426">maintenanceRepository()</text><ellipse cx="601.5" cy="721.5234" fill="#84BE84" rx="3" ry="3" style="stroke:#038048;stroke-width:1.0;"/><text fill="#000000" font-family="sans-serif" font-size="14" lengthAdjust="spacing" textLength="268" x="610.5" y="725.752">getMaintenanceList() : List &lt;Maintenance&gt;</text><ellipse cx="601.5" cy="739.1328" fill="#84BE84" rx="3" ry="3" style="stroke:#038048;stroke-width:1.0;"/><text fill="#000000" font-family="sans-serif" font-size="14" lengthAdjust="spacing" textLength="470" x="610.5" y="743.3613">getVehiclesNeedingMaintenance(vehicleList: List&lt;Vehicle&gt;) : List&lt;Vehicle&gt;</text><ellipse cx="601.5" cy="756.7422" fill="#84BE84" rx="3" ry="3" style="stroke:#038048;stroke-width:1.0;"/><text fill="#000000" font-family="sans-serif" font-size="14" lengthAdjust="spacing" textLength="432" x="610.5" y="760.9707">createMaintenanceReport(vehiclesList: List&lt;Vehicle&gt;) : Maintenance</text></g><!--class Vehicle--><g id="elem_Vehicle"><rect codeLine="47" fill="#F1F1F1" height="294.5313" id="Vehicle" rx="2.5" ry="2.5" style="stroke:#181818;stroke-width:0.5;" width="883" x="7" y="1095"/><ellipse cx="421.25" cy="1111" fill="#ADD1B2" rx="11" ry="11" style="stroke:#181818;stroke-width:1.0;"/><path d="M424.0156,1106.875 Q424.1719,1106.6563 424.3594,1106.5469 Q424.5469,1106.4375 424.7656,1106.4375 Q425.1406,1106.4375 425.375,1106.7031 Q425.6094,1106.9531 425.6094,1107.5625 L425.6094,1109.0156 Q425.6094,1109.625 425.375,1109.8906 Q425.1406,1110.1563 424.7656,1110.1563 Q424.4219,1110.1563 424.2188,1109.9531 Q424.0156,1109.7656 423.9063,1109.25 Q423.8594,1108.8906 423.6719,1108.7031 Q423.3438,1108.3281 422.7344,1108.1094 Q422.125,1107.8906 421.5,1107.8906 Q420.7344,1107.8906 420.0938,1108.2188 Q419.4688,1108.5469 418.9688,1109.2969 Q418.4844,1110.0469 418.4844,1111.0781 L418.4844,1112.1719 Q418.4844,1113.4063 419.375,1114.2344 Q420.2656,1115.0469 421.8594,1115.0469 Q422.7969,1115.0469 423.4531,1114.7969 Q423.8438,1114.6406 424.2656,1114.2031 Q424.5313,1113.9375 424.6719,1113.8594 Q424.8281,1113.7813 425.0313,1113.7813 Q425.3594,1113.7813 425.6094,1114.0469 Q425.875,1114.2969 425.875,1114.6406 Q425.875,1114.9844 425.5313,1115.3906 Q425.0313,1115.9688 424.2344,1116.2969 Q423.1563,1116.75 421.8594,1116.75 Q420.3438,1116.75 419.1406,1116.125 Q418.1563,1115.625 417.4688,1114.5625 Q416.7813,1113.4844 416.7813,1112.2031 L416.7813,1111.0469 Q416.7813,1109.7188 417.3906,1108.5781 Q418.0156,1107.4219 419.1094,1106.8125 Q420.2031,1106.1875 421.4375,1106.1875 Q422.1719,1106.1875 422.8125,1106.3594 Q423.4688,1106.5156 424.0156,1106.875 Z " fill="#000000"/><text fill="#000000" font-family="sans-serif" font-size="14" lengthAdjust="spacing" textLength="46" x="441.75" y="1116.7285">Vehicle</text><line style="stroke:#181818;stroke-width:0.5;" x1="8" x2="889" y1="1127" y2="1127"/><rect fill="none" height="6" style="stroke:#C82930;stroke-width:1.0;" width="6" x="15" y="1138.3047"/><text fill="#000000" font-family="sans-serif" font-size="14" lengthAdjust="spacing" textLength="70" x="27" y="1145.5332">VIN : String</text><rect fill="none" height="6" style="stroke:#C82930;stroke-width:1.0;" width="6" x="15" y="1155.9141"/><text fill="#000000" font-family="sans-serif" font-size="14" lengthAdjust="spacing" textLength="86" x="27" y="1163.1426">brand : String</text><rect fill="none" height="6" style="stroke:#C82930;stroke-width:1.0;" width="6" x="15" y="1173.5234"/><text fill="#000000" font-family="sans-serif" font-size="14" lengthAdjust="spacing" textLength="87" x="27" y="1180.752">model : String</text><rect fill="none" height="6" style="stroke:#C82930;stroke-width:1.0;" width="6" x="15" y="1191.1328"/><text fill="#000000" font-family="sans-serif" font-size="14" lengthAdjust="spacing" textLength="117" x="27" y="1198.3613">type : VehicleType</text><rect fill="none" height="6" style="stroke:#C82930;stroke-width:1.0;" width="6" x="15" y="1208.7422"/><text fill="#000000" font-family="sans-serif" font-size="14" lengthAdjust="spacing" textLength="177" x="27" y="1215.9707">registrationDate : LocalDate</text><rect fill="none" height="6" style="stroke:#C82930;stroke-width:1.0;" width="6" x="15" y="1226.3516"/><text fill="#000000" font-family="sans-serif" font-size="14" lengthAdjust="spacing" textLength="125" x="27" y="1233.5801">vehiclePlate : String</text><rect fill="none" height="6" style="stroke:#C82930;stroke-width:1.0;" width="6" x="15" y="1243.9609"/><text fill="#000000" font-family="sans-serif" font-size="14" lengthAdjust="spacing" textLength="124" x="27" y="1251.1895">tareWeight : double</text><rect fill="none" height="6" style="stroke:#C82930;stroke-width:1.0;" width="6" x="15" y="1261.5703"/><text fill="#000000" font-family="sans-serif" font-size="14" lengthAdjust="spacing" textLength="134" x="27" y="1268.7988">grossWeight : double</text><rect fill="none" height="6" style="stroke:#C82930;stroke-width:1.0;" width="6" x="15" y="1279.1797"/><text fill="#000000" font-family="sans-serif" font-size="14" lengthAdjust="spacing" textLength="120" x="27" y="1286.4082">currentKm : double</text><rect fill="none" height="6" style="stroke:#C82930;stroke-width:1.0;" width="6" x="15" y="1296.7891"/><text fill="#000000" font-family="sans-serif" font-size="14" lengthAdjust="spacing" textLength="173" x="27" y="1304.0176">acquisitionDate : LocalDate</text><rect fill="none" height="6" style="stroke:#C82930;stroke-width:1.0;" width="6" x="15" y="1314.3984"/><text fill="#000000" font-family="sans-serif" font-size="14" lengthAdjust="spacing" textLength="176" x="27" y="1321.627">maintenanceFrequency : int</text><line style="stroke:#181818;stroke-width:0.5;" x1="8" x2="889" y1="1328.7031" y2="1328.7031"/><ellipse cx="18" cy="1351.8125" fill="#84BE84" rx="3" ry="3" style="stroke:#038048;stroke-width:1.0;"/><text fill="#000000" font-family="sans-serif" font-size="14" lengthAdjust="spacing" textLength="853" x="27" y="1347.2363">Vehicle(VIN: String,brand: String, model: String, type: VehicleType, registrationDate: LocalDate vehiclePlate: String, tareWeight: double,</text><text fill="#000000" font-family="sans-serif" font-size="14" lengthAdjust="spacing" textLength="616" x="27" y="1364.8457">grossWeight: double, currentKm: double, acquisitionDate: LocalDate, maintenanceFrequency: int)</text><ellipse cx="18" cy="1378.2266" fill="#84BE84" rx="3" ry="3" style="stroke:#038048;stroke-width:1.0;"/><text fill="#000000" font-family="sans-serif" font-size="14" lengthAdjust="spacing" textLength="157" x="27" y="1382.4551">getVehiclePlate() : String</text></g><!--class Maintenance--><g id="elem_Maintenance"><rect codeLine="66" fill="#F1F1F1" height="171.2656" id="Maintenance" rx="2.5" ry="2.5" style="stroke:#181818;stroke-width:0.5;" width="449" x="779" y="846"/><ellipse cx="958.75" cy="862" fill="#ADD1B2" rx="11" ry="11" style="stroke:#181818;stroke-width:1.0;"/><path d="M961.5156,857.875 Q961.6719,857.6563 961.8594,857.5469 Q962.0469,857.4375 962.2656,857.4375 Q962.6406,857.4375 962.875,857.7031 Q963.1094,857.9531 963.1094,858.5625 L963.1094,860.0156 Q963.1094,860.625 962.875,860.8906 Q962.6406,861.1563 962.2656,861.1563 Q961.9219,861.1563 961.7188,860.9531 Q961.5156,860.7656 961.4063,860.25 Q961.3594,859.8906 961.1719,859.7031 Q960.8438,859.3281 960.2344,859.1094 Q959.625,858.8906 959,858.8906 Q958.2344,858.8906 957.5938,859.2188 Q956.9688,859.5469 956.4688,860.2969 Q955.9844,861.0469 955.9844,862.0781 L955.9844,863.1719 Q955.9844,864.4063 956.875,865.2344 Q957.7656,866.0469 959.3594,866.0469 Q960.2969,866.0469 960.9531,865.7969 Q961.3438,865.6406 961.7656,865.2031 Q962.0313,864.9375 962.1719,864.8594 Q962.3281,864.7813 962.5313,864.7813 Q962.8594,864.7813 963.1094,865.0469 Q963.375,865.2969 963.375,865.6406 Q963.375,865.9844 963.0313,866.3906 Q962.5313,866.9688 961.7344,867.2969 Q960.6563,867.75 959.3594,867.75 Q957.8438,867.75 956.6406,867.125 Q955.6563,866.625 954.9688,865.5625 Q954.2813,864.4844 954.2813,863.2031 L954.2813,862.0469 Q954.2813,860.7188 954.8906,859.5781 Q955.5156,858.4219 956.6094,857.8125 Q957.7031,857.1875 958.9375,857.1875 Q959.6719,857.1875 960.3125,857.3594 Q960.9688,857.5156 961.5156,857.875 Z " fill="#000000"/><text fill="#000000" font-family="sans-serif" font-size="14" lengthAdjust="spacing" textLength="81" x="979.25" y="867.7285">Maintenance</text><line style="stroke:#181818;stroke-width:0.5;" x1="780" x2="1227" y1="878" y2="878"/><rect fill="none" height="6" style="stroke:#C82930;stroke-width:1.0;" width="6" x="787" y="889.3047"/><text fill="#000000" font-family="sans-serif" font-size="14" lengthAdjust="spacing" textLength="100" x="799" y="896.5332">date: LocalDate</text><rect fill="none" height="6" style="stroke:#C82930;stroke-width:1.0;" width="6" x="787" y="906.9141"/><text fill="#000000" font-family="sans-serif" font-size="14" lengthAdjust="spacing" textLength="121" x="799" y="914.1426">vehiclePlate: String</text><rect fill="none" height="6" style="stroke:#C82930;stroke-width:1.0;" width="6" x="787" y="924.5234"/><text fill="#000000" font-family="sans-serif" font-size="14" lengthAdjust="spacing" textLength="41" x="799" y="931.752">km: int</text><line style="stroke:#181818;stroke-width:0.5;" x1="780" x2="1227" y1="938.8281" y2="938.8281"/><ellipse cx="790" cy="953.1328" fill="#84BE84" rx="3" ry="3" style="stroke:#038048;stroke-width:1.0;"/><text fill="#000000" font-family="sans-serif" font-size="14" lengthAdjust="spacing" textLength="423" x="799" y="957.3613">Maintenance( vehiclePlate: String, date : LocalDate, kilometers: int)</text><ellipse cx="790" cy="970.7422" fill="#84BE84" rx="3" ry="3" style="stroke:#038048;stroke-width:1.0;"/><text fill="#000000" font-family="sans-serif" font-size="14" lengthAdjust="spacing" textLength="136" x="799" y="974.9707">getDate() : LocalDate</text><ellipse cx="790" cy="988.3516" fill="#84BE84" rx="3" ry="3" style="stroke:#038048;stroke-width:1.0;"/><text fill="#000000" font-family="sans-serif" font-size="14" lengthAdjust="spacing" textLength="77" x="799" y="992.5801">getKm() : int</text><ellipse cx="790" cy="1005.9609" fill="#84BE84" rx="3" ry="3" style="stroke:#038048;stroke-width:1.0;"/><text fill="#000000" font-family="sans-serif" font-size="14" lengthAdjust="spacing" textLength="157" x="799" y="1010.1895">getVehiclePlate() : String</text></g><!--link ListMaintenanceUI to ListMaintenanceController--><g id="link_ListMaintenanceUI_ListMaintenanceController"><path codeLine="77" d="M672.5,108.42 C672.5,125.57 672.5,145.13 672.5,163.7 " fill="none" id="ListMaintenanceUI-to-ListMaintenanceController" style="stroke:#181818;stroke-width:1.0;stroke-dasharray:7.0,7.0;"/><polygon fill="#181818" points="672.5,168.91,676.5,159.91,672.5,163.91,668.5,159.91,672.5,168.91" style="stroke:#181818;stroke-width:1.0;"/></g><!--link ListMaintenanceController to Repositories--><g id="link_ListMaintenanceController_Repositories"><path codeLine="79" d="M623.82,305.31 C607.27,328.19 588.51,354.12 570.92,378.44 " fill="none" id="ListMaintenanceController-to-Repositories" style="stroke:#181818;stroke-width:1.0;stroke-dasharray:7.0,7.0;"/><polygon fill="#181818" points="567.88,382.64,576.3909,377.6837,570.8064,378.5859,569.9042,373.0014,567.88,382.64" style="stroke:#181818;stroke-width:1.0;"/><text fill="#000000" font-family="sans-serif" font-size="13" lengthAdjust="spacing" textLength="67" x="600.5" y="349.4951">repositories</text></g><!--link Repositories to Repositories--><g id="link_Repositories_Repositories"><path codeLine="81" d="M689.79,448.73 C710.83,452.4 724.5,458.99 724.5,468.5 C724.5,477.19 713.08,483.44 695.05,487.26 " fill="none" id="Repositories-to-Repositories" style="stroke:#181818;stroke-width:1.0;"/><polygon fill="#181818" points="689.79,488.27,699.3825,490.5025,694.7004,487.3279,697.8751,482.6458,689.79,488.27" style="stroke:#181818;stroke-width:1.0;"/><text fill="#000000" font-family="sans-serif" font-size="13" lengthAdjust="spacing" textLength="49" x="730.5" y="473.9951">instance</text></g><!--link ListMaintenanceController to MaintenanceRepository--><g id="link_ListMaintenanceController_MaintenanceRepository"><path codeLine="83" d="M736.81,305.24 C755.58,328.3 774.31,355.3 786.5,383 C821.16,461.73 832.92,560.72 836.8,626.72 " fill="none" id="ListMaintenanceController-to-MaintenanceRepository" style="stroke:#181818;stroke-width:1.0;stroke-dasharray:7.0,7.0;"/><polygon fill="#181818" points="837.08,631.81,840.5585,622.5959,836.7939,626.8182,832.5716,623.0536,837.08,631.81" style="stroke:#181818;stroke-width:1.0;"/><text fill="#000000" font-family="sans-serif" font-size="13" lengthAdjust="spacing" textLength="136" x="830.5" y="473.9951">MaintenanceRepository</text></g><!--link Repositories to VehicleRepository--><g id="link_Repositories_VehicleRepository"><path codeLine="85" d="M481.93,554.06 C475.57,578.96 469.42,606.4 465.5,632 C452.59,716.3 449.25,815.34 448.51,875.48 " fill="none" id="Repositories-to-VehicleRepository" style="stroke:#181818;stroke-width:1.0;"/><polygon fill="#181818" points="448.45,880.82,452.5526,871.8663,448.5071,875.8203,444.5531,871.7749,448.45,880.82" style="stroke:#181818;stroke-width:1.0;"/><text fill="#000000" font-family="sans-serif" font-size="13" lengthAdjust="spacing" textLength="105" x="466.5" y="705.4951">VehicleRepository</text><text fill="#000000" font-family="sans-serif" font-size="13" lengthAdjust="spacing" textLength="7" x="440.9508" y="870.1">1</text></g><!--link Repositories to MaintenanceRepository--><g id="link_Repositories_MaintenanceRepository"><path codeLine="87" d="M609.27,554.06 C630.46,570.49 652.9,587.19 674.5,602 C687.85,611.15 702.09,620.35 716.39,629.24 " fill="none" id="Repositories-to-MaintenanceRepository" style="stroke:#181818;stroke-width:1.0;"/><polygon fill="#181818" points="720.83,631.99,715.2736,623.8582,716.5756,629.3631,711.0707,630.6652,720.83,631.99" style="stroke:#181818;stroke-width:1.0;"/><text fill="#000000" font-family="sans-serif" font-size="13" lengthAdjust="spacing" textLength="136" x="675.5" y="598.4951">MaintenanceRepository</text><text fill="#000000" font-family="sans-serif" font-size="13" lengthAdjust="spacing" textLength="7" x="700.577" y="621.1882">1</text></g><!--link VehicleRepository to Vehicle--><g id="link_VehicleRepository_Vehicle"><path codeLine="89" d="M448.5,982.15 C448.5,1011.62 448.5,1050.72 448.5,1089.61 " fill="none" id="VehicleRepository-to-Vehicle" style="stroke:#181818;stroke-width:1.0;"/><polygon fill="#181818" points="448.5,1094.85,452.5,1085.85,448.5,1089.85,444.5,1085.85,448.5,1094.85" style="stroke:#181818;stroke-width:1.0;"/><text fill="#000000" font-family="sans-serif" font-size="13" lengthAdjust="spacing" textLength="39" x="449.5" y="1061.4951">vehicle</text><text fill="#000000" font-family="sans-serif" font-size="13" lengthAdjust="spacing" textLength="7" x="441.0516" y="1003.1932">1</text><text fill="#000000" font-family="sans-serif" font-size="13" lengthAdjust="spacing" textLength="5" x="443.3711" y="1084.3406">*</text></g><!--link MaintenanceRepository to VehicleRepository--><g id="link_MaintenanceRepository_VehicleRepository"><path codeLine="91" d="M724.38,768.15 C664.8,803.21 592.98,845.48 537.55,878.1 " fill="none" id="MaintenanceRepository-to-VehicleRepository" style="stroke:#181818;stroke-width:1.0;stroke-dasharray:7.0,7.0;"/><polygon fill="#181818" points="532.91,880.83,542.6973,879.7301,537.2237,878.3018,538.6521,872.8282,532.91,880.83" style="stroke:#181818;stroke-width:1.0;"/><text fill="#000000" font-family="sans-serif" font-size="13" lengthAdjust="spacing" textLength="28" x="667.5" y="812.4951">uses</text></g><!--link MaintenanceRepository to Maintenance--><g id="link_MaintenanceRepository_Maintenance"><path codeLine="93" d="M886.89,768.31 C903.34,791.19 921.99,817.12 939.47,841.44 " fill="none" id="MaintenanceRepository-to-Maintenance" style="stroke:#181818;stroke-width:1.0;"/><polygon fill="#181818" points="942.49,845.64,940.4881,835.9967,939.573,841.5791,933.9907,840.6639,942.49,845.64" style="stroke:#181818;stroke-width:1.0;"/><text fill="#000000" font-family="sans-serif" font-size="13" lengthAdjust="spacing" textLength="74" x="921.5" y="812.4951">maintenance</text><text fill="#000000" font-family="sans-serif" font-size="13" lengthAdjust="spacing" textLength="7" x="884.5193" y="789.6903">1</text><text fill="#000000" font-family="sans-serif" font-size="13" lengthAdjust="spacing" textLength="5" x="932.0321" y="835.0727">*</text></g><!--SRC=[dLPDZziW4BtpAz2UajPPgTTejPUkLehsGrMtJI-ziFRKGS6G1P8gglhVYp5WC2HDcrCCy_7Ucnb0RIdV4Kawl2FrbhJmeeyCi8HQ4zuoG2eOg0rfn4_AM_o3C1NlCCe1w-CEy4wmO_-5KCs8KlYHAlr4ADV02Q_Xw-eNmkQtmBNWMWh6GEBbrEfZsBF6x_CeixdROMPd3HjQCr3F08r15ndEvlWWQ8D-du0p9i8Urs48zXbsGb4jvD70Mq_Nd6qtHahidqhhgCnbX10ujN26KkzkQ0sQuHjdUEjSQmb4moI_rBFKs7WxcghVwAEzQ6doZ485t1IKqsRWJBdIVM3Z4zj45fSh-Dyg3evnVYTU473bO5gfYa1ZdSVurluqMkjK16OTov23g5dSQTULo-sAVNFmjRwaJqAFZ6x1wv4aBVZGpORoUnYVc6cYQl2Ex6xZKld6QSJ-rPmIWMDHWi2pctPcAffdrfKLHgKIJ0OYndkHJevpx-q4ysCI5BnmoEAPAeIAUKvRme_O0gzNp-CukhLNINYJhNQY0PQjsbCujF0Ny-Lt9BG6aYIQ2dvd2FJiH4rO_n-bisiR80zD97m3scxqM7UtrKgXr8czUYybSFtGPJkaVjjJKzmpWA9Ek9VmjWTUzsU3MVIzufZEZ70US6K52r-3KkDdBr6YK9Lf4o59D8c2134ygmf_vv4Eut8GO5oQC8_ILKNAbd5-FrXCi_JyBWnY6BycpONoeYSrN-1jbsWTpyq9NPf98IkyfKnqe46gAOixZpv5PFVCeJHtXRw4TVP2mDVNjsVU5UZqIw1tZ6-CfUcEwFv0oTMuM4oD_GNvjnJ5W_BahPSblVfmbLqdfPkhwFblkVDhouImaTvv3E51WL3v0h2KSG7nNlMQbfs6D2PBZ6mP3mZw0m00]--></g></svg>