<?xml version="1.0" encoding="UTF-8" standalone="no"?><svg xmlns="http://www.w3.org/2000/svg" xmlns:xlink="http://www.w3.org/1999/xlink" contentStyleType="text/css" height="756px" preserveAspectRatio="none" style="width:1567px;height:756px;background:#FFFFFF;" version="1.1" viewBox="0 0 1567 756" width="1567px" zoomAndPan="magnify"><defs/><g><rect fill="#FFFFFF" height="563.5859" style="stroke:#181818;stroke-width:1.0;" width="10" x="17.5" y="92.6094"/><rect fill="#FFFFFF" height="541.2344" style="stroke:#181818;stroke-width:1.0;" width="10" x="304.5" y="114.9609"/><rect fill="#FFFFFF" height="333.8672" style="stroke:#181818;stroke-width:1.0;" width="10" x="560.5" y="187.9219"/><rect fill="#FFFFFF" height="30.3516" style="stroke:#181818;stroke-width:1.0;" width="10" x="560.5" y="595.4922"/><rect fill="#FFFFFF" height="30.3516" style="stroke:#181818;stroke-width:1.0;" width="10" x="710.5" y="218.2734"/><rect fill="#FFFFFF" height="30.3516" style="stroke:#181818;stroke-width:1.0;" width="10" x="710.5" y="400.3828"/><rect fill="#FFFFFF" height="30.3516" style="stroke:#181818;stroke-width:1.0;" width="10" x="817.5" y="278.9766"/><rect fill="#FFFFFF" height="30.3516" style="stroke:#181818;stroke-width:1.0;" width="10" x="817.5" y="461.0859"/><rect fill="#FFFFFF" height="30.3516" style="stroke:#181818;stroke-width:1.0;" width="10" x="941" y="339.6797"/><rect fill="#FFFFFF" height="73.7031" style="stroke:#181818;stroke-width:1.0;" width="10" x="1099.5" y="521.7891"/><line style="stroke:#181818;stroke-width:0.5;stroke-dasharray:5.0,5.0;" x1="22" x2="22" y1="82.6094" y2="674.1953"/><line style="stroke:#181818;stroke-width:0.5;stroke-dasharray:5.0,5.0;" x1="309" x2="309" y1="82.6094" y2="674.1953"/><line style="stroke:#181818;stroke-width:0.5;stroke-dasharray:5.0,5.0;" x1="565" x2="565" y1="154.2656" y2="674.1953"/><line style="stroke:#181818;stroke-width:0.5;stroke-dasharray:5.0,5.0;" x1="715" x2="715" y1="82.6094" y2="674.1953"/><line style="stroke:#181818;stroke-width:0.5;stroke-dasharray:5.0,5.0;" x1="822" x2="822" y1="82.6094" y2="674.1953"/><line style="stroke:#181818;stroke-width:0.5;stroke-dasharray:5.0,5.0;" x1="946" x2="946" y1="82.6094" y2="674.1953"/><line style="stroke:#181818;stroke-width:0.5;stroke-dasharray:5.0,5.0;" x1="1104" x2="1104" y1="82.6094" y2="674.1953"/><line style="stroke:#181818;stroke-width:0.5;stroke-dasharray:5.0,5.0;" x1="1490.5" x2="1490.5" y1="82.6094" y2="674.1953"/><text fill="#000000" font-family="sans-serif" font-size="14" lengthAdjust="spacing" textLength="29" x="5" y="79.5332">VFM</text><ellipse cx="22.5" cy="13.5" fill="#E3E3E3" rx="8" ry="8" style="stroke:#181818;stroke-width:0.5;"/><path d="M22.5,21.5 L22.5,48.5 M9.5,29.5 L35.5,29.5 M22.5,48.5 L9.5,63.5 M22.5,48.5 L35.5,63.5 " fill="none" style="stroke:#181818;stroke-width:0.5;"/><text fill="#000000" font-family="sans-serif" font-size="14" lengthAdjust="spacing" textLength="29" x="5" y="687.7285">VFM</text><ellipse cx="22.5" cy="699.3047" fill="#E3E3E3" rx="8" ry="8" style="stroke:#181818;stroke-width:0.5;"/><path d="M22.5,707.3047 L22.5,734.3047 M9.5,715.3047 L35.5,715.3047 M22.5,734.3047 L9.5,749.3047 M22.5,734.3047 L35.5,749.3047 " fill="none" style="stroke:#181818;stroke-width:0.5;"/><rect fill="#E3E3E3" height="31.6094" rx="2.5" ry="2.5" style="stroke:#181818;stroke-width:0.5;" width="133" x="243" y="50"/><text fill="#000000" font-family="sans-serif" font-size="14" lengthAdjust="spacing" textLength="119" x="250" y="71.5332">:ListMaintenanceUI</text><rect fill="#E3E3E3" height="31.6094" rx="2.5" ry="2.5" style="stroke:#181818;stroke-width:0.5;" width="133" x="243" y="673.1953"/><text fill="#000000" font-family="sans-serif" font-size="14" lengthAdjust="spacing" textLength="119" x="250" y="694.7285">:ListMaintenanceUI</text><rect fill="#E3E3E3" height="31.6094" rx="2.5" ry="2.5" style="stroke:#181818;stroke-width:0.5;" width="183" x="474" y="673.1953"/><text fill="#000000" font-family="sans-serif" font-size="14" lengthAdjust="spacing" textLength="169" x="481" y="694.7285">:ListMaintenanceController</text><rect fill="#E3E3E3" height="31.6094" rx="2.5" ry="2.5" style="stroke:#181818;stroke-width:0.5;" width="97" x="667" y="50"/><text fill="#000000" font-family="sans-serif" font-size="14" lengthAdjust="spacing" textLength="83" x="674" y="71.5332">:Repositories</text><rect fill="#E3E3E3" height="31.6094" rx="2.5" ry="2.5" style="stroke:#181818;stroke-width:0.5;" width="97" x="667" y="673.1953"/><text fill="#000000" font-family="sans-serif" font-size="14" lengthAdjust="spacing" textLength="83" x="674" y="694.7285">:Repositories</text><rect fill="#E3E3E3" height="49.2188" rx="2.5" ry="2.5" style="stroke:#181818;stroke-width:0.5;" width="97" x="774" y="32.3906"/><text fill="#000000" font-family="sans-serif" font-size="14" lengthAdjust="spacing" textLength="74" x="785.5" y="53.9238">repositories</text><text fill="#000000" font-family="sans-serif" font-size="14" lengthAdjust="spacing" textLength="83" x="781" y="71.5332">:Repositories</text><rect fill="#E3E3E3" height="49.2188" rx="2.5" ry="2.5" style="stroke:#181818;stroke-width:0.5;" width="97" x="774" y="673.1953"/><text fill="#000000" font-family="sans-serif" font-size="14" lengthAdjust="spacing" textLength="74" x="785.5" y="694.7285">repositories</text><text fill="#000000" font-family="sans-serif" font-size="14" lengthAdjust="spacing" textLength="83" x="781" y="712.3379">:Repositories</text><rect fill="#E3E3E3" height="49.2188" rx="2.5" ry="2.5" style="stroke:#181818;stroke-width:0.5;" width="130" x="881" y="32.3906"/><text fill="#000000" font-family="sans-serif" font-size="14" lengthAdjust="spacing" textLength="116" x="888" y="53.9238">vehicleRepository:</text><text fill="#000000" font-family="sans-serif" font-size="14" lengthAdjust="spacing" textLength="114" x="889" y="71.5332">VehicleRepository</text><rect fill="#E3E3E3" height="49.2188" rx="2.5" ry="2.5" style="stroke:#181818;stroke-width:0.5;" width="130" x="881" y="673.1953"/><text fill="#000000" font-family="sans-serif" font-size="14" lengthAdjust="spacing" textLength="116" x="888" y="694.7285">vehicleRepository:</text><text fill="#000000" font-family="sans-serif" font-size="14" lengthAdjust="spacing" textLength="114" x="889" y="712.3379">VehicleRepository</text><rect fill="#E3E3E3" height="49.2188" rx="2.5" ry="2.5" style="stroke:#181818;stroke-width:0.5;" width="167" x="1021" y="32.3906"/><text fill="#000000" font-family="sans-serif" font-size="14" lengthAdjust="spacing" textLength="153" x="1028" y="53.9238">maintenanceRepository:</text><text fill="#000000" font-family="sans-serif" font-size="14" lengthAdjust="spacing" textLength="149" x="1030" y="71.5332">MaintenanceRepository</text><rect fill="#E3E3E3" height="49.2188" rx="2.5" ry="2.5" style="stroke:#181818;stroke-width:0.5;" width="167" x="1021" y="673.1953"/><text fill="#000000" font-family="sans-serif" font-size="14" lengthAdjust="spacing" textLength="153" x="1028" y="694.7285">maintenanceRepository:</text><text fill="#000000" font-family="sans-serif" font-size="14" lengthAdjust="spacing" textLength="149" x="1030" y="712.3379">MaintenanceRepository</text><rect fill="#E3E3E3" height="49.2188" rx="2.5" ry="2.5" style="stroke:#181818;stroke-width:0.5;" width="142" x="1419.5" y="32.3906"/><text fill="#000000" font-family="sans-serif" font-size="14" lengthAdjust="spacing" textLength="124" x="1428.5" y="53.9238">maintenanceReport</text><text fill="#000000" font-family="sans-serif" font-size="14" lengthAdjust="spacing" textLength="128" x="1426.5" y="71.5332">:MaintenanceReport</text><rect fill="#E3E3E3" height="49.2188" rx="2.5" ry="2.5" style="stroke:#181818;stroke-width:0.5;" width="142" x="1419.5" y="673.1953"/><text fill="#000000" font-family="sans-serif" font-size="14" lengthAdjust="spacing" textLength="124" x="1428.5" y="694.7285">maintenanceReport</text><text fill="#000000" font-family="sans-serif" font-size="14" lengthAdjust="spacing" textLength="128" x="1426.5" y="712.3379">:MaintenanceReport</text><rect fill="#FFFFFF" height="563.5859" style="stroke:#181818;stroke-width:1.0;" width="10" x="17.5" y="92.6094"/><rect fill="#FFFFFF" height="541.2344" style="stroke:#181818;stroke-width:1.0;" width="10" x="304.5" y="114.9609"/><rect fill="#FFFFFF" height="333.8672" style="stroke:#181818;stroke-width:1.0;" width="10" x="560.5" y="187.9219"/><rect fill="#FFFFFF" height="30.3516" style="stroke:#181818;stroke-width:1.0;" width="10" x="560.5" y="595.4922"/><rect fill="#FFFFFF" height="30.3516" style="stroke:#181818;stroke-width:1.0;" width="10" x="710.5" y="218.2734"/><rect fill="#FFFFFF" height="30.3516" style="stroke:#181818;stroke-width:1.0;" width="10" x="710.5" y="400.3828"/><rect fill="#FFFFFF" height="30.3516" style="stroke:#181818;stroke-width:1.0;" width="10" x="817.5" y="278.9766"/><rect fill="#FFFFFF" height="30.3516" style="stroke:#181818;stroke-width:1.0;" width="10" x="817.5" y="461.0859"/><rect fill="#FFFFFF" height="30.3516" style="stroke:#181818;stroke-width:1.0;" width="10" x="941" y="339.6797"/><rect fill="#FFFFFF" height="73.7031" style="stroke:#181818;stroke-width:1.0;" width="10" x="1099.5" y="521.7891"/><polygon fill="#181818" points="292.5,110.9609,302.5,114.9609,292.5,118.9609,296.5,114.9609" style="stroke:#181818;stroke-width:1.0;"/><line style="stroke:#181818;stroke-width:1.0;" x1="27.5" x2="298.5" y1="114.9609" y2="114.9609"/><text fill="#000000" font-family="sans-serif" font-size="13" font-weight="bold" lengthAdjust="spacing" textLength="7" x="34.5" y="110.1045">1</text><text fill="#000000" font-family="sans-serif" font-size="13" lengthAdjust="spacing" textLength="241" x="45.5" y="110.1045">asks to list vehicles needing maintenance</text><polygon fill="#181818" points="462,141.3125,472,145.3125,462,149.3125,466,145.3125" style="stroke:#181818;stroke-width:1.0;"/><line style="stroke:#181818;stroke-width:1.0;" x1="314.5" x2="468" y1="145.3125" y2="145.3125"/><text fill="#000000" font-family="sans-serif" font-size="13" font-weight="bold" lengthAdjust="spacing" textLength="7" x="321.5" y="140.4561">2</text><text fill="#000000" font-family="sans-serif" font-size="13" lengthAdjust="spacing" textLength="36" x="332.5" y="140.4561">create</text><rect fill="#E3E3E3" height="31.6094" rx="2.5" ry="2.5" style="stroke:#181818;stroke-width:0.5;" width="183" x="474" y="122.9609"/><text fill="#000000" font-family="sans-serif" font-size="14" lengthAdjust="spacing" textLength="169" x="481" y="144.4941">:ListMaintenanceController</text><polygon fill="#181818" points="548.5,183.9219,558.5,187.9219,548.5,191.9219,552.5,187.9219" style="stroke:#181818;stroke-width:1.0;"/><line style="stroke:#181818;stroke-width:1.0;" x1="314.5" x2="554.5" y1="187.9219" y2="187.9219"/><text fill="#000000" font-family="sans-serif" font-size="13" font-weight="bold" lengthAdjust="spacing" textLength="7" x="321.5" y="183.0654">3</text><text fill="#000000" font-family="sans-serif" font-size="13" lengthAdjust="spacing" textLength="216" x="332.5" y="183.0654">get vehicles needing maintenance list</text><polygon fill="#181818" points="698.5,214.2734,708.5,218.2734,698.5,222.2734,702.5,218.2734" style="stroke:#181818;stroke-width:1.0;"/><line style="stroke:#181818;stroke-width:1.0;" x1="570.5" x2="704.5" y1="218.2734" y2="218.2734"/><text fill="#000000" font-family="sans-serif" font-size="13" font-weight="bold" lengthAdjust="spacing" textLength="7" x="577.5" y="213.417">4</text><text fill="#000000" font-family="sans-serif" font-size="13" lengthAdjust="spacing" textLength="75" x="588.5" y="213.417">getInstance()</text><polygon fill="#181818" points="581.5,244.625,571.5,248.625,581.5,252.625,577.5,248.625" style="stroke:#181818;stroke-width:1.0;"/><line style="stroke:#181818;stroke-width:1.0;stroke-dasharray:2.0,2.0;" x1="575.5" x2="714.5" y1="248.625" y2="248.625"/><text fill="#000000" font-family="sans-serif" font-size="13" font-weight="bold" lengthAdjust="spacing" textLength="7" x="587.5" y="243.7686">5</text><text fill="#000000" font-family="sans-serif" font-size="13" lengthAdjust="spacing" textLength="67" x="598.5" y="243.7686">repositories</text><polygon fill="#181818" points="805.5,274.9766,815.5,278.9766,805.5,282.9766,809.5,278.9766" style="stroke:#181818;stroke-width:1.0;"/><line style="stroke:#181818;stroke-width:1.0;" x1="570.5" x2="811.5" y1="278.9766" y2="278.9766"/><text fill="#000000" font-family="sans-serif" font-size="13" font-weight="bold" lengthAdjust="spacing" textLength="7" x="577.5" y="274.1201">6</text><text fill="#000000" font-family="sans-serif" font-size="13" lengthAdjust="spacing" textLength="131" x="588.5" y="274.1201">getVehicleRepository()</text><polygon fill="#181818" points="581.5,305.3281,571.5,309.3281,581.5,313.3281,577.5,309.3281" style="stroke:#181818;stroke-width:1.0;"/><line style="stroke:#181818;stroke-width:1.0;stroke-dasharray:2.0,2.0;" x1="575.5" x2="821.5" y1="309.3281" y2="309.3281"/><text fill="#000000" font-family="sans-serif" font-size="13" font-weight="bold" lengthAdjust="spacing" textLength="7" x="587.5" y="304.4717">7</text><text fill="#000000" font-family="sans-serif" font-size="13" lengthAdjust="spacing" textLength="105" x="598.5" y="304.4717">VehicleRepository</text><polygon fill="#181818" points="929,335.6797,939,339.6797,929,343.6797,933,339.6797" style="stroke:#181818;stroke-width:1.0;"/><line style="stroke:#181818;stroke-width:1.0;" x1="570.5" x2="935" y1="339.6797" y2="339.6797"/><text fill="#000000" font-family="sans-serif" font-size="13" font-weight="bold" lengthAdjust="spacing" textLength="7" x="577.5" y="334.8232">8</text><text fill="#000000" font-family="sans-serif" font-size="13" lengthAdjust="spacing" textLength="218" x="588.5" y="334.8232">getVehiclesNeedingMaintenanceList()</text><polygon fill="#181818" points="581.5,366.0313,571.5,370.0313,581.5,374.0313,577.5,370.0313" style="stroke:#181818;stroke-width:1.0;"/><line style="stroke:#181818;stroke-width:1.0;stroke-dasharray:2.0,2.0;" x1="575.5" x2="945" y1="370.0313" y2="370.0313"/><text fill="#000000" font-family="sans-serif" font-size="13" font-weight="bold" lengthAdjust="spacing" textLength="7" x="587.5" y="365.1748">9</text><text fill="#000000" font-family="sans-serif" font-size="13" lengthAdjust="spacing" textLength="181" x="598.5" y="365.1748">vehicleNeedingMaintenanceList</text><polygon fill="#181818" points="698.5,396.3828,708.5,400.3828,698.5,404.3828,702.5,400.3828" style="stroke:#181818;stroke-width:1.0;"/><line style="stroke:#181818;stroke-width:1.0;" x1="570.5" x2="704.5" y1="400.3828" y2="400.3828"/><text fill="#000000" font-family="sans-serif" font-size="13" font-weight="bold" lengthAdjust="spacing" textLength="14" x="577.5" y="395.5264">10</text><text fill="#000000" font-family="sans-serif" font-size="13" lengthAdjust="spacing" textLength="75" x="595.5" y="395.5264">getInstance()</text><polygon fill="#181818" points="581.5,426.7344,571.5,430.7344,581.5,434.7344,577.5,430.7344" style="stroke:#181818;stroke-width:1.0;"/><line style="stroke:#181818;stroke-width:1.0;stroke-dasharray:2.0,2.0;" x1="575.5" x2="714.5" y1="430.7344" y2="430.7344"/><text fill="#000000" font-family="sans-serif" font-size="13" font-weight="bold" lengthAdjust="spacing" textLength="14" x="587.5" y="425.8779">11</text><text fill="#000000" font-family="sans-serif" font-size="13" lengthAdjust="spacing" textLength="67" x="605.5" y="425.8779">repositories</text><polygon fill="#181818" points="805.5,457.0859,815.5,461.0859,805.5,465.0859,809.5,461.0859" style="stroke:#181818;stroke-width:1.0;"/><line style="stroke:#181818;stroke-width:1.0;" x1="570.5" x2="811.5" y1="461.0859" y2="461.0859"/><text fill="#000000" font-family="sans-serif" font-size="13" font-weight="bold" lengthAdjust="spacing" textLength="14" x="577.5" y="456.2295">12</text><text fill="#000000" font-family="sans-serif" font-size="13" lengthAdjust="spacing" textLength="162" x="595.5" y="456.2295">getMaintenanceRepository()</text><polygon fill="#181818" points="581.5,487.4375,571.5,491.4375,581.5,495.4375,577.5,491.4375" style="stroke:#181818;stroke-width:1.0;"/><line style="stroke:#181818;stroke-width:1.0;stroke-dasharray:2.0,2.0;" x1="575.5" x2="821.5" y1="491.4375" y2="491.4375"/><text fill="#000000" font-family="sans-serif" font-size="13" font-weight="bold" lengthAdjust="spacing" textLength="14" x="587.5" y="486.5811">13</text><text fill="#000000" font-family="sans-serif" font-size="13" lengthAdjust="spacing" textLength="136" x="605.5" y="486.5811">MaintenanceRepository</text><polygon fill="#181818" points="1087.5,517.7891,1097.5,521.7891,1087.5,525.7891,1091.5,521.7891" style="stroke:#181818;stroke-width:1.0;"/><line style="stroke:#181818;stroke-width:1.0;" x1="565.5" x2="1093.5" y1="521.7891" y2="521.7891"/><text fill="#000000" font-family="sans-serif" font-size="13" font-weight="bold" lengthAdjust="spacing" textLength="14" x="572.5" y="516.9326">14</text><text fill="#000000" font-family="sans-serif" font-size="13" lengthAdjust="spacing" textLength="337" x="590.5" y="516.9326">createMaintenanceReport(vehicleNeedingMaintenanceList)</text><line style="stroke:#181818;stroke-width:1.0;" x1="1109.5" x2="1151.5" y1="552.1406" y2="552.1406"/><line style="stroke:#181818;stroke-width:1.0;" x1="1151.5" x2="1151.5" y1="552.1406" y2="565.1406"/><line style="stroke:#181818;stroke-width:1.0;" x1="1110.5" x2="1151.5" y1="565.1406" y2="565.1406"/><polygon fill="#181818" points="1120.5,561.1406,1110.5,565.1406,1120.5,569.1406,1116.5,565.1406" style="stroke:#181818;stroke-width:1.0;"/><text fill="#000000" font-family="sans-serif" font-size="13" font-weight="bold" lengthAdjust="spacing" textLength="14" x="1116.5" y="547.2842">15</text><text fill="#000000" font-family="sans-serif" font-size="13" lengthAdjust="spacing" textLength="344" x="1134.5" y="547.2842">createMaintenanceReport(vehiclesNeedingMaintenanceList)</text><polygon fill="#181818" points="581.5,591.4922,571.5,595.4922,581.5,599.4922,577.5,595.4922" style="stroke:#181818;stroke-width:1.0;"/><line style="stroke:#181818;stroke-width:1.0;stroke-dasharray:2.0,2.0;" x1="575.5" x2="1103.5" y1="595.4922" y2="595.4922"/><text fill="#000000" font-family="sans-serif" font-size="13" font-weight="bold" lengthAdjust="spacing" textLength="14" x="587.5" y="590.6357">16</text><text fill="#000000" font-family="sans-serif" font-size="13" lengthAdjust="spacing" textLength="116" x="605.5" y="590.6357">maintenance Report</text><polygon fill="#181818" points="325.5,621.8438,315.5,625.8438,325.5,629.8438,321.5,625.8438" style="stroke:#181818;stroke-width:1.0;"/><line style="stroke:#181818;stroke-width:1.0;stroke-dasharray:2.0,2.0;" x1="319.5" x2="564.5" y1="625.8438" y2="625.8438"/><text fill="#000000" font-family="sans-serif" font-size="13" font-weight="bold" lengthAdjust="spacing" textLength="14" x="331.5" y="620.9873">17</text><text fill="#000000" font-family="sans-serif" font-size="13" lengthAdjust="spacing" textLength="116" x="349.5" y="620.9873">maintenance Report</text><polygon fill="#181818" points="33.5,652.1953,23.5,656.1953,33.5,660.1953,29.5,656.1953" style="stroke:#181818;stroke-width:1.0;"/><line style="stroke:#181818;stroke-width:1.0;stroke-dasharray:2.0,2.0;" x1="27.5" x2="308.5" y1="656.1953" y2="656.1953"/><text fill="#000000" font-family="sans-serif" font-size="13" font-weight="bold" lengthAdjust="spacing" textLength="14" x="39.5" y="651.3389">18</text><text fill="#000000" font-family="sans-serif" font-size="13" lengthAdjust="spacing" textLength="235" x="57.5" y="651.3389">displays list of vehicles needing checkup</text><!--SRC=[fLN9RkCm3BthAuXSkW3v0Hy661GO840oABgTUb5b9XPYIuQaT2P_FvISU9Fif1rT4b3a8v_uJDgzL3Ktl89AAoqAeoi4Pmx8R7jJSx7dEtnsnnB1e71SxSg-Woruhlz8jOCjBoqonWzEgqFrWOQncqBc25kjtOV-oxXmsi3YxTTc0Tm2_JB2S5B8cYi7YsmjhTjmgHmghWI-heBVwshUxK4hPtHPeWdk3ozFwr704zRQIaekqGQVrd1ybfuFLJmCCRs8TnK3FAv_lWmZFh6GeiGEENjNRsDRmtji7G9L7RC1s2Pb3u39crbGuuZKPcnBWHd7VD_a9tSOEiQ03ls1vG_g36GKixVWD9JK5JYzWWM5c7jHz1A7o1QBkXeC_X0EeVd6tTyJeZ187gbhkjpXV9PGHnlQfWkgQCt-13p2JMYXIRDIrdd4sxj1N0kP4j70qvyK-lB49eE-p0QXELwVvap4QxAfF5BO58KWuwZc0DGL6Ujrej8OxLnQ136eq_vksjYJdl_4fugEwuaOnFcMdO9EwaaddUAMI1fb_QwYlgwg_r3MLzMLLbXovCpHIYijeRRqC9jXq21Frfp4QuTCDErkPzLnDrT8636J3v3c5VcdovtYSP66dU9nRUBki-dFsDDcc7cCA-XUdCtd3NCXyxW5WxtXXmyjgmnoQUkI7sspf_GsNYAYGB4_r6o4wHTLVn3G3lm7]--></g></svg>