<?xml version="1.0" encoding="UTF-8" standalone="no"?><svg xmlns="http://www.w3.org/2000/svg" xmlns:xlink="http://www.w3.org/1999/xlink" contentStyleType="text/css" height="708px" preserveAspectRatio="none" style="width:1056px;height:708px;background:#FFFFFF;" version="1.1" viewBox="0 0 1056 708" width="1056px" zoomAndPan="magnify"><defs/><g><text fill="#000000" font-family="sans-serif" font-size="14" font-weight="bold" lengthAdjust="spacing" textLength="100" x="471" y="24.5332">Domain Model</text><!--class Employee--><g id="elem_Employee"><rect codeLine="11" fill="#F1F1F1" height="35.6094" id="Employee" rx="2.5" ry="2.5" style="stroke:#181818;stroke-width:0.5;" width="68" x="7" y="300.7194"/><text fill="#000000" font-family="sans-serif" font-size="14" lengthAdjust="spacing" textLength="62" x="10" y="320.2526">Employee</text><line style="stroke:#181818;stroke-width:0.5;" x1="8" x2="74" y1="328.3287" y2="328.3287"/></g><!--class HRM--><g id="elem_HRM"><rect codeLine="14" fill="#F1F1F1" height="35.6094" id="HRM" rx="2.5" ry="2.5" style="stroke:#181818;stroke-width:0.5;" width="36" x="198.5" y="467.7194"/><text fill="#000000" font-family="sans-serif" font-size="14" lengthAdjust="spacing" textLength="30" x="201.5" y="487.2526">HRM</text><line style="stroke:#181818;stroke-width:0.5;" x1="199.5" x2="233.5" y1="495.3288" y2="495.3288"/></g><!--class FM--><g id="elem_FM"><rect codeLine="17" fill="#F1F1F1" height="35.6094" id="FM" rx="2.5" ry="2.5" style="stroke:#181818;stroke-width:0.5;" width="26" x="203.5" y="73.7194"/><text fill="#000000" font-family="sans-serif" font-size="14" lengthAdjust="spacing" textLength="20" x="206.5" y="93.2526">FM</text><line style="stroke:#181818;stroke-width:0.5;" x1="204.5" x2="228.5" y1="101.3288" y2="101.3288"/></g><!--class Skill--><g id="elem_Skill"><rect codeLine="20" fill="#F1F1F1" height="53.2188" id="Skill" rx="2.5" ry="2.5" style="stroke:#181818;stroke-width:0.5;" width="85" x="433.5" y="401.2194"/><text fill="#000000" font-family="sans-serif" font-size="14" lengthAdjust="spacing" textLength="25" x="463.5" y="420.7526">Skill</text><line style="stroke:#181818;stroke-width:0.5;" x1="434.5" x2="517.5" y1="428.8287" y2="428.8287"/><text fill="#000000" font-family="sans-serif" font-size="14" lengthAdjust="spacing" textLength="73" x="439.5" y="447.362">designation</text></g><!--class Job--><g id="elem_Job"><rect codeLine="24" fill="#F1F1F1" height="70.8281" id="Job" rx="2.5" ry="2.5" style="stroke:#181818;stroke-width:0.5;" width="81" x="435.5" y="489.2194"/><text fill="#000000" font-family="sans-serif" font-size="14" lengthAdjust="spacing" textLength="22" x="465" y="508.7526">Job</text><line style="stroke:#181818;stroke-width:0.5;" x1="436.5" x2="515.5" y1="516.8288" y2="516.8288"/><text fill="#000000" font-family="sans-serif" font-size="14" lengthAdjust="spacing" textLength="22" x="441.5" y="535.362">title</text><text fill="#000000" font-family="sans-serif" font-size="14" lengthAdjust="spacing" textLength="69" x="441.5" y="552.9713">description</text></g><!--class Collaborator--><g id="elem_Collaborator"><rect codeLine="29" fill="#F1F1F1" height="35.6094" id="Collaborator" rx="2.5" ry="2.5" style="stroke:#181818;stroke-width:0.5;" width="84" x="626" y="457.7194"/><text fill="#000000" font-family="sans-serif" font-size="14" lengthAdjust="spacing" textLength="78" x="629" y="477.2526">Collaborator</text><line style="stroke:#181818;stroke-width:0.5;" x1="627" x2="709" y1="485.3288" y2="485.3288"/></g><!--class IdentificationDocument--><g id="elem_IdentificationDocument"><rect codeLine="32" fill="#F1F1F1" height="70.8281" id="IdentificationDocument" rx="2.5" ry="2.5" style="stroke:#181818;stroke-width:0.5;" width="149" x="900" y="440.2194"/><text fill="#000000" font-family="sans-serif" font-size="14" lengthAdjust="spacing" textLength="143" x="903" y="459.7526">IdentificationDocument</text><line style="stroke:#181818;stroke-width:0.5;" x1="901" x2="1048" y1="467.8287" y2="467.8287"/><text fill="#000000" font-family="sans-serif" font-size="14" lengthAdjust="spacing" textLength="128" x="906" y="486.362">identificationNumber</text><text fill="#000000" font-family="sans-serif" font-size="14" lengthAdjust="spacing" textLength="104" x="906" y="503.9713">taxPayerNumber</text></g><!--class Team--><g id="elem_Team"><rect codeLine="38" fill="#F1F1F1" height="70.8281" id="Team" rx="2.5" ry="2.5" style="stroke:#181818;stroke-width:0.5;" width="70" x="441" y="595.2194"/><text fill="#000000" font-family="sans-serif" font-size="14" lengthAdjust="spacing" textLength="36" x="458" y="614.7526">Team</text><line style="stroke:#181818;stroke-width:0.5;" x1="442" x2="510" y1="622.8288" y2="622.8288"/><text fill="#000000" font-family="sans-serif" font-size="14" lengthAdjust="spacing" textLength="35" x="447" y="641.362">name</text><text fill="#000000" font-family="sans-serif" font-size="14" lengthAdjust="spacing" textLength="58" x="447" y="658.9713">members</text></g><!--class Vehicle--><g id="elem_Vehicle"><rect codeLine="43" fill="#F1F1F1" height="176.4844" id="Vehicle" rx="2.5" ry="2.5" style="stroke:#181818;stroke-width:0.5;" width="161" x="136" y="162.7194"/><text fill="#000000" font-family="sans-serif" font-size="14" lengthAdjust="spacing" textLength="46" x="193.5" y="182.2526">Vehicle</text><line style="stroke:#181818;stroke-width:0.5;" x1="137" x2="296" y1="190.3288" y2="190.3288"/><text fill="#000000" font-family="sans-serif" font-size="14" lengthAdjust="spacing" textLength="18" x="142" y="208.862">vin</text><text fill="#000000" font-family="sans-serif" font-size="14" lengthAdjust="spacing" textLength="76" x="142" y="226.4713">vehiclePlate</text><text fill="#000000" font-family="sans-serif" font-size="14" lengthAdjust="spacing" textLength="69" x="142" y="244.0807">tareWeight</text><text fill="#000000" font-family="sans-serif" font-size="14" lengthAdjust="spacing" textLength="79" x="142" y="261.6901">grossWeight</text><text fill="#000000" font-family="sans-serif" font-size="14" lengthAdjust="spacing" textLength="65" x="142" y="279.2995">currentKm</text><text fill="#000000" font-family="sans-serif" font-size="14" lengthAdjust="spacing" textLength="97" x="142" y="296.9088">acquisitionDate</text><text fill="#000000" font-family="sans-serif" font-size="14" lengthAdjust="spacing" textLength="149" x="142" y="314.5182">maintenanceFrequency</text><text fill="#000000" font-family="sans-serif" font-size="14" lengthAdjust="spacing" textLength="27" x="142" y="332.1276">type</text></g><!--class Brand--><g id="elem_Brand"><rect codeLine="54" fill="#F1F1F1" height="53.2188" id="Brand" rx="2.5" ry="2.5" style="stroke:#181818;stroke-width:0.5;" width="50" x="451" y="224.2194"/><text fill="#000000" font-family="sans-serif" font-size="14" lengthAdjust="spacing" textLength="38" x="457" y="243.7526">Brand</text><line style="stroke:#181818;stroke-width:0.5;" x1="452" x2="500" y1="251.8287" y2="251.8287"/><text fill="#000000" font-family="sans-serif" font-size="14" lengthAdjust="spacing" textLength="38" x="457" y="270.362">model</text></g><!--class VehicleCheckup--><g id="elem_VehicleCheckup"><rect codeLine="58" fill="#F1F1F1" height="70.8281" id="VehicleCheckup" rx="2.5" ry="2.5" style="stroke:#181818;stroke-width:0.5;" width="108" x="422" y="118.2194"/><text fill="#000000" font-family="sans-serif" font-size="14" lengthAdjust="spacing" textLength="102" x="425" y="137.7526">VehicleCheckup</text><line style="stroke:#181818;stroke-width:0.5;" x1="423" x2="529" y1="145.8288" y2="145.8288"/><text fill="#000000" font-family="sans-serif" font-size="14" lengthAdjust="spacing" textLength="28" x="428" y="164.362">date</text><text fill="#000000" font-family="sans-serif" font-size="14" lengthAdjust="spacing" textLength="65" x="428" y="181.9713">currentKm</text></g><!--class Person--><g id="elem_Person"><rect codeLine="63" fill="#F1F1F1" height="106.0469" id="Person" rx="2.5" ry="2.5" style="stroke:#181818;stroke-width:0.5;" width="68" x="771" y="422.7194"/><text fill="#000000" font-family="sans-serif" font-size="14" lengthAdjust="spacing" textLength="45" x="782.5" y="442.2526">Person</text><line style="stroke:#181818;stroke-width:0.5;" x1="772" x2="838" y1="450.3287" y2="450.3287"/><text fill="#000000" font-family="sans-serif" font-size="14" lengthAdjust="spacing" textLength="35" x="777" y="468.862">name</text><text fill="#000000" font-family="sans-serif" font-size="14" lengthAdjust="spacing" textLength="56" x="777" y="486.4713">birthdate</text><text fill="#000000" font-family="sans-serif" font-size="14" lengthAdjust="spacing" textLength="51" x="777" y="504.0807">address</text><text fill="#000000" font-family="sans-serif" font-size="14" lengthAdjust="spacing" textLength="46" x="777" y="521.6901">contact</text></g><!--link Vehicle to Brand--><g id="link_Vehicle_Brand"><path codeLine="70" d="M297.21,250.7194 C347.61,250.7194 409.8,250.7194 445.68,250.7194 " fill="none" id="Vehicle-to-Brand" style="stroke:#181818;stroke-width:1.0;"/><polygon fill="#181818" points="450.77,250.7194,441.77,246.7194,445.77,250.7194,441.77,254.7194,450.77,250.7194" style="stroke:#181818;stroke-width:1.0;"/></g><!--link Employee to HRM--><g id="link_Employee_HRM"><path codeLine="72" d="M60.9,336.9094 C93.56,368.3394 160.34,432.6194 194.44,465.4394 " fill="none" id="Employee-to-HRM" style="stroke:#181818;stroke-width:1.0;"/><polygon fill="#181818" points="198.43,469.2894,194.7091,460.1704,194.8236,465.8261,189.1679,465.9406,198.43,469.2894" style="stroke:#181818;stroke-width:1.0;"/></g><!--link Employee to FM--><g id="link_Employee_FM"><path codeLine="73" d="M48.36,300.6594 C60.92,266.9494 91.6,193.4394 136,144.7194 C154.18,124.7694 181.36,108.7694 198.76,99.7494 " fill="none" id="Employee-to-FM" style="stroke:#181818;stroke-width:1.0;"/><polygon fill="#181818" points="203.4,97.3994,193.5637,97.8969,198.9394,99.6583,197.178,105.0339,203.4,97.3994" style="stroke:#181818;stroke-width:1.0;"/></g><!--link HRM to Skill--><g id="link_HRM_Skill"><path codeLine="75" d="M234.8,481.8194 C275.05,472.7494 375.95,450.0294 433.35,437.0994 " fill="none" id="HRM-Skill" style="stroke:#181818;stroke-width:1.0;"/><polygon fill="#000000" points="340.3778,435.7965,330.908,434.9169,332.1995,440.6511,340.3778,435.7965" style="stroke:#000000;stroke-width:1.0;"/><text fill="#000000" font-family="sans-serif" font-size="13" lengthAdjust="spacing" textLength="43" x="344.5" y="442.2145">creates</text><text fill="#000000" font-family="sans-serif" font-size="13" lengthAdjust="spacing" textLength="5" x="242.47" y="475.0632">*</text><text fill="#000000" font-family="sans-serif" font-size="13" lengthAdjust="spacing" textLength="20" x="405.617" y="453.1569">1..*</text></g><!--link HRM to Job--><g id="link_HRM_Job"><path codeLine="77" d="M234.87,489.6694 C256.39,494.4694 294.25,502.5494 327,507.7194 C363.53,513.4694 405.43,518.0994 435.3,521.0694 " fill="none" id="HRM-Job" style="stroke:#181818;stroke-width:1.0;"/><polygon fill="#000000" points="340.4397,499.669,331.9585,495.3656,331.0488,501.1726,340.4397,499.669" style="stroke:#000000;stroke-width:1.0;"/><text fill="#000000" font-family="sans-serif" font-size="13" lengthAdjust="spacing" textLength="43" x="344.5" y="504.2145">creates</text><text fill="#000000" font-family="sans-serif" font-size="13" lengthAdjust="spacing" textLength="5" x="242.5658" y="507.7079">*</text><text fill="#000000" font-family="sans-serif" font-size="13" lengthAdjust="spacing" textLength="20" x="407.5366" y="535.2707">1..*</text></g><!--link Collaborator to Person--><g id="link_Collaborator_Person"><path codeLine="79" d="M710.24,475.7194 C727.81,475.7194 748.19,475.7194 765.45,475.7194 " fill="none" id="Collaborator-to-Person" style="stroke:#181818;stroke-width:1.0;"/><polygon fill="#181818" points="770.7,475.7194,761.7,471.7194,765.7,475.7194,761.7,479.7194,770.7,475.7194" style="stroke:#181818;stroke-width:1.0;"/></g><!--link Person to IdentificationDocument--><g id="link_Person_IdentificationDocument"><path codeLine="80" d="M839.09,475.7194 C855.11,475.7194 875.08,475.7194 894.7,475.7194 " fill="none" id="Person-to-IdentificationDocument" style="stroke:#181818;stroke-width:1.0;"/><polygon fill="#181818" points="899.94,475.7194,890.94,471.7194,894.94,475.7194,890.94,479.7194,899.94,475.7194" style="stroke:#181818;stroke-width:1.0;"/></g><!--link HRM to Collaborator--><g id="link_HRM_Collaborator"><path codeLine="81" d="M234.61,472.9194 C268.29,448.7394 346.49,397.5394 422,383.7194 C469.21,375.0694 483.7,371.0594 530,383.7194 C562.87,392.6994 567.64,403.8294 596,422.7194 C612.52,433.7094 630.42,447.0894 644.11,457.6494 " fill="none" id="HRM-Collaborator" style="stroke:#181818;stroke-width:1.0;"/><polygon fill="#000000" points="453.4965,365.7088,444.3482,363.109,444.5672,368.9828,453.4965,365.7088" style="stroke:#000000;stroke-width:1.0;"/><text fill="#000000" font-family="sans-serif" font-size="13" lengthAdjust="spacing" textLength="50" x="457.5" y="371.2145">registers</text><text fill="#000000" font-family="sans-serif" font-size="13" lengthAdjust="spacing" textLength="5" x="239.9516" y="456.8803">*</text><text fill="#000000" font-family="sans-serif" font-size="13" lengthAdjust="spacing" textLength="7" x="628.3794" y="446.953">1</text></g><!--link Job to Collaborator--><g id="link_Job_Collaborator"><path codeLine="83" d="M516.83,514.4394 C548.82,506.1894 593.59,494.6494 625.91,486.3094 " fill="none" id="Job-Collaborator" style="stroke:#181818;stroke-width:1.0;"/><polygon fill="#000000" points="574.8416,483.6466,565.3492,483.0595,566.817,488.7511,574.8416,483.6466" style="stroke:#000000;stroke-width:1.0;"/><text fill="#000000" font-family="sans-serif" font-size="13" lengthAdjust="spacing" textLength="11" x="579" y="490.2145">to</text><text fill="#000000" font-family="sans-serif" font-size="13" lengthAdjust="spacing" textLength="7" x="524.4492" y="527.5876">1</text><text fill="#000000" font-family="sans-serif" font-size="13" lengthAdjust="spacing" textLength="20" x="597.9337" y="502.7079">1..*</text></g><!--link Skill to Collaborator--><g id="link_Skill_Collaborator"><path codeLine="86" d="M518.7,438.2494 C550.48,446.2794 594.05,457.2894 625.73,465.2894 " fill="none" id="Skill-Collaborator" style="stroke:#181818;stroke-width:1.0;"/><polygon fill="#000000" points="574.8477,441.1199,566.798,436.0549,565.3583,441.7537,574.8477,441.1199" style="stroke:#000000;stroke-width:1.0;"/><text fill="#000000" font-family="sans-serif" font-size="13" lengthAdjust="spacing" textLength="11" x="579" y="445.2145">to</text><text fill="#000000" font-family="sans-serif" font-size="13" lengthAdjust="spacing" textLength="5" x="526.4688" y="454.9407">*</text><text fill="#000000" font-family="sans-serif" font-size="13" lengthAdjust="spacing" textLength="20" x="598.0528" y="478.4821">1..*</text></g><!--link HRM to Team--><g id="link_HRM_Team"><path codeLine="88" d="M234.8,495.4494 C276.86,519.1394 385.12,580.0994 440.8,611.4594 " fill="none" id="HRM-Team" style="stroke:#181818;stroke-width:1.0;"/><polygon fill="#000000" points="336.3567,542.3486,329.9175,535.3495,327.0333,540.471,336.3567,542.3486" style="stroke:#000000;stroke-width:1.0;"/><text fill="#000000" font-family="sans-serif" font-size="13" lengthAdjust="spacing" textLength="50" x="341" y="545.2145">generate</text><text fill="#000000" font-family="sans-serif" font-size="13" lengthAdjust="spacing" textLength="5" x="242.835" y="523.8779">*</text><text fill="#000000" font-family="sans-serif" font-size="13" lengthAdjust="spacing" textLength="7" x="425.8181" y="622.6861">1</text></g><!--link HRM to Person--><g id="link_HRM_Person"><path codeLine="89" d="M228.81,503.7394 C256,545.1394 329.7,646.3494 422,683.7194 C466.49,701.7294 484.51,699.0294 530,683.7194 C627.92,650.7594 718.62,567.3594 767.14,516.7394 " fill="none" id="HRM-to-Person" style="stroke:#181818;stroke-width:1.0;"/><polygon fill="#181818" points="770.85,512.8594,761.7536,516.635,767.4085,516.4865,767.557,522.1414,770.85,512.8594" style="stroke:#181818;stroke-width:1.0;"/></g><!--link Team to Collaborator--><g id="link_Team_Collaborator"><path codeLine="90" d="M511.41,602.6494 C550.12,571.0694 611.87,520.6894 644.73,493.8794 " fill="none" id="Team-Collaborator" style="stroke:#181818;stroke-width:1.0;"/><polygon fill="#000000" points="568.8742,522.7344,560.0078,526.1751,563.7236,530.7295,568.8742,522.7344" style="stroke:#000000;stroke-width:1.0;"/><text fill="#000000" font-family="sans-serif" font-size="13" lengthAdjust="spacing" textLength="21" x="574" y="531.2145">has</text><text fill="#000000" font-family="sans-serif" font-size="13" lengthAdjust="spacing" textLength="5" x="519.2289" y="612.059">*</text><text fill="#000000" font-family="sans-serif" font-size="13" lengthAdjust="spacing" textLength="20" x="640.9978" y="514.8364">1..*</text></g><!--link FM to Vehicle--><g id="link_FM_Vehicle"><path codeLine="92" d="M216.5,109.7694 C216.5,123.1094 216.5,142.3694 216.5,162.3794 " fill="none" id="FM-Vehicle" style="stroke:#181818;stroke-width:1.0;"/><polygon fill="#000000" points="180.5,141.3952,183.4389,132.3501,177.5611,132.3501,180.5,141.3952" style="stroke:#000000;stroke-width:1.0;"/><text fill="#000000" font-family="sans-serif" font-size="13" lengthAdjust="spacing" textLength="43" x="189.5" y="141.7145">creates</text><text fill="#000000" font-family="sans-serif" font-size="13" lengthAdjust="spacing" textLength="7" x="208.5156" y="130.6954">1</text><text fill="#000000" font-family="sans-serif" font-size="13" lengthAdjust="spacing" textLength="5" x="211.293" y="151.8908">*</text></g><!--link FM to VehicleCheckup--><g id="link_FM_VehicleCheckup"><path codeLine="94" d="M229.57,94.6194 C263.38,102.7594 360.52,126.1494 421.96,140.9494 " fill="none" id="FM-VehicleCheckup" style="stroke:#181818;stroke-width:1.0;"/><polygon fill="#000000" points="336.861,112.0658,328.7554,107.0909,327.3793,112.8054,336.861,112.0658" style="stroke:#000000;stroke-width:1.0;"/><text fill="#000000" font-family="sans-serif" font-size="13" lengthAdjust="spacing" textLength="50" x="341" y="116.2145">registers</text><text fill="#000000" font-family="sans-serif" font-size="13" lengthAdjust="spacing" textLength="7" x="237.6479" y="113.6092">1</text><text fill="#000000" font-family="sans-serif" font-size="13" lengthAdjust="spacing" textLength="5" x="409.0091" y="153.8105">*</text></g><!--link Vehicle to VehicleCheckup--><g id="link_Vehicle_VehicleCheckup"><path codeLine="96" d="M297.21,220.6894 C337.68,205.4394 385.75,187.3294 421.7,173.7894 " fill="none" id="Vehicle-VehicleCheckup" style="stroke:#181818;stroke-width:1.0;"/><polygon fill="#000000" points="351.179,175.1324,341.6785,175.571,343.7507,181.0715,351.179,175.1324" style="stroke:#000000;stroke-width:1.0;"/><text fill="#000000" font-family="sans-serif" font-size="13" lengthAdjust="spacing" textLength="21" x="355.5" y="182.2145">has</text><text fill="#000000" font-family="sans-serif" font-size="13" lengthAdjust="spacing" textLength="7" x="304.9731" y="232.1475">1</text><text fill="#000000" font-family="sans-serif" font-size="13" lengthAdjust="spacing" textLength="5" x="409.0675" y="191.0916">*</text></g><!--link FM to Person--><g id="link_FM_Person"><path codeLine="98" d="M229.53,88.4594 C273.18,77.3394 426.13,44.6094 530,100.7194 C659.33,170.5694 743.41,331.1094 781.11,417.7394 " fill="none" id="FM-to-Person" style="stroke:#181818;stroke-width:1.0;"/><polygon fill="#181818" points="783.19,422.5794,783.2843,412.731,781.2032,417.9911,775.9431,415.9099,783.19,422.5794" style="stroke:#181818;stroke-width:1.0;"/></g><!--SRC=[VLFBZXCn4BpxAwnSa91s1TSS8i4k4GiAYWY2i-FfpBJYnwpj0GBYtsa_vk4ea4kcspLLrUqQVqRJ2oSqrzPOsJchWGSt0FFJII_aMRHm21S5t84CmhHg2V2TQEmFD2q_2UMN9r89xz-4uF0u17YIrXpm5_1NhCC6k4GdYIWzQmYTRJnJS0eyMEwmxG9lCEgXDOm532J_QBL0mtUs0SLOekVlTA_i1U0t-pEstd_UyKMvtIsAmncLebDElmOyjaOaXGdmmHxBST8SWT9XNmCVh5BYQ9q8rYtbdXem0Kye4_6ZbOEcHgR4wkpJe8_WifRukHSNSAL5P8Nj2z0Yyyj6w6n7GmJvMV8hT4YxBBZlQF9_xkwL251477o3kDfKjivwlwZbu1pP-wXJ9UJpW1xJ32D1t7u08uo4hOFd0OoyPEPB3xETjqwO9dlHwQgkZJvq8Cz3NsvXP9_r9_oUnhJcUluZkj1DhuccSU1zfh0c21aYmRYJkxjDDiJO69NKev3KZUsEiPYSrSiLrNpr-lwUdd9Urbmw847FDxT0CJCLfCf6OY-Zi39HxjsEIYsmgeEsfc-mHH-8XeHUH6Y1PHEqDSfqF8jrxCyshuZeEoEhYQB6ZJFFNBbJ3tsJxSfwJE-Qjs20O40Nj4c8QYCfuV-bxaHQwhRuJE3nUkUr_mjImdQrkIaVu-YtNfY5AyT_0G00]--></g></svg>